<?xml version="1.0" encoding="UTF-8" standalone="no"?>
<svg xmlns:rdf="http://www.w3.org/1999/02/22-rdf-syntax-ns#" xmlns="http://www.w3.org/2000/svg" xml:space="preserve" height="165" viewBox="0 0 150 165" width="150" version="1.1" xmlns:cc="http://creativecommons.org/ns#" xmlns:dc="http://purl.org/dc/elements/1.1/">
<defs><style type="text/css">
@font-face {
  font-family: 'Roboto';
  font-weight: 300;
  font-style: normal;
  src: url('../fonts/roboto/Roboto-300/Roboto-300.eot');
  src: url('../fonts/roboto/Roboto-300/Roboto-300.eot?#iefix') format('embedded-opentype'),
       local('Roboto Light'),
       local('Roboto-300'),
       url('../fonts/roboto/Roboto-300/Roboto-300.woff2') format('woff2'),
       url('../fonts/roboto/Roboto-300/Roboto-300.woff') format('woff'),
       url('../fonts/roboto/Roboto-300/Roboto-300.ttf') format('truetype'),
       url('../fonts/roboto/Roboto-300/Roboto-300.svg#Roboto') format('svg');
}
</style></defs>
<g transform="matrix(1.25 0 0 -1.25 6.12678e-7 200.276)"><g>
<path d="m109.484 55.6529h3.54307c0.90915 0 1.57472-0.231559 1.99683-0.694246 0.42222-0.45457 0.63332-1.11592 0.63332-1.98449 0-0.803642-0.24789-1.41208-0.74293-1.82608-0.49526-0.405878-1.2131-0.609088-2.15481-0.609088h-3.27548v5.1139zm0 7.14718h2.43516c1.02287 0 1.79004-0.19477 2.30153-0.584418 0.51949-0.389647 0.77929-0.993975 0.77929-1.81374 0-0.746834-0.25623-1.31502-0.76761-1.70467-0.51148-0.389648-1.24198-0.584418-2.1917-0.584418h-2.55667v4.68724zm-16.4354 0h2.35011c1.27444 0 2.27329-0.4299 2.99578-1.29035 0.722379-0.860449 1.08314-1.97637 1.08314-3.3482v-2.95931c0-1.38806-0.360757-2.51188-1.08314-3.37233-0.722488-0.86045-1.72133-1.29089-2.99578-1.29089h-2.35011v12.2611zm10.9929 2.73976v-2.14301l1.88721-0.364869v-12.7241l-1.88721-0.365734v-2.13067h8.718c2.05374 0 3.64057 0.43412 4.76082 1.30268 1.12004 0.87668 1.67989 2.16346 1.67989 3.86001 0 0.982181-0.26759 1.84685-0.80331 2.59368-0.52761 0.746726-1.32303 1.23387-2.38647 1.4611 0.82798 0.324724 1.45687 0.807537 1.8871 1.44876 0.43845 0.649449 0.65778 1.38416 0.65778 2.20404 0 1.6154-0.58431 2.82882-1.75336 3.64046-1.16884 0.811757-2.79657 1.21764-4.88277 1.21764h-5.99047-1.88721zm-16.4353 0v-2.14301l1.88699-0.364869v-12.7241l-1.88699-0.365734v-2.13067h7.97517c2.16725 0 3.95307 0.686131 5.35736 2.05796 1.40429 1.37994 2.10665 3.15733 2.10665 5.3328v2.93464c0 2.16725-0.70236 3.94106-2.10665 5.32111-1.40429 1.38806-3.19011 2.08187-5.35736 2.08187h-6.08818-1.88699z" fill="#577138"/>
<path d="m35.2462 53.5788h1.81439v-2.17547c-0.243463-0.349071-0.584418-0.641225-1.02276-0.87668-0.43834-0.22734-0.925373-0.340956-1.4611-0.340956-0.511487 0-0.913145 0.126384-1.2053 0.377962-0.284147 0.251686-0.426654 0.600432-0.426654 1.04689 0 0.495148 0.19477 1.08335 0.584418 1.43253 0.389647 0.357186 0.962054 0.535725 1.717 0.535725m29.722 4.8867c0.52761 0 0.977961-0.109504 1.35138-0.32862 0.381424-0.219116 0.685697-0.52761 0.912929-0.925373v-5.72244c-0.227232-0.381641-0.531505-0.673687-0.912929-0.876681-0.373417-0.194878-0.832208-0.292154-1.37605-0.292154-0.87668 0-1.5099 0.328187-1.89955 0.985643-0.389648 0.665679-0.584417 1.57482-0.584417 2.72743v0.255905c0 1.24198 0.198989 2.24862 0.596753 3.01969 0.405878 0.77118 1.04332 1.15661 1.91188 1.15661m14.5761 0.02467c0.925373 0 1.60306-0.369197 2.03329-1.10802 0.430225-0.738502 0.645445-1.69287 0.645445-2.86182v-0.255148c0-1.19329-0.21522-2.15524-0.645445-2.88584-0.422109-0.730603-1.09201-1.09612-2.00927-1.09612-0.941603 0-1.62351 0.361298-2.04552 1.08379-0.422109 0.730603-0.633326 1.69677-0.633326 2.89817v0.255148c0 1.16894 0.211217 2.12332 0.633326 2.86182 0.422001 0.738827 1.09612 1.10802 2.02149 1.10802m0 2.73965c-1.94002 0-3.46246-0.629431-4.56648-1.88764-1.0958-1.2502-1.64364-2.85749-1.64364-4.82185v-0.255148c0-1.9807 0.547844-3.59642 1.64364-4.8463 1.10402-1.24209 2.63426-1.86319 4.59051-1.86319 1.93201 0 3.44602 0.621099 4.54192 1.86319 1.10391 1.24988 1.65587 2.8656 1.65587 4.8463v0.255148c0 1.97258-0.551955 3.58409-1.65587 4.83408-1.0959 1.25021-2.61771 1.87542-4.56594 1.87542m-27.8361 0c-0.795526 0-1.51412-0.186979-2.15534-0.560396-0.6412-0.3733-1.1806-0.897-1.6189-1.5708l-0.158413 1.88775h-5.19905v-2.14301l1.88721-0.365626v-8.16983l-1.70467-0.365626v-2.13078h6.69651v2.13078l-1.43643 0.365626v7.06203c0.251577 0.349071 0.564291 0.616554 0.937708 0.803209 0.373308 0.194986 0.795418 0.292371 1.26622 0.292371 0.722487 0 1.26178-0.186438 1.61897-0.559855 0.357186-0.365302 0.535725-0.990621 0.535725-1.87542v-5.72234l-1.52148-0.365626v-2.13078h6.79389v2.13078l-1.70467 0.365626v5.73467c0 1.78571-0.373417 3.09662-1.12025 3.93273-0.746725 0.836103-1.78582 1.25453-3.11696 1.25453m-16.5835 0c-0.860883 0-1.66333-0.120325-2.41385-0.34734-0.3559-0.0938-0.7292-0.2149-1.0929-0.3761-1.3975-0.6189-1.8891-1.1389-1.8891-1.1389l1.68443-2.22741s0.536915 0.579656 2.06056 1.22986c0.446022 0.188494 0.997004 0.264346 1.4189 0.266294 0.714373 0 1.25432-0.174427 1.61962-0.523498 0.365302-0.348962 0.548061-0.840215 0.548061-1.47332v-1.1248h-1.81439c-1.91567 0-3.36844-0.503047-4.35873-1.17663-0.990296-0.673903-1.48577-1.62741-1.48577-2.86138 0-1.2093 0.377637-2.16725 1.13248-2.8734 0.763064-0.69825 1.79004-1.04754 3.08072-1.04754 0.779296 0 1.469 0.150406 2.06964 0.450676 0.608764 0.30027 1.12404 0.694246 1.54615 1.18128 0.04069-0.235455 0.09782-0.471234 0.170856-0.706581 0.07304-0.22734 0.158413-0.450351 0.255797-0.669575h4.10293v2.13078l-1.08324 0.145969c-0.02435 0.162308-0.04058 0.333165-0.04869 0.511812v0.57219 5.44252c0 1.47722-0.511704 2.6137-1.53446 3.40912-1.01475 0.80375-2.33756 1.20595-3.96908 1.20595m-7.80507 0c-0.641225 0-1.2053-0.191199-1.69233-0.572623-0.487033-0.381533-0.885121-0.913038-1.19351-1.59495l-0.158521 1.92411h-5.19895v-2.14301l1.8871-0.365626v-8.16983l-1.70467-0.365626v-2.13078h6.96475v2.13078l-1.70467 0.365626v6.40425c0.178539 0.373417 0.43834 0.662001 0.779296 0.864994 0.340847 0.202885 0.771396 0.303949 1.291 0.303949l1.4611-0.03657 0.377313 3.23924c-0.138071 0.04058-0.312389 0.07315-0.52339 0.09749-0.202993 0.03246-0.397763 0.04859-0.584526 0.04859m40.4285 0.04426-0.296158-1.94359c-0.397764 0.608764-0.877005 1.07534-1.43718 1.40007-0.559963 0.332731-1.20941 0.49926-1.94802 0.49926-1.63174 0-2.90153-0.63733-3.81067-1.91167-0.901027-1.27444-1.35203-2.95087-1.35203-5.02896v-0.255905c0-1.94002 0.451-3.50629 1.35203-4.69958 0.909142-1.18517 2.17125-1.77803 3.78665-1.77803 0.681803 0 1.28667 0.129847 1.81428 0.389648 0.527717 0.259801 0.985859 0.63733 1.3754 1.13248v-0.864237c0-0.941603-0.214572-1.67643-0.644796-2.20404-0.430225-0.52761-1.07957-0.791739-1.94813-0.791739-0.63311 0-1.23387 0.07336-1.80205 0.219657-0.568186 0.137854-1.13659 0.328512-1.70467 0.572082l-0.657781-2.4963c0.63311-0.316501 1.32346-0.563642 2.07019-0.742289 0.746834-0.186655 1.45266-0.280577 2.11834-0.280577 1.90755 0 3.40544 0.519494 4.49312 1.55859 1.0958 1.03087 1.64364 2.41514 1.64364 4.15228v2.2761l0.0031-0.0084v8.29654l1.88732 0.365626v2.14301h-4.9425-0.000108zm-58.5224 0.187087h0.073363l1.6247-5.08284h-3.32483l1.62676 5.08284zm-1.7649 4.0788-5.39447-15.4146-1.26633-0.1831v-2.13078h6.03927v2.13078l-1.22921 0.219441 1.15131 3.59891h4.97886l1.17544-3.59891-1.22997-0.219441v-2.13078h6.03938v2.13078l-1.26633 0.183084-5.35747 15.4146h-3.64046z" fill="#a3b34f"/></g><g>
<path d="m113.42 121.032c-1.74202 4.64907-3.78442 7.73357-6.20997 11.3934-2.9677 4.48106-5.62068 7.53482-7.75159 9.96406-4.54294 5.18753-6.81645 7.7811-9.90381 9.66449-5.3285 3.25169-10.4775 3.83933-13.4063 4.14462-6.9107 0.71632-12.19-0.74869-14.7578-1.4859-2.64151-0.76098-7.87617-2.32064-13.3411-6.61279-4.95191-3.8885-7.99829-9.74235-9.65466-12.8961-1.52154-2.84126 27.6386-38.1712 29.4647-39.1309 1.10643-0.572068 4.18683-1.97806 6.08948-2.94066 0.619193-0.313489 1.18798-0.594196 1.7203-0.852364 0.85892-0.393399 1.66006-0.769996 2.41448-1.13061 2.42883-1.0966 3.93317-1.65432 5.92311-2.69601 6.89636-3.60575 14.1783-2.57799 15.2565-2.40916 1.43099 0.220058 11.3819 1.75964 15.5032 9.67843 2.17394 4.17658 1.79529 8.33718 1.27813 14.0312-0.14629 1.61499-0.63927 5.98499-2.6247 11.2782" fill="#a3b34f"/>
<path d="m80.0275 93.0769c7.24796-2.77469 9.62966-4.22371 12.7387-4.60276 1.01997-0.122117 10.7525-0.733934 16.4592 4.65522 4.24706 4.00939 4.45155 8.06426 4.69578 9.97266 0.84663 6.58206-1.0257 15.0225-3.21193 19.1688-2.87018 5.44365-3.6119 6.58779-11.3135 16.7895-5.70264 7.54752-8.55806 8.94654-11.5389 10.9-5.115 3.34471-11.032 3.42052-15.0475 3.58649-2.95418 0.12047-8.48799-0.9626-13.789-2.82141-8.28965-2.91402-13.1276-7.7979-16.526-14.7082-3.77401-7.97368 15.3146-33.9565 28.5816-39.2723" fill="#dde072"/>
<path d="m82.5075 108.673c4.6212 0.80769 7.69873 5.55061 8.63838 9.39526 1.32198 5.43341-1.41214 9.96692-3.23366 12.9895-1.71948 2.84558-4.74209 6.8271-10.2132 9.05063-5.03919 2.04772-8.95556-0.43643-10.7722-1.4523 1.4273-0.16269 2.6747-0.47208 4.07741-1.00972 1.98544-0.76017 6.51321-2.16575 8.08762-6.27062 0 0 1.54327-3.05007 1.39902-7.56391-0.161047-5.04083-1.84856-11.4364-3.55042-15.134 1.49287-0.14753 4.39541-0.209 5.567-0.005" fill="#a3b34f"/>
<path d="m59.551 100.052c-7.1115-4.1748-17.5407-9.8435-30.5998-9.6951-0.420445 0.0053-0.843759 0.01557-1.27076 0.03278-4.37861 0.17662-16.0081 0.6446-21.9922 8.42037-1.65023 2.14935-2.62594 4.5245-3.15416 6.13948l-0.014343 0.0348h0.00123c-0.320046 0.98432-0.438066 1.56254-0.441754 1.58384-0.090564 0.41922-0.165146 0.82983-0.229073 1.25478l-0.0082 0.0287c-0.0008196 0.005-0.00123 0.009-0.00205 0.0135l0.00123 0.00041-0.00205 0.006c-0.336028 2.2309-0.451179 5.57643 0.893753 8.88302 2.20139 5.40022 7.1824 7.80979 12.9498 10.5996 4.8343 2.33867 9.06292 3.3693 16.7375 5.23999 0.983087 0.23768 1.92888 0.46347 2.84108 0.67288 1.03103 0.23399 2.0215 0.45527 2.9718 0.65648 1.86209 0.39463 3.64263 0.74377 5.44366 1.06668l0.009 0.006c3.30578 0.58846 6.20586 1.02079 8.89327 1.41378 6.93365 1.0171 10.9262 1.32813 13.7796 1.07201 1.56253-0.1381 2.86402-0.44012 4.35279-1.01054 2.03338-0.7786 5.81861-2.22762 7.64751-5.8723 0.550348-1.09906 0.876132-2.31531 0.969564-3.62214 0.01106-0.12703 0.01844-0.25775 0.02213-0.38807 0.111872-3.28365-1.24166-6.51157-1.96863-8.2458-4.08561-9.72637-11.6794-14.675-17.8308-18.291m55.2156-4.32903c-4.12126-7.91961-14.0722-9.45878-15.5032-9.67925-1.07816-0.168423-8.35972-1.19618-15.2565 2.40916-1.98994 1.04128-3.49428 1.60023-5.92311 2.6956-0.712626 0.322095-1.5068 0.690906-2.41448 1.13102-0.532318 0.258578-1.10111 0.539694-1.7203 0.852364-1.90266 0.962598-4.98305 2.369-6.08948 2.94107 0.06762 0.01147 0.551578 0.544611 1.26584 1.39698 2.02887 2.42268 5.92844 7.44507 7.50654 10.5652 0.102858 0.20326 0.205715 0.41922 0.308573 0.64297 1.70186 3.69753 3.38938 10.0931 3.55042 15.134 0.144246 4.51384-1.39902 7.56391-1.39902 7.56391-1.57442 4.10487-6.10219 5.51045-8.08762 6.27062-1.40271 0.53764-2.65011 0.84703-4.07741 1.00972-0.163506 0.0189-0.327422 0.0365-0.495846 0.0516-2.91894 0.26186-6.96808-0.0504-13.971-1.07775-2.58578-0.37782-5.37276-0.79376-8.52651-1.34903-0.450581-0.0778-0.921967-0.17008-1.3519-0.24874-1.38181-0.25653-2.76322-0.52945-4.18683-0.82859 1.65637 3.15374 4.70275 9.0076 9.65466 12.8961 5.46496 4.29214 10.6996 5.8518 13.3411 6.61278 2.56775 0.73722 7.84708 2.20222 14.7578 1.48549 2.92877-0.30488 8.07779-0.89252 13.4063-4.14421 3.08736-1.88339 5.36088-4.47695 9.90381-9.66449 2.13091-2.42924 4.78389-5.483 7.75159-9.96405 2.42555-3.65984 4.46795-6.74433 6.20997-11.3934 1.98584-5.29327 2.47841-9.66327 2.6247-11.2787 0.51716-5.69363 0.89581-9.85424-1.27813-14.0304m4.07168 12.5785c-0.33316 1.90675-0.33808 5.29572-1.73956 9.95176-1.09414 3.63443-1.64081 5.45185-2.43334 7.38442-1.5277 3.73852-3.47215 6.77793-6.38494 10.5414-6.81687 8.80147-10.2276 13.2063-15.7847 16.717-12.0626 7.62702-24.7624 6.27799-26.2057 6.1026-4.33312-0.52166-13.8632-2.42309-22.0291-10.3038-4.62694-4.4704-7.53482-10.8771-8.89901-14.1558-1.0667-0.24126-2.21531-0.51674-3.1349-0.73927-7.73028-1.88421-11.9888-2.9218-16.9014-5.29818-5.67273-2.74436-11.0316-5.33629-13.3518-11.0287-1.41951-3.48855-1.29576-7.00168-0.942518-9.33421 0 0 1.53016-15.2684 12.0372-23.0585 8.80312-6.52673 21.7738-8.93507 31.4502-6.29274 7.62825 1.45025 14.9041 8.60355 20.9509 14.8524 1.93503-0.921208 6.3874-2.88124 10.003-4.74742 8.34169-4.30649 14.1267-5.19737 17.1087-5.71944 6.50214-1.14004 16.6145 1.43468 21.4156 6.81481 4.59908 5.15598 5.93868 12.1134 4.84127 18.3135" fill="#577138"/>
<path d="m59.5509 100.052c-7.1115-4.17495-17.5407-9.84317-30.5999-9.69482-0.420445 0.0045-0.843758 0.01516-1.27076 0.03237-4.37861 0.17662-16.0081 0.64501-21.9922 8.42078-1.65023 2.14894-2.62594 4.52409-3.15416 6.13866l-0.014343 0.0352 0.00123 0.00041c-0.320046 0.98391-0.438066 1.56212-0.441754 1.58343-0.090564 0.41963-0.165146 0.82983-0.229073 1.25478l-0.0082 0.0287c-0.0008196 0.005-0.00123 0.009-0.00205 0.0135l0.00123 0.00041-0.00205 0.006c-0.336028 2.23089-0.451179 5.57642 0.893753 8.88302 2.20139 5.40063 7.1824 7.8102 12.9498 10.6 4.8343 2.33826 9.06292 3.36889 16.7375 5.23958 0.983087 0.23809 1.92888 0.46388 2.84108 0.67328 1.03103 0.23358 2.0215 0.45487 2.9718 0.65608 1.86209 0.39463 3.64263 0.74377 5.44366 1.06709l0.009 0.006c3.30578 0.58846 6.20586 1.0212 8.89327 1.41378 6.93365 1.0171 10.9262 1.32854 13.7796 1.07201 1.56253-0.13769 2.86402-0.44012 4.35279-1.01055 2.03338-0.7786 5.81861-2.22762 7.64751-5.87229 0.550348-1.09865 0.876132-2.31491 0.969564-3.62214 0.01106-0.12662 0.01844-0.25735 0.02213-0.38766 0.111872-3.28365-1.24166-6.51198-1.96863-8.2458-4.08561-9.72679-11.6794-14.6754-17.8308-18.2914" fill="#a3b34f"/>
<path d="m55.0673 99.6127c6.77015 3.48445 12.2642 7.48441 15.0975 10.6025 4.70398 5.17647 6.6218 10.4427 7.03651 14.7168 0.465522 4.79618-2.55054 6.58861-3.57337 7.46105-3.80818 3.25046-8.98424 3.19841-13.6866 3.21481-2.13747 0.007-5.20475-0.15613-14.6062-2.20509-7.47852-1.70465-9.005-2.07506-18.0496-4.54539-6.02679-1.67727-9.42477-2.80707-12.1986-4.55031-3.88071-2.43703-8.7105-5.47029-9.93619-11.3164-1.52073-7.2578 3.84711-13.3075 4.93838-14.4463 5.25392-5.48095 12.4953-6.13825 17.4853-6.15546 1.96085-0.007 3.8172 0.0963 5.45472 0.187275 10.1419 0.560593 17.1313 4.51712 22.0381 7.03651" fill="#dde072"/>
<path d="m28.8149 128.738c-0.776553-0.58723-2.0424-1.83177-2.69191-2.49768l-1.80677-2.02026c-3.2021-4.02209-5.48709-11.7737-3.75245-13.8653 0.889245-1.07283 1.35641-1.18921 1.67522-1.40353 4.44664-2.15017 8.50602-5.10271 15.1389-5.49037l5.51619 0.006c0.446671 0.0184 1.10234 0.0451 1.5736 0.0803 1.22978 0.11065 0.692955 0.12089 1.54163 0.21146 7.63071 1.25272 17.7915 6.6513 17.3997 14.2091-0.149983 2.82427-3.37544 7.44958-5.56454 9.535-2.32802 2.22065-6.67917 4.37738-7.8188 4.78471-0.533548 0.16474-1.17159 0.38234-2.23541 0.5692-0.561003 0.1-1.11381 0.18809-1.66293 0.25161-0.261856 0.0336-0.524122 0.059-0.786388 0.0844-0.264724 0.0246-0.526171 0.0389-0.788027 0.0553-5.53996 0.34463-10.5156-1.09906-14.3447-3.54059-0.317998-0.20285-0.631077-0.4102-0.933093-0.62657-0.15613-0.11433-0.308162-0.22415-0.460194-0.34258" fill="#5e3108"/></g>
<text id="logo-community" visibility="hidden" style="word-spacing:0px;letter-spacing:.2px" font-weight="300" xml:space="preserve" transform="scale(1,-1)" font-size="11.5px" y="-29.132786" x="0.06440381" font-family="Roboto" fill="#a3b34f"><tspan x="0.06440381" y="-29.132786">COMMUNITY  EDITION</tspan></text>
<text id="logo-enterprise" visibility="hidden" style="word-spacing:0px;letter-spacing:.2px" font-weight="300" xml:space="preserve" transform="scale(1,-1)" font-size="11.5px" y="-29.132786" x="1.5229831" font-family="Roboto" fill="#a3b34f"><tspan x="1.5229831" y="-29.132786">ENTERPRISE  EDITION</tspan></text>
</g></svg>
