<?xml version="1.0" ?><!DOCTYPE svg  PUBLIC '-//W3C//DTD SVG 1.1//EN'  'http://www.w3.org/Graphics/SVG/1.1/DTD/svg11.dtd'><svg enable-background="new 0 0 512 512" height="512px" id="Layer_1" version="1.1" viewBox="0 0 512 512" width="512px" xml:space="preserve" xmlns="http://www.w3.org/2000/svg" xmlns:xlink="http://www.w3.org/1999/xlink"><g><path d="M272,296c0,4.422-3.578,8-8,8s-8-3.578-8-8s3.578-8,8-8S272,291.578,272,296z M264,320   c-4.422,0-8,3.578-8,8s3.578,8,8,8s8-3.578,8-8S268.422,320,264,320z M259.227,266.109c1.228,4.897,8.344,4.633,9.642-0.383   c4.758-18.461,18.547-34.109,38.453-42.711c9.655-4.164,24.414-10.641,34.305-32.797c-64.444,11.453-85.172-15.141-160.078-13.734   c9.188,33.477,27.742,41.609,39.164,46.539C240.734,231.688,254.57,247.484,259.227,266.109z M432,455.984c0,13.25-10.742,24-24,24   H120c-13.258,0-24-10.75-24-24s10.742-24,24-24h8c0-76.742,26.203-120.648,73.75-139.086c14.805-5.758,15.133-19.234-0.086-25.813   C152.797,246,128,204.742,128,128h-8c-13.258,0-24-10.742-24-24s10.742-24,24-24h288c13.258,0,24,10.742,24,24s-10.742,24-24,24h-8   c0,76.742-24.797,118-73.664,139.086c-15.219,6.578-14.891,20.055-0.086,25.813C373.797,311.336,400,355.242,400,431.984h8   C421.258,431.984,432,442.734,432,455.984z M156.797,431.984h15.477c22.531-45.898,68.094-86.353,91.727-77.883   c27.595,9.891,64.836,33.477,89.898,77.883h17.305c0-81.353-31.603-103.017-55.391-112.242   c-17.931-6.977-29.259-21.836-29.57-38.789c-0.32-17.078,10.664-32.523,28.688-40.313c27.82-12.008,56.273-34.781,56.273-112.641   H156.797c0,77.859,28.453,100.633,56.297,112.648c18,7.781,28.984,23.227,28.664,40.305c-0.313,16.952-11.641,31.813-29.594,38.797   C188.398,328.969,156.797,350.633,156.797,431.984z" fill="#4D4D4D"/></g></svg>