<?xml version="1.0" encoding="UTF-8"?>
<svg id="Layer_1" xmlns="http://www.w3.org/2000/svg" xmlns:xlink="http://www.w3.org/1999/xlink" version="1.1" viewBox="0 0 1200 248">
  <!-- Generator: Adobe Illustrator 29.8.1, SVG Export Plug-In . SVG Version: 2.1.1 Build 2)  -->
  <defs>
    <style>
      .st0 {
        fill: none;
      }

      .st1 {
        fill: #58df20;
      }

      .st2 {
        fill: #b9ff38;
      }

      .st3 {
        fill: #fff;
      }

      .st4 {
        fill: #007339;
      }

      .st5 {
        clip-path: url(#clippath);
      }
    </style>
    <clipPath id="clippath">
      <rect class="st0" width="1200" height="248"/>
    </clipPath>
  </defs>
  <g class="st5">
    <g>
      <path class="st3" d="M503.9,124.5h-5.5c-3.6-1-8.8-1.6-13.2-1.6-15.5,0-27.8,4.3-36.4,12.5-8.5,8.2-13.4,20.5-13.4,37v33h-31.2v-108.7h30.5v20.3c10.2-14.1,28-23.5,51.9-23.5s11.9.8,15.8,1.9l1.5.4v28.8h0s0,0,0,0ZM757.6,93.5c17.2,0,30.5,4.5,39.5,13.5,9,9,13.3,22.3,13.3,39.2v59.2h-31v-56.5c0-9.7-2.3-16.3-6.7-20.7-4.4-4.3-11.3-6.7-21.3-6.8-12.6,0-23.5,3.8-31.2,11.1-7.7,7.3-12.4,18.3-12.4,32.8v40h-31l.2-108.7h30.3v18c10.2-12.3,28-21.2,50.5-21.2h0s0,0,0,0ZM893.9,93.5c21,0,37.5,7,46.8,15.8v-12.6h30.8v92.1c0,18.7-5.6,33.7-18.2,43.9-12.5,10.2-31.6,15.4-58,15.4s-44.1-4.6-60.4-12.7l.9-1.8h-2v-26.1h5.5l.5.3c15.6,8.6,34.8,13.3,55.3,13.3s28.1-2.6,35.3-7.9c7-5.2,10.3-13.1,10.3-24.9v-1c-9.7,10.6-26.2,16.9-47.2,16.9s-36.8-5.9-48.2-15.7c-11.4-9.9-17.6-23.7-17.6-39.1s6.4-29.5,17.9-39.5c11.5-10.1,28.1-16.2,48.4-16.2h0s0,0,0,0ZM899.5,120.8c-12.7,0-22.6,2.9-29.3,7.8-6.7,4.9-10.3,11.8-10.3,20.2s3.5,15.3,10,20.2c6.6,4.9,16.3,7.8,28.8,7.8s23-3.2,30.4-8.2c7.4-5.1,11.6-12,11.6-19.8s-3.9-14.7-11.1-19.8c-7.1-5.1-17.5-8.2-30.1-8.2h0s0,0,0,0ZM1056.7,93.5c43,0,74.6,24.3,74.6,57.5s-31.4,57.9-74.6,57.9-74.4-24.5-74.4-57.9,31.4-57.5,74.4-57.5ZM1056.7,120.6c-13.7,0-24.3,3.4-31.4,8.8-7.1,5.4-10.8,12.9-10.8,21.6s3.8,16.3,11,21.8c7.2,5.5,17.7,9,31.2,9s24.2-3.4,31.3-8.8c7.2-5.4,11-13.1,11-22s-3.8-16.2-10.9-21.6c-7.2-5.4-17.8-8.8-31.5-8.8ZM653,97.1h-30.8v10.3c-10-7.8-25.6-13.4-44.8-13.4s-37.7,6.2-49.7,16.6c-12,10.5-18.6,25-18.6,41s6.4,30.4,18.3,40.6c11.8,10.2,28.8,16.2,49.5,16.2s35-5.2,45.4-14.4l.7,12,4-.2h30v-108.8h-4ZM582.1,181.2c-25.5,0-40.8-11.9-40.8-30s15.7-30,41.6-30,43.2,12.9,43.2,30-18.5,30-44,30h0,0Z"/>
      <path class="st1" d="M1200,188.8c0-.1-.2-.2-.3-.2-16.7,1.7-32.6-6-41.8-19.1-2.5-3.6-4.5-7.6-5.8-11.7,0-.1-.2-.2-.3-.2-.2,0-.2.2-.2.3.4,4.5.2,8.9-.7,13.1-3.2,15.7-14.7,29-30.7,34.1-.1,0-.2.2-.2.3,0,.1.2.2.3.2,16.7-1.7,32.6,6,41.8,19.1,2.5,3.6,4.5,7.6,5.8,11.7,0,.1.2.2.3.2.1,0,.2-.2.2-.3-.4-4.5-.2-8.9.7-13.1,3.2-15.7,14.7-29,30.7-34.1.1,0,.2-.2.2-.3h0,0Z"/>
      <path class="st3" d="M302.2,61.5c12.3.2,24.1,7.6,30.5,21.3,6,13.1,19.8,42.9,32,69.4,6.1,13.3,11.9,25.7,16.1,34.8,2.1,4.6,3.8,8.3,5,10.9.6,1.3,1.1,2.3,1.4,3s.3.6.4.8c0,0,0,.2,0,.2,0,0,0,0,0,0h0s.2.4.2.4v5.2h-30.8l-.5-1.2-14.4-32.3h-82l-14.6,32.4-.5,1.2h-29.9v-5.2l.2-.4h0s0,0,0,0c0,0,0-.1,0-.2,0-.2.2-.4.3-.8.3-.7.7-1.6,1.3-2.9,1.1-2.5,2.7-6.1,4.7-10.5,5-11.3,10.1-22.6,15.2-33.9,11.8-26,25.5-55.8,33.3-70.9,7.5-14.4,19.9-21.5,32.2-21.3h0s0,0,0,0ZM301.6,88.6c-.5,0-1.3.2-2.6,1.6-1.3,1.4-2.8,3.7-4.5,7.1-2.9,6.4-8.9,19.7-14.2,31.5-2.7,5.9-5.2,11.4-7,15.5-.7,1.5-1.2,2.8-1.7,3.8h59.1c-.5-1-1-2.3-1.7-3.8-1.8-4.1-4.2-9.6-6.9-15.5-5.3-11.9-11.2-25.3-14.1-31.5-1.4-3.1-2.7-5.3-3.9-6.8-1.2-1.5-2-1.9-2.5-1.9,0,0,0,0,0,0Z"/>
      <path class="st4" d="M173.1,22.4c-2.9-6.2-7-11.4-11.9-15-2.1-1.5-4.2-2.8-6.4-3.9-2.2-1-4.5-1.8-7-2.5-5.8-1.5-12.4-1.5-19.1.2-8.9,2.2-17.5,7-23.5,13.1-8.6,8.8-18.3,17.1-27.7,25.1-3.8,3.2-7.7,6.5-11.4,9.8-14.1,12.4-28.7,25.2-40.8,40.4C-.8,122.4-7.3,163.5,8.5,196.9c2.2,4.5,4.7,8.9,7.7,12.9,7.8,10.6,19.2,17.4,29.2,22.6,10.3,5.4,22.2,8.4,33,8.4s1.6,0,2.4,0c5.1-.2,10.2-.9,14.9-2.1,36-8.7,64-39.5,73.1-80.4l.5-2.3h0c3.7-17.9,4.6-36.3,5.4-54.2v-.5c.3-5.1.4-10.3.5-15.3.4-12.2.7-24.8,2.2-37,1.1-8.7-.6-18.3-4.5-26.5h0ZM140.6,165.4c-6.5,29.3-26.6,55.3-57.1,62.5-3.8.9-7.7,1.4-11.6,1.6-13.7.5-27-5.1-38.1-12.5-4.7-3.2-9-7.1-12.4-11.7-2.3-3.1-4.4-6.5-6.1-10.1-13.5-28.2-5.9-60.2,12.9-83.6,9.5-11.8,20.9-21.8,32.3-31.7,10.4-9.1,21.5-17.8,31.2-27.7,4.6-4.7,11.2-8.3,18-10,4.9-1.1,9.9-1.3,14.5,0,1.8.5,3.6,1.1,5.3,1.9,1.7.8,3.3,1.8,4.8,3,3.8,2.9,6.9,6.9,9.1,11.4,3,6.4,4.3,13.7,3.5,20.3-1.6,13.7-1.4,27.8-2,41.7-.6,15.1-1.3,30.3-4.5,45h0s0,0,0,0Z"/>
      <path class="st2" d="M147.1,78.7c.8-6.5-.5-13.9-3.5-20.3-2.2-4.5-5.2-8.5-9.1-11.4-1.5-1.1-3.1-2.1-4.8-3-1.7-.8-3.5-1.4-5.3-1.9-4.6-1.2-9.7-1.1-14.5,0-6.9,1.6-13.4,5.2-18,10-9.7,9.9-20.8,18.6-31.2,27.7-11.4,10-22.9,20-32.3,31.7-18.8,23.4-26.5,55.3-12.9,83.6,1.7,3.5,3.7,6.9,6.1,10.1,3.4,4.6,7.7,8.5,12.4,11.7,11.1,7.5,24.4,13,38.1,12.5,3.9-.1,7.8-.7,11.6-1.6,30.5-7.2,50.6-33.2,57.1-62.5h0c3.2-14.7,3.9-29.9,4.5-45,.6-13.8.4-27.9,2-41.7h0Z"/>
      <path d="M99,113.9c-8.3-5.4-19.5-5.7-31.5-.9-11.2,4.5-21.4,12.8-27.8,22.8-13.1,20.3-9.6,46,8,57.4,4.2,2.7,8.9,4.4,13.8,5.1,5.1.7,10.4.2,15.8-1.3,10.5-3.1,19.8-10.2,26.1-20,8-12.4,11.3-29.3,8.4-43-1.9-9-6.3-15.9-12.7-20h0s0,0,0,0Z"/>
    </g>
  </g>
</svg>