<svg width="620" height="129" viewBox="0 0 620 129" fill="none" xmlns="http://www.w3.org/2000/svg">
<g clip-path="url(#clip0_110_77)">
<mask id="mask0_110_77" style="mask-type:luminance" maskUnits="userSpaceOnUse" x="0" y="0" width="620" height="129">
<path d="M0 0H620V128.58H0V0Z" fill="white"/>
</mask>
<g mask="url(#mask0_110_77)">
<path d="M260.331 64.5712H257.622L257.496 64.536C255.648 64.0434 252.962 63.7443 250.666 63.7443C242.679 63.7443 236.281 65.9815 231.884 70.2313C227.491 74.4734 224.963 80.85 224.963 89.4089V106.519H208.82V50.1397H224.554V60.6605C229.827 53.3662 239.021 48.4864 251.389 48.4864C254.24 48.4864 257.516 48.9037 259.565 49.4507L260.331 49.656V64.5759V64.5712ZM391.419 48.4936C400.326 48.4936 407.188 50.806 411.813 55.4846C416.438 60.1638 418.667 67.0371 418.667 75.8085V106.527H402.626V77.2498C402.626 72.244 401.431 68.7739 399.146 66.5326C396.858 64.284 393.283 63.0786 388.12 63.0236C381.6 62.9759 375.992 64.9689 372.021 68.7662C368.057 72.5593 365.619 78.2468 365.619 85.7972V106.515H349.578L349.672 50.132H365.304V59.4903C370.597 53.1334 379.783 48.4858 391.419 48.4858V48.4936ZM461.865 48.4936C472.738 48.4936 481.256 52.1208 486.026 56.6781V50.1403H501.964V97.8656C501.964 107.558 499.062 115.318 492.55 120.619C486.077 125.886 476.211 128.579 462.588 128.579C451.153 128.579 439.784 126.189 431.385 121.974L431.841 121.057H430.814V107.551H433.653L433.889 107.681C441.939 112.123 451.845 114.558 462.486 114.558C471.165 114.558 477.029 113.195 480.713 110.458C484.323 107.779 486.026 103.64 486.026 97.554V97.0345C481.039 102.521 472.487 105.806 461.664 105.806C451.137 105.806 442.627 102.757 436.737 97.6411C430.838 92.5166 427.629 85.3757 427.629 77.3566C427.629 69.337 430.917 62.0862 436.874 56.8632C442.824 51.6443 451.381 48.49 461.865 48.49V48.4936ZM464.747 62.614C458.208 62.614 453.072 64.1264 449.6 66.6783C446.159 69.2074 444.291 72.7915 444.291 77.1477C444.291 81.5038 446.119 85.0999 449.481 87.6248C452.875 90.1689 457.905 91.6813 464.338 91.6813C470.756 91.6813 476.222 90.0471 480.048 87.404C483.867 84.7691 486.026 81.1689 486.026 77.1477C486.026 73.1265 483.997 69.5024 480.316 66.8836C476.623 64.2524 471.267 62.6177 464.743 62.6177L464.747 62.614ZM545.962 48.4936C568.163 48.4936 584.521 61.0975 584.521 78.2821C584.521 95.4589 568.287 108.279 545.962 108.279C523.642 108.279 507.512 95.5651 507.512 78.2821C507.512 60.999 523.755 48.4936 545.962 48.4936ZM545.962 62.5114C538.873 62.5114 533.407 64.2524 529.744 67.0646C526.096 69.8612 524.169 73.7605 524.169 78.2821C524.169 82.8036 526.148 86.7502 529.826 89.6017C533.52 92.4694 538.987 94.2534 545.962 94.2534C552.947 94.2534 558.439 92.5124 562.159 89.6728C565.864 86.8487 567.863 82.898 567.863 78.2821C567.863 73.6657 565.91 69.8648 562.242 67.0687C558.548 64.2524 553.056 62.5155 545.962 62.5114ZM337.372 50.3409H321.433V55.6661C316.258 51.6366 308.185 48.6943 298.303 48.6943C287.614 48.6943 278.802 51.916 272.632 57.3241C266.454 62.7437 263.037 70.2666 263.037 78.5932C263.037 86.9197 266.368 94.3364 272.502 99.6574C278.617 104.967 287.379 108.071 298.102 108.071C307.996 108.071 316.176 105.369 321.536 100.631L321.878 106.842L323.935 106.728H339.432V50.3409H337.372ZM300.772 93.946C287.607 93.946 279.694 87.7622 279.694 78.3801C279.694 68.9979 287.815 62.8142 301.182 62.8142C314.548 62.8142 323.494 69.5138 323.494 78.3801C323.494 87.2458 313.939 93.946 300.777 93.946H300.772Z" fill="white"/>
<path d="M620 97.8967C619.99 97.8641 619.97 97.8359 619.941 97.8172C619.913 97.7985 619.879 97.7905 619.845 97.7946C611.196 98.6532 602.986 94.6947 598.254 87.8769C596.952 86.0102 595.935 83.9592 595.236 81.7916C595.227 81.7589 595.206 81.7307 595.177 81.7119C595.149 81.6931 595.115 81.685 595.081 81.689C595.004 81.6967 594.968 81.7719 594.978 81.8388C595.205 84.147 595.076 86.4314 594.632 88.625C592.994 96.7587 587.032 103.671 578.765 106.31C578.731 106.32 578.702 106.342 578.682 106.371C578.662 106.401 578.653 106.436 578.656 106.472C578.667 106.546 578.739 106.582 578.822 106.574C587.466 105.715 595.675 109.674 600.408 116.492C601.708 118.359 602.724 120.41 603.425 122.577C603.446 122.644 603.508 122.687 603.58 122.679C603.648 122.66 603.694 122.596 603.689 122.53C603.456 120.221 603.591 117.937 604.03 115.743C605.668 107.61 611.63 100.701 619.897 98.0585C619.964 98.0388 620.01 97.9755 620.005 97.8967H620Z" fill="#58DF20"/>
<path d="M156.145 31.8643C162.496 31.9664 168.607 35.8186 171.879 42.9283C174.998 49.7104 182.099 65.1503 188.419 78.9005C191.576 85.7733 194.542 92.2251 196.716 96.9556C197.802 99.3187 198.695 101.256 199.312 102.6C199.622 103.273 199.862 103.797 200.027 104.151C200.11 104.329 200.173 104.467 200.216 104.557C200.236 104.605 200.255 104.636 200.263 104.659C200.267 104.671 200.271 104.679 200.275 104.687V104.695L200.37 104.904V107.59H184.447L184.176 106.98L176.724 90.2083H134.36L126.813 106.987L126.538 107.594H111.095V104.92L111.182 104.723V104.715C111.182 104.711 111.19 104.703 111.193 104.691C111.202 104.667 111.217 104.636 111.237 104.588C111.276 104.502 111.335 104.372 111.41 104.199C111.559 103.856 111.78 103.352 112.067 102.706C112.637 101.41 113.463 99.5469 114.473 97.2589C117.073 91.3877 119.689 85.5242 122.322 79.6684C128.394 66.182 135.48 50.7146 139.511 42.904C143.373 35.4173 149.779 31.7657 156.134 31.8679L156.145 31.8643ZM155.831 45.9214C155.595 45.9059 155.162 46.0199 154.474 46.7717C153.802 47.5131 153.027 48.7139 152.134 50.4746C150.648 53.7715 147.53 60.7112 144.777 66.828C143.396 69.8963 142.11 72.764 141.167 74.8591C140.821 75.6274 140.522 76.2926 140.278 76.8287H170.821C170.585 76.289 170.287 75.6155 169.944 74.8394C169.02 72.7365 167.754 69.8688 166.397 66.7964C163.68 60.6485 160.601 53.6927 159.122 50.4507C158.394 48.8476 157.738 47.678 157.132 46.9096C156.511 46.1221 156.078 45.937 155.827 45.9214H155.831Z" fill="white"/>
<path d="M89.4551 11.6272C87.949 8.42518 85.8333 5.74263 83.3285 3.87201C82.2667 3.08809 81.1657 2.41045 80.0332 1.86295C78.912 1.3393 77.7324 0.914159 76.4227 0.567305C73.4069 -0.212468 69.9933 -0.184989 66.5523 0.65026C61.94 1.76859 57.5117 4.2536 54.4055 7.46809C49.9539 12.0487 44.9437 16.3302 40.099 20.4738C38.1527 22.136 36.1428 23.8568 34.1966 25.5703C26.8976 32.0024 19.3517 38.6512 13.099 46.493C-0.420619 63.4759 -3.75622 84.7734 4.40401 102.08C5.51877 104.435 6.85672 106.678 8.3994 108.776C12.4423 114.271 18.3054 117.791 23.5041 120.513C28.8129 123.294 34.9633 124.846 40.5789 124.846C41.0036 124.846 41.4242 124.838 41.8448 124.818C44.4994 124.696 47.0988 124.33 49.5607 123.727C68.1374 119.233 82.6087 103.27 87.3275 82.0634L87.5951 80.8663H87.5713C89.4985 71.6059 89.9309 62.0387 90.3479 52.7711L90.3593 52.4917C90.4776 49.8605 90.5561 47.1743 90.631 44.5747C90.8155 38.2411 91.0046 31.6908 91.7749 25.3775C92.3179 20.8912 91.4722 15.8771 89.451 11.6272H89.4551ZM72.636 85.7658C69.2932 100.938 58.9077 114.432 43.1468 118.146C41.1738 118.615 39.16 118.891 37.1338 118.969C30.0555 119.241 23.1735 116.346 17.4281 112.482C14.9786 110.828 12.7647 108.815 10.9987 106.436C9.79956 104.805 8.73368 103.053 7.86465 101.225C0.873115 86.5927 4.8406 70.0345 14.5503 57.9034C19.438 51.7943 25.3641 46.6071 31.2552 41.4432C36.6419 36.721 42.3873 32.2072 47.3938 27.0951C49.7808 24.6532 53.1624 22.7784 56.7134 21.9312C59.2223 21.3443 61.8217 21.2696 64.2206 21.896C65.1649 22.1504 66.0868 22.4823 66.977 22.8883C67.853 23.3241 68.6888 23.837 69.4746 24.4209C71.4565 25.9058 73.037 27.9776 74.154 30.3091C75.7231 33.6097 76.3834 37.4344 75.9784 40.8215C75.1331 47.9349 75.2313 55.2452 74.9362 62.4213C74.618 70.2476 74.2878 78.1329 72.6087 85.7741H72.6319L72.636 85.7663V85.7658Z" fill="#007339"/>
<path d="M75.9785 40.813C76.3836 37.4295 75.7233 33.6012 74.1541 30.3006C73.0412 27.9686 71.4602 25.8968 69.4747 24.4119C68.6889 23.8281 67.8531 23.3155 66.9771 22.8798C66.0872 22.4732 65.1652 22.1413 64.2207 21.8875C61.8218 21.2612 59.2225 21.3358 56.7135 21.9227C53.1625 22.7694 49.7809 24.6447 47.3939 27.0867C42.3838 32.2029 36.6421 36.7166 31.2553 41.4352C25.3643 46.5991 19.4381 51.7864 14.5499 57.8949C4.84123 70.0265 0.873236 86.5848 7.86477 101.217C8.7338 103.044 9.79969 104.797 10.9989 106.428C12.7607 108.807 14.9788 110.82 17.4288 112.474C23.17 116.338 30.0561 119.233 37.1345 118.961C39.1606 118.885 41.1744 118.609 43.1469 118.138C58.9078 114.42 69.2897 100.93 72.6362 85.7578H72.6124C74.2916 78.1167 74.6222 70.2313 74.9405 62.4051C75.2355 55.2285 75.1374 47.9186 75.9826 40.8053L75.9785 40.813Z" fill="#B9FF38"/>
<path d="M51.1692 59.0293C46.8669 56.241 41.0823 56.0833 34.8808 58.5844C29.0807 60.9237 23.8427 65.2327 20.504 70.4044C13.7124 80.9329 15.5688 94.273 24.6409 100.146C26.7948 101.539 29.2298 102.435 31.7704 102.769C34.393 103.12 37.1541 102.891 39.9183 102.076C45.3329 100.476 50.1229 96.7938 53.4027 91.7128C57.5552 85.2891 59.254 76.5368 57.7283 69.4198C56.7296 64.7526 54.4562 61.1643 51.1651 59.0334L51.1692 59.0293Z" fill="black"/>
</g>
</g>
<defs>
<clipPath id="clip0_110_77">
<rect width="620" height="128.58" fill="white"/>
</clipPath>
</defs>
</svg>
