<?xml version="1.0" encoding="UTF-8" standalone="no"?>
<!-- Generator: Adobe Illustrator 27.2.0, SVG Export Plug-In . SVG Version: 6.00 Build 0)  -->

<svg
   version="1.1"
   id="Layer_1"
   x="0px"
   y="0px"
   viewBox="0 0 349.99998 254.99995"
   xml:space="preserve"
   sodipodi:docname="arangodb-vertical-light.svg"
   width="350"
   height="255"
   inkscape:version="1.2 (dc2aedaf03, 2022-05-15)"
   xmlns:inkscape="http://www.inkscape.org/namespaces/inkscape"
   xmlns:sodipodi="http://sodipodi.sourceforge.net/DTD/sodipodi-0.dtd"
   xmlns="http://www.w3.org/2000/svg"
   xmlns:svg="http://www.w3.org/2000/svg"><defs
   id="defs58" /><sodipodi:namedview
   id="namedview56"
   pagecolor="#ffffff"
   bordercolor="#000000"
   borderopacity="0.25"
   inkscape:showpageshadow="2"
   inkscape:pageopacity="0.0"
   inkscape:pagecheckerboard="0"
   inkscape:deskcolor="#d1d1d1"
   showgrid="false"
   inkscape:zoom="0.77088454"
   inkscape:cx="-73.941034"
   inkscape:cy="123.88366"
   inkscape:window-width="1600"
   inkscape:window-height="830"
   inkscape:window-x="-6"
   inkscape:window-y="-6"
   inkscape:window-maximized="1"
   inkscape:current-layer="Layer_1" />
<style
   type="text/css"
   id="style31">
	.st0{fill:#263615;}
	.st1{fill:#A0B14E;}
	.st2{fill:#DDDF72;}
	.st3{fill:#5E2E01;}
</style>


<path
   class="st0"
   d="m 315.06,213.00604 h 10.37 c 2.66,0 4.61,0.68 5.84,2.04 1.24,1.33 1.85,3.27 1.85,5.82 0,2.36 -0.73,4.14 -2.17,5.36 -1.45,1.19 -3.55,1.79 -6.31,1.79 h -9.58 z m 0,-20.96 h 7.12 c 2.99,0 5.24,0.57 6.73,1.71 1.52,1.14 2.28,2.91 2.28,5.32 0,2.19 -0.75,3.86 -2.25,5 -1.5,1.14 -3.63,1.71 -6.41,1.71 h -7.48 z m -46.65,0 h 6.88 c 3.73,0 6.65,1.26 8.76,3.78 2.11,2.52 3.17,5.8 3.17,9.82 v 8.68 c 0,4.07 -1.06,7.37 -3.17,9.89 -2.11,2.52 -5.03,3.78 -8.76,3.78 h -6.88 z m 30.74,-8.04 v 6.29 l 5.52,1.07 v 37.31 l -5.52,1.07 v 6.25 h 25.51 c 6.01,0 10.65,-1.27 13.93,-3.82 3.28,-2.57 4.91,-6.35 4.91,-11.32 0,-2.88 -0.78,-5.42 -2.35,-7.61 -1.54,-2.19 -3.87,-3.62 -6.98,-4.29 2.42,-0.95 4.26,-2.37 5.52,-4.25 1.28,-1.9 1.92,-4.06 1.92,-6.46 0,-4.74 -1.71,-8.3 -5.13,-10.68 -3.42,-2.38 -8.18,-3.57 -14.28,-3.57 h -17.53 -5.52 z m -46.65,0 v 6.29 l 5.52,1.07 v 37.31 l -5.52,1.07 v 6.25 h 23.33 c 6.34,0 11.57,-2.01 15.67,-6.04 4.11,-4.05 6.16,-9.26 6.16,-15.64 v -8.61 c 0,-6.36 -2.05,-11.56 -6.16,-15.61 -4.11,-4.07 -9.33,-6.11 -15.67,-6.11 h -17.81 -5.52 z"
   id="path33" /><path
   class="st0"
   d="m 103.62,219.28604 h 5.34 v 6.42 c -0.72,1.03 -1.72,1.89 -3.01,2.59 -1.29,0.67 -2.73,1.01 -4.3,1.01 -1.51,0 -2.69,-0.37 -3.55,-1.11 -0.84,-0.74 -1.26,-1.77 -1.26,-3.09 0,-1.46 0.57,-3.2 1.72,-4.23 1.14,-1.06 2.83,-1.59 5.06,-1.59 m 86.09,-14.41 c 1.55,0 2.88,0.32 3.98,0.97 1.12,0.65 2.02,1.56 2.69,2.73 v 16.88 c -0.67,1.13 -1.57,1.99 -2.69,2.59 -1.1,0.57 -2.45,0.86 -4.05,0.86 -2.58,0 -4.45,-0.97 -5.59,-2.91 -1.15,-1.96 -1.72,-4.65 -1.72,-8.05 v -0.75 c 0,-3.66 0.59,-6.64 1.76,-8.91 1.18,-2.27 3.06,-3.41 5.62,-3.41 m 41.47,-0.07 c 2.73,0 4.72,1.09 5.99,3.27 1.27,2.18 1.9,5 1.9,8.44 v 0.75 c 0,3.52 -0.63,6.36 -1.9,8.51 -1.24,2.16 -3.22,3.23 -5.92,3.23 -2.77,0 -4.78,-1.07 -6.02,-3.2 -1.24,-2.16 -1.87,-5.01 -1.87,-8.55 v -0.75 c 0,-3.45 0.62,-6.27 1.87,-8.44 1.24,-2.18 3.23,-3.26 5.95,-3.26 m 0,-8.09 c -5.71,0 -10.2,1.86 -13.45,5.57 -3.23,3.69 -4.84,8.43 -4.84,14.22 v 0.75 c 0,5.84 1.61,10.61 4.84,14.3 3.25,3.67 7.76,5.5 13.52,5.5 5.69,0 10.15,-1.83 13.37,-5.5 3.25,-3.69 4.88,-8.45 4.88,-14.3 v -0.75 c 0,-5.82 -1.63,-10.57 -4.88,-14.26 -3.22,-3.68 -7.7,-5.53 -13.44,-5.53 m -79.09,0 c -2.34,0 -4.46,0.55 -6.35,1.65 -1.89,1.1 -3.48,2.65 -4.77,4.63 l -0.47,-5.57 h -15.3 v 6.32 l 5.56,1.08 v 24.1 l -5.02,1.08 v 6.29 h 19.72 v -6.29 l -4.23,-1.08 v -20.82 c 0.74,-1.03 1.66,-1.82 2.76,-2.37 1.1,-0.58 2.34,-0.86 3.73,-0.86 2.13,0 3.72,0.55 4.77,1.65 1.05,1.08 1.58,2.92 1.58,5.53 v 16.88 l -4.48,1.08 v 6.29 h 20.01 v -6.29 l -5.02,-1.08 v -16.92 c 0,-5.27 -1.1,-9.14 -3.3,-11.6 -2.21,-2.46 -5.27,-3.7 -9.19,-3.7 m -48.83,0 c -2.54,0 -4.9,0.35 -7.11,1.02 -1.05,0.28 -2.15,0.63 -3.22,1.11 -4.12,1.83 -5.56,3.36 -5.56,3.36 l 4.96,6.57 c 0,0 1.58,-1.71 6.07,-3.63 1.31,-0.56 2.94,-0.78 4.18,-0.79 2.1,0 3.69,0.51 4.77,1.54 1.08,1.03 1.61,2.48 1.61,4.35 v 3.32 h -5.34 c -5.64,0 -9.92,1.48 -12.84,3.47 -2.92,1.99 -4.38,4.8 -4.38,8.44 0,3.57 1.11,6.39 3.34,8.48 2.25,2.06 5.27,3.09 9.07,3.09 2.29,0 4.33,-0.44 6.09,-1.33 1.79,-0.89 3.31,-2.05 4.55,-3.49 0.12,0.69 0.29,1.39 0.5,2.08 0.21,0.67 0.47,1.33 0.75,1.98 h 12.08 v -6.29 l -3.19,-0.43 c -0.07,-0.48 -0.12,-0.98 -0.14,-1.51 v -1.69 -16.06 c 0,-4.36 -1.51,-7.71 -4.52,-10.06 -2.98,-2.35 -6.87,-3.53 -11.67,-3.53 m -21.55,0 c -1.89,0 -3.55,0.56 -4.98,1.69 -1.43,1.13 -2.61,2.69 -3.52,4.7 l -0.47,-5.68 H 57.43 v 6.32 l 5.56,1.08 v 24.1 l -5.02,1.08 v 6.29 h 20.51 v -6.29 l -5.02,-1.08 v -18.89 c 0.53,-1.1 1.29,-1.95 2.29,-2.55 1,-0.6 2.27,-0.9 3.8,-0.9 l 4.3,0.11 1.11,-9.56 c -0.41,-0.12 -0.92,-0.22 -1.54,-0.29 -0.58,-0.09 -1.16,-0.13 -1.71,-0.13 m 116.17,-0.14 -0.87,5.73 c -1.17,-1.8 -2.58,-3.17 -4.23,-4.13 -1.65,-0.98 -3.56,-1.47 -5.74,-1.47 -4.8,0 -8.54,1.88 -11.22,5.64 -2.65,3.76 -3.98,8.7 -3.98,14.84 v 0.75 c 0,5.72 1.33,10.34 3.98,13.87 2.68,3.5 6.4,5.25 11.15,5.25 2.01,0 3.79,-0.38 5.34,-1.15 1.55,-0.77 2.9,-1.88 4.05,-3.34 v 2.55 c 0,2.78 -0.63,4.95 -1.9,6.5 -1.27,1.56 -3.18,2.34 -5.74,2.34 -1.86,0 -3.63,-0.22 -5.31,-0.65 -1.67,-0.41 -3.35,-0.97 -5.02,-1.69 l -1.94,7.36 c 1.86,0.93 3.9,1.66 6.1,2.19 2.2,0.55 4.28,0.83 6.24,0.83 5.62,0 10.03,-1.53 13.23,-4.6 3.23,-3.04 4.84,-7.12 4.84,-12.25 v -6.71 l 0.01,0.03 v -24.48 l 5.56,-1.08 v -6.32 h -14.55 z m -166.57,-0.55 h 0.22 l 4.79,14.99 h -9.79 z m -5.2,-12.03 -15.88,45.47 -3.73,0.54 v 6.29 h 17.78 v -6.29 l -3.62,-0.65 3.39,-10.62 h 14.66 l 3.46,10.62 -3.62,0.65 v 6.29 h 17.78 v -6.29 l -3.73,-0.54 -15.78,-45.47 z"
   id="path35" /><g
   id="g53"
   transform="translate(-122.5,-291.89396)">
	<path
   class="st0"
   d="m 411.72,382.23 0.01,0.02 c -2.23,-7.4 -3.34,-11.1 -4.96,-15.03 -3.11,-7.61 -7.07,-13.8 -13.01,-21.46 -13.89,-17.91 -20.83,-26.89 -32.16,-34.03 -24.58,-15.53 -50.45,-12.78 -53.4,-12.42 -8.83,1.06 -28.25,4.93 -44.89,20.97 -9.43,9.1 -15.35,22.15 -18.13,28.81 -3.07,53.09 49.06,74.36 61.34,83.25 3.94,1.88 13.01,5.87 20.37,9.66 17,8.77 28.79,10.58 34.87,11.64 13.25,2.32 33.85,-2.92 43.63,-13.87 9.37,-10.5 12.1,-24.65 9.86,-37.28 -0.67,-3.89 -0.68,-10.79 -3.53,-20.26 z"
   id="path37" />
	<path
   class="st1"
   d="m 391.58,353.36 c -6.05,-9.12 -11.45,-15.34 -15.79,-20.29 -9.26,-10.56 -13.89,-15.84 -20.18,-19.67 -10.86,-6.62 -21.35,-7.82 -27.32,-8.44 -14.08,-1.46 -24.84,1.52 -30.07,3.02 -5.38,1.55 -16.05,4.72 -27.19,13.46 -10.09,7.92 -16.3,19.83 -19.67,26.25 -3.1,5.78 15.97,52.21 60.03,79.65 2.25,1.16 8.53,4.03 12.41,5.99 1.26,0.64 2.42,1.21 3.5,1.73 1.75,0.8 3.38,1.57 4.92,2.3 4.95,2.23 8.01,3.37 12.07,5.49 14.05,7.34 28.88,5.25 31.08,4.9 2.92,-0.45 23.19,-3.58 31.59,-19.7 4.43,-8.5 3.66,-16.97 2.6,-28.56 -0.3,-3.29 -1.3,-12.18 -5.35,-22.96 l 0.02,0.02 c -3.55,-9.46 -7.71,-15.74 -12.65,-23.19 z"
   id="path39" />
	<path
   class="st2"
   d="m 336.2,433.39 c 14.77,5.65 19.62,8.6 25.95,9.37 2.08,0.25 21.91,1.49 33.53,-9.48 8.65,-8.16 9.07,-16.41 9.57,-20.31 1.72,-13.4 -2.09,-30.58 -6.54,-39.02 -5.85,-11.08 -7.36,-13.41 -23.05,-34.18 -11.62,-15.36 -17.44,-18.21 -23.5,-22.2 -10.42,-6.81 -22.48,-6.96 -30.66,-7.3 -6.02,-0.25 -17.29,1.96 -28.1,5.74 -16.89,5.93 -26.75,15.87 -33.68,29.95 -7.69,16.23 31.2,69.13 58.24,79.94 z"
   id="path41" />
	<path
   class="st1"
   d="m 341.25,401.63 v 0 c 9.42,-1.65 15.69,-11.3 17.61,-19.12 2.69,-11.06 -2.88,-20.29 -6.59,-26.45 -3.5,-5.79 -9.66,-13.9 -20.81,-18.42 -10.27,-4.17 -18.24,0.89 -21.96,2.96 -16.38,24.2 -3.69,48.76 20.41,61.02 3.04,0.3 8.95,0.43 11.34,0.01 z"
   id="path43" />
	<path
   class="st0"
   d="m 329.28,402.92 c 0.21,-0.41 0.42,-0.85 0.63,-1.31 3.47,-7.53 6.91,-20.55 7.23,-30.81 0.29,-9.19 -2.85,-15.4 -2.85,-15.4 -3.21,-8.36 -12.43,-11.22 -16.48,-12.76 -3.32,-1.2 -6.3,-1.82 -9.32,-2.16 -5.95,-0.53 -14.2,0.1 -28.46,2.19 -14.13,1.98 -28.23,4.67 -41.22,7.8 -15.75,3.84 -24.43,5.95 -34.44,10.79 -11.56,5.59 -22.48,10.86 -27.2,22.46 -1.23,3.01 -1.87,6.02 -2.17,8.86 v 8.23 c 0.07,0.67 0.15,1.31 0.24,1.91 0,0 3.12,31.09 24.53,46.93 17.93,13.28 44.37,18.19 64.07,12.81 15.54,-2.95 30.37,-17.51 42.69,-30.24 2.52,-2.55 5.55,-5.54 7.45,-7.8 v 0.01 c 4.14,-4.93 12.08,-15.16 15.3,-21.51 z"
   id="path45" />
	<path
   class="st1"
   d="m 330.8,381.99 c 1.48,-3.53 4.24,-10.1 4.01,-16.79 -0.01,-0.27 -0.02,-0.53 -0.05,-0.79 -0.19,-2.66 -0.85,-5.14 -1.98,-7.37 -3.73,-7.42 -11.44,-10.37 -15.58,-11.95 -3.03,-1.16 -5.69,-1.78 -8.87,-2.06 -5.8,-0.52 -13.94,0.11 -28.07,2.18 -5.48,0.8 -11.39,1.68 -18.13,2.88 l -0.02,0.01 c -3.67,0.66 -7.3,1.37 -11.09,2.17 -1.94,0.41 -3.95,0.86 -6.06,1.34 -1.86,0.43 -3.78,0.89 -5.79,1.37 -15.63,3.81 -24.25,5.9 -34.1,10.66 -11.76,5.68 -21.9,10.58 -26.39,21.58 -2.74,6.72 -2.51,13.53 -1.82,18.08 v 0.01 0 c 0,0.01 0,0.02 0,0.03 l 0.02,0.06 c 0.13,0.86 0.28,1.7 0.47,2.55 0.01,0.04 0.25,1.22 0.9,3.22 v 0 l 0.03,0.07 c 1.08,3.29 3.06,8.12 6.43,12.5 12.19,15.83 35.89,16.79 44.81,17.15 0.87,0.04 1.73,0.06 2.59,0.07 26.6,0.29 47.86,-11.24 62.35,-19.74 h -0.01 c 12.55,-7.36 28.02,-17.43 36.35,-37.23 z"
   id="path47" />
	<path
   class="st2"
   d="m 240.44,434.53 c 20.67,-1.14 34.9,-9.19 44.91,-14.32 v -0.01 c 13.79,-7.09 24.99,-15.24 30.76,-21.58 9.58,-10.54 13.49,-21.25 14.34,-29.96 0.95,-9.76 -5.2,-13.41 -7.28,-15.19 -7.76,-6.62 -18.3,-6.51 -27.89,-6.55 -4.36,-0.01 -10.6,0.32 -29.76,4.49 -15.24,3.47 -18.35,4.22 -36.77,9.25 -12.28,3.41 -19.2,5.71 -24.86,9.26 -7.91,4.96 -17.75,11.14 -20.24,23.04 -3.1,14.77 7.84,27.08 10.06,29.41 10.7,11.16 25.46,12.5 35.63,12.53 3.98,0.02 7.76,-0.19 11.1,-0.37 z"
   id="path49" />
	<path
   class="st3"
   d="m 226.3,365.84 -3.68,4.11 c -6.52,8.19 -11.18,23.97 -7.65,28.22 1.81,2.18 2.76,2.42 3.41,2.86 9.06,4.38 17.33,10.39 30.84,11.18 l 11.24,-0.01 c 0.91,-0.04 2.25,-0.09 3.21,-0.16 2.51,-0.23 1.41,-0.25 3.14,-0.43 15.55,-2.55 36.25,-13.54 35.45,-28.92 -0.31,-5.75 -6.88,-15.16 -11.34,-19.41 -4.74,-4.52 -13.61,-8.91 -15.93,-9.74 -1.09,-0.34 -2.39,-0.78 -4.55,-1.16 -1.14,-0.2 -2.27,-0.38 -3.39,-0.51 -0.53,-0.07 -1.07,-0.12 -1.6,-0.17 -0.54,-0.05 -1.07,-0.08 -1.61,-0.11 -11.29,-0.7 -21.42,2.24 -29.23,7.21 -0.65,0.41 -1.29,0.84 -1.9,1.28 -0.32,0.23 -0.63,0.46 -0.94,0.7 h 0.01 c -1.58,1.17 -4.16,3.7 -5.48,5.06 z"
   id="path51" />
</g>
</svg>
