<svg width="135" height="132" viewBox="0 0 135 132" fill="none" xmlns="http://www.w3.org/2000/svg">
<path d="M134.994 105.889C134.984 105.855 134.963 105.827 134.935 105.808C134.906 105.789 134.871 105.781 134.837 105.785C126.054 106.657 117.717 102.637 112.911 95.7136C111.589 93.8181 110.557 91.7354 109.847 89.5342C109.837 89.501 109.816 89.4723 109.787 89.4532C109.759 89.4342 109.724 89.4259 109.69 89.43C109.611 89.4378 109.574 89.5142 109.585 89.5821C109.816 91.9261 109.684 94.2458 109.233 96.4734C107.57 104.733 101.515 111.752 93.1206 114.432C93.0862 114.442 93.0563 114.464 93.0362 114.494C93.0161 114.524 93.007 114.56 93.0105 114.596C93.021 114.672 93.0945 114.708 93.1784 114.7C101.956 113.828 110.293 117.848 115.099 124.771C116.419 126.668 117.451 128.75 118.163 130.951C118.184 131.019 118.247 131.063 118.32 131.055C118.389 131.035 118.436 130.971 118.431 130.903C118.194 128.559 118.331 126.239 118.777 124.012C120.44 115.752 126.495 108.736 134.889 106.053C134.958 106.033 135.005 105.969 135 105.889H134.994Z" fill="#58DF20"/>
<path d="M90.841 11.8048C89.3116 8.55314 87.1631 5.82906 84.6195 3.92948C83.5413 3.13342 82.4232 2.44529 81.2732 1.88932C80.1346 1.35756 78.9368 0.925833 77.6068 0.573609C74.5443 -0.218236 71.0779 -0.190332 67.5836 0.657848C62.8999 1.79349 58.403 4.31698 55.2487 7.58123C50.7281 12.2328 45.6405 16.5806 40.7207 20.7883C38.7443 22.4762 36.7033 24.2237 34.7269 25.9637C27.3149 32.4954 19.6522 39.2472 13.3027 47.2104C-0.426263 64.4562 -3.81351 86.0835 4.47307 103.658C5.60508 106.05 6.96375 108.327 8.53031 110.457C12.6358 116.037 18.5897 119.613 23.8689 122.377C29.2599 125.2 35.5055 126.776 41.2081 126.776C41.6394 126.776 42.0664 126.768 42.4935 126.748C45.1892 126.624 47.8288 126.252 50.3289 125.64C69.1932 121.077 83.8886 104.866 88.6804 83.3315L88.9522 82.1158H88.928C90.885 72.7121 91.3242 62.9967 91.7476 53.5857L91.7591 53.3019C91.8793 50.6299 91.959 47.9022 92.0351 45.2623C92.2224 38.8307 92.4144 32.179 93.1967 25.7679C93.7481 21.2121 92.8893 16.1204 90.8368 11.8048H90.841ZM73.7615 87.0912C70.3669 102.498 59.8206 116.201 43.8157 119.973C41.8121 120.449 39.7671 120.729 37.7096 120.809C30.5217 121.085 23.5331 118.145 17.6988 114.221C15.2114 112.541 12.9632 110.497 11.1699 108.081C9.95216 106.426 8.86977 104.646 7.98728 102.79C0.8875 87.9309 4.91641 71.1163 14.7765 58.7974C19.7398 52.5938 25.7577 47.3262 31.74 42.0823C37.2101 37.287 43.0444 32.7034 48.1284 27.5122C50.5524 25.0324 53.9863 23.1286 57.5924 22.2683C60.1401 21.6723 62.7797 21.5965 65.2157 22.2325C66.1747 22.4909 67.1109 22.8279 68.0148 23.2402C68.9044 23.6827 69.7532 24.2035 70.5511 24.7965C72.5637 26.3044 74.1687 28.4082 75.303 30.7759C76.8964 34.1275 77.5669 38.0115 77.1556 41.4511C76.2972 48.6745 76.3969 56.0981 76.0973 63.3853C75.7741 71.3327 75.4389 79.3401 73.7337 87.0996H73.7573L73.7615 87.0917V87.0912Z" fill="#007339"/>
<path d="M77.1557 41.4424C77.567 38.0065 76.8965 34.1189 75.3031 30.7673C74.173 28.3991 72.5675 26.2952 70.5512 24.7873C69.7533 24.1946 68.9045 23.6739 68.015 23.2316C67.1113 22.8186 66.175 22.4816 65.2159 22.2239C62.7799 21.5878 60.1403 21.6637 57.5925 22.2597C53.9865 23.1194 50.5525 25.0237 48.1286 27.5035C43.0409 32.699 37.2103 37.2826 31.7401 42.0742C25.7578 47.3181 19.7399 52.5857 14.7761 58.7888C4.91706 71.1082 0.887628 87.9228 7.98741 102.782C8.8699 104.637 9.95228 106.417 11.17 108.073C12.9591 110.489 15.2115 112.533 17.6995 114.213C23.5296 118.137 30.5223 121.077 37.7103 120.8C39.7678 120.723 41.8128 120.443 43.8158 119.965C59.8207 116.189 70.3634 102.49 73.7616 87.0831H73.7375C75.4427 79.3236 75.7785 71.3162 76.1017 63.3688C76.4012 56.081 76.3016 48.658 77.1599 41.4345L77.1557 41.4424Z" fill="#B9FF38"/>
<path d="M51.9621 59.941C47.5932 57.1095 41.719 56.9494 35.4214 59.4892C29.5315 61.8648 24.2125 66.2405 20.8221 71.4922C13.9254 82.1837 15.8105 95.7304 25.0231 101.694C27.2103 103.109 29.683 104.018 32.263 104.358C34.9262 104.714 37.73 104.482 40.5369 103.654C46.0354 102.03 50.8996 98.2902 54.2302 93.1306C58.4469 86.6073 60.172 77.7196 58.6227 70.4924C57.6085 65.7529 55.3 62.1091 51.9579 59.9452L51.9621 59.941Z" fill="black"/>
</svg>
