<?xml version="1.0" encoding="utf-8"?>
<!-- Generator: Adobe Illustrator 27.2.0, SVG Export Plug-In . SVG Version: 6.00 Build 0)  -->
<svg version="1.1" xmlns="http://www.w3.org/2000/svg" xmlns:xlink="http://www.w3.org/1999/xlink" x="0px" y="0px"
	 viewBox="0 0 306 51" style="enable-background:new 0 0 306 51;" xml:space="preserve">
<style type="text/css">
	.st0{fill:#FFFFFF;}
	.st1{fill:#557037;}
	.st2{fill:#A0B14E;}
	.st3{fill:#DDDF72;}
	.st4{fill:#5E2E01;}
</style>
<g id="Layer_2">
</g>
<g id="Layer_1">
	<path class="st0" d="M304.42,24.38c-1.06-1.5-2.66-2.48-4.81-2.94c1.67-0.65,2.94-1.63,3.8-2.92c0.88-1.31,1.33-2.79,1.33-4.44
		c0-3.25-1.18-5.69-3.53-7.33c-2.35-1.63-5.63-2.45-9.84-2.45h-12.07h-3.8v0.01v4.31l3.8,0.73v25.6l-3.8,0.74v4.29h17.56
		c4.14,0,7.33-0.87,9.59-2.62c2.26-1.76,3.38-4.35,3.38-7.77C306.04,27.63,305.5,25.89,304.42,24.38z M286.46,9.83L286.46,9.83h4.91
		c2.06,0,3.61,0.39,4.64,1.18c1.05,0.78,1.57,2,1.57,3.65c0,1.5-0.52,2.65-1.55,3.43c-1.03,0.78-2.5,1.18-4.42,1.18h-5.15V9.83z
		 M297.4,33.29c-1,0.82-2.44,1.23-4.34,1.23h-6.6V24.22h0h7.14c1.83,0,3.17,0.47,4.02,1.4c0.85,0.91,1.28,2.25,1.28,3.99
		C298.9,31.23,298.4,32.45,297.4,33.29z"/>
	<path class="st0" d="M270.24,8.5c-2.83-2.79-6.43-4.19-10.79-4.19h-12.26h-3.8v0.01v4.31l3.8,0.73v25.6l-3.8,0.74v4.29h16.07
		c4.37,0,7.96-1.38,10.79-4.14c2.83-2.78,4.24-6.35,4.24-10.73v-5.91C274.49,14.85,273.07,11.28,270.24,8.5z M267.29,25.13
		c0,2.79-0.73,5.06-2.18,6.79c-1.46,1.73-3.47,2.6-6.03,2.6h-4.73V9.84v0h4.73c2.57,0,4.58,0.87,6.03,2.6
		c1.46,1.73,2.18,3.98,2.18,6.74V25.13z"/>
	<path class="st0" d="M141.92,28.3h3.65v4.38c-0.49,0.7-1.18,1.29-2.06,1.76c-0.88,0.46-1.86,0.69-2.94,0.69
		c-1.03,0-1.84-0.25-2.43-0.76c-0.57-0.51-0.86-1.21-0.86-2.11c0-1,0.39-2.18,1.18-2.88C139.25,28.66,140.4,28.3,141.92,28.3
		 M200.82,18.47c1.06,0,1.97,0.22,2.72,0.66c0.77,0.44,1.38,1.06,1.84,1.86v11.52c-0.46,0.77-1.07,1.36-1.84,1.76
		c-0.75,0.39-1.68,0.59-2.77,0.59c-1.77,0-3.04-0.66-3.83-1.98c-0.78-1.34-1.18-3.17-1.18-5.49v-0.51c0-2.5,0.4-4.53,1.2-6.08
		C197.78,19.24,199.07,18.47,200.82,18.47 M229.18,18.42c1.86,0,3.23,0.74,4.1,2.23c0.87,1.49,1.3,3.41,1.3,5.76v0.51
		c0,2.4-0.43,4.34-1.3,5.81c-0.85,1.47-2.2,2.21-4.05,2.21c-1.9,0-3.27-0.73-4.12-2.18c-0.85-1.47-1.28-3.42-1.28-5.83v-0.51
		c0-2.35,0.43-4.27,1.28-5.76C225.96,19.16,227.32,18.42,229.18,18.42 M229.18,12.9c-3.91,0-6.97,1.27-9.2,3.8
		c-2.21,2.52-3.31,5.75-3.31,9.7v0.51c0,3.99,1.1,7.24,3.31,9.75c2.22,2.5,5.31,3.75,9.25,3.75c3.89,0,6.94-1.25,9.15-3.75
		c2.22-2.52,3.33-5.77,3.33-9.75v-0.51c0-3.97-1.11-7.21-3.33-9.73C236.17,14.16,233.11,12.9,229.18,12.9 M175.08,12.9
		c-1.6,0-3.05,0.38-4.34,1.13c-1.29,0.75-2.38,1.81-3.26,3.16l-0.32-3.8h-10.47v4.31l3.8,0.74v16.44l-3.43,0.74v4.29h13.49v-4.29
		l-2.89-0.74V20.67c0.51-0.7,1.14-1.24,1.89-1.62c0.75-0.39,1.6-0.59,2.55-0.59c1.46,0,2.54,0.38,3.26,1.13
		c0.72,0.74,1.08,1.99,1.08,3.78v11.52l-3.07,0.74v4.29h13.69v-4.29l-3.43-0.74V23.34c0-3.59-0.75-6.23-2.26-7.92
		C179.86,13.74,177.77,12.9,175.08,12.9 M141.68,12.9c-1.73,0-3.35,0.24-4.86,0.7c-0.72,0.19-1.47,0.43-2.2,0.76
		c-2.81,1.25-3.8,2.29-3.8,2.29l3.39,4.48c0,0,1.08-1.17,4.15-2.47c0.9-0.38,2.01-0.53,2.86-0.54c1.44,0,2.53,0.35,3.26,1.05
		c0.74,0.7,1.1,1.69,1.1,2.96v2.26h-3.65c-3.86,0-6.78,1.01-8.78,2.37c-1.99,1.36-2.99,3.28-2.99,5.76c0,2.43,0.76,4.36,2.28,5.78
		c1.54,1.41,3.61,2.11,6.21,2.11c1.57,0,2.96-0.3,4.17-0.91c1.23-0.6,2.26-1.4,3.11-2.38c0.08,0.47,0.2,0.95,0.34,1.42
		c0.15,0.46,0.32,0.91,0.52,1.35h8.26v-4.29l-2.18-0.29c-0.05-0.33-0.08-0.67-0.1-1.03v-1.15V22.19c0-2.97-1.03-5.26-3.09-6.86
		C147.63,13.71,144.96,12.9,141.68,12.9 M126.94,12.9c-1.29,0-2.43,0.38-3.41,1.15c-0.98,0.77-1.78,1.84-2.4,3.21l-0.32-3.87h-10.47
		v4.31l3.8,0.74v16.44l-3.43,0.74v4.29h14.03v-4.29l-3.43-0.74V21.99c0.36-0.75,0.88-1.33,1.57-1.74c0.69-0.41,1.55-0.61,2.6-0.61
		l2.94,0.07l0.76-6.52c-0.28-0.08-0.63-0.15-1.05-0.2C127.71,12.93,127.31,12.9,126.94,12.9 M206.41,12.81l-0.6,3.91
		c-0.8-1.23-1.77-2.16-2.89-2.82c-1.13-0.67-2.44-1-3.92-1c-3.29,0-5.85,1.28-7.68,3.85c-1.82,2.57-2.72,5.94-2.72,10.12v0.51
		c0,3.9,0.91,7.06,2.72,9.46c1.83,2.39,4.37,3.58,7.63,3.58c1.37,0,2.59-0.26,3.65-0.78c1.06-0.52,1.99-1.28,2.77-2.28v1.74
		c0,1.9-0.43,3.37-1.3,4.44c-0.87,1.06-2.17,1.59-3.93,1.59c-1.28,0-2.49-0.15-3.63-0.44c-1.14-0.28-2.29-0.66-3.43-1.15l-1.32,5.02
		c1.28,0.64,2.67,1.13,4.17,1.49c1.5,0.38,2.93,0.56,4.27,0.56c3.84,0,6.86-1.05,9.05-3.14c2.21-2.07,3.31-4.86,3.31-8.36v-4.58
		l0.01,0.02v-16.7l3.8-0.74v-4.31H206.41L206.41,12.81L206.41,12.81L206.41,12.81z M92.46,12.43h0.15l3.27,10.23h-6.7L92.46,12.43
		L92.46,12.43L92.46,12.43z M88.91,4.22L78.04,35.24l-2.55,0.37v4.29h12.17v-4.29l-2.48-0.44l2.32-7.24h10.03l2.37,7.24l-2.48,0.44
		v4.29h12.17v-4.29l-2.55-0.37L96.24,4.22H88.91L88.91,4.22L88.91,4.22z"/>
	<path class="st1" d="M62.15,22.07c-0.58-1.93-0.87-2.9-1.29-3.92c-0.81-1.99-1.85-3.6-3.4-5.6c-3.63-4.68-5.44-7.02-8.4-8.89
		c-6.42-4.05-13.17-3.34-13.94-3.24c-2.3,0.28-7.38,1.29-11.72,5.48c-2.46,2.38-4.01,5.78-4.73,7.52
		c-0.8,13.86,12.81,19.41,16.01,21.74c1.03,0.49,3.4,1.53,5.32,2.52c4.44,2.29,7.52,2.76,9.1,3.04c3.46,0.61,8.84-0.76,11.39-3.62
		c2.45-2.74,3.16-6.44,2.58-9.73C62.89,26.34,62.89,24.54,62.15,22.07L62.15,22.07L62.15,22.07z"/>
	<path class="st2" d="M60.19,20.59c-0.93-2.47-2.01-4.11-3.3-6.05c-1.58-2.38-2.99-4-4.12-5.3C50.35,6.48,49.14,5.1,47.5,4.1
		c-2.83-1.73-5.58-2.04-7.13-2.2c-3.68-0.38-6.49,0.4-7.85,0.79c-1.41,0.4-4.19,1.23-7.1,3.51c-2.63,2.07-4.25,5.18-5.14,6.85
		c-0.81,1.51,4.17,13.63,15.67,20.8c0.59,0.3,2.23,1.05,3.24,1.56c0.33,0.17,0.63,0.32,0.91,0.45c0.46,0.21,0.88,0.41,1.28,0.6
		c1.29,0.58,2.09,0.88,3.15,1.43c3.67,1.92,7.54,1.37,8.12,1.28c0.76-0.12,6.06-0.94,8.25-5.14c1.16-2.22,0.96-4.43,0.68-7.46
		C61.51,25.72,61.24,23.4,60.19,20.59"/>
	<path class="st3" d="M37.66,33.47C30.6,30.65,20.45,16.84,22.46,12.6c1.81-3.67,4.38-6.27,8.79-7.82c2.82-0.99,5.77-1.56,7.34-1.5
		c2.14,0.09,5.28,0.13,8.01,1.91c1.58,1.04,3.1,1.78,6.14,5.8c4.1,5.42,4.49,6.03,6.02,8.92c1.16,2.2,2.16,6.69,1.71,10.19
		c-0.13,1.02-0.24,3.17-2.5,5.3c-3.03,2.86-8.21,2.54-8.75,2.47c-1.65-0.2-2.92-0.97-6.78-2.45L37.66,33.47z"/>
	<path class="st2" d="M43.75,27.13c2.46-0.43,4.1-2.95,4.6-4.99c0.7-2.89-0.75-5.3-1.72-6.9c-0.91-1.51-2.52-3.63-5.43-4.81
		c-2.68-1.09-4.76,0.23-5.73,0.77c-4.28,6.32-0.96,12.73,5.33,15.93C41.58,27.21,43.12,27.24,43.75,27.13"/>
	<path class="st1" d="M40.62,27.47c0.05-0.11,0.11-0.22,0.16-0.34c0.91-1.97,1.8-5.37,1.89-8.04c0.08-2.4-0.74-4.02-0.74-4.02
		c-0.84-2.18-3.25-2.93-4.3-3.33c-0.87-0.31-1.64-0.47-2.43-0.56c-1.55-0.14-3.71,0.03-7.43,0.57c-3.69,0.52-7.37,1.22-10.76,2.04
		c-4.11,1-6.38,1.55-8.99,2.82c-3.02,1.46-5.87,2.84-7.1,5.86c-0.75,1.85-0.69,3.72-0.5,4.96c0,0,0.81,8.12,6.4,12.25
		c4.68,3.47,11.58,4.75,16.73,3.34c4.06-0.77,7.93-4.57,11.15-7.9c0.66-0.66,1.45-1.45,1.94-2.04
		C37.71,31.8,39.78,29.13,40.62,27.47L40.62,27.47z"/>
	<path class="st2" d="M31.53,31.73c-3.78,2.22-9.33,5.23-16.28,5.15c-0.22,0-0.45-0.01-0.68-0.02c-2.33-0.09-8.52-0.34-11.7-4.48
		c-0.88-1.14-1.4-2.4-1.68-3.26L1.19,29.1l0,0c-0.17-0.52-0.23-0.83-0.23-0.84c-0.05-0.22-0.09-0.44-0.12-0.67l0-0.02
		c0,0,0,0,0-0.01l0,0l0,0c-0.18-1.19-0.24-2.96,0.48-4.72c1.17-2.87,3.82-4.15,6.89-5.63c2.57-1.24,4.82-1.79,8.9-2.78
		c0.52-0.13,1.03-0.25,1.51-0.36c0.55-0.12,1.08-0.24,1.58-0.35c0.99-0.21,1.94-0.4,2.9-0.57l0,0c1.76-0.31,3.3-0.54,4.73-0.75
		c3.69-0.54,5.81-0.71,7.33-0.57c0.83,0.07,1.52,0.23,2.32,0.54c1.08,0.41,3.1,1.18,4.07,3.12c0.29,0.58,0.47,1.23,0.52,1.93
		c0.01,0.07,0.01,0.14,0.01,0.21c0.06,1.75-0.66,3.46-1.05,4.38C38.84,27.18,34.8,29.8,31.53,31.73"/>
	<path class="st3" d="M29.15,31.98c3.6-1.85,6.52-3.98,8.03-5.63c2.5-2.75,3.52-5.55,3.74-7.82c0.25-2.55-1.36-3.5-1.9-3.97
		c-2.03-1.73-4.78-1.7-7.28-1.71c-1.14,0-2.77,0.08-7.77,1.17c-3.98,0.91-4.79,1.1-9.6,2.42c-3.21,0.89-5.01,1.49-6.49,2.42
		c-2.06,1.3-4.63,2.91-5.29,6.02c-0.81,3.86,2.05,7.07,2.63,7.68c2.79,2.91,6.65,3.26,9.3,3.27c1.04,0,2.03-0.05,2.9-0.1
		C22.82,35.43,26.54,33.32,29.15,31.98"/>
	<path class="st4" d="M15.17,16.46c-0.41,0.31-1.09,0.97-1.43,1.33l-0.96,1.07c-1.7,2.14-2.92,6.26-2,7.37
		c0.47,0.57,0.72,0.63,0.89,0.75c2.37,1.14,4.52,2.71,8.05,2.92l2.93,0c0.24-0.01,0.59-0.02,0.84-0.04
		c0.65-0.06,0.37-0.06,0.82-0.11c4.06-0.67,9.46-3.53,9.26-7.55c-0.08-1.5-1.8-3.96-2.96-5.07c-1.24-1.18-3.55-2.33-4.16-2.54
		c-0.28-0.09-0.62-0.2-1.19-0.3c-0.3-0.05-0.59-0.1-0.88-0.13c-0.14-0.02-0.28-0.03-0.42-0.04c-0.14-0.01-0.28-0.02-0.42-0.03
		c-2.95-0.18-5.59,0.58-7.63,1.88c-0.17,0.11-0.34,0.22-0.5,0.33C15.33,16.34,15.24,16.4,15.17,16.46"/>
</g>
</svg>
