<svg width="620" height="129" viewBox="0 0 620 129" fill="none" xmlns="http://www.w3.org/2000/svg">
<g clip-path="url(#clip0_53_78)">
<mask id="mask0_53_78" style="mask-type:luminance" maskUnits="userSpaceOnUse" x="0" y="0" width="620" height="129">
<path d="M0 0.42041H620V129H0V0.42041Z" fill="white"/>
</mask>
<g mask="url(#mask0_53_78)">
<path d="M260.331 64.9917H257.622L257.496 64.9564C255.648 64.4639 252.962 64.1647 250.665 64.1647C242.679 64.1647 236.28 66.4019 231.884 70.6518C227.491 74.8938 224.963 81.2705 224.963 89.8293V106.939H208.82V50.5602H224.554V61.0809C229.827 53.7866 239.021 48.9068 251.389 48.9068C254.24 48.9068 257.516 49.3241 259.564 49.8711L260.331 50.0764V64.9963V64.9917ZM391.419 48.914C400.326 48.914 407.188 51.2264 411.813 55.905C416.437 60.5842 418.667 67.4575 418.667 76.2289V106.947H402.626V77.6702C402.626 72.6644 401.431 69.1943 399.146 66.953C396.858 64.7044 393.283 63.499 388.12 63.444C381.6 63.3963 375.992 65.3893 372.021 69.1866C368.057 72.9797 365.619 78.6672 365.619 86.2177V106.935H349.578L349.672 50.5524H365.304V59.9107C370.597 53.5538 379.783 48.9062 391.419 48.9062V48.914ZM461.865 48.914C472.738 48.914 481.256 52.5412 486.026 57.0985V50.5607H501.964V98.286C501.964 107.979 499.062 115.738 492.55 121.04C486.077 126.306 476.211 129 462.588 129C451.153 129 439.784 126.609 431.385 122.395L431.841 121.477H430.814V107.971H433.653L433.889 108.101C441.939 112.544 451.845 114.978 462.486 114.978C471.165 114.978 477.028 113.615 480.713 110.878C484.323 108.2 486.026 104.06 486.026 97.9744V97.4549C481.039 102.941 472.486 106.226 461.664 106.226C451.137 106.226 442.627 103.178 436.737 98.0615C430.838 92.937 427.629 85.7961 427.629 77.777C427.629 69.7574 430.916 62.5067 436.874 57.2836C442.824 52.0647 451.381 48.9104 461.865 48.9104V48.914ZM464.747 63.0344C458.208 63.0344 453.072 64.5468 449.6 67.0987C446.159 69.6278 444.291 73.2119 444.291 77.5681C444.291 81.9242 446.119 85.5203 449.481 88.0452C452.875 90.5894 457.905 92.1017 464.338 92.1017C470.756 92.1017 476.222 90.4675 480.048 87.8244C483.867 85.1895 486.026 81.5893 486.026 77.5681C486.026 73.5469 483.997 69.9228 480.316 67.304C476.623 64.6728 471.267 63.0381 464.743 63.0381L464.747 63.0344ZM545.962 48.914C568.163 48.914 584.52 61.5179 584.52 78.7025C584.52 95.8793 568.287 108.7 545.962 108.7C523.642 108.7 507.512 95.9856 507.512 78.7025C507.512 61.4194 523.755 48.914 545.962 48.914ZM545.962 62.9318C538.873 62.9318 533.407 64.6728 529.743 67.485C526.096 70.2816 524.169 74.181 524.169 78.7025C524.169 83.224 526.147 87.1706 529.826 90.0222C533.52 92.8898 538.987 94.6738 545.962 94.6738C552.947 94.6738 558.439 92.9328 562.159 90.0932C565.864 87.2691 567.863 83.3184 567.863 78.7025C567.863 74.0861 565.91 70.2852 562.242 67.4891C558.548 64.6728 553.055 62.9359 545.962 62.9318ZM337.372 50.7613H321.433V56.0865C316.258 52.057 308.185 49.1147 298.303 49.1147C287.614 49.1147 278.802 52.3364 272.632 57.7445C266.454 63.1641 263.037 70.687 263.037 79.0136C263.037 87.3401 266.367 94.7568 272.502 100.078C278.617 105.387 287.379 108.491 298.102 108.491C307.996 108.491 316.176 105.789 321.536 101.051L321.878 107.262L323.934 107.148H339.432V50.7613H337.372ZM300.772 94.3664C287.607 94.3664 279.694 88.1826 279.694 78.8005C279.694 69.4183 287.815 63.2346 301.181 63.2346C314.548 63.2346 323.494 69.9342 323.494 78.8005C323.494 87.6662 313.938 94.3664 300.776 94.3664H300.772Z" fill="black"/>
<path d="M620 98.3171C619.99 98.2845 619.969 98.2563 619.941 98.2376C619.913 98.2189 619.879 98.2109 619.845 98.215C611.196 99.0736 602.986 95.1151 598.253 88.2973C596.952 86.4306 595.935 84.3796 595.236 82.212C595.226 82.1793 595.206 82.1511 595.177 82.1323C595.149 82.1135 595.115 82.1054 595.081 82.1094C595.004 82.1172 594.967 82.1923 594.978 82.2592C595.205 84.5674 595.076 86.8518 594.632 89.0454C592.994 97.1791 587.031 104.091 578.765 106.73C578.731 106.74 578.701 106.762 578.682 106.792C578.662 106.821 578.653 106.857 578.656 106.892C578.667 106.967 578.739 107.002 578.822 106.994C587.465 106.136 595.675 110.094 600.408 116.912C601.707 118.78 602.724 120.83 603.425 122.997C603.446 123.064 603.508 123.108 603.58 123.1C603.647 123.08 603.694 123.017 603.689 122.95C603.456 120.642 603.591 118.357 604.03 116.164C605.668 108.03 611.63 101.122 619.897 98.4789C619.964 98.4592 620.01 98.396 620.005 98.3171H620Z" fill="#58DF20"/>
<path d="M156.145 32.2847C162.496 32.3868 168.607 36.239 171.879 43.3487C174.998 50.1308 182.099 65.5707 188.419 79.3209C191.576 86.1937 194.542 92.6455 196.716 97.376C197.802 99.7392 198.695 101.677 199.312 103.02C199.622 103.693 199.862 104.217 200.027 104.572C200.11 104.749 200.173 104.887 200.216 104.978C200.236 105.025 200.255 105.057 200.263 105.08C200.267 105.092 200.271 105.1 200.275 105.107V105.116L200.37 105.324V108.01H184.447L184.176 107.4L176.724 90.6287H134.36L126.813 107.408L126.538 108.014H111.095V105.34L111.182 105.143V105.135C111.182 105.131 111.19 105.123 111.193 105.111C111.202 105.088 111.217 105.057 111.237 105.009C111.276 104.922 111.335 104.793 111.41 104.619C111.559 104.276 111.78 103.772 112.067 103.126C112.637 101.831 113.463 99.9673 114.473 97.6793C117.073 91.8081 119.689 85.9446 122.322 80.0888C128.394 66.6024 135.48 51.135 139.511 43.3244C143.373 35.8377 149.779 32.1862 156.134 32.2883L156.145 32.2847ZM155.831 46.3418C155.595 46.3263 155.162 46.4403 154.474 47.1921C153.802 47.9335 153.027 49.1343 152.134 50.895C150.648 54.1919 147.53 61.1316 144.777 67.2485C143.396 70.3167 142.11 73.1844 141.167 75.2795C140.821 76.0479 140.522 76.713 140.278 77.2491H170.821C170.585 76.7094 170.287 76.0359 169.944 75.2598C169.02 73.1569 167.754 70.2893 166.397 67.2168C163.68 61.0689 160.601 54.1131 159.122 50.8712C158.394 49.2681 157.738 48.0984 157.132 47.33C156.511 46.5425 156.078 46.3574 155.827 46.3418H155.831Z" fill="black"/>
<path d="M89.455 12.0476C87.9489 8.84559 85.8331 6.16304 83.3283 4.29242C82.2666 3.5085 81.1656 2.83086 80.033 2.28336C78.9119 1.75971 77.7323 1.33457 76.4226 0.987715C73.4068 0.207942 69.9932 0.235421 66.5522 1.07067C61.9399 2.189 57.5115 4.67401 54.4053 7.8885C49.9537 12.4691 44.9436 16.7506 40.0988 20.8942C38.1526 22.5564 36.1427 24.2772 34.1964 25.9907C26.8975 32.4228 19.3516 39.0716 13.0989 46.9134C-0.420741 63.8963 -3.75634 85.1938 4.40389 102.5C5.51864 104.856 6.8566 107.098 8.39928 109.196C12.4422 114.691 18.3053 118.212 23.504 120.934C28.8128 123.714 34.9632 125.266 40.5788 125.266C41.0035 125.266 41.4241 125.258 41.8447 125.239C44.4993 125.117 47.0986 124.75 49.5606 124.148C68.1373 119.654 82.6086 103.69 87.3273 82.4838L87.595 81.2867H87.5712C89.4984 72.0264 89.9308 62.4591 90.3478 53.1915L90.3591 52.9121C90.4775 50.2809 90.556 47.5947 90.6309 44.9951C90.8154 38.6615 91.0045 32.1112 91.7748 25.7979C92.3178 21.3116 91.472 16.2975 89.4508 12.0476H89.455ZM72.6359 86.1862C69.2931 101.358 58.9076 114.852 43.1467 118.566C41.1736 119.036 39.1599 119.311 37.1337 119.39C30.0554 119.661 23.1734 116.766 17.428 112.903C14.9785 111.248 12.7646 109.236 10.9986 106.856C9.79944 105.226 8.73356 103.473 7.86453 101.646C0.872993 87.0131 4.84048 70.4549 14.5502 58.3238C19.4379 52.2147 25.364 47.0275 31.2551 41.8636C36.6418 37.1414 42.3872 32.6276 47.3937 27.5155C49.7807 25.0736 53.1622 23.1988 56.7133 22.3516C59.2222 21.7647 61.8216 21.6901 64.2205 22.3164C65.1648 22.5708 66.0867 22.9027 66.9769 23.3087C67.8529 23.7445 68.6887 24.2574 69.4744 24.8413C71.4564 26.3262 73.0369 28.398 74.1539 30.7295C75.723 34.0301 76.3833 37.8548 75.9782 41.2419C75.133 48.3553 75.2311 55.6657 74.9361 62.8417C74.6179 70.668 74.2877 78.5533 72.6085 86.1945H72.6318L72.6359 86.1867V86.1862Z" fill="#007339"/>
<path d="M75.9782 41.2334C76.3833 37.8499 75.723 34.0216 74.1539 30.721C73.041 28.389 71.46 26.3172 69.4744 24.8323C68.6887 24.2486 67.8529 23.7359 66.9769 23.3002C66.087 22.8936 65.165 22.5617 64.2205 22.3079C61.8216 21.6816 59.2222 21.7562 56.7133 22.3431C53.1622 23.1898 49.7807 25.0651 47.3937 27.5071C42.3835 32.6233 36.6418 37.137 31.2551 41.8556C25.364 47.0195 19.4379 52.2068 14.5497 58.3153C4.84099 70.4469 0.872992 87.0052 7.86452 101.637C8.73356 103.465 9.79944 105.218 10.9986 106.848C12.7605 109.228 14.9785 111.24 17.4285 112.894C23.1697 116.758 30.0559 119.653 37.1342 119.381C39.1604 119.305 41.1742 119.03 43.1467 118.558C58.9076 114.84 69.2895 101.35 72.6359 86.1782H72.6122C74.2913 78.5371 74.622 70.6517 74.9403 62.8255C75.2353 55.6489 75.1371 48.339 75.9824 41.2257L75.9782 41.2334Z" fill="#B9FF38"/>
<path d="M51.1691 59.4497C46.8668 56.6614 41.0822 56.5038 34.8806 59.0048C29.0805 61.3442 23.8426 65.6531 20.5039 70.8248C13.7123 81.3533 15.5687 94.6934 24.6408 100.566C26.7946 101.959 29.2297 102.855 31.7703 103.19C34.3929 103.54 37.154 103.311 39.9181 102.496C45.3328 100.897 50.1228 97.2142 53.4026 92.1333C57.5551 85.7095 59.2539 76.9572 57.7281 69.8403C56.7294 65.173 54.4561 61.5847 51.1649 59.4538L51.1691 59.4497Z" fill="black"/>
</g>
</g>
<defs>
<clipPath id="clip0_53_78">
<rect width="620" height="128.58" fill="white" transform="translate(0 0.42041)"/>
</clipPath>
</defs>
</svg>
