<?xml version="1.0" standalone="no"?>
<!DOCTYPE svg PUBLIC "-//W3C//DTD SVG 1.1//EN" "http://www.w3.org/Graphics/SVG/1.1/DTD/svg11.dtd" >
<svg xmlns="http://www.w3.org/2000/svg">
<metadata>
<json>
{
	"fontFamily": "arangodb",
	"version": "Version 0.0",
	"fontId": "arangodb",
	"psName": "arangodb",
	"subFamily": "Regular",
	"fullName": "arangodb",
	"description": "Generated by IcoMoon"
}
</json>
</metadata>
<defs>
<font id="arangodb" horiz-adv-x="1024">
<font-face units-per-em="1024" ascent="960" descent="-64" />
<missing-glyph horiz-adv-x="1024" />
<glyph unicode="&#x20;" d="" horiz-adv-x="512" />
<glyph unicode="&#xe600;" d="M512 832c-220.912 0-400-179.088-400-400s179.088-400 400-400c220.912 0 400 179.088 400 400s-179.088 400-400 400zM582.192 668.432h36v-145.68c0-4.528 0.752-7.808 2.288-9.808 1.472-2 3.936-3.008 7.312-3.008 2.624 0 5.968 1.312 10 4 4.064 2.656 7.744 6.064 11.12 10.224v144.272h36v-190.096h-36v20.992c-6.624-7.712-13.504-13.632-20.688-17.664-7.152-4.032-14.096-6.064-20.88-6.064-8.32 0-14.56 2.816-18.784 8.496-4.224 5.632-6.368 14.128-6.368 25.44v158.896zM500.848 673.216c14.912 0 27.088-4.592 36.592-13.808 9.504-9.184 14.224-21.040 14.224-35.536v-98.128c0-16.288-4.656-29.056-13.936-38.32-9.312-9.248-22.128-13.872-38.528-13.872-15.712 0-28.304 4.784-37.744 14.32-9.44 9.568-14.128 22.432-14.128 38.56v98.528c0 14.72 4.848 26.432 14.496 35.152 9.68 8.768 22.672 13.104 39.024 13.104zM354.128 736l26.256-103.008h2.528l25.088 103.008h41.12l-47.12-150.752v-106.912h-40.496v102.096l-48.192 155.568h40.816zM748.816 198.432c0-37.152-31.12-67.28-69.344-67.28-54.624-2.24-110.512-3.248-167.472-3.152-56.976-0.096-112.848 0.912-167.472 3.152-38.224 0-69.28 30.128-69.28 67.28-2.304 29.44-3.312 58.88-3.248 88.32-0.064 29.44 0.944 58.88 3.248 88.288 0 37.152 31.056 67.344 69.28 67.344 54.624 2.256 110.496 3.216 167.472 3.12 56.96 0.096 112.848-0.88 167.472-3.12 38.224 0 69.344-30.192 69.344-67.344 2.256-29.408 3.248-58.848 3.184-88.288 0.064-29.44-0.944-58.88-3.184-88.32zM409.84 394.224h-100.656v-30.288h33.936v-178.304h32.784v178.304h33.936zM463.472 222.688c-2.72-3.344-5.712-6.128-9.040-8.288-3.248-2.16-5.968-3.248-8.096-3.248-2.752 0-4.752 0.848-5.968 2.464-1.152 1.616-1.808 4.256-1.808 7.904v117.968h-29.056v-128.624c0-9.152 1.68-16 5.088-20.624 3.408-4.56 8.496-6.848 15.248-6.848 5.408 0 11.056 1.632 16.848 4.88 5.84 3.28 11.408 8.096 16.784 14.336v-16.992h29.152v153.872h-29.152v-116.8zM576.304 341.44c-4.56 0-8.992-1.216-13.408-3.68-4.368-2.432-8.624-6-12.496-10.688v67.152h-29.44v-208.592h29.44v11.808c3.808-4.688 7.968-8.128 12.432-10.4 4.4-2.224 9.536-3.344 15.216-3.344 8.624 0 15.216 2.88 19.776 8.688 4.56 5.808 6.816 14.192 6.816 25.12v85.376c0 12.56-2.4 22.128-7.248 28.72-4.832 6.56-11.856 9.84-21.088 9.84zM574.72 221.68c0-4.912-0.88-8.432-2.56-10.624-1.632-2.16-4.288-3.216-7.808-3.216-2.464 0-4.816 0.528-7.056 1.664-2.256 1.12-4.496 2.88-6.88 5.408v95.904c2 2.096 3.968 3.664 6 4.688 2.064 0.992 4.096 1.504 6.16 1.504 3.936 0 6.976-1.376 8.992-4.064 2.128-2.688 3.152-6.624 3.152-11.808v-79.456zM670.848 343.376c-12.992 0-23.664-4.192-31.872-12.624-8.224-8.384-12.304-19.28-12.304-32.624v-69.056c0-14.816 3.712-26.432 11.216-34.944 7.504-8.432 17.744-12.688 30.784-12.688 14.496 0 25.408 4 32.72 12 7.28 7.968 10.976 19.84 10.976 35.632v11.568h-29.968v-10.688c0-9.056-0.976-14.944-2.944-17.6-1.936-2.624-5.28-3.968-10.096-3.968-4.656 0-7.936 1.568-9.84 4.688-1.936 3.152-2.88 8.752-2.88 16.88v28.992h55.712v39.184c0 14.624-3.632 25.776-10.752 33.568-7.168 7.808-17.376 11.68-30.752 11.68zM682.368 282.816h-25.744v15.584c0 6.432 0.976 11.056 3.024 13.84 2 2.784 5.344 4.192 9.968 4.192 4.464 0 7.664-1.408 9.68-4.192 2-2.784 3.056-7.408 3.056-13.84v-15.584zM499.088 640.288c-4.352 0-7.936-1.28-10.72-3.84-2.72-2.528-4.064-5.872-4.064-10.032v-103.536c0-5.248 1.248-9.248 3.808-12.128 2.56-2.848 6.224-4.256 10.976-4.256 4.912 0 8.752 1.44 11.648 4.384 2.848 2.88 4.288 6.912 4.288 12v103.52c0 4.16-1.472 7.504-4.336 10.032-2.976 2.576-6.848 3.856-11.6 3.856z" />
<glyph unicode="&#xe601;" d="M560 512c0-26.51-21.49-48-48-48s-48 21.49-48 48c0 26.51 21.49 48 48 48 26.51 0 48-21.49 48-48zM615.248 643.744l-23.248-23.248c39.024-21.968 65.504-63.712 65.504-111.616 0-47.696-26.256-89.28-65.056-111.312l23.248-23.248c44.32 28.464 73.808 78.096 73.808 134.56 0 56.688-29.696 106.432-74.256 134.864zM433.056 620.224l-23.248 23.248c-44.304-28.512-73.808-78.128-73.808-134.592 0-56.288 29.28-105.744 73.312-134.288l23.28 23.248c-38.528 22.096-64.592 63.536-64.592 111.040 0 47.68 26.256 89.312 65.056 111.344zM695.44 723.936l-22.848-22.848c58.656-43.776 96.912-113.536 96.912-192.224 0-78.496-38.064-148.096-96.464-191.904l22.816-22.816c64.16 49.808 105.664 127.408 105.664 214.72-0.016 87.504-41.712 165.296-106.080 215.072zM256 508.88c0 78.496 38.064 148.096 96.464 191.904l-22.816 22.816c-64.144-49.792-105.648-127.408-105.648-214.72 0-87.088 41.312-164.592 105.216-214.4l22.848 22.848c-58.192 43.792-96.064 113.264-96.064 191.552zM775.184 803.712l-22.688-22.72c78.688-64.592 128.992-162.592 128.992-272.128 0-109.344-50.128-207.184-128.56-271.776l22.688-22.688c84.192 70.496 137.872 176.32 137.872 294.464 0.016 118.352-53.824 224.352-138.304 294.848zM144 508.88c0 109.344 50.128 207.184 128.56 271.808l-22.688 22.688c-84.176-70.496-137.872-176.336-137.872-294.496 0-117.968 53.504-223.632 137.504-294.128l22.656 22.656c-78.224 64.624-128.16 162.336-128.16 271.472zM496 400h32v-320h-32v320z" />
<glyph unicode="&#xe602;" d="M944 688h-864v-640h864v640zM144 752h736v-32h-736v32zM208 816h608v-32h-608v32z" />
<glyph unicode="&#xe603;" d="M208 656h736v-576h-736v576zM176 688h640v96h-736v-576h96z" />
<glyph unicode="&#xe604;" d="M736 656h-608v-608h608v608zM288 816v-128h480v-480h128v608z" />
<glyph unicode="&#xe605;" d="M429.568 763.952c-63.536-15.792-120.032-49.376-163.968-95.072 27.536-11.664 57.216-21.168 88.464-28.784 18.992 52.896 44.928 95.936 75.504 123.856zM265.6 195.12c43.936-45.696 100.432-79.28 163.968-95.072-30.56 27.92-56.496 70.96-75.504 123.856-31.248-7.6-60.944-17.12-88.464-28.784zM758.4 668.88c-43.936 45.696-100.432 79.28-163.968 95.072 30.56-27.92 56.496-70.96 75.504-123.856 31.248 7.6 60.944 17.12 88.464 28.784zM594.432 100.048c63.536 15.792 120.032 49.376 163.968 95.072-27.536 11.664-57.216 21.168-88.464 28.784-18.992-52.896-44.944-95.936-75.504-123.856zM512 832c-220.912 0-400-179.088-400-400s179.088-400 400-400c220.912 0 400 179.088 400 400s-179.088 400-400 400zM512 64c-203.248 0-368 164.768-368 368s164.752 368 368 368c203.248 0 368-164.768 368-368s-164.752-368-368-368zM496 97.76v144.64c-38.4-0.896-75.568-4.736-110.976-11.456 26.416-72.656 66.224-123.344 110.976-133.184zM496 621.6v144.64c-44.752-9.824-84.56-60.512-110.976-133.184 35.408-6.72 72.576-10.576 110.976-11.456zM528 766.24v-144.64c38.4 0.896 75.568 4.736 110.96 11.456-26.4 72.656-66.208 123.344-110.96 133.184zM528 97.76c44.752 9.824 84.56 60.512 110.96 133.184-35.408 6.72-72.56 10.56-110.96 11.456v-144.64zM778.096 217.6c44.224 54.816 72.032 123.408 75.504 198.4h-150.032c-1.344-59.104-10.368-114-24.56-162.592 37.904-9.088 71.28-21.296 99.088-35.808zM245.904 646.4c-44.224-54.816-72.032-123.408-75.504-198.4h150.032c1.344 59.104 10.384 113.968 24.56 162.592-37.904 9.088-71.28 21.296-99.088 35.808zM648.288 259.936c13.536 46.368 21.968 99.536 23.312 156.064h-143.6v-144.352c42.656-0.832 83.184-4.8 120.288-11.712zM375.712 604.064c-13.536-46.368-21.968-99.536-23.312-156.064h143.6v144.352c-42.656 0.832-83.184 4.8-120.288 11.712zM496 271.648v144.352h-143.6c1.344-56.528 9.776-109.68 23.312-156.064 37.104 6.912 77.632 10.88 120.288 11.712zM528 592.352v-144.352h143.6c-1.344 56.528-9.776 109.68-23.312 156.064-37.104-6.912-77.632-10.88-120.288-11.712zM344.992 253.408c-14.192 48.592-23.216 103.488-24.56 162.592h-150.032c3.472-75.008 31.28-143.6 75.504-198.4 27.808 14.512 61.184 26.72 99.088 35.808zM678.992 610.592c14.192-48.624 23.216-103.488 24.56-162.592h150.032c-3.472 75.008-31.28 143.6-75.504 198.4-27.792-14.512-61.168-26.72-99.088-35.808z" />
<glyph unicode="&#xe606;" d="M882.96 272l-251.552 461.456c-33.632 54.4-73.776 82.544-119.408 82.544-45.632 0-85.776-28.144-119.408-82.544l-251.568-461.456c-18.992-27.424-29.024-51.888-29.024-80 0-64.736 54.432-112 121.312-112h557.376c66.88 0 121.312 47.264 121.312 112 0 28.112-10.032 52.576-29.040 80zM464.16 605.792c-0.592 12.992 3.904 26.256 13.84 36.224 18.784 18.752 49.152 18.72 67.904 0 10.688-10.704 15.056-25.152 13.568-39.12-0.032-1.008 0.096-2.096 0-3.088l-30.528-241.536c-1.12-8.848-9.216-23.344-18.064-22.208-7.408 0.96-12.992 15.12-13.936 22.208l-32.784 241.488c-0.288 2.32-0.096 4.144 0 6.032zM512 208c-26.496 0-48 21.504-48 48s21.504 48 48 48c26.496 0 48-21.504 48-48 0-26.496-21.504-48-48-48z" />
<glyph unicode="&#xe607;" d="M512 832c-220.912 0-400-179.088-400-400s179.088-400 400-400c220.912 0 400 179.088 400 400s-179.088 400-400 400zM742.688 480.128l-1.376-4.288c-7.776-23.568-24.88-57.84-44.592-89.472-21.712-34.88-54.88-80.464-83.376-114.656-55.776-66.912-103.664-103.28-145.872-110.72-7.872-1.408-19.632-1.312-25.568 0.192-26.128 6.56-47.84 33.024-66.688 81.408-1.6 4.096-9.504 32.72-24.592 88.944-12.256 45.6-23.184 86.224-24.336 90.224-7.632 26.496-17.568 50.752-26.288 63.936-6.688 10.128-15.056 16.72-22.192 17.44-2.88 0.32-3.344 0.192-7.808-2.064-4.656-2.368-18.192-11.056-29.696-19.152-3.216-2.256-6.192-4.272-6.496-4.464-0.4-0.256-4.992 5.344-12.752 15.536-6.72 8.72-12.496 16.256-12.912 16.72-0.624 0.752 0.336 1.808 8.56 9.184 13.744 12.304 41.632 37.616 55.664 50.56 25.28 23.248 39.936 35.184 56.848 46.32 18.096 11.872 29.536 16.4 42.944 16.992 33.776 1.504 56.224-18.752 68.368-61.808 2.88-10.288 4.224-17.12 8.624-45.088 11.568-72.912 16.432-99.152 24.064-129.536 9.056-36.128 19.152-57.184 29.872-62.464 2.912-1.408 3.776-1.664 6.368-1.408 11.776 0.88 28.528 19.248 51.6 56.368 18.976 30.624 30.464 55.28 34.528 74.16 0.992 4.72 1.184 7.088 1.216 16.752 0 9.376-0.128 11.872-0.944 14.72-2.688 9.568-7.68 16-15.536 19.872-6.336 3.088-10.592 3.872-20.688 3.872-11.808 0-22.192-1.936-34-6.368-3.28-1.248-5.344-1.808-5.44-1.44-0.064 0.32 1.152 4.4 2.72 9.056 9.504 28 20.624 49.6 35.184 68.336 5.28 6.784 15.744 17.568 21.872 22.56 10.336 8.336 24.032 16.224 36.128 20.72 26.432 9.744 62.592 12.192 85.216 3.968 79.968-29.168 41.376-154.912 41.376-154.912z" />
<glyph unicode="&#xe608;" d="M479.904 723.712l-102.816 59.36-293.248-169.296 103.248-59.616zM837.712 555.104l101.296 58.672v-0.672l1.152 0.672-293.248 169.296-102.512-59.168zM648.528 287.664l0.816 0.464 134.656 77.744v0.416l157.504 90.928-103.504 59.776-293.344-169.328zM186.032 516.464l-98.72-57.136-0.592 0.336-4.224-2.448 293.472-169.552 103.504 59.936zM512.064 366.48l292.784 169.6-292.848 169.12-0.816-0.464-292.064-169.088zM496 319.584l-119.808-69.168-136.192 78.688v-108.080l256-147.792zM648.32 250.416l-120.32 69.248v-246.432l256 147.792v107.792z" />
<glyph unicode="&#xe609;" d="M512 502.4c-100.56 0-182.4-81.84-182.4-182.4s81.84-182.4 182.4-182.4 182.4 81.84 182.4 182.4-81.84 182.4-182.4 182.4zM528 306.944v-98.944h-32v98.944c-18.592 6.624-32 24.192-32 45.056 0 26.496 21.504 48 48 48 26.496 0 48-21.504 48-48 0-20.88-13.408-38.432-32-45.056zM512 624c-65.664 0-126.304-21.040-176-56.432 0 24.224 0 99.904 0 104.432 0 100.752 78.816 176 176 176s176-75.248 176-176c0-2.944 0-8.688 0-16h32c0 8.944 0 14.96 0 16 0 114.88-93.12 208-208 208s-208-93.12-208-208c0-4.368 0-95.936 0-130.72-58.976-55.44-96-133.952-96-221.28 0-167.904 136.128-304 304-304s304 136.096 304 304-136.128 304-304 304zM512 112c-114.88 0-208 93.12-208 208s93.12 208 208 208 208-93.12 208-208-93.12-208-208-208z" />
<glyph unicode="&#xe60a;" d="M512 816c-211.744 0-384-172.256-384-384s172.256-384 384-384c211.744 0 384 172.256 384 384s-172.256 384-384 384zM368 560c26.496 0 48-21.504 48-48s-21.504-48-48-48c-26.496 0-48 21.504-48 48 0 26.496 21.504 48 48 48zM681.84 187.664c-39.904 51.344-101.152 84.336-169.84 84.336s-129.936-32.992-169.84-84.336l-22.16 22.8c45.648 57.072 114.752 93.536 192 93.536s146.336-36.464 192-93.536l-22.16-22.8zM656 464c-26.496 0-48 21.504-48 48s21.504 48 48 48c26.496 0 48-21.504 48-48 0-26.496-21.504-48-48-48z" />
<glyph unicode="&#xe60b;" d="M512 832c-220.912 0-400-179.088-400-400s179.088-400 400-400c220.912 0 400 179.088 400 400s-179.088 400-400 400zM734.944 528.4c0.192-4.816 0.336-9.712 0.336-14.592 0-149.488-113.776-321.808-321.872-321.808-63.904 0-123.376 18.752-173.408 50.816 8.816-1.056 17.84-1.6 26.992-1.6 53.008 0 101.744 18.128 140.464 48.432-49.472 0.912-91.248 33.568-105.664 78.496 6.912-1.312 14-1.968 21.312-1.968 10.256 0 20.256 1.376 29.744 3.904-51.744 10.4-90.752 56.096-90.752 110.912v1.44c15.28-8.464 32.752-13.568 51.28-14.128-30.4 20.256-50.304 54.88-50.304 94.16 0 20.656 5.568 40.096 15.28 56.848 55.776-68.432 139.152-113.44 233.184-118.192-1.936 8.256-2.976 16.944-2.976 25.744 0 62.464 50.656 113.12 113.152 113.12 32.528 0 61.904-13.712 82.56-35.712 25.776 5.024 50 14.464 71.84 27.44-8.464-26.4-26.4-48.592-49.776-62.56 22.912 2.752 44.752 8.816 64.992 17.84-15.104-22.736-34.272-42.656-56.384-58.592z" />
<glyph unicode="&#xe60c;" d="M656 736v40c0 30.944-25.056 56-56 56h-176c-30.944 0-56-25.056-56-56v-40h-160v-32h32l48-616c0-30.944 25.056-56 56-56h336c30.944 0 56 25.056 56 56l48 616h32v32h-160zM400 776c0 13.248 10.752 24 24 24h176c13.248 0 24-10.752 24-24v-40h-224v40zM400 128l-16 512h32l16-512h-32zM528 128h-32v512h32v-512zM624 128h-32l16 512h32l-16-512z" />
<glyph unicode="&#xe60d;" d="M944 528h-330.56l-101.44 320-101.472-320h-330.528l267.84-200.032-102.848-311.968 267.008 193.536 266.976-193.536-102.816 311.968 267.84 200.032z" />
<glyph unicode="&#xe60e;" d="M608 608h-448v-608h448v608zM288 736v-96h352v-512h96v608zM416 864v-96h352v-512h96v608z" />
<glyph unicode="&#xe60f;" d="M512 784l-432-223.536 432-224.992 432 224.992-432 223.536zM512 299.68l-343.696 179.008-88.304-45.696 432-224.992 432 224.992-88.32 45.696zM512 171.68l-343.696 179.008-88.304-45.696 432-224.992 432 224.992-88.32 45.696z" />
<glyph unicode="&#xe610;" d="M881.344 656c0 0-116.784 0-135.536 0-16.752 0-25.12 9.632-25.12 9.632l-49.744 97.872-0.064-0.192c-11.696 12.656-28.288 20.688-46.88 20.688h-222.688c-18.56 0-35.152-8.032-46.88-20.688l-0.064 0.192-49.744-97.872c0 0-8.384-9.632-25.12-9.632-18.752 0-135.504 0-135.504 0-35.376 0-64-28.656-64-64v-416c0-35.344 28.624-64 64-64h737.344c35.344 0 62.656 28.656 62.656 64v416c0 35.344-27.312 64-62.656 64zM512 208c-114.88 0-208 93.12-208 208s93.12 208 208 208c114.88 0 208-93.12 208-208s-93.12-208-208-208zM512 598.4c-100.72 0-182.4-81.68-182.4-182.4s81.68-182.4 182.4-182.4c100.72 0 182.4 81.68 182.4 182.4s-81.68 182.4-182.4 182.4zM512 272c-79.536 0-144 64.464-144 144s64.464 144 144 144c79.536 0 144-64.464 144-144s-64.464-144-144-144zM630.4 416c0-65.391-53.009-118.4-118.4-118.4-65.391 0-118.4 53.009-118.4 118.4 0 65.391 53.009 118.4 118.4 118.4 65.391 0 118.4-53.009 118.4-118.4z" />
<glyph unicode="&#xe611;" d="M512.096 864c-44.032-57.808-175.376-101.44-336.096-108.752v-289.104c0-291.712 336-434.144 336-434.144s336 142.432 336 434.16v289.088c-160.688 7.312-291.872 50.976-335.904 108.752v0z" />
<glyph unicode="&#xe612;" d="M864 512h-32c-27.504 0-50.752 24-50.752 52.4 0 14.128 6.032 27.68 17.152 37.744l19.776 19.744c19.12 19.184 19.12 50.32 0 69.44l-46.816 46.816c-9.28 9.28-22 13.904-34.72 13.904s-25.472-4.64-34.752-13.904l-20.288-20.32c-9.536-10.528-23.088-16.592-37.184-16.592-29.232 0.016-68.416 25.104-68.416 50.768v32c0 26.912-21.088 48-48 48h-48c-26.912 0-48-21.088-48-48v-32c0-27.504-24-50.752-52.432-50.752-14.096 0-27.632 6.032-37.728 17.152l-19.744 19.744c-9.28 9.28-22 13.904-34.72 13.904-12.752 0-25.472-4.64-34.72-13.904l-46.848-46.816c-19.12-19.12-19.12-50.256 0-69.44l20.352-20.272c10.688-9.696 16.592-22.912 16.592-37.216 0-28.4-23.248-52.4-50.752-52.4h-32c-26.912 0-48-21.088-48-48v-64c0-26.912 21.088-48 48-48h32c27.504 0 50.752-24 50.752-52.4 0-14.128-6.032-27.696-17.152-37.744l-19.776-19.744c-19.12-19.184-19.12-50.32 0-69.44l46.848-46.816c9.248-9.28 21.968-13.936 34.72-13.936 12.72 0 25.44 4.64 34.72 13.936l20.272 20.32c9.536 10.528 23.088 16.592 37.184 16.592 28.432-0.016 52.432-23.264 52.432-50.768v-32c0-26.912 21.088-48 48-48h64c26.912 0 48 21.088 48 48v32c0 27.504 24 50.752 52.432 50.752 14.096 0 27.632-6.032 37.712-17.152l19.744-19.744c9.28-9.28 22.032-13.936 34.752-13.936 12.72 0 25.44 4.64 34.72 13.936l46.816 46.816c19.12 19.12 19.12 50.256 0 69.44l-20.336 20.272c-10.688 9.68-16.592 22.912-16.592 37.216 0 28.4 23.248 52.4 50.752 52.4h32c26.912 0 48 21.088 48 48v64c0 26.912-21.088 48-48 48zM512 281.6c-83.056 0-150.4 67.344-150.4 150.4s67.344 150.4 150.4 150.4c83.056 0 150.4-67.344 150.4-150.4s-67.344-150.4-150.4-150.4z" />
<glyph unicode="&#xe613;" d="M990.688 724.704c-1.008 4.032-3.008 7.872-6.16 11.040-4.624 4.64-10.72 6.96-16.784 6.96-6.064 0-12.16-2.32-16.784-6.96-3.152-3.152-100.784-100.784-100.784-100.784-7.376-7.408-17.744-10.912-29.808-10.912-25.776 0-59.28 16.048-87.744 44.496-41.744 41.744-56.784 94.384-33.568 117.6 0 0 97.6 97.632 100.752 100.784 9.28 9.28 9.28 24.32 0 33.6-3.152 3.168-7.008 5.152-11.024 6.176-9.44 0.864-18.912 1.296-28.384 1.296-73.568 0-147.216-26.176-196.096-75.056-25.248-25.232-38.72-55.68-45.84-86.112-10.56-68.592 21.408-155.008 90.032-223.6 60.064-60.096 133.936-92.336 197.44-92.336 18 0 34.784 3.248 50.528 8.56 21.216 8.464 41.6 21.76 60.496 40.704 55.168 55.168 81.408 141.968 73.728 224.544zM585.872 520.608c-36.752 36.736-64.72 79.232-82 123.232-9.248-37.52-27.936-78.128-60.288-111.872l0.128-0.16-380.208-380.224c-42-41.984-42-110.080 0-152.080 20.992-21.008 48.528-31.504 76.064-31.504 27.504 0 55.024 10.496 76.032 31.504l380.384 380.080c32.688 31.328 70.096 52.24 106.4 62.080-41.472 17.456-81.792 44.208-116.512 78.944zM143.248 44.736c-17.648 0-32 14.336-32 32 0 17.696 14.352 32 32 32 17.696 0 32-14.304 32-32 0-17.68-14.304-32-32-32z" />
<glyph unicode="&#xe614;" d="M656 512c0-132.548-107.452-240-240-240s-240 107.452-240 240c0 132.548 107.452 240 240 240 132.548 0 240-107.452 240-240zM655.712 325.536c40.16 51.52 64.288 116.128 64.288 186.464 0 167.904-136.128 304-304 304-167.904 0-304-136.096-304-304 0-167.872 136.096-304 304-304 74.432 0 142.56 26.88 195.44 71.312l232.752-231.312 45.248 43.808-233.728 233.728zM416 240c-150.224 0-272 121.776-272 272s121.776 272 272 272c150.224 0 272-121.776 272-272s-121.776-272-272-272z" />
<glyph unicode="&#xe615;" d="M512 832c-220.944 0-400-179.072-400-400s179.056-400 400-400 400 179.072 400 400-179.056 400-400 400zM752 416h-224v-224h-32v224h-224v32h224v224h32v-224h224v-32z" />
<glyph unicode="&#xe616;" d="M512 832c-220.944 0-400-179.072-400-400s179.056-400 400-400 400 179.072 400 400-179.056 400-400 400zM752 416h-480v32h480v-32z" />
<glyph unicode="&#xe617;" d="M704 320c-116.128 0-212.944 82.432-235.184 192h-356.816v-368c0-26.432 21.504-48 48-48h608c26.496 0 48 21.568 48 48v203.808c-33.44-17.68-71.536-27.808-112-27.808zM464 560c0 16.432 1.648 32.496 4.816 48-20.816 0-69.376 0-71.536 0-22.192 0-45.28 64-77.28 64-82.368 0-160 0-160 0-26.496 0-48-21.568-48-48v-80h352.816c-0.352 5.312-0.816 10.592-0.816 16zM704 767.904c-114.88 0-208-93.12-208-208s93.12-208 208-208c114.88 0 208 93.12 208 208 0 114.88-93.12 208-208 208zM816 544h-224v32h224v-32z" />
<glyph unicode="&#xe618;" d="M640 416c-132.56 0-240 107.44-240 240 0 28.096 5.056 54.944 13.936 80h-237.936v-736h544v429.936c-25.056-8.88-51.904-13.936-80-13.936zM640 864c-114.88 0-208-93.12-208-208s93.12-208 208-208c114.88 0 208 93.12 208 208s-93.12 208-208 208zM752 640h-224v32h224v-32z" />
<glyph unicode="&#xe619;" d="M656 416c-62.912 0-120 24.4-162.784 64h-323.872c-5.712-9.44-9.344-20.192-9.344-32v-128c0-11.808 3.632-22.56 9.344-32h557.312c5.712 9.44 9.344 20.192 9.344 32v109.936c-25.056-8.88-51.904-13.936-80-13.936zM169.344 256c-5.712-9.44-9.344-20.192-9.344-32v-128c0-35.344 29.376-64 64-64h448c34.624 0 64 28.656 64 64v128c0 11.808-3.632 22.56-9.344 32h-557.312zM416 656c0 28.096 5.056 54.944 13.936 80h-205.936c-34.624 0-64-28.656-64-64v-128c0-11.808 3.632-22.56 9.344-32h294.976c-30.192 40.128-48.32 89.872-48.32 144zM656 864c-114.88 0-208-93.12-208-208s93.12-208 208-208 208 93.12 208 208-93.12 208-208 208zM768 640h-224v32h224v-32z" />
<glyph unicode="&#xe61a;" d="M560 780.848v131.152h-96v-131.152c-198.224-23.76-352-192.224-352-396.848 0-220.912 179.088-400 400-400 220.912 0 400 179.088 400 400 0 204.624-153.776 373.088-352 396.848zM496 880h32v-320h-32v320zM512 16c-203.248 0-368 164.752-368 368 0 175.744 123.248 322.464 288 359.024v-33.056c-146.72-36.032-256-168.304-256-325.968 0-185.248 150.72-336 336-336 185.28 0 336 150.752 336 336 0 157.664-109.28 289.936-256 325.968v33.056c164.752-36.56 288-183.28 288-359.024 0-203.248-164.752-368-368-368z" />
<glyph unicode="&#xe61b;" d="M752 656h-480c-123.712 0-224-100.288-224-224s100.288-224 224-224h480c123.712 0 224 100.288 224 224s-100.288 224-224 224zM752 240h-224v384h224c109.408 0 192-82.592 192-192s-82.592-192-192-192z" />
<glyph unicode="&#xe61c;" d="M240.752 64h542.496c97.968 79.184 160.752 200.192 160.752 336 0 238.592-193.408 432-432 432s-432-193.408-432-432c0-135.808 62.784-256.816 160.752-336zM512 368c-15.12 0-28.432 7.12-37.248 18.064-0.688 0.752-1.568 1.408-2.192 2.192l-133.216 177.776c-5.44 7.056-4.128 17.184 2.944 22.624 5.872 4.56 14 4.336 19.68 0l177.968-132.992c1.872-1.408 3.008-2.848 4.256-4.256 9.616-8.784 15.808-21.312 15.808-35.408 0-26.528-21.504-48-48-48zM512 800c220.912 0 400-179.088 400-400 0-118.368-51.712-224.368-133.408-297.632l-22.88 22.848 0.384 0.336-47.184 47.216 27.088 27.168 47.216-47.184c58.192 63.616 92.16 145.472 95.904 231.248h-63.12v32h63.184c-3.6 84.192-36.432 165.040-92.656 228.192l-50.528-50.528-27.152 27.152 50.752 50.72c-63.6 58.032-145.568 91.936-231.6 95.648v-63.184h-32v63.184c-85.84-3.616-167.936-37.568-231.6-95.616l50.752-50.752-27.152-27.152-50.528 50.528c-56.16-63.072-88.976-143.824-92.624-228.192h63.152v-32h-63.152c3.696-85.568 37.696-167.536 95.936-231.248l47.216 47.184 27.088-27.152-69.68-70.384c-81.712 73.232-133.408 179.264-133.408 297.6 0 220.912 179.088 400 400 400z" />
<glyph unicode="&#xe61d;" d="M910.992 671.69l-79.851-79.874-159.397 159.352 79.851 79.874 159.397-159.352zM304 320h32v-96h127.376l345.152 345.136-159.408 159.392-408.496-408.528zM336 192h-32v96h-79.904l-113.088-256.992 284.656 125.264 35.712 35.728z" />
<glyph unicode="&#xe61e;" d="M496 425.488l-352 202.832v-416.704l352-202.4zM528 426.032v-416.848l352 202.432v416.72zM706.368 565.456l162.096 93.152-356.432 205.392-161.568-93.072zM318.432 752.464l-162.928-93.872 356-205.136 162.816 93.552z" />
<glyph unicode="&#xe61f;" d="M720 784v64h-32v-64h-64v64h-32v-64h-64v64h-32v-64h-64v64h-32v-64h-64v64h-32v-64h-96v-768h608v768h-96zM592 752h32v-64h-32v64zM496 752h32v-64h-32v64zM400 752h32v-64h-32v64zM304 752h32v-64h-32v64zM624 176h-320v32h320v-32zM720 272h-416v32h416v-32zM720 368h-416v32h416v-32zM720 464h-416v32h416v-32zM720 560h-416v32h416v-32zM720 688h-32v64h32v-64z" />
<glyph unicode="&#xe620;" d="M619.744 880c-36.496-36.464-42.752-94.736-23.376-155.584 13.872-43.424 40.816-88.144 79.808-127.152 39.312-39.28 83.808-66.864 127.504-80.688v0c61.12-19.616 119.68-13.44 156.32 23.152l-340.256 340.272zM540.432 461.504c37.024-37.024 66.064-77.248 87.344-117.856l148.976 148.944c-42.528 16.592-85.12 44-123.184 82.064-37.632 37.616-64.752 79.664-81.376 121.68l-148.224-148.272c40.16-21.216 79.84-49.952 116.464-86.56zM603.84 319.696c-20 41.008-48.848 81.968-86.032 119.168-36.752 36.768-77.872 64.592-118.432 84.576v0c-90.4 44.448-181.28 45.28-233.312-6.4l206.4-206.384-260.864-260.88-47.6-65.776 65.776 47.632 260.848 260.848 206.432-206.416c51.632 52 51.2 143.264 6.784 233.632v0z" />
<glyph unicode="&#xe621;" d="M368 820l-256-96v-674.192l256 96zM624 736l-224 84v-674.192l224-84zM656 736v-674.192l256 96v674.192z" />
<glyph unicode="&#xe622;" d="M400.496 396.32l-108.272-108.32h439.552l-108.272 108.32 18.096 18.080 110.4-110.432v256.064l-240-240.032-240 240.032v-256.064l110.4 110.432zM731.776 576h-439.552l219.776-219.808zM512 832c-220.912 0-400-179.088-400-400s179.088-400 400-400 400 179.088 400 400-179.088 400-400 400zM784 256h-544v352h544v-352z" />
<glyph unicode="&#xe623;" d="M512 502.4c-100.56 0-182.4-81.84-182.4-182.4s81.84-182.4 182.4-182.4 182.4 81.84 182.4 182.4-81.84 182.4-182.4 182.4zM528 306.944v-98.944h-32v98.944c-18.592 6.624-32 24.192-32 45.056 0 26.496 21.504 48 48 48 26.496 0 48-21.504 48-48 0-20.88-13.408-38.432-32-45.056zM720 541.28c0 34.784 0 126.352 0 130.72 0 114.88-93.12 208-208 208s-208-93.12-208-208c0-4.368 0-95.936 0-130.72-58.976-55.44-96-133.952-96-221.28 0-167.904 136.128-304 304-304s304 136.096 304 304c0 87.328-37.024 165.84-96 221.28zM336 672c0 100.752 78.816 176 176 176s176-75.248 176-176c0-13.28 0-81.616 0-104.432-49.696 35.392-110.336 56.432-176 56.432s-126.304-21.040-176-56.432c0 24.208 0 99.904 0 104.432zM512 112c-114.88 0-208 93.12-208 208s93.12 208 208 208 208-93.12 208-208-93.12-208-208-208z" />
<glyph unicode="&#xe624;" d="M898.752 736h-773.504l386.752-386.752zM928 182.624v537.376l-416-416-416 416v-537.376l246.064 246.064 22.624-22.624-246.064-246.064h786.752l-246.064 246.064 22.624 22.624z" />
<glyph unicode="&#xe625;" d="M432 159.024h160v-32h-160v32zM432 95.024h160v-32h-160v32zM464 31.024h96v-32h-96v32zM512 864c-150.224 0-272-121.776-272-272 0-59.872 19.6-115.056 52.368-160h-0.56c20.992-28.944 45.056-53.68 64.528-87.12 42.464-72.88 43.84-137.184 43.968-151.12v-2.72h223.376v2.72c0.128 13.936 1.056 78.256 43.504 151.12 19.504 33.44 43.536 58.192 64.56 87.12h-0.128c32.784 44.944 52.384 100.128 52.384 160 0 150.224-121.776 272-272 272v0z" />
<glyph unicode="&#xe626;" d="M512 848c-220.944 0-400-179.072-400-400s179.056-400 400-400c220.944 0 400 179.072 400 400s-179.056 400-400 400zM560 240c0-26.512-21.504-48-48-48s-48 21.488-48 48v288c0 26.512 21.504 48 48 48s48-21.488 48-48v-288zM512 608c-26.496 0-48 21.488-48 48s21.504 48 48 48c26.496 0 48-21.488 48-48s-21.504-48-48-48z" />
<glyph unicode="&#xe627;" d="M959.152 590.4c-86.432 87.472-226.56 87.472-313.024 0l-290.624-294.144c-73.968-74.88-194.336-74.88-268.32 0-73.968 74.848-73.968 196.656 0 271.536 73.968 74.848 194.336 74.848 268.32 0l111.664-113.024 22.368 22.624-111.664 113.008c-86.464 87.472-226.592 87.472-313.040 0-86.464-87.504-86.464-229.312 0-316.784 86.432-87.504 226.56-87.504 313.040 0l290.624 294.16c73.968 74.848 194.336 74.848 268.32 0 73.968-74.88 73.968-196.688 0-271.536-73.968-74.88-194.336-74.88-268.32 0l-111.904 113.248-22.368-22.624 111.904-113.248c86.464-87.504 226.592-87.504 313.024 0 86.48 87.472 86.48 229.296 0 316.784z" />
<glyph unicode="&#xe628;" d="M496 864h32v-256h-32v256zM528 608v-226.752l97.216 97.152 22.56-22.624-135.744-135.776-135.776 135.776 22.592 22.624 97.152-97.152v226.752h-288v-608h608v608z" />
<glyph unicode="&#xe629;" d="M698.256 800c-53.616 0-127.808-15.872-185.184-88.944-58.944 73.072-133.504 88.944-187.264 88.944h-3.056c-67.12-0.752-122.32-24.432-159.744-68.56-43.376-51.12-59.872-125.312-46.432-208.96 26.368-163.904 372-438.944 386.688-450.56l9.984-7.92 10 7.936c14.624 11.632 358.064 286.848 384.256 450.56 13.376 83.728-3.184 157.968-46.56 209.056-37.44 44.032-92.624 67.68-159.632 68.432h-3.056v0.016z" />
<glyph unicode="&#xe62a;" d="M512 816c-211.744 0-384-172.256-384-384s172.256-384 384-384c211.744 0 384 172.256 384 384s-172.256 384-384 384zM368 560c26.496 0 48-21.504 48-48s-21.504-48-48-48c-26.496 0-48 21.504-48 48 0 26.496 21.504 48 48 48zM512 176c-77.248 0-146.352 36.464-192 93.536l22.16 22.816c39.904-51.36 101.152-84.352 169.84-84.352s129.936 32.992 169.84 84.336l22.16-22.8c-45.664-57.072-114.752-93.536-192-93.536zM656 464c-26.496 0-48 21.504-48 48s21.504 48 48 48c26.496 0 48-21.504 48-48 0-26.496-21.504-48-48-48z" />
<glyph unicode="&#xe62b;" d="M912 832l-800-352h432v-448l368 800z" />
<glyph unicode="&#xe62c;" d="M512 832c-220.912 0-400-179.088-400-400s179.088-400 400-400c220.912 0 400 179.088 400 400s-179.088 400-400 400zM435.248 160c-88.56 0-163.248 35.84-163.248 93.056 0 58.192 68.128 114.256 156.752 114.256 9.616 0 18.432 0.256 27.6 0.256-12.128 11.776-21.68 26.128-21.68 43.808 0 10.496 3.344 20.656 8.064 29.632-4.784-0.32-9.712-0.432-14.72-0.432-72.784 0-121.504 51.504-121.504 115.216 0 62.336 67.248 116.224 138.784 116.224h159.472l-35.664-25.664h-50.592c33.536-12.784 51.44-51.712 51.44-91.6 0-33.504-18.688-62.32-45.088-82.816-25.68-19.936-30.592-28.336-30.592-45.344 0-14.464 27.568-39.152 41.968-49.28 42.192-29.664 55.808-57.152 55.808-103.088-0.016-57.28-55.824-114.224-156.8-114.224zM720 544v-96h-32v96h-96v32h96v96h32v-96h96v-32h-96zM425.376 649.568c-41.12 1.184-68.656-39.808-61.616-93.504 7.152-53.632 46.224-98.128 87.312-99.376 41.040-1.152 68.624 41.344 61.568 94.944-7.136 53.68-46.208 96.704-87.264 97.936zM445.6 352.56c-61.216 0.656-116.064-37.056-116.064-82.432 0-46.288 44.224-84.816 105.408-84.816 86.064 0 116.064 36.192 116.064 82.464 0 5.6-0.656 11.024-1.936 16.336-6.752 26.192-30.56 39.152-63.808 62.128-12.080 3.92-25.36 6.16-39.664 6.32z" />
<glyph unicode="&#xe62d;" d="M912 592v47.968c0 26.528-21.504 48.032-48 48.032 0 0-420.816 0-432 0-22.192 0-45.28 64-77.28 64-82.384 0-194.72 0-194.72 0-26.496 0-48-21.568-48-48v-112h800zM112 560v-400c0-26.432 21.504-48 48-48h704c26.496 0 48 21.568 48 48v400h-800z" />
<glyph unicode="&#xe62e;" d="M656 768c-76.688 0-208 64-304 64s-160-27.344-160-27.344v-772.656h32v354.192c0 0 48 29.808 128 29.808s211.312-64 304-64c115.312 0 176 32 176 32v448c0 0-84.88-64-176-64z" />
<glyph unicode="&#xe62f;" d="M907.376 848h-790.752l315.376-315.376v-324.624l160-160v484.624l315.376 315.376z" />
<glyph unicode="&#xe630;" d="M272 156.32h-73.472l-22.528 67.68-22.528-67.68h-73.472l59.536-42.32-22.848-66 59.312 40.944 59.312-40.944-22.816 66 59.504 42.32zM272 444.32h-73.472l-22.528 67.68-22.528-67.68h-73.472l59.536-42.32-22.848-66 59.312 40.944 59.312-40.944-22.816 66 59.504 42.32zM272 732.304h-73.472l-22.528 67.696-22.528-67.696h-73.472l59.536-42.304-22.848-66 59.312 40.944 59.312-40.944-22.816 66 59.504 42.304zM336 720h608v-32h-608v32zM336 432h608v-32h-608v32zM336 144h608v-32h-608v32z" />
<glyph unicode="&#xe631;" d="M512 832c-220.912 0-400-179.088-400-400s179.088-400 400-400c220.912 0 400 179.088 400 400s-179.088 400-400 400zM656 613.408h-55.904c-22.128 0-40.096-17.904-40.096-39.968v-29.44h96v-97.68h-96v-286.32h-128v286.32h-64v97.68h64v53.248c0 58.944 47.936 106.752 107.024 106.752h116.976v-90.592z" />
<glyph unicode="&#xe632;" d="M528 801.152l97.184-97.152 22.592 22.624-135.776 137.376-135.744-137.376 22.56-22.624 97.184 97.152v-193.152h32zM528 608v-288h-32v288h-288v-608h608v608z" />
<glyph unicode="&#xe633;" d="M512 848c-220.912 0-400-179.088-400-400s179.088-400 400-400c220.912 0 400 179.088 400 400s-179.088 400-400 400zM528 528v-32h-221.632c-1.408-10.496-2.368-21.12-2.368-32s0.96-21.504 2.368-32h221.632v-32h-215.248c25.648-92.4 105.216-160 199.248-160 60.128 0 115.248 26.688 153.28 70.72l22.72-22.72c-43.776-49.808-106.944-80-176-80-111.808 0-205.44 81.664-232.128 192h-39.872v32h34.064c-1.216 10.496-2.064 21.12-2.064 32s0.848 21.504 2.064 32h-34.064v32h39.872c26.688 110.336 120.32 192 232.128 192 69.056 0 132.224-30.192 176-80l-22.72-22.72c-38.032 44.032-93.152 70.72-153.28 70.72-94.032 0-173.6-67.6-199.248-160h215.248z" />
<glyph unicode="&#xe634;" d="M870.848 768.528l-22.224 22.304c-12.288 12.224-32.128 12.224-44.4 0l-404.224-407.088v-63.744h64l406.848 404.256c12.208 12.24 12.208 32.048 0 44.272zM400 320h64l288 286.16v65.84h-65.776l-286.224-288.256zM486.56 297.296l-9.376-9.296h-109.184v108.944l9.28 9.36 263.84 265.696h-497.12v-608h608v497.040z" />
<glyph unicode="&#xe635;" d="M848 832c-61.872 0-112-50.128-112-112 0-36.624 17.84-68.88 45.024-89.28l-125.84-251.664c-9.936 2.88-20.272 4.944-31.184 4.944-23.504 0-45.216-7.28-63.216-19.632l-78.432 88.256c18.24 19.904 29.648 46.224 29.648 75.376 0 61.872-50.128 112-112 112-61.872 0-112-50.128-112-112 0-35.84 17.152-67.408 43.344-87.904l-108.464-162.688c-14.288 6.656-30.064 10.592-46.88 10.592-61.872 0-112-50.128-112-112s50.128-112 112-112c61.872 0 112 50.128 112 112 0 35.84-17.152 67.408-43.344 87.904l108.464 162.688c14.288-6.656 30.064-10.592 46.88-10.592 23.504 0 45.216 7.28 63.216 19.632l78.432-88.256c-18.24-19.904-29.648-46.224-29.648-75.376 0-61.872 50.128-112 112-112 61.872 0 112 50.128 112 112 0 41.808-23.184 77.84-57.12 97.056l124.192 248.432c13.776-6.016 28.928-9.488 44.928-9.488 61.872 0 112 50.128 112 112s-50.128 112-112 112z" />
<glyph unicode="&#xe636;" d="M800 304c-15.376 0-30-3.12-43.312-8.72l-182.688 315.504c30.128 20.096 50 54.272 50 93.216 0 61.872-50.128 112-112 112-61.872 0-112-50.128-112-112 0-38.944 19.872-73.12 50-93.216v0.032l-182.688-315.536c-13.312 5.6-27.936 8.72-43.312 8.72-61.872 0-112-50.128-112-112s50.128-112 112-112c57.472 0 104.288 43.44 110.72 99.184h354.56c6.432-55.744 53.248-99.184 110.72-99.184 61.872 0 112 50.128 112 112s-50.128 112-112 112zM289.504 282.496l183.44 316.88c12.208-4.56 25.248-7.376 39.056-7.376s26.848 2.816 39.056 7.376l183.44-316.88c-24.752-17.936-41.536-45.744-45.216-77.68h-354.56c-3.696 31.936-20.464 59.744-45.216 77.68v0z" />
<glyph unicode="&#xe637;" d="M816 270.368v193.632h-288v161.632c54.192 7.808 96 54 96 110.368 0 61.84-50.16 112-112 112-61.84 0-112-50.16-112-112 0-56.368 41.808-102.56 96-110.368v-161.632h-288v-193.632c-54.192-7.808-96-54-96-110.368 0-61.84 50.16-112 112-112 61.84 0 112 50.16 112 112 0 56.368-41.808 102.56-96 110.368v161.632h544v-161.632c-54.192-7.808-96-54-96-110.368 0-61.84 50.16-112 112-112 61.84 0 112 50.16 112 112 0 56.368-41.808 102.56-96 110.368z" />
<glyph unicode="&#xe638;" d="M800 848c-56.368 0-102.56-41.808-110.368-96h-193.632v-193.632c-54.224-7.808-96-54-96-110.368s41.776-102.56 96-110.368v-161.632h-161.632c-7.808 54.192-54 96-110.368 96-61.84 0-112-50.16-112-112s50.16-112 112-112c56.368 0 102.56 41.808 110.368 96h193.632v193.632c54.224 7.808 96 54 96 110.368s-41.776 102.56-96 110.368v161.632h161.632c7.808-54.192 54-96 110.368-96 61.84 0 112 50.16 112 112s-50.16 112-112 112z" />
<glyph unicode="&#xe639;" d="M912 656c0 61.84-50.16 112-112 112-56.368 0-102.56-41.808-110.368-96h-193.632v-416h-161.632c-7.808 54.192-54 96-110.368 96-61.84 0-112-50.16-112-112s50.16-112 112-112c56.368 0 102.56 41.808 110.368 96h193.632v416h161.632c7.808-54.192 54-96 110.368-96 61.84 0 112 50.16 112 112z" />
<glyph unicode="&#xe63a;" d="M224 256c-61.84 0-112-50.144-112-112s50.16-112 112-112c61.84 0 112 50.144 112 112s-50.16 112-112 112v0zM512 256c-61.84 0-112-50.144-112-112s50.16-112 112-112c61.84 0 112 50.144 112 112s-50.16 112-112 112v0zM800 256c-61.84 0-112-50.144-112-112s50.16-112 112-112c61.84 0 112 50.144 112 112s-50.16 112-112 112v0zM224 544c-61.84 0-112-50.144-112-112s50.16-112 112-112c61.84 0 112 50.144 112 112s-50.16 112-112 112v0zM512 544c-61.84 0-112-50.144-112-112s50.16-112 112-112c61.84 0 112 50.144 112 112s-50.16 112-112 112v0zM800 544c-61.84 0-112-50.144-112-112s50.16-112 112-112c61.84 0 112 50.144 112 112s-50.16 112-112 112v0zM224 832c-61.84 0-112-50.144-112-112s50.16-112 112-112c61.84 0 112 50.144 112 112s-50.16 112-112 112v0zM512 832c-61.84 0-112-50.144-112-112s50.16-112 112-112c61.84 0 112 50.144 112 112s-50.16 112-112 112v0zM800 832c-61.84 0-112-50.144-112-112s50.16-112 112-112c61.84 0 112 50.144 112 112s-50.16 112-112 112v0z" />
<glyph unicode="&#xe63b;" d="M272 432c0-44.183-35.817-80-80-80s-80 35.817-80 80c0 44.183 35.817 80 80 80 44.183 0 80-35.817 80-80zM592 432c0-44.183-35.817-80-80-80s-80 35.817-80 80c0 44.183 35.817 80 80 80 44.183 0 80-35.817 80-80zM912 432c0-44.183-35.817-80-80-80s-80 35.817-80 80c0 44.183 35.817 80 80 80 44.183 0 80-35.817 80-80z" />
<glyph unicode="&#xe63c;" d="M400 560c0-48.256 41.872-87.872 96-94.624v189.248c-54.128-6.752-96-46.368-96-94.624zM528 241.376c54.128 6.752 96 46.384 96 94.624s-41.872 87.872-96 94.624v-189.248zM512 848c-220.912 0-400-179.088-400-400s179.088-400 400-400c220.912 0 400 179.088 400 400s-179.088 400-400 400zM656 336c0-65.808-56.096-119.408-128-126.56v-65.44h-32v65.44c-71.904 7.152-128 60.752-128 126.56h32c0-48.256 41.872-87.872 96-94.624v192.064c-71.904 7.152-128 60.752-128 126.56s56.096 119.408 128 126.56v65.44h32v-65.44c71.904-7.152 128-60.752 128-126.56h-32c0 48.256-41.872 87.872-96 94.624v-192.064c71.904-7.152 128-60.752 128-126.56z" />
<glyph unicode="&#xe63d;" d="M624 608h-32v224h-384v-800h608v576h-192zM304 640h192v-32h-192v32zM624 224h-320v32h320v-32zM720 320h-416v32h416v-32zM720 416h-416v32h416v-32zM720 512h-416v32h416v-32zM624 832v-192h192z" />
<glyph unicode="&#xe63e;" d="M848 704l-160 160v-160zM688 672h-32v192h-320v-128h205.248l178.752-178.752v-397.248h128v512zM688 544l-160 160v-160zM528 512h-32v192h-320v-704h512v512z" />
<glyph unicode="&#xe63f;" d="M624 608h-32v224h-384v-800h608v576zM816 640l-192 192v-192z" />
<glyph unicode="&#xe640;" d="M822.656 592c5.712 9.44 9.344 20.192 9.344 32v160c0 35.344-29.376 64-64 64h-512c-34.624 0-64-28.656-64-64v-160c0-11.808 3.632-22.56 9.344-32h621.312zM201.344 560c-5.712-9.44-9.344-20.192-9.344-32v-160c0-11.808 3.632-22.56 9.344-32h621.312c5.712 9.44 9.344 20.192 9.344 32v160c0 11.808-3.632 22.56-9.344 32h-621.312zM201.344 304c-5.712-9.44-9.344-20.192-9.344-32v-160c0-35.344 29.376-64 64-64h512c34.624 0 64 28.656 64 64v160c0 11.808-3.632 22.56-9.344 32h-621.312z" />
<glyph unicode="&#xe641;" d="M535.904 382.032l-73.872 73.872-92.352-166.224zM512 832c-220.912 0-400-179.088-400-400s179.088-400 400-400 400 179.088 400 400-179.088 400-400 400zM576 368l-288-160 160 288 288 160-160-288z" />
<glyph unicode="&#xe642;" d="M336 752h608v-32h-608v32zM336 464h608v-32h-608v32zM336 176h608v-32h-608v32zM160 816c-44.128 0-80-35.872-80-80 0-44.224 35.872-80 80-80s80 35.776 80 80c0 44.128-35.872 80-80 80v0zM160 528c-44.128 0-80-35.872-80-80 0-44.224 35.872-80 80-80s80 35.776 80 80c0 44.128-35.872 80-80 80v0zM160 240c-44.128 0-80-35.872-80-80 0-44.224 35.872-80 80-80s80 35.776 80 80c0 44.128-35.872 80-80 80v0z" />
<glyph unicode="&#xe643;" d="M250.496 465.008l-21.184-21.344 203.632-203.664 497.808 497.808-21.6 21.040-476.208-476.256zM432.944 194.752l-248.784 248.816 66.24 66.784 182.544-182.512 319.056 319.104v137.056h-672v-672h672v401.792z" />
<glyph unicode="&#xe644;" d="M911.808 483.376c0.032 5.664 0.064 9.872 0.096 12.624h0.096c-8.192 190.432-161.568 343.008-352 351.184v0.128c-5.344 0.192-10.592 0.688-16 0.688h-16v-384h383.744l0.064 12c0.032 1.344 0.192 2.656 0.192 4 0 1.152-0.16 2.256-0.192 3.376zM496 432v352h-16c-202.944 0-368-165.056-368-368s165.056-368 368-368c202.944 0 368 165.056 368 368v16h-352z" />
<glyph unicode="&#xe645;" d="M112 784v-672h800v672h-800zM816 272h-128v32h73.376l-105.376 105.376-80-80-176 176-48-48-155.312 155.312 22.624 22.624 132.688-132.688 48 48 176-176 80 80 128-128v73.376h32v-128z" />
<glyph unicode="&#xe646;" d="M112 784v-672h800v672h-800zM816 496h-32v73.376l-128-128-80 80-176-176-48 48-132.688-132.688-22.624 22.624 155.312 155.312 48-48 176 176 80-80 105.376 105.376h-73.376v32h128v-128z" />
<glyph unicode="&#xe647;" d="M240 400h64v-160h-64v160zM400 528h64v-288h-64v288zM560 464h64v-224h-64v224zM112 784v-672h800v672h-800zM336 208h-128v224h128v-224zM496 208h-128v352h128v-352zM656 208h-128v288h128v-288zM816 208h-128v480h128v-480zM720 656h64v-416h-64v416z" />
<glyph unicode="&#xe648;" d="M912 432c0 103.776-83.6 191.936-200.4 225.376 7.008-10.432 12.784-21.472 17.968-32.72 92.736-34.784 156.832-107.872 156.832-192.656 0-64.72-32.816-119.472-91.664-158.784l19.248-79.216-70.064 51.12c-41.616-19.056-83.984-27.52-135.92-27.52-60.368 0-116.128 14.976-161.744 40.128-10-0.816-19.968-1.728-30.256-1.728-5.056 0-10 0.432-15.056 0.624 54.304-40 126.96-64.624 207.056-64.624 47.344 0 92 8.816 131.936 24.032l108.064-72.032-23.872 119.312c54.304 43.376 87.872 102.912 87.872 168.688zM416 768c-167.872 0-304-107.44-304-240 0-65.776 33.568-125.312 87.872-168.688l-23.872-119.312 108.064 72.032c39.936-15.216 84.592-24.032 131.936-24.032 167.872 0 304 107.44 304 240s-136.128 240-304 240v0zM912 432c0 103.808-83.696 192-200.56 225.44 25.872-38.496 40.56-82.624 40.56-129.44 0-150-150.72-272-336-272-5.040 0-10 0.4-15.008 0.592 54.288-39.968 126.944-64.592 207.008-64.592 47.344 0 92 8.816 131.936 24.032l108.064-72.032-23.872 119.312c54.304 43.376 87.872 102.912 87.872 168.688z" />
<glyph unicode="&#xe649;" d="M848 800h-672c-35.344 0-64-28.656-64-64v-416c0-35.344 28.656-64 64-64h144v-160l160 160h368c35.344 0 64 28.656 64 64v416c0 35.344-28.656 64-64 64v0z" />
<glyph unicode="&#xe64a;" d="M800 736h-411.872c-93.824 0-172.912-73.6-180.128-168.752v-239.68c1.152-15.568 3.68-29.28 7.504-41.632-20.752-39.872-60.992-69.696-106.496-78.432l-54.496-10.464 51.68-20.16c27.936-10.88 60.24-16.88 90.928-16.88 35.872 0 70.496 7.68 103.056 22.88 24.16-13.44 50.88-21.376 78.288-22.88h421.536c93.024 0 168.688 72.032 176 168.784v239.648c-7.248 95.536-82.976 167.568-176 167.568z" />
<glyph unicode="&#xe64b;" d="M896 464v231.44l-143.376 184.56h-481.248l-143.376-184.56v-231.44h768zM288 848h448l123.744-160h-246.96c0.848-5.248 1.632-10.528 1.632-16 0-56.56-45.84-102.4-102.4-102.4s-102.4 45.84-102.4 102.4c0 5.472 0.784 10.752 1.632 16h-246.992l123.744 160zM896 240v192h-283.312c-7.808-48.752-49.68-86.4-100.688-86.4s-92.88 37.648-100.688 86.4h-283.312v-192h768zM612.688 208c-7.808-48.752-49.68-86.4-100.688-86.4s-92.88 37.648-100.688 86.4h-283.312v-224h768v224h-283.312z" />
<glyph unicode="&#xe64c;" d="M928 352v295.44l-141.008 184.56h-550l-140.992-184.56v-295.44h832zM253.632 800h516.752l123.744-160h-281.344c0.848-5.248 1.632-10.528 1.632-16 0-56.56-45.84-102.4-102.4-102.4-56.56 0-102.4 45.84-102.4 102.4 0 5.472 0.784 10.752 1.632 16h-281.376l123.76 160zM612.752 320c-7.904-48.752-49.808-86.4-100.752-86.4s-92.848 37.648-100.752 86.4h-315.248v-288h832v288h-315.248z" />
<glyph unicode="&#xe64d;" d="M786.992 704h-550l-140.992-184.56v-359.44h832v359.44l-141.008 184.56zM253.632 672h516.752l123.744-160h-281.344c0.848-5.248 1.632-10.528 1.632-16 0-56.56-45.84-102.4-102.4-102.4-56.56 0-102.4 45.84-102.4 102.4 0 5.472 0.784 10.752 1.632 16h-281.376l123.76 160z" />
<glyph unicode="&#xe64e;" d="M496 759.36c-17.008 15.264-39.376 24.64-64 24.64h-256c-35.344 0-64-28.656-64-64v-512c0-35.344 28.656-63.68 64-63.68h256c35.28 0 64-28.992 64-64.32v679.36zM848 784h-256c-24.624 0-47.008-9.376-64-24.64v-679.36c0 35.312 28.72 64 64 64h256c35.344 0 64 28.656 64 64v512c0 35.344-28.656 64-64 64z" />
<glyph unicode="&#xe64f;" d="M720 816v32h-160v-32h-352v-800h608v800h-96zM688 816v-370.752l-48 48-48-48v370.752h96z" />
<glyph unicode="&#xe650;" d="M794.4 492.96l-398.336-392.032c-59.008-58.064-154.976-58.064-214 0-59.008 58.064-59.008 152.528 0 210.56h0.032l500.816 492.816c46.432 45.728 122.032 45.728 168.432 0 46.432-45.68 46.432-120.064 0-165.744h-0.032l-386.944-380.816c-33.904-33.344-89.024-33.376-122.96 0-33.872 33.344-33.872 87.616 0 120.96l0.032-0.032 284.56 280-18.256 17.936-284.528-280c-44-43.28-44.032-113.472 0-156.784 44-43.344 115.344-43.312 159.344 0l386.992 380.784c56.592 55.68 56.592 145.936 0 201.616-56.56 55.648-148.32 55.648-204.912 0l-500.768-492.784c-69.184-68.064-69.152-178.368 0-246.4 69.12-68.032 181.248-68.032 250.4 0l398.368 392-18.24 17.92z" />
<glyph unicode="&#xe651;" d="M349.904 729.376l297.376-297.376-297.376-297.376 18.096-18.096 315.472 315.472-315.472 315.472z" />
<glyph unicode="&#xe652;" d="M674.096 729.376l-297.376-297.376 297.376-297.376-18.096-18.096-315.472 315.472 315.472 315.472z" />
<glyph unicode="&#xe653;" d="M528 569.568l-0.064 166.432-399.968-272 400.032-272v166.384c153.12-0.16 263.68-15.984 383.904-230.384 0 136.336 15.008 441.056-383.904 441.568z" />
<glyph unicode="&#xe654;" d="M872.256 480l-135.744-135.744 18.096-18.128 104.816 104.848c-0.576-197.168-161.088-357.376-358.368-357.376-157.312 0-290.976 102.032-339.056 243.248l-24.72-7.072c51.088-152.096 194.496-261.776 363.776-261.776 211.744 0 383.44 171.408 383.936 383.024l104.912-104.912 18.096 18.144-135.744 135.744zM269.408 537.872l-104.816-104.848c0.56 197.168 161.072 357.376 358.352 357.376 157.312 0 290.96-102.032 339.056-243.248l24.72 7.056c-51.088 152.096-194.496 261.792-363.776 261.792-211.76 0-383.44-171.408-383.936-383.024l-104.912 104.912-18.096-18.144 135.744-135.744 135.744 135.744-18.080 18.128z" />
<glyph unicode="&#xe655;" d="M576 816c-211.744 0-383.44-171.408-383.936-383.024l-104.912 104.912-18.096-18.128 135.76-135.76 135.744 135.744-18.096 18.128-104.816-104.848c0.576 197.168 161.072 357.376 358.352 357.376 197.632 0 358.4-160.784 358.4-358.4s-160.768-358.4-358.4-358.4c-157.312 0-290.96 102.032-339.056 243.248l-24.72-7.056c51.088-152.112 194.496-261.792 363.776-261.792 212.064 0 384 171.936 384 384s-171.936 384-384 384z" />
<glyph unicode="&#xe656;" d="M432 48h480v32h-480c-162.336 0-288 125.68-288 288s125.664 288 288 288h427.808l-101.68-101.68 18.128-18.064 135.744 135.744-135.744 135.744-18.128-18.064 101.68-101.68h-427.808c-176.752 0-320-143.248-320-320s143.248-320 320-320z" />
<glyph unicode="&#xe657;" d="M592 816h-480v-32h480c162.336 0 288-125.68 288-288s-125.664-288-288-288h-427.808l101.696 101.68-18.128 18.064-135.76-135.744 135.744-135.744 18.128 18.064-101.68 101.68h427.808c176.752 0 320 143.248 320 320s-143.248 320-320 320z" />
<glyph unicode="&#xe658;" d="M901.68 313.872l-101.68-101.68v139.808c0 194.4-157.6 352-352 352s-352-157.6-352-352v-192h32v192c0 180 140 320 320 320s320-140 320-320v-139.808l-101.68 101.68-18.064-18.128 135.744-135.744 135.744 135.744-18.064 18.128z" />
<glyph unicode="&#xe659;" d="M122.304 313.872l101.696-101.68v139.808c0 194.4 157.6 352 352 352s352-157.6 352-352v-192h-32v192c0 180-140 320-320 320s-320-140-320-320v-139.808l101.68 101.68 18.064-18.128-135.744-135.744-135.744 135.744 18.048 18.128z" />
<glyph unicode="&#xe65a;" d="M800 752l-23.216-23.184 71.504-72.816h-130.032c-106.368 0-171.44-134.128-234.368-213.808-60.768-77.008-118.208-202.192-208.704-202.192h-163.184v-32h161.312c106.432 0 166.992 134.128 229.936 213.808 60.752 77.008 117.808 202.192 208.384 202.192h136.368l-71.184-72.816 23.184-23.184 112 112-112 112zM776.816 312.816l71.184-72.816h-136.368c-76.688 0-129.312 90.688-180.624 164.256-0.656-0.912-16-23.744-16-23.744 53.616-76.256 114.928-172.512 202.992-172.512h130l-71.216-72.816 23.216-23.184 112 112-112 112-23.184-23.184zM456.064 459.744c0.688 0.912 16.944 23.744 16.944 23.744-53.696 76.256-116.192 172.512-204.192 172.512h-156.816v-32h163.184c76.688 0 129.568-90.688 180.88-164.256z" />
<glyph unicode="&#xe65b;" d="M326.624 393.376l-22.624 22.624-176-176 176-176 22.624 22.624-136.496 137.376h705.872v32h-705.872zM696.96 471.040l22.624-22.624 176.416 175.584-176.416 175.584-22.624-22.624 136.912-136.96h-705.872v-32h705.872z" />
<glyph unicode="&#xe65c;" d="M256 336h137.376l-265.376-265.376 22.624-22.624 265.376 265.376v-137.376h32v192h-192zM768 336v32h-192v-192h32v137.376l265.36-265.392 22.624 22.624-265.36 265.392zM768 528h-137.376l265.376 265.376-22.656 22.624-265.344-265.376v137.376h-32v-192h192zM416 550.624l-265.376 265.376-22.624-22.624 265.376-265.376h-137.376v-32h192v192h-32z" />
<glyph unicode="&#xe65d;" d="M352 784v32h-224v-224h32v169.376l250.192-250.192 22.624 22.624-250.192 250.192zM410.192 352.816l-250.192-250.192v169.376h-32v-224h224v32h-169.376l250.192 250.192zM864 102.624l-242.192 242.192-22.624-22.656 242.192-242.16h-169.376v-32h224v224h-32zM672 816v-32h169.376l-250.192-250.192 22.624-22.624 250.192 250.192v-169.376h32v224z" />
<glyph unicode="&#xe65e;" d="M704 320c-116.128 0-212.944 82.432-235.184 192h-356.816v-368c0-26.432 21.504-48 48-48h608c26.496 0 48 21.568 48 48v203.808c-33.44-17.68-71.536-27.808-112-27.808zM464 560c0 16.432 1.648 32.496 4.816 48-20.816 0-69.376 0-71.536 0-22.192 0-45.28 64-77.28 64-82.368 0-160 0-160 0-26.496 0-48-21.568-48-48v-80h352.816c-0.352 5.312-0.816 10.592-0.816 16zM704 767.904c-114.88 0-208-93.12-208-208s93.12-208 208-208c114.88 0 208 93.12 208 208 0 114.88-93.12 208-208 208zM816 544h-96v-96h-32v96h-96v32l96-0.096v96.096h32v-96h96v-32z" />
<glyph unicode="&#xe65f;" d="M640 416c-132.56 0-240 107.44-240 240 0 28.096 5.056 54.944 13.936 80h-237.936v-736h544v429.936c-25.056-8.88-51.904-13.936-80-13.936zM640 864c-114.88 0-208-93.12-208-208s93.12-208 208-208c114.88 0 208 93.12 208 208s-93.12 208-208 208zM752 640h-96v-96.064h-32v96.064h-96v32h96v96h32v-96h96v-32z" />
<glyph unicode="&#xe660;" d="M656 416c-62.912 0-120 24.4-162.784 64h-323.872c-5.712-9.44-9.344-20.192-9.344-32v-128c0-11.808 3.632-22.56 9.344-32h557.312c5.712 9.44 9.344 20.192 9.344 32v109.936c-25.056-8.88-51.904-13.936-80-13.936zM169.344 256c-5.712-9.44-9.344-20.192-9.344-32v-128c0-35.344 29.376-64 64-64h448c34.624 0 64 28.656 64 64v128c0 11.808-3.632 22.56-9.344 32h-557.312zM416 656c0 28.096 5.056 54.944 13.936 80h-205.936c-34.624 0-64-28.656-64-64v-128c0-11.808 3.632-22.56 9.344-32h294.976c-30.192 40.128-48.32 89.872-48.32 144zM656 864c-114.88 0-208-93.12-208-208s93.12-208 208-208 208 93.12 208 208-93.12 208-208 208zM768 640h-96v-96h-32v96h-96v32h96v96h32v-96h96v-32z" />
</font>
</defs>
</svg>
