<?xml version="1.0" encoding="utf-8"?>
<!-- (c) ammap.com | SVG map of Albania - High -->
<svg xmlns="http://www.w3.org/2000/svg" xmlns:amcharts="http://amcharts.com/ammap" xmlns:xlink="http://www.w3.org/1999/xlink" version="1.1">
	<defs>
		<style type="text/css">
			.land
			{
				fill: #CCCCCC;
				fill-opacity: 1;
				stroke:white;
				stroke-opacity: 1;
				stroke-width:0.5;
			}
		</style>

		<amcharts:ammap projection="mercator" leftLongitude="19.264243" topLatitude="42.660316" rightLongitude="21.057021" bottomLatitude="39.645057"></amcharts:ammap>

		<!-- All areas are listed in the line below. You can use this list in your script. -->
		<!--{id:"AL-01"},{id:"AL-09"},{id:"AL-02"},{id:"AL-03"},{id:"AL-04"},{id:"AL-05"},{id:"AL-06"},{id:"AL-07"},{id:"AL-08"},{id:"AL-10"},{id:"AL-11"},{id:"AL-12"}-->

	</defs>
	<g>
		<path id="AL-01" title="Berat" class="land" d="M110.05,476.91L110.72,477.43L110.36,480.17L111.91,480.7L111.91,480.7L114.51,479.81L115.98,480.59L115.98,480.59L115.8,481.64L112.98,481.69L112.39,482.89L115.11,484.3L114.87,487.65L115.66,488.77L116.46,486.45L118.01,486.29L120.71,479.55L123.66,478.19L128.59,478.24L135.45,474.08L143.93,474.58L146.39,471.86L150.94,471.21L152.45,480.25L152.19,486.6L153,490L154.53,489.56L158.34,486.21L159.19,487.02L158.62,489.43L160.6,491.44L161.64,491.72L164.75,490.81L165.59,494.75L169.66,500.06L171,504.73L175.67,508.36L175.43,511.64L181.33,512.43L186.75,510.18L188.95,511.88L192.18,515.79L193.49,516.39L200.62,515.51L206.56,514.04L206.56,514.04L209.79,518.43L211.54,524.37L214.26,527.92L217.12,536.13L219.52,539.02L221.66,539.7L221.6,543.86L222.83,546.62L225.41,548.55L229.96,547.77L235.5,548.97L235.73,550.45L234.82,553.84L231.49,559.25L230.93,561.46L234.03,566.27L234.86,574.33L236.63,580.81L237.04,586L237.04,586L233.43,586.32L230.91,587.46L228.11,587.72L225.49,586.65L223.11,586.5L221.52,588.21L220.73,591.43L221.15,593.93L222.87,597.41L222.38,599.38L220.05,599.72L217.19,598.37L211.16,598.7L208.1,599.87L206.24,601.48L208.1,603.01L208.26,604.52L201.73,608.88L199.49,605.17L191.99,597.35L190.5,592.84L187.2,591.98L183.61,592.21L183.27,587.41L178.9,580.26L174.36,575.32L169.73,573.61L167.69,571.42L165.86,570.98L162.79,572.23L161.58,577.48L159.29,574.73L158.12,572.31L157.25,571.97L155.8,572.07L153.38,573.48L148.61,571.97L145.76,571.94L140.38,574.44L128.15,570.59L128.15,570.59L128.37,566.9L127.61,564.27L124.56,560.13L121.92,560.55L121.34,560.16L121.3,558.36L119.69,557.38L118.6,555.71L117.41,549.75L112.92,542.98L111.48,542.85L111.69,541.42L115.33,536.99L113.9,527.87L111.24,525.42L109.71,521.22L104.75,515.74L103.85,512.95L104.01,509.4L102.09,503.19L97.92,496.27L98.02,489.77L98.75,490.6L99.61,490.65L101.33,488.9L99.67,487.47L99.94,486.52L101.91,484.9L100.36,484.41L99.96,483.68L100.34,482.71L101.67,482.24L101.45,480.31L104.01,480.59L105.1,479.65L106.24,481.79L106.89,481.82L109.19,477.46z"/>
		<path id="AL-09" title="Dibër" class="land" d="M190.06,210.78L191.39,210.88L193.22,212.32L197.38,210.96L202.29,207.88L203.18,206.69L207.81,204.83L208.08,201.69L209.63,201.45L215.11,205.65L215.81,206.74L216.16,212.48L214.77,215.98L214.85,218.26L218.86,224.1L221.46,225.09L223.86,224.93L226.15,223.6L231.59,221.9L232.06,219.88L231.47,216.41L232.04,215.53L238.06,215.13L249.63,215.96L255.56,214.39L255.44,213.01L253.6,211.73L253.96,210.38L255.25,210.22L257.37,211.6L257.37,211.6L257.95,217.92L257.35,223.17L259.65,230.23L259.69,232.54L254.75,232.62L254.49,234.79L251.89,235.8L252.31,237.92L249.41,242.72L249.27,246.35L248.2,249.72L249.01,252.61L250.56,254.75L251.08,259.39L248.44,266.61L250.56,269.34L250.34,273.07L251.89,274.21L253.82,276.93L253.34,277.52L254.31,278.89L254.59,280.53L255.76,281.85L256.5,287.54L253.24,288.86L249.65,292.01L244.59,292.8L242.96,293.67L239.31,293.35L237.88,293.86L237.68,294.44L239.8,295.97L239.72,298.14L236.37,302.65L236.49,304.95L238.41,306.35L240.74,306.72L240.6,308.81L242.01,310.44L244.23,311.26L246,315.8L246.41,319.47L247.64,321.77L246.81,323.32L247.09,324.22L248.7,325.59L249.93,325.33L250.7,325.99L253.32,326.15L252.94,328.12L256.54,331.08L257.19,333.37L257.31,335.01L256,335.72L255.11,338.72L254.17,339.62L255.39,341.15L255.39,342.07L252.98,344.39L252.49,346.47L250.64,347.68L250.36,350.24L248.48,352.19L245.88,349.79L244.92,349.55L244.69,352.19L243.44,353.37L244.75,354.9L246.89,361.64L246.49,363.01L247.29,364.9L247.29,364.9L245.16,365.22L242.26,364.69L238.73,366.4L237,366.01L234.27,366.82L231.65,366.45L229.72,364.98L228.51,362.01L227.54,361.43L220.87,365.3L218.39,366.14L216.46,365.74L216.78,364.45L218.64,362.11L219.48,356.27L219.26,354L218.35,352.45L211.9,348.37L212.51,343.04L211.34,341.44L208.38,339.62L203.98,339.33L201.77,340.04L198.6,343.28L192.28,347.81L188.57,348.95L188.57,348.95L188.06,345.89L186.59,344.52L183.81,343.97L180.87,344.92L179.02,344.49L176.74,341.96L170.67,332.61L168.9,331.24L166.3,331.71L161.44,338.41L161,338.35L160.31,334.21L157.41,330.42L154.57,328.49L150.78,327.86L148.71,326.38L145.7,318.1L141.41,312.03L133.13,305.64L128.88,305.16L128.88,305.16L127.18,301.73L123.15,296.74L118.42,293.14L115.15,287.72L115.15,287.72L113.66,277.99L109.77,272.46L110.23,267.2L109.75,264.26L108.18,261.4L103.42,256.5L108.32,253.9L112.61,249.32L117.23,254.54L123.78,254.94L129.1,252.74L131.6,253.56L134.18,255.25L139.05,256.71L140.97,252.55L142.36,251.31L146.67,249.16L149.43,250.09L151.75,253.67L154.15,254.01L156.3,252.55L156.65,249.67L158.6,247.39L159.93,246.7L160.35,245.03L162.35,243.17L163.01,240.79L170.57,240.31L181.64,238.37L183.89,238.51L182.89,233.34L182.74,228.77L180.21,227.92L179.56,226.89L180,218.98L182.76,217.49L184.36,211.89L186.61,211.07z"/>
		<path id="AL-02" title="Durrës" class="land" d="M42.34,289.63l7.17,1.38l3.34,-0.24l5.56,-1.64l0,0l2.92,1.82l3.2,-0.5l0.56,0.24l-0.02,1.32l1.81,-0.53l7.42,2.25l6.67,2.93l6.19,0.56l4.53,-0.5l14.23,-3.81l3.95,-1.66l5.3,-3.52l0,0l3.28,5.42l4.72,3.59l4.03,4.99l1.71,3.43l0,0l-0.18,3.86l-1.65,1.74l-2.58,4.86l-2.56,2.51l-2.62,3.96l-1.53,0.34l-1.85,-1.58l-2.6,1.98l-6.43,0.92l-5.1,3.77l-2.58,3.32l-3.75,2.14l-5.22,0.37l-3.99,-2.98l-0.5,-11.92l-2.8,1.45l0.46,2.9l-2.38,0.26l-1.61,1.69l-0.79,0.05l-1.37,-1.45l-1.21,-0.29l-2.9,1.82l-1.63,-0.5l-1.41,2.32l1.07,7.02l-0.61,5.51l3.73,6.48v1.69l-1.17,2.95l-0.06,2.87l1.55,6.87l-0.12,1.42l-5.68,7.11l-2.3,5.16l-1.69,-2.05l-2.14,-1.18l-7.01,1.37l-5.36,-1.05l0,0l-1.69,-5.03l-2.68,-3.5l-0.04,-0.92l-1.96,-1.95l-1.05,-0.74l-0.73,-0.37l-3.04,-0.45l-0.26,0.42l-1.33,-0.37l-0.85,2l0.44,1.05l-1.11,-1.4l-2.44,-0.87l-0.34,-1.95l-2.26,-1.58l-0.5,-7.14l0.24,-5.01l0.71,-1.16l0.02,-1.4l-0.6,-1.45l-2.68,-2.11l-0.38,-1.45l-1.23,-1l-1.45,-2.45l2.76,1.5l0.56,1.08l-0.87,-0.9l0.34,0.9l1.93,1.4l3.55,0.21l2.1,-1.05l1.07,-1.13l1.35,-3.16l0.04,-0.32l-0.73,1.21l0.28,-1.98l0.71,0.34l-0.3,-1.05l-0.32,-1.79l0.36,-0.26l-0.12,-0.26l-0.5,0.3l-0.45,-0.51l0.1,0.71l-0.95,-0.61l1.03,2.06l-0.34,0.16l0.26,2.19l-0.61,-2.82l-1.45,-2.45l3.83,-0.79l4.13,-2.85l1.95,-2.11l3.85,-6.2l1.31,-3.75l-0.02,-6.57l-0.59,-3.12l-1.33,-1.77l-6.81,-2.64l-1.75,-1.53l-0.5,-0.82l0.16,-1.72l-2.32,-4.94l-0.87,-0.74l5.22,2.14L42.34,289.63z"/>
		<path id="AL-03" title="Elbasan" class="land" d="M188.57,348.95L192.28,347.81L198.6,343.28L201.77,340.04L203.98,339.33L208.38,339.62L211.34,341.44L212.51,343.04L211.9,348.37L218.35,352.45L219.26,354L219.48,356.27L218.64,362.11L216.78,364.45L216.46,365.74L218.39,366.14L220.87,365.3L227.54,361.43L228.51,362.01L229.72,364.98L231.65,366.45L234.27,366.82L237,366.01L238.73,366.4L242.26,364.69L245.16,365.22L247.29,364.9L247.29,364.9L247.84,365.53L247.27,368.09L247.62,371.56L249.57,376.14L248.54,377.56L248.22,379.92L251.55,385.34L252.23,388.65L256.79,390.38L257.31,393.01L261.12,398.95L261.68,401.23L263.66,404.28L264.1,406.93L262.83,408.14L261.64,411.55L263.27,413.57L264.1,416.19L265.09,416.8L265.09,416.8L267.47,423.67L265.17,433.9L264.93,438.59L263.58,435.23L262.65,434.6L255.33,433.56L253.02,433.77L248.85,435.44L244.61,435.81L240.1,439.24L236.15,441.36L230.81,442.28L229.36,444.35L228.59,452.05L227.48,455.64L223.65,460.32L223.49,461.74L226.19,467.02L231.47,473.19L235.64,481.35L239.9,487.83L238.61,498.2L238.16,499.43L236.05,501.6L235.62,504.42L234.42,505.64L232.62,506.37L231.09,510.13L229.62,510.1L225.43,508.2L220.65,508.8L215.81,507.63L214.71,508.3L213.66,510.78L212.25,511.88L205.29,511.12L206.56,514.04L206.56,514.04L200.62,515.51L193.49,516.39L192.18,515.79L188.95,511.88L186.75,510.18L181.33,512.43L175.43,511.64L175.67,508.36L171,504.73L169.66,500.06L165.59,494.75L164.75,490.81L161.64,491.72L160.6,491.44L158.62,489.43L159.19,487.02L158.34,486.21L154.53,489.56L153,490L152.19,486.6L152.45,480.25L150.94,471.21L146.39,471.86L143.93,474.58L135.45,474.08L128.59,478.24L123.66,478.19L120.71,479.55L118.01,486.29L116.46,486.45L115.66,488.77L114.87,487.65L115.11,484.3L112.39,482.89L112.98,481.69L115.8,481.64L115.98,480.59L115.98,480.59L114.79,479.81L111.91,480.7L111.91,480.7L110.36,480.17L110.72,477.43L110.05,476.91L110.05,476.91L111.46,475.68L110.7,471.07L106.33,467.18L106.37,465.84L108.18,462.55L108.44,457.71L108.28,454.3L106.12,450.27L105.94,445.48L108.14,439.71L107.19,439.09L102.31,439.11L94.17,436.23L90.91,437.25L88.35,436.78L86.72,435.34L83.88,429.86L81.42,427.05L81.42,427.05L83.63,424.93L87.2,423.54L89.26,417.3L95.77,412L96.65,407.51L98.38,405.88L100.52,405.62L102.62,407.85L104.41,408.56L108.92,406.54L110.66,407.22L111.58,406.96L113.3,404.78L115.29,403.36L117.93,403.73L119.4,399.81L121.92,398.61L123.43,395.93L126.52,395.51L128.51,394.04L133.27,392.01L136.69,388.6L143.95,383.63L149.82,372.19L152.15,369.59L155.13,368.74L159.81,371.69L162.55,372.43L164.22,372.01L170.37,367.32L173.63,365.64L174.1,363.64L172.99,359.64L174.06,357.11L177.73,354.58L187.38,350.95L188.55,350.21z"/>
		<path id="AL-04" title="Fier" class="land" d="M34.18,440.76l2.18,-1.05l2.6,-0.21l-0.06,-1.52l-1.13,-0.94l-0.42,-2.91l0.89,-1.47l1.13,-0.55l-0.32,-1.73l0.77,-0.1l0.91,1.57l0.81,-0.08l0.16,-0.89l-1.29,-0.73l-0.63,-1.65l1.13,-0.63l0.6,0.73l1.31,-1.36l1.57,0.6l1.79,4.27l0.64,0.42l0.97,-1.15l-0.16,-3.17l1.41,1.91l1.17,-1.65l0.83,-0.23l2.18,1.05l2.66,-0.08l0.85,0.79l1.71,0.1l0.5,-0.6l-0.5,-1.99l0.28,-1.21l3.55,-0.31l0.6,-2.31l0.87,-0.44l1.71,0.37l1.29,-1.05l1.85,2.1l0.83,-0.18l1.35,-1.94l0.99,0.29l-0.89,1.65l0.3,0.45l2.18,-1.6l0.3,1.89l0.64,0.71l1.31,-1.7l2.48,-0.42l3.33,3.28l0,0l2.46,2.81l2.84,5.48l1.63,1.44l2.56,0.47l3.26,-1.02l8.14,2.88l4.88,-0.02l0.95,0.63l-2.2,5.76l0.18,4.79l2.16,4.03l0.16,3.4l-0.26,4.84l-1.81,3.3l-0.04,1.33l4.37,3.9l0.75,4.6l-1.41,1.23l0,0l-0.85,0.55l-2.3,4.37l-0.65,-0.03l-1.13,-2.14l-1.09,0.94l-2.56,-0.29l0.22,1.93l-1.33,0.47l-0.38,0.97l0.4,0.73l1.55,0.5l-1.96,1.62l-0.28,0.94l1.67,1.44l-1.73,1.75l-0.85,-0.05l-0.73,-0.84l-0.1,6.5l4.17,6.92l1.93,6.21l-0.16,3.55l0.89,2.79l4.96,5.48l1.53,4.2l2.66,2.45l1.43,9.12l-3.63,4.43l-0.22,1.43l1.45,0.13l4.49,6.77l1.19,5.96l1.09,1.67l1.61,0.99l0.04,1.8l0.57,0.39l2.64,-0.42l3.06,4.14l0.75,2.63l-0.22,3.69l0,0l-3.63,-0.29l-1.21,0.55l-3.77,3.74l-2.12,3.46l-5.28,4.5l-1.63,4.21l-1.94,2.7l-2.28,1.9l-3.37,1.19l0,0l-2.1,-2.86l-1.41,-0.81l-0.32,-2.36l-1.83,-0.36l-1.75,-1.74l-1.19,-0.08l0.83,-4.83l1.19,-1.98l-0.58,-2.78l0.24,-2l-2.04,-0.26l-3.12,1.38l-1.25,-1.09v-1.4l3.1,-5.04l-0.08,-1.69l-2.22,-0.55l-2.16,0.55l-3.31,-0.13l-0.93,-0.96l-3.69,-1.43l-2.48,-1.69l-1.23,-1.85l-5.36,-2.71l-1.73,-0.1l-1.96,2.19l-0.85,-0.36l-0.79,-1.93l-0.97,-0.68h-0.61l-0.63,1.48l-1.83,-0.42l-0.61,-1.4l0.34,-2.29l-1.17,0.13l-0.5,-1.04l0.18,-0.7l1.55,-0.42l0.06,-0.88l-2.52,-1.3l-1.94,1.98l-1.98,0.76l-1.03,-1.72l0.16,-3.91l-1.77,-1.12l-2.34,0.5l-0.36,-0.65l0.4,-0.99l-0.77,-1.17l-3.33,0.47l-1.33,-1.28l-0.87,1.07l-0.91,-0.23l-0.1,-1.93l1.77,-2.03l-3.2,-0.89l-1.19,-1.28l-1.9,0.42l-1.33,-2.11l1.03,-2.97l-0.75,-0.7l-4.19,2.4l-1.73,0.08l-0.77,1.28l0.52,1.3l-0.75,0.52l-2.86,-1.2l-1.25,-3.18l-0.91,-0.73l-7.38,-2.48l-3,0.7l-3.27,3.41l-2.72,-0.65l0,0l-1.07,-1.88l1.99,-2.27l1.75,-0.39l-2.26,1.36l4.51,-1.46l1.35,-1.33l0.79,0.68l0.6,-0.42l-0.46,-1.51l0.02,1.23l-1.19,-0.7l-3.04,2.14l4.84,-5.32l3.53,-7.28l0.12,-9.58l0.04,-1.75l0.4,-2.14l0.77,0.97l0.83,-0.78l0.28,-2.58l-0.81,-1.62l-0.75,-0.23l0.04,-1.2l1.73,-6.58l0.5,0.57l0.26,0.6l1.81,-2.56l-0.3,1.59l1.45,-0.94l-1.33,-1.57l-0.4,0.94l-0.99,-0.52l-1.37,1.46l-0.79,-0.5l3.38,-6.43l1.89,-6.82l1.53,-2.35l-1.39,4.52l0.52,0.5l1.21,-0.1l1.25,-0.94l-0.08,-2.56l-0.54,-0.97l-0.6,0.08l0.18,-1.28l-1.55,-1.83l-0.54,0.81l0.5,2.46l-0.42,1.05l-0.63,-8.63l2.18,1.7l1.45,-0.16l-0.44,-1.33l-0.59,0.94l-0.06,-3.74l-2.18,2.28l0.83,-1.96l0.4,-0.37l2.66,-3.32l5.98,-4.42l0.2,0.5l-4.94,3.3l-1.85,2.15l2.88,0.94l1.67,-0.39L37,462.28l0.87,-0.63l-0.26,-1.83l1.21,0.79l-1.41,-2.3l3.51,-4.69l-1.94,0.86l0.68,0.29l-1.21,0.16l0.46,0.42l-1.23,-0.16l2.94,-2.17l0.97,-1.68l0.48,-5.08l-1.47,-4.19l-0.3,0.34l0.73,1.44l-2.86,-1.86l-0.16,-0.84l-2.42,-0.21l0.6,0.92l1.35,0.47l-1.01,-0.02l-1.96,-0.5L34.18,440.76z"/>
		<path id="AL-05" title="Gjirokastër" class="land" d="M128.15,570.59L140.38,574.44L145.76,571.94L148.61,571.97L153.38,573.48L155.8,572.07L157.25,571.97L158.12,572.31L159.29,574.73L161.58,577.48L162.79,572.23L165.86,570.98L167.69,571.42L169.73,573.61L174.36,575.32L178.9,580.26L183.27,587.41L183.61,592.21L187.2,591.98L190.5,592.84L191.99,597.35L199.49,605.17L201.73,608.88L208.26,604.52L208.1,603.01L206.24,601.48L208.1,599.87L211.16,598.7L217.19,598.37L220.05,599.72L222.38,599.38L222.87,597.41L221.15,593.93L220.73,591.43L221.52,588.21L223.11,586.5L225.49,586.65L228.11,587.72L230.91,587.46L233.43,586.32L237.04,586L237.04,586L236.79,593.02L235.36,597.64L237.78,602.03L242.34,606.1L241.85,608.57L238.37,614.58L238.1,616.01L238.75,618.55L241.31,620.83L241.73,630.14L242.62,630.63L244.85,636.59L246.47,644.47L248.44,648.92L255.31,657.72L254.95,662.99L260.29,668.86L262.09,672.56L263.15,677.06L264.79,679.31L266.76,680.68L266.76,680.68L264.97,682.56L262.75,682.36L259.75,683.62L255.58,683.91L247.62,679.05L246.71,681.22L245.02,682.2L244.17,683.75L243.12,684.06L239.78,683.26L237.94,681.25L235.69,681.48L229.52,684.79L227.7,687.39L227.38,688.69L228.31,690.73L226.74,694.75L225,696.43L225.31,699.01L224.18,701.8L219.74,703.58L212.25,702.86L207.98,703.12L209.27,706.99L212.51,710.78L214.52,714.47L213.11,720.35L215.27,722.41L217.97,723.96L219.72,728.26L221.66,729.42L223.11,734.78L228.51,742.09L227.79,743.53L228.29,744.98L227.42,749.61L223.59,754.89L221.62,756.07L219.18,755.3L215.61,751.51L208.9,749.58L206.28,748.01L206.28,748.01L203.76,742.51L200.24,741.19L199.33,736.84L196.17,729.86L191.11,724.11L190.7,720.04L191.65,716.76L191.47,715.35L184.01,713.02L179.52,708.12L174.78,706.21L173.13,704.95L169.62,700.77L167.55,699.32L166.36,695.89L161.3,691.17L158.48,687.06L153.95,683.21L153.18,683.47L152.37,685.07L151.12,685.2L144.96,681.09L140.26,684.79L139.11,684.99L137.94,684.24L134.5,675.48L129.8,666.74L125.75,662.86L120.65,659.81L117.21,648.66L112.21,640.71L111.73,635.79L109.47,631.57L109.49,630.74L111.32,628.2L108.5,627.08L107.27,623.25L97.06,611.94L97.86,610.25L108.42,600.16L106.37,597.41L104.98,597.04L102.9,592.55L102.9,592.55L106.28,591.35L108.56,589.46L110.5,586.76L112.13,582.55L117.41,578.05L119.53,574.59L123.31,570.85L124.52,570.3z"/>
		<path id="AL-06" title="Korçë" class="land" d="M267.35,417.17L279.34,418.66L291.37,463.96L296.75,466.05L299.33,465.58L301.95,465.9L306.36,467.31L309.42,465.66L311.86,460.06L314.3,456.89L322.87,460.51L325.33,462.21L326.53,462.31L327.84,460.9L329.86,461.16L332.36,460.45L333.59,460.82L336.17,463.36L337.56,463.99L340.9,468.67L341.47,494.26L340.2,497.42L335.88,500.6L337.9,501.44L339.13,502.69L341.08,502.74L341.25,509.22L342.23,510.63L345.64,512.45L349.12,516.5L355.77,527.87L355.07,535.42L355.69,539.31L355.17,540.53L353.66,541.6L353.9,544.7L353.48,546.49L352.69,547.2L353.62,551.67L352.97,555.97L350.92,557.06L349.14,556.28L345.9,557.17L344.55,559.98L344.21,562.29L340.42,564.77L339.87,566.04L338.46,565.96L337.56,568.82L338.44,571.58L338.3,573.71L335.18,577.77L336.01,578.96L330.14,580.96L326.13,577.51L322.1,577.74L319.16,578.75L317.52,578.36L315.87,576.91L313.46,576.36L311.28,579.69L310.83,583.12L309.18,585.15L309.08,586.84L307.05,586.6L303.76,588.47L301.91,590.29L303.22,593.74L302.15,596.91L303.3,601.48L302.81,606.91L300.15,608.46L299.91,609.29L300.5,610.62L299.59,610.56L297.63,612.02L296.73,613.75L296.55,614.97L297.78,617.54L295.78,619.56L292.25,620.24L291.06,624.02L287.68,627.5L287.01,629.21L286.67,631.28L287.15,633.28L289.35,635.11L289.61,637.89L289.15,640.17L289.9,642.29L289.19,644.54L287.42,646.3L286.27,649.05L283.51,649.88L280.69,651.66L281.13,652.72L280.1,657.9L283.79,661.29L283.37,662.5L281.63,664.21L280.26,667.73L281.03,671.42L280.4,674.19L280.75,675.61L277.95,676.08L276.62,677.06L270.31,677.01L269.38,677.63L268.9,679.08L266.76,680.68L266.76,680.68L264.79,679.31L263.15,677.06L262.09,672.56L260.29,668.86L254.95,662.99L255.31,657.72L248.44,648.92L246.47,644.47L244.85,636.59L242.62,630.63L241.73,630.14L241.31,620.83L238.75,618.55L238.1,616.01L238.37,614.58L241.85,608.57L242.34,606.1L237.78,602.03L235.36,597.64L236.79,593.02L237.04,586L237.04,586L236.63,580.81L234.86,574.33L234.03,566.27L230.93,561.46L231.49,559.25L234.82,553.84L235.73,550.45L235.5,548.97L229.96,547.77L225.41,548.55L222.83,546.62L221.6,543.86L221.66,539.7L219.52,539.02L217.12,536.13L214.26,527.92L211.54,524.37L209.79,518.43L206.56,514.04L206.56,514.04L205.29,511.12L212.25,511.88L213.66,510.78L214.71,508.3L215.81,507.63L220.65,508.8L225.43,508.2L229.62,510.1L231.09,510.13L232.62,506.37L234.42,505.64L235.62,504.42L236.05,501.6L238.16,499.43L238.61,498.2L239.9,487.83L235.64,481.35L231.47,473.19L226.19,467.02L223.49,461.74L223.65,460.32L227.48,455.64L228.59,452.05L229.36,444.35L230.81,442.28L236.15,441.36L240.1,439.24L244.61,435.81L248.85,435.44L253.02,433.77L255.33,433.56L262.65,434.6L263.58,435.23L264.93,438.59L265.17,433.9L267.47,423.67L265.09,416.8L265.09,416.8z"/>
		<path id="AL-07" title="Kukës" class="land" d="M168.74,35.78L170.05,35.73L170.41,36.94L176.4,39.41L179.06,41.47L179.14,44.08L181.58,46.68L182.46,50.3L183.79,51.1L185.16,53L184.09,54.77L184.19,55.87L189.58,60.59L190.81,63.51L190.97,65.33L188.63,67.23L187.38,69.81L193.57,75.38L193.69,77.11L194.65,78.19L194.39,82.6L192.88,83.83L194.86,87.26L194.92,88.17L194.17,89.18L194.53,90.09L196.53,90.65L197.21,91.7L203.74,90.28L206.79,92.61L210.98,89.29L213.09,89.29L214.59,90.09L216.44,92.39L216.24,94.27L220.49,95.34L224.34,97.18L226.48,100.71L230.08,101.38L230.61,102.53L233.51,102.79L237.16,104.42L240.3,107.5L240.72,109.26L244.69,112.47L245.3,115.33L249.95,120.08L251.53,127.34L254.13,132.97L253.74,134.01L256.64,137.64L256.36,139.59L258.56,144.07L257.33,147.93L258.26,150.7L256.12,154.81L259.24,160.83L260.65,161.52L263.98,165.44L264.6,171.32L265.53,172.44L267.79,180.71L269.94,183.21L270.31,186.62L268.9,192.76L263.68,196.03L262.31,198.29L260.49,199.03L263.88,207.4L263.96,209.34L259.83,209.85L257.37,211.6L257.37,211.6L255.25,210.22L253.96,210.38L253.6,211.73L255.44,213.01L255.56,214.39L249.63,215.96L238.06,215.13L232.04,215.53L231.47,216.41L232.06,219.88L231.59,221.9L226.15,223.6L223.86,224.93L221.46,225.09L218.86,224.1L214.85,218.26L214.77,215.98L216.16,212.48L215.81,206.74L215.11,205.65L209.63,201.45L208.08,201.69L207.81,204.83L203.18,206.69L202.29,207.88L197.38,210.96L193.22,212.32L191.39,210.88L190.06,210.78L190.06,210.78L191.83,203.23L191.65,197.81L200.98,187.82L199.05,178.48L199.55,176.7L200.56,175.69L200.36,173.85L199.59,172.44L197.21,171.24L196.17,168.58L196.17,168.58L194.33,167.43L192.38,167.54L191.15,166.93L190,162.45L185.61,155.37L182.74,157.18L181.01,159.98L179.08,159.23L176.96,159.39L176.34,158.83L179.84,156.33L181.88,153.42L180.99,146.6L183.21,141.93L184.7,140.68L184.92,139.27L186.09,138.01L189.78,135.96L193.22,132.84L195.04,128.3L194.57,127.45L191.91,127.58L188.23,124.96L186.47,124.94L185.63,123.5L184.24,123.74L182.82,121.04L180.02,120.69L178.13,121.31L175.27,120.51L174.14,119.87L171.16,116.26L168.03,116.61L166.68,115.57L165.47,115.59L162.99,113.08L160.66,113L157.47,109.58L153.44,109.48L150.98,106.59L150.6,105.25L145.7,106.78L142.9,106.56L137.96,107.44L133.93,105.44L131.13,105.55L129.14,106.7L126.68,110.89L122.69,111.75L120.92,113.7L119.91,112.33L115.45,108.99L114.95,106.51L117.33,97.96L115.01,92.82L113.94,84.45L111.91,82.01L110.74,78.4L110.86,76.79L112.49,73.31L112.59,70.74L110.11,66.91L108.84,61.37L109.29,58.79L112.13,51.99L112.13,51.99L112.65,52.09L113.76,50.59L113.9,48.69L116.08,48.63L117.15,47.43L119.85,47.8L121.8,44.05L125.67,46.92L127.06,45.09L127.44,41.34L128.92,41.15L132.58,38.74L134.74,38.33L136.57,39.84L138.85,40.24L141.93,39.6L146.73,40.35L148.85,35.17L148.99,31.89L155.46,29.67L157.07,27.36L161.87,28.46L163.26,29.32L165.67,34.04z"/>
		<path id="AL-08" title="Lezhë" class="land" d="M66.22,274.9l-0.46,0.03l0.04,0.71l-0.46,-0.61l-0.26,2.04l-0.32,-3.17l-1.07,-2.43L66.22,274.9zM59.7,269.81l-0.48,-1.92l0.16,-0.53l0.83,-0.05L59.7,269.81zM196.17,168.58l1.03,2.66l2.38,1.2l0.77,1.41l0.2,1.84l-1.01,1.01l-0.5,1.78l1.93,9.34l-9.33,10l0.18,5.42l-1.77,7.54l0,0l-3.45,0.29l-2.24,0.82l-1.61,5.6l-2.76,1.49l-0.44,7.91l0.66,1.03l2.52,0.85l0.16,4.56l0.99,5.17l-2.24,-0.13l-11.08,1.94l-7.56,0.48l-0.65,2.39l-2,1.86l-0.42,1.67l-1.33,0.69l-1.94,2.28l-0.36,2.89l-2.14,1.46l-2.4,-0.34l-2.32,-3.58l-2.76,-0.93l-4.31,2.15l-1.39,1.25l-1.92,4.16l-4.86,-1.46l-2.58,-1.69l-2.5,-0.82l-5.32,2.2l-6.55,-0.4l-4.62,-5.22l-4.29,4.58l-4.9,2.6l4.76,4.9l1.57,2.86l0.48,2.94l-0.46,5.27l3.89,5.53l1.49,9.73l0,0l-5.3,3.52l-3.95,1.67l-14.23,3.81l-4.53,0.5l-6.19,-0.56l-6.67,-2.93l-7.42,-2.25l-1.81,0.53l0.02,-1.32l-0.56,-0.24l-3.2,0.5l-2.92,-1.82l0,0l1.31,-0.85l1.01,-1.8l0.2,-3.41l1.83,0.77l0.85,-0.79l1.41,-5.69l1.09,1.06l0.24,3.12l1.07,0.53l-0.14,-2.43l0.89,-2.78l-0.58,-3.76l-1.67,-0.32l0.14,-1l-2.16,-1.11l-0.54,0.19l0.14,0.79h-0.91l-0.65,0.38l-0.91,-0.22l-1.15,-1.8l0.93,-2.35l-0.97,-1.24l2.46,-5.93l1.17,-5.72l-0.1,-3.66l-3.06,-7.34l-0.2,-1.64l1.83,-3.37l0.99,-0.21l1.61,0.8l1.83,-0.72l0.79,-4.27l-0.36,-4.46l-0.5,-2.04l-1.25,-1.46l-0.97,-0.21l-0.58,1.33l-1.67,-0.66l-8.1,-6.13l-8.71,-3.9l0,0l1.31,-2.92l0.36,-2.6l-1.03,-5.68l-7.5,-6.91l-0.52,-2.92l2.52,-1.44l2.9,0.19l2.3,2.42l2.8,1.44l7.31,5.85l3.08,1.81h1.31l1.57,-1.06l0.48,-1.12l-1.77,-5.21l1.25,-2.21l-0.77,-5.87l1.01,-1.38l2.06,-0.69l2.34,0.45l3.43,2.07l3.24,0.11l0.42,1.49l-0.69,2.58l0.6,1.36l5.96,0.72l6.35,-0.98l4.74,2.21l2.1,2.26l1.33,2.52l1.03,0.43l1.67,-1.09l3.12,-3.48l1.39,-3.4l0.04,-3.11l3.81,-1.04l1.93,-2.53l1.81,0.03l1.15,1.65l2.18,1.46l2.7,0.16l4.68,-1.94l0.79,-1.04l0.32,-1.78l2.64,-1.7l1.59,-0.19l3.83,1.17l2.8,-3.08l1.57,-0.29l1.59,2.66l5.42,20.76l1.03,0.5l1.87,-1.89l1.85,-0.37l2.76,0.53l2.2,2.42l1.47,0.35l3.97,-6.75l2.94,-6.38l4.37,-2.31l3.08,-2.92l1.41,-3.43l-0.02,-2.71l0.85,-1.83l12.9,-6.49l12.37,-4.68L196.17,168.58z"/>
		<path id="AL-10" title="Shkodër" class="land" d="M96.43,8.66l0.56,3.66l1.43,0.99l0.97,2.42l1.89,1.91l0.42,2.96l-0.73,0.7l-3.93,-0.03l-0.77,1.99l1.13,2.71l-1.03,2.15l0.06,1.61l-1.21,0.73l0.18,1.13l3.06,5.64l0.97,5.18l2.98,1.56l2.5,3.86l7.25,4.18l0,0l-2.84,6.81l-0.46,2.57l1.27,5.55l2.48,3.83l-0.1,2.57l-1.63,3.48l-0.12,1.61l1.17,3.61l2.02,2.44l1.07,8.37l2.32,5.13l-2.38,8.55l0.5,2.49l4.47,3.34l1.01,1.36l1.77,-1.95l3.99,-0.85l2.46,-4.19l1.99,-1.15l2.8,-0.11l4.03,2l4.94,-0.88l2.8,0.21l4.9,-1.52l0.38,1.34l2.46,2.89l4.03,0.11l3.2,3.42l2.32,0.08l2.48,2.51l1.21,-0.03l1.35,1.04l3.14,-0.35l2.98,3.61l1.13,0.64l2.86,0.8l1.89,-0.61l2.8,0.35l1.43,2.7l1.39,-0.24l0.83,1.44l1.77,0.03l3.67,2.62l2.66,-0.13l0.48,0.85l-1.83,4.54l-3.43,3.12l-3.69,2.05l-1.17,1.25l-0.22,1.41l-1.49,1.25l-2.22,4.67l0.89,6.82l-2.04,2.9l-3.49,2.5l0.62,0.56l2.12,-0.16l1.93,0.75l1.73,-2.8l2.88,-1.81l4.39,7.09l1.15,4.47l1.23,0.61l1.95,-0.11l1.85,1.15l0,0l-3.59,2.34l-12.37,4.68l-12.9,6.49l-0.85,1.84l0.02,2.71l-1.41,3.43L161.99,193l-4.37,2.31l-2.94,6.38l-3.97,6.75l-1.47,-0.34l-2.2,-2.42l-2.76,-0.53l-1.85,0.37l-1.87,1.89l-1.03,-0.5l-5.42,-20.76l-1.59,-2.66l-1.57,0.29l-2.8,3.09l-3.83,-1.17l-1.59,0.19l-2.64,1.7l-0.32,1.78l-0.79,1.04l-4.68,1.94l-2.7,-0.16l-2.18,-1.46l-1.15,-1.65l-1.81,-0.03l-1.92,2.53l-3.81,1.04l-0.04,3.11l-1.39,3.4l-3.12,3.48l-1.67,1.09l-1.03,-0.42l-1.33,-2.52l-2.1,-2.26l-4.74,-2.21l-6.35,0.98l-5.95,-0.72l-0.6,-1.35l0.7,-2.58l-0.42,-1.49l-3.24,-0.11l-3.43,-2.07l-2.34,-0.45l-2.06,0.69l-1.01,1.38l0.77,5.88l-1.25,2.21l1.77,5.21l-0.48,1.12l-1.57,1.06h-1.31l-3.08,-1.81l-7.3,-5.85l-2.8,-1.43l-2.3,-2.42l-2.9,-0.19l-2.52,1.44l0.52,2.92l7.5,6.91l1.03,5.68l-0.36,2.6l-1.31,2.92l0,0l-8.46,-2.6l-6.65,-0.98l-2.5,0.56l-3.16,3.56l-2,-1.09l-1.15,0.13l0.83,-3.19l0.16,-3.72l1.07,-2.28l-2.28,-0.85l-0.89,-2.55l-3.79,-1.25L15.5,201l0.77,-1.22l3.63,-0.93l1.41,-1.67l-0.52,-1.65l-3.61,-3.03l0.02,-4.12l1.51,-1.01l4.84,-0.45l1.01,-1.06l-2.26,-2.55l1.03,-3.48l-0.54,-2.71l-1.39,-2.15l-0.5,-8.73l1.53,-3.38l0.52,-6.05l4.25,-7.97L3.24,128.51l13.5,-16.15l1.57,-4.28l5,-6.23l0.54,-3.98l7.44,-8.61l-1.07,-2.19l-0.54,-4.04l1.79,-1.34l-0.1,-2.78l0.79,-1.61l2.4,-2.78l1.23,-0.64l2.42,-0.13l3.06,-2.03l2.96,-5.06l0.62,-2.73l1.17,-0.35l0.48,-2.33l1.33,-1.69l2.66,-1.15l0.54,-2.44l1.61,-1.29l1.71,-2.81l0.4,-1.96l1.91,-3.49l1.95,-2.25l0.85,-4.94l7.86,-4.51l0.26,-1.48l2.44,-1.48l-0.54,-4.21l-0.73,-1.15l0.34,-4.03l9.67,-13.3l0.93,-0.91l2.28,0.59l0.99,-0.3l3.45,-4l-0.04,-1.53l1.07,-1.34L91.05,0l1.83,0.86l1.89,4.09l2.9,1.16l0.08,1.02L96.43,8.66z"/>
		<path id="AL-11" title="Tiranë" class="land" d="M128.88,305.16L133.13,305.64L141.41,312.03L145.7,318.1L148.71,326.38L150.78,327.86L154.57,328.49L157.41,330.42L160.31,334.21L161,338.35L161.44,338.41L166.3,331.71L168.9,331.24L170.67,332.61L176.74,341.96L179.02,344.49L180.87,344.92L183.81,343.97L186.59,344.52L188.06,345.89L188.57,348.95L188.57,348.95L188.55,350.21L187.38,350.95L177.73,354.58L174.06,357.11L172.99,359.64L174.1,363.64L173.63,365.64L170.37,367.32L164.22,372.01L162.55,372.43L159.81,371.69L155.13,368.74L152.15,369.59L149.82,372.19L143.95,383.63L136.69,388.6L133.27,392.01L128.51,394.04L126.52,395.51L123.43,395.93L121.92,398.61L119.4,399.81L117.93,403.73L115.29,403.36L113.3,404.78L111.58,406.96L110.66,407.22L108.92,406.54L104.41,408.56L102.62,407.85L100.52,405.62L98.38,405.88L96.65,407.51L95.77,412L89.26,417.3L87.2,423.54L83.63,424.93L81.42,427.05L81.42,427.05L78.09,423.78L75.61,424.2L74.3,425.9L73.66,425.19L73.36,423.3L71.18,424.9L70.88,424.46L71.78,422.81L70.78,422.52L69.43,424.46L68.6,424.64L66.75,422.54L65.46,423.59L63.76,423.23L62.88,423.67L62.29,425.98L58.74,426.29L58.46,427.5L58.95,429.49L58.46,430.1L56.75,429.99L55.9,429.2L53.24,429.28L51.05,428.23L50.22,428.47L49.05,430.12L47.64,428.21L47.8,431.38L46.83,432.53L46.19,432.11L44.4,427.84L42.84,427.24L41.53,428.6L40.93,427.87L39.8,428.5L40.43,430.15L41.72,430.88L41.57,431.77L40.75,431.85L39.84,430.28L39.06,430.38L39.38,432.11L38.25,432.66L37.36,434.13L37.77,437.04L38.91,437.98L38.97,439.5L36.36,439.71L34.18,440.76L34.18,440.76L34.56,434.63L37.36,425.01L38.13,418.56L37.66,410.66L34.16,402.1L38.39,401.57L40.77,398.74L41.33,394.09L42.54,391.41L43.07,388.23L47.98,382.6L49.88,377.9L50.66,373.87L50.32,370.85L50.32,370.85L55.68,371.9L62.69,370.53L64.83,371.72L66.52,373.77L68.82,368.61L74.5,361.51L74.61,360.08L73.07,353.21L73.13,350.34L74.3,347.39L74.3,345.71L70.57,339.22L71.18,333.71L70.11,326.7L71.52,324.38L73.15,324.88L76.04,323.06L77.26,323.35L78.63,324.8L79.42,324.75L81.03,323.06L83.41,322.8L82.95,319.89L85.75,318.44L86.25,330.37L90.24,333.34L95.46,332.98L99.21,330.84L101.79,327.52L106.89,323.75L113.32,322.82L115.92,320.84L117.77,322.43L119.3,322.08L121.92,318.13L124.48,315.62L127.06,310.76L128.71,309.02z"/>
		<path id="AL-12" title="Vlorë" class="land" d="M3.35,570.36l1.81,0.7l0.68,1.79l-1.47,5.12l-1.29,-0.42l-1.09,-3.9l-1.27,-1.09l-0.69,-2.26l0.4,-2.55l1.09,-0.16L3.35,570.36zM9.03,531.8l2.72,0.65l3.28,-3.41l3,-0.7l7.38,2.48l0.91,0.73l1.25,3.18l2.86,1.2l0.75,-0.52l-0.52,-1.3l0.77,-1.28l1.73,-0.08l4.19,-2.4l0.75,0.7l-1.03,2.97l1.33,2.11l1.91,-0.42l1.19,1.28l3.2,0.89l-1.77,2.03l0.1,1.93l0.91,0.23l0.87,-1.07l1.33,1.28l3.33,-0.47l0.77,1.17l-0.4,0.99l0.36,0.65l2.34,-0.49l1.77,1.12l-0.16,3.91l1.03,1.72l1.99,-0.75l1.95,-1.98l2.52,1.3l-0.06,0.89l-1.55,0.42l-0.18,0.7l0.5,1.04l1.17,-0.13l-0.34,2.29l0.62,1.41l1.83,0.42l0.64,-1.48h0.62l0.97,0.68l0.79,1.93l0.85,0.36l1.97,-2.19l1.73,0.1l5.36,2.71l1.23,1.85l2.48,1.69l3.69,1.43l0.93,0.96l3.31,0.13l2.16,-0.55l2.22,0.55l0.08,1.69l-3.1,5.05v1.4l1.25,1.09l3.12,-1.38l2.04,0.26l-0.24,2l0.58,2.78l-1.19,1.98l-0.83,4.83l1.19,0.08l1.75,1.74l1.83,0.36l0.32,2.36l1.41,0.81l2.1,2.86l0,0l2.08,4.49l1.39,0.36l2.04,2.75l-10.56,10.1l-0.79,1.69l10.2,11.31l1.23,3.84l2.82,1.11l-1.83,2.54l-0.02,0.83l2.26,4.22l0.48,4.92l5,7.95l3.43,11.15l5.1,3.05l4.05,3.88l4.71,8.74l3.43,8.76l1.17,0.75l1.15,-0.21l4.7,-3.69l6.15,4.11l1.25,-0.13l0.81,-1.6l0.77,-0.26l4.53,3.85l2.82,4.11l5.06,4.72l1.19,3.43l2.06,1.45l3.51,4.18l1.65,1.26l4.74,1.91l4.49,4.9l7.46,2.32l0.18,1.42l-0.95,3.28l0.42,4.07l5.06,5.75l3.16,6.98l0.91,4.35l3.51,1.31l2.52,5.51l0,0l-0.65,1.39l-2.32,1.73l3.51,5.74l-0.77,2.03l-2.2,2.39l0.75,1.67l1.75,1.67l0.38,1.75l2.84,2.03l0.22,1.85l-1.9,0.95l-2.62,2.98l-3.16,1l-1.49,3.03l-1.77,1l-0.34,6.24l-2.28,-1.26l-1.47,-1.88l-2.06,-0.59l-0.93,0.26l0.06,1.64l-2.42,3.13l1.91,3.7l-1.01,1.18l-6.57,0.33l-6.93,-2.36l-5.22,-0.2l-2.76,-1.9l-0.67,-1.08l-2.28,-1.16l-1.77,-2.72l-2.86,0.26l-2.24,-2.16l-3.79,-1.05l-1.73,0.46l-1.29,-2.29l-1.25,1.36l-1.59,-0.02l-1.29,1l-1.15,-0.51l-0.63,2.11l-0.34,-1.67l-1.07,-0.31l0.22,1.18l-2.28,-0.13l-0.48,-1.95l0.81,-0.72l0.08,-0.95l-0.77,0.39v-1.41l1.31,-3.98l0.93,-0.2l0.56,-1.18l0.36,-3.06l-0.91,-1.21l1.47,-2.11l-1.09,-0.62l0.3,1.03l-0.61,0.56l-0.73,-0.21l0.12,0.87l-1.01,-0.64l0.04,0.77l-1.11,0.33l1.03,0.52l0.95,-0.44l-0.56,0.75l-1.83,-0.69l-0.79,-2.49l1.29,-2.57h0.73l0.12,-1.47l1.49,0.03l0.73,0.82l0.46,-0.56l-0.18,-1.49l0.89,0.15l-0.06,-1.31l1.15,-0.54l-0.81,-3.09l-1.92,-0.26l0.62,-0.85l-0.61,-0.31l1.57,-0.62l0.97,-1.77l-0.14,-1.29l0.32,-0.59l0.6,0.28l0.5,-1.29l-0.58,-4.53l2.3,-2.19l-0.34,-4.17l-1.39,-3.12l-1.61,0.18l-0.54,1.08l-2.64,-1.52l-0.02,0.9l-0.89,0.05l-1.09,-0.95l0.66,-0.67l-2.12,-0.23l-1.59,-1.49l-0.73,0.03l-0.36,-1.93l-0.77,-0.64l0.5,-0.69l-3.53,0.49l-0.91,-2.09l-0.59,0.88l-0.83,-0.98l-2.34,0.54l-1.01,-1.78l0.06,-0.93l1.87,0.59l-0.52,-1.34l1.61,-2.22l1.27,-1.19l1.21,0.36l0.46,-0.36l-0.71,-0.64l0.18,-3.33l-4.35,-5.96l-0.57,-2.97l-1.55,-1.39l-0.34,-1.37l-1.59,-1.78l-0.73,-2.35l-5.6,-8.52l-1.81,-1.78l-3.67,-1.99l-3.95,-0.21l-0.95,1.52l-1.45,-0.75l-0.28,0.83l-1.15,-0.21l-0.75,-0.77l0.16,-0.98l1.89,0.13l0.12,-0.59l-1.15,-1.37l-1.43,-0.31l0.6,-0.39l-0.59,-1.22l-1.75,-1.01l-0.93,0.1l-0.18,3.59l-0.99,-0.83l-0.79,-4.96l-2.12,-0.44l-1.45,0.57l0.66,-1.24l-0.67,-1.03l1.05,-1.14l-0.61,-1.34l-1.73,-0.83l-1.81,0.36l-1.81,-2.25l-1.94,-0.23l-0.02,-0.8l-2.84,-0.02l0.3,-1.68l-0.46,-0.54l-4.94,-0.85l-0.95,-0.62l-2.34,0.23l-1.39,-0.93l-0.52,-1.5l-1.55,-1.47l-3.18,-1.19l-3.87,-3.16l-2.7,-0.96l-2.7,-3l-8.77,-3.23l-2.98,-2.1l-2.44,-0.8l-4.61,-4.06l-2.72,-0.96l-0.95,-1.63l-1.29,-0.8l-2.86,-2.46l-0.5,-0.91l-1.25,-1.48l-0.56,-1.94l-3.71,-3.44l-1.87,-3.78l-4.8,-4.98l-1.51,-2.36l0.16,-1.74l1.17,-0.1l-1.05,-1.35l-0.24,-3.14l-0.73,-2.93l-1.05,-1.37l0.2,-0.65l-1.41,-0.93l-3.1,-6.15l-3.53,-3.92l-0.02,-0.78l-3.12,-2.8l0.28,-0.62l-1.43,-1.17l-0.56,-0.23l-2.02,-1.4l0.46,-0.94l2.01,-0.08l1.09,-1.92l2.82,-1.61l2.06,1.98l1.93,-0.6l3.47,2.96l2.22,2.94l1.77,0.99l0.4,1.27l3.12,3.22l1.83,3.3l1.05,4.52l-0.73,0.31l0.56,1.17l-0.6,1.48l0.52,0.88l-0.38,0.78l2.4,2.98l0.18,0.83l-0.61,0.44l0.81,0.93l2.4,0.08l4.29,-1.5l1.93,-1.48l1.55,-2.2l2.02,-1.22l0.24,-1.84l-0.97,-2.46l0.46,-2.08l-0.69,-1.53l1.21,-2.52l-1.07,-1.74l-0.2,-1.48l0.56,-4.23l1.77,-2.36l0.75,-2.08v-4.08l-1.09,-0.88l-0.52,0.6l-0.71,-0.21l-0.14,-0.7l-3.99,-2.26l-6.89,-9.18l-2.64,-1.35l-1.43,0.57l-0.73,-0.88l-2.92,-4.86l0.48,-1.53l-2.06,-1.46l-0.42,-1.74l0.79,-0.02l0.44,-1.15l-1.45,-5.33l0.5,-0.55l-0.85,-1.15l0.22,1.07l-0.38,-0.39l-6.83,-14.63L9.03,531.8z"/>
	</g>
</svg>