<?xml version="1.0" encoding="utf-8"?>
<!-- (c) ammap.com | SVG map of Albania - Low -->
<svg xmlns="http://www.w3.org/2000/svg" xmlns:amcharts="http://amcharts.com/ammap" xmlns:xlink="http://www.w3.org/1999/xlink" version="1.1">
	<defs>
		<style type="text/css">
			.land
			{
				fill: #CCCCCC;
				fill-opacity: 1;
				stroke:white;
				stroke-opacity: 1;
				stroke-width:0.5;
			}
		</style>

		<amcharts:ammap projection="mercator" leftLongitude="19.266289" topLatitude="42.660316" rightLongitude="21.057021" bottomLatitude="39.645057"></amcharts:ammap>

		<!-- All areas are listed in the line below. You can use this list in your script. -->
		<!--{id:"AL-01"},{id:"AL-09"},{id:"AL-02"},{id:"AL-03"},{id:"AL-04"},{id:"AL-05"},{id:"AL-06"},{id:"AL-07"},{id:"AL-08"},{id:"AL-10"},{id:"AL-11"},{id:"AL-12"}-->

	</defs>
	<g>
		<path id="AL-01" title="Berat" class="land" d="M110.05,476.91L110.36,480.17L111.91,480.7L111.91,480.7L115.98,480.59L115.98,480.59L112.39,482.89L115.11,484.3L115.66,488.77L120.71,479.55L128.59,478.24L135.45,474.08L143.93,474.58L146.39,471.86L150.94,471.21L153,490L158.34,486.21L158.62,489.43L160.6,491.44L164.75,490.81L171,504.73L175.67,508.36L175.43,511.64L181.33,512.43L186.75,510.18L193.49,516.39L206.56,514.04L206.56,514.04L209.79,518.43L217.12,536.13L221.66,539.7L222.83,546.62L225.41,548.55L229.96,547.77L235.5,548.97L234.82,553.84L230.93,561.46L234.03,566.27L237.04,586L237.04,586L228.11,587.72L223.11,586.5L220.73,591.43L222.38,599.38L217.19,598.37L208.1,599.87L206.24,601.48L208.26,604.52L201.73,608.88L191.99,597.35L190.5,592.84L183.61,592.21L183.27,587.41L178.9,580.26L174.36,575.32L167.69,571.42L162.79,572.23L161.58,577.48L157.25,571.97L153.38,573.48L145.76,571.94L140.38,574.44L128.15,570.59L128.15,570.59L127.61,564.27L124.56,560.13L121.34,560.16L121.3,558.36L118.6,555.71L117.41,549.75L112.92,542.98L111.48,542.85L115.33,536.99L113.9,527.87L104.75,515.74L102.09,503.19L97.92,496.27L98.02,489.77L99.61,490.65L101.33,488.9L99.67,487.47L101.91,484.9L99.96,483.68L101.67,482.24L101.45,480.31L105.1,479.65L106.89,481.82z"/>
		<path id="AL-09" title="Dibër" class="land" d="M190.06,210.78L193.22,212.32L197.38,210.96L207.81,204.83L208.08,201.69L209.63,201.45L215.81,206.74L214.85,218.26L218.86,224.1L221.46,225.09L231.59,221.9L232.04,215.53L249.63,215.96L255.56,214.39L253.96,210.38L257.37,211.6L257.37,211.6L257.35,223.17L259.69,232.54L254.75,232.62L254.49,234.79L251.89,235.8L252.31,237.92L249.41,242.72L248.2,249.72L251.08,259.39L248.44,266.61L250.56,269.34L250.34,273.07L253.82,276.93L255.76,281.85L256.5,287.54L249.65,292.01L237.88,293.86L239.8,295.97L239.72,298.14L236.37,302.65L236.49,304.95L240.74,306.72L240.6,308.81L244.23,311.26L247.64,321.77L247.09,324.22L253.32,326.15L252.94,328.12L256.54,331.08L257.19,333.37L254.17,339.62L255.39,342.07L250.64,347.68L250.36,350.24L248.48,352.19L244.92,349.55L243.44,353.37L247.29,364.9L247.29,364.9L231.65,366.45L227.54,361.43L220.87,365.3L216.46,365.74L218.64,362.11L219.26,354L211.9,348.37L212.51,343.04L208.38,339.62L201.77,340.04L192.28,347.81L188.57,348.95L188.57,348.95L186.59,344.52L179.02,344.49L168.9,331.24L166.3,331.71L161,338.35L160.31,334.21L157.41,330.42L148.71,326.38L145.7,318.1L141.41,312.03L133.13,305.64L128.88,305.16L128.88,305.16L115.15,287.72L115.15,287.72L113.66,277.99L109.77,272.46L109.75,264.26L103.42,256.5L108.32,253.9L112.61,249.32L117.23,254.54L123.78,254.94L129.1,252.74L139.05,256.71L140.97,252.55L146.67,249.16L149.43,250.09L151.75,253.67L154.15,254.01L156.3,252.55L156.65,249.67L159.93,246.7L163.01,240.79L183.89,238.51L182.74,228.77L179.56,226.89L180,218.98L182.76,217.49L184.36,211.89z"/>
		<path id="AL-02" title="Durrës" class="land" d="M42.34,289.63l7.17,1.38l8.89,-1.88l0,0l22.55,7.53l6.19,0.56l18.76,-4.31l9.25,-5.18l0,0l13.74,17.44l0,0l-0.18,3.86l-9.41,13.07l-3.37,-1.24l-2.6,1.98l-6.43,0.92l-11.43,9.23l-5.22,0.37l-3.99,-2.98l-0.5,-11.92l-2.8,1.45l0.46,2.9l-3.99,1.95l-3.37,-1.69l-2.9,1.82l-1.63,-0.5l-1.41,2.32l0.46,12.52l3.73,6.48l-1.23,7.51l1.43,8.29l-7.98,12.26l-3.83,-3.24l-7.01,1.37l-5.36,-1.05l0,0l-1.69,-5.03l-4.68,-6.37l-6.41,-1.5l-0.42,3.05l-6.15,-5.79l0.48,-14.7l-6.33,-8.46l4.7,3.98l5.66,-0.84l2.72,-5.04l-0.38,-3.38l-1.81,-0.1l0.95,4.4l-2.06,-5.27l7.96,-3.64l5.8,-8.31l1.31,-3.75l-0.61,-9.69l-9.88,-5.94l-3.53,-8.22L42.34,289.63z"/>
		<path id="AL-03" title="Elbasan" class="land" d="M188.57,348.95L192.28,347.81L201.77,340.04L208.38,339.62L212.51,343.04L211.9,348.37L219.26,354L218.64,362.11L216.46,365.74L220.87,365.3L227.54,361.43L231.65,366.45L247.29,364.9L247.29,364.9L247.62,371.56L249.57,376.14L248.22,379.92L252.23,388.65L256.79,390.38L263.66,404.28L264.1,406.93L261.64,411.55L265.09,416.8L265.09,416.8L267.47,423.67L264.93,438.59L262.65,434.6L253.02,433.77L244.61,435.81L236.15,441.36L230.81,442.28L229.36,444.35L227.48,455.64L223.65,460.32L226.19,467.02L231.47,473.19L239.9,487.83L238.61,498.2L235.62,504.42L232.62,506.37L231.09,510.13L225.43,508.2L215.81,507.63L212.25,511.88L205.29,511.12L206.56,514.04L206.56,514.04L193.49,516.39L186.75,510.18L181.33,512.43L175.43,511.64L175.67,508.36L171,504.73L164.75,490.81L160.6,491.44L158.62,489.43L158.34,486.21L153,490L150.94,471.21L146.39,471.86L143.93,474.58L135.45,474.08L128.59,478.24L120.71,479.55L115.66,488.77L115.11,484.3L112.39,482.89L115.98,480.59L115.98,480.59L111.91,480.7L111.91,480.7L110.36,480.17L110.05,476.91L110.05,476.91L111.46,475.68L110.7,471.07L106.33,467.18L108.44,457.71L105.94,445.48L108.14,439.71L94.17,436.23L88.35,436.78L81.42,427.05L81.42,427.05L87.2,423.54L89.26,417.3L95.77,412L96.65,407.51L98.38,405.88L100.52,405.62L104.41,408.56L108.92,406.54L111.58,406.96L115.29,403.36L117.93,403.73L119.4,399.81L123.43,395.93L133.27,392.01L143.95,383.63L152.15,369.59L155.13,368.74L159.81,371.69L164.22,372.01L173.63,365.64L172.99,359.64L174.06,357.11L187.38,350.95z"/>
		<path id="AL-04" title="Fier" class="land" d="M34.18,440.76l4.78,-1.26l-1.61,-5.37l2.03,-2.02l-0.32,-1.73l2.5,1.39l-1.77,-3.28l3.04,-1.26l3.99,5.3l0.81,-4.32l1.41,1.91l2.01,-1.89l7.4,1.86l0.28,-3.8l3.55,-0.31l0.6,-2.31l3.87,-1.13l1.85,2.1l2.18,-2.12l0.99,0.29l-0.6,2.1l2.18,-1.6l0.93,2.6l3.79,-2.12l3.33,3.28l0,0l6.93,9.73l5.82,-0.55l13.97,3.49l-2.2,5.76l2.5,12.23l-2.1,9.47l4.37,3.9l0.75,4.6l-1.41,1.23l0,0l-3.16,4.91l-1.79,-2.17l-3.65,0.65l0.22,1.93l-1.71,1.44l1.95,1.23l-2.24,2.56l1.67,1.44l-1.73,1.75l-1.59,-0.89l-0.1,6.5l4.17,6.92l2.66,12.55l9.15,12.13l1.43,9.12l-3.85,5.86l1.45,0.13l4.49,6.77l1.19,5.96l2.7,2.65l0.04,1.8l3.22,-0.02l3.06,4.14l0.54,6.32l0,0l-4.84,0.26l-11.17,11.7l-3.57,6.91l-5.66,3.09l0,0l-3.51,-3.66l-0.32,-2.36l-4.76,-2.18l2.02,-6.81l-0.34,-4.78l-5.16,1.12l-1.25,-1.09l3.02,-8.14l-7.7,-0.13l-13.7,-8.64l-1.73,-0.1l-1.96,2.19l-2.62,-2.97l-1.25,1.48l-1.83,-0.42l-0.28,-3.69l-1.67,-0.91l1.79,-2l-2.52,-1.3l-3.93,2.73l-0.87,-5.62l-4.11,-0.62l-0.73,-2.81l-6.45,0.03l1.67,-3.96l-4.39,-2.16l-1.9,0.42l-1.33,-2.11l0.28,-3.67l-5.91,2.48l-1.01,3.1l-2.86,-1.2l-2.16,-3.91l-7.38,-2.48l-3,0.7l-3.27,3.41l-2.72,-0.65l0,0l-1.07,-1.88l1.99,-2.27l2.06,-0.42l4.84,-5.32l3.53,-7.28l0.16,-11.33l0.4,-2.14l1.61,0.18l0.28,-2.58l-1.53,-3.06l1.73,-6.58l0.75,1.18l1.51,-0.97l1.45,-0.94l-1.33,-1.57l-3.55,1.39l5.4,-11.08l2.98,-0.55l-2.58,-6.56l-0.46,4.32l-0.63,-8.63l3.63,1.54l-0.44,-1.33l-1.12,-0.98l-1.47,-0.13l0.58,-1.38l2.44,-2.17l7.68,0.39l-0.26,-1.83l1.21,0.79l-1.41,-2.3l3.51,-4.69l-3.25,1.57l3.91,-3.85l0.48,-5.08l-1.03,-2.41l-3.02,-2.7l-2.42,-0.21l1.95,1.39l-1.01,-0.02L34.18,440.76z"/>
		<path id="AL-05" title="Gjirokastër" class="land" d="M128.15,570.59L140.38,574.44L145.76,571.94L153.38,573.48L157.25,571.97L161.58,577.48L162.79,572.23L167.69,571.42L174.36,575.32L178.9,580.26L183.27,587.41L183.61,592.21L190.5,592.84L191.99,597.35L201.73,608.88L208.26,604.52L206.24,601.48L208.1,599.87L217.19,598.37L222.38,599.38L220.73,591.43L223.11,586.5L228.11,587.72L237.04,586L237.04,586L235.36,597.64L237.78,602.03L242.34,606.1L238.1,616.01L241.31,620.83L241.73,630.14L248.44,648.92L255.31,657.72L254.95,662.99L260.29,668.86L263.15,677.06L266.76,680.68L266.76,680.68L264.97,682.56L255.58,683.91L247.62,679.05L243.12,684.06L237.94,681.25L235.69,681.48L229.52,684.79L227.7,687.39L228.31,690.73L225,696.43L224.18,701.8L219.74,703.58L207.98,703.12L214.52,714.47L213.11,720.35L217.97,723.96L219.72,728.26L221.66,729.42L223.11,734.78L228.51,742.09L227.42,749.61L221.62,756.07L215.61,751.51L206.28,748.01L206.28,748.01L203.76,742.51L200.24,741.19L196.17,729.86L191.11,724.11L191.47,715.35L184.01,713.02L179.52,708.12L173.13,704.95L167.55,699.32L166.36,695.89L153.95,683.21L151.12,685.2L144.96,681.09L140.26,684.79L137.94,684.24L129.8,666.74L120.65,659.81L117.21,648.66L112.21,640.71L111.73,635.79L109.47,631.57L111.32,628.2L108.5,627.08L107.27,623.25L97.06,611.94L108.42,600.16L104.98,597.04L102.9,592.55L102.9,592.55L108.56,589.46L112.13,582.55L123.31,570.85z"/>
		<path id="AL-06" title="Korçë" class="land" d="M267.35,417.17L279.34,418.66L291.37,463.96L306.36,467.31L309.42,465.66L314.3,456.89L325.33,462.21L333.59,460.82L337.56,463.99L340.9,468.67L341.47,494.26L340.2,497.42L335.88,500.6L341.08,502.74L341.25,509.22L349.12,516.5L355.77,527.87L355.69,539.31L353.66,541.6L352.69,547.2L352.97,555.97L345.9,557.17L344.21,562.29L338.46,565.96L338.3,573.71L335.18,577.77L336.01,578.96L330.14,580.96L326.13,577.51L319.16,578.75L313.46,576.36L309.08,586.84L307.05,586.6L301.91,590.29L303.22,593.74L302.15,596.91L302.81,606.91L300.15,608.46L300.5,610.62L296.73,613.75L297.78,617.54L295.78,619.56L292.25,620.24L287.01,629.21L287.15,633.28L289.35,635.11L289.19,644.54L286.27,649.05L280.69,651.66L280.1,657.9L283.79,661.29L280.26,667.73L280.75,675.61L270.31,677.01L266.76,680.68L266.76,680.68L263.15,677.06L260.29,668.86L254.95,662.99L255.31,657.72L248.44,648.92L241.73,630.14L241.31,620.83L238.1,616.01L242.34,606.1L237.78,602.03L235.36,597.64L237.04,586L237.04,586L234.03,566.27L230.93,561.46L234.82,553.84L235.5,548.97L229.96,547.77L225.41,548.55L222.83,546.62L221.66,539.7L217.12,536.13L209.79,518.43L206.56,514.04L206.56,514.04L205.29,511.12L212.25,511.88L215.81,507.63L225.43,508.2L231.09,510.13L232.62,506.37L235.62,504.42L238.61,498.2L239.9,487.83L231.47,473.19L226.19,467.02L223.65,460.32L227.48,455.64L229.36,444.35L230.81,442.28L236.15,441.36L244.61,435.81L253.02,433.77L262.65,434.6L264.93,438.59L267.47,423.67L265.09,416.8L265.09,416.8z"/>
		<path id="AL-07" title="Kukës" class="land" d="M168.74,35.78L179.06,41.47L179.14,44.08L185.16,53L184.19,55.87L189.58,60.59L190.97,65.33L187.38,69.81L193.57,75.38L194.65,78.19L194.39,82.6L192.88,83.83L194.86,87.26L194.53,90.09L197.21,91.7L203.74,90.28L206.79,92.61L210.98,89.29L214.59,90.09L216.24,94.27L224.34,97.18L226.48,100.71L237.16,104.42L249.95,120.08L253.74,134.01L256.64,137.64L258.56,144.07L257.33,147.93L258.26,150.7L256.12,154.81L259.24,160.83L263.98,165.44L264.6,171.32L270.31,186.62L268.9,192.76L260.49,199.03L263.96,209.34L257.37,211.6L257.37,211.6L253.96,210.38L255.56,214.39L249.63,215.96L232.04,215.53L231.59,221.9L221.46,225.09L218.86,224.1L214.85,218.26L215.81,206.74L209.63,201.45L208.08,201.69L207.81,204.83L197.38,210.96L193.22,212.32L190.06,210.78L190.06,210.78L191.65,197.81L200.98,187.82L199.05,178.48L200.36,173.85L196.17,168.58L196.17,168.58L191.15,166.93L190,162.45L185.61,155.37L181.01,159.98L176.34,158.83L181.88,153.42L180.99,146.6L183.21,141.93L186.09,138.01L193.22,132.84L194.57,127.45L191.91,127.58L184.24,123.74L182.82,121.04L175.27,120.51L171.16,116.26L165.47,115.59L157.47,109.58L153.44,109.48L150.6,105.25L137.96,107.44L131.13,105.55L126.68,110.89L122.69,111.75L120.92,113.7L115.45,108.99L114.95,106.51L117.33,97.96L115.01,92.82L113.94,84.45L110.74,78.4L112.59,70.74L108.84,61.37L112.13,51.99L112.13,51.99L113.9,48.69L119.85,47.8L121.8,44.05L125.67,46.92L127.44,41.34L132.58,38.74L146.73,40.35L148.99,31.89L155.46,29.67L157.07,27.36L163.26,29.32L165.67,34.04z"/>
		<path id="AL-08" title="Lezhë" class="land" d="M196.17,168.58l4.19,5.27l-1.31,4.63l1.93,9.34l-9.33,10l-1.59,12.97l0,0l-5.7,1.12l-1.61,5.6l-2.76,1.49l-0.44,7.91l3.18,1.88l1.15,9.73l-20.88,2.28l-3.08,5.91l-3.27,2.97l-0.36,2.89l-2.14,1.46l-2.4,-0.34l-2.32,-3.58l-2.76,-0.93l-5.7,3.39l-1.92,4.16l-9.94,-3.97l-5.32,2.2l-6.55,-0.4l-4.62,-5.22l-4.29,4.58l-4.9,2.6l6.33,7.76l0.02,8.21l3.89,5.53l1.49,9.73l0,0l-9.25,5.18l-18.76,4.31l-6.19,-0.56l-22.55,-7.53l0,0l2.32,-2.64l0.2,-3.41l2.68,-0.03l1.41,-5.69l2.4,4.71l0.75,-5.21l-0.58,-3.76l-1.53,-1.32l-2.16,-1.11l-2.88,1.14l-1.15,-1.8l3.59,-15.25l-3.35,-12.64l1.83,-3.37l4.43,-0.13l0.44,-8.73l-1.75,-3.5l-3.22,0.45l-8.1,-6.13l-8.71,-3.9l0,0l1.67,-5.52l-1.03,-5.68l-7.5,-6.91l-0.52,-2.92l5.42,-1.25l12.41,9.7l4.39,1.81l2.04,-2.18l-1.77,-5.21l1.25,-2.21l-0.77,-5.87l3.08,-2.07l9.01,2.63l0.32,5.42l12.31,-0.27l4.74,2.21l4.47,5.21l4.78,-4.57l1.43,-6.51l3.81,-1.04l1.93,-2.53l1.81,0.03l3.33,3.11l2.7,0.16l4.68,-1.94l1.11,-2.82l2.64,-1.7l5.42,0.98l4.37,-3.38l7.01,23.42l4.74,-1.75l6.43,3.29l6.91,-13.13l7.44,-5.24l2.24,-7.98L196.17,168.58z"/>
		<path id="AL-10" title="Shkodër" class="land" d="M96.43,8.66l0.56,3.66l4.29,5.32l0.42,2.96l-4.66,0.67l-0.77,1.99l1.13,2.71l-2,5.61l3.06,5.64l0.97,5.18l2.98,1.56l2.5,3.86l7.25,4.18l0,0l-3.29,9.38l3.75,9.38l-1.85,7.66l3.2,6.05l1.07,8.37l2.32,5.13l-2.38,8.55l0.5,2.49l5.48,4.7l1.77,-1.95l3.99,-0.85l4.45,-5.34l6.83,1.9l12.65,-2.19l2.84,4.22l4.03,0.11l8,6.01l5.7,0.67l4.11,4.25l7.54,0.53l1.43,2.7l7.66,3.84l2.66,-0.13l-1.35,5.39l-7.13,5.18l-2.88,3.92l-2.22,4.67l0.89,6.82l-5.54,5.41l4.67,1.15l4.61,-4.61l4.39,7.09l1.15,4.47l5.02,1.65l0,0l-28.86,13.52l-2.24,7.98l-7.44,5.24l-6.91,13.13l-6.43,-3.29l-4.74,1.75l-7.01,-23.42l-4.37,3.38l-5.42,-0.98l-2.64,1.7l-1.11,2.82l-4.68,1.94l-2.7,-0.16l-3.33,-3.11l-1.81,-0.03l-1.92,2.53l-3.81,1.04l-1.43,6.51l-4.78,4.57l-4.47,-5.21l-4.74,-2.21l-12.31,0.27l-0.32,-5.42l-9.01,-2.63l-3.08,2.07l0.77,5.88l-1.25,2.21l1.77,5.21l-2.04,2.18l-4.39,-1.81l-12.41,-9.7l-5.42,1.25l0.52,2.92l7.5,6.91l1.03,5.68l-1.67,5.52l0,0l-15.1,-3.58l-2.5,0.56l-3.16,3.56l-3.16,-0.96l2.06,-9.19L15.5,201l5.82,-3.83l-4.13,-4.68l0.02,-4.12l7.36,-2.53l-2.26,-2.55l1.03,-3.48l-1.93,-4.87l-0.5,-8.73l2.04,-9.43l4.25,-7.97L3.24,128.51l13.5,-16.15l1.57,-4.28l5,-6.23l0.54,-3.98l7.44,-8.61l-1.61,-6.23l1.79,-1.34l0.7,-4.39l2.4,-2.78l6.71,-2.81l5.22,-10.47l3.99,-2.84l3.85,-6.54l4.25,-7.7l0.85,-4.94l10.56,-7.46l-0.93,-9.4l9.67,-13.3l4.21,-0.62l4.49,-6.88L91.05,0l1.83,0.86l1.89,4.09l2.9,1.16L96.43,8.66z"/>
		<path id="AL-11" title="Tiranë" class="land" d="M128.88,305.16L133.13,305.64L141.41,312.03L145.7,318.1L148.71,326.38L157.41,330.42L160.31,334.21L161,338.35L166.3,331.71L168.9,331.24L179.02,344.49L186.59,344.52L188.57,348.95L188.57,348.95L187.38,350.95L174.06,357.11L172.99,359.64L173.63,365.64L164.22,372.01L159.81,371.69L155.13,368.74L152.15,369.59L143.95,383.63L133.27,392.01L123.43,395.93L119.4,399.81L117.93,403.73L115.29,403.36L111.58,406.96L108.92,406.54L104.41,408.56L100.52,405.62L98.38,405.88L96.65,407.51L95.77,412L89.26,417.3L87.2,423.54L81.42,427.05L81.42,427.05L78.09,423.78L74.3,425.9L73.36,423.3L71.18,424.9L71.78,422.81L70.78,422.52L68.6,424.64L66.75,422.54L62.88,423.67L62.29,425.98L58.74,426.29L58.46,430.1L51.05,428.23L49.05,430.12L47.64,428.21L46.83,432.53L42.84,427.24L39.8,428.5L41.57,431.77L39.06,430.38L39.38,432.11L37.36,434.13L38.97,439.5L34.18,440.76L34.18,440.76L38.13,418.56L37.66,410.66L34.16,402.1L38.39,401.57L40.77,398.74L43.07,388.23L47.98,382.6L49.88,377.9L50.32,370.85L50.32,370.85L55.68,371.9L62.69,370.53L66.52,373.77L74.5,361.51L73.07,353.21L74.3,345.71L70.57,339.22L70.11,326.7L71.52,324.38L73.15,324.88L76.04,323.06L79.42,324.75L83.41,322.8L82.95,319.89L85.75,318.44L86.25,330.37L90.24,333.34L95.46,332.98L106.89,323.75L113.32,322.82L115.92,320.84L119.3,322.08L128.71,309.02z"/>
		<path id="AL-12" title="Vlorë" class="land" d="M3.35,570.36l2.48,2.5l-1.47,5.12l-3.65,-5.41l-0.3,-4.81L3.35,570.36zM9.03,531.8l2.72,0.65l3.28,-3.41l3,-0.7l7.38,2.48l2.16,3.91l2.86,1.2l1.01,-3.1l5.92,-2.48l-0.28,3.68l1.33,2.11l1.91,-0.42l4.39,2.16l-1.67,3.96l6.45,-0.02l0.74,2.81l4.11,0.63l0.87,5.62l3.93,-2.73l2.52,1.3l-1.79,2.01l1.67,0.91l0.28,3.7l1.83,0.42l1.25,-1.48l2.62,2.97l1.97,-2.19l1.73,0.1l13.7,8.64l7.7,0.13l-3.02,8.14l1.25,1.09l5.16,-1.12l0.34,4.78l-2.02,6.81l4.76,2.18l0.32,2.36l3.51,3.66l0,0l2.08,4.49l3.43,3.12l-11.35,11.78l10.2,11.31l1.23,3.84l2.82,1.11l-1.85,3.37l2.26,4.22l0.48,4.92l5,7.95l3.43,11.15l9.15,6.93l8.14,17.5l2.32,0.54l4.7,-3.69l6.15,4.11l2.84,-1.99l12.41,12.68l1.19,3.43l5.58,5.63l6.39,3.17l4.49,4.9l7.46,2.32l-0.36,8.77l5.06,5.75l4.07,11.33l3.51,1.31l2.52,5.51l0,0l-2.98,3.11l3.51,5.74l-2.98,4.43l5.94,8.97l-7.68,4.94l-3.25,4.03l-0.34,6.24l-3.75,-3.13l-3,-0.33l-2.36,4.78l1.91,3.7l-1.01,1.18l-6.57,0.33l-12.15,-2.57l-7.48,-6.86l-2.86,0.26l-2.24,-2.16l-5.52,-0.59l-1.29,-2.29l-5.28,1.82l-0.63,2.11l-1.19,-0.8l-2.28,-0.13l-0.36,-4.65l2.8,-5.37l-0.56,-4.27l1.47,-2.11l-1.09,-0.62l-0.93,2.26l-0.65,1.29l-1.83,-0.69l-0.79,-2.49l2.14,-4.04l2.22,0.85l2.26,-3.76l-0.81,-3.09l-1.92,-0.26v-1.16l1.57,-0.62l2.24,-4.66l-0.58,-4.53l2.3,-2.19l-0.34,-4.17l-1.39,-3.12l-2.14,1.26l-2.64,-1.52l-0.91,0.95l-0.44,-1.62l-4.45,-1.7l-0.63,-3.27l-3.53,0.49l-0.91,-2.09l-3.77,0.44l-0.95,-2.71l1.87,0.59l1.09,-3.56l2.94,-1.19l-0.54,-3.97L118.78,691.19l-5.48,-3.77l-7.78,1.19l-0.6,-1.76l2.01,-0.46l-2.58,-1.68v-1.6l-2.68,-0.9l-0.18,3.59l-1.79,-5.79l-3.57,0.13l0.42,-4.76l-3.53,-0.46l-3.77,-3.28l-2.84,-0.02l-0.16,-2.22l-8.24,-1.24l-3.45,-3.9l-9.75,-5.3l-2.7,-3l-8.77,-3.23l-12.74,-7.92l-17.78,-21.43l-1.51,-2.36l1.33,-1.84l-2.88,-9.44l-8.06,-11.78l-6.85,-6.23l6.37,-4.55l7.46,4.34l9.33,11.71l0.42,9.13l2.78,5.19l6.69,-1.43l5.5,-4.9l-0.97,-7.91l1.21,-2.52l-1.27,-3.22l3.08,-8.67v-4.08l-6.45,-3.46l-6.89,-9.18l-4.8,-1.66l-2.92,-4.86l0.48,-1.53l-2.06,-1.46l-0.14,-8.79l-7.84,-15.1L9.03,531.8z"/>
	</g>
</svg>