<?xml version="1.0" encoding="utf-8"?>
<!-- (c) ammap.com | SVG map of Andorra High -->
<svg xmlns="http://www.w3.org/2000/svg" xmlns:amcharts="http://amcharts.com/ammap" xmlns:xlink="http://www.w3.org/1999/xlink" version="1.1">
	<defs>
		<style type="text/css">
			.land
			{
				fill: #CCCCCC;
				fill-opacity: 1;
				stroke:white;
				stroke-opacity: 1;
				stroke-width:0.5;
			}
		</style>

		<amcharts:ammap projection="mercator" leftLongitude="1.409450" topLatitude="42.654907" rightLongitude="1.786860" bottomLatitude="42.426982"></amcharts:ammap>

		<!-- All areas are listed in the line below. You can use this list in your script. -->
		<!--{id:"AD-02"},{id:"AD-03"},{id:"AD-04"},{id:"AD-05"},{id:"AD-06"},{id:"AD-07"},{id:"AD-08"}-->

	</defs>
	<g>
		<path id="AD-02" title="Canillo" class="land" d="M490.16,656.82L502.75,659.1L510.42,660.07L513.63,670.42L516.67,673.4L519.1,675.52L523.22,677.38L526.22,678.22L528.34,679.66L531.65,680.67L534.52,679.41L535.77,677.72L537.2,675.86L538.95,674.17L541.32,673.74L544.51,674.5L547.44,675.26L550.94,674.93L555.06,673.32L557.5,671.27L561.87,670.85L563.59,669.63L566.59,665.88L569.66,664.76L572.88,664.56L575.58,664.76L579.17,666.69L584.12,668.01L589.66,670.44L592.96,671.35L596.55,671.56L601.12,671.15L606.29,670.95L610.73,674.19L612.86,676.73L620.55,678.88L626.76,683.49L637.25,692.02L651.46,691.49L656.35,689.07L662.03,688.51L667.85,690.46L672.94,690.64L677.06,689.8L684.45,686.68L686.58,689.17L688.05,694.86L688.92,700.61L681.33,709.35L676.93,713.12L674.82,719.29L671.81,726.98L669.19,729.85L666.57,731.37L664.07,733.4L662.57,738.64L660.8,745.89L661.2,763.23L662.2,764.92L665.32,767.11L676.06,766.39L697.07,768.44L707.56,774.4L720.79,780.65L731.07,784.06L746.39,787.75L770.74,784.06L775.8,782.05L781.17,782.22L782.92,785.26L783.92,787.63L785.42,792.19L787.66,794.55L790.04,799.79L792,805.16L790.68,807.06L787.32,810.75L779.8,817.53L773.56,820.74L769.69,823.61L764.32,827.32L754.2,831.55L746.59,830.49L725.49,830.87L713.24,832.97L710.04,835.26L706.85,838.1L702.65,841.61L694.66,851.34L690.37,855.12L689.51,856.68L681.59,857.11L674.1,856.77L663.61,857.11L645.38,854.41L631.15,853.39L618.92,851.71L610.67,851.71L604.18,850.02L594.69,850.02L587.95,849.68L582.71,851.03L580.46,854.41L577.21,857.11L573.47,855.42L570.72,850.69L567.98,849.68L562.73,850.02L558.24,855.76L552.99,859.47L548,863.19L543,868.26L536.26,874.67L530.31,880.97L528.53,881.73L518.83,886.03L513.44,885.55L508.65,884.41L505.54,881.22L501.06,878.17L491.19,877.64L489.25,875.62L486.55,873.29L482.88,869.13L479.96,866.3L477.41,865.79L474.64,866.4L471.64,868.42L464.45,869.54L462.13,870.55L458.46,871.26L456.12,871.77L453.05,873.69L448.03,878.56L445.21,882.24L443.75,885.31L440.26,885.85L438.55,884.89L431.78,886.56L429.17,889.09L426.87,891.66L424.17,892.87L419.68,892.6L415.69,891.25L414.74,890.05L411.95,886.09L407.56,883.93L405.36,882.45L398.57,882.85L384.49,883.12L369.8,883.66L316.13,885.99L319.49,884L327.88,878.61L331.81,877.02L334.19,872.97L335.43,866.04L338.06,857.77L338.06,851.52L336.31,844.94L333.69,839.7L330.09,837.17L328.67,834.73L328.07,832.1L328.22,827.84L327.17,822.67L325.52,819.23L324.25,816.19L324.17,809.42L325.6,801.31L325.67,793L325.07,787.22L323.95,782.86L322.32,781.75L322.43,779.8L323.15,777.85L325.59,775.74L328.52,774.9L330.74,772.69L333.19,769.88L336.86,768.05L339.93,765.32L342.1,761.36L343.53,758.42L344.13,755.08L343.45,750.46L344.72,744.79L345.02,740.43L345.7,736.98L348.17,734.85L349.74,732.92L351.39,730.69L352.81,728.66L354.84,727.75L359.41,726.74L367.13,724.69L369.45,721.9L372.82,719.71L375.06,716.16L380.56,710.77L382.8,706.35L385.05,703.65L387.55,701.79L392.54,700.1L396.79,699.25L403.41,697.73L409.27,697.56L410.44,695.23L410.85,691.47L410.28,688.17L409.09,686.63L407.91,685.13L407.64,681.79L409.53,673.54L407.14,669.72L405.04,666.17L404.07,662.23L405.78,661.67L407.68,661.04L411.18,658.04L415.11,654.06L418.94,654.71L421.94,659.1L431.05,658.93L436.23,661.04L441.26,659.74L449.29,658.28L456.54,658.48L463.8,656.66L467.63,652.44L473.27,649.68L475.66,649.36L478.9,651.95L482.97,655.2z"/>
		<path id="AD-03" title="Encamp" class="land" d="M587.95,849.68L594.69,850.02L604.18,850.02L610.67,851.71L618.92,851.71L631.15,853.39L645.38,854.41L663.61,857.11L674.1,856.77L681.59,857.11L689.51,856.68L688.07,859.31L686.88,866.19L682.87,871.27L680.97,873.97L680.17,877.75L680.47,880.99L681.37,884.37L680.97,892.07L679.57,896.8L679.17,902.61L679.37,908.68L680.28,918.63L680.87,921.96L679.47,926.15L676.77,930.87L675.07,932.9L672.78,935.06L671.88,938.98L670.58,942.89L668.88,945.19L664.79,949.91L660.59,956.8L658.19,960.04L655.3,962.05L655.2,969.98L663.79,974.97L664.59,989.69L665.19,996.31L665.29,1009.53L664.79,1011.29L663.49,1013.11L654.04,1017.65L650.9,1019.86L647.01,1025.8L642.55,1033.42L637.62,1039.97L634.42,1044.02L630.53,1047.26L626.53,1049.55L622.34,1050.9L618.74,1050.63L612.35,1045.37L607.15,1041.86L596.52,1032.55L591.52,1030.39L587.43,1029.98L582.93,1030.79L579.04,1032.14L573.94,1032.28L567.17,1033.06L559.91,1034.44L555.32,1035.92L545.63,1036.33L538.05,1035.24L536.45,1036.07L533.14,1037.42L532.02,1039.95L520.2,1038.13L514.21,1035.97L500.82,1032.73L492.83,1031.65L481.04,1028.41L472.25,1025.44L461.67,1024.09L454.77,1021.6L449.16,1018.53L445.29,1016.33L442.91,1014.81L439.92,1014.65L437.05,1014.81L434.8,1017.01L431.68,1019.88L429.68,1020.72L423.31,1021.9L414.95,1019.88L409.2,1018.19L403.35,1012.4L392.72,1006.55L384.48,1001.82L377.12,995.24L370.62,988.49L362.76,981.4L354.89,976.17L345.9,969.08L340.78,964.43L337.66,961.89L334.79,961.72L331.3,963.58L328.42,965.27L325.8,964.59L323.18,962.74L318.32,963.41L315.15,965.98L312.33,970.33L310.58,973.03L305.84,975.56L300.59,976.07L295.73,975.06L291.11,971.18L287.36,966.28L285.61,960.88L284.24,951.6L283.86,948.05L285.86,945.18L287.6,942.75L287.86,938.94L286.74,934.55L286.49,930.5L287.73,926.28L290.23,923.07L292.98,919.69L297.47,915.47L300.47,912.94L302.72,908.89L305.21,905.85L307.71,902.3L308.58,899.43L309.8,894.55L309.96,891.04L311.08,888.51L312.4,885.11L316.13,885.99L369.8,883.66L384.49,883.12L398.57,882.85L405.36,882.45L407.56,883.93L411.95,886.09L414.74,890.05L415.69,891.25L419.68,892.6L424.17,892.87L426.87,891.66L429.17,889.09L431.78,886.56L438.55,884.89L440.26,885.85L443.75,885.31L445.21,882.24L448.03,878.56L453.05,873.69L456.12,871.77L458.46,871.26L462.13,870.55L464.45,869.54L471.64,868.42L474.64,866.4L477.41,865.79L479.96,866.3L482.88,869.13L486.55,873.29L489.25,875.62L491.19,877.64L501.06,878.17L505.54,881.22L508.65,884.41L513.44,885.55L518.83,886.03L528.53,881.73L530.31,880.97L536.26,874.67L543,868.26L548,863.19L552.99,859.47L558.24,855.76L562.73,850.02L567.98,849.68L570.72,850.69L573.47,855.42L577.21,857.11L580.46,854.41L582.71,851.03z"/>
		<path id="AD-04" title="La Massana" class="land" d="M140.51,725.76L142.26,727.62L143.88,729.48L148.37,730.33L152.37,732.19L159.98,734.92L161.86,738.61L165.35,740.3L168.72,739.96L171.46,738.85L177.21,741.65L180.59,749.59L180.61,755.14L179.96,759.32L181.28,764.19L182.36,769.38L182.12,776.03L181.76,781.22L182.6,785.43L182.96,792.08L185.12,796.62L188.35,800.03L190.51,803.92L192.07,809.27L194.71,814.14L198.54,819.46L203.22,823.62L205.97,826.22L210.17,827.68L214.6,829.3L216.76,832.7L218.2,837.41L220.36,842.43L222.63,843.24L225.27,844.7L228.15,849.08L228.75,853.46L227.55,856.21L227.55,861.24L227.55,865.46L230.19,869.35L230.87,873.51L231.71,874.24L232.83,876.53L238.46,875.99L244.21,874.86L245.89,875.99L251.28,876.64L256.19,878.75L261.47,880.05L268.59,884.07L274.02,885.51L280.05,883.59L286.42,883.43L290.04,880.89L295.65,879.54L299.77,880.89L307.77,882.07L312.4,885.11L311.08,888.51L309.96,891.04L309.8,894.55L308.58,899.43L307.71,902.3L305.21,905.85L302.72,908.89L300.47,912.94L297.47,915.47L292.98,919.69L290.23,923.07L287.73,926.28L286.49,930.5L286.74,934.55L287.86,938.94L287.6,942.75L285.86,945.18L283.86,948.05L282.55,946.44L280.36,946.9L277.69,949.43L271.45,950.95L264.33,951.96L257.46,950.61L250.53,947.37L239.61,948.08L236.07,951.29L231.82,949.1L227.08,950.28L223.89,954.67L222.65,957.2L219.02,960.41L214.41,961.08L208.16,961.42L203.29,962.09L200.05,966.48L195.8,969.86L192.58,970.02L189.31,970.19L185.19,971.38L182.07,975.09L179.57,976.44L175.45,976.27L170.96,976.44L165.21,975.26L160.09,976.1L154.98,976.27L150.35,978.46L142.99,980.83L135.37,982.52L131.88,984.88L127.01,987.75L122.01,988.93L119.84,989.38L120.6,988.04L119.52,982.86L117.85,978.16L109.1,958.23L105.98,952.24L102.74,947.54L97.83,942.51L95.31,939.44L92.08,934.09L89.56,927.28L88.48,922.1L88.72,917.88L90.16,914.96L91.12,912.53L91.13,907.28L89.45,905.01L85.68,902.45L80.01,899.61L74.76,896.49L71.19,895.07L67,894.22L63.64,894.22L60.28,894.79L57.97,896.49L50.67,900.64L44.43,903.23L39.63,906.02L36.35,906.43L34.04,906.99L30.69,908.7L26.07,912.1L23.97,913.52L19.86,917.17L14.71,917.82L11.8,916.93L10.96,916.64L10.54,915.79L10.12,912.39L10.54,907.56L13.27,904.69L15.19,902.42L16.75,899.5L19.74,894.64L22.14,892.21L22.29,886.56L22.29,884.85L21.87,878.89L22.5,876.91L24.81,872.93L27.96,866.12L29.85,861.86L32.16,856.47L36.14,851.64L39.5,847.95L41.39,846.81L46.22,845.4L50.63,843.41L55.66,840.85L62.59,837.73L66.16,835.46L68.26,833.19L71.82,829.78L72.87,827.79L73.29,825.24L73.5,821.55L73.08,819.27L72.24,817L71.4,815.01L70.77,813.88L68.68,812.46L63.01,811.32L59.23,810.75L56.92,809.62L54.19,808.2L51.88,806.78L50.63,805.08L48.32,801.38L45.17,796.84L43.7,794.57L42.23,792.58L39.29,787.75L37.4,785.2L36.56,783.49L36.56,782.36L36.77,781.22L37.82,779.52L38.24,777.53L38.66,775.82L38.66,774.12L39.08,771.56L39.71,770.14L40.76,769.57L42.23,769.01L45.8,767.87L47.48,767.02L49.79,764.46L55.24,759.06L60.49,755.66L64.9,751.11L65.95,748.84L67,743.73L67.63,739.18L69.1,736.91L70.35,733.21L70.98,728.1L70.98,724.74L82.32,724.69L88.19,726.4L92.39,726.4L97.47,727.3L100.83,726.33L103.1,724.54L105.86,717.4L112.33,717.02L115.06,714.75L124.5,714.75L130.96,723.48L137.14,725.26z"/>
		<path id="AD-05" title="Ordino" class="land" d="M404.07,662.23L405.04,666.17L407.14,669.72L409.53,673.54L407.64,681.79L407.91,685.13L409.09,686.63L410.28,688.17L410.85,691.47L410.44,695.23L409.27,697.56L403.41,697.73L396.79,699.25L392.54,700.1L387.55,701.79L385.05,703.65L382.8,706.35L380.56,710.77L375.06,716.16L372.82,719.71L369.45,721.9L367.13,724.69L359.41,726.74L354.84,727.75L352.81,728.66L351.39,730.69L349.74,732.92L348.17,734.85L345.7,736.98L345.02,740.43L344.72,744.79L343.45,750.46L344.13,755.08L343.53,758.42L342.1,761.36L339.93,765.32L336.86,768.05L333.19,769.88L330.74,772.69L328.52,774.9L325.59,775.74L323.15,777.85L322.43,779.8L322.32,781.75L323.95,782.86L325.07,787.22L325.67,793L325.6,801.31L324.17,809.42L324.25,816.19L325.52,819.23L327.17,822.67L328.22,827.84L328.07,832.1L328.67,834.73L330.09,837.17L333.69,839.7L336.31,844.94L338.06,851.52L338.06,857.77L335.43,866.04L334.19,872.97L331.81,877.02L327.88,878.61L319.49,884L316.13,885.99L312.4,885.11L307.77,882.07L299.77,880.89L295.65,879.54L290.04,880.89L286.42,883.43L280.05,883.59L274.02,885.51L268.59,884.07L261.47,880.05L256.19,878.75L251.28,876.64L245.89,875.99L244.21,874.86L238.46,875.99L232.83,876.53L231.71,874.24L230.87,873.51L230.19,869.35L227.55,865.46L227.55,861.24L227.55,856.21L228.75,853.46L228.15,849.08L225.27,844.7L222.63,843.24L220.36,842.43L218.2,837.41L216.76,832.7L214.6,829.3L210.17,827.68L205.97,826.22L203.22,823.62L198.54,819.46L194.71,814.14L192.07,809.27L190.51,803.92L188.35,800.03L185.12,796.62L182.96,792.08L182.6,785.43L181.76,781.22L182.12,776.03L182.36,769.38L181.28,764.19L179.96,759.32L180.61,755.14L180.59,749.59L177.21,741.65L171.46,738.85L168.72,739.96L165.35,740.3L161.86,738.61L159.98,734.92L152.37,732.19L148.37,730.33L143.88,729.48L142.26,727.62L140.51,725.76L137.14,725.26L130.96,723.48L124.5,714.75L127.23,709.92L135.68,698.74L137.6,696.15L140.6,692.58L139.4,688.84L137.24,685.92L135.08,680.24L134.36,676.35L133.55,670.82L132.06,669L130.57,665.19L126.45,662.55L126.57,658.49L128.03,656.14L127.86,653.93L126.23,649.33L123.1,646.11L122.5,642.38L123.58,639.46L124.89,636.86L125.73,631.5L128.13,628.9L130.29,625.98L133.62,625.38L135.2,623.63L137.84,619.89L140.48,616.97L141.07,612.75L141.07,609.34L140.48,606.09L140.84,602.36L143.39,600.21L144.02,595.09L143.59,588.07L144.91,586.12L150.11,585.71L153.47,585.42L156.83,585.42L161.44,585.71L165.64,585.71L167.18,583.04L171.02,581.74L175.93,582.29L176.98,583.43L180.75,589.12L183.48,593.95L185.37,597.93L187.68,601.91L189.78,603.62L190.62,604.19L199.43,605.04L208.88,603.62L217.79,602.95L224.83,604.47L229.96,605.12L232.96,601.39L235.32,596.23L240.88,592.62L244.48,590.51L246.76,589.05L251.19,588.07L255.15,590.02L259.46,593.43L263.66,592.25L267.86,588.27L269.87,585.86L273.36,585.15L278.28,582.71L285.83,579.3L290.98,577.36L294.7,577.19L301.65,581.44L308.6,586.93L312.44,586.77L314,585.31L316.99,582.22L322.64,582.01L323.47,582.94L327.4,591.16L331.23,595.87L335.07,598.95L345.09,597.93L347.05,603.5L348.37,605.61L348.37,613.08L349.93,615.02L354.12,614.71L354.92,617.11L354.46,620.95L354.82,625.17L356.74,628.9L359.37,632.64L364.41,637.35L367.65,639.78L374.36,639.78L382.27,640.75L386.46,643.51L388.98,647.25L392.53,651.66L396.94,657.91L399.65,662.34L403.24,662.5z"/>
		<path id="AD-06" title="Sant Julià de Lòria" class="land" d="M100.62,1035.39L106.24,1039.6L110.76,1042.23L114.63,1044.94L118.88,1048.48L124.5,1052.69L131.11,1056.74L136.6,1059.44L142.97,1064L150.09,1069.73L156.71,1075.47L163.2,1081.54L169.44,1084.74L174.94,1085.76L182.18,1082.89L186.42,1081.03L191.54,1076.48L196.66,1073.27L201.16,1073.44L206.4,1074.62L211.75,1076.65L216.62,1078.67L224.61,1081.71L234.73,1082.55L243.09,1082.72L255.45,1083.06L261.57,1084.41L273.93,1085.42L282.17,1084.91L282.67,1092.33L284.29,1098.07L286.79,1101.95L291.29,1102.79L295.53,1102.96L298.59,1103.65L300.15,1104.98L300.52,1108.02L300.52,1110.88L301.52,1116.11L304.4,1119.65L307.02,1122.18L311.01,1127.07L314.88,1131.79L316.76,1134.66L318.09,1137.65L316.74,1139L315.79,1140.76L314.7,1147.53L315.06,1151.27L316.69,1157.46L315.98,1166.09L317.6,1176.07L316.91,1179.82L313.97,1180.6L309.6,1181.02L306.16,1183.55L305.54,1189.45L305.23,1198.3L305.54,1204.62L304.92,1211.36L302.73,1213.05L296.49,1213.89L293.99,1212.2L291.81,1211.78L288.68,1213.05L285.56,1213.47L279.32,1213.47L276.51,1212.2L273.39,1212.2L271.21,1214.73L262.78,1213.89L262.6,1213.81L259.25,1214.66L248.44,1214.66L244.67,1218.52L240.62,1219.79L236.56,1220.21L228.44,1224L215.96,1222.74L209.4,1221.47L202.85,1217.68L201.72,1215.96L191.04,1210.7L182.64,1208.71L169.21,1209L158.51,1210.13L156.69,1209.81L149.88,1207.93L140.42,1204.2L132.62,1203.35L127.31,1202.09L125.34,1200.54L98.64,1199.59L95.05,1197.65L88.4,1197.1L85.89,1195.96L82.11,1193.98L78.33,1189.45L74.34,1184.91L71.61,1180.38L70.98,1179.53L70.98,1178.68L72.03,1178.39L74.76,1178.39L76.57,1178.78L76.11,1175.48L75.75,1172.89L75.03,1169.82L73.71,1168.04L73.23,1165.12L72.16,1161.89L70.96,1160.11L68.92,1158.65L68.26,1150.34L68.05,1147.22L68.26,1144.95L68.68,1144.1L69.72,1142.69L71.4,1140.98L74.76,1137.87L76.44,1136.45L79.17,1132.77L78.96,1130.78L78.54,1129.93L76.65,1128.23L73.5,1126.24L70.77,1124.26L67.83,1121.71L66.37,1119.73L65.53,1117.74L64.9,1112.92L65.11,1108.67L64.9,1103L64.9,1100.45L64.48,1096.76L64.69,1094.49L65.32,1091.94L66.44,1089.86L65.03,1087.14L58.81,1081.27L52.37,1073.88L48.7,1069.73L30.27,1069.43L26.65,1068.59L23.8,1067.91L22.6,1067.98L21.01,1068.79L18.76,1069.33L16.76,1068.59L15.36,1065.96L13.88,1063.86L9.99,1064.13L7.89,1064.13L6.79,1064.94L5.29,1065.62L3.6,1065.35L2.2,1064L1.2,1062.51L0.5,1060.76L0,1058.33L1.5,1055.36L3.6,1053.74L6.09,1051.99L9.29,1049.56L11.89,1046.99L13.48,1044.97L15.08,1042.68L17.98,1040.92L20.68,1039.71L27.27,1039.57L29.77,1039.03L32.56,1037.82L35.07,1037.61L43.21,1037.98L56.49,1037.98L63.29,1036.64L66.87,1033.23L74.27,1031.78L79.17,1029.62L84.66,1026.11L86.07,1024.44L90.14,1028.13L95.25,1032.18z"/>
		<path id="AD-07" title="Andorra la Vella" class="land" d="M250.92,971.71L255.17,978.13L256.17,980.83L257.29,986.23L259.54,991.29L262.54,997.2L264.41,1002.26L265.16,1006.31L264.66,1009.68L260.29,1012.05L258.54,1014.91L259.29,1019.13L261.16,1024.7L263.29,1027.06L265.41,1032.54L267.78,1038.45L270.15,1042.67L273.4,1043.85L275.02,1048.06L276.4,1053.29L278.27,1056.16L280.64,1059.7L283.51,1062.74L285.38,1065.95L287.51,1069.49L288.76,1072.36L288.76,1075.22L286.01,1079.95L282.17,1084.91L273.93,1085.42L261.57,1084.41L255.45,1083.06L243.09,1082.72L234.73,1082.55L224.61,1081.71L216.62,1078.67L211.75,1076.65L206.4,1074.62L201.16,1073.44L196.66,1073.27L191.54,1076.48L186.42,1081.03L182.18,1082.89L174.94,1085.76L169.44,1084.74L163.2,1081.54L156.71,1075.47L150.09,1069.73L142.97,1064L136.6,1059.44L131.11,1056.74L124.5,1052.69L118.88,1048.48L114.63,1044.94L110.76,1042.23L106.24,1039.6L100.62,1035.39L95.25,1032.18L90.14,1028.13L86.07,1024.44L87.86,1022.33L88.54,1017.76L89.11,1016.3L92.48,1013.57L94.58,1011.65L98.62,1006.99L102.37,1004.46L106.12,1002.74L114.36,994.74L119.35,990.25L119.84,989.38L122.01,988.93L127.01,987.75L131.88,984.88L135.37,982.52L142.99,980.83L150.35,978.46L154.98,976.27L160.09,976.1L165.21,975.26L170.96,976.44L175.45,976.27L179.57,976.44L182.07,975.09L185.19,971.38L189.31,970.19L192.58,970.02L195.8,969.86L200.05,966.48L203.29,962.09L208.16,961.42L214.41,961.08L219.02,960.41L222.65,957.2L223.89,954.67L227.08,950.28L231.82,949.1L236.07,951.29L237.82,957.54L240.56,964.46L242.19,967.16L244.43,967.83L248.55,968.51z"/>
		<path id="AD-08" title="Escaldes-Engordany" class="land" d="M236.07,951.29L239.61,948.08L250.53,947.37L257.46,950.61L264.33,951.96L271.45,950.95L277.69,949.43L280.36,946.9L282.55,946.44L283.86,948.05L284.24,951.6L285.61,960.88L287.36,966.28L291.11,971.18L295.73,975.06L300.59,976.07L305.84,975.56L310.58,973.03L312.33,970.33L315.15,965.98L318.32,963.41L323.18,962.74L325.8,964.59L328.42,965.27L331.3,963.58L334.79,961.72L337.66,961.89L340.78,964.43L345.9,969.08L354.89,976.17L362.76,981.4L370.62,988.49L377.12,995.24L384.48,1001.82L392.72,1006.55L403.35,1012.4L409.2,1018.19L414.95,1019.88L423.31,1021.9L429.68,1020.72L431.68,1019.88L434.8,1017.01L437.05,1014.81L439.92,1014.65L442.91,1014.81L445.29,1016.33L449.16,1018.53L454.77,1021.6L461.67,1024.09L472.25,1025.44L481.04,1028.41L492.83,1031.65L500.82,1032.73L514.21,1035.97L520.2,1038.13L532.02,1039.95L530.65,1044.59L530.65,1048.28L530.77,1056.63L530.77,1064.64L530.46,1072.91L529.71,1075.61L528.96,1078.73L528.4,1081.09L528.58,1083.2L530.15,1085.05L531.02,1088L533.99,1091.94L533.99,1095.06L531.05,1097.33L527.36,1100.25L524.66,1105.1L521.4,1111.5L518.04,1113.21L508.17,1113.77L503.77,1112.35L499.99,1110.65L496.63,1112.07L493.27,1114.97L489.38,1116.99L483.68,1115.78L480.98,1111.64L477.29,1111.19L474.38,1114.06L470.8,1116.59L468.1,1118.88L466.96,1122.49L464.27,1123.46L461,1123.17L459.69,1121.8L454.44,1119.44L451.5,1117.96L447.18,1116.66L442.48,1120.01L439.12,1119.73L433.03,1118.88L428.21,1119.16L422.96,1120.86L418.76,1121.43L413.94,1120.58L408.27,1118.59L401.97,1113.77L397.13,1113.89L394.21,1114.62L392.79,1116.27L389.04,1117.4L384.74,1118.88L380.84,1120.1L377.15,1123.74L373.35,1129L369.16,1137.09L368.18,1141.27L363.14,1157.14L361.04,1161.11L358.32,1162.81L354.24,1162.08L349.71,1157.14L344.46,1151.47L337.54,1142.12L335.62,1137.7L333.2,1135.36L330.89,1134.73L327.65,1135.04L326.15,1136.29L324.33,1138.19L322.48,1137.99L320.24,1138.13L318.09,1137.65L316.76,1134.66L314.88,1131.79L311.01,1127.07L307.02,1122.18L304.4,1119.65L301.52,1116.11L300.52,1110.88L300.52,1108.02L300.15,1104.98L298.59,1103.65L295.53,1102.96L291.29,1102.79L286.79,1101.95L284.29,1098.07L282.67,1092.33L282.17,1084.91L286.01,1079.95L288.76,1075.22L288.76,1072.36L287.51,1069.49L285.38,1065.95L283.51,1062.74L280.64,1059.7L278.27,1056.16L276.4,1053.29L275.02,1048.06L273.4,1043.85L270.15,1042.67L267.78,1038.45L265.41,1032.54L263.29,1027.06L261.16,1024.7L259.29,1019.13L258.54,1014.91L260.29,1012.05L264.66,1009.68L265.16,1006.31L264.41,1002.26L262.54,997.2L259.54,991.29L257.29,986.23L256.17,980.83L255.17,978.13L250.92,971.71L248.55,968.51L244.43,967.83L242.19,967.16L240.56,964.46L237.82,957.54z"/>
	</g>
</svg>