<?xml version="1.0" encoding="utf-8"?>
<!-- (c) ammap.com | SVG map of Angola - High -->
<svg xmlns="http://www.w3.org/2000/svg" xmlns:amcharts="http://amcharts.com/ammap" xmlns:xlink="http://www.w3.org/1999/xlink" version="1.1">
	<defs>
		<style type="text/css">
			.land
			{
				fill: #CCCCCC;
				fill-opacity: 1;
				stroke:white;
				stroke-opacity: 1;
				stroke-width:0.5;
			}
		</style>

		<amcharts:ammap projection="mercator" leftLongitude="11.670375" topLatitude="-4.372036" rightLongitude="24.083069" bottomLatitude="-18.042991"></amcharts:ammap>

		<!-- All areas are listed in the line below. You can use this list in your script. -->
		<!--{id:"AO-BGO"},{id:"AO-BGU"},{id:"AO-BIE"},{id:"AO-CAB"},{id:"AO-CCU"},{id:"AO-CNO"},{id:"AO-CUS"},{id:"AO-CNN"},{id:"AO-HUA"},{id:"AO-HUI"},{id:"AO-LUA"},{id:"AO-LNO"},{id:"AO-LSU"},{id:"AO-MAL"},{id:"AO-MOX"},{id:"AO-NAM"},{id:"AO-UIG"},{id:"AO-ZAI"}-->

	</defs>
	<g>
		<path id="AO-BGO" title="Bengo" class="land" d="M106.31,267.56l2.06,0.54l2.22,-0.2l2.17,0.28l1.13,-0.38l4.56,0.39l2.14,-0.2l1.08,0.36l0.96,1.13l-0.03,1.09l1.07,0.95l1.08,0.37l0.82,1.14l1.09,0.78l3.83,4.8l1.09,0.78l2.34,0.65l2.39,1.43l3.47,0.34l7.31,-1.54l2.41,0.3l1.14,0.95l0.25,1.28l-0.61,4.74l0.18,3.3l-0.33,1.11l-3.03,4.58l-0.64,2.3l-0.07,2.54l0.9,2.77l0,0l-3.16,1.66l-6.52,0.1l-1.63,-0.43l-2.19,0.07l-2.38,1.75l-1.07,0.23l-1.61,1.39l-0.6,1.89l0,1.2l0.57,1.14l2.56,1.91l0.64,1.21l1.68,4.61l0.14,2.29l-1.83,3.16l-3.46,2.45l-3.65,1.43l-4.5,0.28l-1.19,2.08l-0.14,1.12l2.23,1.02l1.07,1.03l0.48,2.43l-0.85,1.08l-2.31,0.54l-1.12,0.76l-0.42,1.21l1.11,1.06l3.67,0.07l1.15,0.79l0.64,1.15l-1.16,1.04l-0.14,1.15l2.07,2.22l-0.18,1.23l-2.22,1.95l-0.55,1.1l-0.68,3.41l-2.21,5.16l1.37,0.39l0.26,0.37l1.06,3.7l1.25,0.85l1.14,0.23l3.31,-0.21l0.73,0.59l0.51,1.59l1.4,0.73l4.24,-0.47l3.19,1.63l1.01,1.74l1.56,0.5l0.97,1.12l1.76,-0.77l0,0l0.69,9.68l-2.43,3.12l0.28,1.48l2.28,3.71l0.03,1.11l-1.26,0.86l-0.55,1.08l0.11,1.06l0.69,1.35l2.26,1.81l0.62,2.28l-1.21,3.28l-1.01,1.52l-1.23,1.09l-2.33,-0.61l-1.23,-0.72l-3.86,-4.6l-2.34,-0.33l-2.23,-1.48l-1.05,-0.23l-3.5,-0.33l-1.15,0.4l-2.4,1.14l-3.01,3.13l-1.84,0.78l-1.04,1.02l-1.11,0.14l-0.96,-1.08l-1.98,-0.81l-5.31,0.69l-0.37,-0.32l0.05,-0.55l-2.99,-0.01l-1.8,-0.95l-0.55,0.06l0.39,0.87l-0.97,0.25l-2.7,-4.13l-3.1,-1.76l-1.13,0l-0.34,-0.32l-0.07,-1.06l-2.11,-0.5l-1.23,1.49l0,0l-0.11,-0.49l-0.53,-0.03l-0.6,-0.68l-0.82,-1.51l-0.01,-1.27l-0.77,-1.04l-0.07,-0.94l-1.59,-1.98l-0.25,0.1l-1.97,-1.82l-0.1,-0.76l-2.35,-2.47l-0.11,-0.41l0.88,0.07l0.67,-1.13l-1.48,-2.98l0.08,-1.2l-1.27,-2.56l-4.56,-6.49l-0.04,-0.59l0.47,0.13l0.67,-0.39l0.95,-1.66l-0.53,-1.57l-1.66,-2.33l0.47,-0.3l-0.21,-0.76l0.41,-0.54l-1.77,-2.99l0.42,-1.17l-0.05,-1.48l-1.4,-3.14l0.57,-0.4l0.22,-0.92l0.92,0.35l0.25,-0.99l0.41,-0.26l-0.24,-0.58l0.64,-0.15l0.69,-1.1l-0.03,-0.55l0,0l0.51,-2.36l1.09,-1.11l1.49,-0.34l1.55,-1.41l0.5,-0.08l2.11,0.99l0.52,-0.12l0.44,0.6l0.28,-0.23l-0.09,-1.03l3.2,0.34l0.59,0.39l0.44,-0.27l-0.42,-4.67l1.49,-4.65l1.5,-1.1l-0.02,-2.75l0.42,-0.48l3.46,-1.55l1.42,-0.06l-0.04,-0.59l-5.49,-9.64l-2.28,1.33l-3.59,-2.35l0,0l-1.51,-2.19l-0.14,-2.39l-1.16,-3.19l0.47,-0.33l0.88,0.28l0.78,-0.6l0.19,-0.78l0.04,-1.35l0.18,-0.41l-0.33,-1.28l-2.04,-4.06l-2.59,-3.57l-0.33,-1.21l-1.26,-1.4l0.12,-1.9l-2.64,-3.06l-0.63,-2.03l-1.07,-1.74l-1.31,-2.42l-0.29,-1.83l-1.01,-1.04l-1.45,-2.58l0.38,-0.19l0.36,0.51l0.26,-0.27l0.75,0.66l-0.12,-0.52l0.85,0.15l-0.34,-0.47l0.47,-0.14l0.21,-0.51l-1.55,-0.53l-0.86,0.34l-0.81,-0.86l0,0l4.47,-0.88l1.92,-0.8l1.76,-1.66l1.89,0.73l1.07,-1.62l4.26,-1.18l1.01,0.34l2.26,1.87l2.32,0l1.16,-0.88l2.66,-0.35l0.83,-0.55l0.95,0.1l1.47,-1.27l1.5,-0.37l0.94,0.41l1.16,-0.11L106.31,267.56z"/>
		<path id="AO-BGU" title="Benguela" class="land" d="M104.98,473.86l5.21,-0.37l3.43,1.54l3.41,-1.09l2.44,0.54l0.41,1.09l0.29,3.77l0.76,1.08l2.47,0.76l1.21,0.93l1.35,2.35l1.04,1.03l2.49,-1.07l2.81,-4.6l1.09,-0.76l3.56,-1.99l1.29,-0.32l1.13,0.21l2.18,2.27l3.56,4.75l2.97,5.97l4.7,0.58l1.15,-0.32l1.16,-0.86h1.15l5.77,2.81l1.05,0.75l0.28,2.35l2.27,0.47l0,0l-0.17,7.62l1.91,4.71l-0.64,1.05l1.26,2.17l-0.9,1.32l-3.73,0.59l-2.49,1.12l-1.35,1.14l-0.44,1.24l-3.46,1.86l-1.25,1.12l1.28,2.48l-0.79,1.05l0,1.28l1.87,3.74l0.04,2.32l3.55,6l0.84,4.88l-1.29,3.59l2.57,5.02l1.05,1.24l3.3,1.5l0.18,1.09l0.94,1.16l2.11,0.85l0,0l-0.96,4.44l-1.98,-0.04l-2.39,1.01l-1.18,1.11l-1.08,-0.1l-1.05,-0.9l-1.13,-0.31l-1.46,1.08l-4.1,4.52l-4.9,1.78l-2.42,0.63l-6.32,-2.98l-1.07,-0.28l-1.22,0.7l0.15,2.21l-1.12,0.39l-4.87,9.95l-1.1,0.35l-1.33,0.21l-4.63,-0.28l-3.82,-0.59l-2.39,-0.77l-2.42,0.66l-3.37,-1.55l-1.49,-0.22l-1.19,0.21l-2.39,1.53h-1.12l-4.65,-0.77l-2.24,-1.83l-1.15,-0.11l-5.79,2.35l0,0l-1.41,0.31l-1.07,-0.24l-2.16,-1.32l-1.25,-0.25l-2.21,1.27l-1.19,-0.76l-1.51,-3.59l-2.79,-3.54l-0.34,-1.08l0.22,-1.18l1.13,-2.35l-0.31,-1.19l-1.09,-0.62l-3.35,-0.99l-3.75,-0.3l-2.23,-1.08l-1.22,0.2l-0.85,2.3l-3.65,1.02l-4.28,1.98l-1.07,-0.45l-2.09,-1.87l-2.54,-0.05l-2.25,-1.1l-3.51,-0.33l-2.25,-0.87l-3.43,-0.03l0,0l-0.26,-0.42l0.36,-0.78l-0.82,-0.28l0.36,-0.81l-0.27,-0.21l0.26,-1.09l-0.7,-0.29l0.43,-0.69l-0.14,-0.95l0.74,0.14l0.26,-1.01l0.42,-0.07l0.26,0.59l0.79,-0.8l0.34,0.1l1.26,-1.94l1.88,-0.94l0.06,-1.33l-0.7,-1.22l0.84,0.27l0.19,-0.31l-0.73,-0.27l0.51,-1.96l0.82,0.66l1.73,-1.03l0.22,-0.75l-0.26,-0.57l0.55,0.2l0.18,0.85l0.44,0.03l0.95,-0.74l-0.27,-0.38l0.37,-0.56l0.75,0.18l0.33,-0.39l0.55,0.02l0.56,-1.66l-0.75,-0.38l1.96,-1.23l0.12,0.53l0.36,-0.08l0.59,-1.19l1.73,-0.53l0.82,-2.04l1.14,-1.01l0.11,-0.68l1.19,-0.63l0.1,-0.59l1.07,-1.22l0.64,0.02l-0.08,-1.24l-1.83,-4.48l0.01,-1.74l1.49,-0.71l2.04,-2.43l2.22,-1.52l1.03,-1.37l0.93,-0.31l1.03,-1.38l1.11,-0.54l0.52,-1.69l2.04,-1.7l0.62,-0.19l-0.1,0.68l0.78,0.38l0.4,-0.25l0.42,0.42l1.56,-1.12l-0.08,-0.85l1,0.31l0.82,-0.47l0.01,0.46l0.9,1l1.1,0.2l1.85,-1.03l1.3,-1.67l3.34,-2.48l0.53,-1.66l-0.38,-1.11l1.9,-4.14l1.6,-1.32l0.4,0.38L94,502.77l3.79,-5.18l0.1,-1.66l0.96,-3.28l1.11,-0.9l0.62,-1.15l0.86,-5.76l1.84,-1.65L104.98,473.86z"/>
		<path id="AO-BIE" title="Bié" class="land" d="M243.56,413.91L244.92,414.76L245.11,415.28L244.24,415.77L244.06,416.29L244.51,417.88L245.99,418.14L246.4,419.62L249.04,420.51L251.96,423.75L254.21,424.07L257.49,423.39L261.62,424.12L264.63,425.28L266.94,427.07L267.92,427.43L268.61,426.07L270.85,426.06L271.19,427.71L274.1,428.69L277.18,428.51L278.49,429.94L281.26,432.02L281.76,432.92L281.87,435.91L283.4,437.17L283.92,438.68L284.94,439.74L285.43,441.33L284.96,444.24L283.3,444.62L282.87,445.58L281.86,445.94L282.05,446.42L283.46,447.1L285.12,447.02L285.5,447.34L285.53,449.03L286.14,451.13L288.67,454.79L288.18,457.05L287.15,458.09L286.99,459.57L287.33,459.93L288.63,459.19L289.03,460.12L287.35,461.23L286.62,462.59L286.7,463.76L287.83,465.4L288.55,467.41L287.43,469.73L287.7,470.15L290.08,470.54L291.16,471.72L292.12,472.12L292.83,471.48L295.01,471.23L296,470.19L296.33,469.02L297.48,468.43L298.59,468.41L299.68,467.26L299.81,466.2L304.51,462.19L304.84,460.72L304.56,456.76L303.76,453.37L306.48,455.72L307.55,458.08L307.44,460.51L307.94,461.38L310.21,461.8L312.38,461.28L313.26,461.78L313.66,462.74L314.52,463.28L316.33,462.34L319.82,463.02L326.14,461.43L328.64,462.53L329.84,462.28L332.33,462.6L333.41,462.31L334.49,461.46L338.53,457.28L342.67,455.35L348.95,453.45L351.17,453.61L352.26,454.14L353.41,453.92L353.94,452.86L353.27,451.14L353.29,449.89L352,448.44L350.63,447.73L350.11,446.87L351.11,443.02L349.69,441.01L349.3,438.64L349.62,436.31L350.36,434.98L349.98,433.93L349.98,433.93L356.23,437.3L361.97,440.94L365.88,445.53L368.43,446L370.69,445.96L371.92,446.57L373.44,448.92L373.64,450.03L371.88,452.47L371.96,453.79L371.08,455.01L370.8,458.12L370.8,458.12L369.42,458.47L368.43,459.97L366.19,462.13L365.7,463.19L365.35,467.57L364.93,468.66L363.84,469.75L360.42,469.9L359.33,470.47L359.53,471.54L360.59,472.49L360.79,473.56L360.07,474.68L358.9,474.77L357.65,474.21L356.85,475.36L356.08,478.66L355,479.23L354.04,480.52L353.58,481.72L353.77,483.04L355.22,485.48L355.09,487.33L354.14,488.59L347.71,494.36L347.67,495.52L348.72,496.47L348.39,497.78L347.52,498.84L344.88,499.35L343.64,500.26L342.78,501.81L341.56,502.8L338.86,503.2L333.78,507.92L332.8,508.97L333.21,511.35L332.88,512.52L331.25,514.78L327.33,519.04L327.84,521.39L327.44,522.45L325.17,523.67L321.4,527.3L320.73,526.18L319.52,527.24L319.54,528.55L321.42,532.04L321.59,533.12L321.15,534.25L319.92,534.61L318.82,535.69L318.37,537.9L314.87,539.47L315.51,540.83L313.69,543.12L316.26,547.69L316.53,550.04L316.21,551.12L312.32,552.5L309.03,555.38L310.57,557.66L310.95,559.06L309.24,561.83L309.84,562.95L309.93,564.03L309.93,564.03L308.74,568.37L307.54,569.39L305.16,570.04L303.9,570.12L302.76,569.76L301.64,570.12L301.82,571.44L302.93,573.89L302.64,578.42L301.29,581.14L299.47,582.12L298.61,583.31L297.13,583.87L294.66,585.57L292.33,585.6L289.87,586.55L287.95,586.31L286.09,587.25L283.5,591.03L280.29,593.4L279.94,594.49L280.04,597.03L279.16,598.96L278.16,600.08L278.65,601.55L278.2,601.79L275.83,601.36L273.44,600.35L271.84,598.2L269.61,597.9L264.73,594.41L263.68,589.39L262.56,588.26L262.19,587.14L261.11,585.93L259.75,585.29L258.26,585.08L254.62,587.62L248.86,584.27L244.14,586.33L238.22,585.92L237.12,586.48L237.12,586.48L236.93,585.97L237.61,579.21L236.97,576.46L237.88,574.71L238.01,572.4L239.45,568.85L239.86,564.36L240.04,560.58L239.15,556.69L239.73,553.61L239.73,553.61L240.42,546.65L239.9,545.11L240.42,543.49L239.08,536.76L238.65,531.26L238.88,530.08L238.47,528.52L238.7,523.08L236.41,522.43L231.79,519.87L231.33,517.25L230.31,516.15L229.21,515.88L228.65,514.65L228.53,512.34L232.11,510.01L232.45,508.84L233,504.65L232.61,503.46L231.32,502.22L231.24,501.1L230.41,499.86L230.57,498.7L231.79,497.14L234.03,495.94L237.77,492.78L238.75,491.02L239.26,488.19L241.09,485.2L242.25,484.23L242.54,482.45L242.19,480.75L240.27,478.54L237.58,476.41L237.29,474.06L236.55,472.72L232.89,470.81L232.86,469.37L230.61,468.14L230.42,467.1L229.4,466.09L228.04,459.59L223.43,459.9L222.38,458.81L221.24,458.6L218.78,458.94L216.55,457.06L215.27,457.41L213.18,459.4L212.04,459.33L208.43,460.11L206.04,458.98L204.82,459.26L201.43,457.57L201.43,457.57L203.59,452.81L203.29,449.23L204.36,448.19L209.2,440.92L210.05,438.49L210.73,434.11L211.43,432.75L214.82,435.18L216.13,435.27L218.4,433.87L221.91,435.6L222.98,435.87L224.13,435.48L227.57,429.38L229.31,427.22L230.63,426.25L236.75,423.23L238.47,421.14L238.49,420.35L241.38,419.11L241.64,417.98L242.88,416.49L242.35,415.66L242.39,415.08z"/>
		<path id="AO-CAB" title="Cabinda" class="land" d="M55.52,108.92L56.43,109.94L60.86,109.44L61.02,112.3L64.96,115.93L66.3,118.42L70.77,121.09L70.92,122.77L70.46,123.2L69.76,123.2L68.55,122.67L67.37,123.41L64.96,123.87L61.87,125.31L59.72,125.31L58.9,125.64L58.66,126.42L57.73,126.44L57.32,127.37L56.53,127.94L55.41,130.21L55.86,130.56L55.8,130.9L54.74,132.04L53.55,132.4L52.33,133.7L51.72,135.98L49.46,136.45L47.88,136.05L47.54,136.57L47.92,138.07L47.35,139.55L46.66,139.54L45.8,140.45L45.27,140.44L44.68,140.97L43.57,140.95L42.43,141.81L39.98,141.87L39.58,143.05L40.37,144.17L42.84,145.21L42.73,174.56L29.44,175.03L26.53,176.31L26.99,177.5L24.72,174.23L23.95,172.48L23.53,169.9L25.34,165.52L26.75,165.91L27.66,165.25L27.83,163.91L27.33,161.3L24.61,154.71L25.14,154.51L25.14,153.95L22.87,150.38L23.34,149.15L22.91,148.25L23.61,147.85L23.06,147.28L22.93,147.04L22.56,146.39L22.1,146.56L22.09,146.18L21.76,146.16L21.64,146.56L22.24,146.86L22.68,148.22L17.17,140.51L16.83,139.97L24.89,133.45L26.71,127.05L28.86,129.49L31.21,129.3L34.02,126.53L38.85,118.84L46.72,117.06L49.02,113.27L53.82,113.21L52.16,110.92L52.24,108.97L53.39,107.64L54.85,108.17z"/>
		<path id="AO-CCU" title="Cuando-Cubango" class="land" d="M309.93,564.03L323.56,571.9L324.71,571.96L328.02,571.21L330.28,572.36L335,575.82L336.13,576.23L338.44,575.36L339.55,575.78L340.37,576.87L342.41,578.19L343.1,579.03L343.87,578.76L344.7,579.4L345.06,580.76L347.27,582.1L348.13,583.33L348.48,585.03L350.95,588.57L351.15,589.06L350.63,590.61L352.08,594.49L351.61,595.48L351.83,597.15L352.98,599.53L353.93,600.07L354.01,601.66L355.14,602.73L355.16,603.59L356.24,604.68L356.15,605.3L356.72,605.29L358.12,606.27L358.62,606.21L363.53,604.33L364.69,604.25L371.66,608.01L369.99,602.08L369.91,599.93L372.55,598.5L373.63,598.14L374.78,598.57L376.95,600.4L378.15,600.66L379.75,600.4L381.93,601.11L387.64,599.93L388.37,600.75L389.32,603.26L391.98,605.44L392.54,608.36L394.06,609.63L395.63,613.6L397.84,614.85L398.28,616.42L399.75,617.09L400.18,618.01L401.36,618.95L401.7,619.86L405,622.13L405.66,623.62L406.76,623.56L406.79,624.81L407.31,625L408.34,624.66L408.82,625.49L409.97,625.78L411.37,628.19L413.36,629.64L414.84,631.64L418.91,633.88L421.14,634.39L423.93,635.87L427.71,635.51L432.21,636.57L435.13,635.37L437.89,636.02L440.24,634.89L441.89,635.26L443.79,634.36L444.76,634.72L445.69,635.88L450.41,636.85L450.95,636.68L451.4,635.74L452.56,635.75L454.37,637.43L455.58,637.41L456.5,636.99L457.02,637.91L458.24,638.75L460.78,639.43L462.95,642.12L464.19,643.04L465.45,645.26L466.46,645.66L467.34,645.11L467.79,645.21L467.4,646.81L468.05,647.69L470.43,647.53L472.15,648.58L473.62,653.33L475.31,655.18L476.42,655.48L477.92,656.8L480.31,657.13L480.87,657.93L481.81,658.35L482.64,660.32L482.35,663.48L482.58,664.6L483.28,665.33L484.45,665.34L484.86,665.65L485.73,667.55L487.34,668.78L487.05,670.94L488.62,672.17L489.94,675.73L492.08,677.8L493.38,677.84L495.2,678.85L494.87,679.76L495.32,680.74L495.32,681.9L495.68,682.25L496.9,682.25L497.61,682.92L497.8,684.52L498.54,685.89L500.12,687.15L500.01,688.34L500.7,689.05L500.98,690.82L507.65,694.58L509.34,696.19L509.34,696.19L509.51,697.96L512.17,700.62L513.05,700.98L512.77,702.4L514.7,704.86L515.08,705.82L515.92,709.32L515.76,710.68L516.24,711.92L515.56,712.74L516.96,712.87L518.16,714.62L519.91,715.87L520.48,716.8L522.33,717.29L523.31,719.21L524.92,719.82L526.78,722.26L526.86,723.05L528.3,723.78L532.38,728.19L533.84,729.13L533.85,730.08L534.79,731.14L538.1,733.7L539.97,736.37L543.52,739.55L543.5,740.47L544.85,740.85L545.69,742.62L548.3,744.67L549.25,746.13L548.93,746.83L549.14,747.34L553.86,749.15L554.79,750.25L559.1,753.25L559.17,754.13L560.63,755.79L561.62,756.13L562.83,759.49L563.81,760.22L565,760.45L565.04,761.32L565.91,762.07L565.64,762.46L567.71,763.07L570.52,766.67L572.68,766.43L574.1,767.29L575.3,766.91L576.61,768.18L577.96,768.34L579.55,769.89L579.76,771.27L481.42,791.07L480.14,790.35L478.86,790.28L477.64,789.09L475.94,789.07L474.1,788.11L473.31,788.12L471.98,787.51L470.88,786.34L467.77,786.5L466.84,786.84L465.86,786.63L465.08,787.32L463.34,787.12L462.94,787.48L460.06,787.82L459.11,787.52L457.31,788.15L456.53,789.09L454.82,789.53L454.68,790.15L453.67,790.31L453.38,790.97L453.55,791.6L451.1,791.98L448.67,790.96L447.94,791.06L447.76,790.26L445.53,790.72L444.22,789.45L442.61,788.72L441.31,788.63L440.58,788.56L439.4,788.96L437.14,788.73L435.08,787.42L434.04,787.17L433.1,785.54L429.97,784.53L428.99,784.61L426.37,782.89L425.11,783.63L423.94,783.13L422.61,784.47L422.25,784.13L419.15,783.73L416.37,785.29L414.88,784.45L413.7,784.23L412.08,784.86L410.63,784.17L409.32,784.35L408.58,783.59L406.45,782.92L405.37,783.77L404.61,783.92L403.38,783.92L401.66,783.37L400.76,783.5L399.48,784.4L399.1,785.24L398.4,785.39L397.02,783.74L396.16,784.09L395.13,782.76L394.08,782.25L389.54,783.28L386.66,782.81L386.27,783.3L383.93,782.78L381.38,783.17L379.72,782.22L379.32,782.2L379.06,782.7L378.11,782.33L377.47,782.56L377.23,782.27L377.08,781.7L376.4,781.28L375.85,781.51L374.96,780.84L374.13,780.99L373.52,780.57L372.43,781.12L369.9,780.24L369.56,780.48L368.38,780.15L367.9,780.27L366.76,781.59L357.04,780.71L355.66,779.86L354.89,779.97L353.74,779.1L353.62,778.47L351.44,778.11L350.4,776.57L349.12,776.69L348.18,775.29L342.93,771.45L342.47,770.65L342.54,769.76L341.66,768.83L340.02,768.51L339.18,767.54L338.51,765.62L337.71,764.97L337.36,764.18L335.75,763.37L335.35,761.66L332.96,758.66L276.39,758.46L276.39,758.46L277.79,751.08L273.74,738.03L273.76,732.24L274.35,725.74L277.25,720.18L277.99,716.28L278.51,715.14L281.93,711.73L283.42,706.63L283.48,700.33L281.83,690.87L282.03,682.82L280.91,680.53L277.53,677.51L274.07,671.72L271.01,664.93L267.52,664.02L266.5,662.85L265.73,659.37L264.8,659.93L264.09,658.51L261.27,657.72L260.02,656.2L259,655.8L258.8,654.12L256.75,653.04L255.41,651.68L255.78,650.64L255.42,649.62L252.6,648.24L251.76,647.01L252.25,645.55L250.44,644.74L250.44,644.74L249.08,643.4L248.03,641.57L248.12,640.49L248.81,639.77L248.52,638.02L246.78,636.29L245.84,634.48L245.77,632.68L246.21,630.31L245.51,627.58L243.51,625.7L244.2,623.35L244.69,623.19L244.73,622.74L241.95,621.95L242.49,621.29L242.3,620.84L241.17,620.72L238.53,618.23L238.47,613.67L238.84,611.24L238.39,609.64L238.8,607.98L237.34,604.68L237.17,601.52L236.48,599.48L236.54,598.83L237.39,598.29L237.57,597.74L238.29,593.51L237.12,589.92L237.76,587.86L237.12,586.48L237.12,586.48L238.22,585.92L244.14,586.33L248.86,584.27L254.62,587.62L258.26,585.08L259.75,585.29L261.11,585.93L262.19,587.14L262.56,588.26L263.68,589.39L264.73,594.41L269.61,597.9L271.84,598.2L273.44,600.35L275.83,601.36L278.2,601.79L278.65,601.55L278.16,600.08L279.16,598.96L280.04,597.03L279.94,594.49L280.29,593.4L283.5,591.03L286.09,587.25L287.95,586.31L289.87,586.55L292.33,585.6L294.66,585.57L297.13,583.87L298.61,583.31L299.47,582.12L301.29,581.14L302.64,578.42L302.93,573.89L301.82,571.44L301.64,570.12L302.76,569.76L303.9,570.12L305.16,570.04L307.54,569.39L308.74,568.37z"/>
		<path id="AO-CNO" title="Cuanza Norte" class="land" d="M147.27,304.12L147.91,306.07L149.74,305.76L151.67,306.61L153.43,306.76L155.82,305.8L157.76,303.64L158.28,301.75L160.04,300.09L162.56,300.33L165.05,301.96L167.62,300.73L170.34,301.05L171,298.96L172.3,298.85L172.64,297.81L173.57,297.67L174.01,296.38L174.42,296.18L174.47,293.09L175.54,291.45L175.59,290.87L174.52,289.83L173.55,290.17L173.23,289.83L173.39,288.58L174.43,286.9L174.04,284.3L178.54,283.23L184.52,283.08L185.97,283.86L186.79,285.1L186.65,286.74L187.06,288.39L188.81,289.13L190.54,289.24L193.44,288.33L195.19,286.68L199.72,286.61L200.72,287.7L202.49,288.66L202.5,289.1L201.07,289.36L201.08,289.89L201.72,291.7L202.27,291.85L202.52,291.39L203.04,291.29L203.71,291.99L203.95,296.77L203.95,296.77L203.84,299.45L204.49,300.78L204.23,302.82L204.84,303.58L204.52,304.98L205.2,305.94L203.88,307.48L197.49,309.06L197.75,311.28L194.49,315.9L195.86,318.77L196.94,319.5L199.4,319.66L200.47,322.11L199.01,324.36L197.2,330.04L196.62,334.73L195.81,336.93L196.38,340.42L195.97,343.38L194.29,344.49L191.83,344.4L190.9,344.76L189.97,344.73L188.76,343.85L188.14,343.83L186.16,345.25L184.44,345.35L183.03,346.72L182.1,347.13L179.69,347.1L178.18,347.64L176.8,348.98L176.32,350.56L176.07,353.67L173.28,354.18L171.54,353.86L169.98,354.47L172.87,356.56L173.43,358.96L169.99,361.99L170.1,363.05L171.25,363.89L171.94,365.01L172.54,368.54L172.24,369.59L169.63,371.87L169.63,371.87L168.2,371.91L166.24,370.39L164.67,370.32L162.04,369.5L161.82,369.9L162.39,370.71L161.36,371.7L159.65,371.35L157.66,371.47L156.78,371.96L154.54,372.37L153.28,372.23L152.72,372.36L151.9,373.64L151.41,373.84L146.06,374.57L143.28,374.03L143.28,374.03L141.52,374.79L140.55,373.68L138.99,373.18L137.97,371.44L134.79,369.82L130.54,370.29L129.15,369.56L128.64,367.97L127.91,367.38L124.6,367.59L123.47,367.35L122.22,366.5L121.16,362.8L120.9,362.43L119.53,362.04L121.74,356.88L122.42,353.47L122.97,352.37L125.19,350.42L125.36,349.19L123.3,346.97L123.43,345.83L124.59,344.79L123.95,343.65L122.8,342.86L119.13,342.79L118.02,341.73L118.45,340.52L119.57,339.76L121.88,339.22L122.73,338.14L122.25,335.72L121.18,334.68L118.95,333.66L119.09,332.55L120.28,330.46L124.78,330.19L128.43,328.75L131.89,326.3L133.72,323.14L133.58,320.86L131.9,316.24L131.25,315.03L128.7,313.12L128.12,311.98L128.12,310.78L128.72,308.89L130.33,307.5L131.4,307.27L133.78,305.52L135.96,305.45L137.59,305.88L144.11,305.78z"/>
		<path id="AO-CUS" title="Cuanza Sul" class="land" d="M143.28,374.03L146.06,374.57L151.41,373.84L151.9,373.64L152.72,372.36L153.28,372.23L154.54,372.37L156.78,371.96L157.66,371.47L159.65,371.35L161.36,371.7L162.39,370.71L161.82,369.9L162.04,369.5L164.67,370.32L166.24,370.39L168.2,371.91L169.63,371.87L169.63,371.87L170.38,372.83L171.36,373.23L172.36,374.28L173.33,374.31L174.81,375.53L176.9,375.82L178.04,375.59L178.95,376.06L180.98,376.1L182.7,376L185.2,375.01L187.4,374.59L189.56,374.84L191.82,374.31L192.98,374.59L195.29,374.13L198.64,374.75L202.25,374.53L204.53,371.37L205.76,371.23L209.2,372.24L214.1,371.56L217.52,372.33L222.77,372.88L224.58,375.08L225.32,377.42L226.36,378.26L228.5,379.18L229.37,380.35L228.96,383.39L231.07,386.1L231.38,389.19L232.67,391.84L232.37,392.6L230.37,394.1L230.02,395.08L230.65,398.87L231.43,399.44L233.25,399.64L234.53,401.07L234.89,402.1L235.74,402.64L235.51,405.11L235.79,406.1L237.82,406.7L238.89,408.4L241.03,411.04L242.25,411.93L243.56,413.91L243.56,413.91L242.39,415.08L242.35,415.66L242.88,416.49L241.64,417.98L241.38,419.11L238.49,420.35L238.47,421.14L236.75,423.23L230.63,426.25L229.31,427.22L227.57,429.38L224.13,435.48L222.98,435.87L221.91,435.6L218.4,433.87L216.13,435.27L214.82,435.18L211.43,432.75L210.73,434.11L210.05,438.49L209.2,440.92L204.36,448.19L203.29,449.23L203.59,452.81L201.43,457.57L201.43,457.57L200.75,458.75L199.6,459.25L190.26,460.76L188.05,462.26L184.44,463.03L182.29,464.74L181.91,468.44L183.25,470.4L183.4,472.71L184.58,473.6L183.91,475L183.91,476.85L182.71,477.71L183.61,478.88L182.72,482.47L183.44,483.69L179.73,483.47L178,485.56L176.88,486.18L175.68,485.7L173.15,487.23L170.13,487.59L168.06,489.65L165.63,495.72L165.63,495.72L163.36,495.24L163.08,492.89L162.03,492.14L156.26,489.33L155.11,489.33L153.95,490.19L152.8,490.51L148.1,489.93L145.13,483.96L141.57,479.21L139.38,476.94L138.25,476.74L136.96,477.06L133.41,479.05L132.31,479.81L129.5,484.41L127.02,485.48L125.98,484.46L124.63,482.11L123.42,481.18L120.94,480.41L120.18,479.33L119.89,475.56L119.48,474.48L117.04,473.94L113.63,475.03L110.19,473.49L104.98,473.86L104.98,473.86L104.19,467.75L104.13,466.63L104.46,465.99L103.53,464.24L104.16,463.79L104.39,462.96L104.07,461.74L104.2,460.35L104.94,458.23L104.72,456.88L105.37,455.17L104.9,452.52L105.56,451.26L106.41,451.11L106.54,450.76L106.3,447.68L106.74,446.89L107.02,442.64L108.28,435.85L107.76,433.36L106.48,430.47L101.08,423.19L102.35,422.73L102.97,421.39L103.76,421.08L104.24,420.21L104.19,419.59L103.44,418.16L96.29,409.47L91.77,404.9L92.66,403.53L92.43,402.04L91.6,399.09L90.26,397.61L90.26,397.61L91.49,396.12L93.61,396.63L93.68,397.69L94.02,398L95.15,398L98.26,399.77L100.96,403.9L101.93,403.65L101.54,402.78L102.09,402.72L103.89,403.68L106.88,403.69L106.83,404.24L107.2,404.56L112.51,403.87L114.5,404.68L115.46,405.76L116.56,405.62L117.6,404.6L119.44,403.83L122.46,400.7L124.86,399.57L126.01,399.17L129.51,399.49L130.56,399.73L132.79,401.21L135.13,401.54L138.99,406.14L140.22,406.85L142.55,407.46L143.78,406.37L144.79,404.85L146,401.57L145.38,399.29L143.12,397.48L142.44,396.13L142.32,395.06L142.87,393.99L144.13,393.13L144.1,392.02L141.82,388.31L141.54,386.83L143.97,383.71z"/>
		<path id="AO-CNN" title="Cunene" class="land" d="M89.43,700.02L92.3,702.41L94.27,704.9L96.51,706.36L98.79,705.62L102.39,703.96L103.76,702.87L109.85,694.59L111.37,694.33L112.5,694.96L114.27,697.24L115.33,697.77L116.43,697.62L117.8,696.55L119.11,694.21L120.17,693.12L126.71,691.77L127.77,690.59L133.46,687.71L140.91,679.68L144.36,680.58L146.65,680.47L147.9,680.02L153.66,681.15L162.03,683.4L163.14,683.88L165.32,686.15L166.29,689.56L171.07,690.73L172.2,690.55L173.89,687.1L176.86,683.79L179.6,678.11L180.35,675.6L183.41,672.53L184.96,668.63L187.5,664.06L188.75,663.6L190.9,661.2L192.12,660.65L194.63,658.69L196.17,658.76L199.78,656.27L202.01,656.7L205.39,656.02L208.34,657.13L214.34,657.2L215.45,657.57L220.43,656.26L224.2,656.98L225.37,656.09L227.95,652.49L231.39,649.05L231.87,647.9L233.02,646.72L234.16,646.11L240.17,643.91L244.87,644.77L250.44,644.74L250.44,644.74L252.25,645.55L251.76,647.01L252.6,648.24L255.42,649.62L255.78,650.64L255.41,651.68L256.75,653.04L258.8,654.12L259,655.8L260.02,656.2L261.27,657.72L264.09,658.51L264.8,659.93L265.73,659.37L266.5,662.85L267.52,664.02L271.01,664.93L274.07,671.72L277.53,677.51L280.91,680.53L282.03,682.82L281.83,690.87L283.48,700.33L283.42,706.63L281.93,711.73L278.51,715.14L277.99,716.28L277.25,720.18L274.35,725.74L273.76,732.24L273.74,738.03L277.79,751.08L276.39,758.46L276.39,758.46L276.29,758.88L268.02,758.92L256.56,758.74L256.45,758.45L150.99,758.48L125.51,758.15L125.03,759.58L123.12,759.99L122.45,760.69L120.46,760.32L119.59,761.15L115.88,759.99L114.6,760.6L112.82,760.68L111.44,759.89L110.76,757.9L109.06,756.45L105.76,755.08L102.65,752.82L101.04,752.29L99.73,751.08L99.05,751.09L96.92,748.9L92.51,746.03L90.82,745.38L90.53,744.93L91.38,743.86L91.4,743.1L88.78,739.44L86.04,738.37L84.31,737.19L82.83,737.16L82.83,737.16L82.37,737.07L82.17,734.46L80.83,731.96L73.69,724.83L72.68,723.57L72.3,722.33L73.3,720.04L74.44,718.94L75.56,718.79L76.8,717.95L78.57,715.41L78.35,714.26L77.64,713.11L75.63,711.2L76.76,709.45L77.56,708.84L79.03,708.64L80.15,706.92L81.71,706.84L82.49,705.29L83.04,706L84.49,704.65L85.44,704.58z"/>
		<path id="AO-HUA" title="Huambo" class="land" d="M201.43,457.57L204.82,459.26L206.04,458.98L208.43,460.11L212.04,459.33L213.18,459.4L215.27,457.41L216.55,457.06L218.78,458.94L221.24,458.6L222.38,458.81L223.43,459.9L228.04,459.59L229.4,466.09L230.42,467.1L230.61,468.14L232.86,469.37L232.89,470.81L236.55,472.72L237.29,474.06L237.58,476.41L240.27,478.54L242.19,480.75L242.54,482.45L242.25,484.23L241.09,485.2L239.26,488.19L238.75,491.02L237.77,492.78L234.03,495.94L231.79,497.14L230.57,498.7L230.41,499.86L231.24,501.1L231.32,502.22L232.61,503.46L233,504.65L232.45,508.84L232.11,510.01L228.53,512.34L228.65,514.65L229.21,515.88L230.31,516.15L231.33,517.25L231.79,519.87L236.41,522.43L238.7,523.08L238.47,528.52L238.88,530.08L238.65,531.26L239.08,536.76L240.42,543.49L239.9,545.11L240.42,546.65L239.73,553.61L239.73,553.61L236.01,554.2L233.7,553.14L232.63,553.05L228.88,554.21L227.61,553.56L227.08,552.27L225.86,552.45L224.45,552.8L223.25,553.85L220.86,557.63L217.44,558.22L216.2,557.77L214.09,555.48L211.8,555.35L204.4,563.14L201.66,566.64L200.53,567.51L196.96,568.6L196.19,569.74L196.16,570.8L195.16,571.85L191.63,573.81L190.33,574.17L189.25,573.97L189.49,568.98L189.24,567.55L184.67,567.75L183.47,567.3L182.87,566.21L182.37,558.86L181.28,556.47L180.33,555.35L179.24,554.86L174.37,555.85L172.15,556.69L169.99,555.84L169.99,555.84L167.89,554.99L166.94,553.83L166.77,552.74L163.47,551.24L162.42,550L159.85,544.98L161.14,541.39L160.3,536.51L156.75,530.51L156.71,528.19L154.84,524.45L154.85,523.17L155.64,522.12L154.36,519.64L155.6,518.52L159.06,516.67L159.5,515.43L160.86,514.28L163.35,513.17L167.08,512.58L167.98,511.26L166.73,509.09L167.37,508.04L165.46,503.33L165.63,495.72L165.63,495.72L168.06,489.65L170.13,487.59L173.15,487.23L175.68,485.7L176.88,486.18L178,485.56L179.73,483.47L183.44,483.69L182.72,482.47L183.61,478.88L182.71,477.71L183.91,476.85L183.91,475L184.58,473.6L183.4,472.71L183.25,470.4L181.91,468.44L182.29,464.74L184.44,463.03L188.05,462.26L190.26,460.76L199.6,459.25L200.75,458.75z"/>
		<path id="AO-HUI" title="Huíla" class="land" d="M169.99,555.84L172.15,556.69L174.37,555.85L179.24,554.86L180.33,555.35L181.28,556.47L182.37,558.86L182.87,566.21L183.47,567.3L184.67,567.75L189.24,567.55L189.49,568.98L189.25,573.97L190.33,574.17L191.63,573.81L195.16,571.85L196.16,570.8L196.19,569.74L196.96,568.6L200.53,567.51L201.66,566.64L204.4,563.14L211.8,555.35L214.09,555.48L216.2,557.77L217.44,558.22L220.86,557.63L223.25,553.85L224.45,552.8L225.86,552.45L227.08,552.27L227.61,553.56L228.88,554.21L232.63,553.05L233.7,553.14L236.01,554.2L239.73,553.61L239.73,553.61L239.15,556.69L240.04,560.58L239.86,564.36L239.45,568.85L238.01,572.4L237.88,574.71L236.97,576.46L237.61,579.21L236.93,585.97L237.12,586.48L237.12,586.48L237.76,587.86L237.12,589.92L238.29,593.51L237.57,597.74L237.39,598.29L236.54,598.83L236.48,599.48L237.17,601.52L237.34,604.68L238.8,607.98L238.39,609.64L238.84,611.24L238.47,613.67L238.53,618.23L241.17,620.72L242.3,620.84L242.49,621.29L241.95,621.95L244.73,622.74L244.69,623.19L244.2,623.35L243.51,625.7L245.51,627.58L246.21,630.31L245.77,632.68L245.84,634.48L246.78,636.29L248.52,638.02L248.81,639.77L248.12,640.49L248.03,641.57L249.08,643.4L250.44,644.74L250.44,644.74L244.87,644.77L240.17,643.91L234.16,646.11L233.02,646.72L231.87,647.9L231.39,649.05L227.95,652.49L225.37,656.09L224.2,656.98L220.43,656.26L215.45,657.57L214.34,657.2L208.34,657.13L205.39,656.02L202.01,656.7L199.78,656.27L196.17,658.76L194.63,658.69L192.12,660.65L190.9,661.2L188.75,663.6L187.5,664.06L184.96,668.63L183.41,672.53L180.35,675.6L179.6,678.11L176.86,683.79L173.89,687.1L172.2,690.55L171.07,690.73L166.29,689.56L165.32,686.15L163.14,683.88L162.03,683.4L153.66,681.15L147.9,680.02L146.65,680.47L144.36,680.58L140.91,679.68L133.46,687.71L127.77,690.59L126.71,691.77L120.17,693.12L119.11,694.21L117.8,696.55L116.43,697.62L115.33,697.77L114.27,697.24L112.5,694.96L111.37,694.33L109.85,694.59L103.76,702.87L102.39,703.96L98.79,705.62L96.51,706.36L94.27,704.9L92.3,702.41L89.43,700.02L89.43,700.02L90.72,699.32L91.15,698.22L92.25,697.17L92.32,696.08L90.33,692.42L89.84,690.12L91.68,685.47L95.55,678.57L93.17,674.93L92.93,673.81L93.24,661.64L89.49,660.23L87.14,658.38L86.4,657.23L87.05,654.78L86.29,652.45L84.92,652.12L84.4,653.2L83.18,654.03L82.02,654.13L80.98,652.87L81.33,651.53L81.15,649.88L79.72,649.6L77.34,650.25L76.22,649.23L76.13,648.04L79.81,645.93L80.2,644.73L77.28,641.29L77.63,640.05L79.68,637.64L78.44,634.05L78.44,632.65L80.44,630.49L82.81,630.12L83.76,628.85L87.35,626.06L91.05,624.43L93.98,622.4L96.45,616.61L96.72,611.82L99.47,608.08L99.28,603.87L98.79,601.67L99.19,599.18L98.03,598.66L96.92,599.25L95.76,598.45L95.28,597.23L96.09,594.67L95.41,592.26L94.22,589.9L94.66,588.32L96.85,584.74L97.16,583.61L96.81,582.42L94.66,580.96L93.77,578.23L93.77,578.23L99.57,575.87L100.72,575.99L102.96,577.82L107.62,578.59L108.74,578.59L111.13,577.06L112.32,576.85L113.81,577.08L117.18,578.63L119.6,577.97L122,578.74L125.82,579.33L130.44,579.61L131.77,579.4L132.87,579.05L137.74,569.1L138.87,568.71L138.72,566.49L139.94,565.79L141,566.07L147.32,569.06L149.74,568.42L154.64,566.65L158.74,562.12L160.21,561.05L161.34,561.35L162.39,562.25L163.47,562.35L164.65,561.24L167.05,560.23L169.03,560.28z"/>
		<path id="AO-LUA" title="Luanda" class="land" d="M71.87,331.19l0.15,0.72l-0.38,1.16l-0.83,0.19l-0.1,-0.59L71.87,331.19zM73.18,329.08l0.52,0.36l-1.07,0.21l0.03,0.73l-1.05,0.4l-0.79,0.83l-0.07,0.55l-0.45,0.06l-0.38,0.7l-1.07,0.68l-0.68,1.3l-0.59,0.08l0.45,-1.05l4.59,-4.65L73.18,329.08zM89.09,319.81l2.28,-1.33l5.49,9.64l0.04,0.59l-1.41,0.07l-3.46,1.55l-0.41,0.48l0.02,2.75l-1.5,1.1l-1.49,4.65l0.42,4.67l-0.44,0.27l-0.59,-0.39l-3.2,-0.34l0.09,1.03l-0.28,0.23l-0.44,-0.6l-0.52,0.12l-2.11,-0.99l-0.5,0.08l-1.55,1.41l-1.49,0.34l-1.09,1.11l-0.51,2.36l0,0l0.04,0.49l-0.7,1.16l-0.64,0.15l0.24,0.58l-0.4,0.26l-0.25,0.99l-0.92,-0.34l-0.22,0.92l-0.57,0.4l-4.83,-8.04l-1.07,-2.38l-1.68,-2.05l0.04,-3.26l0.82,-0.3l0.29,0.36l-0.81,0.17l0.4,0.33l-0.37,1.14l0.21,0.39l0.27,0.8l-0.33,0.55l0.47,0.19l0.19,-1.21l1.64,-1.4l1.03,-2.47l0.86,-0.5l0.64,-1.67l2.16,-0.08l0.55,-1.39l-0.05,-1.02l2.12,-2.3l0.1,-1.23l0.55,-0.3l0.01,-0.95l0.41,-0.37l0.67,0.23l0.42,-0.72l1.19,0.12l0.74,-0.69l0.26,-0.98l0.62,-0.41l3.1,1l1.06,-0.8l0.62,-0.67l0.86,-3.55l-0.26,-2.02L89.09,319.81z"/>
		<path id="AO-LNO" title="Lunda Norte" class="land" d="M434.01,232.66L441.67,232.69L441.24,235.75L439.81,237.26L439.11,240.39L437.94,242.52L437.55,244.07L437.19,247.78L437.45,250.85L498.53,250.97L498.86,251.91L500.46,253.13L501.38,256L500.91,256.85L502.13,258.01L502.23,258.8L501.61,259.62L502.3,260.41L501.28,262.63L502.12,264.46L502.03,265.25L501.59,265.75L501.84,266.83L500.88,267.68L500.66,269.21L500,269.64L500.03,270.65L499.27,273.05L498.8,273.53L498.68,274.49L497.91,275.35L498.4,277.32L497.73,278.01L497.62,278.71L498.04,281.1L497.92,281.78L496.8,282.8L496.8,283.33L497.51,284.38L498.07,286.38L498.9,287.9L500.18,289.14L502.19,293.48L503.76,295.02L503.83,295.61L503.33,296.12L504.22,299.09L504.23,300.76L505.88,301.9L505.88,301.9L504.68,302.84L501.95,304.13L499.71,307.79L498.64,308.02L496.04,307.38L491.26,309.15L490.13,310L487.92,313.45L478.48,315.11L473.66,313.89L472.29,314.15L471.2,314.96L467.69,314.53L464.98,316.09L463.5,316.45L461.38,316.36L456.8,318.78L455.83,320.99L452.07,322.77L451.01,323.78L447.77,328.97L445.82,335.19L443.46,336.54L439.79,337.02L437.25,338.67L435.89,339.98L432.29,340.43L431.04,341.14L429.61,344.61L429.35,346.74L428.45,347.83L427.38,348.6L422.49,348.87L421.33,349.43L416.01,353.65L410.18,359.03L408.52,371.48L407.92,373.01L406.34,375.32L402.87,379.04L401.65,379.96L394.98,381.02L393.55,381.64L390.01,384.68L388.94,384.99L384.99,385.02L383.68,385.54L378.74,389.76L373.09,391.17L369.88,394.61L366.2,396.45L363.64,397.42L356.51,398.07L355.43,398.54L351.73,402.94L345.8,405.53L344.7,405.96L336.5,405.32L335.4,405.58L335.87,406.51L336.79,406.97L335.98,407.55L336.05,407.95L337.3,407.98L338.56,409.01L338.56,409.01L337.23,409.96L334.97,410.75L333.63,412.99L334,414.19L335.08,414.83L335.73,416.07L334.55,418.46L328.55,418.94L327.48,418.79L322.98,415.91L321.8,415.69L320.65,414.31L317.31,411.91L316.26,411.41L314.06,411.32L312.9,410.85L312.91,409.79L310.91,407.69L310.75,406.89L315.81,402.23L315.78,400.78L313.54,399.98L312.79,399.34L311.9,397.82L310.86,397.27L309.75,394.34L308.53,393.71L308.21,392.85L308.55,391.73L308.35,391.26L309.15,390.16L309.12,389.19L307.06,386.13L306.76,384.43L305.31,384.07L304.38,382.97L302.74,377.7L298,375.47L294.32,376.03L293.51,374.95L293.69,372.7L292.67,371.58L292.27,370.42L287.83,369.28L286.75,368.48L286.04,366.27L283.67,365.79L282.97,364.68L283.41,363.5L283.02,361.23L281.87,358.96L280.79,357.91L280.42,355.58L279.38,354.5L279.14,352.15L281.44,350.22L287.32,348L289.55,347.66L290.57,346.31L290.5,344L292.19,341.64L292.48,340.55L291.53,338.14L291.3,335.83L290.8,334.62L292.27,326.81L292.4,324.7L291.95,321.45L292.53,319.32L291.91,317.02L292.22,314.78L289.95,313.32L288.73,309.41L289.43,305.99L291.14,303.8L290.4,302.98L289.69,298.31L289.85,297.16L289.55,296.17L290.32,295.54L290.26,294.97L289.39,293.8L288.84,293.69L288.72,293.15L289.25,291.7L289.25,291.7L290.47,292.66L292.99,292.71L296.63,291.38L298.4,291.15L302.13,291.84L303.53,290.88L306.48,290.26L309.18,290.43L311.26,291.93L312.15,291.19L317.1,291.26L317.25,290.68L316.46,289.72L316.99,288.35L318.81,288.08L319.7,286.78L322.85,285.84L325.03,286.06L326.64,285.77L327.32,286.05L326.93,286.36L327.15,287.04L327.89,287.23L328.24,286.99L329.6,287.67L330.14,287.42L330.67,287.71L331.79,287.01L331.43,286.36L338.15,286.36L338.56,284.38L338.39,282.42L350.58,282.48L350.77,284.26L350.51,284.56L351.6,286.36L379.84,286.13L379.03,282.04L378.36,281.38L379,280.39L378.95,279.77L379.41,279.5L379.28,277.06L380.51,275.61L381.21,272.21L381.63,271.57L381.06,269.1L380.07,267.42L379.62,265.74L380.18,265.46L380.23,265.04L384.8,264.94L385.8,263.27L385.4,261.77L386.68,261.11L387.18,260.35L388.59,260.26L388.31,259.52L387.4,258.91L387.72,258.27L387.13,257.92L385.82,255.12L386.27,254.5L385.47,252.43L386.35,247.28L385.88,245.73L387.74,241.31L389.19,239.79L388.43,238.45L388.26,236.93L425.62,236.86L426.38,232.67z"/>
		<path id="AO-LSU" title="Lunda Sul" class="land" d="M506.53,307.46L507.37,310.95L506.51,312.62L506.64,314.33L505.53,316.06L506.21,316.74L505.09,318.41L505.22,319.65L504.35,321.95L504.64,324.31L503.48,327.53L503.59,328.01L502.86,329.35L502.98,330.16L502.53,331.4L502.76,332.25L501.98,337.01L502.55,338.44L501.63,339.26L501.64,341.79L502.5,344.42L502.6,347.14L501.06,350.46L500.92,351.93L500.24,352.62L499.6,355.95L499.14,356.74L501.21,358.95L500.97,360.56L502.85,363.96L502.77,365.55L503.21,366.4L502.98,367.19L503.33,367.71L503.23,368.3L506.11,369.97L506.38,371.25L507.67,372.16L508.2,373.82L508.68,373.91L509.52,373.2L509.46,374.83L509.96,376.38L510.6,377.35L511.55,377.41L512.95,379.45L514.07,379.87L515.1,379.34L515.77,380.28L516.88,380.15L518.78,381.91L518.68,382.92L519.64,384.89L519.12,385.49L520.13,386.64L519.83,387.36L520.44,389.07L520.33,393.44L520.97,394.67L521,395.96L523.16,398.52L523.45,399.7L523.26,400.56L524.48,401.85L525.52,404.71L525.27,406.46L523.94,408.78L523.78,410.31L523.05,410.85L523.04,411.24L524.89,412.42L524.96,415.84L524.96,415.84L522.94,416.69L520.66,416.66L518.96,415.59L516.37,414.87L514.54,415.04L513.54,414.72L511.36,416.67L504.22,416.86L502.77,416.23L499.8,416.47L498.48,417.87L497.15,420.68L496.59,423.55L496.69,426.64L494.99,427.73L493.11,429.93L492.78,434.18L492.15,434.93L492.08,435.55L493.45,438.27L494.52,438.34L494.21,439.34L494.59,440.27L494.44,442.25L491.7,442.96L491.49,443.45L489.46,443.89L488.76,444.5L486.58,444.18L486.01,443.46L485.83,443.97L484.42,443.73L483.48,445.47L482.5,445.36L481.57,445.81L480.57,445.63L479.6,446.24L479.6,446.63L477.39,446.94L474.22,448.62L471.32,449.06L470.76,449.69L470.73,450.62L469.75,451.62L468.75,451.91L467.46,454.08L465.55,454.79L464.59,454.44L462.51,455.83L461.43,455.97L461.59,457.18L462.11,458.04L461.76,458.93L460.79,459.33L455.57,458.44L454.63,458.82L453.81,458.29L451.97,458.44L450.04,457.98L448.73,457.22L447.24,457.62L446.23,455.9L445.05,455.75L444.17,456.12L441.74,454.46L440.56,454.58L439.15,453.92L438.33,452.67L437.78,452.5L436.74,452.83L435.25,452.27L433.51,450.57L430.9,449.1L429.79,449.2L428.51,449.98L427.62,449.49L426.4,449.38L425.48,448.23L424.07,447.6L423.03,447.87L422.55,447.66L421.97,446.87L420.46,446.26L419.8,445.54L418.74,445.8L415.59,449.52L413.96,449.53L412,448.17L410.55,448.72L408.93,448.38L407.87,450.09L406.9,450.49L405.73,450.38L404.75,448.62L403.71,448.61L403.03,447.91L401.32,448.76L400.51,450.02L397.19,450.81L394.3,449.58L392.32,448.11L390.59,448.02L389.06,448.86L388.24,450.81L386.11,452.81L384.19,454.38L382.56,454.8L381.03,455.99L379.92,456.26L376.64,455.45L375.33,455.51L374.46,456.01L373.62,457.24L370.8,458.12L370.8,458.12L371.08,455.01L371.96,453.79L371.88,452.47L373.64,450.03L373.44,448.92L371.92,446.57L370.69,445.96L368.43,446L365.88,445.53L361.97,440.94L356.23,437.3L349.98,433.93L349.98,433.93L349.23,431.34L347.5,429.62L346.09,428.91L344.66,427.62L342.76,423.34L342.6,420.32L342.19,419.47L342.9,418.79L344.4,419.08L343.77,417.8L344.63,417.37L344.62,416.38L345.34,416.07L344.41,415.62L345.04,414.98L343.89,414.06L343.63,412.97L343.03,413.75L341.62,413.11L341.05,412.31L340.73,412.68L340.51,411.55L339.65,411.57L339.34,409.35L338.56,409.01L338.56,409.01L337.3,407.98L336.05,407.95L335.98,407.55L336.79,406.97L335.87,406.51L335.4,405.58L336.5,405.32L344.7,405.96L345.8,405.53L351.73,402.94L355.43,398.54L356.51,398.07L363.64,397.42L366.2,396.45L369.88,394.61L373.09,391.17L378.74,389.76L383.68,385.54L384.99,385.02L388.94,384.99L390.01,384.68L393.55,381.64L394.98,381.02L401.65,379.96L402.87,379.04L406.34,375.32L407.92,373.01L408.52,371.48L410.18,359.03L416.01,353.65L421.33,349.43L422.49,348.87L427.38,348.6L428.45,347.83L429.35,346.74L429.61,344.61L431.04,341.14L432.29,340.43L435.89,339.98L437.25,338.67L439.79,337.02L443.46,336.54L445.82,335.19L447.77,328.97L451.01,323.78L452.07,322.77L455.83,320.99L456.8,318.78L461.38,316.36L463.5,316.45L464.98,316.09L467.69,314.53L471.2,314.96L472.29,314.15L473.66,313.89L478.48,315.11L487.92,313.45L490.13,310L491.26,309.15L496.04,307.38L498.64,308.02L499.71,307.79L501.95,304.13L504.68,302.84L505.88,301.9L505.88,301.9L506.26,302.76L505.37,304L505.31,305.34z"/>
		<path id="AO-MAL" title="Malange" class="land" d="M203.95,296.77L209.38,297.56L210.63,296.71L211.54,295.47L212.78,294.89L215.11,295.02L216.19,294.43L218.14,292.29L218.81,290.03L218.97,287.21L220.39,285.1L220.48,283.95L219.66,279.07L216.43,269.62L216.45,267.1L219.31,265.7L220.82,265.51L223,265.83L224.2,265.37L225.23,264.2L226.37,264.02L227.61,263.31L229.97,259.97L231.08,257.68L233.18,256.14L242.38,252.74L244.54,253.16L245.65,254L247.04,257.65L248.08,258.6L252.02,264.27L254.19,266.12L257.48,266.77L259.68,266.16L260.92,265.1L261.61,262.93L261.67,259.33L262.48,258.27L264.8,256.37L266.01,255.85L267.54,255.69L268.49,256.28L268.49,256.28L268.19,257.57L268.45,257.96L269.4,257.93L270,256.98L270.78,257.95L271.67,258.02L272.14,258.57L271.97,259.11L270.73,259.38L270.45,260.16L271.06,260.84L272.7,261.62L272.97,262.25L272.61,263.27L273.72,265.5L275.17,266.75L277.44,267.73L277.95,268.41L277.63,270.53L277.19,271.01L277.95,271.69L278.5,271.57L278.62,272.33L279.17,272.36L278.7,274.42L279.81,275.39L282,276.09L281.91,277.5L283.11,277.59L282.71,278.53L283.56,278.31L284.12,278.57L283.79,279.91L284.81,280.06L285.28,280.59L284.66,282.77L285.43,283.59L286.1,283.63L285.94,284.36L286.73,283.91L287,284.08L287.11,286.28L286.7,286.36L287.87,287.01L289.1,288.53L289.03,288.77L288.35,288.66L287.73,289.76L287.77,290.46L288.89,290.93L289.25,291.7L289.25,291.7L288.72,293.15L288.84,293.69L289.39,293.8L290.26,294.97L290.32,295.54L289.55,296.17L289.85,297.16L289.69,298.31L290.4,302.98L291.14,303.8L289.43,305.99L288.73,309.41L289.95,313.32L292.22,314.78L291.91,317.02L292.53,319.32L291.95,321.45L292.4,324.7L292.27,326.81L290.8,334.62L291.3,335.83L291.53,338.14L292.48,340.55L292.19,341.64L290.5,344L290.57,346.31L289.55,347.66L287.32,348L281.44,350.22L279.14,352.15L279.38,354.5L280.42,355.58L280.79,357.91L281.87,358.96L283.02,361.23L283.41,363.5L282.97,364.68L283.67,365.79L286.04,366.27L286.75,368.48L287.83,369.28L292.27,370.42L292.67,371.58L293.69,372.7L293.51,374.95L294.32,376.03L298,375.47L302.74,377.7L304.38,382.97L305.31,384.07L306.76,384.43L307.06,386.13L309.12,389.19L309.15,390.16L308.35,391.26L308.55,391.73L308.21,392.85L308.53,393.71L309.75,394.34L310.86,397.27L311.9,397.82L312.79,399.34L313.54,399.98L315.78,400.78L315.81,402.23L310.75,406.89L310.91,407.69L312.91,409.79L312.9,410.85L314.06,411.32L316.26,411.41L317.31,411.91L320.65,414.31L321.8,415.69L322.98,415.91L327.48,418.79L328.55,418.94L334.55,418.46L335.73,416.07L335.08,414.83L334,414.19L333.63,412.99L334.97,410.75L337.23,409.96L338.56,409.01L338.56,409.01L339.34,409.35L339.65,411.57L340.51,411.55L340.73,412.68L341.05,412.31L341.62,413.11L343.03,413.75L343.63,412.97L343.89,414.06L345.04,414.98L344.41,415.62L345.34,416.07L344.62,416.38L344.63,417.37L343.77,417.8L344.4,419.08L342.9,418.79L342.19,419.47L342.6,420.32L342.76,423.34L344.66,427.62L346.09,428.91L347.5,429.62L349.23,431.34L349.98,433.93L349.98,433.93L350.36,434.98L349.62,436.31L349.3,438.64L349.69,441.01L351.11,443.02L350.11,446.87L350.63,447.73L352,448.44L353.29,449.89L353.27,451.14L353.94,452.86L353.41,453.92L352.26,454.14L351.17,453.61L348.95,453.45L342.67,455.35L338.53,457.28L334.49,461.46L333.41,462.31L332.33,462.6L329.84,462.28L328.64,462.53L326.14,461.43L319.82,463.02L316.33,462.34L314.52,463.28L313.66,462.74L313.26,461.78L312.38,461.28L310.21,461.8L307.94,461.38L307.44,460.51L307.55,458.08L306.48,455.72L303.76,453.37L304.56,456.76L304.84,460.72L304.51,462.19L299.81,466.2L299.68,467.26L298.59,468.41L297.48,468.43L296.33,469.02L296,470.19L295.01,471.23L292.83,471.48L292.12,472.12L291.16,471.72L290.08,470.54L287.7,470.15L287.43,469.73L288.55,467.41L287.83,465.4L286.7,463.76L286.62,462.59L287.35,461.23L289.03,460.12L288.63,459.19L287.33,459.93L286.99,459.57L287.15,458.09L288.18,457.05L288.67,454.79L286.14,451.13L285.53,449.03L285.5,447.34L285.12,447.02L283.46,447.1L282.05,446.42L281.86,445.94L282.87,445.58L283.3,444.62L284.96,444.24L285.43,441.33L284.94,439.74L283.92,438.68L283.4,437.17L281.87,435.91L281.76,432.92L281.26,432.02L278.49,429.94L277.18,428.51L274.1,428.69L271.19,427.71L270.85,426.06L268.61,426.07L267.92,427.43L266.94,427.07L264.63,425.28L261.62,424.12L257.49,423.39L254.21,424.07L251.96,423.75L249.04,420.51L246.4,419.62L245.99,418.14L244.51,417.88L244.06,416.29L244.24,415.77L245.11,415.28L244.92,414.76L243.56,413.91L243.56,413.91L242.25,411.93L241.03,411.04L238.89,408.4L237.82,406.7L235.79,406.1L235.51,405.11L235.74,402.64L234.89,402.1L234.53,401.07L233.25,399.64L231.43,399.44L230.65,398.87L230.02,395.08L230.37,394.1L232.37,392.6L232.67,391.84L231.38,389.19L231.07,386.1L228.96,383.39L229.37,380.35L228.5,379.18L226.36,378.26L225.32,377.42L224.58,375.08L222.77,372.88L217.52,372.33L214.1,371.56L209.2,372.24L205.76,371.23L204.53,371.37L202.25,374.53L198.64,374.75L195.29,374.13L192.98,374.59L191.82,374.31L189.56,374.84L187.4,374.59L185.2,375.01L182.7,376L180.98,376.1L178.95,376.06L178.04,375.59L176.9,375.82L174.81,375.53L173.33,374.31L172.36,374.28L171.36,373.23L170.38,372.83L169.63,371.87L169.63,371.87L172.24,369.59L172.54,368.54L171.94,365.01L171.25,363.89L170.1,363.05L169.99,361.99L173.43,358.96L172.87,356.56L169.98,354.47L171.54,353.86L173.28,354.18L176.07,353.67L176.32,350.56L176.8,348.98L178.18,347.64L179.69,347.1L182.1,347.13L183.03,346.72L184.44,345.35L186.16,345.25L188.14,343.83L188.76,343.85L189.97,344.73L190.9,344.76L191.83,344.4L194.29,344.49L195.97,343.38L196.38,340.42L195.81,336.93L196.62,334.73L197.2,330.04L199.01,324.36L200.47,322.11L199.4,319.66L196.94,319.5L195.86,318.77L194.49,315.9L197.75,311.28L197.49,309.06L203.88,307.48L205.2,305.94L204.52,304.98L204.84,303.58L204.23,302.82L204.49,300.78L203.84,299.45z"/>
		<path id="AO-MOX" title="Moxico" class="land" d="M370.8,458.12L373.62,457.24L374.46,456.01L375.33,455.51L376.64,455.45L379.92,456.26L381.03,455.99L382.56,454.8L384.19,454.38L386.11,452.81L388.24,450.81L389.06,448.86L390.59,448.02L392.32,448.11L394.3,449.58L397.19,450.81L400.51,450.02L401.32,448.76L403.03,447.91L403.71,448.61L404.75,448.62L405.73,450.38L406.9,450.49L407.87,450.09L408.93,448.38L410.55,448.72L412,448.17L413.96,449.53L415.59,449.52L418.74,445.8L419.8,445.54L420.46,446.26L421.97,446.87L422.55,447.66L423.03,447.87L424.07,447.6L425.48,448.23L426.4,449.38L427.62,449.49L428.51,449.98L429.79,449.2L430.9,449.1L433.51,450.57L435.25,452.27L436.74,452.83L437.78,452.5L438.33,452.67L439.15,453.92L440.56,454.58L441.74,454.46L444.17,456.12L445.05,455.75L446.23,455.9L447.24,457.62L448.73,457.22L450.04,457.98L451.97,458.44L453.81,458.29L454.63,458.82L455.57,458.44L460.79,459.33L461.76,458.93L462.11,458.04L461.59,457.18L461.43,455.97L462.51,455.83L464.59,454.44L465.55,454.79L467.46,454.08L468.75,451.91L469.75,451.62L470.73,450.62L470.76,449.69L471.32,449.06L474.22,448.62L477.39,446.94L479.6,446.63L479.6,446.24L480.57,445.63L481.57,445.81L482.5,445.36L483.48,445.47L484.42,443.73L485.83,443.97L486.01,443.46L486.58,444.18L488.76,444.5L489.46,443.89L491.49,443.45L491.7,442.96L494.44,442.25L494.59,440.27L494.21,439.34L494.52,438.34L493.45,438.27L492.08,435.55L492.15,434.93L492.78,434.18L493.11,429.93L494.99,427.73L496.69,426.64L496.59,423.55L497.15,420.68L498.48,417.87L499.8,416.47L502.77,416.23L504.22,416.86L511.36,416.67L513.54,414.72L514.54,415.04L516.37,414.87L518.96,415.59L520.66,416.66L522.94,416.69L524.96,415.84L524.96,415.84L524.84,419.21L525.34,419.9L525.83,422.43L525.51,424.01L524.22,424.99L522.5,425.16L520.77,426.01L518.26,427.98L517.94,429.11L518.32,430.74L519.51,432.62L519.55,435.26L520.2,437.13L520.24,440.57L522.35,443.64L522.66,445.1L522.12,446.69L523.07,447.82L524.13,447.54L525.84,445.7L526.67,444.17L530.9,444.09L533.75,441.37L533.9,440.25L533.46,438.78L533.88,437.93L534.5,437.47L537.07,436.88L538.21,437.15L541.57,439.48L545.01,440.85L548.47,440.92L549.32,439.51L550.43,439.4L552.11,438.45L553.91,439.42L556.61,440.26L559.35,440.36L562.79,441.55L566.15,440.01L568.67,440.46L572.9,436.91L580.12,432.27L583.58,432.68L585.29,433.34L587.51,435.02L589.66,434.89L591.79,435.77L593.55,435.75L595.4,434.97L598.85,436.75L600.66,436.74L601.66,436.23L602.51,434.77L605.22,433.11L606,432.29L606.95,430.21L607.74,429.95L607.29,431.04L608.72,432.31L608.95,432.75L608.7,433.39L609.21,433.83L608.52,437.83L608.87,440.13L608.23,441.42L609.51,442.26L609.68,442.83L609.78,449.11L610.92,451.02L612,455.22L611.45,456.25L610.24,456.71L609.48,457.57L609.26,458.81L609.75,461.53L608.12,464.53L607.5,467.17L606.53,468.11L607.72,470.88L607.86,472.73L609.17,476.46L608.95,477.06L608.08,477.7L607.46,480.45L607.12,490.93L607.25,493.07L608.65,496.15L611.34,498.64L611.12,499.17L611.56,500.56L610.58,501.76L611.61,502.55L611.8,503.71L611.54,506.16L609.25,507.88L608.56,509.44L607.74,509.89L607.52,510.75L606.54,511.14L606.34,512.04L605.77,512.71L605.99,515.9L604.52,518.49L604.66,520.65L603.67,523.13L603.2,527.16L603.27,527.75L604.29,528.55L604.55,529.24L606.83,530.41L609.2,532.84L609.94,535.05L509.35,535.76L509.34,696.19L509.34,696.19L507.65,694.58L500.98,690.82L500.7,689.05L500.01,688.34L500.12,687.15L498.54,685.89L497.8,684.52L497.61,682.92L496.9,682.25L495.68,682.25L495.32,681.9L495.32,680.74L494.87,679.76L495.2,678.85L493.38,677.84L492.08,677.8L489.94,675.73L488.62,672.17L487.05,670.94L487.34,668.78L485.73,667.55L484.86,665.65L484.45,665.34L483.28,665.33L482.58,664.6L482.35,663.48L482.64,660.32L481.81,658.35L480.87,657.93L480.31,657.13L477.92,656.8L476.42,655.48L475.31,655.18L473.62,653.33L472.15,648.58L470.43,647.53L468.05,647.69L467.4,646.81L467.79,645.21L467.34,645.11L466.46,645.66L465.45,645.26L464.19,643.04L462.95,642.12L460.78,639.43L458.24,638.75L457.02,637.91L456.5,636.99L455.58,637.41L454.37,637.43L452.56,635.75L451.4,635.74L450.95,636.68L450.41,636.85L445.69,635.88L444.76,634.72L443.79,634.36L441.89,635.26L440.24,634.89L437.89,636.02L435.13,635.37L432.21,636.57L427.71,635.51L423.93,635.87L421.14,634.39L418.91,633.88L414.84,631.64L413.36,629.64L411.37,628.19L409.97,625.78L408.82,625.49L408.34,624.66L407.31,625L406.79,624.81L406.76,623.56L405.66,623.62L405,622.13L401.7,619.86L401.36,618.95L400.18,618.01L399.75,617.09L398.28,616.42L397.84,614.85L395.63,613.6L394.06,609.63L392.54,608.36L391.98,605.44L389.32,603.26L388.37,600.75L387.64,599.93L381.93,601.11L379.75,600.4L378.15,600.66L376.95,600.4L374.78,598.57L373.63,598.14L372.55,598.5L369.91,599.93L369.99,602.08L371.66,608.01L364.69,604.25L363.53,604.33L358.62,606.21L358.12,606.27L356.72,605.29L356.15,605.3L356.24,604.68L355.16,603.59L355.14,602.73L354.01,601.66L353.93,600.07L352.98,599.53L351.83,597.15L351.61,595.48L352.08,594.49L350.63,590.61L351.15,589.06L350.95,588.57L348.48,585.03L348.13,583.33L347.27,582.1L345.06,580.76L344.7,579.4L343.87,578.76L343.1,579.03L342.41,578.19L340.37,576.87L339.55,575.78L338.44,575.36L336.13,576.23L335,575.82L330.28,572.36L328.02,571.21L324.71,571.96L323.56,571.9L309.93,564.03L309.93,564.03L309.84,562.95L309.24,561.83L310.95,559.06L310.57,557.66L309.03,555.38L312.32,552.5L316.21,551.12L316.53,550.04L316.26,547.69L313.69,543.12L315.51,540.83L314.87,539.47L318.37,537.9L318.82,535.69L319.92,534.61L321.15,534.25L321.59,533.12L321.42,532.04L319.54,528.55L319.52,527.24L320.73,526.18L321.4,527.3L325.17,523.67L327.44,522.45L327.84,521.39L327.33,519.04L331.25,514.78L332.88,512.52L333.21,511.35L332.8,508.97L333.78,507.92L338.86,503.2L341.56,502.8L342.78,501.81L343.64,500.26L344.88,499.35L347.52,498.84L348.39,497.78L348.72,496.47L347.67,495.52L347.71,494.36L354.14,488.59L355.09,487.33L355.22,485.48L353.77,483.04L353.58,481.72L354.04,480.52L355,479.23L356.08,478.66L356.85,475.36L357.65,474.21L358.9,474.77L360.07,474.68L360.79,473.56L360.59,472.49L359.53,471.54L359.33,470.47L360.42,469.9L363.84,469.75L364.93,468.66L365.35,467.57L365.7,463.19L366.19,462.13L368.43,459.97L369.42,458.47z"/>
		<path id="AO-NAM" title="Namibe" class="land" d="M1.67,713.26l0.78,0.16l0.14,0.5l-0.04,1.83l0.27,0.47l-0.42,0.92l0.6,1.26l-0.04,2.91l0.49,0.78l0.08,1.61l-1.33,-1.29l-2.07,-5.68l0.01,-2.03l0.71,-0.98L1.67,713.26zM43.3,562.11l3.43,0.03l2.25,0.87l3.51,0.33l2.26,1.1l2.54,0.05l2.09,1.87l1.07,0.45l4.28,-1.98l3.65,-1.02l0.85,-2.3l1.22,-0.2l2.23,1.08l3.75,0.3l3.35,0.99l1.1,0.62l0.31,1.19l-1.12,2.35l-0.22,1.18l0.34,1.08l2.79,3.54l1.52,3.59l1.19,0.76l2.21,-1.27l1.25,0.25l2.16,1.32l1.07,0.24l1.41,-0.31l0,0l0.89,2.73l2.15,1.46l0.35,1.19l-0.32,1.14l-2.18,3.57l-0.44,1.58l1.19,2.36l0.68,2.41l-0.81,2.55l0.48,1.22l1.16,0.8l1.11,-0.59l1.16,0.52l-0.4,2.48l0.49,2.21l0.19,4.21l-2.74,3.74l-0.27,4.79l-2.47,5.79l-2.93,2.02l-3.7,1.63l-3.59,2.8l-0.95,1.27l-2.37,0.36l-2,2.17l0,1.4l1.24,3.59l-2.04,2.41l-0.36,1.24l2.92,3.44l-0.38,1.2l-3.68,2.11l0.09,1.19l1.12,1.02l2.38,-0.65l1.42,0.28l0.19,1.65l-0.36,1.34l1.04,1.26l1.16,-0.1l1.22,-0.83l0.52,-1.07l1.37,0.33l0.76,2.33l-0.65,2.46l0.74,1.14l2.35,1.85l3.75,1.41l-0.31,12.17l0.24,1.12l2.38,3.65l-3.86,6.89l-1.84,4.66l0.49,2.3l1.99,3.66l-0.07,1.09l-1.1,1.05l-0.43,1.11l-1.29,0.7l0,0l-4,4.57l-0.94,0.07l-1.45,1.35l-0.55,-0.71l-0.78,1.55l-1.56,0.09l-1.11,1.72l-1.48,0.2l-0.79,0.61l-1.13,1.75l2.01,1.92l0.71,1.15l0.23,1.15l-1.77,2.54l-1.24,0.84l-1.12,0.14l-1.14,1.11l-1,2.29l0.38,1.24l1.01,1.27l7.14,7.12l1.34,2.51l0.2,2.61l0.47,0.09l0,0l-3,0.57l-0.9,0.52l-2.09,-0.73l-1.08,0.09l-0.54,-1.02l-0.51,0.29l-2.04,-0.48l-2.32,0.92l-1.42,-0.22l-4.11,0.52l-1.85,1.74l-1.36,0.15l-1.05,1.11l-1.04,0.18l-0.23,0.97l-1.4,0.92l-0.99,0.19l-0.83,1.47l-1.39,0.31l-3.33,2.43l-0.59,-0.11l-2.17,0.95l-1.97,1.24l-0.53,1.1l-1.15,-0.02l-0.7,0.62l-0.85,-0.12l-0.95,0.45l-1.55,-0.01l-0.48,-0.35l-1.83,1.16l-0.56,-0.23l-0.23,-2.21l-0.44,-0.37l-1,-0.13l-0.35,0.69l-0.58,-0.03l-0.51,0.55l-1.13,-0.57l-3.07,1l-0.97,-0.36l-1.06,0.26l-3.05,-2.02l-1.01,-1.98l-1.39,0.26l-1.47,-0.24l-1.3,-0.76l-0.86,0.59l-0.94,-0.18l-2.19,0.97l-2.69,0.56l-2.07,1.2l-1.18,1.32l-1.15,0.47L8.31,750.6l-0.81,1.38l-0.45,0.18l-1.07,0.03l-1.87,-0.93l0.01,-11.24l0.53,-4.64l0.95,-3.17l-0.55,-5.1l0.82,-0.63l-0.22,0.46l0.43,0.04l-0.36,0.36l-0.31,2.03l0.57,-0.06l0.73,-0.84l0.34,-1.21l0.55,-3.74l-0.36,-1.38l0.15,-0.18l0.23,-0.09l0.01,-1.89l-0.44,-0.7l0.43,-0.41l-0.41,-1.16l0.25,-0.07l0.33,-7.06l-1.81,-16.5l-0.01,-2.04l0.78,-3.58l-1.2,-2.55l-2.2,-3.21l-0.22,-1.65l0.93,-2.76l1.34,-1.95l0.4,-0.11l-0.01,0.42l0.53,0.23l1.69,-0.68l1.22,0.03l-0.12,0.31l-1.11,-0.23l-1,0.47l0.06,0.33l0.71,0.24l1.19,-0.11l1.62,-0.85l0.66,-1.57l0.69,-0.41l0.82,-3.51l1.97,-0.89l1.41,-1.41l0.45,-1.96l0.75,-1.24l0.55,-4.15l-0.04,-4.62l0.64,-2.23l0.51,-0.52l0.08,-5.49l1.82,-1.62l0.7,-0.01l0.97,-0.77l0.75,0.55l0.62,-0.69l0.15,-1.13l-0.66,-1.62l-0.33,-0.18l-0.41,0.55l-0.81,-0.03l0.29,-1.3l0.45,-1.34l0.53,-0.41l0.52,-1.79l1.04,-0.97l-0.27,-1.85l0.37,-1.27l1.07,-0.55l0.56,-2.46l0.53,-0.2l-0.16,-2.42l0.49,-0.66l1.31,-0.35l0.81,-2.28l1.11,-1.46l-0.12,-1.44l-0.68,-1.39l1.22,-1.53l-0.21,-1.97l0.44,-0.69l0.34,-2.17l0.56,-3.23l0.84,-1.74l0.06,-1.38l0.47,-0.11l0.62,-4.03l-0.33,-1.4l0.84,-1.28l-0.26,-0.91l0.27,-0.39l-0.75,-0.93l0.04,-1.25l-1,-1.42l-0.15,-1.18l0.04,-0.48l0.56,0.28l0.88,-0.41l0.47,-1.28l-0.89,-2.71l0.4,-2.15l0.79,-0.35l0.74,-0.98l0.44,-2.75l-0.26,-0.14l0.08,-0.93l0.48,-0.36l0.18,0.32l0.74,-0.76l-0.41,-2.19l0.19,-1.02l3.57,-0.53l-0.36,0.65l1.21,0.1l0.86,-1.77l-0.47,-0.2l0.1,-1.68l0.26,-1.25l-0.23,-0.99l0.51,-0.94l-0.29,-0.21l0.42,-2.48l-0.21,-0.94l0.44,-1.97l-0.57,-0.34l0.06,-0.88l0.23,-0.66l0.85,-0.52l-0.01,-0.9l0.19,-0.73l-0.56,-0.2l-0.19,-0.53L43.3,562.11z"/>
		<path id="AO-UIG" title="Uíge" class="land" d="M232.54,181.19L233.49,182.17L235.4,182.55L238.77,181.68L243.11,183.66L243.16,184.82L242.59,186.03L242.71,186.6L243.43,186.92L243.04,187.76L243.51,189.67L243.08,190.56L243.25,190.89L244.51,190.68L244.75,191.01L244.37,191.37L243.52,191.38L243.46,191.89L245.29,192.44L245.55,192.93L245.37,193.94L246.06,193.79L246.61,194.46L247.55,194.54L249.12,195.84L249.1,196.53L249.58,197.22L248.57,199.27L248.97,200.45L248.52,201.99L249.29,204.62L248.84,205.47L247.56,205.18L247.48,205.61L248.22,206.23L247.6,207.65L248.95,207.86L249.65,208.63L248.61,209.65L249.76,211.02L249.4,212.34L251.16,213.7L250.48,215.55L250.59,216.2L251.83,216.93L252.68,221.3L253.04,222.12L254.51,222.92L254.8,225.68L256.52,227.35L256.75,229.4L257.69,229.96L258.68,229.7L259.91,230.78L259.74,232.77L260.24,233.53L259.83,235.29L260.39,236.01L261.51,236.27L262,238.11L261.06,240.83L260.33,240.67L260.06,239.99L259.34,240.34L259.3,241.12L260.42,243.19L260.56,244.49L261.39,245.36L260.62,246.27L260.57,247L262.29,248.35L263.04,249.96L263.12,251.77L264.35,251.66L265.08,252.81L266.04,253.12L266.62,253.88L268.25,254.05L268.59,254.61L268.49,256.28L268.49,256.28L267.54,255.69L266.01,255.85L264.8,256.37L262.48,258.27L261.67,259.33L261.61,262.93L260.92,265.1L259.68,266.16L257.48,266.77L254.19,266.12L252.02,264.27L248.08,258.6L247.04,257.65L245.65,254L244.54,253.16L242.38,252.74L233.18,256.14L231.08,257.68L229.97,259.97L227.61,263.31L226.37,264.02L225.23,264.2L224.2,265.37L223,265.83L220.82,265.51L219.31,265.7L216.45,267.1L216.43,269.62L219.66,279.07L220.48,283.95L220.39,285.1L218.97,287.21L218.81,290.03L218.14,292.29L216.19,294.43L215.11,295.02L212.78,294.89L211.54,295.47L210.63,296.71L209.38,297.56L203.95,296.77L203.95,296.77L203.71,291.99L203.04,291.29L202.52,291.39L202.27,291.85L201.72,291.7L201.08,289.89L201.07,289.36L202.5,289.1L202.49,288.66L200.72,287.7L199.72,286.61L195.19,286.68L193.44,288.33L190.54,289.24L188.81,289.13L187.06,288.39L186.65,286.74L186.79,285.1L185.97,283.86L184.52,283.08L178.54,283.23L174.04,284.3L174.43,286.9L173.39,288.58L173.23,289.83L173.55,290.17L174.52,289.83L175.59,290.87L175.54,291.45L174.47,293.09L174.42,296.18L174.01,296.38L173.57,297.67L172.64,297.81L172.3,298.85L171,298.96L170.34,301.05L167.62,300.73L165.05,301.96L162.56,300.33L160.04,300.09L158.28,301.75L157.76,303.64L155.82,305.8L153.43,306.76L151.67,306.61L149.74,305.76L147.91,306.07L147.27,304.12L147.27,304.12L146.38,301.35L146.44,298.81L147.08,296.51L150.12,291.93L150.44,290.82L150.26,287.52L150.88,282.78L150.63,281.5L149.49,280.55L147.09,280.25L139.78,281.79L136.31,281.45L133.91,280.02L131.58,279.37L130.48,278.59L126.66,273.79L125.56,273.01L124.74,271.87L123.67,271.49L122.6,270.55L122.63,269.46L121.67,268.33L120.59,267.98L118.45,268.18L113.89,267.79L112.76,268.18L110.59,267.9L108.37,268.1L106.31,267.56L106.31,267.56L107.36,264.46L108.8,263.87L110.95,263.74L112.5,261.88L112.99,261.96L113.44,261.09L112.8,259.99L110.7,258.63L110.15,257.53L110.15,256.45L108.19,254.48L108.12,253.26L108.94,251.04L111.9,247.68L112.07,246.49L109.92,245.07L107.95,243.02L106.81,238.37L105.27,235.92L105.87,235.4L107.65,235.15L109.92,235.22L110.36,235.51L112,235.25L116.39,231.48L122.29,229.93L124.75,228.34L126.84,227.79L127.82,225.32L128.71,224.19L128.87,223.12L131.75,221.24L132.8,220.96L136.34,221.34L139.65,219.87L141.69,217.28L145.13,217.42L148.55,216.76L153.37,214.8L158.93,206L160.89,204.49L163.53,200.84L159.74,198.28L158.88,197.2L158.84,193.32L158.22,191.04L157,188.78L152.97,183.36L152.52,181.82L152.52,181.82L170.1,181.34L190.17,181.6L197.28,181.27L206.49,181.79L225.82,181.12z"/>
		<path id="AO-ZAI" title="Zaire" class="land" d="M32.7,191.47l-0.53,1.46l-1.2,0.1l0.62,0.19l0.45,0.04l-0.31,1.35l-0.25,0.37l-0.7,-0.23l-0.7,0.49l-0.27,-0.79l0.14,-1.4L32.7,191.47zM114.27,179.87l2.56,2.1l2.01,-0.89l4.19,0.13l0.65,-0.35l2.68,1.36l3.14,-0.34l3.49,0.68l4.57,0.25l2.49,-0.53l4.24,0.98l5.12,-1.44l3.11,0.01l0,0l0.45,1.55l4.03,5.42l1.22,2.26l0.63,2.29l0.04,3.87l0.85,1.08l3.79,2.56l-2.64,3.66l-1.96,1.51l-5.56,8.8l-4.82,1.96l-3.42,0.66l-3.44,-0.14l-2.05,2.59l-3.31,1.47l-3.53,-0.38l-1.05,0.29l-2.88,1.88l-0.16,1.07l-0.89,1.14l-0.98,2.47l-2.09,0.55l-2.46,1.59l-5.9,1.55l-4.39,3.77l-1.64,0.26l-0.44,-0.29l-2.27,-0.07l-1.78,0.25l-0.6,0.52l1.54,2.45l1.14,4.64l1.97,2.06l2.15,1.41l-0.17,1.19l-2.96,3.36l-0.81,2.22l0.07,1.22l1.96,1.96l0,1.08l0.55,1.1l2.1,1.36l0.64,1.1l-0.45,0.88l-0.49,-0.08l-1.55,1.85l-2.14,0.14l-1.44,0.59l-1.05,3.1l0,0l-4.71,2.73l-1.16,0.11l-0.94,-0.41l-1.5,0.37l-1.47,1.27l-0.95,-0.1l-0.83,0.55l-2.65,0.36l-1.16,0.88l-2.32,0l-2.26,-1.87l-1.01,-0.34l-4.26,1.18l-1.07,1.62l-1.89,-0.73l-1.75,1.66l-1.92,0.8l-4.47,0.88l0,0l-1.04,-1.52l-0.36,-2.12l-0.05,-0.42l-1.56,-3.03l-0.34,-1.67l-1.09,-1.24l0.49,-1.18l-1.03,-1.03l-1.77,-4.67l-0.77,-1.32l-1.08,-4.86l-2.97,-3.22l-0.15,-1.17l0.33,-1.14l-0.31,-0.85l-0.37,-2.65l0.36,-2.03l-1.1,-4.08l0.08,-1.71l-1.18,-1.84l-0.08,-0.38l-2.25,-2.59l-0.59,-1.48l-9.08,-9.97l-0.34,-1.52l-2.68,-4.05l-5.22,-11.17l-5.4,-7.88l0.59,0.03l0.55,-0.46l0.57,-0.98l0.97,0.26l0.22,-0.14l-1.09,-0.41l0.11,-0.53l1.31,0.17l1.15,-0.53l1.49,0.33l0.04,-0.05l-0.31,-0.34l1.6,-0.31l1.07,0.37l0.48,0.27l-0.49,-1.76l4.39,-1.23l3.88,-1.85l3.88,-0.39l2.67,-1.59l3.58,-0.26l3.35,-1.25l6.59,-3.61l2.54,-0.03l1.14,1.06l0.99,0.33l3.03,-1.28l3.14,-0.48l5.49,1.75l1.12,-1.22l0.69,-0.27l5.48,-0.08l2.05,0.5l1.21,-0.24l12.64,0.05l3.24,-0.97l2.79,0.13L114.27,179.87z"/>
	</g>
</svg>