<?xml version="1.0" encoding="utf-8"?>
<!-- (c) ammap.com | SVG map of Argentina - Low -->
<svg xmlns="http://www.w3.org/2000/svg" xmlns:amcharts="http://amcharts.com/ammap" xmlns:xlink="http://www.w3.org/1999/xlink" version="1.1">
	<defs>
		<style type="text/css">
			.land
			{
				fill: #CCCCCC;
				fill-opacity: 1;
				stroke:white;
				stroke-opacity: 1;
				stroke-width:0.5;
			}
		</style>

		<amcharts:ammap projection="mercator" leftLongitude="-73.584888" topLatitude="-21.777295" rightLongitude="-53.646671" bottomLatitude="-55.053654"></amcharts:ammap>

		<!-- All areas are listed in the line below. You can use this list in your script. -->
		<!--{id:"AR-B"},{id:"AR-K"},{id:"AR-H"},{id:"AR-U"},{id:"AR-C"},{id:"AR-X"},{id:"AR-W"},{id:"AR-E"},{id:"AR-P"},{id:"AR-Y"},{id:"AR-L"},{id:"AR-F"},{id:"AR-M"},{id:"AR-N"},{id:"AR-Q"},{id:"AR-R"},{id:"AR-A"},{id:"AR-Z"},{id:"AR-G"},{id:"AR-S"},{id:"AR-J"},{id:"AR-D"},{id:"AR-V"},{id:"AR-T"}-->

	</defs>
	<g>
		<path id="AR-B " title="Buenos Aires" class="land"
d="M273.73,261.63l-0.55,0.24l-0.6,1.29v0.99l1.22,0.73l2.16,-1.19l0,0l2.09,1.83l6.81,2.94l6.49,4.31l2.92,2.39l2.67,3.64l1.19,2.28l-0.13,1.03l-4.46,6.9l-0.21,1.1l0.2,2.94l1.2,2.95l1.24,1.86l3.42,3.04l2.17,1.22l2.96,-1.42l0.45,0.24l0.85,2.09l0.5,3.86l0.19,6.57l-0.32,1.13l-2.58,3.59l-4.74,8.39l-1.84,2.44l-2.64,2.59l-2.79,3.58l-0.86,2.45l-0.17,1.19l0.27,0.82l-0.13,1.38l-0.34,0.64l-1.69,1.65l-3.46,2.47l-6.39,3.54l-2.03,0.88l-8.44,2.65l-4.8,2.1l-8.38,1.77l-5.34,1.62l-2.16,0.17l-16.57,2.98l-4.9,0.53l-3.92,-0.1l-1.44,-0.26l-2.71,0.76l-5.03,-0.63l-3.72,-1l-1.19,-0.63l-0.43,-1.2l-1.73,-1.11l-2.6,-0.61l-0.6,0.29l-0.18,0.41l0.52,1.4l1.59,1.74l-1.05,2.85l-0.23,2.07l0.4,2.15l2.93,0.61l1.69,0.95l0.87,0.9l0,0.51l-0.58,0.56l-1.43,-0.95l-1.01,-1.44l-1.23,0.16l-0.28,0.52l2.32,2.22l1.41,1.75l-0.88,7.7l-1.01,0.56l-1.62,-0.36l-0.85,1.1l-0.59,2.87l0.07,2.61l-0.25,1.27l-0.31,0.72l-0.97,0.56l-1.2,1.65l1.22,3.68l2.26,2.35l0.54,0.02l0.35,1.03l-0.28,0.73l-0.82,-0.03l-0.51,-0.56l-0.03,1.53l0.21,0.17l1.21,-0.79l1.17,-0.4l-0.08,0.51l-0.47,0.28l-1.72,4.85l-7.35,4.33l-0.81,0.01l0,0l-2.44,-3.93l-1.76,-1.79l-2.1,-1.38l-4.75,-0.93l-0.13,-32.62l0,0l0.08,-97.9l0,0l0.04,-13.66l9.56,0.06l0,0l20.71,-0.11l14.19,-16.04l-0.18,-0.73l0.33,-0.83l1.31,-0.38l3.17,0.59l1.93,1.42l1.56,-0.34l0.96,-1.94l0.18,-1.5l2.41,-3.27l0.22,-0.8l-0.43,-0.49l0,0l0,0l0,0l1.28,0.79l2.72,2.81l3.98,2.35l1.13,1.33l1.19,0.87l2.24,1.07l1.46,-0.67l1.96,1.92l3.23,1.27l2.44,0.66l1.24,0.05l5.38,3.5l1.42,1.21l1.06,0.14l1.4,-0.77l1.31,-0.2l0,0l0.93,0.49l0.21,0.38l0.14,2.95l-1.03,1.66l-0.75,0.44l-0.43,0.98L273.73,261.63zM211.72,367.77l-3.04,-1.79l-0.64,-1.28l0.07,-0.56l3.67,1.23l0.55,1.81l-0.07,0.4L211.72,367.77z"/>
		<path id="AR-K" title="Catamarca" class="land" d="M152.39,121.75L154.01,129.09L154.15,132.01L154.01,133.5L152.18,135.89L152.21,136.97L153.2,137.4L153.64,137.89L153.82,138.68L154.17,145.17L154.77,150.04L155.57,152L157.58,155.61L157.58,155.61L156.06,155.98L156.77,161.92L153.14,166.04L153.14,166.04L143.17,154.1L141.8,152.15L141.64,150.19L140.76,148.72L135.17,143.53L130.86,141.2L130.44,140.43L130.21,138.07L128.34,133.78L127.5,132.79L119.79,129.47L118.85,129.3L118.35,129.49L117.31,130.65L116.02,130.8L112.64,130.42L112,129.63L110.2,128.45L109.67,128.47L107.71,131.25L106.68,131.39L104.89,130.94L103.99,130.54L103.14,129.43L102.65,128.63L102.31,126.88L100.79,126.25L98.61,125.94L94.47,123.85L93.65,123.86L93.05,123.37L93.01,120.29L93.34,119.13L93.31,118.56L93.02,118.27L89.3,118.48L85.29,119.43L80.82,118.99L80.82,118.99L81.67,116.07L84.75,110.65L85.36,108.92L85.21,108.14L85.41,107.52L86.49,105.68L87.73,105.37L88.52,105.5L89.41,106.08L93.66,104.62L95.26,103.75L95.9,101.52L93.21,97.15L91.31,94.89L90.54,93.3L90.59,90.82L90.89,89.25L93.87,86.34L92.18,78L91.09,75.49L90.25,72.63L90.74,70.08L91.79,67.14L92.31,66.42L92.31,66.42L104.61,68.83L126.97,68.54L127.49,69L128.83,72.79L128.37,75.38L126.84,76.53L123.89,76.66L122.79,77.57L122.55,79.28L122.9,80.68L126.12,85.09L128.09,89.02L129.77,90.75L130.53,90.9L130.8,90.6L131.98,87.97L132.47,87.74L134.57,87.76L134.57,87.76L134.43,88.71L133.39,91.15L133.45,94.17L136.92,95.13L139.73,97.27L140.05,98.06L139.51,101.98L134.76,107.9L133.92,109.88L135.57,110.33L137.6,111.98L138.65,116.65L140.33,119.51L140.86,119.6L141.58,119.23L142.78,119.96L143.43,122.52L145.21,124.62L146.31,122.95L149.26,120.72L151.11,121.98z"/>
		<path id="AR-H" title="Chaco" class="land" d="M266.72,123.58L215.04,123.6L215.04,123.6L214.94,76.38L184.46,76.33L184.46,76.33L203.74,51.18L203.64,45.72L203.64,45.72L209.96,48.61L211.61,49.72L213.11,50.08L215.21,51.5L216.08,53L217.92,53.89L219.71,55.64L223.66,56.29L224.2,56.63L225.25,58.08L226.04,59.97L227.07,61.1L231.37,64.57L236.86,67.28L238.87,70.06L241.72,73.03L241.98,74.85L242.74,76.47L245.54,77.75L248.46,79.52L251.48,83.42L252.08,85.77L256.42,86.71L257.08,89.35L257.77,89.95L259.12,90.14L260.29,89.74L264.57,90.99L266.48,93.2L270.15,95.97L273.82,99.85L275.85,100.96L275.85,100.96L275.1,101.42L273.71,103.02L271.76,105.76L270.87,105.93L270.43,106.49L270.4,107.19L271.39,108.32L271.29,109.7L271.29,109.7L268.77,111.08L266.81,112.89L267.43,118.15z"/>
		<path id="AR-U" title="Chubut" class="land" d="M35.09,533.72L35.82,533.14L35.38,531.23L35,530.71L33.12,529.82L32.42,526.71L33.18,522.31L33.86,521.8L35.79,521.38L38.31,520.22L41.36,515.79L40.81,513.89L37.75,509.91L36.83,507.96L36.22,507.35L33.35,506.38L27.45,505.47L27.29,502.03L27.8,501.71L29.54,502.45L31.54,502.69L32.8,501.75L34.93,502.44L37.87,501.45L40.08,502.79L41.74,502.83L42.68,501.53L42.57,499.41L43.33,497.6L44.15,497.46L44.57,497.01L44.8,496.16L43.84,494.04L43.23,493.5L39.51,492.75L36.89,492.99L32.67,492.94L31.78,492.75L31.32,492.04L31.51,491.53L32.33,490.93L32.39,488.09L31.95,486.75L32.66,484.78L35.06,481.12L35.02,480.57L32.14,476.74L32.15,476.02L34.04,474.89L34.27,474.32L34.06,472.71L29.83,469.02L29.93,467.37L30.55,465.83L33.37,465.15L33.38,462.14L31.64,461.07L28.67,460.79L27.7,460.37L27.24,459.98L26.18,457.93L26.81,454.21L26.65,450.91L26.14,447.72L27.85,442.29L26.3,440.25L28.34,436.56L28.77,436.33L29.35,436.45L29.79,437.5L30.34,437.59L32.7,436.48L33.61,435.62L33.52,434.02L33.01,433.3L33.01,433.3L153.04,433.29L154.32,433.55L154.32,433.55L155.56,436.03L157.68,437.91L162.63,439.56L163.8,439.29L165.15,439.77L163.89,441.17L162.68,443.23L162.78,443.89L165.38,444.17L171.51,443.82L172.71,442.51L172.75,440.87L172.42,440.09L171.56,439.63L168.26,439.68L167.62,439.3L168.2,438.9L170.64,438.42L173.32,437.33L175.88,435.8L178.08,435.49L178.41,435.74L179.5,438.59L180.51,439.95L181.05,441.39L181.18,448.31L180.29,451.99L179.28,453.25L178.69,453.48L171.78,455.04L171.08,454.65L169.07,452.25L169.02,451.62L169.96,449.06L167.49,446.49L165.34,445.67L162.36,445.97L160.26,446.95L159.47,448.06L158.7,448.65L156.74,449.12L156.29,449.45L155.11,451.48L155.28,452.32L155.64,452.72L158.97,453.88L162.2,456.11L166.06,457.23L167.73,456.6L168.19,457.57L166.46,458.91L162.85,460.67L160.81,461.08L159.07,461.77L156.72,463.62L154.84,465.49L153.05,469.16L150.83,471.98L149.53,474.21L149.36,475.58L149.72,478.34L150.31,479.58L150.77,481.91L151.64,481.62L151.31,485.46L150.13,485.97L149.79,487.37L150.93,490.54L149.31,493.44L148.43,495.82L144.64,498.22L143.87,499.03L142.97,500.65L142.42,502.27L142.54,503.63L145.72,505.23L144.38,508.5L142.98,509.06L141.87,508.26L140.19,507.63L135.31,506.99L134.03,507.07L127.96,510.13L127.07,512L124.92,513.05L121.88,513.41L120.19,514.48L119.4,515.19L115.93,521.48L113.82,523.29L113.45,523.89L112.32,528.43L109.5,531.88L108.64,533.74L108.64,533.74z"/>
		<path id="AR-C" title="Ciudad de Buenos Aires" class="land" d="M275.97,263.69L273.81,264.88L272.59,264.15L272.59,263.16L273.18,261.87L273.73,261.63L273.73,261.63L274.5,262.35L275.55,262.66z"/>
		<path id="AR-X" title="Córdoba" class="land" d="M153.88,271.78L153.91,249.88L153.09,232.6L155.34,228.24L157.59,220.13L157.74,218.7L157.01,213.56L156.48,213.07L154.43,213.64L151.91,213.8L150.94,209.32L149.84,208.1L143.93,204.55L141.69,204.43L141.69,204.43L141.55,187.02L145.98,173.14L146.59,172.36L148.17,167.72L152.8,166.4L153.14,166.04L153.14,166.04L156.77,161.92L156.06,155.98L157.58,155.61L157.58,155.61L168.66,152.78L172.77,154.05L172.75,154.71L173.44,155.68L176.89,157.49L178.61,157.61L180.81,157.28L182.58,157.67L183.4,158.07L184.25,158.97L184.6,160.04L188.15,160.25L205.11,160L208.21,168.06L208.21,168.06L207.25,174.21L206.48,174.26L206.36,176.57L209.67,178.9L212.56,180.02L207.4,199.27L205.36,200.99L205.94,205.13L205.85,209.76L207.22,211.37L208.55,212.31L209.19,214.63L211.38,216.77L212.82,221.3L214.48,223.93L214.64,224.68L214.15,227.87L213.27,229.48L212.42,230.01L211.7,230.02L210.96,231.07L194.32,258.19L194.32,258.19L184.76,258.12L184.72,271.78L184.72,271.78z"/>
		<path id="AR-W" title="Corrientes" class="land" d="M252.34,171.84L251.99,170.47L253.81,165.24L253.74,164.46L252.43,162.68L252.17,161.8L253.34,157.19L253.53,152.8L255.27,148.95L257.43,147.95L260.52,144.74L262.6,136.52L263.07,132.28L262.87,127.25L263.44,126.46L264.15,126.11L265.17,126.2L266.1,125.59L266.72,123.58L266.72,123.58L267.43,118.15L266.81,112.89L268.77,111.08L271.29,109.7L271.29,109.7L273.08,109.12L279.41,108.72L286.02,109.2L287.14,109.5L289.18,110.81L292.87,111.74L294.98,112.01L296.6,112.84L298.15,113.21L298.95,113.25L301.87,111.77L302.52,111.78L304.11,113.2L305.22,113.52L306.28,112.63L307.47,112.36L308.51,112.45L309.34,112.91L310.2,114.37L310.89,114.93L311.85,115.13L313.49,112.77L313.61,111.17L315.86,109.58L317.82,109.46L319.1,110L319.1,110L318.52,110.42L318.12,112.2L318.3,113.02L319.72,115.45L320.99,118.39L321.48,122L322.97,124.65L325.24,126.47L325.24,126.47L324.29,127.59L323.03,128.03L322.63,128.41L322.68,128.83L324.25,129.77L324.49,130.45L323.95,131.93L323.31,131.02L321.49,130.81L320.41,131.15L318.85,133.58L318.27,135.07L317.27,136.41L315.39,138.51L313.48,139.5L313.12,139.93L313,140.64L310.73,145.53L309.14,146.01L307.74,147L306.8,148.23L306.6,149.53L305.86,151.18L299.54,158.69L298.47,159.86L297.73,160.16L296.23,160.24L295.28,160.76L294.58,162.21L294.46,164.35L291.54,167.55L290.32,168.4L289.34,168.65L288.95,169.76L288.92,171.03L288.24,172.2L284.37,175.55L284.24,177.29L285.03,178.22L285.75,180.43L285.75,180.43L284.65,179.66L282.38,177.29L280.1,172.88L278.08,170.01L276.96,169.41L271.86,168.05L269.84,168.2L268.09,169.16L266.46,169.55L263.64,169.09L261.82,170.31L261.41,170.97L259.79,171.91L256.94,171.17L254.86,171.3L253.79,171.76z"/>
		<path id="AR-E" title="Entre Ríos" class="land" d="M240.68,233.76L239.72,232.39L236.32,230.6L233.55,225.07L233.23,223.86L232.59,219.87L232.53,217.3L233.72,213.74L233.18,210.23L234.25,201.31L234.64,200.89L235.33,200.68L238.17,200.35L239.73,198.92L243.39,194.68L245.39,190.59L246.24,189.98L250.76,183.05L253.52,178.16L253.69,177.08L253.57,173.82L252.34,171.84L252.34,171.84L253.79,171.76L254.86,171.3L256.94,171.17L259.79,171.91L261.41,170.97L261.82,170.31L263.64,169.09L266.46,169.55L268.09,169.16L269.84,168.2L271.86,168.05L276.96,169.41L278.08,170.01L280.1,172.88L282.38,177.29L284.65,179.66L285.75,180.43L285.75,180.43L285.92,183.27L283.68,191.42L282.16,194.52L281.01,195.2L280.81,195.75L282.43,197.28L282.58,198.79L281.51,202.38L281.09,202.88L279.3,203.49L278.62,204.62L279.6,206.71L279.5,208.27L278.94,210.2L279.29,211.04L280.4,212.28L280.48,213.13L280.4,213.79L279.52,214.73L278.39,216.75L278.17,217.98L279.52,227.03L279.59,229.21L278.83,230.19L274.94,229.98L274.53,230.33L274.51,233.87L273.99,235.46L273.05,237.05L272.61,239.38L272.33,244.13L272.6,244.89L273.79,246.56L274.26,249.44L274.12,250.08L274.12,250.08L272.81,250.29L271.41,251.06L270.35,250.92L268.93,249.71L263.56,246.21L262.31,246.15L259.87,245.49L256.64,244.23L254.68,242.31L253.22,242.98L250.98,241.91L249.79,241.04L248.66,239.72L244.68,237.37L241.96,234.56z"/>
		<path id="AR-P" title="Formosa" class="land" d="M203.64,45.72L203.61,13.41L203.61,13.41L205.25,14.48L206.99,18.99L209.32,21.78L209.96,23.86L211.26,25.09L212.41,25.51L214.18,27.11L214.42,28.34L215.74,29.36L217.14,29.57L219.74,31.95L222.56,33.34L225.89,35.68L227.71,39.67L230.16,40.43L234.9,41.31L235.56,42.33L240.95,44.15L243.07,44.22L245.33,43.58L255.6,50.4L257.99,53.05L264.31,56.34L267.61,58.85L270.11,59.66L272.59,59.88L274.1,60.4L275.86,62.55L278.95,62.7L281.16,63.87L284.43,64.88L286.57,66.6L287,67.83L288.17,69.04L288.91,70.88L290.28,71.95L289.91,74.13L286.79,77.84L285.67,78.6L285.76,79.8L284.04,82.25L284.78,83.11L282.19,85.24L281.37,85.54L279.62,87.3L279.86,88.31L278.44,91.59L278.31,94.02L279.19,95.2L278.95,96.34L276.51,100.71L275.85,100.96L275.85,100.96L273.82,99.85L270.15,95.97L266.48,93.2L264.57,90.99L260.29,89.74L259.12,90.14L257.77,89.95L257.08,89.35L256.42,86.71L252.08,85.77L251.48,83.42L248.46,79.52L245.54,77.75L242.74,76.47L241.98,74.85L241.72,73.03L238.87,70.06L236.86,67.28L231.37,64.57L227.07,61.1L226.04,59.97L225.25,58.08L224.2,56.63L223.66,56.29L219.71,55.64L217.92,53.89L216.08,53L215.21,51.5L213.11,50.08L211.61,49.72L209.96,48.61z"/>
		<path id="AR-Y" title="Jujuy" class="land" d="M152.01,6.1L151.17,8.61L151.14,10.4L149.31,14.27L149.4,15.23L151.18,22.53L152.05,23.42L154.64,23.65L155.3,24.67L155.17,26.62L154.65,28.45L154.84,29.03L156.22,29.66L157.5,32.27L157.6,33.15L158.88,33.69L160,32.86L161.38,32.55L163.51,33.66L164.98,35.32L166.31,34.52L166.84,33.63L170.28,33.7L170.7,46.9L170.32,48.28L168.09,51.41L166.13,51.79L164.09,53.13L163.37,53.85L162.35,55.55L158.72,52.33L158.05,53.14L157.06,55.2L154.75,54.49L153.25,53.39L150.3,53.29L145.83,52.01L144.86,51.4L141.93,47.18L141.7,46.35L141.82,45.23L141.55,44.72L139.42,43.12L138.87,42.98L138.16,43.33L137.35,42.37L136.86,40.68L136.93,38.97L137.6,37.9L137.44,34.16L134.26,31.99L131.27,30.98L130.62,31.21L129.97,33.88L130.64,36.67L130.49,38.97L128.34,45.86L127.89,46.54L124.89,46.04L121.76,44.6L117.94,40.23L116.74,39.85L114.68,38.14L114.68,38.14L116.49,31.43L119.21,23.81L115.9,20.27L116.97,18.27L119,16.61L118.82,14.45L123.31,12.56L123.99,8.68L124.86,8.07L126.17,7.99L131.08,6.53L131.78,5.75L133.3,0L135.93,1L138.68,2.97L140.73,5.65L141.87,6.4z"/>
		<path id="AR-L" title="La Pampa" class="land" d="M184.64,369.68L183.6,369.75L182.5,369.41L175.72,364.44L173.82,362.63L170.65,360.81L168.93,359.98L165.29,358.78L163.66,358.7L159.02,357.84L154.77,357.52L152.45,357.57L150.88,358.08L148.68,358.38L147.79,357.71L145.31,357.02L144.81,357.05L143.27,357.95L137.54,356.01L132.87,355.62L130.42,356.14L127.16,355.19L126.58,353.04L125.3,351.69L122.94,350.52L119.79,349.5L117.84,348.35L116.75,346.99L116.12,344.29L114.68,343.99L112.75,344.93L109.36,345.16L107.52,343.73L106.74,341.9L106.03,340.97L105.05,340.55L104.25,340.68L103.47,339.72L103.34,338.13L103.53,337.39L104.5,336.35L105.71,335.68L106.32,334.32L106.36,333.25L106.06,332.35L104.75,330.47L102.71,329.63L96.59,329.14L96.59,329.14L96.62,297.52L95.77,297.52L95.87,293.86L126.16,293.89L126.16,293.89L153.86,293.94L153.88,271.78L153.88,271.78L184.72,271.78L184.72,271.78z"/>
		<path id="AR-F" title="La Rioja" class="land" d="M153.14,166.04L152.8,166.4L148.17,167.72L146.59,172.36L145.98,173.14L141.55,187.02L141.69,204.43L141.69,204.43L139.7,204.85L138.64,204.72L137.18,204.04L135.54,204.32L133.19,205.33L130.76,205.52L126.89,205.12L125.39,204.44L124.11,204.24L124.11,204.24L123.36,202.39L121.91,199.92L119.94,198.5L118.41,196.96L117.27,193.26L118.14,187.48L116.89,186.51L117.75,183.54L116.03,180.14L115.58,179.57L114.56,179.09L112.37,176.09L108.96,172.69L108.53,170.98L107.89,170.11L102.91,166.11L100.92,164.14L100.43,162.97L95.42,158.84L92.6,157.55L88.63,156.54L86.25,157.2L83.4,157.25L82.76,157.02L82.59,155.23L83.89,148.04L84.45,147.96L84.74,147.54L84.98,146.23L84.55,142.7L81.01,139.13L80.17,136.26L76.7,133.38L75.01,133.1L71.13,131.79L71.13,131.79L73.36,130.01L76.65,126.17L77.64,123.53L79.5,122.99L80.19,121.61L80.82,118.99L80.82,118.99L85.29,119.43L89.3,118.48L93.02,118.27L93.31,118.56L93.34,119.13L93.01,120.29L93.05,123.37L93.65,123.86L94.47,123.85L98.61,125.94L100.79,126.25L102.31,126.88L102.65,128.63L103.14,129.43L103.99,130.54L104.89,130.94L106.68,131.39L107.71,131.25L109.67,128.47L110.2,128.45L112,129.63L112.64,130.42L116.02,130.8L117.31,130.65L118.35,129.49L118.85,129.3L119.79,129.47L127.5,132.79L128.34,133.78L130.21,138.07L130.44,140.43L130.86,141.2L135.17,143.53L140.76,148.72L141.64,150.19L141.8,152.15L143.17,154.1z"/>
		<path id="AR-M" title="Mendoza" class="land" d="M57.2,296.92L57.71,295.57L57.43,291.5L58.09,290.17L58.66,289.68L57.31,285.76L57.57,285.31L57.71,283.11L57.24,279.77L54.92,278.28L54.65,277.07L55.1,276.36L56.72,276.1L57.98,275.46L58.31,274.92L58.37,271.67L60.67,264.31L62.17,261.46L64.06,258.58L64.02,256.08L65.14,255.73L66.91,255.92L68.19,254.97L66.61,245.04L67.25,240.21L68.96,236.57L68.44,234.24L66.65,233.34L66.2,233.42L65.33,234.6L64.88,234.66L63.16,232.09L63.35,229.89L63.08,229.35L64.5,227.14L65.01,225.57L64.07,225.1L62.26,223.06L61.79,220.25L62.23,217.65L60.46,213.46L60.46,213.46L61.95,213.15L65.36,213.37L67.96,212.6L70.92,212.38L71.54,211.85L71.61,209.99L72.16,209.31L74.99,207.95L75.82,207.89L78.46,206.81L79.66,205.94L80.75,206.29L81.99,208.09L82.66,208.59L84.24,208.37L85.27,208.62L87.35,209.91L90.87,210.83L92.04,210.71L92.38,210.24L92.63,208.65L93.09,208.31L94.75,208.93L97.01,209.16L100.71,208.31L101.67,209.01L102.25,210.31L104.02,211.87L107.05,212.5L108.86,212.35L110.59,212.95L112.69,215.35L112.69,215.35L113.22,215.81L113.8,217.34L114.71,221.33L115.63,223.48L115.16,226.79L115.66,227.78L115.94,232.23L115.74,232.94L116.45,237.51L119.57,243.65L120.28,245.92L120.73,246.57L121.82,247.33L123.45,250.06L123.84,251.71L123.59,253.36L122.42,255L122.64,258.36L123.87,263.07L126.61,267.58L127.54,270.35L128.14,274.55L128.16,279.59L127.85,283.01L125.82,293.21L126.16,293.89L126.16,293.89L95.87,293.86L95.77,297.52L96.62,297.52L96.59,329.14L96.59,329.14L94.98,328.84L92.6,327.74L87.15,324.69L85.28,325.07L83.05,324.44L82.52,323.96L82.17,322.35L81.57,321.26L78.29,319.76L75.87,319.97L74.68,320.36L73.12,320.19L71.55,319.77L69.94,318.66L68.3,316.38L68.81,314.61L68.65,312.93L66.54,311.7L65.78,309.78L63.56,307.52L61.96,306.9L60.93,305.2L60.08,302.05L59.71,301.91L58.65,302.28L58.24,301.76L57.99,300.12L58.32,299.65L58.41,298.51L58.12,297.69z"/>
		<path id="AR-N" title="Misiones" class="land" d="M319.1,110L320.42,110.01L321.28,111.51L322.86,112.23L323.33,112.13L325.71,110.21L326.28,108.46L326.05,107.63L326.2,106.65L326.66,105.55L329.02,103L332.03,101.99L334.23,100.71L335.57,99.3L337.25,98.9L337.87,96.98L338.82,96.32L339.44,96.36L342.14,91.74L342.76,88.88L342.6,87.94L343.08,87.45L343.11,86.91L342.72,86.31L342.73,82.67L343.75,82.02L343.4,76.11L343.85,74.61L344.8,74.55L346.5,75.8L347.74,74.76L349.02,74.25L351.48,74.38L352.75,73.07L356.71,75.82L357.86,79.17L357.83,82.17L360.77,87.03L361.03,88.16L360.69,89.37L359.92,90.46L359.96,93.41L359.48,97.14L360.15,100.91L358.18,105.89L357.61,106.74L357.27,106.3L354.59,107.15L353.41,108.71L352.63,109.17L352.06,109.15L349.62,111.88L348.21,112.54L345.1,113.23L342.27,114.53L340.72,114.73L340.39,114.51L340.34,114.08L339.96,114.13L338.42,116.87L338.24,118.09L336.19,120.2L333.33,120.66L330.76,122L329.8,123.05L329.69,124.12L328.47,125.36L325.24,126.47L325.24,126.47L322.97,124.65L321.48,122L320.99,118.39L319.72,115.45L318.3,113.02L318.12,112.2L318.52,110.42z"/>
		<path id="AR-Q" title="Neuquén" class="land" d="M34.42,375.32L34.7,375.31L35.45,376.37L35.92,376.59L37.59,376.5L37.85,376.07L38.62,372.24L39.47,369.79L39.75,367.69L39.13,363.02L39.19,361.19L39.64,360.1L40.72,359.22L45.81,356.28L48.16,356.1L49.27,354.93L49.86,352.57L49.93,351.83L49.6,351.04L47.68,349.41L47.29,348.59L46.53,344.27L46.8,340.66L44.53,335.34L43.52,332.12L43.59,330.52L44.54,329.65L44.8,326.72L43.75,324.9L43.22,323.16L43.46,322.4L44.09,321.66L44.73,318.91L43.4,312.83L46.15,304.7L46.47,304.52L47.63,304.77L52.08,303.15L52.27,302.62L51.87,301.57L52.12,299.92L54.22,297.56L56.42,297.55L57.2,296.92L57.2,296.92L58.12,297.69L58.41,298.51L58.32,299.65L57.99,300.12L58.24,301.76L58.65,302.28L59.71,301.91L60.08,302.05L60.93,305.2L61.96,306.9L63.56,307.52L65.78,309.78L66.54,311.7L68.65,312.93L68.81,314.61L68.3,316.38L69.94,318.66L71.55,319.77L73.12,320.19L74.68,320.36L75.87,319.97L78.29,319.76L81.57,321.26L82.17,322.35L82.52,323.96L83.05,324.44L85.28,325.07L87.15,324.69L92.6,327.74L94.98,328.84L96.59,329.14L96.59,329.14L96.59,329.14L96.59,329.14L96.51,361.4L92.39,363.5L91.28,363.77L90,364.89L88.8,367.25L86.51,369.11L84.07,373.15L81.99,374.33L80.62,374.41L78.39,375.85L76.66,378.68L74.51,380.5L69.29,382.4L65.9,384.19L65.13,385.41L64.71,386.75L65.07,388.08L65.05,389.8L63.73,393.83L61.62,396.69L57.88,397.87L55.71,397.32L54.24,398.06L53.15,399.12L50.3,399.37L49.02,399.92L47.2,401.02L45.02,402.97L44.73,404.27L45.79,405.67L46.16,407.38L45.63,408.67L44,410.57L42.49,411.33L41.01,411.49L39.79,411.24L37.13,410.05L31.21,409.48L31.21,409.48L31.59,408.15L31.37,407.12L29.56,402.7L31.21,400.71L31.57,399.7L31.6,398.06L32.65,395.15L33.44,395.59L33.81,395.49L34.75,393.38L34.66,392.49L34.04,392.07L33.74,392.62L32.44,391.28L31.96,390.31L32.44,388.2L34.69,386.6L35.3,384.32L34,379.08L33.93,376.72z"/>
		<path id="AR-R" title="Río Negro" class="land" d="M33.01,433.3L32.5,429.94L30.21,424.88L30.21,424.19L31.38,422.4L31.06,419.59L30.49,417.76L31.17,415L31.55,410.62L31.21,409.48L31.21,409.48L37.13,410.05L39.79,411.24L41.01,411.49L42.49,411.33L44,410.57L45.63,408.67L46.16,407.38L45.79,405.67L44.73,404.27L45.02,402.97L47.2,401.02L49.02,399.92L50.3,399.37L53.15,399.12L54.24,398.06L55.71,397.32L57.88,397.87L61.62,396.69L63.73,393.83L65.05,389.8L65.07,388.08L64.71,386.75L65.13,385.41L65.9,384.19L69.29,382.4L74.51,380.5L76.66,378.68L78.39,375.85L80.62,374.41L81.99,374.33L84.07,373.15L86.51,369.11L88.8,367.25L90,364.89L91.28,363.77L92.39,363.5L96.51,361.4L96.59,329.14L96.59,329.14L102.71,329.63L104.75,330.47L106.06,332.35L106.36,333.25L106.32,334.32L105.71,335.68L104.5,336.35L103.53,337.39L103.34,338.13L103.47,339.72L104.25,340.68L105.05,340.55L106.03,340.97L106.74,341.9L107.52,343.73L109.36,345.16L112.75,344.93L114.68,343.99L116.12,344.29L116.75,346.99L117.84,348.35L119.79,349.5L122.94,350.52L125.3,351.69L126.58,353.04L127.16,355.19L130.42,356.14L132.87,355.62L137.54,356.01L143.27,357.95L144.81,357.05L145.31,357.02L147.79,357.71L148.68,358.38L150.88,358.08L152.45,357.57L154.77,357.52L159.02,357.84L163.66,358.7L165.29,358.78L168.93,359.98L170.65,360.81L173.82,362.63L175.72,364.44L182.5,369.41L183.6,369.75L184.64,369.68L184.64,369.68L184.77,402.31L189.52,403.24L191.62,404.62L193.37,406.41L195.81,410.34L195.81,410.34L190.57,412.89L177.64,413.16L175.83,412.31L174.83,411.22L173.68,410.48L170.86,409.69L168.15,408.24L160.47,405.21L159.48,402.8L157.09,402.22L155.75,402.62L153.09,405.49L152.2,408.99L152.52,411.95L154.25,419.77L155.38,421.04L155.6,421.63L154.94,425.69L155.55,427.69L154.15,431.53L154.01,432.28L154.32,433.55L154.32,433.55L153.04,433.29z"/>
		<path id="AR-A" title="Salta" class="land" d="M184.46,76.33L174.93,76.19L170.01,74.57L165.8,83.82L164.75,87.57L164.75,87.57L160.86,87.66L158.96,87.41L157.16,88.55L156.57,88.69L150.52,86.5L149.81,84.72L149.33,84.62L147.45,85.58L143.43,84.64L143.09,85L142.77,88.73L142.4,89.21L137.52,88.49L134.57,87.76L134.57,87.76L132.47,87.74L131.98,87.97L130.8,90.6L130.53,90.9L129.77,90.75L128.09,89.02L126.12,85.09L122.9,80.68L122.55,79.28L122.79,77.57L123.89,76.66L126.84,76.53L128.37,75.38L128.83,72.79L127.49,69L126.97,68.54L104.61,68.83L92.31,66.42L92.31,66.42L93.5,66.23L94.67,65.6L92.05,61.1L91.18,60.6L90.77,59.48L90.83,58.86L91.91,56.64L94.04,53.35L94.49,53.07L95.33,53.21L96.52,51.26L113.14,43.82L114.68,38.14L114.68,38.14L116.74,39.85L117.94,40.23L121.76,44.6L124.89,46.04L127.89,46.54L128.34,45.86L130.49,38.97L130.64,36.67L129.97,33.88L130.62,31.21L131.27,30.98L134.26,31.99L137.44,34.16L137.6,37.9L136.93,38.97L136.86,40.68L137.35,42.37L138.16,43.33L138.87,42.98L139.42,43.12L141.55,44.72L141.82,45.23L141.7,46.35L141.93,47.18L144.86,51.4L145.83,52.01L150.3,53.29L153.25,53.39L154.75,54.49L157.06,55.2L158.05,53.14L158.72,52.33L162.35,55.55L163.37,53.85L164.09,53.13L166.13,51.79L168.09,51.41L170.32,48.28L170.7,46.9L170.28,33.7L166.84,33.63L166.31,34.52L164.98,35.32L163.51,33.66L161.38,32.55L160,32.86L158.88,33.69L157.6,33.15L157.5,32.27L156.22,29.66L154.84,29.03L154.65,28.45L155.17,26.62L155.3,24.67L154.64,23.65L152.05,23.42L151.18,22.53L149.4,15.23L149.31,14.27L151.14,10.4L151.17,8.61L152.01,6.1L152.01,6.1L155.66,6.02L156,6.35L160.6,7.8L161.18,7.67L162.83,8.4L163.66,9.33L164.03,12.21L165.2,14.27L165.52,15.55L165.36,16.8L166.99,18.61L167.44,21.21L167.83,21.03L168.1,20.48L168.49,16.83L168.98,15.31L169.52,14.24L171.27,12.24L174.63,4.28L194.99,4.21L195.29,4.59L195.44,6.5L195.93,7.27L198.13,8.9L200.35,11.47L202.68,13.15L203.61,13.41L203.61,13.41L203.64,45.72L203.64,45.72L203.74,51.18z"/>
		<path id="AR-Z" title="Santa Cruz" class="land" d="M110.02,613.52L108.62,615.07L107.66,617.21L108.1,618.67L106.94,620.69L104.9,623.06L104.23,624.63L106.14,624.41L107.44,621.13L107.89,620.92L108.25,621.24L106.73,628.42L105.35,637.73L104.95,639.07L103.36,640.98L100,643.83L97.48,645.01L96.16,645.23L95.11,645.16L93.43,643.68L91.94,641.16L90.38,639.76L90.13,640.34L88.57,641.05L85.65,640.89L83.61,641.46L82.95,642.04L84.65,641.85L85.82,641.28L89.01,641.55L90.52,641.21L91.1,641.7L91.89,643.81L94.26,645.5L94.35,646.13L93.44,647.26L89.33,648.81L86.25,650.4L85.27,651.18L84.07,652.71L81.78,656.52L81.14,658.55L80.36,662.83L80.4,666.77L78.53,669.16L76.96,670.58L75.65,672.45L77.52,670.46L79.51,669.21L80.4,671.49L80.6,674.68L83.65,684.72L83.85,685.75L83.54,686.71L82.74,686.43L82.01,686.56L80.63,687.79L79.27,687.32L77.63,686.27L76.22,686.23L74.3,686.81L71.96,688.2L75.98,687.27L78.34,687.78L79.75,688.5L82.75,688L83.18,688.21L84.4,690.44L86.77,696.23L88.66,699.84L90.32,702.48L91.81,704.24L93.73,707.54L94.18,708.83L93.49,710.16L93.11,710.32L93.22,708.87L90.69,708.18L86.1,707.42L83.16,705.25L78.77,703.4L74.64,703.41L64.92,699.08L30.28,699.06L29.39,694.93L26.2,691.58L24.88,690.77L23.42,690.3L21.4,684.99L22.36,684.15L23.05,681.67L23.01,679.13L24.14,677.01L23.4,676.04L22.29,675.34L21.85,674.74L21.5,673.27L22.61,671.15L23.55,671.04L23.85,670.47L24.27,666L23.58,664.46L22.6,663.18L22.53,662.48L23.34,660.24L21.95,659.14L19.76,658.82L18.83,659.13L18.03,660.43L17.08,660.78L16.5,660.55L15.31,659.32L14.78,659.32L12.25,660.65L10.84,662.43L9.6,663.34L8.57,663.65L7.68,663.26L7.35,662.71L6.4,658.68L5.52,651.03L4.53,648.8L1.08,645.94L0.83,645.14L1.04,644.23L1.96,642.66L2.03,641.81L0.51,640.1L0.96,637.63L2.46,635.9L1.21,630.71L0,628.92L2.13,622.55L8.08,622.35L8.98,621.33L7.51,620.92L7.34,620.07L9.15,615.82L10.43,613.91L10.86,613.36L12.07,612.7L13.97,612.46L14.98,611.97L18.03,609.13L18.66,607.82L18.66,606.57L18.27,602.64L17.72,600.09L17.87,599.52L18.57,598.81L20.94,597.68L23.37,596.11L23.22,591.84L22.83,588.81L21.29,586.92L20.51,586.73L19.33,585.65L18.97,584.42L20.4,580.32L22.69,575.83L23.08,573.41L22.15,572.68L22.32,571.93L22.98,571.29L24.02,570.89L25.14,571.09L25.78,570.89L27.19,569.34L28.35,567.33L30.78,566.14L31.05,565.77L31.33,564.55L31.15,563.67L29.09,560.88L29.76,555.11L30.16,554.68L32.03,554.31L34.34,552.12L34.7,550.8L34.63,547.8L33.64,544.97L33.25,540.17L32.88,539.5L31.65,538.97L30.44,537.62L32.9,536.78L35.09,533.72L35.09,533.72L108.64,533.74L108.64,533.74L108.03,535.59L107.98,537.12L108.02,538.35L108.84,542.22L109.56,544.76L110.12,545.81L113.1,550.08L117.42,553.58L122.51,559.68L124.49,561.08L125.72,561.3L128.17,561.18L130.63,561.59L130.97,562.04L133.55,562.45L135.52,562.39L136.36,561.94L137.53,561.75L139.25,562.66L141.41,565.14L142.18,568.75L141.77,574.24L141.23,576.25L139.69,580.11L139.37,580.4L137.31,580.16L136.8,580.31L135.28,581.78L133.19,582.39L132.93,582.93L133.5,582.49L135.04,582.27L137.75,580.9L138.12,580.94L139.07,581.57L141.17,584.89L141.15,585.77L140.45,585.96L138.91,585.24L137.93,585.67L138.31,588.04L137.99,589.2L136.12,589.41L131.26,594.37L128.88,597.48L127.38,597.75L125.3,598.63L122.38,602.17L120.35,602.7L117.62,604.13L116.97,604.9L114.8,609.09L113.56,609.66L111.9,611.04z"/>
		<path id="AR-G" title="Santiago del Estero" class="land" d="M152.39,121.75L154.15,121.3L155.41,119.1L154.26,116.26L154.32,112.82L156.56,110.06L157.49,109.82L158.81,106.99L161.48,99.23L162.16,99.19L162.93,96.77L164.58,96.74L164.05,91.89L164.85,89.18L164.75,87.57L164.75,87.57L165.8,83.82L170.01,74.57L174.93,76.19L184.46,76.33L184.46,76.33L214.94,76.38L215.04,123.6L215.04,123.6L208.21,168.06L208.21,168.06L205.11,160L188.15,160.25L184.6,160.04L184.25,158.97L183.4,158.07L182.58,157.67L180.81,157.28L178.61,157.61L176.89,157.49L173.44,155.68L172.75,154.71L172.77,154.05L168.66,152.78L157.58,155.61L157.58,155.61L155.57,152L154.77,150.04L154.17,145.17L153.82,138.68L153.64,137.89L153.2,137.4L152.21,136.97L152.18,135.89L154.01,133.5L154.15,132.01L154.01,129.09z"/>
		<path id="AR-S" title="Santa Fe" class="land" d="M240.68,233.76L241.11,234.25L240.89,235.05L238.49,238.33L238.3,239.82L237.35,241.76L235.79,242.1L233.86,240.68L230.69,240.09L229.38,240.47L229.05,241.3L229.23,242.03L215.03,258.07L194.32,258.19L194.32,258.19L210.96,231.07L211.7,230.02L212.42,230.01L213.27,229.48L214.15,227.87L214.64,224.68L214.48,223.93L212.82,221.3L211.38,216.77L209.19,214.63L208.55,212.31L207.22,211.37L205.85,209.76L205.94,205.13L205.36,200.99L207.4,199.27L212.56,180.02L209.67,178.9L206.36,176.57L206.48,174.26L207.25,174.21L208.21,168.06L208.21,168.06L215.04,123.6L215.04,123.6L266.72,123.58L266.72,123.58L266.1,125.59L265.17,126.2L264.15,126.11L263.44,126.46L262.87,127.25L263.07,132.28L262.6,136.52L260.52,144.74L257.43,147.95L255.27,148.95L253.53,152.8L253.34,157.19L252.17,161.8L252.43,162.68L253.74,164.46L253.81,165.24L251.99,170.47L252.34,171.84L252.34,171.84L253.57,173.82L253.69,177.08L253.52,178.16L250.76,183.05L246.24,189.98L245.39,190.59L243.39,194.68L239.73,198.92L238.17,200.35L235.33,200.68L234.64,200.89L234.25,201.31L233.18,210.23L233.72,213.74L232.53,217.3L232.59,219.87L233.23,223.86L233.55,225.07L236.32,230.6L239.72,232.39z"/>
		<path id="AR-J" title="San Juan" class="land" d="M60.46,213.46L59.21,212.91L58.57,208.71L59.33,207.88L60.09,207.76L60.68,206.12L60.58,205.55L59.38,204.36L57.43,204.29L56.57,203.3L54.26,197.61L54.74,192.51L55.45,189.07L56.71,187.71L57.09,188.11L58.33,187.68L59.54,186.34L59.61,185.63L58.95,184.81L58.88,184.28L59.16,182.04L60.01,178.97L61.05,176.48L62.46,173.97L63.95,173.04L64.92,173.04L66,172.57L66.72,171.58L67.94,168.77L67.98,167.8L66.25,164.8L66.56,163.1L66.44,158.99L65.56,158.12L65.61,155.58L64.36,151.83L64.36,150.1L66.67,146.96L67.82,146.83L68.64,146.07L68.71,144.44L69.9,139.93L69.48,138.32L69.49,137.3L70.3,135.68L70.88,135.37L71.13,131.79L71.13,131.79L75.01,133.1L76.7,133.38L80.17,136.26L81.01,139.13L84.55,142.7L84.98,146.23L84.74,147.54L84.45,147.96L83.89,148.04L82.59,155.23L82.76,157.02L83.4,157.25L86.25,157.2L88.63,156.54L92.6,157.55L95.42,158.84L100.43,162.97L100.92,164.14L102.91,166.11L107.89,170.11L108.53,170.98L108.96,172.69L112.37,176.09L114.56,179.09L115.58,179.57L116.03,180.14L117.75,183.54L116.89,186.51L118.14,187.48L117.27,193.26L118.41,196.96L119.94,198.5L121.91,199.92L123.36,202.39L124.11,204.24L124.11,204.24L119.75,204.55L113.62,203.68L112.52,203.85L112.2,204.51L112.03,207.98L112.23,213.9L112.69,215.35L112.69,215.35L110.59,212.95L108.86,212.35L107.05,212.5L104.02,211.87L102.25,210.31L101.67,209.01L100.71,208.31L97.01,209.16L94.75,208.93L93.09,208.31L92.63,208.65L92.38,210.24L92.04,210.71L90.87,210.83L87.35,209.91L85.27,208.62L84.24,208.37L82.66,208.59L81.99,208.09L80.75,206.29L79.66,205.94L78.46,206.81L75.82,207.89L74.99,207.95L72.16,209.31L71.61,209.99L71.54,211.85L70.92,212.38L67.96,212.6L65.36,213.37L61.95,213.15z"/>
		<path id="AR-D" title="San Luis" class="land" d="M112.69,215.35L112.23,213.9L112.03,207.98L112.2,204.51L112.52,203.85L113.62,203.68L119.75,204.55L124.11,204.24L124.11,204.24L125.39,204.44L126.89,205.12L130.76,205.52L133.19,205.33L135.54,204.32L137.18,204.04L138.64,204.72L139.7,204.85L141.69,204.43L141.69,204.43L143.93,204.55L149.84,208.1L150.94,209.32L151.91,213.8L154.43,213.64L156.48,213.07L157.01,213.56L157.74,218.7L157.59,220.13L155.34,228.24L153.09,232.6L153.91,249.88L153.88,271.78L153.88,271.78L153.86,293.94L126.16,293.89L126.16,293.89L125.82,293.21L127.85,283.01L128.16,279.59L128.14,274.55L127.54,270.35L126.61,267.58L123.87,263.07L122.64,258.36L122.42,255L123.59,253.36L123.84,251.71L123.45,250.06L121.82,247.33L120.73,246.57L120.28,245.92L119.57,243.65L116.45,237.51L115.74,232.94L115.94,232.23L115.66,227.78L115.16,226.79L115.63,223.48L114.71,221.33L113.8,217.34L113.22,215.81z"/>
		<path id="AR-V" title="Tierra del Fuego" class="land" d="M99.91,785.57l-1.56,-0.68l-1.69,-0.27l-1.15,0.33l-0.43,0.55l-3.3,0.35l-0.71,-0.26l-1.48,-1.87l0.33,-65.57l3.02,5.11l2.15,2.4l0.68,1.18l0.59,1.67l0.68,3.55l0.01,0.36l-0.29,-0.03l-0.93,-3.41l-0.65,-0.29l-0.74,0.29l-3.17,3.68l-0.43,1.86l0.43,1.25l0.83,1.04l1.7,1.01l2.19,0.1l1.5,-0.47l0.68,0.27l1.28,2.6l0.9,4.34l0.99,2.11l3.35,3.58l3.95,3.72l-0.02,1.6l0.41,1.07l5.37,4.69l4.95,3.55l5.03,3l3.03,4l5.58,3.91l7.86,3.73l1.84,0.44l7.4,-1.19l1.42,0.02l1.43,0.6l-1.78,5.02l-2.03,3.59l-0.47,0.09l-0.36,-0.17l-0.09,-0.36l-1.52,-0.35l-2.12,0.92l-1.88,-0.19l-0.38,-0.6l-0.73,-0.33l-2.19,-0.11l-0.86,0.2l-1.34,1.76l-1.71,0.8l-1.49,0.27l-3.43,-0.07l-1.28,2.06l-1.91,-0.22l-1.46,-0.47l-2.97,-2.65l-3.89,-1.16l-8.65,-0.98l-4.08,0.3l-5.18,-0.81L99.91,785.57zM161.28,787.45l0.16,-1.2l-0.61,-0.68l-0.86,-0.14l-0.09,-0.35l0.27,-0.78l0.87,-0.93l0.45,-0.06l1.26,0.77l3.98,-1.61l0.74,-0.63l3.06,0.47l2.63,-0.33l2.08,-0.58l1.55,0.21l0.16,0.26l-0.99,1.74l-1.56,0.87L174,783.8l-0.64,-0.38l-2.25,1.26l-2.21,0.69l-0.14,-1.09l-1.11,-0.55l-1.75,1.6l-2.79,0.88l-1.13,1.06L161.28,787.45zM89.59,784.23l0.92,1.76l0.5,0.44l-0.87,0.52l-0.67,-0.09L89.59,784.23z"/>
		<path id="AR-T" title="Tucumán" class="land" d="M152.39,121.75L151.11,121.98L149.26,120.72L146.31,122.95L145.21,124.62L143.43,122.52L142.78,119.96L141.58,119.23L140.86,119.6L140.33,119.51L138.65,116.65L137.6,111.98L135.57,110.33L133.92,109.88L134.76,107.9L139.51,101.98L140.05,98.06L139.73,97.27L136.92,95.13L133.45,94.17L133.39,91.15L134.43,88.71L134.57,87.76L134.57,87.76L137.52,88.49L142.4,89.21L142.77,88.73L143.09,85L143.43,84.64L147.45,85.58L149.33,84.62L149.81,84.72L150.52,86.5L156.57,88.69L157.16,88.55L158.96,87.41L160.86,87.66L164.75,87.57L164.75,87.57L164.85,89.18L164.05,91.89L164.58,96.74L162.93,96.77L162.16,99.19L161.48,99.23L158.81,106.99L157.49,109.82L156.56,110.06L154.32,112.82L154.26,116.26L155.41,119.1L154.15,121.3z"/>
	</g>
</svg>