<?xml version="1.0" encoding="utf-8"?>
<!-- (c) ammap.com | SVG map of Australia - High -->
<svg xmlns="http://www.w3.org/2000/svg" xmlns:amcharts="http://amcharts.com/ammap" xmlns:xlink="http://www.w3.org/1999/xlink" version="1.1">
	<defs>
		<style type="text/css">
			.land
			{
				fill: #CCCCCC;
				fill-opacity: 1;
				stroke:white;
				stroke-opacity: 1;
				stroke-width:0.5;
			}
		</style>

		<amcharts:ammap projection="mercator" leftLongitude="112.901452" topLatitude="-10.132839" rightLongitude="158.966830" bottomLatitude="-54.757221"></amcharts:ammap>

		<!-- All areas are listed in the line below. You can use this list in your script. -->
		<!--{id:"AU-NT"},{id:"AU-WA"},{id:"AU-ACT"},{id:"AU-NSW"},{id:"AU-SA"},{id:"AU-VIC"},{id:"AU-QLD"},{id:"AU-TAS"}-->

	</defs>
	<g>
		<path id="AU-NT" title="Northern Territory" class="land" d="M195.29,27.56l0,-0.36l0.62,-0.79l-1.5,-1.01l0.34,-0.79l0.42,-0.21l1.53,0.05l0.1,-0.35l-0.11,-0.95l-0.3,-0.59l0.28,-0.41l0.97,0.05l1.08,0.7l1.42,0.07l1,0.72l0.61,0.09l4.76,-0.32l1.42,0.45l1.75,-1.2l1.49,0.03l0.61,1.16l-0.37,0.8l0.59,-0.6l0.08,-0.26l-0.22,-1.29l0.21,-0.39l1.45,-0.52l1.14,0.42l0.72,-0.06l-0.42,-0.05l-0.77,-0.57l-0.12,-0.51l0.08,-3.17l0.61,-0.96l-1.64,-1.22l-0.55,-0.78l-0.45,-0.28l-0.82,-0.15l-1.55,0.26l-1.34,0.72l-0.21,-0.02l-1.05,-1.05l-0.21,-0.72l-1.14,-0.61l-1.02,0.09l-0.07,-0.12l1.19,-1.42l1.2,-0.55l1.15,1.13l0.82,1.94l0.42,0.04l0.33,-0.6l-0.47,-1.46l-0.5,-0.9l0.38,-0.09l1.03,0.35l0.7,-0.37l1.77,1.48l0.11,0.48l1.72,2.2l0.59,0.13l0.5,-0.39l1.11,-1.66l0.47,0.04l0.85,0.91l1.63,2.95l0.4,0.32l0.74,0.22l0.61,-0.41L222,17.2l0.55,0.8l1.54,0.65l0.74,0.02l0.53,-0.17l1.05,-0.57l0.4,-0.54l1.18,0.2l0.12,0.34l-0.75,0.43l-0.17,0.26l0.05,0.27l0.34,0.32l0.78,0.33l0.6,-0.28l0.32,-0.42l0.25,-0.04l1.47,1.12l-0.13,0.21l0.15,0.89l0.21,0.17l1.77,-0.26l0.56,0.23l1.03,0.09l0.9,-0.11l0.8,-0.61l1.07,-0.06l1.08,1.5l1.37,0.71l0.94,0.78l1.18,0.11l0.42,0.19l-0.06,-0.21l0.44,-1.14l0.67,-0.67l0.56,-0.24l0.63,0.28l1.61,-0.19l0.83,-0.67l-0.25,-0.14l-0.62,0.37l-0.11,-0.27l0.23,-0.83l1,-0.27l0.74,0.02l1.38,-1.1l-0.04,-0.77l0.4,0.01l0.37,0.43l-0.33,0.53l-1.85,1.57l0.46,0.54l-1.25,1.28l-0.05,0.35l0.21,0.52l0.51,0.48l0.55,-0.24l0.16,-0.45l0.89,-0.73l1.51,-0.44l-0.92,1.16l0.37,0.56l0.8,-0.37l0.19,0.33l-0.87,1.26l0.3,0.74l0.32,0.3l0.45,-0.29l0.82,-0.09l0.15,0.26l0.75,-0.07l0.58,-0.45l0.76,-1.93l-0.29,-0.38l-1.03,0.13l-0.66,-0.28l-0.05,-0.27l1.13,-1.12l1.84,-1.23l1.21,-0.22l-0.25,0.83l0.68,1.91l0.77,1.12l0.49,-0.01l0.42,-0.3l-0.03,-0.24l-0.71,-0.26l0.06,-0.21l0.88,-0.22l1.1,0.56l1.11,1.5l-1.89,1.32l-0.64,0.74l-1.1,1.77l-0.25,1.34l-1.37,-0.51l-0.11,0.74l0.67,1.24l-0.01,1.07l-0.18,1.05l-0.76,1.14l-0.1,-0.35l-0.88,0.3l0.04,-1.97l-0.17,-0.17l-0.34,0.08l-0.43,1.16l-0.93,0.81l-0.44,0.03l-0.15,-0.43l-0.53,-0.21l-1.13,0.44l-0.72,0.59l-0.39,0.67l0.03,0.31l0.44,0.34l-0.29,0.65l-0.48,0.4l-0.2,1.25l0.47,1.39l0.42,0.23l0.6,-0.15l0.47,-0.53l-0.06,0.83l-0.34,1.16l-0.69,1.06l-0.3,2.01l-0.3,0.58l-1.26,0.85l-1.43,1.85l-0.88,1.52l-0.02,0.81l-1.36,0.92l-0.44,-0.01l0.67,1.94l0.46,0.69l0.72,0.61l1.39,0.5l1.97,1.26l1.01,0.92l2.91,1.51l0.31,0.27l0.26,1.37l0.6,0.7l2.7,1.29l1.11,0.92L259,63.9l2.87,0.12l1.15,0.6l2.52,1.79l1.29,0.55l0.6,-0.02l1.12,0.37l0.99,0.49l1.32,2.1l1.54,1.31l0,0l0,109.55l0,0l-73.46,0.01l0,0l-14.47,-0.01l0,0l-9.71,0.07l0,0L174.7,79.23l0,0V58.24l0,0l0,-5.9l0,0l0.97,0.32l1.04,0.9l-0.12,2.04l0.18,0.22l0.71,-0.88l-0.41,-2.71l0.12,-0.25l1.12,0.31l1.4,0.71l2.24,2.5l0.09,0.54l0.6,-0.23l-0.74,-0.97l-0.4,-0.83l-0.14,-0.83l0.24,-0.47l0.12,-0.75l1.67,0.29l0.69,-0.23l0.87,-0.84l-1.94,0.61l-0.98,-0.63l-0.78,-1.02l-0.18,-0.52l0.4,-0.2l0.86,-0.09l0.71,-0.5l0.04,-0.24L181.86,49l-1.3,-0.24l-0.92,-0.53l-1.05,-1l0.13,-0.89l0.65,-1.24l0.67,-0.89l2.61,-1.64l0.59,-2.78l-0.06,-0.51l0.51,-2.01l0.77,-0.8l0.1,0.7l0.38,0.22l1.05,-0.19l1.33,-0.9l1.09,-1.15l-0.11,-0.41l-0.68,-0.93l-0.37,-0.31l-0.37,-0.08l-0.09,-0.24l0.1,-1.96l0.18,-0.49l0.45,-0.2l0.15,0.28l0.32,0.15l0.41,-0.09l0.7,-0.5l0.28,-0.61l-0.1,-1.47l0.11,-0.37l1.68,-0.75l1,1.14l0.96,-0.07l-0.92,-0.27l-0.31,-1.17l0.29,-0.71l0.08,-0.88l-0.33,-0.25l0.53,-0.22l1.54,0.49L195.29,27.56zM195.97,19.82l-1.06,-0.88l-1.99,-0.82l-2,-1.57l-0.81,-2.13l-0.58,-2.15l0.08,-0.81l0.23,-0.18l1.51,1.32l0.45,0.73l1.43,0.45l1.52,-0.36l0.59,-0.55l1.14,0.49l1.27,-0.98l0.33,-0.03l0.22,0.75l0.56,0.8l0.05,-0.28l-0.37,-0.93l0.13,-0.55l0.72,-0.57l1.59,0.64l1.2,1.58l0.09,0.83l-2.77,2.91l-0.35,0.05l-1.34,0.86L195.97,19.82zM260.56,44.63l0.17,-0.28l0.47,-0.03l-0.28,1.4l-0.57,0.22l-1.5,-0.4l-1.29,0.19l-2.76,-0.69l0.38,-1.91l-0.08,-0.82l0.25,-0.93l0.31,-0.53l1.47,-0.28l0.35,-0.27l-0.31,-0.7l0.91,-0.76l0.47,0.03l-0.08,0.51l-0.42,0.29l0.4,1.16l1.03,0.18l0.36,-0.38l-0.11,-0.38l0.2,-0.27l0.36,-0.1l0.32,0.23l0.08,0.41l-1.07,1.1l-0.57,0.37l-0.67,1.49l0.02,1.03l0.31,0.27l1.45,0.22L260.56,44.63zM190.91,18.71l-1.8,-0.69l-2.51,0.64L186,18.54l-0.17,-0.27l-0.08,-0.29l0.6,-1.09l0.5,0.3l0.41,0.02l0.4,-0.39l-0.03,-1.53l-0.18,-0.47l0.89,-1.55l0.96,-0.2l1.6,4l0.77,0.2l0.81,0.73l-0.25,0.55L190.91,18.71zM256.16,14.5l0.04,-0.51l1.47,-2.13l0.93,-1.88l0.49,-0.26l-0.53,2.04l-1.77,2.48l-0.24,0.22L256.16,14.5zM213.74,13.27l-0.32,-0.34l-0.38,-1.05l-0.32,-1.83l0.83,-0.32l0.52,1.71l-0.02,1.08L213.74,13.27zM262.14,63.06l-0.62,-0.46l-0.68,-1.01l0.2,-0.58l0.62,-0.61l0.49,0.61l0.41,1.33l-0.28,0.71L262.14,63.06zM252.88,41.08l0.03,-0.4l-0.35,-0.61l-0.28,0.19l0.17,0.53l-0.46,0l-0.17,-0.21l0.1,-0.93l0.95,-0.75l0.46,0.08l0.48,0.65l-0.15,0.71l-0.36,0.58L252.88,41.08zM252.68,17.08l0,-0.51l0.99,-0.79l0.82,-0.04l1.44,-1.12l-0.1,0.55L254.74,16L252.68,17.08zM256.39,61l-0.28,-0.14l0.22,-0.94l0.62,-0.42l0.31,0.14l-0.19,1.23L256.39,61z"/>
		<path id="AU-WA" title="Western Australia" class="land" d="M14.47,180.78l0.19,-0.37l0.01,-1.47l-2.43,-2.57l-1.29,-2.42l-1.18,-2.99l-1.15,-0.7l-0.98,-2.78l-0.09,-0.53l0.12,-1.08L7,164.76l-1.37,-1.6l-0.39,-1.14l-0.06,-2.35l0.44,-1.14l0.24,-1.46l0.93,-3l0.75,-1.5l1.54,-1.21l0.27,-1.01L9.5,149l-0.24,-1.56l0.63,-1.92l-0.12,-1.14l-0.59,-1.63l-0.89,-1.26l-0.16,-0.95l1.56,-3.16l1.45,-4.17l1.05,-1.56l0.64,-0.36l0.8,-0.14l0.14,0.28l-0.54,1.02l-0.53,3.07l0.7,1.48l-0.34,2.16l0.47,0.48l2.37,-1l0.3,-1.25l0.66,-1.69l1.79,-3.11l0.28,-0.96l3.17,-1.76l1.19,-0.09l2.09,-1.04l2.24,-0.86l1.82,-2.15l0.66,-0.51l1.37,-0.59l1.29,-1.94l2.55,-1.19l0.28,-0.74l0.69,-0.38l0.66,-0.08l1.8,-0.64l1.42,-0.88l1.1,-0.93l0.88,0.19l0.47,0.47l0.48,0.13l2.07,-1.11l1.07,0.37l0.35,0.4l0.76,0.34l0.81,0.15l0.69,-0.01l3.03,-0.62l1.79,-0.78l2.38,-2.29l1.19,-0.71l0.15,0.29l0.46,0.01l3.37,-0.56l1.22,0.07l1.56,-0.52l1.62,-1.94l0.32,-0.87l1.09,-0.83l1.18,-0.11l2.66,0.66l1.6,0.62l2.21,-1.14l4.93,-0.72l1.06,-0.35l5.88,-2.45l1.62,-0.84l2.71,-2.26l2.3,-3.11l1.64,-3.53l1.5,-2.02l-0.13,-0.92l0.39,-0.86l0.26,-0.25l0.71,0.17l0.54,-0.29l0.8,-0.64l0.58,-0.85l0.67,-0.33l2.27,-1.79l0.33,-0.8l-0.06,-0.62l-0.32,-0.3l-0.86,-0.24L101,86.33l-0.12,-2.14l-0.64,-1.66l0.03,-2.21l0.34,-1.35l0.89,-1.53l1.33,-1.26l0.74,-0.47l1.38,-0.01l-0.55,-1.23l0.46,-0.62l0.3,-0.12l0.24,0.23l0.26,0l1.22,-0.42l0.11,-0.32l-0.28,-0.41l0.26,-1.09l0.31,-0.35l0.57,-0.12l0.57,-0.63l0.06,-0.62l0.23,-0.37l0.77,-0.28l0.74,0.74l-0.23,0.29l-0.54,-0.06l-0.36,1.25l0.69,0.94l0.83,0.52l0.22,0.86l2.08,3.89l2.67,4.27l0.24,0.93l0.2,-0.99l-0.37,-0.72l0.04,-0.89l0.6,-1.82l-0.49,-1.5l0.2,-0.86l0.69,-0.02l1.38,1.67l0.8,0.72l0.39,0.17l0.27,-0.15l-0.42,-0.2l-0.5,-0.62l-0.39,-1.56l1.03,-1.18l-0.36,-0.19l-0.83,0.25l-0.17,-0.12l-0.53,-1.13l-1.19,-1.29l0.06,-1.23l-1.22,0.02l-0.83,-0.75l0.74,-0.03l1.6,0.36l0.74,-1.12l0.09,-0.58l-0.11,-0.44l-1.21,-0.24l-0.39,-0.35l-0.03,-0.99l0.15,-0.32l1.69,-0.37l0.87,0.68l-0.24,0.53l-0.56,0.15l1.16,1.22l0.57,0.12l0.02,-0.44l0.78,-1.06l1.32,0.19l0.58,0.26l0.29,0.19l0.39,0.93l0.3,0.21l1.12,0.06l0.56,-0.64l0.99,0.48l1.12,0.11l1.63,-0.23l1.16,0.51l0.62,-0.26l-0.84,-0.08l-1.28,-0.6l-0.89,-0.21l-0.57,-0.04l-0.89,0.26h-0.67l-0.19,-0.2l-0.27,-1.21l0.59,-1.34l0.44,-0.1l0.52,0.79l0.81,-0.56l-0.08,-1.03l0.32,-1.17l1.22,-1.23l-0.61,-0.25l-0.59,0.17l-0.88,1.5l-0.51,0.01l-0.95,-0.82l-0.31,-2.2l0.93,-2.13l0.34,-0.15l1.01,0.58l0.81,-0.42l0.19,-0.28l-0.12,-2.15l0.46,-0.11l2.25,1.15l0.88,0.85l2.04,0.99l-1.14,-1.01l-0.06,-0.25l0.52,-0.95l-0.23,-0.24l-0.93,-0.01l-1.08,0.4l-0.12,-0.64l0.4,-0.56l0.42,-0.2l0.31,0.2l0.43,-0.74l-0.34,-0.09l-1.42,0.94l-0.3,-0.01l-0.32,-0.85l0.35,-0.45l0.47,-0.22l0.64,0.19l0.23,-0.07l0.57,-0.4l-0.16,-0.38l0.65,-0.46l0.75,1.69l0.19,0.12l0.11,-0.48l-0.14,-0.96l1.28,0.75l0.03,0.4l0.43,0.21l1.01,-0.05l0.22,-0.21l-0.19,-0.16l-0.33,0.03l-0.29,-0.26l0.32,-0.31l-1.18,-0.84l-1.07,-0.53l0.36,-0.42l0.29,-0.1l-1.16,-1.72l1.17,-1.67l1.01,-0.84l0.57,0.24l2.18,0.05l0.11,-1.36l-0.21,-1.31l0.14,-0.75l0.28,-0.21l1.2,0.57l-0.94,3.98l0.2,-0.21l0.67,-2.31l1.31,0.67l-0.2,1.2l0.21,0.39l0.64,0.4l0.96,-1.07l0.51,-0.36l0.31,-1.91l0.83,-1.69l0.04,-0.7l-0.71,-1.82l-0.69,-0.44l0.54,-0.12l0.87,0.13l0.75,0.38l-0.09,0.84l-0.56,0.24l0.37,1.22l0.46,0.13l0.58,0.59l0.28,-0.44l-0.2,-0.59l0.43,-1l1.06,-0.84l0.77,-0.11l-0.51,1.25l1.23,1.59l0.35,0.1l1.12,-1.18l0.93,-1.69l-0.47,-1.96l1.22,-0.49l1.06,-0.25l0.67,0.54l0.62,0.8l-0.19,0.42l0.77,0.95l0.27,-0.43l0.01,-0.36l0.95,-0.04l1.99,0.64l1.04,1.47l1.49,1l3.25,4.52l0.47,-0.23l1.84,1.58l0.2,1.09l-0.52,0.75l-0.77,2.6l0.11,1.18l-0.07,2.13l-0.57,1.14l0.52,-0.3l0.3,-0.42l0.38,-2.46l0.54,0.22l0.82,0.81l0.32,1.06l0.05,-1.08l-0.73,-1.27l-0.35,-1.4l1.24,-1.7l0.22,0.04l0.29,1.43l1.03,0.03l0.11,-0.51l-0.43,-0.78l-0.34,-1.47l1.61,-0.46l5.04,1.26l0,0l0,5.9l0,0v20.99l0,0l0.06,101.59l0,0L174.7,251l0,0l-2.25,0.98l-2.59,1.51l-4.03,1.83l-1.85,0.74l-2.98,0.58l-4.37,1.69l-2.28,0.4l-4.75,0.22l-3.12,-0.3l-2.39,-0.69l-1.2,0.59l-1.05,-0.23l-1.8,0.98l-3.16,2.6l-0.77,0.34l-1.54,0.33l-3.33,1.84l-1.26,1.13l-1.44,0.87l-3.73,0.61l-1.31,0.52l-1,0.82l-0.91,1.16l-1.13,3.28l-0.51,2.15l-1.04,0.73l-0.98,1.03l-0.37,0.74l-0.01,0.35l-0.48,0.53l-1.63,1.11l-1.87,-0.14l-0.28,0.11l-0.65,0.88l-0.5,0.38l-0.74,0.24l-0.73,-1.72l-0.9,-0.38l-1.88,0.64l-1.25,-0.18l-1.48,0.06l-0.2,0.2l-1.55,0.16l-0.86,-0.17l-0.61,0.24l-0.39,0.45l-0.12,0.66l-1.44,0.15l-0.42,-0.14l0.23,-0.49l-0.32,-1.13l-0.63,-0.81l-0.22,-0.08l-0.84,0.15l-0.6,0.57l-0.88,0.25l-2.8,-1.01l-0.67,-0.05l-1.36,-0.03l-3.09,0.54l-2.05,0l-0.77,0.41l-2.73,0.38l-1.34,0.74l-1.78,-0.45l-2.69,-0.14l-2.08,0.64l-0.8,0.88l-1.33,0.71l-0.57,0.65l-0.9,1.58l-0.15,0.8l-1.54,1.51l-1.27,0.75l-1.41,-0.5l-1.82,-0.17l-1.87,1.27l-0.22,0.33l0.38,0.42l-0.38,0.43l-0.88,0.54l-1.75,0.57l-0.64,0.66l-0.33,0.87l-1.15,0.86l-2.17,1.16l-2.65,0.48l-0.04,0.27l0.26,0.28l1.5,0.33l-0.67,0.38l-0.82,-0.15l-0.81,-0.64l-0.62,-0.23l-0.68,0.04l-0.34,0.24l-0.25,0.91l-0.83,-0.66l-2.18,-0.92L43.87,294l-0.57,0.53l-0.25,0.01l-1.61,-0.52l-1.33,0.21l-1.54,-0.44l-2.64,-1.76l-2.64,-0.61l-0.65,-1.53l-1.08,-1.25l-1.8,-1.84l-1.65,-1.1l-1.97,-1.03l-0.79,-0.09l-0.79,0.19l-0.5,0.65l-1.23,-1.31l0.01,-1.13l-0.57,-4.04l-0.04,-2.26l0.47,-2.18l0.46,0.13l0.67,1l1.29,0.55l1.03,-0.09l0.88,-0.32l0.36,-0.21l3.07,-4.42l-0.47,-3.64l-0.81,-4l0.25,-0.87l0.83,-1.03l-0.04,0.41l-0.62,0.69l-0.02,0.52l0.44,1.25l0.3,0.45l0.2,-0.14l-0.02,-0.7l0.5,-1.84l-0.32,-3.22l0.25,-1.65l-0.19,-1.23l0.06,-2.57l-0.41,-2.25l-0.26,-0.71l-2.65,-4.83l-0.75,-2.24l-0.63,-1.46l-1.55,-2.7l-1.31,-3.35l0.08,-0.34l-0.34,-2.54l-0.72,-2.48l-0.22,-0.19l0.05,-4.85l0.39,-2.27l-0.54,-1.89l-0.28,-0.45l-0.17,-1.16l-0.57,-1.35l-2.34,-2.78l-0.3,-0.91l-0.08,-2.02l-0.88,-1.78l-2.12,-3.17l-0.82,-0.5l-0.84,-1.2l-0.65,-2.93l0.14,-0.91l0.36,-0.85l-0.21,-1.27l-0.53,-1.85l-1.48,-3.07l-1.5,-2.81l-2.32,-3.35l-3.31,-3.52l-0.61,-1.93l0.5,-1l-0.07,-1.11l0.04,-0.29l0.21,-0.15l0.18,2.34l0.33,0.68l0.34,-1.92l1.61,1.99l0.22,0.65l0.13,2.05l0.25,0.74l0.8,1.02l0.34,0.07l0.03,-0.31l0.7,-0.48l0.46,0.11l0.78,-1.16l0.06,-2.06l-0.78,-1.04l-1.49,-0.98l-1.1,-1.14l-0.63,-2.6l-1.1,-1.78l0.19,-0.99l0.66,-1.05l0.31,0.23l1.01,1.82l1.15,0.99l0.4,1.13l-0.26,1.42l-0.3,0.33l0.03,1.02l0.32,0.93l0.55,0.05l0.37,-0.4l0.87,-1.68l0.57,2.82l0.3,0.77l1.2,1.61l1.36,-1.07l0.29,-0.97l-0.33,-0.47l-0.21,-0.85l0.37,-2.33L14.47,180.78zM3.24,182.51l-0.32,-0.26l-1.61,-2.44l-0.81,-1.63L0,176.3l0.07,-1.05l0.43,-0.62l0.54,0.13l-0.22,0.53l0.04,0.33l1.28,3.66l1.1,2l0.22,0.79L3.24,182.51zM126.09,58.75L126,58.44l-0.58,-0.54l0.09,-0.5l0.27,-0.43l0.71,-0.29l0.94,1.57L126.09,58.75zM26.72,120.51l-0.37,-0.31l-0.27,0.26L26,120.37l0.01,-0.61l1.11,-1.5l0.36,-0.22l0.13,0.07l0.15,0.79l-0.05,0.35l-0.63,0.98L26.72,120.51zM132.78,49.85l-0.57,-0.31l0.07,-0.85l0.25,-0.64l0.51,-0.53l0.5,0.56l-0.25,1.22l-0.39,0.19L132.78,49.85z"/>
		<path id="AU-ACT" title="Australian Capital Territory" class="land" d="M392.28,306.01L391.02,305.37L389.58,303.22L389.29,302.43L389.31,300.59L389.83,298.03L392.68,295.93L393.95,296.65L394.52,297.32L395.52,297.69L396.19,298.12L395.7,298.56L394.69,298.42L393.88,298.81L393.36,299.53L392.74,302.02L392.98,304.77L392.9,305.16z"/>
		<path id="AU-NSW" title="New South Wales" class="land" d="M402.43,327.48l-19.25,-9.7l-0.98,-0.08l0.88,-1.52l0.11,-0.97l-1,-2.04l-0.69,-0.88l-0.56,-4.42l-1.18,-0.75l-1.82,-0.78l-0.93,0.36l-1.53,-0.29l-1.01,0.17l-1.01,1.26l-0.98,0.09l-1.82,0.64l-1.46,-0.1l-2.42,-0.76l-0.97,-0.76l-1.12,-0.17l-0.68,0.09l-0.38,0.4l-1.14,0.49l-2.25,-0.2l-3.1,-0.59l-0.76,-0.32l-1.28,-1.23l-0.79,-0.62l-0.27,-0.03l-0.82,0.18l-0.95,0.52l-0.95,-0.09l-0.37,-0.3l-1.33,0l-1.36,0.35l-0.2,0.24l-0.38,1.38l0.17,1.36l-1.92,0.54l-0.42,-0.11l-1.34,-0.78l-2.28,-2.67l-0.56,-1.28l-0.25,-0.26l-0.62,-0.2l-1.1,-0.98l-0.84,-1.16l-1.86,-0.99l-1.67,-1.27l-0.77,-0.28l-0.45,0.1l-0.67,-0.5l-0.18,-0.28l0.25,-0.76l-0.42,-0.65l-0.88,-0.22l-0.81,-0.5l-0.5,-1.1l-0.29,-1.65l0.26,-1.31l0.01,-0.83l-0.14,-0.21l-2.31,-1.26l-1.62,-0.11l-1.28,-0.52l-0.15,-0.36l-0.68,-0.45l-0.62,0.21l-0.19,0.27l-0.35,1.55l-0.49,0.62l-0.92,-0.18l-0.37,-0.43l0.03,-0.26l-0.58,-1.55l-0.94,-0.87l-0.05,-1.88l-1.51,-2.54l-0.87,-0.6l-1.25,-0.57l-1.7,0.35l-1.61,-0.42l-0.96,0.37l-0.61,0.84l-0.53,0.28l-0.19,-0.26l-1.21,-0.74l-1.78,-0.83l-1.87,-0.14l-0.33,-0.09l-0.51,-0.5l0,0l0.05,-63.7l0,0l1.29,-0.01l0,0l21.8,0.01l0,0H345l0,0h13.78l0,0h32.53l0.83,-0.41l1.27,-1.59l3.47,-2.95l1.2,-0.33l0.28,0.05l0.17,0.36l0.95,0.28l3.34,-0.29l1.56,-0.6l1.47,-0.18l0.3,0.07l0.83,0.86l0.75,0.51l1.81,0.05l1.64,-0.34l2.74,1.25l2.77,2.39l0.13,1.88l0.44,0.98l0.24,0.11l0.53,-0.13l0.52,-0.55l0.98,-2l1.87,-0.83l0.4,0.77l0.67,0.32l2.08,-1l0.35,-2.01l-0.98,-2.22l1.05,-0.83l1.22,-0.6l2.16,-0.71l0.44,-0.3l0.22,-0.56l0.62,-0.52l0.48,0.07l0.71,0.73l1.78,0.39l2.03,-0.21l1.79,0.12l0.83,-1.1l1.45,-0.27l1.19,-0.46l0.81,-0.66l0,0l0.78,0.71l0.15,0.81l-0.35,2.67l0.2,1.4l0.5,0.68l-0.2,2.48l-1.71,2.24l-1.2,3.52l0.3,0.87l-1.21,6.89l-0.53,2.02l-2.02,5.68l-0.14,3.35l0.17,0.61l0.38,0.05l0.19,0.77l-1.11,3.72l-0.21,1.47l-1.14,3.77l-0.96,1.96l-2.2,2.78l-0.5,1.3l0.32,1.69l-0.13,1.79l-1.89,1.6l-0.81,0.94l-1.67,1.04l-0.09,0.55l0.27,0.58l-2.08,0.73l-1.53,0.79l-1.55,2.33l-1.03,2.55l-0.24,0.2l-0.55,0.04l-0.51,0.41l-0.11,0.59l0.46,0.41l-0.35,1.39l-1.24,1.66l-0.47,3.5l-0.26,0.94l-0.39,0.3l-0.63,-0.07l-0.85,0.34l0.6,0.16l0.44,0.41l-0.88,1.43l-0.98,0.73l-0.97,1.43l-1.02,2.97l0.44,0.54l-0.54,2.46l-0.7,0.44l-0.22,0.76l0.38,1.11l0.76,0.79l-0.17,0.88l-0.29,0.25l-0.36,-0.39l0.13,-0.27l-0.15,-0.61l-0.29,-0.03l-0.69,0.43l-0.08,0.44l0.28,0.68l-0.61,0.68l-1.16,0.64l-0.59,1.11l-0.06,0.56l-0.8,2.32l-0.55,0.89l-2.1,4.6l-0.27,2.29l-0.02,2.9l-0.63,0.82l-0.58,3.22l-0.62,2.25l-0.69,1.74l0.05,1.97l1.08,1.25l0.14,0.94l-0.01,0.45l-0.32,-0.1l-0.46,0.34l0.02,1.58L402.43,327.48zM392.9,305.16l0.08,-0.4l-0.24,-2.75l0.62,-2.48l0.52,-0.73l0.82,-0.39l1.01,0.14l0.48,-0.43l-0.67,-0.43l-1,-0.36l-0.57,-0.68l-1.27,-0.72l-2.85,2.1l-0.52,2.56l-0.02,1.85l0.29,0.79l1.45,2.15l0.26,0.22l1.09,0.37L392.9,305.16z"/>
		<path id="AU-SA" title="South Australia" class="land" d="M254.01,283.28l-1.08,1.74l-0.88,0.39l-0.93,1.59l-1.12,0.7l-0.67,1.33l-0.77,2.33l0.27,0.13l0.48,-0.06l1.45,-1.02l0.15,0.69l-0.17,2.59l-0.52,0.22l-0.29,-0.55l-0.91,-1.01l-0.65,-0.4l-0.68,0.1l-0.48,1.13l-0.39,-0.01l-0.41,-0.79l-1.43,-1.87l-1.61,-1.66l-0.85,-0.68l-0.35,-0.11l-1.12,0.39l0.43,-1.19l0.62,-0.89l0.05,0.82l1.42,1.52l0.57,0.39l1.08,-0.35l-1.1,-0.44l-0.14,-0.41l-0.06,-0.34l0.18,-0.4l-0.48,-2.7l-0.83,-2.21l-0.13,-1.48l-0.73,-1.13l-1.74,-1.96l-2.09,-1.7l0.3,-1.25l-0.11,-0.9l-0.54,-1.54l-1.1,-2.27l-1.24,-0.48l-2.01,0.32l-0.86,0.49l-0.66,-0.74l0.01,-0.33l-0.8,-2.13l-1.32,-3l0.87,0.06l0.43,0.4l0.15,0.65l0.74,-1.01l0.22,-0.66l-0.22,-1.14l-0.77,-1.09l-0.68,-0.59l-0.31,-0.05l-1.72,0.54l-0.7,0.67l-0.41,-0.08l0.02,-1.04l0.31,-0.71l0.55,0.22l0.18,-0.3l-1.35,-1.88l-1.09,-0.64l-0.68,-0.61l0.12,-0.47l-0.74,-0.23l-0.27,0.22l-0.16,0.65l-0.89,0.56l-3.46,-0.24l-0.33,-0.08l-0.76,-0.82l-1,-0.36l-1.53,-1.45l-0.52,-0.28l-2.18,-0.26l-1.04,0.21l-0.81,0.75l-0.94,0.33l-0.68,0.05l-0.75,-0.19l-1.83,-1.85l-2.8,-2.03l-4.39,-2.27l-2.35,-0.88l-0.36,0.04l-1.11,0.9l-1.83,0.71l-0.55,0.07l-5.76,-0.43l-1.24,0.04l-2.31,0.18l-1.06,0.27l-6.58,0.56L174.7,251l0,0l0.06,-70.18l0,0l9.71,-0.07l0,0l14.47,0.01l0,0l73.46,-0.01l0,0l32.57,0L305,217.3l0,0l-0.05,63.7l0,0l-0.28,-0.37l-0.04,54.4l0,0l-1.27,-0.13l-0.86,0.26l-0.79,-0.03l-1.83,-0.98l-1.89,-1.9l-1.28,-2.59l-1.27,-1.93l-0.78,-0.55l-0.61,0.03l-1.95,-2.62l-0.68,-1.36l0.34,-0.7l-0.03,-0.55l-0.51,-1.27l0.2,-1.25l0.77,-0.64l0.42,-1.08l-0.01,-1.81l-0.4,-1.43l-1.9,-4.63l-3,-4l-1.98,-2.13l-1.16,-0.94l0.53,0.17l2.96,2.59l1.96,2.69l0.83,1.71l-0.12,-0.93l-0.5,-1.41l-0.41,-0.61l-1.29,-1.49l-3.78,-3.62l-0.02,-1.18l0.67,-0.27l0.82,0.71l-0.1,1.67l0.17,0.23l1.02,-0.11l0.28,-1.16l0.13,-1.77l-0.18,-1.27l-1.56,-0.77l-0.84,0.83l-0.6,0.18l-0.64,-0.03l-0.55,0.24l-0.22,0.54l0.11,0.35l0.62,0.2l0.21,0.26l-0.49,0.63l-2.93,-0.25l-0.77,0.32l-0.65,0.79l-0.59,0.41l-3.92,0.21l-0.89,-0.67l0.65,-1.15l1.44,-0.72l1.66,-1.79l0.31,-1.75l-0.13,-0.46l0.11,-0.84l0.53,-1.16l-0.36,-2.14l0.25,-1.18l-0.09,-0.58l-0.66,-1.14l-1.74,-2.13l-0.6,-2.16l-1.38,-2.35l-0.26,0.06l-0.66,1.54l0.29,0.58l-0.16,0.55l-1.03,1.06l-0.38,1.31l-0.15,2.44l-1.37,4.46l-0.01,1.1l-0.8,0.65l-1.54,-0.7l-0.79,-0.2l-0.42,0.08l-2.04,0.77l-0.46,0.75l-0.26,0.17l-1.51,-0.23l-0.84,0.74l-0.62,0.23l-0.35,-0.17l-0.31,-0.52l0.4,-0.65l0.74,-0.73l0.26,-0.63l0.18,-1.86l0.51,-0.75l0.91,0.36l0.93,-0.25l0.96,-0.06l0.19,0.3l0.93,0.42l0.54,-0.29l0.22,-0.55l0.48,-3.14l-0.19,-2.45l0.13,-2.43l-0.45,-1.65l0.16,-0.22l0.53,0l0.32,-0.62l0.55,-1.82l0.09,-0.94l1.9,-2.43l1.22,-1.2l0.46,-0.13l0.18,-0.47l-0.35,-1.53l-1.1,-2.11l0.33,-0.98l0.62,-0.44l0.58,-0.23l0.7,-0.02l0.3,-0.24l-0.08,-0.66l-0.33,-0.63l-0.59,-0.25l-0.63,-2.86l-0.57,-1.27l-0.3,-1.55l-0.58,-0.44l-0.09,2.09l0.25,0.14l0.25,0.44l0.07,1.37l-0.36,1.86l-0.57,0.03l-1.38,0.44l-1.16,1.26l-1.12,2.23l-0.06,1.07l-0.2,0.6l-1.64,3.07l-0.74,0.62l-1.32,0.05l-0.77,-0.47l-0.71,1.06l0.2,0.14l-0.42,0.44l-3.08,1.63l-1.81,1.42l-0.62,0.64l-0.06,0.42L254.01,283.28zM271.44,303.46l1.65,0.45l0.53,0.72l0.01,0.7l-0.79,0.71l-1.29,-0.63l-1.74,-0.13l-1.53,0.72l-0.2,0.28l0.14,0.92l-0.31,0.31l-1.42,0.7l-1.06,-1.08l-1.43,-0.27l-0.4,0.13l-0.12,0.49l-0.31,0.18l-1.29,-0.12l-1.43,0.22l-2.04,0.06l-0.35,-0.58l-1.54,-1.28l-0.05,-0.47l0.51,-1.5l3.98,-1.18l0.85,-0.01l1.02,-0.24l2.14,-0.95l2.27,0.19l0.64,0.61l-0.01,1.08l0.15,0.2l1.04,0.14l1.07,0.61l0.64,0.05L271.44,303.46z"/>
		<path id="AU-VIC" title="Victoria" class="land" d="M398.1,330.52l-1.32,0.65l-1.6,0.16l-5.25,0.03l-1.82,0.26l-1.79,-0.07l-2.01,0.14l-3.75,1.11l-2.22,1.1l-2.37,1.8l-1.83,1.71l-1.73,1.72l-2.64,3.07l-1.04,0.92l-2.43,0.31l-2.38,0.6l-0.85,-0.27l-0.99,0.06l-0.45,0.19l-0.38,0.57l1.21,2.21l1.25,-0.88l0.23,-0.84l0.39,0.18l0.16,3.76l-0.64,0.81l-0.34,0.17l-0.51,-0.24l-0.3,-0.45l-0.79,-2.07l-1.14,-1.43l-0.84,-0.36l-0.53,0.17l-0.15,0.43l-1.07,-0.09l-0.88,-1.78l0.26,-0.42l-0.34,-0.64l-0.96,-0.15l-0.75,0.5l-0.55,0.09l-0.45,-0.26l-1.63,-1.65l0.18,-1.29l0.96,-0.4l0.38,-0.67l-0.76,-1.74l-0.45,-0.29l-2.05,0.15l-0.46,1.54l-1.98,2.04l-0.96,0.19l-0.44,-0.07l-1.52,-1.77h1.29l1.14,-0.51l1.59,-2.8l-0.35,-1.29l-1.34,-2.07l-0.63,-0.32l-1.01,0.46l-1.45,1.39l-1.78,1.33l-1.53,0.16l-0.19,0.19l0.06,0.5l1.5,0.26l0.84,-0.29l0.5,-0.37l0.75,0.21l0.16,0.4l-0.12,0.61l-0.56,0.86l-0.27,0.2l-0.93,-0.22l-1.67,0.36l-0.35,0.21l-3.27,2.21l-2.38,2.93l-1.2,0.33l-0.4,0.28l-0.24,0.61l-1.41,1.04l-0.41,-0.11l-0.67,-0.79l-0.61,-0.36l-2.25,-0.72l-0.51,-0.52l-0.92,-0.57l-0.83,-0.11l-1.83,-0.74l-2.91,-2.25l-1.69,-0.67l-1.2,0.29l-0.2,0.23l-0.98,-0.02l-1.06,-0.61l-1.06,-0.88l-1.56,-0.34l-0.76,-0.01l-0.78,0.22l-0.64,0.54l0,0.43l0.33,0.65l-0.86,0.24l-1.27,-0.62l-0.94,-1.14l-1.89,-1.77l-0.97,-0.64l-1.47,-0.68l0,0l0.04,-54.4l0.28,0.37l0,0l0.51,0.5l0.33,0.09l1.87,0.14l1.78,0.83l1.21,0.74l0.19,0.26l0.53,-0.28l0.61,-0.84l0.96,-0.37l1.61,0.42l1.7,-0.35l1.25,0.57l0.87,0.6l1.51,2.54l0.05,1.88l0.94,0.87l0.58,1.55l-0.03,0.26l0.37,0.43l0.92,0.18l0.49,-0.62l0.35,-1.55l0.19,-0.27l0.62,-0.21l0.68,0.45l0.15,0.36l1.28,0.52l1.62,0.11l2.31,1.26l0.14,0.21l-0.01,0.83l-0.26,1.31l0.29,1.65l0.5,1.1l0.81,0.5l0.88,0.22l0.42,0.65l-0.25,0.76l0.18,0.28l0.67,0.5l0.45,-0.1l0.77,0.28l1.67,1.27l1.86,0.99l0.84,1.16l1.1,0.98l0.62,0.2l0.25,0.26l0.56,1.28l2.28,2.67l1.34,0.78l0.42,0.11l1.92,-0.54l-0.17,-1.36l0.38,-1.38l0.2,-0.24l1.36,-0.35l1.33,0l0.37,0.3l0.95,0.09l0.95,-0.52l0.82,-0.18l0.27,0.03l0.79,0.62l1.28,1.23l0.76,0.32l3.1,0.59l2.25,0.2l1.14,-0.49l0.38,-0.4l0.68,-0.09l1.12,0.17l0.97,0.76l2.42,0.76l1.46,0.1l1.82,-0.64l0.98,-0.09l1.01,-1.26l1.01,-0.17l1.53,0.29l0.93,-0.36l1.82,0.78l1.18,0.75l0.56,4.42l0.69,0.88l1,2.04l-0.11,0.97l-0.88,1.52l0.98,0.08l19.25,9.7l0,0l-0.85,0.54l-1.24,0.11l-1.22,1.86L398.1,330.52zM352.26,340.07l-0.78,-0.3l-0.14,-0.63l0.27,-0.89l1.74,0.36l0.44,0.52l-0.12,0.2l-0.7,0.01L352.26,340.07zM352.24,341.99l-0.37,-0.45l-0.53,-0.23l-1.68,0.14l0.03,-0.15l0.76,-0.74l1.01,-0.2l0.29,0.19l0.58,1.39L352.24,341.99z"/>
		<path id="AU-QLD" title="Queensland" class="land" d="M402.43,140.14l0,0.18l0.67,0.64l-0.56,-1.93l-0.71,-1.46l0.01,-0.55l0.42,-1.11l0.43,-0.56l0.48,-0.13l0.38,0.16l0.83,1.28l0.49,1.39l1.32,0.54l1.72,1.18l1.23,0.56l-0.63,-1.49l-0.01,-0.88l0.3,-0.61l0.79,0.14l0.77,1.15l-0.32,0.74l0.08,0.57l1.47,2.09l-0.69,4.67l0.61,1.26l-0.13,1.68l0.72,1.46l0.88,0.48l0.81,0.12l0.31,0.71l0.74,0.56l0.52,1.5l0.77,0.42l0.36,0l0.51,0.36l1.15,1.42l0.74,0.22l0.58,0.46l-0.17,0.27l0.07,0.33l0.3,0.12l0.53,-0.52l0.02,-0.64l0.26,-0.25l0.48,0.14l1.13,1.3l1.58,1.41l0.83,2.47l1.32,2.16l1.58,1.21l1.53,0.6l0.54,0.62l0.32,0.77l0.11,1.43l1.78,2.95l1.49,0.45l1.07,0.07l0.42,1.76l-0.13,1.06l-0.44,0.45l0.06,1.4l0.24,0.67l0.36,0.34l0.33,0.09l0.58,1.42l1.56,0.71l0.04,0.29l-0.52,1.13l-0.71,2.9l0.2,0.78l0.27,3.57l0.3,0.73l0.15,4.27l-0.67,0.21l-0.66,0.93l0.33,1.66l1.19,0.92l0.88,1.1l0.68,2.33l0.92,1.29l0.32,0.87l-0.24,1.63l0.54,1.36l0.5,0.7l0,0l-0.81,0.66l-1.19,0.46l-1.45,0.27l-0.83,1.1l-1.79,-0.12l-2.03,0.21l-1.78,-0.39l-0.71,-0.73l-0.48,-0.07l-0.62,0.52l-0.22,0.56l-0.44,0.3l-2.16,0.71l-1.22,0.6l-1.05,0.83l0.98,2.22l-0.35,2.01l-2.08,1l-0.67,-0.32l-0.4,-0.77l-1.87,0.83l-0.98,2l-0.52,0.55l-0.53,0.13l-0.24,-0.11l-0.44,-0.98l-0.13,-1.88l-2.77,-2.39l-2.74,-1.25l-1.64,0.34l-1.81,-0.05l-0.75,-0.51l-0.83,-0.86l-0.3,-0.07l-1.47,0.18l-1.56,0.6l-3.34,0.29l-0.95,-0.28l-0.17,-0.36l-0.28,-0.05l-1.2,0.33l-3.47,2.95l-1.27,1.59l-0.83,0.41h-32.53l0,0H345l0,0h-16.9l0,0l-21.8,-0.01l0,0L305,217.3l0,0l-0.02,-36.54l-32.57,0l0,0l0,-109.55l0,0l2.11,1.72l1.04,0.4l2.13,0.51l1.66,-0.1l0.52,0.38l1.69,0.71l1.82,0.26l1.42,1.97l0.23,1.46l0.55,1.06l0.52,0.51l0.83,0.29l1.09,0.13l1.07,0.71l0.88,0.89l2.15,0.62l0.74,0.44l1.05,0.94l0.43,0.18l1.23,0.07l2.87,-0.52l1.49,-0.55l0.93,-0.5l1.5,-1.16l0.82,-0.29l0.57,-1.04l0.61,-2.36l0.16,-1.69l2.58,-3.35l1,-2.26l0.32,-1.64l1.21,-3.18l-0.28,-1.89l0.65,-4.14l1.89,-4.33l0.34,-1.37l-1.07,-2.94l-0.49,-3.15l0.16,-0.92l0.62,-1.59l0.08,-1.24l-0.24,-0.87l-1.09,-1.3l-0.09,-1.34l0.79,-3.28l1.59,-3.09l-0.12,-0.49l-0.5,-0.56l-0.49,-1.92l0.09,-0.32l0.14,-0.25l1.11,-0.7l0.42,-0.51l0.53,-1.47l0.65,0.2l0.35,0.6l0.01,0.89l0.46,0.7l0.09,-0.47l-0.61,-1.78l-0.48,-0.35l-1.32,-1.98l0.32,-0.26l-0.21,-0.16l-0.71,-0.05l-0.09,0.65l0.34,0.46l-0.63,0.2l-0.38,-0.17l0.02,-0.25l1.02,-2.21l0.95,-1.31l-0.17,-0.38l0.49,-1.4l0.47,-0.7l0.47,-0.21l0.27,1.32l1.16,-0.23l0.09,-0.27l-0.88,-0.86l-0.04,-0.45l0.24,-1.28l1.67,-4.8l0.39,-2.45l-0.22,-1.93l0.1,-0.27l0.4,-0.29l1.72,-0.3l0.61,-0.81l0.49,-1.23l0.81,-0.03l1.02,0.48l-0.34,0.52l-0.72,0.66l-0.08,1.01l0.69,-0.88l0.39,0.03l1.47,1.25l0.47,1.03l0.84,3.42l-0.28,1.32l0.3,2.25l-0.08,1.29l1.18,1.04l0.75,0.06l0.71,-0.32l0.31,0.12l0.73,0.8l-1.05,1.69l-0.22,0.93l-0.05,1.21l0.56,0.16l0.34,-0.09l0.96,0.47l0.3,0.33l0.04,1.16l0.48,0.5l0.41,0.04l0.74,0.56l-0.6,1.39l-0.14,1.17l0.47,0.24l1.07,-0.12l0.11,0.22l-0.17,2.43l0.25,2.28l0.08,0.4l0.43,0.41l0.28,0.6l-0.09,1.04l-0.61,2.56l0.77,2l0.92,0.97l0.14,1.8l0.42,1.49l0.49,1.05l0.37,0.4l0.78,0.42l1.35,0.01l1.54,-1.2l3.06,-1.4l0.45,-1.01l0.43,0.1l0.68,1.02l-0.13,1.06l0.52,1.41l0.68,0.81l1.64,0.63l0.74,0.05l0.68,1.51l2.68,1.21l1.19,0.93l-0.07,0.66l-0.82,1.45l0.04,0.66l0.43,0.71l0.14,0.83l-0.44,1.29l0.61,1.21l0.59,2.01l0,2.03l0.55,0.55l0.57,1.33l-0.18,2.3l-0.41,0.57l-0.07,1.16l0.1,0.33l0.57,0.36l3.71,4.63l0.36,-0.3l1.01,-0.17l0.26,0.32l-0.84,1.59l0.05,0.35l0.77,1.32l0.85,1.99l0.58,2.13l0.2,1.57l-0.2,1.08l0.16,1.16l-0.07,0.75l-1,2.12l0.08,1.09l2.2,2.88l1.32,0.5l-0.08,1.27l-0.49,1.14l-0.14,1.21l0.1,0.38l0.63,0.84l0.95,0.74l0.27,0.52l1.27,0.83l0.97,0.46l1.19,0.03l1.33,1.33l0.74,0.03l1.29,0.42l0.73,0.69l1.24,0.26l1.94,-0.15l0.16,-0.34l-0.49,-0.85l0.62,0.71l1.05,1.89l0.43,2.2l0.26,0.53l0.55,0.59l0.59,0.14l0.5,-0.12l-0.17,-0.93l0.08,-0.4l0.66,0.01l0.32,0.34l0.13,1.27l0.52,0.49l0.65,0.28l1.36,-0.06l1.34,0.39l0.86,1.04l-0.35,0.14l0.09,0.31l0.64,0.79l0.86,0.7l0.57,-0.25l0.04,-0.68l-0.34,-0.31l0.15,-0.4l0.75,0.28l1.64,1.47l1.04,0.19l0.37,0.51l0.69,1.94l0.41,0.11l0.33,0.92l-0.61,-0.15l-0.52,-0.53l-0.44,-0.21l-0.53,0.22l-0.8,0.99l0.67,1.8l1.31,1.37l0.78,0.54l1.16,0.41l1.44,1.12l0.59,0.75l-0.11,0.86l0.38,1.44l0.54,0.46l0.42,1.38l0.62,1.09l0.62,0.59l-0.14,2.21l0.99,3.54l0.75,1.82l0.69,0.99l0.47,0.38l0.03,1.19l-0.33,0.5l0.73,-0.37l0.58,-0.48l0.27,-0.45L402.43,140.14zM436.13,178.32l-0.47,-0.1l-0.44,-0.59l-0.59,-2.15l0.58,-1.42l0.73,-1.21l-0.01,-1.03l-0.15,-0.26l0.45,-0.94l1.13,-0.91l0.5,-0.98l0.09,-0.53l-0.11,-0.41l-0.65,-1.06l-0.21,-0.12l0.41,-0.76l0.93,-0.61l0.09,2.44l0.25,0.55l0.52,0.34l0.11,0.42l-2.65,6.24l-0.48,1.57l0.16,0.97L436.13,178.32zM284.87,73.53l-0.11,-0.66l0.29,-1.15l0.62,-0.86l0.91,-0.69l1.88,-0.23l0.59,-0.32l2.09,0.34l0.06,0.66l-0.47,0.22l-0.71,0.15l-0.47,-0.38l-1,0.4l0.16,0.35l-0.67,1.11l-1.21,0.46l-1.57,0.29L284.87,73.53zM416,154.42l-0.59,-0.55l-0.42,-0.93l-0.73,-0.66l-0.42,-0.94l-0.1,-0.82l0.48,-0.11l1.52,0.96l0.21,0.35l0.7,1.34l0.13,0.92l-0.29,0.35L416,154.42zM362.4,93.15l-0.75,-0.29l-0.21,-1.04l-0.48,-0.65l-0.5,-0.24l-0.27,-0.5l0.45,-0.11l1.54,0.72l0.9,1.3l-0.32,0.62L362.4,93.15zM439.66,201.72l-0.19,-0.42l0.06,-1.04l0.42,-2.38l0.42,-0.1l0.75,0.13l-0.72,2.38l-0.23,1.37L439.66,201.72zM439.86,197.24l-0.72,-2.02l0,-1.64l0.93,-0.51l0.24,0.18l-0.56,2.12L439.86,197.24zM317.82,6.96l-0.68,-0.55l-0.05,-0.69l0.65,-0.43l0.45,-0.09l0.53,0.8l-0.07,0.41l-0.52,0.13L317.82,6.96zM318.87,1.42l-0.75,-0.32l-0.23,-0.36l0.42,-0.64l0.6,-0.11l0.36,0.17l0.25,0.44L318.87,1.42zM287.91,77.87l-0.31,-0.65l1.11,-1.04l0.56,0.4l0.18,0.83l-1.28,-0.03L287.91,77.87z"/>
		<path id="AU-TAS" title="Tasmania" class="land" d="M369.2,414.49l-0.9,0.45l-0.2,-0.45l-1.4,-0.22l-0.94,-0.71l-0.92,-0.2l-2.37,-0.12l-0.23,-0.16l-0.16,-0.43l-0.31,-0.09l-1.31,0.4l-0.78,-0.26l-1.15,-1.81l0.64,-0.45l1.2,0.18l0.59,0.32l0.82,0.17l0.02,-0.98l-0.77,-0.64l-0.42,0.76l-2.89,-0.37l-0.24,-0.17l-1.19,-2.43l-1.43,-2.28l-0.23,-0.23l-0.68,0.03l-0.56,-0.9l-0.4,-0.85l-0.75,-2.77l-0.47,-0.51l-0.55,-0.16l-0.68,-4.38l0.08,-0.83l0.2,-0.26l0.29,0.52l1.91,1.46l0.47,2.18l0.9,-2.52l-0.57,-0.4l-0.45,0.04l-1.93,-2.12l-0.21,-0.6l0.02,-0.88l-0.16,-0.66l-0.69,-1.41l-1.41,-1.33l-1.09,-1.93l-2.92,-7.17l0.1,-0.51l-0.3,-1.52l-0.33,-0.62l-0.2,-1.44l0.88,-0.8l0.02,-1.66l0.66,-0.44l2.43,0.29l1.42,1.05l1.72,-0.28l0.66,0.56l2.21,0.72l3.62,2.15l3.48,1.64l2.3,0.21l1.02,-0.31l0.94,0.53l-0.05,-0.5l0.85,-0.9l0.77,-0.27l0.57,0.18l0.24,0.95l0.57,0.29l0.91,-0.02l-0.32,-0.46l-0.76,-0.17l-0.22,-0.21l-0.05,-0.69l0.49,-0.45l1.66,-0.75l1.41,0.47l2.27,-0.46l0.66,0.59l0.78,-0.47l1.09,-1.89l0.24,-0.15l0.69,-0.17l0.26,0.38l1.13,0.51l0.38,-0.02l0.69,-0.4l0.35,-0.59l0.19,-0.87l0.22,-0.24l0.46,0.02l0.71,0.33l1.54,1.14l0.57,0.75l0.6,1.35l-0.69,2.46l0.08,0.74l0.45,0.59l0.04,1.09l-0.47,1.72l0.07,1.23l0.37,1.07l-0.54,2.92l0.36,3.2l0.66,1.07l0.06,1.66l-0.57,0.81l-0.39,-0.33l-0.05,-0.35l0.29,-0.37l0.13,-0.96l-0.77,-2.07l-0.47,-0.77l-1.26,2.5l-0.82,5.93l-0.49,0.5l-0.16,0.84l0.12,1.52l-0.78,0.81l-0.44,1.48l0.15,0.24l0.47,-0.03l-0.2,-0.43l0.32,-0.24l0.69,0.42l0.28,0.55l0.06,1.03l-0.41,0.27l-0.17,1.29l0.58,1.31l-0.1,0.84l-0.27,0.02l-0.77,-0.68l-0.78,0.34l-0.41,0.61l-1,-1.24l-0.71,-1.45l-0.14,-0.71l0.6,-1.07l0.35,-0.1l0.26,0.24l0.05,0.36l-0.17,0.35l0.67,0.72l0.93,-0.07l0.34,-0.29l-0.8,-1.4l-2.54,-1.55l-0.37,0.06l-0.6,0.45l0.21,1.01l0.34,0.74l-0.29,0.58l-1.07,0.35l-0.25,-0.62l0.21,-0.13l-0.16,-1.5l-0.98,-0.63l0.34,0.86l-0.24,1.54l-0.63,0.77l-0.29,1.08l0.22,1.04l-0.16,0.97l-0.37,0.24l-0.38,-0.05l-0.87,-0.56l-0.79,-0.93l-0.15,-0.94l-0.23,-0.09l-0.23,0.37l-0.01,1l1.37,1.25l-0.44,1.1l-0.57,0.89l-0.54,1.57l-0.16,1.08L369.2,414.49zM382.36,365.85l-0.98,-0.54l-0.28,-1.06l0.06,-0.3l-1.24,-2.33l-1.55,-1.38l1.32,-1.74l0.93,-0.4l2.15,2.87l0.4,0.29l0.83,0.22l0.09,0.41l0.51,2.79l-0.04,0.38l-0.3,0.28l-1.37,0.25L382.36,365.85zM336.69,363.9l-0.38,-0.28l-0.14,-0.73l0.2,-0.15l0,-0.98l-0.62,-0.81l0.03,-0.77l0.19,-2.27l0.85,-0.63l0.13,-0.37l-0.11,-0.81l0.46,-0.13l0.97,0.59l0.45,0.65l0.15,2.29l0.26,1.47l-0.1,0.77l-0.33,0.74L336.69,363.9zM384.64,369.1l-0.03,-0.69l-0.19,-0.28l-2.52,0.32l-0.97,-0.42l0.02,-0.55l0.72,-0.59l0.74,-0.04l0.76,0.23l1.52,-0.77l1.48,1.76l-0.02,0.15l-0.75,0.29L384.64,369.1zM373.39,412.93l-0.69,-0.32l-0.69,0.15l-0.57,-1.19l1.92,-2.37l0.7,1.83l-0.48,1.74L373.39,412.93zM499.07,600l-0.48,-0.05l-0.01,-1.54l0.62,-2.78l0.21,-0.5l0.54,-0.32l-0.16,1.87l-0.62,2.08L499.07,600zM374.03,409.2l-0.75,-1.57l0.7,-1.22l0.43,0.66l0.39,1.81l-0.03,0.17L374.03,409.2zM381.12,401.66l0.05,-1.96l0.63,-0.48l0.56,0.05l0.49,0.96l-0.05,0.15l-0.76,0.01L381.12,401.66zM347.19,372.32l-0.19,-0.14l-0.05,-0.69l0.65,-0.77l0.98,1.12L347.19,372.32z"/>
	</g>
</svg>