<?xml version="1.0" encoding="utf-8"?>
<!-- (c) ammap.com | SVG map of Azerbaijan - Low -->
<svg xmlns="http://www.w3.org/2000/svg" xmlns:amcharts="http://amcharts.com/ammap" xmlns:xlink="http://www.w3.org/1999/xlink" version="1.1">
	<defs>
		<style type="text/css">
			.land
			{
				fill: #CCCCCC;
				fill-opacity: 1;
				stroke:white;
				stroke-opacity: 1;
				stroke-width:0.5;
			}
		</style>

		<amcharts:ammap projection="mercator" leftLongitude="44.760601" topLatitude="41.906070" rightLongitude="50.614493" bottomLatitude="38.353659"></amcharts:ammap>

		<!-- All areas are listed in the line below. You can use this list in your script. -->
		<!--{id:"AM-GR"},{id:"AZ-ABS"},{id:"AZ-AGA"},{id:"AZ-AGC"},{id:"AZ-AGM"},{id:"AZ-AGS"},{id:"AZ-AGU"},{id:"AZ-AST"},{id:"AZ-BA"},{id:"AZ-BAB"},{id:"AZ-BAL"},{id:"AZ-BAR"},{id:"AZ-BEY"},{id:"AZ-BIL"},{id:"AZ-CAB"},{id:"AZ-CAL"},{id:"AZ-CUL"},{id:"AZ-DAS"},{id:"AZ-FUZ"},{id:"AZ-GA"},{id:"AZ-GAD"},{id:"AZ-GOR"},{id:"AZ-GOY"},{id:"AZ-GYG"},{id:"AZ-HAC"},{id:"AZ-IMI"},{id:"AZ-ISM"},{id:"AZ-KAL"},{id:"AZ-KAN"},{id:"AZ-KUR"},{id:"AZ-LA"},{id:"AZ-LAC"},{id:"AZ-LAN"},{id:"AZ-LER"},{id:"AZ-MAS"},{id:"AZ-MI"},{id:"AZ-NA"},{id:"AZ-NEF"},{id:"AZ-NV"},{id:"AZ-OGU"},{id:"AZ-ORD"},{id:"AZ-QAB"},{id:"AZ-QAX"},{id:"AZ-QAZ"},{id:"AZ-QBA"},{id:"AZ-QBI"},{id:"AZ-QOB"},{id:"AZ-QUS"},{id:"AZ-SA"},{id:"AZ-SAB"},{id:"AZ-SAD"},{id:"AZ-SAH"},{id:"AZ-SAK"},{id:"AZ-SAL"},{id:"AZ-SAR"},{id:"AZ-SAT"},{id:"AZ-SBN"},{id:"AZ-SIY"},{id:"AZ-SKR"},{id:"AZ-SM"},{id:"AZ-SMI"},{id:"AZ-SMX"},{id:"AZ-SR"},{id:"AZ-SUS"},{id:"AZ-TAR"},{id:"AZ-TOV"},{id:"AZ-UCA"},{id:"AZ-XAC"},{id:"AZ-XCI"},{id:"AZ-XIZ"},{id:"AZ-XVD"},{id:"AZ-YAR"},{id:"AZ-YE"},{id:"AZ-YEV"},{id:"AZ-ZAN"},{id:"AZ-ZAQ"},{id:"AZ-ZAR"}-->

	</defs>
	<g>
		<path id="AM-GR" title="Geġark'unik'" class="land" d="M94.41,213.98L92.51,216.97L93.21,219.76L96.32,222.69L99.88,222.75L101.34,220.46L101.91,218.36L99.24,215.25L96,213.34z"/>
		<path id="AZ-ABS" title="Abşeron" class="land" d="M613.61,298.81l-2.42,1.51l-1.87,2.11l-0.12,1.51l0.93,2.3l-0.1,1.51l-2.24,4.35l-1.83,2.32l-1.24,2.67l-0.05,2.68l1.02,2.83l0.01,2.1l-4.17,6.06l-0.43,5.32l-2.33,4.51l-2.87,-4.21l-2.71,-2.92l0,0l-0.73,-1.38l-0.27,-4.82l0,0l-1.68,-3.03l0,0l-2.12,-2.28l-1.36,-2.64l-0.21,-1.56l0,0l-0.21,-4.85l0,0l0,0l0,0l-1.52,-2l0,0l-1.43,-2.36l-1.87,-1.19l0,0l-11.09,-0.45l0,0l-2.31,-0.96l0,0l-5.55,-0.2l-1.77,-0.5l-2.77,-3.67l-2.05,-4.03l-4.27,-4.45l0,0l-0.34,-0.42l0,0l-1.31,-2.26l-3.72,-3.5l0,0l-1.37,-0.69l0,0l-3.69,-2.78l-1.12,-7.51l2.73,0.9l5.68,3.55l0,0l0.39,0.29l0,0l1.02,1.68l0,0l0.92,0.77l0,0l1.59,-1.18l0,0l1.05,-1.94l1.92,-1.98l0,0l2.56,-1.61l1.59,-2.68l0,0l1.38,-2.18l1.97,-1.9l0,0l1.9,-1.09l3.65,-0.33l0,0l0.34,-0.17l0,0l4.22,-6.73l2.44,-1.28l3.36,-1.01l4.14,-0.4l2.67,-3.12l1.94,-1.08l0,0l2.1,-1.13l0,0l0.87,-0.73l0,0l4.09,-7.26l0,0l5.83,-0.36l0,0l1.59,-0.19l0,0l1.81,-0.74l4.98,-0.02l0,0l2.05,-0.84l0,0l2.21,-2.42l0.42,-5.34l0,0l2.92,-3.43l0.65,-1.3l1.92,-1.97l2.02,-1.18l0.99,-1.07l1.11,-2.11l0,0l0.54,-1.76l0.74,-0.07l0,0l0.35,0.18l0,0l8.93,8.97l1.02,1.82l0,0l3.02,5.22l0,0l1.23,0.45l0,0l3.35,0.12l0,0l1.64,-0.07l2.31,-0.9l2.84,-0.35l2.03,-0.9l2.15,-3.96l3.04,0.68l-1.41,2.11l-0.74,5l1.23,0.04l4.85,-2.2l1.52,-0.09l3.84,1.33l3.53,1.84l3.77,0.4l4.4,1.36l0.62,0.91l0,0.98l-1.08,1.04l-6.6,1.29l-4.66,1.64l-3.15,0.39l-5.66,2.53l-3.42,-1.63l-1.58,-0.26l-6.69,-0.06l-3.62,1.27l-3.56,0.66l-3.45,-1.09l-2.1,0.07l-3.37,1.51l-0.99,1.6l-0.56,2.4l-1.32,1.6l-3.38,1.24l-3.87,0.04l-1.53,0.61l-1.66,2.64l-1.23,3.21l0.95,2.82l0.23,3.22l0.98,2.86l-0.03,15.42l-0.95,2.69l-0.34,2.61L613.61,298.81zM651.09,261.56l-4.27,0.31l-1.07,6.17l-2.29,5.18l-0.08,2.9l2.74,0.84l5.64,-4.42l3.81,2.82l2.06,-1.14l0.91,-2.52l1.6,-2.21l-2.13,-4.96l-0.38,-2.44L651.09,261.56z"/>
		<path id="AZ-AGA" title="Ağstafa" class="land" d="M81.79,156.02L81.8,151.39L80.87,148.97L80.67,144.58L79.74,142.25L79.67,140.64L79.9,139.62L81.63,137.24L80.89,133.46L81.78,131.17L82.13,128.53L83.9,123.92L84.39,120.78L85.18,118.98L85.2,116.83L83.98,114.03L82.84,112.66L81.34,111.82L75.82,111.47L74.01,110.66L71.37,110.26L67.52,108.94L60.58,105.23L57.55,102.68L47.59,97.2L47.59,97.2L50.7,92.38L54.34,88.54L55.2,88.04L58.88,87.3L61.11,85.03L64.05,83.22L65.15,80.03L66.02,79.05L69.77,78.8L72.14,77.46L73.5,77.7L75.28,78.68L77.19,80.74L83.38,84.91L85.39,84.85L86.17,84.35L89.33,80.78L92.01,81.07L92.96,81.58L95.91,84.93L97.09,85.65L104.03,87.61L105.81,88.42L106.44,89.88L106.88,92.5L108.33,93.89L109.44,94.38L110.54,94.75L115.27,93.86L116.74,94.22L120.28,96.36L122.57,96.9L125.34,95.19L126.11,95.24L129.12,98.71L128.13,99.41L124.82,99.88L123.44,101.28L122.12,103.72L121.4,103.87L120.98,105.23L126.37,113.13L134.48,118.25L134.48,118.25L122.24,124.69L119.18,127.76L117.96,131.3L115.98,133.08L114.98,133.13L108.04,129.56L106.82,129.45L106.41,130.59L106.5,133.93L107.24,135.72L107.75,138.92L109.69,142.98L109.57,147.87L107.85,150.91L103.57,154.97L95.7,156.97L94.84,160.1L91.58,163.21L91.58,163.21L87.63,165.02L85.74,164.24L86.02,158.9L88.57,155.03L88.51,154.35L87.88,154.09L84.76,154.47z"/>
		<path id="AZ-AGC" title="Ağcabədi" class="land" d="M393.33,311.4L386.34,326.15L386.02,331.99L385.04,334.9L384.91,339.62L384.01,341.93L383.66,344.51L381.05,349.47L378.84,350.92L374.06,351.23L369.9,354L362.3,354.23L361.85,354.67L361.31,356.56L360.6,357.36L359.27,358.07L356.83,358.58L355.1,359.93L354.98,364.17L356.64,366.96L356.27,367.59L353.61,369.23L352.86,370.69L353.53,371.92L356.03,373.77L357.45,377.39L357.45,377.39L353.2,377.9L350.93,378.72L347.67,378.93L343.11,381.8L337.05,382.59L337.05,382.59L341.31,374.18L341.32,372.17L339.48,369.19L331.15,363.82L329.83,362.56L329.27,361.42L328.79,357.07L328.79,357.07L331.19,355.21L333.65,351.7L333.53,347.98L331.61,345.03L329.83,344.52L326.51,344.54L320.24,347.41L316.44,348.4L313.43,346.69L310.4,346.09L306.44,344.51L304.07,342.2L303.59,340.69L303.66,339.1L304.2,338L305.44,336.86L307.81,335.58L308.99,334.18L309.18,326.09L309.65,324.29L310.89,323.49L315.68,323.18L316.59,322.5L317.9,320.13L317.83,319.33L317.15,318.49L314.5,317.6L312.93,316.46L312.55,315.17L312.74,314.2L314.15,312.98L321.27,309.48L323.56,306.16L326.13,303.31L326.13,303.31L325.04,300.83L325.67,299.9L326.63,299.68L327.72,300.5L330.27,304.71L332.71,306.12L334.76,306.16L337.59,304.67L340.13,302.49L341.84,301.67L345.51,298.41L349.45,296.4L352.4,293.97L354.29,293.02L357.86,289.42L357.86,289.42L357.19,294.72L357.23,299.65L357.65,300.61L360.26,303.68L360.73,305.71L362.31,308.9L364.33,309.04L367.78,307.2L371.04,306.99L373.36,306.16L376.62,306L378.9,305.26L384.36,307.01L384.93,306.26L385.56,303.52L386.22,302.61L387.08,302.31L389.76,303.41L391.3,304.59L392.64,307.71z"/>
		<path id="AZ-AGM" title="Ağdam" class="land" d="M326.13,303.31L323.56,306.16L321.27,309.48L314.15,312.98L312.74,314.2L312.55,315.17L312.93,316.46L314.5,317.6L317.15,318.49L317.83,319.33L317.9,320.13L316.59,322.5L315.68,323.18L310.89,323.49L309.65,324.29L309.18,326.09L308.99,334.18L307.81,335.58L305.44,336.86L304.2,338L303.66,339.1L303.59,340.69L304.07,342.2L306.44,344.51L310.4,346.09L313.43,346.69L316.44,348.4L320.24,347.41L326.51,344.54L329.83,344.52L331.61,345.03L333.53,347.98L333.65,351.7L331.19,355.21L328.79,357.07L328.79,357.07L326.49,356.31L319.86,356.58L318.55,357.95L316.98,361.21L316.08,362.18L309.31,359.71L305.91,358.06L303.11,356.45L299.65,353.26L298.56,352.73L296.41,352.64L294.07,353.49L291.37,353.64L290.65,353.96L290.28,354.65L289.11,360.61L287.22,362.85L282.62,364.4L276.42,367.65L276.42,367.65L279.2,361.02L284.44,354.42L285.72,350.66L285.42,347.7L283.92,346.25L280.82,347.14L279.16,346.59L276.43,344.92L275.78,343.4L275.54,339.1L272.88,336L271.71,333.9L269.57,331.83L267.94,331.2L266.32,331.21L262.28,333.08L260.73,333.17L257.66,331.64L255.96,329.4L255.96,329.4L257.43,327.77L260.69,327.66L264.37,326.85L264.37,326.85L265.58,322.16L264.68,319.57L264.82,317.54L265.55,316.75L268.9,315.15L269.97,314.16L271.22,310.96L271.34,306.05L271.77,304.85L274.71,303.07L275.68,303.11L277.48,303.9L279.63,303.97L284.51,302.12L286.68,299.74L286.68,298.79L285.82,296.44L286.11,294.58L287.9,294.53L290.9,297.08L292.5,297.65L293.73,297.32L295.43,295.71L296.88,295.81L298.97,297.94L299.4,302.21L300.89,303.91L303.06,304.49L305.55,303.7L307.29,303.81L307.29,303.81L307.29,303.81L307.29,303.81L312.55,302.56L315.3,302.71L318.7,303.79z"/>
		<path id="AZ-AGS" title="Ağdaş" class="land" d="M373.37,241.89L367.23,239.24L363.78,240.71L360.12,241.11L359.5,241.99L359.16,244.04L358.4,245.83L358.27,250.74L357.26,253.54L357.24,255.66L358.99,258.89L363.28,261.45L364.42,262.58L364.98,263.85L365,265.2L365,265.2L361.85,271.84L361.2,274.26L352.26,282.96L352.26,282.96L349.97,281.81L346.73,281.1L346.12,280.18L345.79,278.11L344.2,275.38L339.77,273.03L339.33,270.73L339.93,267.3L336.22,266.53L334.14,264.81L332.74,261.74L332.62,256.81L332.19,255.6L328.56,253.06L326.77,250.41L324.48,249.52L322.36,247.51L321.75,246.58L320.97,242.86L318.74,238.66L318.74,238.66L321.97,237.25L323.62,235.84L324.68,234.52L326.9,230.13L327.03,226.4L324.96,221.86L324.9,216.94L325.88,214.13L326.23,211.52L328,208.05L330.62,196.17L330.62,196.17L330.62,196.17L330.62,196.17L333.72,197.08L339.3,197.53L345.57,200.72L347.58,200.57L348.76,199.08L349.95,198.77L357,201.33L359.47,202.59L365.34,200.94L365.34,200.94L366.12,205.74L366.36,217.17L367.74,218.45L372.21,220.76L373.67,222.12L373.67,222.12L378,228.01L375.5,230.93L374.12,233.53z"/>
		<path id="AZ-AGU" title="Ağsu" class="land" d="M486.19,284.58L483.29,283.11L481.52,281.48L480.03,278.6L479.59,276.56L478,273.84L476.46,273.16L472.59,272.89L471.1,271.72L469.94,269.15L470.76,266.91L471.15,264.3L471.81,263.01L471.94,261.5L470.59,258.39L469.14,256.67L460.97,256.25L458.84,256.48L455.76,258.99L453.45,262.06L451.94,262.63L450.67,262.27L449.21,260.97L448.35,257.82L447.94,257.48L443.58,259.04L439.21,256.83L438.56,255.25L438.65,251.98L440.59,246.92L442.36,240.69L442.36,240.69L444.15,242.39L445.05,242.43L446.19,241.82L447.29,240.49L447.58,236.72L448.27,235.4L454.4,229.5L457.82,228.29L459.12,227.47L460.06,224.49L460.76,223.62L471.08,218.55L477.95,214.24L480.64,211.91L483.09,210.5L485.22,207.03L488.97,195.31L488.97,195.31L490.58,197.88L491.42,200.91L493.7,203.28L496.14,205.01L497.51,208.58L497.63,210.12L494.58,215.14L495.28,217.84L495,218.72L492.42,222.41L485.86,228.88L484.5,231.49L484.69,232.87L488.01,238.37L489.7,239.93L493.8,241.47L503.77,241.89L509.78,245.88L512.3,247.23L513.76,247.6L514.24,248.14L513.49,249.84L512.35,250.92L505.38,254.84L499.72,257.52L497.22,259.69L496.54,261.44L496.33,267.96L493.54,271.14L490.63,275.45L490.63,275.45L488.96,276.7L488.57,278.81z"/>
		<path id="AZ-AST" title="Astara" class="land" d="M547.98,569.81L548.38,585.38L548.25,601.08L541.15,602.58L538.15,604.76L536.23,606.81L532.96,607.77L527.63,608.18L525.58,610.63L523.13,612L518.35,611.45L516.3,609.41L512.34,608.18L507.02,604.35L507.41,600.27L505.4,594.84L503.93,592.33L500.32,588.41L500.32,588.41L501.32,587.55L502.79,585.13L503.22,580.99L504.56,579.47L510.91,575.91L512.46,575.84L515.09,576.59L520.29,573.74L520.29,573.74L520.29,573.74L520.29,573.74L520.29,573.74L520.29,573.74L523.58,574.83L529.18,574.95L535.44,572.16L542.64,570.02L542.64,570.02L547.16,569L547.16,569z"/>
		<path id="AZ-BA" title="Bakı" class="land" d="M773.48,277.97l-0.32,0.84l-2.06,-0.47l-3.08,1.1l-1.68,2.7l-1.77,1.1l-0.48,-0.4l2.59,-3.17l-0.3,-0.58l0.05,-2.26l-0.45,-0.76l-1.75,-0.8l-0.14,-0.25l0.82,-0.68l-0.69,-1.1l-0.88,0.08l-0.8,-1.19l0.3,-0.25l1.42,0.49l1.62,2.21l1.45,1.01l0.62,1.45l0.51,-0.79l0,-0.79l-0.69,-3.28l2.25,1.44l0.44,-0.08l0.12,-0.9l2.73,2.99L773.48,277.97zM741.25,290.17l-0.1,6.8l-0.76,1.87l-0.45,-5.07l-1.59,-5.21l0.31,-1.68l-0.82,-3.64l-0.69,-1.13l-2.94,-3.44l-1.12,-0.3l-1.61,-1.45l-2.29,-0.48l-0.53,-0.72l-6.51,-3.44l-2.12,-0.7l-1.92,-0.25l-2.83,0.23l-2.37,-1.44l-3.83,-1.05l-2.56,-0.22l-1.83,0.59l-1.11,0.93l-0.9,2.1l-1.7,-0.03l-1.88,-0.76l-1.64,0.14l-2.15,0.57l-2.58,2.83l-1,0.07l-3.4,-1.01l-2.59,0.65l-0.46,-2.06l-0.91,-1.43l-3.51,-2.52l-2.5,-0.45l-3.76,-0.08l-1.18,0.38l-0.52,-0.36l-2.17,0.85l-1.16,1.53l0.51,1.95l0.26,0.22l0.82,-0.33l0.66,0.69l-0.96,0.63l-0.03,2.26l-0.99,3.29l-0.66,0.78l-0.83,0.45l-1.58,-0.05l-1.11,-0.45l-2.9,0.55l-2.94,1.1l-3.59,2.75l-1.26,0.45l-2.1,-0.45l-2.77,0.48l-1.07,0.98l-1.29,2.15l-2.62,1.09l-1.27,1.04l-0.29,1.12l0.91,0.04l-0.15,0.38l-1.54,0.47l-0.2,-1.47l-0.4,-0.09l-1.16,1.3l-4.33,1.79l-2.23,2.11l-5.7,2.07l-3.08,3.39l-2.46,0.59l-1.04,1.18l-0.45,3.21l0.44,3.35l2.1,3.41l-1.64,0.26l-0.85,0.8l-1.55,-0.36l-1.28,1.24l-1.21,0.26l-0.97,1.27l-1.58,0.98l-0.47,1.46l1.13,4.71l1.42,2.95l4.1,4.94l2.04,3.27l-0.37,0.95l-2.91,2.36l-3.56,1.79l-0.87,0.97l-0.61,1.87l-0.25,2.13l1.3,6.63l2.5,5.11l-1.24,1.65l-1.52,0.32l-1.14,1.25l-0.56,3.63l-2.68,4.75l-0.12,2.43l0.4,3l1.59,5.95l2.29,4.75l-5.47,2.63l-2.53,2.77l-0.73,-1.87l-0.2,-5.32l-0.77,-1.84l-0.24,-1.75l0.06,-11.17l0.27,-1.24l1.3,-1.98l-0.56,-8.26l-4.19,-6.21l-1.09,-2.22l-0.44,-3.12l-1.09,-2.94l-1.2,-1.42l2.33,-4.51l0.43,-5.32l4.17,-6.06l-0.01,-2.1l-1.02,-2.83l0.05,-2.68l1.24,-2.67l1.83,-2.32l2.23,-4.35l0.1,-1.51l-0.93,-2.3l0.12,-1.51l1.87,-2.11l3.08,-2.13l1.33,-2.38l0.34,-2.61l0.91,-2.28l0.07,-15.83l-0.98,-2.86l-0.22,-3.22l-0.95,-2.82l1.23,-3.21l1.65,-2.64l1.27,-0.56l4.64,-0.21l3.08,-1.23l1.11,-1.5l0.56,-2.4l0.99,-1.6l3.37,-1.51l2.07,-0.07l3.47,1.09l3.56,-0.66l3.62,-1.27l6.66,0.06l1.58,0.26l3.45,1.63l5.67,-2.54l3.15,-0.39l4.66,-1.64l6.6,-1.29l0.92,-0.6l0.16,-1.42l-0.62,-0.91l-4.4,-1.36l-3.77,-0.4l-3.53,-1.84l-3.85,-1.33l-1.55,0.09l-4.85,2.2l-1.2,-0.04l0.74,-5l1.41,-2.11l5.7,-0.33l2.23,1.38l2.38,0.52l8.26,-1.25l7.29,-1.61l5.54,-2.03l1.71,0.03l1.92,1.32l1.54,0.17l4.99,-1.16l1.23,0.03l1.21,-0.63l0.32,0.92l-0.94,1.67l0.32,0.86l2.87,3.08l0.56,2.28l0.64,0.89l1.47,0.96l0.76,1.26l0.95,0.52l3.7,0.44l0.69,0.7l1.69,0.27l1.91,1.32l1.47,-0.51l0.86,0.55l1.28,-0.05l1.27,0.95l0.93,-0.2l1.55,2.68l0.06,1.08l1.28,1.27l0.29,1.14l1.28,0.83l0.36,1.7l0.8,0.35l0.73,-0.65l1,2.99l1,1.2l6.46,4.12l0.4,2.14l2.96,6.3l0.08,6.12l-0.76,3.98l0.9,3.57l-0.21,1.45l0.76,1.26l0.17,2.08L741.25,290.17zM657.65,262.1l-6.56,-0.53l-4.27,0.31l-1.07,6.17l-2.29,5.18l-0.08,2.9l2.74,0.84l5.64,-4.42l3.81,2.82l2.06,-1.14l0.91,-2.52l1.6,-2.21l-2.13,-4.96L657.65,262.1zM643.92,336.01l-0.67,1.12l0.37,0.58l3.27,-0.8l0.63,-1.2l-0.95,-1.99l-0.03,-1.2h-2.98L643.92,336.01zM736,255.86l0.02,1.15l1.11,0.5l1.15,1.73l-1.16,0.49l0.13,0.37l0.87,0.08l1.17,5.51l0.43,0.08l-0.2,-3.47l0.72,-1.8l0.61,-0.58l-0.02,-0.68l-0.56,-1.76l-0.71,0.01l-0.64,-0.81l-0.31,-1.9l-0.42,-0.59l0.65,-1.49l-0.96,-2.95l-0.62,-0.57l-0.83,0l-0.84,-0.9l-0.92,1.06l-1.44,0.94l-0.86,-0.2l-0.16,0.42l0.55,0.92l1.73,1.07l0.79,2.3L736,255.86z"/>
		<path id="AZ-BAB" title="Babək" class="land" d="M93.79,417.61L93.47,419.89L91.68,420.66L88.86,424.24L81.95,429.11L82.71,432.18L85.53,432.95L87.32,432.95L88.86,435L89.37,438.84L91.42,442.17L99.36,442.68L103.2,447.03L107.04,449.85L105.76,453.43L106.79,454.97L106.79,454.97L109.6,454.97L109.6,454.97L109.86,457.79L109.09,460.09L106.02,462.14L106.02,465.98L105.51,468.54L101.41,469.06L98.85,469.82L98.85,472.64L104.23,476.99L104.99,479.3L104.74,482.63L102.43,484.68L101.15,489.03L103.71,492.1L107.04,494.41L108.07,497.74L107.81,500.81L106.02,503.11L106.27,509.03L106.27,509.03L104.32,510.15L102.5,510.1L99.14,508.09L93.18,506.24L90.27,504.49L89.25,503.37L88.88,501.95L90.77,498.07L91.05,495.02L90.62,494.56L88.49,494.5L85.47,492.62L84.67,491.71L84.33,489.9L84.67,488.12L83.87,486.14L79.74,480.65L79,476.35L77.61,475.49L74.89,475.97L73.64,474.16L74.68,473.21L75.87,471.02L75.4,469.95L74.24,469.72L72.6,470.43L70.62,472.01L61.77,468.96L59.18,468.98L58.39,468.07L58.08,467.05L56.69,465.58L55.79,466.01L55.59,467.65L53.41,467.92L52.9,462.91L47.03,451.08L47.03,451.08L50.7,450.62L52.75,452.67L55.83,451.13L57.87,450.62L59.41,451.64L65.04,446.78L66.32,442.42L70.42,434.23L71.45,430.9L71.45,425.52L70.93,421.68L74.01,419.89L74.52,416.05L77.16,409.07L77.16,409.07L82.12,410.34L85.94,412.42L88.84,412.33L90.02,413.46L91.48,416.88L91.96,417.38z"/>
		<path id="AZ-BAL" title="Balakən" class="land" d="M218.98,0.33l0.98,0.72l0.73,1.22l1.54,0.94l3.96,0.6l4.73,-0.17l3.31,1.28l0.84,1.05l0.15,8.51l1.48,2.29l1.18,0.86l2.09,0.21l1.03,-0.4l3.74,-2.22l4.55,-2.06l1.88,-0.28l4.15,1.32l0.99,-0.48l0.78,-2.84l0,0l0.93,1.25l0.3,1.15l-0.25,6.48l-1.22,2.74l-5.86,5.97l-2.1,1.15l-2.68,2.36l-1.78,0.91l-5.77,4.46l-1.5,2.85l-0.32,2.67l-1.23,3.86l-2.35,4.19l-8.8,5.48l-5.81,0.37l-2.61,2.63l-5.95,3.46l-1.4,-0.21l-4.77,-2.62l0,0l-0.32,-1.92l0.58,-1.5l-1.03,-2.05l-3.9,-1.69l0.08,-0.26l-2.29,-0.34l-3.75,3.75l-2.41,-2.95l-0.27,-8.3l-1.88,-5.62l-1.88,-9.64l3.48,-4.55l5.89,-2.14l6.62,-1.38l5.76,-5.18l4.94,-2.99l2.93,-3.28l1.42,-2.9l0.66,-2.16L218.98,0.33z"/>
		<path id="AZ-BAR" title="Bərdə" class="land" d="M307.29,303.81L306.99,301.2L306.1,299.07L305.87,297.36L305.89,285.52L306.91,282.05L306.74,280.68L305.69,279.63L302.02,279.11L300.52,278.3L299.39,276.95L296.87,272.08L293.96,269.99L292.6,266.37L291.83,260.87L291.83,260.87L295.45,256.32L297.59,252.21L300.33,248.41L302.44,248.1L304.46,248.47L308.16,251.55L309.25,251.9L314.7,248.11L316.62,245.79L318.74,238.66L318.74,238.66L320.97,242.86L321.75,246.58L322.36,247.51L324.48,249.52L326.77,250.41L328.56,253.06L332.19,255.6L332.62,256.81L332.74,261.74L334.14,264.81L336.22,266.53L339.93,267.3L339.33,270.73L339.77,273.03L344.2,275.38L345.79,278.11L346.12,280.18L346.73,281.1L349.97,281.81L352.26,282.96L352.26,282.96L350.67,285.85L351.04,287.47L352.67,288.48L357.18,288.26L357.94,288.64L357.86,289.42L357.86,289.42L354.29,293.02L352.4,293.97L349.45,296.4L345.51,298.41L341.84,301.67L340.13,302.49L337.59,304.67L334.76,306.16L332.71,306.12L330.27,304.71L327.72,300.5L326.63,299.68L325.67,299.9L325.04,300.83L326.13,303.31L326.13,303.31L318.7,303.79L315.3,302.71L312.55,302.56z"/>
		<path id="AZ-BEY" title="Beyləqan" class="land" d="M378.48,409.98L380.29,406.6L380.52,405.06L380.44,401.82L379.03,398.79L377.47,397.24L372.4,394.13L369.63,391.5L364.55,383.88L360.47,383.33L359.4,382.76L358.35,381.1L357.45,377.39L357.45,377.39L356.03,373.77L353.53,371.92L352.86,370.69L353.61,369.23L356.27,367.59L356.64,366.96L354.98,364.17L355.1,359.93L356.83,358.58L359.27,358.07L360.6,357.36L361.31,356.56L361.85,354.67L362.3,354.23L369.9,354L374.06,351.23L378.84,350.92L381.05,349.47L383.66,344.51L384.01,341.93L384.91,339.62L385.04,334.9L386.02,331.99L386.34,326.15L393.33,311.4L393.33,311.4L397.12,314.14L398.14,315.37L397.76,316.02L394.82,318.08L394.82,318.08L398.2,322.84L401.91,325.14L403.02,326.25L403.78,327.6L405.05,331.94L404.68,333.37L403.05,335.86L395.1,340.68L394.14,341.77L394.11,344.17L394.85,344.99L397.69,346.7L398.41,348.74L397.92,350.74L394.09,354.76L394.09,357.3L395.84,358.74L398.27,359.35L402.12,360.98L404.4,365.04L406.87,368.43L412.26,370.96L414.43,373.01L414.96,374.21L414.73,374.98L413.55,376.21L411.42,377.32L408.72,379.62L403.62,382.56L402.07,384.05L399.53,388.08L399.45,395.64L399.45,395.64L393.92,401.39z"/>
		<path id="AZ-BIL" title="Biləsuvar" class="land" d="M528.96,433.66L523.45,433.46L519.25,431.5L517.16,432.46L515.99,435.71L513,437.59L512.42,438.33L513.09,441.06L513.07,447.98L511.58,450.86L509.79,451.76L506.65,451.46L503.58,448.78L503.18,447.81L502.89,443.03L500.43,438.41L499.17,437.55L496.51,437.56L494.07,438.85L491.48,443.06L488.41,446.05L486.9,446.8L483.62,447.02L482.53,447.47L481.42,448.47L479.85,450.95L477.44,452.16L474.69,452L473.25,450.8L472.78,441.32L472.78,441.32L477.54,440.14L474.68,438.15L470.2,433.64L467.41,431.63L465.63,429.5L453.6,417.79L451.54,415.01L447.63,407.27L444.54,404.92L441.28,401.69L439.16,399.1L435.79,393.83L428.75,387.27L426.81,384.59L421.94,388.42L421.94,388.42L419.64,384.31L419.88,383.34L420.81,382.34L424.08,380.57L425.43,380.4L426.82,380.52L430.6,381.82L434.21,384.06L445.98,395.7L447.73,396.6L450.4,399.03L455.5,402.18L458.04,404.45L463.54,407.3L468.61,407.45L470.19,406.9L475.96,401.41L478.17,397.35L478.17,397.35L481.83,392.65L484.39,390.21L485.5,389.6L486.34,389.58L490.17,391.2L492.64,394.61L494.06,397.31L494.87,398.03L495.88,398.27L500.37,398.38L502.15,397.97L503.21,396.61L504.95,392.21L504.95,392.21L504.95,392.21L504.95,392.21L507.35,392.19L511.03,394.01L529.39,400.08L529.39,400.08L527.88,404.88L527.42,407.54L526.64,409.29L526.43,412.47L525.63,414.22L525.4,415.75L525.86,417.71L528.29,420.37L530.92,424.58z"/>
		<path id="AZ-CAB" title="Cəbrayıl" class="land" d="M332.03,443.06L325.95,446.94L323.71,450.25L314.88,452.45L309,457.1L304.43,461.85L303.87,464.87L302.14,470.2L300.28,473.29L297.62,475.51L295.57,475.63L295.3,477.33L293.51,478.55L289.92,480.64L285.94,476.6L281.13,477.27L279,478.08L279,478.08L278.81,472.94L277.7,470.74L275.17,467.22L273.31,465.71L272.49,464.43L272.49,464.43L270.07,462.12L263.6,458.62L262.46,457.29L261.38,455.09L260.97,447.66L259.45,444.85L257.03,442.86L256.7,441.52L256.94,436.73L259.17,432.91L260.67,432.39L260.67,432.39L264.58,433.07L269.09,435.61L270.53,435.2L273.31,429.94L270.53,423.57L271.86,421.95L273.95,421.91L277.33,424.62L280.11,425.39L281.7,426.39L282.01,426.92L281.36,429.05L281.65,430.31L290.97,436.56L290.56,438.62L290.9,439.35L292.89,439.49L294.41,438.71L297.83,435.78L299.03,435.64L300.8,436.27L302,435.58L302.21,434.46L299.29,428.32L299.77,427.37L301.72,425.96L302.94,423.92L302.94,423.92L308.79,427.54L311.16,428.29L312.66,429.33L315.59,434.75L316.09,436.63L316.8,437.48L317.94,437.71L319.75,437.01L324.54,436.2L329.09,439.15L331,441.18z"/>
		<path id="AZ-CAL" title="Cəlilabab" class="land" d="M476.71,499.69L475.31,496.23L470.19,489.54L468.5,488L467.86,484.64L467.41,484.2L465.89,483.91L464.72,483.02L461.87,482.52L459.54,481.49L458.28,480.26L456.81,476.67L456.89,475.85L454.8,474.15L449.66,471.29L446.59,468.51L446.08,467.4L446.55,465.91L445.94,465.11L445.16,462.34L445.6,459.99L445.45,458.17L445.84,457.53L446.88,457.29L448.24,454.38L449.88,452.6L450.73,452.52L451.81,451.47L453.39,450.97L454.03,449.62L455.5,448.5L456.19,448.28L456.9,448.56L458.85,447.62L460.3,447.83L462.22,447.13L463.04,446.47L463.05,445.61L463.76,445.78L466.49,444.11L468.68,443.27L469.65,442.38L471.06,442.44L472.78,441.32L472.78,441.32L473.25,450.8L474.69,452L477.44,452.16L479.85,450.95L481.42,448.47L482.53,447.47L483.62,447.02L486.9,446.8L488.41,446.05L491.48,443.06L494.07,438.85L496.51,437.56L499.17,437.55L500.43,438.41L502.89,443.03L503.18,447.81L503.58,448.78L506.65,451.46L509.79,451.76L511.58,450.86L513.07,447.98L513.09,441.06L512.42,438.33L513,437.59L515.99,435.71L517.16,432.46L519.25,431.5L523.45,433.46L528.96,433.66L528.96,433.66L528.96,433.66L528.96,433.66L524.74,438.73L522.27,443.44L522.27,443.44L522.26,455.19L527.4,465.21L527.54,474.33L527.54,474.33L525.89,478.14L525.89,478.14L523.18,477.06L520.93,476.93L520.22,477.27L519.91,477.97L520.53,480.29L520.2,480.99L519.31,481.08L517.49,480.27L515.91,480.08L513.73,481.12L513.15,482.14L513.15,483.7L515.17,486.59L516.01,488.39L515.77,489.13L506.23,494.04L503.53,496.68L502.18,499.26L501.53,501.61L499.12,503.9L491.17,505.52L491.17,505.52L487.26,500.84L482.96,498.02L481.38,497.82L478.45,499.36z"/>
		<path id="AZ-CUL" title="Culfa" class="land" d="M157.1,448.64L150.32,458.81L147.25,460.09L144.94,463.42L144.69,471.87L140.33,477.51L138.8,483.4L134.19,489.29L132.39,493.13L132.14,496.46L131.11,500.3L130.09,502.09L132.91,504.14L134.95,504.39L137.52,507.72L138.03,510.8L135.98,512.85L135.47,515.15L133.89,516.73L133.89,516.73L133.02,516.38L128.96,516.18L126.76,515.55L126.33,514.48L125.49,513.72L120.94,512.74L119.21,512L117.39,511.83L113.15,513.52L112.02,513.44L111.65,512.99L111.86,511.68L111.5,511.23L109.44,510.66L107.88,508.96L106.74,508.76L106.27,509.03L106.27,509.03L106.02,503.11L107.81,500.81L108.07,497.74L107.04,494.41L103.71,492.1L101.15,489.03L102.43,484.68L104.74,482.63L104.99,479.3L104.23,476.99L98.85,472.64L98.85,469.82L101.41,469.06L105.51,468.54L106.02,465.98L106.02,462.14L109.09,460.09L109.86,457.79L109.6,454.97L109.6,454.97L109.07,454.97L109.07,454.97L115.24,450.36L118.82,450.36L121.13,448.83L122.92,446.01L125.48,446.01L126.76,447.03L127.27,449.34L129.58,450.87L133.16,447.29L134.95,444.73L135.47,442.17L138.57,440.53L138.57,440.53L139.78,441.21L145.93,441.98L148.69,443.26z"/>
		<path id="AZ-DAS" title="Daşkəsən" class="land" d="M184.32,279.56L177.17,279.99L174.24,280.89L169.45,280.82L163.29,279.33L161.41,278.53L158.36,278.36L151.3,279.73L150.17,281.15L150.17,281.15L145.71,281.53L143.71,281.34L140.97,278.29L140.97,278.29L141.03,275.55L141.59,274.43L142.8,273.38L143.08,272.52L143.36,265.99L145.36,262.15L140,252.58L139.86,245.52L140.94,243.8L144.47,240.48L152.07,236.39L152.07,236.39L153.15,235.29L153.18,234.2L156.91,230.56L158.11,228.46L160.54,225.86L163.4,220.13L165.34,217.21L166.43,216.85L167.59,217L174.17,220.79L174.17,220.79L181.36,225.28L184.11,227.83L185.82,228.7L188.59,231.24L190.23,232.06L190.72,232.8L188.14,236.74L183.7,241.17L182.85,242.84L181.43,244.46L181.16,245.45L183.17,249.1L190.25,256.2L194.88,259.36L195.08,260.98L192.04,266.02L189.13,268.71L187.05,269.79L185.66,271.33L184.44,273.98z"/>
		<path id="AZ-FUZ" title="Füzuli" class="land" d="M341.53,433.26L340.54,434.51L338.88,437.96L336.93,439.94L332.03,443.06L332.03,443.06L331,441.18L329.09,439.15L324.54,436.2L319.75,437.01L317.94,437.71L316.8,437.48L316.09,436.63L315.59,434.75L312.66,429.33L311.16,428.29L308.79,427.54L302.94,423.92L302.94,423.92L304.27,422.49L304.06,419.6L307.99,419.2L308.75,418.67L308.16,416.56L307.9,413.33L307.15,411.1L307.85,409.91L309.67,408.77L309.4,406.79L309.87,404.71L308.62,404.06L306.8,404.42L302.94,407.7L300.58,408.88L299.87,408.91L298.61,408.16L298.07,407.11L298.18,406.13L300.3,403.44L301.37,402.91L304.6,402.68L307.23,401.55L308.78,400.43L309.16,399.16L308.96,398.21L308.05,397.65L306.82,397.92L304.09,399.49L302.09,399.2L300.07,398.02L299.35,397.11L299.09,395.71L299.51,394.51L300.75,394.11L306.84,394.04L314.12,390.5L317.7,386.62L320.21,386.64L324.25,384.89L330.87,384.87L335.1,382.99L337.05,382.59L337.05,382.59L343.11,381.8L347.67,378.93L350.93,378.72L353.2,377.9L357.45,377.39L357.45,377.39L358.35,381.1L359.4,382.76L360.47,383.33L364.55,383.88L369.63,391.5L372.4,394.13L377.47,397.24L379.03,398.79L380.44,401.82L380.52,405.06L380.29,406.6L378.48,409.98L378.48,409.98L375.04,412.35L370.93,415.95L367.5,418.2L359.06,421.29L352.12,424.3L349.32,424.46L346.75,425.36L345.23,428.25z"/>
		<path id="AZ-GA" title="Gəncə" class="land" d="M205.75,206.93L209.41,206.74L211.7,207.9L212.49,208.97L212.69,210.06L211.91,213.66L211.91,213.66L210.75,216.46L207.41,219.52L204.88,222.5L203.42,222.9L200.71,221.3L200.12,219.27L201.01,216.97L201.13,215.35L201.01,213.73L200.3,211.92L200.39,210.91L201.85,209.18z"/>
		<path id="AZ-GAD" title="Gədəbəy" class="land" d="M89.92,203.01l-3.71,1.6l-0.66,0.7l-1.35,4.05l-3.08,3.48l-2.39,4.26l-0.15,1.14l0.23,1.75l1.4,0.84l0.53,0.77l-0.04,3.97l0.61,0.89l1.36,0.79l3.42,-0.45l3.35,2.01l1.77,3.03l-1.6,3.2l-0.11,1.03l0.97,2.05l-1.39,2.57l-0.21,1.54l0.31,1.63l1.03,1.22l5.37,4.17l5.36,0.76l2.8,1.63l1.13,1.7l1.35,3.56l4.57,4.14l6.07,7.75l3.75,0.24l2.43,0.56l8.04,2.84l7.6,3.86l2.3,1.99l0,0l0.06,-2.74l0.55,-1.12l1.21,-1.05l0.28,-0.86l0.28,-6.53l2,-3.85l-5.37,-9.56l-0.14,-7.06l1.09,-1.72l3.52,-3.32l7.6,-4.09l0,0l-0.98,-1.02l-0.14,-0.74l1.13,-1.55l-0.1,-3.78l-0.84,-2.31l1.34,-3.35l-0.07,-0.9l-4.07,-3.44l-0.99,-2.66l-0.71,-0.9l-6.35,-3.78l-4.46,-6.52l-1.36,-2.66l-0.58,-4.6l-1.18,-1.3l-2.23,-1.42l-3.38,-5.25l0,0l-0.74,4.18l-0.99,2.82l0.01,6.48l1,3.42l-1.01,3.39l-0.12,13.65l-1.99,4.09l-1.11,1.09l-1.34,0.65l-1.95,-0.73l-3.14,-3.3l-3.12,-0.59l-0.83,-0.71l-0.76,-1.79l0.84,-2.27l0.11,-2.16l-0.23,-1l-0.72,-0.83l-5.84,-3.07l-6.57,-0.38l-1.56,-0.7l-0.67,-1.56l-0.23,-6.54l-1.34,-2.64l-1.4,-1.55L89.92,203.01zM101.34,220.46l-1.46,2.29l-3.56,-0.06l-3.11,-2.92l-0.7,-2.8l1.91,-2.99l1.59,-0.64l3.24,1.91l2.67,3.11L101.34,220.46z"/>
		<path id="AZ-GOR" title="Goranboy" class="land" d="M227.99,216.53l1.93,3.86l0.12,2.73l-1.02,2.8l0.01,6.62l0.65,1.55l1.86,1.4l0,1.23l-0.73,1.7l-2.46,2.6l-1.29,2.18l-10.99,10.75l-3.17,6.16l-6.03,6.2l-0.29,5.93l-1,2.72l0.15,10.02l0,0l5.97,3.27l6.63,0.14l2.75,-1.14l8.39,-4.68l4.89,-3.97l0,0l0.33,-2.81l1.56,-1.68l4.01,-1.02l3.07,-2.32l2.27,-0.64l4.36,-2.11l3.19,-2.52l3.92,-2.33l11.43,-0.1l2.66,-1.19l7.64,-5.72l1.81,-0.98l1.9,-2.72l1.7,-1.76l1.64,-0.95l0,0l1.21,-0.57l1.35,0.03l0.93,-0.65l0.25,-1.99l0.72,-1.14l0.62,-4.55l-1.15,-0.44l-1.65,-0.01l-3.97,1l-1.31,-0.42l-0.74,-0.87l-1.82,-5.43l0.07,-1.59l0.93,-2.32l0.14,-4.76l-0.3,-2.13l-0.93,-1.14l-3.48,-2.24l-2,-0.26l-1.62,0.56l-5.23,3.5l-1.78,-0.13l-0.35,-1.34l0.26,-3.8l2.52,-3.74l2.34,-2.52l2.28,-3.64l-0.36,-0.66l-3.49,-2.3l-5.66,-0.77l-2.44,-1.39l-0.85,-1.27l0.08,-4.86l2.92,-5.66l0.2,-1.12l-0.01,-10.87l-0.99,-3l-0.1,-4.81l1.66,-7.14l0,0l-3.78,3.64l-1.93,2.89l-4.13,4.09l-1.16,2.08l-4.42,4.45l-2.14,3.16l-3.51,3.36l-2.07,1.07l-2.4,2.15l-2.1,1.07l-1.29,1.21l-0.18,0.84l1.36,3.37l-1.35,2.31l-4.31,2.33l-2.43,2.33l-0.6,3.54l-1.4,2.94l-0.36,2.63L227.99,216.53zM269.64,258.31l-1.84,1.35l-3.56,-0.49l-1.72,-1.84l-0.12,-2.45l0.98,-1.96l3.07,-0.98l3.19,1.23l0.61,3.19L269.64,258.31z"/>
		<path id="AZ-GOY" title="Göyçay" class="land" d="M427.06,256.38L423.58,254.54L420.73,255.38L415.25,255.09L400.06,247.29L397.69,247.59L395.5,250.88L394.07,251.3L389.37,248.8L386.67,246.49L383.86,244.87L382.31,244.79L379.37,246.6L377.94,246.67L376.61,244.58L373.51,242.99L373.37,241.89L373.37,241.89L374.12,233.53L375.5,230.93L378,228.01L373.67,222.12L373.67,222.12L380.71,218.34L388.96,218.21L392.68,215.96L392.68,215.96L399.49,217.64L405.23,220.65L406.18,220.67L409.69,218.99L410.64,219L415.27,220.86L418.43,221.38L426.42,224.42L429.59,224.92L432.43,226.5L433.79,227.87L434.84,230.34L432.82,234.63L430.97,236.96L429.72,239.66L429.94,242.4L431.63,244.05L431.63,244.05L432.93,249.04L432.79,253.39L431.52,256.44L430.04,256.71z"/>
		<path id="AZ-GYG" title="Göygöl" class="land" d="M184.32,279.56L184.44,273.98L185.66,271.33L187.05,269.79L189.13,268.71L192.04,266.02L195.08,260.98L194.88,259.36L190.25,256.2L183.17,249.1L181.16,245.45L181.43,244.46L182.85,242.84L183.7,241.17L188.14,236.74L190.72,232.8L190.23,232.06L188.59,231.24L185.82,228.7L184.11,227.83L181.36,225.28L174.17,220.79L174.17,220.79L177.15,218.65L179.5,216.23L188.84,216.16L190.16,215.8L191.63,214.6L193.25,211.28L193.56,206.44L195.48,202.42L195.8,196.53L197.61,194.15L200.38,188.52L200.38,188.52L204.26,195.6L204.61,198.23L205.51,200.56L205.75,206.93L205.75,206.93L201.85,209.18L200.39,210.91L200.3,211.92L201.01,213.73L201.13,215.35L201.01,216.97L200.12,219.27L200.71,221.3L203.42,222.9L204.88,222.5L207.41,219.52L210.75,216.46L211.91,213.66L211.91,213.66L214.54,215.01L218.35,215.99L222.61,216.08L225.07,215.46L225.94,214.78L225.94,214.78L227.99,216.53L229.92,220.39L230.04,223.11L229.02,225.91L229.03,232.53L229.68,234.09L231.54,235.48L231.54,236.71L230.8,238.41L228.34,241.01L227.06,243.19L216.07,253.94L212.9,260.1L206.87,266.3L206.58,272.23L205.58,274.95L205.73,284.97L205.73,284.97L199.48,283.55L197.08,282.6L188.33,282.23L187.28,281.82z"/>
		<path id="AZ-HAC" title="Hacıqabul" class="land" d="M551.12,347.31L551.25,344.14L553.13,341.58L553.14,340.65L550.46,337.56L548.42,333.81L547.58,333.45L545.39,334.24L544.47,335.86L544.6,337L546.5,340.69L546.36,346.03L546.36,346.03L541.52,343.21L540.99,339.8L540.48,338.68L539.26,337.48L536.92,336.09L534.18,332.74L532.08,331.58L519.99,328.7L516.15,327.05L514.49,324.36L513.39,321.67L515.23,317.77L516.21,314.42L516.09,313.82L515.31,313.1L512.23,312.08L505.93,308.98L488.5,308.82L488.5,308.82L488.74,303.08L489.74,300.22L489.81,296.62L488.81,293.63L488.6,287.13L487.8,285.69L486.19,284.58L486.19,284.58L488.57,278.81L488.96,276.7L490.63,275.45L490.63,275.45L493.06,276.65L499.66,277.18L503.08,279.83L508.93,281.97L514.21,285.62L517.15,286.97L518.2,286.59L520.7,284.48L522.56,283.52L525.03,281.15L526.74,273.14L526.74,273.14L529.15,275.66L530.54,276.4L536.16,276.58L540.43,275.94L540.43,275.94L541.55,283.45L545.24,286.23L545.24,286.23L546.61,286.92L546.61,286.92L550.32,290.42L551.63,292.68L551.63,292.68L551.97,293.1L551.97,293.1L556.24,297.55L558.29,301.58L561.06,305.25L562.83,305.74L568.38,305.94L568.38,305.94L570.68,306.91L570.68,306.91L581.78,307.35L581.78,307.35L582.52,307.66L582.52,307.66L582.52,307.66L582.52,307.66L583.64,308.54L583.64,308.54L583.64,308.54L583.64,308.54L585.08,310.9L585.08,310.9L586.59,312.91L586.59,312.91L586.59,312.91L586.59,312.91L586.8,317.76L586.8,317.76L587,319.32L587,319.32L587,319.32L587,319.32L588.37,321.96L588.37,321.96L588.37,321.96L588.37,321.96L590.49,324.24L590.49,324.24L592.17,327.27L592.17,327.27L592.44,332.08L593.17,333.46L593.17,333.46L595.89,336.38L598.75,340.59L599.75,341.5L601.05,344.95L601.49,348.08L602.85,350.71L606.63,356.01L607.33,364.76L607.33,364.76L603,360.89L600.07,358.98L598.32,357.06L597.31,355.17L595.51,353.78L594.68,353.72L590.64,355.51L588.5,355.46L586.68,354.63L585.11,354.39L580.66,355.31L574.9,353.16L569.96,352.77L566.71,350.92L562.8,347.93L559.51,346.23L555.01,346.08L551.88,347.59z"/>
		<path id="AZ-IMI" title="İmişli" class="land" d="M399.45,395.64L399.53,388.08L402.07,384.05L403.62,382.56L408.72,379.62L411.42,377.32L413.55,376.21L414.73,374.98L414.96,374.21L414.43,373.01L412.26,370.96L406.87,368.43L404.4,365.04L402.12,360.98L398.27,359.35L395.84,358.74L394.09,357.3L394.09,354.76L397.92,350.74L398.41,348.74L397.69,346.7L394.85,344.99L394.11,344.17L394.14,341.77L395.1,340.68L403.05,335.86L404.68,333.37L405.05,331.94L403.78,327.6L403.02,326.25L401.91,325.14L398.2,322.84L394.82,318.08L394.82,318.08L404.52,318.71L406.05,317.75L407.69,314.65L407.69,314.65L407.69,314.65L407.69,314.65L409.23,318.16L409.72,321.04L411.3,323.12L413.39,323.31L417.35,321.66L423.44,324.32L424.45,323.45L425.01,322L423.36,318.25L423.41,317.4L428.06,316.67L428.73,313.92L429.98,311.38L431.33,310.08L432.88,309.74L435.59,311.35L436.66,314.25L437.51,315.55L439.91,316.6L441.45,317.74L442.15,320.46L443.07,321.6L446.92,323.95L452.38,323.88L456.25,326.35L460.04,330.4L461.02,336.01L461.02,336.01L457.88,341.81L460.62,345.23L461.74,347.46L461.86,348.97L456.53,359.36L456.53,362.45L457.87,366.2L458.93,368.3L459.87,369.33L463.11,371.21L470.6,372.94L471.49,373.65L473.73,376.76L474.18,378.73L473.08,382.54L473.14,391.68L476.54,394.78L478.17,397.35L478.17,397.35L475.96,401.41L470.19,406.9L468.61,407.45L463.54,407.3L458.04,404.45L455.5,402.18L450.4,399.03L447.73,396.6L445.98,395.7L434.21,384.06L430.6,381.82L426.82,380.52L425.43,380.4L424.08,380.57L420.81,382.34L419.88,383.34L419.64,384.31L421.94,388.42L421.94,388.42L418.65,390.34L416.43,390.83L414.78,391.67L406.31,390.99L402.64,392.5z"/>
		<path id="AZ-ISM" title="İsmayıllı" class="land" d="M488.97,195.31L485.22,207.03L483.09,210.5L480.64,211.91L477.95,214.24L471.08,218.55L460.76,223.62L460.06,224.49L459.12,227.47L457.82,228.29L454.4,229.5L448.27,235.4L447.58,236.72L447.29,240.49L446.19,241.82L445.05,242.43L444.15,242.39L442.36,240.69L442.36,240.69L438.08,242.32L436.29,243.49L431.63,244.05L431.63,244.05L429.94,242.4L429.72,239.66L430.97,236.96L432.82,234.63L434.84,230.34L433.79,227.87L432.43,226.5L429.59,224.92L426.42,224.42L418.43,221.38L415.27,220.86L410.64,219L409.69,218.99L406.18,220.67L405.23,220.65L399.49,217.64L392.68,215.96L392.68,215.96L394.65,212.51L396.89,211.15L398.09,209.9L402.15,201.72L403.27,200.15L416.98,192.47L417.44,190.72L417.43,185.15L417.86,183.95L420.67,183.34L422.83,182.29L425.07,180.28L426.3,177.56L426.17,174.91L424.78,171.13L421,165.73L420.86,164.19L422.07,160.31L423.46,158.83L424.47,158.71L425.92,160.17L427.03,159.46L428.83,152.74L432.14,148.39L432.14,148.39L435.2,149.34L440.78,149.8L445.19,152.56L450.25,154.46L462.14,160.96L463.68,161.1L466.5,160.22L469.34,161.2L471.98,161.6L477.4,164.6L478.59,166.05L479.47,168.39L479.47,168.39L481.02,171.45L482.64,173.28L492.56,180.28L494.19,183.03L494.18,185.07z"/>
		<path id="AZ-KAL" title="Kəlbəcər" class="land" d="M255.96,329.4L251.41,330.65L247.94,330.94L246.93,331.45L245.88,332.45L243.87,336.58L238.67,339.6L237.47,339.56L236.12,337.67L234.65,336.38L230.6,334.98L229.64,335.42L227.16,338.46L223.33,339.71L223.33,339.71L219.16,341.13L213.23,344.04L206.71,344.31L198.05,348.96L194.27,350.18L189.38,350.39L187.07,351.23L183.81,351.36L181.99,352.09L179.35,352.36L173.08,354.07L171.88,353.87L170.78,353.01L169.12,350.3L167.13,348.27L165.88,347.63L164.93,347.65L164.37,348.19L162.67,355.54L159.33,358.79L156.56,360.42L150.82,365.54L150.82,365.54L143.23,362.92L141.52,361.51L138.85,348.75L138.79,345.6L138.13,344.38L136.07,343.3L133.87,342.8L130.1,342.58L126.41,339.51L119.32,337.31L115.33,336.97L113.63,335.16L113.15,334.11L113.1,332.52L108.05,332.53L110.75,328.47L115.36,325.71L117.92,325.49L130.1,326.76L132.07,327.65L135.84,331.17L138.43,332.36L139.77,332.09L144.78,328.34L145.65,328.05L147.29,328.31L148.06,327.86L148.51,327.29L150.11,319.99L149.84,315.46L150.23,314.45L151.42,313.31L155.03,311.43L156.71,309.49L157.81,307.48L159.18,298.27L160.73,295.88L160.48,294.97L158.31,292.01L156.93,290.81L152.72,289.44L151.88,288.81L151.44,287.81L151.77,286.52L153.3,286.54L156.41,287.83L157.83,286.86L153.39,282.04L152.2,281.25L150.17,281.15L150.17,281.15L151.3,279.73L158.36,278.36L161.41,278.53L163.29,279.33L169.45,280.82L174.24,280.89L177.17,279.99L184.32,279.56L184.32,279.56L184.32,279.56L184.32,279.56L187.28,281.82L188.33,282.23L197.08,282.6L199.48,283.55L205.73,284.97L205.73,284.97L211.71,288.24L218.33,288.38L221.08,287.25L229.47,282.57L234.37,278.6L234.37,278.6L233.16,284.16L230.52,286.4L230.05,288.79L230.15,296.89L232.07,300.92L232.39,304.64L233.72,309.37L235.5,309.51L238.48,307.1L241.81,305.49L243.95,305.54L249.11,307.15L250.98,309.69L255.85,314.66L259.49,317.44L259.9,318.42L259.3,321.06L261.66,323.26L264.37,326.85L264.37,326.85L260.69,327.66L257.43,327.77z"/>
		<path id="AZ-KAN" title="Kǝngǝrli" class="land" d="M77.16,409.07L74.52,416.05L74.01,419.89L70.93,421.68L71.45,425.52L71.45,430.9L70.42,434.23L66.32,442.42L65.04,446.78L59.41,451.64L57.87,450.62L55.83,451.13L52.75,452.67L50.7,450.62L47.03,451.08L47.03,451.08L46.87,450.75L45.07,452.15L44.56,450.11L37.95,441.81L37.95,441.81L38.67,438.58L41.23,435.25L45.58,431.92L50.45,429.11L55.57,425.27L58.64,418.61L60.44,413.23L61.2,407.34L65.3,403.24L71.91,401.22L71.91,401.22L75.07,406.69L75.39,407.88z"/>
		<path id="AZ-KUR" title="Kürdəmir" class="land" d="M407.69,314.65L410.37,312.75L413.41,312.26L414.93,311.5L416.86,309.57L417.88,307.74L420.48,304.78L420.61,298.88L419.84,297.08L418.48,291.02L418.54,282.29L419.35,278.58L419.35,278.58L422.54,275.53L426.09,268.65L426.35,260.48L427.06,256.38L427.06,256.38L430.04,256.71L431.52,256.44L432.79,253.39L432.93,249.04L431.63,244.05L431.63,244.05L436.29,243.49L438.08,242.32L442.36,240.69L442.36,240.69L440.59,246.92L438.65,251.98L438.56,255.25L439.21,256.83L443.58,259.04L447.94,257.48L448.35,257.82L449.21,260.97L450.67,262.27L451.94,262.63L453.45,262.06L455.76,258.99L458.84,256.48L460.97,256.25L469.14,256.67L470.59,258.39L471.94,261.5L471.81,263.01L471.15,264.3L470.76,266.91L469.94,269.15L471.1,271.72L472.59,272.89L476.46,273.16L478,273.84L479.59,276.56L480.03,278.6L481.52,281.48L483.29,283.11L486.19,284.58L486.19,284.58L487.8,285.69L488.6,287.13L488.81,293.63L489.81,296.62L489.74,300.22L488.74,303.08L488.5,308.82L488.5,308.82L485.31,310.39L483.02,311.05L480.19,315.33L473.39,319.44L470.94,325.17L471.09,326.7L471.71,327.99L471.51,329.1L470.66,329.78L466.04,331.48L461.02,336.01L461.02,336.01L460.04,330.4L456.25,326.35L452.38,323.88L446.92,323.95L443.07,321.6L442.15,320.46L441.45,317.74L439.91,316.6L437.51,315.55L436.66,314.25L435.59,311.35L432.88,309.74L431.33,310.08L429.98,311.38L428.73,313.92L428.06,316.67L423.41,317.4L423.36,318.25L425.01,322L424.45,323.45L423.44,324.32L417.35,321.66L413.39,323.31L411.3,323.12L409.72,321.04L409.23,318.16z"/>
		<path id="AZ-LA" title="Lənkəran City" class="land" d="M537.46,550.56L538.01,553.02L540.74,554.66L543.06,554.11L544.43,552.34L543.88,549.75L542.24,548.11L539.65,548.38z"/>
		<path id="AZ-LAC" title="Laçın" class="land" d="M223.33,339.71L221.16,346.1L221.31,348.14L222.05,348.96L224.88,350.62L228.72,354.48L233.15,363.33L234.26,366.63L235.15,374.08L235.15,374.08L235.64,376.75L236.61,379.15L236.82,383.46L237.38,385.15L236.51,387.21L234.66,389.52L233.42,392.17L233.31,397.06L233.75,398.9L235.22,399.88L237.28,399.41L239.07,399.75L240.53,401L242.16,403.32L245.05,404.7L246.48,403.68L247.61,401.62L248.06,399.61L249.11,397.41L250.42,395.62L254.01,394.27L257.89,394.3L259.12,394.75L259.98,395.97L260.95,402.96L260.95,402.96L258.58,403.91L253.97,404.13L252.44,404.9L251.53,405.89L251.22,407.14L251.48,407.96L253.81,409.54L254.41,410.57L254.49,415.92L253.88,417.02L248.4,420.94L248.4,420.94L246.66,421.43L240.2,427.45L238.31,428.54L232.25,428.35L226.62,424.37L226.62,424.37L227.84,422.19L229.63,420.9L230.83,421.4L231.67,422.75L234.05,423.34L235.11,423.97L236.32,423.81L235.38,422.11L231.15,418.02L230.52,416.22L230.86,414.83L234.33,412.92L235.72,410.87L237.02,410.35L239.15,410.6L239.52,410.34L238.14,406.64L236.31,405.59L234.81,403.73L232.89,403.2L227,404.06L225.44,405.38L223.52,404.73L222.87,405.55L221.82,405.7L220.54,404.69L220.01,402.7L220.45,397.58L219.83,397.11L218.54,397.16L217.43,398.8L216.45,399.26L215.28,397.69L214.11,397.23L213.13,394.9L212.39,394.45L209.98,394.73L206.95,395.64L198.23,400.4L196.44,400.6L192.69,399.69L191.11,400.07L190.21,400.65L188.79,403.88L188.06,404.09L186.98,403.1L187.41,400.92L186.55,399.26L186.93,396.88L185.92,394.29L181.09,390.87L177.72,387.62L177.15,387.35L174.35,387.71L172.77,386.49L172.23,385.51L173.74,384.18L173.35,383.11L169.08,380.52L168.07,377.85L164.91,374.9L164.13,373.42L163.74,371.21L163.21,370.53L156.04,367.95L150.82,365.54L150.82,365.54L156.56,360.42L159.33,358.79L162.67,355.54L164.37,348.19L164.93,347.65L165.88,347.63L167.13,348.27L169.12,350.3L170.78,353.01L171.88,353.87L173.08,354.07L179.35,352.36L181.99,352.09L183.81,351.36L187.07,351.23L189.38,350.39L194.27,350.18L198.05,348.96L206.71,344.31L213.23,344.04L219.16,341.13z"/>
		<path id="AZ-LAN" title="Lənkəran" class="land" d="M543.2,539.92l-4.1,-6.96l-0.68,-3.28l0.45,-7.84l0.41,-1.42l-2.23,-0.06l0,0l-2.07,0.66l-2.84,4.19l-3.58,0.84l-3.57,2.11l-2.84,2.25l-5.74,2.08l-2.71,-1.33l-7.25,-5.58l0,0l-4.34,8.17l0,1.98l2.22,4.37l1.13,1.32l10.24,6.11l2.02,4.66l1.82,2.36l0.19,2.05l-0.9,2.25l0.01,1.41l0.72,0.79l2.82,1.67l2.52,3.66l-4.62,7.38l0,0l3.29,1.09l5.6,0.13l6.26,-2.79l7.2,-2.14l0,0l4.51,-1.03l0,0l0.82,0.82l0,0l0.14,-2.59l-1.09,-4.1l-1.37,-9.56l-0.27,-4.5L543.2,539.92zM543.06,554.11l-2.32,0.55l-2.73,-1.64l-0.55,-2.46l2.18,-2.18l2.59,-0.27l1.64,1.64l0.55,2.59L543.06,554.11zM540.94,480.79l3.08,-5.25l15.85,-15.08l1.91,-2.62l1,-0.51l1.04,0.01l1.09,0.5l1.35,1.36l4.03,8.21l1.14,1.52l1.32,0.41l4.43,0.22l1.09,0.51l2.35,2.05l2.81,1.57l4.96,0.27l2.21,1.05l0.38,1.09l-0.68,3.7l-0.71,1.88l-1.18,1.34l-0.68,2.5l0.31,3.03l-0.27,1.55l0,0l-0.96,3.93l-0.95,-0.58l0.18,-1.82l-3.02,-3.89l0.41,-2.27l-2.49,2.65l-2.17,0.59l-2.56,1.38l-2.76,-0.79l-0.42,-3.06l-0.32,-0.34l1.02,-3.06l-1.3,-0.7l0.93,-1.35l-0.39,-1.22l-0.87,-0.45l-1.65,0.52l-0.9,-0.13l-0.78,-1.33l0.49,-1.76l1.01,-0.03l-0.16,-1.52l-4.66,1.45l-2.71,1.48l-1.23,2.46h-3.2l-5.17,5.17l-2.1,1.18l0.77,1.61l-0.52,0.72l-0.65,3.63l-1.27,1.4l1.82,1.06l0.73,0.95l1.21,4.73l-0.22,3.58l0.36,2.47l-1.61,3.61l2.47,3.36l-0.25,3.69l-0.98,3.94l-2.71,1.72l0.25,3.45l-1.23,3.44l-1.97,2.21l-2.71,0.25l-2.71,-0.49l0.74,-3.45l1.97,-1.23l0.49,-1.97v-3.45l3.94,-5.41l0.36,-1.78l-0.76,-5.71l0,0l-1.56,-2.01l0,0l-1.51,-3.09l0,0l0.04,-3.17l0.78,-1.73l-0.23,-1.36l0,0l-3,-3.03l-2.03,-1.23l0,0l0,0l0,0l-0.94,-1.1l0,0l0,0l0,0l-0.26,-4.66L540.94,480.79zM586.29,498.08l1.66,-1.19l0,0l-0.69,6.51l-5.08,5.32l-0.4,2.34l1.37,1.05l1.01,4.28l0,0l-12.13,1.77l-2.18,-0.64l-1.37,-2.5l0.4,-1.21l2.1,-1.61h2.66l1.69,-1.45l5.4,-5.48l4.19,-5L586.29,498.08z"/>
		<path id="AZ-LER" title="Lerik" class="land" d="M520.29,573.74L515.09,576.59L512.46,575.84L510.91,575.91L504.56,579.47L503.22,580.99L502.79,585.13L501.32,587.55L500.32,588.41L500.32,588.41L498.75,586.25L496.27,584.28L494.58,579.46L490.76,578.64L489.99,577.87L488.99,575.52L488.95,570.7L487.42,569.31L485.19,568.72L481.41,570.44L478.64,570.65L475.53,571.76L473.82,571.65L469.75,570.42L468.11,567.88L467.77,565.58L466.91,563.81L462.82,561.65L461.75,560.31L461.26,555.93L462.19,553.49L460.89,550.05L460.89,550.05L462.24,546.67L464.21,545.35L464.87,544.49L465.35,539.41L467.83,536.63L470.26,533.09L474.93,530.58L479.13,526.25L497.43,516.13L500.4,513.28L500.4,513.28L504.86,518.32L506.21,520.92L506.45,525.57L506.45,525.57L502.11,533.74L502.11,535.71L504.33,540.08L505.47,541.4L515.71,547.51L517.73,552.17L519.55,554.53L519.74,556.58L518.83,558.82L518.85,560.23L519.57,561.03L522.38,562.7L524.9,566.36z"/>
		<path id="AZ-MAS" title="Masallı" class="land" d="M548.8,511.06L543.3,511.5L541.33,513.47L541.09,515.93L539.61,518.39L539.41,520.42L537.05,520.36L537.05,520.36L534.98,521.02L532.14,525.21L528.55,526.04L524.99,528.15L522.14,530.41L516.41,532.48L513.7,531.15L506.45,525.57L506.45,525.57L506.21,520.92L504.86,518.32L500.4,513.28L500.4,513.28L497.57,511.42L494.63,512.91L493.07,512.94L492.35,512.59L490.86,509.04L491.17,505.52L491.17,505.52L499.12,503.9L501.53,501.61L502.18,499.26L503.53,496.68L506.23,494.04L515.77,489.13L516.01,488.39L515.17,486.59L513.15,483.7L513.15,482.14L513.73,481.12L515.91,480.08L517.49,480.27L519.31,481.08L520.2,480.99L520.53,480.29L519.91,477.97L520.22,477.27L520.93,476.93L523.18,477.06L525.89,478.14L525.89,478.14L527.73,480.34L527.73,480.34L529.28,481.31L532.04,481.43L534.91,480.53L536.58,480.45L536.58,480.45L540.94,480.79L539.85,487.55L540.12,492.21L540.12,492.21L540.12,492.21L540.12,492.21L541.06,493.31L541.06,493.31L541.06,493.31L541.06,493.31L543.09,494.55L546.09,497.58L546.09,497.58L546.32,498.93L545.54,500.66L545.5,503.83L545.5,503.83L547,506.92L547,506.92L548.56,508.93L548.56,508.93z"/>
		<path id="AZ-MI" title="Mingəçevir" class="land" d="M293.76,199.44L294.72,199.46L294.72,199.46L297.92,197.9L299.08,197.87L300.22,199.08L300.92,199.26L300.92,200.93L301.87,201.81L302.32,202.89L302.32,202.89L300.84,205.71L300.84,205.71L298.06,207.31L294.69,208.34L293.15,208.44L287.98,205.73L284.97,201.6L284.96,200.65L284.96,200.65L287.06,196.84L287.06,196.84L288.27,196.64L288.27,196.64z"/>
		<path id="AZ-NA" title="Naftalan City" class="land" d="M262.41,254.88L262.53,257.33L264.25,259.17L267.8,259.66L269.64,258.31L270.26,256.35L269.64,253.16L266.45,251.94L263.39,252.92z"/>
		<path id="AZ-NEF" title="Neftçala" class="land" d="M584.2,516.38l-0.04,0.01l0,0l-1.01,-4.28l-1.37,-1.05l0.4,-2.34l5.08,-5.32l0.69,-6.51l0,0l1.56,0.95l0.4,9.11l-0.97,2.98l-0.64,4.27l-1.21,1.45L584.2,516.38zM561.3,420.13l1.35,-1.31l0.61,-1.21l0.06,-3.77l-4.37,-3.76l-1.29,-2.57l-0.32,-5.46l6.75,0.96l2.39,6.95l0.34,-0.07l0,0l1.13,0.6l3.81,5.38l0,0l0.86,1.66l2.03,1.76l0,0l4.37,2.27l3.17,0.54l0,0l1.25,0.62l1.02,-0.36l0,0l1.76,-1.97l2.82,-1.46l0,0l3.86,-1.12l0,0l2.67,-0.25l1.53,-0.73l-0.11,3.92l0.73,2.16l2.39,4.26l9.93,9.91l1.04,0.83l1.06,0.28l1,-0.34l0.4,0.3l-0.36,0.49l0.2,0.36l1.11,-0.18l-0.03,1.72l-1.61,3.28l-0.12,0.96l0.88,1.41l1.18,3.35l1.77,1.58l0.98,2.76l2.76,3.15v3.35l-2.56,0.59l-6.1,-0.79l-1.18,-0.98l-4.13,-5.71l-2.17,-0.99l-2.56,-2.36l-2.27,0.57l-2.84,2.38l-1.18,3.54l0.59,4.53l-1.32,2.42l-0.45,6.24l0.2,5.51l-1.77,9.84l-1.58,4.72l-0.39,4.73l-3.69,-0.94l0.88,-3.59l0,0l0.27,-1.55l0,0l0,0l0,0l-0.31,-3.03l0.68,-2.5l1.18,-1.34l0.71,-1.88l0.68,-3.7l-0.38,-1.09l-2.21,-1.05l-4.96,-0.27l-2.81,-1.57l-2.35,-2.05l-1.09,-0.51l-4.43,-0.22l-1.32,-0.41l-1.14,-1.52l-4.03,-8.21l-1.35,-1.36l-1.09,-0.5l-1.04,-0.01l-1,0.51l-1.91,2.62l-15.85,15.08l-3.08,5.25l0,0l-4.36,-0.34l0,0l-1.67,0.08l-2.87,0.9l-2.76,-0.13l-1.55,-0.96l0,0l-1.84,-2.2l1.66,-3.81l0,0l-0.14,-9.11l-5.14,-10.02l0.01,-11.75l0,0l2.46,-4.71l4.23,-5.07l4.32,3.21l0,0l2.71,1.89l0,0l3.6,3.47l1.32,0.67l0,0l1.46,1.11l0,0l1.08,0.65l1.42,0.15l0,0l0.38,-0.1l0,0l4.12,-3.49l0,0l1.91,-1.3l1.97,-0.32l0,0l0.92,-0.58l0.15,-3.06l0,0l-1.02,-2.8l0.05,-4.84l2.4,-4.66l0.76,-0.83l0,0L561.3,420.13z"/>
		<path id="AZ-NV" title="Naxçıvan" class="land" d="M87.07,461.89L90.4,463.17L91.68,465.73L91.68,468.54L89.63,470.59L86.81,471.62L82.97,469.57L81.18,466.75L82.2,464.7L83.99,462.91z"/>
		<path id="AZ-OGU" title="Oğuz" class="land" d="M344.86,110.94L349.39,112.86L350.51,112.96L354.3,112.01L356.48,113.17L359.08,112.55L359.91,112.84L361.57,114.62L361.35,117.93L362.01,118.93L366.7,123.21L367.5,123.37L373.09,121.64L374.83,120.58L376.98,118.09L378.4,117.81L379.27,118.06L381.01,119.88L381.87,120.29L383.38,120.5L386.21,120.06L387.96,120.81L387.96,120.81L387.37,129.85L388.41,134.5L386.34,138.98L386.17,144.48L383.55,149.79L381.31,153.07L378.64,156.11L378.44,159.33L379.47,162.19L379.48,164.33L377.11,169.23L375.27,171.58L374.18,173.78L372.74,180.83L370.7,187.52L370.63,190.83L371.19,195L371.19,195L366.31,191.69L353.97,185.27L350.36,182.97L344.05,176.29L341.85,171.79L341.41,166.98L340.01,166.39L337.68,167.25L336.48,166.91L336.08,165.14L336.92,162.81L336.71,161.66L332.59,159.02L331.73,157.75L331.61,155.02L332.62,152.2L332.94,148.45L340.32,133.96L340.78,131.93L342.57,128.45L342.96,116.02z"/>
		<path id="AZ-ORD" title="Ordubad" class="land" d="M133.89,516.73L135.47,515.15L135.98,512.85L138.03,510.8L137.52,507.72L134.95,504.39L132.91,504.14L130.09,502.09L131.11,500.3L132.14,496.46L132.39,493.13L134.19,489.29L138.8,483.4L140.33,477.51L144.69,471.87L144.94,463.42L147.25,460.09L150.32,458.81L157.1,448.64L157.1,448.64L163.74,452.71L163.74,459.43L163.16,460.91L163.3,466.68L163.74,468.58L163.74,471.56L165.57,473.43L164.95,477.21L167.5,480.64L167.14,484.87L168.36,488.21L173.23,491.51L174.89,496.8L177.09,499.25L177.23,503.86L178.81,509.76L183.68,522.46L181.82,531.04L180.05,530.09L177.5,527.27L175.01,526.38L173.71,525.5L172.05,523.2L171.24,523.29L170.96,524.94L170.31,525.71L168.55,525.94L163.74,525.27L156.64,522.31L155.8,522.64L153.3,525.14L152.54,525.43L146.25,522.88L145.48,522.17L144.79,520.45L144.05,519.93L142.75,519.76L140.13,520.62L136.26,517.66z"/>
		<path id="AZ-QAB" title="Qəbələ" class="land" d="M392.68,215.96L388.96,218.21L380.71,218.34L373.67,222.12L373.67,222.12L372.21,220.76L367.74,218.45L366.36,217.17L366.12,205.74L365.34,200.94L365.34,200.94L366.13,199.63L366.89,199.17L368.27,199.28L370.1,200.15L371.34,199.86L371.73,198.3L371.19,195L371.19,195L370.63,190.83L370.7,187.52L372.74,180.83L374.18,173.78L375.27,171.58L377.11,169.23L379.48,164.33L379.47,162.19L378.44,159.33L378.64,156.11L381.31,153.07L383.55,149.79L386.17,144.48L386.34,138.98L388.41,134.5L387.37,129.85L387.96,120.81L387.96,120.81L391.02,124.91L392.48,125.96L395.42,126.41L397.27,126.24L398.15,125.73L400.3,122.61L401.87,121.53L401.87,121.53L404.3,127.41L405.4,128.55L407.52,129.74L410.74,130.26L412.73,131.1L418.32,131.86L418.32,131.86L416.74,135.48L418.19,138.66L423.64,144.15L424.74,144.67L428.79,145.31L432.14,148.39L432.14,148.39L428.83,152.74L427.03,159.46L425.92,160.17L424.47,158.71L423.46,158.83L422.07,160.31L420.86,164.19L421,165.73L424.78,171.13L426.17,174.91L426.3,177.56L425.07,180.28L422.83,182.29L420.67,183.34L417.86,183.95L417.43,185.15L417.44,190.72L416.98,192.47L403.27,200.15L402.15,201.72L398.09,209.9L396.89,211.15L394.65,212.51z"/>
		<path id="AZ-QAX" title="Qax" class="land" d="M248.95,143.39L249.11,142.91L249.11,142.91L248.08,140.63L248.08,140.63L249.72,137.1L249.46,131.86L249.89,130.49L250.75,130.04L250.75,127.98L251.24,127.54L250.1,125.36L249.82,123.63L252.13,120.48L252.63,119.18L254.94,116.84L255.07,113.28L257.15,110.61L259.06,109.25L259.02,108.49L258.3,107.53L254.84,107.13L254.96,105.86L253.56,104.11L253.86,103.03L253.35,101.65L253.81,101.21L253.65,100.75L250.74,100.77L250.79,98.78L249.35,98.47L249.82,97.75L249.53,95.12L248.9,94.92L248.66,96.91L248,97.89L247.3,97.15L245.67,96.92L246.15,95.94L247.43,95.61L247.98,93.94L247.98,93.94L249.88,92.17L252.3,88.54L259.87,73.46L260.54,70.97L262.03,69.33L267.6,67.79L274.8,67.88L277.65,68.92L280.29,69.34L282.1,70.15L285.36,70.44L287.68,71.42L289.82,71.42L293.63,68.72L296.87,67.98L298.5,65.35L299.8,61.57L299.8,61.57L302.8,62.28L303.66,62L304.26,61.31L304.6,59.47L305.24,58.74L309.22,56.52L310.39,56.58L311.81,58.06L311.99,61.54L312.94,63.44L317.71,67.76L317.46,72.58L319.22,74.11L319.22,74.11L317.21,83.82L314.75,86.77L309.57,89.73L307.62,92.61L306.51,93.63L302.76,94.43L292.53,99.32L290.49,99.74L288.24,100.76L281.08,105.39L278.36,108.27L277.98,112.04L277.46,113.06L272.34,116.27L271.57,117.54L271.33,127.47L270.42,129.79L270.18,133.05L269.3,135.82L269.86,136.73L274.11,138.4L279.41,141.82L280.96,143.5L284.57,149.62L285.03,151.67L286.8,155.23L287,156.34L287,170.67L286.63,174.93L286.63,174.93L286.63,174.93L286.63,174.93L279.28,171.45L269.07,164.98L264.13,165.34L264.13,165.34L263.88,160.81L261.6,156.72L260.35,152.86L260.24,146.77L259.82,145.53L256.34,143.41L253.06,143.38L250.79,144.17L249.04,143.42L249.04,143.42z"/>
		<path id="AZ-QAZ" title="Qazax" class="land" d="M81.79,156.02L76.84,158.83L73.65,158.86L70.79,153.02L69.41,152.3L66.93,153.79L66.67,156.02L66.34,156.37L65.69,156.59L63.52,156.01L61.42,156.63L60.12,156.19L58.41,152.87L56.83,150.99L55.77,150.48L53.92,150.91L53.33,150.42L52.4,147.95L52.02,142.99L51.15,142.52L47.59,142.87L47.02,143.25L46.86,144.41L48.76,145.38L48.9,145.9L47.7,148.83L46.57,149.55L43.54,149.23L41.02,151.05L39.34,151.16L38.16,150.29L37.58,148.24L40.57,143.76L40.54,141.64L42.08,139.64L49.3,138.59L53.41,137.31L55.16,136.43L56.78,134.12L58.59,133.69L58.93,133.1L57.09,131.53L53.78,131.12L48.85,122.89L47.61,122.5L46.25,122.78L43.63,124.92L42.29,125.72L41.36,125.82L36.94,125.14L33.89,125.51L33.03,124.48L33.07,122.92L36.54,120.33L37.8,118L37.77,116.35L37.51,115.46L34.41,111.34L33.35,107.54L32.13,106.71L37.74,104.36L40.73,102.15L43.64,101.22L45.23,100.26L47.59,97.2L47.59,97.2L57.55,102.68L60.58,105.23L67.52,108.94L71.37,110.26L74.01,110.66L75.82,111.47L81.34,111.82L82.84,112.66L83.98,114.03L85.2,116.83L85.18,118.98L84.39,120.78L83.9,123.92L82.13,128.53L81.78,131.17L80.89,133.46L81.63,137.24L79.9,139.62L79.67,140.64L79.74,142.25L80.67,144.58L80.87,148.97L81.8,151.39z"/>
		<path id="AZ-QBA" title="Quba" class="land" d="M479.47,168.39L478.59,166.05L477.4,164.6L471.98,161.6L469.34,161.2L466.5,160.22L463.68,161.1L462.14,160.96L450.25,154.46L445.19,152.56L440.78,149.8L435.2,149.34L432.14,148.39L432.14,148.39L428.79,145.31L424.74,144.67L423.64,144.15L418.19,138.66L416.74,135.48L418.32,131.86L418.32,131.86L426.01,125.16L457.18,103.6L476.03,89.6L480.54,85.31L487.83,81.7L489.88,81.29L495.64,78.51L497.68,78.1L502.2,76.03L504.08,74.76L504.08,74.76L504.56,76.43L506.91,78.71L507.81,80.23L516.79,98.21L517.99,98.47L523.78,95.84L524.31,95.99L526.37,98.45L526.37,98.45L525.52,105.27L524.6,107.4L524.48,110.92L524.71,112.35L527.08,115.09L527.38,116.23L526.31,118.38L523.85,121.01L522.68,122.84L518.52,125.27L517.35,127.09L514.91,129.72L512.36,134.86L512.98,136.34L522.25,145.76L523.31,147.42L523.3,148.67L521.88,152.71L520.33,154.23L517.54,155.91L515.61,158.4L515.74,161.13L518.74,165L517.82,167.86L517.9,177.69L517.9,177.69L506.53,173.47L503.38,172.93L493.75,168.6z"/>
		<path id="AZ-QBI" title="Qubadlı" class="land" d="M226.62,424.37L232.25,428.35L238.31,428.54L240.2,427.45L246.66,421.43L248.4,420.94L248.4,420.94L251.29,421.38L253.94,422.25L260.18,420.67L261.62,421.13L264.4,425.4L263.06,428.76L260.67,432.39L260.67,432.39L259.17,432.91L256.94,436.73L256.7,441.52L257.03,442.86L259.45,444.85L260.97,447.66L261.38,455.09L262.46,457.29L263.6,458.62L270.07,462.12L272.49,464.43L272.49,464.43L266.44,467.58L263.69,469.96L260.88,471.65L257.12,475.33L253.76,481.3L252.24,483.1L251.02,483.58L249.45,483.58L247.88,480.31L247.81,475.55L248.81,472.65L248.94,469.68L248.58,467.59L246.94,465.78L246.94,465.78L246.68,465.06L246.08,464.9L242.01,464.55L240.99,463.37L240.17,460.97L236.5,459.7L234.98,457.5L233.95,453.67L233.87,453.17L234.76,451.78L234.51,449.89L230.57,444.69L229.69,444.91L227.56,447L226.2,446.98L220.61,442.87L217.72,438.85L214.82,430.89L216.35,429.18L217.24,426.19L218.88,425.61L224.67,426.82L225.46,426.34z"/>
		<path id="AZ-QOB" title="Qobustan" class="land" d="M526.74,273.14L521.08,273.01L517.11,274.01L515.32,273.51L514.54,272.29L514.84,271.16L515.8,269.99L518.74,269.41L521.72,267.61L522.4,263.2L526.49,254.93L526.19,254.04L523.75,251.02L524.31,249.34L524.33,247.22L523.41,244.91L523.2,240.56L522.27,237.74L523.07,234.53L521.66,232.76L519.13,230.76L518.91,229.44L523.25,222.83L523.31,219.01L522.3,216.17L522.19,212.89L522.41,211.33L523.51,209.13L526.57,205.16L530.18,204.32L534.81,200.89L534.81,200.89L537.65,200.71L545.97,205.57L548.64,208.03L551.09,209.54L553.45,213.04L563.66,223.35L566.88,225.27L571.17,225.76L576.23,228.5L577.58,229.86L580.35,235.63L581.73,237.24L583.82,238.42L586.7,240.93L594.95,245.32L594.95,245.32L590.86,252.58L590.86,252.58L589.99,253.31L589.99,253.31L587.88,254.44L587.88,254.44L585.94,255.52L583.27,258.64L579.13,259.04L575.77,260.05L573.34,261.33L569.12,268.06L569.12,268.06L568.78,268.23L568.78,268.23L565.13,268.56L563.23,269.65L563.23,269.65L561.26,271.55L561.26,271.55L561.26,271.55L561.26,271.55L560.27,272.8L560.27,272.8L560.27,272.8L560.27,272.8L559.88,273.74L559.88,273.74L558.29,276.42L555.73,278.03L555.73,278.03L553.81,280L552.76,281.94L552.76,281.94L551.17,283.12L551.17,283.12L550.82,283L550.82,283L550.82,283L550.82,283L550.25,282.35L550.25,282.35L549.23,280.68L549.23,280.68L548.84,280.39L548.84,280.39L543.16,276.84L540.43,275.94L540.43,275.94L536.16,276.58L530.54,276.4L529.15,275.66z"/>
		<path id="AZ-QUS" title="Qusar" class="land" d="M504.08,74.76L502.2,76.03L497.68,78.1L495.64,78.51L489.88,81.29L487.83,81.7L480.54,85.31L476.03,89.6L457.18,103.6L426.01,125.16L418.32,131.86L418.32,131.86L412.73,131.1L410.74,130.26L407.52,129.74L405.4,128.55L404.3,127.41L401.87,121.53L401.87,121.53L404.4,121.13L410.23,121.44L412.02,121.1L413.65,120.04L414.71,117.81L414.24,112.89L414.51,111.78L415.23,110.46L418.78,106.9L419.72,104.79L420.23,96.46L421.41,94.28L422.47,93.38L426.19,91.79L429.63,86.9L431.35,83.74L433.1,79.02L433.26,75.08L433.98,73.88L434.78,73.4L440.25,72.21L442.76,72.13L446.13,71.01L448.87,71.06L451.33,71.58L453.61,71.29L456.18,69.6L459.08,68.98L461.32,68.03L463.44,63.29L465.21,61.55L467.63,60.41L470.5,59.67L475.07,57.07L481.09,52.14L482.79,49.59L483.46,47.49L484.69,39.49L486.08,33.22L486.08,33.22L489.45,32.25L493.36,32.28L494.9,32.99L496.2,35.29L496.2,36.07L493.42,41.84L493.39,51.9L493.91,53.05L495.38,54.34L496.67,54.75L501.14,54.96L502.2,55.55L502.82,56.51L502.9,57.52L502.08,59.3L500.18,61.68L499.31,63.8L499.71,64.47L502.12,66L503.14,67.33L503.48,70.01L504.41,72.38z"/>
		<path id="AZ-SA" title="Şəki City" class="land" d="M314.26,121.68L312.21,124.27L312.21,126.73L313.31,129.19L318.08,130.01L320.41,129.05L321.5,126.18L320.54,122.63L319.04,121.27L316.58,120.18z"/>
		<path id="AZ-SAB" title="Sabirabad" class="land" d="M504.95,392.21L502.54,392.29L501.25,391.7L501.05,389.74L502.08,388.15L507.08,386.62L510.86,386.4L517.76,383.04L519.46,380.6L521.92,375.85L521.92,373.85L518.97,368.16L518.77,367.14L518.79,363.89L519.81,361.13L519.83,357.92L515.84,352.24L513.36,349.98L509.33,349.33L508.24,348.83L504.58,345.42L500.35,342.85L494.28,342.67L493.23,343.23L491.72,345.55L490.37,345.76L489.2,345.3L487.16,343.38L485.76,340.23L488.15,337.34L488.05,336.41L486.89,335.31L482.12,332.54L480.88,332.46L477.43,333.51L472.03,335.73L464.15,340.46L463.11,339.53L461.02,336.01L461.02,336.01L461.02,336.01L461.02,336.01L466.04,331.48L470.66,329.78L471.51,329.1L471.71,327.99L471.09,326.7L470.94,325.17L473.39,319.44L480.19,315.33L483.02,311.05L485.31,310.39L488.5,308.82L488.5,308.82L505.93,308.98L512.23,312.08L515.31,313.1L516.09,313.82L516.21,314.42L515.23,317.77L513.39,321.67L514.49,324.36L516.15,327.05L519.99,328.7L532.08,331.58L534.18,332.74L536.92,336.09L539.26,337.48L540.48,338.68L540.99,339.8L541.52,343.21L546.36,346.03L546.36,346.03L545.75,347.43L546.41,348L546.41,348L545.76,348.98L544.35,349.98L543.55,351.52L543.64,353.59L544.41,355.14L547.57,357.73L549.51,359.88L549.5,360.54L547.05,365.57L547.78,366.75L552.54,371.47L553.28,372.83L553.13,375.42L551.3,378.83L551.1,379.84L551.18,384.7L552.18,387.5L552.07,391.27L551.22,392.48L545.68,395.2L544.84,395.92L544.63,397.03L546.18,401.54L545.32,402.33L543.83,402.06L541.15,399.69L539.92,399.24L534.34,399.1L531.49,400L529.39,400.08L529.39,400.08L511.03,394.01L507.35,392.19z"/>
		<path id="AZ-SAD" title="Sədərək" class="land" d="M18.18,376.87l5.46,1.99l3.78,-0.51l3.11,-1.27l0,0l0.46,5.17l-1.79,2.3l-2.82,1.02l-3.07,2.82v3.07l1.79,2.56v1.79l-1.02,3.58l-5.12,2.3l-3.33,1.02l-1.85,-0.12l0,0l0.34,-2.81l-1.6,0.69l-2.47,-1.98l-4.66,0.89l-2.05,-2.82l3.33,-5.38l-1.28,-2.82l-2.82,-2.05L0,383.78l1.02,-2.82l3.33,-1.54l2.82,-2.56l5.63,-1.28L18.18,376.87zM26.12,372h-1.54l-1.79,-1.54l-1.02,-2.05v-2.05l3.58,-1.28h2.3l0.51,2.56l-1.02,0.77l-0.26,2.05L26.12,372z"/>
		<path id="AZ-SAH" title="Şahbuz" class="land" d="M138.57,440.53L135.47,442.17L134.95,444.73L133.16,447.29L129.58,450.87L127.27,449.34L126.76,447.03L125.48,446.01L122.92,446.01L121.13,448.83L118.82,450.36L115.24,450.36L109.07,454.97L109.07,454.97L106.79,454.97L106.79,454.97L105.76,453.43L107.04,449.85L103.2,447.03L99.36,442.68L91.42,442.17L89.37,438.84L88.86,435L87.32,432.95L85.53,432.95L82.71,432.18L81.95,429.11L88.86,424.24L91.68,420.66L93.47,419.89L93.79,417.61L93.79,417.61L95.81,417.74L97.68,417.12L98.91,416.29L103.79,411.06L108.17,409.38L112.23,407.03L115.71,406.63L117.87,405.79L120.09,404.26L122.33,401.27L124.11,399.83L125.27,399.94L130.03,402.5L133.92,403.02L136.17,405.09L137.2,407.2L140.38,411.6L140.74,413.26L140.33,418.75L140.75,420.03L142.13,421.49L142.65,423.05L140.51,428.65L136.75,435.12L136.58,437.6L137.08,438.92z"/>
		<path id="AZ-SAK" title="Şəki" class="land" d="M338.84,108.44l-7.29,-4.72l-0.99,-1.1l-0.71,-5.72l-0.52,-1.16l-0.22,-5.26l-0.48,-0.79l-0.83,-0.24l-2.35,0.28l-1.07,-1.02l0.05,-3.18l1.55,-2.62l-0.03,-0.93l-3.65,-1.68l-0.59,-0.96l-0.68,-3.22l-1.8,-2.03l0,0l-2.01,9.71l-2.46,2.95l-5.18,2.96l-1.95,2.89l-1.11,1.02l-3.75,0.8l-10.23,4.89l-2.04,0.42l-2.25,1.02l-7.17,4.63l-2.72,2.88l-0.38,3.77l-0.52,1.02l-5.12,3.21l-0.78,1.26l-0.23,9.93l-0.91,2.33l-0.25,3.26l-0.88,2.77l0.57,0.91l4.25,1.67l5.3,3.42l1.54,1.68l3.61,6.13l0.46,2.04l1.77,3.56l0.2,1.11l0,14.33l-0.37,4.26l0,0l3.42,1.4l9.13,4.8l6.84,4.21l6.7,3.43l2.63,0.47l7.4,4.19l7.86,2.75l0,0l3.1,0.91l5.58,0.45l6.27,3.19l2.01,-0.15l1.18,-1.49l1.19,-0.31l7.05,2.56l2.46,1.26l5.87,-1.65l0,0l0.79,-1.31l0.76,-0.46l1.39,0.11l1.83,0.87l1.24,-0.29l0.4,-1.56l-0.55,-3.29l0,0l-4.87,-3.31l-12.35,-6.42l-3.6,-2.3l-6.32,-6.68l-2.2,-4.5l-0.44,-4.8l-1.39,-0.59l-2.33,0.85l-1.2,-0.34l-0.4,-1.77l0.83,-2.33l-0.2,-1.14l-4.13,-2.64l-0.86,-1.27l-0.12,-2.73l1.01,-2.82l0.32,-3.75l7.38,-14.49l0.45,-2.03l1.79,-3.48l0.39,-12.43l1.9,-5.08L338.84,108.44zM320.41,129.05l-2.32,0.96l-4.78,-0.82l-1.09,-2.46v-2.46l2.05,-2.59l2.32,-1.5l2.46,1.09l1.5,1.37l0.96,3.55L320.41,129.05z"/>
		<path id="AZ-SAL" title="Salyan" class="land" d="M566.83,409.89L566.48,409.96L564.09,403.01L564.09,403.01L564.09,403.01L564.09,403.01L557.35,402.05L557.67,407.51L558.95,410.08L563.32,413.84L563.26,417.61L562.65,418.82L561.3,420.13L561.3,420.13L556.51,422.82L556.51,422.82L555.75,423.65L553.36,428.32L553.31,433.16L554.33,435.96L554.33,435.96L554.18,439.02L553.26,439.59L553.26,439.59L551.29,439.91L549.37,441.21L549.37,441.21L545.25,444.7L545.25,444.7L544.88,444.8L544.88,444.8L543.84,444.78L542.37,444L542.37,444L540.92,442.89L540.92,442.89L539.6,442.23L536,438.76L536,438.76L533.29,436.87L533.29,436.87L528.96,433.66L528.96,433.66L528.96,433.66L528.96,433.66L530.92,424.58L528.29,420.37L525.86,417.71L525.4,415.75L525.63,414.22L526.43,412.47L526.64,409.29L527.42,407.54L527.88,404.88L529.39,400.08L529.39,400.08L531.49,400L534.34,399.1L539.92,399.24L541.15,399.69L543.83,402.06L545.32,402.33L546.18,401.54L544.63,397.03L544.84,395.92L545.68,395.2L551.22,392.48L552.07,391.27L552.18,387.5L551.18,384.7L551.1,379.84L551.3,378.83L553.13,375.42L553.28,372.83L552.54,371.47L547.78,366.75L547.05,365.57L549.5,360.54L549.51,359.88L547.57,357.73L544.41,355.14L543.64,353.59L543.55,351.52L544.35,349.98L545.76,348.98L546.41,348L546.41,348L548.99,349.08L550.15,349.17L550.89,348.64L551.12,347.31L551.12,347.31L551.12,347.31L551.12,347.31L551.88,347.59L555.01,346.08L559.51,346.23L562.8,347.93L566.71,350.92L569.96,352.77L574.9,353.16L580.66,355.31L585.11,354.39L586.68,354.63L588.5,355.46L590.64,355.51L594.68,353.72L595.51,353.78L597.31,355.17L598.32,357.06L600.07,358.98L603,360.89L607.33,364.76L607.33,364.76L606.04,366.74L605.77,367.98L605.71,379.15L605.96,380.91L606.72,382.75L606.92,388.06L607.65,389.93L604.16,393.41L602.42,397.92L602.18,400.24L600.88,403.56L600.14,407.45L598.11,412.63L597.11,416.83L595.58,417.57L592.91,417.82L592.91,417.82L589.05,418.94L589.05,418.94L586.23,420.4L584.47,422.36L584.47,422.36L583.45,422.72L582.2,422.1L582.2,422.1L579.02,421.57L574.66,419.29L574.66,419.29L572.63,417.53L571.77,415.87L571.77,415.87L567.96,410.49z"/>
		<path id="AZ-SAR" title="Şərur" class="land" d="M71.91,401.22L65.3,403.24L61.2,407.34L60.44,413.23L58.64,418.61L55.57,425.27L50.45,429.11L45.58,431.92L41.23,435.25L38.67,438.58L37.95,441.81L37.95,441.81L35.08,438.33L32.01,438.07L24.33,432.44L23.05,427.31L20.23,423.99L19.72,416.82L16.65,414L14.08,410.93L13.57,404.27L13.77,402.62L13.77,402.62L15.62,402.73L18.95,401.71L24.07,399.4L25.1,395.82L25.1,394.02L23.3,391.46L23.3,388.39L26.38,385.57L29.19,384.55L30.99,382.24L30.53,377.07L30.53,377.07L34.08,374.86L36.59,372.5L38.92,368.42L40.46,366.62L46.35,367.14L48.91,368.42L50.45,372.77L50.11,375.73L51.04,377.21L52.35,380.82L54.82,382.69L56.17,384.97L57.06,387.73L57.19,391.97L56.09,394.6L56.67,397.22L56.17,399.66L56.89,401.93L57.52,402.81L60.44,400.94L65.04,396.84L67.61,396.58L70.93,396.84L71.96,398.38L71.44,400.68z"/>
		<path id="AZ-SAT" title="Saatlı" class="land" d="M504.95,392.21L503.21,396.61L502.15,397.97L500.37,398.38L495.88,398.27L494.87,398.03L494.06,397.31L492.64,394.61L490.17,391.2L486.34,389.58L485.5,389.6L484.39,390.21L481.83,392.65L478.17,397.35L478.17,397.35L476.54,394.78L473.14,391.68L473.08,382.54L474.18,378.73L473.73,376.76L471.49,373.65L470.6,372.94L463.11,371.21L459.87,369.33L458.93,368.3L457.87,366.2L456.53,362.45L456.53,359.36L461.86,348.97L461.74,347.46L460.62,345.23L457.88,341.81L461.02,336.01L461.02,336.01L463.11,339.53L464.15,340.46L472.03,335.73L477.43,333.51L480.88,332.46L482.12,332.54L486.89,335.31L488.05,336.41L488.15,337.34L485.76,340.23L487.16,343.38L489.2,345.3L490.37,345.76L491.72,345.55L493.23,343.23L494.28,342.67L500.35,342.85L504.58,345.42L508.24,348.83L509.33,349.33L513.36,349.98L515.84,352.24L519.83,357.92L519.81,361.13L518.79,363.89L518.77,367.14L518.97,368.16L521.92,373.85L521.92,375.85L519.46,380.6L517.76,383.04L510.86,386.4L507.08,386.62L502.08,388.15L501.05,389.74L501.25,391.7L502.54,392.29z"/>
		<path id="AZ-SBN" title="Şabran" class="land" d="M581.08,135.22L578.99,134.43L575.7,131.47L573.08,128.22L570.77,126.88L569.2,126.98L562.92,129.9L561.89,129.87L559.06,128.86L556.23,129.73L551.24,129.77L549.71,130.39L548.29,132.65L547.93,134.11L551.16,142.57L551.04,148.57L547.79,153.92L546.78,154.67L542.88,154.59L538.82,157.38L537.21,159.07L536.79,160.04L536.81,162.18L537.82,165.13L537.94,171.06L538.88,173.46L539.64,178.14L539.64,178.14L536.42,179.79L531.35,184.66L531.35,184.66L517.9,177.69L517.9,177.69L517.82,167.86L518.74,165L515.74,161.13L515.61,158.4L517.54,155.91L520.33,154.23L521.88,152.71L523.3,148.67L523.31,147.42L522.25,145.76L512.98,136.34L512.36,134.86L514.91,129.72L517.35,127.09L518.52,125.27L522.68,122.84L523.85,121.01L526.31,118.38L527.38,116.23L527.08,115.09L524.71,112.35L524.48,110.92L524.6,107.4L525.52,105.27L526.37,98.45L526.37,98.45L528.74,98.85L535.11,96.07L539.97,99L543.61,97.9L548.02,95.29L549.6,95.1L554.03,95.29L559.24,97.56L569.82,97.14L569.82,97.14L570.12,98.05L572.76,101.46L576.47,110.96L576.72,113.51L577.85,117.21L579.17,127.88z"/>
		<path id="AZ-SIY" title="Siyəzən" class="land" d="M608.7,179.73L607.27,180.29L604.94,180.19L601.04,178.78L600.02,179.08L597.43,181.22L595.76,181.79L583.64,181.34L572.74,175.12L570.24,174.41L568.27,173.14L566.89,170.64L566.84,164L566.45,163.12L565.64,162.74L559.34,165.77L558.15,168.89L557.64,171.9L556.61,172.98L548.9,176.14L546.86,176.55L543.26,178.26L539.64,178.14L539.64,178.14L538.88,173.46L537.94,171.06L537.82,165.13L536.81,162.18L536.79,160.04L537.21,159.07L538.82,157.38L542.88,154.59L546.78,154.67L547.79,153.92L551.04,148.57L551.16,142.57L547.93,134.11L548.29,132.65L549.71,130.39L551.24,129.77L556.23,129.73L559.06,128.86L561.89,129.87L562.92,129.9L569.2,126.98L570.77,126.88L573.08,128.22L575.7,131.47L578.99,134.43L581.08,135.22L581.08,135.22L581.17,139.11L583.85,145.93L584.59,150.48L585.24,151.93L584.4,152.47L584.4,152.91L585.7,153.73L587.28,156.69L590.4,160.29L593.58,163.14L595.49,165.41L598.37,167.39L602.77,174.58L606.6,176.76z"/>
		<path id="AZ-SKR" title="Şəmkir" class="land" d="M174.17,220.79L167.59,217L166.43,216.85L165.34,217.21L163.4,220.13L160.54,225.86L158.11,228.46L156.91,230.56L153.18,234.2L153.15,235.29L152.07,236.39L152.07,236.39L151.08,235.37L150.94,234.63L152.07,233.07L151.97,229.29L151.13,226.98L152.47,223.63L152.4,222.72L148.33,219.29L147.33,216.63L146.63,215.73L140.28,211.95L135.82,205.43L134.46,202.76L133.88,198.17L132.7,196.87L130.46,195.45L127.08,190.2L127.08,190.2L127.08,190.2L127.08,190.2L127.35,187.9L126.64,186L126.52,184.44L128.01,181.54L133.63,178.37L136.96,174.8L139.02,173.7L142.55,170.49L145.63,168.51L148.54,164.26L150.32,158.15L152.1,157.73L173.86,158.26L175.66,157.83L176.5,156.61L177.12,153.54L179.52,150.91L180.48,149.12L188.45,141.14L190.78,135.54L190.78,135.54L194.94,142.36L200.73,148.48L205.56,158.3L205.24,160.38L201.37,166.69L201.06,170.51L200.16,172.66L199.84,175.37L196.76,180.32L197.11,182.39L199.86,185.61L200.38,188.52L200.38,188.52L197.61,194.15L195.8,196.53L195.48,202.42L193.56,206.44L193.25,211.28L191.63,214.6L190.16,215.8L188.84,216.16L179.5,216.23L177.15,218.65z"/>
		<path id="AZ-SM" title="Sumqayıt" class="land" d="M653.57,233.08L651.42,237.04L649.39,237.95L646.55,238.3L644.24,239.2L642.6,239.27L642.6,239.27L639.25,239.15L639.25,239.15L638.02,238.7L638.02,238.7L635,233.48L635,233.48L633.98,231.65L625.06,222.69L625.06,222.69L624.71,222.51L624.71,222.51L623.97,222.58L623.97,222.58L623.12,221.28L623.49,219.93L625.73,218.87L629.62,218.56L629.62,218.56L630.54,221.2L631.99,223.5L634.05,224.15L638.01,226.3L640.13,226.63L647.32,226.7L650.83,231.49L652.09,232.55z"/>
		<path id="AZ-SMI" title="Şamaxı" class="land" d="M534.81,200.89L530.18,204.32L526.57,205.16L523.51,209.13L522.41,211.33L522.19,212.89L522.3,216.17L523.31,219.01L523.25,222.83L518.91,229.44L519.13,230.76L521.66,232.76L523.07,234.53L522.27,237.74L523.2,240.56L523.41,244.91L524.33,247.22L524.31,249.34L523.75,251.02L526.19,254.04L526.49,254.93L522.4,263.2L521.72,267.61L518.74,269.41L515.8,269.99L514.84,271.16L514.54,272.29L515.32,273.51L517.11,274.01L521.08,273.01L526.74,273.14L526.74,273.14L525.03,281.15L522.56,283.52L520.7,284.48L518.2,286.59L517.15,286.97L514.21,285.62L508.93,281.97L503.08,279.83L499.66,277.18L493.06,276.65L490.63,275.45L490.63,275.45L493.54,271.14L496.33,267.96L496.54,261.44L497.22,259.69L499.72,257.52L505.38,254.84L512.35,250.92L513.49,249.84L514.24,248.14L513.76,247.6L512.3,247.23L509.78,245.88L503.77,241.89L493.8,241.47L489.7,239.93L488.01,238.37L484.69,232.87L484.5,231.49L485.86,228.88L492.42,222.41L495,218.72L495.28,217.84L494.58,215.14L497.63,210.12L497.51,208.58L496.14,205.01L493.7,203.28L491.42,200.91L490.58,197.88L488.97,195.31L488.97,195.31L494.18,185.07L494.19,183.03L492.56,180.28L482.64,173.28L481.02,171.45L479.47,168.39L479.47,168.39L493.75,168.6L503.38,172.93L506.53,173.47L517.9,177.69L517.9,177.69L531.35,184.66L531.35,184.66L529.1,188.18L529.03,191.98L531.5,197.27z"/>
		<path id="AZ-SMX" title="Samux" class="land" d="M182.55,122.72L185.56,124.23L190.84,123.62L198.52,123.93L202.44,127.54L212.68,140.65L215.09,140.65L217.96,139.14L220.97,140.35L221.57,144.11L224.59,148.11L226.39,147.65L228.2,144.19L231.97,138.77L234.53,136.96L237.69,137.71L240.71,138.92L242.82,141.33L244.32,141.48L245.38,140.57L248.08,140.63L248.08,140.63L249.11,142.91L249.11,142.91L249.04,143.42L249.04,143.42L250.79,144.17L253.06,143.38L256.34,143.41L259.82,145.53L260.24,146.77L260.35,152.86L261.6,156.72L263.88,160.81L264.13,165.34L264.13,165.34L260.35,168.98L258.42,171.86L254.28,175.96L253.13,178.04L248.7,182.49L246.57,185.65L243.06,189L240.99,190.07L238.59,192.22L236.49,193.29L235.2,194.5L235.03,195.34L236.39,198.71L235.04,201.02L230.73,203.35L228.3,205.68L227.7,209.22L226.3,212.16L225.94,214.78L225.94,214.78L225.07,215.46L222.61,216.08L218.35,215.99L214.54,215.01L211.91,213.66L211.91,213.66L212.69,210.06L212.49,208.97L211.7,207.9L209.41,206.74L205.75,206.93L205.75,206.93L205.51,200.56L204.61,198.23L204.26,195.6L200.38,188.52L200.38,188.52L199.86,185.61L197.11,182.39L196.76,180.32L199.84,175.37L200.16,172.66L201.06,170.51L201.37,166.69L205.24,160.38L205.56,158.3L200.73,148.48L194.94,142.36L190.78,135.54L190.78,135.54L189.61,134.48L183.57,132.58L178.77,129.63L177.11,129.36L176.02,127.79L176.02,127.79L176.35,127.6L177.29,124.2L179.76,123.53L180.44,122.72z"/>
		<path id="AZ-SR" title="Şirvan City" class="land" d="M551.12,347.31L550.89,348.64L550.15,349.17L548.99,349.08L546.41,348L546.41,348L545.75,347.43L546.36,346.03L546.36,346.03L546.5,340.69L544.6,337L544.47,335.86L545.39,334.24L547.58,333.45L548.42,333.81L550.46,337.56L553.14,340.65L553.13,341.58L551.25,344.14z"/>
		<path id="AZ-SUS" title="Şuşa" class="land" d="M235.15,374.08L238.28,373.38L242.18,373.04L246.6,370.49L247.87,370.13L249.99,370.33L253.57,371.75L259.63,375.7L262.17,381.37L266.41,385.53L267.04,389.35L268.05,391.57L268.05,391.57L260.95,402.96L260.95,402.96L259.98,395.97L259.12,394.75L257.89,394.3L254.01,394.27L250.42,395.62L249.11,397.41L248.06,399.61L247.61,401.62L246.48,403.68L245.05,404.7L242.16,403.32L240.53,401L239.07,399.75L237.28,399.41L235.22,399.88L233.75,398.9L233.31,397.06L233.42,392.17L234.66,389.52L236.51,387.21L237.38,385.15L236.82,383.46L236.61,379.15L235.64,376.75z"/>
		<path id="AZ-TAR" title="Tərtər" class="land" d="M307.29,303.81L305.55,303.7L303.06,304.49L300.89,303.91L299.4,302.21L298.97,297.94L296.88,295.81L295.43,295.71L293.73,297.32L292.5,297.65L290.9,297.08L287.9,294.53L286.11,294.58L285.82,296.44L286.68,298.79L286.68,299.74L284.51,302.12L279.63,303.97L277.48,303.9L275.68,303.11L274.71,303.07L271.77,304.85L271.34,306.05L271.22,310.96L269.97,314.16L268.9,315.15L265.55,316.75L264.82,317.54L264.68,319.57L265.58,322.16L264.37,326.85L264.37,326.85L261.66,323.26L259.3,321.06L259.9,318.42L259.49,317.44L255.85,314.66L250.98,309.69L249.11,307.15L243.95,305.54L241.81,305.49L238.48,307.1L235.5,309.51L233.72,309.37L232.39,304.64L232.07,300.92L230.15,296.89L230.05,288.79L230.52,286.4L233.16,284.16L234.37,278.6L234.37,278.6L234.69,275.78L236.25,274.1L240.25,273.08L243.32,270.76L245.59,270.12L249.95,268.02L253.14,265.5L257.06,263.17L268.49,263.07L271.15,261.88L278.78,256.16L280.6,255.18L282.49,252.46L284.2,250.7L285.84,249.75L285.84,249.75L286.73,251.1L287.02,254.22L288.24,256.9L291.83,260.87L291.83,260.87L292.6,266.37L293.96,269.99L296.87,272.08L299.39,276.95L300.52,278.3L302.02,279.11L305.69,279.63L306.74,280.68L306.91,282.05L305.89,285.52L305.87,297.36L306.1,299.07L306.99,301.2z"/>
		<path id="AZ-TOV" title="Tovuz" class="land" d="M127.08,190.2L126.35,194.38L125.36,197.2L125.37,203.68L126.37,207.1L125.37,210.49L125.24,224.14L123.25,228.24L122.14,229.32L120.8,229.97L118.84,229.24L115.7,225.94L112.59,225.34L111.75,224.63L111,222.84L111.84,220.56L111.95,218.4L111.72,217.4L111,216.57L105.17,213.5L98.59,213.11L97.04,212.42L96.37,210.85L96.13,204.31L94.79,201.67L93.39,200.12L93.39,200.12L106.92,189.97L109.05,186.98L110.31,182.48L110.1,179.16L109.32,177.46L108.26,176.87L106.68,177.62L106.08,176.52L104.17,175.34L101.08,174.77L99.09,171.99L96.57,172.27L97.01,169.58L94.55,168.02L93.91,166.77L93.83,164.21L93.42,163.48L92.2,162.92L91.58,163.21L91.58,163.21L94.84,160.1L95.7,156.97L103.57,154.97L107.85,150.91L109.57,147.87L109.69,142.98L107.75,138.92L107.24,135.72L106.5,133.93L106.41,130.59L106.82,129.45L108.04,129.56L114.98,133.13L115.98,133.08L117.96,131.3L119.18,127.76L122.24,124.69L134.48,118.25L134.48,118.25L135.65,119.19L138.11,120.11L140.05,120.5L143.22,120.37L144.81,120.79L150.12,123.46L152.91,125.97L156.33,127.89L160.6,128.17L164.43,127.39L167.38,127.7L170.79,127.51L174.55,128.62L176.02,127.79L176.02,127.79L177.11,129.36L178.77,129.63L183.57,132.58L189.61,134.48L190.78,135.54L190.78,135.54L188.45,141.14L180.48,149.12L179.52,150.91L177.12,153.54L176.5,156.61L175.66,157.83L173.86,158.26L152.1,157.73L150.32,158.15L148.54,164.26L145.63,168.51L142.55,170.49L139.02,173.7L136.96,174.8L133.63,178.37L128.01,181.54L126.52,184.44L126.64,186L127.35,187.9z"/>
		<path id="AZ-UCA" title="Ucar" class="land" d="M419.35,278.58L411.28,278.4L409.47,279.14L406.83,279.43L403.44,280.35L397.32,280.18L394.47,279.13L392.33,279.07L387.05,282L385.07,282.56L384.17,281.93L381.97,277.99L375.92,271.9L368.85,268.09L365,265.2L365,265.2L364.98,263.85L364.42,262.58L363.28,261.45L358.99,258.89L357.24,255.66L357.26,253.54L358.27,250.74L358.4,245.83L359.16,244.04L359.5,241.99L360.12,241.11L363.78,240.71L367.23,239.24L373.37,241.89L373.37,241.89L373.51,242.99L376.61,244.58L377.94,246.67L379.37,246.6L382.31,244.79L383.86,244.87L386.67,246.49L389.37,248.8L394.07,251.3L395.5,250.88L397.69,247.59L400.06,247.29L415.25,255.09L420.73,255.38L423.58,254.54L427.06,256.38L427.06,256.38L426.35,260.48L426.09,268.65L422.54,275.53z"/>
		<path id="AZ-XAC" title="Xaçmaz" class="land" d="M526.37,98.45L524.31,95.99L523.78,95.84L517.99,98.47L516.79,98.21L507.81,80.23L506.91,78.71L504.56,76.43L504.08,74.76L504.08,74.76L504.41,72.38L503.48,70.01L503.14,67.33L502.12,66L499.71,64.47L499.31,63.8L500.18,61.68L502.08,59.3L502.9,57.52L502.82,56.51L502.2,55.55L501.14,54.96L496.67,54.75L495.38,54.34L493.91,53.05L493.39,51.9L493.42,41.84L496.2,36.07L496.2,35.29L494.9,32.99L493.36,32.28L489.45,32.25L486.08,33.22L486.08,33.22L486.95,31.67L490.69,21.35L492.32,15.79L494.07,13.88L493.84,9L495.23,7.04L496.06,4.45L498.57,3.97L500.57,5.66L501.47,7.79L503.93,10.43L505.8,11.41L507.14,13.17L509.54,14.8L515.33,20.15L521.31,26.73L523.85,30.79L525.55,32.53L529.2,39.23L531.29,43.95L531.94,44.52L532.71,44.42L533.37,44.87L546.26,62.17L551.77,68.39L553.29,71.4L557.52,76.92L561.84,84.46L569.2,95.32L569.82,97.14L569.82,97.14L559.24,97.56L554.03,95.29L549.6,95.1L548.02,95.29L543.61,97.9L539.97,99L535.11,96.07L528.74,98.85z"/>
		<path id="AZ-XCI" title="Xocalı" class="land" d="M268.05,391.57L267.04,389.35L266.41,385.53L262.17,381.37L259.63,375.7L253.57,371.75L249.99,370.33L247.87,370.13L246.6,370.49L242.18,373.04L238.28,373.38L235.15,374.08L235.15,374.08L234.26,366.63L233.15,363.33L228.72,354.48L224.88,350.62L222.05,348.96L221.31,348.14L221.16,346.1L223.33,339.71L223.33,339.71L227.16,338.46L229.64,335.42L230.6,334.98L234.65,336.38L236.12,337.67L237.47,339.56L238.67,339.6L243.87,336.58L245.88,332.45L246.93,331.45L247.94,330.94L251.41,330.65L255.96,329.4L255.96,329.4L257.66,331.64L260.73,333.17L262.28,333.08L266.32,331.21L267.94,331.2L269.57,331.83L271.71,333.9L272.88,336L275.54,339.1L275.78,343.4L276.43,344.92L279.16,346.59L280.82,347.14L283.92,346.25L285.42,347.7L285.72,350.66L284.44,354.42L279.2,361.02L276.42,367.65L276.42,367.65L275.51,369.52L273.71,371.83L273.7,372.75L276.16,376.52L282.2,382.91L283.46,386.71L283.32,389.83L282.58,390.62L279.27,392.42L275.24,396.2L274.03,396.7L272.36,395.73L270.5,393.08z"/>
		<path id="AZ-XIZ" title="Xızı" class="land" d="M629.62,218.56L625.73,218.87L623.49,219.93L623.12,221.28L623.97,222.58L623.97,222.58L623.43,224.34L623.43,224.34L622.31,226.45L621.33,227.53L619.31,228.71L617.39,230.68L616.75,231.97L613.83,235.4L613.83,235.4L613.41,240.74L611.2,243.16L611.2,243.16L609.15,244L609.15,244L604.17,244.02L602.36,244.77L602.36,244.77L600.78,244.96L600.78,244.96L594.95,245.32L594.95,245.32L586.7,240.93L583.82,238.42L581.73,237.24L580.35,235.63L577.58,229.86L576.23,228.5L571.17,225.76L566.88,225.27L563.66,223.35L553.45,213.04L551.09,209.54L548.64,208.03L545.97,205.57L537.65,200.71L534.81,200.89L534.81,200.89L531.5,197.27L529.03,191.98L529.1,188.18L531.35,184.66L531.35,184.66L536.42,179.79L539.64,178.14L539.64,178.14L543.26,178.26L546.86,176.55L548.9,176.14L556.61,172.98L557.64,171.9L558.15,168.89L559.34,165.77L565.64,162.74L566.45,163.12L566.84,164L566.89,170.64L568.27,173.14L570.24,174.41L572.74,175.12L583.64,181.34L595.76,181.79L597.43,181.22L600.02,179.08L601.04,178.78L604.94,180.19L607.27,180.29L608.7,179.73L608.7,179.73L611.05,182.1L612.11,184.3L613.38,185.92L614.64,186.74L617.77,187.43L619.42,188.32L622.72,187.98L624.47,188.56L626.06,189.69L627.46,191.52L629.64,196.2L629.2,196.73L628.35,196.9L628.11,197.44L628.83,199.37L627.31,201.96L627.01,203.69L627.16,209.25L628.16,216.22z"/>
		<path id="AZ-XVD" title="Xocavənd" class="land" d="M337.05,382.59L335.1,382.99L330.87,384.87L324.25,384.89L320.21,386.64L317.7,386.62L314.12,390.5L306.84,394.04L300.75,394.11L299.51,394.51L299.09,395.71L299.35,397.11L300.07,398.02L302.09,399.2L304.09,399.49L306.82,397.92L308.05,397.65L308.96,398.21L309.16,399.16L308.78,400.43L307.23,401.55L304.6,402.68L301.37,402.91L300.3,403.44L298.18,406.13L298.07,407.11L298.61,408.16L299.87,408.91L300.58,408.88L302.94,407.7L306.8,404.42L308.62,404.06L309.87,404.71L309.4,406.79L309.67,408.77L307.85,409.91L307.15,411.1L307.9,413.33L308.16,416.56L308.75,418.67L307.99,419.2L304.06,419.6L304.27,422.49L302.94,423.92L302.94,423.92L301.72,425.96L299.77,427.37L299.29,428.32L302.21,434.46L302,435.58L300.8,436.27L299.03,435.64L297.83,435.78L294.41,438.71L292.89,439.49L290.9,439.35L290.56,438.62L290.97,436.56L281.65,430.31L281.36,429.05L282.01,426.92L281.7,426.39L280.11,425.39L277.33,424.62L273.95,421.91L271.86,421.95L270.53,423.57L273.31,429.94L270.53,435.2L269.09,435.61L264.58,433.07L260.67,432.39L260.67,432.39L263.06,428.76L264.4,425.4L261.62,421.13L260.18,420.67L253.94,422.25L251.29,421.38L248.4,420.94L248.4,420.94L253.88,417.02L254.49,415.92L254.41,410.57L253.81,409.54L251.48,407.96L251.22,407.14L251.53,405.89L252.44,404.9L253.97,404.13L258.58,403.91L260.95,402.96L260.95,402.96L268.05,391.57L268.05,391.57L270.5,393.08L272.36,395.73L274.03,396.7L275.24,396.2L279.27,392.42L282.58,390.62L283.32,389.83L283.46,386.71L282.2,382.91L276.16,376.52L273.7,372.75L273.71,371.83L275.51,369.52L276.42,367.65L276.42,367.65L282.62,364.4L287.22,362.85L289.11,360.61L290.28,354.65L290.65,353.96L291.37,353.64L294.07,353.49L296.41,352.64L298.56,352.73L299.65,353.26L303.11,356.45L305.91,358.06L309.31,359.71L316.08,362.18L316.98,361.21L318.55,357.95L319.86,356.58L326.49,356.31L328.79,357.07L328.79,357.07L329.27,361.42L329.83,362.56L331.15,363.82L339.48,369.19L341.32,372.17L341.31,374.18z"/>
		<path id="AZ-YAR" title="Yardımlı" class="land" d="M500.4,513.28L497.43,516.13L479.13,526.25L474.93,530.58L470.26,533.09L467.83,536.63L465.35,539.41L464.87,544.49L464.21,545.35L462.24,546.67L460.89,550.05L460.89,550.05L456.37,547.83L454.1,545.77L452.79,545.07L449.08,544.36L445.23,542.5L442.85,542.08L441.77,539.9L434.65,535.42L430.76,529.97L429.81,527.42L429.23,523.62L429.82,519.25L430.71,518.51L432.85,519.44L436.3,519.3L437.94,518.79L438.66,517.71L438.97,514.71L439.47,513.91L441.9,512.93L446.69,512.54L449.5,511.23L454.57,511.06L460.63,509.63L466.58,509.03L475.55,503.52L476.76,501.29L476.71,499.69L476.71,499.69L478.45,499.36L481.38,497.82L482.96,498.02L487.26,500.84L491.17,505.52L491.17,505.52L490.86,509.04L492.35,512.59L493.07,512.94L494.63,512.91L497.57,511.42z"/>
		<path id="AZ-YE" title="Yevlax City" class="land" d="M312.19,223.62L309.98,225.45L309.49,227.78L310.22,230.24L312.8,231.95L316.23,232.2L318.32,231.22L318.81,229.13L318.44,225.82L317.34,224.6L314.64,223.37z"/>
		<path id="AZ-YEV" title="Yevlax" class="land" d="M262.47,172.48l0.1,4.81l0.99,3l0.01,10.87l-0.2,1.12l-2.92,5.66l-0.08,4.86l0.85,1.27l2.44,1.39l5.66,0.77l3.49,2.3l0.36,0.66l-2.28,3.64l-2.34,2.52l-2.52,3.74l-0.26,3.8l0.35,1.34l1.78,0.13l5.23,-3.5l1.62,-0.56l2,0.26l3.48,2.24l0.93,1.14l0.3,2.13l-0.14,4.76l-0.93,2.32l-0.07,1.59l1.82,5.43l0.74,0.87l1.31,0.42l3.97,-1l1.65,0.01l1.15,0.44l-0.62,4.55l-0.72,1.14l-0.25,1.99l-0.93,0.65l-1.35,-0.03l-1.21,0.57l0,0l0.89,1.36l0.29,3.12l1.22,2.68l3.58,3.97l0,0l3.62,-4.55l2.14,-4.11l2.75,-3.81l2.11,-0.31l2.02,0.38l3.7,3.07l1.09,0.36l5.45,-3.79l1.91,-2.33l2.13,-7.12l0,0l3.23,-1.41l1.65,-1.42l1.06,-1.31l2.22,-4.39l0.13,-3.73l-2.07,-4.54l-0.06,-4.92l0.98,-2.81l0.35,-2.61l1.77,-3.47l2.62,-11.87l0,0l-7.86,-2.75l-7.4,-4.19l-2.63,-0.47l-6.7,-3.43l-6.84,-4.21l-9.13,-4.8l-3.42,-1.4l0,0l-7.35,-3.48l-10.21,-6.47l-4.94,0.36L262.47,172.48zM301.64,204.42l-0.81,1.29l0,0l-2.77,1.6l-3.37,1.03l-1.55,0.09l-5.17,-2.71l-3.01,-4.13l-0.01,-0.95l0,0l2.1,-3.81l0,0l1.21,-0.2l0,0l5.49,2.8l0.96,0.02l0,0l3.2,-1.56l1.16,-0.03l1.15,1.21l0.7,0.18l0,1.67l0.94,0.89l0.45,1.07l0,0L301.64,204.42zM318.32,231.22l-2.08,0.98l-3.43,-0.25l-2.57,-1.72l-0.74,-2.45l0.49,-2.33l2.21,-1.84l2.45,-0.25l2.7,1.23l1.1,1.23l0.37,3.31L318.32,231.22z"/>
		<path id="AZ-ZAN" title="Zəngilan" class="land" d="M279,478.08L276.42,479.43L274.78,482.89L269.34,488.26L264.67,493.96L263.51,499.05L260.14,501.69L256.62,501.92L255.42,503.48L253.29,505.11L250.79,509.54L249.07,511.7L246.6,513.72L244.24,517.41L236.05,524.63L235.26,518.99L232.55,514.43L231.61,512.01L232,510.24L233.46,508.28L233.52,507.46L232.97,506.22L233.11,504.81L235.56,497.42L236.56,496.07L236.67,494.74L235.9,494.25L233.77,493.93L232.93,492.9L233.37,491.39L234.6,490.57L234.75,489.39L233.54,487.57L231.44,486.39L230.89,485.22L230.88,483.35L228.72,481.86L228.67,480.58L229.71,478.72L228.57,478.02L226.53,478.9L224.74,477.77L222.96,477.43L221.8,474.12L221.82,470.93L222.57,469.9L223.8,469.66L225.53,469.9L228.72,471.47L229.14,471.37L231.54,468.29L233.02,467.68L233.54,467.88L234.19,468.93L234.58,474.08L235.2,475.24L236.37,473.53L237.78,472.38L240.19,468.8L242.35,467.29L245.88,466.55L246.94,465.78L246.94,465.78L248.58,467.59L248.94,469.68L248.81,472.65L247.81,475.55L247.88,480.31L249.45,483.58L251.02,483.58L252.24,483.1L253.76,481.3L257.12,475.33L260.88,471.65L263.69,469.96L266.44,467.58L272.49,464.43L272.49,464.43L273.31,465.71L275.17,467.22L277.7,470.74L278.81,472.94z"/>
		<path id="AZ-ZAQ" title="Zaqatala" class="land" d="M217.92,76.22L210.24,73.15L208.96,72.04L208.39,71.02L208.74,68.5L208.44,66.95L204.82,62L203.9,60.03L203.9,60.03L208.68,62.65L210.07,62.86L216.02,59.4L218.63,56.77L224.44,56.4L233.24,50.91L235.59,46.73L236.82,42.87L237.14,40.2L238.64,37.35L244.4,32.89L246.18,31.98L248.87,29.62L250.96,28.47L256.83,22.5L258.05,19.76L258.3,13.27L258,12.13L257.07,10.88L257.07,10.88L259.8,8.78L261.04,8.27L262.68,7.86L263.46,8.38L264.33,9.63L264.72,12.65L265.97,16.23L266,18.86L266.97,21.58L273.57,28.2L274.36,29.29L274.71,30.56L275.53,31.12L276.75,31.7L278,31.72L282.12,31.07L283.07,31.36L284.03,32.38L284.89,33.91L285.3,36.12L285.15,39.22L288.02,44.21L290.53,47.31L293.98,47.73L295.04,48.22L296.13,49.85L296.39,51.07L296.02,52.02L295.01,52.78L294.27,54L294.26,55.04L294.41,56.1L297.17,62L299.8,61.57L299.8,61.57L298.5,65.35L296.87,67.98L293.63,68.72L289.82,71.42L287.68,71.42L285.36,70.44L282.1,70.15L280.29,69.34L277.65,68.92L274.8,67.88L267.6,67.79L262.03,69.33L260.54,70.97L259.87,73.46L252.3,88.54L249.88,92.17L247.98,93.94L247.98,93.94L246.95,92.96L246.46,94.22L245.83,94.03L245.23,92.92L244.67,93.36L243.94,93.34L244.27,91.26L243.83,90.71L243.38,90.7L242.89,91.87L242.19,91.03L238.22,89.75L237.9,88.94L228.34,85.3L224.79,82.74L223.71,80.72L222.52,79.5L221.69,79.06L218.37,78.64L218.32,77.03z"/>
		<path id="AZ-ZAR" title="Zərdab" class="land" d="M407.69,314.65L406.05,317.75L404.52,318.71L394.82,318.08L394.82,318.08L397.76,316.02L398.14,315.37L397.12,314.14L393.33,311.4L393.33,311.4L392.64,307.71L391.3,304.59L389.76,303.41L387.08,302.31L386.22,302.61L385.56,303.52L384.93,306.26L384.36,307.01L378.9,305.26L376.62,306L373.36,306.16L371.04,306.99L367.78,307.2L364.33,309.04L362.31,308.9L360.73,305.71L360.26,303.68L357.65,300.61L357.23,299.65L357.19,294.72L357.86,289.42L357.86,289.42L357.94,288.64L357.18,288.26L352.67,288.48L351.04,287.47L350.67,285.85L352.26,282.96L352.26,282.96L361.2,274.26L361.85,271.84L365,265.2L365,265.2L368.85,268.09L375.92,271.9L381.97,277.99L384.17,281.93L385.07,282.56L387.05,282L392.33,279.07L394.47,279.13L397.32,280.18L403.44,280.35L406.83,279.43L409.47,279.14L411.28,278.4L419.35,278.58L419.35,278.58L418.54,282.29L418.48,291.02L419.84,297.08L420.61,298.88L420.48,304.78L417.88,307.74L416.86,309.57L414.93,311.5L413.41,312.26L410.37,312.75z"/>
	</g>
</svg>