<?xml version="1.0" encoding="utf-8"?>
<!-- (c) ammap.com | SVG map of Bahrain - Low -->
<svg xmlns="http://www.w3.org/2000/svg" xmlns:amcharts="http://amcharts.com/ammap" xmlns:xlink="http://www.w3.org/1999/xlink" version="1.1">
	<defs>
		<style type="text/css">
			.land
			{
				fill: #CCCCCC;
				fill-opacity: 1;
				stroke:white;
				stroke-opacity: 1;
				stroke-width:0.5;
			}
		</style>

		<amcharts:ammap projection="mercator" leftLongitude="50.229512" topLatitude="26.288795" rightLongitude="50.823872" bottomLatitude="25.571657"></amcharts:ammap>

		<!-- All areas are listed in the line below. You can use this list in your script. -->
		<!--{id:"BH-13"},{id:"BH-14"},{id:"BH-15"},{id:"BH-16"},{id:"BH-17"}-->

	</defs>
	<g>
		<path id="BH-13" title="Al ‘Āşimah" class="land" d="M220.17,46.17l0.5,-0.95l5.58,0.24l-0.43,2.38l-2.14,0.71l2.79,0.24l0.64,-3.33l4.72,0.95l1.71,-0.95l0.64,2.38l1.07,-1.66v3.09l1.29,1.19h-1.5v0.95l3.86,0.24l0.43,2.38l1.93,0.24l-0.86,-1.19l2.13,0.23l0.87,-2.37l2.14,-0.48l2.79,0.71l0.21,1.43l1.07,0.24l-0.86,2.38l2.36,-1.9l0.43,0.71l-1.29,0.47l2.79,0.48l1.71,-2.85l-0.64,-2.14l3.43,-0.48l1.93,-1.66l-0.64,-1.19l3.43,-0.24l1.07,-0.95l-1.07,-1.19l1.07,-1.43l2.57,2.38l3.22,-4.28h2.14l5.58,-3.09l3,-4.52l1.72,-6.66h0.86l-3,10.22l0.43,1.67l5.57,1.66l1.29,3.8l-1.07,2.14l1.29,5.94l-1.5,0.95l-1.28,4.99l0.65,0.95l2.57,-1.19l2.57,0.24l0.21,1.43l0.21,-1.9l2.79,0.71l1.5,4.28l1.28,-1.66l-0.21,-1.9l2.36,-0.24l-1.07,2.14l1.28,1.19l-0.43,0.95l1.93,-1.19l3.43,0.71l0.86,6.18l-6,6.18l5.14,4.04l-6.22,-2.14l-0.86,-1.43l-1.93,1.66l-3,-1.43l-0.43,1.9l2.15,0.24l-0.21,1.43l-6.86,-0.71l-0.64,1.42l-3.43,1.43l-3.43,-1.66l-0.21,-2.38h-2.57l0.43,-3.33l-3.86,-0.47l-1.29,-1.9l-1.5,1.43l-1.29,-0.71l-2.36,2.14l-2.36,0.24l0.22,1.19l-1.07,0.48l-5.79,-1.19l-0.21,2.38l2.36,0.71l-2.35,0.48l0,0l-4.29,-12.52l-4.39,-6.7l-3.17,-1.68l-2.72,2.01l-10.43,3.02l-11.49,-2.85l-0.6,-2.52l3.02,-3.85l0.3,-2.35L220.17,46.17zM274.69,83.25l1.08,0.24l-1.07,2.61l1.72,3.09l3,0.24v6.41l-4.29,-2.14l-2.57,2.61h-2.78v-4.51l1.5,-0.24l-1.29,-3.09l1.93,-3.09l1.5,-0.48v-1.42L274.69,83.25zM237.17,45.69l3.22,0.95l0.43,2.85h1.07l-0.43,-0.95l1.5,0.48l0.22,2.14l-3.22,0.71l-1.5,-2.85l-0.64,0.95l-1.93,-0.95L237.17,45.69zM238.67,36.66l0.86,2.14l0.43,-1.42h1.29l-0.21,1.9l-1.29,1.43l-3.64,0.71v-3.8L238.67,36.66zM250.25,48.31l0.21,2.62l-1.5,0.24l-0.43,-1.9L250.25,48.31z"/>
		<path id="BH-14" title="Al Janūbīyah" class="land" d="M435.06,575.59v1.18l-2.14,-0.24L435.06,575.59zM417.91,571.57l1.5,3.78l0.43,-1.42l1.07,0.47l-0.43,5.68h-3l-6.86,4.97l-0.65,2.13l2.36,2.37l-2.57,1.65l0.64,0.95l-1.29,0.71l-0.21,2.36l-2.57,1.18l-1.07,2.6l4.5,4.49l10.07,6.15h2.14L423.05,612l-8.15,-5.2l-10.29,-2.84l-1.29,-2.13l-3,-0.47l-0.21,-1.89l-1.72,-0.23l-1.5,-2.84l0.64,-5.91l1.5,-0.24l-0.86,-3.55l3,-2.36v-3.07l2.57,-4.26l2.57,-0.24l3.64,-2.6l0.43,1.66l1.93,-1.89l1.93,0.71l0.86,-2.6L417.91,571.57zM426.27,570.15v1.66l-1.93,-0.71v-0.94H426.27zM426.05,558.56l2.36,2.37l-0.65,1.89l-1.71,0.24l0.22,-1.42h-0.86l-0.43,1.66h-1.29l-1.07,-2.13L426.05,558.56zM433.13,536.33l2.79,0.47l0.86,2.84l-0.64,1.42l-1.71,-2.37l-1.5,0.24l-0.86,4.97l1.07,-0.47v-2.36h1.93l-0.43,1.89l1.5,2.6h-3.22l1.29,2.6l2.14,0.47l2.14,-3.55l3.22,-1.42l4.5,2.13l3.65,-1.18l1.5,3.55l3.22,1.42l0.43,3.31l-3.43,3.79l2.36,2.36l-0.86,1.89l-6.43,1.18l-2.78,1.89l-2.14,-0.94l1.71,-2.84l-5.15,0.24l-4.29,3.55l-2.36,-1.42v-3.55l-2.36,-4.97l1.93,0.48l0.22,-2.13l2.36,-1.65l-4.29,-3.31l1.29,-3.55l-1.07,-0.47l-1.5,1.18l-1.29,-0.94l-2.36,-4.97l1.93,-0.94l0.43,0.94l2.36,0.24l0.86,-2.13L433.13,536.33zM421.34,529.94l3.43,4.97l-4.29,0.95l-1.07,1.66l-1.93,-2.13l-0.21,-1.89l2.36,-0.23l0.86,-3.31H421.34zM428.84,522.85l0.65,1.18l-1.72,1.18l-1.07,-2.13L428.84,522.85zM416.19,518.59l1.07,0.95l-0.43,1.42l-1.5,-0.95L416.19,518.59zM451.57,513.15v3.55l4.29,1.42l1.08,2.13l1.71,0.71l-1.93,1.18l-0.65,4.73l-1.29,1.66l-5.36,1.42l-3.21,3.08h-1.29l-2.14,-1.42l0.86,-2.13l-2.36,-1.18l-1.29,-4.02h1.07l0.22,-2.6l2.14,-2.13l5.36,-0.71l0.22,-5.68H451.57zM439.77,507.94l-0.21,1.18h-1.71L439.77,507.94zM439.35,502.5l2.36,0.71l-2.79,0.47l-0.43,-0.94L439.35,502.5zM434.63,477.41l0.21,1.89l-1.93,0.24l-0.21,-1.18L434.63,477.41zM440.42,475.52l-0.43,1.89l1.07,1.42l-4.72,5.21l0.65,1.19l1.5,-0.24l-0.86,1.89l0.64,4.73l-4.29,4.5l-1.07,3.79l-5.36,1.18l1.28,2.84l-1.93,-0.71l-1.71,4.5l1.28,2.13l2.15,-1.18l0.86,-2.6l1.5,0.47l0.64,1.19l-0.86,1.65l1.07,2.13l1.07,0.95l2.79,-0.47l0.64,1.42h1.29l0.64,4.26l-4.5,0.71l-0.21,2.13l-3.43,0.95l-1.29,-0.47l2.15,-1.66l-0.43,-0.71l-4.93,0.24l-0.86,2.13l-2.79,1.66l-1.71,-0.47l1.29,-0.47l-0.21,-2.37l-0.86,0.24l-1.07,-1.66h-3l-1.07,-1.65l-1.93,1.89l-4.5,-2.37h-3.21l-4.72,3.08v2.13l3.65,2.84l7.93,-0.94l0.43,-1.18h1.71l0.43,1.42l0.86,-0.94l3.86,0.24l-0.64,2.13l-2.15,0.47l-2.36,-1.18l-1.28,1.89l-3.86,0.95l-1.72,6.86l2.57,1.66l0.43,2.6l3.43,-0.24h-1.07l-0.86,1.65l-0.21,2.13l1.07,0.95l-1.29,0.23l-0.21,2.13l5.36,-1.18l0.22,3.31l2.57,1.18l-1.07,4.97l2.14,-0.47l1.07,1.89l-1.93,2.84l-1.5,-1.42l-3.65,0.24l0.22,3.31l-1.5,-0.71l-2.57,3.55l-0.21,3.31l3.43,0.95l0.64,1.89l-4.29,2.13l-4.29,5.68l-4.5,-0.24l1.07,-7.1l-2.78,-4.73l1.29,-0.71l-1.07,-1.18l1.93,-1.65l0.64,-2.6l-0.43,-5.68l-4.29,-5.44l-4.29,-0.24l1.29,-3.55l-1.93,-0.95l-0.21,-1.42l-3.64,2.13l3.65,-4.26l1.5,0.47l0.43,-1.89h1.29l-0.64,-0.95l-1.5,0.47l-0.21,-1.42l1.07,-0.95l0.65,-4.97l1.29,0.23l0.43,-1.18l-1.71,-3.55l-0.64,1.42l-0.86,-3.07l3,-4.73l0.22,-5.44l4.93,-5.92l0.64,-2.37l4.29,-2.84l1.07,-3.31l1.29,0.24l1.93,-2.37l1.5,-4.73l2.79,-1.42l-0.86,-1.89h1.29l0.65,-1.89l3,-1.42l3,0.71l2.79,-0.71l1.72,3.08l2.14,-1.42l-1.29,-3.08l1.72,-0.71l0.86,-2.13l4.5,-0.94l0.43,-1.89l2.14,-0.24l0.43,-2.13l2.57,-1.66L440.42,475.52zM459.07,467.94l0.43,1.42l-1.93,0.71l0.22,-1.89L459.07,467.94zM430.56,455.16l1.07,1.66h2.36l0.43,3.31l-1.72,2.13l-6.64,1.66l-0.86,1.42l-2.15,-0.24l-0.21,-3.31l-3,-2.13l0.43,-2.37l3,-1.42h1.5v1.42l3.65,-0.71l-0.21,-1.18L430.56,455.16zM415.98,453.74l1.72,1.42l1.93,6.15l-1.29,1.42l-5.57,0.24l-0.21,-0.95h-2.57l-0.86,-3.55L415.98,453.74zM273.5,146.57l7.46,1.09l4.52,-3.26l0,0l1.38,2.39l0,0l0.79,4.14l2.36,4.35l5.11,5.44l6.82,5.08l-0.86,1.78l2.79,1.42l-1.72,0.48l-0.43,2.14l-1.93,1.66l1.29,4.99l-0.86,1.66l0.64,1.19h2.36l0.86,4.27l1.5,0.24v0.95l-4.93,2.14l0.86,11.87l-1.29,1.42l1.71,7.12l3.65,-0.47l1.5,2.85l1.93,-0.71l1.07,0.95l0.65,2.14l-1.72,4.04l-1.71,-0.95l-0.64,2.85l-1.5,-0.47l1.07,1.19l-1.5,10.44l1.07,4.27l-0.64,2.37l-3.43,1.19l0.64,1.42l-1.29,8.78l-4.07,21.35l3.22,1.19l-4.07,0.95l0.64,8.3l-1.5,2.13l2.79,3.56l-1.93,1.42l1.07,4.98l-2.36,2.37v4.98l1.72,2.37L295.27,304l-1.29,9.25l-3,6.88l2.36,1.42l0.64,1.66l-0.21,4.27l-1.29,0.48v9.72l-0.86,-4.5l-1.5,0.48l-0.64,1.66l2.36,4.03l-1.29,2.61l-0.86,7.58l1.07,9.24l-2.36,7.35l3.43,8.06l-5.36,4.98l-4.72,9.48l-4.5,2.61v2.61l-4.07,1.42l-9.65,10.66l-3.22,6.87l0.43,5.92l-3.43,-4.97l-2.14,-6.4l-4.07,-7.11l-2.79,-13.5v-8.76l-2.57,-6.87l-19.08,-31.99l-1.71,-7.11l-3.43,-4.27l0.64,1.9l-1.26,-0.5l-0.03,0.74l2.79,5.93l-0.43,0.95l-13.72,-17.3l-5.57,-5.21l-1.07,-2.61l-16.08,-9.01l-7.07,-10.2l-3.86,-7.83l0.22,-2.37l-1.5,-3.08l0.64,-6.88l-1.5,-7.35l-1.29,-1.42l2.36,0.24l2.79,-8.06l9.43,-11.62l0.64,-13.05l-0.86,-1.19l1.5,-1.19l-0.86,-1.19h1.93l1.29,-1.9l1.07,-4.75l5.57,-9.26v-3.32l-1.5,-1.56l0,0l10.62,-3.91l0,0l18.33,-3.19l4.45,-2.61l0,0l-4.71,-45.25l0,0l-4.45,-6.67l0,0l-0.79,-2.03l4.45,-6.38v-7.39l0,0l28.38,10.65l0,0L273.5,146.57z"/>
		<path id="BH-15" title="Al Muḩarraq" class="land" d="M320.57,7.82l4.29,1.73l4.29,0.24l1.93,1.43l-1.29,2.62l-1.5,-0.24l1.93,1.67v2.85l-1.71,3.8l0.86,5.71l-1.93,0.71l0.64,1.19l1.5,-0.48l0.86,6.18h2.79l0.43,1.43l-1.5,1.43h-1.72l0.22,7.61l1.5,-0.24l1.07,1.67l-2.57,-0.48l-0.43,5.23l-1.71,-1.43l-1.93,0.24l2.15,-3.33l-2.36,1.67V46.88l-1.29,-0.71l1.07,-2.14l-2.36,-0.24l-0.86,-1.9l2.79,1.19l0.21,-7.13h-1.29l0.43,5.23l-2.15,-0.48l-0.21,-3.33l-3,0.24v-1.9l-4.07,0.24l-2.79,2.14l0.43,1.43l3.22,-1.9l1.07,0.48l-3.64,2.85l0.43,2.85l-1.5,0.48l-0.64,-5.47l-2.36,-0.24l0.43,-2.38l-1.93,0.48l-2.14,-5.94l1.5,-1.9l-1.29,0.71l-1.93,-1.19l0.65,-1.43l-1.93,1.66l-1.07,8.56l-2.57,3.33l-4.5,0.47l-4.29,-5.71l-2.14,-0.95V20.25l-1.07,-1.9l1.93,-3.8l-1.28,-0.71V9.55l-1.93,-0.24l0.64,-1.43l5.58,1.19l1.07,1.19l1.29,-1.19l-0.64,-1.43l2.36,-2.85l1.07,0.48l-1.29,1.9l1.5,-0.24l1.07,-0.71l-0.86,-1.66l2.14,-1.19l2.15,0.48l-0.22,-2.38h3.43V0.51l2.14,-0.48l1.29,1.19l3.86,-0.24v1.43l3.43,3.81L320.57,7.82zM334.29,49.02l0.21,1.43l3,0.95l-0.64,1.9l14.36,0.48v8.56l-4.5,0.48l-0.21,9.27h2.36l4.08,9.03l1.29,0.71l0.22,2.62h-1.29l-1.72,-3.33l0.21,0.71l-6.64,2.85l-1.07,2.85l1.5,0.71l1.93,3.8h-7.72l-0.86,-2.85h-2.14l0.43,-1.19l-2.78,-4.28l0.21,-3.33l-1.72,-6.89l-3.43,-2.38l-0.21,-3.33l-4.07,-5.7l0.21,-2.38l3,0.71v-2.85l-1.72,-0.24l-0.21,-2.85l3.21,0.48l1.93,-3.09l-0.43,-2.14L334.29,49.02z"/>
		<path id="BH-16" title="Al Wusţá" class="land" d="M321,117.93l3.43,7.13l-6.22,3.33l-1.5,-0.24l-1.07,-2.61l-4.29,2.38l-3,-0.24l0.64,4.51l2.79,2.14v0.95l-1.5,0.24l-0.64,3.56l1.71,-0.24l-0.21,1.19h1.5l3.65,9.02l-0.86,1.19l-1.93,-0.23l0.22,1.9l1.29,-0.24l-1.07,2.61l-2.14,-1.19v-1.9l-1.93,0.24v-2.61l-1.07,-0.24l-5.15,-13.3l-1.5,-1.66l-1.29,0.71l0.65,-1.43l-2.14,-5.7l-1.07,-1.19l-1.93,1.19l5.57,12.83l1.72,3.32l3.22,2.85l1.72,4.99l-0.22,1.19l-3.64,1.19l-3.43,3.8l-0.43,1.42h1.5l-0.43,1.19l-2.14,0.48l1.05,4.55l0,0l0,0l0,0l-10.83,-9.73l-2.35,-4.35l-0.79,-4.13l0,0l-1.37,-2.39l0,0l-4.52,3.26l-2.35,0.22l-26.52,-8.05l0,0l-28.38,-10.65l0,0l-6.28,-19.6l-0.79,-15.96l1.83,-3.19l7.07,-1.74l10.74,-5.22l21.25,-2.4l1.52,0.85l0,0l-1.07,1.34l-1.5,-1.66l0.22,2.38l1.29,0.48l-0.64,1.66l2.57,0.71l-1.71,1.9l1.08,2.61l1.28,0.24l-0.21,2.61l3.43,1.9l2.14,3.33h1.5l0.86,3.33h1.07l-0.21,1.43l1.07,-0.48l0.43,1.9l3.43,0.48l0.86,1.9l4.72,2.85l1.93,2.61l-0.65,0.48l1.5,3.8l2.33,1.19l-0.4,1.66l8.15,-1.19l2.15,0.71l1.5,2.61l1.72,-0.48l0.64,1.66h2.57l-2.14,-1.19l-1.07,-3.09l-4.5,-2.14l-1.07,-2.14l-3,-0.95l0.64,-4.28l-1.5,-0.24l-0.86,-4.51l-1.72,-2.14l2.14,-2.14l-0.64,-1.66l-1.5,0.71l-1.29,-1.9l9.22,-10.69l2.79,-1.19l8.58,0.71l-0.22,2.14l1.07,0.95l-3.64,4.99l1.93,0.24l1.07,4.28l2.36,2.38l0.22,4.28l-1.71,-0.95l0.64,3.09l-2.57,1.43l2.36,12.59l1.5,0.47l0.21,1.19l3,-0.48l0.64,2.85l7.5,-4.99v-4.99l16.51,-8.55l0.21,-3.33l3.22,4.28l-2.57,-1.19l-2.15,3.33l-2.14,0.71l1.29,1.9l3,-0.71l1.07,-1.9h1.93l1.5,-1.42l1.71,2.14l-1.5,1.19h2.14l1.29,1.42v0.71l-3,-0.95l-10.29,1.9l-4.93,-0.95L321,117.93zM300.82,165L300.82,165l1.1,0.79l0.21,-1.07L300.82,165L300.82,165z"/>
		<path id="BH-17" title="Ash Shamālīyah" class="land" d="M259.04,81.9l-1.52,-0.85l-21.25,2.4l-10.74,5.23l-7.07,1.74l-1.83,3.19l0.79,15.96l6.29,19.6l0,0v7.39l-4.45,6.38l0.79,2.03l0,0l4.45,6.67l0,0l4.71,45.25l0,0l-4.45,2.61l-18.33,3.19l0,0l-10.62,3.91l0,0l-1.29,-1.76l1.29,-8.07l-2.36,-3.08l0.43,-9.73l-2.14,-0.95l3.22,-0.95l-0.21,-3.32l-1.28,-1.66l-1.5,0.24l1.07,-0.95l-1.07,-0.71l1.29,-0.24l-1.29,-12.11l-2.14,-1.42l0.21,-1.19h-1.5l1.5,-0.95l-0.86,-1.66l-1.93,0.95l-0.86,-1.19l-0.43,-0.95l1.07,-0.95l-1.72,-0.24l0.86,-1.43l-1.93,0.71l-1.5,-1.19l0.21,-4.28l-2.14,0.24l0.21,-2.37l1.07,0.48l0.65,-1.66l-2.36,-0.48l-3.64,-7.13l-1.07,-2.85l1.07,-2.37l-3.43,-1.19v-2.14l-3.64,1.66l-1.72,-0.95l-0.21,-2.37l4.93,-1.66l-2.79,-10.93l0.21,-2.61l-2.14,-4.75l0.43,-4.51l2.36,-1.9l-1.07,-1.42l-22.51,3.33l0.43,4.75l-1.5,3.8l0.43,3.09l-1.93,7.6l1.72,2.85l-1.29,0.95l0.86,3.8l1.5,-0.24v1.9h1.93l1.07,2.14l-1.5,2.85l0.22,6.65l-8.36,-3.09l-0.21,2.14l-1.07,0.24l0.22,-2.61l-6.86,1.19l-1.5,1.66l-7.07,-0.71l-4.5,-1.9l1.07,-7.13l-3,-1.19v-5.7l0.86,-0.71l-3.43,-2.61l-0.64,-9.74l2.14,-3.33l1.5,-8.32h2.15l-1.07,4.04l1.29,0.71l1.72,-2.38h1.72l0.43,-1.9l2.57,1.43l-0.21,-2.37l1.93,-0.71l-9.43,-5.47l-8.79,-2.61l-29.8,-1.66l-3.43,1.66l-4.29,-2.38l-1.93,1.19l-3,-1.66l-1.71,-3.33l-2.36,-1.42L26.21,64.94L7.56,59.72l-7.29,-0.71l-0.22,-0.95l7.73,0.71l18.65,5.23l39.67,21.86l2.57,0.71l2.79,-0.95l2.36,3.09l5.36,-0.71l1.72,2.61l32.37,1.9l6.22,2.14l6.22,4.28l6.86,2.61l2.36,-0.24l1.07,-2.38V84.2l-1.07,-1.43l-1.07,0.95l0.22,-1.42l-2.79,0.24l-1.07,-3.09l3.22,-0.24l4.5,2.14l2.79,-0.48l-0.64,0.95l1.29,2.38l-2.57,-0.95l-2.14,2.14V99.88l5.36,-1.19l4.29,0.48l1.29,4.04l15.65,-2.61l-3,-0.48l0.64,-0.95l3.65,-0.24l0.22,1.43l3,-0.24l2.15,-4.28l1.93,-1.19l2.36,-6.41l-1.93,-4.04l2.14,-6.89l-1.93,-4.52l-2.57,0.95l-1.72,-3.09v-2.61h-1.5l-0.43,-1.19l0.43,-1.19l2.36,1.19l0.22,-1.19l-2.14,-0.95v-1.67l1.07,-2.61l2.36,0.24l-0.64,-1.9l1.28,0.71l1.93,-1.19l1.5,0.48l-1.07,-1.9l2.57,0.24l2.57,-1.9l-0.64,-3.09l1.29,-0.24l-0.21,-2.38l1.93,1.66l3.43,-1.9l0.21,-1.9l1.5,-0.71l0.43,1.43l4.08,-1.43h3.65l1.29,1.19l1.5,-2.14l4.72,0.48l11.36,-1.66l7.01,1.66l0,0l2.54,5.12l-0.3,2.35l-3.02,3.86l0.6,2.52l11.49,2.85l10.44,-3.02l2.72,-2.01l3.17,1.68l4.39,6.71l4.29,12.52l0,0l0.42,0.93l1.93,-0.45L259.04,81.9zM159.78,73.03l1.72,4.28l-0.86,1.43l-1.5,-0.71l0.64,-1.42l-1.29,-2.85L159.78,73.03zM63.08,93.46l2.57,1.66l-3.86,2.38L63.08,93.46z"/>
	</g>
</svg>