<?xml version="1.0" encoding="utf-8"?>
<!-- (c) ammap.com | SVG map of Bangladesh - High -->
<svg xmlns="http://www.w3.org/2000/svg" xmlns:amcharts="http://amcharts.com/ammap" xmlns:xlink="http://www.w3.org/1999/xlink" version="1.1">
	<defs>
		<style type="text/css">
			.land
			{
				fill: #CCCCCC;
				fill-opacity: 1;
				stroke:white;
				stroke-opacity: 1;
				stroke-width:0.5;
			}
		</style>

		<amcharts:ammap projection="mercator" leftLongitude="88.010067" topLatitude="26.635299" rightLongitude="92.674283" bottomLatitude="20.740327"></amcharts:ammap>

		<!-- All areas are listed in the line below. You can use this list in your script. -->
		<!--{id:"BD-A"},{id:"BD-B"},{id:"BD-C"},{id:"BD-D"},{id:"BD-E"},{id:"BD-F"},{id:"BD-G"}-->

	</defs>
	<g>
		<path id="BD-A" title="Barisal" class="land" d="M240.76,468.87l-1.67,2.4l-5.61,7.07l-0.62,-3.3l-0.75,-2.85l0.08,-0.67l-0.69,-2.63l0.94,-3.84l4.02,-4.3l0.36,-0.39l1.22,-2.49l2.42,-2.29l2.37,-0.45l0.31,6.18l-1.09,2.4l-0.19,3.99L240.76,468.87zM247.45,444.45l-0.44,-1.65l0.1,-4.08l-0.75,0.48l-0.57,2.66l-1.2,1.9l-0.31,2.85l2.45,-2.4L247.45,444.45zM241.75,416.39l-0.29,-0.78l-3.93,-3.17l-0.7,0.45l1.87,4.26l3.52,2.19l0.26,-0.62l-0.1,-0.45l0.1,-0.73l-2.4,-0.92l1.44,-0.15L241.75,416.39zM236.45,405.7l0.74,-1.28l0.43,1.27l0.73,-0.1l0.16,-0.81l-1.74,-2.17l-2,0.65l0.03,1.99l1.64,-0.31l-0.54,0.77L236.45,405.7zM245.89,452.67l-0.34,-3.33l-3.1,0.39l-1.69,5.2l3.44,-0.56L245.89,452.67zM232.63,486.35l1.59,-1.26l-0.14,-0.86l-0.74,-1.18l-0.76,0.65L232.63,486.35zM238.72,477.31l0.81,-0.41l1.09,-1.21l-1.15,-0.33l-2.26,2.06L238.72,477.31zM195.7,485.83l-2.42,2.23l-1.92,-0.16l-2.74,-2.19l0.64,-3.85l-0.62,-0.42l0.68,-2.13l3.59,-2.07l0.66,-1.26l-0.15,-2.34l1.59,-4.03l4.6,-4.1l1.65,-2.95l2.83,0.84l2.57,-1.4l0.9,-4.37l1.31,-2.64l-0.83,-3.4l-1.04,-0.28l0.05,-3.63l-1.25,-4.5l0.31,-2.32l0.66,-0.73l2.28,0.53l1.22,-0.56l1.2,-2.2l0.62,-4.91l2.68,-2.35l0.65,-3.39l3.83,-0.17l0.96,-1.34l0.03,-1.36l1.34,0.83l3.79,0.73l1.07,2.63l1.87,-1.6l-1.38,-3.7l3.34,-2.6l-1.4,-4.26l5.88,-0.94l5.45,3.78l0.75,1.14l0.57,2.94l1.64,2.72l-1.12,2.03l-0.52,-1.17l-0.03,4.17l3.95,4.98l-2.63,9.87l-1.17,1.93l-4.99,4.79l-1.43,3.61l-1.69,1.17l-0.58,1.3l-5.97,7.6l-3.97,-1.12l-1.18,0.49l-4.07,3.3l-2.52,6.87l-1.94,-1.19l-2.04,1.69l-0.71,2.24l-1.46,-0.8l-1.09,-1.64l-2.3,-0.97l-0.21,0.53l-2.93,0.62l-0.87,-0.7l-1.04,0.36l-1.82,2.82l1.04,2.31l-2.5,0.17l-0.63,0.87l0.23,1.68L195.7,485.83zM240.16,384.46l0.75,0.33l1.62,0.15l0.36,-1.97l-2.5,0.84L240.16,384.46zM241.48,375.1l-2.09,-4.28l-0.61,-1.23l-2.7,1.06l-0.76,-0.29l0.49,-0.29l2.57,-1.11l0.02,-0.84l-1.9,-0.28l-1.48,0.74l-2.71,2.32l-0.17,0.1l-4.27,1.29l-1.87,1.32l3.1,0.68l2.74,1.84l1.11,0.8l0.57,-0.61l3.47,7.03l2.75,-0.49l1.93,-1.66l0.47,-1.4L241.48,375.1zM191.72,476.28l-3.93,-0.58l-1.78,-1.73l-0.83,-3.44l3.81,-1.63l0.7,-1.76l-0.47,-3.71l0.42,-2.32l3.67,-3.21l-1.04,-1.68l-3.51,-1.79l3.88,-1.43l1.25,-1.26l0.7,-3.83l1.77,-0.87l0.76,-1.65l-0.08,-2.35l-1.43,-3.75l1.82,-1.73l2.07,-3.6l3.42,-3.09l0.03,-2.74l1.77,-3.08l0.18,-0.76l1.48,-1.43l-0.68,-1.21l-1.93,0.45l0.52,-3.22l1.43,-2.94l-1.85,-1.65l-0.75,-3.2l3.05,-1.21l2.84,0.7l2.37,-0.95l1.38,0.34l1.2,-2.66l3.12,0.17l1.01,1.6l0.78,-0.08l2.97,-5.22l1.34,-0.65l-0.29,-2.86l1.12,-0.1l0.9,1.4l2.13,-0.48l0.6,-0.87l-0.96,-1.21l1.07,-1.21l2.07,0.52l2.95,2.89l0.94,2.25l-1.02,0.94l1.01,-0.21l0.4,10.42l-5.86,1.6l1.13,4.4l-2.44,1.96l-0.23,1.04l1.09,2.77l-1.08,1.1l-1.19,-1.97l-3.35,-0.62l-1.59,-1.01l-0.81,0.25l-0.44,2.16l-1.26,0.62l-1.86,-0.5l-1.48,0.48l-0.34,2.71l-3.35,4.1l-0.83,5.5l-0.89,0.35l-1.2,-0.53l-2.39,0.9l-0.7,1.18l0.92,9.98l2.03,3.72l-1.5,2.67l-0.83,3.89l-4.66,0.18l-2.82,3.72l-3.58,2.71l-2.01,3.63L191.72,476.28zM231.81,397.16l-0.97,-1.77l-1.21,-0.06l0.15,1.31l1.82,1.57L231.81,397.16zM246.36,424.8l-2.26,1.15l-2.29,4.48l4.87,5.57l-0.36,-3.83l0.6,-3.98l-0.03,-0.56l0.34,-2.18L246.36,424.8zM247.67,476.69l-2.66,4.4l-1.18,4.07l2,-0.33l1.39,-0.13l2.33,-2.93l1.15,-1.32l1.49,-3.84l-2.29,-0.17L247.67,476.69zM243.72,473.45l-1.92,-2.36l-1.63,1.58l-0.63,2.15l1.7,0.48l0.26,-0.01l1.68,0.99l1.37,-1.2L243.72,473.45zM239.32,477.73l-3.17,0.54l-2.05,2.94l-0.07,1.55l0.77,2.26l5.35,0.69l-0.13,-1.31l1.2,-1.45l1.44,-4.86l0.37,-1.16l-1.77,-1.29L239.32,477.73zM256.13,481.34l-1.5,1.35l-0.99,2.3l0.35,3.27l1.31,-0.17l2.45,-4.99l-0.74,-1.45L256.13,481.34zM262.23,482.99l-1.45,0.14l-1.53,3.01l1.36,-0.03l-0.11,-1.11l0.97,-0.84l0.09,0.94h0.58l0.91,-0.8l-0.19,-0.72L262.23,482.99zM247.76,419.36l-2,-0.84l-2.19,0.42l-0.96,1.29l0.47,1.54l1.33,0.78l0.81,1.82l2,0.39l-0.21,-2.69l-0.44,-1.43l0.42,-0.64L247.76,419.36zM258.67,419.14l8.99,11.16l-0.48,3.23l-1.97,3.54l0.08,10.43l-1.67,11.32l-1.09,2.93l-2.4,3.86l-4.35,3.24l-4.08,4.57l-3.79,1.12l-2.27,0.2l-1.18,-1.26l-1.8,-2.41l-0.26,-1.58l2.16,-6.7l0.42,-7.52l2.36,-2.87l2.55,-6.19l0.63,-5.67l-0.94,-3.78l-0.55,-16.7l-1.46,-2.2l-2.95,-0.95l-0.36,0.46l-1.6,-0.72l-2.57,-3.17l-3.63,-1.82l1.03,-1.69l2.88,-1.76l0.16,-1.78l-0.94,-3.06l-0.67,-0.44l-1.71,-0.11l0.13,-3.69l-0.42,-0.56l-0.85,-0.73l-0.03,4.21l-1.04,0.55l-2.55,-3.72l-0.59,-3.06l-1.19,-1.18l-0.81,0.23l-0.72,-2.29l-1.02,0.23l-1.2,1.66l-0.52,-0.03l0.51,1.04l0.47,1.46l-1.78,1.95l1.07,1.39l-1.65,1.01l-0.75,-1.74l-1.33,-0.14l-0.52,0.93l0.18,2.61l-0.99,0.65l-3.2,5.3l-1.12,-1.63l-3.41,-0.39l-1.27,2.83l-1.72,-0.42l-1.9,1.04l-2.81,-0.84l-3.36,1.32l0.73,3.79l1.85,1.43l-1.25,1.74l-0.91,4.15l0.62,0.67l1.98,-0.45l0.21,0.64l-1.64,1.32l-1.82,3.73l-0.08,2.77l-2.97,2.32l-2.68,4.45l-2.11,1.99l0.03,1.6l1.33,2.24l-0.73,2.4l-1.9,2.74l-0.62,3.69l-3.67,0.89l-1.07,0.98l0.34,2.54l3.65,1.37l-2.86,1.68l-1.38,1.82l-0.24,1.73l0.94,2.85l-3.66,3.14l-1.12,2.14l1.6,6.6l-1,1.39l-1.81,0.65l-2.04,-1.14l-0.5,-4.58l-1.4,-2.2l-1.54,-4.89l1.01,-6.68l-3.09,-8.9l-0.91,-5.52l5.01,-11.57l5.15,-4.38l1.16,-5.4l2.68,-0.15l-0.29,-0.66l-1.82,-0.28l-2.47,1.24l0.84,0.47l-0.44,3.33l-7.34,6.38l-2.23,-2.31l0.89,-2.79l0.09,1.23l3.04,-1.83l2.19,-0.45l0.81,-1.19l-1.07,-1.17l-2.18,0.39l-2.04,-0.6l-0.6,-1.28l0.67,-1.6l2.49,-0.05l4.37,1.17l-0.04,-1.33l-4.05,-0.26l2.89,-3.67l1.05,-4.22l-0.95,-1.05l-3.32,-0.48l0.83,-3.94l-3.23,-1.76l0.83,-1.72l1.36,1.52l0.88,-0.41l1.29,-1.16l-0.77,-0.9l-2.34,-0.8l-2.85,0.54l-0.91,-0.86l4.07,-2.93l2.19,0.49l0.28,-2.98l-1.89,0.13l0.12,-1.4l-0.89,-0.9l3.39,-0.6l-0.48,-1.57l-1.83,-0.22l1.91,-2.22l1.06,-0.68l-0.91,-3.77l2.34,1.1l5.04,-1.55l1.63,-6.28l2.26,-0.52l0.14,-3.46l1.06,-0.06l2.42,-3.51l2.67,-0.15l0.79,-3.22l0.73,-0.68l-0.74,-0.59l1.63,-0.48l0.97,-1.42l2.81,1.12l2.17,-1.46l1.83,2.34l-0.41,3.56l0.51,0.48l-0.9,1.87l0.88,2.21l0.68,-1.02l1.6,0.01l-0.56,0.84l0.37,0.65l1.63,-1.56l1.04,0.63l3.65,-0.29l0.23,-2.59l-1.55,-3.05l0.87,-2.38l4.82,-0.2l4.84,1.59l0.21,0.68l-1.17,1.09l-2.49,0.55l3.72,0.75l-2.4,0.92l5.35,2.23l0.7,0.39l4.01,3.15l2.08,4.38l-3.38,2.78l0.03,0.51l-1.61,3.06l0.54,2.19l0.92,0.58l0.13,0.65l1.33,-1.74l-1.98,-2.3l2.71,-3.03l0.18,-0.87l1.38,-0.67l9.11,1.71l3.1,2.67l1.61,2.61l-1.07,0.96l-2.03,0.45l-5.75,-0.45l-4.24,1.8l-2.71,-0.98l-1.04,0.36l2.43,0.69l1.04,1.68l2.51,-2.16l3.18,-0.48h0.68h0.34l2.63,0.51l1.64,0.91l4.74,14.58l2.11,2.3l2.42,1.32L258.67,419.14zM213.8,475.65l1.13,1.09l-0.31,2.03l-3.43,7.8l-0.57,3.48l-3.45,2.94l-2.43,1.14l-2.95,-0.06l-4.89,-1.58l-2.35,-2.1l-0.02,-2.2l1.22,-0.38l1.71,-3.55l-0.06,-2.54l2.01,0.05l0.78,-0.6l-0.9,-2.69l2.07,-2.52l1.02,0.74l3.93,-0.96l1.74,1.22l0.22,1.22l0.54,-0.15l2.08,1.29l1.11,-3.13L213.8,475.65zM223.9,474.77l-0.15,-1.82l-3.88,2.91l-4.77,9.99l0.45,2.5l0.95,1.08l3.35,-0.5l1.66,-1.81l-1.81,-4.67L223.9,474.77zM223.23,469.22l3.29,-2.78l-1.57,-0.48l-1.75,-0.55l-2.68,2.53l-2.25,4.08l0.19,1.85l-0.16,1.1l4.71,-5.2L223.23,469.22zM225.65,485.9l2.71,-0.66l0.89,-1.26l0.39,-1.1l-3.51,1.47L225.65,485.9zM226.94,489.46l-0.22,1.28l2.69,-0.56l-0.23,-2.2L226.94,489.46zM231.24,471.05l-1.27,-2.46l-4.62,2.52l-0.25,0.32l-0.94,1.16l0.38,2.37l-3.06,5.46l-0.88,1.82l0.49,3.14l1.66,1.22l0.83,-0.09l0.95,-1.89l5.16,-2.42l2.71,-3.14L231.24,471.05zM234.55,490.04l0.11,-1.34l-0.77,-0.28l-2.43,1.38l-0.53,1.86l0.45,1.2l1.37,0.11l2.94,-1.87l0.26,-0.61l-0.63,0.45L234.55,490.04zM237.31,486.6l-1.66,-1.12l-1.88,2.1l3.94,1l0.6,-0.4l-0.42,-1.05L237.31,486.6z"/>
		<path id="BD-B" title="Chittagong" class="land" d="M269.78,436.02l-0.31,3.81l-0.63,0.57l-0.38,-0.4l0.78,-2.27l-0.75,-0.56l-0.26,-0.81l1.22,-2.41L269.78,436.02zM272.16,444.43l0.88,-0.57l1.17,-3.22l-0.62,-2.27l-2.08,5.15L272.16,444.43zM277.9,436.58l0.88,-1.58l0.03,-1.47l-1.17,-1.82l-1.9,1.09l-0.05,2.57l1.12,1.26L277.9,436.58zM280.22,445.2l-1.72,-6.49l-1.38,0.42l-0.03,6.27l-7.52,19.23l1.22,1.31l1.17,1l0.83,-0.33l0.6,-2.85l4.14,-6.4l1.85,-4.56L280.22,445.2zM285.3,438.46l-1.2,-1.93l-2.29,2.02l1.33,1.76l2,-1.06L285.3,438.46zM283.4,443.8l-0.57,-1.51l-1.17,1.09l0.78,2.85L283.4,443.8zM279.33,428.3l-0.31,0.98l1.32,7.28l1.25,1.01l1.64,-1.68l0.67,-2.36l0.64,-3.97l-2.6,-1.73L279.33,428.3zM280.82,441.37l0.68,1.71l1.28,-1.29l-1.43,-1.54L280.82,441.37zM253.5,380.1l-0.41,-0.68l-2.46,-3.08L249.96,376l-1.18,0.82l2.52,4.1l0.23,0.2l2.81,4.58l0.37,-0.39l0.39,-1.15l-1.59,-3.71L253.5,380.1zM243.26,352.26v-0.02l-0.14,0.17L243.26,352.26zM277.18,431.18l-0.23,-2.07l-1.74,0.76l0.68,1.46L277.18,431.18zM282.17,465.71l-2,-0.78l-0.83,0.45l-1.64,3.55l0.34,2.1l1.01,0.89l2.13,-1.17l1.48,-1.98l-0.36,-0.39l0.68,-1.4L282.17,465.71zM272.18,422.81l0.31,1.37l2.11,0.36l0.6,0.06l3.64,-1.37l-2.39,-3.56l-1.59,0.45l1.25,-0.87l-3.33,-2.83l-4.37,-0.39l-1.93,-1.32l-1.46,1.32l0.08,0.73l6.56,6.78L272.18,422.81zM302.79,431.35l0.47,1.35l1.3,0.81l0.7,-2.16l-0.91,-1.12L302.79,431.35zM315.36,405.51l-0.31,-1.06l-1.33,-1.63l-3.38,-1.77l-2.52,1.54l1.15,4.8l2.47,3.08l2.89,0.87l2.27,1.65l1.33,-3.78l-0.05,-1.66L315.36,405.51zM306.77,411.09l-1.43,-0.05l-0.55,-0.33l-0.73,1.73l0.88,3.64l1.77,-2.8L306.77,411.09zM306.95,418.47l-1.41,2.72l-0.57,1.79l1.02,1.12l3.44,-4.31l0.29,-1.82l-0.83,-0.7L306.95,418.47zM329.83,421.07l-5.99,-7.93l-1.64,-1.15l-2.4,1.35l0.34,0.67l-1.22,-0.14l-0.62,1.43l0.63,0.51l-0.75,0.25l1.64,7.73l1.69,4.48l3.41,5.88l2.79,1.23l2.21,-0.25l3.31,-1.51l0.76,-1.82l-0.39,-3.02L329.83,421.07zM363.61,483.97l-1.61,-2.24l-2.68,2.19l-0.56,2.54l1.13,5.08l-0.86,2.19l0.16,3.08l-0.91,1.83l0.54,1.46l0.71,-0.12l4.53,-12.24L363.61,483.97zM434.56,538.41l-2.69,-13.81l-1.7,-20.35l0.75,-10.7l0.86,-1.93l-0.56,-1.21l1.33,-4.75l-1.34,-5.6l-0.08,-6.01l-1.17,-3.78l0.56,-2l-3.24,-7.19l1.61,-1.06l2.09,1.85l0.37,-5.19l-0.86,-0.96l-0.66,-7.51l-1.08,-3.24l0.13,-3.18l-2.05,-7.14l-1.2,-12.97l-1.05,-3.39l-0.95,-0.83l0.85,-1.66l-0.06,-2.56l-1.2,-7.27l-2.13,-6.01l-1.13,-1.84l-1.01,-0.87l0.49,-1.05l-0.83,-1.16l0.01,-1.42l-1.75,-2.55l0.53,-0.93l-0.02,-1.06l-0.01,-1.29l-0.57,-1.61l-1.01,-2.19l-1.37,0.67l-1.32,-2.63l-1.23,-0.32l-0.85,-1.57l-1.98,-0.33l0.94,-5.27l0,-5.17l0.77,-2.04l-0.92,-2.96l-1.69,-1.88l0.72,-2.22l-0.81,-0.97l0.65,-2.26l-0.19,-2.45l-0.69,-0.82l-0.1,-4.61l4.45,-0.87l-0.77,-2.36l-1.07,-1.97l-0.12,-2l-1.39,-1.46l1,-2.77l-0.29,-1.25l-0.57,-0.87l-0.49,-0.8l-0.87,-0.24l0.18,-2.82l-0.87,-0.58l-0.21,-1.98l-0.88,0.31l-0.16,-2.52l-0.1,-0.86l-0.52,-1.44l-0.85,-1.17l-0.02,-3.51l-0.97,-0.93l0.49,-2.12l-1.52,-3.4l-0.77,-0.8l-0.02,-1.99l0.64,-0.99l-1.75,-0.49l1.26,-6.53l-2.41,-3.45l-1.63,0.16l-0.97,1.31l0.51,2.23l-0.82,2.19l-1.68,1.19l-0.69,-0.57l0.45,-3.15l-1.35,-1.2l-1.57,-0.36l-0.52,-3.16l-0.86,-0.09l-2,1.01l-4.18,5.7l-1.43,-0.07l-0.34,2.37l-1.53,0.94l-3.29,-1.73l-1.16,0.38l-3.7,-7.3l-2.02,0.21l-0.45,2.91l-1.41,1.76l1.35,6.5l-0.53,3.21l1.21,0.77l-0.27,4.19l0.65,0.88l-0.77,0.89l1.37,1.61l0.09,2.23l-3.12,1.35l0.5,2.55l-0.51,0.66l-3.59,-0.39l-5.26,4.19l-0.86,1.6l0.55,0.42l-3.35,4.23l-3.5,7.6l0.39,1.81l1.6,1.68l-0.07,1.91l0.75,1.4l0.59,3.86l0.72,0.78l-0.12,2.05l0.82,0.81l0.13,2.02l0.06,1.67l0.17,0.81l-0.9,0.86l-3.26,0.13l-0.46,2.33l-2.28,3.59l-2.39,2.1l-2.55,-1.35l-0.92,1.49l-1.22,0.01l-1.72,0.12l-0.41,0.36l-3.13,2.36l-1.35,0.38l0.67,-1.75l-1.36,-0.24l-1.32,1.27l-1.93,-1.34l-0.02,-1.34l-1.28,-0.51l0.41,-2.13l0.09,-1.82l-1.47,-0.09l0.27,-1.59l-0.2,-1.18l-0.75,-1.75l0.38,-0.78l-1.85,-1.87l0.75,-0.88l-1.37,-1.31l0.64,-0.95l-0.5,-1.42l-0.61,-1.54l-0.52,-0.76l-0.88,-2.6l-0.27,-1.35l-2.56,-0.32l1.52,-1.03l-0.76,-1.3l-1.41,-0.5l0.75,-1.14l-3.9,0.04l-1.02,1.16l-0.3,1.69l-0.77,0.28l-0.65,4.46l0.25,2.73l1.74,4.64l-0.19,1.22l0.4,1.15l0.96,0.42l-0.05,2.02l-1.85,0.75l-2.31,-1.24l-2.25,-3.66l-1.34,-5.15l-0.84,-0.68l-0.45,-8.41l-0.02,-1.33l-0.83,-2.12l0.57,-0.75l-1.51,-0.86l1.42,-1.18l-0.53,-1.23l-1.75,-0.68l0.49,-2.05l1.17,-0.36l1,-1.78l-2.41,0l-0.84,-0.97l-0.41,-0.63l-0.41,-3.87l-2.09,-3.28l-0.57,-4.19l-1.53,-0.49l0.15,-0.87l-1.12,-1.11l-1.9,-0.38l-0.25,-0.66l1.3,-2.45l-1.74,0.04l-0.05,-1.8l-1.81,-2.04l0.23,-0.81l-1.45,-0.51l-0.5,-7.31l1.4,1.36l1.79,0.19l0.34,0.85l1.03,-0.98l0.02,-3.15l-0.85,-0.5l-4,0.12l-0.36,-1.89l0.56,-3.01l1.12,-1.29l2.17,-0.12l1.76,0.32l0.97,1.02l0.89,-2.98l-0.19,-2.81l2.39,-4.34l-2.35,-4.44l-0.03,-1.66l1.62,-1.41l-1.33,-1.56l3.85,0.24l-0.95,-2.28l0.54,-1.53l1.11,-1.99l0.54,1.54l0.95,-0.48l0.63,-2.64l-0.91,-0.46l0.12,-1.57l1.01,0.12l0.49,-2.41l-0.94,-1.99l-1.48,-0.18l0.33,-3.59l-1.19,0.28l-0.93,-0.69l0.27,-1.33l1.85,-0.67l-1.92,-0.66l0.02,-1.63l-0.85,-0.22l1.34,-1.98l0.33,-1.81l2.3,-1.11l1.03,0.35l-0.16,-1.59l-2.85,0.9l-0.66,-0.62l0.76,-1.76l1.12,0.58l0.19,-1.2l0.82,0.33l0.93,-1.05l0.79,0.02l-0.02,-3.04l-1.29,-0.65l-1.03,0.48l-1.25,1.69l-0.34,1.63l0.46,0.56l-1.09,0.21l-7.35,-1.4l-1.98,-2.57l-3.39,2.45l-5.44,0.12l-0.4,2.07l1.42,0.98l-0.18,0.45l-5.06,-0.31l-1.97,2.88l-3.11,1.95l1.53,2.6l4.27,2.39l0.89,2.07l-1.02,1.94l-5.64,3.81l-1.53,2.86l0.4,4.1l-2.38,1.95l0.22,2.56l-2.42,1.98l-0.75,3.27l-2.01,1.68l-1.07,-0.06l-2.05,-1.94l-2.38,1.23l-5.02,-0.29l-1.95,0.89l-0.62,1.36l1.06,1.87l0.06,2.77l-3.45,4.13l-0.6,1.65l0.15,1.68l1.81,2.88l-0.83,2.85l-2.02,0.53l-2.98,-1.74l-3.32,0.62l-1.53,5.51l2.59,0.46l1.07,2.46l-1.29,0.27l-0.81,1.4l3.66,1.65l2.45,5.46l-2.48,1.57l-3.79,-1.47l-2.16,1.29l-2.67,0.35l-5.05,10.41l1.16,3.36l2.65,1.86l-0.52,3.17l3.68,8.43l2.26,-0.23l0.11,5.24l1.35,4.62l-1.33,3.27l-0.31,7l0.6,2.7l1.9,2.87l1.12,-1.18l1.33,0.06l2.47,3.5l2.27,5.13l2.13,2.56l-0.03,0.11l1.95,3.93l-0.47,5.03l3.88,7.58l2.55,3.42l0.91,0.11l0.63,0.45l2.63,0.53l1.02,1.88l9.18,6.06l7.01,8.12l3.67,-4.06h1.48l1.27,0.48l0.96,-0.62l0.5,0.34l0.39,0.48l-0.7,0.87l1.09,0.48l5.88,-3.76l1.43,0.51l1.75,-1.54l-1.85,-4.51l1.67,-2.16l1.87,-0.53l-0.86,-0.59l0.1,-1.32l-1.82,-2.33l-1.61,0.25l-0.52,-0.51l1.2,-0.03l-0.91,-2.08l-2.11,-0.11l-0.91,-2.05l-1.4,-0.17l0.26,-0.42l0.89,0.03l1.61,1.91l0.94,-0.9l0.76,0.37l2.21,2.16l3.83,-4.6l0.78,-0.37l3.12,-0.7l3.23,0.34l1.07,-0.45l0.23,-1.15l-2.57,-0.82l1.87,-1.29l2.27,1.63l0.18,1.35l1.07,0.76l1.2,-2.55l-0.91,-1.35l0.18,-1.07l-1.35,-0.87l1.74,-3.43l0.13,1.55l-1.07,1.43l2.84,2.81l0.68,3.37l-0.03,0.59l0.96,2.36l7.83,4.91l4.09,4.68l0.73,1.77l6.35,6.45l3.77,5.66l0.89,3.64l1.41,1.99l-0.36,0.73l1.04,1.29l2.66,11.7l-0.34,2.35l3.12,4.64l0.93,-0.68l0.6,0.32l-0.08,3.49l1.67,6.01l1.09,2.01l0.55,0.22l0.89,-0.94l0.36,0.83l-0.08,2.65l1.27,4.22l0.26,2.51l-0.81,1.9l1.52,2.51l2.52,8.83l0.35,3.46l-0.59,3.78l-5.15,14.16l0.64,1.51l1.45,1.46l0.62,-0.11l0.32,-0.75l0.67,0.89l-0.86,1.29l0.11,1.38l-0.7,0.08l0.08,2.29l-0.67,1.29l0.75,1.1l1.75,-0.56l-0.98,1.23l-0.95,-0.29l-0.59,0.73l0.16,0.7l1.1,0.81l-1.02,0.76l-1.31,-0.62l-0.89,1.54l0.3,0.7l3.44,4.09l1.42,0.65l0.48,-0.91l-1.02,-0.7l0.91,-0.4l-0.51,-0.89l0.75,-0.38l0.64,0.56l2.82,0.03l2.39,-0.81l1.21,-12.12l0.67,-1.56l1.22,4.51l-0.32,0.51l-1.08,1.83l0.6,5.93l-1.13,3.15l-1.31,1.32l-0.51,-0.1l-1.21,1.28l-0.48,-0.3l0.04,1.23l6.22,8.45l2.86,6.92l0.16,11.99l12.65,15.89l1.67,5.92l2.39,5.07l4.58,6.99l3.44,7.92l2.16,1.91l0.62,-1.58l-2.16,-8.44l-1.9,-4.67l-2.58,-2.68l-0.96,-3.47l0.1,-2.86l-1.09,-5.57l1.2,-2.83l-3.46,-4.13l-0.29,-2.55l0.27,-0.58l-1.92,-0.74l-1.62,-3.32l1.7,-3.9l0.52,0.35l1.46,-1.85l-2.29,-5.93l-0.51,-3.32l3.14,-2.84l2.23,-0.66l-0.09,-2.96l1.16,-0.81l0.25,-2.74l1.82,-0.03l1.4,1.04l1.48,-0.45l2.01,-3.7l2.35,-1.78l2.07,0.19l3.13,4.28l0.66,2.74l-0.43,2.17l0.9,1.57l6.16,1.85l0.97,-0.38l0.13,-1.4l1.53,0.31l1.82,-1.14l1.17,0.75l1.26,5.03l1.89,4.03l0.24,2.82l1.7,0.19l1.49,-2.19l4.08,-2.72L434.56,538.41zM285.53,468.26l-0.49,3.38l3.07,-2.65l-0.44,-1.45L285.53,468.26zM305.33,429.29l1.31,1.67l0.97,0.01l0.15,-0.64l-1.62,-1.71L305.33,429.29zM293.67,422.78l0.53,-1.99l-0.37,-0.16l-1.23,-0.05l-0.45,-0.39h-1.12l-2.19,2.14l-1.01,2.33l-0.08,3.08l0.94,0.03l3.54,-4.12L293.67,422.78zM295.76,441.54l-1.33,-4.25l-1.95,-2.02l-0.13,-1.57l-5.65,-2.6l0.1,6.13l-0.62,3.72l0.34,8.25l-1.54,5.95l-3.54,7.52l0.63,1.28l3.49,2.35l4.24,-3.91l3.07,-1.42l0.18,-1.54l0.57,0.17l1.12,-1.98l1.04,-0.56l0.21,-2.26l0.65,-0.05l1.67,-5.09l-0.23,-4.28L295.76,441.54zM296.75,422.36l2.06,0.93l0.21,-1.46l-1.04,-0.2L296.75,422.36zM294.2,423.59l-2.73,3.42l2.32,0.06l2.92,-1.63l1.72,-1.88l-1.74,-1.06L294.2,423.59z"/>
		<path id="BD-C" title="Dhaka" class="land" d="M236.45,363.63l2.08,1.1l-0.05,1.33l-1.02,0.24l0.79,0.85l-1.71,0.08l-2.46,0.99l0.3,-1.21l1.46,-2.28l0,0L236.45,363.63zM300.63,233.83l1.29,0.25l2.15,-1.46l-1.62,-2.77l-0.97,0.21l-0.83,-0.64l-0.17,-1.35l2.07,0.07l0.3,-0.84l-1.34,-4.78l-1.42,-0.08l0.81,1.34l-1.63,-0.62l-1.64,2.25l-0.17,-1.51l1.02,-0.53l-2.49,-0.68l-1.03,0.78l-0.63,-0.32l2,-2.43l0.77,1.43l0.68,-0.63l2.49,-2.98l1.88,-4.58l-3.36,-1.78l0.64,-0.91l-0.3,-1.24l-2.15,-0.86l-0.24,-1.48l1.78,0.9l0,-0.86l0.89,0.02l0.19,-1.69l1.42,-0.03l0.82,-0.88l-1.02,-1.5l1.79,-0.31l0.06,-1.57l-1.85,-0.81l0.84,-0.99l-0.46,-1.61l-1.54,1.55l-2.46,-1.57l-1.7,0.86l-0.35,-0.74l-1.62,-0.02l1.02,-0.77l-0.4,-1.36l0.69,0.36l0.38,-0.74l-0.69,0.05l0.03,-0.73l-1.2,-0.15l-0.18,-0.59l0.92,-0.62l1.38,0.29l-0.12,-0.93l1.3,-0.93l-1.39,-0.84l1.41,-2.26l-0.17,-1.88l-1.54,-0.91l-1.01,1.4l0.29,0.81l-1.33,1.04l1.25,1.51l-1.49,0.22l-1.51,-2.36l0.59,-1.99l0.83,-0.65l-0.4,-0.8l-0.98,-0.04l-1.15,-3.82l-2.12,-1.64l-3.46,-0.54l-1.25,2.26l-0.9,-0.21l-0.44,-1.08l-1.3,0.4l-1.08,-2.19l-3.36,-0.08l-0.11,-2.55l-0.63,0.05l1.95,-0.87l0.37,-1.25l-1.05,-1.43l-1.57,-0.39l0.34,-3l-1.25,-1.68l0.52,-0.86l2.35,-0.99l-2.93,-0.86l-0.2,-3.38l1.38,-0.33l1.18,1.06l1.5,-0.48l-0.26,-1.86l-1.96,-1.81l0.6,-1.13l-0.25,-2.88l1.64,-0.72l-0.52,-1.45l-3.62,0.85l-4.14,-0.38l-3.01,0.87l-3.16,-1.04l-0.88,-0.6l-2.35,-1.26l-1.47,0.73l-0.49,1.09l-1.69,0.78l-0.67,0.44l-1.81,-1.25l-1.45,1.16l-1.57,-1.13l-1.37,-0.04l-0.75,-1.95l-1.56,0.37l0.05,0.89l-2.14,0.1l-0.91,-0.62l-3.13,0.79l-6.19,-0.44l-0.09,0.54l-5.26,1.81l-0.68,0.8l-3.55,-1.6l-3.27,-0.44l-3.56,-3.01l-2.2,0.4l-7.18,-1.77l-1.2,0.35l-5.03,-2.12l-5.59,-0.3l-5.19,-3.71l-2.38,-0.42l-2.44,-1.59l-2.09,0.01l-1.38,-2.13l-1.67,0.76l-0.45,-0.86l-1.11,0.35l-2.39,-0.83l-2.79,2.23l-4.42,-0.89l1.23,-1.5l-1.12,-0.97l0.14,-1.5l-1.35,-2.22l-0.07,-3.06l0.77,-2.9l-5.36,-1.65l0.06,0.14l0.35,1.3l0.9,0.59l-0.28,2.15l-1.63,0.89l-1.11,-0.04l-0.25,0.11l-2.44,2.46l2.97,7.28l-0.63,2.51v0.32l0.59,1.46l-0.96,1.23l-0.21,0.08l-3.83,0.37l-2.45,4.47l-0.05,1.63l-2.11,2.88l0.15,3.1l-0.06,0.27l-1.14,2.06l0.66,1.05l0.33,0.25l0.33,-0.16l0.1,0.17l0.23,2.51l-0.71,0.98l1.08,5.15l0.2,0.59l1.35,2.7l-0.03,1.08l-0.47,2.36l1.13,1.75l-0.17,0.14l-0.45,0.01l-0.6,0.37l-1.09,0.74l0.04,0.58l2.09,5.53l2.03,2.06l2.5,1.3l1.06,-0.13l0.26,0.58l-1.48,0.2l-0.84,1.11l-0.15,0.77l1.29,1l0.28,0.12l0.6,-1.11l1.48,1.21l1.2,-1.05l0.95,0.88l0.1,2.13l0.62,0.42l0.23,0.35l-0.37,0.98l-0.99,0.61l1.65,1.82l0,1.38l0.49,0.41l-0.01,1.17l-1.18,0.79l0.04,4.1l-1.94,0.89l-0.03,0.64l1.4,4.44l-0.24,0.43l-0.66,0.39l-0.24,0.3l0,0.91l-0.13,0.29l-2.18,1.04l-0.07,1.67l-0.21,0.17l-0.41,-0.2l-0.55,0.32l0.4,0.59l0.81,0.25l0.36,0.14l0.45,1.26l-0.91,1.87l0.15,0.28l0.67,-0.27l0.1,0.19l-1.46,1.13l-0.06,1.18l-1.61,0.97l0.64,1l0.77,3.12l0.55,0.23l1.22,-0.28l0.71,3.46l-1.62,2.72l1.9,1.86l0.2,0.48l0.04,1.76l1.15,1.91l0.15,0.59l-0.56,4l0.05,0.78l1.43,6.54l-0.14,0.16l-1.18,0.27l-0.34,0.45l0.41,0.7l0.3,0.23l1.58,-0.23l0.41,1.29l1.14,0.7l-0.31,2.89l0.58,3.51l-0.85,1.65l-3.98,3.25l-0.38,0.04l-0.96,-0.22l-0.61,0.11l-4.28,3.31l-0.8,6.52l0.16,0.3l0.73,-0.01l0.41,0.61l0.14,1.97l0.14,0.35l-0.68,2.96l0.15,0.16l0.68,-1.34l2.74,4.94l-0.98,0.54l-1.15,0.29l-1.06,1.5l-1.21,-0.07l-1.28,0.46l-0.98,0.08l-4.14,-0.24l-0.34,0.32l-2.64,-0.19l-1.25,0.79l-0.51,0.05l-1.28,-0.11l-0.65,-0.88l-2.98,-0.16l-1.34,-0.77l-11.87,-9.23l-1.07,0.28l0.08,1.42l-0.35,0.35l-0.39,-0.62l-0.23,1.47l0.66,1.38l-2.46,4.32l-1.14,3.4l0.44,0.95l-0.48,0.82l-1.16,0.16l-0.16,0.54l1.04,0.27l-0.6,1.83l-1.83,1.42l1.3,0.66l1.3,2.81l2.59,3.22l2.31,0.56l3.09,-1.56l2.72,2.48l0.29,1.56l4.34,1.21l0.2,1.04l-1.81,1.93l1.59,0.6l1.22,1.41l0.71,3.02l2.58,1.2l-3.11,1.21l-1.29,2.44l3.85,-0.89l4.18,2.02l2.81,2.25l-0.06,4.88l1.24,3.27l-0.34,0.43l-2,-0.51l0.64,4.71l1.08,2.93l1.92,1.57l0.88,2.37l-1.96,3.83l5.7,-0.46l-0.39,1.92l0.8,1.74l-0.76,2.42l1.44,1.9l3.76,-2.42l2.22,0l0.64,0.6l-0.47,0.69l-3.24,0.69l-0.06,0.74l1.66,1.88l-0.17,1.33l-2.77,0.53l-1.1,1.02l-1.31,-1.15l-0.22,-1.51l-0.87,1.01l0.19,1.25l1.94,2.22l2.72,1.17l-0.27,0.88l1.25,0.92l-0.82,1.87l2.01,0.87l0.85,3.59l3.26,1.4l-0.33,1.56l1.84,-0.06l0.65,0.65l-1.07,2.7l2.8,0.67l1.23,1.95l1.97,1.39l-0.09,0.61l-1.42,-0.3l0.43,1.17l-0.42,0.28L171.57,385l-1.27,0.37l0.01,1l-0.9,-0.32l1.07,1.78l1.75,1.37l2.3,-0.58l1.59,1.04l2.14,0.12l1.22,-0.86l1.07,2.73l1.06,-0.68l-0.91,-3.77l2.34,1.1l5.04,-1.55l1.63,-6.28l2.26,-0.52l0.14,-3.46l1.06,-0.06l2.42,-3.51l2.67,-0.15l0.79,-3.22l0.73,-0.68l-0.74,-0.59l1.63,-0.48l0.97,-1.42l2.81,1.12l2.17,-1.46l1.83,2.34l-0.41,3.56l0.51,0.48l-0.9,1.87l0.88,2.21l0.68,-1.02l1.6,0.01l-0.56,0.84l0.37,0.65l1.63,-1.56l1.04,0.63l3.65,-0.29l0.23,-2.59l-1.55,-3.05l0.87,-2.38l4.82,-0.2l4.84,1.59l0.21,0.68l-1.17,1.09l-2.49,0.55l3.72,0.75l5.39,-1.66l1.51,-1.66l0.29,-1.69l2.33,-3.64l2.52,-1.15l-0.01,0.53l1.16,0.94l2.23,-7.67l-0.42,-0.91l0.57,-0.02l1.14,-2.8l0.14,-0.17l0.66,-1.16l-3.68,-8.43l0.52,-3.17l-2.65,-1.86l-1.16,-3.36l5.05,-10.41l2.67,-0.35l2.16,-1.29l3.79,1.47l2.48,-1.57l-2.45,-5.46l-3.66,-1.65l0.81,-1.4l1.29,-0.27l-1.07,-2.46l-2.59,-0.46l1.53,-5.51l3.32,-0.62l2.98,1.74l2.02,-0.53l0.83,-2.85l-1.81,-2.87l-0.15,-1.68l0.6,-1.65l3.46,-4.13l-0.06,-2.77l-1.06,-1.87l0.62,-1.36l1.95,-0.89l5.02,0.3l2.38,-1.23l2.05,1.94l1.07,0.06l2.01,-1.68l0.75,-3.27l2.42,-1.97l-0.22,-2.56l2.38,-1.95l-0.4,-4.1l1.53,-2.86l5.64,-3.81l1.02,-1.93l-0.89,-2.07l-4.27,-2.39l-1.52,-2.6l3.11,-1.95l1.97,-2.88l5.06,0.31l0.18,-0.45l-1.42,-0.98l0.4,-2.07l5.44,-0.11l3.39,-2.45l1.89,-2.66l-0.7,-0.34l-2.82,1.02l1.22,-3.73l5.9,0.28l0.16,-1.5l-2.13,-3.1L300.63,233.83z"/>
		<path id="BD-D" title="Khulna" class="land" d="M131.31,421.32l0.83,0.87l1.02,0.07l-0.86,0.57l0.83,3l0.36,5.99l1.2,0.92l-0.18,3.78l-1.2,1.65l3.83,5.1l0.1,0.62l1.56,3.44l0.16,0.17l-1.72,3.41l3.85,12.85l0.68,0.64l0.96,1.27l-0.05,2.48l-2.27,4.29l2.14,2.32l4.79,-13.24l-4.09,-7.7l2.97,-3.38l0.03,-1.62l0.12,-0.18l0.43,1.33l0.7,-0.26l-0.36,-3.55l2.29,-2.94l1.82,-4.06l-0.94,-4.51l-2.71,-5.07l-0.47,-5.99l-1.56,-5.44l-3.3,-4.29l-0.33,-0.43l-0.65,-2.48l-2.14,-1.61l-1.19,-0.21l-0.78,0.24l-1.52,-0.22l0.15,2.09l-5.29,4.69l2.21,2.69l-0.05,1.12L131.31,421.32zM143.58,486.34l-0.33,-7.73l0.54,-0.6l2.17,2.61L143.58,486.34zM112.2,497.06l-1.55,-0.91l-0.88,-3.26l1.4,-1.41l4.92,1.04l1.4,-1.67l0.71,1.66l1.04,1.88l-1.09,0.45l1.15,0.17l0.37,3.78l-2.66,-0.73l-3.83,1.08L112.2,497.06zM123.54,485.69l2.99,-1.61l-0.61,-2.65l-1.61,-3.5l-2.87,-3.53l-0.1,-0.27l-2.7,-5.94l1.66,-2.7l-3.13,0.44l-0.97,-1.25l-1.58,-0.26l-0.82,0.28l2.14,1.9l0.44,1.77l-3.21,4.9l2.17,1.12l0.86,1.45l-0.68,1.13l-3.15,1.94l2.31,1.04l2.44,2.55l1.69,-0.43l1.4,0.88l0.03,1.73l-1.58,1.98l0.64,3.14l0.85,0.21l-1.12,0.67l1.53,1.69l1.33,-4.64L123.54,485.69zM106.36,498.98l0.19,1.77l-1.13,1.36l-2.59,-0.03l-3.54,-4.9l-2.46,-1.74l1.52,-6.7l-0.66,-2.28l-1.88,-1.95l-0.06,-1.53l0.23,-0.82l1.29,-0.35l0.93,0.32l0.16,3.27l2.24,3.02l-0.74,3.73l0.87,2.41l4.38,2.64l0.04,0.9L106.36,498.98zM118.01,504.51l2.34,1.1l-1.53,1.84l-1.91,-0.15l0.51,0.62l-0.41,0.52l-4.42,0.68l-0.46,-1.51l1.54,-3.31l0.49,0.16l1.61,0.83l1.06,-0.32L118.01,504.51zM105.85,478.27l2.85,-3.76l-0.57,-2.48l0.94,-0.11l0.97,0.03l1.03,1.95l4.31,1.67l-3.61,2.35l0.57,2.52l1.05,0.86l1.89,-0.09l0.52,1.5l0.95,0.58l2.7,0.26l-1.48,2.16l-0.15,0.2l0.58,2.68l-2.4,3.38l-5.11,-1.09l1.55,-8.52l-2.71,-0.76l-0.46,-0.03l-1.56,0.14l-1.72,-1.33L105.85,478.27zM124.21,455.91l0.34,2.43l-0.88,2.63l1.92,-0.56l-0.07,1.79l2.32,1.96l0.68,-2.18l2.19,-0.92l0,-0.42l0.11,-2.39l2.96,-1.28l2.13,2.33l1.03,-1.57l-1.3,-3.34l-0.14,-2.29l0.09,-2.77l-3.58,1.55l-0.18,0.27l-0.88,-1.44l0.29,-1.13l-2.36,-1.14l-1.04,1l-1.01,-1.21l-1.78,1.4l0.97,0.26l0.2,0.69l-0.8,0.79l-0.34,1.93l-1.29,0.41l0.12,1.44l-0.81,0.84L124.21,455.91zM140.2,465.26l-1.84,-0.58l-1.19,-1.62l-0.22,-3.07l0.75,-0.29l1.09,0.99l0.73,2.37L140.2,465.26zM117.45,498.33l1.9,0.78l0.47,2.02l-0.78,2.53l-1.2,0.28l-0.37,0.06l-1.57,0.96l-2.19,-1.22l-0.4,-4.21L117.45,498.33zM134.88,467l4.05,-1.87l1.77,1.27l-3.84,2.92l-2.15,-1.6L134.88,467zM161.02,485.18l1.42,4.12l-0.23,1.06l-1.66,0.58l-2.09,-0.43l-0.24,-0.66l-2.6,0.53l-0.24,-3.4l-1.01,-1.44l1.95,-1.98l1.35,-3.79l-0.62,-4.89l0.96,-1.38l0.4,0.43l0.28,1.51l0.69,0.81l0.96,0.18l-0.98,1.82l1.51,2.94l-1.48,2.67L161.02,485.18zM173.6,478l1.29,5.08l-1.01,2.7l-1.56,1.07l-0.69,-0.81l-0.52,0.31l0.07,2.55l-4.42,0.95l-1.15,1.13l-0.97,-0.48l0.42,-1.59l-2.19,-0.32l-1.23,-3.49l-1.81,-1.52l1.47,-1.49l-0.54,-2.09l-1.02,-1.91l1.28,-0.88l-0.47,-1.22l-0.72,-0.17l-0.8,-0.39l-0.07,-2.04l-0.84,-0.24l0.61,-2.53l-2.47,-1.74l3,-2.14l0.24,-5.59l3.25,-0.51l0.72,0.06l0.86,1.48l0.91,3.11l4.65,3.61l0.4,0.17l1.1,-0.02l1.76,2.47L173.6,478zM151.98,486.64l0.16,-1.11l1.18,-0.85l1.38,2.66l-1.02,1.23L151.98,486.64zM178.12,426.7l-2.04,-0.6l-0.6,-1.28l0.67,-1.6l2.49,-0.05l4.37,1.17l-0.04,-1.33l-4.05,-0.26l2.89,-3.67l1.05,-4.22l-0.95,-1.05l-3.32,-0.48l0.83,-3.94l-3.23,-1.76l0.83,-1.72l1.36,1.52l0.88,-0.41l1.29,-1.16l-0.77,-0.9l-2.34,-0.8l-2.85,0.54l-0.91,-0.86l4.07,-2.93l2.19,0.49l0.28,-2.98l-1.89,0.13l0.12,-1.4l-0.89,-0.9l3.39,-0.6l-0.48,-1.57l-1.83,-0.22l1.91,-2.22l-1.06,-2.73l-1.22,0.86l-2.14,-0.12l-1.59,-1.04l-2.3,0.58l-1.75,-1.37l-1.06,-1.78l0.9,0.32l-0.01,-0.99l1.27,-0.37l0.99,0.35l0.43,-0.28l-0.43,-1.17l1.42,0.3l0.09,-0.61l-1.97,-1.39l-1.23,-1.95l-2.8,-0.67l1.07,-2.7l-0.65,-0.65l-1.84,0.06l0.33,-1.56l-3.26,-1.4l-0.85,-3.59l-2.01,-0.87l0.82,-1.87l-1.25,-0.92l0.27,-0.87l-2.72,-1.17l-1.93,-2.22l-0.19,-1.25l0.88,-1.01l0.22,1.52l1.31,1.15l1.1,-1.02l2.77,-0.53l0.17,-1.33l-1.66,-1.88l0.06,-0.74l3.24,-0.69l0.47,-0.69l-0.63,-0.6l-2.22,0l-3.76,2.42l-1.44,-1.89l0.76,-2.41l-0.8,-1.74l0.39,-1.92l-5.7,0.46l1.96,-3.83l-0.88,-2.37l-1.92,-1.57l-1.08,-2.93l-0.64,-4.71l2,0.51l0.34,-0.43l-1.24,-3.27l0.06,-4.88l-2.81,-2.25l-4.18,-2.02l-3.84,0.9l1.3,-2.44l3.11,-1.21l-2.58,-1.2l-0.71,-3.02l-1.22,-1.4l-1.59,-0.6l1.81,-1.93l-0.2,-1.04l-4.34,-1.21l-0.29,-1.56l-2.72,-2.48l-3.09,1.56l-2.31,-0.56l-2.59,-3.22L122,299.69l-1.3,-0.66l1.83,-1.42l0.6,-1.83l-1.04,-0.27l0.16,-0.54l1.16,-0.16l0.48,-0.82l-0.43,-0.95l1.14,-3.4l2.46,-4.32l-0.66,-1.37l0.23,-1.47l0.39,0.62l0.36,-0.35l-0.08,-1.42l-3.76,-2.7l-0.45,-0.46l-1.07,-1.8l-5.18,-2.11l-0.77,-0.19l-0.67,1.21l-0.79,2.58l-1.96,1.28l-0.93,-0.39l-1.35,-3.99l-0.28,-0.01l-0.92,1.61l-1.02,0.47l-3.93,-1.37l-2.31,0.02l-0.26,-1.19l-3.01,-1.05l-1.85,-5.96l-0.3,-0.44l-2.12,-6.49l-0.63,-0.96l-5.17,-0.55l-0.81,-0.2l-0.78,-0.41l-1.65,0.82l0.18,-1.08l-0.1,-0.05l-0.92,0.28l-0.22,0.18l0.19,1.13l-0.12,0.14l-3.04,1.22l-0.22,-0.01l0.66,-1.33l-0.16,-0.17l-1.28,0.51l-0.41,-0.07l-7.11,-2.46l-2.94,-3.01l-2.15,-4.1l-0.08,1.26l-1.38,-0.29l-0.58,2.4l-1.08,1.09l1,4.81l-1.45,0.56l0.49,1.89l2.4,-0.1l-0.3,3.07l1.43,0.65l-1.34,0.71l1.14,0.61l0.35,1.22l-0.13,2.13l-0.99,1.96l2.96,-1.39l1.15,2.39l-2.75,0.01l-0.62,0.66l0.69,4.31l-0.87,0.63l-0.13,1.71l-2.76,0.01l0.16,1.43l-1.1,-0.08l-0.63,1.09l-1.73,0.52l-0.78,1.62l-2.74,0.64l-1.07,-1.4l-1.33,1.14l-1.18,-0.64l-1.43,1.12l-0.04,0.55l1.06,0.37l0.07,1.66l1.32,1.79l-1.41,0.47l0.51,1.17l-0.96,0.47l-0.15,0.83l-1.97,0.39l1.83,1.91l-1.37,5.15l0.9,4.79l-1.14,2.61l2.88,0.56l-0.19,2.21l-0.89,1.43l1.7,-0.28l0.3,0.55l4,-1.01l-0.58,1.5l0.91,0.92l1.01,3.22l2.35,1.39l1.04,2.18l3,0.93l1.46,2.8l1.13,0.27l0.44,-0.81l1.02,0.64l-0.02,-1.22l0.86,-0.6l1.79,0.28l0.11,1.8l-1.05,1.25l0.24,2.39l-1.22,0.56l-1.19,-0.7l-0.74,2.42l0.25,1.33l-0.67,1.66l0.88,2.82l-2.69,1.57l1.17,3.7l-0.57,0.32l-1.22,-1.03l-0.39,1.8l-1.23,-0.97l-1.15,1.23l2.47,2.72l-0.31,1.72l2.51,1.55l1.98,-0.21l1.45,2.13l1.22,0.29l1.63,-0.1l-0.57,-2.72l0.09,-0.65l0.83,-0.12l1.22,0.64l0.64,0.69l1.41,1.35l5.69,-0.55l0.53,2.2l0.9,-0.44l2.16,1.02l2.61,-1.98l1.41,0.98l-0.67,0.55l-0.53,2.6l-1.24,-1.1l-0.67,0.23l-0.7,1.43l-1.51,0.67l-0.61,3.1l-0.81,-0.09l-0.17,1.36l-1.2,0.46l-0.99,1.57l-2.61,1.09l-0.29,2.68l1.2,2.98l-0.55,3.55l-2.5,0.19l1.99,1.3l0.07,2.11l-0.68,1.38l3.18,0.47l0.14,2.4l1.58,0.82l-0.98,1.49l0.56,2.68l2.18,0.96l1.26,-0.96l2.02,3.53l-0.85,4.88l-1.83,0.78l-1.71,2.14l-0.11,2.81l3.73,4.72l-1.13,3.12l-1.44,1.44l0.43,2.67l1.68,-0.37l0.7,0.62l-1.98,2.56l0.06,2.94l1.99,1.25l1.66,6l1.85,1.96l-0.78,2.38l0.99,1.81l-2.57,2.13l2.12,2.14l-1.2,1.25l0.64,0.99l-0.52,3.86l1.52,0.27l2.28,2.81l-2.47,0.03l-0.27,1.06l2.19,1.42l-0.32,1.54l1.75,-0.33l0.82,3.13l2.68,2.82l0.29,0.53l-0.94,2.21l0.44,1.87l0.42,0.39l1.77,-1.26l0.65,0.64l-0.13,1.03l-4.92,4.92l0.68,3.15l2.82,0.98l-1.63,0.06l2.11,3.66l0.03,0.52l0.63,7.41l-0.57,-0.76l-0.7,2.07l-0.36,2.13l1.91,3.36l0.3,5.07l-0.36,0.84l5.12,1.94l1.39,-0.94l0.95,-3.5l0.64,-3.76l1.5,-3.59l-5.3,-0.48l-1.34,-3.25l0.6,-2.32l2.39,-2.21l-1.56,-4.53l0.67,-1.52l1.82,-0.82l-1.84,2.41l0.88,1.06l2.32,0.31l1.69,2.23l3.77,-5.53l-0.81,-1.7l-1.98,-1.34l-0.89,-2.91l-0.25,-1.17l0.88,-0.52l-0.54,-1.42l3.22,-1.44l-1.8,-3.89l1.82,-1.69l-0.53,-1.41l0.49,-1.62l0.51,-2.43l1.33,-1.2l-0.99,1.59l-0.36,4.36l5.39,0.39l0.22,-1.27l-1.06,-2.08l1.59,1.48l-0.37,2.22l1.59,1.8l0.24,-1.48l1.18,-0.78l0.24,-1.09l1.04,-1.45l-1.53,-0.61l1.03,-0.87l0.19,-0.21l0.84,-0.68l1.23,0.13l0.23,0.63l0.83,-0.72l2.63,1.12l1.38,-2.12l-0.75,-1.03l-1.22,-1.54l0.99,-1.57l-1.98,-1.45l0.44,-1.15l-1.67,-0.28l-0.03,-2.32l-1.72,0.2l0.34,-1.93l-1.01,-2.74l1.17,-3.89l-1.41,0.45l-0.91,-1.26l-8.17,1.09l0.16,-1.48l2.47,-0.84l-1.6,-1.24l5.5,-2.77l0.05,1.38l2.22,1.02l-0.86,1.45l0.2,0.89l0.93,-0.6l2.94,0.88l0.61,-0.93l2.36,-0.07v-1.71l-1.09,-2.47v-0.28l1.43,-2.83l-3.02,-3.72l-0.62,-2.42l1.85,-1.09l0.63,-2.07l0.34,-0.44l0.27,0.37l0.76,2.04l-1.02,2.93l4.18,-3.45l-0.01,-2.22l1.63,0.26l1.21,-0.67l3.2,2.23l0.55,1.26l0.31,0.45l0.31,0.28l3.9,5.93l2.09,8.07l1.69,-3.72l2.07,-0.94l-0.4,-1.68l0.52,-2.08l1.89,0.63l0.32,0.06l2.17,-2.31l0.83,0.36l-1.17,1.46l0.32,0.44l2.76,-0.85l3.76,2.19l1.49,1.21l1.53,0.63l0.13,1.24l1.37,1.52l3.64,0.11l3.71,4.87l0.09,1.23l3.04,-1.83l2.19,-0.45l0.81,-1.19l-1.07,-1.17L178.12,426.7zM131.83,411.5l-1.74,4.36l-0.71,-0.98l-0.59,-2.1l1.74,-0.77l0.59,-2.11L131.83,411.5zM154.63,491.96l3.7,2.95L158.17,497l-2.78,1.74l-1.64,0.04l-0.54,-0.58l-0.92,0.28l-2.49,-0.78l0.83,-2.18l-0.37,-1.54l-5.58,-5.3l0.22,-0.56l-0.93,-1.61l2.55,-5.99l1.24,-1.06l1.8,-0.14l1.45,0.29l2.27,3.39l-1.92,2.77l0.05,2.06L154.63,491.96zM174.8,429.95l-3.75,-4.62l-3.53,-0.3l-1.94,-2.74l-2.44,-1.89l-3.55,-2.08l-2.76,1.03l-0.6,-0.96l-1.37,0.97l-1.87,-0.26l-0.32,1.07l0.25,2.17l-2.17,1.18l-2.33,4.24l2.64,5.2l1.13,5.68l-0.58,2.96l-3.34,4.79l0.52,2.27l-0.86,2.71l-1.22,1.09l-1.95,0.45l-0.21,0.76l4.95,7.55l-1,4.09l-2.06,3.45l-2.38,9.2l1.86,1.96h0.73l0.68,-1.03l0.49,0.22l3.54,0.15l0.27,0.34l2.68,4.27l1.08,-0.49l0.76,-1.44l0.88,-3.38l-0.93,-3.18l2.13,-4.56l-1.87,-0.85l-0.65,-1.06l0.86,-1.52l0.52,-0.02l1.7,-0.83l0.22,-2.95l0.12,-2.44l-1.76,-4.78l-0.24,-2.21l0.49,0.26l1.38,-0.73l0.68,0.98l-0.42,0.92l-1.53,0.11l0.23,1.31l1.63,3.67l2.78,-0.52l1.41,0.52l1.19,2.02l0.36,2.01l2.46,2.15l0.53,-0.27l1.32,0.93l2.28,0.2l2.94,-3.31l0.75,-2.66l-0.75,-6.66l-1.43,-1.98l-1.92,-0.98l-0.49,-1.9l1.31,-5.52l3.72,-7.09l0.03,-1.68l-2.08,-3.22L174.8,429.95zM131.37,443l1.13,-1.75l-0.21,-2.05l3.24,3.38l2,4.16l-1.6,1.93l-0.97,0.25l-2.85,1.45l-0.4,-0.81l1.58,-3.33l-0.63,-1.47L131.37,443zM120.98,452.53l1.04,2.6l-3.88,3.91l-0.75,1.37l0.13,2.21l-1.02,1.07l-3.46,0.46l-0.93,-2.76l1.83,-0.67l-1.26,-1.22l3.01,-1.51l-1.77,-3.89l1.88,-1.77L120.98,452.53zM118.67,462.38l0.22,0.43l-1.51,2.27l3.33,-0.84l0.82,1l-0.03,1.31l-0.26,0.32l-1.49,1.06l3.3,6.72l2.19,2.27l-0.6,-5.75l4.1,-6.05l-3.43,-2.36l-0.03,-1.94l-1.26,0.8l-0.82,-0.47l0.74,-2.32l-0.18,-2.87l-0.67,-0.33l-3.33,3.23L118.67,462.38zM138.88,471.09l-1.42,-1.91l3.51,-2.68l0.42,0.62l-0.45,1.43L138.88,471.09zM147.78,498.28l1.89,3.85l-1.7,0.75l-1.94,-0.13l-1.34,-1.02l-1.99,-4.49l0.46,-0.5l0.96,0.73l-0.44,-1.97l0.53,-0.59l-1.81,-3.05l0.98,-2.82l5.94,4.98l-0.14,2.38l-1.3,1.05L147.78,498.28zM140.72,479.08l-0.14,1.63l0.05,0.41l-0.62,2.12l-4.92,-0.14l0.88,-1.53l-0.15,-1.48l-2.1,-1.01l-1.47,-2.02l1.61,-2.08l-0.68,-6.13l0.89,-0.93l2.19,1.57l0.61,0.15l3.13,7.79l0.14,0.28L140.72,479.08zM125.58,490.87l-1.27,1.65l-0.13,2.93l-2.09,-4.25l-0.33,-2.18l5.22,-3.27L125.58,490.87zM135.51,491.18l-0.24,-1.48l-2.68,-0.26l-0.33,-0.41l2.39,0.05l0.73,-0.58l0.34,-3.26l1.19,-1.34l-2.28,-0.49l-0.18,-0.86l1.11,-1.83l-2.59,-1.43l-1.15,-2.06l0.66,-1.6l0.81,-0.57l-0.7,-5.78l2.13,-2.57l0.1,-0.14l3.31,-1.45l-2.5,-3.1l0.39,-2.32l-2.42,-1.98l-2.37,0.9l-0.34,2.76l-2.29,0.98l0.7,3.69l-3.62,5.51l1.02,6.7l1.58,3.28l0.23,4.58l-3.23,7.43l0.68,0.9l0.47,4.88l1.38,1.65l2.19,1.16l1.94,-0.72l0.6,-1.48l1.77,-1.31l0.22,-1.38l0.7,0.45l1.93,-2.77l-0.15,-1.77L135.51,491.18z"/>
		<path id="BD-E" title="Rajshahi" class="land" d="M153.91,165.03l1.08,5.15l0,0l0.2,0.59l0,0l1.35,2.7l0,0l-0.03,1.08l0,0l-0.47,2.36l1.13,1.75l0,0l-0.17,0.14l0,0l-0.45,0.01l0,0l-0.6,0.37l0,0l-1.09,0.74l0,0l0.04,0.58l0,0l2.09,5.53l2.03,2.06l2.5,1.3l1.06,-0.13l0,0l0.26,0.58l0,0l-1.48,0.2l-0.84,1.11l0,0l-0.15,0.77l0,0l1.29,1l0,0l0.28,0.12l0,0l0.6,-1.11l1.48,1.21l1.2,-1.05l0.95,0.88l0.1,2.13l0.62,0.42l0,0l0.23,0.35l0,0l-0.37,0.98l0,0l-0.99,0.61l0,0l1.65,1.82l0,1.38l0,0l0.49,0.41l0,0l-0.01,1.17l-1.18,0.79l0.04,4.1l-1.94,0.89l0,0l-0.03,0.64l0,0l1.4,4.44l0,0l-0.24,0.43l0,0l-0.66,0.39l0,0l-0.24,0.3l0,0l0,0.91l0,0l-0.13,0.29l0,0l-2.18,1.04l-0.07,1.67l0,0l-0.21,0.17l0,0l-0.41,-0.2l0,0l-0.55,0.32l0.4,0.59l0,0l0.81,0.25l0,0l0.36,0.14l0,0l0.45,1.26l-0.91,1.87l0,0l0.15,0.28l0,0l0.67,-0.27l0,0l0.1,0.19l0,0l-1.46,1.13l-0.06,1.18l-1.61,0.97l0,0l0.64,1l0,0l0.77,3.12l0,0l0.55,0.23l0,0l1.22,-0.28l0.71,3.46l-1.62,2.72l1.9,1.86l0,0l0.2,0.48l0,0l0.04,1.76l1.15,1.91l0,0l0.15,0.59l0,0l-0.56,4l0,0l0.05,0.78l0,0l1.43,6.54l0,0l-0.14,0.16l0,0l-1.18,0.27l0,0l-0.34,0.45l0,0l0.41,0.7l0,0l0.3,0.23l0,0l1.58,-0.23l0.41,1.29l1.14,0.7l-0.31,2.89l0.58,3.51l-0.85,1.65l-3.98,3.25l0,0l-0.38,0.04l0,0l-0.96,-0.22l0,0l-0.61,0.11l0,0l-4.28,3.31l-0.8,6.52l0,0l0.16,0.3l0,0l0.73,-0.01l0,0l0.41,0.61l0,0l0.14,1.97l0,0l0.14,0.35l0,0l-0.68,2.96l0,0l0.15,0.16l0,0l0.68,-1.34l2.74,4.94l0,0l-0.98,0.54l0,0l-1.15,0.29l-1.06,1.5l0,0l-1.21,-0.07l0,0l-1.28,0.46l0,0l-0.98,0.08l0,0l-4.14,-0.24l0,0l-0.34,0.32l0,0l-2.64,-0.19l-1.25,0.79l0,0l-0.51,0.05l0,0l-1.28,-0.11l0,0l-0.65,-0.88l0,0l-2.98,-0.16l0,0l-1.34,-0.77l0,0l-11.87,-9.23l0,0l-1.07,0.28l0,0l-3.76,-2.7l0,0l-0.45,-0.46l0,0l-1.07,-1.8l-5.18,-2.11l0,0l-0.77,-0.19l-0.67,1.21l0,0l-0.79,2.58l-1.96,1.28l0,0l-0.93,-0.39l0,0l-1.35,-3.99l0,0l-0.28,-0.01l0,0l-0.92,1.61l-1.02,0.47l-3.93,-1.37l-2.31,0.02l0,0l-0.26,-1.19l0,0l-3.01,-1.05l-1.85,-5.96l0,0l-0.3,-0.44l0,0l-2.12,-6.49l0,0l-0.63,-0.96l0,0l-5.17,-0.55l0,0l-0.81,-0.2l0,0l-0.78,-0.41l-1.65,0.82l0.18,-1.08l0,0l-0.1,-0.05l0,0l-0.92,0.28l0,0l-0.22,0.18l0,0l0.19,1.13l0,0l-0.12,0.14l0,0l-3.04,1.22l0,0l-0.22,-0.01l0,0l0.66,-1.33l0,0l-0.16,-0.17l0,0l-1.28,0.51l0,0l-0.41,-0.07l0,0l-7.11,-2.46l-2.94,-3.01l-2.15,-4.07l0.44,-5.94l-1.39,-3l-1.59,-1.23l-3.03,-0.64l-4.1,0.93l-0.39,-0.9l-1.66,-0.18l-0.36,0.59l-1.41,-0.45l-0.26,-1.09l-1.55,-0.16l-1.38,3.17l-2.46,-4.88l-2.02,-0.05l-5.51,-3.31l-2.01,-0.51l-3.28,1.01l-2.35,-0.08l-3.16,-1.05l-5.42,-5.68l-7.05,-2.24l-2.27,-3.05l-2.62,-1.57l-4.13,-4.43l-5.4,-9.07L0,203.44l5.08,-5.61l0.85,-2.03l-0.61,-0.88l0.7,-0.98l-0.4,-1.03l0.97,-0.14l0.83,-1.21l1.51,0.32l0.14,-2.57l1.41,-1.76l1.18,-1.04l1.18,-1.9l1.56,-0.6l-0.19,-1.22l0.03,-1.18l-0.71,-0.73l1.46,-0.37l-2.81,-2.79l-0.08,-1.93l1.41,0.28l2.38,-2.11l4.49,-0.57l3.34,4.23l1.3,2.32l0.19,0.87l1.97,0.23l0.37,1.51l1.73,-1.14l2.36,-1.09l-2.02,-1.9l0.92,-0.73l0.52,-2.18l2.03,-1.28l1.97,1.4l1.6,-0.81l-0.74,-1.66l0.37,-0.74l1.86,-0.5l-0.36,-2.01l1.01,-1.37l1.14,0.04l1.62,-3l-1.62,-1.5l1.53,-2.99l-0.94,-4.83l1.86,-1.62l-0.4,-2.34l-1.28,-1.24l0.1,-2l2.41,-0.16l0.58,-1.59l2.06,0.17l0.11,0.65l3.36,0.48l-0.1,1.06l2.21,-0.36l-0.06,1.51l0.67,0.17l1.33,-0.18l1.07,-1.5l2.4,-1.25l5,0.56l1.1,-0.97l2.54,0.05l2.17,0.93l0.27,1.27l1.57,1.08l1.96,-1.36l0.45,1.1l2.44,0.83l1.02,-0.34l1.58,-3.15l1.25,-0.51l0.79,1.06l1.17,-0.03l1.04,2.08l1.94,-0.36l1.42,0.51l0.16,0.98l0.81,0.3l0.63,-1.84l1.65,0.1l-0.14,-1.72l-0.96,-0.19l-0.08,-1.6l1.32,0.49l0.94,-0.64l-0.72,-2.24l0.35,-1.54l2.25,-1.6l0,0l3.31,3.06h7.19l0.9,1.48l5.84,0.99l4.5,-0.49v1.48l-1.35,1.98l0.45,1.98l1.35,2.96l3.15,1.98l1.35,3.46l2.7,0.99l2.7,-1.48h2.7l3.15,3.95l2.25,1.48h0.9l0.9,-1.48h2.7l8.09,4.44h1.8l4.05,-2.47L153.91,165.03z"/>
		<path id="BD-F" title="Rangpur" class="land" d="M153.91,165.03L149.33,165.51L145.29,167.98L143.49,167.98L135.4,163.54L132.7,163.54L131.8,165.02L130.9,165.02L128.66,163.54L125.51,159.59L122.81,159.59L120.12,161.07L117.42,160.09L116.07,156.63L112.93,154.66L111.58,151.69L111.13,149.72L112.48,147.74L112.48,146.26L107.98,146.75L102.14,145.76L101.24,144.28L94.05,144.28L90.74,141.23L90.74,141.23L91.5,140.43L93.37,140.87L93.74,138.78L91.71,138.77L91.12,137.72L90.46,138.11L88.61,137.52L87.54,138.14L86.81,137.18L85.74,137.96L83.95,134.66L82.52,134.9L82.28,136.01L80.74,134.38L80.69,133.37L78.06,131.89L78.19,128.84L75.55,127.17L76.88,126.66L77.44,125.43L76.66,123.8L77.92,122.51L77.63,120.84L76.96,119.2L75.33,119.03L74.94,115.66L73.73,115.47L72.31,116.39L70.49,115.49L70.48,116.83L71.42,117.78L71.08,118.49L68.63,119.14L68.24,117.47L65.64,118L65.55,119.83L64.5,120.8L61.33,120.72L60.83,119.79L59.9,120.07L59.73,118.22L57.53,118.18L56.12,116.34L55.05,117.29L53.18,117.13L50.86,115.87L49.88,117.01L49.69,114.51L49.02,113.56L48.04,114.28L46.84,113.33L45.55,111.73L45.87,109.3L43.29,109.32L41.97,107.75L40.84,107.68L41.22,105.24L41.94,104.49L41.81,101.11L37.16,100.2L37.1,98.84L36,98.91L35.76,97.94L34.15,97.56L34.48,95.73L32.87,95.18L32.74,94.37L29.56,93.4L28.92,91.78L24.47,88.76L24.84,87.01L24.3,85.84L23.66,85.45L22.6,85.58L22.2,86.32L21.4,85.98L20.92,87.22L19.52,86.94L18.55,88.19L17.26,86.82L16.46,86.81L15.39,88.29L14.44,88.07L13.23,89.4L12.51,88.88L12.27,87.32L9.99,87.03L10.28,85.63L9.42,85.31L8.81,84.01L9.47,82.93L8.71,82.21L9.82,81.25L8.69,77.94L9.16,77.4L7.69,76.98L7.54,76.11L7.29,74.33L7.98,73.08L9.64,72.62L10.1,70.25L11.07,69.39L10.72,68.32L12.76,65.89L12.5,64.74L16.54,63.47L15.23,62.56L15.71,61.94L16,61.13L15.76,60.07L16.52,59.71L16.45,58.84L14.72,57.3L14.15,56.15L15.97,53.15L15.52,52.89L15.92,50.85L17.51,50.31L18.5,49.56L20.51,48.6L21.39,47.79L21.07,47.03L22.42,46.32L22.83,46.86L24.89,46.6L26.53,45.11L27.17,45.64L29.02,45.08L30.23,43.74L32.04,43.13L32.81,41.03L31.98,40.55L31.97,36.73L35.5,33.39L38,33.15L37.14,31.65L37.88,31L40.06,30.96L41.92,27.15L42.31,28.6L44.65,29.7L44.95,28.59L46.69,28.54L46.41,29.83L48.19,28.59L47.39,28.2L47.37,27.27L47.8,25.67L47.15,25.78L46.47,24.56L46.87,23.8L45.53,23.54L45.33,22.71L45.71,21.73L45.69,20.84L43.94,18.95L44.29,18.05L40.01,17.58L38.57,17.63L36.91,15.52L35.67,16.18L33.46,15.35L32.36,19.65L31.73,17.51L30.34,16.23L30.36,14.67L32.05,12.75L32.87,9.02L33.98,7.69L33.7,6.23L34.39,4.26L35.58,3.27L35.44,2.45L37.69,0L38.69,6.85L39.81,9.13L41.2,10.27L42.32,9.09L44.56,9.7L45.29,12.54L48.18,13.37L48.36,15.91L51.58,15.16L50.75,16.34L51.78,16.85L51.21,18.5L54.95,19.27L54.78,16.94L57.17,17.02L57.53,20.73L59.88,21.58L59.54,22.53L60.94,22.68L61.84,23.68L63.42,23.3L63.45,24.28L63.6,25.73L62.9,26.46L64.29,28.26L64.28,30.2L65.01,31.24L67.9,29.09L69.21,29.28L70.37,31.3L69.92,32.76L70.37,34.75L73.87,33.45L75.99,34.74L75.44,36.91L75.77,39L77.35,39.8L77.07,40.43L78.36,41.65L81.95,41.17L80.35,39.2L80.36,37.16L82.25,35.69L86.61,36.03L88.81,40.23L89.94,40.89L96.26,40.01L97.93,40.67L98.44,39.16L99.24,39.46L98.5,37.09L99.23,36.77L98.82,35.44L97.72,35.17L97.59,36.11L95.84,36.32L94.93,35.61L94.2,34.38L93.1,35.52L93.02,34.63L91.95,34.32L91.98,32.71L92.71,32.24L93.43,31.84L92.01,31L91.91,29.39L89.75,29.17L89.32,31.42L88.8,30.35L88.37,29.72L88.2,28.64L86.64,27.78L85.81,28.31L85.21,27.54L85.08,26.93L84.83,26.15L85.67,25.42L85.77,24.26L84.4,23.16L86.65,22.99L86.29,21.5L86.51,20.63L88.16,21.38L88.78,20.3L88.34,19.05L89.37,17.84L91.78,19.18L91.39,20.25L92.35,22L92.9,21.7L93.48,21.74L94.08,22.8L95.42,22.72L96.56,24.63L97.4,24.13L100.51,24.96L101.48,24.49L102.31,25.09L101.78,27.47L100.85,27.94L102.35,28.38L102.75,30.86L102.52,31.73L104.15,32.82L106.25,32.65L106.13,33.78L105.88,34.85L104.94,36.01L103.26,33.05L102.91,34.1L103.48,35.72L102.87,36.65L104.94,38.26L104.74,39.62L106.48,41.53L106.52,43.41L107.27,44.31L105.89,47.27L107.91,49.28L107.16,49.54L107.71,51.2L108.97,52.58L111.24,53.31L112.24,52.8L114.28,53.24L116.83,56.4L118.22,56.46L117.22,59.33L118.69,59.65L119.23,60.88L121.26,60.85L123.48,62.12L125.74,64.87L130.04,65.25L129.92,63.87L131.31,62.81L131.47,61.87L132.96,61.23L133.84,62.23L133.28,64.35L133.8,65.07L137.53,66.3L138.96,65.3L140.34,65.93L141.56,65.1L143.53,65.4L144.59,65.97L143.42,67.08L143.65,69.02L144.99,69.63L146.06,68.22L146.87,68.1L148.06,68.49L148.16,66.58L147.4,65.63L147.86,63.45L148,62.18L148.56,61.37L150.5,60.47L151.88,59.58L153.87,59.37L152.41,57.85L153,56.6L151.99,54.87L151.31,55.59L150.81,56.13L150.01,56.82L148.62,55.5L148.75,54.82L149.06,54.25L150.7,54.92L152.02,53.63L151.6,52.7L150.34,52.8L149.7,53.87L148.43,49.68L148.9,49.31L150.2,50.05L150.12,49.25L150.24,48.26L150.76,47.49L151.25,48.18L152.1,48.14L153.79,48.88L154.47,47.39L152.81,47.41L151.73,46.64L152.13,45.76L153.37,46.84L153.9,46.25L152.36,44.15L152.46,42.33L154.29,43.29L155.8,43.27L156.63,41.5L157.3,42.44L157.6,43.05L157.73,44.14L156.39,44.4L156.09,45.07L157.11,45.44L157.35,47.14L158.79,48.15L157.17,48.54L156.86,49.32L159.35,50.1L160.02,48.58L160.43,49.88L163.07,49.82L164.92,52.74L163.84,54.65L166.46,55.04L166.35,57.33L167.53,57.26L167.24,58.2L168,59.98L166.58,60.32L166.94,61.18L166.75,61.85L167.28,62.45L168.06,61.88L168.9,61.61L170.12,65.02L169.33,66.76L169.83,67.53L171.4,67.93L170.89,66.22L171.38,64.88L172.3,65.66L172.65,67.25L174.74,68.44L174.43,69.13L171.56,69.7L172.5,71.51L170.8,71L170.32,71.81L171.99,72.6L174.92,71.86L176.14,72.16L175.31,74.32L171.24,79.44L171.4,80.86L170.53,81.16L170.57,82.79L169.04,84.92L170.49,85.91L171.76,89.97L170.65,94.44L171.22,95.79L172.89,96.29L172.63,98.33L174.71,101.58L175.8,105.19L174.4,111.51L174.61,113.35L173.09,114.1L173.68,116.64L172.84,118.89L172.98,121.57L170.47,126.63L165.11,124.98L165.11,124.98L165.17,125.12L165.17,125.12L165.53,126.42L166.43,127L166.15,129.16L166.15,129.16L164.52,130.05L164.52,130.05L163.4,130.01L163.4,130.01L163.15,130.12L163.15,130.12L160.71,132.58L163.67,139.86L163.04,142.38L163.04,142.38L163.04,142.7L163.04,142.7L163.63,144.16L162.67,145.38L162.67,145.38L162.46,145.46L162.46,145.46L158.63,145.83L156.18,150.3L156.14,151.93L154.03,154.81L154.18,157.91L154.18,157.91L154.12,158.18L154.12,158.18L152.98,160.23L153.64,161.29L153.64,161.29L153.96,161.53L153.96,161.53L154.29,161.37L154.29,161.37L154.39,161.53L154.39,161.53L154.62,164.04z"/>
		<path id="BD-G" title="Sylhet" class="land" d="M307.06,149.11L308,149.6L307.75,150.09L310.69,150.45L312.19,151.49L313.84,151.71L314.6,151.14L315.28,152.01L317.9,152.32L319.45,151.71L320.42,153.16L321.9,153.87L324.27,153.76L324.54,155.44L327.21,155.27L328.15,154.28L332.48,153.85L333.24,152.88L334.39,152.69L334.49,151.43L337.97,151.11L338.11,151.71L336.65,152.76L336.86,154.21L338.76,154.29L338.99,156.01L340.51,156.59L343.74,154.99L345.32,154.9L346.39,152.87L349.83,153.65L350.66,150.71L353.38,151.9L358.33,150.44L361.4,150.91L366.53,149.96L372.77,151.14L375.13,149.64L376.68,150.48L380.82,149.75L386.91,152.5L387.43,152.85L386.89,154.24L389.53,155.15L391.39,156.67L392.87,156.01L395.59,156.91L393.71,157.23L395.7,159.23L403.33,161.77L404.74,160.8L406.41,161.16L407.23,162.24L406.35,163.85L408.45,163.95L408.99,164.65L414.38,166.02L413.51,169.61L413.97,172.03L415.6,172.61L416.97,171.66L418.21,173.62L416.81,173.38L416.18,174L417.73,175.13L418.72,175.12L419.66,173.9L419.86,177.19L421.11,179.04L420.22,179.49L420.68,181.29L419.9,182.16L417.89,182.49L415.91,181.83L415.7,183.3L414.41,183.65L414.33,184.41L412.17,184.49L410.84,184.08L409.85,182.87L408.55,182.4L408.06,181.37L407.13,181.5L405.26,180.2L403.77,180.04L401.78,177.43L400.35,179L398.9,178.9L397.97,178.79L397.72,178.06L396.8,178.44L396.36,179.57L397.3,181.56L396.36,182.5L396.69,184.69L397.93,185.52L400.02,186.88L400.52,190.25L401.31,190.85L400.68,192.9L401.39,193.61L400.53,195.54L401.77,196.27L398.44,201.19L397.33,204.42L395.91,212.33L395.45,220.56L390.55,218.11L390.06,217.04L388.42,218.04L388.95,219.26L388.1,220.49L389.14,223.73L388.59,224.53L389.45,225.96L389.1,226.74L390.01,227.59L389.45,228.49L386.86,228.25L385.41,232.05L382.16,233.47L374.77,232.6L373.82,231.57L372.52,232.24L371.39,231.92L370.5,232.61L373.66,236.96L373.39,238.81L371.43,237.75L371.39,236.34L369.8,235.23L366.36,237.33L368.37,244.3L365.57,254.09L365.37,257.1L363.35,257.63L362.44,256.53L361.82,253.85L358.99,251.43L359.76,250.97L359.68,249.77L359.07,248.98L356.54,250.29L355.8,249.22L354.25,249.06L349.78,246.39L351.54,256.98L348.68,257.08L346.65,256.11L345.97,255.02L345,255.36L344.3,254.33L342.74,250.2L342.67,248.1L340.84,249.73L341.98,252.47L341.63,253.63L340.66,253.75L340.68,255.76L339.71,257.4L340.3,259.75L339.53,261.15L337.46,261.96L336.36,261.57L335.8,261.96L335.98,263.43L335.16,263.77L331.2,263.85L326.63,262.57L326.08,261.64L321.73,261.62L318.56,260.28L315.54,260.44L315.45,263.33L317.27,266.38L316.74,268.65L315.19,270.81L315.55,273.97L308.83,271.76L308.83,271.76L307.92,271.3L308.05,269.73L309.06,269.85L309.55,267.44L308.61,265.46L307.14,265.27L307.46,261.69L306.27,261.97L305.34,261.27L305.61,259.94L307.46,259.27L305.54,258.61L305.56,256.99L304.71,256.76L306.05,254.79L306.38,252.97L308.68,251.87L309.71,252.21L309.54,250.62L306.69,251.52L306.02,250.9L306.78,249.14L307.9,249.72L308.1,248.51L308.92,248.84L309.85,247.79L310.64,247.82L310.61,244.78L309.33,244.13L308.3,244.6L307.05,246.3L306.71,247.93L307.17,248.48L306.08,248.69L298.73,247.29L296.74,244.72L296.74,244.72L298.63,242.06L297.93,241.71L295.11,242.74L296.33,239L302.24,239.28L302.4,237.79L300.27,234.69L300.63,233.83L301.92,234.08L304.07,232.62L302.45,229.84L301.47,230.05L300.65,229.42L300.47,228.07L302.54,228.13L302.83,227.29L301.49,222.51L300.06,222.43L300.87,223.77L299.24,223.14L297.6,225.39L297.43,223.88L298.45,223.35L295.96,222.67L294.94,223.45L294.3,223.13L296.3,220.7L297.06,222.13L297.74,221.51L300.23,218.53L302.12,213.95L298.76,212.17L299.4,211.26L299.1,210.02L296.94,209.16L296.71,207.68L298.49,208.58L298.48,207.72L299.37,207.74L299.56,206.05L300.98,206.03L301.79,205.14L300.78,203.64L302.56,203.33L302.62,201.76L300.77,200.95L301.61,199.96L301.15,198.35L299.62,199.9L297.15,198.33L295.45,199.19L295.1,198.45L293.48,198.43L294.51,197.66L294.1,196.3L294.79,196.66L295.17,195.92L294.49,195.97L294.51,195.24L293.31,195.1L293.13,194.5L294.05,193.89L295.42,194.18L295.3,193.25L296.6,192.32L295.21,191.48L296.61,189.21L296.44,187.33L294.9,186.42L293.89,187.82L294.19,188.63L292.86,189.68L294.11,191.18L292.62,191.4L291.11,189.05L291.7,187.05L292.53,186.41L292.12,185.6L291.15,185.56L289.99,181.74L287.87,180.1L284.4,179.56L283.15,181.82L282.25,181.6L281.81,180.53L280.51,180.92L279.43,178.73L276.06,178.65L275.96,176.1L275.32,176.15L277.28,175.28L277.65,174.03L276.6,172.59L275.03,172.2L275.36,169.2L274.12,167.52L274.64,166.66L276.99,165.67L274.06,164.81L273.86,161.44L275.25,161.11L276.43,162.17L277.93,161.69L277.67,159.83L275.71,158.02L276.3,156.89L276.05,154.01L277.69,153.29L277.17,151.84L277.17,151.84L287.85,148.89L292.49,149.32L299.19,148.66L303.69,149.19L305.77,148.19z"/>
	</g>
</svg>