<?xml version="1.0" encoding="utf-8"?>
<!-- (c) ammap.com | SVG map of Belarus - Low -->
<svg xmlns="http://www.w3.org/2000/svg" xmlns:amcharts="http://amcharts.com/ammap" xmlns:xlink="http://www.w3.org/1999/xlink" version="1.1">
	<defs>
		<style type="text/css">
			.land
			{
				fill: #CCCCCC;
				fill-opacity: 1;
				stroke:white;
				stroke-opacity: 1;
				stroke-width:0.5;
			}
		</style>

		<amcharts:ammap projection="mercator" leftLongitude="23.178942" topLatitude="56.172064" rightLongitude="32.780288" bottomLatitude="51.262469"></amcharts:ammap>

		<!-- All areas are listed in the line below. You can use this list in your script. -->
		<!--{id:"BY-BR"},{id:"BY-HO"},{id:"BY-HM"},{id:"BY-HR"},{id:"BY-MA"},{id:"BY-MI"},{id:"BY-VI"}-->

	</defs>
	<g>
		<path id="BY-BR" title="Brest" class="land" d="M56.02,430.21L67.7,429.3L67.81,427.87L70.09,427.13L73.04,428.72L72.8,431.74L76.84,433.11L76.96,432.18L77.8,434.62L78.5,432.19L80.3,431.01L81.23,431.52L80.59,433.29L81.82,431.9L85.67,433.94L89.68,431.61L90.81,431.89L90.79,434.3L99.73,434.11L102.86,432.39L103.65,433.33L102.66,428.51L105.43,421.63L103.7,422.02L104.63,421.2L103.17,419.69L105.79,415.59L108.73,414.66L105.86,412.47L106.17,410.97L113.17,404.82L114.69,404.99L114.2,409.31L116.51,410.31L119.01,409.2L120.35,410.65L122.39,408.39L123.63,410.35L127.92,409.96L129.44,408.2L131.9,408.6L134.02,412.5L132.81,413.94L135.78,417.18L138.46,412.35L139.71,412.78L138.7,419.81L139.46,423.5L141.25,421.19L143.16,422.51L145.06,419.91L149.61,422.69L150.98,418.99L154.94,417.31L155.9,422.02L158.66,423.07L160.85,420.34L160.35,419.02L157.82,419.28L157.31,416.69L159.78,414.49L157.46,410.37L161.62,411.07L166.01,410.16L165.77,406.17L167.66,403.28L172.88,400.77L174.57,398.12L178.27,397.31L177.96,395.72L179.47,393.93L177.08,390.57L178.69,390.15L179.84,386.78L178.9,386.78L179.27,383.17L176.42,380.44L178.11,378.94L178.27,376.38L179.66,376.37L178.35,373.73L180.01,369.85L179,367.82L182.05,367.32L183.62,361.09L183.1,357.71L184.17,357.92L186.27,354.41L193.36,356.25L195.41,354.87L198.11,355.81L199.27,353.82L202.08,353.55L201.75,354.95L206.91,355.34L206.92,356.63L209.71,356.63L211.77,358.6L214.87,356.05L215.52,358.32L218.01,356.77L219.96,357.79L230.13,357.83L231.42,360.21L234.94,358.71L234.94,358.71L236.52,364.05L237.93,364.28L236.84,371.54L233.76,371.65L233.64,373.93L230.81,375.6L231.27,377.06L228.46,377.79L229.26,380.57L232.1,381.62L233.1,384.59L234.74,384.28L236.2,387.59L238.42,389.1L243.01,389.02L243.88,392.88L245.96,393.02L247.16,397.33L243.04,396.71L241.85,398.47L242.25,403.28L239.39,402.98L237.23,404.49L238.49,410.04L242.19,414.72L236.77,420.15L237.03,423.83L241.09,426.17L241.2,427.52L246.03,420.51L246.96,423.97L249.23,422.78L251.49,416.65L254.35,420.13L257.19,419.9L258.93,422.63L260.96,423.17L260.55,422.03L263.61,421.8L264.43,428.29L267.14,431.82L272.2,431.12L273.6,433.19L278.98,435.87L282.94,430.43L284.62,434.82L283.96,438.01L285.94,438.93L286.78,442.53L283.74,443.47L284.54,450.25L282.46,450.28L282.56,452.72L284.78,453.85L285.05,457.22L286.25,457.33L286.43,465.73L291.3,465.94L292.04,470.38L294.07,470.18L294.4,474.3L299.04,474.22L299.16,476.62L302.58,477.56L302.58,477.56L301.37,481.62L301.86,486L309.78,485.92L309.87,487.9L312.44,490.02L316.84,490.22L318.59,492.65L321.63,493.54L323.45,499.46L321.03,502.43L322.6,504.77L320.29,511.03L320.63,516.81L324.27,517.34L324.93,520.7L327.47,520.7L327.55,523.71L320.32,530.89L322.04,536.97L319.28,541.89L323.77,547.12L321.9,551.63L323.25,554.18L321.23,556.74L319.54,556.45L318.59,557.72L318.15,564.04L320.37,567.93L320.37,567.93L320,571.39L321.1,571.33L319.4,573.72L317.53,572.65L317.83,570.29L316.45,571.24L315.6,569.73L313.67,571.65L308.87,570.15L307.39,571.55L300.22,571.86L302.41,565.79L300.64,564.27L297.61,564.6L297.09,551.62L281.7,552.21L278.32,556.19L270.88,552.53L266.94,553.6L263.92,551.21L263.7,548.09L259.3,545.5L252.04,545.02L248.36,548.75L243.12,548.55L242.88,546.91L241,546.43L239.43,544.03L237.62,544.28L237.4,539.46L235.34,540.91L224.77,539.83L220,540.66L219.83,539.06L218.65,539.27L215.22,535.26L208.99,532.64L202.57,534.77L195.54,533.59L195.34,531.37L192.04,530.52L191.19,530.8L192.16,533.87L179.25,533.83L173.66,531.8L172.44,533.9L170.52,532.91L169.72,534.18L164.96,534.18L159.46,532.29L153.83,528.45L151.46,529.39L148.83,528.31L144.77,530.4L141.55,530.42L131.88,536.91L129.42,536.92L128.47,535.22L122.95,536.9L121.53,534.99L116.59,538.51L113.54,536.96L110.25,537.41L107.1,536.23L95.81,538.69L89.16,538.62L85.56,541.29L85.9,542.62L82.4,548.16L84.07,554.41L80.59,558.26L69.61,564.3L66.22,569.69L60.41,574.42L54.94,572.32L51.89,573.18L51.69,571.18L54.15,568.36L47.89,566.66L45.3,567.46L44.46,564.18L39.17,566.2L36.85,565.75L31.67,569.24L33.49,572.95L35.8,574.27L33.83,577.83L36.76,583.29L32.75,583.47L31.77,580.6L28.44,579.77L29.34,577.16L26.62,571.81L26.43,566.91L28,560.43L25.7,556.8L28.02,552.99L30.02,553.28L33.24,550.81L33.97,548.34L31.14,543.54L31.48,539.28L33.29,539.75L32.64,538.23L33.82,537.36L31.91,534.46L34.35,532.52L33.97,530.64L32.95,530.62L36.19,528.92L35.84,527.27L37.52,525.52L34.12,517.55L35.04,517.34L34.85,514.87L32.25,513.43L32.52,511.73L30.89,510.44L27.91,510.27L27.21,511.28L24.55,506.77L22.71,506.2L23.72,502.99L21.17,503.58L20.47,502.32L18.07,503.81L17.42,502.64L16.27,503.21L15.85,500.44L14.39,501.06L13.68,499.59L9.7,499.43L9.03,497.88L6.32,498.73L1.91,497.35L1.78,491.44L0,490.42L10.09,472.64L17.89,461.78L21.94,457.7L29.79,453.1L39.27,450.54L40.95,451.47L52.58,442.65L55.97,438.64z"/>
		<path id="BY-HO" title="Homyel'" class="land" d="M390.57,442.45l1.02,0.72l2.1,-2.03l0.67,1.09l4.98,0.02l4.27,-2.03l3.49,1.32l1.86,-1.4l2.63,1.35l2.3,-3.61l3.88,-0.02l-0.1,-2.06l-1.4,0.38l-1.23,-1.31l0.64,-3.26l3.48,1.13l1.62,-1.97l1.65,0.29l5.87,-8.2l-0.41,-3.02l11.5,-1.62l-0.97,-4.33l5.86,-7.74l13.21,5.12l0.63,-1.49l1.31,0.17l-0.13,1.58l2.11,1.06l3.52,-1.59l3.19,-3.48l8.52,0.48l2.95,2.15l4.1,-1.31l-0.66,-1.41l1.51,-1.7l-4.02,-1.75l-2.51,-3.57l3.07,-3.87l-0.86,-1.88l-2.2,0.77l-1.64,-3.32l1.91,-1.29l-1,-2.44l1.33,-1.78l1.56,1.88l3.16,0.26l4.08,-2.12l-1.51,-1.61l1.52,-3.33l-2.09,-1.04l3.56,-1.28l-2.11,-5.69l0.47,-1.55l-1.43,-1.72l-0.07,-5.09l7.07,-5.36l0.81,3.92l2.13,-0.9l-0.66,-0.89l0.96,-0.49l1.43,1.06l-1.14,3.05l3.49,0.52l1.03,-3.33l9.22,2.17l5.89,11.18l5.32,-0.86l2.05,-2.66l0.08,1.26l4.84,-2.06l3.39,0.53l0.21,-2.01l2.26,-1.79l3.42,1.06l0.86,-2.37l1.8,0.31l0.93,-2.58l2.67,0.27l1.94,-4.6l1.23,0.68l-1.45,2.68l1.37,0.74l-0.63,1.42l6.99,1.36l-1.05,2.16l1.91,1.84l3.06,-0.36l-0.05,-1.76l3.2,-1.13l5.13,0.73l1.33,-1.17l-0.32,-1.38l1.53,-0.52l10.23,-0.25l-0.53,2.66l-2.08,1.98l1.16,1.82l1.43,-1.02l1.98,0.62l-0.04,3.09l1.93,1.21l0.11,2.9l2.47,-0.49l0.61,2.02l1.36,0.38l0.15,1.99l-1.61,1.55l1.09,2l6.45,-0.58l1.26,3.49l2.07,-0.76l0.02,0.87l5.69,0.12l1.02,2.26h1.5l0,0l-2.01,0.6l-0.38,6.06l-4.8,-0.1l-1.57,1.64l8.32,5.42l1.65,3.76l-0.27,3.31l8.09,8.14l4.04,0.23l0.07,2.17l-1.36,1.21l4.95,4.63l0.98,6.05l-2.87,4.32l-4.79,1.7l4.61,5.59l0.33,6.16l5.01,4.04l3.03,0.34l-2.72,2.44l-1.74,-1.09l-1.36,4.18l-2.6,-0.31l1.12,2.58l2.13,-0.99l1.54,1.69l-1.38,3.04l-1.79,0.82l1.94,0.58l-1.03,4.46l2.03,-0.18l0.71,2.38l-0.39,8.19l-3.1,0.94l3.12,3.92l0.37,-0.79l1.63,2.25l4.34,1.55l-1.05,1.12l0.87,4.85l-1.56,2.51l6.88,1l1.29,7.88l-5.65,2.97l-0.58,-1.37l-3.09,-0.92l-11.27,-1.32l-2.8,1.04l-1.42,-0.49l-0.71,-2.33l-3.62,-0.11l-1.99,1.04l0.59,1.42l-4.51,1.91l-2.01,6.29l-3.16,1.23l-2.06,-1.02l-0.97,-2.52l-3.88,-0.91l-1.35,-2.71l-11.48,2.93l-2.71,-1.4l0.13,1.75l-1.39,0.2l1.09,2.76l-1.78,-1.01l1.11,1.63l-1.16,0.65l0.51,1.88l-1.19,0.23l1.29,3.27l-2.23,-1.21l-0.69,1.04l1.28,1.08l-1.82,0.41l0.29,1.7l-3.7,0.9l1.07,0.89l-0.69,0.85l-1.56,-0.98l-0.96,0.84l1.1,3.27l-1.59,2.69l-4.1,-0.43l-2.98,4.21l-0.82,3.64l-3.22,1.42l1.31,3.41l-0.92,2.55l-3.19,0.8l2.62,0.94l-1.86,5.47l-4.42,0.94l0.49,5.24l-3.02,-1.61l-0.97,0.71l1.34,1.51l-1.95,3.52l3.53,2.44l-3.45,1.07l3.29,2.11l-1.87,1.91l1.37,2.57l2.55,-0.63l-0.98,4.26l1.58,3.93l2.35,1.34l-3.04,1.86l0.34,2.62l2.42,0.21l2.64,5.38l-1.28,2.36l1,2.55l-4.2,2.98l1.37,0.79l-0.66,0.81l1.48,-0.55l-1.1,2.74l-4.94,2.3l-2.52,-2.21l-4.02,0.85l0.72,-3.87l-4.36,-0.32l-5.74,-5.9l2.25,-2.06l-1.18,-4.93l0.77,-0.48l-7.71,-7.27l-5.4,-3.11l-0.85,2.65l-2.59,-2.15l-0.6,2.3l-7.58,-1.94l-0.35,1.72l-2.56,0.65l-0.8,1.56l-2.81,-2.19l-2.38,0.62l-1.29,4.61l-2.62,-1.38l-2.01,0.86l-0.8,-1.17l-0.85,2.1l-3.57,-1.88l-1.3,-3.7l1.36,-0.6l-0.13,-2.46l-0.54,-1.74l-1.54,0.02l-3.42,3.17l-2.74,-0.21l-3.68,4.94l-3.21,-2.07l-2.81,9.62l-6.65,-1.58l-6.55,3.99l-1.36,-9.03l-2.67,-0.86l-1.54,-4.04l0.43,-8.35l-3.09,-0.75l-0.41,-2.84l-2.15,-1.76l0.52,-1.26l-1.51,-0.65l0.22,-2.97l-4.32,0.2l-8.01,9.13l-1.73,0.15l-0.52,-1.99l-4.43,0.14l-6.19,3.32l-4.58,8.64l1.49,4.14l-2.16,4.31l-1.12,-6.01l-2.62,2.8l-1.36,-0.58l-3.02,-12.49l0.86,-0.89l-1.65,0.04l2.02,-0.97l-7.52,-0.21l-0.01,-1.21l-2.81,-1.22l-3.51,-0.28l-8.6,6.37l-0.65,-4.12l-4.61,-5.81l-1.84,0.26l0.02,-7.24l-6.28,4.26l-1.45,4.52l-1.9,0.31l-1.75,3.08l-4.94,1.64l-7.15,0.91l2.61,-4.3l-3.97,2.05l-0.74,-4.68l-4.11,-1.62l-2.02,1.01l-0.64,0.68l1.4,1.04l-0.95,4.26l1.65,3.48l-3.64,1.27l-3.24,6.8l-6.82,-4.99l4.14,-5.64l0.27,-4.67l-5.69,-1.43l-1.82,1.29l-5.24,-3.7l-0.93,1.63l-1.52,-1.61l0,0l-2.21,-3.89l0.44,-6.32l0.95,-1.27l1.69,0.3l2.02,-2.57l-1.34,-2.55l1.87,-4.51l-4.49,-5.23l2.76,-4.91l-1.72,-6.08l7.23,-7.19l-0.08,-3h-2.54l-0.66,-3.36l-3.64,-0.53l-0.34,-5.78l2.3,-6.26l-1.56,-2.34l2.42,-2.97l-1.82,-5.92l-3.04,-0.89l-1.74,-2.43l-4.4,-0.2l-2.58,-2.12l-0.09,-1.98l-7.91,0.09l-0.49,-4.39l1.21,-4.05l0,0l6.3,-6.04l0.67,-1.27l-1.85,-4.57l2.42,-1.22l1.53,-3.81l8.94,0.44l1.71,-2.06l1.9,1.79l1.82,-1.9l0.4,1.05l1.3,-0.65l-0.1,1.83l1.46,0.06l-1.24,5.58l7.79,3.65l0.38,2.3l5.95,-0.6l6.73,1.84l4.12,-1.22l0.08,-3.3l1.7,-0.98l-0.86,-4.62l1.82,-0.99l9.49,-1.23l0.89,4.47l4.62,-0.87l0.44,2.26l10.47,-1.67l6.73,-6.7l0.11,-12.44L390.57,442.45zM617.15,467.48l-0.18,-1.28l3.45,0.85l-0.52,1.81l-0.88,-1.48L617.15,467.48z"/>
		<path id="BY-HM" title="Minsk City" class="land" d="M326.4,306.17l-1.79,-2.65l0,0l1.47,-0.77l0,0L326.4,306.17zM349.2,297.02l-0.77,-1.82l1.26,0.74L349.2,297.02zM359.49,294.13l1.61,2l-1.38,1.04l0,0l-2.54,-2.99L359.49,294.13zM325.84,284.36l2.46,1.34l1.56,-0.7l-0.35,1.3l1.41,0.88l6.58,-1.68l-0.76,3.65l-4.13,2.09l1.37,4.66l-1,2.69l3.24,2.37l0.48,-3.37l4.42,0.21l1.47,1.58l-2.21,1.69l-0.1,1.69l-2,0.42l-2.68,-1.9l-0.68,2.9l-2.42,1.16l-1.11,-2.47l1.21,-0.84l-0.63,-1.32l-3.68,1.42l-11.06,-0.37l-2.68,-1.79l-0.84,-2.58l-1.68,1.37l-1.95,-1.21l2.9,-1.79v-4.95l3.58,-5.05L325.84,284.36z"/>
		<path id="BY-HR" title="Hrodzen" class="land" d="M223.38,153.25l3.11,1.57l0.96,4.62l1.85,1.09l0,0l-0.26,0.95l6.31,5.81l-2.41,3.78l0.5,4.91l6.36,-1.66l1.54,1.36l4.28,7.18l3.31,1.38l-0.41,5.58l2.43,6.9l1.82,2.04l1.37,-1.27l1.68,1.12l2.74,-0.67l-0.97,6.1l2.45,0.94l-0.31,1.28l-2.35,-0.05l0.07,4.14l-3.67,-1.5l1.05,1.18l-0.88,2.67l1.2,0.52l-0.41,1.37l1.31,-0.2l0.75,3.74l-1.19,4.21l-1.27,0.61l1.92,1.08l-3.56,4.62l-2.6,-0.11l-0.96,2.25l-1.17,0.09l0.5,2.29l-1.17,-0.01l-2.69,6.18l0.28,2.35l-4.77,1.63l-5.88,10.02l-6.56,-0.67l-1.79,-2.72l-1.3,1.19l-1.28,-1l-7.3,6.53l-2.24,0.15l-1.31,-2.64l-3.91,6.8l0.39,1.38l6.32,3.51l0.45,-1.27l-2.01,-1.83l5.65,-1.57l-1.82,5.23l3.23,9.57l2.5,0.93l8.74,-4.23l0.55,5.88l-1.59,4.29l3.31,-0.76l3.46,-2.76l2.79,6.45l-2.14,2.73l-3.77,0.45l1.96,3.56l-4.15,1.48l-2.24,2.35l-1.03,-1.27l-0.96,1.46l-2.77,0.19l1.92,4.46l-2.17,0.27l-0.14,1.81l1.23,1.22l1.46,-0.89l1.22,1.46l-1.51,1.25l1.3,1.92l-0.94,0.94l3.57,7.34l4.39,1.27l-0.8,3.45l3.13,1.14l-0.13,1.49l3.04,2.67l3.16,5.98l4.44,2.19l-0.1,3.36L245,340.68l1.29,0.99l1.4,-1.36l0.5,1.47l1.09,-0.33l0.29,8.48l1.76,4.12l-4.9,1.8l-7.34,0.21l-2.01,2.4l-2.12,0.26l0,0l-3.52,1.51l-1.29,-2.38l-10.17,-0.04l-1.95,-1.02l-2.49,1.56l-0.65,-2.27l-3.1,2.54l-2.06,-1.96h-2.79l-0.01,-1.3l-5.16,-0.38l0.33,-1.41l-2.81,0.27l-1.16,1.99l-2.69,-0.94l-2.05,1.38l-7.09,-1.84l-2.1,3.51l-1.07,-0.21l0.52,3.38l-1.57,6.23l-3.05,0.51l1.01,2.03l-1.66,3.88l1.31,2.63l-1.4,0.01l-0.15,2.56l-1.69,1.5l2.85,2.73l-0.37,3.61h0.94l-1.14,3.38l-1.61,0.42l2.38,3.36l-1.51,1.79l0.31,1.59l-3.7,0.81l-1.7,2.65l-5.21,2.51l-1.89,2.89l0.24,4l-4.39,0.9l-4.16,-0.7l2.32,4.12l-2.47,2.2l0.51,2.59l2.53,-0.26l0.5,1.32l-2.19,2.73l-2.76,-1.05l-0.96,-4.71l-3.96,1.68l-1.37,3.7l-4.55,-2.78l-1.9,2.6l-1.91,-1.32l-1.79,2.31l-0.75,-3.68l1,-7.03l-1.25,-0.43l-2.68,4.82l-2.97,-3.23l1.21,-1.44l-2.12,-3.9l-2.46,-0.4l-1.52,1.76l-4.29,0.39l-1.25,-1.96l-2.04,2.26l-1.34,-1.45l-2.5,1.11l-2.3,-1l0.49,-4.32l-1.52,-0.17l-7,6.15l-0.31,1.5l2.87,2.19l-2.94,0.93l-2.62,4.1l1.46,1.51l-0.93,0.82l1.73,-0.39l-2.77,6.88l1,4.82l-0.79,-0.94l-3.13,1.72l-8.94,0.19l0.02,-2.41l-1.12,-0.28l-4.01,2.32l-3.85,-2.03l-1.23,1.39l0.64,-1.77l-0.93,-0.51l-1.79,1.18l-0.71,2.42l-0.83,-2.43l-0.12,0.93l-4.04,-1.36l0.24,-3.02l-2.95,-1.6l-2.28,0.74l-0.11,1.43l-11.68,0.91l0,0l-1.67,-18.98l2.2,-2.56l-1.55,-8.03l-3.91,-6.89l3.35,-9.36l-3.92,-4.6l-0.64,-4.51l-2.76,-1.6l-11.67,-34.12l-5.74,-27.6l-2.46,-3.29l0.25,-10.15l-2.09,-1.45l-0.65,-11.74l1.53,1.47l3.31,0.13l2.12,2.08l7.52,-1.65l4.17,1.98l0.63,2.9l1.11,0.15l2.04,-1.35l-1.23,-3.16l3.32,-2.49l3.71,1.37l1.43,-3.05l3.55,2.08l0.48,3.03l1.46,0.18l8.14,-1.6l0.98,-2.24l2.08,0.39l4.4,-2l0.68,2.53l1.59,0.63l1.5,-0.99l4.51,5.92l1.25,0.33l1.15,-1.36l0.79,1.4l4.64,-0.71l0.46,0.99l-0.13,-1.09l0.69,0.8l1.63,-0.81l4.68,-6.38l7.55,-6.31l5.88,-0.73l-0.91,6.63l3.62,-0.43l2.34,-3.34l3.38,-0.21l1.91,-1.54l-0.3,-2.59l2.62,-0.87l-2.18,0.1l-1.51,-1.43l-0.17,-3.25l-3.54,-5.14l4.34,-2.51l-0.92,-1.76l3.87,-0.14l6.53,-3.13l2.62,3.65l5.91,1.04l9.53,-10.8l1.37,-4.9l0.85,-0.52l1.36,1.44l1.22,-2.69l2.59,1.46l3.7,-0.3l4.13,-2.31l0.98,-1.99l3.33,0.96l2.36,-2.56l1.21,0.52l0.19,2.89l3.27,1.3l1.96,5.8l-3.4,-0.3l1.34,4.17l-3.46,1.44l-0.32,1.31l1.77,2.4l6.85,1.55l1.04,1.91l3.22,-1.48l1.52,-3.53l2.52,1.62l1.2,-1.99l2.8,1.76l-1.65,-3.23l0.21,-2.46l-2.08,-2.05l3.57,-2.48l-2.13,-0.47l-1.13,-3.59l-3.57,-0.95l0.56,-2.49l-1.68,-2.78l-5.01,1.28l-2.25,-1.55l-2.68,0.99l-0.19,-2.16l-1.1,-0.19l4.16,-5.42l0.09,-3.38l0.96,0.65l1.83,-3.15l-0.17,-4.33l-1.65,-0.35l2.43,-1.34l3.24,-8.28l5.88,-5.26l-2.13,-13.29l1.23,-8.62l-0.98,-6.77l1.17,-2.83l1.83,-0.26l0.44,-4.02l5.18,-5.2l0.49,-3.91l5.17,-1.03l3.94,-2.72l5.99,2.05l-0.69,-0.82l1.99,-0.71l-0.21,-1.86l2.27,-0.29l0.84,-2.1L223.38,153.25zM170.29,244.94l-1.05,-0.26l2.08,-1L170.29,244.94z"/>
		<path id="BY-MA" title="Mahilyow" class="land" d="M459.07,248.97L461.16,248.46L462.38,249.57L464.49,247.18L465.61,247.75L468.82,240.99L472.04,241.25L471.19,238.48L472.1,236.76L475.72,235.4L475.69,236.86L480.92,240.26L490,239.01L491.9,237.27L494.04,238.7L495.92,235.87L496.75,236.55L495.49,238.33L497.47,240.35L496.65,241.47L499.98,243.14L503.36,241.16L502.2,244.79L504.91,244.78L505.8,244.31L504.21,239.98L507.61,241.06L507.6,239.9L509.54,239.25L506.52,236.46L508.95,236.61L510.36,238.53L512.21,235.45L510.36,233.44L510.89,231.79L513.77,231.25L512.23,234.06L515.24,233.03L517.09,235.6L516.99,237.74L518.65,237.63L519.78,233.48L522.21,235.36L525.09,235.6L526.09,230.43L528.05,231.46L527.46,235.68L524.63,238.15L523.31,242.21L528.71,243.62L531.02,239.93L534.17,240.21L534.4,236.99L536.04,238.1L538.59,245.61L540.55,244.18L540.91,246.46L543.56,247.72L542.73,245.01L545.52,244.97L542.81,244.02L546.05,241.4L544.81,240.77L546.29,237.5L548.66,235.85L545.55,233.19L554.64,230.42L554.16,226.44L556.17,225.79L558.71,227.4L561.35,227.38L561.82,229.66L564.63,228.79L567.75,229.81L569.65,228.86L570.48,224.43L572.31,222.98L573.75,225.87L578.36,226.3L579.65,229.57L582.74,225.19L588.39,222.53L587.23,220.33L592.6,220.52L592.6,220.52L594.78,221.06L595.07,224.91L597.54,229.17L596.24,232.07L599.81,233.64L601.38,237.08L598.74,239.57L601.28,240.45L600.92,248.84L604.24,249.8L605.55,248.33L606.09,251.55L608.04,251.31L605.76,253.2L609.84,253.61L612.88,257.08L614.3,256.9L613.97,259.47L618.46,260.65L619.18,262.46L623.84,262.94L625.9,261.84L627.49,266.59L634.81,265.41L633.29,269.83L635.76,269.99L638.39,267.84L639.53,269.3L640.77,268.4L641.51,269.65L643.86,269.26L642.73,270.95L643.34,275.1L640.82,278.87L643.27,280.77L643.38,283.91L640.65,285.8L639.05,294.21L636.71,295.07L638.18,296.44L635.39,299.25L636.1,300.34L633.67,300.59L634.78,301.99L634.03,305.26L637.16,303.8L644,307.75L644.55,306.4L647.84,306.67L650.63,304.21L654.93,304.88L654.65,303.98L657.54,304.32L660.76,302.42L664.48,305.63L666.81,304.86L668.18,308.82L672.47,307.69L671.57,309.67L675.29,309.52L678.6,315.04L685.31,312.43L685.51,314.5L688.17,316.43L688.33,318.94L684.94,321.18L683,320.9L681.89,322.95L682.25,325.25L683.14,325.74L683.09,323.26L684.49,324.99L682.94,328.9L686.86,333.64L686.37,335.87L692.12,338.51L691.33,339.86L695.89,340.43L696.06,344.72L697.73,345.07L699.14,341.46L702.14,344.07L700.18,344.6L699.92,345.84L708.2,346.5L706.73,348.59L707.81,351.54L706.17,351.73L706.11,353.22L708.71,355.6L706.04,355.02L704.96,357.63L706.9,362.31L703.29,362.98L702.02,361.77L699.48,364.99L696.9,361.84L697.1,364.86L695.63,364.93L694.52,367.8L691.68,366.45L690.22,367.49L690.03,365.8L687.37,366.28L689.26,368.69L684.44,377.93L681.79,380.65L677.76,380.84L675.85,385.72L673.66,387.78L669.3,387.86L668.83,391.38L665.08,390.32L664.04,392.73L658.38,394.14L652.74,392.51L652.61,391.39L650.63,393.19L646.48,393.43L644.98,392.8L644.67,390.24L638.87,389.97L636.46,386.3L635.78,381.88L632.61,379.31L631.52,379.84L623.98,375.46L620.39,379.92L607.31,377.54L608.32,381.97L604.37,386.3L604.51,388.07L606.94,390.09L606.29,391.65L604.24,391.85L604.24,391.85L602.74,391.85L601.72,389.59L596.04,389.47L596.02,388.59L593.95,389.35L592.68,385.87L586.24,386.45L585.15,384.44L586.76,382.9L586.61,380.9L585.25,380.52L584.64,378.51L582.17,379L582.06,376.1L580.13,374.89L580.17,371.8L578.19,371.19L576.76,372.21L575.6,370.38L577.67,368.4L578.21,365.74L567.97,365.99L566.44,366.5L566.76,367.88L565.43,369.05L560.3,368.33L557.1,369.46L557.15,371.22L554.1,371.58L552.18,369.74L553.23,367.59L546.24,366.23L546.88,364.81L545.5,364.07L546.95,361.4L545.72,360.72L543.78,365.32L541.11,365.05L540.18,367.62L538.38,367.32L537.51,369.68L534.1,368.62L531.84,370.41L531.63,372.42L528.24,371.89L523.4,373.94L523.31,372.69L521.27,375.35L515.95,376.21L510.06,365.02L500.84,362.85L499.81,366.18L496.33,365.67L497.46,362.62L496.03,361.56L495.07,362.05L495.74,362.94L493.6,363.84L492.79,359.92L485.72,365.28L485.78,370.37L487.22,372.1L486.74,373.65L488.85,379.34L485.3,380.62L487.39,381.67L485.86,385L487.37,386.6L483.3,388.73L480.14,388.47L478.58,386.59L477.25,388.37L478.24,390.81L476.34,392.1L477.98,395.43L480.18,394.65L481.04,396.53L477.97,400.4L480.48,403.98L484.51,405.73L483,407.43L483.66,408.83L479.57,410.14L476.62,407.99L468.1,407.51L464.91,411L461.39,412.58L459.28,411.52L459.4,409.94L458.09,409.77L457.46,411.27L444.25,406.14L438.39,413.88L439.35,418.21L427.86,419.84L428.27,422.86L422.4,431.06L420.76,430.77L419.14,432.74L415.66,431.61L415.02,434.87L416.26,436.19L417.66,435.81L417.76,437.86L413.87,437.89L411.58,441.5L408.95,440.15L407.09,441.55L403.6,440.22L399.33,442.25L394.35,442.23L393.69,441.13L391.59,443.16L390.57,442.45L390.57,442.45L389.38,440.03L383,437.12L383.08,435.03L383.42,433.17L387.18,430.61L389.12,425.93L386.77,420.64L390.24,419.72L391.31,417.08L387.76,409.52L388.79,406.96L390.5,407.1L392.24,405.15L396.1,406.85L397.61,403.88L395.38,401.32L394.49,397.44L395.54,395.27L394.37,391.43L395.54,390.17L393.56,387.32L392.41,387.87L393.67,385.77L392.2,383.72L386.24,385.35L383.59,383.13L384.05,384.95L381.6,385.71L381.6,383.45L379,384.17L381.67,380.56L378.76,378.58L376.9,381.59L375.43,379.65L374.05,379.79L373.7,381.22L372.26,379.65L369.68,380.75L369.2,378.32L364,376.32L364.41,374.45L362.72,373.28L362.01,369.94L364.16,370.69L366.38,369.26L370.48,371.47L377.65,372.11L380.13,371.96L380.12,370.03L387.86,369.18L387.79,364.15L385.48,361.39L382.18,360.1L381.93,358.73L382.64,355.9L384.13,356.19L385.82,354.24L385.85,347.73L380.76,344.67L383.49,343.17L385.73,344.5L390.67,339.38L391.25,340.24L392.14,339.54L392.14,337.63L394.06,340.48L394.83,339.17L397.9,338.91L398.04,337.56L396.77,337.89L395.92,336.64L396.49,338.44L392.28,337.37L395.01,334.85L399.07,335.05L399.34,332.3L401.93,332.41L401.89,328.13L408.53,332.22L413.48,332.42L413.19,330.26L416.23,329.17L417.42,332.14L420.38,332.44L423.13,337.78L426.65,338.37L427.42,339.6L426.2,333.99L427.73,333.64L425.98,332.1L429.49,330.41L429.9,331.43L435.35,331.98L436.24,330.39L434.29,326.1L434.88,324.7L436.55,325.54L437.42,324.2L437.32,318.86L439.1,319.04L439.24,320.67L441.03,320.01L442.82,323.03L444.31,322.66L448.62,318.78L451.97,317.81L453.49,311.51L455.03,311.5L456.91,314.38L458.7,313.9L458.4,310.35L460.83,309.41L457.84,308.45L458.47,306.32L465.85,306.12L466.15,304.2L463.41,302.57L461.11,303.02L460.41,300.51L455.96,300.81L460.76,296.46L458.17,297.97L456.79,296.96L459.22,294.94L457.19,294.11L459.12,290.08L457.27,288.96L457.45,285.53L455.5,283.95L456.89,282.35L456.48,280.47L454.06,278.08L458.94,274.23L461.57,274.27L460.71,273.03L462.38,258.58L461.33,257.47L463.93,253.13L461.89,250.71L459.51,250.71z"/>
		<path id="BY-MI" title="Minsk" class="land" d="M229.29,160.53l2.22,-3.81l1.48,1.16l1.09,-0.67l0.14,-1.41l-1.45,-0.23l0.99,-1.6l10.62,4.94l1.45,-1.35l4.42,2.84l3.33,-3.12l-1.34,-2.19l2.64,0.53l1.29,-1.37l2.13,1.84l1.13,-0.42l1.99,2.61l1.65,-0.11l0.02,-1.51l1.46,-0.51l1.82,0.87l1.01,-1.22l1.24,1.14l0.58,-2.36l-2.05,-1.59l1.37,-2.25l1.54,0.15l0.82,2.25l1.95,-2.84l2.02,-0.42l4.47,4.46l0.51,2.76l3.53,-1.75l4.37,-0.03l0.35,-1.44l-1.9,-0.59l1.63,-0.76l1.63,0.68l2.92,-1.03l0.77,2.03l1.54,-2.22l0.89,1.22l1.37,-1.1l0.67,1.72l3.74,-0.74l1.09,2.03l-1.02,2.3l4.09,3.11l-0.84,4.53l1.99,0.55l1.67,3.42l3.79,2.33l1.53,-1.01l4.74,3.03l0.39,4.07l2.3,-1.09l2.05,0.79l-1.45,5.3l7.29,-0.31l4.87,3.1l0.04,8.57l3.06,2.71l-0.7,2.52l2.25,3.42l4.13,-1.58l0.98,0.69l2.69,-3.02l1.51,1.17l-0.81,1.96l2.5,1.45l3.21,-0.42l2,3.42l2.08,-0.81l0.46,-3.08l3.96,-2.21l1.65,1.15l3.23,-2.19l-0.79,-1.85l0.98,-1.39l-0.24,0.92l4.34,-2.08l5.29,3.81l0.76,4.15l0.21,-2.76l0.63,2.24l1.48,-0.8l0.58,2.53l1.84,0.67l3.51,5.05l1.49,-0.02l1.78,-3.09l1.96,-10.56l8.74,0.09l0.69,-1.41l1.7,1.44l1.79,-0.36l3.49,6.01l-0.94,2.98l0.82,2.19l2.54,0.62l3.23,-1.56l3.97,2.12l3.6,-0.41l1.8,-1.64l-1.19,-2.85l2.67,-1l8.28,4.02l1.27,-4.35l5.14,-2.93l4.28,1.45l3.94,-1.35l-0.64,1.32l1.7,0.83l-1.44,1.43l1.15,4.29l2.18,1.02l3.15,-0.11l2.05,-2.11l1.81,1.45l2.69,-3.27l-1.23,1.83l2.64,0.56l1.57,-4.09l2.83,-0.69l1.98,3.99l-2.32,1.89l0.26,3.04l-1.7,3.72l0.76,2.41l-3.63,4.72l1.39,0.57l1.31,3.47l-1.13,0.29l-0.18,2.82l1.81,2.39l-1.95,0.09l-1.45,2.09l-4.08,-0.08l0.24,1.69l1.58,0.28l-0.67,1.58l1.48,2.64l2.65,0.72l-2.43,1.55l-0.03,3.37l-1.24,1.49l-0.85,-1.44l0.22,2.04l-1.56,2.16l2.22,1.39l2.3,-1.2l0,0l0.44,1.74h2.38l2.04,2.42l-2.6,4.34l1.05,1.11l-1.67,14.45l0.86,1.24l-2.63,-0.04l-4.89,3.85l2.42,2.38l0.41,1.88l-1.4,1.6l1.96,1.58l-0.18,3.43l1.85,1.13l-1.93,4.03l2.03,0.84l-2.44,2.01l1.38,1.01l2.59,-1.51l-4.8,4.36l4.45,-0.3l0.7,2.51l2.3,-0.45l2.74,1.62l-0.29,1.92l-7.38,0.2l-0.63,2.13l2.99,0.96l-2.42,0.95l0.3,3.55l-1.79,0.47l-1.88,-2.88l-1.53,0.01l-1.53,6.3l-3.34,0.97l-4.31,3.88l-1.48,0.37l-1.79,-3.02l-1.79,0.66l-0.13,-1.63l-1.78,-0.19l0.1,5.35l-0.87,1.34l-1.67,-0.84l-0.59,1.4l1.95,4.28l-0.89,1.59l-5.46,-0.55l-0.41,-1.02l-3.51,1.69l1.74,1.54l-1.52,0.35l1.22,5.62l-0.77,-1.23l-3.52,-0.6l-2.75,-5.34l-2.96,-0.3l-1.19,-2.97l-3.03,1.09l0.29,2.16l-4.95,-0.2l-6.65,-4.1l0.04,4.28l-2.58,-0.11l-0.27,2.75l-4.06,-0.2l-2.72,2.52l4.21,1.07l-0.57,-1.8l0.85,1.25l1.26,-0.33l-0.14,1.35l-3.06,0.26l-0.77,1.31l-1.93,-2.85l0.01,1.91l-0.89,0.71l-0.58,-0.87l-4.93,5.13l-2.24,-1.34l-2.72,1.5l5.09,3.07l-0.03,6.5l-1.69,1.95l-1.49,-0.28l-0.71,2.83l0.25,1.37l3.29,1.28l2.31,2.76l0.07,5.03l-7.74,0.85l0.01,1.93l-2.48,0.15l-7.17,-0.64l-4.1,-2.2l-2.22,1.43l-2.15,-0.75l0.71,3.34l1.69,1.17l-0.41,1.87l5.2,2.01l0.48,2.42l2.58,-1.09l1.44,1.57l0.35,-1.44l1.38,-0.14l1.47,1.94l1.85,-3.01l2.92,1.98L379,384.17l2.6,-0.72v2.26l2.45,-0.76l-0.46,-1.82l2.65,2.22l5.97,-1.63l1.47,2.05l-1.26,2.1l1.15,-0.55l1.98,2.85l-1.17,1.26l1.17,3.84l-1.05,2.17l0.89,3.88l2.23,2.56l-1.51,2.97l-3.86,-1.7l-1.74,1.94l-1.71,-0.13l-1.03,2.56l3.54,7.56l-1.07,2.64l-3.46,0.93l2.35,5.29l-1.94,4.68l-3.77,2.56l-0.34,1.86l-0.07,2.09l6.38,2.91l1.19,2.42l0,0l-2.29,4.21l-0.11,12.44l-6.73,6.71l-10.47,1.67l-0.44,-2.26l-4.61,0.87l-0.89,-4.46l-9.49,1.23l-1.82,0.99l0.86,4.62l-1.7,0.98l-0.08,3.3l-4.12,1.22l-6.73,-1.84l-5.95,0.6l-0.38,-2.3l-7.79,-3.65l1.24,-5.58l-1.45,-0.06l0.1,-1.83l-1.3,0.65l-0.4,-1.05l-1.82,1.9l-1.9,-1.79l-1.71,2.06l-8.93,-0.44l-1.53,3.81l-2.42,1.22l1.85,4.57l-0.67,1.27l-6.3,6.04l0,0l-3.42,-0.94l-0.12,-2.4l-4.64,0.09l-0.33,-4.12l-2.03,0.19l-0.75,-4.44l-4.87,-0.21l-0.18,-8.4l-1.2,-0.11l-0.27,-3.37l-2.21,-1.14l-0.1,-2.44l2.08,-0.02l-0.8,-6.78l3.04,-0.94l-0.85,-3.6l-1.97,-0.92l0.66,-3.19l-1.68,-4.39l-3.96,5.44l-5.38,-2.68l-1.4,-2.07l-5.06,0.69l-2.71,-3.53l-0.82,-6.48l-3.06,0.23l0.41,1.14l-2.03,-0.54l-1.74,-2.73l-2.84,0.23l-2.86,-3.48l-2.26,6.13l-2.27,1.2l-0.92,-3.46l-4.83,7.01l-0.11,-1.35l-4.07,-2.34l-0.25,-3.67l5.41,-5.43l-3.7,-4.68l-1.26,-5.55l2.16,-1.51l2.86,0.29l-0.4,-4.81l1.2,-1.75l4.12,0.61l-1.2,-4.3l-2.08,-0.15l-0.87,-3.85l-4.58,0.07l-2.22,-1.51l-1.45,-3.3l-1.64,0.31l-1,-2.97l-2.84,-1.04l-0.8,-2.78l2.81,-0.74l-0.46,-1.45l2.83,-1.67l0.13,-2.28l3.08,-0.11l1.09,-7.26l-1.41,-0.23l-1.57,-5.34l0,0l2.12,-0.26l2.01,-2.4l7.34,-0.21l4.9,-1.8l-1.76,-4.12l-0.29,-8.48l-1.08,0.33l-0.5,-1.47l-1.4,1.36L245,340.68l3.43,-2.66l0.1,-3.36l-4.44,-2.19l-3.16,-5.98l-3.03,-2.67l0.13,-1.49l-3.13,-1.14l0.8,-3.44l-4.39,-1.27l-3.57,-7.33l0.94,-0.93l-1.3,-1.92l1.51,-1.25l-1.22,-1.46l-1.45,0.89l-1.23,-1.22l0.14,-1.81l2.17,-0.27l-1.92,-4.46l2.77,-0.19l0.96,-1.46l1.03,1.27l2.25,-2.35l4.15,-1.47l-1.96,-3.56l3.77,-0.45l2.14,-2.73l-2.79,-6.45l-3.46,2.76l-3.31,0.76l1.59,-4.29l-0.55,-5.88l-8.73,4.23l-2.5,-0.93l-3.23,-9.56l1.82,-5.23l-5.65,1.57l2.01,1.84l-0.45,1.27l-6.32,-3.51l-0.39,-1.38l3.91,-6.8l1.31,2.64l2.24,-0.15l7.3,-6.52l1.29,1l1.3,-1.18l1.79,2.72l6.56,0.67l5.89,-10.02l4.77,-1.63l-0.28,-2.35l2.7,-6.18l1.17,0.01l-0.49,-2.29l1.17,-0.09l0.96,-2.25l2.6,0.11l3.56,-4.62l-1.92,-1.08l1.27,-0.61l1.19,-4.21l-0.75,-3.74l-1.31,0.2l0.41,-1.37l-1.2,-0.52l0.88,-2.67l-1.05,-1.18l3.67,1.5l-0.07,-4.14l2.36,0.05l0.31,-1.28l-2.45,-0.94l0.98,-6.1l-2.74,0.68l-1.68,-1.12l-1.37,1.27l-1.82,-2.04l-2.43,-6.89l0.41,-5.58l-3.31,-1.38l-4.28,-7.18l-1.54,-1.35l-6.36,1.66l-0.49,-4.91l2.41,-3.78l-6.31,-5.81L229.29,160.53zM325.84,284.36l2.46,1.34l1.56,-0.7l-0.35,1.3l1.41,0.88l6.58,-1.68l-0.76,3.65l-4.13,2.09l1.37,4.66l-1,2.69l3.24,2.37l0.48,-3.37l4.42,0.21l1.47,1.58l-2.21,1.69l-0.1,1.69l-2,0.42l-2.68,-1.9l-0.68,2.9l-2.42,1.16l-1.11,-2.47l1.21,-0.84l-0.63,-1.32l-3.68,1.42l-11.06,-0.37l-2.68,-1.79l-0.84,-2.58l-1.68,1.37l-1.95,-1.21l2.9,-1.79v-4.95l3.58,-5.05L325.84,284.36zM359.49,294.13l1.61,2l-1.38,1.04l0,0l-2.42,-3.32L359.49,294.13zM349.2,297.02l-0.77,-1.82l1.26,0.74L349.2,297.02zM326.03,306.4l-1.42,-2.88l0,0l1.47,-0.77l0,0L326.03,306.4z"/>
		<path id="BY-VI" title="Vitsyebsk" class="land" d="M366.75,0.11L367.55,3.81L370.52,4.51L373.91,7.83L373.96,11.29L376.56,10.59L379.18,14.76L383.9,14.67L384.6,11.95L383.55,9.84L384.52,8.12L387.32,9.73L387.02,11L390.43,8.65L394.96,8.72L396.51,7.5L401.53,9.6L406.08,9.19L403.07,12.99L404.64,16.68L407.69,19.27L408.03,23.02L410.51,26.93L415.38,26.35L418.4,28.65L419.42,24.39L424.34,22.85L425.72,23.58L425.71,21.36L430.24,21.15L430.87,19.31L436.28,18.29L438.1,20.67L439.75,19.09L441.44,19.3L445.98,24.4L448.8,23.26L452.39,23.8L456.18,26.52L461.04,26.88L463.16,28.59L461.19,30.48L463.71,31.19L465.18,33.51L458.97,35.86L461.25,39.54L459.73,39.55L458.65,41.51L458.83,46.02L456.78,48.83L456.33,53.6L463.32,58.01L465.6,61.22L468.09,61.65L472.63,57.59L473.25,54.36L475.65,51.69L476.84,52.2L479.74,50.13L485.22,48.71L486.29,51.52L489.08,51.54L494.59,43.71L493.86,42.43L495.88,40.88L499.81,42.24L501.6,41.47L501.62,39.93L503.43,39.8L511.49,44.88L513.49,44.84L514.25,42.45L516.08,42.4L516,38.67L516.98,40.84L524.3,40.05L524.98,44.91L528.73,44.46L530.82,47.58L539.63,47.27L541.94,49.93L540.3,51.39L542.78,55.54L546.71,55.67L550.27,58.53L551.79,62.18L551.14,65.52L553.35,65.71L552.27,67.57L553.54,67.66L553.32,70.4L554.48,70.52L555.22,67.75L557.72,67.33L560.32,76.45L563.58,76.43L563.54,75.18L564.96,75.05L566.73,72.54L565.69,71.29L567.77,71.05L571.06,73.45L572.5,72.14L574.26,82.63L571.14,84.79L574.6,88.4L569.94,91.2L572.74,101.37L571.74,104.25L570.12,104.6L564.72,110.67L564.33,116.78L568.94,117.94L568.96,119.7L570.63,120.4L571.83,126.69L574.6,127.9L575.4,130.75L576.6,130.97L575.67,134.03L577.43,134.38L576.37,141L577.55,148.86L576.76,149.53L573.02,147.9L570.86,150.15L575.04,155.28L573.02,155.91L573.16,158.02L570.58,158.07L570.59,159.54L567.08,159.29L564.44,160.6L565.49,164.72L563.97,166.71L564.58,168.16L562.76,168.6L559.3,177.56L565.97,180.26L569.1,183.67L574.22,186.5L575.92,189.51L577.44,188.31L577.04,194.88L584.45,196.23L586.17,194.76L587.41,195.76L591.13,195.41L592.97,200.62L588.12,206.81L587.45,211.13L584.6,212.59L583.95,215.64L589.54,219.79L592.41,219.28L592.6,220.52L592.6,220.52L587.23,220.33L588.39,222.53L582.74,225.19L579.65,229.57L578.36,226.3L573.75,225.87L572.31,222.98L570.48,224.43L569.65,228.86L567.75,229.81L564.63,228.79L561.82,229.66L561.35,227.38L558.71,227.4L556.17,225.79L554.16,226.44L554.64,230.42L545.55,233.19L548.66,235.85L546.29,237.5L544.81,240.77L546.05,241.4L542.81,244.02L545.52,244.97L542.73,245.01L543.56,247.72L540.91,246.46L540.55,244.18L538.59,245.61L536.04,238.1L534.4,236.99L534.17,240.21L531.02,239.93L528.71,243.62L523.31,242.21L524.63,238.15L527.46,235.68L528.05,231.46L526.09,230.43L525.09,235.6L522.21,235.36L519.78,233.48L518.65,237.63L516.99,237.74L517.09,235.6L515.24,233.03L512.23,234.06L513.77,231.25L510.89,231.79L510.36,233.44L512.21,235.45L510.36,238.53L508.95,236.61L506.52,236.46L509.54,239.25L507.6,239.9L507.61,241.06L504.21,239.98L505.8,244.31L504.91,244.78L502.2,244.79L503.36,241.16L499.98,243.14L496.65,241.47L497.47,240.35L495.49,238.33L496.75,236.55L495.92,235.87L494.04,238.7L491.9,237.27L490,239.01L480.92,240.26L475.69,236.86L475.72,235.4L472.1,236.76L471.19,238.48L472.04,241.25L468.82,240.99L465.61,247.75L464.49,247.18L462.38,249.57L461.16,248.46L459.07,248.97L459.07,248.97L456.77,250.17L454.55,248.78L456.11,246.62L455.89,244.58L456.74,246.02L457.98,244.53L458.01,241.16L460.44,239.6L457.78,238.89L456.3,236.24L456.97,234.66L455.39,234.39L455.15,232.69L459.23,232.77L460.69,230.68L462.64,230.59L460.83,228.2L461.01,225.38L462.14,225.09L460.83,221.61L459.44,221.04L463.06,216.33L462.3,213.92L464,210.19L463.74,207.16L466.06,205.26L464.08,201.27L461.25,201.96L459.69,206.05L457.05,205.49L458.27,203.66L455.58,206.93L453.77,205.48L451.72,207.59L448.58,207.7L446.4,206.69L445.25,202.4L446.69,200.98L444.99,200.15L445.63,198.83L441.69,200.18L437.41,198.72L432.27,201.65L431,206L422.73,201.98L420.06,202.99L421.25,205.84L419.45,207.48L415.85,207.88L411.88,205.76L408.65,207.32L406.11,206.7L405.29,204.51L406.24,201.54L402.75,195.53L400.96,195.88L399.26,194.44L398.57,195.86L389.84,195.77L387.88,206.33L386.1,209.42L384.6,209.44L381.1,204.4L379.26,203.73L378.68,201.19L377.21,202L376.58,199.76L376.36,202.52L375.6,198.37L370.32,194.56L365.98,196.64L366.21,195.72L365.24,197.11L366.03,198.95L362.79,201.14L361.15,200L357.19,202.21L356.73,205.29L354.66,206.1L352.65,202.68L349.44,203.1L346.95,201.65L347.76,199.69L346.25,198.52L343.56,201.54L342.58,200.85L338.46,202.43L336.2,199L336.91,196.48L333.85,193.77L333.8,185.2L328.94,182.1L321.65,182.4L323.1,177.1L321.06,176.31L318.76,177.39L318.36,173.33L313.62,170.29L312.1,171.31L308.31,168.98L306.64,165.56L304.65,165.01L305.49,160.48L301.4,157.38L302.42,155.08L301.32,153.05L297.58,153.79L296.92,152.07L295.55,153.18L294.66,151.96L293.13,154.18L292.36,152.15L289.44,153.18L287.8,152.5L286.17,153.25L288.08,153.84L287.73,155.28L283.36,155.31L279.83,157.05L279.32,154.29L274.85,149.84L272.83,150.26L270.88,153.1L270.06,150.85L268.52,150.7L267.14,152.95L269.2,154.54L268.62,156.9L267.38,155.76L266.37,156.98L264.54,156.1L263.08,156.62L263.06,158.13L261.41,158.25L259.42,155.64L258.29,156.07L256.16,154.23L254.86,155.6L252.22,155.08L253.56,157.27L250.24,160.39L245.82,157.55L244.37,158.9L233.75,153.96L232.77,155.57L234.22,155.8L234.08,157.21L232.99,157.88L231.51,156.72L229.29,160.53L229.29,160.53L227.45,159.44L226.49,154.82L223.38,153.25L223.38,153.25L226.23,144.24L228.24,142.97L225.34,138.89L234.71,133.5L237.79,135.63L238.92,134.69L242.45,136.14L246.42,132.2L248.35,134.33L258.19,132.53L258.5,131.05L260.34,130.59L258.33,127.24L260.4,127L262.25,125.02L262.35,121.32L269.84,116.69L269.61,113.27L266.71,111.44L261.5,111.3L257.49,109.06L255.07,111.35L254.78,109.67L253.17,111.69L251.47,110.78L249.93,111.67L241.08,107.93L243.09,106.92L243.49,105.16L249.25,102.7L248.32,95.84L249.54,95.99L248.49,94.49L250.21,91.97L247.29,87.19L253.58,79.84L255.96,78.73L255.23,73.99L256.52,71.81L254.96,64.93L256.19,61.82L261.43,62.26L263.39,64.75L266.29,65.35L267.56,62.76L272.8,60.57L276.66,50.68L278.43,50.87L283.35,45.51L289.43,45.79L290.06,43.53L293.64,42.43L303.08,51.11L307.97,49.29L309.28,47.33L314.16,49.97L327.77,50.83L329.54,42.93L328.41,37.15L330.53,34.39L330.53,32.34L336.74,26.63L341.28,25.31L342.38,23.03L341.39,21.78L343.7,19.88L342.04,18.18L346.73,15.95L348.86,16.82L354.24,7.05L355.71,6.31L359.17,7.37L361.13,4.64L362.85,5.07L363.1,3.24z"/>
	</g>
</svg>