<?xml version="1.0" encoding="utf-8"?>
<!-- (c) ammap.com | SVG map of Belarus - High -->
<svg xmlns="http://www.w3.org/2000/svg" xmlns:amcharts="http://amcharts.com/ammap" xmlns:xlink="http://www.w3.org/1999/xlink" version="1.1">
	<defs>
		<style type="text/css">
			.land
			{
				fill: #CCCCCC;
				fill-opacity: 1;
				stroke:white;
				stroke-opacity: 1;
				stroke-width:0.5;
			}
		</style>

		<amcharts:ammap projection="mercator" leftLongitude="23.179154" topLatitude="56.172064" rightLongitude="32.779653" bottomLatitude="51.262469"></amcharts:ammap>

		<!-- All areas are listed in the line below. You can use this list in your script. -->
		<!--{id:"BY-BR"},{id:"BY-HO"},{id:"BY-HR"},{id:"BY-MA"},{id:"BY-VI"},{id:"BY-HM"},{id:"BY-MI"}-->

	</defs>
	<g>
		<path id="BY-BR" title="Brest" class="land" d="M56.02,430.21L61.77,430.22L62,429.03L67.7,429.3L67.81,427.87L70.09,427.13L73.04,428.72L72.8,431.74L73.89,432.66L75.45,432.3L76.84,433.11L76.96,432.18L77.8,434.62L78.5,434.14L78.5,432.19L80.3,431.01L81.23,431.52L80.59,433.29L81.82,431.9L85.67,433.94L89.68,431.61L90.81,431.89L90.79,434.3L99.73,434.11L102.86,432.39L103.65,433.33L103.72,430.72L102.66,428.51L104.21,424.44L104.83,424.41L105.43,421.63L103.7,422.02L104.63,421.2L103.17,419.69L105.79,415.59L108.73,414.66L107.05,413.68L107.31,412.9L105.86,412.47L106.17,410.97L110.27,408.14L110.46,406.78L112.74,406.23L113.17,404.82L114.69,404.99L114.2,409.31L116.51,410.31L119.01,409.2L120.35,410.65L122.39,408.39L122.98,408.66L122.57,409.97L123.63,410.35L124.31,409.58L127.92,409.96L129.44,408.2L130.6,408.18L131.24,409L131.9,408.6L134.02,412.5L132.81,413.94L135.78,417.18L136.72,416.79L138.46,412.35L139.71,412.78L139.86,414.8L138.98,417.13L139.69,417.96L138.7,419.81L139.65,420.9L138.75,422.25L139.46,423.5L140.48,423.29L141.25,421.19L143.16,422.51L143,421.61L145.23,420.63L145.06,419.91L146.63,419.96L147.23,422.03L148.14,421.64L149.61,422.69L150.41,421.9L149.89,421.41L150.98,418.99L154.94,417.31L155.9,422.02L158.66,423.07L160.85,420.34L160.35,419.02L157.82,419.28L157.31,416.69L159.78,414.49L158.28,413.02L157.46,410.37L161.48,410.43L161.62,411.07L166.01,410.16L165.77,406.17L166.84,405.69L167.66,403.28L172.88,400.77L174.57,398.12L178.27,397.31L177.68,396.75L177.96,395.72L179.47,393.93L177.2,391.81L177.08,390.57L178.69,390.15L179.84,386.78L178.9,386.78L179.27,383.17L177.27,381.99L176.42,380.44L178.11,378.94L178.27,376.38L179.66,376.37L178.35,373.73L179.24,370.14L180.01,369.85L179,367.82L180.58,368.33L182.05,367.32L181.43,366.71L181.96,364.46L183.24,364.19L182.92,361.97L183.62,361.09L183.1,357.71L184.17,357.92L184.71,355.92L185.76,356.19L186.27,354.41L188.45,354.18L190.1,354.66L190.67,355.82L193.36,356.25L195.41,354.87L198.11,355.81L199.27,353.82L202.08,353.55L201.75,354.95L203.15,354.46L204.85,355.36L206.91,355.34L206.92,356.63L209.71,356.63L210.54,357.13L210.1,357.98L211.77,358.6L213.16,358.37L214.87,356.05L214.92,357.92L215.52,358.32L218.01,356.77L219.96,357.79L230.13,357.83L231.42,360.21L232.4,359.07L234.04,358.46L234.62,359.28L234.94,358.71L234.94,358.71L236.52,364.05L237.93,364.28L236.84,371.54L233.76,371.65L233.64,373.93L231.74,374.39L230.81,375.6L231.27,377.06L228.46,377.79L229.26,380.57L232.1,381.62L233.08,382.99L233.1,384.59L234.74,384.28L236.06,385.41L236.2,387.59L238.42,389.1L243.01,389.02L243.88,392.88L245.96,393.02L247.16,397.33L246.67,397.83L243.04,396.71L241.85,398.47L242.48,398.88L241.85,399.51L242.25,403.28L239.39,402.98L238.69,404.21L237.23,404.49L236.85,405.8L238.49,410.04L240.33,412.02L240.98,413.97L242.19,414.72L236.77,420.15L236.41,421.75L237.03,423.83L241.09,426.17L241.2,427.52L246.03,420.51L246.96,423.97L249.23,422.78L251.49,416.65L254.73,419.79L254.35,420.13L256.67,420.52L257.19,419.9L258.93,422.63L260.96,423.17L260.55,422.03L262.44,422.11L262.56,421.4L263.61,421.8L264.43,428.29L267.14,431.82L269.85,432.1L272.2,431.12L273.6,433.19L274.45,433.07L278.98,435.87L282.94,430.43L284.62,434.82L283.96,438.01L285.94,438.93L286.78,442.53L283.74,443.47L283.28,445.18L284.32,445.57L284.54,450.25L282.46,450.28L282.56,452.72L283.43,453.94L284.78,453.85L285.05,457.22L286.25,457.33L286.32,462.02L285.57,462.08L286.44,462.83L286.43,465.73L291.3,465.94L292.04,470.38L294.07,470.18L294.4,474.3L299.04,474.22L299.16,476.62L302.58,477.56L302.58,477.56L301.37,481.62L301.86,486L309.78,485.92L309.87,487.9L312.44,490.02L316.84,490.22L318.59,492.65L320.17,492.53L321.63,493.54L321.69,495.21L322.46,495.43L322.79,496.99L322.5,498.56L323.45,499.46L321.03,502.43L322.6,504.77L321.89,505.27L320.29,511.03L321,512.4L320.63,516.81L322.45,517.65L324.27,517.34L323.95,518.41L324.93,520.7L327.47,520.7L327.55,523.71L327.16,524.96L322.02,528.35L320.32,530.89L321.95,534.03L322.04,536.97L320.99,539.82L319.28,541.89L321.38,545.04L323.77,547.12L321.9,551.63L323.16,552.95L323.25,554.18L321.23,556.74L319.54,556.45L318.59,557.72L318.23,560.09L319,561.84L318.15,564.04L320.69,567.15L320.37,567.93L320.37,567.93L319.74,568.75L320,571.39L321.1,571.33L319.4,573.72L317.53,572.65L318.27,570.97L317.83,570.29L316.45,571.24L315.6,569.73L313.76,570.69L313.67,571.65L311.14,571.35L308.87,570.15L307.39,571.55L300.22,571.86L300.28,569.6L302.41,565.79L300.64,564.27L297.61,564.6L297.09,551.62L281.7,552.21L278.32,556.19L275.96,554.71L273.23,554.57L270.88,552.53L266.94,553.6L266.49,552.46L263.92,551.21L264.33,549.06L263.7,548.09L260.64,546.97L259.3,545.5L253.68,545.67L252.04,545.02L251.78,546.04L249.28,546.89L248.36,548.75L243.12,548.55L242.88,546.91L241,546.43L239.43,544.03L237.62,544.28L237.4,539.46L235.34,540.91L230.88,541.21L229.72,540.22L224.77,539.83L222.4,541.01L221.5,540.35L220,540.66L219.83,539.06L218.65,539.27L215.22,535.26L212.02,534.71L211.67,533.48L208.99,532.64L202.57,534.77L195.54,533.59L195.34,531.37L192.04,530.52L191.19,530.8L192.16,533.87L190.63,533.57L186.86,534.53L179.25,533.83L173.66,531.8L172.44,533.9L170.52,532.91L169.72,534.18L164.96,534.18L164.33,533.28L159.46,532.29L153.83,528.45L151.46,529.39L148.83,528.31L144.77,530.4L141.55,530.42L135.96,534.33L134.3,534.56L131.88,536.91L129.42,536.92L128.47,535.22L122.95,536.9L122.44,535.23L121.53,534.99L116.59,538.51L115.47,538.51L113.54,536.96L110.25,537.41L107.1,536.23L102.74,537.67L95.81,538.69L89.16,538.62L85.56,541.29L85.9,542.62L82.4,548.16L84.07,554.41L80.59,558.26L69.61,564.3L66.22,569.69L62.26,572L60.41,574.42L54.94,572.32L51.89,573.18L51.69,571.18L54.15,568.36L47.89,566.66L45.3,567.46L45.22,565.05L44.46,564.18L39.17,566.2L36.85,565.75L35.83,567.22L31.67,569.24L33.49,572.95L35.8,574.27L35.52,575.95L33.83,577.83L36.76,583.29L35.97,584.07L32.75,583.47L31.77,580.6L28.44,579.77L28.29,578.48L29.34,577.16L28.38,575.64L28.63,574.54L27.67,574.12L26.62,571.81L27.08,569.69L26.52,568.06L27.12,567.38L26.43,566.91L26.76,565.06L27.67,564.48L27.07,562.09L28,560.43L27.13,559.85L27.67,559.4L26.94,557.28L26.24,557.61L25.7,556.8L25.9,555.33L28.02,552.99L28.94,553.59L30.02,553.28L30.81,551.7L33.24,550.81L33.08,549.44L33.7,549.42L33.97,548.34L32.65,545.04L31.28,544.79L31.14,543.54L32.06,541.67L31.48,539.28L33.29,539.75L32.64,538.23L33.82,537.36L32.3,536.07L31.91,534.46L32.31,533.77L33.28,534.07L33.39,532.84L34.35,532.52L33.97,530.64L32.95,530.62L34.9,528.81L36.19,528.92L35.84,527.27L37.52,525.52L35.44,522.4L35.62,519.8L34.97,517.92L34.12,517.55L35.04,517.34L34.21,516.69L34.85,514.87L32.25,513.43L31.8,512.33L32.52,511.73L30.89,510.44L27.91,510.27L27.21,511.28L26.63,509.23L24.69,508.02L24.55,506.77L22.71,506.2L23.1,503.6L24.1,503.76L23.72,502.99L22.56,502.71L21.17,503.58L20.47,502.32L18.07,503.81L17.42,502.64L16.27,503.21L15.85,500.44L14.39,501.06L13.68,499.59L9.7,499.43L8.96,499.09L9.03,497.88L6.32,498.73L1.91,497.35L1.13,495.72L1.78,491.44L0,490.42L4.64,481.46L9.44,475.08L10.09,472.64L17.89,461.78L21.94,457.7L29.79,453.1L33.84,451.5L39.27,450.54L40.95,451.47L51.57,442.71L52.58,442.65L55.97,438.64z"/>
		<path id="BY-HO" title="Homyel'" class="land" d="M390.57,442.45l1.02,0.72l2.1,-2.03l0.67,1.09l1.94,-0.7l3.04,0.73l0.8,-1.07l1.51,0.22l1.96,-1.18l3.49,1.32l1.86,-1.4l2.63,1.35l2.33,-2.61l-0.03,-1l3.88,-0.02l-0.1,-2.06l-1.4,0.38l-0.25,-1.28l-0.98,-0.04l0.64,-3.26l3.48,1.13l1.62,-1.97l1.65,0.29l5.87,-8.2l-0.41,-3.02l9.47,-1.27l0.33,0.54l1.71,-0.89l-0.97,-4.33l4.36,-6.91l1.5,-0.83l1.89,1.15l2.79,0.16l1.17,1.79l5.44,0.55l1.83,0.67l0.09,0.81l0.63,-1.49l1.31,0.17l-0.13,1.58l1.31,-0.01l0.81,1.08l3.52,-1.59l3.19,-3.48l0.75,0.57l2.65,-0.23l0.52,0.61l2.45,-0.75l2.16,0.27l1.57,1.37l0.16,-0.72l0.61,0.35l0.61,1.15l4.1,-1.31l-0.66,-1.41l1.51,-1.7l-4.02,-1.75l-0.97,-0.8l-0.55,-2.24l-0.99,-0.54l3.07,-3.87l-0.86,-1.88l-2.2,0.77l-1.64,-3.32l1.91,-1.29l-1,-2.44l0.25,-0.91l1.05,0.21l0.03,-1.08l0.71,-0.06l0.85,1.94l2.09,-0.55l1.07,0.81l4.08,-2.12l-1.25,-0.27l-0.26,-1.34l1.54,-1.5l-0.83,0.19l-0.26,-1.2l1.06,-0.81l-2.09,-1.04l3.56,-1.28l-2.11,-5.69l0.74,-0.21l-0.27,-1.34l-1.43,-1.72l-0.07,-5.09l3.64,-3.67l3.43,-1.69l0.81,3.92l2.13,-0.9l-0.66,-0.89l0.96,-0.49l1.43,1.06l0.3,1.04l-1.04,0.52l-0.39,1.49l3.49,0.52l1.15,-2l-0.12,-1.33l9.22,2.17l0.96,1.18l-0.16,1l1.87,1.18l2.13,6.9l1.09,0.92l1.86,-1l0.56,0.57l1.43,-0.85l1.48,0.42l2.05,-2.66l0.08,1.26l3.55,-0.75l1.29,-1.3l3.39,0.53l0.21,-2.01l2.26,-1.79l3.42,1.06l1.06,-1.34l-0.2,-1.02l1.8,0.31l0.93,-2.58l2.67,0.27l1.62,-2.49l0.31,-2.11l1.23,0.68l-1.45,2.68l1.37,0.74l-0.63,1.42l6.99,1.36l-1.05,2.16l1.91,1.84l3.06,-0.36l-0.05,-1.76l2.53,-0.23l0.67,-0.9l5.13,0.73l1.33,-1.17l-0.32,-1.38l1.53,-0.52l3.01,-0.6l0.43,0.91l6.8,-0.56l0.37,0.7l-0.9,1.96l-2.08,1.98l1.16,1.82l1.43,-1.02l1.09,1.15l0.89,-0.53l0.61,0.78l-0.64,2.31l1.93,1.21l0.11,2.9l2.47,-0.49l0.61,2.02l1.36,0.38l0.15,1.99l-1.61,1.55l1.09,2l6.45,-0.58l1.26,3.49l0.55,-0.72l1.1,0.56l0.41,-0.6l0.02,0.87l5.69,0.12l1.02,2.26h1.5l0,0l-2.01,0.6l-0.38,6.06l-1.73,0.6l-3.07,-0.7l-1.57,1.64l4.93,3.21l0.92,1.35l2.47,0.87l0.62,2.61l1.03,1.15l-0.27,3.31l8.09,8.14l4.04,0.23l0.07,2.17l-1.36,1.21l0.86,1.54l2.22,1.4l0.21,1.22l1.65,0.48l0.17,4.01l0.81,2.04l-1.91,1.8l-0.96,2.52l-4.79,1.7l4.61,5.59l0.65,1.58l-0.32,4.59l1.15,0.32l3.87,3.72l3.03,0.34l-2.72,2.44l-0.9,-1.43l-0.84,0.34l-0.1,1.47l-1.16,0.64l-0.1,2.07l-2.6,-0.31l1.12,2.58l2.13,-0.99l1.54,1.69l-1.38,3.04l-1.79,0.82l1.94,0.58l0.13,1.35l-0.91,0.5l0.47,1.69l-0.72,0.92l2.03,-0.18l0.71,2.38l-0.39,8.19l-3.1,0.27v0.68l3.12,3.92l0.37,-0.79l1.63,2.25l2.39,0.14l1.95,1.41l-1.05,1.12l0.91,2.29l-0.04,2.56l-1.56,2.51l1.43,0.97l1.88,-0.64l3.57,0.66l0.29,6.27l1,1.61l-5.65,2.97l-0.58,-1.37l-3.09,-0.92l-4.94,0.05l-6.33,-1.37l-2.8,1.04l-1.42,-0.49l-0.71,-2.33l-3.62,-0.11l-1.99,1.04l0.59,1.42l-4.51,1.91l-0.89,2.19l0.52,0.66l-1.64,3.44l-3.16,1.23l-2.06,-1.02l-1.07,-1.32l0.1,-1.2l-3.88,-0.91l-1.35,-2.71l-3.27,1.44l-2.33,-0.06l-5.88,1.55l-1.85,-0.66l0.07,-0.91l-0.92,0.17l0.13,1.75l-1.39,0.2l1.09,2.76l-0.73,-0.06l-0.42,-1.22l-0.63,0.28l1.11,1.63l-1.16,0.65l0.89,0.86l-0.92,-0.13l0.53,1.15l-1.19,0.23l0.49,0.76l-0.5,0.83l1.28,0.49l0.03,1.2l-1.14,0.29l-1.09,-1.49l-0.69,1.04l1.28,1.08l-1.82,0.41l0.29,1.7l-1.24,0.32l-0.68,-0.58l-1.78,1.16l-0.03,0.85l1.1,0.04l-0.69,0.85l-1.56,-0.98l-0.96,0.84l1.1,3.27l-1.59,2.69l-4.1,-0.43l-0.66,2.22l-2.33,1.99l-0.82,3.64l-3.22,1.42l1.31,3.41L552,550.44l0.24,1l-1.85,-0.04l-1.34,0.83l0.25,0.88l1.81,-0.51l0.56,0.57l-1.51,2.87l-0.35,2.6l-4.42,0.94l0.92,3.35l-0.44,1.89l-1.52,-0.17l-1.5,-1.45l-0.97,0.71l1.34,1.51l-1.76,2.17l-0.19,1.35l1.98,0.53l-0.11,0.8l1.66,1.11l-0.7,0.68l-2.01,-0.5l-0.74,0.89l1.38,1.55l1.91,0.56l-1.84,0.91l-0.03,1l1.37,2.57l1.68,-1.15l0.86,0.52l-0.98,4.26l1.06,1.01l0.52,2.92l2.35,1.34l-0.09,0.76l-2.95,1.1l0.34,2.62l0.64,0.69l1.78,-0.47l0.1,1.26l2.54,4.12l-1.28,2.36l1,2.55l-2.01,0.84l-2.19,2.15l1.37,0.79l-0.66,0.81l1.48,-0.55l-1.1,2.74l-1.09,-0.06L543.64,612l-2.52,-2.21l-4.02,0.85l0.72,-3.87l-4.36,-0.32l-5.74,-5.9l2.25,-2.06l-1.18,-4.93l0.77,-0.48l-1.26,-0.29l-3.27,-4.35l-3.17,-2.62l-3.27,-1.11l-2.13,-2l-0.85,2.65l-2.59,-2.15l-0.49,0.24l0.5,1.72l-0.62,0.34l-7.58,-1.94l-0.35,1.72l-1.54,0.98l-1.01,-0.33l-0.8,1.56l-2.81,-2.19l-2.38,0.62l-0.86,0.83l0.49,0.66l-0.91,3.12l-2.62,-1.38l-2.01,0.86l-0.8,-1.17l-0.84,0.27l-0.01,1.83l-3.57,-1.88l-1.3,-3.7l1.36,-0.6l-0.13,-2.46l-0.54,-1.74l-1.54,0.02l-0.52,0.99l-2.65,1.22l-0.24,0.96l-0.95,-0.32l-1.06,0.77l-0.73,-0.66l-0.81,1.35l-1.02,0.21l-0.05,1.94l-1.79,1.44l-3.21,-2.07l-1.64,3.93l0.2,2.74l-1.36,2.95l-6.65,-1.58l-2.12,1.09l-2.11,2.36l-2.32,0.54l0.12,-2.95l-1.48,-6.08l-2.67,-0.86v-1.58l-1.54,-2.46l0.96,-4l-0.53,-4.35l-3.09,-0.75l-0.41,-2.84l-2.15,-1.76l0.52,-1.26l-1.51,-0.65l0.94,-2.27l-0.72,-0.7l-4.32,0.2l-5.81,7.43l-2.2,1.71l-1.73,0.15l-0.52,-1.99l-4.43,0.14l-4.01,2.88l-2.18,0.44l-4.58,8.64l1.09,1.45l0.4,2.68l-0.59,0.25l-0.25,2.68l-1.31,1.38l-1.14,-2.4l0.02,-3.62l-2.62,2.8l-1.36,-0.58l-3.02,-12.49l0.86,-0.89l-1.41,0.56l-0.24,-0.52l2.02,-0.97l-7.52,-0.21l-0.01,-1.21l-2.26,-0.3l-0.55,-0.92l-3.51,-0.28l-5.71,4.98l-2.89,1.4l-0.65,-4.12l-4.61,-5.81l-1.84,0.26l0.75,-6.5l-0.72,-0.74l-6.28,4.26l-0.3,2.59l-1.14,1.93l-1.9,0.31l-1.75,3.08l-1.31,0.57l-1.25,-0.51l-2.37,1.58l-7.15,0.91l2.61,-4.3l-1.47,0.07l-0.92,1.58l-1.59,0.4l0.1,-3.24l-0.83,-1.45l-4.11,-1.62l-2.02,1.01l-0.64,0.68l1.4,1.04l-0.95,4.26l1.65,3.48l-1.08,0.89l-2.56,0.38l-3.24,6.8l-1.36,-0.35l-5.46,-4.64l0.95,-0.41l0.18,-2.32l3.01,-2.9l0.67,-2.85l-0.4,-1.81l-2.3,-0.08l-0.81,-0.86l-2.58,-0.49l-1.82,1.29l-5.24,-3.7l-0.93,1.63l-1.52,-1.61l0,0l0.33,-0.78l-2.54,-3.11l0.85,-2.2l-0.77,-1.76l0.35,-2.37l0.95,-1.27l1.69,0.3l2.02,-2.57l-0.08,-1.23l-1.26,-1.32l1.87,-4.51l-2.39,-2.07l-2.1,-3.16l1.71,-2.06l1.06,-2.85l-0.1,-2.94l-1.62,-3.14l1.7,-2.55l5.14,-3.38l0.39,-1.26l-0.08,-3h-2.54l-0.98,-2.29l0.33,-1.08l-1.82,0.31l-1.82,-0.84l0.37,-4.41l-0.71,-1.37l1.6,-5.76l0.71,-0.5l-1.56,-2.34l2.42,-2.97l-0.95,-0.9l0.3,-1.56l-0.33,-1.56l-0.77,-0.22l-0.06,-1.67l-1.45,-1.01l-1.59,0.12l-1.74,-2.43l-4.4,-0.2l-2.58,-2.12l-0.09,-1.98l-7.91,0.09l-0.49,-4.39l1.21,-4.05l0,0l0.03,-0.72l2.17,-1.07l0.86,-1.59l3.23,-2.65l0.67,-1.27l-1.85,-4.57l1.61,-0.19l0.03,-0.98l0.78,-0.05l1.53,-3.81l4.59,0.91l0.25,-1.13l4.1,0.65l1.51,-0.6l0.2,-1.45l1.9,1.79l1.82,-1.9l0.4,1.05l1.3,-0.65l-0.1,1.83l1.46,0.06l-1.24,5.58l1.99,0.06l5.8,3.59l0.38,2.3l5.95,-0.6l6.73,1.84l2.08,-1.22h2.05l0.08,-3.3l1.7,-0.98l-0.86,-4.62l1.82,-0.99l9.49,-1.23l0.89,4.47l4.62,-0.87l0.44,2.26l10.47,-1.67l6.73,-6.7l0.11,-12.44L390.57,442.45zM617.15,467.48l-0.18,-1.28l2.67,0.13l0.78,0.71l-0.52,1.81l-0.88,-1.48L617.15,467.48z"/>
		<path id="BY-HR" title="Hrodzen" class="land" d="M223.38,153.25l1.72,0.33l1.39,1.23l1.31,3.34l-0.35,1.28l1.85,1.09l0,0l-0.26,0.95l6.31,5.81l-1.28,0.79l-0.05,2.1l-1.08,0.88l0.98,3.71l-0.48,1.2l1.43,-0.89l1.19,0.51l1.29,-0.98l2.46,-0.29l1.54,1.36l4.28,7.18l3.31,1.38l0.49,1.99l-0.9,3.59l2,3.77l0.43,3.12l1.31,0.74l0.51,1.3l1.37,-1.27l1.32,0.29l0.36,0.83l2.74,-0.67l-1.05,1.86l0.07,4.24l2.45,0.94l-0.31,1.28l-2.35,-0.05l0.07,4.14l-3.67,-1.5l1.05,1.18l-0.79,0.89l-0.09,1.78l1.2,0.52l-0.41,1.37l1.31,-0.2l-0.23,2.49l0.98,1.26l-1.59,3.54l0.4,0.67l-1.27,0.61l1.92,1.08l-3.56,4.62l-2.6,-0.11l-0.96,2.25l-1.17,0.09l0.5,2.29l-1.17,-0.01l-2.69,6.18l0.28,2.35l-1.65,0.25l-0.77,0.92l-0.89,-0.57l-0.38,0.95l-1.08,0.08l-1.36,3.28l-0.66,-0.13l-1.64,2.67l0.42,1.16l-1.41,0.23l0.39,0.73l-1.62,2.08l-1.5,-0.47l-1.26,0.69l-3.03,-1.51l-0.77,0.62l-0.28,-1.36l-1.51,-1.36l-1.3,1.19l-1.28,-1l-3.44,3.18l-2.68,1.44l-1.18,1.91l-2.24,0.15l-1.06,-1.03l0.41,-1.27l-0.66,-0.34l-0.82,0.82l-0.37,2.35l-2.72,3.62l0.39,1.38l6.32,3.51l0.45,-1.27l-2.01,-1.83l1.02,-0.97l1.35,0.54l1.79,-1.17l1.48,0.03l0.02,1.21l-1.41,0.68l-0.44,3.34l1.23,1.24l-0.58,0.69l1.15,2.27l-0.33,1.75l1.49,1.64l0.26,1.97l2.5,0.93l2.64,-1.91l0.75,0.33l1.6,-1.57l3.75,-1.08l0.55,5.88l-1.59,4.29l3.31,-0.76l3.46,-2.76l2.79,6.45l-2.14,2.73l-2.03,0.75l-1.73,-0.3l1.96,3.56l-4.15,1.48l-2.24,2.35l-1.03,-1.27l-0.96,1.46l-2.77,0.19l1.92,4.46l-2.17,0.27l0.65,1.54l-0.79,0.27l1.23,1.22l1.46,-0.89l1.22,1.46l-1.51,1.25l1.3,1.92l-0.94,0.94l3.32,5.63l0.25,1.71l4.39,1.27l-0.8,3.45l1.83,-0.01l1.3,1.16l-0.13,1.49l3.04,2.67l0.83,2.81l2.84,2.57l-0.5,0.61l4.44,2.19l-0.1,3.36L245,340.68l1.29,0.99l0.63,-1.35l0.77,-0.01l0.5,1.47l1.09,-0.33l0.29,8.48l1.76,4.12l-4.18,0.83l-0.72,0.98l-3.97,-0.52l-2.5,1.43l-0.86,-0.7l-2.01,2.4l-1.33,-0.38l-0.79,0.64l0,0l-0.32,0.57l-0.58,-0.81l-1.64,0.61l-0.98,1.15l-1.29,-2.38l-10.17,-0.04l-1.95,-1.02l-2.49,1.56l-0.6,-0.41l-0.04,-1.86l-1.71,2.32l-1.39,0.22l-1.67,-0.62l0.44,-0.85l-0.83,-0.49h-2.79l-0.01,-1.3l-2.06,0.02l-1.7,-0.9l-1.4,0.49l0.33,-1.41l-2.81,0.27l-1.16,1.99l-2.69,-0.94l-2.05,1.38l-2.69,-0.43l-0.57,-1.16l-1.65,-0.48l-2.18,0.23l-0.51,1.78l-1.05,-0.27l-0.54,2l-1.07,-0.21l0.52,3.38l-0.69,0.88l0.31,2.22l-1.28,0.27l-0.53,2.26l0.62,0.6l-1.47,1.01l-1.58,-0.51l1.01,2.03l-0.77,0.28l-0.89,3.6l1.31,2.63l-1.4,0.01l-0.15,2.56l-1.69,1.5l0.85,1.55l2,1.18l-0.37,3.61h0.94l-1.14,3.38l-1.61,0.42l0.11,1.24l2.27,2.12l-1.51,1.79l-0.29,1.03l0.6,0.56l-3.7,0.81l-1.7,2.65l-5.21,2.51l-0.82,2.41l-1.07,0.48l0.24,4l-4.39,0.9l-0.13,-0.64l-4.02,-0.06l0.82,2.65l1.5,1.47l-2.47,2.2l0.51,2.59l2.53,-0.26l0.5,1.32l-2.19,2.73l-2.76,-1.05l-0.96,-4.71l-3.96,1.68l-1.09,2.42l0.52,0.49l-0.8,0.79l-1.47,-1.05l-0.91,0.39l-0.6,-2.07l-1.56,-0.05l0.17,0.72l-2.23,0.98l0.16,0.9l-1.91,-1.32l-0.77,2.1l-1.03,0.21l-0.71,-1.24l0.9,-1.35l-0.94,-1.09l0.98,-1.85l-0.71,-0.83l0.89,-2.33l-0.15,-2.02l-1.25,-0.43l-1.74,4.43l-0.94,0.39l-2.97,-3.23l1.21,-1.44l-2.12,-3.9l-0.66,0.4l-0.63,-0.82l-1.16,0.01l-1.52,1.76l-3.62,-0.38l-0.67,0.77l-1.06,-0.38l0.41,-1.31l-0.6,-0.27l-2.04,2.26l-1.34,-1.45l-2.5,1.11l-2.3,-1l0.49,-4.32l-1.52,-0.17l-0.44,1.41l-2.27,0.55l-0.19,1.36l-4.1,2.84l-0.31,1.5l1.45,0.43l-0.26,0.78l1.68,0.98l-2.94,0.93l-2.62,4.1l1.46,1.51l-0.93,0.82l1.73,-0.39l-0.6,2.78l-0.61,0.02l-1.56,4.07l1.06,2.22l-0.07,2.6l-0.79,-0.94l-3.13,1.72l-8.94,0.19l0.02,-2.41l-1.12,-0.28l-4.01,2.32l-3.85,-2.03l-1.23,1.39l0.64,-1.77l-0.93,-0.51l-1.79,1.18l-0.01,1.95l-0.7,0.48l-0.83,-2.43l-0.12,0.93l-1.4,-0.8l-1.56,0.35l-1.08,-0.91l0.24,-3.02l-2.95,-1.6l-2.28,0.74l-0.11,1.43l-5.7,-0.27l-0.23,1.19l-5.75,-0.01l0,0v-3.75l-1.05,-2.12l-0.62,-13.11l2.2,-2.56l-1.13,-2.13l-0.42,-5.9l-2.02,-3.02l0.22,-1.16l-1.16,-0.35l-0.96,-2.34l3.35,-9.36l-1.08,-2.2l-2.83,-2.4l-0.64,-4.51l-2.76,-1.6l-11.67,-34.12l-5.49,-22.71l-0.26,-4.89l-2.46,-3.29l0.25,-10.15l-2.09,-1.45l-0.92,-6.12l0.27,-5.62h0.95l0.58,1.47l3.31,0.13l2.12,2.08l2.85,-1.09l4.11,0.09l0.56,-0.65l4.17,1.98l1.13,1.56l-0.5,1.34l1.11,0.15l2.04,-1.35l-1.4,-2.24l0.17,-0.93l3.32,-2.49l2.56,1.64l1.16,-0.28l1.43,-3.05l3.55,2.08l0.48,3.03l1.46,0.18l8.14,-1.6l0.98,-2.24l2.08,0.39l1.05,-1.14l3.35,-0.86l0.94,1.52l-0.26,1.01l1.59,0.63l1.5,-0.99l0.5,1.46l4.01,4.45l1.25,0.33l1.15,-1.36l0.79,1.4l4.64,-0.71l-0.25,0.59l0.71,0.4l-0.13,-1.09l0.64,0.03l0.04,0.78l1.63,-0.81l1.34,-2.63l3.35,-3.75l3.76,-3.26l2.27,-0.83l1.52,-2.23l2.03,0.53l2.11,-1.7l1.74,0.45l-0.91,6.63l3.62,-0.43l-0.2,-0.96l2.54,-2.38l1.84,-0.66l1.54,0.45l0.82,-0.5l0.07,-1.24l1.02,0.2l-0.3,-2.59l2.26,0.05l0.36,-0.92l-0.58,-0.48l-1.59,0.58l-1.51,-1.43l-0.17,-3.25l-3.54,-5.14l0.19,-0.69l1.4,0.33l2.76,-2.15l-0.92,-1.76l3.87,-0.14l6.53,-3.13l1.57,0.88l-0.29,0.74l1.34,2.03l1.68,0.86l2.48,-0.43l1.76,0.62l3.22,-4.35l6.31,-6.45l-0.1,-2.12l1.47,-2.79l0.85,-0.52l1.36,1.44l1.22,-2.69l2.59,1.46l0.35,-0.76l1.03,0.76l1,-0.67l1.32,0.37l0.71,-1l3.42,-1.31l0.98,-1.99l2.39,0.09l-0.16,0.86l1.1,0.01l1.08,-0.61l-0.12,-0.83l1.17,-0.04l0.23,-1.09l1.21,0.52l0.19,2.89l3.27,1.3l-0.5,0.9l1.2,1.34l-0.24,1.11l1.51,2.46l-3.4,-0.3l0.13,1.27l1.24,0.73l-0.03,2.17l-3.46,1.44l-0.32,1.31l1.77,2.4l1.42,1.06l0.95,-0.48l2.72,1.28l1.77,-0.31l-0.23,0.65l1.27,1.26l1.68,-1.48h1.54l0.11,-2.06l1.29,-0.01l0.13,-1.46l2.52,1.62l1.15,-0.63l0.05,-1.36l0.75,1.21l2.05,0.55l0.44,-0.67l-1.54,-0.62l-0.55,-1.95l0.67,-1.26l-0.46,-1.2l-1.54,-2.19l-0.54,0.14l3.57,-2.48l-0.68,0.48l-1.45,-0.94l-1.13,-3.59l-2.12,-0.67l-0.69,0.51l-0.75,-0.78l0.56,-2.49l-1.68,-2.78l-1.78,-0.2l-1.48,1.34l-0.97,-0.78l-0.77,0.92l-2.1,-0.68l-0.15,-0.87l-2.68,0.99l-0.19,-2.16l-1.1,-0.19l0.12,-1.15l1.41,-0.16l0.58,-2.71l2.05,-1.4l-0.44,-2.12l0.52,-1.25l0.96,0.65l1.83,-3.15l-0.77,-3.31l0.61,-1.03l-1.65,-0.35l2.43,-1.34l3.24,-8.28l5.13,-3.65l0.75,-1.61l-0.55,-5.46l-1.07,-1.69l0.43,-0.92l-0.94,-5.22l0.67,-0.47l-0.43,-2.22l0.98,-5.93l-0.98,-6.77l1.17,-2.83l1.83,-0.26l0.44,-4.02l1.55,-0.79l0.93,-2.02l2.7,-2.38l0.49,-3.91l1.4,-0.08l0.62,-0.91l1.47,0.59l1.68,-0.63l1.29,-1.5l2.65,-1.22l1.16,1.21l4.83,0.85l-0.69,-0.82l1.99,-0.71l-0.21,-1.86l2.27,-0.29l0.84,-2.1l1.21,0.44l1.71,-1.1l1.73,0.39L223.38,153.25zM170.29,244.94l-1.05,-0.26l0.64,-0.93l1.45,-0.06L170.29,244.94z"/>
		<path id="BY-MA" title="Mahilyow" class="land" d="M459.07,248.97L461.16,248.46L462.38,249.57L463.35,248.02L464.23,248.33L464.49,247.18L465.61,247.75L467.16,245.4L466.95,243.67L468.4,243.3L468.82,240.99L472.04,241.25L471.19,238.48L472.1,236.76L475.72,235.4L475.69,236.86L478.84,238.03L480.92,240.26L482.47,239.33L486.71,239.81L490,239.01L491.9,237.27L494.04,238.7L495.35,236.89L495.02,236.29L495.92,235.87L496.75,236.55L495.49,238.33L497.47,240.35L496.65,241.47L499.98,243.14L500.15,242.41L501.7,242.56L503.36,241.16L502.2,244.79L504.91,244.78L505.8,244.31L504.07,241.49L504.21,239.98L507.61,241.06L507.6,239.9L509.54,239.25L507.44,238.27L506.52,236.46L508.95,236.61L510.36,238.53L512.21,235.45L510.36,233.44L510.89,231.79L513.77,231.25L513.96,232.11L513.05,233.13L512.12,233.1L512.23,234.06L515.24,233.03L517.09,235.6L516.99,237.74L518.65,237.63L519.71,235.25L518.92,234.12L519.78,233.48L522.21,235.36L522.89,234.75L524.15,236.05L525.09,235.6L526.09,230.43L528.05,231.46L526.9,233.98L527.46,235.68L524.63,238.15L523.31,242.21L528.71,243.62L531.02,239.93L534.17,240.21L533.71,238.33L534.4,236.99L535.09,238.09L536.04,238.1L536.61,241.76L538.02,242.91L538.59,245.61L540.55,244.18L540.91,246.46L542.3,246.38L541.64,247.28L543.56,247.72L542.6,246.46L542.73,245.01L545.52,244.97L542.81,244.02L546.05,241.4L544.81,240.77L546.29,237.5L547.3,236.83L548,237.22L548.66,235.85L547.59,234.21L546.13,234.08L545.55,233.19L546.97,232.29L548.53,232.53L551.11,230.92L551.83,231.41L554.64,230.42L553.56,227.52L554.16,226.44L556.17,225.79L558.4,226.64L558.71,227.4L561.35,227.38L561.82,229.66L564.63,228.79L567.75,229.81L569.65,228.86L569.48,226.69L570.58,226.15L570.48,224.43L572.31,222.98L573.75,225.87L575.64,225.6L576.42,226.63L578.36,226.3L579.65,229.57L582.23,226.81L582.74,225.19L585.03,224.82L585.56,223.81L588.39,222.53L587.23,220.33L589.04,220.05L590.13,221.21L592.6,220.52L592.6,220.52L594.78,221.06L595.07,224.91L595.91,225.36L596.22,227.57L597.54,229.17L596.24,232.07L599.81,233.64L601.38,237.08L598.74,239.57L601.28,240.45L600.51,244.44L600.92,248.84L602.43,248.6L604.24,249.8L605.55,248.33L606.09,251.55L608.04,251.31L607.8,252.5L606.34,252.08L605.76,253.2L609.84,253.61L612.88,257.08L614.3,256.9L614.73,257.65L613.97,259.47L616.62,260.67L618.46,260.65L619.18,262.46L623.84,262.94L625.9,261.84L625.67,262.7L627.43,264.73L627.49,266.59L631.07,265.34L631.74,266.6L632.7,265.71L634.81,265.41L634.26,268.67L633.29,269.83L635.76,269.99L638.39,267.84L639.53,269.3L640.77,268.4L641.51,269.65L642.47,268.76L643.86,269.26L642.73,270.95L643.69,273L643.34,275.1L640.82,278.87L641.62,280.29L643.27,280.77L643.38,283.91L640.65,285.8L640.86,288.05L640.18,288.29L638.88,292.21L639.05,294.21L636.71,295.07L637.61,295.86L638.12,295.52L638.18,296.44L637.53,297.51L636.07,297.68L635.39,299.25L636.34,299.62L636.1,300.34L633.67,300.59L634.78,301.99L634.03,305.26L634.62,305.69L635.18,304.08L635.9,304.66L636.15,303.88L637.16,303.8L637.5,304.63L638.39,304.42L644,307.75L644.55,306.4L646.13,305.99L647.84,306.67L650.63,304.21L654.93,304.88L654.65,303.98L657.54,304.32L658.7,302.94L660.76,302.42L662.36,304.58L664.15,304.76L664.48,305.63L665.13,304.86L666.81,304.86L668.18,308.82L670.29,308.98L670.75,308.09L672.47,307.69L672.7,308.44L671.57,309.67L675.29,309.52L676.89,311.08L677.61,314.43L678.6,315.04L680.54,313.48L682.9,313.63L685.31,312.43L685.51,314.5L687.61,315.4L688.17,316.43L688.33,318.94L684.94,321.18L683,320.9L681.94,321.68L681.89,322.95L682.25,325.25L683.14,325.74L683.09,323.26L684.49,324.99L682.94,328.9L685.31,332.76L686.86,333.64L686.37,335.87L689.15,336.35L692.12,338.51L691.33,339.86L695.89,340.43L696.06,344.72L697.73,345.07L699.14,341.46L699.68,342.64L702.14,344.07L700.18,344.6L699.92,345.84L705.89,347.02L706.73,346.25L708.2,346.5L706.73,348.59L707.81,351.54L706.17,351.73L706.11,353.22L706.85,354.45L708.09,354.21L708.71,355.6L707.47,354.81L706.04,355.02L706.29,356.18L704.96,357.63L706.9,362.31L703.29,362.98L702.02,361.77L700.55,362.74L699.48,364.99L696.9,361.84L697.1,364.86L695.63,364.93L694.52,367.8L691.68,366.45L690.22,367.49L690.03,365.8L687.37,366.28L687.51,367L689.36,367.59L689.26,368.69L684.44,377.93L683.3,378.27L681.79,380.65L679.82,380.23L677.76,380.84L676.39,382.34L676.69,383.98L675.85,385.72L673.66,387.78L669.3,387.86L668.49,389.47L668.83,391.38L665.08,390.32L664.04,392.73L658.38,394.14L652.74,392.51L652.61,391.39L650.94,392.24L650.63,393.19L646.48,393.43L644.98,392.8L645.52,390.74L644.67,390.24L642.8,389.48L641.68,390.41L638.87,389.97L636.46,386.3L635.78,381.88L634.46,381.43L632.61,379.31L631.52,379.84L623.98,375.46L620.39,379.92L617.66,380.2L617.18,379.17L615.17,379.12L614.67,378.48L607.31,377.54L608.32,381.97L606.87,382.76L606.74,384.6L604.37,386.3L604.51,388.07L605.45,388.1L606.94,390.09L606.29,391.65L604.24,391.85L604.24,391.85L602.74,391.85L601.72,389.59L596.04,389.47L596.02,388.59L595.6,389.2L594.5,388.63L593.95,389.35L592.68,385.87L586.24,386.45L585.15,384.44L586.76,382.9L586.61,380.9L585.25,380.52L584.64,378.51L582.17,379L582.06,376.1L580.13,374.89L580.77,372.58L580.17,371.8L579.28,372.33L578.19,371.19L576.76,372.21L575.6,370.38L577.67,368.4L578.57,366.44L578.21,365.74L571.4,366.29L570.98,365.38L567.97,365.99L566.44,366.5L566.76,367.88L565.43,369.05L560.3,368.33L559.64,369.23L557.1,369.46L557.15,371.22L554.1,371.58L552.18,369.74L553.23,367.59L546.24,366.23L546.88,364.81L545.5,364.07L546.95,361.4L545.72,360.72L545.41,362.83L543.78,365.32L541.11,365.05L540.18,367.62L538.38,367.32L538.58,368.34L537.51,369.68L534.1,368.62L531.84,370.41L531.63,372.42L528.24,371.89L526.95,373.19L523.4,373.94L523.31,372.69L521.27,375.35L519.79,374.93L518.37,375.78L517.81,375.21L515.95,376.21L514.85,375.28L512.73,368.39L510.86,367.21L511.02,366.21L510.06,365.02L500.84,362.85L500.96,364.19L499.81,366.18L496.33,365.67L496.72,364.17L497.76,363.66L497.46,362.62L496.03,361.56L495.07,362.05L495.74,362.94L493.6,363.84L492.79,359.92L489.36,361.61L485.72,365.28L485.78,370.37L487.22,372.1L487.48,373.44L486.74,373.65L488.85,379.34L485.3,380.62L487.39,381.67L486.32,382.48L486.58,383.68L487.41,383.5L485.86,385L486.12,386.34L487.37,386.6L483.3,388.73L482.22,387.92L480.14,388.47L479.29,386.53L478.58,386.59L478.55,387.67L477.5,387.47L477.25,388.37L478.24,390.81L476.34,392.1L477.98,395.43L480.18,394.65L481.04,396.53L477.97,400.4L478.96,400.94L479.51,403.18L480.48,403.98L484.51,405.73L483,407.43L483.66,408.83L479.57,410.14L478.95,408.99L478.35,408.64L478.19,409.36L476.62,407.99L474.46,407.72L472.01,408.47L471.5,407.85L468.85,408.09L468.1,407.51L464.91,411L461.39,412.58L460.58,411.51L459.28,411.52L459.4,409.94L458.09,409.77L457.46,411.27L457.37,410.46L455.54,409.79L450.1,409.24L448.93,407.45L446.14,407.29L444.25,406.14L442.75,406.97L438.39,413.88L439.35,418.21L437.65,419.1L437.32,418.57L427.86,419.84L428.27,422.86L422.4,431.06L420.76,430.77L419.14,432.74L415.66,431.61L415.02,434.87L416.01,434.91L416.26,436.19L417.66,435.81L417.76,437.86L413.87,437.89L413.9,438.89L411.58,441.5L408.95,440.15L407.09,441.55L403.6,440.22L401.63,441.4L400.12,441.18L399.33,442.25L396.29,441.52L394.35,442.23L393.69,441.13L391.59,443.16L390.57,442.45L390.57,442.45L390.96,442.12L389.38,440.03L386.63,438.12L383,437.12L383.08,435.03L383.42,433.17L387.18,430.61L389.12,425.93L387.54,422.41L386.65,422.05L386.77,420.64L390.24,419.72L389.96,418.82L391.31,417.08L390.44,414.01L389.78,413.84L387.76,409.52L388.79,406.96L389.47,406.37L390.5,407.1L392.24,405.15L394.38,406.7L396.1,406.85L397.61,403.88L395.38,401.32L395.24,398.17L394.49,397.44L395.54,395.27L394.37,391.43L395.54,390.17L394.42,389.63L393.56,387.32L392.41,387.87L393.67,385.77L392.2,383.72L386.24,385.35L384.93,385.08L384.87,384.28L385.77,384.15L383.59,383.13L384.05,384.95L381.6,385.71L381.11,384.28L381.6,383.45L379,384.17L380.73,383.15L381.67,380.56L381.38,379.6L378.76,378.58L376.9,381.59L375.43,379.65L374.05,379.79L373.7,381.22L372.75,381.04L372.26,379.65L369.68,380.75L369.2,378.32L367.92,378.62L364,376.32L364.41,374.45L362.72,373.28L362.01,369.94L364.16,370.69L366.38,369.26L366.97,370.25L370.48,371.47L377.65,372.11L380.13,371.96L380.12,370.03L386.51,369.83L387.86,369.18L387.79,364.15L385.48,361.39L382.18,360.1L381.93,358.73L382.64,355.9L384.13,356.19L384.2,355.16L385.82,354.24L385.85,347.73L383.47,345.54L380.76,344.67L381.81,344.68L382.2,343.43L383.49,343.17L385.73,344.5L386.68,342.71L387.9,342.93L390.67,339.38L391.25,340.24L392.14,339.54L392.14,337.63L392.92,337.94L394.06,340.48L394.83,339.17L397.9,338.91L398.04,337.56L396.77,337.89L395.92,336.64L396.49,338.44L392.28,337.37L395.01,334.85L399.07,335.05L399.34,332.3L401.93,332.41L401.18,331.22L401.89,328.13L408.53,332.22L413.48,332.42L413.19,330.26L416.23,329.17L417.42,332.14L420.38,332.44L423.02,335.92L423.13,337.78L426.65,338.37L426.7,339.38L427.42,339.6L426.2,333.99L427.73,333.64L426.07,333.04L425.98,332.1L429.49,330.41L429.9,331.43L435.35,331.98L436.24,330.39L434.96,329.33L435.15,326.77L434.29,326.1L434.88,324.7L436.55,325.54L437.42,324.2L436.87,321.33L437.32,318.86L439.1,319.04L439.24,320.67L441.03,320.01L442.82,323.03L444.31,322.66L445.05,321.12L447.9,320.49L448.62,318.78L451.97,317.81L453,316.09L452.81,313.29L453.49,311.51L455.03,311.5L456.91,314.38L458.7,313.9L458.4,310.35L459.39,310.53L460.83,309.41L457.84,308.45L458.47,306.32L464.67,306.79L465.85,306.12L466.15,304.2L464,303.78L463.41,302.57L461.11,303.02L460.41,300.51L456.87,301.45L455.96,300.81L458.07,299.9L460.76,296.46L458.17,297.97L456.79,296.96L456.85,296.28L458.52,296.06L459.22,294.94L457.19,294.11L459.12,290.08L457.27,288.96L457.45,285.53L455.5,283.95L456.89,282.35L456.48,280.47L454.06,278.08L455.07,276.35L458.94,274.23L461.57,274.27L460.71,273.03L462.38,258.58L461.33,257.47L463.13,255.91L463.53,254.12L462.83,253.79L463.93,253.13L462.63,252.71L462.89,251.87L461.96,251.98L461.89,250.71L459.51,250.71z"/>
		<path id="BY-VI" title="Vitsyebsk" class="land" d="M366.75,0.11L367.3,0.16L367.55,3.81L370.52,4.51L373.91,7.83L373.96,11.29L375.51,11.65L376.56,10.59L377.21,12.99L379.18,14.76L381.27,14.22L383.9,14.67L384.6,11.95L383.55,9.84L383.79,8.39L384.52,8.12L387.32,9.73L387.02,11L390.43,8.65L394.96,8.72L395.14,7.92L396.51,7.5L401.53,9.6L403.22,8.83L406.08,9.19L406.13,10.26L404.84,11.85L403.62,11.48L403.07,12.99L404.56,15.01L404.64,16.68L407.69,19.27L408.03,23.02L410.51,26.93L410.95,26.4L412.23,26.93L415.38,26.35L418.4,28.65L419.42,24.39L423.49,23.64L424.34,22.85L425.72,23.58L425.71,21.36L430.24,21.15L430.87,19.31L436.28,18.29L438.1,20.67L439.75,19.09L441.44,19.3L445.98,24.4L448.8,23.26L450.98,24.2L452.39,23.8L456.18,26.52L458.61,26.11L461.04,26.88L463.16,28.59L461.45,29.42L461.19,30.48L463.71,31.19L465.18,33.51L462.89,34.78L461.55,34.72L461.4,35.53L458.97,35.86L461.25,39.54L459.73,39.55L458.65,41.51L458.83,46.02L456.78,48.83L457.27,51.79L456.33,53.6L456.69,54.74L459.46,55.24L463.32,58.01L463.79,59.78L465.6,61.22L468.09,61.65L472.63,57.59L473.25,54.36L475.65,51.69L476.84,52.2L479.74,50.13L482.51,50.23L485.22,48.71L486.44,50.34L486.29,51.52L487.3,52.01L489.08,51.54L491.93,48.37L491.82,46.67L492.58,47.01L494.59,43.71L493.86,42.43L495.88,40.88L499.81,42.24L501.6,41.47L501.62,39.93L503.43,39.8L507.21,41.42L508.53,43.24L509.4,42.81L511.49,44.88L513.49,44.84L514.25,42.45L516.08,42.4L516.17,40.33L515.5,39.28L516,38.67L516.98,40.84L519,40.21L520.48,40.62L521.56,39.8L524.06,40.77L524.3,40.05L524.98,44.91L528.73,44.46L530.82,47.58L533.25,46.85L534.07,47.93L539.63,47.27L539.97,48.52L541.94,49.93L540.3,51.39L542.78,55.54L546.71,55.67L550.27,58.53L551.79,62.18L550.94,63.8L551.14,65.52L553.35,65.71L552.27,67.57L553.54,67.66L553.32,70.4L554.48,70.52L555.22,67.75L557.72,67.33L559.77,74.52L559.34,75.32L560.32,76.45L563.58,76.43L563.54,75.18L564.96,75.05L565.38,73.09L566.73,72.54L565.69,71.29L567.77,71.05L571.06,73.45L572.5,72.14L572.77,76.81L574.26,82.63L571.32,83.91L571.14,84.79L572.44,85.64L572.31,86.6L573.51,86.5L574.6,88.4L571.66,90.94L569.94,91.2L571.01,93.38L570.47,95.57L572.74,101.37L571.74,104.25L570.12,104.6L567.99,107.81L565.99,108.87L564.72,110.67L564.13,111.89L564.33,116.78L568.94,117.94L568.96,119.7L570.63,120.4L571.83,126.69L574.6,127.9L575.4,130.75L576.6,130.97L575.67,134.03L577.43,134.38L576.82,137.14L577.41,138.31L576.37,141L577.48,144.02L577.55,148.86L576.76,149.53L576.27,148.77L573.02,147.9L570.86,150.15L573.55,152.37L575.04,155.28L573.02,155.91L573.16,158.02L570.58,158.07L570.59,159.54L567.08,159.29L564.44,160.6L564.39,162.34L564.99,162.47L565.49,164.72L563.97,166.71L564.58,168.16L562.76,168.6L559.3,177.56L565.97,180.26L569.1,183.67L571.08,184.08L574.22,186.5L575.92,189.51L577.44,188.31L577.48,191.74L576.65,192.98L577.04,194.88L579.57,194.53L584.45,196.23L586.17,194.76L587.41,195.76L591.13,195.41L592.38,197.39L592.97,200.62L590.21,205.33L588.12,206.81L587.28,208.66L587.45,211.13L584.6,212.59L584.95,214.33L583.95,215.64L585.34,217.53L587.49,217.84L589.54,219.79L590.7,220.08L592.41,219.28L592.6,220.52L592.6,220.52L590.13,221.21L589.04,220.05L587.23,220.33L588.39,222.53L585.56,223.81L585.03,224.82L582.74,225.19L582.23,226.81L579.65,229.57L578.36,226.3L576.42,226.63L575.64,225.6L573.75,225.87L572.31,222.98L570.48,224.43L570.58,226.15L569.48,226.69L569.65,228.86L567.75,229.81L564.63,228.79L561.82,229.66L561.35,227.38L558.71,227.4L558.4,226.64L556.17,225.79L554.16,226.44L553.56,227.52L554.64,230.42L551.83,231.41L551.11,230.92L548.53,232.53L546.97,232.29L545.55,233.19L546.13,234.08L547.59,234.21L548.66,235.85L548,237.22L547.3,236.83L546.29,237.5L544.81,240.77L546.05,241.4L542.81,244.02L545.52,244.97L542.73,245.01L542.6,246.46L543.56,247.72L541.64,247.28L542.3,246.38L540.91,246.46L540.55,244.18L538.59,245.61L538.02,242.91L536.61,241.76L536.04,238.1L535.09,238.09L534.4,236.99L533.71,238.33L534.17,240.21L531.02,239.93L528.71,243.62L523.31,242.21L524.63,238.15L527.46,235.68L526.9,233.98L528.05,231.46L526.09,230.43L525.09,235.6L524.15,236.05L522.89,234.75L522.21,235.36L519.78,233.48L518.92,234.12L519.71,235.25L518.65,237.63L516.99,237.74L517.09,235.6L515.24,233.03L512.23,234.06L512.12,233.1L513.05,233.13L513.96,232.11L513.77,231.25L510.89,231.79L510.36,233.44L512.21,235.45L510.36,238.53L508.95,236.61L506.52,236.46L507.44,238.27L509.54,239.25L507.6,239.9L507.61,241.06L504.21,239.98L504.07,241.49L505.8,244.31L504.91,244.78L502.2,244.79L503.36,241.16L501.7,242.56L500.15,242.41L499.98,243.14L496.65,241.47L497.47,240.35L495.49,238.33L496.75,236.55L495.92,235.87L495.02,236.29L495.35,236.89L494.04,238.7L491.9,237.27L490,239.01L486.71,239.81L482.47,239.33L480.92,240.26L478.84,238.03L475.69,236.86L475.72,235.4L472.1,236.76L471.19,238.48L472.04,241.25L468.82,240.99L468.4,243.3L466.95,243.67L467.16,245.4L465.61,247.75L464.49,247.18L464.23,248.33L463.35,248.02L462.38,249.57L461.16,248.46L459.07,248.97L459.07,248.97L456.77,250.17L454.55,248.78L456.11,246.62L455.52,245.63L455.89,244.58L456.74,246.02L457.98,244.53L458.01,241.16L459.19,239.81L460.44,239.6L457.78,238.89L456.3,236.24L456.97,234.66L455.39,234.39L455.15,232.69L459.23,232.77L459.99,232.5L460.69,230.68L462.28,231.12L462.64,230.59L460.83,228.2L461.01,225.38L462.14,225.09L460.62,222.78L460.83,221.61L460.1,221.87L459.44,221.04L463.06,216.33L463.16,214.97L462.3,213.92L464,210.19L463.74,207.16L466.06,205.26L464.08,201.27L461.25,201.96L461.42,203.53L460.31,203.88L459.69,206.05L457.05,205.49L458.27,203.66L455.58,206.93L454.98,205.65L453.77,205.48L451.72,207.59L449.64,207.07L448.58,207.7L448.17,206.79L446.4,206.69L446.07,203.11L445.25,202.4L446.69,200.98L444.99,200.15L445.63,198.83L442.59,199.17L441.69,200.18L438.81,199.81L437.41,198.72L432.27,201.65L431.76,202.49L432.16,204.78L431,206L429.78,205.59L429.56,204.53L428.78,204.78L426.34,203.22L423.55,203.1L422.73,201.98L420.06,202.99L421.21,204.37L421.25,205.84L420.95,206.84L419.45,207.48L415.85,207.88L414.79,207.54L414.74,206.46L411.88,205.76L412.32,206.38L408.65,207.32L406.11,206.7L406.31,205.72L405.29,204.51L406.25,203.41L406.24,201.54L402.75,195.53L400.96,195.88L400.36,194.6L399.26,194.44L398.57,195.86L389.84,195.77L389.07,202.45L387.88,206.33L386.1,209.42L384.6,209.44L381.1,204.4L379.26,203.73L378.68,201.19L377.21,202L376.58,199.76L375.99,200.23L376.68,201.21L376.36,202.52L375.36,200.95L375.6,198.37L372.69,196.42L371.74,194.89L370.32,194.56L365.98,196.64L366.21,195.72L365.24,197.11L366.03,198.95L363.72,199.62L362.79,201.14L362.27,200.05L361.15,200L357.19,202.21L356.73,205.29L354.66,206.1L352.65,202.68L349.44,203.1L346.95,201.65L347.76,199.69L346.25,198.52L343.56,201.54L342.83,201.66L342.58,200.85L339.92,202.49L338.46,202.43L337.88,200.12L336.2,199L336.91,196.48L333.85,193.77L333.8,185.2L330.53,183.68L328.94,182.1L327.62,182.7L321.65,182.4L323.1,177.1L321.06,176.31L318.76,177.39L318.36,173.33L316.08,172.24L315.63,170.97L314.14,171.13L313.62,170.29L312.1,171.31L308.31,168.98L306.64,165.56L304.65,165.01L305.49,160.48L303.29,159.66L303.14,158.12L302.59,157.81L302.13,158.47L301.4,157.38L301.7,155.53L302.42,155.08L301.32,153.05L297.58,153.79L296.92,152.07L295.55,153.18L294.66,151.96L293.13,154.18L292.36,152.15L289.44,153.18L287.8,152.5L286.17,153.25L286.7,154.06L288.08,153.84L287.73,155.28L283.36,155.31L282.33,156.5L279.83,157.05L279.32,154.29L276.44,152.16L274.85,149.84L273.66,150.66L272.83,150.26L270.88,153.1L269.96,152.07L270.06,150.85L268.52,150.7L267.38,151.51L267.14,152.95L268.15,154.51L269.2,154.54L269.31,156.3L268.62,156.9L267.38,155.76L266.37,156.98L264.54,156.1L263.08,156.62L263.06,158.13L261.41,158.25L260.31,157.84L259.42,155.64L258.29,156.07L256.16,154.23L254.86,155.6L252.22,155.08L251.88,155.6L253.56,157.27L250.24,160.39L245.82,157.55L244.37,158.9L241.76,156.98L240.27,157.57L239.65,156.08L237.95,155.08L233.75,153.96L232.77,155.57L233.56,156.19L234.22,155.8L234.08,157.21L232.99,157.88L231.51,156.72L229.29,160.53L229.29,160.53L227.45,159.44L227.8,158.16L226.49,154.82L225.1,153.59L223.38,153.25L223.38,153.25L223.82,151.08L225.87,147.63L226.23,144.24L227.76,143.97L227.57,143.26L228.24,142.97L225.34,138.89L227.81,137.24L230.61,136.74L231.32,136.17L230.63,135.59L232.51,135.33L232.31,134.13L234.71,133.5L237.32,134.46L237.79,135.63L238.92,134.69L242.45,136.14L243.62,135.15L243.77,133.73L246.42,132.2L248.35,134.33L251.48,133.01L254.24,133.84L256.62,132.04L258.19,132.53L258.5,131.05L259.68,131.5L260.34,130.59L259.14,129.94L258.33,127.24L259.63,126.34L260.4,127L262.25,125.02L262.35,121.32L263.39,120.1L265.79,119.38L267.34,117.57L269.84,116.69L269.61,113.27L266.71,111.44L261.5,111.3L257.49,109.06L257.09,110.31L256.06,109.68L255.07,111.35L254.78,109.67L253.71,110.06L253.99,110.81L253.17,111.69L251.62,111.6L251.47,110.78L249.93,111.67L248.56,110.32L241.83,108.76L241.08,107.93L243.09,106.92L243.49,105.16L245.41,105.12L247.56,102.74L249.25,102.7L248.84,100.32L249.62,99.66L248.32,95.84L249.54,95.99L248.49,94.49L250.21,91.97L249.43,90.59L248.45,90.39L247.29,87.19L248.55,84.77L251.38,83.46L253.58,79.84L254.27,80.13L255.96,78.73L255.89,74.99L255.23,73.99L256.52,71.81L256.02,68.29L254.98,68.14L254.96,64.93L256.54,62.42L256.19,61.82L261.43,62.26L263.39,64.75L266.29,65.35L267.56,62.76L272.8,60.57L273.21,57.84L274.89,55.76L276.66,50.68L278.43,50.87L280.34,47.62L283.35,45.51L284.7,46.22L285.8,45.37L289.43,45.79L290.06,43.53L291.55,42.76L292.84,43.16L293.64,42.43L294.97,44.42L297.38,45.09L300.32,48.55L300.66,49.9L303.08,51.11L307.97,49.29L309.28,47.33L314.16,49.97L322.66,51.25L327.77,50.83L329.54,42.93L328.41,37.15L330.53,34.39L330.53,32.34L336.74,26.63L339.22,26.39L341.28,25.31L342.38,23.03L341.39,21.78L342.22,21.71L343.7,19.88L342.04,18.18L345.37,17.3L346.73,15.95L348.86,16.82L351.19,13.29L352.42,9.14L353.7,8.45L354.24,7.05L355.71,6.31L359.17,7.37L359.37,6.16L361.13,4.64L362.85,5.07L363.1,3.24L366.04,0.05z"/>
		<path id="BY-HM" title="Minsk City" class="land" d="M326.4,306.17l-0.74,-0.2l-1.05,-2.45l0,0l0.7,-1.02l0.77,0.25l0,0L326.4,306.17zM349.2,297.02l-0.72,-0.07l-0.05,-1.75l1.26,0.74L349.2,297.02zM359.49,294.13l1.61,2l-1.38,1.04l0,0l-2.54,-2.99L359.49,294.13zM325.84,284.36l2.46,1.34l1.56,-0.7l-0.35,1.3l1.41,0.88l1.69,-0.32l1.11,-1.16l2.32,0.37l0.53,-0.84l0.95,0.26l-0.76,3.65l-4.13,2.09l1.37,4.66l-1,2.69l3.24,2.37l0.48,-3.37l4.42,0.21l1.47,1.58l-2.21,1.69l-0.1,1.69l-2,0.42l-2.68,-1.9l-1,1.37l0.32,1.53l-2.42,1.16l-0.53,-0.58l0.63,-1.05l-1.21,-0.84l1.21,-0.84l-0.63,-1.32l-1.58,1.16l-2.11,0.26l-10.16,-1l-0.89,0.63l-0.47,-1.05l-2.21,-0.74l-0.84,-2.58l-1.74,0.63l0.05,0.74l-1.95,-1.21l1.9,-1.79h1v-4.95l1.42,-2.9l2.16,-2.16l2.37,-0.84l0,0L325.84,284.36z"/>
		<path id="BY-MI" title="Minsk" class="land" d="M229.29,160.53l2.22,-3.81l1.48,1.16l1.09,-0.67l0.14,-1.41l-0.66,0.4l-0.79,-0.63l0.99,-1.6l4.19,1.12l1.71,1l0.62,1.49l1.48,-0.59l2.61,1.93l1.45,-1.35l4.42,2.84l3.33,-3.12l-1.68,-1.67l0.34,-0.53l2.64,0.53l1.29,-1.37l2.13,1.84l1.13,-0.42l0.89,2.19l1.1,0.41l1.65,-0.11l0.02,-1.51l1.46,-0.51l1.82,0.87l1.01,-1.22l1.24,1.14l0.69,-0.6l-0.11,-1.76l-1.05,-0.02l-1,-1.57l0.24,-1.44l1.14,-0.81l1.54,0.15l-0.1,1.22l0.92,1.03l1.95,-2.84l0.83,0.4l1.19,-0.82l1.6,2.33l2.88,2.13l0.51,2.76l2.5,-0.55l1.03,-1.19l4.37,-0.03l0.35,-1.44l-1.37,0.22l-0.53,-0.81l1.63,-0.76l1.63,0.68l2.92,-1.03l0.77,2.03l1.54,-2.22l0.89,1.22l1.37,-1.1l0.67,1.72l3.74,-0.74l1.09,2.03l-0.72,0.45l-0.3,1.85l0.73,1.09l0.47,-0.65l0.55,0.31l0.15,1.54l2.2,0.82l-0.84,4.53l1.99,0.55l1.67,3.42l3.79,2.33l1.53,-1.01l0.52,0.83l1.49,-0.15l0.45,1.27l2.28,1.09l0.39,4.07l2.3,-1.09l2.05,0.79l-1.45,5.3l5.97,0.29l1.32,-0.6l1.59,1.58l3.28,1.52l0.04,8.57l3.06,2.71l-0.7,2.52l1.68,1.12l0.58,2.3l1.46,0.06l2.67,-1.64l0.25,0.81l0.72,-0.13l2.69,-3.02l1.51,1.17l-0.81,1.96l2.5,1.45l3.21,-0.42l2,3.42l2.08,-0.81l0.46,-3.08l3.96,-2.21l1.12,0.05l0.52,1.1l0.93,-1.53l2.3,-0.66l-0.79,-1.85l0.98,-1.39l-0.24,0.92l4.34,-2.08l1.43,0.33l0.95,1.53l2.92,1.95l-0.24,2.58l1,1.57l0.32,-1.31l-0.69,-0.98l0.59,-0.47l0.63,2.24l1.48,-0.8l0.58,2.53l1.84,0.67l3.51,5.05l1.49,-0.02l1.78,-3.09l1.2,-3.88l0.77,-6.68l8.74,0.09l0.69,-1.41l1.1,0.15l0.6,1.29l1.79,-0.36l3.49,6.01l0.01,1.87l-0.95,1.11l1.02,1.21l-0.2,0.98l2.54,0.62l3.67,-0.94l-0.44,-0.62l2.86,0.7l0.05,1.08l1.06,0.34l3.6,-0.41l1.5,-0.64l0.3,-1l-0.04,-1.46l-1.14,-1.39l2.67,-1l0.83,1.12l2.78,0.12l2.44,1.56l0.78,-0.25l0.21,1.07l1.23,0.41l1.16,-1.22l-0.41,-2.29l0.52,-0.84l5.14,-2.93l1.4,1.08l2.88,0.37l0.9,-1l3.04,-0.34l-0.64,1.32l1.7,0.83l-1.44,1.43l0.83,0.71l0.33,3.57l1.77,0.1l0.41,0.92l1.06,-0.63l2.08,0.52l2.05,-2.11l1.2,0.17l0.61,1.28l2.69,-3.27l-1.23,1.83l2.64,0.56l0.62,-2.17l1.11,-0.34l-0.16,-1.58l2.83,-0.69l1.98,3.99l-2.32,1.89l0.26,3.04l-1.7,3.72l0.86,1.05l-0.1,1.36l-3.63,4.72l0.67,0.82l0.72,-0.25l-0.21,1.17l1.52,2.31l-1.13,0.29l-0.18,2.82l1.81,2.39l-0.35,0.53l-1.59,-0.44l-0.69,1.82l-0.76,0.27l-4.08,-0.08l0.24,1.69l1.58,0.28l-0.67,1.58l1.48,2.64l2.65,0.72l-1.25,0.2l-1.18,1.35l-0.03,3.37l-1.24,1.49l-0.85,-1.44l-0.37,1.05l0.59,1l-1.56,2.16l2.22,1.39l2.3,-1.2l0,0l0.44,1.74h2.38l0.07,1.27l0.93,-0.11l-0.26,0.84l1.3,0.42l-1.09,0.67l0.69,0.33l-0.4,1.79l-1.8,1.56l1.05,1.11l-1.67,14.45l0.86,1.24l-2.63,-0.04l-3.87,2.12l-1.02,1.73l2.42,2.38l0.41,1.88l-1.4,1.6l1.96,1.58l-0.18,3.43l1.85,1.13l-1.93,4.03l2.03,0.84l-0.71,1.11l-1.67,0.23l-0.06,0.67l1.38,1.01l2.59,-1.51l-2.69,3.45l-2.11,0.91l0.91,0.64l3.54,-0.94l0.7,2.51l2.3,-0.45l0.59,1.21l2.15,0.41l-0.29,1.92l-1.19,0.67l-6.19,-0.47l-0.63,2.13l2.99,0.96l-1.44,1.12l-0.98,-0.17l0.3,3.55l-1.79,0.47l-1.88,-2.88l-1.53,0.01l-0.68,1.78l0.19,2.8l-1.03,1.72l-3.34,0.97l-0.72,1.7l-2.85,0.64l-0.74,1.54l-1.48,0.37l-1.79,-3.02l-1.79,0.66l-0.13,-1.63l-1.78,-0.19l-0.46,2.48l0.55,2.87l-0.87,1.34l-1.67,-0.84l-0.59,1.4l0.86,0.67l-0.19,2.56l1.28,1.06l-0.89,1.59l-5.46,-0.55l-0.41,-1.02l-3.51,1.69l0.09,0.94l1.65,0.6l-1.52,0.35l1.22,5.62l-0.72,-0.22l-0.04,-1l-3.52,-0.6l-0.11,-1.86l-2.64,-3.48l-2.96,-0.3l-1.19,-2.97l-3.03,1.09l0.29,2.16l-4.95,-0.2l-6.65,-4.1l-0.71,3.09l0.75,1.19l-2.58,-0.11l-0.27,2.75l-4.06,-0.2l-2.72,2.52l4.21,1.07l-0.57,-1.8l0.85,1.25l1.26,-0.33l-0.14,1.35l-3.06,0.26l-0.77,1.31l-1.14,-2.54l-0.78,-0.31l0.01,1.91l-0.89,0.71l-0.58,-0.87l-2.76,3.56l-1.23,-0.22l-0.94,1.8l-2.24,-1.34l-1.28,0.26l-0.4,1.25l-1.04,-0.01l2.71,0.88l2.38,2.19l-0.03,6.5l-1.62,0.93l-0.07,1.02l-1.49,-0.28l-0.71,2.83l0.25,1.37l3.29,1.28l2.31,2.76l0.07,5.03l-1.35,0.65l-6.39,0.2l0.01,1.93l-2.48,0.15l-7.17,-0.64l-3.51,-1.22l-0.59,-0.98l-2.22,1.43l-2.15,-0.75l0.71,3.34l1.69,1.17l-0.41,1.87l3.92,2.3l1.28,-0.29l0.48,2.42l2.58,-1.09l0.5,1.39l0.95,0.18l0.35,-1.44l1.38,-0.14l1.47,1.94l1.85,-3.01l2.62,1.02l0.3,0.96l-0.94,2.59l-1.73,1.02l2.6,-0.72l-0.49,0.84l0.49,1.43l2.45,-0.76l-0.46,-1.82l2.19,1.02l-0.9,0.14l0.06,0.8l1.31,0.27l5.97,-1.63l1.47,2.05l-1.26,2.1l1.15,-0.55l0.86,2.31l1.12,0.54l-1.17,1.26l1.17,3.84l-1.05,2.17l0.75,0.74l0.13,3.15l2.23,2.56l-1.51,2.97l-1.72,-0.15l-2.14,-1.55l-1.74,1.94l-1.03,-0.72l-0.68,0.59l-1.03,2.56l2.02,4.33l0.67,0.17l0.86,3.06l-1.34,1.75l0.27,0.89l-3.46,0.93l-0.12,1.4l0.89,0.37l1.59,3.52l-1.94,4.68l-3.77,2.56l-0.34,1.86l-0.07,2.09l3.63,1l2.75,1.91l1.58,2.09l-0.39,0.33l0,0l-2.29,4.21l-0.11,12.44l-6.73,6.71l-10.47,1.67l-0.44,-2.26l-4.61,0.87l-0.89,-4.46l-9.49,1.23l-1.82,0.99l0.86,4.62l-1.7,0.98l-0.08,3.3h-2.04l-2.08,1.22l-6.73,-1.84l-5.95,0.6l-0.38,-2.3l-5.8,-3.59l-1.99,-0.06l1.24,-5.58l-1.45,-0.06l0.1,-1.83l-1.3,0.65l-0.4,-1.05l-1.82,1.9l-1.9,-1.79l-0.2,1.45l-1.51,0.61l-4.1,-0.65l-0.25,1.13l-4.58,-0.91l-1.53,3.81l-0.78,0.05l-0.03,0.98l-1.61,0.19l1.85,4.57l-0.67,1.27l-3.23,2.65l-0.86,1.59l-2.17,1.07l-0.03,0.73l0,0l-3.42,-0.94l-0.12,-2.4l-4.64,0.09l-0.33,-4.12l-2.03,0.19l-0.75,-4.44l-4.87,-0.21l0.01,-2.9l-0.87,-0.75l0.75,-0.06l-0.07,-4.69l-1.2,-0.11l-0.27,-3.37l-1.34,0.08l-0.87,-1.22l-0.1,-2.44l2.08,-0.02l-0.22,-4.68l-1.03,-0.39l0.46,-1.71l3.04,-0.94l-0.85,-3.6l-1.97,-0.92l0.66,-3.19l-1.68,-4.39l-3.96,5.44l-4.53,-2.8l-0.86,0.12l-1.4,-2.07l-2.35,0.97l-2.7,-0.28l-2.71,-3.53l-0.82,-6.48l-1.06,-0.4l-0.12,0.71l-1.89,-0.07l0.41,1.14l-2.03,-0.54l-1.74,-2.73l-0.52,0.62l-2.33,-0.39l0.38,-0.34l-3.24,-3.14l-2.26,6.13l-2.27,1.2l-0.92,-3.46l-4.83,7.01l-0.11,-1.35l-4.07,-2.34l-0.61,-2.07l0.36,-1.6l5.41,-5.43l-1.21,-0.76l-0.64,-1.94l-1.85,-1.98l-1.64,-4.24l0.38,-1.31l1.46,-0.28l0.7,-1.23l2.86,0.29l-0.39,-3.77l0.63,-0.62l-0.63,-0.42l1.2,-1.75l3.63,1.12l0.5,-0.5l-1.2,-4.3l-2.08,-0.15l-0.87,-3.85l-4.58,0.07l-2.22,-1.51l-0.14,-2.17l-1.31,-1.13l-1.64,0.31l-0.02,-1.6l-0.98,-1.38l-2.84,-1.04l-0.8,-2.78l2.81,-0.74l-0.46,-1.45l0.93,-1.22l1.9,-0.45l0.13,-2.28l3.08,-0.11l1.09,-7.26l-1.41,-0.23l-1.57,-5.34l0,0l0.79,-0.64l1.33,0.38l2.01,-2.4l0.86,0.7l2.5,-1.43l3.97,0.52l0.72,-0.98l4.18,-0.83l-1.76,-4.12l-0.29,-8.48l-1.08,0.33l-0.5,-1.47l-0.77,0.01l-0.63,1.35L245,340.68l3.43,-2.66l0.1,-3.36l-4.44,-2.19l0.5,-0.61l-2.83,-2.57l-0.83,-2.81l-3.03,-2.67l0.13,-1.49l-1.3,-1.16l-1.83,0.01l0.8,-3.44l-4.39,-1.27l-0.25,-1.7l-3.31,-5.63l0.94,-0.93l-1.3,-1.92l1.51,-1.25l-1.22,-1.46l-1.45,0.89l-1.23,-1.22l0.79,-0.27l-0.65,-1.53l2.17,-0.27l-1.92,-4.46l2.77,-0.19l0.96,-1.46l1.03,1.27l2.25,-2.35l4.15,-1.47l-1.96,-3.56l1.74,0.3l2.03,-0.75l2.14,-2.73l-2.79,-6.45l-3.46,2.76l-3.31,0.76l1.59,-4.29l-0.55,-5.88l-3.75,1.08l-1.6,1.57l-0.75,-0.33l-2.64,1.91l-2.5,-0.93l-0.26,-1.97l-1.49,-1.64l0.33,-1.74l-1.15,-2.27l0.58,-0.69l-1.23,-1.24l0.44,-3.34l1.41,-0.68l-0.02,-1.21l-1.48,-0.02l-1.79,1.17l-1.35,-0.54l-1.02,0.97l2.01,1.84l-0.45,1.27l-6.32,-3.51l-0.39,-1.38l2.72,-3.62l0.37,-2.35l0.82,-0.82l0.66,0.34l-0.41,1.27l1.06,1.03l2.24,-0.15l1.18,-1.91l2.68,-1.44l3.44,-3.18l1.29,1l1.3,-1.18l1.51,1.36l0.28,1.36l0.77,-0.62l3.03,1.51l1.26,-0.69l1.5,0.47l1.63,-2.08l-0.39,-0.73l1.41,-0.23l-0.42,-1.16l1.64,-2.67l0.67,0.13l1.36,-3.28l1.09,-0.08l0.38,-0.95l0.89,0.57l0.78,-0.92l1.65,-0.25l-0.28,-2.35l2.7,-6.18l1.17,0.01l-0.49,-2.29l1.17,-0.09l0.96,-2.25l2.6,0.11l3.56,-4.62l-1.92,-1.08l1.27,-0.61l-0.4,-0.67l1.59,-3.54l-0.98,-1.26l0.23,-2.49l-1.31,0.2l0.41,-1.37l-1.2,-0.52l0.09,-1.78l0.79,-0.89l-1.05,-1.18l3.67,1.5l-0.07,-4.14l2.36,0.05l0.31,-1.28l-2.45,-0.94l-0.07,-4.24l1.05,-1.86l-2.74,0.68l-0.36,-0.83l-1.32,-0.29l-1.37,1.27l-0.51,-1.3l-1.31,-0.74l-0.43,-3.12l-2,-3.77l0.9,-3.58l-0.49,-1.99l-3.31,-1.38l-4.28,-7.18l-1.54,-1.35l-2.46,0.29l-1.28,0.99l-1.19,-0.51l-1.42,0.9l0.48,-1.2l-0.97,-3.71l1.08,-0.88l0.05,-2.1l1.28,-0.79l-6.31,-5.81L229.29,160.53zM325.84,284.36l2.46,1.34l1.56,-0.7l-0.35,1.3l1.41,0.88l1.69,-0.32l1.11,-1.16l2.32,0.37l0.53,-0.84l0.95,0.26l-0.76,3.65l-4.13,2.09l1.37,4.66l-1,2.69l3.24,2.37l0.48,-3.37l4.42,0.21l1.47,1.58l-2.21,1.69l-0.1,1.69l-2,0.42l-2.68,-1.9l-1,1.37l0.32,1.53l-2.42,1.16l-0.53,-0.58l0.63,-1.05l-1.21,-0.84l1.21,-0.84l-0.63,-1.32l-1.58,1.16l-2.11,0.26l-10.16,-1l-0.89,0.63l-0.47,-1.05l-2.21,-0.74l-0.84,-2.58l-1.74,0.63l0.05,0.74l-1.95,-1.21l1.9,-1.79h1v-4.95l1.42,-2.9l2.16,-2.16l2.37,-0.84l0,0L325.84,284.36zM359.49,294.13l1.61,2l-1.38,1.04l0,0l-2.42,-3.32L359.49,294.13zM349.2,297.02l-0.72,-0.07l-0.05,-1.75l1.26,0.74L349.2,297.02zM326.03,306.4l-1.42,-2.88l0,0l0.7,-1.02l0.77,0.25l0,0l0.53,2.81L326.03,306.4z"/>
	</g>
</svg>