<?xml version="1.0" encoding="utf-8"?>
<!-- (c) ammap.com | SVG map of Bhutan - Low -->
<svg xmlns="http://www.w3.org/2000/svg" xmlns:amcharts="http://amcharts.com/ammap" xmlns:xlink="http://www.w3.org/1999/xlink" version="1.1">
	<defs>
		<style type="text/css">
			.land
			{
				fill: #CCCCCC;
				fill-opacity: 1;
				stroke:white;
				stroke-opacity: 1;
				stroke-width:0.5;
			}
		</style>

		<amcharts:ammap projection="mercator" leftLongitude="88.750882" topLatitude="28.232795" rightLongitude="92.125782" bottomLatitude="26.697582"></amcharts:ammap>

		<!-- All areas are listed in the line below. You can use this list in your script. -->
		<!--{id:"BT-11"},{id:"BT-12"},{id:"BT-13"},{id:"BT-14"},{id:"BT-15"},{id:"BT-21"},{id:"BT-22"},{id:"BT-23"},{id:"BT-24"},{id:"BT-31"},{id:"BT-32"},{id:"BT-33"},{id:"BT-34"},{id:"BT-41"},{id:"BT-42"},{id:"BT-43"},{id:"BT-44"},{id:"BT-45"},{id:"BT-GA"},{id:"BT-TY"}-->

	</defs>
	<g>
		<path id="BT-11" title="Paro" class="land" d="M113.47,335.86L118.04,343.27L125.13,344.96L123.11,347.94L123.21,350.41L127.99,349.35L129.03,346.87L137.05,349.52L138.93,346.34L142.23,344.65L144.63,344.73L148.25,347.53L151.39,344.62L157.89,342.47L158.58,348.14L156.96,352.2L158.16,354.89L157.17,357.46L161.74,363.46L154.71,369.92L157.11,371.97L161.02,369.8L170.79,380.71L173.63,381.8L172.04,383.7L174.55,389.09L180.34,393.86L177.02,396.6L177.5,405.62L174.41,416.96L175.16,421.38L174.01,427.03L175.57,429.29L178.75,428.94L183.05,431.15L183.91,435.9L181.27,439.7L181.31,442.26L190.02,448.05L189.77,455.31L189.77,455.31L189.77,455.31L189.77,455.31L188.43,462.61L185.6,465.94L182.14,475.48L181.71,478.63L183.2,483.1L181.08,485.71L170.04,484.09L159.86,476.44L154,479.61L141.98,479.78L141.98,479.78L139.69,473.94L139.38,463.09L141.17,460.95L147.15,458.99L152.07,453.2L147.37,448.26L145.93,443.61L139.54,437.1L136.45,428.73L130.64,422.75L130.52,417.5L122.79,413.31L120.58,399.46L118.56,397.18L116.49,388.15L111.46,389.58L106.26,385.32L99.73,385.05L98.49,383.42L94.9,382.57L94.28,379.12L89.26,376.18L89.26,376.18L91.18,374.57L90.79,372.52L93.65,371.07L93.96,366.49L97.28,363.04L100.39,363.59L101.96,357.04L105.48,355.56L106.77,350.58L112.25,348.93L113.58,344.01L112.01,340.28z"/>
		<path id="BT-12" title="Chhukha" class="land" d="M189.77,455.31L192.79,456.23L195.84,460.34L196.5,467.53L199.75,466.75L208.95,469.9L208.5,472.7L201.02,476.02L198.54,479.05L198.06,483.97L195.07,486.52L197.93,487.11L200.03,491.66L204.36,496.15L207.28,497.62L210.61,496.6L210.61,496.6L213.89,501.04L217.44,514.77L222.12,514.36L223.64,515.53L222.24,524.87L224.53,525.56L230.74,523.27L236.63,524.03L241.19,531.96L243.95,548.27L248.65,549.3L249.04,550.61L246.86,553.48L247.92,557.77L252.11,561.51L251.44,564.25L242.98,563.97L243.63,568.76L242.01,570.38L242.48,573.35L241.06,573.78L241.84,577.24L239.43,579.52L239.7,584.13L237.81,582.63L237.03,586.68L234.42,586.17L229.72,594.51L230.04,601.23L233.52,602.88L233.52,602.88L226.68,605.75L221.51,602.36L218.43,603.11L214.42,601.47L210.9,607.21L205.36,605.78L203.29,607.45L201.84,603.94L203.33,601.26L207.93,598.86L210.05,593.5L209.55,591.45L207.34,589.94L203.09,591.35L202.24,589.3L191.41,585.79L189,581.27L185.9,582.65L177.81,582.21L167.54,584.79L164.33,581.51L163.56,576.18L150.19,574.56L149.25,570.07L145.59,569.59L145.59,569.59L146.51,565.2L145.39,563L141.63,563.02L136.22,565.55L135.54,564.17L136.92,561.18L135.09,559.39L135.93,556.63L132.53,554.92L130.38,555.49L126.63,551.84L123.57,553.42L121.4,549.99L122.08,547.36L120.77,543.22L124.84,541.87L132.06,534.88L136.9,524.91L134.43,520.72L135.28,512.11L135.28,512.11L134.02,506.5L141.57,501.77L141.42,496.94L148.1,489.67L143.84,485.43L141.98,479.78L141.98,479.78L154,479.61L159.86,476.44L170.04,484.09L181.08,485.71L183.2,483.1L181.71,478.63L182.14,475.48L185.6,465.94L188.43,462.61z"/>
		<path id="BT-13" title="Ha" class="land" d="M89.26,376.18L94.28,379.12L94.9,382.57L98.49,383.42L99.73,385.05L106.26,385.32L111.46,389.58L116.49,388.15L118.56,397.18L120.58,399.46L122.79,413.31L130.52,417.5L130.64,422.75L136.45,428.73L139.54,437.1L145.93,443.61L147.37,448.26L152.07,453.2L147.15,458.99L141.17,460.95L139.38,463.09L139.69,473.94L141.98,479.78L141.98,479.78L143.84,485.43L148.1,489.67L141.42,496.94L141.57,501.77L134.02,506.5L135.28,512.11L135.28,512.11L128.97,512.75L123.77,511.34L119.37,512.3L116.06,516.02L115.92,518.98L112.17,525.38L109.73,526.09L103.68,519.37L99.37,510.8L94.95,520.64L87.87,524.16L85.29,524.04L83.06,521.39L80.76,521.15L75.84,517.64L75.45,514.55L66.61,508.98L63.81,501.72L55.43,498.36L57.13,488.59L56.63,482.59L50.65,476.37L47.22,469.65L35.19,463.24L35.19,463.24L36.59,459.77L34.87,454.56L38.89,447.8L52.13,460.52L54.17,455.51L56.99,453.71L55.38,447.49L50.6,443.75L51.36,433.52L50.17,429.48L53.15,425.26L52.59,421.81L57.56,416.12L54.66,408.73L58.18,405.85L61.53,405.85L59.23,400.11L67.21,394.35L67.54,390.28L68.83,389.02L68.75,383.63L77.99,378.06L85.19,379.56L86.31,377.49z"/>
		<path id="BT-14" title="Samtse" class="land" d="M35.19,463.24L47.22,469.65L50.65,476.37L56.63,482.59L57.13,488.59L55.43,498.36L63.81,501.72L66.61,508.98L75.45,514.55L75.84,517.64L80.76,521.15L83.06,521.39L85.29,524.04L87.87,524.16L94.95,520.64L99.37,510.8L103.68,519.37L109.73,526.09L112.17,525.38L115.92,518.98L116.06,516.02L119.37,512.3L123.77,511.34L128.97,512.75L135.28,512.11L135.28,512.11L134.43,520.72L136.9,524.91L132.06,534.88L124.84,541.87L120.77,543.22L122.08,547.36L121.4,549.99L123.57,553.42L126.63,551.84L130.38,555.49L132.53,554.92L135.93,556.63L135.09,559.39L136.92,561.18L135.54,564.17L136.22,565.55L141.63,563.02L145.39,563L146.51,565.2L145.59,569.59L145.59,569.59L134.93,574.02L132.62,571.46L130.43,573.65L120.54,578.15L118.41,580.86L113.26,579.91L102.97,583.05L97.97,580.68L89.43,583.23L82.38,575.78L82.87,569.62L78.99,566.43L80.79,563L79.63,560.69L74.31,558.27L69.33,558.16L69.32,553.95L64.28,548.57L54.81,553.68L49.6,552.79L44.32,548.01L47.98,544.92L47.56,541.25L39.42,533.92L33.51,538.91L32.28,543.41L29.09,545.62L28.04,530.09L29.97,522.16L27.9,504.43L24.82,504.86L21.96,502.43L17.63,502.08L11.51,497.06L3.58,496.57L0.02,494.79L2.22,491.73L2.31,486.99L8.73,484.2L9.07,479.98L11.66,475.05L11.75,467.99L18.63,464.05L28.49,465.03z"/>
		<path id="BT-15" title="Thimphu" class="land" d="M189.77,455.31L190.02,448.05L181.31,442.26L181.27,439.7L183.91,435.9L183.05,431.15L178.75,428.94L175.57,429.29L174.01,427.03L175.16,421.38L174.41,416.96L177.5,405.62L177.02,396.6L180.34,393.86L174.55,389.09L172.04,383.7L173.63,381.8L170.79,380.71L161.02,369.8L157.11,371.97L154.71,369.92L161.74,363.46L157.17,357.46L158.16,354.89L156.96,352.2L158.58,348.14L157.89,342.47L151.39,344.62L148.25,347.53L144.63,344.73L142.23,344.65L138.93,346.34L137.05,349.52L129.03,346.87L127.99,349.35L123.21,350.41L123.11,347.94L125.13,344.96L118.04,343.27L113.47,335.86L113.47,335.86L116.47,329.74L123.63,326.13L124.5,322.4L130.89,316.46L134.06,315.56L139.06,316.54L140.67,313.83L152.32,305.41L155.4,298.1L158.6,296.02L158.19,294.37L159.9,292.01L163.56,289.87L167.33,282.92L166.92,276.67L166.92,276.67L173.97,278.55L178.78,283.29L183.94,284.27L186.15,289.26L185.4,295.89L186.33,298.43L192.06,302.5L199.95,304.8L199.33,306.61L193.39,308.52L191.75,312.46L187.96,315.05L182.47,322.09L184.57,327.56L183.17,330.6L183.21,336.01L180.26,337.89L181.54,340.54L186.4,344.15L191.15,336.9L197.4,336.88L200.3,345.1L199.6,347.13L202.6,350.02L210.39,352.52L210.39,352.52L210.93,357.49L214.78,358.64L216.25,361.93L214.24,376.63L216.52,380.66L219.28,382.08L222.18,391.17L225.22,392.22L227.18,394.79L227.94,397.39L226.93,400.16L228.13,403.37L232.6,405.37L233.45,408.68L236.89,411.33L240.06,416.71L240.06,416.71L238.21,426.57L240.72,430.74L227.13,441.53L232.54,445.75L230.92,449.34L232.22,456.72L230.92,466.53L230.92,466.53L228.16,465.94L227.17,470.19L224.55,472.45L224.35,475.35L219.81,476.44L214.04,480.15L212.03,489.02L212.54,492.21L210.61,496.6L210.61,496.6L207.28,497.62L204.36,496.15L200.03,491.66L197.93,487.11L195.07,486.52L198.06,483.97L198.54,479.05L201.02,476.02L208.5,472.7L208.95,469.9L199.75,466.75L196.5,467.53L195.84,460.34L192.79,456.23z"/>
		<path id="BT-21" title="Tsirang" class="land" d="M311.42,505.31L312.2,503.69L310.69,500.67L312.46,495.73L311.66,488.75L315.34,485.83L329.88,492.94L334.59,491.42L340.95,491.77L344.98,489.73L354.89,497.3L357.72,494.03L361.01,494.75L363.07,492.74L368.62,491.46L370.35,488.62L372.14,488.45L372.14,488.45L375.4,490.35L376.44,493.79L374.95,497.3L370.65,496.57L359.63,504.96L358.63,507.68L359.33,511.2L356.22,514.71L355.97,520.38L351.17,523.55L350.91,533.38L340.56,544.23L340.3,549.59L335.03,552.02L332.81,556.26L327.84,559.66L324.99,566.31L325.35,572.47L320.02,574.68L317.27,572.95L314.88,573.91L312.24,575.6L311.64,579.73L308.17,580.9L301.62,578.87L301.62,578.87L299.16,580L296,574.45L294.48,571.39L297.07,568.86L293.74,568.44L294.87,567.23L294.03,565.11L295.99,563.21L295.33,559.16L298.64,556.4L301.53,556.57L303.15,551.76L308.4,546.15L310.14,540.72L309.83,534L312.06,524.3L312.07,520.27L310.23,518.77L312.59,514.42L311.07,511.14z"/>
		<path id="BT-22" title="Dagana" class="land" d="M230.92,466.53L232.79,466.91L240.48,463.29L244.79,463.48L249.43,466.96L257.61,464.9L259.37,467.65L262.04,468.36L264.02,472.28L272.16,476.2L279.02,492.35L282.48,493.99L283.55,496.37L294.15,496.65L300.02,501.08L306.51,500.82L311.42,505.31L311.42,505.31L311.42,505.31L311.42,505.31L311.07,511.14L312.59,514.42L310.23,518.77L312.07,520.27L312.06,524.3L309.83,534L310.14,540.72L308.4,546.15L303.15,551.76L301.53,556.57L298.64,556.4L295.33,559.16L295.99,563.21L294.03,565.11L294.87,567.23L293.74,568.44L297.07,568.86L294.48,571.39L296,574.45L299.16,580L301.62,578.87L301.62,578.87L304.38,585.4L302.93,592.11L303.93,597.28L299.57,595.85L296.62,592.99L296.45,598.58L293.6,602.44L293.6,602.44L289.51,604.42L274.53,605.51L267.15,605.04L260.33,602.53L258.95,612L247.14,609.02L236.33,611.44L235.25,607.62L233.4,606.59L234.58,604.26L233.52,602.88L233.52,602.88L230.04,601.23L229.72,594.51L234.42,586.17L237.03,586.68L237.81,582.63L239.7,584.13L239.43,579.52L241.84,577.24L241.06,573.78L242.48,573.35L242.01,570.38L243.63,568.76L242.98,563.97L251.44,564.25L252.11,561.51L247.92,557.77L246.86,553.48L249.04,550.61L248.65,549.3L243.95,548.27L241.19,531.96L236.63,524.03L230.74,523.27L224.53,525.56L222.24,524.87L223.64,515.53L222.12,514.36L217.44,514.77L213.89,501.04L210.61,496.6L210.61,496.6L212.54,492.21L212.03,489.02L214.04,480.15L219.81,476.44L224.35,475.35L224.55,472.45L227.17,470.19L228.16,465.94z"/>
		<path id="BT-23" title="Punakha" class="land" d="M210.39,352.52L212.3,349.35L216.01,349.85L218.47,348.76L224.74,351.13L230.52,350.43L234.23,348.13L233.17,345.67L235.24,344.94L239.35,339.1L242.84,340.39L244.74,344.24L247.98,342.38L249.56,338.15L257.4,331.48L261.9,322.68L265.78,320.67L271.67,320.34L276.41,317.43L278.99,317.98L285.78,324.08L289.02,324.27L297.35,327.85L298.83,330.05L303.6,330.91L303.6,330.91L304.23,340.06L293.82,349.84L291.79,358.62L297.02,361.48L301.24,360.18L304.41,360.88L310.64,367.61L310.78,370.62L305.57,376.08L300.6,376.54L295.5,383.94L290.2,386.59L289.15,389.12L284.88,391.61L285.03,394.43L279.61,398.88L279.66,404.4L277.4,405.3L274.04,403.7L270.34,404.01L268.95,405.75L269.93,409.64L258.1,414.4L252.85,413.34L251.06,415.26L240.06,416.71L240.06,416.71L236.89,411.33L233.45,408.68L232.6,405.37L228.13,403.37L226.93,400.16L227.94,397.39L227.18,394.79L225.22,392.22L222.18,391.17L219.28,382.08L216.52,380.66L214.24,376.63L216.25,361.93L214.78,358.64L210.93,357.49z"/>
		<path id="BT-24" title="Wangdue Phodrang" class="land" d="M311.42,505.31L306.51,500.82L300.02,501.08L294.15,496.65L283.55,496.37L282.48,493.99L279.02,492.35L272.16,476.2L264.02,472.28L262.04,468.36L259.37,467.65L257.61,464.9L249.43,466.96L244.79,463.48L240.48,463.29L232.79,466.91L230.92,466.53L230.92,466.53L232.22,456.72L230.92,449.34L232.54,445.75L227.13,441.53L240.72,430.74L238.21,426.57L240.06,416.71L240.06,416.71L251.06,415.26L252.85,413.34L258.1,414.4L269.93,409.64L268.95,405.75L270.34,404.01L274.04,403.7L277.4,405.3L279.66,404.4L279.61,398.88L285.03,394.43L284.88,391.61L289.15,389.12L290.2,386.59L295.5,383.94L300.6,376.54L305.57,376.08L310.78,370.62L310.64,367.61L304.41,360.88L301.24,360.18L297.02,361.48L291.79,358.62L293.82,349.84L304.23,340.06L303.6,330.91L303.6,330.91L304.7,321.43L313.01,319.49L319.08,321.07L324.57,315.96L326.89,309.31L337.73,292.69L338.65,287.15L341.31,285.19L354.4,283.67L359.28,288.88L358.13,293.43L363.22,304.19L368.08,307.15L370.31,306.85L373.69,303.16L378.95,305.33L381.39,303.38L384.82,304.77L386.53,301.4L385.99,294.4L384.2,290.55L385.54,288.29L384,284.91L384.01,279.84L386.74,277.42L394.79,277.14L401.99,265.74L401.99,265.74L406.9,265.76L406.9,265.76L410.57,272.55L411.44,277.07L411.44,280.3L408.69,286.94L410.47,288.35L410.07,290.75L411.73,294.84L417.22,296.64L417.34,301.7L419.35,305.56L419.52,315.05L417.31,321.55L415.74,323.56L411.16,323.8L409.95,325.2L410.23,329.42L412.41,331.86L412.34,336.29L412.34,336.29L408.15,356.56L393.63,362.91L391.2,362.36L389.4,359.99L382.17,362.18L377.69,360.97L375.33,363.13L374.2,371.42L369.35,375.74L369.33,378.35L371.1,379.54L378.28,398.31L384.55,399.27L386.48,402.1L381.43,407.03L378.03,404.78L376.9,405.96L371.8,406.27L369.42,407.57L366.74,412.01L359.41,412.49L356.44,414.25L357.85,415.48L358.27,419.23L362.42,421.82L362.15,430.6L369.84,440.43L368.48,444.49L379.42,454.31L378.56,456.24L380.49,460.4L379.71,462.53L383.92,464.99L383.36,472.19L378.57,475.95L378.07,478.19L378.07,478.19L371.68,483.98L372.14,488.45L372.14,488.45L370.35,488.62L368.62,491.46L363.07,492.74L361.01,494.75L357.72,494.03L354.89,497.3L344.98,489.73L340.95,491.77L334.59,491.42L329.88,492.94L315.34,485.83L311.66,488.75L312.46,495.73L310.69,500.67L312.2,503.69z"/>
		<path id="BT-31" title="Sarpang" class="land" d="M419.49,499.04L420.1,503.2L423.27,505.04L423.73,506.83L426.09,506.8L428.9,509.03L429.36,511.7L432.68,510.43L434.75,513.75L439.28,515.58L446.06,512.23L453.97,518.44L452.71,523.67L453.85,525.96L455.95,526.79L455.19,531.03L456.54,535.26L453.96,538.96L455.02,543.48L457.5,544.69L452.48,550.72L449.21,552.69L447.2,558.76L440.84,565.02L439.83,566.79L440.25,573.14L446.87,575.48L453.65,575.76L458.85,579.49L459.69,583.04L465.13,582.67L468.98,580.24L470.07,581.45L472.75,579.77L473.92,587.24L472.86,592.16L472.86,592.16L467.01,591.8L464.18,593.55L457.35,593.64L450.3,590.31L445.44,592L441.03,587.45L424.52,585.01L392.17,559.6L389.26,558.61L376.44,560.14L374.26,565.28L363.87,572.66L350.45,570.12L343.52,571.23L338.79,576.64L336.3,582.73L337.4,592.97L306.07,603.75L293.6,602.44L293.6,602.44L296.45,598.58L296.62,592.99L299.57,595.85L303.93,597.28L302.93,592.11L304.38,585.4L301.62,578.87L301.62,578.87L308.17,580.9L311.64,579.73L312.24,575.6L314.88,573.91L317.27,572.95L320.02,574.68L325.35,572.47L324.99,566.31L327.84,559.66L332.81,556.26L335.03,552.02L340.3,549.59L340.56,544.23L350.91,533.38L351.17,523.55L355.97,520.38L356.22,514.71L359.33,511.2L358.63,507.68L359.63,504.96L370.65,496.57L374.95,497.3L376.44,493.79L375.4,490.35L372.14,488.45L372.14,488.45L371.68,483.98L378.07,478.19L378.07,478.19L386.53,481.8L390.7,485.78L394.3,486.72L399.85,492.96L403.44,493.37L405.15,496.87L408.43,498.1L411.64,496.46L415.21,497.14L416.11,499.02z"/>
		<path id="BT-32" title="Trongsa" class="land" d="M412.34,336.29L415.27,339.54L418.1,338.44L421.98,340.02L426.73,348.56L425.44,350.33L427.62,353.39L425.67,358.43L426.61,360.57L423.23,363L422.82,371.5L421.71,373.18L425.24,374.19L424.1,377.59L425.55,385.53L427.92,386.33L428.67,393.19L432.46,401.5L432.06,404.46L434.25,411.44L432.15,413.45L433.79,418.18L436.55,420.4L442.94,420.69L444.44,423.91L455.82,427.44L461.67,435.1L466.08,437.03L467.6,439.45L467.6,439.45L467.95,439.78L467.95,439.78L470.21,445.89L464.89,457.8L465.59,466.84L459.3,471.59L447.03,475.04L440.49,478.96L450.33,492.68L445.76,491.46L440.33,493.25L431.67,489.4L430.07,491.23L426.98,491.82L426.77,495.47L422.8,495.36L419.49,499.04L419.49,499.04L416.11,499.02L415.21,497.14L411.64,496.46L408.43,498.1L405.15,496.87L403.44,493.37L399.85,492.96L394.3,486.72L390.7,485.78L386.53,481.8L378.07,478.19L378.07,478.19L378.57,475.95L383.36,472.19L383.92,464.99L379.71,462.53L380.49,460.4L378.56,456.24L379.42,454.31L368.48,444.49L369.84,440.43L362.15,430.6L362.42,421.82L358.27,419.23L357.85,415.48L356.44,414.25L359.41,412.49L366.74,412.01L369.42,407.57L371.8,406.27L376.9,405.96L378.03,404.78L381.43,407.03L386.48,402.1L384.55,399.27L378.28,398.31L371.1,379.54L369.33,378.35L369.35,375.74L374.2,371.42L375.33,363.13L377.69,360.97L382.17,362.18L389.4,359.99L391.2,362.36L393.63,362.91L408.15,356.56z"/>
		<path id="BT-33" title="Bumthang" class="land" d="M519.04,438L517.63,441.22L513.68,443.5L508.56,442.8L507.32,445.07L502.1,445.11L496.07,449.21L494.08,447.23L489.49,447.81L485.92,444.07L484.98,441.09L479.57,436.15L471.5,436.33L467.77,439.61L467.77,439.61L467.6,439.45L467.6,439.45L466.08,437.03L461.67,435.1L455.82,427.44L444.44,423.91L442.94,420.69L436.55,420.4L433.79,418.18L432.15,413.45L434.25,411.44L432.06,404.46L432.46,401.5L428.67,393.19L427.92,386.33L425.55,385.53L424.1,377.59L425.24,374.19L421.71,373.18L422.82,371.5L423.23,363L426.61,360.57L425.67,358.43L427.62,353.39L425.44,350.33L426.73,348.56L421.98,340.02L418.1,338.44L415.27,339.54L412.34,336.29L412.34,336.29L412.41,331.86L410.23,329.42L409.95,325.2L411.16,323.8L415.74,323.56L417.31,321.55L419.52,315.05L419.35,305.56L417.34,301.7L417.22,296.64L411.73,294.84L410.07,290.75L410.47,288.35L408.69,286.94L411.44,280.3L411.44,277.07L410.57,272.55L406.9,265.76L406.9,265.76L409.54,262.52L413.1,260.91L425.54,266.1L428.99,270.35L433.14,272.16L438.24,266.22L443.51,265.87L456.58,256.72L460.03,259.48L463.24,259.51L467.29,263.49L473.05,265.22L474.69,264.23L475.98,266.32L478.77,264.85L478.77,264.85L481.32,265.71L480.78,272.81L482.53,273.86L481.81,278.09L483.02,281.16L482.21,285.24L477.37,287.88L477.72,290.8L475.1,294.99L479.44,300.22L485.89,300.66L487.99,302.18L488.48,307.83L491.77,315.02L490.57,320.23L496.86,323.87L499.39,328.91L508.5,332.7L512.77,345.58L510.33,348.08L509.85,350.72L516.69,351.24L522.19,355.89L526.03,360.05L525.52,368.2L530.84,370.47L525.53,377.04L523.67,381.6L524.51,383.46L521.54,388.41L525.22,394.21L524.94,400.65L523.17,402.87L523.76,405.51L528.74,408.03L531.47,412.34L527.21,420.7L523.72,424.46L524.02,426.31L527.28,429.11L528.17,432.44L528.17,432.44L527.39,434.16L522.65,434.04L518.4,437.19z"/>
		<path id="BT-34" title="Zhemgang" class="land" d="M467.77,439.61L471.5,436.33L479.57,436.15L484.98,441.09L485.92,444.07L489.49,447.81L494.08,447.23L496.07,449.21L502.1,445.11L507.32,445.07L508.56,442.8L513.68,443.5L517.63,441.22L519.04,438L519.04,438L520.58,445.25L523.2,446.67L523.07,453.12L526.17,459.68L525.89,463.03L531.39,466.25L531.9,473.28L535.19,477.44L534.17,486.48L529.95,494.53L530.53,503.8L535.5,506.89L537,518.19L547.04,520.41L549.54,523.95L548.44,532.17L550.07,534.45L549.87,537.92L556.68,538.85L559.71,540.9L561.05,545.51L569.08,550.54L569.08,550.54L568.88,552.19L565.63,553.74L564.18,559.74L565,562.13L555.94,567.8L550.73,564.48L547.23,566.52L547.04,564.52L538.02,569.23L530.8,569.34L527.64,573.45L528.39,575.99L526.42,577.65L530.62,589.03L530.62,589.03L526.85,588.34L503.6,590.86L472.86,592.16L472.86,592.16L473.92,587.24L472.75,579.77L470.07,581.45L468.98,580.24L465.13,582.67L459.69,583.04L458.85,579.49L453.65,575.76L446.87,575.48L440.25,573.14L439.83,566.79L440.84,565.02L447.2,558.76L449.21,552.69L452.48,550.72L457.5,544.69L455.02,543.48L453.96,538.96L456.54,535.26L455.19,531.03L455.95,526.79L453.85,525.96L452.71,523.67L453.97,518.44L446.06,512.23L439.28,515.58L434.75,513.75L432.68,510.43L429.36,511.7L428.9,509.03L426.09,506.8L423.73,506.83L423.27,505.04L420.1,503.2L419.49,499.04L419.49,499.04L422.8,495.36L426.77,495.47L426.98,491.82L430.07,491.23L431.67,489.4L440.33,493.25L445.76,491.46L450.33,492.68L440.49,478.96L447.03,475.04L459.3,471.59L465.59,466.84L464.89,457.8L470.21,445.89L467.95,439.78L467.95,439.78z"/>
		<path id="BT-41" title="Trashigang" class="land" d="M748.24,412L750.51,412.81L758.32,411.52L760.44,406.55L766.55,405.86L766.97,415.42L771.56,418.34L772.34,424.57L775.25,427.91L773.35,436.26L776.6,442.33L776.26,447.08L780.77,451.52L786.55,453.84L790.77,457.49L790.4,460.56L786.31,462.34L778.9,460.17L771.76,462.98L771.84,464.26L777.9,468.68L778.81,474.28L775.9,479.67L775.66,483.21L772.79,485.15L772.79,485.15L761.26,484.37L756,481.89L751.7,469.69L747.96,468.11L745.63,471.57L745.53,491.35L741.33,489.91L739.02,491.36L736.31,490.52L729.32,492.04L723.45,494.3L719.41,497.96L711.22,509.8L704.39,510.36L700.99,512.61L698.69,511.86L695,513.98L692.6,513.71L679.7,519.86L669.8,516.57L668.86,519L666.48,520.43L661,521.9L657.36,525.03L651.14,527.28L651.14,527.28L650.74,524.71L653.51,522.93L656.77,515.45L651.5,512.08L647.06,512.46L647.06,508.34L645.47,507.59L644.38,503.38L638.35,499.73L640.98,498.83L640.84,493.77L637.94,488.29L634.23,486.87L632.49,487.58L632.92,489.8L624.88,489.19L620.99,490.68L616.95,489.51L616.95,489.51L618.1,484.18L621.12,483.04L620.13,479.17L621.01,472.68L625.32,468.65L627.01,465.11L632.09,463.68L633.08,461.82L635.54,461.28L637.02,458.9L640.04,458.1L645.3,453.79L645.24,449.92L642.51,446.81L642.98,444.43L639.59,442.22L635.62,442.03L631.45,436.37L626.55,434.61L629.01,431.9L627.88,428.38L627.88,428.38L636.15,429.22L642.32,432.79L651.94,435.07L656.48,437.68L658.85,437.42L659.76,435.7L665.25,434.55L671.97,426.35L679.56,426.47L684.58,422.82L688.23,422.65L698.54,418.35L704.7,418.85L708.76,410.85L708.76,410.85L717.74,408.85L722.21,409.8L727.06,406.23L730.32,406.36L732.48,408.79L736.88,408.68L738.65,409.99L744.33,409.18z"/>
		<path id="BT-42" title="Monggar" class="land" d="M606.89,380.14L611.44,385.27L612.28,389.96L616.32,392.23L616.2,394.86L622.02,400.91L625.14,406.34L628.33,408L629.4,412.13L631.21,413.83L633.33,420.84L627.88,428.38L627.88,428.38L629.01,431.9L626.55,434.61L631.45,436.37L635.62,442.03L639.59,442.22L642.98,444.43L642.51,446.81L645.24,449.92L645.3,453.79L640.04,458.1L637.02,458.9L635.54,461.28L633.08,461.82L632.09,463.68L627.01,465.11L625.32,468.65L621.01,472.68L620.13,479.17L621.12,483.04L618.1,484.18L616.95,489.51L616.95,489.51L612.95,494.48L613.02,497.71L615.04,501.2L610.81,503.85L611.54,506.01L609.58,506.32L608.81,512.03L605.98,513.65L601.35,513.29L599.9,515.74L598.52,515.06L594.12,518.31L583.29,520.38L582.99,523.02L580.1,525.05L577.56,532.55L572.89,537L572.19,542.1L568.14,544.38L569.08,550.54L569.08,550.54L561.05,545.51L559.71,540.9L556.68,538.85L549.87,537.92L550.07,534.45L548.44,532.17L549.54,523.95L547.04,520.41L537,518.19L535.5,506.89L530.53,503.8L529.95,494.53L534.17,486.48L535.19,477.44L531.9,473.28L531.39,466.25L525.89,463.03L526.17,459.68L523.07,453.12L523.2,446.67L520.58,445.25L519.04,438L519.04,438L518.4,437.19L522.65,434.04L527.39,434.16L528.17,432.44L528.17,432.44L540.1,434.98L541.3,432.36L543.6,431.77L555.17,421.34L568.74,423.71L570.21,428.51L573.7,432.83L590.07,422.98L593.24,422.53L597.07,415.05L597.38,410.2L594.22,406.65L593.33,403.5L594.81,399.98L599.04,396.34L605.54,393.26L603.18,388z"/>
		<path id="BT-43" title="Pemagatshel" class="land" d="M616.95,489.51L620.99,490.68L624.88,489.19L632.92,489.8L632.49,487.58L634.23,486.87L637.94,488.29L640.84,493.77L640.98,498.83L638.35,499.73L644.38,503.38L645.47,507.59L647.06,508.34L647.06,512.46L651.5,512.08L656.77,515.45L653.51,522.93L650.74,524.71L651.14,527.28L651.14,527.28L648.08,528.05L644.68,525.09L640.5,528.8L637.16,528.57L636.43,532.7L630.69,539.63L631.76,548.12L627.18,555.89L624.3,556.54L620.59,561.26L620.74,570.13L618.14,571.52L619.1,573.65L623.62,575.97L623.62,575.97L622.15,576.08L616.88,584.88L606.72,590.6L597.03,589.16L589.35,583.97L570.11,582.28L558.23,583.06L550.46,580.1L548.7,580.45L540.46,590.64L530.62,589.03L530.62,589.03L526.42,577.65L528.39,575.99L527.64,573.45L530.8,569.34L538.02,569.23L547.04,564.52L547.23,566.52L550.73,564.48L555.94,567.8L565,562.13L564.18,559.74L565.63,553.74L568.88,552.19L569.08,550.54L569.08,550.54L568.14,544.38L572.19,542.1L572.89,537L577.56,532.55L580.1,525.05L582.99,523.02L583.29,520.38L594.12,518.31L598.52,515.06L599.9,515.74L601.35,513.29L605.98,513.65L608.81,512.03L609.58,506.32L611.54,506.01L610.81,503.85L615.04,501.2L613.02,497.71L612.95,494.48z"/>
		<path id="BT-44" title="Lhuentse" class="land" d="M605.26,254.63L605.89,258.56L610.42,258.72L615.45,263.44L618.66,263.52L620.82,266.03L624.8,266.35L628.78,268.55L633.6,268.79L636.88,276.33L636.88,276.33L633.39,279.79L628.64,278.38L626.13,279.64L622.29,286.71L618.45,290.8L614.75,291.19L612.83,295.38L613.97,298.35L613.73,305.99L612.13,313.65L613.86,323.56L610.89,330.21L612.17,333.26L611.81,337.31L607.88,344.28L610.8,352.9L608.06,357.27L609.68,363.6L608.83,369.19L610.5,372.46L606.89,380.14L606.89,380.14L603.18,388L605.54,393.26L599.04,396.34L594.81,399.98L593.33,403.5L594.22,406.65L597.38,410.2L597.07,415.05L593.24,422.53L590.07,422.98L573.7,432.83L570.21,428.51L568.74,423.71L555.17,421.34L543.6,431.77L541.3,432.36L540.1,434.98L528.17,432.44L528.17,432.44L527.28,429.11L524.02,426.31L523.72,424.46L527.21,420.7L531.47,412.34L528.74,408.03L523.76,405.51L523.17,402.87L524.94,400.65L525.22,394.21L521.54,388.41L524.51,383.46L523.67,381.6L525.53,377.04L530.84,370.47L525.52,368.2L526.03,360.05L522.19,355.89L516.69,351.24L509.85,350.72L510.33,348.08L512.77,345.58L508.5,332.7L499.39,328.91L496.86,323.87L490.57,320.23L491.77,315.02L488.48,307.83L487.99,302.18L485.89,300.66L479.44,300.22L475.1,294.99L477.72,290.8L477.37,287.88L482.21,285.24L483.02,281.16L481.81,278.09L482.53,273.86L480.78,272.81L481.32,265.71L478.77,264.85L478.77,264.85L481.45,258.76L483.48,257.89L487.67,259.86L487.32,262.77L489.14,263.63L494.79,263.32L503.45,266.54L503.38,269.69L504.35,270.08L507.98,269.38L508.89,265.6L511.61,265.29L516.08,268.67L517.62,272.92L521.31,276.06L523.76,275.59L526.13,270.32L531.98,269.51L534.95,273.21L538.44,274.11L540.36,277.5L543.21,277.91L544.08,274.86L550.56,275.31L553.01,277.32L560.85,277.04L564.41,279.17L568.88,276.73L574.46,278.22L583.48,270.75L591.93,266.74L598.49,254.31L603.93,253.68z"/>
		<path id="BT-45" title="Samdrup Jongkha" class="land" d="M651.14,527.28L657.36,525.03L661,521.9L666.48,520.43L668.86,519L669.8,516.57L679.7,519.86L692.6,513.71L695,513.98L698.69,511.86L700.99,512.61L704.39,510.36L711.22,509.8L719.41,497.96L723.45,494.3L729.32,492.04L736.31,490.52L739.02,491.36L741.33,489.91L745.53,491.35L745.63,471.57L747.96,468.11L751.7,469.69L756,481.89L761.26,484.37L772.79,485.15L772.79,485.15L769.77,487.69L771.38,497.21L768.66,504.06L771.83,516.27L774.17,518.55L782.48,521.75L781.81,527.4L787.5,530.48L788.2,537.86L791.72,540.36L791.93,544.02L790.12,546.43L791.58,556.87L790.4,560.76L787.32,564.11L787.32,568L786.07,569.09L776.57,573.53L761.1,570.82L756.08,567.77L748.86,560.45L736.4,554.79L728.08,555.9L723.01,565.29L715.99,571.66L698.38,581.99L691.42,582.17L689.07,583.94L674.18,579.7L666.43,584.03L643.43,587.95L640.02,587.42L623.62,575.97L623.62,575.97L619.1,573.65L618.14,571.52L620.74,570.13L620.59,561.26L624.3,556.54L627.18,555.89L631.76,548.12L630.69,539.63L636.43,532.7L637.16,528.57L640.5,528.8L644.68,525.09L648.08,528.05z"/>
		<path id="BT-GA" title="Gasa" class="land" d="M303.6,330.91L298.83,330.05L297.35,327.85L289.02,324.27L285.78,324.08L278.99,317.98L276.41,317.43L271.67,320.34L265.78,320.67L261.9,322.68L257.4,331.48L249.56,338.15L247.98,342.38L244.74,344.24L242.84,340.39L239.35,339.1L235.24,344.94L233.17,345.67L234.23,348.13L230.52,350.43L224.74,351.13L218.47,348.76L216.01,349.85L212.3,349.35L210.39,352.52L210.39,352.52L202.6,350.02L199.6,347.13L200.3,345.1L197.4,336.88L191.15,336.9L186.4,344.15L181.54,340.54L180.26,337.89L183.21,336.01L183.17,330.6L184.57,327.56L182.47,322.09L187.96,315.05L191.75,312.46L193.39,308.52L199.33,306.61L199.95,304.8L192.06,302.5L186.33,298.43L185.4,295.89L186.15,289.26L183.94,284.27L178.78,283.29L173.97,278.55L166.92,276.67L166.92,276.67L171.48,273.66L169.16,267.68L172.41,265.6L174.46,260.62L179.58,255.68L180.42,251.45L185.82,253.23L187.36,252.59L190.41,249.15L190.48,245.71L195.27,243.33L200.36,236.09L200.93,232.04L204.79,230.42L207.84,231.74L211.16,229.11L215.46,230.86L221.39,226.35L231.9,229.65L233.72,224.32L235.19,223.98L238.24,226.07L241.96,223.26L242.9,219.67L241.56,215.47L245.85,212.82L248.17,208.19L250.04,211.11L254.73,210.86L257.59,215L263.26,213.94L271.35,227.33L274.3,227.94L276.71,226.28L281.55,225.97L281.15,229.85L282.45,231.42L286.11,226.33L290.71,225.72L295,230.61L300.58,233.43L301.88,238.32L304.69,240.89L309.38,235.45L315.28,235.75L319.99,241.29L323.47,241.29L324.41,237.56L322.67,233.84L324.5,229.3L322.58,225.37L324.86,224.56L333.88,226.48L338.62,230.21L338.93,234.34L350.5,239.88L354.92,239.83L357.92,235.75L363.3,235.4L366.25,243.66L372.42,245.02L379.65,252.77L382.38,262.28L385.82,262.79L389.17,260.27L394.39,260.98L400.52,263.59L401.99,265.74L401.99,265.74L394.79,277.14L386.74,277.42L384.01,279.84L384,284.91L385.54,288.29L384.2,290.55L385.99,294.4L386.53,301.4L384.82,304.77L381.39,303.38L378.95,305.33L373.69,303.16L370.31,306.85L368.08,307.15L363.22,304.19L358.13,293.43L359.28,288.88L354.4,283.67L341.31,285.19L338.65,287.15L337.73,292.69L326.89,309.31L324.57,315.96L319.08,321.07L313.01,319.49L304.7,321.43z"/>
		<path id="BT-TY" title="Trashi Yangtse" class="land" d="M684.43,404.05L687.64,403.76L688.35,401.85L690.2,401.3L694.56,403.94L695.31,408.58L697.19,410.23L700.09,410.94L708.1,408.41L708.76,410.85L708.76,410.85L704.7,418.85L698.54,418.35L688.23,422.65L684.58,422.82L679.56,426.47L671.97,426.35L665.25,434.55L659.76,435.7L658.85,437.42L656.48,437.68L651.94,435.07L642.32,432.79L636.15,429.22L627.88,428.38L627.88,428.38L633.33,420.84L631.21,413.83L629.4,412.13L628.33,408L625.14,406.34L622.02,400.91L616.2,394.86L616.32,392.23L612.28,389.96L611.44,385.27L606.89,380.14L606.89,380.14L610.5,372.46L608.83,369.19L609.68,363.6L608.06,357.27L610.8,352.9L607.88,344.28L611.81,337.31L612.17,333.26L610.89,330.21L613.86,323.56L612.13,313.65L613.73,305.99L613.97,298.35L612.83,295.38L614.75,291.19L618.45,290.8L622.29,286.71L626.13,279.64L628.64,278.38L633.39,279.79L636.88,276.33L636.88,276.33L638.34,276.73L640.33,280.52L638.99,285.61L640.24,287.31L653.23,292.69L655.41,298.53L658.59,298.44L664.28,294.67L665.96,297.59L671.24,298.91L671.4,303.34L668.87,308.26L661.49,306.55L658.8,309.35L656.66,308.22L655.7,309.3L660.49,318.53L662.25,319.22L668.32,317.07L675.2,322.36L675.9,330.08L677.89,331.76L677.99,333.66L675.55,336.56L676.04,341.75L673.56,351.12L668.22,354.02L665.18,359.27L660.81,361.48L658.68,366.49L658,369.84L662.6,375.32L659.07,380.41L663.16,385.67L663.06,388.53L666.65,391.76L670.3,391.31L672.05,396.77L678.94,401.9L679.72,405.66L681.09,406.12z"/>
	</g>
</svg>