<?xml version="1.0" encoding="utf-8"?>
<!-- (c) ammap.com | SVG map of Bosnia-Herzegovina Cantons High -->
<svg xmlns="http://www.w3.org/2000/svg" xmlns:amcharts="http://amcharts.com/ammap" xmlns:xlink="http://www.w3.org/1999/xlink" version="1.1">
	<defs>
		<style type="text/css">
			.land
			{
				fill: #CCCCCC;
				fill-opacity: 1;
				stroke:white;
				stroke-opacity: 1;
				stroke-width:0.5;
			}
		</style>

		<amcharts:ammap projection="mercator" leftLongitude="15.714400" topLatitude="45.275910" rightLongitude="19.625600" bottomLatitude="42.560878"></amcharts:ammap>

		<!-- All areas are listed in the line below. You can use this list in your script. -->
		<!--{id:"BA-01"},{id:"BA-02"},{id:"BA-03"},{id:"BA-04"},{id:"BA-05"},{id:"BA-06"},{id:"BA-07"},{id:"BA-08"},{id:"BA-09"},{id:"BA-10"},{id:"BA-BR-BR"},{id:"BA-SR-BI"},{id:"BA-SR-BJ"},{id:"BA-SR-DO"},{id:"BA-SR-FO"},{id:"BA-SR-SR"},{id:"BA-SR-TR"},{id:"BA-SR-VL"}-->

	</defs>
	<g>
		<path id="BA-01" title="Unsko-sanski kanton" class="land" d="M86.11,58.63L87.16,62.12L71.08,65.73L81.91,91.33L87.49,90.02L93.4,99.53L97.66,100.52L105.54,89.03L118.99,94.28L128.18,92.31L132.12,94.61L136.06,92.64L140.65,100.85L152.8,99.86L158.38,103.14L161.66,107.08L165.92,120.87L163.96,129.07L172.49,133.01L172.49,142.2L174.46,146.46L177.74,148.76L175.44,155.65L178.72,159.26L177.41,163.2L175.11,165.83L170.19,167.47L163.3,168.13L121.62,163.53L109.48,166.81L109.15,173.05L112.6,181.11L112.6,181.11L109.41,178.79L109.41,178.79L104.82,177.15L93.66,176.82L88.74,171.9L84.8,178.46L88.41,188.96L88.08,191.92L86.11,192.25L89.39,200.45L89.06,210.95L82.17,215.22L82.83,223.42L79.1,225.18L79.1,225.18L76.91,207L78.12,203.77L76.79,201.03L69.43,197.47L63.96,196.84L62.7,193.02L66.52,193.41L70.32,191.47L67.1,187.41L66.99,181.64L65.41,180.55L67.35,174.43L64.74,167.13L49.53,158.92L46.15,152L46.93,150.71L50.97,150.82L50.56,146.79L53.5,146.44L49.78,137.3L40.95,132.9L37.93,124.34L32.53,122.06L28.67,116.64L22.69,118.94L21.39,121.36L16.04,122.17L14.4,118.79L9.76,116.42L0.08,101.25L1.1,98.75L6.48,98.59L10.95,94.61L5.68,89.57L3.8,76.69L6.01,67.99L11.27,67.02L10.99,59.96L4.93,47.01L10.63,35.92L7.46,23.89L14.79,14.58L17.6,15.08L19.98,11.01L28,12.67L27.78,10.32L32.46,9.77L32.67,13.62L34.66,15.81L40.97,11.63L47.71,15.37L48.42,18.74L46.32,22.23L51.17,22.61L52.17,27.14L54.32,27.39L56.8,33.07L57.65,38.97L67.96,43.85L79.2,54.67L80.46,58.91z"/>
		<path id="BA-02" title="Posavski kanton" class="land" d="M456.33,42.79l-3.6,2.45l0.05,1.57l7.86,1.52l-0.25,-5.85l3.19,-2.19l1.8,3.47l-2.91,3.2l10.58,9.95l-1.27,4.85l4.58,-1.04l5.71,1.26l-1.31,6.12l-3.25,0.41l0,0l-0.33,1.31l0,0l-6.56,2.3l0,0l-1.97,-0.33l0,0l-4.27,-1.64l0,0l-21.66,-12.8l0,0l-8.69,-10.31l5.59,0.46l1.38,3.55l0.55,-4.02l2.14,-2.36l-3.11,-2.74l0.61,-1.48l4.77,2.39l1.41,3.4l1.33,-2.41l-1.64,-3.73l5.93,2.92l3.16,-3.18L456.33,42.79zM402.09,35.61l3.44,-0.38l2.85,3.12l14.8,-1.77l7.79,9.64l0,0l-4.67,0.97l-1.97,3.28h-1.64l0.33,4.27l-5.25,-2.3l-1.31,3.28l-4.92,-1.31l0,0l-2.95,5.25l-4.59,0.98l1.31,-5.58l-12.14,-7.22l0,0l-4.3,-4.48l0,0l3.45,-3.98l-1.88,-3.93l2.41,-3.6l6.2,-1.66L402.09,35.61z"/>
		<path id="BA-03" title="Tuzlanski kanton" class="land" d="M408.58,153.19L419.41,151.88L424.01,146.63L418.43,141.71L413.18,142.03L408.25,137.44L409.24,135.8L406.94,132.52L402.02,131.53L395.13,127.27L389.55,127.59L384.63,123.33L382,124.97L380.03,122.34L381.67,119.06L380.36,115.12L382.99,112.83L395.13,109.54L398.41,110.86L405.63,110.2L412.85,101.34L411.21,98.39L412.85,91.82L421.05,80.99L419.74,78.37L426.63,79.02L427.62,77.71L431.56,79.68L432.54,83.95L438.78,90.84L440.09,97.73L447.41,98.23L447.41,98.23L446.98,98.39L446.98,98.39L442.39,101.67L437.46,101.34L437.14,104.62L441.4,106.92L442.06,108.23L439.43,109.54L443.04,111.84L444.03,113.48L442.71,115.12L447.64,121.03L456.83,120.05L459.45,123L465.03,122.67L470.61,116.76L479.47,115.12L480.46,118.73L482.1,115.78L484.07,115.78L484.07,115.78L484.37,115.41L484.37,115.41L487.02,120.37L486.36,124.64L477.17,128.58L474.55,131.53L472.25,138.75L474.88,146.3L477.83,149.58L482.75,151.22L483.08,157.13L489.97,158.44L495.22,162.71L500.15,162.38L502.77,160.08L505.4,149.91L512.29,143.02L514.26,144.99L516.23,143.02L520.82,145.97L518.52,151.22L518.52,151.22L519.44,153.66L519.44,153.66L519.66,157.29L515.68,163.58L517.84,165.41L516.18,171.37L513.2,170.71L513.2,176.5L508.89,177.33L503.59,189.92L498.62,188.26L494.65,189.92L493.49,195.22L490.51,198.37L485.7,200.02L485.54,202.84L478.08,206.32L475.76,209.96L478.08,218.91L477.75,225.53L482.55,235.31L482.55,235.31L482.85,235.5L482.85,235.5L479.61,242.26L475.96,240.77L470,243.59L470.99,245.41L465.69,244.91L463.21,241.27L455.26,241.6L450.12,239.28L446.64,233.81L441.51,231.16L442.17,216.26L429.92,204.33L419.81,204.83L420.47,199.69L426.11,200.19L426.93,197.87L417.33,188.76L415.17,190.25L407.06,185.95L407.55,182.96L405.73,181.64L407.72,177L406.73,173.52L400.93,167.06L405.07,166.23L402.75,161.93L405.57,159.11L403.08,154.42L403.08,154.42z"/>
		<path id="BA-04" title="Zeničko-dobojski kanton" class="land" d="M483.87,242.59L484.38,245.99L478.41,250.46L478.75,252.45L469.64,254.77L466.65,259.41L460.36,262.22L455.22,267.19L455.22,267.19L452.91,266.2L452.91,266.2L448.93,263.05L448.27,267.52L442.64,265.37L441.97,261.39L435.02,255.6L430.71,257.58L430.21,260.07L424.91,262.39L426.9,265.53L426.07,269.01L423.92,269.18L420.44,264.54L420.11,266.86L414.97,269.68L415.64,278.79L409.84,279.12L410.83,281.77L407.85,286.4L398.58,284.58L396.09,286.24L394.27,284.58L391.62,287.9L396.26,298L395.26,302.14L388.14,299.32L386.65,300.65L386.65,300.65L384.66,300.15L384.66,300.15L377.21,297.17L377.71,293.03L372.07,291.87L371.74,290.38L374.39,288.39L367.6,285.74L366.11,274.81L358.16,268.35L355.34,268.18L356.01,266.69L353.19,266.53L358.99,263.55L356.84,260.73L355.34,259.41L353.19,261.56L347.23,260.07L344.58,257.09L345.57,253.77L343.58,251.95L344.25,249.96L339.44,244.83L335.3,246.15L330.83,242.18L330.17,237.38L325.86,237.04L323.54,232.9L325.03,230.92L323.05,229.76L324.54,227.77L324.04,224.13L329.67,220.65L328.51,215.84L324.7,212.53L326.03,210.21L321.39,206.4L321.22,202.92L316.59,201.43L313.31,196.18L313.31,196.18L316.36,192.57L316.36,192.57L320.63,191.26L321.94,187.32L336.05,184.7L344.26,180.76L348.53,175.84L350.17,166.65L348.2,158.12L343.6,151.55L337.7,137.44L341.31,130.88L341.31,130.88L341.05,130.57L341.05,130.57L347.54,123.33L349.51,125.63L360.34,124.31L364.94,127.92L368.54,127.92L368.22,136.13L371.17,141.71L369.53,143.02L373.14,145.97L371.83,150.24L372.81,156.15L381.67,151.22L386.59,150.9L394.14,150.57L395.46,152.86L402.68,154.51L402.68,154.51L403.08,154.42L403.08,154.42L405.57,159.11L402.75,161.93L405.07,166.23L400.93,167.06L406.73,173.52L407.72,177L405.73,181.64L407.55,182.96L407.06,185.95L415.17,190.25L417.33,188.76L426.93,197.87L426.11,200.19L420.47,199.69L419.81,204.83L429.92,204.33L442.17,216.26L441.51,231.16L446.64,233.81L450.12,239.28L455.26,241.6L463.21,241.27L465.69,244.91L470.99,245.41L470,243.59L475.96,240.77L479.61,242.26L482.85,235.5L482.85,235.5L485.04,236.96L485.04,236.96L483.05,239.45L483.71,242.59L483.71,242.59z"/>
		<path id="BA-05" title="Bosansko-podrinjski kanton" class="land" d="M440.18,357.23L440.65,356.97L440.65,356.97L443.8,354.32L444.13,356.14L448.76,357.63L449.92,356.14L454.07,356.97L456.72,351.67L456.72,351.67L456.55,351.58L456.55,351.58L460.66,349.18L466.12,350.84L475.73,333.78L477.72,333.94L481.53,330.46L493.62,331.79L499.25,329.31L502.23,330.96L502.56,337.75L506.54,339.41L506.54,339.41L511.01,348.68L513.33,347.86L516.97,352.83L501.07,364.59L498.42,367.9L498.92,369.39L487.66,374.03L484.51,373.53L481.69,375.19L475.4,373.2L460.66,363.92L455.03,363.1L452.21,365.91L448.57,366.08z"/>
		<path id="BA-06" title="Srednjobosanski kanton" class="land" d="M384.79,300.18L385.66,303.71L384.5,305.21L387.48,306.86L385.33,308.68L384.5,312.99L379.86,314.81L379.2,316.63L376.71,315.31L369.42,323.26L362.47,323.26L362.47,323.26L358.66,325.41L358.66,325.41L356.84,322.1L353.36,321.44L351.37,325.41L346.57,324.25L342.43,316.63L342.26,312.82L338.28,310.67L338.12,307.36L335.47,305.7L333.15,307.52L330.67,306.7L330.83,304.21L325.86,307.03L327.52,310.17L324.7,311.17L322.38,309.68L317.25,313.16L316.09,311L314.6,314.15L308.3,314.81L307.31,317.96L297.97,310.01L286.04,311.17L285.21,309.18L278.59,312L275.61,308.19L269.53,307.16L269.53,307.16L269.63,307.11L269.63,307.11L267.66,304.48L268.97,302.19L265.69,302.52L266.02,296.61L261.43,293.33L260.11,290.04L255.85,294.64L251.58,292.01L252.89,290.04L250.27,287.42L247.64,277.9L244.69,272.65L242.72,272.32L242.39,268.06L240.42,267.73L238.72,262.81L238.72,262.81L238.55,262.95L238.55,262.95L242.52,256.57L241.87,235.89L236.62,230.64L231.36,211.28L226.11,206.36L226.11,201.44L232.68,196.18L231.04,184.04L233.01,181.74L236.94,182.07L242.52,185.35L248.76,183.39L250.07,180.1L257.29,183.39L267.14,191.59L267.79,196.84L276.98,199.47L278.95,203.73L287.16,202.75L298.64,204.72L305.86,198.48L309.47,198.81L312.75,196.84L312.75,196.84L313.31,196.18L313.31,196.18L316.59,201.43L321.22,202.92L321.39,206.4L326.03,210.21L324.7,212.53L328.51,215.84L329.67,220.65L324.04,224.13L324.54,227.77L323.05,229.76L325.03,230.92L323.54,232.9L325.86,237.04L330.17,237.38L330.83,242.18L335.3,246.15L339.44,244.83L344.25,249.96L343.58,251.95L345.57,253.77L344.58,257.09L347.23,260.07L353.19,261.56L355.34,259.41L356.84,260.73L358.99,263.55L353.19,266.53L356.01,266.69L355.34,268.18L358.16,268.35L366.11,274.81L367.6,285.74L374.39,288.39L371.74,290.38L372.07,291.87L377.71,293.03L377.21,297.17L384.66,300.15L384.66,300.15z"/>
		<path id="BA-07" title="Hercegovačko-neretvanski kanton" class="land" d="M390.1,394.51L384.96,390.59L382.64,393.9L361.61,391.75L354.98,397.88L356.64,404.5L351.5,412.46L352.83,418.42L360.61,422.72L359.62,436.47L355.64,445.58L352.17,449.23L346.86,451.55L342.89,457.51L344.55,462.15L349.18,465.96L349.02,472.08L354.98,471.75L359.45,480.2L349.18,489.81L349.51,494.12L346.7,500.91L349.85,505.54L351.83,513.33L354.98,516.14L354.15,521.11L356.97,524.1L356.47,526.75L360.78,527.41L366.08,534.78L368.73,535.77L376.51,544.22L378.5,547.53L377.67,549.52L386.62,552.5L387.28,555.98L393.24,562.61L394.07,565.75L397.55,566.91L401.69,571.72L401.53,573.7L405.16,576.18L405.16,576.18L404.41,577.81L397.38,580.04L386.36,566.88L382.12,567.41L380.26,562.47L373.8,560.68L373.97,555.53L363.91,547.99L358.7,546.85L356.76,542.17L353.34,541.43L349.68,537.73L340.54,535.27L341.37,530.25L337.73,529.08L334.75,523.06L334.43,516.57L328.92,511.97L324.47,518.04L315.32,511.59L309.97,510.68L303.44,518.72L300.52,515.55L288.34,509.36L299.12,513.08L292.02,507.59L297.5,507.23L298.37,505.33L300.44,505.84L312.99,500.41L305.52,486.57L303.54,478.78L299.34,474.24L299.34,474.24L300.29,473L298.46,470.84L300.29,467.53L303.93,465.71L300.78,463.39L300.78,457.59L304.59,457.43L304.59,456.27L300.12,452.95L297.8,448.48L294.32,448.48L289.52,445L289.52,441.86L291.84,442.52L292,441.03L290.02,435.73L293,432.58L294.99,433.24L297.97,431.26L306.42,435.56L308.9,433.74L311.22,435.23L315.69,429.76L308.57,423.8L310.39,418.67L305.92,414.69L312.88,411.05L311.05,408.4L301.78,403.26L297.64,403.92L297.97,399.62L295.65,395.64L291.18,392.5L290.18,388.35L284.72,386.2L285.88,385.04L278.09,380.4L277.43,378.09L283.39,377.26L284.05,374.44L289.69,376.1L293.5,371.79L287.53,368.31L291.67,360.53L284.24,354.92L284.24,354.92L284.73,353.71L284.73,353.71L277.84,353.06L275.54,344.52L273.24,340.91L269.3,338.94L268.32,334.02L256.18,331.4L260.11,329.1L259.79,324.83L257.49,322.21L258.8,318.27L257.82,314.66L267.33,308.1L267.33,308.1L269.53,307.16L269.53,307.16L275.61,308.19L278.59,312L285.21,309.18L286.04,311.17L297.97,310.01L307.31,317.96L308.3,314.81L314.6,314.15L316.09,311L317.25,313.16L322.38,309.68L324.7,311.17L327.52,310.17L325.86,307.03L330.83,304.21L330.67,306.7L333.15,307.52L335.47,305.7L338.12,307.36L338.28,310.67L342.26,312.82L342.43,316.63L346.57,324.25L351.37,325.41L353.36,321.44L356.84,322.1L358.66,325.41L358.66,325.41L358.7,325.39L358.7,325.39L364.46,337.26L367.11,337.09L368.93,341.07L363.79,343.05L366.77,344.38L367.27,347.53L369.26,348.52L372.07,346.53L377.38,348.35L379.53,345.21L383.5,346.7L383.34,348.68L387.64,354.15L390.13,354.15L393.11,357.63L389.96,362.6L392.28,365.91L394.44,362.93L396.42,363.92L400.4,370.38L405.7,364.59L406.53,360.61L413.15,362.43L411.99,366.57L415.14,370.38L415.14,370.38L418.71,368.71L418.71,368.71L414.61,376.59L411.63,378.42L413.95,381.23L411.96,393.49L408.98,392L403.35,395.15L396.39,392.33L390.1,394.48L390.1,394.48z"/>
		<path id="BA-08" title="Zapadnohercegovački kanton" class="land" d="M299.34,474.24L269.19,456.03L269.69,451.2L266.67,445.4L262.1,441.72L253.99,440.2L252.72,433.43L240.67,410.81L245.32,398.04L244.59,394.04L241.21,389.4L236.2,386L223.05,386.28L212.01,375.4L212.01,375.4L212.53,373.4L218.11,375.04L219.75,373.73L224.01,376.03L229.26,373.73L234.52,375.37L237.47,373.08L239.77,374.39L239.44,377.34L242.39,378L243.38,376.03L248.3,377.67L264.71,365.53L266.68,369.47L271.27,371.11L275.54,364.87L277.51,364.54L279.48,359.29L284.07,355.35L284.07,355.35L284.24,354.92L284.24,354.92L291.67,360.53L287.53,368.31L293.5,371.79L289.69,376.1L284.05,374.44L283.39,377.26L277.43,378.09L278.09,380.4L285.88,385.04L284.72,386.2L290.18,388.35L291.18,392.5L295.65,395.64L297.97,399.62L297.64,403.92L301.78,403.26L311.05,408.4L312.88,411.05L305.92,414.69L310.39,418.67L308.57,423.8L315.69,429.76L311.22,435.23L308.9,433.74L306.42,435.56L297.97,431.26L294.99,433.24L293,432.58L290.02,435.73L292,441.03L291.84,442.52L289.52,441.86L289.52,445L294.32,448.48L297.8,448.48L300.12,452.95L304.59,456.27L304.59,457.43L300.78,457.59L300.78,463.39L303.93,465.71L300.29,467.53L298.46,470.84L300.29,473z"/>
		<path id="BA-09" title="Kanton Sarajevo" class="land" d="M455.05,267.12L452.57,268.52L451.42,273.65L447.61,276.47L444.13,284.09L441.48,285.74L433.03,304.29L434.19,309.26L431.37,311.42L428.72,317.71L420.11,313.57L416.8,315.23L409.51,324.83L410.01,328.48L415.14,330.63L416.8,333.94L415.97,335.93L422.26,342.06L445.78,341.73L448.43,346.86L452.24,349.18L452.24,349.18L456.72,351.67L456.72,351.67L454.07,356.97L449.92,356.14L448.76,357.63L444.13,356.14L443.8,354.32L440.65,356.97L440.65,356.97L437.67,358.62L432.2,356.14L432.2,356.14L430.88,352.33L427.89,351.67L419.78,361.77L418.12,365.41L418.78,368.4L418.78,368.4L415.14,370.38L415.14,370.38L411.99,366.57L413.15,362.43L406.53,360.61L405.7,364.59L400.4,370.38L396.42,363.92L394.44,362.93L392.28,365.91L389.96,362.6L393.11,357.63L390.13,354.15L387.64,354.15L383.34,348.68L383.5,346.7L379.53,345.21L377.38,348.35L372.07,346.53L369.26,348.52L367.27,347.53L366.77,344.38L363.79,343.05L368.93,341.07L367.11,337.09L364.46,337.26L358.7,325.39L358.7,325.39L362.47,323.26L362.47,323.26L369.42,323.26L376.71,315.31L379.2,316.63L379.86,314.81L384.5,312.99L385.33,308.68L387.48,306.86L384.5,305.21L385.66,303.71L384.79,300.18L384.79,300.18L386.65,300.65L386.65,300.65L388.14,299.32L395.26,302.14L396.26,298L391.62,287.9L394.27,284.58L396.09,286.24L398.58,284.58L407.85,286.4L410.83,281.77L409.84,279.12L415.64,278.79L414.97,269.68L420.11,266.86L420.44,264.54L423.92,269.18L426.07,269.01L426.9,265.53L424.91,262.39L430.21,260.07L430.71,257.58L435.02,255.6L441.97,261.39L442.64,265.37L448.27,267.52L448.93,263.05L452.91,266.2L452.91,266.2z"/>
		<path id="BA-10" title="Kanton br. 10" class="land" d="M212.01,375.4L209.03,374.15L207.09,375.59L194.75,359.29L188.97,354.08L185.58,347.61L173.25,336.76L168.94,329.23L161.15,327.07L155.61,318.83L154.89,310.34L141.35,300.23L136.14,292.87L128.83,288.33L127.96,282.73L122.45,273.19L112.39,271.68L110.79,261L101.76,261.19L100.06,257.24L95.89,253.59L94.8,248.84L86.33,241.71L80.72,233.05L79.1,225.18L79.1,225.18L82.83,223.42L82.17,215.22L89.06,210.95L89.39,200.45L86.11,192.25L88.08,191.92L88.41,188.96L84.8,178.46L88.74,171.9L93.66,176.82L104.82,177.15L109.41,178.79L109.41,178.79L113.02,181.42L113.02,181.42L126.48,191.59L132.71,201.11L141.9,207.34L152.08,209.97L164.22,222.11L167.5,222.44L173.08,227.36L177.67,227.03L180.3,229.66L178.33,231.96L182.6,235.24L184.57,240.16L201.63,253.29L206.88,262.81L210.16,262.81L217.06,267.73L236.09,265.1L236.09,265.1L238.72,262.81L238.72,262.81L240.42,267.73L242.39,268.06L242.72,272.32L244.69,272.65L247.64,277.9L250.27,287.42L252.89,290.04L251.58,292.01L255.85,294.64L260.11,290.04L261.43,293.33L266.02,296.61L265.69,302.52L268.97,302.19L267.66,304.48L269.63,307.11L269.63,307.11L267.33,308.1L267.33,308.1L257.82,314.66L258.8,318.27L257.49,322.21L259.79,324.83L260.11,329.1L256.18,331.4L268.32,334.02L269.3,338.94L273.24,340.91L275.54,344.52L277.84,353.06L284.73,353.71L284.73,353.71L284.07,355.35L284.07,355.35L279.48,359.29L277.51,364.54L275.54,364.87L271.27,371.11L266.68,369.47L264.71,365.53L248.3,377.67L243.38,376.03L242.39,378L239.44,377.34L239.77,374.39L237.47,373.08L234.52,375.37L229.26,373.73L224.01,376.03L219.75,373.73L218.11,375.04L212.53,373.4z"/>
		<path id="BA-BR-BR" title="Brčko" class="land" d="M512.44,93.3L512.62,96.75L516.23,98.39L513.27,102.32L510.32,98.39L506.05,100.35L502.77,109.87L499.16,112.17L495.22,110.86L495.22,112.5L493.58,110.53L488.66,109.87L485.71,110.53L485.71,113.81L485.71,113.81L484.07,115.78L484.07,115.78L482.1,115.78L480.46,118.73L479.47,115.12L470.61,116.76L465.03,122.67L459.45,123L456.83,120.05L447.64,121.03L442.71,115.12L444.03,113.48L443.04,111.84L439.43,109.54L442.06,108.23L441.4,106.92L437.14,104.62L437.46,101.34L442.39,101.67L446.98,98.39L446.98,98.39L450.59,97.07L450.59,97.07L456.17,87.23L455.84,84.6L458.14,83.62L459.12,80.34L465.69,77.38L468.12,71.6L468.12,71.6L468.64,71.8L468.64,71.8L470.61,72.13L470.61,72.13L477.17,69.83L477.17,69.83L477.5,68.52L477.5,68.52L480.75,68.11L483.88,73.21L481.66,74.98L475.51,73.54L478.67,78.1L477.38,81.39L486.62,87.95L489.82,92.15z"/>
		<path id="BA-SR-BI" title="Bijeljina" class="land" d="M543.1,154.6L538.87,152.54L539.53,149.91L531.98,146.63L527.39,148.6L523.45,153.85L519.51,153.85L519.51,153.85L518.52,151.22L518.52,151.22L520.82,145.97L516.23,143.02L514.26,144.99L512.29,143.02L505.4,149.91L502.77,160.08L500.15,162.38L495.22,162.71L489.97,158.44L483.08,157.13L482.75,151.22L477.83,149.58L474.88,146.3L472.25,138.75L474.55,131.53L477.17,128.58L486.36,124.64L487.02,120.37L484.37,115.41L484.37,115.41L485.71,113.81L485.71,113.81L485.71,110.53L488.66,109.87L493.58,110.53L495.22,112.5L495.22,110.86L499.16,112.17L502.77,109.87L506.05,100.35L510.32,98.39L513.27,102.32L516.23,98.39L512.62,96.75L512.44,93.3L512.44,93.3L524.65,91.23L527.9,87.33L532.62,85.7L542.43,77.99L545.74,79.03L547.68,83.54L554.15,79.95L558.12,82.02L562.25,81.01L568.64,85.19L571.49,85.13L572.75,89.77L574.74,90.1L572.19,94L569.45,93.29L571.06,96.4L568.31,100.07L564.35,99.96L564.05,105.69L560.8,107.67L565.04,107.98L565.96,110L561.71,111.8L565.57,117.69L564.3,119.73L561.55,118.81L563.19,127.08L557.79,129.76L553.37,139.82L553.9,141.67L549,146.22L549.42,149.75L544.8,151.72z"/>
		<path id="BA-SR-BJ" title="Banja-Luka" class="land" d="M322.23,42.27L322.93,45.55L318.33,50.8L318.99,55.07L321.94,56.38L320.3,62.29L322.27,65.57L320.63,75.41L324.9,85.26L324.57,89.2L322.93,98.06L320.3,98.06L314.39,103.31L315.71,105.93L314.39,107.9L318,111.19L316.36,114.47L318.33,116.76L318,119.06L320.3,122.34L323.26,121.36L327.52,123.98L328.18,131.2L332.12,134.81L331.79,131.53L335.07,129.89L335.07,126.61L337.04,129.24L339.34,128.58L339.34,128.58L341.31,130.88L341.31,130.88L337.7,137.44L343.6,151.55L348.2,158.12L350.17,166.65L348.53,175.84L344.26,180.76L336.05,184.7L321.94,187.32L320.63,191.26L316.36,192.57L316.36,192.57L312.75,196.84L312.75,196.84L309.47,198.81L305.86,198.48L298.64,204.72L287.16,202.75L278.95,203.73L276.98,199.47L267.79,196.84L267.14,191.59L257.29,183.39L250.07,180.1L248.76,183.39L242.52,185.35L236.94,182.07L233.01,181.74L231.04,184.04L232.68,196.18L226.11,201.44L226.11,206.36L231.36,211.28L236.62,230.64L241.87,235.89L242.52,256.57L238.55,262.95L238.55,262.95L236.09,265.1L236.09,265.1L217.06,267.73L210.16,262.81L206.88,262.81L201.63,253.29L184.57,240.16L182.6,235.24L178.33,231.96L180.3,229.66L177.67,227.03L173.08,227.36L167.5,222.44L164.22,222.11L152.08,209.97L141.9,207.34L132.71,201.11L126.48,191.59L113.02,181.42L113.02,181.42L112.6,181.11L112.6,181.11L109.15,173.05L109.48,166.81L121.62,163.53L163.3,168.13L170.19,167.47L175.11,165.83L177.41,163.2L178.72,159.26L175.44,155.65L177.74,148.76L174.46,146.46L172.49,142.2L172.49,133.01L163.96,129.07L165.92,120.87L161.66,107.08L158.38,103.14L152.8,99.86L140.65,100.85L136.06,92.64L132.12,94.61L128.18,92.31L118.99,94.28L105.54,89.03L97.66,100.52L93.4,99.53L87.49,90.02L81.91,91.33L71.08,65.73L87.16,62.12L86.11,58.63L86.11,58.63L88.3,60.96L100.42,60.52L100.84,54.23L104.88,49.79L105.69,44.05L108.08,41.11L106.83,36.3L117.43,29.6L119.12,20.86L124.63,12.34L128.11,10.94L135.83,11.74L138.76,10.21L145.88,15.02L153.64,17.72L159.35,15.37L173.23,20.29L176.95,18.07L175.59,13.45L177.56,12.1L176.59,10.04L182.46,9.81L190.76,0L194.2,4.25L191.52,7.07L192.07,10.92L197.58,10.63L195.54,7.18L196.69,5.61L198.75,7.16L200.22,12.05L201.94,11.01L202.12,8.33L204.53,8.84L202.74,13.38L206.89,11.21L209.19,16.5L228.99,28.54L239.91,28.67L244.09,19.31L246,22.08L249.67,21.59L249.86,24.31L252.57,24.16L252.66,27.3L257.95,30.46L266.42,31.19L271.38,25.57L272.66,28.69L271.82,32.85L278.33,30.88L276.89,36.85L280.02,35.54L284.27,36.94L287.14,32.32L288.01,36.96L291.39,35.5L294.8,37.42L305.73,31.17L319.54,41.86z"/>
		<path id="BA-SR-DO" title="Doboj" class="land" d="M447.41,98.23L440.09,97.73L438.78,90.84L432.54,83.95L431.56,79.68L427.62,77.71L426.63,79.02L419.74,78.37L421.05,80.99L412.85,91.82L411.21,98.39L412.85,101.34L405.63,110.2L398.41,110.86L395.13,109.54L382.99,112.83L380.36,115.12L381.67,119.06L380.03,122.34L382,124.97L384.63,123.33L389.55,127.59L395.13,127.27L402.02,131.53L406.94,132.52L409.24,135.8L408.25,137.44L413.18,142.03L418.43,141.71L424.01,146.63L419.41,151.88L408.58,153.19L408.58,153.19L402.68,154.51L402.68,154.51L395.46,152.86L394.14,150.57L386.59,150.9L381.67,151.22L372.81,156.15L371.83,150.24L373.14,145.97L369.53,143.02L371.17,141.71L368.22,136.13L368.54,127.92L364.94,127.92L360.34,124.31L349.51,125.63L347.54,123.33L341.05,130.57L341.05,130.57L339.34,128.58L339.34,128.58L337.04,129.24L335.07,126.61L335.07,129.89L331.79,131.53L332.12,134.81L328.18,131.2L327.52,123.98L323.26,121.36L320.3,122.34L318,119.06L318.33,116.76L316.36,114.47L318,111.19L314.39,107.9L315.71,105.93L314.39,103.31L320.3,98.06L322.93,98.06L324.57,89.2L324.9,85.26L320.63,75.41L322.27,65.57L320.3,62.29L321.94,56.38L318.99,55.07L318.33,50.8L322.93,45.55L322.23,42.27L322.23,42.27L330.87,49.77L336.57,50.81L347.95,42.95L347.35,37.02L352.33,35.46L355.63,28.8L359.32,27.36L363.33,33.27L365.72,29.31L368.96,29.91L371.2,34.51L368.9,37.16L375.33,42.7L388.86,43.37L388.86,43.37L393.16,47.85L393.16,47.85L405.3,55.07L403.99,60.65L408.58,59.66L411.54,54.41L411.54,54.41L416.46,55.72L417.77,52.44L423.02,54.74L422.7,50.47L424.34,50.47L426.31,47.19L430.98,46.22L430.98,46.22L434.02,47.06L442.71,57.36L442.71,57.36L464.38,70.16L464.38,70.16L468.12,71.6L468.12,71.6L465.69,77.38L459.12,80.34L458.14,83.62L455.84,84.6L456.17,87.23L450.59,97.07L450.59,97.07z"/>
		<path id="BA-SR-FO" title="Foca" class="land" d="M466.62,439.33L462.81,437.38L462.65,433.74L456.85,428.44L453.87,429.27L446.58,423.47L440.78,424.8L430.68,419.99L430.68,424.46L427.2,424.13L423.22,428.94L419.08,431.09L406,420.99L403.51,413.2L397.55,410.72L394.4,414.19L394.24,418.17L385.79,413.37L387.11,407.4L394.73,406.08L390.43,395.64L390.43,395.64L390.1,394.48L390.1,394.48L396.39,392.33L403.35,395.15L408.98,392L411.96,393.49L413.95,381.23L411.63,378.42L414.61,376.59L418.71,368.71L418.71,368.71L420.94,369.72L420.94,369.72L425.41,368.4L423.92,366.57L424.91,364.09L437.34,361.94L437.27,358.44L437.27,358.44L440.18,357.23L440.18,357.23L448.57,366.08L452.21,365.91L455.03,363.1L460.66,363.92L475.4,373.2L481.69,375.19L484.51,373.53L487.66,374.03L498.92,369.39L498.42,367.9L501.07,364.59L516.97,352.83L513.33,347.86L511.01,348.68L506.54,339.41L506.54,339.41L508.2,338.08L516.31,341.56L521.12,338.75L529.23,341.23L535.86,347.53L542.15,346.03L541.99,343.55L537.51,340.07L536.85,332.62L532.71,324.5L540.5,326.99L545.3,321.69L542.81,319.04L549.61,315.06L546.96,312.41L546.79,309.93L549.44,309.76L547.45,306.61L548.11,304.63L541.32,294.69L542.65,292.53L546.46,293.2L548.11,291.7L548.11,291.7L548.31,291.95L548.31,291.95L549.64,289.8L555.6,288.89L555.6,288.89L560.42,293.09L560.97,296.45L565.07,298.26L565.68,303.55L569.86,305.97L575.32,313.86L577.12,324.73L585.4,329.07L586.7,333.59L593.61,339.44L596.65,357.96L594.52,360L592.58,357.7L590.81,359.19L592.64,362.65L591.36,366.66L593.75,368.66L592.02,370.43L585.27,369.78L579.33,373.05L572.64,364.76L566.85,367.46L557.34,365.45L554.16,367.31L553.47,380.63L540.17,378.28L535.09,382.91L522.8,374.09L518.05,373.74L516.48,375.42L514.12,373.72L511.07,379.55L505.54,381.42L505.54,385.27L506.65,386.41L508.66,382.93L510.16,383.74L510.99,396.19L514.37,399.73L516.4,398.87L520.6,413.66L528.95,426.23L528.69,434.07L521.61,435.53L516.18,442.29L511.97,438.25L511.9,434.61L507.31,432.42L507.92,423.96L505.68,423.7L500.22,417.4L489.38,419.95L491.82,426.06L482.05,428.82z"/>
		<path id="BA-SR-SR" title="Sarajevo-Romanija" class="land" d="M437.27,358.44l0.06,3.49l-12.42,2.15l-0.99,2.48l1.49,1.82l-4.47,1.33l0,0l-2.15,-1.33l0,0l-0.66,-2.98l1.66,-3.64l8.12,-10.1l2.98,0.66l1.33,3.81l0,0L437.27,358.44zM485.54,242.59l13.75,8.78l2.98,0.99l3.15,-2.32l0.17,-1.99l7.78,8.45l2.32,-2.15l2.32,4.14l2.65,0.33l-0.66,2.32l9.94,4.8l2.98,5.63l6.29,4.31l2.15,7.12l4.47,5.8l0,0l2.28,2.89l0,0l-1.65,1.5l-3.81,-0.66l-1.33,2.15l6.79,9.94l-0.66,1.99l1.99,3.15l-2.65,0.17l0.17,2.48l2.65,2.65l-6.79,3.98l2.48,2.65l-4.8,5.3l-7.79,-2.48l4.14,8.12l0.66,7.45l4.47,3.48l0.17,2.48l-6.29,1.49l-6.63,-6.29l-8.12,-2.48l-4.8,2.82l-8.12,-3.48l-1.66,1.33l0,0l-3.97,-1.66l-0.33,-6.79l-2.98,-1.66l-5.63,2.48l-12.09,-1.32l-3.81,3.48l-1.99,-0.17l-9.61,17.06l-5.47,-1.66l-4.11,2.39l0,0l-4.31,-2.39l0,0l-3.81,-2.32l-2.65,-5.13l-23.52,0.33l-6.29,-6.13l0.83,-1.99l-1.66,-3.31l-5.13,-2.15l-0.5,-3.64l7.29,-9.61l3.31,-1.66l8.61,4.14l2.65,-6.29l2.82,-2.15l-1.16,-4.97l8.45,-18.55l2.65,-1.66l3.48,-7.62l3.81,-2.82l1.16,-5.13l2.48,-1.4l0,0l0.17,0.07l0,0l5.13,-4.97l6.29,-2.82l2.98,-4.64l9.11,-2.32l-0.33,-1.99l5.96,-4.47l-0.5,-3.4l0,0H485.54z"/>
		<path id="BA-SR-TR" title="Trebinje" class="land" d="M390.1,394.51L390.43,395.64L390.43,395.64L394.73,406.08L387.11,407.4L385.79,413.37L394.24,418.17L394.4,414.19L397.55,410.72L403.51,413.2L406,420.99L419.08,431.09L423.22,428.94L427.2,424.13L430.68,424.46L430.68,419.99L440.78,424.8L446.58,423.47L453.87,429.27L456.85,428.44L462.65,433.74L462.81,437.38L466.62,439.33L466.62,439.33L466.14,442.06L470.32,446.47L460.8,459.68L459.14,467.59L467.33,490.37L459.6,492.82L444.18,490.35L441.27,493.52L436.06,506.42L433.84,508.1L435.01,514.3L437.89,518.3L433.23,527.32L434.84,536.9L431.02,538.77L432.78,542.79L432.1,546.04L435.26,547.31L438.77,553.43L445.25,552.88L447.28,555.49L445.61,559.62L447.17,569.33L436.96,571.41L435.63,573.45L442.53,581.29L436.44,582.15L433,586.94L426.47,587.83L417.21,579.42L414.64,575.04L405.16,576.18L405.16,576.18L401.53,573.7L401.69,571.72L397.55,566.91L394.07,565.75L393.24,562.61L387.28,555.98L386.62,552.5L377.67,549.52L378.5,547.53L376.51,544.22L368.73,535.77L366.08,534.78L360.78,527.41L356.47,526.75L356.97,524.1L354.15,521.11L354.98,516.14L351.83,513.33L349.85,505.54L346.7,500.91L349.51,494.12L349.18,489.81L359.45,480.2L354.98,471.75L349.02,472.08L349.18,465.96L344.55,462.15L342.89,457.51L346.86,451.55L352.17,449.23L355.64,445.58L359.62,436.47L360.61,422.72L352.83,418.42L351.5,412.46L356.64,404.5L354.98,397.88L361.61,391.75L382.64,393.9L384.96,390.59z"/>
		<path id="BA-SR-VL" title="Vlasenica" class="land" d="M555.6,288.89L549.64,289.8L548.31,291.95L548.31,291.95L545.83,288.81L545.83,288.81L541.36,283.01L539.2,275.89L532.91,271.58L529.93,265.95L519.99,261.15L520.65,258.83L518,258.5L515.68,254.35L513.36,256.51L505.58,248.06L505.41,250.05L502.27,252.37L499.28,251.37L485.54,242.59L485.54,242.59L483.71,242.59L483.71,242.59L483.05,239.45L485.04,236.96L485.04,236.96L482.55,235.31L482.55,235.31L477.75,225.53L478.08,218.91L475.76,209.96L478.08,206.32L485.54,202.84L485.7,200.02L490.51,198.37L493.49,195.22L494.65,189.92L498.62,188.26L503.59,189.92L508.89,177.33L513.2,176.5L513.2,170.71L516.18,171.37L517.84,165.41L515.68,163.58L519.66,157.29L519.44,153.66L519.44,153.66L519.51,153.85L519.51,153.85L523.45,153.85L527.39,148.6L531.98,146.63L539.53,149.91L538.87,152.54L543.1,154.6L543.1,154.6L545.06,159.16L541.35,165.05L534.93,164.81L532.9,169.51L534.87,171.85L537.58,183.89L537.12,189.5L531.36,193.3L530.41,197.82L530.82,199.72L532.57,199.85L531.3,202.27L532.22,204.89L535.29,206L534.74,210.71L540.39,217.72L547.59,216.59L548.87,220.97L551.35,222.65L558.14,219.55L565.1,220.66L565.73,224.78L568.92,228.94L568.17,231.79L570.63,234.7L570.77,239.81L578.21,242.84L579.95,248.23L583.94,250.64L588.79,247.1L589.72,248.92L588.01,253.46L591.34,254.33L593.99,261.19L600.95,264L603.94,268.99L605.38,268.57L606.35,264.06L608.42,264.52L608.96,268.31L612,268.75L610.54,271.94L611.5,276.04L602.69,279.7L603,282.8L598.93,285.16L596.68,289.02L581.41,288.65L577.43,286.79L575.1,288.19L569.44,283.45L567.2,283.64L562.66,280.44L556.32,279.85L551.5,275.8L551.39,282.6z"/>
	</g>
</svg>