<?xml version="1.0" encoding="utf-8"?>
<!-- (c) ammap.com | SVG map of Bosnia-Herzegovina Regions High -->
<svg xmlns="http://www.w3.org/2000/svg" xmlns:amcharts="http://amcharts.com/ammap" xmlns:xlink="http://www.w3.org/1999/xlink" version="1.1">
	<defs>
		<style type="text/css">
			.land
			{
				fill: #CCCCCC;
				fill-opacity: 1;
				stroke:white;
				stroke-opacity: 1;
				stroke-width:0.5;
			}
		</style>

		<amcharts:ammap projection="mercator" leftLongitude="15.714400" topLatitude="45.275910" rightLongitude="19.625600" bottomLatitude="42.560878"></amcharts:ammap>

		<!-- All areas are listed in the line below. You can use this list in your script. -->
		<!--{id:"BA-BIH"},{id:"BA-SRP"},{id:"BA-BRC"}-->

	</defs>
	<g>
		<path id="BA-BIH" title="Federacija Bosna i Hercegovina" class="land" d="M456.33,42.79l-3.6,2.45l0.05,1.57l7.86,1.52l-0.25,-5.85l3.19,-2.19l1.8,3.47l-2.91,3.2l10.58,9.95l-1.27,4.85l4.58,-1.04l5.71,1.26l-1.31,6.12l-3.25,0.41l0,0l-0.33,1.31l0,0l-6.56,2.3l0,0l-1.97,-0.33l0,0l-4.27,-1.64l0,0l-21.66,-12.8l0,0l-8.69,-10.31l5.59,0.46l1.38,3.55l0.55,-4.02l2.14,-2.36l-3.11,-2.74l0.61,-1.48l4.77,2.39l1.41,3.4l1.33,-2.41l-1.64,-3.73l5.93,2.92l3.16,-3.18L456.33,42.79zM402.09,35.61l3.44,-0.38l2.85,3.12l14.8,-1.77l7.79,9.64l0,0l-4.67,0.97l-1.97,3.28h-1.64l0.33,4.27l-5.25,-2.3l-1.31,3.28l-4.92,-1.31l0,0l-2.95,5.25l-4.59,0.98l1.31,-5.58l-12.14,-7.22l0,0l-4.3,-4.48l0,0l3.45,-3.98l-1.88,-3.93l2.41,-3.6l6.2,-1.66L402.09,35.61zM33.1,10.41l-0.42,3.21l1.75,2.17l5.76,-4.34l7.1,3.5l1.13,3.78l-2.1,3.5l4.85,0.38l1,4.53l2.14,0.24l2.49,5.68l0.85,5.9l10.31,4.88L79.2,54.67l1.27,4.24l5.65,-0.28l0,0l1.05,3.49l-16.08,3.61l10.83,25.6l5.58,-1.31l5.91,9.52l4.27,0.98l7.88,-11.49l13.46,5.25l9.19,-1.97l3.94,2.3l3.94,-1.97l4.59,8.21l12.14,-0.98l5.58,3.28l3.28,3.94l4.27,13.78l-1.97,8.2l8.53,3.94v9.19l1.97,4.27l3.28,2.3l-2.3,6.89l3.28,3.61l-1.31,3.94l-2.3,2.63l-4.92,1.64l-6.89,0.66l-41.68,-4.59l-12.14,3.28l-0.33,6.24l3.45,8.06l13.88,10.48l6.24,9.52l9.19,6.24l10.17,2.63l12.14,12.14l3.28,0.33l5.58,4.92l4.59,-0.33l2.63,2.63l-1.97,2.3l4.27,3.28l1.97,4.92l17.07,13.13l5.25,9.52h3.28l6.89,4.92l16.41,-1.31l5.09,-3.47l3.97,-6.38l-0.66,-20.68l-5.25,-5.25l-5.25,-19.36l-5.25,-4.92v-4.92l6.56,-5.25l-1.64,-12.14l1.97,-2.3l3.94,0.33l5.58,3.28l6.24,-1.97l1.31,-3.28l12.47,6.56l4.59,4.92l0.66,5.25l9.19,2.63l1.97,4.27l8.2,-0.98l11.49,1.97l7.22,-6.24l3.61,0.33l6.89,-6.24l4.27,-1.31l1.31,-3.94l14.11,-2.63l8.21,-3.94l4.27,-4.92l1.64,-9.19l-1.97,-8.53l-4.59,-6.56l-5.91,-14.11l3.35,-6.87l6.5,-7.24l1.97,2.3l10.83,-1.31l4.59,3.61h3.61l-0.33,8.2l2.95,5.58l-1.64,1.31l3.61,2.95l-1.31,4.27l0.98,5.91l8.86,-4.92l12.47,-0.66l1.31,2.3l7.22,1.64l16.74,-2.63l4.59,-5.25l-5.58,-4.92l-5.25,0.33l-4.92,-4.59l0.99,-1.64l-2.3,-3.28l-4.92,-0.98l-6.89,-4.27l-5.58,0.33l-4.92,-4.27l-2.63,1.64l-1.97,-2.63l1.64,-3.28l-1.31,-3.94l2.63,-2.3l12.14,-3.28l3.28,1.31l7.22,-0.66l7.22,-8.86l-1.64,-2.95l1.64,-6.56l8.21,-10.83l-1.31,-2.63l6.89,0.66l0.98,-1.31l3.94,1.97l0.98,4.27l6.24,6.89l1.31,6.89l7.32,0.5l0,0l-0.43,0.16l0,0l-4.59,3.28l-4.92,-0.33l-0.33,3.28l4.27,2.3l0.66,1.31l-2.63,1.31l3.61,2.3l0.98,1.64l-1.31,1.64l4.92,5.91l9.19,-0.98l2.63,2.95l5.58,-0.33l5.58,-5.91l8.86,-1.64l0.98,3.61l1.64,-2.95h1.97l0,0l0.31,-0.37l0,0l2.65,4.96l-0.66,4.27l-9.19,3.94l-2.63,2.95l-2.3,7.22l2.63,7.55l2.95,3.28l4.92,1.64l0.33,5.91l6.89,1.31l5.25,4.27l4.92,-0.33l2.63,-2.3l2.63,-10.17l4.92,-6.24l1.97,-0.66l1.97,1.97l1.97,-1.97l2.3,1.31l2.3,1.64l-2.3,5.25l1.13,6.07l-3.98,6.29l2.15,1.82l-1.66,5.96l-2.98,-0.66v5.8l-4.31,0.83l-5.3,12.59l-4.97,-1.66l-3.98,1.66l-1.16,5.3l-2.98,3.15l-4.8,1.66l-0.17,2.82l-7.45,3.48l-2.32,3.64l2.32,8.94l-0.33,6.63l2.98,7.78l4.31,3.64l-1.99,2.48l1.33,6.54l-5.96,4.47l0.33,1.99l-9.11,2.32l-2.98,4.64l-6.29,2.82l-7.79,6.29l-1.16,5.13l-3.81,2.82l-3.48,7.62l-2.65,1.66l-8.45,18.55l1.16,4.97l-2.82,2.15l-2.65,6.29l-8.61,-4.14l-3.31,1.66l-7.29,9.61l0.5,3.64l5.13,2.15l1.66,3.31l-0.83,1.99l6.29,6.13l23.52,-0.33l2.65,5.13l8.12,4.71l4.11,-2.39l5.47,1.66l9.61,-17.06l1.99,0.17l3.81,-3.48l12.09,1.32l5.63,-2.48l2.98,1.66l0.33,6.79l3.97,1.66l4.47,9.28l2.32,-0.83l3.64,4.97l-15.9,11.76l-2.65,3.31l0.5,1.49l-17.23,5.8l-9.61,-3.48l-11.43,-7.79l-5.63,-0.83l-2.82,2.82l-3.64,0.17l-8.38,-8.85l-2.51,1.4l-5.47,-2.48l-1.33,-3.81l-2.98,-0.66l-8.12,10.1l-1.66,3.64l0.46,5.05l-6.96,7.95l2.32,2.82l-1.99,12.26l-2.98,-1.49l-5.63,3.15l-6.96,-2.82l-6.29,2.18l-5.14,-3.92l-2.32,3.31l-21.04,-2.15l-6.63,6.13l1.66,6.63l-5.13,7.95l1.33,5.96l7.79,4.31l-0.99,13.75l-3.97,9.11l-3.48,3.64l-5.3,2.32l-3.98,5.96l1.66,4.64l4.64,3.81l-0.17,6.13l5.96,-0.33l4.47,8.45l-10.27,9.61l0.33,4.31l-2.82,6.79l3.15,4.64l1.99,7.79l3.15,2.82l-0.83,4.97l2.82,2.98l-0.5,2.65l4.31,0.66l5.3,7.37l2.65,0.99l7.79,8.45l1.99,3.31l-0.83,1.99l8.94,2.98l0.66,3.48l5.96,6.63l0.83,3.15l3.48,1.16l4.14,4.8l-0.17,1.99l3.64,2.48l0,0l-0.76,1.63l-7.03,2.22l-11.02,-13.16l-4.24,0.53l-1.86,-4.94l-6.46,-1.78l0.17,-5.16l-10.06,-7.54l-5.21,-1.15l-1.94,-4.67l-3.41,-0.74l-3.66,-3.7l-9.14,-2.46l0.83,-5.02l-3.65,-1.17l-2.97,-6.02l-0.33,-6.49l-5.51,-4.6l-4.44,6.07l-9.15,-6.45l-5.35,-0.92l-6.53,8.05l-2.93,-3.17l-12.58,-6.6l11.19,4.13l-7.1,-5.49l5.48,-0.36l0.88,-1.9l2.07,0.51l12.49,-5.63l-11.3,-24.42l-32.44,-19.76l0.5,-4.83l-3.02,-5.8l-4.57,-3.68l-8.11,-1.52l-1.27,-6.77l-12.05,-22.62l4.13,-8.52l-0.67,-9.06L236.2,386l-12.69,0.49l-11.67,-11.23l-2.8,-1.12l-1.94,1.44l-12.35,-16.3l-5.77,-5.21l-3.4,-6.47l-12.33,-10.85l-4.3,-7.53l-6.87,-1.55l-2.57,-2.66l-4.08,-6.7l-1.33,-8.97l-12.74,-9.11l-5.21,-7.36l-7.31,-4.55l-0.88,-5.59l-5.51,-9.54l-9.75,-1.13L110.79,261l-9.03,0.2l-1.71,-3.95l-4.16,-3.65l-1.1,-4.76l-8.68,-7.41l-5.63,-9.14l-2.97,-14.8l-0.59,-10.72l1.21,-2.99l-1.33,-2.75l-13.21,-4.63l-0.77,-3.82l3.71,0.83l3.8,-1.94l-3.22,-4.06l-0.11,-5.77l-1.58,-1.09l1.94,-6.12l-2.61,-7.3l-15.21,-8.2L46.15,152l0.78,-1.29l4.04,0.11l-0.41,-4.03l2.94,-0.35l-3.72,-9.14l-8.83,-4.41l-3.02,-8.56l-5.4,-2.28l-3.87,-5.42l-5.98,2.31l-1.3,2.42l-5.35,0.81l-1.64,-3.38l-4.63,-2.37L0,100.97l1.1,-2.22l5.38,-0.15l4.48,-3.98l-5.27,-5.04L3.9,78.54L5.79,68.3l5.48,-1.28l-0.28,-7.06L4.93,47.01l5.7,-11.09L7.35,24.18l2.93,-4.89l4.51,-4.71l2.82,0.51l2.18,-3.99L28,12.67l-0.06,-2.44L33.1,10.41z"/>
		<path id="BA-SRP" title="Republika Srpska" class="land" d="M547.68,83.54l6.46,-3.59l3.97,2.07l3.9,-1.08l6.62,4.25l2.85,-0.07l1.27,4.64l2.05,0.9L572.19,94l-2.74,-0.7l1.61,3.1l-2.75,3.67l-3.96,-0.11l-0.3,5.74l-3.25,1.98l4.24,0.31l0.92,2.02l-4.26,1.8l3.87,5.89l-1.27,2.04l-2.75,-0.92l1.64,8.27l-5.4,2.68l-4.43,10.06l0.53,1.84l-4.9,4.56l0.42,3.53l-5.02,2.45l-1.66,3.68l2.32,3.28l-3.71,5.89l-6.93,0.46l-1.56,4.57l2.02,1.77l2.44,8.44l0.03,8.13l-5.98,4.89l-0.99,5.35l2.19,1.2l-1.27,2.42l0.92,2.62l3.07,1.11l-0.55,4.71l5.04,6.52l2.74,1.05l4.63,-1.9l1.72,4.6l2.68,1.72l6.59,-3.14l6.96,1.11l0.63,4.12l3.19,4.16l-0.75,2.85l2.46,2.92l0.14,5.11l7.45,3.02l1.74,5.39l3.99,2.41l4.85,-3.54l0.92,1.83l-1.71,4.54l3.33,0.87l2.64,6.86l6.96,2.8l2.99,4.99l1.44,-0.41l0.97,-4.51l2.07,0.46l0.55,3.8l2.99,0.24l-1.41,3.38l0.95,4.1l-8.81,3.66l0.31,3.1l-3.18,1.5l-3.57,4.81l-14.85,-0.46l-3.97,-1.86l-2.33,1.41l-5.67,-4.75l-2.24,0.19l-4.54,-3.21l-6.34,-0.59l-3.52,-3.86l-1.96,0.52l0.55,6.09l3.15,5.76l5.88,4.72l0.55,3.36l4.1,1.82l0.61,5.28l4.18,2.42l5.46,7.89l1.8,10.87l8.28,4.34l1.3,4.51l6.92,5.85l3.04,18.52l-2.13,2.05l-1.94,-2.31l-1.77,1.49l1.83,3.47l-1.28,4.01l2.39,2l-1.74,1.77l-6.74,-0.65l-5.95,3.27l-6.68,-8.29l-5.79,2.69l-9.51,-2l-3.18,1.85l-1.06,13.56l-4.99,-2.19l-7.4,-0.45l-6.29,4.71l-11.61,-8.84l-4.76,-0.34l-1.56,1.68l-1.52,-1.85l-3.9,5.98l-5.52,1.87l0.5,4.8l2.61,-3.29l1.5,0.82l0.83,12.44l3.38,3.54l2.04,-0.86l4.19,14.79l8.36,12.57l-0.27,7.84l-7.07,1.46l-5.43,6.77l-4.21,-4.05l-0.08,-3.64l-4.58,-2.18l0.61,-8.46l-2.24,-0.26l-5.46,-6.3l-10.84,2.55l2.44,6.11l-9.76,2.76l-15.65,10.75l-0.27,2.48l4.18,4.41l-9.51,13.22l-1.66,7.91l8.18,22.78l-7.73,2.45l-15.41,-2.47l-2.91,3.18l-5.21,12.89l-2.22,1.68l1.17,6.2l2.88,4l-4.66,9.02l1.61,9.59l-3.82,1.87l1.75,4.02l-0.67,3.25l3.16,1.27l3.51,6.11l6.48,-0.55l2.03,2.61l-1.67,4.14l1.57,9.71l-10.22,2.08l-1.33,2.03l6.9,7.84l-6.09,0.87l-3.44,4.79l-6.53,0.89l-9.26,-8.41l-2.57,-4.39l-9.48,1.15l0,0l-3.64,-2.48l0.17,-1.99l-4.14,-4.8l-3.48,-1.16l-0.83,-3.15l-5.96,-6.63l-0.66,-3.48l-8.94,-2.98l0.83,-1.99l-1.99,-3.31l-7.79,-8.45l-2.65,-0.99l-5.3,-7.37l-4.31,-0.66l0.5,-2.65l-2.82,-2.98l0.83,-4.97l-3.15,-2.82l-1.99,-7.79l-3.15,-4.64l2.82,-6.79l-0.33,-4.31l10.27,-9.61l-4.47,-8.45l-5.96,0.33l0.17,-6.13l-4.64,-3.81l-1.66,-4.64l3.98,-5.96l5.3,-2.32l3.48,-3.64l3.97,-9.11l0.99,-13.75l-7.79,-4.31l-1.33,-5.96l5.13,-7.95l-1.66,-6.63l6.63,-6.13l21.04,2.15l2.32,-3.31l5.14,3.92l6.29,-2.18l6.96,2.82l5.63,-3.15l2.98,1.49l1.99,-12.26l-2.32,-2.82l6.96,-7.95l-0.46,-5.05l1.66,-3.64l8.12,-10.1l2.98,0.66l1.33,3.81l5.47,2.48l2.51,-1.4l8.38,8.85l3.64,-0.17l2.82,-2.82l5.63,0.83l11.43,7.79l9.61,3.48l17.23,-5.8l-0.5,-1.49l2.65,-3.31l15.9,-11.76l-3.64,-4.97l-2.32,0.83l-4.47,-9.28l-3.97,-1.66l-0.33,-6.79l-2.98,-1.66l-5.63,2.48l-12.09,-1.32l-3.81,3.48l-1.99,-0.17l-9.61,17.06l-5.47,-1.66l-4.11,2.39l-8.12,-4.71l-2.65,-5.13l-23.52,0.33l-6.29,-6.13l0.83,-1.99l-1.66,-3.31l-5.13,-2.15l-0.5,-3.64l7.29,-9.61l3.31,-1.66l8.61,4.14l2.65,-6.29l2.82,-2.15l-1.16,-4.97l8.45,-18.55l2.65,-1.66l3.48,-7.62l3.81,-2.82l1.16,-5.13l7.79,-6.29l6.29,-2.82l2.98,-4.64l9.11,-2.32l-0.33,-1.99l5.96,-4.47l-1.33,-6.54l1.99,-2.48l-4.31,-3.64l-2.98,-7.78l0.33,-6.63l-2.32,-8.94l2.32,-3.64l7.45,-3.48l0.17,-2.82l4.8,-1.66l2.98,-3.15l1.16,-5.3l3.98,-1.66l4.97,1.66l5.3,-12.59l4.31,-0.83v-5.8l2.98,0.66l1.66,-5.96l-2.15,-1.82l3.98,-6.29l-1.13,-6.07l2.3,-5.25l-2.3,-1.64l-2.3,-1.31l-1.97,1.97l-1.97,-1.97l-1.97,0.66l-4.92,6.24l-2.63,10.17l-2.63,2.3l-4.92,0.33l-5.25,-4.27l-6.89,-1.31l-0.33,-5.91l-4.92,-1.64l-2.95,-3.28l-2.63,-7.55l2.3,-7.22l2.63,-2.95l9.19,-3.94l0.66,-4.27l-2.65,-4.96l0,0l1.33,-1.6l0,0v-3.28l2.95,-0.66l4.92,0.66l1.64,1.97v-1.64l3.94,1.31l3.61,-2.3l3.28,-9.52l4.27,-1.97l2.95,3.94l2.95,-3.94l-3.61,-1.64l-0.18,-3.44l0,0l12.21,-2.08l3.25,-3.9l4.71,-1.63l9.4,-7.64l3.3,0.55L547.68,83.54zM191.55,9.75l0.77,1.22l2.75,-1.2l2.36,1.02l0.02,-2.28l-1.91,-1.33l1.14,-1.57l2.07,1.55l1.47,4.89l1.72,-1.04l0.17,-2.68l2.41,0.51l-1.67,4.63l4.04,-2.26l2.3,5.29l20.09,12.1l10.63,0.07l4.18,-9.36l1.91,2.77l3.68,-0.49l0.19,2.72l2.71,-0.15l0.09,3.14l5.29,3.16l8.47,0.73l4.96,-5.62l1.28,3.12l-0.84,4.16l6.51,-1.97l-1.28,6.01l2.97,-1.35l4.26,1.39l2.86,-4.62l0.88,4.64l3.38,-1.46l3.41,1.92l11.22,-6.19l13.52,10.63l4.58,0.91l9.91,8.35l7.43,-3l6.48,-5.17l-0.59,-5.92l5.13,-1.7l2.82,-6.12l3.19,-1.77l2.36,0.51l2.47,5.33l1.96,-3.67l3.4,0.04l2.52,4.71l-2.3,2.81l6.43,5.55l13.53,0.67l0,0l4.3,4.48l0,0l12.14,7.22l-1.31,5.58l4.59,-0.98l2.95,-5.25l0,0l4.92,1.31l1.31,-3.28l5.25,2.3l-0.33,-4.27h1.64l1.97,-3.28l4.67,-0.97l0,0l3.05,0.83l8.69,10.31l0,0l21.66,12.8l0,0l3.74,1.44l0,0l-2.43,5.78l-6.56,2.95l-0.99,3.28l-2.3,0.98l0.33,2.63l-5.58,9.85l0,0l-3.18,1.16l0,0l-7.32,-0.5l-1.31,-6.89l-6.24,-6.89l-0.98,-4.27l-3.94,-1.97l-0.98,1.31l-6.89,-0.66l1.31,2.63l-8.21,10.83l-1.64,6.56l1.64,2.95l-7.22,8.86l-7.22,0.66l-3.28,-1.31l-12.14,3.28l-2.63,2.3l1.31,3.94l-1.64,3.28l1.97,2.63l2.63,-1.64l4.92,4.27l5.58,-0.33l6.89,4.27l4.92,0.98l2.3,3.28l-0.99,1.64l4.92,4.59l5.25,-0.33l5.58,4.92l-4.59,5.25l-16.74,2.63l-7.22,-1.64l-1.31,-2.3l-12.47,0.66l-8.86,4.92l-0.98,-5.91l1.31,-4.27l-3.61,-2.95l1.64,-1.31l-2.95,-5.58l0.33,-8.2h-3.61l-4.59,-3.61l-10.83,1.31l-1.97,-2.3l-6.5,7.24l-3.35,6.87l5.91,14.11l4.59,6.56l1.97,8.53l-1.64,9.19l-4.27,4.92l-8.21,3.94l-14.11,2.63l-1.31,3.94l-4.27,1.31l-6.89,6.24l-3.61,-0.33l-7.22,6.24l-11.49,-1.97l-8.2,0.98l-1.97,-4.27l-9.19,-2.63l-0.66,-5.25l-4.59,-4.92l-12.47,-6.56l-1.31,3.28l-6.24,1.97l-5.58,-3.28l-3.94,-0.33l-1.97,2.3l1.64,12.14l-6.56,5.25v4.92l5.25,4.92l5.25,19.36l5.25,5.25l0.66,20.68l-3.97,6.38l-5.09,3.47l-16.41,1.31l-6.89,-4.92h-3.28l-5.25,-9.52l-17.07,-13.13l-1.97,-4.92l-4.27,-3.28l1.97,-2.3l-2.63,-2.63l-4.59,0.33l-5.58,-4.92l-3.28,-0.33l-12.14,-12.14l-10.17,-2.63l-9.19,-6.24l-6.24,-9.52l-13.88,-10.48l-3.45,-8.06l0.33,-6.24l12.14,-3.28l41.68,4.59l6.89,-0.66l4.92,-1.64l2.3,-2.63l1.31,-3.94l-3.28,-3.61l2.3,-6.89l-3.28,-2.3l-1.97,-4.27v-9.19l-8.53,-3.94l1.97,-8.2l-4.27,-13.78l-3.28,-3.94l-5.58,-3.28l-12.14,0.98l-4.59,-8.21l-3.94,1.97l-3.94,-2.3l-9.19,1.97l-13.46,-5.25l-7.88,11.49l-4.27,-0.98l-5.91,-9.52l-5.58,1.31l-10.83,-25.6l16.08,-3.61l-1.05,-3.49l0,0l2.19,2.33l12.11,-0.44l0.42,-6.29l4.04,-4.44l0.81,-5.74l2.39,-2.94l-1.25,-4.82l10.59,-6.7l1.69,-8.74l2.77,-5.98l3.18,-2.79l10.77,-0.35l2.93,-1.53l7.12,4.8l7.76,2.7l5.71,-2.35l13.05,5l4.49,-2.12l-1.3,-4.8l1.97,-1.35l-0.97,-2.06l5.87,-0.22L190.76,0l3.44,4.25l-2.58,2.59L191.55,9.75z"/>
		<path id="BA-BRC" title="Brčko distrikt" class="land" d="M512.44,93.3L512.62,96.75L516.23,98.39L513.27,102.32L510.32,98.39L506.05,100.35L502.77,109.87L499.16,112.17L495.22,110.86L495.22,112.5L493.58,110.53L488.66,109.87L485.71,110.53L485.71,113.81L485.71,113.81L484.07,115.78L484.07,115.78L482.1,115.78L480.46,118.73L479.47,115.12L470.61,116.76L465.03,122.67L459.45,123L456.83,120.05L447.64,121.03L442.71,115.12L444.03,113.48L443.04,111.84L439.43,109.54L442.06,108.23L441.4,106.92L437.14,104.62L437.46,101.34L442.39,101.67L446.98,98.39L446.98,98.39L450.59,97.07L450.59,97.07L456.17,87.23L455.84,84.6L458.14,83.62L459.12,80.34L465.69,77.38L468.12,71.6L468.12,71.6L468.64,71.8L468.64,71.8L470.61,72.13L470.61,72.13L477.17,69.83L477.17,69.83L477.5,68.52L477.5,68.52L480.75,68.11L483.88,73.21L481.66,74.98L475.51,73.54L478.67,78.1L477.38,81.39L486.62,87.95L489.82,92.15z"/>
	</g>
</svg>