<?xml version="1.0" encoding="utf-8"?>
<!-- (c) ammap.com | SVG map of Bulgaria - High -->
<svg xmlns="http://www.w3.org/2000/svg" xmlns:amcharts="http://amcharts.com/ammap" xmlns:xlink="http://www.w3.org/1999/xlink" version="1.1">
	<defs>
		<style type="text/css">
			.land
			{
				fill: #CCCCCC;
				fill-opacity: 1;
				stroke:white;
				stroke-opacity: 1;
				stroke-width:0.5;
			}
		</style>

		<amcharts:ammap projection="mercator" leftLongitude="22.356261" topLatitude="44.216661" rightLongitude="28.610539" bottomLatitude="41.235449"></amcharts:ammap>

		<!-- All areas are listed in the line below. You can use this list in your script. -->
		<!--{id:"BG-01"},{id:"BG-02"},{id:"BG-03"},{id:"BG-04"},{id:"BG-05"},{id:"BG-06"},{id:"BG-07"},{id:"BG-08"},{id:"BG-09"},{id:"BG-10"},{id:"BG-11"},{id:"BG-12"},{id:"BG-13"},{id:"BG-14"},{id:"BG-15"},{id:"BG-16"},{id:"BG-17"},{id:"BG-18"},{id:"BG-19"},{id:"BG-20"},{id:"BG-21"},{id:"BG-22"},{id:"BG-23"},{id:"BG-24"},{id:"BG-25"},{id:"BG-26"},{id:"BG-28"},{id:"BG-27"}-->

	</defs>
	<g>
		<path id="BG-01" title="Blagoevgrad" class="land" d="M110.46,284.93L113.11,283.95L116.27,284.7L118.87,282.67L120.16,280.45L121.59,272.58L122.77,271.07L125.16,270.98L126.48,271.88L129.34,271.07L131.26,274.9L134.64,276.43L136.17,276.51L137.17,275.7L135.84,273.3L136.37,271.97L139.09,271.97L139.09,271.97L138.09,274.38L138.36,276.95L140.57,278.28L140.28,281.9L141.97,286.96L141.62,289.66L143.98,291.5L143.92,292.12L140.04,293.83L136.83,297.13L136.48,298.42L138.95,315.62L141.3,318.26L147.32,320.38L157.65,327.04L165.16,334.65L170.98,339.22L170.98,339.22L172.04,341.49L168.87,345.94L169.22,349.22L166.76,355.28L166.89,358.15L166.89,358.15L166.72,363.17L167.93,365.71L165.61,367.55L163.28,367.38L162.46,365.65L158.1,369.47L155.24,367.91L154.01,365L152.28,363.95L151.63,366.86L150.15,367.88L148.93,367.44L146.75,367.99L146.14,369.21L141.19,369.65L140.09,372.44L137.83,374.94L137.19,374.15L134.29,373.45L130.82,373.9L128.85,373.14L126.39,375.11L125.97,377.19L123.16,377.62L121.34,377.38L119.55,375.72L116.63,376.13L114.43,373.87L110.41,374.63L105.72,373.67L104.09,374.57L102.42,374.26L96.39,379.04L94.4,374.49L90.6,374.42L88.11,376.76L85.64,377.7L85.07,378.75L85.5,381.18L83.13,384.34L76.5,385.82L71.21,385.69L65.67,383.05L63.61,383.73L57.05,382.48L56.67,382.16L57.86,380.8L59.54,380.39L59.2,376.96L59.72,375.24L58.3,372.16L60.91,368.44L59.53,366.17L59.8,364.75L59.18,364.46L58.93,362.15L59.95,360.93L60.05,359.35L58.92,356.81L60.05,355.75L60.32,353.42L59.59,351.14L58.31,350.06L58.52,346.03L57.89,344.12L58.93,342.35L61.44,342.17L61.16,341.1L62.28,338.92L66.24,333.91L66.05,331.47L63.92,326.6L59.48,325.67L59.57,323.86L57.19,320.03L56.77,316.1L54.75,312.31L53.42,312.2L52.68,307.11L50.72,304.47L51.03,299.23L50.86,296.57L49.92,295.63L50.17,294.19L50.17,294.19L54.09,292.3L56.18,282.69L58.06,281.32L59.03,282.41L60.54,287.31L64.29,287.14L66.54,290.08L76.01,287.7L80.84,283.28L82.06,283L94.35,287.11L97.71,287.38L100.75,289.57L107.43,287.76z"/>
		<path id="BG-02" title="Burgas" class="land" d="M464.56,172.77l5.98,-3.33l9.9,0.96l3.05,1.19l6.29,5.43l5.07,3.31l5.57,-0.69l2.35,1.6l4.41,-2.99l9.97,1.57l4.68,-0.27l2.27,0.79l-0.65,1.76l0.37,0.87l4.94,2.9l4.1,1.02l4.35,-1.54l3.56,0.21l0,0l1.76,8.65l-1.13,2.86l1.21,4.69l-0.33,1.99l-16.67,-1.01l-1.2,1.74l-0.4,2.67l1.31,1.72l1.67,0.38l-2.1,0.16l-0.85,1.67l-1.83,-0.77l-1.49,1.92l-2.85,-0.3l-1.37,2.07l-0.06,5.94l1.64,3.11l-0.69,0.2l-2.61,-1.57l-1.63,0.89l-1.63,-0.75l-2.38,1.76l-2.08,-1.1l-1.91,0.48l-2.72,3.68l-0.71,5.73l-0.89,-0.74l-0.33,0.37l-0.6,-0.28l-0.61,0.73l-0.17,-0.57l-0.79,0.98l-0.08,2.35l1.67,1.68l0.03,0.99l-0.69,0.59l0.96,1.6l0.93,-0.99l-0.85,-1.15l0.99,-2.63l3.57,4.31l1.48,-1.18l0.87,-2.51l2.17,1.34l1.74,0.13l-0.24,-1l0.85,-1.28l2.35,2.44l1.6,-0.36l0.17,-1.55l0.95,1.47l1.39,-0.32l-0.35,1.51l0.59,0.44l-0.82,1.68l1.45,1.56l1.5,0.3l1.51,-1.24l0.32,-0.88l0.45,-0.21l-0.24,0.86l0.71,0.08l0.15,1.31l2.39,-0.1l-0.45,1.41l-1.6,0.32l0.1,1.72l1.41,0.82l-1.29,0.87l0.15,1.15l2.51,4.46l1.69,0.24l0.32,-0.91l2.67,-0.25l-0.38,1.62l-0.89,0.4l2.1,1.79l-2.37,0.91l0.29,0.7l-1.7,1.04l-0.02,1.34l1.04,1.54l-1.24,0.36l0.01,1.9l2.21,0.78l0.87,0.95l-0.6,0.08l-0.02,1.17l3.84,2.45l1.15,1.8l0.98,0.08l0.39,1.67l1.53,0.94l-0.57,1l0.89,0.11l0.5,0.95l0.67,-0.34l0.26,1.53l1.86,0.86l1.53,2.09l0.31,2.06l1.28,1.1l1.88,-0.18l1.68,2.76l0.49,2.71l0.04,-0.87l2.18,0.96l-0.49,1l2.58,3.32l-0.35,0.68l2.18,3.22l0.32,1.89l-2.54,0.73l-3.04,-1.47l-1.67,1.69l-0.39,-0.68l-1.42,0.6l-0.71,-0.96l-0.4,1.01l-0.7,-0.69l-1.06,1.31l-1.1,-1.18l-0.09,-1.42l-2.1,-0.34l-1.78,-1.43l0.21,1.33l-0.6,0.56l-0.45,-1.47l-0.63,1.61l-1.35,-1l-1.17,1.54l-0.01,1.27l0.69,0.35l-0.53,1.35l1.22,0.18l0.24,1.89l-2.02,-0.8l-0.01,1.55l-1.15,-1.4l-0.92,0.67l-0.29,-0.84l-1.19,0.17l0.69,-1.47l-0.86,-0.21l-0.45,0.85l-0.54,-1.1l-2.28,-0.05l0.55,-0.54l-1.08,-0.98l-0.45,0.8l-3.36,-0.58l0.47,0.91l-1.75,-0.06l-1.3,2.07l-0.26,-0.8l-1,0.73l-0.34,-0.77l-1.31,0.85l-0.38,-0.58l-0.4,0.54l-1.15,-0.47l0.73,1.1l-1.43,1.31l-0.67,0.18l-0.25,-1.1l-1.58,2.12l-0.11,-0.71l-1.32,-0.07l-0.73,1.77l0.91,0.51l-1.32,0.59l0.95,1.19l-1.13,0.24l-2.03,-1.58l-3.03,-5.6l-0.77,0.85l-3.19,-0.81l-0.35,-1.22l-1.78,0.03l-1.62,-3.04l-1.49,0.05l-0.65,-1.36l-1.7,-0.51l-2.57,-6.67l-3.11,-0.41l-0.98,-2.76l-0.85,0.21l-0.58,-1.02l-1.15,-0.09l-0.66,-1.33l-1.66,0.05l-0.54,-0.87l-2.01,0.53l-0.93,-0.74l-1.77,0.87l-0.6,1.8l-1.68,0.71l0.3,2.56l-1.49,-0.42l-0.47,-0.95l-1.24,0.66l-1.48,-0.91l-2.12,0.64l-2.25,-2.51l-4.01,-0.91l-2.98,1.34l0,0l-2.22,-2.98l-5.12,-3l-2.7,-3.63l-0.34,-2.12l2.79,-3.29l-0.16,-1.61l-2.32,-4.6l0.03,-1.65l1.56,-3.4l-2.5,-1.87l-1.81,-3.93l-3.54,-3.03l-0.97,-4.24l1.28,-1.52l7.2,-1.23l1.84,-2.28l0.07,-2.48l-0.84,-0.85l-4.23,1.18l-1.98,-0.88l-1.34,-3.89l-2.54,-3.05l-1.6,-4.4l-3.34,-4.21l-3.86,-8.94l-3.69,-3.39l-4.53,-5.96l0,0l0.37,-3.62l-2.91,-5.52l-1.37,-1.29l-3.98,-0.45l-2.73,-3.35l-0.03,-2.96l1.13,-2.97l-1.98,-7.05l0.44,-2.58l-3.11,-0.05l0,0l1.68,-0.83l4.57,0.59l0.64,0.72l-1.05,1.86l0.92,1.36l7.6,-0.07l6.32,-4.47l4.95,0.25l3.08,-0.61l3.91,1.64l5.55,-1.09l1.23,0.32l1.8,2.89l2.01,0.57l7.24,-3.89L464.56,172.77z"/>
		<path id="BG-03" title="Varna" class="land" d="M496.07,84.94L498.9,86.76L501.75,90.49L502.58,96.18L503.4,97.06L505.8,97L511.6,92.28L513.68,92.01L515.52,93.66L515.55,98.79L520.72,101.39L526.02,101.14L528.06,105.19L530.27,106.97L538.27,116.97L539.54,116.5L544.01,111.29L548.13,111.5L549.61,112.1L552.77,115.53L555.45,120.6L557.7,122.48L557.7,122.48L555.9,128.64L552.81,134.38L546.7,135.6L544.92,136.76L544.67,138.76L544.45,137.71L543.03,137.83L544.17,138.25L543.35,139.09L543.99,140.67L546.89,140.87L547.08,141.43L543.77,155.58L541.44,158.72L541.45,163.74L543.04,173.23L542.1,175.03L542.7,183.12L541.42,183.52L540.79,185.54L540.79,185.54L537.23,185.33L532.88,186.87L528.78,185.85L523.84,182.95L523.46,182.08L524.11,180.33L521.84,179.54L517.16,179.81L507.19,178.24L502.77,181.23L500.43,179.64L494.86,180.33L489.79,177.01L483.49,171.58L480.44,170.4L470.54,169.44L464.56,172.77L464.56,172.77L464.84,168.86L463.15,167.92L462.55,165.24L459.63,164.13L459.81,163.28L461.03,162.73L462.49,160.74L465.96,160.74L468.57,159.34L476.03,157.85L474.47,152.68L474.47,152.68L474.47,149.1L474.47,149.1L472,146.4L473,142.59L481.98,137.29L480.13,133.22L479.93,129.32L478.83,126.88L478.44,123.29L478.89,122.1L481.64,122.98L483.56,121.26L483.2,116.47L482.29,113.76L482.55,110.43L487.64,102.71L487.18,100.94L485.3,100.53L487.22,96.97L487.22,95.5L484.57,94.32L484.58,90.78L485.29,89.99L488.03,89.76L494.11,87.74L495.35,86.88z"/>
		<path id="BG-04" title="Veliko Tarnovo" class="land" d="M296.17,81.02L302.22,79.69L302.22,79.69L304.55,81.61L306,81.56L307.08,80.42L307.43,82.81L305.71,85.1L305.51,86.64L309.15,95.84L311.05,97.08L311.68,99.04L313.41,99.59L314.31,100.73L314.4,103.11L312.85,106.98L322.69,112.36L325.69,109.95L327.17,109.8L331.15,113.45L334.51,115.03L339.06,114.79L344.8,117.05L349.39,115.19L351.27,119.65L356.25,120.77L356.25,120.77L362.89,127.13L361.94,130.03L364.26,131.93L364.51,133.31L366.83,135.68L367.25,137.02L367.2,138.74L364.09,140.91L363.45,144.45L362.17,147.06L361.8,153.76L362.61,157.19L363.26,158.64L366.89,161.72L366.44,163.18L363.7,164.61L363.17,166.54L374.32,170.45L374.32,170.45L371.68,174.47L360.23,180.55L359.73,181.58L360.86,183.64L360.54,186.15L353.72,191.57L352.25,191.65L348.11,190.1L342.28,191.54L337.03,190.57L337.03,190.57L334.31,190.85L330.4,190.14L324.1,192.47L321.01,194.5L321.01,194.5L318.08,192.18L317.5,188.8L315.86,185.98L317.11,184.21L319.74,182.42L320.08,180.37L318.05,179.37L317.98,175.74L313.75,175.2L311.75,173.06L311.84,168.33L315.86,164.48L316.02,163.08L315.22,161.65L311.25,160.6L308.62,158.38L306.47,158.81L302.36,157.03L299.07,157.74L296.62,155.63L289.6,155.98L288.84,153.95L290.19,149.72L289.16,148.45L286.45,148.48L281.44,150.77L275.21,149.16L272.2,145.23L269.09,143.12L268.57,139.22L268.57,139.22L270.71,139.52L271.99,138.62L272.1,134.78L274.92,130.59L275.16,127.13L275.16,127.13L282.35,119.81L283.4,116.29L282.61,114.18L278.72,113.42L278.95,111.2L280.31,108.31L279.79,106.79L272.87,107.54L271.92,107.07L271.58,105.46L272.68,103.64L278.15,101.81L279.24,100.63L280.57,92.28L278.14,88.25L279.52,85.55L279.83,81.87L278.65,77.84L279.8,75.9L284.39,73.04L284.39,73.04L292.46,79.92z"/>
		<path id="BG-05" title="Vidin" class="land" d="M31.51,0.53L33.05,1.7L38.02,2.46L44.08,8.2L49.94,11.19L55.14,15.21L65.43,17.05L66.9,18.35L67.32,22.19L63.94,27.89L56.18,29.19L53.68,30.21L51.33,32.4L47.37,45.46L48.88,50.13L50.95,52.05L57.64,53.83L59.9,55.21L68.24,57.25L68.24,57.25L67.42,58.98L66.43,59.45L58.41,60.49L58.21,62.57L58.78,63.33L67.25,66.58L68.06,67.65L68.37,70.04L67.42,71.21L62.88,72.03L55.59,75.78L53.76,78.31L51.51,86.44L47.97,89.99L44.95,97.08L41.44,98.79L40.62,99.91L40.16,106.09L38.09,110.15L36.53,111.36L36.53,111.36L31.57,111.08L30.66,110.15L29.66,106.7L23.73,105.5L21.53,101.92L19.11,101.88L17.46,100.85L12.88,88.36L13.35,83.31L11.97,80.47L13.11,78.13L11.86,75.83L9.18,74.93L6.57,72.81L4.94,70.35L4.46,67.18L3.64,65.96L4.27,62.03L2.11,59.9L0,54.91L2.8,47.04L3.58,41.75L3.02,39.37L4.92,37.59L4.95,31.74L5.66,30.43L5.13,28.83L8.08,27.99L8.52,27.08L16.83,26.62L18.26,24.76L17.27,22.4L20.04,21.58L21.74,22.03L22.25,20.86L25.84,20.74L26.12,19.46L25.3,18.73L25.77,16.18L24.82,14.79L25.73,9.18L26.56,9.47L26.57,7.9L25.12,6.86L25.77,5.66L26.36,6.05L27.25,5.51L26.48,4.34L27.7,4.11L27.33,3.51L28.29,2.3L28.15,0.99L29.05,1.52L30.14,0.2L30.63,1.28L31.01,0z"/>
		<path id="BG-06" title="Vratsa" class="land" d="M153.45,63.94L158.17,64.22L166.49,67.53L169.54,69.94L177.83,72.49L190.6,70.37L194.55,70.41L194.55,70.41L192.44,79.94L190.78,78.88L190.41,80.9L188.6,78.34L186.86,78.45L181.16,85.7L177.93,84.4L176.56,85.2L178.18,90.65L178.33,98.13L185.28,101.07L184.05,103.27L183.66,107.91L182.23,108.22L180.56,107.6L173.32,109.21L172.45,109.96L172.68,111.24L171.51,114.44L160.55,115.41L158.19,117.15L156.37,132.4L157.68,134.3L158.44,134.41L162.48,133.15L164.48,135.54L164.48,135.54L165.44,148.15L160.01,148.14L160.11,154.8L160.11,154.8L160.21,157.73L159.13,158.81L154.33,156.37L144.75,156.11L142.2,154.22L138.38,155.03L132.85,158.51L131.53,158.51L127.81,156.11L118.03,164.73L115.38,163L109.48,154L108.63,148.88L112.4,143.58L112.22,142.27L109.82,141.39L103.59,140.83L103.59,140.83L102.53,138.53L102.5,135.57L103.9,133.85L107.6,133.9L108.2,132.56L107.84,130.43L104.52,128.2L97.7,126.78L95.34,124.99L95.26,123.56L100.57,118.19L104.39,110.79L103.8,103.97L107.67,97.7L109.52,96.81L112.36,97.94L117.84,98.54L120.53,94.36L125.15,94.36L124.49,91.05L120.42,87.67L119.7,86.25L120.35,84.2L123.46,80.96L126.06,74.77L126.38,66.84L124.88,62.05L125.37,57.59L125.37,57.59L130.46,56.22L134.43,56.1L136.63,56.85L137.91,58.75L142.47,60.17L146.09,62.22z"/>
		<path id="BG-07" title="Gabrovo" class="land" d="M268.57,139.22L269.09,143.12L272.2,145.23L275.21,149.16L281.44,150.77L286.45,148.48L289.16,148.45L290.19,149.72L288.84,153.95L289.6,155.98L296.62,155.63L299.07,157.74L302.36,157.03L306.47,158.81L308.62,158.38L311.25,160.6L315.22,161.65L316.02,163.08L315.86,164.48L311.84,168.33L311.75,173.06L313.75,175.2L317.98,175.74L318.05,179.37L320.08,180.37L319.74,182.42L317.11,184.21L315.86,185.98L317.5,188.8L318.08,192.18L321.01,194.5L321.01,194.5L320.82,196.16L318.49,197.12L315.26,194.32L312.35,196.53L310.52,196.71L306.97,195.91L304.09,192.99L300.95,192.75L301.38,196.37L300.22,197.4L288.3,194.1L284.6,194.66L278.36,190.89L275.52,193.08L272,193.35L267.78,195.86L260.59,194.95L260.59,194.95L261.11,190.86L258.28,185.28L253.76,179.22L249.99,178.2L248.82,176.83L247.11,171.01L247.11,167.1L248.28,163.3L250.04,160.78L254.51,159.2L254.46,155.83L253.46,153.4L253.53,149.48L254.56,147.18L257.34,145.27L257.06,136.32L262.75,138.38z"/>
		<path id="BG-08" title="Dobrich" class="land" d="M547.41,34.92L551.69,50.6L563.23,56.6L575.43,62.06L586.26,62.88L595.98,65.41L608.99,64.71L608.45,66.73L608.93,69.27L607.52,71.52L608.02,76.04L609.02,78.17L608.01,83.27L612,91.29L610.85,95.14L606.7,103.68L602.59,108.36L601.01,108.86L598.39,112.54L597.98,115.48L596.15,112.63L592.83,111.73L590.14,109.55L585.1,107.97L579.28,108.36L576.63,109.76L571.74,110.48L567.54,109.4L561.15,113.68L557.7,122.48L557.7,122.48L555.45,120.6L552.77,115.53L549.61,112.1L548.13,111.5L544.01,111.29L539.54,116.5L538.27,116.97L530.27,106.97L528.06,105.19L526.02,101.14L520.72,101.39L515.55,98.79L515.52,93.66L513.68,92.01L511.6,92.28L505.8,97L503.4,97.06L502.58,96.18L501.75,90.49L498.9,86.76L496.07,84.94L496.07,84.94L493.48,80.19L492.37,80.25L486.53,84.24L485.03,83.66L480.77,77.73L476.25,77.1L473.76,74.14L473.76,74.14L475.3,73.91L475.67,73.06L475.71,71.68L474.39,69.01L474.6,66.94L481.56,58.99L487.26,57.79L496.97,48.64L498.16,48.4L500.19,50.71L502.18,50.34L505.22,46.69L507.16,41.78L509.62,44.42L512.67,44.8L512.68,42.02L516.41,36.67L518.56,34.97L523.37,33.31L523.37,33.31L524.01,34.9L526.43,35.63L537.08,33.9L544.19,28.26L546.84,31.54z"/>
		<path id="BG-09" title="Kardzhali" class="land" d="M286.57,304.32L285.25,308.75L288.36,321.05L290.27,318.88L291.69,318.34L292.62,316.22L293.88,315.9L296.23,321.54L300.17,323.05L303.61,325.71L312.09,328.32L316.8,326.3L318.01,326.57L320.22,329.35L321.12,335.27L323.19,339.41L322.8,342.2L321.81,343.93L322.83,346.51L325.22,344.98L328.96,346.64L331.7,344.81L332.5,342.53L334.46,341.67L340.3,342.45L341.95,347.79L339.53,349.04L337.76,351.06L335.83,357.5L335.95,359.79L338.08,360.73L339.76,363.32L341.14,363.98L340.31,367.29L340.49,370.71L348.95,378.77L349.97,380.54L350.44,384.75L350.44,384.75L347.62,386.34L345.26,386.74L343.88,385.65L344.07,383.71L342.32,383.79L339.39,381.3L338.7,382.58L336.05,383.12L334.95,384.61L333.28,384.19L331.75,385.36L329.24,385.08L327.96,388.48L325.68,386.52L323.13,385.56L318.74,386.84L313.63,385.13L311.97,386.32L310.65,390.31L307.89,389.13L305.23,388.94L300.92,390.63L300.53,391.88L299.31,391.71L296.23,392.93L294.62,392.52L291.51,394.91L287.9,394.37L286.64,395.74L284.61,394.51L281.47,394.16L280.39,389.9L278.83,388.39L276.66,387.57L276.33,386.18L275.29,385.67L275.29,385.67L275.61,383.38L273.58,382.32L273.35,378.61L272.4,376.57L276.15,371.75L275.72,370.76L273.8,371.03L273.13,370.45L274.44,365.84L273.74,363.38L272.8,362.04L270.01,360.79L264.47,363.45L259.42,361.57L259.16,358.12L257.57,353.43L257.4,351.5L258.4,350.21L265.56,347.59L267.66,345.14L267.39,339.02L268.68,334.25L266.53,328.37L265.79,325.25L266.19,324.06L266.19,324.06L268.39,322.99L270.19,320.36L271.97,319.4L273.67,314.91L277.29,309.82z"/>
		<path id="BG-10" title="Kyustendil" class="land" d="M11.5,206.57L13.27,207.39L15.51,209.92L19.2,210.68L21.45,211.89L22.8,217.2L25.06,221.38L30.66,224.35L31.08,230.67L35.29,237.31L36.53,241.88L37.55,242.52L42.23,242.9L44.34,246.06L47.19,246.06L47.62,248.76L48.56,249.14L50.61,247.06L51.92,247.38L53.56,249.53L54.77,249.53L56.03,245.87L59.36,244.73L60.39,242.65L61.55,241.95L63.52,242.4L64.55,244.29L68.33,246.24L71.45,245.71L73.73,241.96L74.53,241.8L75.59,246.17L79.01,247.6L81.29,249.43L84.4,249.87L87.38,247.61L87.38,247.61L90.03,248.75L93.49,248.55L95.8,249.24L98.1,256.32L104.65,261.63L104.65,262.99L99.75,264.81L97.27,270.74L97.53,271.56L99.15,272.32L105.73,270.15L107.44,275.78L114.55,278.83L114.34,281.23L112.43,281.92L110.46,284.93L110.46,284.93L107.43,287.76L100.75,289.57L97.71,287.38L94.35,287.11L82.06,283L80.84,283.28L76.01,287.7L66.54,290.08L64.29,287.14L60.54,287.31L59.03,282.41L58.06,281.32L56.18,282.69L54.09,292.3L50.17,294.19L50.17,294.19L49.81,293.27L48.54,292.79L45.87,293.23L43.42,290.16L41.16,291.15L37.03,290.07L35.07,287.32L31.2,287.63L26.49,283.68L23.83,283.2L22.76,281.7L20.62,280.78L18.7,278.51L17.07,277.91L15.3,276.15L14.27,270.7L11.15,269.62L9.07,264.19L7.54,262.28L6.63,262.28L4.45,259.22L4.27,257.87L2.15,255.5L0.46,254.88L0.88,253.76L4.14,253.25L4.76,252.49L6.68,252.51L7.48,253.54L9.38,252.22L10.3,250.69L10.01,248.59L12.05,246.11L11.87,244.29L15.9,243.61L16.16,241.6L17.34,240.4L18.21,235.13L19.66,232.88L18.46,229.15L16.05,226.69L13.72,225.48L11.02,222.14L7.94,221.41L8.09,218.6L10.66,211.83L9.6,210.8L11.58,207.93z"/>
		<path id="BG-11" title="Lovech" class="land" d="M164.48,135.54L165.98,134.8L171.48,134.22L174.67,131.73L177.98,130.81L184.34,132.47L190.44,131.85L194.52,129.91L196.32,130.03L199.69,126.43L200.83,128.58L203.65,129.2L207.05,132.49L224.53,134.73L225.27,133.2L225.09,128.72L225.64,127.62L228.8,131.09L231.22,126.68L235.74,123.04L239.7,121.35L244.28,121.59L246.9,123.43L251.56,125.09L254.4,123.41L256.61,123.41L260.29,119.82L262.78,114.31L264.29,114.82L266.26,121.08L267.38,122.54L272.74,124.99L275.16,127.13L275.16,127.13L274.92,130.59L272.1,134.78L271.99,138.62L270.71,139.52L268.57,139.22L268.57,139.22L262.75,138.38L257.06,136.32L257.34,145.27L254.56,147.18L253.53,149.48L253.46,153.4L254.46,155.83L254.51,159.2L250.04,160.78L248.28,163.3L247.11,167.1L247.11,171.01L248.82,176.83L249.99,178.2L253.76,179.22L258.28,185.28L261.11,190.86L260.59,194.95L260.59,194.95L250.89,199.22L248.7,199.16L244.69,197.36L235.51,198.88L232.86,198.11L230.55,193.74L226.33,190.42L213.56,188.91L209.86,193.47L200.58,193.64L200.58,193.64L190.69,190.79L185.29,191.22L178.32,189.94L178.11,188.59L181.37,186.42L181.42,184.64L182.36,183.1L179.75,181.14L179.37,176.4L176.24,174.19L176.92,172.83L179.37,171.03L172.53,167.37L171.67,161.09L166.78,158.65L166.2,155.11L160.11,154.8L160.11,154.8L160.01,148.14L165.44,148.15z"/>
		<path id="BG-12" title="Montana" class="land" d="M104.79,49.8L109.18,51.49L113.34,52.03L116.36,55.2L120.04,57.1L123.98,57.99L125.37,57.59L125.37,57.59L124.88,62.05L126.38,66.84L126.06,74.77L123.46,80.96L120.35,84.2L119.7,86.25L120.42,87.67L124.49,91.05L125.15,94.36L120.53,94.36L117.84,98.54L112.36,97.94L109.52,96.81L107.67,97.7L103.8,103.97L104.39,110.79L100.57,118.19L95.26,123.56L95.34,124.99L97.7,126.78L104.52,128.2L107.84,130.43L108.2,132.56L107.6,133.9L103.9,133.85L102.5,135.57L102.53,138.53L103.59,140.83L103.59,140.83L97.19,140.46L94.96,142.18L92.8,145.21L88.66,145.31L84.46,146.62L73.32,146.55L71.02,145.17L67.97,140.72L64.03,138.53L61.53,135.25L59.66,135.13L56.98,136.58L56.98,136.58L52.88,133.65L50.21,129.48L50.08,128.2L48.15,127.04L47.8,124.14L45.99,119.67L42.99,117.97L40.54,115.21L40.18,113.41L36.53,111.36L36.53,111.36L38.09,110.15L40.16,106.09L40.62,99.91L41.44,98.79L44.95,97.08L47.97,89.99L51.51,86.44L53.76,78.31L55.59,75.78L62.88,72.03L67.42,71.21L68.37,70.04L68.06,67.65L67.25,66.58L58.78,63.33L58.21,62.57L58.41,60.49L66.43,59.45L67.42,58.98L68.24,57.25L68.24,57.25L77.03,55.67L84.46,51.95L89.61,50.41z"/>
		<path id="BG-13" title="Pazardzhik" class="land" d="M139.09,271.97L142.46,268.57L146.85,265.99L151.99,259.18L154.17,261.92L157.36,260.21L157.64,259L155.89,255.54L157.89,249.35L159.16,248.46L163.15,248.01L165.04,246.35L168.73,238.61L168.55,236.29L167.27,235.4L162.23,237.58L160.15,237.64L158.68,236.54L154.93,230.6L153.56,223.09L154.13,221.49L159.92,220.21L164.13,222.97L166.31,223.16L172.35,216.62L175.15,217.17L177.1,216.71L178.2,211.79L182.47,211.41L187.04,209.43L189.91,211.05L193.17,211.85L195.1,219.29L196.33,221.54L199.21,219.84L201.76,222.22L201.76,222.22L201.92,224.88L201.16,226.88L197.93,230.28L197.38,232.94L201.17,242.27L201.57,246.07L206.11,251L206.3,255.01L204.43,256.54L206,261.22L206.15,267.41L206.52,269.14L210.92,274.85L211.4,276.62L210.66,277.86L208.02,277.66L205.59,278.89L205.38,283.97L204.06,287.59L205.02,292.75L204.69,297.46L202.15,305.38L202.15,305.38L201.86,309.68L200.83,312.3L199.66,313.85L194.94,315.88L192.55,319.09L191.86,323.29L192.77,327.6L191.18,327.98L189.83,329.88L186.92,331.48L181.05,330.01L172.19,331.22L170.98,339.22L170.98,339.22L165.16,334.65L157.65,327.04L147.32,320.38L141.3,318.26L138.95,315.62L136.48,298.42L136.83,297.13L140.04,293.83L143.92,292.12L143.98,291.5L141.62,289.66L141.97,286.96L140.28,281.9L140.57,278.28L138.36,276.95L138.09,274.38z"/>
		<path id="BG-14" title="Pernik" class="land" d="M26.02,178.08L27.73,180.12L29.41,179.5L31.08,180.35L31.68,181.57L33.29,179.33L34.14,179.93L34.93,178.96L37.57,179.17L38.85,177.91L38.85,177.91L39.98,179.02L40.63,182.38L44.64,182.1L46.08,183.5L47.82,187.31L52.59,188.06L55.48,190.7L59.74,191.47L61.72,194.61L67.06,196.91L68.41,199.04L68.41,199.04L69.53,201.29L72.75,203.05L74.73,206.45L77.04,207.27L78.72,208.89L79.89,215.33L78.94,217.53L83.46,218.31L87.25,223.99L89.84,223.45L90.09,225.09L90.09,225.09L88.16,227.69L86.24,234.27L86.48,242.44L87.38,247.61L87.38,247.61L84.4,249.87L81.29,249.43L79.01,247.6L75.59,246.17L74.53,241.8L73.73,241.96L71.45,245.71L68.33,246.24L64.55,244.29L63.52,242.4L61.55,241.95L60.39,242.65L59.36,244.73L56.03,245.87L54.77,249.53L53.56,249.53L51.92,247.38L50.61,247.06L48.56,249.14L47.62,248.76L47.19,246.06L44.34,246.06L42.23,242.9L37.55,242.52L36.53,241.88L35.29,237.31L31.08,230.67L30.66,224.35L25.06,221.38L22.8,217.2L21.45,211.89L19.2,210.68L15.51,209.92L13.27,207.39L11.5,206.57L11.5,206.57L10.1,205.24L11.18,204.68L12.93,200.92L13.81,200.77L14.1,198.38L10.25,193.48L9.85,191.58L8.42,189.7L8.28,187.34L11.62,186.26L14.68,183.8L15.6,182.75L15.96,180.62L17.33,179.77L21.25,181.94L21.22,180.21L22.22,178.27z"/>
		<path id="BG-15" title="Pleven" class="land" d="M232.65,72.26L234.88,71.84L239.76,68.77L247.56,69.31L251.4,67.69L252.42,66.6L254.89,66.18L258.67,66.51L264.29,71.19L268.58,72.23L270.47,72.05L272.6,70.78L276.7,70.31L284.39,73.04L284.39,73.04L279.8,75.9L278.65,77.84L279.83,81.87L279.52,85.55L278.14,88.25L280.57,92.28L279.24,100.63L278.15,101.81L272.68,103.64L271.58,105.46L271.92,107.07L272.87,107.54L279.79,106.79L280.31,108.31L278.95,111.2L278.72,113.42L282.61,114.18L283.4,116.29L282.35,119.81L275.16,127.13L275.16,127.13L272.74,124.99L267.38,122.54L266.26,121.08L264.29,114.82L262.78,114.31L260.29,119.82L256.61,123.41L254.4,123.41L251.56,125.09L246.9,123.43L244.28,121.59L239.7,121.35L235.74,123.04L231.22,126.68L228.8,131.09L225.64,127.62L225.09,128.72L225.27,133.2L224.53,134.73L207.05,132.49L203.65,129.2L200.83,128.58L199.69,126.43L196.32,130.03L194.52,129.91L190.44,131.85L184.34,132.47L177.98,130.81L174.67,131.73L171.48,134.22L165.98,134.8L164.48,135.54L164.48,135.54L162.48,133.15L158.44,134.41L157.68,134.3L156.37,132.4L158.19,117.15L160.55,115.41L171.51,114.44L172.68,111.24L172.45,109.96L173.32,109.21L180.56,107.6L182.23,108.22L183.66,107.91L184.05,103.27L185.28,101.07L178.33,98.13L178.18,90.65L176.56,85.2L177.93,84.4L181.16,85.7L186.86,78.45L188.6,78.34L190.41,80.9L190.78,78.88L192.44,79.94L194.55,70.41L194.55,70.41L197.79,68.48L200.5,65.3L210.8,61.67L222.37,64.45L228.35,70.24z"/>
		<path id="BG-16" title="Plovdiv" class="land" d="M200.58,193.64L209.86,193.47L213.56,188.91L226.33,190.42L230.55,193.74L232.86,198.11L235.51,198.88L244.69,197.36L248.7,199.16L250.89,199.22L260.59,194.95L260.59,194.95L260.59,194.95L260.59,194.95L259.57,197.3L260.02,209.06L256.84,216.14L258.61,223.64L261.6,228.9L265.04,230.28L267.13,230.28L275.48,226.71L276.9,227.38L277.8,230.24L277.4,232.79L273.25,236.98L273.41,238.3L276.17,241.42L276.12,243.31L275.3,243.67L272.01,242.32L271.3,243.92L271.29,256.12L272.37,256.09L275.24,258.03L275.89,259.56L268.29,262.29L265.98,263.84L264.92,268.82L265.36,272.4L267.63,274.56L272.44,276.35L277.51,274.74L281.86,274.8L285.68,272.33L288.5,276.6L292.69,280.36L292.69,280.36L288.71,290.7L289.36,294.75L289.13,301.16L286.57,304.32L286.57,304.32L277.29,309.82L273.67,314.91L271.97,319.4L270.19,320.36L268.39,322.99L266.19,324.06L266.19,324.06L262.83,321.04L261.45,318.37L260.27,318.23L258.41,319.9L258.11,326.49L254.34,330.86L251.2,331.62L247.46,330.65L245.64,333.55L243.21,334.52L241.3,337.61L238.25,331.03L238.31,328.88L239.57,326.07L238.79,325.73L238.21,323.73L236.63,325.07L235.3,322.62L236.79,320.72L237.71,315.61L237.55,313.83L235.63,311.48L234.57,310.85L230.83,311.33L225.23,309.92L217.79,312.83L213.83,313.12L212.49,312.27L209.11,306.98L206.42,307.27L202.15,305.38L202.15,305.38L204.69,297.46L205.02,292.75L204.06,287.59L205.38,283.97L205.59,278.89L208.02,277.66L210.66,277.86L211.4,276.62L210.92,274.85L206.52,269.14L206.15,267.41L206,261.22L204.43,256.54L206.3,255.01L206.11,251L201.57,246.07L201.17,242.27L197.38,232.94L197.93,230.28L201.16,226.88L201.92,224.88L201.76,222.22L201.76,222.22L207.52,221.21L209.89,215.11L204.82,210.07L198.71,207.58L197.01,205.76L196.65,202.64z"/>
		<path id="BG-17" title="Razgrad" class="land" d="M392.44,37.78L398.88,37.54L401.65,38.34L404,42.12L410.73,41.32L413.23,44.63L414.02,48.96L421.27,51.3L424.73,51.51L426.77,52.75L429.42,52.15L430.69,54.37L431.45,54.57L435,50.91L438.77,55.52L443.18,56.89L446.02,62.22L449.53,62.6L450.9,66.68L455.07,70.56L455.07,70.56L456.05,72.1L456,75.17L454.53,77.38L450.24,79.5L448.99,82.42L447.02,83.57L444.41,83.61L441.31,81.95L440.37,86.18L434.65,91.04L434.21,93.15L435.39,93.49L434.96,97.09L431.32,99.73L431.39,101.5L428.92,102.44L428.44,103.39L429.29,105.32L428.76,106.9L432.66,109.14L433.62,111.1L432.34,113.44L429.37,115.46L429.37,115.46L426.75,115.93L425.59,114.89L424.09,115.88L422.1,114.23L420.73,117.94L419.85,118.64L418.24,117.8L414.2,118.1L408.8,115.74L403.98,117.92L401.01,117.39L401.34,119.47L400.11,120.13L397.35,124.82L397.17,127.43L393.03,129.42L391.86,127.5L393.22,124.87L391.93,122.85L388.77,121.73L388.06,119.33L395.03,114.5L397.88,111.46L397.61,108.08L398.63,106.19L398.46,105.13L393.16,103.86L392,102.23L390.68,97.51L386.64,96.63L383.84,92.95L381.38,91.71L380.01,90.11L378.53,89.95L376.73,90.76L374.46,93.92L373.47,93.49L367.22,94.01L365.45,92.81L365.45,92.81L363.73,88.36L361.91,85.88L362.85,84.59L362.31,82.56L366.57,80.98L368.93,80.83L373.25,75.56L376.96,76.39L383.96,81.72L392.54,78.87L398.05,80.12L403.95,79.39L407.2,74.41L407.19,67.59L405.63,63.64L403.6,61.84L399.62,61.11L395.96,57.87L394.84,57.7L392.76,59.41L391.97,58.14L387.53,58.87L385.04,58.51L382.56,57.16L382.63,54.17L383.41,52.91L386.29,51.29L389.18,42.47L391.98,39.41z"/>
		<path id="BG-18" title="Ruse" class="land" d="M389.17,25.11L390.3,29.57L394.44,33.6L392.44,37.78L392.44,37.78L391.98,39.41L389.18,42.47L386.29,51.29L383.41,52.91L382.63,54.17L382.56,57.16L385.04,58.51L387.53,58.87L391.97,58.14L392.76,59.41L394.84,57.7L395.96,57.87L399.62,61.11L403.6,61.84L405.63,63.64L407.19,67.59L407.2,74.41L403.95,79.39L398.05,80.12L392.54,78.87L383.96,81.72L376.96,76.39L373.25,75.56L368.93,80.83L366.57,80.98L362.31,82.56L362.85,84.59L361.91,85.88L363.73,88.36L365.45,92.81L365.45,92.81L359.13,95.84L357.44,104.4L355.47,106.78L354.01,110L351.74,111.69L356.69,115.91L356.25,120.77L356.25,120.77L351.27,119.65L349.39,115.19L344.8,117.05L339.06,114.79L334.51,115.03L331.15,113.45L327.17,109.8L325.69,109.95L322.69,112.36L312.85,106.98L314.4,103.11L314.31,100.73L313.41,99.59L311.68,99.04L311.05,97.08L309.15,95.84L305.51,86.64L305.71,85.1L307.43,82.81L307.08,80.42L306,81.56L304.55,81.61L302.22,79.69L302.22,79.69L306.04,77.78L313.34,77.65L323.26,71.63L330.21,71.4L335.32,68.67L338.11,63.75L341.91,62.05L344.66,59.36L351.99,48.15L362.15,41.91L364.57,36.71L367.15,33.81L371.17,31.33L376.32,31.32L386.58,25.8z"/>
		<path id="BG-19" title="Silistra" class="land" d="M463.76,11.04L467.1,10.78L474.46,13.88L477.54,14.06L481.07,12.8L482.42,15.25L481.72,16.75L483.09,19.87L489.52,22.21L493.77,28.31L500.83,26.94L514.47,28.26L517.6,23.43L520.48,25.83L523.37,33.31L523.37,33.31L518.56,34.97L516.41,36.67L512.68,42.02L512.67,44.8L509.62,44.42L507.16,41.78L505.22,46.69L502.18,50.34L500.19,50.71L498.16,48.4L496.97,48.64L487.26,57.79L481.56,58.99L474.6,66.94L474.39,69.01L475.71,71.68L475.67,73.06L475.3,73.91L473.76,74.14L473.76,74.14L471.66,73.45L469.47,74.31L465.94,70.99L463.96,67.51L462.92,67.34L457.58,70.25L455.07,70.56L455.07,70.56L450.9,66.68L449.53,62.6L446.02,62.22L443.18,56.89L438.77,55.52L435,50.91L431.45,54.57L430.69,54.37L429.42,52.15L426.77,52.75L424.73,51.51L421.27,51.3L414.02,48.96L413.23,44.63L410.73,41.32L404,42.12L401.65,38.34L398.88,37.54L392.44,37.78L392.44,37.78L394.44,33.6L390.3,29.57L389.17,25.11L389.17,25.11L394.01,23.78L399.88,24.93L408.98,22.42L415.22,22.8L421.01,21.3L424.33,19.61L427.5,20.06L430.71,19.4L439.88,14.1L445.36,11.87L453.53,11.64L460.66,9.51z"/>
		<path id="BG-20" title="Sliven" class="land" d="M374.32,170.45L379.3,166.2L381.27,160.37L383.56,160.78L386.44,159.34L387.2,159.85L386.79,163.45L387.5,164.2L390.03,161.81L392.3,163.77L394.85,164.7L398.14,164.52L404.75,162.61L414.85,164.16L414.85,164.16L408.43,169.84L407.88,172.66L409.08,174.11L409.08,174.11L412.19,174.17L411.75,176.75L413.73,183.8L412.6,186.77L412.63,189.73L415.36,193.08L419.35,193.53L420.72,194.82L423.62,200.34L423.25,203.97L423.25,203.97L421.3,202.47L420.67,202.81L420.63,203.97L422.55,207.27L422.52,211.26L419.63,214.87L418.56,214.36L417.53,212.56L414.69,217.12L409.85,217.61L401.08,223.09L395.61,222.19L391.64,225.46L393.54,226.76L393.88,228.94L391.34,230.82L389.35,233.87L385.25,234.4L383.79,236.41L377.03,234.54L375.71,235.37L375.98,241.3L375.03,241.68L373.01,239.9L371.85,239.74L371.79,241.59L374.07,244.66L375.96,243.74L378.28,241.13L379.12,242.78L378.49,250.85L375.08,256.58L372.71,263.75L372.71,263.75L362.45,257.6L360.63,257.91L358.76,260.09L358.73,258.08L356.94,257.27L355.1,255.15L351.52,253.93L350.36,252.6L347.55,242.93L343.79,238.35L343.98,236.58L346.19,232.49L342.62,224.22L345.16,220.07L345.65,217.69L342.61,212.58L341.43,205.48L337.41,197.46L337.03,190.57L337.03,190.57L342.28,191.54L348.11,190.1L352.25,191.65L353.72,191.57L360.54,186.15L360.86,183.64L359.73,181.58L360.23,180.55L371.68,174.47z"/>
		<path id="BG-21" title="Smolyan" class="land" d="M202.15,305.38L206.42,307.27L209.11,306.98L212.49,312.27L213.83,313.12L217.79,312.83L225.23,309.92L230.83,311.33L234.57,310.85L235.63,311.48L237.55,313.83L237.71,315.61L236.79,320.72L235.3,322.62L236.63,325.07L238.21,323.73L238.79,325.73L239.57,326.07L238.31,328.88L238.25,331.03L241.3,337.61L243.21,334.52L245.64,333.55L247.46,330.65L251.2,331.62L254.34,330.86L258.11,326.49L258.41,319.9L260.27,318.23L261.45,318.37L262.83,321.04L266.19,324.06L266.19,324.06L265.79,325.25L266.53,328.37L268.68,334.25L267.39,339.02L267.66,345.14L265.56,347.59L258.4,350.21L257.4,351.5L257.57,353.43L259.16,358.12L259.42,361.57L264.47,363.45L270.01,360.79L272.8,362.04L273.74,363.38L274.44,365.84L273.13,370.45L273.8,371.03L275.72,370.76L276.15,371.75L272.4,376.57L273.35,378.61L273.58,382.32L275.61,383.38L275.29,385.67L275.29,385.67L271.91,384.49L270.04,382.22L268.51,383L266.34,382.09L264,379.02L256.61,377.61L253.01,376.23L250.21,373.44L248.31,373.72L247.11,375.46L246.32,375.58L240.92,374.37L241.31,376.18L240.67,380.3L239.32,381.36L233.8,376.88L232.15,372.42L228.73,372.03L227.66,371.24L225.25,372.25L225.66,370.38L224.87,369.91L220.54,371.04L219.29,369.09L219.19,366.1L216.88,364.59L215.6,361.1L215.86,359.28L214.28,356.22L214.98,354.92L213.98,353.98L213.11,354.17L213.13,353.13L212.41,352.65L207.26,354.77L206.14,355.82L206.02,357.85L204.93,358.67L203.81,357.74L201.43,357.63L200.45,356.34L198.43,356.74L196.63,359.25L193.98,358.06L190.48,360L189.82,358.04L190.36,356.53L187.26,353.91L187.69,352.66L186.47,351.95L184.37,353.28L183.31,355.13L181.36,354.85L179.49,357.35L179.72,358.75L178.99,359.48L177.67,359.27L177.83,358.58L176.58,357.71L176.36,356.7L173.92,357L173.64,356.12L171.3,355.8L170.91,354.88L168.43,355.99L167.99,357.37L166.89,358.15L166.89,358.15L166.76,355.28L169.22,349.22L168.87,345.94L172.04,341.49L170.98,339.22L170.98,339.22L172.19,331.22L181.05,330.01L186.92,331.48L189.83,329.88L191.18,327.98L192.77,327.6L191.86,323.29L192.55,319.09L194.94,315.88L199.66,313.85L200.83,312.3L201.86,309.68z"/>
		<path id="BG-22" title="Sofia-Grad" class="land" d="M56.98,136.58L59.66,135.13L61.53,135.25L64.03,138.53L67.97,140.72L71.02,145.17L73.32,146.55L84.46,146.62L88.66,145.31L92.8,145.21L94.96,142.18L97.19,140.46L103.59,140.83L103.59,140.83L109.82,141.39L112.22,142.27L112.4,143.58L108.63,148.88L109.48,154L115.38,163L118.03,164.73L127.81,156.11L131.53,158.51L132.85,158.51L138.38,155.03L142.2,154.22L144.75,156.11L154.33,156.37L159.13,158.81L160.21,157.73L160.11,154.8L160.11,154.8L166.2,155.11L166.78,158.65L171.67,161.09L172.53,167.37L179.37,171.03L176.92,172.83L176.24,174.19L179.37,176.4L179.75,181.14L182.36,183.1L181.42,184.64L181.37,186.42L178.11,188.59L178.32,189.94L185.29,191.22L190.69,190.79L200.58,193.64L200.58,193.64L196.65,202.64L197.01,205.76L198.71,207.58L204.82,210.07L209.89,215.11L207.52,221.21L201.76,222.22L201.76,222.22L199.21,219.84L196.33,221.54L195.1,219.29L193.17,211.85L189.91,211.05L187.04,209.43L182.47,211.41L178.2,211.79L177.1,216.71L175.15,217.17L172.35,216.62L166.31,223.16L164.13,222.97L159.92,220.21L154.13,221.49L153.56,223.09L154.93,230.6L158.68,236.54L160.15,237.64L162.23,237.58L167.27,235.4L168.55,236.29L168.73,238.61L165.04,246.35L163.15,248.01L159.16,248.46L157.89,249.35L155.89,255.54L157.64,259L157.36,260.21L154.17,261.92L151.99,259.18L146.85,265.99L142.46,268.57L139.09,271.97L139.09,271.97L136.37,271.97L135.84,273.3L137.17,275.7L136.17,276.51L134.64,276.43L131.26,274.9L129.34,271.07L126.48,271.88L125.16,270.98L122.77,271.07L121.59,272.58L120.16,280.45L118.87,282.67L116.27,284.7L113.11,283.95L110.46,284.93L110.46,284.93L112.43,281.92L114.34,281.23L114.55,278.83L107.44,275.78L105.73,270.15L99.15,272.32L97.53,271.56L97.27,270.74L99.75,264.81L104.65,262.99L104.65,261.63L98.1,256.32L95.8,249.24L93.49,248.55L90.03,248.75L87.38,247.61L87.38,247.61L86.48,242.44L86.24,234.27L88.16,227.69L90.09,225.09L90.09,225.09L91.15,226.18L95.35,227.21L96.42,228.85L98.94,230.42L103.29,236.68L104.47,237.06L106.16,236.07L106.61,232.17L108.42,227.14L111.14,227.45L111.98,227.98L114.76,234.36L115.22,236.62L114.8,240.07L115.48,242.91L117.34,242.2L121.91,243.92L127.87,241.76L125.64,234.36L123.19,230.41L123.35,228.48L121.97,227.69L118.78,222.58L119.26,216.46L118.41,211.7L117.79,210.93L114.56,210.12L113.83,209.19L114.47,206.75L116.67,205.89L117.82,201.94L121.41,200.68L122.66,199.44L125.48,188.76L124.22,183.83L122.63,183.6L120.8,185.38L118.55,186.05L110.69,180.95L99.31,183.84L97.5,183.55L95.98,181.97L94.45,178.01L92.42,175.9L91.55,175.99L86.45,188.63L86.26,191.15L84.58,193.67L84.51,194.86L86.03,196.03L85.32,198.35L82.5,197.44L80.17,198.77L72.03,198.5L68.41,199.04L68.41,199.04L67.06,196.91L61.72,194.61L59.74,191.47L55.48,190.7L52.59,188.06L47.82,187.31L46.08,183.5L44.64,182.1L40.63,182.38L39.98,179.02L38.85,177.91L38.85,177.91L41.37,172.99L40.43,170.85L41.71,169.37L41.8,166.28L48.05,163.41L49.61,160.9L52.81,159.22L55.16,153.03L58.17,151.71L61.22,149.06L62.64,142.94L61.56,141.69L63.53,138.3L60.55,136.56z"/>
		<path id="BG-23" title="Sofia" class="land" d="M68.41,199.04L72.03,198.5L80.17,198.77L82.5,197.44L85.32,198.35L86.03,196.03L84.51,194.86L84.58,193.67L86.26,191.15L86.45,188.63L91.55,175.99L92.42,175.9L94.45,178.01L95.98,181.97L97.5,183.55L99.31,183.84L110.69,180.95L118.55,186.05L120.8,185.38L122.63,183.6L124.22,183.83L125.48,188.76L122.66,199.44L121.41,200.68L117.82,201.94L116.67,205.89L114.47,206.75L113.83,209.19L114.56,210.12L117.79,210.93L118.41,211.7L119.26,216.46L118.78,222.58L121.97,227.69L123.35,228.48L123.19,230.41L125.64,234.36L127.87,241.76L121.91,243.92L117.34,242.2L115.48,242.91L114.8,240.07L115.22,236.62L114.76,234.36L111.98,227.98L111.14,227.45L108.42,227.14L106.61,232.17L106.16,236.07L104.47,237.06L103.29,236.68L98.94,230.42L96.42,228.85L95.35,227.21L91.15,226.18L90.09,225.09L90.09,225.09L89.84,223.45L87.25,223.99L83.46,218.31L78.94,217.53L79.89,215.33L78.72,208.89L77.04,207.27L74.73,206.45L72.75,203.05L69.53,201.29z"/>
		<path id="BG-24" title="Stara Zagora" class="land" d="M321.01,194.5L324.1,192.47L330.4,190.14L334.31,190.85L337.03,190.57L337.03,190.57L337.41,197.46L341.43,205.48L342.61,212.58L345.65,217.69L345.16,220.07L342.62,224.22L346.19,232.49L343.98,236.58L343.79,238.35L347.55,242.93L350.36,252.6L351.52,253.93L355.1,255.15L356.94,257.27L358.73,258.08L358.76,260.09L360.63,257.91L362.45,257.6L372.71,263.75L372.71,263.75L376.31,265.99L376.31,265.99L368.22,273.95L368.08,276.93L369.93,281.16L371.61,289.37L367.88,290.32L365.67,289.82L362.42,293.27L360.33,292.68L356.15,284.14L351.89,283.61L349.54,281.34L346.14,281.24L343.38,279.14L342.03,280.04L340.5,285.8L336.48,288.1L334.24,288.2L332.9,289.4L330.91,289.29L329.24,283.74L326.85,281.23L324.94,276.76L323.11,276.81L319.38,280.21L318.29,280.27L318.15,271.48L316.91,269.02L315.72,269.62L314.05,272.3L309.82,275.1L310,275.85L311.65,275.7L310.72,277.51L309.08,277.44L306.39,275.39L305.09,275.69L304.68,278.95L301.24,283.51L300.16,283.57L295.45,280.66L292.69,280.36L292.69,280.36L288.5,276.6L285.68,272.33L281.86,274.8L277.51,274.74L272.44,276.35L267.63,274.56L265.36,272.4L264.92,268.82L265.98,263.84L268.29,262.29L275.89,259.56L275.24,258.03L272.37,256.09L271.29,256.12L271.3,243.92L272.01,242.32L275.3,243.67L276.12,243.31L276.17,241.42L273.41,238.3L273.25,236.98L277.4,232.79L277.8,230.24L276.9,227.38L275.48,226.71L267.13,230.28L265.04,230.28L261.6,228.9L258.61,223.64L256.84,216.14L260.02,209.06L259.57,197.3L260.59,194.95L260.59,194.95L267.78,195.86L272,193.35L275.52,193.08L278.36,190.89L284.6,194.66L288.3,194.1L300.22,197.4L301.38,196.37L300.95,192.75L304.09,192.99L306.97,195.91L310.52,196.71L312.35,196.53L315.26,194.32L318.49,197.12L320.82,196.16z"/>
		<path id="BG-25" title="Targovishte" class="land" d="M365.45,92.81L367.22,94.01L373.47,93.49L374.46,93.92L376.73,90.76L378.53,89.95L380.01,90.11L381.38,91.71L383.84,92.95L386.64,96.63L390.68,97.51L392,102.23L393.16,103.86L398.46,105.13L398.63,106.19L397.61,108.08L397.88,111.46L395.03,114.5L388.06,119.33L388.77,121.73L391.93,122.85L393.22,124.87L391.86,127.5L393.03,129.42L397.17,127.43L397.35,124.82L400.11,120.13L401.34,119.47L401.01,117.39L403.98,117.92L408.8,115.74L414.2,118.1L418.24,117.8L419.85,118.64L420.73,117.94L422.1,114.23L424.09,115.88L425.59,114.89L426.75,115.93L429.37,115.46L429.37,115.46L428.14,117.05L428.8,124.91L432.06,127.89L432.55,130.41L431.08,132.61L426.74,136.54L426.31,139.36L424.58,142.61L422.33,143.48L420.6,142.88L421.42,146.79L423.35,150.93L423.32,152.55L421.31,153.76L420.79,156.18L418.02,157.98L417.39,160.85L418.06,162.56L414.85,164.16L414.85,164.16L404.75,162.61L398.14,164.52L394.85,164.7L392.3,163.77L390.03,161.81L387.5,164.2L386.79,163.45L387.2,159.85L386.44,159.34L383.56,160.78L381.27,160.37L379.3,166.2L374.32,170.45L374.32,170.45L363.17,166.54L363.7,164.61L366.44,163.18L366.89,161.72L363.26,158.64L362.61,157.19L361.8,153.76L362.17,147.06L363.45,144.45L364.09,140.91L367.2,138.74L367.25,137.02L366.83,135.68L364.51,133.31L364.26,131.93L361.94,130.03L362.89,127.13L356.25,120.77L356.25,120.77L356.69,115.91L351.74,111.69L354.01,110L355.47,106.78L357.44,104.4L359.13,95.84z"/>
		<path id="BG-26" title="Haskovo" class="land" d="M376.31,265.99L379.32,268.14L383.64,269.08L386.92,272.07L389.73,272.28L392.89,273.63L395.35,272.22L397.86,274.22L401.75,273.3L403.31,276.06L406.94,275.66L405.89,283.15L406.49,289.42L404.05,291.79L403.98,294.56L405.34,295.4L406.14,297.9L407.33,298.99L407.56,301.08L411.46,305.81L411.46,305.81L413.58,308.72L412.03,311.1L413.31,312.85L411.9,313.59L411.78,315.15L410.42,316.29L409.31,319.23L394.31,319.29L392.32,320.03L388.74,328.71L388.69,330.57L391.56,333.78L388.76,333.3L386.59,334.16L384.35,333.8L381.22,332.4L379.01,330.05L377.88,331.01L376.11,330.82L374.25,330.07L373.38,328.86L368.61,331.34L367.52,333.6L364.91,333.14L363.33,334.12L362.53,336.79L363.66,342.17L365.37,342.84L365.94,344.83L368.16,345.26L368.61,344.32L369.97,344.04L370.08,346.39L371.6,347.62L371.02,354.11L373.94,354.44L374.73,358.98L373.45,360.61L373.28,362.3L371.69,363.06L371.62,363.94L372.09,365.39L373.74,366.11L376.23,369.76L373.18,370.21L372.06,371.71L372.61,373.37L372.13,375.5L371.12,377.28L369.95,377.65L369.36,380.21L366.18,380.1L365.15,381.39L360.06,380.9L357.31,381.82L356.42,384.09L353.57,385.02L350.44,384.75L350.44,384.75L349.97,380.54L348.95,378.77L340.49,370.71L340.31,367.29L341.14,363.98L339.76,363.32L338.08,360.73L335.95,359.79L335.83,357.5L337.76,351.06L339.53,349.04L341.95,347.79L340.3,342.45L334.46,341.67L332.5,342.53L331.7,344.81L328.96,346.64L325.22,344.98L322.83,346.51L321.81,343.93L322.8,342.2L323.19,339.41L321.12,335.27L320.22,329.35L318.01,326.57L316.8,326.3L312.09,328.32L303.61,325.71L300.17,323.05L296.23,321.54L293.88,315.9L292.62,316.22L291.69,318.34L290.27,318.88L288.36,321.05L285.25,308.75L286.57,304.32L286.57,304.32L289.13,301.16L289.36,294.75L288.71,290.7L292.69,280.36L292.69,280.36L295.45,280.66L300.16,283.57L301.24,283.51L304.68,278.95L305.09,275.69L306.39,275.39L309.08,277.44L310.72,277.51L311.65,275.7L310,275.85L309.82,275.1L314.05,272.3L315.72,269.62L316.91,269.02L318.15,271.48L318.29,280.27L319.38,280.21L323.11,276.81L324.94,276.76L326.85,281.23L329.24,283.74L330.91,289.29L332.9,289.4L334.24,288.2L336.48,288.1L340.5,285.8L342.03,280.04L343.38,279.14L346.14,281.24L349.54,281.34L351.89,283.61L356.15,284.14L360.33,292.68L362.42,293.27L365.67,289.82L367.88,290.32L371.61,289.37L369.93,281.16L368.08,276.93L368.22,273.95z"/>
		<path id="BG-28" title="Yambol" class="land" d="M423.25,203.97L427.78,209.92L431.47,213.32L435.34,222.26L438.68,226.47L440.27,230.87L442.82,233.93L444.16,237.81L446.14,238.7L450.36,237.52L451.2,238.37L451.14,240.85L449.3,243.14L442.09,244.37L440.81,245.88L441.78,250.12L445.32,253.15L447.13,257.08L449.63,258.96L448.07,262.36L448.04,264L450.36,268.6L450.52,270.2L447.73,273.49L448.07,275.61L450.77,279.24L455.89,282.24L458.11,285.22L458.11,285.22L456.68,285.51L457.16,288.14L455.22,290.9L452.63,291.12L452.91,293.4L450.73,296.46L447.45,295.94L445.21,297.76L441.73,297.4L439.74,298.55L439.07,300.19L436.04,299.43L433.77,297.51L430.73,300.36L430.24,301.65L426.32,300.34L421.7,300.66L417.63,298.82L417.03,300.72L411.46,305.81L411.46,305.81L407.56,301.08L407.33,298.99L406.14,297.9L405.34,295.4L403.98,294.56L404.05,291.79L406.49,289.42L405.89,283.15L406.94,275.66L403.31,276.06L401.75,273.3L397.86,274.22L395.35,272.22L392.89,273.63L389.73,272.28L386.92,272.07L383.64,269.08L379.32,268.14L376.31,265.99L376.31,265.99L372.71,263.75L372.71,263.75L375.08,256.58L378.49,250.85L379.12,242.78L378.28,241.13L375.96,243.74L374.07,244.66L371.79,241.59L371.85,239.74L373.01,239.9L375.03,241.68L375.98,241.3L375.71,235.37L377.03,234.54L383.79,236.41L385.25,234.4L389.35,233.87L391.34,230.82L393.88,228.94L393.54,226.76L391.64,225.46L395.61,222.19L401.08,223.09L409.85,217.61L414.69,217.12L417.53,212.56L418.56,214.36L419.63,214.87L422.52,211.26L422.55,207.27L420.63,203.97L420.67,202.81L421.3,202.47z"/>
		<path id="BG-27" title="Shumen" class="land" d="M455.07,70.56L457.58,70.25L462.92,67.34L463.96,67.51L465.94,70.99L469.47,74.31L471.66,73.45L473.76,74.14L473.76,74.14L476.25,77.1L480.77,77.73L485.03,83.66L486.53,84.24L492.37,80.25L493.48,80.19L496.07,84.94L496.07,84.94L495.35,86.88L494.11,87.74L488.03,89.76L485.29,89.99L484.58,90.78L484.57,94.32L487.22,95.5L487.22,96.97L485.3,100.53L487.18,100.94L487.64,102.71L482.55,110.43L482.29,113.76L483.2,116.47L483.56,121.26L481.64,122.98L478.89,122.1L478.44,123.29L478.83,126.88L479.93,129.32L480.13,133.22L481.98,137.29L473,142.59L472,146.4L474.47,149.1L474.47,149.1L474.47,152.68L474.47,152.68L476.03,157.85L468.57,159.34L465.96,160.74L462.49,160.74L461.03,162.73L459.81,163.28L459.63,164.13L462.55,165.24L463.15,167.92L464.84,168.86L464.56,172.77L464.56,172.77L459.54,173.35L452.3,177.24L450.29,176.67L448.49,173.78L447.26,173.46L441.71,174.55L437.81,172.91L434.72,173.53L429.77,173.27L423.45,177.75L415.84,177.81L414.92,176.46L415.97,174.59L415.33,173.87L410.76,173.29L409.08,174.11L409.08,174.11L407.88,172.66L408.43,169.84L414.85,164.16L414.85,164.16L418.06,162.56L417.39,160.85L418.02,157.98L420.79,156.18L421.31,153.76L423.32,152.55L423.35,150.93L421.42,146.79L420.6,142.88L422.33,143.48L424.58,142.61L426.31,139.36L426.74,136.54L431.08,132.61L432.55,130.41L432.06,127.89L428.8,124.91L428.14,117.05L429.37,115.46L429.37,115.46L432.34,113.44L433.62,111.1L432.66,109.14L428.76,106.9L429.29,105.32L428.44,103.39L428.92,102.44L431.39,101.5L431.32,99.73L434.96,97.09L435.39,93.49L434.21,93.15L434.65,91.04L440.37,86.18L441.31,81.95L444.41,83.61L447.02,83.57L448.99,82.42L450.24,79.5L454.53,77.38L456,75.17L456.05,72.1z"/>
	</g>
</svg>