<?xml version="1.0" encoding="utf-8"?>
<!-- (c) ammap.com | SVG map of Burkina Faso - High -->
<svg xmlns="http://www.w3.org/2000/svg" xmlns:amcharts="http://amcharts.com/ammap" xmlns:xlink="http://www.w3.org/1999/xlink" version="1.1">
	<defs>
		<style type="text/css">
			.land
			{
				fill: #CCCCCC;
				fill-opacity: 1;
				stroke:white;
				stroke-opacity: 1;
				stroke-width:0.5;
			}
		</style>

		<amcharts:ammap projection="mercator" leftLongitude="-5.517935" topLatitude="15.081041" rightLongitude="2.405898" bottomLatitude="9.401674"></amcharts:ammap>

		<!-- All areas are listed in the line below. You can use this list in your script. -->
		<!--{id:"BF-01"},{id:"BF-02"},{id:"BF-03"},{id:"BF-04"},{id:"BF-05"},{id:"BF-06"},{id:"BF-07"},{id:"BF-08"},{id:"BF-09"},{id:"BF-10"},{id:"BF-11"},{id:"BF-12"},{id:"BF-13"}-->

	</defs>
	<g>
		<path id="BF-01" title="Boucle du Mouhoun" class="land" d="M385.45,194.88L388.77,196.45L395.8,195.01L400.09,195.28L404.79,199.56L407.16,205.06L408.85,204.41L411.09,200.34L413.32,198.94L420.56,204.65L423.99,203.32L423.99,203.32L429.79,210.9L434.71,215.5L454.08,220.2L454.51,222.67L456.83,226.16L462.8,227.47L465.13,230.24L465.93,243.44L468.41,245.46L470.32,251.36L479.68,256.31L481.47,254.36L486.3,254.8L489.65,255.86L491.56,258.07L483.77,268.09L477.44,278.54L474.61,280.85L467.93,280.98L458.82,279.55L456.52,281.18L455.31,287.26L457.34,300.46L453.58,317.66L454.13,320.59L456.44,320.6L463.95,329.21L463.95,329.21L459.25,336.68L453.93,339.14L449.65,343.57L447.93,346.75L448.68,351.97L452.9,361.86L448.75,365.52L448.71,369.17L436.85,380.19L438.81,382.22L438.77,385.11L432.26,392.48L431.64,395.6L432.7,398.11L438.57,405.07L442.28,418.48L441.21,421.16L437.78,422.69L426.11,422.02L424.58,425.02L427.49,428.35L431.26,430.41L433.36,433.77L433.73,437.31L432.67,440.35L436.58,448.39L435.2,455.84L426.47,458.82L425.15,461.93L427.18,464.76L432.41,465.53L438.71,464.91L442.2,466.15L447.81,472.12L456.35,485.34L458.05,486.09L459.72,492L460.17,499.78L467.9,505.72L478.26,511.92L480.28,515.58L476.52,519.81L469.44,521.01L468.46,525.76L463.04,526.08L451.41,523.66L444.75,530.2L439.43,540.64L439.43,540.64L438.24,538.24L431.49,536.62L434.55,531.14L434.55,531.14L438.37,524.09L440.02,517.81L439.09,508.35L437.98,506.24L440.03,500.34L435.66,497.16L431.86,495.01L430.61,497.69L429.12,498.35L424.58,495.23L417.99,496.71L412.86,492.1L408.55,490.8L404.7,491.87L397.74,497.68L391.31,499.58L385.79,505.41L383.87,503.59L381.45,503.18L378.15,508.4L374.34,505.64L372.51,502.76L372.47,495.27L364.73,493.73L361.08,489.64L358.88,489.8L356.43,488.51L360.7,476.99L350.27,472.64L346.64,472.99L337.92,468.78L333.76,465.65L319.66,467.4L314.48,470.99L307.2,469.97L300.22,465.3L293.79,462.87L294.56,459.05L288.6,455.45L288.95,453.54L282.71,452.79L283.76,447.96L283.07,444.09L282.24,442.16L281.05,442.83L278.92,441.23L276.58,442.8L270.17,439.25L266.31,438.78L262.63,441.5L259.92,441.98L249.12,441.41L243.93,446.26L239.82,456.38L237.9,463.97L233.56,469.35L228.04,470.06L225.97,467.32L214.68,471.57L211.27,470.42L209.49,466.36L214.98,452.31L215.61,440.89L218.27,432.68L213.05,432.29L212.24,430.57L213.62,423.9L213.13,422.01L209.21,420.08L206.91,420.66L205.23,422.92L202.84,423.92L197.14,423.48L193.64,424.96L190.5,424.3L188.75,422.44L188.75,422.44L191.44,416.02L199.18,413.1L200.21,410.64L196.74,408L196.19,405.39L208.19,394.57L210.3,390.8L210.78,386.87L213.17,386.43L219.1,388.84L219.47,388.06L215.36,379.35L215.1,374.06L218.31,364.46L223.24,357.72L218.5,347.93L211.68,343.48L210.36,341.01L210.08,332.8L211.49,331.22L226.52,329.88L231.36,333.61L236.81,334.37L243.14,330.65L245.19,326.52L246.02,320.08L244.48,312.34L245.38,299.37L238.58,291.06L234.26,281.52L228.75,276.1L229.05,272.65L237.78,267.1L243.41,266.83L243.77,264.76L241.48,261.66L241.76,260.24L246.65,256.26L257,250.63L260.35,246.76L263.11,238.39L269.86,233.88L277.38,230.83L279.28,228.05L279.29,223L281.01,222.25L283.09,223.07L284.53,228.12L288.7,230.18L288.16,231.99L282.88,233.4L280.61,235.36L280.76,237.28L282.53,238.82L304.89,242.22L309.41,245.72L315.18,252.76L322.19,255.66L332.01,264.09L341.27,268.32L350.51,270.27L354.84,269.6L356.71,265.31L354.7,257.54L355.08,255.53L380.77,251.83L381.53,248.08L380.72,244.98L378.63,242.16L378.18,233.09L375.56,217.63L378.5,211.8L379.09,198.62L375.17,193.51L375.89,192.18L378.36,191.8z"/>
		<path id="BF-02" title="Cascades" class="land" d="M72.17,564.07L86.14,565.22L102.66,580.57L105.72,587.76L113.02,596.33L116.06,597.92L126.82,594.16L131.65,594.06L136.03,592.65L141.67,589.85L143.59,586.84L146.32,585.67L155.51,587.28L166.28,586.7L174.88,598.66L178.9,599.05L185.06,602.44L194.23,595.82L195.08,593.97L202.66,589.1L212.22,589.09L216.04,591.59L219.79,601.19L223.02,605.94L225.24,605.47L230.23,606.5L236.5,608.75L238.26,611.96L239.97,612.85L251.24,606.21L264.21,601.29L266.69,602.67L271.88,608.4L285.28,611.65L285.35,613.85L288.11,614.54L292.09,612.21L294.95,611.78L298.71,609.18L297.79,606.14L307.52,595.01L314.75,594.77L314.75,594.77L314.67,597.11L317.3,598.84L318.89,601.43L319.87,607.03L308.17,606.92L306.47,608.03L305.4,610.53L305.34,612.16L308.45,615.17L315.93,616.27L319.04,620.13L319.34,622.14L318.08,627.84L318.1,640.57L319.17,644.02L315.62,646.88L313.72,652.85L306.98,661.7L309.27,665.78L310.64,673.01L311.9,675.21L311.22,677.72L307.03,683.41L303.09,691.84L299.35,694.01L290.32,696.66L282.19,694.81L279.89,699.18L278.04,705.96L286.15,712.3L292.13,718.75L292.04,723.15L292.04,723.15L290.81,723.02L288.31,726.02L285.79,727.06L280.88,727.32L280.16,729.69L280.89,730.91L278.87,732.83L275.99,731.87L272.97,732.19L271.06,734.38L271.29,736.69L268.47,737.05L259.33,732.5L254.27,737.3L252.44,740.33L244.92,743.21L240.01,742.86L239.11,745.26L240.75,746.08L239.46,750.65L238.19,751.95L238.78,752.96L237.49,754.99L237.31,759.31L233.49,764.6L229.09,760.95L227.66,760.92L226.35,761.94L225.79,765.03L223.12,764.96L221.75,763.66L219.58,757.33L217.76,755.95L207.56,758.09L206.06,756.38L205.45,752.36L205.62,750.01L207.3,748.6L207.91,746.11L206,744.38L200.52,745.14L201.14,747.29L202.43,748.02L198.91,752.48L196.29,751.56L194.5,748.62L192.51,747.62L191.06,750.51L187.71,748.78L185.92,752.28L184.71,752.03L183.67,753.61L182.28,753.9L181.77,752.61L179.55,751.52L175.61,743.8L171.44,743.3L171.5,745.65L170.1,745.43L169.4,743.16L167.5,743.11L167.45,741.17L166.18,741.33L165.05,739.04L169.08,738.97L168.04,736.84L169.07,732.3L166.94,730.7L164.72,731.08L163.22,728.09L156.52,727.15L151.93,723.99L149.98,725.02L149.11,726.76L144.53,724.14L143.87,722.03L145.41,720.05L144.97,717.81L147.4,715.84L145.17,714.47L144.69,712.89L141.79,711.44L141.55,708.36L142.01,707.66L145,708.72L144.45,707.37L145.4,706.01L144,703.43L142.53,703.06L140.98,700.87L137.21,699.55L139.61,694.9L136.38,695.65L133.94,698.07L131.49,698.11L131.46,696.87L133.58,694.6L129.63,694.54L129.34,692.14L132.28,693.04L134.08,692.16L133.37,691.06L129.18,689.6L130.04,684.14L125.72,685L124.4,684.2L126.62,683.3L127.62,681.48L127.91,678.98L127.13,677.9L122.32,680.72L122.79,677.93L121.09,679.39L118.36,678.85L117.66,674.54L120.36,668.9L120.21,665.9L119.18,664.67L116.36,665.12L113.75,667.49L111.61,666.24L111.77,664.69L109.63,666.48L108.31,665.63L103.62,666.41L101.95,665.61L100.91,666.48L98.97,665.03L97.9,665.64L98.48,667.12L97.75,666.69L94.27,668.71L91.51,666.84L90.08,669.51L88.84,669.74L87.75,668.53L84.31,668.39L82.13,666.63L81.44,664.6L79.71,665.01L78.91,662.54L75.97,661.43L75.89,657.64L73.23,657L70.35,650.45L69.2,650.71L69.64,645.3L71.67,642.58L74.7,633.66L76.34,631.56L75.31,628.89L76.38,626.62L73.94,623L75.71,607.49L75.18,604.29L78.56,602.61L79.26,598.09L81.33,595.27L82.25,591.24L78.67,588.51L76.4,583.9L75.9,576.11L73.03,574.51L73.44,571.52z"/>
		<path id="BF-03" title="Centre" class="land" d="M575.84,384.11L586.91,378.55L595.07,377.54L588.92,353.7L592.31,351.85L602.37,350.75L606.67,338.01L609.31,340.06L612.94,346.66L610.04,351.96L610.17,355.72L611.61,357.57L619.03,355.28L621.06,352.8L622.98,353.27L623.53,355.67L625.2,356.27L627.02,359.08L622.59,367.66L635.9,366.89L640.76,362.63L644.3,361.71L646.11,363.55L650.2,363.05L652.28,365.05L654.61,372.7L651.19,381.89L651.37,386.33L654.9,384.77L661.47,392.77L663.03,390.96L669.49,397.17L675,395.11L675.12,401.65L680.25,402.98L679.41,407.96L679.41,407.96L671.17,409.71L669.31,411.27L665.63,410.6L658.16,411.3L653.69,412.58L650.49,415.14L645.51,411.61L638.5,413.85L632.78,417.41L629.7,413.42L627.13,404.5L620.71,405.18L619.69,404.32L612.98,406.91L609.12,413.62L606.06,413.47L599.15,418.5L596.71,418.18L593.59,420.06L589.31,424.58L584.48,420.99L576.85,420.25L569.03,411.65L569.03,411.65L572.2,406.39L576.48,403.89L579.5,400.19L579.74,394.58L578.4,391.85L574.92,389.66L578.18,386.62z"/>
		<path id="BF-04" title="Centre-Est" class="land" d="M796.92,353.73L793.86,361.93L792.55,368.76L796.77,373.23L803.64,375.04L807.28,380.53L803.13,384.6L798.93,391.55L801.47,396.1L813.75,399.71L817.68,404.29L822.64,406.21L823.89,411.51L828.01,410.91L830.29,418.01L824.41,419.58L820.92,422.29L815.47,422.39L809.18,434.33L811.41,437.73L810.23,442.56L814.02,443.52L816.12,445.17L816.81,452.92L825.09,451.35L829.66,455.59L832.15,466.62L836.37,466.87L837.29,461.49L845.53,463.38L850.18,462.97L853.01,467.08L866.64,466.93L873.51,472.32L884.53,478.87L897.9,479.18L896.85,487.05L898.41,503.5L902.59,511.58L905.01,520.29L900.68,522.1L898.08,524.93L900.24,533.59L902.12,534.98L900.71,539.47L901.97,541.31L893.87,551.41L893.42,559.12L891.07,560.07L885.55,553.21L882.94,553.21L877.1,566.08L877.1,566.08L812.38,553.05L787.9,546.75L785.41,550.87L787.5,552.29L787.8,553.88L779.11,556.38L778.08,559.13L775.86,561.35L773.4,556.81L773.73,554.7L770.58,554.15L766.05,557.16L764.65,563.21L765.39,566.68L762.82,568.11L759.21,567.45L754.16,572.99L752.11,571.96L749.75,574.57L748.81,573.34L747.28,573.39L743.8,578.63L743.72,582.93L741.69,584.14L740.22,584.36L738.47,579.32L736.33,578.83L736,577.15L735.26,576.64L734.47,578.02L733.1,577.2L735.39,573.45L733.31,573.15L731.92,574.22L730.95,573.4L731.18,572.08L729.04,572.07L729.04,572.07L728.66,565.68L731.33,563.62L729.6,558.25L725.04,557.34L725.13,553.47L721.74,550.44L718.88,543.53L722.78,538.45L723.09,533.19L726.05,532.56L730.57,529.42L735.74,524.39L741,523.08L743.47,516.88L748.99,519.87L751.69,519.84L749.27,514.85L751.02,512.24L750.22,505.59L745.14,504.89L736.04,499.95L731.48,493.54L729.21,493.72L725.08,498.78L721.3,498.09L712.85,491.77L708.5,493.19L704.33,485.76L698.42,478.69L702.14,468.03L706.74,466.9L712.87,456.37L712.87,456.37L719.17,453.84L726.62,453.95L733.68,449.41L742.9,435.8L750.83,432.78L764.16,433.4L766.91,428.2L768.38,422.84L765.87,412.86L767.78,409.1L760.71,405.45L757.61,392.55L754.64,388.83L754.4,384.54L757.31,378.13L752.72,377.64L753.21,369.97L743.51,369.88L741.25,361.36L741.25,361.36L770.77,367.83L773.29,365.18z"/>
		<path id="BF-05" title="Centre-Nord" class="land" d="M585.93,190.28L589.57,181.88L596.03,171.66L600.67,173.05L615.99,165.44L617.18,172.55L619.48,178.98L627.45,184.02L641.58,187.26L642.66,188.92L650.97,188.33L657.61,185.37L663.23,186.35L671.74,185.19L675.16,181.15L681.83,182.22L687.62,178.02L705.24,174.71L725.12,164.32L730.82,162.37L732.96,156.62L737.37,156.39L739.99,161.43L752.63,168.22L759.7,175.77L763.15,180L765.1,192.89L769.83,194.36L772.52,199.05L777.23,203.35L783.38,204.78L795.24,204.24L794.49,212.03L790.41,215.59L794.34,222.89L794.34,222.89L795.51,225.17L785.62,231.06L784.36,237.34L786.75,240.39L788.24,244.55L785.62,251.62L781.66,258.44L784.51,267.39L776.81,277.83L775.11,285.01L775.75,292.1L774.64,295.17L777.79,299.46L782.31,311.79L797.05,320.21L799.15,323.76L794.22,330.97L799.02,345.11L796.92,353.73L796.92,353.73L773.29,365.18L770.77,367.83L741.25,361.36L741.25,361.36L740.49,356.5L741.65,351.9L740.21,345.9L736.44,338.01L726.56,336.71L722.6,338.87L722.52,343.44L724.08,348.54L720.99,351.57L716.82,355.16L710.23,358.79L702.08,356.92L687.71,339.11L673.68,339.93L671.87,344.26L668.44,347.24L668.71,343.14L670.38,341.73L670.6,338.23L667.79,335.94L668.04,330.65L655.49,321.11L641.68,317.75L639.47,316.31L638.24,312.22L633.41,312.14L626.95,310.17L623.67,311.73L619.82,310.65L612.58,305.76L612.58,305.76L615.27,303.83L615.86,295.03L610.12,291.35L605.58,286.58L599.79,284.86L586.62,275.24L587.15,271.93L590.22,270.38L589.08,266.22L590.05,261.92L586.52,258.91L585.5,253.29L579.76,254.24L577.89,249.2L572.89,246.21L573.46,243.23L572.2,239.59L573.8,235.15L572.04,232.8L573.95,229.07L567.98,216.56L567.79,210.35L570.98,204.81L577.31,202.36L582.09,198.89L587.59,199.37L588.72,194.52z"/>
		<path id="BF-06" title="Centre-Ouest" class="land" d="M463.95,329.21L477.06,319.07L478.83,318.26L482.39,318.55L485.48,322.18L481.4,328.56L481.07,332.57L482.59,334.68L494.42,333.93L495.4,335.51L488.57,341.29L488.55,345.48L492.25,346.21L503.87,343.05L507.26,341.25L508.74,341.51L515.39,336.98L521.1,336.5L525.13,334.58L533.26,334.34L537.94,335.57L540.65,335.18L543.98,332.68L548.06,333.61L551.97,332.78L556.02,339.76L559.33,337.43L559.33,337.43L561.8,340.35L560.72,344.47L563.02,346.1L572.32,348.61L577,351.41L580.61,367.11L569.61,371.8L560.66,367.32L550.49,367.66L550.4,371.9L546.82,373.92L546.75,380.2L540.59,389.61L540.63,391.18L545.8,394.86L549.48,394.16L560.23,386.11L570.63,383.72L575.84,384.11L575.84,384.11L578.18,386.62L574.92,389.66L578.4,391.85L579.74,394.58L579.5,400.19L576.48,403.89L572.2,406.39L569.03,411.65L569.03,411.65L562.46,412.17L561.4,416.18L555.44,418.5L556.94,423.94L548.48,430.62L545.54,434.37L551.84,438.72L554.56,444.99L557.74,445.25L561.13,442.24L567.67,445.74L571.31,441.82L578.42,440.3L600.08,463.09L607,465.3L613.52,471.56L620.75,473.73L625.08,477.53L626.8,481.49L632.59,486.19L639.58,488.11L645.31,496.54L638.66,503.21L636.54,506.66L634.99,506.66L632.21,509.8L629.33,509.6L621.92,515.04L619.79,519.49L613.78,521.9L611.99,520.64L607.71,526.05L607.53,534.16L604.8,536.39L604.78,541.56L598.9,550.39L605.94,553.46L607.91,556.31L610.39,556.11L611.71,557.81L615.98,559.5L618.37,559.74L619.37,560.77L622.73,559.57L625.35,560.4L624.19,562.37L626.12,564.68L628.6,564.84L631.56,563.62L631.65,570.36L631.65,570.36L629.13,568.3L607.88,568.17L607.08,572.42L597.87,571.22L590.19,573.99L586.65,574.11L579.94,573.22L529.6,573.87L516.31,572.41L481.99,573.09L467.79,571.35L451.44,571.27L451.44,571.27L451.71,568.17L454.06,563.8L461.06,563.75L462.37,562.42L464.01,557.22L464.02,553.74L452.05,544.13L449.44,545.72L448.72,549.87L442.68,552.74L441.64,551.25L441.91,546.96L440.79,541.92L439.43,540.64L439.43,540.64L444.75,530.2L451.41,523.66L463.04,526.08L468.46,525.76L469.44,521.01L476.52,519.81L480.28,515.58L478.26,511.92L467.9,505.72L460.17,499.78L459.72,492L458.05,486.09L456.35,485.34L447.81,472.12L442.2,466.15L438.71,464.91L432.41,465.53L427.18,464.76L425.15,461.93L426.47,458.82L435.2,455.84L436.58,448.39L432.67,440.35L433.73,437.31L433.36,433.77L431.26,430.41L427.49,428.35L424.58,425.02L426.11,422.02L437.78,422.69L441.21,421.16L442.28,418.48L438.57,405.07L432.7,398.11L431.64,395.6L432.26,392.48L438.77,385.11L438.81,382.22L436.85,380.19L448.71,369.17L448.75,365.52L452.9,361.86L448.68,351.97L447.93,346.75L449.65,343.57L453.93,339.14L459.25,336.68z"/>
		<path id="BF-07" title="Centre-Sud" class="land" d="M569.03,411.65L576.85,420.25L584.48,420.99L589.31,424.58L593.59,420.06L596.71,418.18L599.15,418.5L606.06,413.47L609.12,413.62L612.98,406.91L619.69,404.32L620.71,405.18L627.13,404.5L629.7,413.42L632.78,417.41L638.5,413.85L645.51,411.61L650.49,415.14L653.69,412.58L658.16,411.3L665.63,410.6L669.31,411.27L671.17,409.71L679.41,407.96L679.41,407.96L679.08,409.94L684.71,414.3L690.28,426.27L695.76,432.41L701.45,437.01L704.08,445.68L703.4,449.33L705.41,450.8L712,452.64L712.87,456.37L712.87,456.37L706.74,466.9L702.14,468.03L698.42,478.69L704.33,485.76L708.5,493.19L712.85,491.77L721.3,498.09L725.08,498.78L729.21,493.72L731.48,493.54L736.04,499.95L745.14,504.89L750.22,505.59L751.02,512.24L749.27,514.85L751.69,519.84L748.99,519.87L743.47,516.88L741,523.08L735.74,524.39L730.57,529.42L726.05,532.56L723.09,533.19L722.78,538.45L718.88,543.53L721.74,550.44L725.13,553.47L725.04,557.34L729.6,558.25L731.33,563.62L728.66,565.68L729.04,572.07L729.04,572.07L714.49,571.8L713.77,570.41L711.19,570.41L710.64,571.98L707.38,572.27L704.93,576.47L699.05,574.45L697.49,571.6L688.53,572.1L686.98,571L671.92,570.66L671.6,573.19L645.8,571.79L633.84,572.15L631.65,570.36L631.65,570.36L631.56,563.62L628.6,564.84L626.12,564.68L624.19,562.37L625.35,560.4L622.73,559.57L619.37,560.77L618.37,559.74L615.98,559.5L611.71,557.81L610.39,556.11L607.91,556.31L605.94,553.46L598.9,550.39L604.78,541.56L604.8,536.39L607.53,534.16L607.71,526.05L611.99,520.64L613.78,521.9L619.79,519.49L621.92,515.04L629.33,509.6L632.21,509.8L634.99,506.66L636.54,506.66L638.66,503.21L645.31,496.54L639.58,488.11L632.59,486.19L626.8,481.49L625.08,477.53L620.75,473.73L613.52,471.56L607,465.3L600.08,463.09L578.42,440.3L571.31,441.82L567.67,445.74L561.13,442.24L557.74,445.25L554.56,444.99L551.84,438.72L545.54,434.37L548.48,430.62L556.94,423.94L555.44,418.5L561.4,416.18L562.46,412.17z"/>
		<path id="BF-08" title="Est" class="land" d="M794.34,222.89L798.97,218.54L800.05,212.86L803.53,211.96L809.46,213.15L819.37,217.51L833.78,211.45L834.88,216.46L834.97,224.21L839.99,224.44L847.85,242.02L860.1,254.19L861.1,261.47L882.35,267.74L886.89,270.12L888.21,275.45L895.08,277.39L895.58,283.31L904.64,289.89L907.86,298.11L904.07,298.79L908.32,299.98L910.76,297.17L914.84,295.86L918.17,298.9L919.32,294.54L923.04,297.1L931.02,297.78L932.75,292.19L939.98,292.58L941.5,288.53L945.28,287.97L950.47,283.62L961.28,279.25L961.28,279.25L961.4,284.09L969.5,284.27L971.41,285.67L1015.59,323.19L1041.34,343.6L1082.16,345.68L1089.12,333.63L1092.43,334.61L1097.19,329.28L1110.78,331.31L1113.71,329.95L1114.62,333.3L1121.45,335.95L1120.2,341.37L1126.3,344.86L1130.39,350.59L1130.72,359.13L1136.14,365.67L1136.01,371.07L1137.02,372.16L1134.14,373.98L1131.77,372.5L1128.97,374.14L1127.15,372.98L1120.7,373.33L1120.55,374.5L1116.72,376.31L1114.16,379.03L1112.01,376.98L1110.69,377.02L1108.3,382.22L1154.99,445.54L1153.5,447.26L1154.61,449.85L1151.41,452.15L1150.73,454.52L1151.95,455.83L1149.83,457.81L1150.47,460.63L1146.08,461.71L1145.79,463.82L1141.05,468.67L1140.44,470.69L1141.86,476.25L1141.33,477.14L1134.72,480.82L1127.69,487.35L1124.85,487.87L1100.86,512.03L1093.45,512.47L1081.99,508.92L1078.57,509.94L1077.74,509.11L1075.89,510.52L1072.37,510.29L1071.38,511.6L1065.5,512.95L1060.26,511.23L1058.28,514.17L1056.05,513.31L1053.27,515.77L1050.49,514.94L1047.42,516.61L1043.65,515.53L1043.23,512.33L1041.12,511.12L1041.73,509.24L1040.29,508.76L1040.22,507.32L1038.36,505.34L1036.58,508.25L1035.27,508.7L1031.08,506.06L1027.6,507.76L1026.51,506.03L1024.27,506.58L1022.7,505.02L1020.73,506.08L1019.83,507.99L1018.27,507.74L1015.08,509.41L1014.44,512.03L1015.6,515.35L1013.81,515.64L1012,517.4L1010.88,516.61L1009.57,519.87L1005.97,520.96L1009.11,527.59L1007.17,530.41L1004.61,529.01L1003.72,530.29L1002.19,530.1L1001.16,527.74L997.9,526.25L997.01,527.5L997.3,530.56L998.94,532.44L998.52,530.78L999.51,530.62L1000.25,534.13L996.94,536.75L993.64,534.82L984.25,534.55L982.65,533.22L980.1,535.2L981.07,537.92L983.82,539.72L982.75,542.6L983.01,546.43L984.33,547.99L983.02,548.41L981.74,546.69L978.61,546.99L975.68,550.35L970,550.94L969.37,553.08L971.26,554.32L971.61,552.91L974.26,555.07L975.21,561.23L978.19,565.08L977.49,566.58L971.93,562.61L967.21,563.93L964.19,559.22L960.91,559.65L959.46,558.25L958.27,562.75L951.64,568.37L950.35,571.28L915.29,571.16L893.14,580.37L894.67,573.56L892.5,572.71L894.26,569.54L877.1,566.08L877.1,566.08L882.94,553.21L885.55,553.21L891.07,560.07L893.42,559.12L893.87,551.41L901.97,541.31L900.71,539.47L902.12,534.98L900.24,533.59L898.08,524.93L900.68,522.1L905.01,520.29L902.59,511.58L898.41,503.5L896.85,487.05L897.9,479.18L884.53,478.87L873.51,472.32L866.64,466.93L853.01,467.08L850.18,462.97L845.53,463.38L837.29,461.49L836.37,466.87L832.15,466.62L829.66,455.59L825.09,451.35L816.81,452.92L816.12,445.17L814.02,443.52L810.23,442.56L811.41,437.73L809.18,434.33L815.47,422.39L820.92,422.29L824.41,419.58L830.29,418.01L828.01,410.91L823.89,411.51L822.64,406.21L817.68,404.29L813.75,399.71L801.47,396.1L798.93,391.55L803.13,384.6L807.28,380.53L803.64,375.04L796.77,373.23L792.55,368.76L793.86,361.93L796.92,353.73L796.92,353.73L799.02,345.11L794.22,330.97L799.15,323.76L797.05,320.21L782.31,311.79L777.79,299.46L774.64,295.17L775.75,292.1L775.11,285.01L776.81,277.83L784.51,267.39L781.66,258.44L785.62,251.62L788.24,244.55L786.75,240.39L784.36,237.34L785.62,231.06L795.51,225.17z"/>
		<path id="BF-09" title="Hauts-Bassins" class="land" d="M188.75,422.44L190.5,424.3L193.64,424.96L197.14,423.48L202.84,423.92L205.23,422.92L206.91,420.66L209.21,420.08L213.13,422.01L213.62,423.9L212.24,430.57L213.05,432.29L218.27,432.68L215.61,440.89L214.98,452.31L209.49,466.36L211.27,470.42L214.68,471.57L225.97,467.32L228.04,470.06L233.56,469.35L237.9,463.97L239.82,456.38L243.93,446.26L249.12,441.41L259.92,441.98L262.63,441.5L266.31,438.78L270.17,439.25L276.58,442.8L278.92,441.23L281.05,442.83L282.24,442.16L283.07,444.09L283.76,447.96L282.71,452.79L288.95,453.54L288.6,455.45L294.56,459.05L293.79,462.87L300.22,465.3L307.2,469.97L314.48,470.99L319.66,467.4L333.76,465.65L337.92,468.78L346.64,472.99L350.27,472.64L360.7,476.99L356.43,488.51L358.88,489.8L361.08,489.64L364.73,493.73L372.47,495.27L372.51,502.76L374.34,505.64L378.15,508.4L381.45,503.18L383.87,503.59L385.79,505.41L391.31,499.58L397.74,497.68L404.7,491.87L408.55,490.8L412.86,492.1L417.99,496.71L424.58,495.23L429.12,498.35L430.61,497.69L431.86,495.01L435.66,497.16L440.03,500.34L437.98,506.24L439.09,508.35L440.02,517.81L438.37,524.09L434.55,531.14L434.55,531.14L425.38,526.92L415.72,525.04L411.28,522.02L400.11,525.59L396.65,525.59L395.8,521.71L389.57,522.72L384.55,524.92L374.77,537.62L372.73,547.03L368.84,548.77L365.75,547.23L359.53,551.21L354.32,550.58L353.32,546.96L352.75,549.59L350.81,552.22L345.93,552.76L341.31,559.45L337.66,560.68L335.18,564.72L332.39,566.06L332.51,567.52L334.89,569.97L333.89,574.66L329.48,579.11L326.48,579.81L323.99,584.88L325.14,588.59L320.95,589.07L320.15,591.15L315.55,591.04L314.75,594.77L314.75,594.77L307.52,595.01L297.79,606.14L298.71,609.18L294.95,611.78L292.09,612.21L288.11,614.54L285.35,613.85L285.28,611.65L271.88,608.4L266.69,602.67L264.21,601.29L251.24,606.21L239.97,612.85L238.26,611.96L236.5,608.75L230.23,606.5L225.24,605.47L223.02,605.94L219.79,601.19L216.04,591.59L212.22,589.09L202.66,589.1L195.08,593.97L194.23,595.82L185.06,602.44L178.9,599.05L174.88,598.66L166.28,586.7L155.51,587.28L146.32,585.67L143.59,586.84L141.67,589.85L136.03,592.65L131.65,594.06L126.82,594.16L116.06,597.92L113.02,596.33L105.72,587.76L102.66,580.57L86.14,565.22L72.17,564.07L72.17,564.07L72.87,560.82L86.1,557.21L93.33,551.84L95.15,543.39L102.83,538.26L103.86,533.87L103.71,520.99L110.48,515.87L112.78,510.76L110.74,506.01L110.66,499.65L112.18,497.32L110.06,493.3L109.53,489.53L107.06,486.81L101.14,486.83L99.13,484.8L102.9,475.55L102.27,472.24L103.94,464.72L100.99,465.29L99.35,463.71L99.08,461.67L91.98,458.91L91.16,460.19L87.05,457.25L85.82,457.61L84.19,456.42L84.44,454.7L87.77,453.76L91.59,456.22L95.08,453.43L98,454.34L98.44,453.2L100.9,452.14L101.72,453.95L103.43,454.72L105.41,453.74L105.79,450.86L109.36,448.75L111.24,446.35L114.27,445.1L115.63,441.6L118.47,441.14L118.94,438.88L120.93,438.86L129.36,434.41L140.82,434.21L146.52,431.69L156.42,431.67L161.94,429.42L163.96,430.78L172.54,430.83L176.53,432.29L180.23,424.87L183.54,423.86L186.95,424.34z"/>
		<path id="BF-10" title="Nord" class="land" d="M530.28,117.85L543.53,136.66L552.12,141.27L563.08,149.75L570.67,153.37L568.92,157.64L568.34,164.44L569.64,168.75L573.26,173.75L575.38,179.05L585.93,190.28L585.93,190.28L588.72,194.52L587.59,199.37L582.09,198.89L577.31,202.36L570.98,204.81L567.79,210.35L567.98,216.56L573.95,229.07L572.04,232.8L573.8,235.15L572.2,239.59L573.46,243.23L572.89,246.21L577.89,249.2L579.76,254.24L585.5,253.29L586.52,258.91L590.05,261.92L589.08,266.22L590.22,270.38L587.15,271.93L586.62,275.24L599.79,284.86L605.58,286.58L610.12,291.35L615.86,295.03L615.27,303.83L612.58,305.76L612.58,305.76L610.84,306.92L599.6,301.38L588.06,306.23L569.61,310.72L565.8,315.26L561.11,318.29L557.68,323.14L555.52,328.38L556.91,333.5L559.33,337.43L559.33,337.43L556.02,339.76L551.97,332.78L548.06,333.61L543.98,332.68L540.65,335.18L537.94,335.57L533.26,334.34L525.13,334.58L521.1,336.5L515.39,336.98L508.74,341.51L507.26,341.25L503.87,343.05L492.25,346.21L488.55,345.48L488.57,341.29L495.4,335.51L494.42,333.93L482.59,334.68L481.07,332.57L481.4,328.56L485.48,322.18L482.39,318.55L478.83,318.26L477.06,319.07L463.95,329.21L463.95,329.21L456.44,320.6L454.13,320.59L453.58,317.66L457.34,300.46L455.31,287.26L456.52,281.18L458.82,279.55L467.93,280.98L474.61,280.85L477.44,278.54L483.77,268.09L491.56,258.07L489.65,255.86L486.3,254.8L481.47,254.36L479.68,256.31L470.32,251.36L468.41,245.46L465.93,243.44L465.13,230.24L462.8,227.47L456.83,226.16L454.51,222.67L454.08,220.2L434.71,215.5L429.79,210.9L423.99,203.32L423.99,203.32L426.72,200.57L424.53,191.08L424.11,176.68L430.92,162.1L433.03,154.77L435.64,151.62L481.72,132.77L517.35,121.15z"/>
		<path id="BF-11" title="Plateau-Central" class="land" d="M559.33,337.43L556.91,333.5L555.52,328.38L557.68,323.14L561.11,318.29L565.8,315.26L569.61,310.72L588.06,306.23L599.6,301.38L610.84,306.92L612.58,305.76L612.58,305.76L619.82,310.65L623.67,311.73L626.95,310.17L633.41,312.14L638.24,312.22L639.47,316.31L641.68,317.75L655.49,321.11L668.04,330.65L667.79,335.94L670.6,338.23L670.38,341.73L668.71,343.14L668.44,347.24L671.87,344.26L673.68,339.93L687.71,339.11L702.08,356.92L710.23,358.79L716.82,355.16L720.99,351.57L724.08,348.54L722.52,343.44L722.6,338.87L726.56,336.71L736.44,338.01L740.21,345.9L741.65,351.9L740.49,356.5L741.25,361.36L741.25,361.36L743.51,369.88L753.21,369.97L752.72,377.64L757.31,378.13L754.4,384.54L754.64,388.83L757.61,392.55L760.71,405.45L767.78,409.1L765.87,412.86L768.38,422.84L766.91,428.2L764.16,433.4L750.83,432.78L742.9,435.8L733.68,449.41L726.62,453.95L719.17,453.84L712.87,456.37L712.87,456.37L712,452.64L705.41,450.8L703.4,449.33L704.08,445.68L701.45,437.01L695.76,432.41L690.28,426.27L684.71,414.3L679.08,409.94L679.41,407.96L679.41,407.96L680.25,402.98L675.12,401.65L675,395.11L669.49,397.17L663.03,390.96L661.47,392.77L654.9,384.77L651.37,386.33L651.19,381.89L654.61,372.7L652.28,365.05L650.2,363.05L646.11,363.55L644.3,361.71L640.76,362.63L635.9,366.89L622.59,367.66L627.02,359.08L625.2,356.27L623.53,355.67L622.98,353.27L621.06,352.8L619.03,355.28L611.61,357.57L610.17,355.72L610.04,351.96L612.94,346.66L609.31,340.06L606.67,338.01L602.37,350.75L592.31,351.85L588.92,353.7L595.07,377.54L586.91,378.55L575.84,384.11L575.84,384.11L570.63,383.72L560.23,386.11L549.48,394.16L545.8,394.86L540.63,391.18L540.59,389.61L546.75,380.2L546.82,373.92L550.4,371.9L550.49,367.66L560.66,367.32L569.61,371.8L580.61,367.11L577,351.41L572.32,348.61L563.02,346.1L560.72,344.47L561.8,340.35z"/>
		<path id="BF-12" title="Sahel" class="land" d="M762.9,0.25L770.03,9.75L772.08,10.57L790.57,0.8L802.33,4.62L824.08,13.74L838.31,14.74L856.78,13.1L857.65,27.71L853.03,34.28L857.7,46.95L857.04,50.86L849.68,70.43L848.37,78.78L851.66,87.6L854.09,89.94L854.76,89.17L863.09,99.16L869.6,101.47L876.06,109.03L878.98,114.98L878.88,118.05L875.1,126.21L874.28,131.48L875.14,134.6L879.49,140.19L877.98,142.42L880,148.4L887.05,155.44L887.73,159.34L891.2,157.12L891.57,159.15L890.23,161.12L890.22,163.86L892.76,167.17L896.72,170L898.04,174.67L904.58,178.55L906.12,182.12L909.38,183.34L909.45,182.29L910.38,182.25L911.08,185.24L907.54,190.13L908.3,193.02L910.18,194.52L912.44,195.31L931.23,195.38L934.55,197.57L932.03,199.4L932.47,202.42L938.71,205.79L941.34,205.07L949.66,205.79L956.71,211.13L961.02,211.71L963.21,214.24L964.42,218.07L963.4,219.7L964.32,224.18L967.98,224.77L971.68,227.8L974.44,227.91L981.12,234.45L983.79,234.64L984.29,235.54L992.77,238.19L995.41,237.62L1000.9,242.21L1000.65,243.43L994.09,245.69L992.11,240.52L990.12,240.08L990.4,243.49L987.4,248.06L982.77,247.3L980.52,245.24L978.79,245.79L969.67,240.81L961.27,240.49L961.28,279.25L961.28,279.25L950.47,283.62L945.28,287.97L941.5,288.53L939.98,292.58L932.75,292.19L931.02,297.78L923.04,297.1L919.32,294.54L918.17,298.9L914.84,295.86L910.76,297.17L908.32,299.98L904.07,298.79L907.86,298.11L904.64,289.89L895.58,283.31L895.08,277.39L888.21,275.45L886.89,270.12L882.35,267.74L861.1,261.47L860.1,254.19L847.85,242.02L839.99,224.44L834.97,224.21L834.88,216.46L833.78,211.45L819.37,217.51L809.46,213.15L803.53,211.96L800.05,212.86L798.97,218.54L794.34,222.89L794.34,222.89L790.41,215.59L794.49,212.03L795.24,204.24L783.38,204.78L777.23,203.35L772.52,199.05L769.83,194.36L765.1,192.89L763.15,180L759.7,175.77L752.63,168.22L739.99,161.43L737.37,156.39L732.96,156.62L730.82,162.37L725.12,164.32L705.24,174.71L687.62,178.02L681.83,182.22L675.16,181.15L671.74,185.19L663.23,186.35L657.61,185.37L650.97,188.33L642.66,188.92L641.58,187.26L627.45,184.02L619.48,178.98L617.18,172.55L615.99,165.44L600.67,173.05L596.03,171.66L589.57,181.88L585.93,190.28L585.93,190.28L575.38,179.05L573.26,173.75L569.64,168.75L568.34,164.44L568.92,157.64L570.67,153.37L563.08,149.75L552.12,141.27L543.53,136.66L530.28,117.85L530.28,117.85L536.52,106.1L549.16,73.71L552.36,69.81L631.47,43.16L643.31,40.4L683.94,35.03L694.91,27.86L712.46,9.78L726.78,0.31z"/>
		<path id="BF-13" title="Sud-Ouest" class="land" d="M314.75,594.77L315.55,591.04L320.15,591.15L320.95,589.07L325.14,588.59L323.99,584.88L326.48,579.81L329.48,579.11L333.89,574.66L334.89,569.97L332.51,567.52L332.39,566.06L335.18,564.72L337.66,560.68L341.31,559.45L345.93,552.76L350.81,552.22L352.75,549.59L353.32,546.96L354.32,550.58L359.53,551.21L365.75,547.23L368.84,548.77L372.73,547.03L374.77,537.62L384.55,524.92L389.57,522.72L395.8,521.71L396.65,525.59L400.11,525.59L411.28,522.02L415.72,525.04L425.38,526.92L434.55,531.14L434.55,531.14L431.49,536.62L438.24,538.24L439.43,540.64L439.43,540.64L440.79,541.92L441.91,546.96L441.64,551.25L442.68,552.74L448.72,549.87L449.44,545.72L452.05,544.13L464.02,553.74L464.01,557.22L462.37,562.42L461.06,563.75L454.06,563.8L451.71,568.17L451.44,571.27L451.44,571.27L446.79,571.05L445.43,570.15L436.92,570.22L435.49,576.36L438.46,580.36L438.19,582.82L436.04,586.27L432.11,587.65L432.15,591.22L430.26,594.79L428.77,602.11L422.25,610.2L422.09,611.86L425.65,613.04L426.37,614.3L425.62,617.11L422.33,620.2L421.67,622.15L432.04,646.75L437.7,649.96L444.86,651.49L442.8,654.01L437.89,654.98L436.85,655.99L434.22,665.23L436.22,668.57L444.76,672.94L446.75,676.28L445.66,679.25L441.68,684.28L443.03,690.56L442.11,694.61L442.75,702.13L448.1,715.29L445.72,721.18L445.61,724.14L446.33,727.3L450.43,733.01L449.54,734.84L445.94,737.6L442.27,744.14L442.22,750.01L443.23,751.96L446.71,754.35L447.89,758.74L444.79,764.92L445.54,769.48L450.6,773.99L453.44,775.21L456.71,779.9L454.34,781.83L448.01,790.83L445.58,791.86L441.79,789.49L427.75,774.07L418.85,758.1L413.29,745.57L411.85,744.75L407.6,748.13L405.98,748.04L401.66,742.29L401.2,738.17L397.01,730.76L388.59,730.71L387.57,729.08L387.42,719.3L384.84,720.21L383.37,723.22L381.35,723.77L375.68,729.78L370.56,728.75L371.71,724.72L371,722.89L366.3,724.33L359.77,720.81L356.55,721.52L349.83,719.63L338.92,719.46L332.08,720.38L326.27,715.2L321.87,717.56L317.1,717.22L311.16,718.72L306.13,721.45L303.32,724.72L292.04,723.15L292.04,723.15L292.13,718.75L286.15,712.3L278.04,705.96L279.89,699.18L282.19,694.81L290.32,696.66L299.35,694.01L303.09,691.84L307.03,683.41L311.22,677.72L311.9,675.21L310.64,673.01L309.27,665.78L306.98,661.7L313.72,652.85L315.62,646.88L319.17,644.02L318.1,640.57L318.08,627.84L319.34,622.14L319.04,620.13L315.93,616.27L308.45,615.17L305.34,612.16L305.4,610.53L306.47,608.03L308.17,606.92L319.87,607.03L318.89,601.43L317.3,598.84L314.67,597.11z"/>
	</g>
</svg>