<?xml version="1.0" encoding="utf-8"?>
<!-- (c) ammap.com | SVG map of Burundi - High -->
<svg xmlns="http://www.w3.org/2000/svg" xmlns:amcharts="http://amcharts.com/ammap" xmlns:xlink="http://www.w3.org/1999/xlink" version="1.1">
	<defs>
		<style type="text/css">
			.land
			{
				fill: #CCCCCC;
				fill-opacity: 1;
				stroke:white;
				stroke-opacity: 1;
				stroke-width:0.5;
			}
		</style>

		<amcharts:ammap projection="mercator" leftLongitude="29.000204" topLatitude="-2.309240" rightLongitude="30.850509" bottomLatitude="-4.470164"></amcharts:ammap>

		<!-- All areas are listed in the line below. You can use this list in your script. -->
		<!--{id:"BI-BB"},{id:"BI-BL"},{id:"BI-BM"},{id:"BI-BR"},{id:"BI-CA"},{id:"BI-CI"},{id:"BI-GI"},{id:"BI-KI"},{id:"BI-KR"},{id:"BI-KY"},{id:"BI-MA"},{id:"BI-MU"},{id:"BI-MW"},{id:"BI-MY"},{id:"BI-NG"},{id:"BI-RT"},{id:"BI-RY"}-->

	</defs>
	<g>
		<path id="BI-BB" title="Bubanza" class="land" d="M181.23,302.97L179.96,305.7L176.7,308.66L177.32,311.25L176.61,311.95L178.49,314.27L179.78,314.32L180.19,315.55L184.73,319.14L185.21,319.91L184.59,320.63L185.6,322.27L184.89,323.6L183.55,323.27L182.07,324.56L182.36,325.9L181.56,329.6L179.13,333.3L178.52,337.93L175.56,341.39L174.38,345.08L173.48,346.19L172.95,346.11L172.76,349.2L173.6,349.62L172.58,350.54L170.52,354.46L169.88,354.81L168.38,354.16L166.12,354.33L166.12,354.33L161.83,349.55L159.65,352.07L158.13,352.68L156.7,351.9L155.69,352.04L153.93,353.75L152.09,353.92L149.08,353.12L146.43,353.61L143.22,353.4L141.85,354.79L137.69,356.94L138.04,355.81L137.1,351.7L114.25,354.62L112.82,355.17L112.08,356.8L108.87,358.64L107.18,359.06L106.35,358.71L102.37,362.2L100.54,363L99.05,362.73L96.97,364.31L95.71,367.56L92.58,371.46L92.26,372.65L91.31,371.3L89.11,370.26L86.9,367.76L86.16,363.69L84.38,360.61L83.52,360.32L83.58,359.13L82.37,358.94L82.55,356.38L81.41,356.42L80.6,355.76L79.37,356.2L79.37,356.2L76.5,352.85L75.82,348.84L76.22,347.67L74.6,344.33L74.89,341.02L76.51,339.82L76.28,338.79L77.4,337.72L77,336.58L75.23,334.81L75.25,333.75L74,333.83L73.39,332.69L74.33,329.16L75.51,329.18L76.39,328.27L74.09,326.95L76.81,322.51L75.42,321.09L75.46,319.81L76.47,319.62L77.19,318.9L77.52,317.28L79.12,316.52L79.23,313.44L80.6,313.16L80.48,311.09L81.02,309.68L82.36,310.16L81.45,308.2L81.95,307.84L83.38,308.62L84.66,305.81L86.09,305.41L84.7,304.99L82.74,303L83.37,302.26L83.4,300.95L85.01,301.06L85.01,301.06L88.08,300.79L90.44,301.78L91.99,300.19L93.29,300.79L95.33,300.74L97.66,299.42L96.5,292.38L97.49,288.96L98.65,288.98L96.82,284.96L95.75,283.94L95.44,278.21L97.77,277.11L100.1,273.88L99.97,270.48L101.44,270.04L102.69,270.38L103.48,269.37L104.84,269L105.64,270.05L107.66,270.5L112.48,267.3L113.87,268.31L115.09,267.75L115.83,268.39L116.91,267.56L117.15,266.57L118.17,265.83L116.75,263.59L116.71,262.38L119.03,253.87L121.46,252.71L122.34,250.98L123.54,251.25L126.36,249.67L130.59,250.06L131.7,251.38L131.41,253.21L132.26,253.58L131.96,254.55L132.48,255.81L134.19,255.43L135.26,256.39L135.89,255.61L136.07,253.71L137.75,253.76L138.9,252.83L139.88,252.89L141.19,251.25L141.61,249.59L144.88,248.76L147.71,246.96L148.92,246.57L151.71,247.47L155.48,246.48L156.14,247.28L156.51,246.85L157.56,247.46L158.08,242.48L160.4,240.09L160.4,240.09L163.61,240.35L165,239.62L165.95,239.76L166.72,240.43L167.07,242.26L168.45,242.43L169.51,243.6L167.67,249.07L168.62,250.43L168.16,253.33L169.18,255.01L169.82,258.4L170.94,258.94L171.6,260.55L171.61,262.05L172.75,264.35L171.9,266.37L172.91,268.22L173.52,271.41L174.35,272.32L174.45,273.9L176.43,276L176.05,276.65L177.66,278.11L177.83,279.06L178.8,279.34L178.37,281.45L177.4,282.24L178.11,282.54L178.19,283.31L179.6,283.63L180.32,285.89L179.77,287.1L183.31,292.24L183.29,294.06L182.07,295.68L182.85,297.79z"/>
		<path id="BI-BL" title="Bujumbura Rural" class="land" d="M166.12,354.33L167.85,356.75L167.93,358.8L169.91,361L171.11,361.05L172.77,363.22L173.91,369.04L176.44,372.48L176.56,373.25L175.46,375.16L173.55,376.42L172.52,379.4L174.99,380.72L176.16,383.45L180.21,386.61L181.97,388.86L183.13,391.67L183.96,396.19L184.86,397.37L184.94,399.01L185.95,399.02L188.44,394.83L192.24,393.49L192.24,393.49L195.11,395.71L195.52,396.98L194.21,398.43L192.84,402.77L191.72,404.05L192.48,406.05L191.27,408.77L191.53,410.31L190.96,411.33L191.76,412.51L193.18,413.24L193.86,414.93L193.5,415.99L197.64,419.68L197.91,422.59L197.56,423.77L193.11,426.96L191.96,429.23L192.18,433.12L191.7,433.26L191.92,436.48L191.16,437.4L191.29,439.91L194.76,440.86L194.09,446.72L193.12,447.45L189.79,446.4L189.06,447.3L189.31,448.29L188.65,449.69L188,449.84L187.18,451.26L187.18,451.26L185.66,452.05L184.16,451.79L181.22,454.52L181.84,457.18L181.5,458.23L180.23,458.73L176.25,462.51L175.64,467.04L171.84,471.76L170.94,474.07L171.02,476.62L169.68,478.78L170,483.47L168.87,485.33L169.23,486.67L168.15,487.39L167.49,489.55L166.57,490.15L164.13,489.84L163.94,490.75L162.86,491.08L161.58,494.24L162.21,496.06L163.8,497.41L163.13,499.1L163.51,500.18L162.87,500.92L161.19,500.92L160.61,502.01L159.1,501.82L157.83,499.81L156.52,502.07L155.03,501.81L155.17,502.39L154.01,503.63L151.06,503.21L150.81,503.73L149,503.12L148.53,501.11L147.73,500.92L146.54,502L145.53,501.73L143.77,502.72L142.71,503.93L142.5,505.4L141.81,506L140.39,505.81L139.58,506.99L138.65,505.95L137.47,506.09L137.19,504.83L136.71,505.72L135.14,506.04L131.68,505.19L127.66,506.19L125.89,505.21L116.69,506.74L115.17,506.17L113.06,506.96L109.86,506.91L105.33,508.26L103.16,508.36L103.16,508.36L102.62,503.31L103.72,501.48L105.92,499.6L105.88,496.46L106.99,495.19L108.4,491.72L108.17,491.03L109.66,488.67L109.81,485.89L111.66,482.13L111.01,480.61L112.44,477.7L113.34,472.97L113.2,470.83L114.91,469.51L114.39,468.3L115.52,465.8L114.47,461.68L113.43,459.82L113.49,457.11L115.14,455.83L115.66,451.89L113.56,449.82L113.71,448.31L111.8,445.97L112.14,444.43L111.51,442.97L112.44,439.05L111.38,436.8L113.95,430.7L112.34,428.4L110.48,427.57L110.59,426.9L110.59,426.9L111.52,427.42L112.52,426.47L113.61,426.94L114.71,426.1L115.77,426.57L119.21,425.45L120.48,424.37L122.15,425.37L124.06,425.15L123.27,424.78L122.56,420.6L123.76,418.99L124.02,416.14L122.22,414.21L123.41,407.49L127.44,408.3L131.11,407.14L131.35,406.64L129.9,406.42L128.44,405.34L126.35,405.53L126.96,403.39L126.26,402.4L127.95,402.07L126.49,399.74L126.48,398.84L127.05,397.62L128.93,397.22L132.59,398.26L133.4,399.59L133.42,397.31L132.71,396.17L133.66,395.39L132.47,392.29L133.33,392.47L134.86,387.13L134.3,381.32L136.02,378.56L139.07,377.11L138.79,375.86L140.43,375.18L140.72,374.45L137.94,372.65L129.84,370.35L125.81,371.1L121.45,369.72L118.64,369.99L114.48,368.99L113.19,368.99L109.19,374.24L106.71,367.39L102.76,367.97L104.7,379.67L104.06,379.93L104.8,382.24L97.1,381.13L95.15,381.36L96.16,382.18L96.16,382.18L93.72,384.65L94.77,384.98L93.72,386.06L89.96,385.49L89.02,384.65L88.37,385.34L86.5,384.75L76.01,384.6L74.43,384L81.44,384.2L84.39,383.6L85.44,383.2L85.92,381.99L85.88,381.05L85.11,380.39L82.57,380.17L78.98,381.01L77.78,380.55L77.49,382.24L75.25,380.55L74.72,380.93L73.35,380.22L72.95,380.71L71.74,380.22L70.73,381.22L69.86,379.09L70.74,377.42L71.97,377.03L72.34,376.22L71.36,374.97L71.42,372.99L69.98,370.11L69.9,365.41L70.43,364.63L71.9,364.57L72.72,363.69L74.85,363.53L75.22,361.13L78.85,358.85L78.25,357.09L79.37,356.2L79.37,356.2L80.6,355.76L81.41,356.42L82.55,356.38L82.37,358.94L83.58,359.13L83.52,360.32L84.38,360.61L86.16,363.69L86.9,367.76L89.11,370.26L91.31,371.3L92.26,372.65L92.58,371.46L95.71,367.56L96.97,364.31L99.05,362.73L100.54,363L102.37,362.2L106.35,358.71L107.18,359.06L108.87,358.64L112.08,356.8L112.82,355.17L114.25,354.62L137.1,351.7L138.04,355.81L137.69,356.94L141.85,354.79L143.22,353.4L146.43,353.61L149.08,353.12L152.09,353.92L153.93,353.75L155.69,352.04L156.7,351.9L158.13,352.68L159.65,352.07L161.83,349.55z"/>
		<path id="BI-BM" title="Bujumbura Mairie" class="land" d="M110.59,426.9L109.83,423.44L110.37,422.52L111.85,422.12L113.65,418.08L113.39,417L114.02,414.76L113.31,411.99L114.49,410.4L114.61,409.36L112.8,406.14L113.2,401.74L113.47,401.06L114.43,401.25L115.26,399.78L114.82,397.55L115.78,396.19L115.69,394L112.9,390.3L111.62,389.91L112.63,389.28L112.83,387.58L111.81,386.18L109.14,385.28L108.36,385.67L107.6,384.54L102.39,382.76L96.16,382.18L96.16,382.18L95.15,381.36L97.1,381.13L104.8,382.24L104.06,379.93L104.7,379.67L102.76,367.97L106.71,367.39L109.19,374.24L113.19,368.99L114.48,368.99L118.64,369.99L121.45,369.72L125.81,371.1L129.84,370.35L137.94,372.65L140.72,374.45L140.43,375.18L138.79,375.86L139.07,377.11L136.02,378.56L134.3,381.32L134.86,387.13L133.33,392.47L132.47,392.29L133.66,395.39L132.71,396.17L133.42,397.31L133.4,399.59L132.59,398.26L128.93,397.22L127.05,397.62L126.48,398.84L126.49,399.74L127.95,402.07L126.26,402.4L126.96,403.39L126.35,405.53L128.44,405.34L129.9,406.42L131.35,406.64L131.11,407.14L127.44,408.3L123.41,407.49L122.22,414.21L124.02,416.14L123.76,418.99L122.56,420.6L123.27,424.78L124.06,425.15L122.15,425.37L120.48,424.37L119.21,425.45L115.77,426.57L114.71,426.1L113.61,426.94L112.52,426.47L111.52,427.42z"/>
		<path id="BI-BR" title="Bururi" class="land" d="M238.56,482.58L242.73,482.44L245.44,483.43L247.65,483.08L250.1,480.16L252.41,480.73L252.88,482.17L254.44,483.91L257.42,485.49L258.09,487.43L256.83,489.73L256.9,491.56L258.04,492.36L258.2,493.18L256.89,495.73L256.19,499.46L255.98,504.6L254.52,510.58L254.94,512.51L254.26,515.22L254.58,516.76L252.09,519.8L251.42,525.06L251.78,527.04L249.61,530.59L249.99,532.91L248.61,535.42L248.02,537.8L248.37,539.11L249.72,539.61L251.29,538.96L254.8,540.19L255.64,539.98L256.29,538.96L257.7,538.81L260.38,535.39L261.27,533.22L264.72,530.21L266.59,526.03L267.97,524.3L267.26,522.63L267.98,522.01L267.31,521.47L267.53,520.38L266.84,520L268.59,518.95L270.54,519.15L271.61,517.87L272.69,511.46L275.26,507.13L275.94,507.33L276.92,506.66L277.42,506.75L277.48,509.18L276.82,512.49L278.73,513.74L281.52,514.37L283.33,516.13L282.42,519.34L283.23,520.56L283.09,521.67L281.27,523.74L281.85,525.29L282.49,525.77L285.01,525.29L284.88,528.71L293.37,531.45L297.58,531.34L298.23,531.86L298.98,535.42L302.41,536.21L302.93,537.69L302.93,537.69L302.98,538.35L300.93,538.92L299.73,541.55L294.36,544.93L296.3,547.3L297.64,548L297.84,548.59L296.5,550.14L297.86,550.85L297.78,552.21L299.42,556.48L293.37,557.49L292.11,560.49L291.84,567.4L291.11,570L289.38,570.46L287.15,573.64L286.19,578.87L284.37,582.95L283.92,583.33L282.9,583.01L282.53,584.79L280.68,586.7L280.12,588.88L279.23,589.14L278.2,591.04L277.54,595.63L274.92,597.06L274.44,599.04L275.21,602.03L274.92,603.19L273.55,604.53L272.01,607.72L269.88,609.42L269.41,610.55L269.41,610.55L266.2,607.71L263.73,601.83L262.45,601.79L262.23,600.69L261.11,599.92L258.11,601.33L253.77,597.82L253.17,600.06L252.15,600.74L251.18,602.86L248.87,603.63L247.27,602.84L245.45,613.78L244.73,615.75L242.52,617.91L242.46,618.57L240.57,618.29L239.46,617.34L233.24,618.39L230.91,620.75L228.76,621.41L225.2,619.89L223.93,621.01L223.3,622.52L221.27,622.46L220.11,623.7L218.47,623.76L217.52,625.21L217.13,627.27L216.51,627.42L216.46,628.89L215.61,629.41L215.73,630.05L213.23,633.56L213.39,634.1L211.62,635.57L209.93,639.66L208.3,641.09L207.23,640.78L206.9,641.7L206.2,641.92L205.62,644.05L203.14,644.58L200.39,647.44L197.14,647.56L195.03,646.8L194.56,647.16L194.91,647.85L193.83,648.73L190.68,648.16L188.44,649.32L188.11,650.07L184.08,648.37L180.91,650.63L178.65,651.5L177.51,654.26L177.83,656.84L178.38,657.16L177.5,659.88L177.5,659.88L171.43,656.23L168.24,651.79L168.56,648.88L168.03,644.42L163.72,635.51L163.33,632.47L162.1,630.86L161.46,627.87L160.16,625.96L157.26,623.45L155.93,619.32L152.95,617.78L151.39,610.88L149.08,608.42L146.4,602.65L144.74,600.98L140.91,599.47L141.29,598.14L140.84,595.58L141.7,594.54L141.88,592.68L142.46,592.78L143.93,590L143.67,588.18L142.38,586.13L140.77,584.87L138.88,584.75L136.78,583.31L136.53,582.56L137.13,581.6L135.21,577.42L134.78,573.77L135.25,572.2L132.71,568.75L132.13,564.92L131.59,564.13L128.96,562.88L128.09,559.93L125.85,556.68L124.52,553.2L123.65,552.56L123.05,550.88L121.4,550.12L120.25,548.47L120.87,546.66L119.99,545.51L119.81,543.77L118.92,543.22L118.27,540.31L117.13,539.12L114.92,538.07L114.15,536.25L114.07,535.45L114.8,534.59L114.55,532.53L113.68,530.09L112.49,528.8L112.02,524.75L109.28,521.5L110.58,520.05L109.79,516.11L109.01,514.91L109.28,513.97L107.81,512.4L107.58,511.25L105.62,510.1L105.34,509.24L103.16,508.36L103.16,508.36L105.33,508.26L109.86,506.91L113.06,506.96L115.17,506.17L116.69,506.74L125.89,505.21L127.66,506.19L131.68,505.19L135.14,506.04L136.71,505.72L137.19,504.83L137.47,506.09L138.65,505.95L139.58,506.99L140.39,505.81L141.81,506L142.5,505.4L142.71,503.93L143.77,502.72L145.53,501.73L146.54,502L147.73,500.92L148.53,501.11L149,503.12L150.81,503.73L151.06,503.21L154.01,503.63L155.17,502.39L155.03,501.81L156.52,502.07L157.83,499.81L159.1,501.82L160.61,502.01L161.19,500.92L162.87,500.92L163.51,500.18L163.13,499.1L163.8,497.41L162.21,496.06L161.58,494.24L162.86,491.08L163.94,490.75L164.13,489.84L166.57,490.15L167.49,489.55L168.15,487.39L169.23,486.67L168.87,485.33L170,483.47L169.68,478.78L171.02,476.62L170.94,474.07L171.84,471.76L175.64,467.04L176.25,462.51L180.23,458.73L181.5,458.23L181.84,457.18L181.22,454.52L184.16,451.79L185.66,452.05L187.18,451.26L187.18,451.26L188.24,452.81L190.77,452.94L194.29,454.35L195.27,453.73L196.12,454.05L196.6,456.26L197.67,456.81L198.52,458.3L202.7,460.72L202.98,467.08L207.7,472.89L209.39,473.61L210.46,473.45L212.49,471.74L213.45,471.84L214.3,472.71L212.87,474.57L213.94,476.21L213.8,478.73L214.46,479.67L215.7,479.64L215.35,480.61L216.17,481.92L218.64,482.11L220.61,483.29L222.59,483.14L224.32,482.1L223.32,488.03L223.79,489.74L222.61,491.24L221.7,491.38L222.74,494.74L219.58,499.42L221.28,504.65L225.22,503.02L228.58,500.07L229.76,499.91L231.68,497.77L232.94,494.47L234.62,492.83L235.34,489.69L236.21,488.9L236.27,486.75L237.12,486.38z"/>
		<path id="BI-CA" title="Cankuzo" class="land" d="M540.84,386.69L537.14,388.17L535.64,389.69L532.9,390.04L530.27,391.17L527.11,393.23L526.54,394.66L521.71,398.19L521.13,397.69L522.13,395.25L521.62,394.56L521.98,392.28L521.28,391.48L521.55,390.88L515.08,388.6L511.98,382.54L506.19,381.15L502.76,382.12L502.45,379.65L502.99,375.18L507.24,372.19L509.57,372.59L510.28,371.95L506.72,370.8L506.41,369.99L503.9,369.04L503.42,367.43L500.78,367.88L500.49,367.1L498.17,367.88L498.39,366.94L496.39,366.99L494.82,365.85L493.41,366.88L492.08,370.3L491.25,370.89L487.94,370.74L486.51,369.2L483.63,369.26L482.8,366.3L479.46,362.52L480.21,361.85L477.54,359.75L478.78,355.23L478.47,352.72L474.88,351.25L472.08,346.02L468.07,344.37L465.89,344.93L465.19,343.84L463.85,343.48L462.13,340.76L458.66,343.43L458.44,341.92L454.44,338.53L454.4,340.21L453.93,340.56L451.43,335.6L447.38,337.49L442.22,336.66L440.87,338.09L438.36,339.37L437.05,339.21L435.41,335.57L435.72,333.42L437.05,332.5L436.56,329.69L436.56,329.69L437.09,328.63L438.21,328.13L437.54,326.39L438.32,325.07L440.69,322.86L444.06,322.92L444.24,321.69L443.66,320.25L446.47,318.34L446.47,318.34L449.73,319.11L450.43,319.81L451.39,319.28L451.65,318.14L450.73,316.75L451.11,314.35L449.64,312.73L451.59,312.67L452.19,311.95L451.96,310.86L454.88,310.57L456.03,307.97L456.84,308.06L457.41,307.11L457.23,306.51L455.94,306.22L456.51,304.06L458.12,304.73L459.2,304.16L458.7,302.82L456.71,300.72L455.99,298.38L455.14,297.74L455.18,296.54L456.72,295.66L456.5,294.56L457.5,292.68L459.61,291.25L461.99,291.14L462.9,290.05L465.45,290.11L465.61,289.06L464.72,287.83L466.65,286.2L467.63,286.86L470.06,286.5L470.72,283.62L469.93,280.97L470.64,279.9L469.15,276.16L470.68,274.74L471.21,273.34L472.72,273.49L472.58,272.18L473.33,270.81L473.02,269.55L474.62,268.48L475.39,268.85L476.26,267.64L476.86,268.96L478.32,268.14L478.39,265.48L477.84,264.98L478.24,263.28L480.78,263.5L481.92,264.9L482.73,265L483.19,263.86L483.62,264.22L485.53,263.76L485.72,262.99L487.28,262.33L487.58,257.49L488.56,256.94L488.76,256.17L491.37,255.65L491.3,254.76L489.76,252.72L492.44,251.56L491.9,250.57L491.9,250.57L493.85,250.53L497.97,252.11L501.42,248.97L503.68,248.39L506.66,244.69L509.2,245.43L513.76,238.4L517.77,234.64L517.56,233.01L520.67,232.32L521.94,232.75L523.15,234.57L523.33,236.22L525.14,236.67L525.43,238.69L527.94,239.2L529.24,242.07L531.29,241.53L533.54,243.07L535.79,243.37L539.74,247.1L542.76,251L544.91,252.2L544.5,257.27L545.77,259.55L547.93,260.45L550.24,263.62L552.5,265.39L555.5,263.41L557.5,261.51L557.61,260.51L560.16,258.73L561.83,258.81L563.94,257.58L565.45,258.11L567.49,260.89L567.07,261.09L568.59,262.29L569.35,262.11L571.12,264.25L572.82,264.01L575.01,264.54L576.78,266.34L578.11,266.67L583.94,265.24L586.03,265.9L590.32,264.27L595.68,263.74L596.33,263.2L597.39,263.56L600.09,261.42L604.32,261.01L607.58,259.56L608.53,259.63L609.43,260.63L610.2,260.21L612,260.85L610.52,262.14L609.99,263.66L608.79,263.99L607.71,266.39L608.03,267.01L604.18,271.24L602.76,275.35L601,276.87L601.43,278.06L600.31,281.71L593.82,285.44L595.89,288.54L596.07,290.03L598.46,291.35L599.99,294.33L605.21,295.24L607.45,298.72L606.11,301.67L606.08,304.34L606.64,305.29L605.22,309.22L605.38,310.02L603.78,313.43L601.29,315.91L602.46,317.06L606.7,314.69L610.54,321.1L610.82,321.98L608.05,331.01L611.32,335.73L609.06,335.86L604.58,338.16L602.27,337.87L600.53,339.67L599.82,341.38L602.3,345.79L602.33,346.87L603.96,348.79L607.72,350.91L609.54,351.2L605.06,354.35L600.95,355.28L599.04,356.66L596.25,357.55L594.73,359.42L588.67,360.47L586.92,361.64L584.11,362.49L583.1,363.55L581.39,363.88L578.04,361.94L577.01,356.1L574.96,355.98L572.33,357.92L572.29,362.04L570.09,364.73L569.29,366.98L567.06,367.74L564.77,369.48L563.2,369.58L557.47,372.01L553.89,373L551.53,372.73L549.58,375.61L549.4,376.86L545.43,380.8L545.1,382.02L542.01,384z"/>
		<path id="BI-CI" title="Cibitoke" class="land" d="M142.24,203.19L143.27,204.37L142.78,204.94L142.97,206.12L144.42,206.48L146.52,205.76L149.78,210.68L149.42,214.46L151.06,216.62L150.41,217.99L151.03,221.14L152.31,223.65L154.45,225.78L153.5,227.78L153.93,229.47L154.85,229.7L156.29,231.41L156.72,235.5L158.41,236.65L160.4,240.09L160.4,240.09L158.08,242.48L157.56,247.46L156.51,246.85L156.14,247.28L155.48,246.48L151.71,247.47L148.92,246.57L147.71,246.96L144.88,248.76L141.61,249.59L141.19,251.25L139.88,252.89L138.9,252.83L137.75,253.76L136.07,253.71L135.89,255.61L135.26,256.39L134.19,255.43L132.48,255.81L131.96,254.55L132.26,253.58L131.41,253.21L131.7,251.38L130.59,250.06L126.36,249.67L123.54,251.25L122.34,250.98L121.46,252.71L119.03,253.87L116.71,262.38L116.75,263.59L118.17,265.83L117.15,266.57L116.91,267.56L115.83,268.39L115.09,267.75L113.87,268.31L112.48,267.3L107.66,270.5L105.64,270.05L104.84,269L103.48,269.37L102.69,270.38L101.44,270.04L99.97,270.48L100.1,273.88L97.77,277.11L95.44,278.21L95.75,283.94L96.82,284.96L98.65,288.98L97.49,288.96L96.5,292.38L97.66,299.42L95.33,300.74L93.29,300.79L91.99,300.19L90.44,301.78L88.08,300.79L85.01,301.06L85.01,301.06L83.55,300.77L81.4,299.05L83.79,298.72L83.15,297.06L84.81,296.53L85.08,295.1L83.57,293.21L84.25,292.55L84.95,293.16L84.3,291.95L85.62,289.96L84.38,289.99L84.3,289.09L82.5,288.2L82.46,287.29L84.11,286.92L83.14,285.75L83.91,284.77L79.14,281.24L79.67,279.6L77.22,279.33L76.42,278.32L77.81,277.13L77.94,275.95L75.61,276.23L74.27,274.37L72.65,275.18L71.01,274.75L68.58,275L67.73,274.48L67.32,275.15L66.41,274.85L64.54,272.92L63.7,270.54L61.09,270.57L60.6,268.81L61.13,267.76L58.53,265L57.56,266.17L56.22,266.68L55.4,266.41L54.74,265.26L56.58,261.7L54.71,258.08L55.68,257.06L54.83,255.91L55.38,254.32L53.21,253.36L52.88,252.27L52.19,252.59L51.12,251.79L51.21,250.96L50.41,250.11L49.71,250.89L47.06,250.11L46.08,247.85L43.61,246.53L42.39,244.57L40.33,244.86L37.03,243.11L36.25,242.14L35.52,242.08L34.48,243.01L33.41,242.57L32.99,241.49L31.88,241.46L29.28,235.12L29.57,231.47L31.03,228.88L30.62,226.83L29.67,225.17L28.32,225.91L27.54,224.68L25.41,224.04L24.84,222.78L22.84,222.93L22.36,221.64L23.15,220.77L21.61,219.62L22.64,218.07L22.05,216.81L21.15,216.93L19.91,215.78L20.14,214.34L19.61,213.1L18.73,211.5L17.02,210.49L16.47,208.36L15.19,208.22L13.16,209.61L9.08,210.53L7.39,208.87L5.44,209.06L3.39,208.27L1.86,207.25L0.46,205.14L0,198.51L0.71,195.61L2.32,194.77L3.77,192.82L6.04,191.65L8.73,188.59L10.48,188.09L12.54,188.63L13.64,180.14L13.33,178.29L13.8,178.15L13.37,177.69L14.23,176.56L14.67,176.91L15.27,175.49L18.13,172.41L18.01,170.89L16.59,170.45L16.16,169.51L17.07,168.33L16.43,166.53L17.91,166.34L17.79,165.28L16.99,165.47L15.48,164.62L16.07,163.75L17.03,163.97L18.41,163.27L18.72,161.62L18.57,161.13L16.94,161.16L16.32,159.89L15.13,159.32L16.03,158.49L15.62,157.16L17.04,154.49L17.8,154.52L17.83,153.07L18.72,153.23L19.95,152.32L19.54,152.29L19.42,151.01L17.56,149.16L17.8,146.74L17.07,144.1L17.39,142.22L19.07,141.61L18.98,139.38L20.32,136.5L23.8,137.02L26.65,134.24L28.8,133.22L30.63,133.03L31.8,134.7L35.9,134.04L37.16,134.92L38.27,134.77L38.28,135.51L39.63,136.14L40.16,137.06L41.02,137.1L41.16,138.39L42.19,139.17L44.5,137.35L45.86,137.69L46.5,137.16L45.78,135.46L47.72,134.1L48.79,134.14L48.92,133.16L49.56,132.98L50.1,134.41L50.73,134.04L51.46,134.73L53.8,134.24L53.8,135.82L55.84,136.84L55.96,138.17L56.86,138.35L57.6,139.31L57.7,141.03L60.23,140.41L60.6,139.54L61.78,139.14L62.48,140.28L61.6,141.06L65.3,141.67L67.34,140.86L69.12,143.18L70.44,142.75L71.36,144.23L72.47,144.52L72.77,146.4L73.64,146.28L73.64,145.35L74.81,144.2L76.19,145.39L77.7,144.93L77.85,143.88L79.02,144.79L79.28,143.93L80.71,143.39L81.18,144.05L81.7,143.11L82.73,144.77L83.68,143.45L86.95,141.85L87.75,141.94L88.66,143.69L91.19,143.28L91.71,144.13L93.22,144.44L94.07,146.21L97.22,149.18L103.08,150.6L105.72,153.08L107.29,152.85L108.95,154.91L108.84,155.61L110,156.74L109.95,158.04L110.87,158.88L110.77,160.38L108.9,163.03L108.25,165.17L108.93,165.9L110.4,165.47L111.49,166.5L112.25,168.54L113.8,169.66L115.68,169.03L115.98,172.97L115.05,174.3L115.04,175.33L115.52,176.71L116.25,176.83L116.06,179.82L116.5,180.39L112.77,183.11L110.67,183.62L110.27,184.53L112.84,186.17L111.85,189.91L113.79,190.17L114.79,191.49L115.93,191.13L115.11,194L116.98,196.11L118.03,199.51L117.23,200.84L116.32,201.24L116.4,202.97L118.68,205.28L119.69,207.75L119.27,209.42L120.61,210.67L119.83,212.42L121.5,212.14L122.6,214.7L124.38,214.14L124.27,212.13L125.47,211.91L127.06,208.85L128.39,208.37L128.66,207.72L130.77,207.03L131.02,208.01L132.09,208.8L134.68,206.46L136.26,206.33L138.41,204.53z"/>
		<path id="BI-GI" title="Gitega" class="land" d="M306.07,296.32L305.72,299.26L304.15,299.57L302.29,301.57L301.64,305.88L302.44,307.04L301.4,308.43L300.53,308.09L299.79,309.92L300.46,310.83L299.45,311.21L296.57,315.09L296.92,316.88L298.04,317.2L297.28,318.5L298.34,321.2L297.99,322.66L298.67,325.97L301.34,327.2L302,326.9L302.68,327.84L303.54,327.59L303.68,327.99L304.95,327.1L305.52,327.46L307.46,325.98L307.25,325.24L308.66,324.8L309.68,323.77L310.59,321.88L312.26,322.37L311.75,320.32L312.59,318.99L317.7,320.12L318.67,322.85L319.15,322.45L318.87,323.41L320.64,326.25L322.36,327.74L324.06,331.85L328.53,335.55L329.66,335.13L329.13,336.32L329.31,338.58L330.63,341.22L332.31,340.9L335.02,341.41L335.32,341.63L334.49,342.38L336.74,344.48L338.35,345.05L337.15,345.28L336.15,346.94L337.28,347.34L337.41,348.45L337.97,347.74L340.16,349.91L339.96,350.86L339.04,351.11L339.03,351.99L338.05,352.08L337.92,352.66L338.17,353.63L339.47,353.97L339.13,356.84L338.54,357.26L339.32,358.64L338.26,360.95L339.51,362.77L338.96,362.53L335.04,365.42L335.18,366.68L332.45,368.67L332.53,369.96L331.69,370.23L330.91,369.25L330.67,371.41L331.51,374.19L330.32,376.04L330.23,378.24L329.67,379.17L328.38,379.03L327.84,382.35L325.77,381.6L324.53,383.7L325.65,385.94L328.5,386.97L328.75,388.47L331.37,389.19L331.7,390.33L333.31,391.72L333.36,392.49L334.21,392.41L334.03,396.06L335.2,397.23L338.23,396.48L338.1,395.11L337.13,394.96L337.35,394.63L340.07,392.28L344.57,390.07L344.57,390.07L344.47,391.25L346.02,391.26L346.08,392.17L345.49,392.62L346.14,392.9L345.91,394.51L346.85,394.97L346.54,396.3L349.61,397.98L349.26,400.16L349.91,401.69L350.94,401.61L351.24,402.82L352.32,403.28L352.56,404.32L357.03,407.41L357.51,409.6L358.07,409.83L357.22,411.32L356.44,411.44L354.38,413.37L352.73,417.12L353.02,418.08L352.13,420.41L352.54,421.25L350.92,422.11L349.82,423.99L349.34,423.7L348.8,424.29L352.77,430.15L353.4,433.16L353.11,434.73L354.4,436.66L353.85,437.5L354.11,438L356.14,439.35L358.46,442.28L359,444.42L357.45,445.43L357.97,445.51L357.5,447.77L358.37,449.42L358.3,450.49L359.44,451.66L359.67,453.25L362.78,456.77L362.07,459.23L363.28,461.41L364.51,461.62L364.1,462.79L365.23,463.14L364.93,466.99L365.44,468.5L363.28,471.43L363.46,472.23L362.83,473.12L363.23,476.07L363.23,476.07L362.83,476.64L363.34,477.46L361.15,480.8L361.46,486.47L357.51,488.52L355.92,492.38L354.32,493.48L354.45,494.76L353.13,495.27L352.63,497.62L350.51,499.25L350.76,500.04L350.09,501.17L347.42,501.69L346.17,501.04L344.16,501.92L341.54,501.77L341.47,502.82L340.76,503.46L338.23,504.04L337.43,505.05L331.6,506.05L327.95,509.03L327.78,510.94L325.23,512.63L322.07,515.94L322.39,517.27L324.68,517.93L330.02,521.13L329.79,522.27L327.55,523.51L324.86,523.48L321.15,526L318.45,526.58L317.96,527.28L316.89,527.19L315.64,528.44L314.08,528.33L313.87,529.18L313.17,529.38L312.74,531.49L313.29,532.19L311.85,533.51L311.63,534.86L309.67,537.44L313.13,540.51L312.7,543.72L313.46,544.53L312.37,545.79L311.18,545.8L309.22,544.24L307.63,544.68L305.92,543.82L303.31,539.92L303.48,537.78L302.93,537.69L302.93,537.69L302.41,536.21L298.98,535.42L298.23,531.86L297.58,531.34L293.37,531.45L284.88,528.71L285.01,525.29L282.49,525.77L281.85,525.29L281.27,523.74L283.09,521.67L283.23,520.56L282.42,519.34L283.33,516.13L281.52,514.37L278.73,513.74L276.82,512.49L277.48,509.18L277.42,506.75L276.92,506.66L275.94,507.33L275.26,507.13L272.69,511.46L271.61,517.87L270.54,519.15L268.59,518.95L266.84,520L267.53,520.38L267.31,521.47L267.98,522.01L267.26,522.63L267.97,524.3L266.59,526.03L264.72,530.21L261.27,533.22L260.38,535.39L257.7,538.81L256.29,538.96L255.64,539.98L254.8,540.19L251.29,538.96L249.72,539.61L248.37,539.11L248.02,537.8L248.61,535.42L249.99,532.91L249.61,530.59L251.78,527.04L251.42,525.06L252.09,519.8L254.58,516.76L254.26,515.22L254.94,512.51L254.52,510.58L255.98,504.6L256.19,499.46L256.89,495.73L258.2,493.18L258.04,492.36L256.9,491.56L256.83,489.73L258.09,487.43L257.42,485.49L254.44,483.91L252.88,482.17L252.41,480.73L250.1,480.16L247.65,483.08L245.44,483.43L242.73,482.44L238.56,482.58L238.56,482.58L238.56,482.58L238.56,482.58L237.3,480.82L237.5,479.99L239.41,478.17L241.26,477.38L243.77,473.72L246.47,471.92L247.58,472.23L248.8,471.37L249.66,471.77L252.36,471.09L253.95,471.59L255.01,471.03L256.91,471.82L257.04,471.08L258.46,470.42L258.93,471.64L260.14,471.16L262.08,473.74L265.67,473.97L266.07,471.19L263.47,470.05L263.43,467.44L261.82,466.67L261.45,465.91L262.06,465.43L261.94,464.75L261.49,464.72L260.65,461.03L259.86,461.05L259.46,459.84L260.02,458.65L258.59,457.75L257.47,455.47L256.72,455.15L254.45,451.87L255.17,447.1L256.66,445.63L257.61,445.57L257.96,443.78L260.82,443.93L260.77,442.86L261.82,442.13L261.58,441.43L262.66,441.74L263.02,441.19L262.56,440.58L263.46,440.2L264.29,440.86L266.14,439.42L271.99,441.61L272.07,441.03L273.75,439.98L275.32,440.39L276.05,439.81L277.79,440.02L277.93,438.38L280.71,436.64L280.35,436.71L281.37,434.65L281.27,432.1L281.92,429.76L281.47,428.89L281.68,426.67L283.54,426.58L282.68,425.64L283.3,424.68L282,424.39L282.24,423.09L281.44,422.19L283.11,420.68L282.66,418.55L283.24,418.38L283.31,417.06L284.96,416.75L283.23,415.52L283.12,415.13L284.5,414.83L283.21,413.74L284.5,412.71L282.12,410.6L282.13,409.83L283.74,407.36L283.54,406.01L284.49,405.62L284.04,404.73L284.38,402.97L285.55,402.05L287.12,402.28L288.06,401.83L288.3,402.26L289.37,400.74L288.79,400.03L287.14,399.61L288.94,398.64L288.41,396.52L282.94,394.1L283.41,393.05L281.72,391.93L281.56,391.18L279.3,390.91L278.14,391.71L277.17,390.62L275.03,390.6L273.03,388.26L273.69,386.18L275.41,385.98L276.19,384.57L275.94,383.7L277.15,383.12L276.99,381.37L277.82,381.11L277.48,380.71L277.89,380.06L274.3,376.82L274.36,375.79L270.67,373.64L270.31,372.78L270.7,371.88L269.79,369.7L264.46,369.8L263.19,366.51L262.43,365.87L260.23,366.32L259.01,365.61L259.01,365.61L257.99,362.53L260.6,359.97L260.54,359.41L263.36,357.7L264.52,355.69L267.8,352.67L267.87,351.23L268.98,349.01L270.36,348.57L270.53,347.72L273.55,345.66L275.33,346.47L275.51,345.68L276.18,345.94L277.04,345.42L278.37,345.97L279.67,345.76L281.1,345.13L281.69,344.24L276.95,341.33L272,340.67L267.27,334.72L267.5,332.16L267.5,332.16L268.78,327.51L274.4,322.87L277.99,318.4L280.97,317.11L281.43,315.02L281.33,309.08L279.45,309.66L275.94,307.23L273.82,306.74L273.57,305.02L272.8,304.64L272,302.7L272.04,299.69L274.5,298.21L279.77,291.22L281.79,290.06L283.04,288.15L285.17,287.75L285.17,287.75L291.03,286.9L293.7,288.23L294.4,289.23L297.48,289.38L299.97,292.55L301.61,296.23L304.24,295.47L304.78,296.21z"/>
		<path id="BI-KI" title="Kirundo" class="land" d="M453.91,55.39L454.67,66L457.84,71.61L457.99,74.42L460.18,76.55L461.96,83.81L466.33,87.84L468.48,92.06L468.03,96.77L462.43,102.34L463.19,107.11L468.98,112.79L466.01,117.35L465.52,119.15L465.76,120.98L466.79,123.14L465.28,129.31L463.13,134.1L461.84,135.38L459.31,135.15L454.99,135.84L451.33,135.17L449.17,135.77L445.5,140.38L444.44,144.24L443.39,145.76L442.16,146.64L439.35,145.86L437.18,146.8L434.33,152.43L431.42,154.45L430.42,156.26L426.9,159.26L422.87,165.56L420.18,166.38L417.78,161.36L413.21,162.08L406.58,164.76L403.25,167.61L402.15,167.16L393.56,175.61L390.5,177.61L387.37,180.86L384.07,179.85L381.87,177.73L379.64,178.05L377.57,183.49L373.71,187.58L373.82,190.35L369.97,195.2L366.93,194.89L363.82,192.14L362.83,192.06L356.24,196.23L356.24,196.23L353.19,196.58L351.15,196.16L351.65,193.17L350.29,191.74L349.28,189.1L347.7,188.54L346.86,187.21L348.19,185.03L347.88,184.26L346.8,183.03L344.02,182.28L337.9,177.56L333.91,175.27L334.25,174.61L336.29,173.96L337.39,171.88L333.2,166.54L332.69,165.57L333.07,164.83L329.84,165.92L329.85,162.84L329.01,161.76L325.47,160.29L322.33,159.81L321.41,158.13L318.68,156.22L313.69,154.36L308.53,155.18L307.75,154.1L307.75,154.1L309.33,149.62L308.92,148.63L307.52,147.96L306.89,146.94L307.72,143.5L307.39,138.82L307.92,132.44L307.28,129.9L305.87,128.58L306.23,127.91L304.61,124.67L304.35,121.99L305.67,120.46L306.15,118.83L307.23,118.08L307.17,116.34L308.84,114.1L309.21,111.33L308.76,109.62L309.61,109.21L310.27,107.9L310.03,106.89L311.53,102.57L314.28,101.62L316.02,99.45L318.49,99.42L319.79,98.25L320.15,95.19L319.49,93.61L320.73,90.34L319.94,88.98L320.02,87.59L319.12,86.54L319.82,85.37L318.12,82.08L317.64,78.35L317.96,74.98L315.63,69.28L315.54,66.68L314.17,63.46L312.06,61.37L311.8,60.35L312.08,58.19L316.2,53.47L315.7,50.22L315.97,46.87L316.95,46.23L324.61,48.92L330.01,51.73L336.47,51.53L340.94,53.21L344.76,56.1L347.41,59.45L351.86,68.19L362.49,77.66L366.53,78.95L372.17,82.24L374.29,82.62L377.49,82.21L380.34,80.7L382.32,80.67L385.82,78.87L390.06,80.03L391.56,79.39L395.5,73.76L396.48,69.31L396.08,67.74L396.54,65.97L398.77,65.59L401.2,64.31L401.61,60.33L402.84,59.11L403.23,55.58L404.78,53.66L407.43,53.85L409.12,55.66L411.69,57L412.94,58.25L413.62,60.74L414.41,61.17L422.65,62.01L428.45,61.44z"/>
		<path id="BI-KR" title="Karuzi" class="land" d="M446.47,318.34L443.66,320.25L444.24,321.69L444.06,322.92L440.69,322.86L438.32,325.07L437.54,326.39L438.21,328.13L437.09,328.63L436.56,329.69L436.56,329.69L434.98,329.61L432.55,331.54L429.94,330.61L429.55,331.62L429.8,335.22L426.36,336.01L422.41,340.01L419.89,341.38L417.31,344.9L416.11,345.36L416.04,347.59L414.28,348.14L412.54,350.21L413.48,351.26L412.96,352.79L412.2,352.76L411.64,354.18L407.05,359.23L408.22,361L408.73,363.82L406.47,364.67L406.09,363.96L405.62,364.36L404.98,363.47L402.76,362.74L402.36,363.15L403.15,365.51L403.09,367.57L401.48,368.5L401.09,369.35L400.49,368.52L398.95,368.13L397.83,369.52L396.61,369.49L394.64,371.38L395.41,373.24L395.51,375.08L395.03,375.42L393.51,374.83L393.3,375.37L389.97,375.95L388.99,375.35L388.42,373.21L385.35,373L385.1,374.43L386.19,375.31L387.3,375.1L387.55,376.21L386.88,376.71L383.62,376.23L383.15,377.13L383.78,378.55L383.54,379.43L381.04,377.56L379.49,377.59L379.06,377.12L378.68,378.24L375.47,379.96L374.86,379.86L374.4,378.62L373.47,378.92L373.7,380.39L372.56,381.68L368.95,378.95L367.17,379.72L365.24,379.24L366.26,380.23L365.07,382.37L364.18,381.46L361.86,380.88L359.92,382.23L358.25,381.77L356.11,383.51L351.19,383.98L350.92,383.01L349.98,383.11L350.42,383.94L349.61,385.67L349.75,387.5L348.25,388.01L346.22,386.98L345.81,389.6L344.57,390.07L344.57,390.07L340.07,392.28L337.35,394.63L337.13,394.96L338.1,395.11L338.23,396.48L335.2,397.23L334.03,396.06L334.21,392.41L333.36,392.49L333.31,391.72L331.7,390.33L331.37,389.19L328.75,388.47L328.5,386.97L325.65,385.94L324.53,383.7L325.77,381.6L327.84,382.35L328.38,379.03L329.67,379.17L330.23,378.24L330.32,376.04L331.51,374.19L330.67,371.41L330.91,369.25L331.69,370.23L332.53,369.96L332.45,368.67L335.18,366.68L335.04,365.42L338.96,362.53L339.51,362.77L338.26,360.95L339.32,358.64L338.54,357.26L339.13,356.84L339.47,353.97L338.17,353.63L337.92,352.66L338.05,352.08L339.03,351.99L339.04,351.11L339.96,350.86L340.16,349.91L337.97,347.74L337.41,348.45L337.28,347.34L336.15,346.94L337.15,345.28L338.35,345.05L336.74,344.48L334.49,342.38L335.32,341.63L335.02,341.41L332.31,340.9L330.63,341.22L329.31,338.58L329.13,336.32L329.66,335.13L328.53,335.55L324.06,331.85L322.36,327.74L320.64,326.25L318.87,323.41L319.15,322.45L318.67,322.85L317.7,320.12L312.59,318.99L311.75,320.32L312.26,322.37L310.59,321.88L309.68,323.77L308.66,324.8L307.25,325.24L307.46,325.98L305.52,327.46L304.95,327.1L303.68,327.99L303.54,327.59L302.68,327.84L302,326.9L301.34,327.2L298.67,325.97L297.99,322.66L298.34,321.2L297.28,318.5L298.04,317.2L296.92,316.88L296.57,315.09L299.45,311.21L300.46,310.83L299.79,309.92L300.53,308.09L301.4,308.43L302.44,307.04L301.64,305.88L302.29,301.57L304.15,299.57L305.72,299.26L306.07,296.32L306.07,296.32L306.64,296.42L307.18,295.43L308.55,294.71L310.47,294.22L310.55,291.6L309.46,289.36L310.75,287.37L311.19,287.63L313.8,286.33L317.47,287L319.96,285.45L320.14,283.46L322.66,279.3L323.3,276.73L325.72,273.61L325.82,271.37L327.03,270.15L330.16,269.02L333.26,266.7L335.87,262.86L337.44,262.54L339.62,263.81L342.19,264.02L343.79,263.67L346.98,260.84L352.74,261.76L354.21,261.2L357.18,261.29L360.57,259.83L364.03,256.55L371.01,251.78L376.73,249.91L379.98,247.7L383.02,245.01L385.53,241.28L389.12,237.39L389.12,237.39L402.03,236.05L406.06,238.77L408.24,238.91L409.28,240.03L411.67,241.03L413.51,244.35L416.04,245.85L418.36,248.77L419.53,249.22L422.76,253.92L423.09,255.53L422.32,256.48L422.04,259.68L422.64,263.97L421.76,266.92L422.6,269.72L421.05,276.69L421.85,278.09L419.73,282.95L419.7,285.28L416.03,289.26L415.54,290.96L412.93,294.71L412.72,296.87L409.64,299.97L407.24,304.77L407.03,305.87L407.73,307.62L410.22,309.44L410.36,311.94L412.04,313.38L413,313.43L413.17,312.98L414.7,313.6L415.81,314.39L417.54,317.39L420.21,317.59L420.91,318.47L423.6,318.15L427.67,315.46L430.42,314.63L432.26,314.65L434.92,315.92L434.96,318.23L436.84,319.06L438.09,319.02L440.97,316.56L442.21,316.68L443.47,315.7z"/>
		<path id="BI-KY" title="Kayanza" class="land" d="M221.19,198.81L220.04,199.92L219.59,199.71L218.16,202.77L219.57,206.98L218.82,211.45L218.08,212.55L214.17,210.95L214.13,211.83L212.21,213.08L210.4,216.29L210.29,217.45L214.26,222.2L214.76,224.2L217.52,223.73L219.85,225.63L220.85,225.27L222.33,225.99L224.08,225.77L224.83,227.36L225.38,227.44L227.27,227.33L227.96,226.3L228.45,226.6L230.29,225.87L230.3,226.63L231.07,227L232.16,226.52L231.57,229.12L232.96,231.07L234.45,231.15L235.76,237.18L234.2,237.7L233.05,239.44L232.67,243.05L237.87,247.02L241.8,245.59L242.7,243.63L244.56,243.01L248.08,239.02L247.41,241.02L247.97,242.01L250.81,243.31L250.2,254.21L251.83,255.1L254.83,260.64L258.71,262.7L264.11,267.38L264.62,269.67L263.67,272.46L265.29,273.23L270.37,272.54L274.09,271.14L276.1,269.68L278.28,270.08L279.93,272.05L284.88,270.85L287.47,269.47L290.77,269.35L289.36,270.88L288.57,273.36L287.25,274.14L286.74,276.71L287.09,277.92L285.95,280.38L286.02,284.56L284.96,285.68L285.17,287.75L285.17,287.75L283.04,288.15L281.79,290.06L279.77,291.22L274.5,298.21L272.04,299.69L272,302.7L272.8,304.64L273.57,305.02L273.82,306.74L275.94,307.23L279.45,309.66L281.33,309.08L281.43,315.02L280.97,317.11L277.99,318.4L274.4,322.87L268.78,327.51L267.5,332.16L267.5,332.16L264.43,330.72L260.27,330.93L251.99,336.68L251.42,336.93L250.9,335.57L250.12,335.7L248.92,336.64L247.81,341.41L245.91,342.56L243.23,342.8L241.54,340.59L235.04,338.87L234.81,337.85L233.12,336.99L231.93,333.57L229.17,329.03L226.61,327.32L224.98,325.13L223.75,324.68L222.99,321.89L223.16,320.06L223.95,319.22L223.18,318.54L220.83,319.03L220.31,319.81L218.87,319.75L218.2,320.67L215.65,321.85L214.28,321.5L213.6,322.72L212.93,322.28L208.05,322.54L207.92,321.22L206.3,320.93L204.82,318.11L203.46,317.02L203.16,315.76L194.09,314.67L190.74,309.53L190,304.45L189.08,304.88L185.93,303.56L183.42,303.65L181.23,302.97L181.23,302.97L182.85,297.79L182.07,295.68L183.29,294.06L183.31,292.24L179.77,287.1L180.32,285.89L179.6,283.63L178.19,283.31L178.11,282.54L177.4,282.24L178.37,281.45L178.8,279.34L177.83,279.06L177.66,278.11L176.05,276.65L176.43,276L174.45,273.9L174.35,272.32L173.52,271.41L172.91,268.22L171.9,266.37L172.75,264.35L171.61,262.05L171.6,260.55L170.94,258.94L169.82,258.4L169.18,255.01L168.16,253.33L168.62,250.43L167.67,249.07L169.51,243.6L168.45,242.43L167.07,242.26L166.72,240.43L165.95,239.76L165,239.62L163.61,240.35L160.4,240.09L160.4,240.09L158.41,236.65L156.72,235.5L156.29,231.41L154.85,229.7L153.93,229.47L153.5,227.78L154.45,225.78L152.31,223.65L151.03,221.14L150.41,217.99L151.06,216.62L149.42,214.46L149.78,210.68L146.52,205.76L144.42,206.48L142.97,206.12L142.78,204.94L143.27,204.37L142.24,203.19L142.24,203.19L142.76,202.01L144.58,200.83L145.89,201.39L148.18,200.9L149.17,201.73L151.18,201.83L151.19,203.06L153.68,205.04L155.63,204.07L156.68,204.69L157.15,203.98L157.8,204.41L159.82,202.14L160.75,202.17L162.28,204.15L165.34,205.65L167.55,207.87L167.9,208.98L169.72,209.34L170.81,210.96L172.74,211.45L176.8,210.64L179.28,211.3L178.94,207.92L179.59,207.21L182.43,207.44L186,205.73L189.72,205.43L192.16,203.41L194.26,202.53L194.91,202.54L195.45,204.18L196.15,203.77L197.23,204.12L197.52,203.59L198.81,204.05L200.4,203.74L202.48,205.24L205.18,203.25L206.2,203.59L208.13,202.74L211.33,197.92L214.33,197.33L217.95,197.52z"/>
		<path id="BI-MA" title="Makamba" class="land" d="M269.41,610.55L270.45,611.29L270.02,612.18L270.63,613.98L272.58,614.75L272.2,615.83L269.99,617.34L269,620.95L270.48,621.2L271.26,622.02L270.93,623.43L274.54,624.22L276.17,623.16L276.72,623.68L279.4,623.65L278.33,622.72L278.54,622.26L280.03,622.92L280.51,621.64L281.32,621.72L282.27,623.07L284.02,621.66L286.07,621.9L286.1,620.99L287.68,620.43L288.41,621.9L287.66,622.5L288.8,622.81L288.01,623.75L290.8,624.2L290.33,625.22L291.81,625.83L291.15,627.12L291.88,627.58L291.96,626.99L292.56,627.32L292.7,628.46L293.74,628.66L293.39,628.3L295.76,627.32L296.36,627.38L296.17,627.76L297.09,627.49L299.01,625.76L299.66,626.49L298.96,627.11L300.09,628.25L299.77,628.69L301.1,629.05L300.94,628.15L301.5,627.9L301.11,626.87L302.63,627.35L303.3,627L303.03,625.34L305.25,624.45L306.15,625.08L307.6,624.56L309,624.84L310.04,623.47L312,624.51L311.56,625.56L312.72,626.06L312.94,628.81L315.69,627.88L317.38,628.29L320.01,625.62L321.09,625.19L322.24,626.85L323.15,626.89L323.44,625.36L323.92,625.26L324.95,626.52L326.38,626.31L329.19,624.83L329.73,622.34L330.56,622.68L331.67,621.95L332.71,622.58L333.2,621.5L336.78,619.39L336.19,618.41L336.49,617.72L338.1,617.1L340.18,617.64L342.98,616.61L343.05,615.96L344.5,616.12L344.22,617.13L345.83,618.08L346.96,617.25L347.79,618.15L349.11,617.33L350.95,617.89L354.27,617.15L357.56,617.68L357.88,618.19L358.89,617.96L363.29,620.3L365.13,619.6L365.61,620.06L370.78,617.02L372.51,614.59L374.84,613.41L375.12,612.12L376.37,611.94L379.14,610.03L380.12,610.48L382.47,610.2L384.45,611.95L385.14,613.55L387.07,614.04L389.06,616.86L390.33,616.83L393.13,613.48L393.83,613.92L393.83,613.92L394.14,614.65L392.81,615.66L393.03,617.78L391.25,620.5L391.88,621.45L391.28,622.05L391.51,622.54L390.89,622.78L390.65,623.74L389.97,623.79L389.46,625.62L390.13,625.23L390.33,626L388.97,627.63L387.45,628.03L387.21,629.64L386.76,629.53L385.28,631.07L385,632.26L384.17,632.46L384.42,633.15L383.26,634.85L380.16,636.11L380.13,636.87L376.83,638.76L376.49,639.63L374.89,640.56L374.83,641.21L373.92,640.53L372.47,641.7L371.6,641.61L371.71,642.09L371.06,642.28L371.73,642.63L371.64,643.27L369.82,643.49L369.39,642.73L368.67,644.83L368.12,644.79L368.04,646.38L366.66,647.3L365.03,646.9L362.13,648.79L362.03,649.39L359.02,649.73L358.38,651.16L356.64,652.35L356.36,653.85L355.58,653.66L355.91,655.75L354.43,656.95L354.87,658.28L353.98,659.83L354.13,661.42L351.55,663.09L350.96,666.21L349.48,668.5L349.63,669.92L348.2,670.33L349.04,671.62L348.83,672.28L349.5,672.76L348.62,675.08L348.83,676.53L347.62,676.93L346.47,676.46L346.29,677.13L347.81,677.32L347.22,678.56L348.24,679.5L348.7,680.76L348.08,680.99L348.6,681.59L348.28,682.38L347.42,682.51L346.21,681.13L345.18,681.43L346.37,682.49L345.08,684.91L345.19,686.29L344.74,686.37L345.21,687.5L344.68,688.12L342.79,688.31L340.99,686.8L341.02,688.13L339.43,688.72L338.97,689.51L338.63,688.08L337.41,687.79L335.93,688.36L336.11,690.01L335.15,690.8L332.66,689.31L331.94,689.41L332.05,690.37L331.28,691.1L331.09,694.36L330.29,695.62L329.35,695.51L328.86,693.52L327.96,694.88L327.99,696.5L327.27,696.18L326.45,694.62L325.25,695.74L321.72,696.03L320.57,696.84L320.16,699.75L319.43,700.29L319.12,701.22L319.51,701.84L318.56,703.42L316.95,705.26L314.57,705.85L311.69,708.9L310.59,708.61L308.96,710.04L306.98,709.97L306.92,711.11L303.41,712.21L302.32,712.06L301.93,712.38L302.44,712.76L301.59,713.14L300.78,711.81L300.34,712.9L298.15,713.22L298.47,713.49L297.97,714.26L297.14,714.25L296.61,713.08L296.24,713.53L295.48,713.11L295.26,714.08L293.7,714.41L293.59,714.99L292.59,715.38L293,716.29L292.32,716.86L292.85,717.29L292.57,718.67L291.86,718.92L291.3,717.74L290.77,718.33L290.01,718.07L290.1,718.61L289.25,718.94L288.88,718.46L288.25,720.56L289.59,721.37L289.13,722.54L288.1,721.84L288.47,722.59L286.67,723.41L286.23,722.41L281.49,722.67L281.38,721.67L280.1,721.55L280.02,721.09L280.66,720.96L278.82,718.98L279.47,718.45L275.61,718.22L275.38,717.64L274.75,717.86L274.8,717.02L273.98,717.22L273.25,715.82L271.63,716.33L271.69,717.1L270.61,717.76L269.26,717.02L268.64,717.51L268.56,718.82L265.31,723.23L265.33,724.39L264.56,726.38L263.63,727.02L263.18,729.38L261.77,730.06L258.99,733.39L256.35,732.84L255.8,734.72L253.06,737.72L252.5,739.4L253.15,742.44L252.58,744.96L253.95,745.66L254.39,747.08L251.71,750.6L251.46,750.07L250.57,751.28L249.26,751.71L246.07,750.53L245.65,747.76L243.27,747L242.05,748.39L240.07,749.14L238.14,748.28L237.32,746.87L233.81,749.22L231.28,748.22L228.48,745.29L227.13,745.84L222.83,744.15L220.83,744.87L218.86,744.46L220.31,742.21L219.19,737.5L220.7,733.41L218.84,726.45L214.93,721.94L209.69,717.93L198.96,712.23L196.72,711.91L196.37,711.2L196.98,709.88L195.64,707.91L194.11,706.98L194.15,706.01L192.9,704.39L193.52,703.29L193.42,700.93L189.08,696.87L186.68,691.16L186.14,689.03L187.32,683.19L184.57,680.96L184.23,678.1L180.58,675.19L181.76,671.73L180.26,669.01L181.2,665.29L180.91,661.39L177.5,659.88L177.5,659.88L178.38,657.16L177.83,656.84L177.51,654.26L178.65,651.5L180.91,650.63L184.08,648.37L188.11,650.07L188.44,649.32L190.68,648.16L193.83,648.73L194.91,647.85L194.56,647.16L195.03,646.8L197.14,647.56L200.39,647.44L203.14,644.58L205.62,644.05L206.2,641.92L206.9,641.7L207.23,640.78L208.3,641.09L209.93,639.66L211.62,635.57L213.39,634.1L213.23,633.56L215.73,630.05L215.61,629.41L216.46,628.89L216.51,627.42L217.13,627.27L217.52,625.21L218.47,623.76L220.11,623.7L221.27,622.46L223.3,622.52L223.93,621.01L225.2,619.89L228.76,621.41L230.91,620.75L233.24,618.39L239.46,617.34L240.57,618.29L242.46,618.57L242.52,617.91L244.73,615.75L245.45,613.78L247.27,602.84L248.87,603.63L251.18,602.86L252.15,600.74L253.17,600.06L253.77,597.82L258.11,601.33L261.11,599.92L262.23,600.69L262.45,601.79L263.73,601.83L266.2,607.71z"/>
		<path id="BI-MU" title="Muramvya" class="land" d="M267.5,332.16L267.27,334.72L272,340.67L276.95,341.33L281.69,344.24L281.1,345.13L279.67,345.76L278.37,345.97L277.04,345.42L276.18,345.94L275.51,345.68L275.33,346.47L273.55,345.66L270.53,347.72L270.36,348.57L268.98,349.01L267.87,351.23L267.8,352.67L264.52,355.69L263.36,357.7L260.54,359.41L260.6,359.97L257.99,362.53L259.01,365.61L259.01,365.61L256.72,366.59L255.6,371.76L255.74,373.89L256.67,374.79L256.3,377.9L253.8,380.52L254,382.47L251.9,384.79L252.24,386.78L250.55,389.69L249.71,389.87L249.1,388.52L245.13,386.52L242.69,384.22L236.82,386.74L235.38,389.86L235.62,391.2L233.42,394.21L230.99,400.92L223.44,401.16L223.05,402.67L220.68,403.84L220.54,405.41L219.62,407.06L218.12,407.88L214.87,407.76L213.87,406.18L212.43,402.07L213.8,399.01L212.01,393.05L209.66,393.48L207.69,391.79L207.66,390.57L207.01,389.94L205.49,390.96L204.8,390.59L204.63,384.65L202.64,384.11L201.22,384.88L200.04,384.04L198.52,384.22L197.24,382.8L192.28,382.47L191.36,386.8L192.31,389.55L192.24,393.49L192.24,393.49L188.44,394.83L185.95,399.02L184.94,399.01L184.86,397.37L183.96,396.19L183.13,391.67L181.97,388.86L180.21,386.61L176.16,383.45L174.99,380.72L172.52,379.4L173.55,376.42L175.46,375.16L176.56,373.25L176.44,372.48L173.91,369.04L172.77,363.22L171.11,361.05L169.91,361L167.93,358.8L167.85,356.75L166.12,354.33L166.12,354.33L168.38,354.16L169.88,354.81L170.52,354.46L172.58,350.54L173.6,349.62L172.76,349.2L172.95,346.11L173.48,346.19L174.38,345.08L175.56,341.39L178.52,337.93L179.13,333.3L181.56,329.6L182.36,325.9L182.07,324.56L183.55,323.27L184.89,323.6L185.6,322.27L184.59,320.63L185.21,319.91L184.73,319.14L180.19,315.55L179.78,314.32L178.49,314.27L176.61,311.95L177.32,311.25L176.7,308.66L179.96,305.7L181.23,302.97L181.23,302.97L183.42,303.65L185.93,303.56L189.08,304.88L190,304.45L190.74,309.53L194.09,314.67L203.16,315.76L203.46,317.02L204.82,318.11L206.3,320.93L207.92,321.22L208.05,322.54L212.93,322.28L213.6,322.72L214.28,321.5L215.65,321.85L218.2,320.67L218.87,319.75L220.31,319.81L220.83,319.03L223.18,318.54L223.95,319.22L223.16,320.06L222.99,321.89L223.75,324.68L224.98,325.13L226.61,327.32L229.17,329.03L231.93,333.57L233.12,336.99L234.81,337.85L235.04,338.87L241.54,340.59L243.23,342.8L245.91,342.56L247.81,341.41L248.92,336.64L250.12,335.7L250.9,335.57L251.42,336.93L251.99,336.68L260.27,330.93L264.43,330.72z"/>
		<path id="BI-MW" title="Mwaro" class="land" d="M238.56,482.58L237.12,486.38L236.27,486.75L236.21,488.9L235.34,489.69L234.62,492.83L232.94,494.47L231.68,497.77L229.76,499.91L228.58,500.07L225.22,503.02L221.28,504.65L219.58,499.42L222.74,494.74L221.7,491.38L222.61,491.24L223.79,489.74L223.32,488.03L224.32,482.1L222.59,483.14L220.61,483.29L218.64,482.11L216.17,481.92L215.35,480.61L215.7,479.64L214.46,479.67L213.8,478.73L213.94,476.21L212.87,474.57L214.3,472.71L213.45,471.84L212.49,471.74L210.46,473.45L209.39,473.61L207.7,472.89L202.98,467.08L202.7,460.72L198.52,458.3L197.67,456.81L196.6,456.26L196.12,454.05L195.27,453.73L194.29,454.35L190.77,452.94L188.24,452.81L187.18,451.26L187.18,451.26L188,449.84L188.65,449.69L189.31,448.29L189.06,447.3L189.79,446.4L193.12,447.45L194.09,446.72L194.76,440.86L191.29,439.91L191.16,437.4L191.92,436.48L191.7,433.26L192.18,433.12L191.96,429.23L193.11,426.96L197.56,423.77L197.91,422.59L197.64,419.68L193.5,415.99L193.86,414.93L193.18,413.24L191.76,412.51L190.96,411.33L191.53,410.31L191.27,408.77L192.48,406.05L191.72,404.05L192.84,402.77L194.21,398.43L195.52,396.98L195.11,395.71L192.24,393.49L192.24,393.49L192.31,389.55L191.36,386.8L192.28,382.47L197.24,382.8L198.52,384.22L200.04,384.04L201.22,384.88L202.64,384.11L204.63,384.65L204.8,390.59L205.49,390.96L207.01,389.94L207.66,390.57L207.69,391.79L209.66,393.48L212.01,393.05L213.8,399.01L212.43,402.07L213.87,406.18L214.87,407.76L218.12,407.88L219.62,407.06L220.54,405.41L220.68,403.84L223.05,402.67L223.44,401.16L230.99,400.92L233.42,394.21L235.62,391.2L235.38,389.86L236.82,386.74L242.69,384.22L245.13,386.52L249.1,388.52L249.71,389.87L250.55,389.69L252.24,386.78L251.9,384.79L254,382.47L253.8,380.52L256.3,377.9L256.67,374.79L255.74,373.89L255.6,371.76L256.72,366.59L259.01,365.61L259.01,365.61L260.23,366.32L262.43,365.87L263.19,366.51L264.46,369.8L269.79,369.7L270.7,371.88L270.31,372.78L270.67,373.64L274.36,375.79L274.3,376.82L277.89,380.06L277.48,380.71L277.82,381.11L276.99,381.37L277.15,383.12L275.94,383.7L276.19,384.57L275.41,385.98L273.69,386.18L273.03,388.26L275.03,390.6L277.17,390.62L278.14,391.71L279.3,390.91L281.56,391.18L281.72,391.93L283.41,393.05L282.94,394.1L288.41,396.52L288.94,398.64L287.14,399.61L288.79,400.03L289.37,400.74L288.3,402.26L288.06,401.83L287.12,402.28L285.55,402.05L284.38,402.97L284.04,404.73L284.49,405.62L283.54,406.01L283.74,407.36L282.13,409.83L282.12,410.6L284.5,412.71L283.21,413.74L284.5,414.83L283.12,415.13L283.23,415.52L284.96,416.75L283.31,417.06L283.24,418.38L282.66,418.55L283.11,420.68L281.44,422.19L282.24,423.09L282,424.39L283.3,424.68L282.68,425.64L283.54,426.58L281.68,426.67L281.47,428.89L281.92,429.76L281.27,432.1L281.37,434.65L280.35,436.71L280.71,436.64L277.93,438.38L277.79,440.02L276.05,439.81L275.32,440.39L273.75,439.98L272.07,441.03L271.99,441.61L266.14,439.42L264.29,440.86L263.46,440.2L262.56,440.58L263.02,441.19L262.66,441.74L261.58,441.43L261.82,442.13L260.77,442.86L260.82,443.93L257.96,443.78L257.61,445.57L256.66,445.63L255.17,447.1L254.45,451.87L256.72,455.15L257.47,455.47L258.59,457.75L260.02,458.65L259.46,459.84L259.86,461.05L260.65,461.03L261.49,464.72L261.94,464.75L262.06,465.43L261.45,465.91L261.82,466.67L263.43,467.44L263.47,470.05L266.07,471.19L265.67,473.97L262.08,473.74L260.14,471.16L258.93,471.64L258.46,470.42L257.04,471.08L256.91,471.82L255.01,471.03L253.95,471.59L252.36,471.09L249.66,471.77L248.8,471.37L247.58,472.23L246.47,471.92L243.77,473.72L241.26,477.38L239.41,478.17L237.5,479.99L237.3,480.82z"/>
		<path id="BI-MY" title="Muyinga" class="land" d="M491.9,250.57L492.44,251.56L489.76,252.72L491.3,254.76L491.37,255.65L488.76,256.17L488.56,256.94L487.58,257.49L487.28,262.33L485.72,262.99L485.53,263.76L483.62,264.22L483.19,263.86L482.73,265L481.92,264.9L480.78,263.5L478.24,263.28L477.84,264.98L478.39,265.48L478.32,268.14L476.86,268.96L476.26,267.64L475.39,268.85L474.62,268.48L473.02,269.55L473.33,270.81L472.58,272.18L472.72,273.49L471.21,273.34L470.68,274.74L469.15,276.16L470.64,279.9L469.93,280.97L470.72,283.62L470.06,286.5L467.63,286.86L466.65,286.2L464.72,287.83L465.61,289.06L465.45,290.11L462.9,290.05L461.99,291.14L459.61,291.25L457.5,292.68L456.5,294.56L456.72,295.66L455.18,296.54L455.14,297.74L455.99,298.38L456.71,300.72L458.7,302.82L459.2,304.16L458.12,304.73L456.51,304.06L455.94,306.22L457.23,306.51L457.41,307.11L456.84,308.06L456.03,307.97L454.88,310.57L451.96,310.86L452.19,311.95L451.59,312.67L449.64,312.73L451.11,314.35L450.73,316.75L451.65,318.14L451.39,319.28L450.43,319.81L449.73,319.11L446.47,318.34L446.47,318.34L443.47,315.7L442.21,316.68L440.97,316.56L438.09,319.02L436.84,319.06L434.96,318.23L434.92,315.92L432.26,314.65L430.42,314.63L427.67,315.46L423.6,318.15L420.91,318.47L420.21,317.59L417.54,317.39L415.81,314.39L414.7,313.6L413.17,312.98L413,313.43L412.04,313.38L410.36,311.94L410.22,309.44L407.73,307.62L407.03,305.87L407.24,304.77L409.64,299.97L412.72,296.87L412.93,294.71L415.54,290.96L416.03,289.26L419.7,285.28L419.73,282.95L421.85,278.09L421.05,276.69L422.6,269.72L421.76,266.92L422.64,263.97L422.04,259.68L422.32,256.48L423.09,255.53L422.76,253.92L419.53,249.22L418.36,248.77L416.04,245.85L413.51,244.35L411.67,241.03L409.28,240.03L408.24,238.91L406.06,238.77L402.03,236.05L389.12,237.39L389.12,237.39L388.23,235.63L389.69,233.18L388.58,231.97L388.48,230.8L389.07,229.94L388,228.42L386.49,227.7L387.28,226.51L391.59,224.45L392.68,222.08L394.5,221.78L394.7,221.31L393.23,219.68L391.01,218.45L385.96,217.39L381.47,214.76L379.51,217.04L376.22,219.22L375.8,220.69L369.58,215.08L371.12,214.29L370.84,213.32L370.33,212.5L368.56,212.02L367.97,209.37L365.94,208.64L365.04,207.66L364.84,206.31L363.94,205.44L365.11,203.2L364.77,202.61L357.01,197.94L356.24,196.23L356.24,196.23L362.83,192.06L363.82,192.14L366.93,194.89L369.97,195.2L373.82,190.35L373.71,187.58L377.57,183.49L379.64,178.05L381.87,177.73L384.07,179.85L387.37,180.86L390.5,177.61L393.56,175.61L402.15,167.16L403.25,167.61L406.58,164.76L413.21,162.08L417.78,161.36L420.18,166.38L422.87,165.56L426.9,159.26L430.42,156.26L431.42,154.45L434.33,152.43L437.18,146.8L439.35,145.86L442.16,146.64L443.39,145.76L444.44,144.24L445.5,140.38L449.17,135.77L451.33,135.17L454.99,135.84L459.31,135.15L461.84,135.38L463.13,134.1L465.28,129.31L466.79,123.14L465.76,120.98L465.52,119.15L466.01,117.35L468.98,112.79L463.19,107.11L462.43,102.34L468.03,96.77L468.48,92.06L466.33,87.84L461.96,83.81L460.18,76.55L457.99,74.42L457.84,71.61L454.67,66L453.91,55.39L453.91,55.39L454.31,53.27L453.93,52.16L455.44,49.92L456.3,45.87L458.67,43.79L460.14,41.52L464.33,41.11L466.2,40.38L470.4,44.91L470.43,45.71L471.76,45.25L472.99,46.48L475.52,46.85L477.21,44.35L480.09,43.11L482.49,43.19L483.83,44.01L484.17,45.48L482.78,48.34L483.43,50.01L482.61,51.82L483.09,52.65L486.49,54.24L486.7,56.42L486.23,57.89L486.83,59L488.55,59.64L490.2,58.79L491.53,58.82L493.06,62.55L494.47,62.5L496.31,65L499.09,66.6L499.69,70.21L503.07,71.49L507.65,71.65L510.54,74.52L508.61,77.58L509.07,78.74L508.15,81.36L506.26,82.79L505.9,84.56L504.2,85.87L504.04,87.47L502.92,89.5L503.17,91.87L502.7,94.68L501.26,95.92L498.5,104.82L494.9,109.14L494.92,110.75L491.42,111.09L490.61,112.59L491.39,118.12L491.1,121.87L489.34,123.34L488.34,126.66L486.33,128.14L485.05,131.79L482.15,134.72L481.26,136.93L477.66,142.08L475.72,147.68L474.07,150.1L472,151.77L470.48,154.02L469.73,156.37L469.9,157.36L473.31,161.94L475.29,161.35L477.42,161.64L480.56,165.2L482.61,165.96L485.54,164.18L487.11,162.42L492.53,160.32L497.43,157.39L499.95,154.53L503.79,154.34L504.52,153.63L505.51,153.7L505.13,155.84L506.08,157.52L504.44,161.33L504.6,162.61L503.2,163.07L503.54,164.91L502.23,165.33L501.84,166.53L501.07,166.26L500.12,167.08L499.44,166.65L499.04,168.81L497.72,168.13L497.53,170L495.48,171.66L495.49,172.86L493.27,173.9L490.86,176.44L488.61,174.12L487.59,174.28L486.55,175.41L485.01,175.38L485.11,176.93L484.36,176.69L484.51,177.31L483.8,177.21L483.88,178.28L484.95,179.56L484.37,180.64L483.71,180.55L481.28,182.72L476.6,183.75L477.12,186.3L475.31,187.53L477.68,189.23L478.91,191.45L477.32,194.5L478.17,195.9L477.19,196.88L477.43,197.75L476.76,198.61L477.18,199.93L476.36,200.71L475.83,203.03L475.37,203.05L475.17,202.02L474.14,202.3L474.95,203.02L474.38,203.34L474.82,204.26L473.98,204.78L473.91,206L472.44,205.48L471.54,207.39L472.29,208.21L471.82,210.3L471.2,210.78L471.66,212.2L470.23,212.49L470.49,214.99L469.72,214.85L469.41,216.14L468.14,216.06L467.49,217.4L468.43,218.7L467.63,218.62L466.03,221.14L466.12,221.93L468.29,221.43L468.33,222.89L467.15,223.15L467.88,224.56L468.57,224.75L469.04,226.23L471.68,224.5L474.66,226.34L474.96,227.21L474.38,228.41L475.37,229.56L475.66,232.3L475.14,233.3L476.13,234.33L475.64,235.71L477.29,236.16L477.9,237.65L478.5,237.28L479.4,237.83L479.79,239.09L480.42,238.29L482.25,237.84L484.01,239.59L484.41,241.24L482.34,241.92L483.29,242.69L484.45,241.91L486,242.66L487.62,245.2L489.5,246.11L490.17,249.18z"/>
		<path id="BI-NG" title="Ngozi" class="land" d="M356.24,196.23L357.01,197.94L364.77,202.61L365.11,203.2L363.94,205.44L364.84,206.31L365.04,207.66L365.94,208.64L367.97,209.37L368.56,212.02L370.33,212.5L370.84,213.32L371.12,214.29L369.58,215.08L375.8,220.69L376.22,219.22L379.51,217.04L381.47,214.76L385.96,217.39L391.01,218.45L393.23,219.68L394.7,221.31L394.5,221.78L392.68,222.08L391.59,224.45L387.28,226.51L386.49,227.7L388,228.42L389.07,229.94L388.48,230.8L388.58,231.97L389.69,233.18L388.23,235.63L389.12,237.39L389.12,237.39L385.53,241.28L383.02,245.01L379.98,247.7L376.73,249.91L371.01,251.78L364.03,256.55L360.57,259.83L357.18,261.29L354.21,261.2L352.74,261.76L346.98,260.84L343.79,263.67L342.19,264.02L339.62,263.81L337.44,262.54L335.87,262.86L333.26,266.7L330.16,269.02L327.03,270.15L325.82,271.37L325.72,273.61L323.3,276.73L322.66,279.3L320.14,283.46L319.96,285.45L317.47,287L313.8,286.33L311.19,287.63L310.75,287.37L309.46,289.36L310.55,291.6L310.47,294.22L308.55,294.71L307.18,295.43L306.64,296.42L306.07,296.32L306.07,296.32L304.78,296.21L304.24,295.47L301.61,296.23L299.97,292.55L297.48,289.38L294.4,289.23L293.7,288.23L291.03,286.9L285.17,287.75L285.17,287.75L284.96,285.68L286.02,284.56L285.95,280.38L287.09,277.92L286.74,276.71L287.25,274.14L288.57,273.36L289.36,270.88L290.77,269.35L287.47,269.47L284.88,270.85L279.93,272.05L278.28,270.08L276.1,269.68L274.09,271.14L270.37,272.54L265.29,273.23L263.67,272.46L264.62,269.67L264.11,267.38L258.71,262.7L254.83,260.64L251.83,255.1L250.2,254.21L250.81,243.31L247.97,242.01L247.41,241.02L248.08,239.02L244.56,243.01L242.7,243.63L241.8,245.59L237.87,247.02L232.67,243.05L233.05,239.44L234.2,237.7L235.76,237.18L234.45,231.15L232.96,231.07L231.57,229.12L232.16,226.52L231.07,227L230.3,226.63L230.29,225.87L228.45,226.6L227.96,226.3L227.27,227.33L225.38,227.44L224.83,227.36L224.08,225.77L222.33,225.99L220.85,225.27L219.85,225.63L217.52,223.73L214.76,224.2L214.26,222.2L210.29,217.45L210.4,216.29L212.21,213.08L214.13,211.83L214.17,210.95L218.08,212.55L218.82,211.45L219.57,206.98L218.16,202.77L219.59,199.71L220.04,199.92L221.19,198.81L221.19,198.81L224.58,201.45L226.77,201.61L229.34,204.4L229.96,203.76L232.78,205.15L233.38,205.69L233.19,206.77L234.23,208.03L236.37,206.81L237.61,207.5L238.75,206.69L239.16,207.51L241.5,205.45L244.53,205.09L246.02,204.03L247.13,204.01L248.22,205.2L249.55,204.51L250.67,202.53L250.54,201.8L251.99,199.8L252.69,194.91L253.9,194.06L253.58,192.4L254.12,190.63L255.37,189.79L260.3,190.28L262.82,187.74L265.59,188.02L267.93,188.81L269.23,192.69L271.48,193.6L273.24,193.35L274.88,195.04L275.27,193.33L276.04,193.15L277.5,191.25L278.09,191.61L281.89,190.56L282.64,189.23L284.21,189.6L285.46,188.59L286.77,188.34L288.99,188.88L290.25,188.45L290.99,187.4L290.38,186.42L290.69,185.82L293.4,185.14L294.03,185.43L295.27,184.06L294.44,183.46L295.14,182.9L295.38,181.94L294.84,181.34L295.32,180.3L297.6,177.96L298.2,175.64L300.9,173.52L301.7,171.35L303.51,169.62L303.94,166.35L305.33,164.47L307.45,157.18L306.93,154.88L307.75,154.1L307.75,154.1L308.53,155.18L313.69,154.36L318.68,156.22L321.41,158.13L322.33,159.81L325.47,160.29L329.01,161.76L329.85,162.84L329.84,165.92L333.07,164.83L332.69,165.57L333.2,166.54L337.39,171.88L336.29,173.96L334.25,174.61L333.91,175.27L337.9,177.56L344.02,182.28L346.8,183.03L347.88,184.26L348.19,185.03L346.86,187.21L347.7,188.54L349.28,189.1L350.29,191.74L351.65,193.17L351.15,196.16L353.19,196.58z"/>
		<path id="BI-RT" title="Rutana" class="land" d="M459.71,506.17L460.01,507.3L462.5,508.26L462.85,510.35L462.29,510.86L463.42,512.25L463.37,513.29L464.61,515.42L464.55,518.23L466.22,519.14L466.55,519.91L465.99,522.28L466.46,522.44L466.48,525.81L464.89,527.01L464.6,528.87L461.99,530.2L461.15,529.21L461.81,528.88L461.77,527.97L460.21,528.42L459.9,527.36L458.27,527.05L457.71,525.19L458.37,524.4L456.53,523.99L456.47,523.32L455.08,522.96L452.13,522.92L450.61,523.6L449.64,524.84L448.55,524.07L448.94,523.31L448.34,522.93L445.68,522.45L442.47,524.82L441.93,524.6L441.81,525.89L439.96,526.05L440.25,527.13L438.08,529.31L438.66,531.11L437.89,531.28L438.7,531.98L437.78,532.6L438.15,533.23L437.15,533.27L436.98,533.97L438.22,534.28L437.22,535.29L437.66,536.31L436.88,536.16L436.77,536.98L435.67,537.15L435.81,538.79L434.92,538.73L435.44,539.09L434.64,539.59L434.98,540.63L432.83,541.68L433.63,542.11L433.94,543.71L432.89,545.87L432.04,546.16L431.36,547.28L429.49,547.97L429.48,549.89L427.34,551.62L426.73,550.83L426.5,551.68L424.79,552.78L424.96,553.63L424.17,553.59L423.09,554.71L423.07,555.43L422.4,555.14L421.64,556L421.06,555.4L420.5,556.56L419.54,555.85L418.81,556.34L418.52,557.53L416.86,557.44L417.24,558.68L415.6,558.58L416.72,561.36L415.82,562.23L415.99,562.75L415.35,562.86L415.22,565L414.44,565.39L414.64,566.24L413.73,567.37L413.46,570.1L410.16,571.68L410.5,573.5L409.14,574.66L409.33,575.36L407.47,577.42L408.43,578.13L407.94,578.39L407.94,581.16L406.74,581.53L407.13,584.75L406.56,584.57L406.2,586.56L405.55,587.24L406.07,587.48L405.92,588.4L403.63,591.99L401.59,593.84L403.15,596.91L402.93,597.7L403.65,598.44L403.28,598.75L404.45,599.21L404.51,599.96L406.87,600.4L406.26,601.19L406.59,601.82L406.12,602.71L404.91,602.8L405.29,603.77L404.48,605.41L402.57,605.97L402.04,608.67L399.72,610.33L398.63,611.99L397.96,611.79L398.42,612.65L395.58,612.07L393.83,613.92L393.83,613.92L393.13,613.48L390.33,616.83L389.06,616.86L387.07,614.04L385.14,613.55L384.45,611.95L382.47,610.2L380.12,610.48L379.14,610.03L376.37,611.94L375.12,612.12L374.84,613.41L372.51,614.59L370.78,617.02L365.61,620.06L365.13,619.6L363.29,620.3L358.89,617.96L357.88,618.19L357.56,617.68L354.27,617.15L350.95,617.89L349.11,617.33L347.79,618.15L346.96,617.25L345.83,618.08L344.22,617.13L344.5,616.12L343.05,615.96L342.98,616.61L340.18,617.64L338.1,617.1L336.49,617.72L336.19,618.41L336.78,619.39L333.2,621.5L332.71,622.58L331.67,621.95L330.56,622.68L329.73,622.34L329.19,624.83L326.38,626.31L324.95,626.52L323.92,625.26L323.44,625.36L323.15,626.89L322.24,626.85L321.09,625.19L320.01,625.62L317.38,628.29L315.69,627.88L312.94,628.81L312.72,626.06L311.56,625.56L312,624.51L310.04,623.47L309,624.84L307.6,624.56L306.15,625.08L305.25,624.45L303.03,625.34L303.3,627L302.63,627.35L301.11,626.87L301.5,627.9L300.94,628.15L301.1,629.05L299.77,628.69L300.09,628.25L298.96,627.11L299.66,626.49L299.01,625.76L297.09,627.49L296.17,627.76L296.36,627.38L295.76,627.32L293.39,628.3L293.74,628.66L292.7,628.46L292.56,627.32L291.96,626.99L291.88,627.58L291.15,627.12L291.81,625.83L290.33,625.22L290.8,624.2L288.01,623.75L288.8,622.81L287.66,622.5L288.41,621.9L287.68,620.43L286.1,620.99L286.07,621.9L284.02,621.66L282.27,623.07L281.32,621.72L280.51,621.64L280.03,622.92L278.54,622.26L278.33,622.72L279.4,623.65L276.72,623.68L276.17,623.16L274.54,624.22L270.93,623.43L271.26,622.02L270.48,621.2L269,620.95L269.99,617.34L272.2,615.83L272.58,614.75L270.63,613.98L270.02,612.18L270.45,611.29L269.41,610.55L269.41,610.55L269.88,609.42L272.01,607.72L273.55,604.53L274.92,603.19L275.21,602.03L274.44,599.04L274.92,597.06L277.54,595.63L278.2,591.04L279.23,589.14L280.12,588.88L280.68,586.7L282.53,584.79L282.9,583.01L283.92,583.33L284.37,582.95L286.19,578.87L287.15,573.64L289.38,570.46L291.11,570L291.84,567.4L292.11,560.49L293.37,557.49L299.42,556.48L297.78,552.21L297.86,550.85L296.5,550.14L297.84,548.59L297.64,548L296.3,547.3L294.36,544.93L299.73,541.55L300.93,538.92L302.98,538.35L302.93,537.69L302.93,537.69L303.48,537.78L303.31,539.92L305.92,543.82L307.63,544.68L309.22,544.24L311.18,545.8L312.37,545.79L313.46,544.53L312.7,543.72L313.13,540.51L309.67,537.44L311.63,534.86L311.85,533.51L313.29,532.19L312.74,531.49L313.17,529.38L313.87,529.18L314.08,528.33L315.64,528.44L316.89,527.19L317.96,527.28L318.45,526.58L321.15,526L324.86,523.48L327.55,523.51L329.79,522.27L330.02,521.13L324.68,517.93L322.39,517.27L322.07,515.94L325.23,512.63L327.78,510.94L327.95,509.03L331.6,506.05L337.43,505.05L338.23,504.04L340.76,503.46L341.47,502.82L341.54,501.77L344.16,501.92L346.17,501.04L347.42,501.69L350.09,501.17L350.76,500.04L350.51,499.25L352.63,497.62L353.13,495.27L354.45,494.76L354.32,493.48L355.92,492.38L357.51,488.52L361.46,486.47L361.15,480.8L363.34,477.46L362.83,476.64L363.23,476.07L363.23,476.07L364.6,475.84L368.86,478.75L370.9,479.05L376.6,485.66L378.17,486.29L379.95,490.04L382.56,492.53L383.63,491.89L385.83,488.89L387.47,488.24L391.91,484.58L399.06,481.57L402.52,482.2L406.36,481.44L410.25,482.27L412.44,481.98L416.13,485.32L417,488.48L420.35,491.65L423.19,495.82L423.86,495.63L425.47,493.46L425.51,492.49L427.94,492.26L431.72,494.85L435.42,495.14L436.29,495.98L438.56,503.48L446.58,505.45L448.66,507.16L450.73,506.45L454.14,503L455.58,503.47L456.6,505.14z"/>
		<path id="BI-RY" title="Ruyigi" class="land" d="M436.56,329.69L437.05,332.5L435.72,333.42L435.41,335.57L437.05,339.21L438.36,339.37L440.87,338.09L442.22,336.66L447.38,337.49L451.43,335.6L453.93,340.56L454.4,340.21L454.44,338.53L458.44,341.92L458.66,343.43L462.13,340.76L463.85,343.48L465.19,343.84L465.89,344.93L468.07,344.37L472.08,346.02L474.88,351.25L478.47,352.72L478.78,355.23L477.54,359.75L480.21,361.85L479.46,362.52L482.8,366.3L483.63,369.26L486.51,369.2L487.94,370.74L491.25,370.89L492.08,370.3L493.41,366.88L494.82,365.85L496.39,366.99L498.39,366.94L498.17,367.88L500.49,367.1L500.78,367.88L503.42,367.43L503.9,369.04L506.41,369.99L506.72,370.8L510.28,371.95L509.57,372.59L507.24,372.19L502.99,375.18L502.45,379.65L502.76,382.12L506.19,381.15L511.98,382.54L515.08,388.6L521.55,390.88L521.28,391.48L521.98,392.28L521.62,394.56L522.13,395.25L521.13,397.69L521.71,398.19L526.54,394.66L527.11,393.23L530.27,391.17L532.9,390.04L535.64,389.69L537.14,388.17L540.84,386.69L540.84,386.69L544.44,390.92L545.04,392.43L544.74,394.29L548.93,394.3L553.76,396.8L554.95,398.46L554.76,400.23L553.38,402.07L553.79,403.79L553.03,405.66L551.17,406.91L549.39,409.93L547.63,410.86L545.61,413.2L544.12,413.45L542.24,414.87L541.54,416.91L536.48,420.47L530.71,422.11L528.54,423.25L523.86,427.16L518.75,428.97L517.54,430.35L511.06,431.9L507.81,433.4L506.58,435.02L505.26,435.5L504.24,436.64L503.48,439.08L501.23,441.82L499.8,442.25L499.41,439.44L496.24,437.82L493.54,438.94L492.53,441.4L491.08,442.1L489.4,444.23L486.73,445.33L484.83,448.32L483.33,449.46L483.39,450.76L480.6,452.07L480.48,452.77L478.29,454.58L479.29,457.2L480.42,457.56L480.45,456.67L481.75,457.05L482,458.24L481.37,458.92L481.97,459.64L481.19,460.24L481.19,461.57L480.35,461.48L479.87,462.33L480.38,462.78L481.06,462.21L482.25,462.92L481.58,464.01L481.94,467.18L480.14,467.81L480.61,468.45L480.01,469.42L479.29,469.75L478.67,469.08L478.83,470.25L477.5,471.58L476.63,472.13L475.3,471.73L473.01,473.2L473.17,473.99L474.24,474.26L473.98,475.93L472.93,476.39L473.17,477.42L472.15,477.69L472.35,478.81L470.41,478.67L469.77,482.85L468.35,482.96L468.33,486.91L466.49,487.2L465.85,488.52L467.01,489.8L467,490.53L465.93,491.5L464.9,491.36L466.14,493L466.03,494.15L465.1,493.53L464.22,494.26L464.29,495.8L463.06,497.69L463.33,498.01L462.24,498.39L462.7,498.96L462.25,499.68L459.9,499.82L460.41,500.89L458.76,502.73L460.42,503.35L460.42,504.1L459.45,504.7L459.71,506.17L459.71,506.17L456.6,505.14L455.58,503.47L454.14,503L450.73,506.45L448.66,507.16L446.58,505.45L438.56,503.48L436.29,495.98L435.42,495.14L431.72,494.85L427.94,492.26L425.51,492.49L425.47,493.46L423.86,495.63L423.19,495.82L420.35,491.65L417,488.48L416.13,485.32L412.44,481.98L410.25,482.27L406.36,481.44L402.52,482.2L399.06,481.57L391.91,484.58L387.47,488.24L385.83,488.89L383.63,491.89L382.56,492.53L379.95,490.04L378.17,486.29L376.6,485.66L370.9,479.05L368.86,478.75L364.6,475.84L363.23,476.07L363.23,476.07L362.83,473.12L363.46,472.23L363.28,471.43L365.44,468.5L364.93,466.99L365.23,463.14L364.1,462.79L364.51,461.62L363.28,461.41L362.07,459.23L362.78,456.77L359.67,453.25L359.44,451.66L358.3,450.49L358.37,449.42L357.5,447.77L357.97,445.51L357.45,445.43L359,444.42L358.46,442.28L356.14,439.35L354.11,438L353.85,437.5L354.4,436.66L353.11,434.73L353.4,433.16L352.77,430.15L348.8,424.29L349.34,423.7L349.82,423.99L350.92,422.11L352.54,421.25L352.13,420.41L353.02,418.08L352.73,417.12L354.38,413.37L356.44,411.44L357.22,411.32L358.07,409.83L357.51,409.6L357.03,407.41L352.56,404.32L352.32,403.28L351.24,402.82L350.94,401.61L349.91,401.69L349.26,400.16L349.61,397.98L346.54,396.3L346.85,394.97L345.91,394.51L346.14,392.9L345.49,392.62L346.08,392.17L346.02,391.26L344.47,391.25L344.57,390.07L344.57,390.07L345.81,389.6L346.22,386.98L348.25,388.01L349.75,387.5L349.61,385.67L350.42,383.94L349.98,383.11L350.92,383.01L351.19,383.98L356.11,383.51L358.25,381.77L359.92,382.23L361.86,380.88L364.18,381.46L365.07,382.37L366.26,380.23L365.24,379.24L367.17,379.72L368.95,378.95L372.56,381.68L373.7,380.39L373.47,378.92L374.4,378.62L374.86,379.86L375.47,379.96L378.68,378.24L379.06,377.12L379.49,377.59L381.04,377.56L383.54,379.43L383.78,378.55L383.15,377.13L383.62,376.23L386.88,376.71L387.55,376.21L387.3,375.1L386.19,375.31L385.1,374.43L385.35,373L388.42,373.21L388.99,375.35L389.97,375.95L393.3,375.37L393.51,374.83L395.03,375.42L395.51,375.08L395.41,373.24L394.64,371.38L396.61,369.49L397.83,369.52L398.95,368.13L400.49,368.52L401.09,369.35L401.48,368.5L403.09,367.57L403.15,365.51L402.36,363.15L402.76,362.74L404.98,363.47L405.62,364.36L406.09,363.96L406.47,364.67L408.73,363.82L408.22,361L407.05,359.23L411.64,354.18L412.2,352.76L412.96,352.79L413.48,351.26L412.54,350.21L414.28,348.14L416.04,347.59L416.11,345.36L417.31,344.9L419.89,341.38L422.41,340.01L426.36,336.01L429.8,335.22L429.55,331.62L429.94,330.61L432.55,331.54L434.98,329.61z"/>
	</g>
</svg>