<?xml version="1.0" encoding="utf-8"?>
<!-- (c) ammap.com | SVG map of Central African Republic - High -->
<svg xmlns="http://www.w3.org/2000/svg" xmlns:amcharts="http://amcharts.com/ammap" xmlns:xlink="http://www.w3.org/1999/xlink" version="1.1">
	<defs>
		<style type="text/css">
			.land
			{
				fill: #CCCCCC;
				fill-opacity: 1;
				stroke:white;
				stroke-opacity: 1;
				stroke-width:0.5;
			}
		</style>

		<amcharts:ammap projection="mercator" leftLongitude="14.421468" topLatitude="11.007742" rightLongitude="27.464488" bottomLatitude="2.219468"></amcharts:ammap>

		<!-- All areas are listed in the line below. You can use this list in your script. -->
		<!--{id:"CF-AC"},{id:"CF-BB"},{id:"CF-BGF"},{id:"CF-BK"},{id:"CF-HK"},{id:"CF-HM"},{id:"CF-HS"},{id:"CF-KB"},{id:"CF-KG"},{id:"CF-LB"},{id:"CF-MB"},{id:"CF-MP"},{id:"CF-NM"},{id:"CF-OP"},{id:"CF-SE"},{id:"CF-UK"},{id:"CF-VK"}-->

	</defs>
	<g>
		<path id="CF-AC" title="Ouham" class="land" d="M443.9,221.36L444.05,225.58L442.62,226.51L442.45,227.64L443.92,229.27L442.72,230.55L442.4,232.16L443.3,234.92L444.1,235.45L443.7,236.33L442.07,236.51L442.55,239.75L440.65,240.73L441.37,242.43L441.02,244.64L438.97,245.67L438.62,248.33L439.22,250.17L441.1,251.42L442.4,251.45L442.45,253.18L443.07,253.78L442.57,256.37L443.25,258.15L441.45,259.96L442.6,263.07L440.82,264.9L442.45,266.96L441.25,268.29L441.17,270.02L439.9,270.42L439.47,271.3L439.9,273.93L438.92,276.09L440.07,277.4L439.8,278.4L438.6,279.73L435.95,280.78L437.82,283.27L435,286L436.5,288.21L435.07,290.56L435.37,293.22L436.32,294.12L438.2,293.75L439.12,294.48L415.51,305.58L412.81,307.04L411.79,308.79L423.34,340.39L422.49,341.74L417.04,344.02L416.41,344.77L416.24,348.7L415.26,349.8L411.04,352.01L411.11,353.56L414.34,354.23L414.26,356.04L411.44,357.64L409.86,363.75L406.16,366.05L405.73,368.43L410.89,373.06L412.61,379.51L415.31,379.74L413.66,383.12L414.29,385.32L419.79,389.5L424.79,391.15L426.02,393.02L425.77,394.6L424.72,395.75L419.77,397.95L416.86,400.23L415.51,403.23L414.89,406.73L414.89,406.73L413.91,408.48L413.99,410.15L424.92,420.95L424.52,427.03L424.97,431.78L426.17,433.38L429.19,434.33L429.44,435.58L428.62,437L424.29,438.33L422.87,440.6L419.24,442.35L416.44,445.82L414.31,447.62L410.36,449.37L409.59,450.87L403.08,453.39L403.18,455.31L404.38,458.11L401.86,463.76L403.73,468.43L403.16,472.02L404.21,477.23L404.21,477.23L403.26,476.54L402.28,476.94L402.58,481.16L400.83,484.96L392.38,489.35L383.77,492.6L382.8,491.27L382.92,485.91L380.47,481.21L383.38,478.49L383.05,476.57L378.25,474.7L374.17,474.67L371.95,475.89L371.07,474.75L370.84,471.8L368.67,470.6L360.44,471.27L358.29,472.12L354.91,469.68L349.64,471.27L347.76,469.88L347.46,466.21L346.01,466.4L338.73,461.58L336.43,461.64L333.96,462.93L331.93,466.08L329.53,467.98L311.02,478.54L259.73,479.24L254.67,470.45L255.45,467.53L255.15,465.75L255.15,465.75L253.92,464.18L253.97,461.53L251.05,457.74L251.32,456.06L250.05,451.34L250.62,449.52L249.32,447.75L248.5,443.2L249.15,442L250.97,442.7L252.97,441L251.85,438.63L251.47,433.3L253.02,426.33L254.45,425.3L255.87,426.35L256.72,425.45L258.52,425.48L258.27,424.06L259.68,423.03L258.58,421.65L258.9,420.21L259.52,419.6L260.83,419.98L263,417.18L265.35,417.4L266.2,412.43L260.7,409.05L258.8,410.2L253.67,409.28L252.95,409.83L252.45,411.9L251.45,411.6L249.32,412.25L247.27,411.18L246.27,409.68L244.72,409.58L243.69,408.7L241.69,404.08L239.02,403.53L238.44,402.88L238.12,399.02L240.11,396.95L237.94,398.75L236.14,398.15L235.64,397.15L234.89,394.5L235.04,389.52L232.39,383.67L232.31,373.68L231.26,372.28L231.06,369.33L228.84,367.85L229.09,365.87L227.96,363.87L230.29,362.5L229.84,359.47L232.62,358.84L233.76,356.24L235.52,354.88L236.37,351.88L234.84,345.19L235.59,342.14L237.17,339.31L237.52,330.92L238.74,329.69L238.37,327.79L241.29,325.81L242.04,324.05L241.99,322.45L240.12,320.02L241.1,314.99L241.1,314.99L243.04,315.25L245.2,314.46L245.77,312.86L247.73,313.41L248.82,312.69L248.76,311.68L247.7,311.21L248.61,309.17L248.18,307.43L250.65,306.86L253.23,305.67L255.94,305.71L260.73,305.75L261.53,303.94L263.16,304.27L265.26,303.46L265.32,300.6L267.51,301.01L268.99,303.21L271.55,302.89L271.76,301.59L272.78,300.93L272.02,299.64L276.78,297.49L276.64,296.08L278.04,294.17L280.75,295.65L281.36,294.33L280.93,292.3L282.66,290.54L284.89,288.36L288.2,287.16L290.3,286.38L293.91,284.89L296.1,283.89L298.48,283.3L299.21,282.37L303.47,284.66L304.23,282.65L305.43,282.99L306.36,279.91L307.67,279.79L308.37,281.1L310.81,278.88L312.61,279.41L314.11,277.74L315.52,277.71L316.37,275.14L317.57,274.36L319.58,274.46L323.11,274.76L340.08,276.54L342.18,276.16L346.74,273.46L350.02,271.96L371.48,270.9L402.36,268.27L403.37,267.41L404.49,264.58L403.69,260.05L407.16,254.21L411.11,251.88L419.56,249.25L422.51,246.69L424.31,243.54L423.71,241.42L426.03,241.98L427.06,240.55L428.13,239.9L429.13,237.83L430.32,237.52L430.6,236.53L429.73,236.08L430.12,234.47L430.9,234.32L431.08,233.35L433.31,231.24L434.51,230.85L434.73,229.27L436.93,227.62L436.23,226.44L439.79,224.68L441.2,221.27L441.2,221.27z"/>
		<path id="CF-BB" title="Bamingui-Bangoran" class="land" d="M599.64,142.26L603.36,147.75L605.44,147.55L607.24,148.26L611.47,142.99L613.99,141.84L615.59,142.21L617.82,140.73L621.32,134.66L626.67,131.98L630.02,132.14L632.48,130.9L636.1,131.15L640.55,129.49L643.83,126.49L645.33,122.81L647.73,121.53L649.23,119.26L655.81,115.98L657.89,112.27L662.01,112.65L663.19,116.11L662.61,118.8L663.86,123.06L664.24,127.85L666.04,129.06L669.17,128.41L673.04,128.66L674.99,132.34L680.85,137.4L682.12,141.58L687.22,145.66L688.6,155.06L691.57,158.61L693.77,165.88L698.38,168.12L701.13,172.35L707.18,175.97L709.03,181.73L715.33,185.08L714.66,188.15L718.31,203.76L719.73,205.17L724.21,207.18L726.26,209.34L732.67,211.2L736.62,211.18L741.47,212.51L742.69,213.97L742.49,219.32L742.49,219.32L740.79,221.48L739.12,221.71L722.46,220.2L719.28,219.35L715.68,216.71L714.06,216.46L706.56,218.84L704.78,220.78L703.33,225.43L703.98,229.3L706.58,233.32L707.43,236.13L707.31,237.86L703.53,246.63L703.9,248.58L706.83,251.57L706.35,253.08L698.2,255.11L694.73,254.53L692.5,249.01L688.2,246.17L686.65,242.71L685.17,242.33L677.44,246.78L672.97,247.38L671.07,251.75L665.96,249.69L660.46,249.99L659.96,253.15L657.34,255.31L652.71,257.45L651.33,259.25L653.33,264.32L658.01,272.75L628.22,272.83L628.9,281.61L626.4,286.58L628.55,290.96L629.02,299.59L629.02,299.59L627.07,301.04L625.72,306.76L622.22,309.37L622.2,312.25L624.47,316.74L618.99,321.47L613.14,330.32L610.27,333.57L609.19,336.3L607.24,337.43L606.21,338.91L603.01,339.94L598.86,342.69L592.31,340.61L588.71,341.19L587.51,343.12L586.36,348.17L584.96,351.18L578.33,356.91L576.35,357.39L573.38,357.06L571.38,359.44L569.47,359.94L567.77,361.32L565.72,361.27L563.92,359.34L562.72,360.67L560.22,360.24L558.32,361.39L555.34,359.89L548.04,360.04L546.22,357.59L542.16,356.49L541.49,354.68L541.49,354.68L540.86,354.11L539.64,354.73L538.86,354.38L538.49,352.01L536.46,352.38L534.06,351L533.79,350.05L530.31,347.9L530.11,346.27L528.68,345.75L527.66,344.34L525.13,343.62L523.76,342.49L521.58,342.56L521.41,341.56L518.05,338.63L517.38,335.25L517.68,332.52L516.3,331.37L515.68,329.61L514.85,329.26L514.13,330.39L512.7,329.99L509.98,326.51L509.13,323.7L507.45,324.35L505.75,323.53L505.77,318.26L505,317.26L503.07,317.11L503,314.28L501.62,314.43L500.35,312.63L497.57,314.13L496.17,312.45L494.17,312.35L493.67,311.65L489.49,311.47L489.22,308.31L490.49,307.06L490.72,304.4L487.94,303.2L489.82,301.32L489.99,300.22L487.32,300.94L484.37,299.09L484.49,298.19L482.81,296.71L479.21,297.81L476.46,294.95L476.01,296.76L475.24,297.23L471.89,293.75L470.29,295.96L466.86,292.02L465.96,289.89L468.68,287.7L468.38,286.8L466.68,285.97L466.08,284.14L468.96,280.88L467.21,278.3L469.43,275.64L468.16,271.47L471.31,269.14L468.76,267.26L470.09,263.19L468.96,262.44L469.16,261.06L467.96,260.38L467.51,257.82L462.31,253.61L460.78,250.49L459.13,249.86L459.58,248.38L458.26,247.81L459.31,245.7L457.85,244.62L457.05,241.88L454.35,239.02L451.65,237.89L450.3,236.13L448.4,231.31L446.68,230.45L445.18,222.24L443.9,221.36L443.9,221.36L443.9,221.36L443.9,221.36L441.2,221.27L441.2,221.27L441.32,218.83L442.88,217L443.1,215.19L448.03,212.35L448.11,211.75L446.63,209.64L440.93,207.04L438.47,203.57L433.6,201.55L432.36,199.32L430.24,200.43L429.04,199.84L428.73,196.24L428.24,195.89L427.14,195.82L426.49,196.81L424.79,195.71L425.31,193.62L427.51,192.36L428.65,191.61L430.21,189.07L433.6,188.92L435.01,187.66L436.05,184.61L438.05,184.35L439.27,182.81L442.45,182.75L445.43,180.51L446.59,181.59L449.34,181.96L452.93,180.15L454.5,180.41L456.83,179.51L459.92,180.02L461.94,181.29L465.01,181.66L467.59,180.52L470.1,181.18L476.71,179.54L478.52,180.76L480.31,181.06L481.66,180.7L482.09,179.47L482.8,179.27L484.26,180.89L487.08,179.17L489.18,178.74L491.37,180.61L497.68,180.48L500.37,179.87L502.13,178.34L511.22,176.54L512.15,178.29L512.98,178.38L515.01,176.52L516.96,176.84L518.65,176.18L520.65,176.86L521.75,174.48L525.43,174.03L527.02,171.82L528.33,170.95L530.43,170.75L531.95,169.45L534.54,170.29L536.34,168.18L538.97,169.85L544.42,169.76L547.13,168.61L551.85,171.3L555.85,171.17L559.01,170.75L562.58,168.73L566.3,168.42L567.75,167.36L572.05,157.71L571.46,155.89L571.85,154.54L574.38,154.49L574.8,151.82L578.29,152.44L579.51,151.3L581.62,153.69L584.64,153.57L584.88,153.09L585.53,151.35L586.88,146.54L595.71,146.01L596.37,145.4L596.37,143.57z"/>
		<path id="CF-BGF" title="Bangui" class="land" d="M407.24,601.04L403.49,601.46L401.77,600.54L398.32,602.53L398.32,602.53L396.3,598.95L397.11,596.53L398.53,594.92L404.39,594.31L406,596.53z"/>
		<path id="CF-BK" title="Basse-Kotto" class="land" d="M567.95,585.02L572.25,583.63L578.93,579.67L586.48,571.69L591.23,565.21L594.71,564.29L600.06,560.75L605.26,561.65L608.07,560.2L608.77,559.08L608.89,555.24L607.67,548.33L608.77,545.46L611.54,541.5L611.72,540.08L608.29,532L609.69,528.25L611.92,526.28L613.12,523.69L613.99,514.63L613.04,508.69L616.27,504.8L615.37,499.11L612.34,497.74L611.69,496.37L612.64,495.12L616.99,494.67L619.62,493.32L619.12,489L622,486.01L622.47,484.46L619.94,480.51L620.37,478.57L623.07,478.54L624.55,479.22L625.82,480.21L628.35,484.36L632,483.93L633.42,482.54L638.43,484.91L643.85,482.41L647.66,478.57L648.76,479.17L649.53,480.76L650.51,480.79L653.08,477.24L654.86,480.34L657.84,481.16L659.06,484.56L660.66,486.11L661.31,489.13L660.61,490.57L662.86,494.34L663.41,497.51L666.29,497.99L667.84,500.91L669.92,501.26L674.54,499.59L676.92,493.57L676.92,493.57L684.92,494.24L689.5,496.74L691.17,496.66L698.3,500.01L698.3,500.01L698.73,501.98L697.6,505.13L698.9,510.04L697.48,514.46L697.68,521.89L697.13,525.61L694.55,530.32L688.65,534.74L688.9,536.68L691.57,540.08L692.1,543.17L687.1,550.33L686.62,559.9L684.47,563.84L684.65,567.03L683.87,568.05L683.8,570.1L684.17,570.92L687.45,571.17L688.45,570.45L689.17,571.54L691,571.17L692.9,573.79L694.35,574.16L696.2,573.66L697.18,575.71L699.55,575.18L699,577.05L699.43,578.47L703.25,581.91L701.88,584.53L702.93,585.33L707.41,586.27L711.03,584.4L712.61,584.65L714.08,583.91L718.23,584.25L720.39,585.77L720.39,585.77L720.91,587.05L720.91,587.05L719.44,589.24L719.28,590.88L716.28,594.57L715.86,596.59L713.03,600.48L713.98,606.48L710.73,609.32L710.48,612.74L710.48,612.74L706.66,611.05L703.63,612.55L701.46,611.75L694.61,611.09L689.69,608.4L686.73,608.39L683.38,605.36L678.18,606.1L676.71,604.89L675.82,604.89L668.1,610.43L661.84,609.48L659.44,608.5L655.77,609.24L647.35,606.25L642.65,602.31L639.8,603.08L638.58,606.12L636.27,606.87L634.5,605.31L633.04,605.5L627.95,602.47L626.35,599.4L624.03,597.42L619.44,596.55L614.51,594.22L606.87,593.37L605.13,592.63L598.74,595.49L595.4,595.54L592.77,594.85L582.37,596.59L577.19,593.35L575.19,592.93L573.01,589.9L570.23,589.07L568.8,587.51z"/>
		<path id="CF-HK" title="Haute-Kotto" class="land" d="M842.61,185.8L845.15,185.67L848.6,181.62L850.1,182.61L850.32,188.32L849.63,191.17L846.52,196.24L843.6,198.11L843.1,199.13L843.07,203.02L844.12,204.19L844.15,207.08L846.35,207.92L847.52,208.06L849.31,205.85L854.01,205.49L858.26,207.24L863.85,208.06L867.83,206.53L870.97,206.18L875.96,208.03L882,206.8L884.48,207.27L886.85,208.8L890.74,208.62L899.22,210.21L902.16,208.81L905.89,210.59L908.44,208.56L910.1,208.46L910.85,209.24L910.75,210.99L908.25,215.69L909.34,217.64L911.64,219.59L908.35,222.56L902.77,229.28L901.03,237.78L901.16,239.37L905.68,245.34L912.29,248.18L912.29,248.18L913.59,251.4L919.92,256.67L924.69,258.15L925.19,262.59L930.42,266.33L930.95,267.53L929.57,276.37L927.79,278.75L928.97,280.91L929.42,287.48L931.32,291.19L930.75,295.65L932.55,298.74L931.77,303.25L932.02,305.91L932.7,308.24L935.07,311.3L936.15,315.11L938.25,316.01L937.35,317.29L941.02,319.07L940.95,319.59L939.97,319.72L938.3,325.28L936.92,325.71L936.67,327.86L935.55,328.44L933.2,334.52L934.27,338.21L933.3,339.53L933.37,340.56L936.17,340.66L935.6,343.02L937.97,344.94L937.02,346.27L937.22,351.18L935.92,354.66L936.97,356.66L937.35,360.17L936.12,362.57L933.85,361.99L931.67,365.25L928.19,365.8L924.49,365.02L921.69,366.5L918.84,366.27L918.36,368.2L916.06,368.95L917.19,372.56L918.57,372.98L918.82,373.81L916.69,374.51L916.89,377.44L912.79,379.41L913.01,380.36L913.99,380.61L914.24,382.17L915.16,382.22L915.29,383.22L913.56,383.94L911.51,383.09L910.83,385.31L910.83,385.31L848.36,419.33L840.58,424.65L837.23,426.2L834.76,429.78L834.28,432.9L832.71,434.2L828.88,434.53L827.48,433.48L825.78,434.2L825.35,436.55L823.95,437L823.53,437.78L824.13,439.6L823.6,440.87L823.93,443.52L821.8,445.65L785.96,436.2L782.79,429.65L780.44,428.4L774.78,429.65L768.58,428.35L756.32,430.9L753,436.73L751.9,441.75L749.35,445.67L741.49,449.82L738.47,448.9L733.29,449.77L731.49,447.22L728.94,447.32L727.94,449.1L721.84,451.07L716.86,455.39L718.16,456.56L718.33,458.09L713.96,463.43L713.43,470.33L713.76,474.82L711.56,477.47L712.11,479.96L714.26,482.69L714.68,485.63L713.93,486.16L710.11,485.71L709.26,487.28L710.96,487.4L711.38,488.18L710.43,489.65L704.2,493.74L702.38,496.79L699.25,498.54L698.3,500.01L698.3,500.01L691.17,496.66L689.5,496.74L684.92,494.24L676.92,493.57L676.92,493.57L676.84,489.25L685.92,482.11L687.47,482.21L694.52,487.58L695.25,485.33L698.38,482.56L698.85,478.12L700.53,475.3L701.9,469.15L702.35,461.16L702.03,460.16L699.13,457.44L697.18,449.69L691.67,449.15L690.95,448.55L691.17,444.9L689.42,442.22L688.35,436.85L684.45,434.63L683.6,433.23L688.77,425.63L690.32,422.23L690.1,419.83L687.9,416.43L686.92,413.33L688.77,402.55L686.77,400.43L681.57,400.25L680.37,399.68L679.52,396.93L677.27,395.42L674.82,391.22L674.29,385.89L671.92,383.84L671.97,382.27L675.19,380.01L675.42,378.19L674.67,376.41L676.12,373.83L674.22,369.78L674.44,364.77L671.67,363.77L670.82,354.21L669.09,347.15L669.77,338.98L669.06,336.25L667.09,334.93L662.04,335.78L657.51,335.6L655.11,334.8L654.08,332.17L655.41,319.97L652.58,314.25L646.21,309.32L639.3,308.31L636.5,307.14L631.92,301.42L629.02,299.59L629.02,299.59L628.55,290.96L626.4,286.58L628.9,281.61L628.22,272.83L658.01,272.75L653.33,264.32L651.33,259.25L652.71,257.45L657.34,255.31L659.96,253.15L660.46,249.99L665.96,249.69L671.07,251.75L672.97,247.38L677.44,246.78L685.17,242.33L686.65,242.71L688.2,246.17L692.5,249.01L694.73,254.53L698.2,255.11L706.35,253.08L706.83,251.57L703.9,248.58L703.53,246.63L707.31,237.86L707.43,236.13L706.58,233.32L703.98,229.3L703.33,225.43L704.78,220.78L706.56,218.84L714.06,216.46L715.68,216.71L719.28,219.35L722.46,220.2L739.12,221.71L740.79,221.48L742.49,219.32L742.49,219.32L746.42,218.57L750.75,220.15L754.27,219.82L759.6,214.45L767.73,209.52L780.66,209.42L791.76,204.87L798.09,203.86L800.74,204.85L802.44,204.64L803.84,203.44L804.54,201.58L804.54,193.15L805.65,191.09L815.4,183.97L821.58,183.12L826.15,179.87L828.58,166.66L830.85,162.91L834.76,160.67L837.18,160.44L839.61,161.07L838.53,162.41L837.73,166.06L838.66,168.9L839.98,170.7L839.98,170.7L840.09,173.82L839.02,176.34L839.14,178.23L837.64,180.82L839.04,181.94L839.23,184.06z"/>
		<path id="CF-HM" title="Haut-Mbomou" class="land" d="M927.88,248.02L930.17,247.93L931.77,251.33L932.66,251.23L933.81,252.65L937.23,254.35L945.61,252.37L948.74,252.96L950.59,254.12L953.95,253.93L955.9,256.21L962.25,255.57L963.51,256.81L964.17,256.21L965.21,256.5L967.37,260.37L968.91,268.15L972.49,270.26L974.84,274.28L982.68,279.36L985.78,283.31L993.6,281.57L996.61,284.81L998.18,284.75L998.08,285.75L1001.39,289.73L1001.43,290.91L1003.46,290.89L1003.79,295.77L1002.71,297.67L1003.21,298.67L1002.62,300.08L1004.88,302.38L1004.84,303.02L1003.41,303.27L1003.3,305.4L1000.48,307L998.72,307.04L998.26,307.97L996.69,308.05L996.35,309.13L993.18,310.78L993.05,311.65L994.23,312.42L995.16,314.68L995.43,318.93L997.77,319.37L998.89,320.45L1001.73,320.87L1002.21,320.16L1003.26,321.47L1002.91,322.21L1005.02,323.79L1005.31,324.91L1006.53,324.52L1007.69,325L1009.9,331.96L1011.41,332.32L1012.45,333.81L1013.77,333.02L1016.82,335.72L1018.06,335.41L1018.16,337.51L1019.28,337.13L1020.38,338.75L1021.75,338.11L1022.33,338.92L1023.01,338.88L1023.34,337.89L1024.79,338.05L1026.86,340.32L1027.67,339.72L1028.79,340.48L1028.62,342.02L1029.51,342.45L1030.36,341.34L1031.05,341.79L1031.23,343.31L1035.72,343.95L1037.3,345.53L1040.47,345.6L1042.2,347.73L1044.15,346.99L1045,347.33L1045.02,348.69L1051.05,349.57L1051.65,350.22L1050.46,352.68L1050.94,353.03L1055.08,353.37L1056.2,354.28L1057.44,354.29L1059.01,355.53L1057.89,357.1L1060.48,357.73L1061.06,359.22L1065.43,359.69L1066.13,362.4L1070.19,362.35L1071.8,362.97L1072.3,364.34L1071.48,366.14L1072.37,367.99L1071.1,369.77L1073.07,369.89L1072.88,371.1L1073.54,371.97L1075.12,371.29L1075.45,371.66L1075.13,376.15L1076.84,378.89L1077.75,379.66L1082.51,379.85L1083.59,380.98L1083.34,382.3L1086.19,384.38L1086.08,385.79L1090.62,386.98L1091.09,389.23L1095.68,389.76L1097.19,390.88L1099.61,391.03L1102.67,394.02L1104.08,394.38L1104.8,395.69L1103.78,398L1101.79,399.51L1101.8,400.96L1099.19,401.28L1098.92,403.54L1097.68,404.45L1096.28,406.95L1096.86,408.23L1094.19,408.6L1093.23,411.43L1094.76,411.17L1095.19,411.69L1094.49,413.36L1095.85,414.38L1093.9,416.88L1094.25,418.16L1098.36,420.93L1102.06,424.95L1106.79,426.1L1110.24,428.1L1109.96,431.72L1111.43,433.75L1114.04,432.68L1115.63,433.7L1115.48,435.54L1113.32,438.84L1108.76,441.91L1108.05,445.33L1108.87,446.05L1111.23,443.8L1114.16,442.65L1115.29,443.92L1115.96,447.29L1117.14,447.94L1117.86,450.05L1119.66,450.65L1121.94,450.35L1123.26,451.53L1126.4,452.6L1128.97,451.34L1130.83,451.51L1132.23,452.51L1135.11,451.85L1136.7,453.16L1138.79,453.62L1139.39,454.52L1140.4,454.17L1142.01,456.45L1142.43,461.68L1143.25,462.68L1146.04,463.62L1147.68,462.73L1149.89,462.61L1151.02,464.73L1153.75,466.72L1157.19,465.78L1158.9,466.68L1159.77,467.65L1159.51,469.18L1161.76,470.26L1162.05,471.9L1163.02,471.53L1163.95,472.26L1164.68,471.29L1166.81,470.96L1168.19,471.67L1168.27,473.24L1171.91,473.96L1172.21,474.48L1170.52,475.59L1174.42,477.55L1177.05,481.11L1176.61,482.7L1178.82,485.11L1178.21,488.04L1178.88,490.01L1180.83,488.96L1182.98,490.17L1181.94,492.03L1182.36,495.27L1180.74,497.38L1178.46,504.56L1179.06,508.68L1180.63,510.44L1179.59,511.72L1179.87,513.54L1182.23,517.89L1183.82,519.22L1184.55,522.41L1185.91,524.23L1186.61,525L1188.99,525.52L1189.87,527.01L1193.17,529.2L1194.01,532.22L1198.45,536.45L1198.4,539.67L1199.19,541.45L1197.17,540.92L1197.31,537.2L1194.79,535.01L1178.33,529.22L1171.63,524.97L1167.56,524.33L1164.54,524.57L1160.08,526.1L1151.62,530.85L1151.7,532L1150.63,532.83L1149.56,535.71L1147.66,536.29L1147.11,538.81L1145.95,539.86L1142.29,537.58L1141.36,538.61L1140.19,538.49L1138.84,536.39L1136.87,535.21L1136.97,533.76L1135.3,534.16L1133.38,534.39L1132.39,534.66L1131.29,534.5L1129.6,535.04L1129.45,534.19L1128.77,534.25L1128.75,535.35L1127.72,535.95L1126.44,536.05L1125.14,534.94L1124.89,535.58L1123.92,535.69L1124.46,536.7L1124.05,537.2L1122.76,535.69L1121.13,536.27L1120.51,535.49L1119.21,535.64L1119.15,537.21L1118.24,537.19L1117.6,536.03L1116.98,537.15L1117.35,537.64L1116.07,538.72L1116.19,536.8L1115.49,536.86L1114.85,538.93L1113.26,538.95L1111.36,538.73L1109.17,537.64L1108.47,537L1108.2,536.34L1109,535.97L1108.75,534.35L1107.12,534.71L1107.14,532.66L1105.61,532.75L1105.46,531.9L1104.51,531.8L1104.71,530.95L1103.93,530.98L1103.39,532.01L1102.61,531.02L1102.62,529.66L1100.41,530.07L1099.05,528.94L1098.22,529.71L1096.98,529.57L1096.88,530.66L1095.87,529.13L1094.73,530.25L1094,528.46L1092.91,528.89L1093.14,527.69L1090.35,527.49L1090.88,526.21L1090.28,525.12L1089.56,525.33L1089.33,526.42L1088.33,525.1L1088.81,524.17L1087.53,524.32L1087.34,525.48L1086.31,524.17L1087.09,523.66L1086.16,521.61L1084.24,523.33L1084.67,522.51L1084.25,521.2L1082.21,522.35L1081.63,521.56L1082.14,519.91L1080.12,519.27L1079.52,519.36L1079.48,520.39L1077.93,522.25L1076.71,521.45L1075.62,521.66L1076.51,522.67L1076.39,524.2L1074.34,523.75L1073.54,525.47L1072.28,524.75L1072.25,523.74L1070.87,524.73L1068.41,524.2L1068.26,522.38L1067.52,522.26L1066.76,523.13L1066.09,521.37L1064.42,522.87L1064.18,525.68L1062.23,524.34L1060.81,525.19L1059.28,524.91L1059.99,527.2L1059.19,528.09L1058.29,525.43L1056.63,524.4L1057.27,523.71L1056.96,523.26L1055,523.16L1053.66,523.87L1052.65,526.12L1051.28,523.4L1050.22,523.57L1051.23,520.82L1048.52,521.55L1049.49,520.16L1048.74,518.41L1046.72,519.22L1048.06,519.63L1047.92,520.31L1044.85,521.64L1044.01,519.1L1042.23,518.92L1041.21,516.22L1038.11,514.86L1036.89,515.4L1036.7,513.44L1035.46,513.53L1034.76,514.44L1035.01,515.7L1034.16,515.64L1033.56,514.03L1031.57,513.91L1033.62,512.56L1033.45,511.69L1031.15,511.87L1029.74,509.2L1027.36,509.09L1026.55,508.22L1025.59,509.07L1026.69,511.05L1023.43,512.01L1022.18,510.2L1021.23,510.04L1020.28,511.67L1018.84,511.55L1016.03,514.11L1014.75,514.07L1013.77,512.13L1012.95,513.95L1010.5,514.56L1010.66,515.51L1011.74,515.24L1011.99,515.96L1010.8,517.29L1009.55,517.19L1008.36,519.51L1007.64,523.99L1006.38,525.38L1007.3,528.85L1009.37,529.51L1009.01,532.65L1007.06,535.55L1007.15,538.23L1006.02,539.64L999.68,540.68L998.22,541.61L995.55,541.33L994.6,542.56L993.59,542.46L992.12,540.48L991.27,540.36L989.67,542.9L977.39,542.9L977.42,543.51L973.19,544.13L971.42,546.38L967.55,546.34L966.45,548.49L961.45,548.35L958.63,551.25L957.58,551.15L957.34,549.79L955.76,551.08L953.51,551.31L952.26,549.73L946.6,550.12L947.97,547.37L948.03,545.63L944.33,545.13L942.59,540.16L938.25,539.64L936.72,538.49L935.46,535.67L930.41,534.03L930.41,534.03L932.57,531.77L933.6,531.82L935.7,533.37L937.57,532.22L937.55,530.87L935.72,530.65L935.3,529.25L936.5,528.18L935.55,527.31L936.62,525.39L938.57,527.06L938.95,526.81L938.87,524.24L940.22,522.52L940.2,520.7L941.32,520.02L942,518.25L943.3,519.42L947.18,519.02L949.98,519.62L951.7,518.87L953.28,516.83L955.1,516.18L957.53,517.4L958.16,516.78L958.21,515.16L960.88,514.16L962.66,511.61L963.86,512.64L965.73,513.06L966.53,510.22L965.76,507.42L967.66,508.2L967.48,506.57L969.64,505.65L969.01,503.48L971.99,504.35L972.81,503.38L975.01,502.58L973.64,500.18L974.69,499.39L976.14,499.36L978.39,497.46L979.51,493.65L981.69,492.2L979.01,491.37L981.47,489.65L980.16,489.1L979.81,487.65L979.84,486.53L981.14,485.48L980.24,482.81L981.22,480.76L980.94,478.69L981.94,476.62L980.44,474.65L983.17,473.25L985.72,472.97L987.12,470.73L987.97,470.38L990.42,473.75L991.37,470.48L991.09,468.58L991.84,464.73L994.47,461.46L994.47,460.56L991.29,456.04L986.19,456.81L984.87,453.24L981.77,450.69L982.22,448.97L981.54,447.67L977.89,447.67L975.81,444.07L963.41,433.5L964.31,432.5L970.84,434.63L972.24,434.35L973.89,432.53L976.79,431.85L977.44,431.4L978.49,427.03L982.42,426.95L984.02,426.15L984.17,422.43L983.09,420.06L975.16,413.68L971.56,412.63L968.51,409.3L966.51,408.35L957.68,409.33L950.43,417.38L944.45,416.76L941.1,418.56L928.74,405.63L918.74,393.57L910.83,385.31L910.83,385.31L911.51,383.09L913.56,383.94L915.29,383.22L915.16,382.22L914.24,382.17L913.99,380.61L913.01,380.36L912.79,379.41L916.89,377.44L916.69,374.51L918.82,373.81L918.57,372.98L917.19,372.56L916.06,368.95L918.36,368.2L918.84,366.27L921.69,366.5L924.49,365.02L928.19,365.8L931.67,365.25L933.85,361.99L936.12,362.57L937.35,360.17L936.97,356.66L935.92,354.66L937.22,351.18L937.02,346.27L937.97,344.94L935.6,343.02L936.17,340.66L933.37,340.56L933.3,339.53L934.27,338.21L933.2,334.52L935.55,328.44L936.67,327.86L936.92,325.71L938.3,325.28L939.97,319.72L940.95,319.59L941.02,319.07L937.35,317.29L938.25,316.01L936.15,315.11L935.07,311.3L932.7,308.24L932.02,305.91L931.77,303.25L932.55,298.74L930.75,295.65L931.32,291.19L929.42,287.48L928.97,280.91L927.79,278.75L929.57,276.37L930.95,267.53L930.42,266.33L925.19,262.59L924.69,258.15L919.92,256.67L913.59,251.4L912.29,248.18L912.29,248.18L914.38,248.82L917.83,248.31L918.83,249.64L920.8,250.09L924.65,247.45z"/>
		<path id="CF-HS" title="Haute-Sangha" class="land" d="M214.26,518.28L218.56,516.15L231.09,507.82L238.07,511.76L242.54,511.39L247.42,509.52L249.82,509.62L260.33,516.9L262.23,518.82L264.9,524.19L268.1,528.05L267.5,529.83L266.65,530.35L263.28,531.1L259.42,533.99L256.55,534.77L260.52,540.83L260.52,540.83L260.93,543.47L259.58,545.86L255.1,546.81L253.95,547.51L252.95,549.28L250.27,550.4L249.42,551.47L244.79,553.77L242.16,554.06L242.67,557.43L241.84,559.05L242.37,560.33L241.69,567.38L243.32,574.04L246.67,577.43L250.5,584.48L250.72,586.65L255.52,589.56L258.85,597.19L261.1,599.8L263.53,600.2L263.73,602.35L255.95,601.55L252.22,597.89L247.15,594.92L245.39,595.12L237.17,602.47L233.46,610.7L233.46,610.7L226.89,608.83L221.08,619.81L220.69,624.02L221.11,628.9L219.88,632.49L216.33,637.24L209.86,642.7L209,646.26L207.05,648.12L205.85,647.65L201.7,642.79L199.7,642.22L194.67,642.5L192.27,640.16L187.47,637.77L177.92,635.47L174.84,633.36L160.31,634.63L156.23,635.2L144.55,639.53L135.15,644.34L131.4,647.85L129.1,653.7L127.45,655.24L124.55,656.07L122.04,655.99L120.69,652.56L117.22,652.21L115.12,653.08L112.74,655.49L102.33,661.5L102.33,661.5L99.34,658.25L90.59,644.2L86.67,637.54L85.16,632.98L82.23,632.86L83.11,631.45L90.18,629.61L93.55,627.75L92.66,626.45L90.45,626.71L89.45,623.65L87.33,621.99L86.65,620.42L87.27,619.25L87.2,617.21L86.6,616.67L86.69,613.2L85.75,611.49L86.17,609.65L84.8,605.11L83.13,603.76L81.22,599.98L80.02,600.06L78.48,595.25L75.86,594.77L75.39,593.86L74.28,593.54L72.4,593.66L71.92,592.69L67.2,590.74L65.66,588.54L64.29,588L64.01,587.03L62.34,586.82L60.4,585.56L56.49,580.7L55.23,580.47L54.36,578.81L52.9,577.96L53.15,577.12L52.18,575.09L51.85,566.21L50.27,564.08L51.34,563.53L51.94,561.94L50.68,555.95L51.46,555.19L48.73,549.4L49.65,546.43L48.1,544.07L48.59,541.37L48.59,541.37L65.02,543.69L71.62,541.92L73.65,543.24L77.6,547.71L79.03,548.31L80.9,547.41L84.13,543.02L105.26,542.9L106.34,541.4L107.49,541.3L110.74,543.22L113.54,542.92L115.37,542.35L121.8,537.96L127.22,540.85L135.65,541.45L137.25,540.63L139.88,541.4L140.15,539.85L138.85,531.6L137.1,529.25L140.83,523.84L140.55,522.57L143,521.64L146.88,522.12L146.93,523.74L148.88,528.63L148.35,531.97L150.96,537.51L156.63,535.76L161.74,532.82L162.71,533.64L163.34,535.71L165.09,537.33L167.91,537.63L173.99,535.61L190.72,527.76L205.05,522.77z"/>
		<path id="CF-KB" title="Gribingui" class="land" d="M443.9,221.36L445.18,222.24L446.68,230.45L448.4,231.31L450.3,236.13L451.65,237.89L454.35,239.02L457.05,241.88L457.85,244.62L459.31,245.7L458.26,247.81L459.58,248.38L459.13,249.86L460.78,250.49L462.31,253.61L467.51,257.82L467.96,260.38L469.16,261.06L468.96,262.44L470.09,263.19L468.76,267.26L471.31,269.14L468.16,271.47L469.43,275.64L467.21,278.3L468.96,280.88L466.08,284.14L466.68,285.97L468.38,286.8L468.68,287.7L465.96,289.89L466.86,292.02L470.29,295.96L471.89,293.75L475.24,297.23L476.01,296.76L476.46,294.95L479.21,297.81L482.81,296.71L484.49,298.19L484.37,299.09L487.32,300.94L489.99,300.22L489.82,301.32L487.94,303.2L490.72,304.4L490.49,307.06L489.22,308.31L489.49,311.47L493.67,311.65L494.17,312.35L496.17,312.45L497.57,314.13L500.35,312.63L501.62,314.43L503,314.28L503.07,317.11L505,317.26L505.77,318.26L505.75,323.53L507.45,324.35L509.13,323.7L509.98,326.51L512.7,329.99L514.13,330.39L514.85,329.26L515.68,329.61L516.3,331.37L517.68,332.52L517.38,335.25L518.05,338.63L521.41,341.56L521.58,342.56L523.76,342.49L525.13,343.62L527.66,344.34L528.68,345.75L530.11,346.27L530.31,347.9L533.79,350.05L534.06,351L536.46,352.38L538.49,352.01L538.86,354.38L539.64,354.73L540.86,354.11L541.49,354.68L541.49,354.68L540.34,357.81L540.99,362.29L540.06,365.77L538.34,368.1L536.86,373.68L531.76,377.84L531.41,379.99L530.06,382.22L528.53,382.54L523.08,388.45L521.18,389.47L515,396.95L514.4,400.25L516.38,412.33L514.73,412.78L510.68,409.88L506.37,409.63L504.07,410.2L504.07,410.2L482.89,407.53L477.21,408.55L467.41,411.63L462.48,412.31L459.16,411.93L454.83,413.73L451.85,414.06L448.1,413.06L444.78,411.25L443.6,410.1L440.67,404.45L438.5,403.28L435.95,403.3L421.34,406.4L414.89,406.73L414.89,406.73L415.51,403.23L416.86,400.23L419.77,397.95L424.72,395.75L425.77,394.6L426.02,393.02L424.79,391.15L419.79,389.5L414.29,385.32L413.66,383.12L415.31,379.74L412.61,379.51L410.89,373.06L405.73,368.43L406.16,366.05L409.86,363.75L411.44,357.64L414.26,356.04L414.34,354.23L411.11,353.56L411.04,352.01L415.26,349.8L416.24,348.7L416.41,344.77L417.04,344.02L422.49,341.74L423.34,340.39L411.79,308.79L412.81,307.04L415.51,305.58L439.12,294.48L438.2,293.75L436.32,294.12L435.37,293.22L435.07,290.56L436.5,288.21L435,286L437.82,283.27L435.95,280.78L438.6,279.73L439.8,278.4L440.07,277.4L438.92,276.09L439.9,273.93L439.47,271.3L439.9,270.42L441.17,270.02L441.25,268.29L442.45,266.96L440.82,264.9L442.6,263.07L441.45,259.96L443.25,258.15L442.57,256.37L443.07,253.78L442.45,253.18L442.4,251.45L441.1,251.42L439.22,250.17L438.62,248.33L438.97,245.67L441.02,244.64L441.37,242.43L440.65,240.73L442.55,239.75L442.07,236.51L443.7,236.33L444.1,235.45L443.3,234.92L442.4,232.16L442.72,230.55L443.92,229.27L442.45,227.64L442.62,226.51L444.05,225.58z"/>
		<path id="CF-KG" title="Kémo-Gribingui" class="land" d="M414.89,406.73L421.34,406.4L435.95,403.3L438.5,403.28L440.67,404.45L443.6,410.1L444.78,411.25L448.1,413.06L451.85,414.06L454.83,413.73L459.16,411.93L462.48,412.31L467.41,411.63L477.21,408.55L482.89,407.53L504.07,410.2L504.07,410.2L503.52,412.65L504.95,415.23L507.7,417.38L512.43,418.9L514.28,420.33L516,422.88L512.88,431.8L514.98,435.73L511.65,438.63L511.7,440.05L513.23,442.07L511.43,443.5L507.82,449.47L507.33,449.84L503.77,449.19L502,449.77L500.3,453.26L491.94,458.49L490.59,459.94L490.37,460.81L493.29,471.25L491.77,472.5L491.59,473.52L492.29,474.32L497.4,476.07L498.02,477.52L497.62,481.11L496.1,483.88L487.29,490.97L479.76,492.22L479.04,493.94L481.61,496.52L483.19,499.49L528.58,498.79L528.23,503.9L526.08,506.55L523.06,513.96L523.58,519L522.51,521.97L522.93,524.91L521.61,531.6L519.23,534.91L514.11,537.15L514.11,537.15L511.47,534.51L507,533.75L499.88,530.95L492.33,531.41L487.14,529.81L481.26,531.91L475.88,531.22L472.46,532.77L469.48,536.34L458.9,542.28L455.4,548.09L450.52,548.12L447.6,548.83L447.6,548.83L446.54,547.73L447.03,543.59L445.45,541.32L445.35,538.8L442.05,536.66L440.87,533.07L437.75,530.5L436.17,527.93L435.85,526.08L436.5,521.69L439.77,512.54L438.47,509.07L435.27,503.83L432.77,502.85L429.09,500.26L426.52,497.16L426.32,488.23L425.54,486.48L424.32,485.78L414.24,484.11L409.34,483.91L407.33,482.24L404.21,477.23L404.21,477.23L403.16,472.02L403.73,468.43L401.86,463.76L404.38,458.11L403.18,455.31L403.08,453.39L409.59,450.87L410.36,449.37L414.31,447.62L416.44,445.82L419.24,442.35L422.87,440.6L424.29,438.33L428.62,437L429.44,435.58L429.19,434.33L426.17,433.38L424.97,431.78L424.52,427.03L424.92,420.95L413.99,410.15L413.91,408.48z"/>
		<path id="CF-LB" title="Lobaye" class="land" d="M260.52,540.83L269.25,539.3L271.38,543.49L277.41,545.79L279.61,549.55L283.21,551L284.54,554.14L291.11,557.78L297.77,560.17L299.52,562.15L299.59,563.44L303.12,566.31L305.69,580.17L307.22,582.04L307.67,583.76L310.2,585.55L316.15,586.97L317.55,585.33L322.23,585.6L325.53,584.25L330.95,586.55L332.05,590.51L332.68,590.91L335.16,590.16L338.23,592.28L340.43,590.06L342.63,589.69L347.39,591.01L351.01,591.16L351.09,592.8L352.71,593.45L357.96,591.13L359.32,592.03L361.72,594.92L364.92,601.8L367.79,603.07L373.1,603.64L375.12,606.33L378.15,612.58L377.65,616.07L378.62,620.18L377.35,623.77L377.6,625.56L378.7,627.31L383.2,630.79L384.6,634.33L385.78,634.25L386.5,635.15L388.93,635.97L388.98,637.99L389.98,639.16L392.78,641.23L394.8,640.85L399.05,643.2L400.84,645.56L400.84,645.56L400.96,650.27L400,654.9L400.38,659.17L401.71,663.16L402.82,674.44L404.32,680.02L400.71,679.48L398.94,674.67L396.77,671.73L395.36,667.56L390.96,663.69L388.11,666.35L387.53,668.36L384.92,667.65L384.41,668.11L384.1,670.44L378.28,667.78L374.93,669.63L371.24,669.22L368.88,677.39L367.98,678.26L364.15,679.11L362.99,678.48L361.85,674.96L360.16,672.65L356.6,671.02L353.51,670.67L351.53,671.31L347.14,670.36L346.75,672.84L344.38,672.01L341.53,668.24L339.87,670.84L334.45,674.47L331.74,666.07L328.75,665.85L323.1,663.87L320.58,665.37L319.01,664.75L311.69,664.77L310,663.24L307.3,662.26L306.05,660.77L302.71,660.22L301.37,659.31L298.69,659.57L296.81,661.26L294.47,661.97L294.47,661.97L290.21,653.98L285.84,648.97L271.88,642.65L265.2,641.38L260.08,637.99L254.45,637.47L251.42,634.98L249.92,633.38L248.12,629.07L244.14,623.92L241.42,618.79L237.77,615.72L235.82,612.24L233.46,610.7L233.46,610.7L237.17,602.47L245.39,595.12L247.15,594.92L252.22,597.89L255.95,601.55L263.73,602.35L263.53,600.2L261.1,599.8L258.85,597.19L255.52,589.56L250.72,586.65L250.5,584.48L246.67,577.43L243.32,574.04L241.69,567.38L242.37,560.33L241.84,559.05L242.67,557.43L242.16,554.06L244.79,553.77L249.42,551.47L250.27,550.4L252.95,549.28L253.95,547.51L255.1,546.81L259.58,545.86L260.93,543.47z"/>
		<path id="CF-MB" title="Mbomou" class="land" d="M910.83,385.31L918.74,393.57L928.74,405.63L941.1,418.56L944.45,416.76L950.43,417.38L957.68,409.33L966.51,408.35L968.51,409.3L971.56,412.63L975.16,413.68L983.09,420.06L984.17,422.43L984.02,426.15L982.42,426.95L978.49,427.03L977.44,431.4L976.79,431.85L973.89,432.53L972.24,434.35L970.84,434.63L964.31,432.5L963.41,433.5L975.81,444.07L977.89,447.67L981.54,447.67L982.22,448.97L981.77,450.69L984.87,453.24L986.19,456.81L991.29,456.04L994.47,460.56L994.47,461.46L991.84,464.73L991.09,468.58L991.37,470.48L990.42,473.75L987.97,470.38L987.12,470.73L985.72,472.97L983.17,473.25L980.44,474.65L981.94,476.62L980.94,478.69L981.22,480.76L980.24,482.81L981.14,485.48L979.84,486.53L979.81,487.65L980.16,489.1L981.47,489.65L979.01,491.37L981.69,492.2L979.51,493.65L978.39,497.46L976.14,499.36L974.69,499.39L973.64,500.18L975.01,502.58L972.81,503.38L971.99,504.35L969.01,503.48L969.64,505.65L967.48,506.57L967.66,508.2L965.76,507.42L966.53,510.22L965.73,513.06L963.86,512.64L962.66,511.61L960.88,514.16L958.21,515.16L958.16,516.78L957.53,517.4L955.1,516.18L953.28,516.83L951.7,518.87L949.98,519.62L947.18,519.02L943.3,519.42L942,518.25L941.32,520.02L940.2,520.7L940.22,522.52L938.87,524.24L938.95,526.81L938.57,527.06L936.62,525.39L935.55,527.31L936.5,528.18L935.3,529.25L935.72,530.65L937.55,530.87L937.57,532.22L935.7,533.37L933.6,531.82L932.57,531.77L930.41,534.03L930.41,534.03L928.23,533.56L926.89,534.17L927.64,537.12L926.44,537.58L924,532.91L922.41,533.1L921.16,536.41L919.93,536.73L919.58,537.51L920,538.49L920.99,538.84L923.21,538.09L924.2,538.89L924.34,540.09L921.15,542.15L914.21,542.63L912.11,544.58L911.9,545.42L912.89,547.39L912.19,548.55L910.08,548.74L910.18,547.23L908.63,546.53L904.56,549.11L901.8,552.33L899.67,552.47L897.34,550.86L895.48,550.95L890.85,553.92L885.21,555.81L884.36,553.97L883.74,553.93L882.92,554.86L883.33,558.82L882.84,560L879.8,559.32L878.99,558.27L877.65,557.92L873.95,559.88L872.36,558.21L866.7,562.68L861.17,562.43L853.13,566.18L849.72,566.86L846.96,569.51L842.4,572.22L839.17,572.21L836.12,574.29L835.58,575.91L835.96,578.72L835.22,579.79L831.77,579.79L829.76,578.09L827.14,578.6L823.87,576.34L822.57,576.5L821,573.08L818.77,572.67L816.08,570.52L814.92,568.02L812.77,566.4L807.52,569.11L804.53,568.43L800.41,565.4L798.47,565.03L795.85,558.76L794.36,557.46L792.03,559.47L788.91,559.25L787.88,560.22L787.2,562.24L788.55,564.7L786.05,566.4L785.23,569.13L783.42,569.67L781.88,567.91L780.13,567.57L777.82,569.43L775.92,574.25L773.86,576.56L773.34,582.74L770.89,586.36L770.95,588.55L770.21,590.3L768.52,591.2L766.95,589.51L763.75,589.14L761.23,590.3L761.12,594.54L760,596.75L760.4,597.7L763.11,598.75L763.05,601.18L759.05,603.13L756.44,607.64L756.03,609.79L756.98,611.25L756.84,613.29L748.17,621.14L737.91,622.42L731.26,622.36L727.01,621.27L722.02,618.79L718.67,615.41L715.86,613.63L710.48,612.74L710.48,612.74L710.73,609.32L713.98,606.48L713.03,600.48L715.86,596.59L716.28,594.57L719.28,590.88L719.44,589.24L720.91,587.05L720.91,587.05L720.39,585.77L720.39,585.77L718.23,584.25L714.08,583.91L712.61,584.65L711.03,584.4L707.41,586.27L702.93,585.33L701.88,584.53L703.25,581.91L699.43,578.47L699,577.05L699.55,575.18L697.18,575.71L696.2,573.66L694.35,574.16L692.9,573.79L691,571.17L689.17,571.54L688.45,570.45L687.45,571.17L684.17,570.92L683.8,570.1L683.87,568.05L684.65,567.03L684.47,563.84L686.62,559.9L687.1,550.33L692.1,543.17L691.57,540.08L688.9,536.68L688.65,534.74L694.55,530.32L697.13,525.61L697.68,521.89L697.48,514.46L698.9,510.04L697.6,505.13L698.73,501.98L698.3,500.01L698.3,500.01L699.25,498.54L702.38,496.79L704.2,493.74L710.43,489.65L711.38,488.18L710.96,487.4L709.26,487.28L710.11,485.71L713.93,486.16L714.68,485.63L714.26,482.69L712.11,479.96L711.56,477.47L713.76,474.82L713.43,470.33L713.96,463.43L718.33,458.09L718.16,456.56L716.86,455.39L721.84,451.07L727.94,449.1L728.94,447.32L731.49,447.22L733.29,449.77L738.47,448.9L741.49,449.82L749.35,445.67L751.9,441.75L753,436.73L756.32,430.9L768.58,428.35L774.78,429.65L780.44,428.4L782.79,429.65L785.96,436.2L821.8,445.65L823.93,443.52L823.6,440.87L824.13,439.6L823.53,437.78L823.95,437L825.35,436.55L825.78,434.2L827.48,433.48L828.88,434.53L832.71,434.2L834.28,432.9L834.76,429.78L837.23,426.2L840.58,424.65L848.36,419.33z"/>
		<path id="CF-MP" title="Ombella-Mpoko" class="land" d="M255.15,465.75L255.45,467.53L254.67,470.45L259.73,479.24L311.02,478.54L329.53,467.98L331.93,466.08L333.96,462.93L336.43,461.64L338.73,461.58L346.01,466.4L347.46,466.21L347.76,469.88L349.64,471.27L354.91,469.68L358.29,472.12L360.44,471.27L368.67,470.6L370.84,471.8L371.07,474.75L371.95,475.89L374.17,474.67L378.25,474.7L383.05,476.57L383.38,478.49L380.47,481.21L382.92,485.91L382.8,491.27L383.77,492.6L392.38,489.35L400.83,484.96L402.58,481.16L402.28,476.94L403.26,476.54L404.21,477.23L404.21,477.23L407.33,482.24L409.34,483.91L414.24,484.11L424.32,485.78L425.54,486.48L426.32,488.23L426.52,497.16L429.09,500.26L432.77,502.85L435.27,503.83L438.47,509.07L439.77,512.54L436.5,521.69L435.85,526.08L436.17,527.93L437.75,530.5L440.87,533.07L442.05,536.66L445.35,538.8L445.45,541.32L447.03,543.59L446.54,547.73L447.6,548.83L447.6,548.83L444.06,552.33L442.52,556.91L438.9,562.06L438.05,565.04L432.44,570.18L431.05,572.87L428.7,573.77L426.77,577.53L422.03,582.54L420.17,591.28L418.33,595.2L413.16,600.01L410.42,600.99L407.24,601.04L407.24,601.04L406,596.53L404.39,594.31L398.53,594.92L397.11,596.53L396.3,598.95L398.32,602.53L398.32,602.53L396.57,604.25L396.31,605.57L402.82,617.67L405.56,625.76L405.86,634.59L404.4,638.07L401.86,640.75L400.84,645.56L400.84,645.56L399.05,643.2L394.8,640.85L392.78,641.23L389.98,639.16L388.98,637.99L388.93,635.97L386.5,635.15L385.78,634.25L384.6,634.33L383.2,630.79L378.7,627.31L377.6,625.56L377.35,623.77L378.62,620.18L377.65,616.07L378.15,612.58L375.12,606.33L373.1,603.64L367.79,603.07L364.92,601.8L361.72,594.92L359.32,592.03L357.96,591.13L352.71,593.45L351.09,592.8L351.01,591.16L347.39,591.01L342.63,589.69L340.43,590.06L338.23,592.28L335.16,590.16L332.68,590.91L332.05,590.51L330.95,586.55L325.53,584.25L322.23,585.6L317.55,585.33L316.15,586.97L310.2,585.55L307.67,583.76L307.22,582.04L305.69,580.17L303.12,566.31L299.59,563.44L299.52,562.15L297.77,560.17L291.11,557.78L284.54,554.14L283.21,551L279.61,549.55L277.41,545.79L271.38,543.49L269.25,539.3L260.52,540.83L260.52,540.83L256.55,534.77L259.42,533.99L263.28,531.1L266.65,530.35L267.5,529.83L268.1,528.05L264.9,524.19L262.23,518.82L260.33,516.9L249.82,509.62L247.42,509.52L242.54,511.39L238.07,511.76L231.09,507.82L218.56,516.15L214.26,518.28L214.26,518.28L213.78,513.61L211.13,507.75L213.76,496.77L213.41,491.85L213.41,491.85L216.41,490.92L218.78,488.23L221.83,486.88L224.16,483.19L228.29,480.24L228.19,477.44L229.01,476.24L232.52,474.47L235.79,471.25L239.14,471.48L245.67,468.85L251.12,468.43L253.05,466.31z"/>
		<path id="CF-NM" title=" Nana-Mambéré" class="land" d="M71.83,391.04L76.25,391.47L84.26,387.57L86.96,387.19L92.93,384.89L93.93,385.09L94.41,385.99L93.76,389.92L94.28,391.2L102.49,397.13L104.44,401.33L106.51,415.03L108.51,417.33L108.84,419.98L111.77,423.83L115.37,426.43L119.74,424.08L125.7,425.6L127.6,422.78L130.1,422.28L136.23,419.23L140.75,418.31L144.85,414.71L147.08,416.28L148.35,417.88L148.1,419.96L141.28,426.3L140.2,428.73L146.28,435.28L148.38,439.48L148.6,450.92L150.68,453.49L150.21,458.91L150.66,459.46L155.56,463.73L161.94,465.88L165.61,470.55L166.86,471.23L170.16,471.02L173.07,472.22L176.52,471.42L181.37,468.23L184.4,461.21L186.8,460.98L189.92,461.64L190.45,462.31L190.22,466.06L191.42,468.2L195.62,473.52L201.05,475.92L202.13,477.89L207.88,481.91L208.83,485.86L212.58,489.98L213.41,491.85L213.41,491.85L213.76,496.77L211.13,507.75L213.78,513.61L214.26,518.28L214.26,518.28L205.05,522.77L190.72,527.76L173.99,535.61L167.91,537.63L165.09,537.33L163.34,535.71L162.71,533.64L161.74,532.82L156.63,535.76L150.96,537.51L148.35,531.97L148.88,528.63L146.93,523.74L146.88,522.12L143,521.64L140.55,522.57L140.83,523.84L137.1,529.25L138.85,531.6L140.15,539.85L139.88,541.4L137.25,540.63L135.65,541.45L127.22,540.85L121.8,537.96L115.37,542.35L113.54,542.92L110.74,543.22L107.49,541.3L106.34,541.4L105.26,542.9L84.13,543.02L80.9,547.41L79.03,548.31L77.6,547.71L73.65,543.24L71.62,541.92L65.02,543.69L48.59,541.37L48.59,541.37L49.29,540.93L47.99,536.51L48.2,535.48L49.61,534.28L47.37,525.56L45.75,523.95L39.12,522.63L34.95,519.05L34.52,517.93L36.84,515.79L36.41,514.9L39.02,509.82L39.03,508.15L41.18,506.98L41.4,501.09L43.8,497.4L42.09,494.58L40.57,490.13L43.53,480.16L42.93,462.38L41.92,460.5L41.01,460.18L37.82,462.15L37.01,461.57L33.35,462.2L31.43,460.74L29.42,455.86L26.26,452.81L24.98,450.18L25.77,446.6L25.32,445.4L29.52,444.24L32.51,441.6L35.12,437.88L37.59,435.94L52.2,431.05L54.58,429.56L60.45,420.62L59.83,418.45L60.22,416.24z"/>
		<path id="CF-OP" title="Ouham-Pendé" class="land" d="M220.58,285.26L219.62,287.81L220.89,290.42L220.59,293.67L222.2,294.64L223.9,294.27L227.21,296.44L227.14,302.72L229.2,304.33L232.5,304.38L238.55,310.24L238.76,312.37L241.1,314.99L241.1,314.99L240.12,320.02L241.99,322.45L242.04,324.05L241.29,325.81L238.37,327.79L238.74,329.69L237.52,330.92L237.17,339.31L235.59,342.14L234.84,345.19L236.37,351.88L235.52,354.88L233.76,356.24L232.62,358.84L229.84,359.47L230.29,362.5L227.96,363.87L229.09,365.87L228.84,367.85L231.06,369.33L231.26,372.28L232.31,373.68L232.39,383.67L235.04,389.52L234.89,394.5L235.64,397.15L236.14,398.15L237.94,398.75L240.11,396.95L238.12,399.02L238.44,402.88L239.02,403.53L241.69,404.08L243.69,408.7L244.72,409.58L246.27,409.68L247.27,411.18L249.32,412.25L251.45,411.6L252.45,411.9L252.95,409.83L253.67,409.28L258.8,410.2L260.7,409.05L266.2,412.43L265.35,417.4L263,417.18L260.83,419.98L259.52,419.6L258.9,420.21L258.58,421.65L259.68,423.03L258.27,424.06L258.52,425.48L256.72,425.45L255.87,426.35L254.45,425.3L253.02,426.33L251.47,433.3L251.85,438.63L252.97,441L250.97,442.7L249.15,442L248.5,443.2L249.32,447.75L250.62,449.52L250.05,451.34L251.32,456.06L251.05,457.74L253.97,461.53L253.92,464.18L255.15,465.75L255.15,465.75L253.05,466.31L251.12,468.43L245.67,468.85L239.14,471.48L235.79,471.25L232.52,474.47L229.01,476.24L228.19,477.44L228.29,480.24L224.16,483.19L221.83,486.88L218.78,488.23L216.41,490.92L213.41,491.85L213.41,491.85L212.58,489.98L208.83,485.86L207.88,481.91L202.13,477.89L201.05,475.92L195.62,473.52L191.42,468.2L190.22,466.06L190.45,462.31L189.92,461.64L186.8,460.98L184.4,461.21L181.37,468.23L176.52,471.42L173.07,472.22L170.16,471.02L166.86,471.23L165.61,470.55L161.94,465.88L155.56,463.73L150.66,459.46L150.21,458.91L150.68,453.49L148.6,450.92L148.38,439.48L146.28,435.28L140.2,428.73L141.28,426.3L148.1,419.96L148.35,417.88L147.08,416.28L144.85,414.71L140.75,418.31L136.23,419.23L130.1,422.28L127.6,422.78L125.7,425.6L119.74,424.08L115.37,426.43L111.77,423.83L108.84,419.98L108.51,417.33L106.51,415.03L104.44,401.33L102.49,397.13L94.28,391.2L93.76,389.92L94.41,385.99L93.93,385.09L92.93,384.89L86.96,387.19L84.26,387.57L76.25,391.47L71.83,391.04L71.83,391.04L74.4,385.64L78.95,384.11L81.67,384.55L83.02,383.19L83.77,379.65L85.14,377.71L87.77,370.89L90.02,367.83L89.61,366.01L90.41,360.5L92.31,357.01L94.73,356.67L97.31,350.63L96.49,350L96.23,347.19L98.5,343.74L96.49,342.76L97.26,341.41L98.47,340.63L99.7,338.27L100.65,338.07L115.55,325.61L118.4,322.02L118.97,319.72L121.79,317.39L122.3,315.67L127.48,316.99L142.57,316.21L142.54,317.49L143.92,319.88L145.04,320.23L146.03,321.75L147.73,321.38L149.05,322.01L149.92,323.25L158.9,320.91L160.85,319.86L164.79,319.44L170.58,314.89L171.5,311.56L173.02,310.55L176.48,309.67L181.79,309.4L183.77,307.61L188.26,308.32L192.85,305.97L194.21,304.24L202.43,302.5L205.83,298.2L204.65,297.39L204.59,296.23L205.44,295.67L204.21,293.76L206.59,290.4L208.06,290.65L208.46,292.23L211.1,291.74L211.69,290.09L213.35,288.4L213.78,286.74L215.88,285.82L217.53,285.93L217.81,284.69L220.72,283.62z"/>
		<path id="CF-SE" title="Sangha" class="land" d="M233.46,610.7L235.82,612.24L237.77,615.72L241.42,618.79L244.14,623.92L248.12,629.07L249.92,633.38L251.42,634.98L254.45,637.47L260.08,637.99L265.2,641.38L271.88,642.65L285.84,648.97L290.21,653.98L294.47,661.97L294.47,661.97L292.59,662.94L289.75,667.84L288.49,668.02L284,665.76L279.83,667.5L279.45,669.96L278.65,670.33L272.6,671.57L271.24,670.69L262.33,673.11L261.83,674.7L260.28,676.22L258.07,674.81L257.5,673.25L254.94,673.8L253.25,672.06L249,672.94L245.72,672.27L245.7,674.99L244.56,676.39L243.76,676.47L240.95,675.5L239.33,673.54L235,672.31L227.57,673.68L222.04,677.67L220.48,680.41L219.02,691.52L216.99,694.83L216.6,696.9L217.34,699.51L212.6,707.9L213.19,711.42L216.09,716.33L211.49,721.83L211.2,730.34L214.31,732.92L213.89,736.34L184.35,792L181.9,789.77L182.47,787.25L180.45,780.45L177.48,776.55L176.36,773.4L174.61,771.97L173.87,770.1L174.72,767.76L173.12,764.58L174.7,758.28L173.13,754.47L173.83,751.3L175.14,749.05L172.66,748.08L172.9,744.44L171.66,740.93L173.66,739.93L175.09,738.2L175.2,737.03L173.65,730.87L172.4,729.77L170.37,725.91L170.3,724.51L168.63,723.88L167.52,722.15L165.48,722.22L164.28,723.33L160.44,719.05L157,713.59L155.5,713.46L154.57,712.47L150.16,713.09L149.53,713.85L148.89,713.26L122.7,682.76L102.33,661.5L102.33,661.5L112.74,655.49L115.12,653.08L117.22,652.21L120.69,652.56L122.04,655.99L124.55,656.07L127.45,655.24L129.1,653.7L131.4,647.85L135.15,644.34L144.55,639.53L156.23,635.2L160.31,634.63L174.84,633.36L177.92,635.47L187.47,637.77L192.27,640.16L194.67,642.5L199.7,642.22L201.7,642.79L205.85,647.65L207.05,648.12L209,646.26L209.86,642.7L216.33,637.24L219.88,632.49L221.11,628.9L220.69,624.02L221.08,619.81L226.89,608.83z"/>
		<path id="CF-UK" title="Ouaka" class="land" d="M629.02,299.59L631.92,301.42L636.5,307.14L639.3,308.31L646.21,309.32L652.58,314.25L655.41,319.97L654.08,332.17L655.11,334.8L657.51,335.6L662.04,335.78L667.09,334.93L669.06,336.25L669.77,338.98L669.09,347.15L670.82,354.21L671.67,363.77L674.44,364.77L674.22,369.78L676.12,373.83L674.67,376.41L675.42,378.19L675.19,380.01L671.97,382.27L671.92,383.84L674.29,385.89L674.82,391.22L677.27,395.42L679.52,396.93L680.37,399.68L681.57,400.25L686.77,400.43L688.77,402.55L686.92,413.33L687.9,416.43L690.1,419.83L690.32,422.23L688.77,425.63L683.6,433.23L684.45,434.63L688.35,436.85L689.42,442.22L691.17,444.9L690.95,448.55L691.67,449.15L697.18,449.69L699.13,457.44L702.03,460.16L702.35,461.16L701.9,469.15L700.53,475.3L698.85,478.12L698.38,482.56L695.25,485.33L694.52,487.58L687.47,482.21L685.92,482.11L676.84,489.25L676.92,493.57L676.92,493.57L674.54,499.59L669.92,501.26L667.84,500.91L666.29,497.99L663.41,497.51L662.86,494.34L660.61,490.57L661.31,489.13L660.66,486.11L659.06,484.56L657.84,481.16L654.86,480.34L653.08,477.24L650.51,480.79L649.53,480.76L648.76,479.17L647.66,478.57L643.85,482.41L638.43,484.91L633.42,482.54L632,483.93L628.35,484.36L625.82,480.21L624.55,479.22L623.07,478.54L620.37,478.57L619.94,480.51L622.47,484.46L622,486.01L619.12,489L619.62,493.32L616.99,494.67L612.64,495.12L611.69,496.37L612.34,497.74L615.37,499.11L616.27,504.8L613.04,508.69L613.99,514.63L613.12,523.69L611.92,526.28L609.69,528.25L608.29,532L611.72,540.08L611.54,541.5L608.77,545.46L607.67,548.33L608.89,555.24L608.77,559.08L608.07,560.2L605.26,561.65L600.06,560.75L594.71,564.29L591.23,565.21L586.48,571.69L578.93,579.67L572.25,583.63L567.95,585.02L567.95,585.02L567.7,582.02L568.74,578.88L568.03,576.34L561.82,570.32L558.1,565.23L554.91,563.25L552.49,563.07L544.88,558.4L541.33,554.04L535.51,551.3L529.37,545.96L524.67,544.79L521.9,545.4L519.56,544.73L515.85,541.36L514.11,537.15L514.11,537.15L519.23,534.91L521.61,531.6L522.93,524.91L522.51,521.97L523.58,519L523.06,513.96L526.08,506.55L528.23,503.9L528.58,498.79L483.19,499.49L481.61,496.52L479.04,493.94L479.76,492.22L487.29,490.97L496.1,483.88L497.62,481.11L498.02,477.52L497.4,476.07L492.29,474.32L491.59,473.52L491.77,472.5L493.29,471.25L490.37,460.81L490.59,459.94L491.94,458.49L500.3,453.26L502,449.77L503.77,449.19L507.33,449.84L507.82,449.47L511.43,443.5L513.23,442.07L511.7,440.05L511.65,438.63L514.98,435.73L512.88,431.8L516,422.88L514.28,420.33L512.43,418.9L507.7,417.38L504.95,415.23L503.52,412.65L504.07,410.2L504.07,410.2L506.37,409.63L510.68,409.88L514.73,412.78L516.38,412.33L514.4,400.25L515,396.95L521.18,389.47L523.08,388.45L528.53,382.54L530.06,382.22L531.41,379.99L531.76,377.84L536.86,373.68L538.34,368.1L540.06,365.77L540.99,362.29L540.34,357.81L541.49,354.68L541.49,354.68L542.16,356.49L546.22,357.59L548.04,360.04L555.34,359.89L558.32,361.39L560.22,360.24L562.72,360.67L563.92,359.34L565.72,361.27L567.77,361.32L569.47,359.94L571.38,359.44L573.38,357.06L576.35,357.39L578.33,356.91L584.96,351.18L586.36,348.17L587.51,343.12L588.71,341.19L592.31,340.61L598.86,342.69L603.01,339.94L606.21,338.91L607.24,337.43L609.19,336.3L610.27,333.57L613.14,330.32L618.99,321.47L624.47,316.74L622.2,312.25L622.22,309.37L625.72,306.76L627.07,301.04z"/>
		<path id="CF-VK" title="Vakaga" class="land" d="M756.13,0.86L758.48,2.13L762.41,0.96L766.32,2.56L773.4,3.02L775.35,4.16L776.49,5.78L786.63,6.99L786.26,8.21L786.99,10.28L790.18,13.21L790.25,14.7L795.18,20.9L797.18,25.76L809.02,33.48L811.68,37.38L814.52,39.72L816.17,42.07L819.04,43.79L821.07,46.71L824.5,48.52L857.48,101.52L860.15,121.83L853.91,133.23L856.35,133.74L855.07,135.62L854.36,139.42L855.29,141.97L857.45,140.96L858.31,142.6L857.07,145.53L855.91,146.66L854.86,151.26L854.91,153.03L856.32,156.48L855.95,157.63L854.26,157.76L853.16,158.87L852.32,161.48L846.46,166.27L844.82,166.62L842.82,166.67L841.61,166.72L841.44,168.78L839.98,170.7L839.98,170.7L838.66,168.9L837.73,166.06L838.53,162.41L839.61,161.07L837.18,160.44L834.76,160.67L830.85,162.91L828.58,166.66L826.15,179.87L821.58,183.12L815.4,183.97L805.65,191.09L804.54,193.15L804.54,201.58L803.84,203.44L802.44,204.64L800.74,204.85L798.09,203.86L791.76,204.87L780.66,209.42L767.73,209.52L759.6,214.45L754.27,219.82L750.75,220.15L746.42,218.57L742.49,219.32L742.49,219.32L742.69,213.97L741.47,212.51L736.62,211.18L732.67,211.2L726.26,209.34L724.21,207.18L719.73,205.17L718.31,203.76L714.66,188.15L715.33,185.08L709.03,181.73L707.18,175.97L701.13,172.35L698.38,168.12L693.77,165.88L691.57,158.61L688.6,155.06L687.22,145.66L682.12,141.58L680.85,137.4L674.99,132.34L673.04,128.66L669.17,128.41L666.04,129.06L664.24,127.85L663.86,123.06L662.61,118.8L663.19,116.11L662.01,112.65L657.89,112.27L655.81,115.98L649.23,119.26L647.73,121.53L645.33,122.81L643.83,126.49L640.55,129.49L636.1,131.15L632.48,130.9L630.02,132.14L626.67,131.98L621.32,134.66L617.82,140.73L615.59,142.21L613.99,141.84L611.47,142.99L607.24,148.26L605.44,147.55L603.36,147.75L599.64,142.26L599.64,142.26L600.8,143.58L601.7,143.36L601.66,140.42L603.26,138.47L605.22,138.19L605,137.15L606.13,135.68L605.95,134.93L609.62,134.74L610.71,130.6L612.22,131.29L612.89,130.89L612.88,126.49L616.17,126.1L616.11,124.87L614.71,124.74L614.29,124.12L616.68,123.84L616.67,123.01L615.57,122.05L617.12,120.27L614.35,118.7L617.64,118.39L616.61,116.44L616.79,114.64L618.17,115.98L619.99,116.32L620.71,115.5L619.48,113.59L619.99,112.19L620.78,111.95L622.94,112.97L623.92,111.77L625.58,111.94L627.63,110.56L627.82,108.13L629.23,105.48L633.79,101.5L635.16,101.17L635.5,97.96L636.31,97.51L636.59,96.09L639.08,94.81L640.12,92.54L640.91,92.24L642.69,92.97L644.06,94.57L645.11,92.57L646.13,94.19L647.53,94.82L649.18,94.37L649.87,92.67L651.21,93.01L652.7,91.56L653.96,87.93L655.1,87.11L656.99,84.32L658.21,83.77L657.77,80.43L659.47,79.3L659.39,77.84L661.15,76.71L661.71,74.68L663.17,74.42L664.33,72.08L666.22,70.96L667.78,72.55L670.25,72.47L672.25,71.84L673.28,70.64L674.58,71.07L675.72,70.41L677.42,70.6L678.08,70.08L676.73,68.67L678.71,67.65L678.15,66.4L680.77,66.56L682.81,64.25L683.64,62.57L682.35,60.13L682.79,59.25L683.94,59.47L684.14,56.98L686.66,54.25L685.14,52.87L685.54,51.32L684.85,49.5L683.21,48.23L681.85,45.5L683.23,41.28L682.7,37.38L683.27,36.05L683.3,32.2L683.92,32.03L685.55,33.27L688.25,30.8L687.76,27.71L688.35,25.11L687.86,23.28L688.24,19.4L690.54,17.97L692.21,15.31L693.27,14.58L695.14,14.67L696.55,12.54L698.21,13.2L700.17,12.36L702.02,12.6L703.03,13.7L703.7,13.61L703.88,12.42L705.71,13.11L707.44,12.22L708.77,11.16L710.53,11.34L713.96,10.18L716.73,11.56L720.95,11.99L723.01,11.28L724.89,9.02L728.55,8.2L731.19,7.7L733.38,6.94L736.71,4.72L740.61,4.48L741.89,4.16L743.51,3.36L745.48,3.36L747.15,1.74L748.39,1.8L749.47,0.76L751.76,0.94L753.11,0.03z"/>
	</g>
</svg>