<?xml version="1.0" encoding="utf-8"?>
<!-- (c) ammap.com | SVG map of Chad - Low -->
<svg xmlns="http://www.w3.org/2000/svg" xmlns:amcharts="http://amcharts.com/ammap" xmlns:xlink="http://www.w3.org/1999/xlink" version="1.1">
	<defs>
		<style type="text/css">
			.land
			{
				fill: #CCCCCC;
				fill-opacity: 1;
				stroke:white;
				stroke-opacity: 1;
				stroke-width:0.5;
			}
		</style>

		<amcharts:ammap projection="mercator" leftLongitude="13.472495" topLatitude="23.450974" rightLongitude="24.002888" bottomLatitude="7.440090"></amcharts:ammap>

		<!-- All areas are listed in the line below. You can use this list in your script. -->
		<!--{id:"TD-BA"},{id:"TD-BG"},{id:"TD-BO"},{id:"TD-CB"},{id:"TD-EN"},{id:"TD-GR"},{id:"TD-HL"},{id:"TD-KA"},{id:"TD-LC"},{id:"TD-LO"},{id:"TD-LR"},{id:"TD-MA"},{id:"TD-MC"},{id:"TD-ME"},{id:"TD-MO"},{id:"TD-ND"},{id:"TD-OD"},{id:"TD-SA"},{id:"TD-SI"},{id:"TD-TA"},{id:"TD-TI"},{id:"TD-WF"}-->

	</defs>
	<g>
		<path id="TD-BA" title="Batha" class="land" d="M314.03,389.17L314.94,470.77L314.94,470.77L314.65,476.94L324.78,483.15L326.07,486.77L324.73,493.71L329.37,503.09L329.09,520.76L329.09,520.76L327.79,523.58L314.12,526.8L314.12,526.8L301.31,522.12L272.97,538.88L239.08,538.64L219.48,550.32L210.73,550.61L195.67,562.62L197.16,566.21L197.16,566.21L188.22,563.35L187.12,559.17L183.39,555.47L182.58,548.61L175.74,542.68L172.97,534.21L166.56,529.48L176.27,518.81L176.27,518.81L180.09,513.39L179.76,502.8L181.52,491.32L196.58,486.53L218.81,402.29L218.81,402.29L232.67,409.58L247.49,410.27L254.66,408.3L265.46,401.69L271.63,394.74L276.27,384.87L277.27,371.63L281.14,371.04L283.39,372.42L287.26,380.38L290.89,384.18z"/>
		<path id="TD-BG" title="Bahr el Gazel" class="land" d="M218.81,402.29L196.58,486.53L181.52,491.32L179.76,502.8L180.09,513.39L176.27,518.81L176.27,518.81L169.72,515.98L163.79,518.32L161.21,517L157.19,519.25L146.92,520.22L143.14,521.98L138.03,521.15L129.33,522.51L120.67,521.49L116.47,515.2L116.47,515.2L117.62,501.68L114.84,493.66L115.61,488.09L109.97,486.63L109.39,487.55L101.75,487.06L102.56,473.22L106.96,471.55L111.4,467.68L127.61,448.07L129.47,433.88L145.77,377.71L153.61,364.46L153.61,364.46L208.82,388.97z"/>
		<path id="TD-BO" title="Borkou" class="land" d="M267.56,74.81L360.14,123.6L360.14,123.6L316.42,218.21L321.87,239.76L336.98,280.35L330.38,341.32L351.84,389.06L351.84,389.06L340.75,395.28L335.73,393.46L327.22,395.33L314.03,389.17L314.03,389.17L290.89,384.18L287.26,380.38L283.39,372.42L281.14,371.04L277.27,371.63L276.27,384.87L271.63,394.74L265.46,401.69L254.66,408.3L247.49,410.27L232.67,409.58L218.81,402.29L218.81,402.29L208.82,388.97L153.61,364.46L153.61,364.46L94.63,334.66L94.63,334.66L97.13,331.95L97.52,323.12L97.52,323.12L180.09,173.86L187.17,159.59L187.98,151.78L189.7,148.43L191.61,147.52L196.92,150.77L196.92,153.56L193.52,157.11L194.43,164L203.18,172.35L204.37,176.3L209.92,182.67L212.69,181.15L215.28,176.39L212.41,163.64L214.13,158.07L211.31,149.49L207.58,145.69L207.06,138.98L214.42,132.43L219.2,124.49L224.78,121.44L234.34,120.22L240.46,117.31L245.92,110.78L252.23,105.93L253.76,89.48L260.16,80.63L260.21,78.01z"/>
		<path id="TD-CB" title="Chari-Baguirmi" class="land" d="M75.31,561.35L85.83,558.73L90.8,554.65L97.16,561.5L105.67,555.86L119.62,555.86L125.07,551.29L152.6,561.16L155.43,565.82L154.61,572.52L158.53,576.94L161.78,588.01L169.48,588.39L175.21,593.34L184.58,597.9L184.58,597.9L183.15,609.62L185.92,630.66L184.2,641.35L194.53,647.29L194.53,647.29L186.78,677.44L186.78,677.44L180.81,676.76L177.56,675.27L176.41,672.91L165.8,671.7L163.65,669.53L157.86,668.57L156.05,666.49L152.41,665.63L150.36,660.8L150.55,657.76L148.69,656.27L143.86,659.4L130.04,658.96L130.04,658.96L126.94,653.9L127.89,634.92L126.36,632.02L123.06,632.74L113.12,630.66L98.97,623.65L93.91,617.8L91.95,610.49L84.01,610.63L74.57,616.29L74.57,616.29L74.24,607.06L76.31,602.94L75.78,600.9L79.78,594.73L77.78,592.55L76.11,586.32L77.86,585.41L76.81,583.86L78.66,582.3L74.98,577.2L75.53,573.73L77.12,572.79L77.12,572.79L79.52,573.11L80.62,568.93z"/>
		<path id="TD-EN" title="Ennedi" class="land" d="M503.18,376.42L503.26,391L487.02,388.39L472.23,391.91L461.66,390.72L461.66,390.72L454.99,385.27L450.59,386.35L445.72,384.23L436.35,386.45L433.82,385.71L432.62,381.86L427.36,380.43L423.06,381.91L413.55,378.1L406.19,380.48L395.43,378.3L376.93,383.44L366.18,379.64L351.84,389.06L351.84,389.06L330.38,341.32L336.98,280.35L321.87,239.76L316.42,218.21L360.14,123.6L360.14,123.6L503.18,201.38z"/>
		<path id="TD-GR" title="Guéra" class="land" d="M314.12,526.8L322.97,533.38L323.64,535.13L320.29,536.93L317.42,542.43L319.33,546.47L315.89,548.27L312.02,553.57L306.67,568.45L307.48,570.34L307.48,570.34L291.9,568.25L286.4,566.31L279.13,573.16L280.47,579.32L274.45,589.85L268.38,591.69L266.8,587.37L259.49,587.23L258.15,597.65L259.49,604.73L287.07,618.43L297.35,620.7L299.4,625.05L297.97,626.89L298.88,634.43L297.77,640.67L297.77,640.67L292.09,645.98L287.88,645.11L284.73,646.42L280.62,652.45L281.14,654.62L274.45,660.03L274.11,662.01L271.87,661.57L267.9,669.63L255.81,669.63L254.32,674.88L246.58,672.96L247.06,667.84L240.08,660.08L230.19,656.41L224.21,652.36L219.57,652.16L214.55,649.89L209.87,645.06L194.53,647.29L194.53,647.29L184.2,641.35L185.92,630.66L183.15,609.62L184.58,597.9L184.58,597.9L188.89,592.37L194.62,588.2L201.08,587.81L198.88,582.18L194.62,576.6L197.16,566.21L197.16,566.21L195.67,562.62L210.73,550.61L219.48,550.32L239.08,538.64L272.97,538.88L301.31,522.12z"/>
		<path id="TD-HL" title="Hadjer Lamis" class="land" d="M52.36,528.91L53.86,529.63L57.58,527.33L60.81,528.15L64.36,525.68L67.1,527.49L69.2,527L72.42,523.85L76.15,525.19L77.6,524.2L78.57,518.27L80.18,517.28L77.8,512.95L82.05,513.93L82.05,513.93L82.05,513.93L82.05,513.93L85.4,519L86.83,516.81L88.84,517L92.04,514.42L91.04,513.15L91.04,513.15L87.19,511.15L87.61,508.38L87.61,508.38L86.99,505.06L86.99,505.06L86.99,505.06L86.99,505.06L91.13,504.46L93.43,508.17L100.5,511.59L100.5,511.59L109.06,515.68L116.47,515.2L116.47,515.2L120.67,521.49L129.33,522.51L138.03,521.15L143.14,521.98L146.92,520.22L157.19,519.25L161.21,517L163.79,518.32L169.72,515.98L176.27,518.81L176.27,518.81L166.56,529.48L172.97,534.21L175.74,542.68L182.58,548.61L183.39,555.47L187.12,559.17L188.22,563.35L197.16,566.21L197.16,566.21L194.62,576.6L198.88,582.18L201.08,587.81L194.62,588.2L188.89,592.37L184.58,597.9L184.58,597.9L175.21,593.34L169.48,588.39L161.78,588.01L158.53,576.94L154.61,572.52L155.43,565.82L152.6,561.16L125.07,551.29L119.62,555.86L105.67,555.86L97.16,561.5L90.8,554.65L85.83,558.73L75.31,561.35L75.31,561.35L71.1,560.43L68.48,561.34L68.48,561.34L68.69,553.86L67.14,549.72L65.75,550.1L64.92,541.73L61.75,541.39L60.91,538.91L59.24,540.13L59.43,537.36L54.88,536.38L54.88,534.82L53.17,535.94L51.54,534.07z"/>
		<path id="TD-KA" title="Kanem" class="land" d="M153.61,364.46L145.77,377.71L129.47,433.88L127.61,448.07L111.4,467.68L106.96,471.55L102.56,473.22L101.75,487.06L109.39,487.55L109.97,486.63L115.61,488.09L114.84,493.66L117.62,501.68L116.47,515.2L116.47,515.2L109.06,515.68L100.5,511.59L100.5,511.59L99.4,505.97L91.75,487.41L71.06,491.17L65.85,490.83L63.08,492.64L56.72,480.85L48.54,470.23L42.14,468.66L40.7,465.82L37.12,464.99L35.49,461.71L32.77,460.82L32.05,457.44L28.85,454.4L26.46,454.21L25.12,451.95L15.9,451.9L14.46,449.99L8.16,449.5L8.16,449.5L10.64,447.77L9.74,443.58L16.08,439.4L15.12,432.45L18.58,424.18L43.56,389.68L94.63,334.66L94.63,334.66z"/>
		<path id="TD-LC" title="Lac" class="land" d="M51.56,526.03L47.15,520L29.13,519.76L7.85,489.39L0,453.09L1.26,451.37L8.16,449.5L8.16,449.5L14.46,449.99L15.9,451.9L25.12,451.95L26.46,454.21L28.85,454.4L32.05,457.44L32.77,460.82L35.49,461.71L37.12,464.99L40.7,465.82L42.14,468.66L48.54,470.23L56.72,480.85L63.08,492.64L65.85,490.83L71.06,491.17L91.75,487.41L99.4,505.97L100.5,511.59L100.5,511.59L93.43,508.17L91.13,504.46L86.99,505.06L87.61,508.38L87.61,508.38L86.84,510.76L91.04,513.15L91.04,513.15L92.04,514.42L88.84,517L86.83,516.81L85.4,519L82.05,513.93L77.8,512.95L80.18,517.28L78.57,518.27L77.6,524.2L76.15,525.19L72.42,523.85L69.2,527L67.1,527.49L64.36,525.68L60.81,528.15L57.58,527.33L53.86,529.63L52.36,528.91L52.36,528.91z"/>
		<path id="TD-LO" title="Logone-Occidental" class="land" d="M141.18,711.53L144.86,717.44L148.83,720.81L145.67,727.92L140.18,730.8L137.55,733.78L133.82,733.54L126.36,736.04L120.58,739.5L114.17,744.34L111.35,749.19L105.71,749.38L98.26,752.12L98.11,750.63L96.39,751.3L94.29,747.18L89.32,745.88L85.99,742.09L85.99,742.09L86.21,733.44L90.03,728.78L91.47,715.61L94.05,714.27L94.05,714.27L100.36,716.09L104.14,714.27L112.12,715.32L117.38,714.27L120.01,711L128.27,713.4L131,709.79L138.17,705.42z"/>
		<path id="TD-LR" title="Logone-Oriental" class="land" d="M141.18,711.53L146.73,709.84L157.67,713.79L167.9,714.8L174.98,713.45L174.98,713.45L175.36,728.64L170.77,734.93L182.67,751.02L178.75,757.69L173.73,758.93L182.14,774.63L182.14,774.63L181.13,777.35L179.69,776.56L176.24,781.19L172.93,779.97L172.9,781.49L170.5,782.71L163.83,783.6L164.17,786.39L161.11,787.75L155.51,781.98L152.66,781.1L152.7,777.77L149.19,776.3L149.26,770.96L145.57,772.61L144.15,775.27L141.75,774.56L140.49,776.34L141.35,778.7L139.54,780.98L132.02,784.07L123.93,785.25L119.57,789.98L111.67,792L108.48,790.21L107.77,788.26L99.09,788.64L97.23,787.86L100.4,784.84L101.52,776.36L97.38,774.99L94.63,770.26L84.72,742.66L84.72,742.66L85.99,742.09L85.99,742.09L89.32,745.88L94.29,747.18L96.39,751.3L98.11,750.63L98.26,752.12L105.71,749.38L111.35,749.19L114.17,744.34L120.58,739.5L126.36,736.04L133.82,733.54L137.55,733.78L140.18,730.8L145.67,727.92L148.83,720.81L144.86,717.44z"/>
		<path id="TD-MA" title="Mandoul" class="land" d="M195.05,688.47L198.23,691.08L200.4,695.61L205.04,696.22L208.03,702.99L216.91,707.63L225.93,708.73L221.58,715.88L216.17,719.17L217.28,724.7L219.31,727.53L219.42,736.45L221.96,739.02L224.87,748.91L224.49,755.23L226.6,764.29L226.6,764.29L217.9,764.77L212.63,767.2L200.68,766.04L198.04,768.72L194.73,768.99L193.19,771.51L190.93,770.3L182.14,774.63L182.14,774.63L173.73,758.93L178.75,757.69L182.67,751.02L170.77,734.93L175.36,728.64L174.98,713.45L174.98,713.45L179.18,709.22L172.16,704.65L179.47,699.35L179.47,694.59L180.86,693.53L178.56,689.48L191.71,686.35z"/>
		<path id="TD-MC" title="Moyen-Chari" class="land" d="M297.77,640.67L294.52,655.11L297.25,656.17L295.15,661.53L295.43,664.37L293.47,665.82L296.72,670.88L311.27,712.62L311.27,712.62L308.49,714.28L301.46,714.38L296.29,716.2L291.78,715.28L278.62,716.82L274.61,715.69L263.82,718.2L257.6,724.29L259.69,724.56L259.86,726.48L261.89,726.37L270.01,733L267.32,734.63L266.19,738.62L260.43,744.86L260.54,746.49L258.25,748.85L257.02,748.56L257.05,750.56L254.82,752.71L248.24,755.34L245.91,762.7L226.6,764.29L226.6,764.29L224.49,755.23L224.87,748.91L221.96,739.02L219.42,736.45L219.31,727.53L217.28,724.7L216.17,719.17L221.58,715.88L225.93,708.73L216.91,707.63L208.03,702.99L205.04,696.22L200.4,695.61L198.23,691.08L195.05,688.47L195.05,688.47L196.82,684.81L186.78,677.44L186.78,677.44L194.53,647.29L194.53,647.29L209.87,645.06L214.55,649.89L219.57,652.16L224.21,652.36L230.19,656.41L240.08,660.08L247.06,667.84L246.58,672.96L254.32,674.88L255.81,669.63L267.9,669.63L271.87,661.57L274.11,662.01L274.45,660.03L281.14,654.62L280.62,652.45L284.73,646.42L287.88,645.11L292.09,645.98z"/>
		<path id="TD-ME" title="Mayo-Kébbi-Est" class="land" d="M74.57,616.29L84.01,610.63L91.95,610.49L93.91,617.8L98.97,623.65L113.12,630.66L123.06,632.74L126.36,632.02L127.89,634.92L126.94,653.9L130.04,658.96L130.04,658.96L132.15,660.37L133.34,667.56L127.37,678.19L119.07,685.33L116.68,685.64L113.19,682.7L109.06,683.12L104.76,692.95L100.02,697.04L93.09,707.1L93.09,707.1L79.55,700.01L77.24,696.1L76.83,691.13L74.21,688.35L74.6,685.36L70.58,683.59L60.97,684.97L59.97,671.41L59.97,671.41L65.13,672.69L72.28,669L77.82,670.79L79.32,669.31L83.13,670.76L84.25,669.22L93.76,672.27L105.65,669.77L96.21,663.31L91.78,656.94L87.8,654.22L84.49,646.33L79.94,643.07L80.36,637.84L76.29,630.16L77.37,625.95z"/>
		<path id="TD-MO" title="Mayo-Kébbi-Ouest" class="land" d="M50.17,668.84L59.97,671.41L59.97,671.41L60.97,684.97L70.58,683.59L74.6,685.36L74.21,688.35L76.83,691.13L77.24,696.1L79.55,700.01L93.09,707.1L93.09,707.1L94.05,714.27L94.05,714.27L91.47,715.61L90.03,728.78L86.21,733.44L85.99,742.09L85.99,742.09L84.72,742.66L84.72,742.66L82.89,735.9L78.08,732.9L72.41,732.7L72.36,730.53L68.7,728.94L68.09,726.38L61.19,725.84L49.54,715.64L48.75,712.78L43.37,707.73L43.61,703.32L40.34,699.56L37.14,698.37L26.22,686.06L27.01,681.7L33.15,674.65L35.18,669.55z"/>
		<path id="TD-ND" title="Ville de Ndjamena" class="land" d="M68.48,561.34L71.1,560.43L75.31,561.35L75.31,561.35L80.62,568.93L79.52,573.11L77.12,572.79L77.12,572.79L74.87,571.11L75.89,570.26L74.79,567.61L73.42,566.82L71.4,567.81L67.99,564.89z"/>
		<path id="TD-OD" title="Ouaddaï" class="land" d="M314.94,470.77L323.49,460.14L329.04,455.87L335.2,456.36L340.94,454.5L352.41,459.11L360.01,467.29L364.94,468.47L368.09,472.63L371.87,472.88L380.66,468.61L391.85,470.28L417.59,478.9L417.59,478.9L411.91,486.25L413.5,487.87L414.56,493.29L418.18,496.84L418.14,501.59L421.16,506.57L414.01,515.45L408.22,516.99L404.02,521.35L399.89,533.3L399.89,533.3L392.33,530.41L382.91,534.45L376.89,540.83L372.63,539.61L363.93,541.41L356.52,538.54L356.95,533.38L355.71,530.8L348.49,529.09L348.44,522.8L337.78,523.05L329.09,520.76L329.09,520.76L329.37,503.09L324.73,493.71L326.07,486.77L324.78,483.15L314.65,476.94z"/>
		<path id="TD-SA" title="Salamat" class="land" d="M307.48,570.34L308.2,574.22L312.5,573.16L312.88,570.97L326.46,570.58L364.51,589.75L364.36,594.31L405.14,586.65L408.53,588.88L415.36,590.04L429.8,620.98L429.8,620.98L414.83,626.75L411.12,625.79L405.67,627.61L401.88,627.04L399.57,628.51L397.46,630.68L397.47,636.73L396.03,638.05L394.84,637.48L394.07,644.54L396.63,649.18L394.34,652.3L394.58,654.49L392.11,655.63L391.72,657.87L385.43,658.1L378.18,669.45L376.05,670.8L371.92,669.51L365.28,679.08L361.23,679.94L361.23,682.14L359.53,681.24L359.98,683.24L358.23,683.4L359.71,684.24L359.47,686.13L358.2,686.28L359.2,687.33L357.45,687.54L357.46,689.87L356.31,689.72L355.72,691.92L353.78,692.02L351.52,696.49L350.13,695.87L348.34,697.9L343.85,698.04L341.78,701.1L342.46,701.91L337.24,700.99L332.73,709.8L326.47,711.36L316.82,709.67L311.27,712.62L311.27,712.62L296.72,670.88L293.47,665.82L295.43,664.37L295.15,661.53L297.25,656.17L294.52,655.11L297.77,640.67L297.77,640.67L298.88,634.43L297.97,626.89L299.4,625.05L297.35,620.7L287.07,618.43L259.49,604.73L258.15,597.65L259.49,587.23L266.8,587.37L268.38,591.69L274.45,589.85L280.47,579.32L279.13,573.16L286.4,566.31L291.9,568.25z"/>
		<path id="TD-SI" title="Sila" class="land" d="M329.09,520.76L337.78,523.05L348.44,522.8L348.49,529.09L355.71,530.8L356.95,533.38L356.52,538.54L363.93,541.41L372.63,539.61L376.89,540.83L382.91,534.45L392.33,530.41L399.89,533.3L399.89,533.3L401.16,537.3L404.76,541.39L414.09,539.91L416.9,537.91L417.03,535.8L429.48,541.94L425.34,551.22L427.74,553.44L430.81,563.43L430.93,568.38L429.43,571L438.12,569.96L434.09,587.13L434.63,590.69L439.23,595.79L443.63,597.74L445.29,601.23L452.76,600.55L454.71,611.09L449.7,624.09L436.84,620.89L429.8,620.98L429.8,620.98L415.36,590.04L408.53,588.88L405.14,586.65L364.36,594.31L364.51,589.75L326.46,570.58L312.88,570.97L312.5,573.16L308.2,574.22L307.48,570.34L307.48,570.34L306.67,568.45L312.02,553.57L315.89,548.27L319.33,546.47L317.42,542.43L320.29,536.93L323.64,535.13L322.97,533.38L314.12,526.8L314.12,526.8L327.79,523.58z"/>
		<path id="TD-TA" title="Tandjilé" class="land" d="M130.04,658.96L143.86,659.4L148.69,656.27L150.55,657.76L150.36,660.8L152.41,665.63L156.05,666.49L157.86,668.57L163.65,669.53L165.8,671.7L176.41,672.91L177.56,675.27L180.81,676.76L186.78,677.44L186.78,677.44L196.82,684.81L195.05,688.47L195.05,688.47L191.71,686.35L178.56,689.48L180.86,693.53L179.47,694.59L179.47,699.35L172.16,704.65L179.18,709.22L174.98,713.45L174.98,713.45L167.9,714.8L157.67,713.79L146.73,709.84L141.18,711.53L141.18,711.53L141.18,711.53L141.18,711.53L138.17,705.42L131,709.79L128.27,713.4L120.01,711L117.38,714.27L112.12,715.32L104.14,714.27L100.36,716.09L94.05,714.27L94.05,714.27L93.09,707.1L93.09,707.1L100.02,697.04L104.76,692.95L109.06,683.12L113.19,682.7L116.68,685.64L119.07,685.33L127.37,678.19L133.34,667.56L132.15,660.37z"/>
		<path id="TD-TI" title="Tibesti" class="land" d="M72.77,23.2L120.68,0L267.56,74.81L267.56,74.81L260.21,78.01L260.16,80.63L253.76,89.48L252.23,105.93L245.92,110.78L240.46,117.31L234.34,120.22L224.78,121.44L219.2,124.49L214.42,132.43L207.06,138.98L207.58,145.69L211.31,149.49L214.13,158.07L212.41,163.64L215.28,176.39L212.69,181.15L209.92,182.67L204.37,176.3L203.18,172.35L194.43,164L193.52,157.11L196.92,153.56L196.92,150.77L191.61,147.52L189.7,148.43L187.98,151.78L187.17,159.59L180.09,173.86L97.52,323.12L97.52,323.12L101.35,240.42L108.62,181.06L120.56,158.91L101.18,137.29L99.08,131.9L102.87,127.69L86.76,103.78L82.45,100.77L82.14,75.26z"/>
		<path id="TD-WF" title="Wadi Fira" class="land" d="M351.84,389.06L366.18,379.64L376.93,383.44L395.43,378.3L406.19,380.48L413.55,378.1L423.06,381.91L427.36,380.43L432.62,381.86L433.82,385.71L436.35,386.45L445.72,384.23L450.59,386.35L454.99,385.27L461.66,390.72L461.66,390.72L451.84,399.11L452.04,402.82L455.23,406.11L455.36,414.05L452.11,417.56L452.51,420.43L449.19,421.63L443.75,427.09L443.76,430.5L439.82,432.66L442.02,440.89L427.23,445.58L425.94,449.95L428.97,451.14L429.65,458.67L428.04,460.47L430.48,463.42L434.25,463.53L435.12,466.16L433.21,468.98L423.26,474.25L417.59,478.9L417.59,478.9L391.85,470.28L380.66,468.61L371.87,472.88L368.09,472.63L364.94,468.47L360.01,467.29L352.41,459.11L340.94,454.5L335.2,456.36L329.04,455.87L323.49,460.14L314.94,470.77L314.94,470.77L314.03,389.17L314.03,389.17L327.22,395.33L335.73,393.46L340.75,395.28z"/>
	</g>
</svg>