<?xml version="1.0" encoding="utf-8"?>
<!-- (c) ammap.com | SVG map of Chile -->
<svg xmlns="http://www.w3.org/2000/svg" xmlns:amcharts="http://amcharts.com/ammap" xmlns:xlink="http://www.w3.org/1999/xlink" version="1.1">
	<defs>
		<style type="text/css">
			.land
			{
				fill: #CCCCCC;
				fill-opacity: 1;
				stroke:white;
				stroke-opacity: 1;
				stroke-width:0.5;
			}
		</style>

		<amcharts:ammap projection="mercator" leftLongitude="-109.450502" topLatitude="-17.498982" rightLongitude="-66.428316" bottomLatitude="-55.906121"></amcharts:ammap>

		<!-- All areas are listed in the line below. You can use this list in your script. -->
		<!--{id:"CL-AI"},{id:"CL-MA"},{id:"CL-TA"},{id:"CL-AN"},{id:"CL-AT"},{id:"CL-CO"},{id:"CL-RM"},{id:"CL-VS"},{id:"CL-AR"},{id:"CL-BI"},{id:"CL-LI"},{id:"CL-LL"},{id:"CL-ML"},{id:"CL-AP"},{id:"CL-LR"}-->

	</defs>
	<g>
		<path id="CL-AI" title="Aisén del General Carlos Ibáñez del Campo" class="land" 
d="M520.19,472.64l0.53,-1.41l-1.56,0.2l-1.42,-0.67l-2.57,-2.53l-2,0.82l-1.02,-0.16l-0.32,-0.69l0.21,-1.04l1.5,-0.26l0.51,-0.81l-1.4,-2.34l0.41,-1.27l3.31,-0.47l5.35,-3.82l2.17,-5.59l0.09,-1.87l-1.91,1.54l-2.63,-2.17v-0.56l-3.27,-1.09l-1.78,-1.7l0.04,-1.25l2.03,-1.8l1.7,-4.21l2.44,-0.64l-0.09,-0.54l0,0l4.88,0.95l1.75,-2.44l0.68,0.27l1.16,2.65l1.84,1.08l0.37,1.3l1.99,-0.22l0.2,-0.79l2,-0.98l1.55,0.48l0,0l0.73,1.4l-2.44,4.42l0.3,3.29l-0.8,0.87l1.06,0.71l5.37,-0.15l2.92,0.59l1.24,2.09l-1.16,1.13l-0.51,3.09l-0.74,1.03l-1.31,-0.04l-1.73,-1.05l-2.3,0.78l-1.67,-0.55l-0.99,0.74l-2.93,-0.77l-0.49,0.66l0.21,2.29l6.89,1.48l3.6,5.14l0.44,1.49l-2.4,3.48l-4.03,1.64l-0.59,3.46l0.55,2.44l1.48,0.7l0.64,1.9l-2.3,2.86l-1.93,0.66l2.21,2.01l1.05,8.99l-2,2.11l-1.79,0.63l-0.53,4.53l1.62,2.19l-0.08,1.65l-2.13,1.23l-2.02,2.8l-1.38,0l-1.33,0.81l-0.13,0.59l0.73,0.57l-0.3,1.9l-2.92,6.74l0.29,0.96l2.75,2.49l0.43,5.74l-4.32,2.68l0.49,7l-2.76,2.77l-3.23,1.09l-1.35,1.93l-1.28,4.01l0,0l-12.76,-11l0,0l-1.51,-0.79l-2.04,0.44l-1.19,-2.48l2.79,-2.9l2.2,1.52l0.36,-2.87l-3.01,-1.32l1.61,-0.68l-2.07,-0.79l-3.2,-3.23l-2.24,-1.15l0.21,-1.62l1.5,-0.92l2.52,1.39l1.03,3.54l0.88,0.91l0.43,-0.13l-2.04,-4.69l3.58,-0.2l1.61,1.1l2.71,-0.38l2.54,2.29l0.57,2.3l0.87,-1.49l2.03,0.46l0.92,-0.92l0.16,-1.29l-0.19,-0.47l-0.11,1.14l-1.13,0.91l-1.59,-0.96l-2.26,-2.92l-0.13,-1.61l1.19,0l1.17,1.61l3.72,0.38l-1.6,-0.84l-1.9,0.05l-3.42,-3.93l-0.34,-1.62l1.13,-1.48l-0.97,-2.14l-0.65,1.34l0.63,0.87l-0.61,3.16l-2.32,1.28l-1.42,-0.38l-0.36,-0.89l-4.67,-0.85l-3.28,0.53l-1.74,-1.27l1.95,-2.96l0.91,-0.47l1.62,0.28l2.19,3.76l1.38,0.18l-1.12,-0.21l-0.62,-1.21l0.59,-1.01l2.99,-0.27l-0.22,-1.69l-1.5,1.04l-1.95,0.29l-3.17,-3.55l2.97,-4.49l2.09,-0.12l0.96,2.79l-0.38,-2.78l2.75,-3.75l-1.41,-1.23l-1.43,0.23l-1.55,-2.39l-0.27,-1.74l-1.05,-0.44l-3.97,0.4l-0.05,1.17l2.63,0.36l-0.95,0.9l-7.18,-3.13l-0.99,-2.54l1.96,-2.46l-0.07,-1.38l-1.94,2.71l-1.52,1.09l-3.46,0.48l-2.36,1.1l-0.49,1.64l2.26,-1.65l0.77,0.26l1.1,3.39l-2.07,1.6l-1.13,-0.29l-2.03,-3.07l0.08,-3.29l0.89,-1.33l1.09,0.04l2.43,-1.91l-0.1,-0.72l0.98,-1.07l0.95,-0.51l0.67,0.84l0.28,-2.23l1.58,-1.74l1.87,0l1.92,-2.1l2.09,-5.83l4.36,-0.7l0.75,0.88l2.27,-0.75l0.64,0.75l0.75,2.25l-0.6,2.74l-0.87,1.17l1.21,-0.79l0.3,-2.34l1.11,1.09l0.06,1.03l-1.46,1.9l-3.36,1.39l-2.46,-1.34l2.16,1.67l4.07,-1.38l0.59,1.89l2.01,1.18l-2.19,-2.75l0.81,-1.44l0.97,-0.09l1.85,2.1l-0.65,2.98l-2.64,3.55l1.7,0.91l6.39,-10.87l-3.73,4.93l0.96,-4.73l-0.64,-2.12l1.74,-3.47l2.17,-2.35l2.93,-0.53l-1.95,-0.66l-1.16,0.26l-2.52,2.63l0.93,-6.54l4.26,-3.11l2.85,2.97L520.19,472.64zM520.26,457.88l-3.77,3.47l-2.02,0.59l-1.87,-2.35l1.5,-0.69l1.36,0.22l-1.31,-0.74l-1.28,0.56l-1.05,-2.89l0.68,-1l1.99,-0.33l0.68,-3.23l3.26,-0.99l3.25,2.05l0.73,1.29l-1.43,2.1l-2.27,-0.65l2.02,1.33L520.26,457.88zM487.11,539.87l-0.52,0.22l-0.64,-1.54l-0.53,-3.07l0.35,-1.25l-1.44,-0.86l-1.46,0.62l-0.83,-0.42l0.31,-0.73l2.03,-0.66l0.64,-0.92l-2.73,0.57l-0.68,-4.87l1.09,-1.31l2.07,-0.58l4,10.69l0.06,2.24L487.11,539.87zM495.33,539.71l-1.74,-1.25l-3.56,-0.68l-0.51,-1.95l1.56,-2.11l1.11,-0.07l1.22,1.85l0.68,-0.84l-1.46,-2.66l1.06,-4.42l0.85,3.74l1.3,2.32l-0.13,3.58l0.7,0.95l0.26,-0.79l0.63,0.28l-0.29,1.47L495.33,539.71zM489.6,534.4l-2.41,-4.6l-0.84,-3.34l3.06,0.55l3.34,1.79l-0.49,3.87L489.6,534.4zM508.01,468.84l-1.4,-0.91l-2.4,0.06l-1.59,-1.88l-1.63,0.42l-0.2,-1.89l0.89,-0.93l4.69,-0.53l2.04,2.63L508.01,468.84zM499.67,524.6l-2.56,-1.48l2.91,-2.31l5.19,1.69l1.2,-0.5l0.56,0.41l-0.29,1.33l-0.73,0.34l-3.36,-0.3L499.67,524.6zM500.45,459.27l-1.58,-1.08l-0.36,-2.5l2.16,-0.55l3.52,0.14l1.71,1.41L500.45,459.27zM488.95,485.34l-0.35,-1.29l2.04,-0.5l-0.46,-0.53l-1.14,0.13l-0.56,-2.33l0.54,-0.28l1.73,0.81l3.16,-2.02l-1.15,4.67l-1.75,1.59L488.95,485.34zM481.36,539.64l2.33,-1.55l-1.32,0.49l-1.64,-0.45l0.4,-3.69l4,-0.23l0.29,3.56l-2.51,1.98L481.36,539.64zM497.67,478.85l-0.56,-1l0.69,-0.98l-0.25,-2.89l1.02,-1.92l1.7,1.01l0.93,2.87l-0.38,0.92L497.67,478.85zM491.57,526.43l-2.02,-0.74l0.1,-0.67l-0.67,-0.33l-1.43,1.02l-1.34,-0.13l1.22,-1.52l1.87,-0.5l3.09,-2.69l0.33,4.88L491.57,526.43zM509.13,478.48l-1.84,-1.84l-0.04,-2.8l1.44,-1.81l1.44,0.58L509.13,478.48zM500.25,463.74l-1.19,-0.29l0.13,-0.69l2.61,-2.3l2.82,0.68l0.82,1.09L500.25,463.74zM507.81,457.99l-1.09,-1.27l-0.05,-1.9l1.89,-0.82l1.44,3.36L507.81,457.99zM504.29,442.06l-2.45,-1.12l0.17,-1.23l3.38,-0.4l0.79,-0.7l1.37,2.46l-1.28,0.11l-0.36,-0.98l-1.21,0.15l0.49,1.06L504.29,442.06zM504.18,470.3l-1.89,-0.68l-0.15,-1.89l1.09,-0.4l0.8,1.06l2.55,0.02l0.53,0.58l-0.12,1.16L504.18,470.3zM496.71,532.17l-1.05,-2.23l0.47,-2.44l2.84,2.92L496.71,532.17zM507.42,487.68l-2.3,-2.87l0.36,-1.08l1.14,-0.06l2.07,1.25L507.42,487.68zM498.48,454.15l-1.58,-0.38l-0.42,-1.38l3.23,-1.3l0.71,0.24l0.64,1.33l-2.74,0.73L498.48,454.15zM504.38,477.74l-1.06,-0.31l-0.71,-1.87l1.17,-1.59l1.88,1.6l-0.4,1.71L504.38,477.74zM481.25,541.96l-0.52,-0.35l0.02,-1.62l1.91,0.44l2.35,-1.94l0.67,0.47l0.28,1.13l-0.52,0.62L481.25,541.96zM502.21,474.8l1.13,-3.17l2.41,1.01l1.01,-0.25l-0.63,2.16l-2.58,-1.01L502.21,474.8zM501.76,507.58l-0.83,-1.21l0.61,-1.86l2.17,-0.08l0.81,0.63l-1.48,1.99L501.76,507.58zM506.4,462.27l-1.22,-1.49l-0.1,-1.48l0.73,-0.75l0.74,0.32l0.9,2.31l-0.11,1.07L506.4,462.27zM500.31,534.9l-3.11,-2.43l2.08,-1.52l0.7,0.29l-0.22,1.22l1.34,1.71L500.31,534.9zM494.21,477.89l0.46,-2.32l1.66,-0.83l-0.4,3.33l-0.63,0.33L494.21,477.89zM505.49,483.13l-0.53,-1.24l0.61,-1.12l2.5,-1.47l0.38,1.88l-1.47,-0.17l-0.72,1.84L505.49,483.13zM487.36,521.51l-0.1,-0.76l-1.58,-0.63l2.3,-1.56l1.12,1.92l-0.6,1.02l-1.4,0.42L487.36,521.51zM503.86,481.69l-1.17,-2.69l1.01,-1.02l0.98,0.35l0.04,0.69l-0.11,1.81L503.86,481.69zM498.71,460.32l-1.14,-0.6l-0.75,-1.92l1.28,-0.25l1.62,2.32L498.71,460.32zM498.67,471.12l-1.7,-1.13l-0.02,-1.04l1.88,0.09l0.95,1.97L498.67,471.12zM503.55,454.29l-1.2,-0.51v-1.67l2.44,0.73l0.15,1.21L503.55,454.29zM516.06,443.82l-1.76,-1.29l0.46,-1.08l1.22,-0.56l0.49,0.66L516.06,443.82zM504.09,449.81l-1.21,-0.92l-0.46,-1.71l0.87,-0.96l1.6,1.76l-0.82,0.3L504.09,449.81zM509.08,445.96l-1.41,-2.77l0.38,-1.14l1.34,1.4l0.31,1.38L509.08,445.96zM498.01,536.13l-0.84,-2.72l2.74,1.72L498.01,536.13zM499.41,469.12l-1.19,-1.17l0.4,-1.72l1.71,1.16l-0.43,1.77L499.41,469.12zM497.55,457.11l-2.31,-0.02l-0.64,-0.59l0.87,-0.93l0.85,0.03l1.3,0.37L497.55,457.11zM497.57,507.29l-0.23,-1.64l2.28,-0.5l-0.17,1.06L497.57,507.29zM488.75,461.66l-0.92,-1.97l0.82,-1.05l0.99,1.43V461L488.75,461.66zM504.66,451.84l-1.48,-0.79l-0.5,-1.35l2.49,0.6l0.07,1.63L504.66,451.84zM499.56,454.76l-0.62,-0.9l1.09,-0.66l1.42,-0.12l0.76,1.07L499.56,454.76zM503.25,535.4l-1.63,-1.03l-0.89,-1.52l1.01,-0.03l1.55,1.09L503.25,535.4zM508.62,483.96l-1.98,-0.92l0.9,-1.78l0.79,0.56L508.62,483.96zM508.57,459.86l-0.77,-0.53l-0.01,-1.09l1.8,-0.41l0.02,1.85L508.57,459.86zM506.09,447.18l-1.58,-0.36l-0.48,-0.72l1.37,-0.86l1.24,1.22L506.09,447.18zM503.59,460.29l-2.03,-0.86l3.12,-0.74l0.03,1.04L503.59,460.29zM490.01,520.42l-0.79,-0.66l-0.18,-1.37l1.49,0.25l0.72,0.94l-0.07,0.54L490.01,520.42zM493.01,456.88l-0.56,-1.18l0.25,-1.56l1.15,0.94l-0.22,1.48L493.01,456.88zM505.32,471.86l-1.39,-0.44l0,-0.46l2.76,-0.29l0.01,0.66L505.32,471.86zM506.24,449.93l-1.41,-0.27l-0.25,-0.88l2.44,-0.14l0.08,1.03L506.24,449.93zM517.82,438.01l1.33,-0.57l1.14,0.73l0,0L517.82,438.01z"/>
		<path id="CL-MA" title="Magallanes y Antártica Chilena" class="land" 
d="M515.79,615.45l-0.8,-0.17l-0.49,-1.25l-0.64,-7.05L513,605.7l1.46,10.47l-0.55,1.04l-3.53,-2.99l-1.2,-4.75l0.71,-0.44l2.38,4.8l0.46,-0.16l-2.66,-6l1.64,-1.42l-2.06,0.59l-1.2,1.59l-1.29,-3.33l-1.63,-0.49l0.01,-5.59l1.3,0.41l1.46,1.68l1.5,3.63l-2.48,-9.27l0.57,-0.39l0.68,1.49l-0.29,-2.49l-0.67,-0.14l-2.02,2.02l-2.61,-0.76l-0.64,-0.51l-0.34,-2.55l-1.19,-0.89l-0.16,-2.41l0.96,-1.04l3.86,-0.24l0.81,1.03l1.42,-5.72l1.68,-0.38l1.43,1.55l0.43,-0.99l-2.14,-1.19l-0.99,-1.59l1.7,-1.27l0.45,-1.88l-2.87,3.1l-0.7,4.93l-1.77,1.61l-1.37,-0.16l-1.08,-1.27l-2.41,-6.51l1.07,-0.37l2.74,1.55l1.85,0.3l-3.26,-2.4l-2.44,-0.22l-5.65,-4.94l0.26,-1.23l1.2,-1.08l3.37,-0.3l2.06,2.86l3.42,1.56l1.37,0.02l-4.4,-1.92l-2.76,-4.65l0.48,-1.42l0.98,0.13l2.05,1.74l3.33,1.38l-0.14,-1.28l-6.04,-3.29l-0.34,-1.47l2.21,-1.11l1.71,-0.09l0.14,-0.68l-3.35,0.52l-0.32,-2.55l1.11,-1.13l2.21,-0.74l1.99,0.48l0.95,2.37l1.87,1.36l0.37,1.3l0.16,-0.7l-0.64,-1.83l-1.35,-0.36l-0.31,-2.75l-3.37,-1.07l0.6,-4.8l2.15,1.84l0.99,-0.01l-1.35,-0.68l-0.8,-1.32l-0.43,-3.5l1.22,-1.47l1.63,0.63l-0.04,-0.48l-0.88,-0.47l-2.14,0.24l0.02,2.85l-1.54,3.6l-0.94,4.65l-2.25,-2.29l-0.31,-10.07l-0.77,-3.18l1.02,-1.9l1.01,0.55l1.34,-0.67l2.1,0.47l0,0l12.76,11l0,0l1.15,0.32l-0.7,0.8l-4.67,0.16l-1.67,5l0.95,1.41l0.98,4.07l-1.17,1.36l-0.36,1.94l1.2,1.35l-0.94,2.62l2.9,2.87l0.78,1.75l0.69,6.01l1.31,3.85l1.69,-0.46l1.59,-1.84l1.99,-1.05l1.8,1.15l2.11,-1.54l1.72,0.25l1.09,0.86l-0.64,1.76l1.37,2.76l-0.33,3.51l-0.97,0.53l-0.87,1.67l0.27,1.15l1.8,1.79l-0.88,1.67l-0.51,3.94l-0.75,0.66l1.58,4.17l2.19,1l2.5,2.63l0.7,3.25l27.2,0.01l7.64,3.4l3.24,-0.01l5.76,3.16l5.59,1.14l-0.08,1.14l-0.96,-1.23l-6.17,-0.82l-2.98,-1.91l-1.66,0.02l-2.87,1.41l-0.3,2.66l-2.63,3.38l-1.93,-0.65l-1.47,0.33l-8.29,4.43l-4.48,0.66l-0.45,3.43l0.44,2.7l-1.91,4.59l-0.66,4.74l0.81,5.11l-0.57,3.82l-1,1.5l-3.38,1.52l-2.39,-1.22l-3.5,-0.6l-2.2,-1.63l-3.72,-1.32l-2.46,-2.56l-2.33,-4.21l0.42,-2.02l1.98,-1.76l2.44,0.3l0.25,3.09l-1.89,1.14l1.74,-0.14l1.32,-0.93l-0.03,-3.53l2.1,-0.45l1.15,4.91l-0.89,1.25l-2.22,1.3l-0.01,0.69l2.97,-1.26l0.6,-1.2l0.23,-5.88l5.84,-2.73l2.85,-4.98l-0.54,-1.84l-2.61,-0.46l-3.62,1.98l-4.19,2.91l-1.72,2.96l-1.22,0.2l-1.65,-2.03l-1.17,-0.41l-3.04,0.78l-0.4,0.47l2.58,-0.14l2.49,2.51l-2.16,1.05l-2.04,-0.92l-0.69,0.36l0.36,0.62l1.26,0.47l-1.4,2.75l-1.19,-0.05l-0.67,-0.89l1.31,2.3l0.8,-0.44l1.45,2.22l-0.04,1.03l-1.52,0.23l-7.99,-6.28l-1.08,-0.3l-2.2,-2.67l5.05,0.08l2.7,3.16l0.62,-0.08l0.23,-1.24l-1.39,-1.37l0.49,-0.98l1.45,0.15l-1.65,-0.67l-1.13,0.66l-1.23,-1.07l0.84,-1.75l-1.02,-2.18l-0.12,-1.85l3.4,-2.62l1.94,1.19l2.3,0.38l3.57,-3.89l2.33,-0.34l1.6,1.15l1.47,0.21l2,-0.17l2.5,-1.17l-0.98,-1.74l-8.35,-1.08l-2.57,0.21l-1.55,3.12l-1.79,-1.52l0.68,-1l1.48,-0.6l-0.3,-0.4l-1.83,0.76l-3.48,0.13l-1.55,1.93l1.27,-0.39l1.83,0.7l0.04,0.54l-1.72,2.23l-2.16,1.11l-0.78,1.16l0.83,3.03l-0.47,1.93l-3.17,0.98l-1.64,-0.69l-1.86,-1.77l3.05,-2.64l-1.74,-0.25l-2.83,-1.81l0.72,-0.58l1.67,0.5l2.23,-0.27l-0.35,-1.62l2.21,-4.93l0.6,-0.34l2.4,0.57l-1.74,-0.84l-1.94,0.19l-0.29,2.09l-1.36,2.12l-0.88,-0.21l-0.53,-1.72l-2.76,2.36l-0.75,1.35l-1.17,-0.56l0.15,-2.87l1.89,-1.33l-0.68,-0.22l-0.97,-2.57l0.24,-1.14l0.83,0.18l0.37,-1.23l-0.26,-2.17l-1.98,-3.19l-0.12,-1.38l0.77,0.08l1.92,3.5l1.11,-0.47l2.03,1.19l1.16,-0.45l1.08,-2.14l2.54,-0.95l-0.01,2.7l1.71,1.77l1.16,-4.67l-1.29,3.26l-0.95,-0.69l-0.01,-1.98l1.17,-2.97l0.85,-0.44l1.53,1.13l-0.06,1.31l2.33,3.57l-0.59,2.81l-5.02,3.02l0.42,0.16l4.53,-1.96l1.28,-1.33l0.33,-2.62l-2.58,-3.53l-0.25,-1.98l0.46,-0.43l1.64,0.26l0.88,-0.87l-0.71,-4.4l-2.93,-3.3l-2.9,-0.88l-2.84,-2.33l-1.79,0.45l-0.2,0.86l1.47,-0.28l2.49,1.05l3.83,3.65l2.26,1.03l-1.09,2.12l-1.33,0.12l-1.35,-1.44l-6.68,-3.69l0.81,2.2l1.91,0.14l1.35,1.54l-0.88,1.48l-1.87,0.66l1.71,-0.25l1.4,-1.04l0.64,0.95l-3.03,1.83L515.79,615.45zM580.49,679.66l-0.1,2.47l-3.51,-2.11l2.01,2.41l-0.77,0.63l-3.76,0.61l-8.34,-3.19l0.37,-3.09l-1.24,0.78l-0.37,2l-7.67,1.11l-0.61,-1.53l1.17,-2.51l-1.77,3.06l-3.75,-0.17l-1.92,0.84l-1.04,-0.68l0.68,-0.87l3.55,-1.88l1.06,-1.87l-1.33,0.08l-0.95,1.05l0.48,0.66l-2.97,1.15l-1.38,-0.06l-0.32,-0.77l2.1,-0.67l-1.4,0.06l-2.37,2.25l0.94,-3.87l-0.62,-0.14l-0.63,1.2l-1.74,0.98l-1.31,-0.58l-0.42,-0.62l0.53,-1.87l-1.01,-1.36l-0.95,0.79l-1.17,3.34l-2.81,-2.08l-1.98,1.17l-1.85,-0.02l-0.71,-2.13l0.38,-2.77l2.14,2.29l2.12,0.74l1.33,-0.69l-1.65,-1.92l-1.85,-0.26l-0.29,-1.01l0.81,-0.47l0.83,0.02l1.39,2.34l1,0.42l1.09,-0.66l-1.48,-0.65l-0.15,-1.27l2.19,0.86l1.01,-0.47l-0.67,-0.4l0.81,-0.78l5.69,2.4l0.44,-3.11l1.78,-0.59l2.81,0.64l-1.4,2.65l-0.59,3.4l0.49,-0.58l1.08,0.95l-0.9,-1.99l1.67,-3.31l4.31,4.22l2.17,-0.53l-4.44,-2.88l-1.41,-3.23l-4.28,-0.8l-1.02,-2.88l0.54,-0.17l7.62,4.53l2.92,2.61l1.03,-1.37l-1.44,-0.51l-0.43,-0.89l2.04,-1.57l1.17,1.17l2.83,6.32l0.46,-1.9l-2.03,-4.03l0.36,-0.73l8.59,3.84l0.35,0.97l-2.67,3.58l0.6,1.48l1.37,-3.53l0.91,-0.35l0.55,1.29l0.4,-0.66l-0.08,-2.45l2.27,0.34l0.02,-0.89l-1.34,-0.97l-13.63,-7.09l-1.88,-6.33l0.46,-2.27l3.24,-2.09l2.14,-0.24l5.89,-3.33l-0.1,-3.83l-2.99,-0.49l-4.57,0.65l-4.63,2.89l-3.26,-2.51l-0.49,-2.08l0.52,-6.33l1.28,-1.58l0.22,2.25l2.12,-0.57l1.28,-2.57l-0.17,-0.63l-1.48,-0.26l-1.08,-1.98l-1.8,-0.14l0.25,-0.69l3.63,-0.7l1.96,2.47l1.28,0.01l3.03,-2.13l1.42,-2.64l-0.06,-2.18l2.73,-1.62l3.78,5.25l2.61,-0.88l2.23,-1.65l2.76,1.52L580.49,679.66zM493.34,569.41l-1.53,-1l0.4,-0.77l1.7,-1.17l0.8,0.55l-1.05,-1l-2.07,1.24l-0.48,-5.98l0.5,-3.26l3.26,-3.85l-4.15,3.98l-0.33,-1.34l-0.5,0.64l0,2.56l0.6,1.07l-0.75,4.89l-1.81,-1.11l-2.17,-4.74l0.07,-2.83l-1.09,-1.51l-0.94,0.49l-0.44,-3.07l1.16,-0.74l1.42,3l1.66,1.81l-2.18,-4.11l0.05,-1.04l0.67,-0.17l1.52,1.8l1.36,-2.07l-0.33,-0.9l2.45,2.86l1.29,-5.22l-2.03,-2.31l-1.3,-3.2l0.17,-0.95l1.03,-0.78l3.34,-1.71l2.85,0.68l0.25,0.88l1.14,11.98l-1.12,5.08l0.33,0.98l-1.37,2.93l0.94,-0.96l-0.02,-0.89l0.89,-0.19l0.76,2.49l-0.92,4.6l-2.12,2.19L493.34,569.41zM581.48,692.68l-1.55,-1.53l-0.92,0.4l1.99,2.14l2.7,-0.61l3.53,1.67l-0.08,1.72l1.45,0.09l-0.59,1.32l0.88,1.48l1.12,0.27l-0.17,2.01l-1.24,1.17l-2.23,-2.46l-0.39,-2.16l-1.56,-1.32l-1.59,0.56l-0.96,-0.87l-2.7,-0.04l-1.71,1.04l-1.27,-1.25l-0.41,-0.82l0.47,-0.71l2.15,-0.31l0.2,-1.26l-1.82,0.65l-0.21,-0.48l1.42,-3.79l-3.14,1.97l-2.36,-1.11l-0.71,-2.17l-2.53,0.7l1.88,0.03l0.4,1.49l-1.51,0.57l-0.22,1.03l1.22,1.89l0.04,1.53l2.24,0.36l-0.37,1.75l-2.21,-0.57l-1.47,0.28l-0.93,-2.18l1.39,-1.29l-1.4,-0.59l-1.14,1l-0.55,-1.07l-1.29,-0.59l0.51,-1.61l2.29,-1.69l-5,2.03l-0.88,-0.85l1.09,-0.39l-0.87,-0.94l-1.82,-0.34l1.94,-2.24l9.98,-1.96l5.15,-0.16l1.33,-0.85l3.23,-0.43l1.51,0.6l1.12,2.19l-0.17,0.65l-3.52,1.89l-2.6,-0.26l-3.58,-2.72l-0.57,0.6l4.03,3.14l5.63,0.22l2.45,2.07l-0.08,0.48L581.48,692.68zM514.02,656.32l0.7,-0.49l0.14,-2.31l-4.65,0.97l1.33,-1.09l-0.13,-0.97l-1.42,-0.03l-0.3,-1.27l0.44,-0.73l1.28,0.23l1.07,-0.65l2.32,2.3l4.26,0.17l-0.02,-0.63l-1.7,0.37l-2.86,-0.75l-2.06,-3.75l4.53,1.02l-0.98,-2.12l1.38,-0.46l2.33,0.64l0.5,5.95l0.96,-3.27l-0.73,-1.8l1.04,0.38l1.61,2.93l1.22,-0.98l2.1,0.62l0.49,1.62l-1.11,0.59l0.6,1.6l1,-1.34l1.9,0.89l1.36,1.77l-1.48,1.72l-1.5,-0.29l-0.92,0.79l0.02,1.72l1.31,0.64l-0.06,1.12l-1.46,0.15l-1.5,1.3l-1.26,-0.87l-2.83,1.7l-2.88,-1.36l3.55,-1.53l0.7,-4.14l-1.05,-0.56l-1.75,1.27l-1.25,-0.08l-0.66,-1.39l-1.04,4.77l-1.29,-0.59L514.02,656.32zM588.59,682.59l9.06,0.27l2.93,0.8l2.39,3l-0.54,3.08l-2,2.69l-0.76,0.19l-2.16,-0.73l0.24,-1.78l-1.48,-1l-1.21,0.43l-0.56,1.98l-3.28,-0.65l0.4,-0.28l-0.45,-1.21l-3.24,1.26l-0.57,-0.63l-0.79,-5.43l-1.58,0.14l-0.62,-1.4L588.59,682.59zM513.18,642.96l1.12,-0.13l2.66,1.84l0.01,0.61l-5.52,-0.91l-0.22,-0.93l-5.52,-5.34l-2.48,1.01l-3.67,-0.32l-1.4,-2.7l-2.32,-1.14l-0.13,-2.43l-2.1,-1.62l0.6,-0.91l0.84,0.43l4.01,4.95l1.58,0.36l1.72,-0.66l5.86,3.34l1.59,-0.25l0.7,0.99l-0.22,1.89l0.68,1.66l0.76,-0.86l-0.43,-1.8l0.38,-0.27l2.23,2.21L513.18,642.96zM542.86,660.77l0.34,1.51l1.15,0.25l1.27,-0.56l1.1,0.96l0.32,4.06l-1.89,2.82l-3.2,-1.79l-1.36,-2.55l0.04,-0.81l0.93,-0.5l-0.55,-0.9l-1.17,0.97l-0.66,2.4l-1.69,-0.51l-0.45,-1.26l0.79,-1.81l-0.36,-2.8l0.7,-1.09l2.03,-0.09L542.86,660.77zM553.63,665.98l-2.45,-1.11l-1.74,-1.68l-0.84,-1.56l-0.27,-4.09l1.58,-1.06l2.36,0.69l0.06,-0.97l-1.2,-0.96l-0.06,-2.24l1.39,-0.99l0.77,-1.9l0.88,-0.3l0.01,3.92l2.04,6.89l-0.35,0.7l-1.48,-0.07l-2.73,-2.85l0.08,1.38l1.76,3.73L553.63,665.98zM537.32,659.09l-0.71,0.74l0.92,2.97l-1.09,1.56l-1.26,-0.42l-1.5,-3.31l-0.38,0.36l0.54,2.34l2.45,2.72l-1.26,2.51l-1.57,-0.18l-0.07,-1.81l-3.86,-4.17l-0.49,-3.73l0.9,-0.1l1.84,1.06l0.97,-2.44l0.66,-0.32l4.11,1.66L537.32,659.09zM489.18,574.81l-2.54,3.14l-1.19,-0.14l-0.06,-0.54l1.49,-2.29l-3.45,1.21l1.21,-4.73l1.65,0.37l-1.21,0.63l0.33,0.75l2.49,0.48l-0.21,-1.78l-3.18,-1.96l-0.25,-0.8l1.16,-0.92l2.67,0.67l1.87,2.28l-1.01,1.17l2.95,-0.53L492,571l0.8,-0.02l-0.14,1.92L489.18,574.81zM493.94,593.01l-2.34,-1.12l-1.13,-2.54l0.62,-1.48l3.27,0.83l1.07,-0.59l0.04,-2.21l-1.01,-1.15l0.39,-0.42l3.53,2.33l0.55,4.35l-0.43,1.47l-1.08,-2.05l-1.78,1.03l-0.39,1.13L493.94,593.01zM556.1,682.38l0.54,0.2l-2.75,1.17l-0.11,1.05l-2.77,-0.11l-0.34,0.52l3.44,0.78l2.91,-0.28l0.31,1.99l-0.8,0.46l-1.29,-1.13l-0.53,0.97l0.98,0.57l-0.05,0.59l-2.1,0.97l-0.49,-0.57l0.21,-1.64l-0.81,-0.96l-1.32,1.11l-4.39,-2.06l0.29,-2.31l1.57,-0.34l4.2,0.85l-0.43,-0.73l1.44,-0.83L556.1,682.38zM501.21,587.15l-0.86,-1.48l-0.71,0.59l-2.78,-1.76l-0.8,-2.56l2.07,-2.07l-3.44,-1.07l1.49,-1.22l2.83,1.5l2.6,6.24L501.21,587.15zM562.42,685.95l0.09,-1l-0.75,-1.05l0.32,-1.55l1.13,-0.46l2.32,-0.23l7.36,2.25L562.42,685.95zM505.37,630.17l-2.29,-2.81l1.28,-2.01l3.55,-2.69l0.95,1.69l-0.82,2.91l-1.11,2.24L505.37,630.17zM490.12,601.28l-0.37,-0.82l3.21,-2.72l-1.99,1.07l-0.35,-1.15l2.27,-2.44l2.56,-0.38l1.1,1.96l-0.29,2.19l-1.06,0.77l-0.68,-1.8l-1.5,2.32L490.12,601.28zM485.3,585.82l-1.82,-0.67l-0.83,-2.31l1.23,-1.25l0.76,0.27l-0.36,-1.71l-0.9,-0.7l0.71,-0.93l4.59,0.82l-1.51,2.18l-1.11,-0.35l0.08,3.72L485.3,585.82zM487.41,566.08l-1.4,-1.54l0.23,1.3l-0.53,-0.03l-1.84,-2.69l-1.88,1.41l-0.62,-3.79l0.58,-0.77l2.89,-0.05l2.29,4.22L487.41,566.08zM490.4,616l-1.28,-3.4l1.47,-3.68l0.34,1.28l1.45,-0.49l-0.43,-2.76l-1.03,-1.78l0.92,-0.62l1.13,0.66l0.34,3.01l-1.69,6.11L490.4,616zM486.3,548.11l-0.92,-2.76l-2.53,1.99l-1.99,-1.56l0.25,-2.5l1.1,-0.37l3.45,0.62l1.43,3.53L486.3,548.11zM490.65,552.37l-1.33,-1.58l-2.74,-1.15l1.67,-2.79l2.06,0.13l1.16,1.18l-0.46,4.64L490.65,552.37zM485.55,604.88l-0.07,-2.12l1.2,-1.61l0.25,-3.69l1.18,-0.97l1.79,1.59l-0.01,1.62l-1.02,0.03l-1.1,3.85L485.55,604.88zM502.13,622.37l-1.17,-1.52l-0.1,-1.82l0.49,-0.47l1.34,0.52l-0.57,-1.25l-3.81,-1.17l1.46,-1.45l5.36,5.54l-0.61,0.78L502.13,622.37zM482.65,552.24l-2.02,-1.26l0.78,-1.55l1.23,-0.44l2.46,-2.89l0.81,2.35L482.65,552.24zM494.25,588.03l-3.39,-1.08l-0.29,-2.32l0.93,-1.36l0.99,-0.35l1.08,0.91l1.17,2.6L494.25,588.03zM501.87,612.19l-3,-1.42l-1.84,-4.1l1.84,0.62l4.03,3.16L501.87,612.19zM546,683.78l-2.06,-1.2l-1.92,1.19l-0.95,-0.27l-0.67,-1.49l0.75,-1.4l4.67,1.32l1.06,-0.58l1.18,1.71L546,683.78zM508.11,618.46l-2.11,-2.95l-3.41,-2.26l0.75,-2.13l4.12,3.7l1.17,3.19l-0.07,0.79L508.11,618.46zM503.87,608.72l-3.05,-2.25l0.09,-0.64l1.28,-0.13l0.74,-1.27l0,-1.72l2.33,5.04L503.87,608.72zM598.94,704.65l-0.11,-0.9l-2.93,-0.44l-0.06,-0.64l0.19,-1.22l2.45,-2.21l1.69,4.66L598.94,704.65zM491.81,616.54l-0.38,-0.58l2.03,-6.3l2.19,0.01l-2.4,5.53L491.81,616.54zM528.45,662.35l1.22,1.61l-1.33,2.62l-2.37,0.13l-0.61,-1.36l2.06,-2.99L528.45,662.35zM506.46,622.39l-1.06,-2.1l-2.43,-2.67l0.53,-1.07l3.86,3.14l0.36,2.2L506.46,622.39zM512.3,645.99l0.49,0.44l-1.01,1.37l1.01,1.65l-1.34,0.75l-4.42,-3.4l2.54,1.06l1.21,-0.46l-0.59,-0.6l0.2,-0.91L512.3,645.99zM487.03,546.23l-1.46,-4.2l1.78,0.51l1.45,1.41l0.17,1.75L487.03,546.23zM498.1,595.15l-1.9,-0.91l-0.62,-1.42l1.57,-1.75l1.52,2.39L498.1,595.15zM500.18,595.42l-0.84,-6.63l0.65,0.58l1.47,5.61l-1.01,1.11L500.18,595.42zM557.08,667.12l-2.65,-0.99l-0.67,-1.07l0.19,-1.02l3.8,1.54l0.21,0.79L557.08,667.12zM514.54,663.72l-2.78,-1.54l1.12,-1.03l2.93,0.66l0.3,1.44L514.54,663.72zM605.61,690.65l0.38,2.13l-0.73,0.44l-2.39,-0.26l0.26,-1.89L605.61,690.65zM516.8,614.47l0.8,-2.73l2.4,-1.1l-1.44,3.63L516.8,614.47zM503.08,599.03l-0.42,-3.19l1.58,-0.14l0.59,2.24L503.08,599.03zM488.13,542.77l-1.68,-1.39l2.55,-2.88l0.17,1.43L488.13,542.77zM493.41,579.28l-0.41,-0.27l0.44,-2.14l0.96,-0.67l2.02,0.4L493.41,579.28zM498.09,559.71l0.04,-4.1l1.98,2.68L498.09,559.71zM488.42,610.97l0.54,-3.66l1.16,-0.54l0.35,0.65l-0.59,2.48L488.42,610.97zM502.27,600.71l-1.6,-1.12l-0.18,-2.32l1.1,-0.39l1.01,2.4L502.27,600.71zM609.71,691.97l-0.8,-0.38l0.15,-1.7l1.24,-0.9l1.53,0.47l-1.12,2.08L609.71,691.97zM554.46,680.93l0.82,0.98l-3.86,0.6l-0.94,-0.79l2.21,-0.93L554.46,680.93zM489.04,585.96l-0.67,-1.81l0.47,-1.36l1.27,-0.07l0.05,3.46L489.04,585.96zM526.05,670.88l-1.1,-2.06l1.59,-0.91l1.84,0.66l-0.07,0.76L526.05,670.88zM493.89,614.78l2.56,-3.21l0.5,0.31l0.11,1.5l-3.13,1.92L493.89,614.78zM556.05,664.22l-1.81,-1.37l-0.16,-0.87l2.55,-0.57l0.37,1.15L556.05,664.22zM506.44,650.63l-0.46,-1.25l0.3,-2.06l2.33,1.59L506.44,650.63zM512.56,635.5l-0.6,0.02l-0.58,-0.71l0.53,-0.42l-1.06,-0.53l-3.12,0.21l2.51,-1.13l2.09,0.6l0.76,0.86L512.56,635.5zM507.08,609.12l-0.86,-0.41l-1.12,-3.18l2,1.47l0.42,0.96L507.08,609.12zM595.05,707.46l-0.61,-1.33l-2.7,0.42l0.06,-1.13l4.68,-0.08l-0.17,1.49l-1,-0.02L595.05,707.46zM603.53,684.81l2.24,0.77l0.75,2.13l-3.66,-2.21l0.04,-0.74L603.53,684.81zM493.54,620.63l-1.02,-2.05l2.82,-0.54l-0.95,2.18L493.54,620.63zM507.22,598.91l-1.17,-0.33l-0.65,-1.25l1.22,-1.21l1.03,1.2L507.22,598.91zM489.88,540.83l-0.55,-0.46l0.75,-1.59l2.34,0.31L489.88,540.83zM493.2,617.63l-0.23,-1.48l2.51,-1.48l-1.01,2.51L493.2,617.63zM593.39,700.46l0.37,-2.77l0.72,-0.5l0.87,2.21L593.39,700.46zM558.77,685.12l-0.58,-0.36l0.37,-0.66l2.65,-1.08l-0.31,1.38L558.77,685.12zM503.39,642.55l-1.1,1.62l-1.55,-0.16l1.94,-2.03L503.39,642.55zM600.25,707.28l-2.25,-1.89l2.25,0.2l0.54,1.59L600.25,707.28zM506.19,611.03l-1.31,-0.38l0.49,-2.08l1.38,1.72L506.19,611.03z"/>
		<path id="CL-TA" title="Tarapacá" class="land" d="M557.07,25.98L559.36,25.87L563.81,22.81L567.71,22.81L569.94,24.48L572.16,24.2L572.44,22.53L573.83,21.14L575.98,21.14L575.98,21.14L576.73,23.22L583.22,28.75L579.76,32.8L582.09,36L581.32,38.06L578.37,38.98L579.53,42.35L578.8,42.88L579.02,44.04L582.89,46.76L581.5,48.32L581.6,50.75L581.6,50.75L577.95,50.34L576.11,50.74L576.57,51.64L579.8,52.36L578.47,56.15L577.15,56.72L565.92,59.37L560.33,58.81L560.33,58.81L558.7,52.54L559.09,50.43L558.09,49.35L559.31,36.87z"/>
		<path id="CL-AN" title="Antofagasta" class="land" d="M582.34,51.41L583.5,51.42L586.85,56.85L586.89,61.6L588.04,63.67L588.32,66.96L590.33,69.15L590.49,72.13L591.67,76.03L591.29,80.22L592.47,80.98L595.52,81.34L601.15,80.12L603.75,82.9L598.98,98.62L585.93,104.46L585,105.99L583.98,106.1L582.31,108.69L581.41,110.92L584.48,115.72L582.47,116.5L581.93,118.04L581.93,118.04L580.58,118.18L578.73,119.65L575.44,120.31L573.69,123.31L573.83,126.07L569.66,126.07L569.1,127.74L567.71,128.02L566.32,129.69L562.96,126.5L560.87,126.31L557.42,128.39L553.72,129.04L551.72,130.87L551.72,130.87L552.12,129.35L550.69,126.6L552.08,122.7L554.68,119.54L554.92,117.89L552.79,109.4L553.98,99.93L553.8,95.99L555.52,91.51L554.15,89.78L553.45,90.77L552.24,90.55L552.91,83.89L553.92,83.09L554.31,84.14L555.62,83.75L557.02,81.12L556.68,79.64L558.89,62.57L560.33,58.81L560.33,58.81L565.92,59.37L577.15,56.72L578.47,56.15L579.8,52.36L576.57,51.64L576.11,50.74L577.95,50.34L581.6,50.75L581.6,50.75z"/>
		<path id="CL-AT" title="Atacama" class="land" d="M581.39,119.24L581.05,121.62L582.52,125.46L583.85,132.01L581.51,134.29L581.23,137.47L585.33,143.59L584.94,145.68L580.35,147.51L578.05,147.19L576.68,151.1L574.27,155.35L572.78,160.49L571.1,161.21L570.32,163.28L565.99,167.7L565.79,170.51L564.7,172.03L565.02,174.09L564.03,178.91L562.49,179.61L560.67,182.08L561.63,186.24L561.63,186.24L559.92,186.08L554.33,183.85L554.07,181.85L550.61,178.4L549.06,179.12L547.39,183.02L545.16,183.3L543.12,179.61L539.84,180.34L539.84,180.34L539.72,175.26L542.65,172.05L542.84,170.22L544.54,166.87L545.37,158.76L546.75,156.09L548.09,155.25L548.4,153.07L547.34,148.16L549.92,145.13L549.37,143.2L551.23,138.37L552.01,134.25L551.72,130.87L551.72,130.87L553.72,129.04L557.42,128.39L560.87,126.31L562.96,126.5L566.32,129.69L567.71,128.02L569.1,127.74L569.66,126.07L573.83,126.07L573.69,123.31L575.44,120.31L578.73,119.65L580.58,118.18L581.93,118.04L581.93,118.04z"/>
		<path id="CL-CO" title="Coquimbo" class="land" d="M539.84,180.34L543.12,179.61L545.16,183.3L547.39,183.02L549.06,179.12L550.61,178.4L554.07,181.85L554.33,183.85L559.92,186.08L561.63,186.24L561.63,186.24L561.53,188L562.44,190.35L562.15,193.62L563.48,196.74L561.96,199.72L559.18,200.83L558.08,202.79L556.59,207.16L556.89,210.54L553.68,212.68L553.12,215.38L552.74,219.39L554.56,223.86L557.71,225.62L557.32,227.36L556.12,228.1L556.52,231.09L556.52,231.09L554.78,231.02L554.44,229.83L552.32,229.26L550.61,227.22L546.27,227.35L544.85,229.02L541.29,229.67L541.29,229.67L541.29,229.67L541.29,229.67L539.85,229.21L539.21,229.77L539.21,229.77L539.59,222.86L537.38,212.74L537.63,209.82L536.86,206.12L537.21,199.23L537.68,198.1L539.09,198.41L541.09,196.66L542.03,192.87L542.74,192.15L542.02,189.5L542.46,184.15L541.8,182.28z"/>
		<path id="CL-RM" title="Región Metropolitana de Santiago" class="land" d="M560.41,265.31L560.3,264.61L558.8,263.59L558.61,261.41L556.23,261.29L555.8,258.57L554.98,258.11L549.65,259.79L547.78,261.96L547.77,263.07L546.6,263.34L545.2,263.36L544.04,261.66L542.25,260.89L541.35,259.23L539.05,259.36L537.64,258.78L537.64,258.78L538.4,258.29L538.4,258.29L538.86,256.72L541.17,256.94L541.87,256.19L542.49,253.85L541.76,251.04L543.58,249.26L543.86,247.31L546.6,246.47L546.5,242.95L550.39,242.18L552.46,242.78L553.72,244.7L555.31,243.99L557.76,245.74L559.67,244.31L559.67,244.31L559.73,246.47L561.08,248.49L562.12,247.51L562.86,247.58L563.88,248.15L564.29,249.99L562.94,252.84L562.44,256.64L563.68,264.43L562.68,265.18z"/>
		<path id="CL-VS" title="Valparaíso" class="land" 
d="M539.21,229.77l0.65,-0.56l2.03,0.49l2.96,-0.68l1.43,-1.67l4.34,-0.13l1.71,2.04l2.12,0.57l0.34,1.19l1.74,0.07l0,0l1.09,0.75l1.31,3.91l2.74,3.18l0.13,1.41l-2.12,3.98l0,0l-1.91,1.43l-2.45,-1.75l-1.59,0.71l-1.26,-1.93l-2.06,-0.6l-3.9,0.78l0.1,3.52l-2.75,0.84l-0.28,1.96l-1.82,1.77l0.74,2.82l-0.62,2.33l-0.7,0.75l-2.32,-0.21l-0.46,1.57l0,0l-1.34,0.87l0,0l-0.5,0.63l-2.08,-0.5l0,0l0.92,-2.73l1.79,-0.89l0.43,-1.55l-1.53,-8.9l2.66,-1.62l1.75,-5.8l0.57,-4.55L539.21,229.77zM2.95,147.41l-2.94,1.05l0.74,-2.08l2.47,0.48L2.95,147.41z"/>
		<path id="CL-AR" title="Araucanía" class="land" d="M511.23,336.25L513.18,337.42L516.92,333.74L517.36,332.39L516.08,330.3L518.19,327.21L518.35,325.59L516.95,324.77L518.26,323.13L520.21,322.84L521.92,323.86L525.08,324.3L527.23,327.56L529.53,328.47L531.68,330.73L536.49,330.99L537.2,335.02L537.89,335.75L538.54,334.59L540.73,333.5L541.19,332.66L546.87,332.42L546.87,332.42L547.27,337.95L549.34,340.49L548.83,342.93L547.95,343.85L546.1,343.99L541.26,346.99L540.86,349.29L541.35,352.95L539.85,359.53L538.34,359.94L537.16,358.95L537.16,358.95L536.86,357.65L535.6,357.58L533.6,356.21L530.95,356.08L528.18,357.69L524.88,356.55L522.13,356.63L520.46,353.84L518.4,353.88L516.6,355.85L514.92,355.62L514.92,355.62L515.18,352.96L511.04,340.16L510.72,337.42z"/>
		<path id="CL-BI" title="Bío-Bío" class="land" d="M521.53,294.3L523.12,295.01L525.5,297.68L528.58,299.22L530.33,299.27L531.43,297.14L533.07,299.29L535.79,299.39L536.68,300.95L539.28,301.99L542.51,304.32L543.09,304.4L545.05,301.47L545.87,301.67L546.63,303.35L546.63,303.35L544.21,309.87L545.26,314.64L544.07,317.98L545.32,320.77L544.3,325.02L546.87,332.42L546.87,332.42L541.19,332.66L540.73,333.5L538.54,334.59L537.89,335.75L537.2,335.02L536.49,330.99L531.68,330.73L529.53,328.47L527.23,327.56L525.08,324.3L521.92,323.86L520.21,322.84L518.26,323.13L516.95,324.77L518.35,325.59L518.19,327.21L516.08,330.3L517.36,332.39L516.92,333.74L513.18,337.42L511.23,336.25L511.23,336.25L511.94,331.49L510.8,328.27L508.91,325.56L508.66,323.36L509.97,321.09L508.78,318.78L509.32,316.15L510.07,315.32L511.06,316.27L513.1,316.77L515.52,315.48L516.57,306.99L517.85,307.66L518.68,307.28L520.74,300.7z"/>
		<path id="CL-LI" title="Libertador General Bernardo O'Higgins" class="land" d="M537.64,258.78L539.05,259.36L541.35,259.23L542.25,260.89L544.04,261.66L545.2,263.36L546.6,263.34L547.77,263.07L547.78,261.96L549.65,259.79L554.98,258.11L555.8,258.57L556.23,261.29L558.61,261.41L558.8,263.59L560.3,264.61L560.41,265.31L560.41,265.31L560.44,267.27L557.78,271.76L555.97,277.54L555.97,277.54L552.44,277.23L549.96,275.22L545.43,273.89L542.5,274.09L541.32,275.11L541.43,276.08L537.09,275.55L533.68,274.31L531.69,272.21L531.69,272.21L531.89,267.57L532.86,266.34L532.4,262.88L534.49,259.29L534.49,259.29L536.56,259.78L537.06,259.16L537.06,259.16z"/>
		<path id="CL-LL" title="Los Lagos" class="land" d="M495.16,435.42l-2.27,0.9l-0.9,-1.76l1.37,-0.58L495.16,435.42zM512.5,414.5l-0.29,0.61l-0.52,-1.04l-2.18,-1.02l-0.35,-1.31l1.66,0.14L512.5,414.5zM505.81,401.11l-1.56,0.44l1.74,0.99l2.45,-1.61l1.82,-0.14l0.99,0.67l-0.32,2.5l1.09,1.71l-0.72,1.2l1.49,1.26l0.36,1.1l-0.34,1.12l-3.9,0.98l-0.33,1.99l1.05,0.93l-1.54,0.64l-0.79,-0.71l0.27,-0.76l-0.84,0.9l0.17,1.76l4.39,3.75l0.09,1.47l-1.65,0.12l-0.6,1.02l2.28,3.5l-4.11,0.22l0.21,1.63l1.01,1.37l-0.29,1.73l-2.16,0.54l-1.25,-0.86l-4.66,-0.79l-1.76,-1.3l3.24,-6.96l0.4,-5.97l-0.87,-1.46l0.54,-5.12l1.37,-1.76l0.92,-4.38l-0.7,-1.9l0.47,-0.75l1.66,0.15L505.81,401.11zM507.77,371.91l4.27,0.36l0.84,1.39l1.39,0.28l2.23,-1.67l2.23,0.83l1.39,2.5l4.45,3.62l2.78,1.11l2.78,-3.62l4.82,0.07l0,0l-0.31,2.1l-1.29,1.56l1.59,4.28l-0.87,7.55l0.7,3.65l-0.92,1.95l1.8,3.97l0.87,4.46l-2.57,1.55l-0.78,-0.9l-0.79,0.09l-1.61,2.9l1.22,1.6l-1.34,4.26l0.53,5.09l-0.49,2.92l1.19,1.92l3.09,0.55l1.36,0.84l-0.01,2.36l-2.21,0.54l-0.57,2.5l3.33,2.9l-0.02,1.72l-1.49,0.88l0,0.57l1.56,2.03l0,0l-1.55,-0.48l-2,0.98l-0.2,0.79l-1.99,0.22l-0.37,-1.3l-1.84,-1.08l-1.16,-2.65l-0.68,-0.27l-1.75,2.44l-4.88,-0.95l0,0l0,-0.81l-0.22,0.67l0,0l-1.14,-0.73l-1.33,0.57l0,0l0.04,-2.98l-1.09,-2.71l0.49,-2.51l2.38,-1.49l-0.27,-2.24l1.2,-2.13l1.47,0.7l0.04,-2.63l-1.26,-1.24l-0.42,-1.69l0.06,-3.74l0.82,-1.4l3.69,1.16l-2.06,-1.46l-2.34,-3.64l1.39,-1.33l2.09,-0.67l0.87,1l1.28,4.17l0.46,-0.16l-0.98,-6.19l0.41,-2.85l-0.87,-0.19l-1.42,1.12l-1.79,-0.27l-1.7,-1.44l3.03,-3.88l2.54,-0.22l1.79,-1.21l0.58,-4.1l-0.52,0.19l-0.82,3.98l-2.48,1l-1.38,-0.57l-1.84,-3.07l-1.86,-0.63l-1.55,0.52l-0.88,1.39l0.68,2.11l-1.94,1.76l-2.89,-0.27l-1.59,0.59l-3.34,-0.97l0.87,-2.42l1.73,-0.29l0.93,-1.73l-1.01,1.45l-2.12,-0.04l-2.18,-2.17l0.18,-2.58l-1.62,-4.96l-0.31,-2.11l3.54,-8.55l-0.51,-1.71L507.77,371.91z"/>
		<path id="CL-ML" title="Maule" class="land" d="M546.63,303.35L545.87,301.67L545.05,301.47L543.09,304.4L542.51,304.32L539.28,301.99L536.68,300.95L535.79,299.39L533.07,299.29L531.43,297.14L530.33,299.27L528.58,299.22L525.5,297.68L523.12,295.01L521.53,294.3L521.53,294.3L524.23,291.54L523.42,287.55L525.31,286.01L526.93,281.84L529.35,279.71L529.97,275.73L531.69,272.21L531.69,272.21L533.68,274.31L537.09,275.55L541.43,276.08L541.32,275.11L542.5,274.09L545.43,273.89L549.96,275.22L552.44,277.23L555.97,277.54L555.97,277.54L555.67,280.52L553.4,281.23L553.02,282.23L555.08,283.91L555.13,288.62L556.2,291.69L555.23,293.12L555.45,296.31L554.85,297.64L552.71,297.88L551.06,299.74L551.03,302.27L547.53,303.54z"/>
		<path id="CL-AP" title="Arica y Parinacota" class="land" d="M575.98,21.14L573.83,21.14L572.44,22.53L572.16,24.2L569.94,24.48L567.71,22.81L563.81,22.81L559.36,25.87L557.07,25.98L557.07,25.98L556.11,16.79L556.65,13.86L555.32,12.53L559.2,12.12L561.68,11.05L564.29,7.13L563.22,3.62L563.44,2.61L563.72,2.18L565.58,2.35L568.2,0L568.38,1.89L570.65,4.34L571.17,7.04L574.29,7.92L573.19,9.58L574.02,10.74L574.98,14.54L574.96,17.15L576.27,20.5z"/>
		<path id="CL-LR" title="Los Ríos" class="land" d="M534.95,376.79L530.13,376.72L527.35,380.34L524.57,379.22L520.11,375.6L518.72,373.1L516.5,372.27L514.27,373.94L512.88,373.66L512.04,372.27L507.77,371.91L507.77,371.91L508.07,370.17L509.03,369.01L508.54,366.13L513.04,364.24L513.01,362.06L515.23,356.19L514.92,355.62L514.92,355.62L516.6,355.85L518.4,353.88L520.46,353.84L522.13,356.63L524.88,356.55L528.18,357.69L530.95,356.08L533.6,356.21L535.6,357.58L536.86,357.65L537.16,358.95L537.16,358.95L536.83,361.9L537.85,366.01L537.38,367.8L535.61,369.05L535.23,370.71L536.63,372.53L536.87,372.1L537.35,372.43L537.42,373.13L536.68,374.78L535.77,374.51z"/>
	</g>
</svg>