<?xml version="1.0" encoding="utf-8"?>
<!-- (c) ammap.com | SVG map of Chile -->
<svg xmlns="http://www.w3.org/2000/svg" xmlns:amcharts="http://amcharts.com/ammap" xmlns:xlink="http://www.w3.org/1999/xlink" version="1.1">
	<defs>
		<style type="text/css">
			.land
			{
				fill: #CCCCCC;
				fill-opacity: 1;
				stroke:white;
				stroke-opacity: 1;
				stroke-width:0.5;
			}
		</style>

		<amcharts:ammap projection="mercator" leftLongitude="-109.449403" topLatitude="-17.500036" rightLongitude="-66.416233" bottomLatitude="-55.907355"></amcharts:ammap>

		<!-- All areas are listed in the line below. You can use this list in your script. -->
		<!--{id:"CL-AI"},{id:"CL-MA"},{id:"CL-TA"},{id:"CL-AN"},{id:"CL-AT"},{id:"CL-CO"},{id:"CL-RM"},{id:"CL-VS"},{id:"CL-AR"},{id:"CL-BI"},{id:"CL-LI"},{id:"CL-LL"},{id:"CL-ML"},{id:"CL-AP"},{id:"CL-LR"}-->

	</defs>
	<g>
		<path id="CL-AI" title="Aisén del General Carlos Ibáñez del Campo" class="land" 
d="M520.19,472.64l0.22,-0.05l0.46,-0.97l-0.15,-0.4l-0.87,-0.18l-0.31,0.32l-0.38,0.06l-1.42,-0.67l-0.76,-0.91l-0.68,-0.71l-1.13,-0.91l-0.46,-0.18l-0.31,0.09l-0.42,0.48l-0.27,0.37l-0.53,0.07l-0.67,-0.08l-0.35,-0.08l-0.26,-0.23l-0.06,-0.46l0.21,-1.04l0.36,-0.09l0.86,-0.04l0.28,-0.13l0.51,-0.81l-0.98,-1.47l-0.41,-0.87l0.1,-0.73l0.31,-0.53l0.42,-0.19l0.29,-0.03l0.89,0.2l0.44,0l1.26,-0.45l2.85,-1.59l0.77,-0.67l1.73,-1.57l0.56,-1.19l0.42,-1.08l1.19,-3.31l0.09,-1.87l-0.78,0.72l-1.13,0.82l-1.49,-1.14l-1.14,-1.03v-0.56l-1.32,-0.62l-0.91,-0.29l-0.45,-0.06l-0.59,-0.12l-0.39,-0.23l-1.39,-1.47l-0.1,-0.62l0.14,-0.63l0.98,-0.92l1.04,-0.89l0.01,-0.75l0.49,-1.04l1.2,-2.42l0.37,0.01l0.64,-0.16l1.43,-0.49l-0.09,-0.54l0,0l0.94,0.02l0.29,0.23l0.89,0.23l2.75,0.47l0.2,-0.78l0.47,-0.7l0.61,-0.63l0.47,-0.33l0.68,0.27l0.07,0.83l1.09,1.82l0.3,0.13l0.64,0.06l0.42,0.29l0.47,0.6l0.26,0.53l0.11,0.77l1.99,-0.22l0.2,-0.79l2,-0.98l0.48,-0.02l1.07,0.5l0,0l0.71,0.97l0.03,0.43l-0.13,0.36l-1.3,2.02l-0.46,0.49l-0.55,1.55l0.25,0.55l0.09,0.5l-0.05,2.23l-0.65,0.47l-0.15,0.4l0.37,0.55l0.7,0.16l2.17,0.04l1.15,0l0.92,-0.15l1.13,-0.04l2.92,0.59l0.48,0.42l0.75,1.67l-0.18,0.67l-0.33,0.36l-0.64,0.1l-0.6,1.42l0.06,0.5l0.1,0.57l-0.08,0.59l-0.74,1.03l-0.39,0.11l-0.49,0l-0.43,-0.14l-0.37,-0.19l-0.67,-0.51l-0.41,-0.29l-0.29,-0.07l-0.38,0l-0.53,0.21l-0.75,0.4l-0.29,0.11l-0.35,0.06l-0.28,-0.11l-0.29,-0.14l-0.3,-0.12l-0.81,-0.18l-0.34,0.16l-0.26,0.44l-0.39,0.15l-1.57,-0.19l-0.32,-0.14l-0.29,-0.14l-0.36,-0.2l-0.4,-0.1l-0.4,0.25l-0.09,0.41l0.21,2.29l1.88,0.41l1.82,0.17l0.94,0.13l2.25,0.77l0.48,0.48l0.73,1.53l2.4,3.13l0.44,1.49l-2.4,3.48l-1.97,0.91l-0.33,-0.02l-0.29,0.05l-0.32,0.08l-0.57,0.22l-0.54,0.4l-0.45,1.95l-0.15,1.5l0.55,2.44l0.42,0.26l0.43,0.14l0.64,0.3l0.29,0.41l0.35,1.5l-0.49,0.41l-0.09,0.05l-0.3,0.27l-0.48,0.65l-0.3,0.49l-0.28,0.58l-0.36,0.42l-0.38,0.17l-0.44,0.1l-0.38,0.04l-0.72,0.34l0.95,1.06l0.49,0.18l0.48,0.24l0.29,0.52l0.08,0.5l0.23,3.27l0.5,1.24l0.27,0.98l0.06,2.36l-0.09,0.65l-0.19,0.39l-1.81,1.72l-0.52,0.22l-0.96,0.07l-0.31,0.33l-0.53,4.53l1.19,1.69l0.43,0.5l0.14,0.69l-0.22,0.96l-0.21,0.3l-1.91,0.93l-0.91,1.58l-1.1,1.22l-0.5,0.16l-0.51,-0.17l-0.38,0.01l-0.52,0.19l-0.29,0.13l-0.31,0.19l-0.21,0.31l-0.13,0.59l0.25,0.25l0.48,0.33l-0.3,1.9l-0.14,0.46l-0.19,0.4l-0.73,1.16l-0.35,0.61l-0.39,0.89l-1.13,3.22l0.05,0.55l0.23,0.42l0.52,0.58l0.4,0.27l0.61,0.15l1.21,1.49l0.31,2.38l0.12,3.35l-1.91,1.23l-0.92,0.37l-0.94,0.52l-0.3,0.21l-0.25,0.35l-0.12,0.45l0.34,1.51l0.09,0.48l0.18,1.38l0.13,1.71l0,0.98l-0.13,0.49l-0.37,0.54l-1.73,1.71l-0.4,0.35l-0.26,0.18l-0.37,0.21l-0.42,0.17l-0.65,0.13l-0.56,-0.03l-0.28,0.08l-0.51,0.22l-0.44,0.3l-0.34,0.43l-1.01,1.5l-1.41,3.34l0.03,0.46l0.1,0.21l0,0l-0.24,-0.17l-4.21,-3.63l-3.39,-2.93l-4.92,-4.28l0,0l-0.04,-0.2l-0.69,-0.44l-0.78,-0.16l-0.39,0.02l-0.52,0.2l-0.3,0.14l-0.31,0.13l-0.52,-0.04l-0.82,-1.08l-0.37,-1.4l0.64,-0.93l1.4,-1.45l0.75,-0.52l0.73,0.44l1.47,1.08l0.28,-0.3l0.09,-2.57l-1.26,-0.41l-0.37,-0.48l-0.25,-0.25l-0.32,-0.06l-0.81,-0.12l0.36,-0.38l1.25,-0.3l-2.07,-0.79l-1.91,-1.73l-1.29,-1.49l-1.33,-0.98l-0.54,-0.01l-0.37,-0.16l-0.15,-1l0.36,-0.62l1.5,-0.92l1.59,0.65l0.93,0.74l0.29,0.5l0.2,0.44l0.26,0.8l0.28,1.8l0.88,0.91l0.43,-0.13l-1.09,-2.71l-0.87,-1.57l-0.08,-0.41l0.37,-0.21l1.47,-0.06l1.75,0.07l0.36,0.26l0.44,0.54l0.8,0.31l1.5,-0.02l1.22,-0.36l2.54,2.29l0.05,1.02l0.51,1.29l0.2,-0.79l0.67,-0.7l0.69,0.06l0.33,0.12l0.37,0.24l0.64,0.04l0.69,-0.63l0.23,-0.29l0.11,-0.58l0.04,-0.71l-0.19,-0.47l-0.11,1.14l-0.27,0.4l-0.58,0.45l-0.28,0.06l-0.37,-0.16l-1.22,-0.8l-1.32,-1.53l-0.94,-1.39l-0.13,-1.61l1.19,0l0.12,0.68l0.47,0.62l0.26,0.18l0.31,0.14l0.72,0.2l2.99,0.18l-0.62,-0.53l-0.99,-0.31l-0.49,-0.02l-0.37,0.05l-0.5,0.13l-0.54,-0.1l-0.62,-0.46l-2.81,-3.47l-0.42,-1.06l0.08,-0.55l0.29,-0.43l0.44,-0.44l0.41,-0.61l-0.27,-1.39l-0.7,-0.75l-0.65,1.34l0.55,0.4l0.08,0.47l-0.61,3.16l-0.28,0.31l-0.35,0.23l-1.69,0.74l-1.15,-0.23l-0.27,-0.14l-0.36,-0.89l-0.45,-0.08l-0.7,-0.03l-2.39,-0.49l-1.13,-0.26l-1.22,0.35l-0.36,0.21l-0.69,0.12l-1.02,-0.16l-0.39,-0.14l-0.96,-0.5l-0.39,-0.63l1.95,-2.96l0.62,-0.42l0.29,-0.05l1.23,0.13l0.39,0.14l0.78,0.66l0.32,1.08l0.5,1.34l0.58,0.69l0.5,0.25l0.53,0.07l0.34,-0.15l-0.4,0.01l-0.72,-0.23l-0.39,-0.41l-0.23,-0.8l0.59,-1.01l1.27,-0.33l0.75,0.32h0.37l0.61,-0.26l-0.22,-1.69l-0.98,0.51l-0.52,0.54l-1.67,0.36l-0.28,-0.07l-3.01,-3.16l-0.16,-0.39l0.78,-1.41l1.47,-1.47l0.32,-0.65l0.2,-0.46l0.19,-0.49l1.79,-0.29l0.3,0.16l0.14,0.58l0.02,0.72l0.67,1.37l0.12,0.12l-0.12,-0.3l-0.39,-1.25l0,-0.53l0.14,-0.7l0.18,-0.34l1.04,-1.02l1.53,-2.4l-1.09,-1.09l-0.32,-0.14l-0.32,-0.03l-0.28,0.15l-0.42,0.26l-0.42,-0.14l-1.55,-2.39l-0.25,-1.23l-0.02,-0.51l-1.05,-0.44l-3.97,0.4l-0.05,1.17l0.44,-0.11l0.58,-0.02l1.61,0.49l-0.17,0.56l-0.4,0.32l-0.38,0.02l-0.9,-0.11l-1.12,-0.5l-3.43,-1.64l-1.72,-0.87l-0.95,-1.94l-0.04,-0.6l0.19,-0.48l0.77,-0.98l0.99,-1.01l-0.07,-1.38l-0.32,0.52l-0.23,0.66l-1.39,1.52l-0.54,0.45l-0.98,0.64l-2.31,0.66l-0.58,-0.13l-0.57,-0.05l-1.04,0.33l-0.93,0.45l-0.39,0.32l-0.78,1.32l0.29,0.32l0.69,-0.58l1.56,-1.07l0.39,0.03l0.38,0.24l1.1,3.39l-0.13,0.52l-0.87,0.62l-0.77,0.34l-0.3,0.12l-0.12,0.02l-0.14,-0.02l-0.87,-0.29l-1.05,-1.26l-0.98,-1.81l-0.1,-1.41l0.18,-1.88l0.89,-1.33l0.28,-0.05l0.35,0.03l0.46,0.07l0.66,-0.35l1.77,-1.56l-0.1,-0.72l0.65,-0.76l0.34,-0.31l0.95,-0.51l0.63,0.59l0.03,0.25l0.06,-1.23l0.22,-1l1.58,-1.74l0.59,-0.06l1.28,0.05l1.92,-2.1l0.47,-1.14l0.93,-2.73l0.49,-1.67l0.21,-0.29l3.1,-0.39l1.26,-0.31l0.48,0.17l0.27,0.71l0.74,-0.5l1.53,-0.24l0.28,0.22l0.36,0.53l0.75,2.25l-0.39,2.15l-0.21,0.59l-0.33,0.62l-0.31,0.33l-0.24,0.23l0.32,-0.04l0.9,-0.74l0.27,-1.07l-0.03,-0.43l-0.12,-0.45l0.18,-0.38l1.11,1.09l0.1,0.44l-0.04,0.59l-0.19,0.54l-0.19,0.32l-0.37,0.41l-0.71,0.63l-0.75,0.44l-0.94,0.44l-1.67,0.5l-0.44,0.04l-0.43,-0.19l-0.62,-0.46l-0.34,-0.3l-0.63,-0.42l1.19,1.23l0.32,0.25l0.27,0.17l0.38,0.02l1.41,-0.37l1.13,-0.33l0.45,-0.25l0.74,-0.36l0.34,-0.07l0.59,1.89l1.48,0.98l0.41,0.18l0.13,0.02l0.15,-0.21l-0.39,-0.59l-0.35,-0.23l-0.46,-0.33l-1.15,-1.39l0.47,-1.13l0.33,-0.31l0.97,-0.09l1.85,2.1l-0.06,1.13l-0.14,0.76l-0.21,0.6l-0.24,0.49l-1.02,1.28l-0.45,0.48l-1.17,1.8l1.16,0.89l0.54,0.02l0.4,-0.24l0.22,-0.29l0.75,-1.66l0.18,-0.47l0.32,-1.1l2.44,-3.04l0.56,-1.72l1.52,-2.35l-0.25,-0.23l-1.37,1.94l-0.58,1.01l-0.25,0.69l-0.43,0.87l-0.38,0.47l-0.48,0.17l-0.05,-0.91l0.1,-0.42l0.49,-1.05l0.22,-0.8l0.17,-0.87l0.04,-0.68l-0.36,-1.22l-0.29,-0.9l1.74,-3.47l1.45,-1.68l0.27,-0.29l0.45,-0.39l0.38,-0.17l0.29,-0.04l0.72,0l0.79,0.09l0.45,-0.09l0.3,-0.32l-1.95,-0.66l-0.55,0.06l-0.61,0.21l-0.49,0.41l-0.4,0.75l-0.2,0.3l-1.14,1.1l-0.29,0.07l0.14,-1.87l0.79,-4.67l1.67,-1.57l1.46,-1.06l1.13,-0.48l0.44,0.42l0.1,0.64l0.44,0.46l0.6,0.52l1.26,0.93l0.91,0.32L520.19,472.64zM520.26,457.88l-0.06,0.08l-0.7,0.54l-0.66,0.35l-0.96,1.03l-0.15,0.31l-0.16,0.26l-0.13,0.14l-0.95,0.76l-0.87,0.41l-0.4,0.14l-0.51,0.08l-0.23,-0.04l-0.21,-0.14l-1.51,-1.75l-0.11,-0.22l-0.03,-0.23l0.1,-0.19l1.4,-0.51l0.25,0.1l0.15,0.12l0.23,0.25l0.6,-0.14l0.13,-0.1l-0.38,-0.35l-0.92,-0.4l-0.59,0.37l-0.16,0.19l-0.15,0.13l-0.17,0.01l-0.22,-0.13l-0.15,-0.19l-0.46,-0.95l-0.19,-0.48l-0.26,-1.27l0.56,-0.84l0.12,-0.15l0.43,-0.09l0.16,0.03l1.39,-0.26l0.18,-0.92l0.06,-0.78l-0.03,-0.29l0.05,-0.24l0.28,-0.78l0.15,-0.2l0.18,-0.08l1.81,-0.6l1.27,-0.31l0.16,0.05l1.69,1.38l1.13,0.4l0.27,0.22l0.62,1.06l0.1,0.23l-0.04,0.23l-1.1,1.61l-0.13,0.14l-0.16,0.11l-0.27,0.06l-0.9,-0.09l-0.16,-0.12l-0.19,-0.22l-0.75,-0.28l0.02,0.27l0.13,0.21l0.86,0.59l0.43,0.14l0.57,0.12l0.12,0.31l-0.2,0.43l-0.22,0.34L520.26,457.88zM487.11,539.87l-0.17,0.12l-0.34,0.1l-0.64,-1.54l-0.21,-1.04l-0.31,-2.03l0.04,-0.34l0.31,-0.9l-1.44,-0.86l-0.91,0.47l-0.21,0.07l-0.34,0.08L482.6,534l-0.19,-0.05l-0.27,-0.18l-0.1,-0.19l-0.03,-0.25l0.07,-0.25l0.28,-0.24l0.26,-0.18l0.4,-0.17l0.51,-0.04l0.36,-0.05l0.22,-0.07l0.28,-0.15l0.23,-0.21l0.24,-0.36l0.17,-0.34l-0.19,-0.06l-0.66,0.4l-1.88,0.23l-0.16,-0.25l-0.52,-4.63l0.09,-0.24l0.59,-0.75l0.41,-0.32l2.07,-0.58l0.25,0.05l0.17,0.2l0.87,2.74l0.1,0.37l0.1,1.25l0.51,1.64l0.34,0.94l0.41,0.47l0.52,0.92l0.74,2.11l0.16,1.85l-0.1,0.4l-0.12,0.19L487.11,539.87zM495.33,539.71l-1.74,-1.25h-0.25l-0.24,0.12l-0.22,0.07l-0.27,0.01l-1.66,-0.35l-0.92,-0.53l-0.2,-0.17l-0.08,-0.21l-0.23,-1.57l0.06,-0.4l0.13,-0.25l0.12,-0.18l1.02,-1.14l0.23,-0.13l0.93,-0.11l0.17,0.04l0.12,0.29l0.3,0.49l0.06,0.29l0.12,0.24l0.63,0.53l0.68,-0.84l0.04,-0.23l-0.18,-0.26l-0.14,-0.09l-0.41,-0.09l-0.49,-0.93l-0.11,-0.25l-0.17,-0.8l0,-0.27l0.03,-0.29l0.61,-3.16l0.13,-0.33l0.11,-0.19l0.18,-0.18l0.17,0.09l0.27,0.38l0.1,0.19l0.06,0.35l0,0.4l0.08,0.83l0.17,1.5l1.3,2.32l-0.29,1.01l0,1.24l0.07,0.96l0.09,0.37l0.7,0.95l0.2,0.05l0.13,-0.17l0,-0.21l-0.08,-0.21l0.01,-0.25l0.18,-0.08l0.15,0.07l0.17,0.13l0.13,0.16l0.03,0.31l-0.11,0.6l-0.09,0.38l-0.12,0.18l-0.16,0.14l-0.73,0.46l-0.26,0.1l-0.3,0.02L495.33,539.71zM489.6,534.4l-0.2,-0.01l-0.19,-0.1l-2.02,-4.49l-0.89,-2.71l0.05,-0.62l0.48,-0.05l0.92,0.2l1.66,0.41l0.39,0.21l1.19,0.97l1.6,0.41l0.16,0.2l0.03,0.35l-0.04,0.44l-0.48,3.08l-0.12,0.18l-0.21,0.08l-0.4,-0.02l-0.74,0.5l-0.34,0.25l-0.4,0.33L489.6,534.4zM508.01,468.84l-0.87,-0.28l-0.53,-0.63l-0.6,-0.02l-0.8,0.21l-0.25,0.01l-0.55,-0.04l-0.19,-0.09l-0.16,-0.12l-0.15,-0.26l-1.28,-1.49l-0.44,0.24l-0.96,0.22l-0.23,-0.05l-0.14,-0.14l-0.09,-0.5l-0.08,-0.64l0.01,-0.2l0.1,-0.41l0.21,-0.28l0.49,-0.49l0.19,-0.16l0.27,-0.06l0.33,0.02l0.14,0.08l0.26,0.09l0.65,-0.06l1.11,-0.2l0.31,-0.09l0.53,-0.34l0.17,-0.13l0.22,-0.05l0.31,0.05l0.26,0.09l0.15,0.08l0.87,0.67l0.14,0.14l0.13,0.15l0.11,0.16l0.57,0.93l0.22,0.58l0.02,0.24l-0.01,0.26l-0.04,0.55L508.01,468.84zM499.67,524.6l-0.53,-0.28l-1.75,-0.72l-0.27,-0.24l-0.01,-0.24l1.15,-1.28l0.15,-0.15l0.26,-0.16l1.35,-0.72l0.28,-0.07l3.2,1.07l1.71,0.7l0.38,0.05l0.21,-0.07l0.43,-0.37l0.18,-0.11l0.15,0.01l0.18,0.12l0.23,0.28l0.06,0.22l-0.08,0.3l-0.27,0.8l-0.26,0.17l-0.47,0.17l-0.2,0.02l-0.53,0.02l-1.53,-0.01l-0.28,-0.04l-0.33,-0.13l-0.2,-0.11l-0.31,-0.06l-0.19,0.02l-2.3,0.66L499.67,524.6zM500.45,459.27l-0.26,-0.04l-0.39,-0.14l-0.26,-0.16l-0.15,-0.12l-0.21,-0.21l-0.31,-0.41l-0.56,-1.22l-0.01,-0.25l0.04,-0.85l0.17,-0.17l1.94,-0.51l0.22,-0.04l1.25,0.01l2.27,0.13l0.48,0.16l0.19,0.09l0.34,0.22l0.14,0.13l0.19,0.22l0.37,0.58l0.08,0.3l-2.02,0.55l-2.41,1.07l-0.35,0.19L500.45,459.27zM488.95,485.34l-0.17,-0.18l-0.1,-0.24l-0.16,-0.64l0.08,-0.22l0.16,-0.12l1.68,-0.47l0.2,0.09l-0.11,-0.44l-0.36,-0.09l-0.39,0.15l-0.52,0.04l-0.23,-0.06l-0.13,-0.29l-0.52,-1.83l0.08,-0.2l0.23,-0.19l0.31,-0.09l1.3,0.52l0.19,0.1l0.24,0.19l0.88,-0.5l1.21,-1.11l0.74,-0.36l0.33,-0.05l0.15,0.34v0.33l-0.06,0.32l-0.66,2.83l-0.09,0.2l-0.11,0.18l-0.38,0.48l-1.52,1.47l-0.23,0.12l-1.01,0.08l-0.34,-0.04l-0.51,-0.17L488.95,485.34zM481.36,539.64l0.37,-0.51l0.44,0.09l0.4,-0.12l0.22,-0.05l0.38,-0.2l0.16,-0.13l0.27,-0.33l0.08,-0.29l-0.13,-0.13l-0.26,0.25l-0.24,0.21l-0.19,0.1l-0.3,0.05l-0.2,0l-0.97,-0.11l-0.67,-0.34l-0.28,-0.64l0.27,-2.29l0.42,-0.76l0.28,-0.07l3.03,-0.29l0.69,0.14l0.08,0.31l0.28,3.03l-0.07,0.23l-0.66,0.6l-0.32,0.27l-0.91,0.71l-0.43,0.3l-0.19,0.1l-0.22,0.07l-0.43,0.05l-0.51,-0.04l-0.28,-0.11L481.36,539.64zM497.67,478.85l-0.22,-0.08l-0.16,-0.27l-0.15,-0.38l-0.03,-0.27l0.12,-0.24l0.33,-0.38l0.25,-0.36l0.01,-0.78l-0.14,-0.86l-0.14,-0.64l0,-0.32l0.03,-0.28l0.07,-0.37l0.06,-0.23l0.15,-0.44l0.19,-0.39l0.23,-0.37l0.32,-0.12l1.31,0.63l0.24,0.19l0.15,0.19l0.29,0.59l0.14,0.41l0.33,1.05l0.17,0.83l-0.27,0.75l-0.12,0.17l-2.2,1.72l-0.17,0.11L497.67,478.85zM491.57,526.43l-0.2,-0.01l-0.77,-0.24l-0.87,-0.39l-0.19,-0.11l-0.11,-0.25l0.21,-0.42l-0.29,-0.25l-0.38,-0.09l-0.38,0.03l-0.28,0.17l-0.32,0.39l-0.24,0.37l-0.21,0.07l-0.35,0.07l-0.49,0.05l-0.3,-0.06l-0.2,-0.19l0.82,-1.19l0.4,-0.33l0.17,-0.12l0.97,-0.29l0.45,-0.11l0.28,0.01l1.28,-0.88l0.98,-1.39l0.83,-0.42l0.21,0.15l0.11,0.72l0.02,0.25l0.02,0.79l-0.03,2.98l-0.75,0.57l-0.14,0.08L491.57,526.43zM509.13,478.48l-0.13,-0.02l-0.25,-0.15l-1.47,-1.67l-0.07,-2.15l0,-0.32l0.04,-0.33l0.08,-0.22l0.15,-0.28l0.77,-1.14l0.15,-0.12l0.29,-0.05l0.25,0.02l1.04,0.34l0.15,0.23l0.04,0.71l-0.47,3.87l-0.33,1.06l-0.15,0.21L509.13,478.48zM500.25,463.74l-0.14,-0.01l-1.04,-0.28l-0.07,-0.18l0.2,-0.51l2.15,-2.08l0.21,-0.15l0.26,-0.08l0.26,0.01l2.57,0.67l0.18,0.17l0.54,0.69l0.1,0.24l-0.16,0.18l-0.51,0.31l-0.3,0.1l-0.88,0.25l-0.24,0.02l-1.13,-0.01l-0.73,-0.06l-0.26,0.08l-0.17,0.09L500.25,463.74zM507.81,457.99l-0.19,-0.01l-0.9,-1.26l-0.05,-1.9l0.06,-0.31l0.21,-0.19l1.38,-0.34l0.24,0.02l0.24,0.12l0.23,0.22l0.45,1.15l0.54,1.66l-0.03,0.21l-0.16,0.11l-1.55,0.48L507.81,457.99zM504.29,442.06l-0.38,-0.44l-1.42,-0.43l-0.66,-0.26l-0.11,-0.16l0.29,-1.07l0.18,-0.19l0.23,-0.11l0.86,0.11l0.23,0.06l1.88,-0.28l0.79,-0.7l1,1.13l0.29,0.89l0.08,0.44l-1.28,0.11l-0.19,-0.18l-0.24,-0.1l-0.07,-0.2l0.21,-0.17l0.14,-0.18l-0.21,-0.15l-0.38,-0.05l-0.83,0.21l-0.08,0.43l0.17,0.2l0.05,0.22l0.35,0.2l-0.45,0.56l-0.24,0.09L504.29,442.06zM504.18,470.3l-0.19,-0.03l-1.7,-0.65l-0.15,-0.19l-0.32,-1.28l0.32,-0.42l0.87,-0.38l0.22,-0.02l0.2,0.09l0.13,0.15l0.18,0.55l0.13,0.15l0.17,0.11l0.23,0.06l0.25,0.04l0.53,0.02l0.25,-0.01l0.51,-0.1l0.4,-0.06l0.38,0.06l0.19,0.1l0.14,0.13l0.2,0.35l0.13,0.4l0.03,0.38l-0.15,0.31l-0.14,0.06l-1.04,0.01l-1.23,0.04L504.18,470.3zM496.71,532.17l-0.13,-0.09l-0.88,-1.9l-0.04,-0.24l-0.02,-0.38l-0.01,-0.53l0.02,-0.8l0.49,-0.72l0.24,0l0.28,0.24l0.45,0.44l1.54,1.56l0.34,0.69l-0.58,0.85l-0.16,0.14L496.71,532.17zM507.42,487.68l-0.46,-0.43l-0.13,-0.15l-1.71,-2.29l0.01,-0.34l0.19,-0.55l0.16,-0.19l0.2,-0.07l0.67,-0.03l0.26,0.03l1.27,0.56l0.61,0.46l0.2,0.23l0.08,0.35l-0.1,0.37l-0.77,1.53l-0.2,0.38l-0.17,0.11L507.42,487.68zM498.48,454.15l-1.58,-0.38l-0.25,-0.23l-0.08,-0.19l-0.18,-0.67l0.09,-0.29l0.31,-0.34l0.2,-0.14l2.72,-0.83l0.71,0.24l0.49,0.81l0.16,0.31l-0.01,0.21l-0.34,0.12l-1.26,0.32l-0.96,0.21l-0.19,0.08L498.48,454.15zM504.38,477.74h-0.13l-0.75,-0.14l-0.18,-0.17l-0.44,-1.13l-0.27,-0.74l-0.01,-0.42l0.71,-0.89l0.47,-0.29l0.24,-0.02l0.68,0.36l0.66,0.67l0.29,0.6l0.01,0.32l-0.12,0.62l-0.28,0.77L504.38,477.74zM481.25,541.96l-0.13,-0.02l-0.17,-0.08l-0.22,-0.25l-0.07,-0.31l0.1,-1.31l0.34,-0.04l0.64,0.29l0.64,0.16l0.28,0.04l0.23,-0.05l0.16,-0.13l0.85,-0.78l1.11,-0.98l0.67,0.47l0.2,0.58l0.06,0.23l0.03,0.31l-0.28,0.42l-0.24,0.2l-2.46,0.91L481.25,541.96zM502.21,474.8l-0.07,-0.13l0.02,-0.23l0.07,-0.54l0.07,-0.31l0.13,-0.16l0.21,-0.16l0.01,-0.43l0.12,-0.27l0.19,-0.26l0.14,-0.26l0.08,-0.22l0.17,-0.18l0.21,-0.03l0.2,0.13l0.19,0.1l0.26,0.03l0.32,-0.01l0.16,0.06l0.16,0.12l0.13,0.15l0.39,0.19l0.19,0.16l0.19,0.1l0.21,-0.05l0.35,-0.28l0.24,-0.09l0.22,0.17l0.06,0.31l-0.1,0.41l-0.15,0.35l-0.1,0.27l-0.25,0.42l-0.08,0.4l-0.19,0.05l-0.29,-0.2l-0.14,-0.01l-0.22,-0.07l-0.25,-0.37l-0.29,-0.08l-0.28,-0.02l-0.46,-0.2l-0.47,-0.11l-0.15,0.05l-0.23,0.19l-0.32,0.09l-0.22,0.23l-0.15,0.39l-0.13,0.23L502.21,474.8zM501.76,507.58l-0.18,-0.12l-0.63,-0.81l-0.02,-0.28l0.02,-0.28l0.46,-1.35l0.13,-0.23l0.15,-0.13l0.16,-0.05l1.85,0.1l0.81,0.63l-1.16,1.65l-0.32,0.34l-0.16,0.13l-0.18,0.1l-0.71,0.25L501.76,507.58zM506.4,462.27l-0.54,-0.53l-0.45,-0.52l-0.15,-0.26l-0.08,-0.18l-0.1,-1.48l0.09,-0.31l0.22,-0.26l0.21,-0.13l0.21,-0.05l0.31,-0.02l0.29,0.13l0.14,0.2l0.9,2.31l0.07,0.61l-0.08,0.27l-0.1,0.19l-0.22,0.19l-0.28,0.05l-0.18,-0.04l-0.19,-0.09L506.4,462.27zM500.31,534.9l-0.2,-0.3l-0.15,-0.14l-0.26,-0.19l-1,-0.67l-0.3,-0.16l-0.72,-0.28l-0.2,-0.17l-0.21,-0.3l-0.06,-0.22l1.84,-1.4l0.24,-0.12l0.19,-0.02l0.31,0.08l0.2,0.24l-0.01,0.35l-0.2,0.61l-0.01,0.26l0.17,0.33l0.41,0.63l0.27,0.31l0.3,0.23l0.2,0.21l-0.07,0.29l-0.16,0.14l-0.4,0.25L500.31,534.9zM494.21,477.89l-0.04,-0.23l-0.01,-0.38l0.05,-0.25l0.26,-1.07l0.09,-0.2l0.1,-0.19l0.19,-0.24l0.15,-0.12l0.18,-0.1l0.8,-0.38l0.34,0.01l0.16,0.13l0.06,0.21l-0.19,1.93l-0.43,1.07l-0.19,0.17l-0.17,0.11l-0.28,0.05l-0.19,-0.02l-0.73,-0.17l-0.14,-0.14L494.21,477.89zM505.49,483.13l-0.16,-0.06l-0.13,-0.21l-0.22,-0.65l-0.02,-0.31l0.13,-0.32l0.09,-0.19l0.39,-0.62l0.22,-0.27l2.08,-1.24l0.2,0.04l0.18,0.31l0.07,0.2l0.07,0.33l0.06,1.04l-0.22,-0.15l-0.13,-0.15l-0.23,-0.05l-0.6,0.06l-0.28,0.12l-0.26,0.96l-0.46,0.89L505.49,483.13zM487.36,521.51l0.06,-0.36l-0.04,-0.24l-0.13,-0.16l-0.61,-0.23l-0.26,-0.05l-0.29,-0.03l-0.25,-0.07l-0.17,-0.25l0.54,-0.58l1.77,-0.98l0.25,0.12l0.43,0.58l0.18,0.39l0.26,0.84l-0.07,0.32l-0.21,0.36l-0.13,0.16l-0.19,0.18l-0.41,0.23l-0.98,0.19L487.36,521.51zM503.86,481.69l-0.66,-1.57l-0.34,-0.6l-0.17,-0.51l0.16,-0.36l0.12,-0.16l0.52,-0.44l0.2,-0.05l0.98,0.35l0.04,0.69l-0.05,1.5l-0.07,0.3l-0.2,0.52l-0.44,0.31L503.86,481.69zM498.71,460.32l-0.26,-0.04l-0.88,-0.56l-0.88,-1.39l-0.02,-0.29l0.15,-0.24l0.16,-0.11l0.85,-0.28l0.28,0.13l1.62,2.32l-0.01,0.21l-0.9,0.23L498.71,460.32zM498.67,471.12l-1.34,-0.8l-0.15,-0.12l-0.21,-0.21l-0.26,-0.36l-0.06,-0.21l0.1,-0.28l0.19,-0.19l0.29,-0.11l0.23,-0.03l0.25,-0.01h0.64l0.28,0.09l0.19,0.17l0.24,0.31l0.17,0.31l0.54,1.35l-0.15,0.16l-0.24,0.1l-0.28,0.06l-0.36,-0.11L498.67,471.12zM503.55,454.29l-0.35,-0.08l-0.45,-0.13l-0.28,-0.15l-0.13,-0.14l-0.07,-0.26l0.07,-1.41l1.48,0.21l0.37,0.07l0.29,0.13l0.15,0.12l0.15,0.19l0.09,0.24l0.08,0.31l0.03,0.36l-0.06,0.3l-0.2,0.14L503.55,454.29zM516.06,443.82l-0.42,-0.09l-1.1,-0.55l-0.17,-0.27l-0.08,-0.38l0.04,-0.32l0.24,-0.52l0.18,-0.24l0.94,-0.51l0.28,-0.05l0.18,0.04l0.15,0.12l0.11,0.15l0.04,0.34l-0.21,2.09L516.06,443.82zM504.09,449.81l-0.25,-0.02l-0.17,-0.08l-0.55,-0.48l-0.24,-0.33l-0.46,-1.71l0.87,-0.96l0.21,0.05l0.89,1.07l0.5,0.64l-0.82,0.3l-0.05,0.31l0.01,0.25L504.09,449.81zM509.08,445.96l-1,-1.8l-0.41,-0.97l-0.01,-0.32l0.08,-0.31l0.19,-0.36l0.12,-0.15l0.32,0.01l1.02,1.39l0.31,1.38l-0.08,0.52l-0.4,0.5L509.08,445.96zM498.01,536.13l-0.29,-0.71l-0.71,-1.3l-0.07,-0.21l-0.02,-0.23l0.25,-0.27l0.23,0.01l0.37,0.17l1.06,0.61l0.71,0.49l0.25,0.2l0.12,0.24l-0.02,0.24l-0.19,0.18l-0.28,0.15l-0.77,0.39l-0.36,0.15l-0.18,-0.03L498.01,536.13zM499.41,469.12l-0.74,-0.6l-0.22,-0.2l-0.13,-0.15l-0.11,-0.22l0.02,-0.31l0.2,-1.06l0.18,-0.35l0.37,-0.03l0.19,0.1l1.15,1.08l-0.43,1.77l-0.16,0.12l-0.18,-0.04L499.41,469.12zM497.55,457.11l-0.54,-0.03l-1.77,0.01l-0.65,-0.33l0.01,-0.26l0.08,-0.2l0.57,-0.6l0.21,-0.13l0.28,-0.05l0.2,0.01l0.36,0.07l1.07,0.24l0.23,0.12l0.11,0.96L497.55,457.11zM497.57,507.29l-0.34,-0.72l0,-0.74l0.11,-0.18l0.86,-0.48l0.21,-0.07l0.48,-0.06l0.43,0.04l0.31,0.08l0.12,0.16l-0.04,0.31l-0.13,0.4l-0.12,0.18l-1.57,1.3l-0.23,0.14l-0.12,-0.23L497.57,507.29zM488.75,461.66l-0.14,-0.01l-0.21,-0.14l-0.47,-1.39l-0.06,-0.2l-0.03,-0.22l0.04,-0.26l0.15,-0.27l0.31,-0.43l0.33,-0.09l0.21,0.14l0.77,1.29V461l-0.66,0.62L488.75,461.66zM504.66,451.84l-1.48,-0.79l-0.21,-0.23l-0.29,-1.12l0.25,-0.1l2.25,0.71l0.07,1.63l-0.09,0.19l-0.28,-0.07L504.66,451.84zM499.56,454.76l-0.12,-0.03l-0.16,-0.14l-0.21,-0.27l-0.11,-0.22l-0.01,-0.24l0.09,-0.19l1,-0.47l1.42,-0.12l0.76,1.07l-0.72,0.2L499.56,454.76zM503.25,535.4l-0.12,-0.01l-0.3,-0.19l-1.21,-0.83l-0.86,-0.88l-0.13,-0.34l0.09,-0.3l0.29,-0.11l0.26,-0.01l0.15,0.01l0.31,0.08l1.38,0.96l0.17,0.13l0.14,0.22l0.06,0.23L503.25,535.4zM508.62,483.96l-0.14,-0.01l-1.38,-0.39l-0.35,-0.27l-0.11,-0.26l0.02,-0.28l0.68,-1.34l0.2,-0.15l0.16,-0.05l0.63,0.61l0.41,2.02L508.62,483.96zM508.57,459.86l-0.5,-0.31l-0.27,-0.22l-0.11,-0.81l0.1,-0.28l1.6,-0.41l0.2,0l0.19,0.16l0.04,0.22l-0.22,1.48l-0.25,0.27l-0.27,0.06l-0.36,-0.06L508.57,459.86zM506.09,447.18l-1.09,-0.21l-0.49,-0.15l-0.2,-0.15l-0.13,-0.15l-0.09,-0.17l-0.06,-0.25l0.53,-0.55l0.37,-0.3l0.31,-0.06l0.15,0.06l0.61,0.43l0.63,0.8l-0.1,0.37l-0.09,0.19l-0.16,0.08L506.09,447.18zM503.59,460.29l-0.36,-0.03l-1.47,-0.61l-0.2,-0.23l0.26,-0.18l0.8,-0.12l0.43,-0.09l0.2,-0.07l0.35,-0.19l0.25,-0.17l0.26,-0.07l0.57,0.14l0.13,0.24l-0.09,0.79l-0.16,0.19l-0.17,0.1l-0.51,0.23L503.59,460.29zM490.01,520.42l-0.12,-0.01l-0.56,-0.47l-0.12,-0.17l-0.34,-1.23l0.15,-0.14l0.33,-0.01l1.16,0.25l0.14,0.08l0.26,0.32l0.32,0.54l0.08,0.25l-0.16,0.29l-0.56,0.22L490.01,520.42zM493.01,456.88l-0.14,-0.08l-0.29,-0.46l-0.06,-0.2l-0.07,-0.45l-0.01,-0.37l0.03,-0.78l0.1,-0.26l0.13,-0.15h0.21l0.76,0.46l0.13,0.21l0.05,0.28l-0.02,0.27l-0.2,1.21l-0.33,0.22l-0.17,0.09L493.01,456.88zM505.32,471.86l-1.01,-0.3l-0.38,-0.13l-0.08,-0.19l0.08,-0.27l0.2,-0.15l0.64,-0.23l0.29,-0.04l1.45,0.03l0.18,0.1l0.04,0.29l-0.03,0.37l-1,0.5l-0.16,0.03L505.32,471.86zM506.24,449.93l-1.41,-0.27l-0.17,-0.2l-0.07,-0.68l2.2,-0.21l0.23,0.07l0.11,0.73l-0.03,0.3l-0.2,0.14l-0.21,0.05l-0.33,0.06L506.24,449.93zM517.82,438.01l0.62,-0.43l0.71,-0.14l0.54,0.57l0.36,0.14l0.24,0.02l0,0l-0.21,0.2l-0.9,0.08L517.82,438.01z"/>
		<path id="CL-MA" title="Magallanes y Antártica Chilena" class="land" 
d="M515.79,615.45l-0.32,-0.03l-0.48,-0.14l-0.49,-1.25l-0.25,-2.57l-0.1,-2.51l-0.28,-1.97l-0.22,-0.55L513,605.7l0.14,0.54l0.44,1.21l0.16,1.16l0.73,7.56l-0.13,0.8l-0.42,0.24l-0.46,-0.26l-2.79,-2.37l-0.28,-0.36l-0.21,-0.68l0.06,-0.88l-0.44,-1.51l-0.61,-1.68l0.71,-0.44l0.15,0.54l1.15,2.49l1.08,1.77l0.46,-0.16l-1.1,-2.43l-1.57,-3.57l0.54,-0.26l0.46,-0.32l0.64,-0.84l-2.06,0.59l-1.2,1.59l-0.88,-1.72l-0.41,-1.61l-0.91,-0.23l-0.72,-0.26l-0.33,-4.28l0.06,-0.54l0.28,-0.76l1.3,0.41l1.46,1.68l0.39,0.91l0.73,1.83l0.19,1.01l0.19,-0.13l0.09,-0.59l-1.38,-4.17l-1.2,-4.51l0.57,-0.39l0.54,0.85l0.15,0.64l-0.29,-2.49l-0.32,-0.37l-0.35,0.23l-1.38,1.66l-0.35,0.27l-0.29,0.08l-2.61,-0.76l-0.64,-0.51l-0.34,-2.55l-0.86,-0.62l-0.33,-0.26l-0.16,-2.41l0.34,-0.57l0.62,-0.46l0.59,-0.23l3.27,-0.01l0.32,0.22l0.49,0.81l1.02,-2.83l-0.02,-2.29l0.42,-0.6l1.22,-0.38l0.46,0l0.82,0.56l0.19,0.7l0.42,0.3l0.43,-0.99l-0.87,-0.88l-0.68,-0.13l-0.58,-0.18l-0.95,-1.09l-0.04,-0.5l0.27,-0.52l0.34,-0.11l0.48,-0.11l0.37,-0.24l0.25,-0.3l0.45,-1.88l-2.64,2.61l-0.23,0.48l-0.37,1.42l-0.4,1.9l0.12,0.55l0.09,0.64l-0.15,0.41l-1.5,1.46l-0.27,0.15l-1.37,-0.16l-1.08,-1.27l-0.58,-1.46l-1.02,-2.29l-0.8,-2.75l1.07,-0.37l1.3,0.5l0.36,0.26l0.32,0.31l0.34,0.28l0.42,0.21l1.85,0.3l-0.71,-0.5l-0.72,-0.24l-1.21,-0.9l-0.62,-0.76l-2.44,-0.22l-2.59,-1.85l-3.06,-3.09l-0.06,-0.66l0.33,-0.58l0.5,-0.58l0.7,-0.5l1.34,-0.45l0.84,0.29l1.19,-0.14l0.79,1.02l0.29,0.71l0.98,1.13l3.42,1.56l0.91,0.19l0.26,0.01l0.2,-0.18l-3.77,-1.79l-0.31,0.02l-0.33,-0.15l-0.44,-0.48l-2.32,-4.17l0.14,-0.91l0.33,-0.51l0.98,0.13l0.67,0.21l1.38,1.53l3.33,1.38l0.05,-0.66l-0.19,-0.62l-1.54,-0.68l-1.28,-0.55l-2.82,-1.47l-0.39,-0.58l-0.34,-1.47l1.46,-0.84l0.75,-0.27l0.69,-0.12l0.44,0.17l0.58,-0.14l0.14,-0.68l-1.81,0.26l-1.26,0.34l-0.28,-0.08l-0.32,-0.91l-0.09,-1.11l0.09,-0.53l1.11,-1.13l1.87,-0.64l0.34,-0.1l1.99,0.48l0.25,0.47l0.31,1.25l0.38,0.65l0.52,0.26l0.42,0.13l0.93,0.96l0.37,1.3l0.16,-0.7l-0.29,-0.99l-0.35,-0.83l-0.27,-0.26l-1.08,-0.1l-0.36,-1.5l0.05,-1.25l-0.58,-0.42l-1.08,0.14l-1.48,-0.49l-0.23,-0.3l-0.16,-1.51l0.55,-2.96l0.21,-0.33l0.44,0.01l0.52,0.47l0.17,0.45l0.3,0.48l0.72,0.43l0.44,0.14l0.55,-0.15l-0.64,-0.38l-0.45,-0.11l-0.26,-0.2l-0.8,-1.32l-0.43,-3.5l0.17,-0.42l0.45,-0.61l0.25,-0.27l0.34,-0.17l0.45,-0.02l0.41,0.28l0.28,0.31l0.49,0.06l-0.04,-0.48l-0.88,-0.47l-2.14,0.24l-0.11,0.89l0.14,1.96l-0.95,1.77l-0.59,1.83l-0.14,1.21l-0.49,2.97l-0.31,0.46l-0.33,0.06l-0.36,-0.25l-1.55,-2.09l-0.33,-1.86l-0.03,-3.92l0.05,-4.29l-0.22,-0.72l-0.3,-0.69l-0.25,-1.09v-0.68l0.15,-0.47l0.87,-1.43l0.58,0.39l0.43,0.16l0.34,-0.08l0.56,-0.43l0.44,-0.15l1.17,0.11l0.94,0.37l0,0l4.92,4.28l3.39,2.93l4.21,3.63l0.24,0.17l0,0l1.15,0.32l-0.7,0.8l-4.08,0.12l-0.59,0.04l-1.07,2.87l-0.6,2.13l0.19,0.4l0.76,1.01l0.98,4.07l-0.28,0.4l-0.51,0.48l-0.39,0.48l-0.36,1.94l0.56,0.62l0.35,0.33l0.28,0.4l-0.06,0.67l-0.39,0.54l-0.33,0.69l-0.16,0.72l0.2,0.63l1.23,0.95l1.24,1l0.24,0.3l0.21,0.39l0.57,1.36l0.16,0.6l0.24,3.22l0.29,2.18l0.75,3.17l0.26,0.43l0.3,0.25l0.4,0.06l0.36,-0.09l0.45,-0.16l0.49,-0.27l0.49,-0.44l0.83,-1.13l0.28,-0.26l0.47,-0.29l1.52,-0.75l0.41,0l0.4,0.38l0.25,0.34l0.28,0.25l0.46,0.18l0.46,-0.06l0.28,-0.21l0.32,-0.63l0.31,-0.39l0.35,-0.18l0.38,-0.06l1.72,0.25l1.09,0.86l-0.09,0.55l-0.54,1.21l0.06,0.55l0.45,0.55l0.32,0.45l0.37,0.7l0.16,0.51l-0.33,3.51l-0.23,0.45l-0.74,0.09l-0.87,1.67l0.27,1.15l0.34,0.48l0.36,0.27l0.51,0.28l0.58,0.76l-0.19,0.62l-0.42,0.44l-0.27,0.61l-0.02,1.09l0.05,0.9l-0.54,1.95l-0.31,0.32l-0.44,0.33l1.58,4.17l0.44,0.25l0.71,0.12l0.38,0.18l0.29,0.19l0.36,0.27l0.68,0.56l1.82,2.07l0.25,0.61v0.76l0.45,1.88l3.07,0.03l6.56,0.01h11.36l4.61,-0.03h1.59l0.79,0.33l2.52,1.15l4.33,1.92l2.47,0.01l0.77,-0.01l2.86,1.19l0.59,0.26l0.79,0.57l1.52,1.14l1.44,0.24l1.12,0.17l1.04,0.19l1.99,0.54l-0.08,1.14l-0.52,-1.02l-0.44,-0.2l-2.43,-0.41l-1.7,-0.09l-0.29,0.03l-1.76,-0.34l-0.57,-0.23l-0.29,-0.2l-0.58,-0.53l-0.35,-0.29l-0.69,-0.43l-0.5,-0.23l-0.51,-0.05l-0.32,-0.01l-0.82,0.08l-2.51,1.13l-0.36,0.28l-0.18,0.39l-0.04,0.66l-0.07,1.61l-0.95,1.59l-0.35,0.46l-0.74,0.74l-0.25,0.36l-0.33,0.23l-1.51,-0.23l-0.41,-0.41l-1.47,0.33l-3.23,1.43l-0.42,0.22l-4.63,2.79l-0.45,0.04l-2.22,0.28l-1.81,0.33l-0.45,3.43l0.19,0.67l0.27,0.31l-0.01,1.72l-1.1,3.23l-0.27,0.48l-0.31,0.36l-0.23,0.51l-0.13,0.71l-0.53,4.03l0.02,0.77l0.05,0.58l0.16,0.79l0.22,0.61l0.19,0.78l0.11,0.68l0.07,0.89l-0.07,0.76l-0.5,3.06l-0.3,0.62l-0.7,0.88l-2.67,1.25l-0.71,0.27l-2.39,-1.22l-0.43,-0.13l-0.61,-0.08l-0.65,-0.05h-0.32l-0.57,-0.07l-0.92,-0.28l-2.2,-1.63l-1.16,-0.31l-1.64,-0.5l-0.92,-0.51l-2.46,-2.56l-0.85,-1.27l-0.68,-1.11l-0.34,-0.63l-0.46,-1.21l0.42,-2.02l1.98,-1.76l2.44,0.3l0.41,1.11l0.09,0.54l-0.06,0.87l-0.19,0.57l-0.91,0.62l-0.99,0.53l0.55,0.23l1.19,-0.36l0.49,-0.32l0.83,-0.62l0.09,-0.5l-0.08,-0.78l-0.13,-0.97l-0.04,-0.51l0.13,-0.76l0.34,-0.45l1.76,0l0.42,0.51l0.72,4.4l-0.17,0.58l-0.28,0.29l-0.45,0.38l-1.34,0.77l-0.39,0.17l-0.5,0.36l-0.01,0.69l0.13,0.12l0.7,-0.44l1.69,-0.65l0.44,-0.29l0.6,-1.2l-0.08,-1.57l-0.19,-1.15l0.09,-1.46l0.41,-1.69l3.72,-1.95l0.43,0.04l0.38,-0.01l0.44,-0.12l0.3,-0.18l0.29,-0.22l0.27,-0.3l2.85,-4.98l0.15,-0.59l-0.69,-1.25l-1.25,-0.37l-1.36,-0.09l-3.62,1.98l-3.02,1.93l-1.17,0.98l-0.23,0.64l-1.49,2.31l-0.8,0.23l-0.41,-0.03l-0.52,-0.35l-0.3,-0.39l-0.29,-0.55l-0.26,-0.46l-0.28,-0.29l-1.17,-0.41l-3.04,0.78l-0.4,0.47l1.15,-0.15l1.42,0.01l2.19,1.89l0.3,0.62l-0.17,0.44l-1.99,0.61l-0.46,-0.1l-0.55,-0.49l-1.03,-0.32l-0.69,0.36l0.36,0.62l0.52,0.23l0.3,0.01l0.44,0.23l-1.4,2.75l-0.45,0.19l-0.74,-0.24l-0.42,-0.59l-0.25,-0.29l0.12,0.9l1.19,1.4l0.39,-0.35l0.41,-0.09l1.45,2.22l0.21,0.59l-0.25,0.44l-1.37,0.22l-0.15,0.01l-0.39,-0.47l-2.78,-2.3l-1.9,-1.07l-1.09,-0.77l-0.32,-0.45l-1.5,-1.22l-0.29,-0.13l-0.43,-0.02l-0.36,-0.14l-0.97,-0.92l-1.23,-1.75l3.17,0.2l1.12,-0.24l0.76,0.12l1.37,1.13l1.01,1.7l0.32,0.33l0.62,-0.08l0.23,-1.24l-0.8,-0.72l-0.59,-0.65l0.49,-0.98l0.64,0.15l0.81,0l-0.68,-0.48l-0.97,-0.19l-0.4,0.12l-0.36,0.42l-0.37,0.12l-1.23,-1.07l0.37,-0.45l0.17,-0.24l0.31,-1.07l-0.58,-0.8l-0.43,-1.38l-0.12,-1.85l0.6,-0.77l2.79,-1.84l1.94,1.19l1.66,0.55l0.64,-0.18l1.69,-1.45l1.68,-1.98l0.2,-0.46l2.33,-0.34l1.6,1.15l0.68,0.16l0.79,0.05l1.04,-0.04l0.55,-0.07l0.41,-0.06l0.47,-0.16l2.03,-1.01l-0.61,-1.45l-0.36,-0.29l-0.56,-0.02l-0.35,0.12l-0.44,-0.01l-1.84,-0.3l-2.12,-0.48l-3.04,-0.38l-2.07,0.1l-0.5,0.11l-0.46,0.59l-0.36,0.88l-0.73,1.65l-1.79,-1.52l0.68,-1l0.39,-0.29l0.44,0.03l0.64,-0.34l-0.3,-0.4l-1.53,0.5l-0.3,0.26l-1.2,0.15l-2.28,-0.01l-1.55,1.93l0.25,0.29l1.02,-0.67l1.83,0.7l0.04,0.54l-1.08,1.58l-0.64,0.65l-0.94,0.83l-0.86,0.18l-0.36,0.11l-0.42,0.55l-0.35,0.61l0.46,1.46l0.38,1.58l-0.05,1.02l-0.42,0.91l-1.5,0.54l-0.09,0.08l-0.47,0.26l-1.12,0.11l-1.64,-0.69l-1.86,-1.77l1.96,-1.49l1.09,-1.16l-1.74,-0.25l-2.83,-1.81l0.72,-0.58l1.32,0.1l0.35,0.4l2.23,-0.27l-0.3,-0.73l-0.05,-0.89l2.21,-4.93l0.6,-0.34l1.22,0.23l0.75,0.23l0.43,0.11l-0.39,-0.54l-1.35,-0.3l-0.44,-0.06l-0.42,0.04l-1.08,0.22l-0.38,0.39l0.21,1.24l-0.12,0.45l-1.36,2.12l-0.54,0.02l-0.34,-0.23l-0.11,-0.47l-0.04,-1.02l-0.39,-0.23l-0.35,0.15l-1.6,1.39l-0.8,0.83l-0.52,0.88l-0.23,0.47l-1.17,-0.56l0.15,-2.87l0.76,-0.95l0.57,-0.17l0.38,0.19l0.18,-0.4l-0.68,-0.22l-0.25,-0.45l-0.72,-2.12l0.01,-0.7l0.23,-0.43l0.42,0.11l0.42,0.07l0.37,-1.23l-0.26,-2.17l-0.86,-1.52l-1.12,-1.67l-0.23,-0.62l0.11,-0.76l0.4,-0.33l0.37,0.41l0.22,0.85l1.7,2.66l0.43,0.06l0.67,-0.53l1.7,1.1l0.33,0.09l0.83,-0.18l0.32,-0.27l0.36,-1.01l0.72,-1.13l0.96,-0.51l1.04,-0.52l0.54,0.08l0.04,1.64l-0.05,1.07l1.07,1.44l0.64,0.33l0.49,-0.56l0.83,-3.24l-0.16,-0.86l-0.46,0.48l-0.45,1.23l0.02,0.58l-0.41,0.97l-0.95,-0.69l-0.01,-1.98l1.17,-2.97l0.85,-0.44l1.53,1.13l-0.06,1.31l0.56,0.98l0.56,0.29l0.26,0.26l0.69,1.35l0.28,0.69l-0.59,2.81l-0.48,0.57l-1.88,0.77l-2.66,1.68l0.42,0.16l1.12,-0.41l2.64,-1.05l0.77,-0.5l1.28,-1.33l0.33,-2.62l-0.21,-0.5l-0.96,-1.18l-1.41,-1.85l-0.25,-1.98l0.46,-0.43l1.64,0.26l0.37,-0.18l0.31,-0.32l0.2,-0.37l-0.17,-3.01l-0.54,-1.39l-2.16,-2.57l-0.77,-0.73l-0.37,-0.2l-0.62,-0.11l-0.67,-0.02l-1.23,-0.55l-1.96,-1.33l-0.31,-0.54l-0.57,-0.46l-0.61,0.11l-1.18,0.34l-0.39,0.47l0.19,0.4l0.56,0.24l0.35,-0.11l0.56,-0.41l1.25,0.38l1.24,0.67l1.8,1.59l2.02,2.05l0.32,0.16l1.64,0.46l0.3,0.4l-0.23,1.14l-0.86,0.99l-1.33,0.12l-1,-0.69l-0.35,-0.75l-2.34,-1.06l-2.83,-2.12l-0.91,-0.59l-0.6,0.08l0.81,2.2l0.47,0.29l0.55,0.11l0.39,-0.01l0.5,-0.25l0.51,0.32l0.38,0.41l0.47,0.81l-0.88,1.48l-0.33,0.22l-0.56,0.12l-0.97,0.32l1.71,-0.25l0.89,-0.73l0.52,-0.32l0.48,0.34l0.15,0.61l-0.47,0.5l-0.98,0.41l-0.87,0.44l-0.72,0.47l-0.23,0.59L515.79,615.45zM580.49,679.66l-0.02,2.38l-0.08,0.09l-0.1,0.03l-0.24,-0.02l-0.17,-0.09l-0.3,-0.3l-0.51,-0.59l-0.29,-0.22l-1.91,-0.93l0.57,1l0.15,0.19l0.19,0.23l0.35,0.25l0.6,0.25l0.15,0.49l-0.3,0.41l-0.46,0.22l-2.25,0.45l-1.51,0.17l-0.34,-0.01l-0.29,-0.06l-5.25,-1.93l-0.98,-0.39l-1.49,-0.81l-0.14,-0.56l0.08,-0.27l0.42,-0.46l0.07,-0.27l-0.06,-1.53l-0.15,0.02l-1.09,0.75l-0.1,1.46l-0.26,0.54l-4.96,1.09l-1.75,0.12l-0.47,0.02l-0.48,-0.13l-0.36,-0.24l-0.2,-0.48l-0.05,-0.81l0.23,-0.37l0.3,-0.38l0.75,-1.3l0.06,-0.33l-0.17,-0.14l-1.23,1.58l-0.38,0.83l-0.14,0.4l-0.01,0.25l-0.43,0.16l-0.54,-0.15l-2.79,-0.18l-1.55,0.8l-0.2,0.05l-0.17,-0.01l-0.55,-0.14l-0.3,-0.21l-0.2,-0.33l0.68,-0.87l0.24,-0.19l0.22,-0.08l0.57,-0.12l0.43,-0.16l0.86,-0.51l1.22,-0.8l0.26,-0.24l0.83,-1.21l0.08,-0.29l-0.12,-0.13l-0.29,-0.03l-0.86,0.04l-0.19,0.06l-0.95,1.05l0.22,0.22l0.36,0.23l-0.1,0.21l-0.66,0.42l-1.28,0.45l-1.02,0.27l-1.38,-0.06l-0.32,-0.77l0.2,-0.13l0.63,0.01l1.12,-0.37l0.15,-0.17l-0.16,-0.17l-0.21,-0.05l-0.15,0.01l-0.89,0.27l-0.92,0.75l-1.09,1.4l-0.36,0.1l-0.14,-0.18l0.01,-0.3l0.13,-0.3l0.13,-0.21l0.21,-0.29l0.13,-0.22l0.11,-0.25l0.38,-1.59l-0.03,-0.52l-0.62,-0.14l-0.38,0.29l0.05,0.35l-0.08,0.27l-0.21,0.3l-1.51,0.87l-0.23,0.11l-1.31,-0.58l-0.28,-0.15l-0.14,-0.2l-0.01,-0.27l0.18,-0.16l0.21,-0.03l0.2,-0.76l-0.06,-0.91l-1.01,-1.36l-0.27,0.02l-0.68,0.77l-1.07,2.8l-0.1,0.54l-0.15,-0.02l-0.22,-0.13l-2.26,-1.71l-0.17,-0.22l-0.4,-0.05l-0.42,0.15l-0.6,0.54l-0.3,0.42l-0.27,0.11l-1.36,0.09l-0.15,-0.02l-0.34,-0.1l-0.22,-0.24l-0.15,-0.46l-0.33,-1.43l-0.11,-1.44l0.11,-1.14l0.17,-0.17l0.21,-0.03l0.76,0.29l0.67,0.75l0.2,0.52l0.05,0.27l0.19,0.31l0.27,0.16l1.06,0.42l0.89,0.31l0.17,0.01l1.33,-0.69l-1.65,-1.92l-0.32,-0.18l-0.19,0.04l-0.49,0.25l-0.23,0.01l-0.62,-0.39l-0.18,-0.25l-0.11,-0.76l0.81,-0.47l0.37,-0.04l0.32,0.03l0.15,0.03l0.26,0.27l0.15,0.63l0.98,1.43l0.24,0.19l0.23,0.11l0.53,0.13l1.02,-0.41l0.07,-0.24l-0.25,-0.25l-0.84,-0.12l-0.23,-0.12l-0.16,-0.17l-0.23,-0.43l-0.15,-0.54l0.23,-0.3l0.19,-0.02l2,0.88l1.01,-0.47l-0.67,-0.4l0.27,-0.38l0.54,-0.39l0.22,0.01l2.37,1.44l3.11,0.95l0.47,-1.31l0.01,-0.33l-0.02,-0.3l-0.04,-0.28l-0.13,-0.61l0.15,-0.28l0.6,-0.38l0.56,-0.18l0.62,-0.03l0.49,0.03l1.54,0.16l0.15,0.03l0.55,0.21l0.08,0.21l-0.83,1.28l-0.57,1.37l-0.3,1.45l-0.29,1.95l0.49,-0.58l1.08,0.95l-0.65,-1.22l-0.11,-0.22l-0.14,-0.55l0.06,-0.41l0.46,-1.45l0.11,-0.23l0.3,-0.46l0.19,-0.23l0.55,-0.54l0.24,-0.01l0.18,0.44l0.2,0.34l1.49,1.29l0.49,0.22l0.18,0.12l0.16,0.15l0.75,0.63l0.15,0.19l0.13,0.2l0.16,0.34l0.19,0.31l0.3,0.13l0.29,0.03l1.58,-0.69l-1.32,-1l-0.34,-0.25l-0.6,-0.33l-0.35,-0.16l-0.71,-0.38l-0.26,-0.15l-0.31,-0.21l-0.56,-0.4l-0.17,-0.25l-0.71,-1.26l0.13,-0.47l-0.05,-0.37l-0.21,-0.37l-0.18,-0.24l-0.23,-0.27l-0.35,-0.24l-0.84,-0.28l-0.28,-0.05l-0.62,-0.07l-1.22,0.07l-0.5,-0.02l-0.26,-0.07l-0.2,-0.14l-0.27,-0.27l-0.2,-0.34l-0.55,-2.27l0.54,-0.17l0.35,0.31l1.07,0.79l1.88,0.98l4.31,2.44l2.67,2.49l0.25,0.12l0.98,-1.12l0.05,-0.25l-0.17,-0.17l-1.02,-0.25l-0.25,-0.09l-0.33,-0.34l-0.13,-0.28l0.03,-0.27l0.92,-0.9l0.53,-0.47l0.24,-0.18l0.2,-0.04l0.15,0.02l0.69,0.49l0.49,0.68l1.45,3.18l1.04,2.69l0.35,0.44l0.26,-0.13l0.2,-1.77l-0.94,-2.3l-0.54,-1.24l-0.24,-0.18l-0.31,-0.32l0.23,-0.61l0.13,-0.12l0.32,-0.01l0.57,0.16l1.6,0.84l0.33,0.34l0.37,0.5l3.5,0.87l1.89,1.13l0.2,0.14l0.13,0.2l0.07,0.35l-0.04,0.27l-1.06,1.31l-0.15,0.11l-0.53,0.31l-0.2,0.23l-0.57,1.21l-0.17,0.42l0.45,1.32l0.15,0.16l0.15,-0.85l0.51,-1.28l0.37,-0.82l0.16,-0.35l0.18,-0.24l0.44,-0.33l0.3,-0.09l0.17,0.07l0.13,0.2l0.19,0.47l0.23,0.61l0.07,-0.07l0.34,-0.59l-0.21,-0.84l-0.15,-0.35l-0.02,-0.5l0.1,-0.37l0.2,-0.39l0.16,-0.09l0.64,0.01l0.15,0.02l0.42,0.18l0.53,0.47l0.19,-0.03l0.19,-0.21l0.02,-0.89l-0.21,-0.25l-0.2,-0.14l-0.93,-0.58l-2.64,-1.55l-1.95,-0.92l-0.38,-0.13l-1.18,-0.51l-0.2,-0.14l-0.19,-0.23l-0.29,-0.47l-1.56,-0.63l-0.4,-0.11l-0.28,-0.05l-0.32,-0.03l-0.28,-0.05l-0.38,-0.13l-1.26,-0.5l-2.33,-1.64l-0.25,-0.27l-0.12,-0.29l-1.11,-3.71l-0.4,-2.07l-0.09,-0.56l-0.04,-0.45l0.05,-0.49l0.28,-0.52l0.25,-0.24l3.24,-2.09l0.19,-0.05l0.44,0.06l0.31,0.02l0.17,0.01l0.29,-0.03l0.74,-0.25l5.7,-3.19l0.19,-0.14l0.19,-0.35l0.07,-0.47l0,-0.25l-0.23,-2.44l-0.13,-0.32l-0.27,-0.26l-2.72,-0.23l-0.46,0.02l-4.11,0.63l-0.14,0.04l-0.59,0.22l-0.51,0.32l-0.58,0.48l-0.18,0.23l-0.32,0.55l-0.27,0.17l-1.84,0.84l-0.21,0.04l-0.15,-0.02l-0.23,-0.11l-0.29,-0.21l-2.6,-2.18l-0.09,-0.24l-0.4,-1.84l-0.09,-1.18l0.01,-0.32l0.42,-4.26l0.08,-0.33l0.09,-0.24l0.2,-0.28l1.08,-1.3l0.18,0.17l-0.21,0.56l-0.03,0.37l0.28,1.15l0.24,0.06l1.64,-0.53l0.23,-0.09l0.3,-0.19l0.17,-0.16l0.15,-0.17l0.13,-0.19l0.1,-0.23l0.38,-1.35l0.04,-0.29l-0.03,-0.38l-0.14,-0.25l-1.48,-0.26l-0.67,-1.07l-0.02,-0.29l-0.13,-0.34l-0.26,-0.29l-0.34,-0.16l-0.43,-0.07h-0.16l-0.28,0.04l-0.39,0.08l-0.2,-0.05l-0.08,-0.21l0.33,-0.48l0.4,-0.24l2.61,-0.48l0.27,-0.04l0.35,0.07l0.36,0.21l0.15,0.16l0.19,0.29l0.21,0.51l0.48,0.72l0.22,0.27l0.35,0.3l0.35,0.14l0.29,0.04l0.29,-0.03l0.34,-0.14l2.47,-1.47l0.3,-0.27l0.26,-0.38l1.29,-2.2l0.13,-0.44l0.02,-0.31l-0.08,-1.88l0.3,-0.35l0.31,-0.25l1.61,-0.86l0.5,-0.16l0.8,1.04l0.13,0.19l0.09,0.23l0.06,0.26l0.03,0.29l0.12,0.28l1.58,2.17l0.16,0.16l0.43,0.38l0.38,0.26l0.39,0.1l0.23,-0.01l0.39,-0.17l1.61,-0.8l1.85,-1.22l0.18,-0.14l0.2,-0.29l1.66,0.67l1.1,0.85l-0.01,0.21l-0.03,3.38l-0.05,11.36l0.01,1.47l-0.02,4.09l-0.04,7.91l-0.03,3.8l-0.04,8.16l0.02,0.5l-0.02,4.66L580.49,679.66zM493.34,569.41l-0.17,-0.04l-1.07,-0.6l-0.28,-0.36l0.4,-0.77l0.44,-0.41l0.9,-0.6l0.37,-0.16l0.31,0.21l0.49,0.34l-0.68,-0.92l-0.38,-0.08l-0.41,0.18l-1.17,0.96l-0.49,0.1l-0.36,-0.63l0.09,-1.04l0.28,-2.06l-0.5,-2.25l0.5,-3.26l0.59,-0.62l0.84,-0.68l1.83,-2.55l-0.56,0.2l-0.87,1.16l-1.58,1.86l-1.14,0.76l-0.22,-0.45l-0.11,-0.89l-0.5,0.64l-0.05,0.6l0.02,1.12l0.03,0.84l0.24,0.56l0.36,0.5l-0.31,2.9l-0.44,1.99l-0.48,-0.11l-1.32,-1l-1.03,-2.08l-1.15,-2.66l0.34,-1.29l-0.28,-1.54l-0.49,-0.89l-0.6,-0.62l-0.49,0.23l-0.44,0.26l-0.35,-1.17l-0.07,-0.67l-0.02,-1.22l0.54,-0.69l0.32,-0.12l0.31,0.07l0.75,1.34l0.17,0.59l0.51,1.07l1.14,1.48l0.41,0.29l0.12,0.04l0.02,-0.18l-0.53,-0.94l-0.51,-0.71l-0.26,-0.34l-0.3,-0.48l-0.61,-1.45l0.05,-1.04l0.67,-0.17l0.31,0.37l0.77,1.28l0.44,0.15l1.21,-1.65l0.15,-0.42l-0.33,-0.9l0.48,0.36l1.14,1.4l0.83,1.1l0.41,-1l0.88,-4.21l-0.89,-1.06l-0.52,-0.55l-0.32,-0.22l-0.29,-0.48l-0.77,-1.73l-0.53,-1.48l0.17,-0.95l1.03,-0.78l1.95,-1.36l1.4,-0.36l2.85,0.68l0.25,0.88l0.35,3.21l0.34,0.95l0.06,0.45l-0.11,2.71l0.45,2.34l0.07,0.47l-0.01,1.85l-0.38,2.65l-0.27,1l-0.34,0.59l-0.13,0.84l0.33,0.98l-0.71,0.78l-0.7,1.51l0.04,0.64l0.94,-0.96l-0.06,-0.43l0.04,-0.46l0.89,-0.19l0.35,0.41l0.33,0.7l0.08,1.38l-0.73,4.25l-0.19,0.35l-0.9,1.1l-1.22,1.09l-0.45,0.13L493.34,569.41zM581.48,692.68l-0.31,-0.04l-0.33,-0.1l-0.29,-0.4l-0.27,-0.67l-0.35,-0.33l-0.42,0.01l-0.5,0.4l1.99,2.14l0.79,-0.23l0.42,-0.27l0.35,-0.16l0.44,-0.07l0.7,0.13l0.96,0.42l2.57,1.26l0.26,0.51l-0.11,0.7l-0.23,0.51l0.6,0.19l0.85,-0.11l-0.59,1.32l0.88,1.48l0.43,0.18l0.69,0.09l-0.17,2.01l-1.05,1.02l-0.18,0.15l-0.07,0.03l-0.39,-0.09l-0.19,-0.37l-0.47,-0.74l-1.12,-1.29l-0.56,-1.24l0.17,-0.93l-1.56,-1.32l-0.28,-0.09l-0.48,0.6l-0.82,0.06l-0.96,-0.87l-0.98,-0.06l-1.72,0.02l-0.57,0.71l-0.78,0.34l-0.36,-0.01l-0.63,-0.49l-0.64,-0.76l-0.41,-0.82l0.47,-0.71l0.95,-0.29l0.37,-0.06l0.35,0.15l0.48,-0.11l0.2,-1.26l-1.82,0.65l-0.21,-0.48l0.27,-1.42l0.43,-1.26l0.58,-0.63l0.14,-0.47l-2.24,1.74l-0.89,0.22l-1.61,-0.5l-0.36,-0.22l-0.39,-0.38l-0.32,-0.54l-0.4,-1.64l-1.84,0.34l-0.38,0.13l-0.32,0.23l0.9,-0.08l0.98,0.11l0.4,1.49l-1.51,0.57l-0.22,1.03l1.22,1.89l0.04,1.53l1.25,0.29l0.99,0.07l-0.12,1.48l-0.25,0.26l-2.21,-0.57l-1.47,0.28l-0.93,-2.18l0.38,-0.87l0.75,-0.18l0.26,-0.24l-1.01,-0.56l-0.39,-0.03l-1.14,1l-0.55,-1.07l-1.29,-0.59l0.08,-0.77l0.43,-0.84l1.1,-0.87l0.39,-0.12l0.47,-0.21l0.34,-0.49l-0.58,0l-0.63,0.39l-1.3,1l-2.13,0.62l-0.36,0.02l-0.88,-0.85l0.78,-0.14l0.3,-0.25l-0.87,-0.94l-1.58,-0.08l-0.24,-0.26l0.31,-0.71l1.12,-1.27l0.51,-0.25l1.46,-0.34l2.13,-0.24l3.98,-0.75l2.41,-0.63l2.88,-0.25l2.27,0.09l0.33,-0.07l1,-0.78l1.14,-0.21l2.09,-0.22l1.51,0.6l0.89,1.21l0.23,0.98l-0.17,0.65l-3.26,1.51l-0.25,0.38l-0.84,0.22l-1.75,-0.48l-0.73,-0.47l-0.51,-0.52l-0.45,-0.4l-0.29,-0.22l-1.6,-1.12l-0.3,0l-0.27,0.6l1.36,1.53l1,0.62l1.67,0.98l2.55,0.11l2.14,0.04l0.94,0.07l1.47,0.98l0.98,1.09l-0.08,0.48l-4.23,0.63L581.48,692.68zM514.02,656.32l0.7,-0.49l0.14,-2.31l-1.88,0.11l-0.61,0.45l-0.52,0.25l-0.42,0.13l-1.23,0.03l0.65,-0.53l0.41,-0.24l0.27,-0.32l-0.13,-0.97l-0.42,-0.03l-0.57,0.06l-0.44,-0.06l-0.31,-0.31l0.02,-0.96l0.19,-0.49l0.25,-0.24l0.61,-0.1l0.37,0.3l0.29,0.03l0.33,-0.24l0.45,-0.44l0.29,0.03l1.09,0.59l0.27,0.38l0.18,0.46l0.36,0.61l0.41,0.26l1.24,0.39l0.41,0.03l1.32,-0.04l1.29,-0.22l-0.02,-0.63l-0.43,0.01l-0.3,0.28l-0.97,0.08l-0.94,-0.11l-0.46,-0.07l-1.02,-0.27l-0.45,-0.31l-1.75,-2.83l-0.32,-0.92l0.62,-0.07l0.5,0.18l0.79,0.4l2.62,0.51l-0.38,-1.22l-0.61,-0.89l1.38,-0.46l1.07,0.12l1.26,0.52l0.54,2.6l-0.23,1.08l-0.26,0.92l0.45,1.35l0.85,-2.51l0.12,-0.75l-0.39,-0.89l-0.34,-0.91l1.04,0.38l0.74,0.93l0.87,2l1.22,-0.98l1.45,0.21l0.65,0.42l0.55,0.95l-0.06,0.67l-0.43,-0.05l-0.41,0.15l-0.26,0.49l0.6,1.6l0.48,-0.7l0.52,-0.64l1.57,0.64l0.33,0.26l1.36,1.77l-0.5,0.35l-0.25,0.07l-0.27,0.99l-0.47,0.31l-0.36,-0.04l-1.13,-0.25l-0.92,0.79l0.02,1.72l0.27,0.23l0.58,0.27l0.46,0.14l-0.06,1.12l-1.46,0.15l-1.5,1.3l-0.36,0l-0.31,-0.14l-0.59,-0.73l-1.21,0.64l-1.62,1.06l-0.73,-0.01l-1.71,-0.86l-0.43,-0.48l0.29,-0.41l1.62,-0.03l1.64,-1.09l0.7,-4.14l-1.05,-0.56l-0.39,0.25l-0.92,0.81l-0.45,0.2l-1.25,-0.08l-0.09,-0.55l-0.05,-0.63l-0.52,-0.22l-0.6,2.51l-0.02,0.59l-0.43,1.67l-1.29,-0.59l-0.5,-1.25l-0.49,-1.35l-0.31,-0.95L514.02,656.32zM588.59,682.59l1.37,0.01l1.46,0.17l1.24,0.12l1.97,0.09l0.9,-0.09l0.32,-0.02l1.8,-0.01l0.61,0.06l0.97,0.23l0.53,0.15l0.48,0.2l0.34,0.17l0.55,0.3l0.26,0.25l1.59,2.45l0.03,1.59l-0.37,1.08l-0.19,0.4l-0.13,0.21l-1.87,2.49l-0.14,0.11l-0.62,0.08h-0.17l-1.44,-0.44l-0.24,-0.1l-0.31,-0.2l-0.19,-0.24l-0.09,-0.25l0.04,-0.41l0.29,-0.36l0.16,-0.26l0.04,-0.27l-0.1,-0.23l-0.29,-0.31l-0.29,-0.22l-0.37,-0.13l-0.42,-0.1l-0.29,-0.01l-0.27,0.07l-0.48,0.21l-0.17,0.17l-0.13,0.21l-0.15,0.36l-0.14,0.62l0.04,0.62l-0.16,0.18l-0.22,0.04l-2.04,-0.15l-0.25,-0.09l-0.76,-0.46l0.21,-0.27l0.19,0l-0.02,-0.44l-0.43,-0.77l-0.27,0.1l-1.87,1.01l-0.46,0.28l-0.1,0.01l-0.31,-0.04l-0.24,-0.1l-0.21,-0.14l-0.26,-0.26l-0.1,-0.24l-0.56,-2.66l0.09,-0.42l-0.32,-2.35l-0.28,0.07l-1.3,0.07l-0.43,-0.54l-0.19,-0.86l0.23,-0.32l0.16,-0.09l1.89,-0.32L588.59,682.59zM513.18,642.96l0.95,-0.18l0.17,0.06l1.04,0.7l1.61,1.14l0.16,0.27l-0.15,0.34l-0.21,0.12l-0.15,0.01l-1.62,-0.1l-3.54,-0.94l-0.13,-0.65l-0.09,-0.28l-0.98,-0.45l-0.41,-0.87l-1.64,-1.57l-0.23,0.06l-1.38,-1.37l-0.88,-1.14l-1.2,0.27l-0.6,0.32l-0.68,0.43l-3.34,-0.13l-0.33,-0.2l-0.35,-1.39l-1.05,-1.31l-0.28,-0.01l-0.89,-0.23l-1.15,-0.91l-0.12,-0.27l0.12,-0.41l0.27,-1.13l-0.39,-0.63l-0.14,-0.1l-0.36,-0.08l-0.67,-0.33l-0.2,-0.13l-0.73,-0.98l0.6,-0.91l0.18,-0.02l0.66,0.45l2.05,2.01l0.8,0.95l0.55,1.29l0.62,0.71l1.58,0.36l0.18,-0.32l0.58,-0.16l0.96,-0.18l1.49,0.58l1.82,1.07l0.89,0.78l0.59,0.37l1.07,0.54l0.89,0.03l0.02,-0.45l0.68,0.17l0.6,0.8l0.1,0.19l0.25,1.01l-0.14,0.28l-0.22,0.28l-0.13,0.32l0.52,1.42l0.15,0.25l0.22,0.12l0.54,-0.98l-0.15,-0.44l-0.14,-0.53l-0.14,-0.82l0.18,-0.25l0.21,-0.02l0.26,0.08l0.41,0.18l1.56,1.95l0.06,0.27L513.18,642.96zM542.86,660.77l0.34,1.51l1.15,0.25l1.27,-0.56l0.97,0.68l0.13,0.28l0.26,1.84l0.06,2.22l-1.72,2.66l-0.17,0.16l-0.26,-0.02l-0.25,-0.25l-0.54,-0.71l-0.81,-0.19l-1.34,-0.62l-1.36,-2.55l-0.07,-0.41l0.11,-0.4l0.17,-0.16l0.45,-0.04l0.21,-0.12l0.1,-0.19l-0.55,-0.9l-1.17,0.97l-0.54,1.6l-0.08,0.26l-0.04,0.54l-1.44,-0.33l-0.25,-0.17l-0.3,-0.76l-0.15,-0.51l-0.11,-0.46l0.06,-0.33l0.84,-1.02l-0.36,-2.8l0.17,-0.54l0.3,-0.37l0.23,-0.18l0.6,-0.12l1.43,0.03l1.32,0.58l1.09,0.6l0.13,0.12L542.86,660.77zM553.63,665.98l-0.13,-0.04l-1.2,-0.49l-0.58,-0.27l-0.54,-0.3l-0.18,-0.15l-1.29,-1.21l-0.27,-0.31l-0.84,-1.56l-0.27,-2.43l-0.02,-0.3l0.02,-1.36l0.11,-0.23l0.77,-0.57l0.71,-0.27l0.23,0.04l1.23,0.42l0.31,0.28l0.18,0.07l0.15,0.02l0.26,-0.15l0.19,-0.32l0.01,-0.3l-0.14,-0.35l-0.25,-0.32l-0.19,-0.14l-0.62,-0.3l-0.13,-0.2l-0.08,-0.32l-0.06,-1.57l0.08,-0.34l0.43,-0.13l0.2,-0.13l0.19,-0.14l0.25,-0.24l0.32,-0.35l0.2,-0.29l0.11,-0.23l0.12,-0.39l0.11,-0.48l0.11,-0.31l0.12,-0.21l0.22,-0.19l0.66,-0.11l0.22,0.23l-0.07,1.77l-0.06,0.27l-0.08,0.27l-0.04,0.29l-0.02,0.49l0.01,0.31l0.04,0.29l0.7,3.34l0.82,2.1l0.52,1.44l-0.05,0.37l-0.29,0.33l-0.3,0.1l-0.53,0.03l-0.15,-0.02l-0.27,-0.07l-0.23,-0.11l-0.39,-0.28l-0.44,-0.4l-0.38,-0.61l-0.18,-0.23l-1.34,-1.33l-0.09,0.26l0,0.31l0.17,0.8l0.09,0.24l0.11,0.21l0.29,0.38l0.25,0.25l0.14,0.19l0.28,0.46l0.61,1.99l0.1,0.39l0.23,1.82L553.63,665.98zM537.32,659.09l-0.71,0.74l0.15,0.27l0.31,0.32l0.51,1.99l-0.05,0.39l-0.83,1.23l-0.26,0.33l-0.2,0.05l-0.15,-0.02l-0.53,-0.16l-0.21,-0.13l-0.18,-0.16l-0.22,-0.28l-1.2,-1.92l-0.03,-0.38l0.06,-0.52l-0.12,-0.21l-0.22,0.01l-0.16,0.35l-0.02,0.32l0.07,0.33l0.49,1.7l0.52,0.65l0.2,0.12l0.34,0.19l1.39,1.76l0.01,0.37l-0.13,0.29l-1.13,1.85l-0.15,0.1l-0.21,-0.01l-1.21,-0.28l-0.26,-0.5l0.19,-1.31l-2.24,-2.27l-1.29,-1.4l-0.19,-0.23l-0.14,-0.27l-0.09,-0.24l-0.41,-2.56l-0.06,-0.54l0.07,-0.39l0.6,-0.12l0.15,-0.01l0.15,0.03l0.87,0.37l0.2,0.22l0.17,0.48l0.6,-0.01l0.74,-1.77l0.23,-0.67l0.37,-0.2l0.29,-0.12l3.14,1.16l0.97,0.5l-0.06,0.39L537.32,659.09zM489.18,574.81l-0.3,0.47l-1.74,2.34l-0.18,0.21l-0.32,0.12l-1.04,-0.08l-0.15,-0.06l-0.06,-0.21l0,-0.33l0.16,-0.36l0.5,-0.32l0.4,-0.5l0.63,-0.92l-0.2,-0.19l-0.96,0.27l-0.7,0.46l-1.45,0.63l-0.19,0l-0.15,-0.15l0.01,-0.36l0.19,-1.55l0.35,-1.23l0.38,-1.08l0.11,-0.29l0.17,-0.22l0.19,-0.1l0.26,-0.02l0.24,0.09l0.95,0.4l0.06,0.22l-0.15,0.24l-0.14,0.09l-0.4,0.08l-0.57,0l-0.09,0.18l0.21,0.39l0.21,0.18l0.6,0.32l1.14,0.28l0.76,-0.12l-0.05,-1.09l-0.16,-0.68l-0.98,-0.31l-1.07,-0.69l-1.13,-0.96l-0.25,-0.8l1.16,-0.92l0.24,-0.03l2.25,0.56l0.17,0.14l1.87,2.28l-0.7,0.69l-0.21,0.25l-0.11,0.23l0.61,0.03l2.34,-0.57l0.25,-0.56L492,571l0.6,-0.27l0.21,0.25l0.14,0.48l-0.04,0.75l-0.25,0.7l-2.73,1.61l-0.2,0.11L489.18,574.81zM493.94,593.01l-2.34,-1.12l-1.07,-1.94l-0.06,-0.24l0,-0.36l0.06,-0.35l0.38,-1l0.17,-0.13l0.82,0.07l1.66,0.44l0.79,0.32l1.07,-0.59l0.08,-1.77l-0.04,-0.44l-0.14,-0.32l-0.38,-0.4l-0.17,-0.08l-0.24,-0.15l-0.09,-0.21l0.07,-0.24l0.31,-0.19l0.51,0.12l0.98,0.46l0.89,0.6l1.14,1.15l0.12,0.29l0.06,0.38l0.36,3.68l-0.29,1.3l-0.15,0.17l-0.18,-0.09l-0.06,-0.45l-0.22,-0.81l-0.4,-0.61l-0.22,-0.09l-0.16,0.05l-1.62,0.98l-0.28,0.94l-0.11,0.19l-1.17,0.41L493.94,593.01zM556.1,682.38l0.4,0.05l0.14,0.15l-1.85,0.86l-0.61,0.06l-0.28,0.24l-0.04,0.4l0.05,0.42l-0.13,0.23l-1.57,0.25l-0.49,-0.04l-0.38,-0.13l-0.32,-0.2l-0.17,0.1l-0.17,0.42l1.13,0.48l2.31,0.3l1.82,-0.3l0.22,-0.02l0.74,-0.03l0.14,0.08l0.09,0.49l0.21,1.5l-0.42,0.41l-0.38,0.04l-0.19,-0.07l-0.17,-0.16l-0.13,-0.38l-0.36,-0.4l-0.29,-0.06l-0.15,-0.06l-0.48,0.39l-0.05,0.57l0.13,0.21l0.38,0.21l0.31,0.05l0.16,0.1l0.09,0.24l-0.15,0.35l-2.1,0.97l-0.26,-0.03l-0.14,-0.2l-0.08,-0.34l-0.04,-0.46l0,-0.63l0.25,-0.55l-0.81,-0.96l-1.32,1.11l-0.31,-0.07l-3.08,-1.17l-1.01,-0.83l-0.11,-1.94l0.19,-0.24l0.21,-0.13l1.57,-0.34l1.17,0.27l0.6,0.19l0.66,0.33l1.77,0.06l0.25,-0.14l-0.78,-0.34l0.1,-0.25l1.44,-0.83l0.19,-0.06l0.87,-0.04L556.1,682.38zM501.21,587.15l-0.38,-1.04l-0.17,-0.21l-0.31,-0.23l-0.64,0.34l-0.07,0.24l-1.23,-0.47l-1.41,-1.13l-0.14,-0.17l-0.68,-1.52l-0.11,-0.33l-0.07,-0.44l0.06,-0.26l1.07,-1.04l1,-1.03l-1.07,-0.45l-0.15,-0.01l-0.5,0.18l-0.21,0l-1.51,-0.78l0.85,-0.78l0.18,-0.14l0.46,-0.3l0.26,-0.11l0.19,0.03l2.38,1.58l1.27,2.92l0.53,1.26l0.79,2.05l0.07,0.45l-0.03,0.53l-0.17,0.73l-0.14,0.1L501.21,587.15zM562.42,685.95l0.11,-0.71l-0.02,-0.3l-0.25,-0.55l-0.42,-0.14l-0.08,-0.37l0.32,-1.55l0.14,-0.11l0.85,-0.31l0.14,-0.03l1.57,-0.27l0.76,0.03l4.02,0.86l0.41,0.1l2.4,0.77l0.54,0.51l-0.25,0.17l-0.46,0.04l-2.66,0.67l-1.39,0.42l-2.1,0.38l-1.57,0.27L562.42,685.95zM505.37,630.17l-0.13,-0.01l-0.2,-0.13l-1.85,-2.17l-0.12,-0.27l0.01,-0.23l0.31,-0.86l0.14,-0.18l0.82,-0.96l2.27,-2.15l0.88,-0.58l0.2,-0.03l0.2,0.06l0.18,0.15l0.15,0.26l0.61,1.29l-0.82,2.91l-0.79,1.73l-0.11,0.22l-0.2,0.29l-0.25,0.12l-0.24,-0.08l-0.15,0.02l-0.48,0.29L505.37,630.17zM490.12,601.28l-0.13,-0.01l-0.32,-0.22l0.08,-0.59l1,-0.79l0.74,-0.33l0.3,-0.16l1.05,-1.16l0.12,-0.28l-0.15,-0.04l-1.53,0.86l-0.3,0.24l-0.29,-0.1l-0.16,-0.26l-0.06,-0.31l0.05,-0.27l0.12,-0.21l2.27,-2.44l1.11,-0.32l1.45,-0.06l0.64,0.76l0.11,0.2l0.36,1.01l-0.11,1.88l-0.18,0.31l-0.59,0.68l-0.14,0.09h-0.33l-0.18,-0.14l-0.5,-1.67l-0.58,0.31l-0.3,0.68l-0.62,1.33l-0.2,0.11l-0.61,0.13l-0.54,0.04l-0.78,0.1l-0.25,0.14L490.12,601.28zM485.3,585.82l-1.38,-0.38l-0.29,-0.12l-0.15,-0.17l-0.83,-2.31l0.12,-0.28l0.65,-0.67l0.46,-0.29l0.2,-0.02l0.21,0.04l0.36,0.25l0.08,-0.64l-0.44,-1.06l-0.41,-0.35l-0.49,-0.35l0.03,-0.31l0.68,-0.62l0.32,-0.04l2.9,0.64l1.23,0.07l0.14,0.15l-0.09,0.3l-1.42,1.88l-0.23,0.06l-0.16,-0.02l-0.26,-0.07l-0.22,-0.1l-0.25,-0.22l-0.04,0.63l0.06,1.45l0.06,1.65l-0.23,0.71l-0.25,0.17l-0.23,0.08L485.3,585.82zM487.41,566.08l-0.24,-0.42l-0.82,-1l-0.34,-0.12l0.12,0.67l0.11,0.4l0.01,0.23l-0.19,0.1l-0.34,-0.13l-0.45,-0.46l-0.27,-0.33l-0.37,-0.74l-0.01,-0.27l0.06,-0.27l-0.81,-0.63l-1.59,1.52l-0.28,-0.11l-0.39,-0.89l-0.07,-0.22l-0.16,-2.68l0.58,-0.77l2.55,-0.24l0.17,0.05l0.17,0.14l0.21,0.25l0.52,0.75l1.57,3.22l0.07,0.22l0.29,1.59L487.41,566.08zM490.4,616l-0.25,-0.47l-1.04,-2.93l1.24,-3.35l0.24,-0.33l0.43,0.47l0.05,0.24l-0.17,0.32l0.03,0.25l0.35,0.07l0.47,-0.07l0.3,-0.1l0.33,-0.4l-0.43,-2.76l-0.42,-1.14l-0.38,-0.19l-0.2,-0.19l-0.03,-0.25l0.16,-0.25l0.27,-0.2l0.2,-0.1l0.29,-0.07l0.9,0.34l0.23,0.31l0.06,0.24l0.21,2.03l0.07,0.75l-0.22,0.96l-0.71,2.81l-0.75,2.34l-0.71,1.26l-0.21,0.27l-0.17,0.14L490.4,616zM486.3,548.11l-0.79,-2.45l-0.13,-0.31l-1.42,0.71l-0.46,0.89l-0.12,0.18l-0.21,0.17l-0.31,0.04l-1.99,-1.56l-0.1,-0.19l-0.08,-0.2l-0.05,-0.37l0,-0.26l0.03,-0.3l0.05,-0.26l0.25,-0.69l0.16,-0.22l1.1,-0.37l2.5,0.17l0.23,0.08l0.54,0.23l0.17,0.14l0.3,0.43l1.13,3.1l0,0.27l-0.54,0.59l-0.16,0.13L486.3,548.11zM490.65,552.37l-1.33,-1.58l-2.1,-0.71l-0.64,-0.44l0.03,-0.36l0.13,-0.29l0.39,-0.7l0.19,-0.27l0.93,-1.18l2.06,0.13l0.38,0.3l0.78,0.88l0.06,0.77l-0.01,0.28l-0.51,3.59l-0.2,-0.16L490.65,552.37zM485.55,604.88l-0.11,-0.34l0.04,-1.78l0.59,-0.64l0.61,-0.97l0.13,-1.14l0.04,-1.6l-0.02,-0.38l0.03,-0.32l0.07,-0.26l0.11,-0.21l0.66,-0.6l0.23,-0.16l0.18,-0.01l1.79,1.59l0.12,0.69l-0.05,0.66l-0.07,0.26l-0.22,0.17h-0.19l-0.21,-0.19l-0.26,-0.05l-0.14,0.1L488,601.7l0.06,0.39l0.02,0.41l-0.03,0.37l-0.1,0.32l-0.17,0.4l-1.92,1.23l-0.16,0.06L485.55,604.88zM502.13,622.37l-0.64,-0.5l-0.53,-1.03l-0.1,-1.82l0.1,-0.23l0.22,-0.17l0.16,-0.07l0.3,0.04l0.34,0.17l0.16,0.16l0.36,0.21l0.17,-0.06l-0.57,-1.25l-0.15,-0.17l-0.36,-0.28l-1.24,-0.42l-0.81,0.12l-0.23,0.08l-0.33,-0.03l-0.28,-0.13l-0.4,-0.33l-0.03,-0.3l0.96,-0.91l0.25,-0.14l0.28,-0.1l0.15,-0.01l0.21,0.12l0.18,0.14l1.12,0.97l0.94,0.97l0.59,0.69l2.16,2.66l-0.01,0.32l-0.6,0.45l-1.8,0.94l-0.46,0.02L502.13,622.37zM482.65,552.24l-0.13,-0.02l-1.59,-0.87l-0.22,-0.16l-0.08,-0.21l0.78,-1.55l0.76,-0.52l0.2,-0.05l0.27,0.13l0.72,-0.68l0.4,-1.09l0.67,-0.87l0.25,-0.2l0.25,-0.11l0.17,0.06l0.21,0.51l0.54,1.54l0.06,0.3l-0.28,0.58l-0.24,0.37l-0.13,0.16l-2.03,2.21L482.65,552.24zM494.25,588.03l-1.14,-0.1l-0.57,-0.17l-1.5,-0.53l-0.18,-0.28l-0.36,-1.56l0.07,-0.76l0.08,-0.25l0.86,-1.11l0.99,-0.35l0.21,0.07l0.88,0.84l1.17,2.6l0.03,0.26l-0.15,0.84l-0.2,0.45L494.25,588.03zM501.87,612.19l-0.97,-0.18l-2.03,-1.24l-0.76,-0.97l-1.07,-3.13l1.84,0.62l2.87,2.35l1.16,0.8l-0.02,0.25l-0.6,1.28l-0.15,0.17L501.87,612.19zM546,683.78l-0.24,-0.02l-1.04,-0.5l-0.79,-0.68l-1.7,1.08l-0.22,0.11l-0.95,-0.27l-0.67,-1.49l0.75,-1.4l0.68,0.06l2.19,0.47l0.92,0.29l0.39,0.29l0.48,0.21l0.35,-0.07l0.31,-0.19l0.22,-0.29l0.17,-0.04l0.74,0.55l0.44,1.17l-0.29,0.13l-0.47,0.01L546,683.78zM508.11,618.46l-0.08,-0.2l-0.39,-0.72l-0.65,-1l-0.98,-1.04l-0.27,-0.21l-0.86,-0.6l-1.83,-1.1l-0.2,-0.13l-0.25,-0.22l-0.02,-0.81l0.26,-0.93l0.5,-0.38l0.18,0.04l0.27,0.21l2.41,2.21l0.74,0.71l0.51,0.52l0.13,0.26l0.73,1.67l0.31,1.26l0.01,0.37l-0.08,0.42l-0.22,-0.01L508.11,618.46zM503.87,608.72l-0.32,-0.09l-0.21,-0.11l-1.98,-1.47l-0.3,-0.26l-0.23,-0.31l-0.02,-0.42l0.11,-0.21l0.66,-0.14l0.62,0.01l0.74,-1.27l-0.23,-1.38l0.09,-0.23l0.13,-0.1l0.21,0.04l0.23,0.21l1.89,4.79l-0.01,0.36l-0.2,0.24l-0.18,0.13l-0.36,0.19l-0.3,0.08l-0.15,0.01L503.87,608.72zM598.94,704.65l0.02,-0.77l-0.13,-0.13l-0.76,-0.2l-0.85,0.22l-1.32,-0.47l-0.06,-0.64l0.19,-1.22l1.62,-1.79l0.83,-0.43l0.25,-0.01l1.21,3.68l0.23,1l-0.07,0.28l-0.32,0.28l-0.31,0.12L598.94,704.65zM491.81,616.54l-0.09,-0.04l-0.29,-0.55l1.46,-4.96l0.11,-0.31l0.3,-0.69l0.16,-0.34l0.16,-0.24l0.18,-0.02l1.85,0.26l-0.06,0.35l-2.34,5.18l-0.15,0.18l-1.19,1.1L491.81,616.54zM528.45,662.35l0.79,0.73l0.43,0.88l-0.62,1.34l-0.71,1.28l-0.29,0.11l-1.53,0.09l-0.54,-0.08l-0.31,-0.2l-0.16,-0.18l-0.14,-0.98l1.77,-2.7l0.29,-0.29l0.49,-0.25l0.37,0.03l0.13,0.11L528.45,662.35zM506.46,622.39l-0.59,-0.75l-0.47,-1.35l-1.22,-1.04l-1.1,-1.43l-0.11,-0.2l-0.12,-0.5l0.21,-0.31l0.45,-0.26l0.16,0.01l0.67,0.45l0.59,0.95l1.97,1.09l0.29,0.34l0.17,0.3l0.06,0.25l0.36,1.58l-0.06,0.37l-0.19,0.25l-0.61,0.34l-0.35,-0.01L506.46,622.39zM512.3,645.99l0.31,0.14l0.18,0.3l-1.01,1.37l0.91,1.29l0.1,0.36l-1.34,0.75l-0.29,-0.11l-1.91,-1.14l-1.75,-1.33l-0.22,-0.34l-0.25,-0.47l0.05,-0.25l0.24,0.01l0.51,0.56l0.47,0.36l0.3,0.21l0.24,0.1l0.15,0.03l0.59,0.05l1.21,-0.46l-0.02,-0.25l-0.13,-0.12l-0.44,-0.23l0.2,-0.91l1.63,0.04l0.16,0.01L512.3,645.99zM487.03,546.23l-0.28,-0.6l-1.18,-3.6l0.46,-0.03l0.71,0.23l0.21,0.1l0.4,0.21l0.48,0.3l0.48,0.36l0.17,0.19l0.12,0.17l0.2,0.38l0.07,0.22l0.26,1.09l-0.04,0.25l-0.12,0.19l-1.45,0.62l-0.25,0.01L487.03,546.23zM498.1,595.15l-1.9,-0.91l-0.2,-0.19l-0.42,-1.23l0.06,-0.64l1.51,-1.11l0.24,-0.03l0.16,0.08l0.17,0.29l0.88,1.83l0.08,0.22l0.04,0.26l0,0.63l-0.34,0.79l-0.18,0.04L498.1,595.15zM500.18,595.42l-0.59,-3.01l-0.2,-1.27l-0.15,-2.13l0.1,-0.22l0.37,-0.02l0.28,0.6l0.85,2.75l0.5,2.03l0.11,0.83l-0.81,1.01l-0.2,0.11l-0.2,-0.02l-0.11,-0.2l0.03,-0.38L500.18,595.42zM557.08,667.12h-0.17l-0.3,-0.05l-1.91,-0.79l-0.27,-0.15l-0.56,-0.85l-0.11,-0.22l-0.03,-0.3l0.09,-0.43l0.13,-0.29l0.19,-0.05l0.28,0.06l2.5,1l0.83,0.53l0.25,0.4l-0.04,0.38l-0.17,0.29l-0.36,0.39l-0.19,0.06L557.08,667.12zM514.54,663.72l-0.88,-0.48l-1.75,-0.81l-0.15,-0.25l1.12,-1.03l0.53,-0.02l0.47,0.03l0.97,0.13l0.18,0.08l0.79,0.44l0.07,0.25l0.24,1.19l-0.21,0.25l-0.25,0.06L514.54,663.72zM605.61,690.65l0.28,0.3l0.32,1.24l-0.22,0.59l-0.45,0.36l-0.27,0.08l-1.54,-0.08l-0.71,-0.06l-0.14,-0.12l-0.15,-1.23l0.41,-0.66l0.32,-0.19l1.11,-0.44l0.4,-0.04l0.27,0.06l0.24,0.1L605.61,690.65zM516.8,614.47l-0.06,-0.48l0.08,-0.43l0.1,-0.31l0.1,-0.23l0.6,-1.28l0.13,-0.1l1.14,-0.58l1.13,-0.42l-0.07,0.74l-1.38,2.89l-0.39,0.16l-0.8,0.28l-0.3,0.05l-0.15,-0.09L516.8,614.47zM503.08,599.03l-0.17,-0.12l-0.17,-0.23l-0.25,-1.53l0.01,-0.23l0.16,-1.09l0.11,-0.21l0.16,-0.08l0.27,-0.03l1.04,0.17l0.36,0.24l0.09,0.32l0.18,1.16l-0.04,0.52l-1.35,1.15L503.08,599.03zM488.13,542.77l-0.1,-0.05l-1.54,-1l-0.04,-0.33l0.86,-1.13l1.5,-1.72l0.19,-0.04l0.1,0.26l0.05,0.23l0.06,0.36l-0.01,0.28l-0.03,0.3l-0.37,1.57l-0.35,0.98l-0.15,0.24L488.13,542.77zM493.41,579.28l-0.31,-0.1l-0.1,-0.17l0.44,-2.14l0.8,-0.61l0.16,-0.06l0.26,0.01l0.86,0.1l0.89,0.29l0.04,0.23l-0.2,0.35l-1.19,1.04l-1.17,0.97l-0.21,0.09L493.41,579.28zM498.09,559.71l-0.14,-0.85l-0.16,-1.98l0.1,-0.87l0.07,-0.34l0.17,-0.07l0.85,0.75l0.36,0.34l0.14,0.23l0.63,1.36l-0.07,0.2l-1.76,1.53L498.09,559.71zM488.42,610.97l-0.12,-0.12l-0.07,-0.23l0.38,-2.16l0.26,-0.91l0.09,-0.24l0.22,-0.27l0.31,-0.24l0.28,-0.1l0.36,0.07l0.3,0.3l0.05,0.36l-0.13,0.86l-0.25,0.93l-0.22,0.69l-0.14,0.27l-0.16,0.17l-0.63,0.55l-0.33,0.12L488.42,610.97zM502.27,600.71l-0.86,-0.49l-0.57,-0.41l-0.17,-0.21l-0.2,-1.21l-0.04,-0.69l0.06,-0.42l1.1,-0.39l0.19,0.12l0.75,2.05l0.08,0.23l0.03,1.21l-0.08,0.25l-0.18,0.04L502.27,600.71zM609.71,691.97l-0.66,-0.17l-0.14,-0.2l-0.08,-0.43l-0.01,-0.25l0.24,-1.02l1.24,-0.9l0.33,-0.02l0.22,0.03l0.98,0.46l0.17,0.44l-1.29,1.65l-0.85,0.41L609.71,691.97zM554.46,680.93l0.35,0.1l0.28,0.14l0.34,0.47l-0.15,0.27l-0.18,0.06l-2.62,0.54h-1.06l-0.74,-0.44l-0.2,-0.35l0.2,-0.2l0.48,-0.28l1.53,-0.44l1.06,-0.12l0.63,0.22L554.46,680.93zM489.04,585.96l-0.18,-0.2l-0.11,-0.2l-0.34,-1l-0.03,-0.41l0.47,-1.36l0.19,-0.11l1.08,0.04l0.12,0.18l0.04,0.32l-0.11,2.96l-0.17,0.13l-0.46,-0.05L489.04,585.96zM526.05,670.88l-0.17,-0.08l-0.71,-0.96l-0.22,-1.02l1.59,-0.91l0.31,0.03l1.53,0.63l0.07,0.26l-0.14,0.51l-0.99,0.45l-0.17,-0.01L526.05,670.88zM493.89,614.78l0.13,-0.51l0.09,-0.25l0.16,-0.24l2.19,-2.21l0.5,0.31l0.28,0.36l-0.01,0.68l-0.16,0.46l-0.82,0.56l-1.69,1.05l-0.62,0.31l-0.15,-0.13L493.89,614.78zM556.05,664.22l-0.15,-0.02l-1.26,-0.92l-0.4,-0.43l-0.19,-0.3l-0.07,-0.34l0.1,-0.24l0.14,-0.11l2.41,-0.46l0.13,0.21l0.16,0.46l0.08,0.49l-0.33,0.95l-0.21,0.46l-0.17,0.16L556.05,664.22zM506.44,650.63l-0.16,-0.09l-0.3,-1.17l0.16,-1.87l0.14,-0.2l0.19,0.03l1.84,1.29l0.3,0.27l-0.03,0.31l-0.12,0.22l-1.44,0.98l-0.21,0.11l-0.23,0.08L506.44,650.63zM512.56,635.5l-0.41,0.05l-0.19,-0.03l-0.48,-0.5l-0.11,-0.21l0.15,-0.31l0.24,-0.03l0.14,-0.08l-0.5,-0.33l-0.56,-0.2l-1.15,-0.1l-0.26,0.04l-1.26,0.26l-0.3,0.18l-0.15,-0.18l0.75,-0.71l1.75,-0.42l2.09,0.6l0.18,0.14l0.58,0.72l-0.18,1.05L512.56,635.5zM507.08,609.12h-0.14l-0.34,-0.07l-0.26,-0.15l-0.11,-0.2l-1.22,-2.52l-0.02,-0.45l0.11,-0.21l0.33,-0.02l0.94,0.51l0.74,0.98l0.42,0.96l-0.02,0.28L507.08,609.12zM595.05,707.46l-0.46,-1.23l-0.16,-0.11l-0.83,0.01l-1.68,0.49l-0.19,-0.08l-0.14,-0.21l-0.02,-0.4l0.21,-0.52l0.45,-0.12l0.16,-0.02l0.38,0.14l0.28,0.07l0.57,0.11l1.49,0.04l0.54,-0.41l0.16,-0.08l0.64,0.19l0.24,0.32l-0.42,1.18l-0.16,0.19l-0.67,-0.23l-0.17,0.02L595.05,707.46zM603.53,684.81l0.69,0.19l1.55,0.58l0.18,0.24l0.56,1.89l-0.21,0.11l-0.28,-0.13l-3.17,-2.19l-0.16,-0.34l0.07,-0.26l0.12,-0.14l0.28,-0.05l0.27,0.07L603.53,684.81zM493.54,620.63l-0.87,-0.88l-0.15,-1.17l2.48,-0.63l0.33,0.09l0.07,0.24l-1.02,1.94l-0.43,0.29l-0.28,0.11L493.54,620.63zM507.22,598.91l-1.03,-0.23l-0.14,-0.1l-0.35,-0.35l-0.3,-0.9l0.09,-0.23l0.33,-0.38l0.56,-0.54l0.24,-0.06l0.25,0.08l0.25,0.15l0.19,0.2l0.13,0.18l0.11,0.2l0.09,0.39l-0.03,0.48l-0.21,0.86l-0.09,0.23L507.22,598.91zM489.88,540.83l-0.34,-0.03l-0.19,-0.15l-0.02,-0.28l0.51,-1.26l0.24,-0.33l1.21,0.01l0.71,0.1l0.42,0.21l-1.3,1.25l-0.24,0.2l-0.19,0.1l-0.43,0.14L489.88,540.83zM493.2,617.63l-0.25,-0.07l-0.13,-0.19l-0.06,-0.24l0.02,-0.48l0.19,-0.5l2.51,-1.48l0.18,0.46l-1.19,2.05l-0.88,0.38l-0.25,0.06L493.2,617.63zM593.39,700.46l-0.14,-0.19l0.51,-2.58l0.21,-0.31l0.31,-0.2l0.21,0.01l0.24,0.26l0.15,0.19l0.22,0.29l0.14,0.2l0.15,0.41l-0.04,0.86l-0.72,0.56l-0.31,0.22l-0.38,0.14L593.39,700.46zM558.77,685.12l-0.15,-0.02l-0.21,-0.12l-0.21,-0.22v-0.26l0.19,-0.23l0.17,-0.16l2.05,-1.11l0.24,-0.1l0.21,0.01l0.14,0.12l0.17,0.26l0.01,0.37l-0.49,0.75l-1.34,0.54L558.77,685.12zM503.39,642.55l-0.07,0.28l-0.63,1.07l-0.4,0.26l-0.89,0.29l-0.25,-0.03l-0.15,-0.1l-0.25,-0.32l-0.04,-0.26l0.78,-0.78l0.6,-0.54l0.6,-0.45l0.17,0l0.2,0.13l0.3,0.28L503.39,642.55zM600.25,707.28l-1.46,-0.79l-0.88,-0.74l0.09,-0.35l0.15,-0.11l0.26,-0.09l0.79,0.06l1.04,0.34l0.49,0.7l0.05,0.89L600.25,707.28zM506.19,611.03l-1.14,-0.22l-0.16,-0.16l-0.12,-1.07l0.43,-0.87l0.18,-0.14l0.18,0.03l0.16,0.15l0.14,0.17l0.27,0.35l0.62,1.02l-0.06,0.33l-0.3,0.29L506.19,611.03z"/>
		<path id="CL-TA" title="Tarapacá" class="land" d="M557.07,25.98L559.36,25.87L561.59,24.48L563.81,22.81L567.71,22.81L569.94,24.48L572.16,24.2L572.44,22.53L573.83,21.14L575.98,21.14L575.98,21.14L575.8,21.55L576.73,23.22L578.4,24.38L579,24.91L580.17,26.25L580.4,26.47L580.88,26.7L581.25,26.8L581.69,27.03L582.54,27.78L583.22,28.75L581.69,30.34L581.39,30.74L580.97,31.36L579.76,32.8L579.72,33.38L580.63,34.03L581.47,34.75L582.09,36L581.32,38.06L580.85,38.03L580.28,38.11L578.48,38.6L578.37,38.98L578.63,39.31L579.28,40.83L579.53,42.35L579.08,42.56L578.8,42.88L578.83,43.64L579.02,44.04L579.23,44.35L579.71,44.86L580.12,45.14L580.58,45.37L581,45.54L581.42,45.68L581.72,45.81L582.53,46.37L582.89,46.76L582.82,47.06L582.29,47.38L582.01,47.62L581.5,48.32L581.49,50.39L581.57,50.71L581.6,50.75L581.6,50.75L580.53,50.68L577.95,50.34L576.7,50.5L576.38,50.58L576.11,50.74L575.96,51.1L576.17,51.4L576.57,51.64L577.69,52.08L578.08,52.08L578.44,52.05L579.22,51.88L579.63,51.98L579.8,52.36L579.69,53.01L579.55,53.42L578.97,54.49L578.74,54.85L578.56,55.24L578.47,55.67L578.47,56.15L577.15,56.72L575.37,56.91L571.55,58.06L566.99,59.13L565.92,59.37L564.93,59.01L564.05,58.86L562.45,58.68L562.09,58.65L560.54,58.73L560.33,58.81L560.33,58.81L559.87,57.92L559.8,57.44L560.13,56.93L559.35,53.96L559.01,53.19L558.7,52.54L558.94,51.71L559.2,51.22L559.09,50.43L558.86,50.01L558.62,49.82L558.09,49.35L558.68,43.2L559.1,41.83L559.17,41.42L558.8,40.48L558.96,39.34L559.15,38.9L559.29,38.46L559.32,37.29L559.31,36.87L559.11,35.87L558.6,31.91L558.17,29.6L557.67,27.77L557.04,26.62z"/>
		<path id="CL-AN" title="Antofagasta" class="land" d="M582.34,51.41L582.72,51.47L583.08,51.43L583.5,51.42L586.27,55.88L586.85,56.85L586.89,61.6L587.12,61.88L587.56,62.48L587.8,62.95L588.04,63.67L588.25,64.81L588.29,65.15L588.31,65.72L588.29,66.22L588.32,66.96L589.58,68.27L589.92,68.47L590.33,69.15L590.63,71.2L590.63,71.73L590.49,72.13L591.09,74.06L591.67,76.03L591.18,78.45L591.29,80.22L592.47,80.98L595.52,81.34L598.99,80.6L601.15,80.12L602.27,81.33L603.75,82.9L603.08,84.77L602.43,86.57L601.79,88.37L601.61,88.89L598.98,98.62L594.66,100.57L590.97,102.22L586.83,104.04L585.93,104.46L585.59,105.22L585,105.99L584.33,105.88L583.98,106.1L582.95,107.67L582.31,108.69L581.84,109.61L581.46,110.43L581.41,110.92L581.74,111.79L582.42,112.19L584.48,115.72L583.56,116.21L582.62,116.36L582.47,116.5L582.21,116.93L581.93,118.04L581.93,118.04L581.16,118.03L580.58,118.18L580.13,118.46L579.55,118.95L579.07,119.4L578.73,119.65L578.38,119.73L577.67,119.69L577.12,119.61L576.66,119.68L576.16,119.88L575.75,120.1L575.44,120.31L574.72,120.88L574.43,121.66L574.29,122.75L574,123.3L573.69,123.31L573.83,126.07L569.66,126.07L569.1,127.74L567.71,128.02L566.32,129.69L564.09,128.02L562.96,126.5L562.77,126.52L561.81,126.43L561.39,126.35L560.87,126.31L560.36,126.52L560.09,126.67L559.56,127.01L559.23,127.3L557.42,128.39L556.41,128.49L555.09,128.69L554.48,128.81L554.08,128.91L553.72,129.04L553.45,129.18L553.19,129.34L552.4,129.93L551.72,130.87L551.72,130.87L552.11,130.17L552.17,129.86L552.12,129.35L551.84,128.49L551.44,128.07L551.16,127.75L550.69,126.6L551.14,124.95L551.38,124.22L552.08,122.7L552.93,121.58L553.45,121.19L554.68,119.54L554.92,117.89L554.93,116.99L554.61,116.13L553.94,115.21L554.02,113.14L553.57,112.22L553.31,111.37L552.79,109.4L553.02,106.94L553.3,104.44L553.42,103.69L553.24,103.37L553.49,102.09L553.71,101.3L553.87,101L553.98,99.93L553.91,99L553.67,98.45L553.66,97.92L553.8,95.99L553.99,94.93L554.42,94.36L554.79,94.07L555.02,93.65L555.31,92.93L555.44,92.51L555.53,92.15L555.52,91.51L555.4,91.03L555.22,90.55L555.03,90.32L554.55,89.98L554.15,89.78L553.84,89.91L553.45,90.77L552.24,90.55L552.56,88.68L552.63,86.43L552.91,83.89L553.41,83.32L553.92,83.09L554.03,83.77L554.31,84.14L555.16,83.98L555.62,83.75L555.9,83.5L556.14,83.21L556.31,82.94L556.72,81.97L557.02,81.12L556.94,80.67L556.82,80.34L556.68,79.64L557.06,77.42L557.42,74.45L557.64,72.34L557.92,70.03L558.13,69.06L558.43,67.93L558.97,64.07L558.91,63.6L558.89,62.57L559.14,61.75L559.79,61.19L559.87,60.43L560.33,58.81L560.33,58.81L560.54,58.73L562.09,58.65L562.45,58.68L564.05,58.86L564.93,59.01L565.92,59.37L566.99,59.13L571.55,58.06L575.37,56.91L577.15,56.72L578.47,56.15L578.47,55.67L578.56,55.24L578.74,54.85L578.97,54.49L579.55,53.42L579.69,53.01L579.8,52.36L579.63,51.98L579.22,51.88L578.44,52.05L578.08,52.08L577.69,52.08L576.57,51.64L576.17,51.4L575.96,51.1L576.11,50.74L576.38,50.58L576.7,50.5L577.95,50.34L580.53,50.68L581.6,50.75L581.6,50.75L581.67,50.91L581.97,51.24z"/>
		<path id="CL-AT" title="Atacama" class="land" d="M581.39,119.24L581.1,120.45L581.04,120.76L581,121.24L581.05,121.62L581.66,123.49L582.41,125.07L582.52,125.46L583.07,128.01L583.85,132.01L583.57,132.46L582.71,133.25L582.14,133.65L581.78,133.94L581.51,134.29L581.32,135.03L581.27,135.52L581.21,136.39L581.21,136.71L581.23,137.47L581.31,137.79L581.45,138.11L581.84,138.72L583.33,140.49L585.33,143.59L585.44,143.92L584.94,145.68L584.5,145.95L583.96,146.24L583.69,146.37L580.35,147.51L579.65,147.05L579.02,146.95L578.41,146.99L578.05,147.19L577.48,148.11L577.2,148.64L577.04,149.13L577.17,149.74L576.68,151.1L574.67,154.89L574.27,155.35L573.7,156.99L573.6,157.65L573.1,159.7L572.97,160.07L572.78,160.49L572.56,160.79L572.15,160.89L571.63,160.94L571.1,161.21L570.67,162.21L570.51,162.92L570.32,163.28L569.64,164.15L567.74,166.3L566.7,167.17L565.99,167.7L565.89,169.96L565.79,170.51L565.34,170.76L564.7,172.03L564.69,172.83L564.79,173.19L564.93,173.55L565.02,174.09L564.54,175.53L564.09,177.64L564.12,178.51L564.03,178.91L563.85,179.2L563.39,179.51L562.49,179.61L561.65,180.62L560.67,182.08L560.59,183.07L560.67,183.44L561.04,184.24L561.58,186.05L561.63,186.24L561.63,186.24L559.92,186.08L557.41,184.97L556.3,184.41L554.33,183.85L554.41,183.41L554.44,182.78L554.24,182.11L554.07,181.85L552.2,179.67L551.87,179.33L551.48,178.96L551.02,178.65L550.61,178.4L550.15,178.27L549.06,179.12L548.5,180.24L547.39,183.02L545.16,183.3L544.05,181.63L543.12,179.61L542.92,179.73L542.63,179.86L540.91,180.25L540.37,180.36L539.84,180.34L539.84,180.34L540.06,179.11L539.64,176.96L539.6,175.66L539.72,175.26L540.21,174.71L541.5,173.46L542.65,172.05L542.77,171.19L542.84,170.22L543.19,169.52L543.59,168.89L544.54,166.87L544.62,165.03L544.63,163.73L544.87,160.64L545.37,158.76L545.69,157.82L546.22,156.83L546.75,156.09L547.36,155.8L548.09,155.25L548.4,153.07L548.16,152.22L547.77,150.62L547.34,148.16L547.46,147.77L547.64,147.34L547.96,147.09L548.8,146.91L549.51,145.93L549.92,145.13L549.69,144.15L549.45,143.62L549.37,143.2L551.09,138.91L551.23,138.37L551.38,136.38L552.01,134.25L551.58,132.65L551.58,132.12L551.72,130.87L551.72,130.87L552.4,129.93L553.19,129.34L553.45,129.18L553.72,129.04L554.08,128.91L554.48,128.81L555.09,128.69L556.41,128.49L557.42,128.39L559.23,127.3L559.56,127.01L560.09,126.67L560.36,126.52L560.87,126.31L561.39,126.35L561.81,126.43L562.77,126.52L562.96,126.5L564.09,128.02L566.32,129.69L567.71,128.02L569.1,127.74L569.66,126.07L573.83,126.07L573.69,123.31L574,123.3L574.29,122.75L574.43,121.66L574.72,120.88L575.44,120.31L575.75,120.1L576.16,119.88L576.66,119.68L577.12,119.61L577.67,119.69L578.38,119.73L578.73,119.65L579.07,119.4L579.55,118.95L580.13,118.46L580.58,118.18L581.16,118.03L581.93,118.04L581.93,118.04L581.86,118.11L581.57,118.75z"/>
		<path id="CL-CO" title="Coquimbo" class="land" d="M539.84,180.34L540.37,180.36L540.91,180.25L542.63,179.86L542.92,179.73L543.12,179.61L544.05,181.63L545.16,183.3L547.39,183.02L548.5,180.24L549.06,179.12L550.15,178.27L550.61,178.4L551.02,178.65L551.48,178.96L551.87,179.33L552.2,179.67L554.07,181.85L554.24,182.11L554.44,182.78L554.41,183.41L554.33,183.85L556.3,184.41L557.41,184.97L559.92,186.08L561.63,186.24L561.63,186.24L561.66,186.38L561.7,187.11L561.6,187.56L561.53,188L561.62,188.37L561.8,188.63L562.26,188.94L562.3,189.06L562.44,190.35L562.4,192.29L562.24,193.2L562.15,193.62L563.03,195.32L563.34,195.59L563.52,195.98L563.48,196.74L562.52,198.94L561.96,199.72L561.11,200.09L560.66,200.14L560.35,200.09L559.18,200.83L558.08,202.79L557.5,204.08L557.26,204.75L556.59,207.16L556.43,208.25L556.37,208.92L556.42,209.34L556.94,209.98L556.89,210.54L555.94,211.59L554.97,211.93L554.67,211.61L553.68,212.68L553.53,213.05L553.12,215.38L553.01,217.82L552.85,218.83L552.74,219.39L554.56,223.86L554.73,224.13L554.97,224.46L555.23,224.63L555.78,224.75L556.76,224.69L557.04,224.85L557.71,225.62L557.78,226.07L557.32,227.36L556.72,227.45L556.12,228.1L556.58,230.47L556.52,231.09L556.52,231.09L555.18,231.26L554.78,231.02L554.66,230.63L554.44,229.83L554.04,229.49L553.65,229.37L553.36,229.36L552.97,229.37L552.32,229.26L551.66,228.78L551.64,228.37L551.59,227.82L550.61,227.22L546.27,227.35L545.83,228.06L545.15,228.82L544.85,229.02L541.89,229.7L541.29,229.67L541.29,229.67L540.9,229.53L540.25,229.2L540.25,229.2L539.85,229.21L539.52,229.43L539.21,229.77L539.21,229.77L539.3,228.18L539.45,227.38L539.54,226.99L539.66,226.32L539.67,224.88L539.59,222.86L539.18,221.88L538.83,220.19L538.82,219.16L538.76,218.72L538.03,215.27L537.48,213.05L537.38,212.74L537.38,212.22L537.56,211.33L537.63,209.82L537.46,209.24L537.24,208.85L537.17,208.48L536.86,206.12L536.87,204.41L536.92,202.8L536.96,201.92L537.21,199.23L537.68,198.1L538.11,197.94L538.28,198.21L538.75,198.39L539.09,198.41L539.6,198.16L541.09,196.66L541.37,196.16L542.03,192.87L542.74,192.15L542.71,190.92L542.28,190.47L542.02,189.5L542.08,186.3L542.29,185.07L542.47,184.52L542.46,184.15L542,182.62L541.8,182.28L541.45,181.94L540.69,181.39L540.34,181.19L540.04,180.96L539.88,180.6z"/>
		<path id="CL-RM" title="Región Metropolitana de Santiago" class="land" d="M560.41,265.31L560.4,264.95L560.3,264.61L559.94,264.35L559.26,264.08L558.8,263.59L558.73,263.24L558.78,262.11L558.61,261.41L558.36,261.22L557.97,261.25L557.57,261.54L557.23,261.63L556.23,261.29L556.36,260.42L555.8,258.57L555.48,258.28L554.98,258.11L554.48,258.11L552.81,258.76L552.25,259.11L551.21,259.19L550.82,259.06L549.65,259.79L547.78,261.96L547.72,262.35L547.77,263.07L546.6,263.34L545.24,263.38L545.2,263.36L544.04,261.66L542.25,260.89L541.35,259.23L539.05,259.36L537.64,258.78L537.64,258.78L538.4,258.29L538.4,258.29L538.86,256.72L539.17,256.71L539.98,256.75L540.7,256.97L541.17,256.94L541.87,256.19L542.49,253.85L541.96,252.55L541.75,251.38L541.76,251.04L542.14,250.84L543.14,249.83L543.58,249.26L543.7,248.87L543.67,247.67L543.86,247.31L544.74,247.16L545.61,247.14L546.6,246.47L546.55,244.35L546.37,243.58L546.5,242.95L546.79,242.81L548.43,242.18L550.39,242.18L551.73,242.51L552.46,242.78L553.04,243.33L553.23,243.99L553.72,244.7L554.06,244.73L554.98,243.95L555.31,243.99L556.3,245.09L557.76,245.74L558.95,244.7L559.67,244.31L559.67,244.31L559.88,244.73L559.79,245.51L559.65,246.02L559.73,246.47L561.08,248.49L561.43,248.44L561.72,247.92L562.12,247.51L562.47,247.45L562.86,247.58L563.88,248.15L564.29,249.99L564.17,250.42L563.8,250.85L562.94,252.84L562.44,256.64L562.45,257.47L562.73,258.57L563.24,262.08L563.68,264.43L562.68,265.18L562.02,265.13L561.69,265.04L561.28,265.03L560.67,265.15z"/>
		<path id="CL-VS" title="Valparaíso" class="land" d="M541.29,229.67l0.6,0.03l2.96,-0.68l0.31,-0.2l0.68,-0.76l0.44,-0.71l4.34,-0.13l0.98,0.6l0.06,0.55l0.02,0.41l0.66,0.48l0.65,0.11l0.38,-0.01l0.3,0.01l0.39,0.12l0.4,0.34l0.22,0.8l0.12,0.38l0.4,0.24l1.34,-0.17l0,0l0.11,0.32l0.98,0.43l0.19,0.53l1.09,2.25l0.11,0.51l-0.08,0.62l0.57,0.63l0.89,0.89l1.28,1.66l0.13,1.41l-0.61,1.02l-0.4,1.23l-0.72,0.96l-0.4,0.78l0,0l-0.72,0.39l-1.19,1.04l-1.46,-0.65l-0.99,-1.1l-0.33,-0.04l-0.92,0.78l-0.34,-0.03l-0.49,-0.71l-0.19,-0.66l-0.58,-0.56l-0.73,-0.26l-1.33,-0.34l-1.97,0l-1.64,0.63l-0.29,0.15l-0.13,0.63l0.18,0.76l0.06,2.12l-0.99,0.67l-0.87,0.02l-0.89,0.15l-0.19,0.36l0.03,1.2l-0.12,0.39l-0.43,0.57l-1.01,1l-0.38,0.2l-0.01,0.34l0.21,1.17l0.54,1.31l-0.62,2.33l-0.7,0.75l-0.47,0.03l-0.72,-0.22l-0.81,-0.03l-0.31,0.01l-0.46,1.57l0,0l-1.34,0.87l0,0l-0.5,0.63l-0.5,-0.09l-0.54,-0.12l-0.37,-0.31l-0.67,0.02l0,0l0.43,-1.56l0.49,-1.16l0.38,-0.14l0.5,-0.1l0.41,-0.21l0.5,-0.44l0.26,-0.67l0.08,-0.34l0.09,-0.54l0.13,-1.29l-0.78,-3.11l-0.17,-1.97l-0.71,-2.53l0.14,-0.31l0.68,0.04l1.83,-1.35l0.66,-1.85l0.35,-2.31l0.59,-1.16l0.16,-0.49l0.06,-0.52l0.01,-2.41l0.5,-1.63l-0.9,-1.56l-0.59,-0.89l-0.39,-1.01l0,0l0.32,-0.35l0.33,-0.22l0.4,-0.01l0,0l0.65,0.33L541.29,229.67zM2.95,147.41l-0.74,0.29l-0.44,-0.01l-0.17,0.04l-0.78,0.41l-0.38,0.26l-0.17,0.14l-0.25,-0.06L0,148.14l0.35,-1.17l0.08,-0.19l0.09,-0.13l0.22,-0.27l0.35,-0.06l2.12,0.54l0.03,0.18l-0.09,0.2L2.95,147.41z"/>
		<path id="CL-AR" title="Araucanía" class="land" d="M511.23,336.25L511.29,336.26L511.57,336.4L512.01,336.64L513.18,337.42L516.92,333.74L517.15,333.29L517.25,332.94L517.36,332.39L517.1,331.96L516.6,331.71L516.08,330.3L517.78,327.7L518.19,327.21L518.35,325.59L518.16,325.23L517.26,325.15L516.95,324.77L518.26,323.13L520.21,322.84L520.81,323.17L521.41,323.56L521.92,323.86L523.87,324.33L525.08,324.3L525.95,325.32L526.35,326.3L527.23,327.56L527.88,327.96L528.18,328.08L528.66,328.16L529.17,328.29L529.53,328.47L530.75,329.52L530.92,329.95L531.38,330.52L531.68,330.73L533.82,331.09L535.58,330.92L536,330.8L536.49,330.99L536.95,331.66L536.95,332.4L536.89,332.95L536.86,333.54L536.92,333.96L537.2,335.02L537.38,335.38L537.89,335.75L538.12,335.29L538.31,334.84L538.54,334.59L539.8,333.99L540.73,333.5L540.97,333.27L541.19,332.66L542.67,332.34L545.96,332.27L546.87,332.42L546.87,332.42L546.85,333.24L546.67,334.56L546.82,335.6L547.27,337.95L547.57,338.59L548.18,339.23L548.56,339.46L549.08,339.88L549.34,340.49L549.28,341.08L548.83,342.93L547.95,343.85L547.63,344L546.94,343.98L546.49,343.93L546.1,343.99L545.47,344.31L543.46,345.49L542.11,346.3L541.73,346.54L541.26,346.99L541.02,347.39L540.91,347.85L540.85,348.82L540.86,349.29L541,349.77L541.14,350.93L541.35,352.95L541.13,354.6L540.46,356.53L539.96,358.84L539.85,359.53L539.65,359.87L538.34,359.94L537.97,359.77L537.38,358.94L537.16,358.95L537.16,358.95L537.12,358.55L537.03,358.09L536.86,357.65L536.56,357.6L535.6,357.58L534.8,357.02L534.41,356.64L533.96,356.33L533.6,356.21L531.33,356.01L530.95,356.08L530.59,356.26L530.17,356.66L529.89,356.97L529.53,357.17L528.18,357.69L527.64,357.61L526.98,357.28L524.88,356.55L524.46,356.54L523.39,356.74L522.98,356.76L522.54,356.72L522.13,356.63L521.77,356.38L521.35,355.91L520.93,355.14L520.78,354.09L520.46,353.84L518.4,353.88L517.7,354.75L517.42,355.23L517.04,355.62L516.6,355.85L516.16,355.9L515.76,355.85L515.4,355.76L514.92,355.62L514.92,355.62L515.28,354.98L515.18,352.96L514.38,350.12L511.87,342.94L511.04,340.16L510.7,338L510.72,337.42L510.97,336.37z"/>
		<path id="CL-BI" title="Bío-Bío" class="land" d="M521.53,294.3L523.12,295.01L523.34,295.25L523.44,295.86L525.5,297.68L528.22,299.1L528.58,299.22L530.33,299.27L531.35,298.12L531.32,297.68L531.43,297.14L532.53,298.3L532.72,298.74L532.82,299.07L533.07,299.29L533.84,299.47L534.16,299.49L534.52,299.34L534.86,299.24L535.79,299.39L536.15,300.17L536.33,300.61L536.68,300.95L537.2,301.28L538.09,301.63L539.28,301.99L540.81,303.25L541.1,303.54L542.51,304.32L543.09,304.4L543.5,303.94L543.54,303.56L543.65,303.11L544.78,301.67L545.05,301.47L545.38,301.42L545.87,301.67L545.97,302.19L546.12,302.81L546.54,303.3L546.63,303.35L546.63,303.35L546.37,303.49L546.08,304.6L544.91,308.04L544.21,309.87L544.75,312.17L545.26,314.64L545.01,316.02L544.76,316.8L544.26,317.38L544.07,317.98L544.49,319.35L544.79,319.82L545.18,320.35L545.32,320.77L545.11,323.08L544.62,323.45L544.36,323.76L544.27,324.35L544.3,325.02L544.57,325.9L544.91,326.71L545.1,327.55L545.51,328.35L546.89,331.73L546.87,332.42L546.87,332.42L545.96,332.27L542.67,332.34L541.19,332.66L540.97,333.27L540.73,333.5L539.8,333.99L538.54,334.59L538.31,334.84L538.12,335.29L537.89,335.75L537.38,335.38L537.2,335.02L536.92,333.96L536.86,333.54L536.89,332.95L536.95,332.4L536.95,331.66L536.49,330.99L536,330.8L535.58,330.92L533.82,331.09L531.68,330.73L531.38,330.52L530.92,329.95L530.75,329.52L529.53,328.47L529.17,328.29L528.66,328.16L528.18,328.08L527.88,327.96L527.23,327.56L526.35,326.3L525.95,325.32L525.08,324.3L523.87,324.33L521.92,323.86L521.41,323.56L520.81,323.17L520.21,322.84L518.26,323.13L516.95,324.77L517.26,325.15L518.16,325.23L518.35,325.59L518.19,327.21L517.78,327.7L516.08,330.3L516.6,331.71L517.1,331.96L517.36,332.39L517.25,332.94L517.15,333.29L516.92,333.74L513.18,337.42L512.01,336.64L511.57,336.4L511.29,336.26L511.23,336.25L511.23,336.25L511.01,335.31L511.23,334.86L511.51,334.56L511.69,334.19L511.94,331.49L511.76,330.75L511.44,329.81L510.8,328.27L509.79,326.53L508.91,325.56L508.66,323.36L508.84,322.89L509.37,322.21L509.8,321.78L509.97,321.09L509.9,320.42L509.63,319.87L509.3,319.45L508.93,319.12L508.78,318.78L509.32,316.15L509.48,315.75L510.07,315.32L510.69,316.03L511.06,316.27L512.2,316.79L512.81,316.78L513.1,316.77L513.47,316.71L514.24,316.48L514.83,316.21L515.18,315.94L515.52,315.48L515.73,315L516.08,313.63L516.35,310.41L516.57,306.99L517.08,307.22L517.41,307.55L517.85,307.66L518.2,307.66L518.48,307.53L518.68,307.28L518.96,305.95L519.5,303.98L520.14,302.27L520.74,300.7L521.04,297.11L521.32,294.55z"/>
		<path id="CL-LI" title="Libertador General Bernardo O'Higgins" class="land" d="M537.64,258.78L539.05,259.36L541.35,259.23L542.25,260.89L544.04,261.66L545.2,263.36L545.24,263.38L546.6,263.34L547.77,263.07L547.72,262.35L547.78,261.96L549.65,259.79L550.82,259.06L551.21,259.19L552.25,259.11L552.81,258.76L554.48,258.11L554.98,258.11L555.48,258.28L555.8,258.57L556.36,260.42L556.23,261.29L557.23,261.63L557.57,261.54L557.97,261.25L558.36,261.22L558.61,261.41L558.78,262.11L558.73,263.24L558.8,263.59L559.26,264.08L559.94,264.35L560.3,264.61L560.4,264.95L560.41,265.31L560.41,265.31L560.34,265.48L560.34,266.49L560.44,267.27L558.96,269.52L557.78,271.76L556.85,275.07L555.97,277.54L555.97,277.54L555.86,277.55L555.02,277.49L552.44,277.23L550.84,276L550.24,275.39L549.96,275.22L545.97,274.03L545.43,273.89L545.03,273.89L542.5,274.09L541.32,275.11L541.37,275.49L541.43,276.08L539.25,275.69L537.09,275.55L535.64,275.11L533.68,274.31L533.19,273.57L532.37,272.56L532.11,272.38L531.69,272.21L531.69,272.21L531.83,271.54L532.04,269.25L531.93,268.24L531.89,267.57L532.19,267.08L532.72,266.78L532.86,266.34L532.85,265.46L532.76,264.19L532.46,263.79L532.35,263.45L532.4,262.88L534.1,259.79L534.49,259.29L534.49,259.29L535.16,259.27L535.53,259.58L536.07,259.7L536.56,259.78L537.06,259.16L537.06,259.16z"/>
		<path id="CL-LL" title="Los Lagos" class="land" 
d="M495.16,435.42l-0.27,0.26l-0.32,0.03l-0.38,-0.05l-0.21,0.05l-0.28,0.11l-0.17,0.09l-0.51,0.42l-0.12,-0.02l-0.22,-0.13l-0.49,-0.78l-0.09,-0.17l-0.08,-0.19l-0.06,-0.19l0.04,-0.32l1.2,-0.6l0.17,0.01l1.21,0.61l0.14,0.13l0.32,0.35L495.16,435.42zM512.5,414.5l-0.03,0.66l-0.27,-0.05l-0.13,-0.51l-0.07,-0.19l-0.09,-0.17l-0.22,-0.18l-1.33,-0.7l-0.19,-0.08l-0.46,-0.1l-0.2,-0.14l-0.39,-1.11l0.04,-0.19l0.23,-0.09l0.33,-0.04l0.49,-0.01l0.34,0.08l0.27,0.2L512.5,414.5zM505.81,401.11l-0.28,0.39l-0.4,0l-0.36,-0.26l-0.29,-0.09l-0.22,0.4l0.49,0.54l1.26,0.45l0.37,-0.29l0.58,-0.4l1.5,-0.93l1.4,-0.19l0.42,0.05l0.99,0.67l-0.32,2.5l1.09,1.71l-0.23,0.63l-0.39,0.15l-0.1,0.42l0.17,0.53l0.96,0.65l0.37,0.09l0.36,1.1l-0.16,0.69l-0.18,0.43l-1.49,0.35l-0.78,-0.11l-0.34,0.03l-0.97,0.52l-0.32,0.2l-0.23,0.37l-0.1,1.62l0.45,0.47l0.38,0.2l0.23,0.26l-1.54,0.64l-0.79,-0.71l0.27,-0.76l-0.46,0.14l-0.38,0.77l0.17,1.76l2.68,2.69l0.69,0.24l0.78,0.56l0.24,0.26l0.2,1.03l-0.11,0.44l-1.1,0.18l-0.54,-0.05l-0.47,0.26l-0.13,0.75l0.44,0.55l0.73,0.59l0.08,0.3l0.49,0.94l0.37,0.52l0.17,0.6l-0.33,0.28l-3.19,-0.28l-0.58,0.23l0.21,1.63l0.34,0.39l0.4,0.28l0.26,0.7l-0.29,1.73l-0.28,0.12l-1.88,0.43l-0.5,-0.38l-0.38,-0.37l-0.37,-0.12l-1.32,-0.06l-1.5,-0.2l-1.83,-0.53l-1.27,-0.68l-0.26,-0.22l-0.24,-0.41l1.03,-2.66l1.35,-1.65l-0.2,-0.63l0.44,-0.43l0.62,-1.59l0.47,-4.61l-0.08,-1.36l-0.27,-1l-0.25,-0.21l-0.35,-0.25l0.25,-1.63l0.29,-3.49l0.14,-0.34l0.27,-0.4l0.29,-0.37l0.67,-0.65l0.44,-1.5l0.48,-2.88l-0.55,-1.11l-0.16,-0.41l0.01,-0.38l0.47,-0.75l1.66,0.15L505.81,401.11zM507.77,371.91l4.27,0.36l0.84,1.39l1.39,0.28l2.23,-1.67l2.23,0.83l1.39,2.5l1.95,1.39l2.5,2.23l2.78,1.11l1.67,-1.95l1.11,-1.67l2.23,-0.28l2.59,0.35l0,0l-0.05,0.79l0.02,0.51l-0.28,0.8l-0.28,0.4l-0.3,0.31l-0.43,0.37l-0.28,0.48l0.51,1.48l0.91,1.99l0.17,0.81l-0.3,1.05l0.27,0.89l-0.3,3.44l-0.06,0.46l-0.25,0.53l-0.22,1.18l0.08,0.57l0.36,0.87l0.25,2.21l-0.6,1.03l-0.32,0.37l0,0.54l0.91,2.17l0.89,1.8l0.15,0.49l0.2,1.12l0.05,1.02l0.4,0.57l0.07,1.25l-0.72,0.67l-1.85,0.88l-0.44,-0.08l-0.14,-0.49l-0.2,-0.33l-0.46,-0.09l-0.34,0.18l-0.3,0.29l-1.31,2.61l0.3,0.58l0.74,0.64l0.17,0.38l-0.95,3.03l-0.21,0.4l-0.13,0.42l-0.06,0.41l0.15,1.5l0.25,1l0.05,0.77l0.07,1.82l-0.04,0.52l-0.13,0.63l-0.18,0.43l-0.1,0.38l-0.05,0.96l0.26,0.65l0.57,0.96l0.36,0.31l0.76,0.33l0.57,-0.01l0.4,0.02l0.89,0.09l0.46,0.12l1.36,0.84l0.09,1.99l-0.1,0.37l-0.27,0.19l-0.52,-0.13l-1.43,0.48l-0.48,1.2l-0.08,1.3l1.23,0.92l2.09,1.98l0.16,1.26l-0.18,0.45l-0.9,0.6l-0.28,0.11l-0.3,0.17l0,0.57l0.73,1.1l0.82,0.93l0,0l-1.07,-0.5l-0.48,0.02l-2,0.98l-0.2,0.79l-1.99,0.22l-0.11,-0.77l-0.26,-0.53l-0.47,-0.6l-0.42,-0.29l-0.64,-0.06l-0.3,-0.13l-1.09,-1.82l-0.07,-0.83l-0.68,-0.27l-0.47,0.33l-0.61,0.63l-0.47,0.7l-0.2,0.78l-2.75,-0.47l-0.89,-0.23l-0.29,-0.23l-0.94,-0.02l0,0l0,-0.81l-0.22,0.67l0,0l-0.24,-0.02l-0.36,-0.14l-0.54,-0.57l-0.71,0.14l-0.62,0.43l0,0l-0.06,-0.68l0.1,-2.3l-0.95,-2.27l-0.14,-0.45l0.49,-2.51l0.3,-0.35l0.55,-0.37l0.41,-0.25l0.33,-0.19l0.29,-0.1l0.5,-0.22l-0.02,-1.42l-0.25,-0.82l0.11,-0.48l0.57,-1.06l0.51,-0.58l0.47,0.02l1,0.68l0.04,-2.63l-0.44,-0.55l-0.42,-0.26l-0.41,-0.42l-0.22,-0.56l-0.2,-1.13l-0.02,-1.03l0.07,-2.72l0.5,-1.27l0.32,-0.13l1.27,0.07l0.41,0.08l0.3,0.39l1.11,0.73l0.42,0.12l0.18,-0.24l-0.36,-0.59l-0.67,-0.18l-0.46,-0.22l-0.57,-0.47l-2.34,-3.64l0.69,-0.82l0.7,-0.51l2.09,-0.67l0.45,0.25l0.41,0.75l-0.01,0.42l1.29,3.75l0.25,0.19l0.2,-0.35l-0.12,-1.43l-0.5,-2.54l-0.19,-0.82l-0.18,-1.4l0.03,-0.53l0.09,-0.73l0.1,-0.51l0.13,-0.48l0.04,-0.61l-0.26,-0.2l-0.61,0.01l-0.49,0.56l-0.93,0.55l-1.79,-0.27l-1.1,-0.6l-0.59,-0.84l0.12,-0.49l0.76,-1.21l2.15,-2.19l0.59,0.02l0.48,0.1l1.47,-0.35l1,-0.5l0.79,-0.71l0.25,-0.31l0.32,-3.79l-0.52,0.19l-0.5,3.38l-0.32,0.6l-1.02,0.51l-1.46,0.48l-0.48,0.01l-0.33,-0.14l-0.57,-0.45l-0.42,-1.27l-0.48,-0.68l-0.94,-1.12l-0.55,-0.31l-1.31,-0.33l-1.09,0.33l-0.47,0.2l-0.88,1.39l0.2,0.75l0.27,0.25l0.2,1.11l-1,1.05l-0.94,0.71l-0.48,0.08l-1,-0.23l-0.46,-0.15l-0.94,0.03l-0.28,0.12l-0.69,0.33l-0.38,0.13l-0.24,0.01l-0.91,-0.58l-1.69,-0.34l-0.74,-0.04l0.22,-1.45l0.64,-0.97l0.26,-0.18l0.47,-0.02l0.47,0.07l0.53,-0.16l0.93,-1.73l-0.44,0.42l-0.29,0.65l-0.28,0.38l-0.41,0.13l-1.71,-0.17l-0.87,-0.56l-1.32,-1.61l-0.03,-0.7l0.26,-0.61l-0.05,-1.27l-0.17,-0.73l-0.49,-1.38l-0.45,-0.57l-0.22,-0.48l-0.29,-1.8l-0.31,-2.11l0.68,-2.05l1.63,-4.4l0.65,-0.85l0.58,-1.25l-0.11,-0.69l-0.4,-1.02L507.77,371.91z"/>
		<path id="CL-ML" title="Maule" class="land" d="M546.63,303.35L546.54,303.3L546.12,302.81L545.97,302.19L545.87,301.67L545.38,301.42L545.05,301.47L544.78,301.67L543.65,303.11L543.54,303.56L543.5,303.94L543.09,304.4L542.51,304.32L541.1,303.54L540.81,303.25L539.28,301.99L538.09,301.63L537.2,301.28L536.68,300.95L536.33,300.61L536.15,300.17L535.79,299.39L534.86,299.24L534.52,299.34L534.16,299.49L533.84,299.47L533.07,299.29L532.82,299.07L532.72,298.74L532.53,298.3L531.43,297.14L531.32,297.68L531.35,298.12L530.33,299.27L528.58,299.22L528.22,299.1L525.5,297.68L523.44,295.86L523.34,295.25L523.12,295.01L521.53,294.3L521.53,294.3L521.8,294.12L522.51,293.46L524.05,291.9L524.23,291.54L524.35,290.99L524.32,290.35L523.98,289.52L523.38,288.04L523.42,287.55L523.74,287.17L524.33,286.84L525.31,286.01L526.22,283.71L526.72,282.26L526.93,281.84L527.53,281.12L527.99,280.82L528.54,280.5L529.35,279.71L529.64,279.07L529.77,278.3L529.81,277.78L529.83,277.17L529.85,276.67L529.97,275.73L530.75,274L531.07,273.66L531.35,273.23L531.69,272.21L531.69,272.21L532.11,272.38L532.37,272.56L533.19,273.57L533.68,274.31L535.64,275.11L537.09,275.55L539.25,275.69L541.43,276.08L541.37,275.49L541.32,275.11L542.5,274.09L545.03,273.89L545.43,273.89L545.97,274.03L549.96,275.22L550.24,275.39L550.84,276L552.44,277.23L555.02,277.49L555.86,277.55L555.97,277.54L555.97,277.54L555.94,277.67L555.92,278.33L555.94,278.97L556,279.33L555.92,280.1L555.67,280.52L554.67,281.03L554.23,281.12L553.74,281.14L553.4,281.23L553.05,281.78L553.02,282.23L553.26,282.73L553.51,282.93L555.08,283.91L555.45,286.53L555.34,288.26L555.13,288.62L555.27,289.27L555.76,290.36L556.2,291.69L555.75,292.07L555.37,292.73L555.23,293.12L555.29,294.49L555.45,296.31L555.05,297.37L554.85,297.64L554.44,297.87L553.91,297.83L552.71,297.88L551.06,299.74L550.87,301.03L551.18,301.85L551.03,302.27L547.53,303.54L547.12,303.48z"/>
		<path id="CL-AP" title="Arica y Parinacota" class="land" d="M575.98,21.14L573.83,21.14L572.44,22.53L572.16,24.2L569.94,24.48L567.71,22.81L563.81,22.81L561.59,24.48L559.36,25.87L557.07,25.98L557.07,25.98L557.09,25.37L557.26,25L557.22,24.37L556.49,20.32L556.26,19.71L556.11,16.79L556.25,15.93L556.65,13.86L556.28,13.31L555.92,12.94L555.45,12.58L555.32,12.53L555.54,12.33L555.87,12.15L556.42,12.1L557.54,12.22L558.23,12.26L558.55,12.24L559.2,12.12L561.22,11.36L561.68,11.05L562.97,9.69L563.3,9.31L563.98,7.93L564.29,7.13L564.36,6.64L563.75,4.39L563.62,4.11L563.39,3.89L563.22,3.62L563.28,3.01L563.44,2.61L563.72,2.18L564.35,2.25L565.58,2.35L568.2,0L568.38,1.89L569.96,3.29L570.25,3.56L570.65,4.34L570.78,4.75L570.74,5.74L570.83,6.26L570.96,6.69L571.17,7.04L573.41,7.77L574.29,7.92L574.27,8.36L574.14,8.64L573.62,8.96L573.33,9.21L573.19,9.58L573.38,10.02L573.68,10.33L574.02,10.74L574.25,13.18L574.45,13.51L574.75,13.91L574.88,14.18L574.98,14.54L574.95,14.9L574.85,15.68L574.9,16.45L574.96,17.15L575.3,18.41L576,19.95L576.27,20.5z"/>
		<path id="CL-LR" title="Los Ríos" class="land" d="M534.95,376.79L532.36,376.44L530.13,376.72L529.02,378.39L527.35,380.34L524.57,379.22L522.06,377L520.11,375.6L518.72,373.1L516.5,372.27L514.27,373.94L512.88,373.66L512.04,372.27L507.77,371.91L507.77,371.91L508.07,370.17L509.03,369.01L508.96,367.93L508.81,367.44L508.44,366.99L508.25,366.59L508.54,366.13L508.75,365.89L511.43,364.58L512.67,364.8L513.04,364.24L513.01,362.06L514.06,359.37L514.28,358.96L514.79,357.65L515.23,356.19L514.92,355.62L514.92,355.62L515.4,355.76L515.76,355.85L516.16,355.9L516.6,355.85L517.04,355.62L517.42,355.23L517.7,354.75L518.4,353.88L520.46,353.84L520.78,354.09L520.93,355.14L521.35,355.91L521.77,356.38L522.13,356.63L522.54,356.72L522.98,356.76L523.39,356.74L524.46,356.54L524.88,356.55L526.98,357.28L527.64,357.61L528.18,357.69L529.53,357.17L529.89,356.97L530.17,356.66L530.59,356.26L530.95,356.08L531.33,356.01L533.6,356.21L533.96,356.33L534.41,356.64L534.8,357.02L535.6,357.58L536.56,357.6L536.86,357.65L537.03,358.09L537.12,358.55L537.16,358.95L537.16,358.95L537.05,359.1L536.78,360.04L536.83,361.9L537.34,364.24L537.85,366.01L537.38,367.8L536.19,368.58L535.61,369.05L535.23,370.71L535.61,371.48L536.63,372.53L536.87,372.1L537.35,372.43L537.42,373.13L536.88,374.43L536.68,374.78L536.4,374.86L536.07,374.54L535.77,374.51z"/>
	</g>
</svg>