<?xml version="1.0" encoding="utf-8"?>
<!-- (c) ammap.com | SVG map of DR Congo - High -->
<svg xmlns="http://www.w3.org/2000/svg" xmlns:amcharts="http://amcharts.com/ammap" xmlns:xlink="http://www.w3.org/1999/xlink" version="1.1">
	<defs>
		<style type="text/css">
			.land
			{
				fill: #CCCCCC;
				fill-opacity: 1;
				stroke:white;
				stroke-opacity: 1;
				stroke-width:0.5;
			}
		</style>

		<amcharts:ammap projection="mercator" leftLongitude="12.205166" topLatitude="5.387119" rightLongitude="31.307673" bottomLatitude="-13.457585"></amcharts:ammap>

		<!-- All areas are listed in the line below. You can use this list in your script. -->
		<!--{id:"CD-BC"},{id:"CD-BN"},{id:"CD-EQ"},{id:"CD-KA"},{id:"CD-KE"},{id:"CD-KN"},{id:"CD-KW"},{id:"CD-MA"},{id:"CD-NK"},{id:"CD-OR"},{id:"CD-SK"}-->

	</defs>
	<g>
		<path id="CD-BC" title="Bas-Congo" class="land" d="M8.85,550.45l0.04,0.41l-0.16,0.28l-0.47,0.37l0.07,-0.35l-0.89,0.6l-0.42,-0.29l0.04,0.18l-0.44,0.12l-0.11,-0.59l0.47,-0.44L8.85,550.45zM70.38,497.41l-0.5,0.57l1.65,2.28l1.39,0.78l-0.41,0.29l-0.31,0.77l-0.87,0.74l-0.04,0.86l-0.26,-0.2l-0.38,-0.01l-0.97,0.35l-0.73,0.6l-0.31,0.66l0.25,0.6l0.78,0.42l-0.11,0.63l0.24,0.71l0.92,-0.03l0.48,0.59l-0.62,2.2l-0.06,1.35l0.28,0.54l-0.5,0.74l0.06,1.74l0.42,1.17l2.36,-1.58l0.6,0.31l1.58,0.24l1.1,1.22l1.74,0.63l1.42,-0.19l1.57,-1.32l1.97,-1.05l0.83,-0.21l0.74,-0.59l0.28,-0.81l0.35,-0.27l0.2,-0.9l1.18,-2.35l2.25,-2.1l0.38,-0.74l1.38,-1.49l2.23,-1.7l1.37,-2.22l0,0l3.23,4.86l2.31,2.24l1.14,0.51l1.15,-0.37l0.5,-1.09l-0.17,-1.52l0.57,-0.7l0.71,-0.43l1.57,-0.22l3.08,0.88l2.26,-0.31l0.77,0.18l0.13,0.72l-1.05,1.87l0.28,0.4l2.28,0.78l0.4,0.33l0.2,1.11l-0.73,1.81l-0.36,2.73l-1.03,0.75l-1.96,0.27l-0.37,0.75l0.71,1.14l2.72,1.98l2.79,0.79l1.65,-0.19l0.73,-1.03l0.11,-2.33l0.2,-0.39l3.54,2.92l8.81,0.09l0,0l-0.83,2.29l-0.04,1.7l0.38,2.86l-1.3,6.11l0.54,6.39l-0.25,2.2l-1.41,3.4l-2.34,1.59l-0.65,1.3l0,0l-7.56,0.23l-5.99,-0.34l-4.62,0.22l-18.04,-0.11l-8.46,0.25l-3.33,0.94l-2.76,-0.63l-1.62,0.35l-2.97,-0.16l-2.27,-0.44l-2.04,0.22l-1.74,-0.88l-0.42,0.23l-2.72,-0.08l-1.31,0.58l-1.66,-1.36l-1.12,0.52l-1.81,-0.08l-2.1,0.63l-8.21,-0.03L43,547.13l-1.33,-0.33l-3.56,0.06l-0.45,0.18l-0.73,0.79l-3.57,-1.14l-2.04,0.31l-1.97,0.83l-0.64,-0.21l-0.74,-0.69l-1.04,-0.07l-0.93,0.2l-3.96,2.24l-2.18,0.82l-2.33,0.17l-1.74,1.03l-2.52,0.25l-2.52,1.2l-2.85,0.8l-0.15,-0.72l-0.4,-0.12l-0.01,-0.55l0.51,-0.27l0.52,0.04l0.92,-1.07l-0.16,-0.22l-0.04,-0.2l0.13,-0.15l-0.15,-0.09l-0.08,-0.04l-2.13,0.21l-0.44,0.24l-0.2,-0.02l-0.16,0.12l0.27,1.12l-0.32,-0.88l-1.61,-1.83l-0.11,-0.56l-0.15,0.09L2.8,547.55l-2.18,-2.58L0,543.62l1.89,-0.83l8.63,-0.3l0.08,-19.08l-1.39,-0.51l-0.74,-1.03l0.27,-0.62l1.6,-0.04l0.74,-0.56l0.72,0.02l0.73,-0.34l0.56,-0.59l0.45,0.01l0.37,-0.96l-0.25,-0.97l0.22,-0.34l1.03,0.26l1.47,-0.3l0.4,-1.49l0.79,-0.85l0.77,-0.23l0.69,-0.74l-0.2,-0.62l1.46,-2.28l0.68,-0.45l0.62,-0.29h1.4l2.01,-0.93l1.57,-0.3l0.77,-0.48l1.24,0.34l0.39,-0.66l-0.27,-0.89l0.03,-1.27l0.77,-0.45l2.67,2.63l0.74,0.35l1.01,1.51l-0.32,0.36l0.96,1.06l0.92,0.49l1.01,-0.04l0.46,0.39l0.43,0.04l0.47,1.56l-0.21,0.13l-0.05,0.5l1.78,1.69l0.12,-0.45l-0.54,-0.99l0.12,-0.18l0.76,-0.17l1.26,0.22l0.27,-0.9l0.46,-0.39l1.28,-0.51l0.77,0.26l0.63,-0.26l1.31,-2.37l0.46,0.04l0.75,0.7l0.54,0.18l0.27,-0.86l-0.44,-0.95l1.42,-0.08l0.03,-0.87l-0.51,-0.2l-0.15,-0.78l0.34,-0.6l-0.16,-0.43l0.65,-0.82l0.47,-1.12l0,-0.82l-0.7,-1.42l0.07,-0.95l0.26,-0.29l0.77,-0.12l0.62,-0.63l1.21,-0.08l1.08,0.82l0.98,1.69l2.44,0.54l1.33,-1.41l0.8,-1.57l0.35,0.05l1.28,-0.61l0.72,0.12l1.73,-0.55l0.81,0.19l2.51,-1.33l1.08,-1.05l0.6,0.06l0.4,-0.4l1.18,0l0.27,-0.79l1.3,-0.33l0.24,0.31L70.38,497.41z"/>
		<path id="CD-BN" title="Bandundu" class="land" d="M138.2,418.68L140.15,420.88L141.53,423.36L150.42,423.36L150.31,419.87L149.77,419.11L147.59,418.07L147.45,417.34L147.78,416.64L152.81,417.3L154.31,417.69L156.07,417.3L159.05,414.85L170.73,408.03L172.51,407.28L175.39,406.64L178.11,404.93L182.15,404.02L183.42,403.44L186.22,401.45L187.94,399.72L189.2,398.19L190.39,395.6L192.76,395.77L197.19,396.51L199.3,398.71L200.73,399.55L201.98,399.96L204.24,399.94L205.91,399.26L207.64,398.91L210.28,399.11L211.59,398.83L212.25,398.24L212.79,397.12L213.55,396.57L213.86,395.66L211.8,393.31L211.18,392.2L211.11,389.3L211.89,388.18L213.93,387.38L215.59,386.26L216.25,385.46L216.91,383.34L217.26,383.08L217.68,383.12L218.64,384.17L219.66,386.55L219.81,388.75L220.36,391.37L221.94,393.4L223.24,395.8L224.51,397.52L227.67,400.11L228.27,402.58L229.45,405.35L232.88,410.48L234.06,414.84L234.17,416.61L236.04,417.1L236.96,416.92L237.71,416.25L239.57,413.48L240.41,412.72L241.29,412.31L243.57,413.62L243.81,413.96L244.54,416.36L246.14,420.24L247.04,421.29L249.83,421.73L252.88,421.44L255.67,421.67L257.38,422.56L258.76,424.6L260.39,424.67L263.11,426.18L264.39,425.94L267.24,424.41L270,424.82L270.42,424.69L270.84,423.9L271.5,423.36L281.65,435.51L281.91,436.36L281.89,438.28L282.1,438.92L282.1,438.92L281.6,439.61L280.42,442.45L280.51,444.26L280.3,445.42L279.8,446.2L277.47,448.53L276.3,450.39L271.92,461.49L270.75,465L270.3,472.25L270.97,477.96L270.87,482.8L271.21,485.07L271.36,491.34L270.05,492.37L269.88,493.12L269.41,493.53L266.05,495.21L265.11,495.36L264.54,495.06L264.21,495.12L263.9,496.15L262.92,495.95L261.72,496.52L261.42,496.89L261.14,498.13L261.16,499.07L260.54,499.79L259.42,499.33L258.55,499.77L258.15,499.72L257.47,499.09L257.43,498.39L256.92,497.79L256.29,497.55L255.42,497.72L254.24,496.25L253.07,495.89L253.07,495.89L251.98,496.13L250.97,496L250.97,496L250.79,496.69L250.99,498.36L251.72,499.15L252.55,500.75L252.68,502.14L253.54,503.08L252.92,504.24L252.26,504.68L251.72,506.12L251.84,508.36L251.43,509.09L251.47,511.65L252.35,512.96L253.21,516.96L254.48,518.77L254.51,519.14L254.18,519.68L254.27,520.25L254.99,521.09L255.87,524.11L255.87,525.79L255.65,526.47L256.02,527.77L255.36,528.21L255.21,529.1L254.42,530.33L254.35,535.74L254.55,536.87L255.51,539.38L255.31,540.01L255.49,540.91L255.03,541.28L255.33,541.53L256.2,548.88L258.8,551.04L260.96,551.91L262.7,554.07L265.73,556.23L267.89,560.13L268.76,562.29L271.36,564.45L273.96,564.45L275.69,567.48L277.42,571.38L277.42,575.71L275.69,580.91L272.66,581.78L269.63,581.11L269.63,581.11L269.82,580.27L259.88,580.25L259.39,582.98L235.11,583.02L235.22,584.01L235.72,584.88L234.77,585.87L233.56,588.75L233.87,589.75L233.29,593.1L233.53,594.85L234.38,596.67L235.14,597.71L234.41,598.25L234.08,598.74L233.25,599.17L233.51,600.15L232.86,601.23L229.89,601.29L229.85,601.56L229.5,601.75L229.79,602.84L230.43,603.93L230.8,605.54L230.53,605.96L230.07,608.17L229.27,609.1L229.09,611.27L229.11,612.34L229.63,615L211.28,615.15L210.57,613.98L210.74,613.78L210.62,612.63L202.7,612.59L202.81,613.86L202.54,615.15L198.17,615.15L198.41,615.57L197.68,616.03L196.98,616L195.87,615.72L195.39,615.59L195.5,614.95L195.06,614.77L194.01,614.95L192.59,614.81L190.55,615.42L189.97,616.27L188.79,616.44L188.44,617.34L188.96,617.96L188.86,618.33L185.64,618.29L185.06,618.77L183.71,617.8L181.95,617.69L180.04,618.09L179.13,618.72L176.7,618.26L175.55,618.41L173.19,619.28L171.55,619.25L170.56,618.42L170.52,618.12L169.79,617.81L169.77,617.36L170.17,616.65L170.66,616.56L169.86,615.57L169.1,615.15L169.23,613.57L168.28,613.35L167.77,612.81L168.18,611.4L167.21,610.96L167.42,610.09L166.51,610.06L165.99,609.39L166.04,608.48L164.62,608.02L163.9,607.39L164.21,606.05L163.77,605.54L162.92,605.17L163.25,603.22L161.21,602.17L160.66,601.59L159.94,600.15L160.17,599.48L160,599.07L158.6,598.29L158.72,597.61L159.62,597.31L159.53,596.91L158.75,596.68L158.25,596.05L157.86,596.67L157.13,596.6L157.34,594.74L157.11,594.15L156.05,594.04L155.04,593.35L154.57,592.6L153.77,592.67L153.72,591.49L153.23,590.44L152.11,589.56L152.15,589.09L152.65,588.5L152.11,587.94L152.02,587.09L151.3,585.42L151.64,584.99L152.08,585.54L152.57,585.43L152.66,584.45L153.04,583.79L152.73,582.6L152,582.42L151.63,581.95L151.9,580.81L151.57,580.32L151.6,578.87L150.89,578.32L150.25,578.49L149.63,578.13L149.49,576.8L148.37,575.71L148.18,573.92L147.22,573.4L146.99,572.87L146.44,570.03L145.63,569.55L145.56,569.13L146,567.93L144.85,567.04L145.09,566.18L144.34,565.29L145.02,564.63L144.41,564.06L143.77,564.14L143.58,562.56L143.66,562.39L144.49,562.58L144.69,562.4L144.78,561.85L144.29,560.32L144.58,559.31L144.32,558.55L144.97,557.21L144.67,556.32L143.65,555.47L143.04,555.42L142.24,555.08L142.31,554.2L140.99,553.75L140.75,552.89L141.02,552.3L140.73,551.06L140.43,549.94L140.8,549.16L140.77,548.4L137.95,547.11L135.76,547.68L134.51,547.43L133.87,546.77L124.53,546.96L124.53,546.96L125.18,545.66L127.52,544.07L128.92,540.67L129.17,538.46L128.64,532.08L129.94,525.97L129.56,523.11L129.61,521.4L130.44,519.11L130.44,519.11L130.4,516.21L129.82,512.47L131.83,509.89L135.31,503.68L135.69,503.32L137.33,503.28L137.33,502.71L138.04,501.87L138.41,500.23L138.92,499.85L138.7,499.42L139.16,498.76L139.16,498.37L138.65,497.33L138.96,496.95L138.96,496.39L138.54,495.47L137.79,494.58L136.42,493.83L134.19,490.26L131.78,489.19L128.18,486.96L126.89,486.48L125.28,486.29L120.27,486.64L118.42,485.5L118.42,485.5L118.99,484.78L119.75,482.03L121.59,478.76L123.42,474.62L125.17,472.3L125.8,470.41L127.55,467.81L128.68,464.65L127.62,463.73L127.45,463.19L127.73,461.55L127.27,458.46L127.81,455.72L127.29,452.9L127.33,451.22L128.1,448.61L128.18,446.49L129.01,444.65L129.16,443.25L127.46,435.54L127.69,430.52L129.31,427.25L133.06,424.57L135.55,421.96z"/>
		<path id="CD-EQ" title="Équateur" class="land" d="M236.98,196.12L240,196.08L242.54,197.07L244.13,197.34L244.86,197.95L245.68,199.78L247.01,200.98L247.84,201.22L248.82,201L250.49,201.42L252.68,203.32L254.75,204.29L256.02,205.84L258.72,207.51L259.58,207.57L260.72,208.28L262.05,210.09L264.25,212.23L264.51,213.13L264.16,214.86L264.53,216.2L265.04,216.76L266.02,217.06L266.8,218.13L267.52,218.28L269.15,219.38L273.06,218.82L273.99,219.06L275.19,219.04L277.46,218.03L278.08,218.29L280.8,218.59L282.55,219.42L284.18,219.73L285.01,220.44L285.58,221.53L287.39,222.61L287.91,222.54L288.54,223.1L289.36,222.83L289.8,221.75L290.81,221.47L292.48,222.88L295.48,223.94L296.79,223.67L297.64,224.02L299.87,224.36L302.62,222.39L302.93,222.39L303.46,222.82L305.31,222.56L306.5,223.63L307.55,223.64L309.3,224.6L311.74,224.83L312.52,225.11L313.24,224.69L314.03,224.63L314.82,225.18L316.87,225.5L317.87,226.14L319.06,227.34L320.83,228.22L322.35,228.61L324.71,228.63L326.93,228.25L328.08,228.28L328.65,227.91L328.65,227.91L331.79,229.02L335.83,232.32L336.7,232.65L338.12,232.53L338.35,235.29L341.15,236.7L342.49,237.05L343.91,236.5L344.73,236.46L345.56,235.98L346.27,236.16L347,236.7L347.67,236.5L348.56,235.85L349.76,235.85L350.57,235.57L351.38,236.05L352.33,236.02L352.85,236.59L353.41,236.7L354.37,237.42L357.36,238.34L357.88,238.25L358.65,237.51L359.62,237.81L360.1,237.72L361,238.14L362.36,237.81L361.98,239.51L361.46,240.6L359.99,241.81L358.48,243.87L357.7,244.51L356.92,244.77L355.49,243.72L353.21,243.68L352.51,242.9L351.34,242.53L350.24,243.31L348.24,245.66L347.06,246.69L345.64,247.11L344.4,247.02L343.57,246.67L341.46,247.96L337.13,249.11L335.2,249.88L333.8,251.75L333.89,253.04L334.85,254.04L337.94,254.79L338.69,255.18L339.33,255.88L339.46,257.25L338.83,260.47L338.8,262.11L339.22,263.69L339.92,264.27L340.71,264.34L341.51,263.76L344.38,260.21L345.89,258.99L347.48,258.65L348.48,259.45L348.57,260.26L348.27,261.68L346.79,264.88L346.67,266.46L345.37,268.68L345.31,269.48L345.83,270.71L345.98,271.88L344.57,274.59L345.02,275.81L347.08,278.23L348.33,279.39L349.92,280L355.73,278.95L356.52,278.97L357.37,279.32L359.4,281.61L363.22,283.47L365.96,285.47L366.38,286.71L366.73,289.87L366.35,290.2L365.24,290.1L362.54,288.96L356.88,288L352.28,291.32L349.26,292.95L348.75,293.02L347.63,292.56L345.46,290.2L345.08,290.14L344.99,290.93L343.76,291.27L343.85,292.24L343.24,292.91L342.23,292.91L342.25,293.71L341.51,294.02L341.4,294.55L341,294.55L340.65,295.05L339.81,295.01L338.08,295.68L337.2,295.05L336.23,294.92L334.96,292.76L333.31,292.17L332.52,292.17L332.15,292.49L332.1,292.89L332.67,294.46L330.37,298.67L329.43,304.52L328.96,305.75L327.23,307.67L324.53,309.38L323.78,310.1L322.99,311.82L324.2,311.78L324.86,311.99L325.49,311.78L325.89,312.03L327.72,312.25L328.26,312.8L329.47,313.04L331.21,314.16L331.91,315.01L332.48,315.29L332.96,316.12L333.81,316.33L334.63,317.71L334.68,318.67L335.2,319.23L335.4,320.28L336.19,321.03L337.15,322.49L338.02,324.88L338.47,325.08L338.6,325.39L338.69,326.34L339.92,327.96L340.03,328.72L339.81,329.82L340.25,330.62L339.95,331.14L341.31,334.15L341.13,337.51L341.76,338.85L343.11,340.33L343.78,341.51L343.76,342.68L344.11,344.45L344.98,346.52L346.53,348.92L348.51,350.8L350.26,354.68L353.75,358.54L355.05,360.85L358.94,366.31L359,367.63L358.49,368.08L356.55,368.42L355.27,369.77L353.96,369.58L351.2,368.54L350.37,368.48L348.8,369.4L344.89,372.58L352.84,373.2L353.17,373.55L353.65,375.14L354.48,375.44L356.15,375.05L359.77,373.65L360.5,373.57L361.14,373.89L363.86,378.15L366.02,379.91L365.87,380.3L365.13,380.83L362.97,381.29L361.42,381.92L357.37,385.02L357.27,385.37L359.53,387.85L362.73,390.74L367.19,392.9L369.24,394.16L369.87,394.96L370.09,396.12L370.62,397.21L372.64,397.95L374.72,400.11L376.26,401.27L379.78,403.21L381.29,403.75L382.81,403.93L386.89,403.65L387.64,404.02L388.6,406.37L389.94,408.66L390.82,412.11L391.37,416.47L391.37,416.47L391.13,416.61L379.03,414.84L377.43,416L374,415.75L372.28,415.97L371.52,416.4L370.95,417.19L370.95,419.29L370.68,420.72L368.23,421.16L367.99,421.9L368.09,423.95L364.45,423.52L361.88,423.67L354.81,425.05L352.94,426.07L352.28,425.44L350.2,422.21L349.36,421.62L348.23,421.18L346.91,421.06L345.7,421.29L343.83,422.14L342.95,420.61L341.7,419.66L340.1,418.84L338.27,418.69L335.59,417.19L334.41,417.52L333.86,417.01L332.72,419.35L330.88,421.62L330.15,422.04L324.11,421.44L320.64,420.36L319.74,420.27L319.08,421.12L319.15,421.51L320.31,424.11L321.28,429.65L323.14,435.53L323.3,436.73L323.02,437.54L322.69,437.93L321.87,438.22L320.18,437.61L319.68,436.45L320.05,434.81L319.92,433.33L319.46,432.61L318.69,432.15L318.29,432.15L317.52,432.65L315.37,435.16L312.27,436.58L310.58,438.97L310.58,438.97L308.26,440.2L305.82,438.7L303.74,437.96L302.48,436.78L301.03,436.45L299.56,435.04L298.47,434.81L296.82,434.03L296.57,434.25L296.31,438.34L295.9,438.65L293.9,438.58L291.44,439.48L289.64,439.68L287.14,439.68L282.1,438.92L282.1,438.92L281.89,438.28L281.91,436.36L281.65,435.51L271.5,423.36L270.84,423.9L270.42,424.69L270,424.82L267.24,424.41L264.39,425.94L263.11,426.18L260.39,424.67L258.76,424.6L257.38,422.56L255.67,421.67L252.88,421.44L249.83,421.73L247.04,421.29L246.14,420.24L244.54,416.36L243.81,413.96L243.57,413.62L241.29,412.31L240.41,412.72L239.57,413.48L237.71,416.25L236.96,416.92L236.04,417.1L234.17,416.61L234.06,414.84L232.88,410.48L229.45,405.35L228.27,402.58L227.67,400.11L224.51,397.52L223.24,395.8L221.94,393.4L220.36,391.37L219.81,388.75L219.66,386.55L218.64,384.17L217.68,383.12L217.26,383.08L216.91,383.34L216.25,385.46L215.59,386.26L213.93,387.38L211.89,388.18L211.11,389.3L211.18,392.2L211.8,393.31L213.86,395.66L213.55,396.57L212.79,397.12L212.25,398.24L211.59,398.83L210.28,399.11L207.64,398.91L205.91,399.26L204.24,399.94L201.98,399.96L200.73,399.55L199.3,398.71L197.19,396.51L192.76,395.77L190.39,395.6L189.2,398.19L187.94,399.72L186.22,401.45L183.42,403.44L182.15,404.02L178.11,404.93L175.39,406.64L172.51,407.28L170.73,408.03L159.05,414.85L156.07,417.3L154.31,417.69L152.81,417.3L147.78,416.64L147.45,417.34L147.59,418.07L149.77,419.11L150.31,419.87L150.42,423.36L141.53,423.36L140.15,420.88L138.2,418.68L138.2,418.68L140.43,415.23L147.05,402.04L148.66,399.9L150.28,398.31L152.85,396.33L154.92,395.43L157.17,393.87L158.86,393.15L161.21,393.01L164.53,391.2L169.38,386.38L175.5,378.62L176.34,376.88L177.37,371.8L177.23,369.81L176.52,367.09L176.47,363.75L178.31,359.68L177.89,359.1L178.44,356.25L179.91,352.81L180.99,351.4L183.18,349.62L184.17,348.05L184.36,347.3L184.2,344.08L183.86,343.38L181.99,341.46L181.67,340.76L181.62,338.68L182.16,337.87L181.95,336.16L182.28,335.01L181.9,333L181.19,331.95L180.67,330.42L180.84,327.45L181.27,326.18L181.89,325.17L182.92,324.19L183.77,322.61L184.88,317.08L186.4,313.42L187.82,311.25L188.15,307.02L188.46,306.26L187.5,301.7L187.8,299.81L188.6,297.21L188.34,295.85L187.73,295.15L188.49,293.15L188.67,288.42L189.04,287.51L190.57,286.31L191.58,285.02L191.74,284.22L192.28,283.59L192.91,281.98L193.39,279.86L196.5,276.93L196.64,276.18L198.27,273.38L198.49,272.65L199.12,272.04L199.51,271.22L199.91,269.8L199.72,267.89L200.63,265.48L202.2,263.7L202.71,261.9L204.38,261.03L204.91,260.5L205.69,259.08L206.2,257.48L205.98,255.84L206.46,253.61L205.91,251.84L206.14,249.85L205.46,247.14L205.21,243.98L204.59,241.71L204.45,240.19L204.79,238.54L204.92,235.58L206.02,234.2L206.54,232.96L206.43,229.82L205.46,226.94L203.29,223.03L203.23,222.16L204.17,221.27L205.08,220.84L206.06,221.19L208.62,220.89L210.44,219.56L211.1,218.76L211.63,217.55L212.29,214.43L213.98,212.65L214.67,211.32L215.51,210.99L216,210.04L217.99,208.21L218.3,207.15L219.59,205.31L220.14,203.69L221.08,202.6L222.04,202.22L224.17,202.17L225.42,200.11L229.18,197.99L230.61,196.46L231.46,196.17L232.91,196.41L233.95,196.33L234.59,195.87L235.47,195.67z"/>
		<path id="CD-KA" title="Katanga" class="land" d="M450.53,519.03L516.26,519.03L516.26,519.03L533.04,519.03L533.04,519.03L550.01,519.04L550.01,519.04L552.17,525.5L555.09,532.29L556.56,536.79L557.3,540.26L557.58,543.59L557.35,546.38L556.64,549.82L556.68,555.7L557.18,559.08L559.11,564.24L562.04,568.73L563.48,570.51L567.16,573.69L572.89,577.79L576.05,581.13L577.8,583.74L581.66,590.99L583.71,596.46L587.47,604.27L591.04,614.53L591.94,615.15L593.83,618.68L594.4,621.09L594.97,622.36L574.11,625.19L570.16,625.32L534.97,630.42L536.46,633.44L536.96,635.63L536.29,638.28L534.8,640.73L530.03,646.82L528.36,648.44L526.81,649.65L521.55,652.85L519.46,654.5L518.7,655.24L517.73,657.27L517.65,659.48L518.4,660.42L519.43,660.88L520.94,660.34L522.31,658.75L522.96,658.98L523.18,659.69L522.6,661.65L523.23,662.29L523.98,662.84L524.33,663.18L524.84,666.04L525.78,666.75L525.7,667.79L526.24,668.85L526.07,670.89L526.67,671.61L527.49,671.74L527.66,672.44L528.41,673.35L527.59,673.83L527.03,676.28L526.1,678.23L526.47,680.33L526.08,681.97L526,684.69L524.73,686.47L524.57,687.07L525.74,688.83L526.47,689.51L525.99,691.77L526.67,693.76L526.39,696.39L526.47,696.72L527.58,697.75L527.41,699.65L528.09,700.25L528.4,701.06L528.14,701.63L527.47,702.09L527.29,702.89L526.27,702.77L525.62,703.1L525.41,704.46L523.81,706.56L523.3,710.15L522.36,711.18L522.34,713L521.94,713.73L521.32,715.41L521.97,716.88L521.99,717.91L521.51,719.15L521.67,719.92L521.13,721.26L520.67,721.52L520.44,722.55L520.76,724.04L519.75,724.49L519.83,725.4L519.51,726.47L518.7,727.4L518.85,728.35L518.29,731L519.89,732.96L519.46,734L520,734.72L519.35,735.57L520.01,736.13L520.4,736.98L520.07,738.21L520.13,738.97L521.51,738.86L522.15,739.89L522.22,740.56L524.55,741.58L525.77,741.64L526.58,742.93L529.18,744.18L530.07,743.97L530.41,744.17L531.02,746.29L532.75,747.77L533.49,748.98L536.42,751.39L538.08,753.85L538.27,754.99L539.62,757.02L540.24,757.16L541.56,756.84L542.26,757.36L544.24,756.55L545.58,756.69L546.67,756.35L547.6,757.17L547.59,757.81L548.79,758.12L549.85,757.93L553.33,759.84L554.12,759.79L555,758.94L555.34,758.24L555.24,757.58L554,757.32L552.73,755.35L553.1,753.38L553.79,752.25L556.55,750.76L557.22,750.77L558.42,751.21L559.49,751.23L561.29,750.68L562.54,749.7L563.98,749.58L564.04,791.98L563.01,791.39L560.94,792L559.9,791.19L558.83,791.4L557.68,790.47L557.6,789.98L557.8,789.6L557.49,788.98L559.02,788.55L559.37,787.24L559.06,786.53L559.98,785.75L559.6,784.5L558.47,784.89L556.99,784.08L556.08,784.54L555.04,784.54L552.27,787.36L549.82,787.77L549.29,788.48L548.24,787.95L547.7,789.37L546.07,789.95L543.97,791.59L543.26,790.22L542.69,789.56L542.01,789.19L540.92,789.44L538.76,790.76L538.23,790.7L537.35,789.4L537.1,788.31L536.37,787.05L536.24,785.99L535.03,782.39L534.12,782.41L533.53,782.21L533.21,781.84L533.2,780.55L533.18,779.74L532.82,778.95L532.58,777.45L531.42,775.93L530.29,775.08L529.35,773.06L526.99,771.18L526.15,771.23L525.45,771.95L524.93,773.33L524.42,773.6L524.26,773.09L523.51,772.4L523.01,770.59L520.99,768.41L520.69,767.25L521.37,766.78L522.38,766.62L522.84,765.15L522.61,764.63L521.77,763.81L520.34,762.84L520.48,761.76L520.22,761.3L519.01,760.8L516.16,758.13L514.38,757.93L513.61,758.25L512.91,757.72L512.13,757.55L511.66,756.95L510.79,757.73L510.75,758.43L510.06,758.67L508.85,756.17L508.5,755.97L506.47,755.87L505.73,755.52L504.64,756.01L504.42,755.56L504.58,754.71L503.44,752.31L501.77,752.43L500.25,751.97L500.1,752.1L500.22,752.94L498.88,753.4L498.32,753.91L496.83,753.65L495.06,753.83L494.26,753.45L493.68,751.78L492.12,751.32L490.53,749.61L489.96,746.66L489.01,745.61L489.16,743.17L488.87,742.14L487.96,741.38L486.75,740.46L483.34,738.3L481.93,738L481.47,737.54L481.28,733.29L480.62,730.45L479.06,731.47L477.86,731.32L476.89,731.66L475.45,731.57L474.94,731.84L474.82,733.16L475.47,734.09L475.59,734.68L474.29,736.92L473.99,738.52L474.27,739.5L473.11,740.58L472.54,741.86L471.09,743.02L470.3,743.98L469.42,743.85L468.51,744.27L467.56,743.41L466.81,743.29L466.17,743.63L465,744.77L464.66,744.78L464.15,744.23L462.36,744.02L461.27,743.56L459.9,743.81L457.58,742.18L456.23,741.72L455.08,741.88L452.56,743.38L448.78,742.13L448.13,742.5L441.66,742.55L441.3,742.3L441.69,741.55L441.57,741.17L440.69,740.5L439.86,740.59L439.39,740.4L438.73,739.51L438.47,738.4L438.16,737.99L437.59,738.05L436.34,738.89L432.97,738.49L432.31,737.7L431.65,737.38L430.93,735.8L430.29,735.95L428.97,735.91L428.45,736.73L427,737.22L425.88,737.49L425.45,737.08L425.82,736.15L425.78,735.13L425.24,734.32L423.64,733.95L420.73,732.35L420.39,730.98L419.72,730.36L419.89,729.3L419.22,728.77L420.41,728.19L419.69,727.24L419.63,725.49L418.86,724.01L418.92,723.7L419.92,723.3L419.95,722.62L419.41,722.03L419.5,721.78L420.24,721.61L420.69,721.18L420.19,720.3L421.22,718.35L419.68,718.2L417.18,719.38L414.34,719.71L412.2,720.26L409.48,720.12L408.65,720.41L407.71,720.31L406.93,720.75L405.89,720.5L405.24,721.5L403.47,721.87L402.68,721.71L401.55,721.92L401.38,722.66L400.3,722.82L399.24,723.61L398.23,725.1L397.08,725.58L396.87,726.55L396.6,726.81L395.54,726.48L394.65,726.99L393.01,726.95L392.17,727.44L391.9,727.17L391.86,726.48L390.16,725.27L388.12,725.22L387.15,724.62L387.38,724.15L389.1,723.89L390.5,721.27L390.75,718.31L390.29,717.69L390.44,715.67L390.17,714.99L388.16,713.7L386.97,713.37L386.04,713.46L383.89,712.94L383.16,713.45L382.43,713.18L382.1,712.77L382.58,711.25L381.8,710.21L382.08,709.46L381.9,709.09L381.66,708.9L380.93,708.93L379.78,708.41L378.22,708.27L377.25,708.65L376.63,710L376.13,710.53L374.36,711.61L373.81,712.56L373.16,712.89L371.99,712.9L369.74,711.74L368.54,712.25L367.39,712.26L366.01,711.69L364.61,711.77L363.17,710.68L362.06,710.25L359.81,709.99L355.12,713L352.37,715.31L350.73,715.02L348.55,716.02L346.31,715.24L344.53,715.18L342.77,714.63L341.6,714L340.51,714.62L339.79,714.69L339.24,715.61L336.99,715.56L334.76,714.68L332.57,713.16L331.83,712.98L330.16,713.37L329.76,713.66L329.48,714.21L329.77,715.17L329.67,715.9L327.82,717.67L325.07,717.72L324.53,718.72L323.42,719.91L323.11,720.14L322.53,719.98L322.11,719.36L322.46,718.33L322.26,717.38L320.89,715.38L320.86,713.14L320.44,711.93L320.42,710.21L319.64,708.99L319.4,707.93L319.61,707.19L321.23,705.92L323.48,705.26L324.32,704.62L324.51,704.14L323.88,701.5L323.96,697.21L322.71,696.32L323.3,694.72L324.16,693.21L324.32,692.07L323.64,690.21L322.85,689.37L322.79,688.05L321.38,686.39L320.95,684.75L321.02,681.91L320.16,679.58L319.95,677.25L317.98,676.2L316.15,675.66L315.24,674.33L314.21,673.66L313.06,671.99L311.88,670.33L311.71,669.49L309.84,668.41L309.59,665.59L308.36,663.38L308.52,662.33L307.18,660.9L307.48,660.38L307.89,658.22L308.42,656.81L309.34,655.11L309.36,652.89L308.78,649.96L309.02,648.07L309.53,644.98L309.6,643.09L310,641.91L310.75,639.82L311.13,636.79L311.33,634.45L311.97,632.22L312.52,631.14L311.98,628.87L311.23,626.61L311.77,625.59L310.48,624.51L309.9,621.49L309.16,619.78L307.85,616.95L307.02,616.15L305.66,612.84L306.46,611.73L306.26,609.72L306.38,608L307.26,606.5L307.76,604.94L308.24,603.8L308.24,603.8L312.7,605.48L314.22,606.92L316.29,607.95L318.35,608.23L319.8,608.83L321.87,609.06L326.21,608.49L329.86,608.51L330.62,608.14L332.95,606.13L333.55,606.06L334.25,606.51L334.78,607.27L335.22,609.55L335.74,610.68L336.14,610.98L338.22,611.5L339.84,611.31L341.82,612.11L344.08,611.68L348.44,610.2L349.27,609.85L350.38,608.83L350.92,608.62L350.92,608.62L351.51,610.19L351.83,612.21L352.35,612.94L353.05,613.22L353.88,613.04L354.62,611.85L355.02,611.59L356.17,612.2L358.09,612.02L359.77,612.68L361.1,612.84L362.36,612.63L363.55,612.07L367.68,612.17L368.46,611.77L369.35,610.7L369.7,610.87L369.83,611.75L370.23,612.1L371.02,612.07L371.84,611.59L372.12,610.44L372.85,609.87L374.4,609.58L376.45,609.76L376.58,608.68L376.42,608.16L375.33,606.37L375.53,605.29L375.44,603.08L375.71,602.46L375.49,601.4L375.76,600.61L375.59,600.11L376.33,599.51L376.98,597.5L377.24,595.61L378.01,594.81L377.83,594.32L376.99,594.05L376.63,593.56L377.26,591.32L376.72,589.85L377.03,589.28L378.3,588.31L378.88,586.93L379.57,586.29L379.94,585.47L381.72,585.02L382.42,584.4L382.71,583.34L382.17,582.81L382.62,582.22L382.4,581.78L381.96,581.68L381.83,581.39L382.91,580.7L382.25,579.68L382.8,578.91L383.17,578.78L384.4,579.18L385.06,579.92L385.37,580.61L385.23,582.26L385.73,582.85L389.76,584.83L391.34,585.34L392.44,585.34L393.2,585.02L393.54,584.63L394.08,583.1L394.95,582.88L396.98,582.87L398.67,581.05L402.15,579.87L405.19,577.4L407.12,576.19L407.26,575.78L406.85,574.63L406.94,574.11L407.6,572.93L408.33,572.33L411.81,572.08L414.94,572.56L416.94,573.39L418.04,574.19L419.1,575.42L419.62,575.48L423.93,573.85L424.32,573.28L424.45,572.29L424.98,571.53L424.81,570.34L425.06,570.04L426.65,569.42L426.49,568.27L426.09,568.09L423.5,568.53L423.02,568.37L422.75,568.57L422.48,568.18L422.17,568.05L421.79,568.32L421.34,567.92L420.03,566.35L419.27,565.8L418.13,563.92L418.63,562.68L419.82,561.69L422.09,561.59L425.86,562.42L426.65,562.33L428.15,561.28L430.78,560.85L433.63,558.1L435.19,557.1L437.1,557.36L439.57,558.22L440.23,558.89L440.31,560.36L440.92,560.87L441.71,560.72L443.13,559.34L444.3,559.19L446.41,559.45L447.11,559.02L447.77,557.48L446.37,554.68L446.32,553.82L447.55,551.89L447.18,546.82L447.64,543.96L447.55,543.48L444.71,540.83L444.14,539.64L444.12,538.77L444.57,537.52L446.64,535.17L444.54,531.49L445.66,528.31L448.57,524.42L450.35,520.79z"/>
		<path id="CD-KE" title="Kasai-Oriental" class="land" d="M310.58,438.97L312.27,436.58L315.37,435.16L317.52,432.65L318.29,432.15L318.69,432.15L319.46,432.61L319.92,433.33L320.05,434.81L319.68,436.45L320.18,437.61L321.87,438.22L322.69,437.93L323.02,437.54L323.3,436.73L323.14,435.53L321.28,429.65L320.31,424.11L319.15,421.51L319.08,421.12L319.74,420.27L320.64,420.36L324.11,421.44L330.15,422.04L330.88,421.62L332.72,419.35L333.86,417.01L334.41,417.52L335.59,417.19L338.27,418.69L340.1,418.84L341.7,419.66L342.95,420.61L343.83,422.14L345.7,421.29L346.91,421.06L348.23,421.18L349.36,421.62L350.2,422.21L352.28,425.44L352.94,426.07L354.81,425.05L361.88,423.67L364.45,423.52L368.09,423.95L367.99,421.9L368.23,421.16L370.68,420.72L370.95,419.29L370.95,417.19L371.52,416.4L372.28,415.97L374,415.75L377.43,416L379.03,414.84L391.13,416.61L391.37,416.47L391.37,416.47L392.34,421.4L392.34,421.4L392.67,423.86L393.3,426.05L394.93,428.6L397.47,431.82L400.29,437.85L401.74,438.28L403.67,438.31L413.24,437.58L412.85,440.95L412.37,442.66L412.76,444.06L412.77,445.52L413.48,447.25L413.59,448.19L412.45,450.35L411.86,452.61L410.27,455.6L410.32,456.19L411.02,457.23L410.76,457.62L410.23,457.28L409.94,457.43L409.99,457.78L410.47,458.17L410.12,458.94L410.56,459.57L409.97,460.29L409.84,461.2L408.98,461.66L408.96,462.19L408.54,462.65L408.7,463.36L408.54,463.65L407.16,463.73L406.65,464.11L406.69,464.45L407.11,464.69L406.89,465.35L406.92,466.7L405.57,467.18L405.14,468.25L404.68,468.47L404.33,469.65L403.34,469.73L402.83,470.1L402.8,470.62L403.58,471.61L403.6,472.01L403.1,472.59L402.39,472.68L402.63,473.1L402.52,473.86L402.92,474.32L403.01,475.65L403.55,475.98L403.36,476.65L403.47,477.19L402.23,478.39L402.31,478.87L401.34,479.86L401.6,480.42L401.51,480.8L402.56,481.25L402.37,481.95L403.34,481.81L403.88,482.14L403.91,482.47L403.51,482.54L403.44,482.82L404.5,484.41L405.24,484.23L405.2,485.2L405.75,485.31L406.65,486.18L406.52,487.35L407.31,488.34L407.76,488.47L408.28,488.1L409.07,488.62L409.16,490.22L409.94,490.98L409.46,491.37L409.44,491.74L410.27,492.46L409.92,493.35L409.88,494.56L410.32,495.43L410.32,496.02L409.66,497.13L409.6,498.33L408.96,499.24L410.12,500.94L410.14,501.66L408.04,503.52L407.62,504.22L407.46,505.11L406.96,505.09L406.74,505.53L405.9,506.03L405.29,507.62L405.64,509.3L406.3,509.73L406.92,511.35L407.64,511.7L407.91,512.33L408.7,512.66L409.09,513.58L410.12,514.53L410.39,515.15L410.4,516.33L410.93,516.89L411.02,517.63L411.68,518.29L411.92,519.05L450.53,519.03L450.53,519.03L450.35,520.79L448.57,524.42L445.66,528.31L444.54,531.49L446.64,535.17L444.57,537.52L444.12,538.77L444.14,539.64L444.71,540.83L447.55,543.48L447.64,543.96L447.18,546.82L447.55,551.89L446.32,553.82L446.37,554.68L447.77,557.48L447.11,559.02L446.41,559.45L444.3,559.19L443.13,559.34L441.71,560.72L440.92,560.87L440.31,560.36L440.23,558.89L439.57,558.22L437.1,557.36L435.19,557.1L433.63,558.1L430.78,560.85L428.15,561.28L426.65,562.33L425.86,562.42L422.09,561.59L419.82,561.69L418.63,562.68L418.13,563.92L419.27,565.8L420.03,566.35L421.34,567.92L421.79,568.32L422.17,568.05L422.48,568.18L422.75,568.57L423.02,568.37L423.5,568.53L426.09,568.09L426.49,568.27L426.65,569.42L425.06,570.04L424.81,570.34L424.98,571.53L424.45,572.29L424.32,573.28L423.93,573.85L419.62,575.48L419.1,575.42L418.04,574.19L416.94,573.39L414.94,572.56L411.81,572.08L408.33,572.33L407.6,572.93L406.94,574.11L406.85,574.63L407.26,575.78L407.12,576.19L405.19,577.4L402.15,579.87L398.67,581.05L396.98,582.87L394.95,582.88L394.08,583.1L393.54,584.63L393.2,585.02L392.44,585.34L391.34,585.34L389.76,584.83L385.73,582.85L385.23,582.26L385.37,580.61L385.06,579.92L384.4,579.18L383.17,578.78L382.8,578.91L382.25,579.68L382.91,580.7L381.83,581.39L381.96,581.68L382.4,581.78L382.62,582.22L382.17,582.81L382.71,583.34L382.42,584.4L381.72,585.02L379.94,585.47L379.57,586.29L378.88,586.93L378.3,588.31L377.03,589.28L376.72,589.85L377.26,591.32L376.63,593.56L376.99,594.05L377.83,594.32L378.01,594.81L377.24,595.61L376.98,597.5L376.33,599.51L375.59,600.11L375.76,600.61L375.49,601.4L375.71,602.46L375.44,603.08L375.53,605.29L375.33,606.37L376.42,608.16L376.58,608.68L376.45,609.76L374.4,609.58L372.85,609.87L372.12,610.44L371.84,611.59L371.02,612.07L370.23,612.1L369.83,611.75L369.7,610.87L369.35,610.7L368.46,611.77L367.68,612.17L363.55,612.07L362.36,612.63L361.1,612.84L359.77,612.68L358.09,612.02L356.17,612.2L355.02,611.59L354.62,611.85L353.88,613.04L353.05,613.22L352.35,612.94L351.83,612.21L351.51,610.19L350.92,608.62L350.92,608.62L351.52,604.55L351.69,600.66L352.69,595.3L352.69,593.57L352.35,591.8L352.57,589.31L351.94,587L353.78,581.83L353.75,581.44L352.27,579.52L351.47,578.9L348.56,577.51L346.53,574.23L345.76,573.54L344.2,572.73L343.85,572.36L343.45,571.25L343.5,569.75L345.96,565.29L346.6,563.72L347.19,560.1L348.86,557.46L348.47,556.26L346.49,555.02L345.56,553.82L344.95,552.58L344.38,550.19L344.42,546.1L345.22,544.16L346.34,543.48L350.48,543.31L354.83,542.74L358.08,541.3L358.48,541.49L357.95,543.07L358.21,543.53L358.63,543.65L361.09,542.6L361.77,541.48L362.63,540.82L365.65,539.77L367.33,538.75L369.19,538.94L369.59,538.25L369.43,531.84L369.15,531.11L366.58,530.35L363.35,528.56L360.41,527.69L359.99,527.34L359.86,526.55L359.31,525.83L358.12,526.06L355.47,527.08L353.51,527.06L350.7,523.53L345.15,519.07L344.56,518.38L344.44,514.97L345.46,513.19L350.31,511.86L351.07,511.42L351.6,510.63L351.53,509.06L350.9,505.79L350.26,504.22L349.87,503.83L347,503.63L344.18,503.04L341.94,502.98L341.09,502.65L339.22,500.29L335.46,496.4L333.47,494.95L330.31,493.64L326.99,491.17L325.89,489.5L323.39,486.72L322.03,486.86L319.41,488.23L318.62,488.19L317.81,487.89L316.43,486.4L314.36,486.11L314.71,485.16L315.4,484.53L317,484.11L320.01,484.13L320.31,483.23L319.08,479.62L318.09,477.56L317.42,476.99L314.69,476.38L313.96,475.98L313.11,474.84L312.81,472.88L312.98,471.15L313.47,470.34L315.02,468.84L315.57,467.36L315.77,465.67L316.87,464.18L317.66,462.51L319.48,457.54L320.05,454.92L319.13,452.11L317.48,449.41L316.01,447.53L313.47,445.02L312.96,441.73L312.51,440.5z"/>
		<path id="CD-KN" title="Kinshasa" class="land" d="M118.42,485.5L120.27,486.64L125.28,486.29L126.89,486.48L128.18,486.96L131.78,489.19L134.19,490.26L136.42,493.83L137.79,494.58L138.54,495.47L138.96,496.39L138.96,496.95L138.65,497.33L139.16,498.37L139.16,498.76L138.7,499.42L138.92,499.85L138.41,500.23L138.04,501.87L137.33,502.71L137.33,503.28L135.69,503.32L135.31,503.68L131.83,509.89L129.82,512.47L130.4,516.21L130.44,519.11L130.44,519.11L121.63,519.03L118.1,516.11L117.9,516.5L117.8,518.83L117.07,519.86L115.42,520.05L112.64,519.27L109.91,517.29L109.21,516.15L109.58,515.4L111.54,515.13L112.57,514.38L112.94,511.65L113.67,509.84L113.47,508.73L113.07,508.4L110.79,507.62L110.51,507.23L111.56,505.35L111.42,504.63L110.66,504.46L108.4,504.77L105.32,503.89L103.74,504.11L103.04,504.55L102.47,505.25L102.64,506.77L102.14,507.86L100.99,508.24L99.85,507.73L97.55,505.49L94.32,500.63L94.32,500.63L95.23,499.69L95.74,498.19L96.84,497.54L98.04,497.19L99.19,496.09L101.43,496.33L102.24,496.67L103.24,496.4L104.37,495.7L105.66,493.51L105.53,491.86L105.99,490.5L106.88,489.11L107.5,488.6L112.38,486.91L116.96,486.23z"/>
		<path id="CD-KW" title="Kasai-Occidental" class="land" d="M269.63,581.11L272.66,581.78L275.69,580.91L277.42,575.71L277.42,571.38L275.69,567.48L273.96,564.45L271.36,564.45L268.76,562.29L267.89,560.13L265.73,556.23L262.7,554.07L260.96,551.91L258.8,551.04L256.2,548.88L255.33,541.53L255.03,541.28L255.49,540.91L255.31,540.01L255.51,539.38L254.55,536.87L254.35,535.74L254.42,530.33L255.21,529.1L255.36,528.21L256.02,527.77L255.65,526.47L255.87,525.79L255.87,524.11L254.99,521.09L254.27,520.25L254.18,519.68L254.51,519.14L254.48,518.77L253.21,516.96L252.35,512.96L251.47,511.65L251.43,509.09L251.84,508.36L251.72,506.12L252.26,504.68L252.92,504.24L253.54,503.08L252.68,502.14L252.55,500.75L251.72,499.15L250.99,498.36L250.79,496.69L250.97,496L250.97,496L251.54,496.13L253.07,495.89L253.07,495.89L254.24,496.25L255.42,497.72L256.29,497.55L256.92,497.79L257.43,498.39L257.47,499.09L258.15,499.72L258.55,499.77L259.42,499.33L260.54,499.79L261.16,499.07L261.14,498.13L261.42,496.89L261.72,496.52L262.92,495.95L263.9,496.15L264.21,495.12L264.54,495.06L265.11,495.36L266.05,495.21L269.41,493.53L269.88,493.12L270.05,492.37L271.36,491.34L271.21,485.07L270.87,482.8L270.97,477.96L270.3,472.25L270.75,465L271.92,461.49L276.3,450.39L277.47,448.53L279.8,446.2L280.3,445.42L280.51,444.26L280.42,442.45L281.6,439.61L282.1,438.92L282.1,438.92L287.14,439.68L289.64,439.68L291.44,439.48L293.9,438.58L295.9,438.65L296.31,438.34L296.57,434.25L296.82,434.03L298.47,434.81L299.56,435.04L301.03,436.45L302.48,436.78L303.74,437.96L305.82,438.7L308.26,440.2L310.58,438.97L310.58,438.97L312.51,440.5L312.96,441.73L313.47,445.02L316.01,447.53L317.48,449.41L319.13,452.11L320.05,454.92L319.48,457.54L317.66,462.51L316.87,464.18L315.77,465.67L315.57,467.36L315.02,468.84L313.47,470.34L312.98,471.15L312.81,472.88L313.11,474.84L313.96,475.98L314.69,476.38L317.42,476.99L318.09,477.56L319.08,479.62L320.31,483.23L320.01,484.13L317,484.11L315.4,484.53L314.71,485.16L314.36,486.11L316.43,486.4L317.81,487.89L318.62,488.19L319.41,488.23L322.03,486.86L323.39,486.72L325.89,489.5L326.99,491.17L330.31,493.64L333.47,494.95L335.46,496.4L339.22,500.29L341.09,502.65L341.94,502.98L344.18,503.04L347,503.63L349.87,503.83L350.26,504.22L350.9,505.79L351.53,509.06L351.6,510.63L351.07,511.42L350.31,511.86L345.46,513.19L344.44,514.97L344.56,518.38L345.15,519.07L350.7,523.53L353.51,527.06L355.47,527.08L358.12,526.06L359.31,525.83L359.86,526.55L359.99,527.34L360.41,527.69L363.35,528.56L366.58,530.35L369.15,531.11L369.43,531.84L369.59,538.25L369.19,538.94L367.33,538.75L365.65,539.77L362.63,540.82L361.77,541.48L361.09,542.6L358.63,543.65L358.21,543.53L357.95,543.07L358.48,541.49L358.08,541.3L354.83,542.74L350.48,543.31L346.34,543.48L345.22,544.16L344.42,546.1L344.38,550.19L344.95,552.58L345.56,553.82L346.49,555.02L348.47,556.26L348.86,557.46L347.19,560.1L346.6,563.72L345.96,565.29L343.5,569.75L343.45,571.25L343.85,572.36L344.2,572.73L345.76,573.54L346.53,574.23L348.56,577.51L351.47,578.9L352.27,579.52L353.75,581.44L353.78,581.83L351.94,587L352.57,589.31L352.35,591.8L352.69,593.57L352.69,595.3L351.69,600.66L351.52,604.55L350.92,608.62L350.92,608.62L350.38,608.83L349.27,609.85L348.44,610.2L344.08,611.68L341.82,612.11L339.84,611.31L338.22,611.5L336.14,610.98L335.74,610.68L335.22,609.55L334.78,607.27L334.25,606.51L333.55,606.06L332.95,606.13L330.62,608.14L329.86,608.51L326.21,608.49L321.87,609.06L319.8,608.83L318.35,608.23L316.29,607.95L314.22,606.92L312.7,605.48L308.24,603.8L308.24,603.8L308.31,603.01L308.96,602.29L309.11,600.81L308.57,599.73L309.23,598.28L309.19,597.24L308.63,595.42L308.04,593.55L306.99,592.76L306.78,592.15L267.08,592.07L266.91,590.08L267.15,587.66L267.4,586.66L268.16,585.27L268.62,583.23L269.54,582.26z"/>
		<path id="CD-MA" title="Maniema" class="land" d="M498.5,377.29L498.89,378.58L499.33,382.03L498.46,385.47L498.03,388.48L496.3,390.63L492.83,392.78L485.47,392.35L483.31,394.07L484.6,396.22L484.6,398.8L481.57,399.66L479.41,400.96L482.01,402.68L484.17,406.12L488.93,410.85L498.03,421.18L496.73,425.05L496.73,425.05L495.86,425.05L495.86,425.05L493.7,425.48L490.67,425.48L488.5,426.35L486.34,428.5L485.9,431.51L481.57,433.23L474.64,431.08L472.05,431.08L469.45,431.94L468.15,438.83L469.01,443.57L477.68,464.24L475.51,476.31L476.38,482.77L478.54,484.93L482.01,486.65L485.04,487.09L490.67,487.09L497.16,488.38L499.76,491.83L503.23,493.12L504.96,494.42L512.32,493.55L514.48,496.14L517.52,498.73L520.98,503.05L524.44,510.81L529.15,519.03L529.15,519.03L516.26,519.03L516.26,519.03L450.53,519.03L450.53,519.03L411.92,519.05L411.68,518.29L411.02,517.63L410.93,516.89L410.4,516.33L410.39,515.15L410.12,514.53L409.09,513.58L408.7,512.66L407.91,512.33L407.64,511.7L406.92,511.35L406.3,509.73L405.64,509.3L405.29,507.62L405.9,506.03L406.74,505.53L406.96,505.09L407.46,505.11L407.62,504.22L408.04,503.52L410.14,501.66L410.12,500.94L408.96,499.24L409.6,498.33L409.66,497.13L410.32,496.02L410.32,495.43L409.88,494.56L409.92,493.35L410.27,492.46L409.44,491.74L409.46,491.37L409.94,490.98L409.16,490.22L409.07,488.62L408.28,488.1L407.76,488.47L407.31,488.34L406.52,487.35L406.65,486.18L405.75,485.31L405.2,485.2L405.24,484.23L404.5,484.41L403.44,482.82L403.51,482.54L403.91,482.47L403.88,482.14L403.34,481.81L402.37,481.95L402.56,481.25L401.51,480.8L401.6,480.42L401.34,479.86L402.31,478.87L402.23,478.39L403.47,477.19L403.36,476.65L403.55,475.98L403.01,475.65L402.92,474.32L402.52,473.86L402.63,473.1L402.39,472.68L403.1,472.59L403.6,472.01L403.58,471.61L402.8,470.62L402.83,470.1L403.34,469.73L404.33,469.65L404.68,468.47L405.14,468.25L405.57,467.18L406.92,466.7L406.89,465.35L407.11,464.69L406.69,464.45L406.65,464.11L407.16,463.73L408.54,463.65L408.7,463.36L408.54,462.65L408.96,462.19L408.98,461.66L409.84,461.2L409.97,460.29L410.56,459.57L410.12,458.94L410.47,458.17L409.99,457.78L409.94,457.43L410.23,457.28L410.76,457.62L411.02,457.23L410.32,456.19L410.27,455.6L411.86,452.61L412.45,450.35L413.59,448.19L413.48,447.25L412.77,445.52L412.76,444.06L412.37,442.66L412.85,440.95L413.24,437.58L403.67,438.31L401.74,438.28L400.29,437.85L397.47,431.82L394.93,428.6L393.3,426.05L392.67,423.86L392.34,421.4L392.34,421.4L394.27,421.64L400.15,421.62L403.8,422.04L407.55,421.36L410.27,421.21L410.67,422.16L411.83,422.75L412.29,423.41L412.28,424.17L411.73,425.39L411.81,425.96L412.23,426.44L413.11,426.33L414.89,426.85L416.8,426.88L418.73,426.64L419.87,426.27L420.6,425.76L425.4,420.37L427.67,418.72L429.2,418.39L431.51,419.41L432.38,419.53L434.12,418.77L435.99,418.89L436.8,417.41L436.93,414.12L437.53,411.63L437.53,409.95L437.17,407.88L437.4,406.79L437.44,403.93L438.53,405.02L438.91,405.76L439.9,406.33L439.85,406.94L441.94,407.16L442.49,406.76L442.65,405.96L443.17,405.39L442.68,404.32L442.73,403.93L444.22,403.21L444.44,401.77L444.18,401L444.27,400.48L444.75,400.09L446,399.78L446.09,399.44L445.81,398.84L446.39,397.56L446.35,396.23L447.34,395.42L446.61,394.83L446.39,394.09L446.64,391.65L447.17,389.99L449.91,388.99L450.74,388.36L451.25,387.63L451.36,386.37L450.42,380.29L450.5,379.11L451.33,377.93L454.59,375.18L454.96,374.34L454.62,373.18L453.71,372.09L450.22,369.8L448.49,367.83L444.66,364.73L446.33,362.83L446.79,362.59L447.34,362.53L447.83,362.95L448.2,362.97L448.46,363.58L449.31,363.81L450.48,364.78L450.96,365.63L451.51,365.54L451.93,365.8L452.7,367.63L453.2,367.53L453.51,368.12L454.32,368.84L455.49,369.21L455.99,370.67L456.91,371.5L460.19,371.32L461.57,370.52L462.4,369.6L464.89,369.25L467.04,367.74L468.53,367.94L468.9,367.44L468.51,366.5L468.93,366.04L470.35,367.02L471.12,366.86L472.35,367.85L473.93,368L474.57,368.69L475.71,369.27L476.13,369.77L476.01,370.44L476.34,370.99L477.66,371.84L478.26,372.81L479.77,373.46L483.22,373.83L484.23,374.13L484.91,374.57L485.52,375.47L485.99,375.66L487.18,375.68L488.47,375.01L489.23,374.92L489.81,375.23L490.51,376.27L493.08,376.21L496.97,377.73L498.48,377.3L498.48,377.3z"/>
		<path id="CD-NK" title="Nord-Kivu" class="land" d="M496.73,425.05L498.03,421.18L488.93,410.85L484.17,406.12L482.01,402.68L479.41,400.96L481.57,399.66L484.6,398.8L484.6,396.22L483.31,394.07L485.47,392.35L492.83,392.78L496.3,390.63L498.03,388.48L498.46,385.47L499.33,382.03L498.89,378.58L498.5,377.29L498.5,377.29L498.96,376.95L498.96,376.95L502,374.05L503.9,370.52L504.72,369.86L507.55,368.81L508.74,368.09L509.48,366.96L510.01,364.58L509.63,363.81L508.91,359.06L509.42,356.2L510.38,355.64L510.67,354.64L510.38,354.04L509.87,353.66L509.96,352.63L508.89,352.19L508.27,351.47L507.73,349.61L507.84,347.92L507.73,347.59L507.24,347.41L507.51,346.1L506.94,345.82L506.7,344.97L506.19,344.87L505.97,344.42L504.87,344.62L503.36,343.96L503,344.27L502.65,344.01L502.15,344.38L500.97,344.05L499.29,342.88L497.69,342.31L497.58,341.6L497.82,341.39L498.96,341.02L500.19,341.18L502.65,340.69L503.48,340.17L504.85,338.61L508.08,337.36L517.3,336.1L518.57,336.51L521.14,339.35L522.31,340.33L523.21,340.83L524.36,341.09L529.27,339.84L532.21,339.56L535.85,339.78L538.49,340.2L539.81,339.89L541.28,338.64L542.92,337.84L544.84,338.03L546.48,339.15L547.95,338.67L550.48,340.07L551.25,340.08L552.43,339.56L553.61,338.43L553.2,337.64L550.43,336.69L549.64,335.62L549.82,334.42L551.02,332.41L551.84,332.3L554.49,333.54L556.19,333.72L556.76,333.04L556.52,332.35L556.87,331.62L558.63,331.71L559.81,331.47L560.65,331.77L561.41,331.71L562.16,331.16L563.15,329.94L565.34,328.99L565.69,329L566.51,330.73L567.13,331.47L569.75,332.76L569.75,332.76L569.65,332.91L569.18,333.71L568.93,334.79L569.36,335.94L569.08,336.86L568.92,337.95L568.7,339.18L569.26,340.54L569.17,341.58L569.48,343.13L566.05,347.33L564.49,354.11L564.22,354.4L563.39,354.19L562.75,354.39L561.66,355.63L561.65,356.76L561.08,357.25L561.03,358.48L561.34,359.71L561.42,360.88L561.49,362.57L558.97,374.33L559.6,374.69L559.47,376.9L559.99,377.52L559.53,378.41L559.35,379.46L558.15,382.05L558.32,383.2L558.14,384.82L558.6,386L558.16,387.03L558.52,388.24L556.72,388.4L556.89,389.59L556.85,390.84L556.76,392.06L556.99,393.11L556.54,395.52L556.85,396.37L556.43,397.35L557.56,398.48L557.07,400.03L557.52,401.52L556.99,403.79L556.17,404.06L554.76,404.88L554.09,405.77L552.68,407.48L550.4,407.5L549.7,407.89L548.13,410.43L546.62,411.83L545.95,413.93L544.59,415.41L542.6,418.52L542.6,418.52L538.73,418.17L535.7,416.88L535.27,415.15L531.81,414.73L529.64,418.17L526.18,421.61L524.88,423.76L521.85,424.19L520.55,422.04L518.81,420.75L517.08,422.9L514.05,425.91L509.72,427.21L507.12,427.21L505.82,426.78L504.09,425.05L498.89,425.05L498.89,425.05z"/>
		<path id="CD-OR" title="Orientale" class="land" d="M427.73,188.29L428.58,188.34L429.08,189.28L429.9,189.22L429.95,189.53L429.93,190.05L430.36,190.2L430.61,189.87L431.05,189.84L431.55,190.35L432.66,190.83L433.02,191.79L433.65,191.86L433.95,192.76L435.05,192.29L434.62,191.9L435.34,191.61L435.6,192.24L436.22,192.47L436.24,193.39L436.73,194.36L437.09,193.56L437.56,193.3L438.26,193.34L438.37,193.5L438.74,194.11L438.94,195.05L439.34,194.74L439.09,193.92L439.63,194.03L440.14,193.72L440.83,194.2L440.92,193.2L441.51,192.67L442.02,192.98L442.28,193.03L442.34,193.67L443.21,193.86L443.71,193.87L444.16,194.12L444.45,193.51L445.18,193.67L445.22,193.13L445.73,192.98L446.28,192.32L446.36,191.89L447.14,192.06L447.12,192.91L447.4,193.01L447.98,192.61L448.65,192.75L448.99,193.48L449.14,193.71L449.6,193.66L450.12,194L450.33,194.39L450.14,194.85L451.14,194.92L451.45,195.19L452.11,195.43L452.95,195.63L453.73,195.76L454.51,195.61L454.98,196.08L455.52,196.41L456.12,196.69L456.69,197.29L456.78,197.86L456.84,198.46L457.62,198.84L458.3,198.92L458.87,198.92L459.09,198.18L459.34,198.16L460.07,198.29L460.4,198.3L460.42,197.74L460.88,197.69L461.1,197.97L461.68,197.76L462.44,197.72L462.99,197.89L463.45,197.85L464.11,197.53L465.22,197.13L466.02,197.02L466.74,197.08L467.19,197.58L467.4,198.01L467.88,198.76L468.3,198.8L468.63,198.43L469.93,199.25L470.35,198.87L470.54,197.98L471.22,197.77L471.6,196.75L471.98,196.45L471.95,196.04L474.96,194.35L476.17,193.91L477.63,193.72L479.07,193.95L481.46,195.46L484.23,196.29L484.95,196.79L487.86,197.84L488.33,198.64L488.16,199.63L488.88,199.81L490.09,200.94L490.67,201.14L491.1,202.69L491.92,203.19L492.42,203.86L495.1,203.8L495.95,204.53L496.76,206.33L496.58,206.81L496.9,207.17L498.34,207.01L498.84,207.63L499.26,208.75L499.29,209.74L498.81,210.15L498.8,210.41L499.22,212.19L499.15,213.2L499.45,213.32L500.7,213.59L501.07,213.96L501.85,214.77L503.84,214.89L504.13,214.12L505.29,214.52L506.71,214.85L507.42,214.77L507.1,217.01L507.38,217.77L507.97,218.01L508.48,219.15L509.54,218.18L510.31,218.34L510.65,218.83L510.31,219.68L511.69,220.28L512.52,221.16L514.19,221.36L514.69,220.97L516.27,220.99L517.32,221.1L517.8,221.9L517.84,223.23L518.21,223.49L519.27,223.58L520.75,223.15L521.57,222.34L521.64,221.64L522.42,220.48L523.74,220.18L524.57,220.3L525.37,219.03L526.15,219.14L527.29,218.86L528.39,216.83L528.14,216.18L528.82,215.98L529.05,215.65L528.91,215.27L530.35,215.04L531.01,214.44L531.28,214.44L531.88,215.29L531.91,216.6L532.67,217.14L533.54,217.04L535.31,217.02L537.33,217.09L538.42,216.53L539.22,216.86L539.64,217.7L540.69,217.81L540.6,218.58L542.4,218.72L542.39,219.3L544.19,220.79L544.67,221.46L545.98,221.25L546.22,220.58L546.01,219.92L546.56,219.71L547.59,220.16L548.42,219.98L548.96,219.45L549.59,217.53L551.21,216.83L552.15,215.53L552.2,214.41L553.24,213.35L552.97,210.98L553.64,210.82L554.09,210.25L554.92,211.36L555.85,210.99L556.5,211.11L557.19,211.57L557.81,211.16L560.8,212.58L561.8,214.04L562.74,213.65L563.24,214.27L564.4,214.42L564.42,215.11L563.94,216.58L563.61,218.3L563.7,220.5L565.02,221.51L566.74,221.21L568.3,222.21L568.99,223.4L568.37,224.55L568.49,224.77L569.75,225.03L571.38,226.23L571.74,227.58L572.69,228.66L574.21,228.64L575.15,229.16L575.24,230.5L576.6,232.02L576.63,233.41L577.29,234.25L578.93,233.65L579.75,234.46L581.47,234.97L582.56,235.17L584.41,235.95L585.31,236.74L585.96,236.82L586.84,236.43L587.67,236.46L587.9,236.77L587.87,237.95L588.41,239.52L588.9,242.46L588.58,243.7L587.99,244.81L588.06,245.14L589.13,245.2L591.55,243.85L593.2,244.36L593.7,244.24L594.36,242.9L594.88,242.63L595.28,243.21L595.34,244.36L595.77,245.32L597.78,246.19L597.27,247.94L597.51,248.64L597.8,248.82L598.31,248.71L598.77,248.13L600.18,247.91L600.38,249.2L600.12,249.98L600.21,251.25L599.58,252.25L598.6,253.26L598.76,254.11L598.06,255.19L597.02,255.74L597.11,256.51L596.75,257.63L595.86,259.82L595.62,261.93L594.77,262.48L595.18,263.41L595.87,263.92L596.61,264.5L597.65,265.36L597.94,266.62L598.18,267.61L598.59,267.94L598.68,268.65L598.49,270.06L597.69,271.35L596.99,271.56L596.53,272.11L596.65,272.77L596.14,273.86L595.37,275.44L595.5,275.77L595.09,276.77L594.2,277.32L594.57,279.75L594.47,280.14L594.08,280.35L593.9,281.66L594.25,282.63L595.09,282.02L595.98,282.46L596.84,282.71L597.35,283.76L598.13,284.25L598.42,285.14L599.36,285.43L600.02,285.33L600.34,285.05L600.58,284.46L600.34,284.07L600.74,283.25L601.88,283.06L602.45,283.23L603.05,283.67L604.54,284.97L604.43,285.38L604.93,286.09L604.42,286.27L606.21,287.51L606.46,287.54L606.73,286.97L607.46,287.14L608.71,286.63L608.71,288.96L610.16,289.64L612,291L612,292.29L608.6,297.05L605.64,300.7L603.1,303.98L594.19,311.05L587.78,319.37L586.82,319.37L585.4,321.08L584.67,321.42L583.63,321.7L582.66,321.78L581.7,321.31L581.1,322.12L580.92,322.95L580.17,322.89L580.05,322.42L579.54,322.25L578.94,322.45L578.52,323.11L577.71,323.55L577.85,324.65L577.47,325.04L577.46,325.96L577.19,327.26L576.6,328.49L576.18,329.39L575.61,330.14L575.14,331.41L574.18,331.35L573.19,331.48L571.82,331.98L570.89,332.08L570.33,332.42L569.75,332.76L569.75,332.76L567.13,331.47L566.51,330.73L565.69,329L565.34,328.99L563.15,329.94L562.16,331.16L561.41,331.71L560.65,331.77L559.81,331.47L558.63,331.71L556.87,331.62L556.52,332.35L556.76,333.04L556.19,333.72L554.49,333.54L551.84,332.3L551.02,332.41L549.82,334.42L549.64,335.62L550.43,336.69L553.2,337.64L553.61,338.43L552.43,339.56L551.25,340.08L550.48,340.07L547.95,338.67L546.48,339.15L544.84,338.03L542.92,337.84L541.28,338.64L539.81,339.89L538.49,340.2L535.85,339.78L532.21,339.56L529.27,339.84L524.36,341.09L523.21,340.83L522.31,340.33L521.14,339.35L518.57,336.51L517.3,336.1L508.08,337.36L504.85,338.61L503.48,340.17L502.65,340.69L500.19,341.18L498.96,341.02L497.82,341.39L497.58,341.6L497.69,342.31L499.29,342.88L500.97,344.05L502.15,344.38L502.65,344.01L503,344.27L503.36,343.96L504.87,344.62L505.97,344.42L506.19,344.87L506.7,344.97L506.94,345.82L507.51,346.1L507.24,347.41L507.73,347.59L507.84,347.92L507.73,349.61L508.27,351.47L508.89,352.19L509.96,352.63L509.87,353.66L510.38,354.04L510.67,354.64L510.38,355.64L509.42,356.2L508.91,359.06L509.63,363.81L510.01,364.58L509.48,366.96L508.74,368.09L507.55,368.81L504.72,369.86L503.9,370.52L502,374.05L498.96,376.95L498.96,376.95L498.48,377.3L498.48,377.3L496.97,377.73L493.08,376.21L490.51,376.27L489.81,375.23L489.23,374.92L488.47,375.01L487.18,375.68L485.99,375.66L485.52,375.47L484.91,374.57L484.23,374.13L483.22,373.83L479.77,373.46L478.26,372.81L477.66,371.84L476.34,370.99L476.01,370.44L476.13,369.77L475.71,369.27L474.57,368.69L473.93,368L472.35,367.85L471.12,366.86L470.35,367.02L468.93,366.04L468.51,366.5L468.9,367.44L468.53,367.94L467.04,367.74L464.89,369.25L462.4,369.6L461.57,370.52L460.19,371.32L456.91,371.5L455.99,370.67L455.49,369.21L454.32,368.84L453.51,368.12L453.2,367.53L452.7,367.63L451.93,365.8L451.51,365.54L450.96,365.63L450.48,364.78L449.31,363.81L448.46,363.58L448.2,362.97L447.83,362.95L447.34,362.53L446.79,362.59L446.33,362.83L444.66,364.73L448.49,367.83L450.22,369.8L453.71,372.09L454.62,373.18L454.96,374.34L454.59,375.18L451.33,377.93L450.5,379.11L450.42,380.29L451.36,386.37L451.25,387.63L450.74,388.36L449.91,388.99L447.17,389.99L446.64,391.65L446.39,394.09L446.61,394.83L447.34,395.42L446.35,396.23L446.39,397.56L445.81,398.84L446.09,399.44L446,399.78L444.75,400.09L444.27,400.48L444.18,401L444.44,401.77L444.22,403.21L442.73,403.93L442.68,404.32L443.17,405.39L442.65,405.96L442.49,406.76L441.94,407.16L439.85,406.94L439.9,406.33L438.91,405.76L438.53,405.02L437.44,403.93L437.4,406.79L437.17,407.88L437.53,409.95L437.53,411.63L436.93,414.12L436.8,417.41L435.99,418.89L434.12,418.77L432.38,419.53L431.51,419.41L429.2,418.39L427.67,418.72L425.4,420.37L420.6,425.76L419.87,426.27L418.73,426.64L416.8,426.88L414.89,426.85L413.11,426.33L412.23,426.44L411.81,425.96L411.73,425.39L412.28,424.17L412.29,423.41L411.83,422.75L410.67,422.16L410.27,421.21L407.55,421.36L403.8,422.04L400.15,421.62L394.27,421.64L392.34,421.4L392.34,421.4L391.37,416.47L391.37,416.47L390.82,412.11L389.94,408.66L388.6,406.37L387.64,404.02L386.89,403.65L382.81,403.93L381.29,403.75L379.78,403.21L376.26,401.27L374.72,400.11L372.64,397.95L370.62,397.21L370.09,396.12L369.87,394.96L369.24,394.16L367.19,392.9L362.73,390.74L359.53,387.85L357.27,385.37L357.37,385.02L361.42,381.92L362.97,381.29L365.13,380.83L365.87,380.3L366.02,379.91L363.86,378.15L361.14,373.89L360.5,373.57L359.77,373.65L356.15,375.05L354.48,375.44L353.65,375.14L353.17,373.55L352.84,373.2L344.89,372.58L348.8,369.4L350.37,368.48L351.2,368.54L353.96,369.58L355.27,369.77L356.55,368.42L358.49,368.08L359,367.63L358.94,366.31L355.05,360.85L353.75,358.54L350.26,354.68L348.51,350.8L346.53,348.92L344.98,346.52L344.11,344.45L343.76,342.68L343.78,341.51L343.11,340.33L341.76,338.85L341.13,337.51L341.31,334.15L339.95,331.14L340.25,330.62L339.81,329.82L340.03,328.72L339.92,327.96L338.69,326.34L338.6,325.39L338.47,325.08L338.02,324.88L337.15,322.49L336.19,321.03L335.4,320.28L335.2,319.23L334.68,318.67L334.63,317.71L333.81,316.33L332.96,316.12L332.48,315.29L331.91,315.01L331.21,314.16L329.47,313.04L328.26,312.8L327.72,312.25L325.89,312.03L325.49,311.78L324.86,311.99L324.2,311.78L322.99,311.82L323.78,310.1L324.53,309.38L327.23,307.67L328.96,305.75L329.43,304.52L330.37,298.67L332.67,294.46L332.1,292.89L332.15,292.49L332.52,292.17L333.31,292.17L334.96,292.76L336.23,294.92L337.2,295.05L338.08,295.68L339.81,295.01L340.65,295.05L341,294.55L341.4,294.55L341.51,294.02L342.25,293.71L342.23,292.91L343.24,292.91L343.85,292.24L343.76,291.27L344.99,290.93L345.08,290.14L345.46,290.2L347.63,292.56L348.75,293.02L349.26,292.95L352.28,291.32L356.88,288L362.54,288.96L365.24,290.1L366.35,290.2L366.73,289.87L366.38,286.71L365.96,285.47L363.22,283.47L359.4,281.61L357.37,279.32L356.52,278.97L355.73,278.95L349.92,280L348.33,279.39L347.08,278.23L345.02,275.81L344.57,274.59L345.98,271.88L345.83,270.71L345.31,269.48L345.37,268.68L346.67,266.46L346.79,264.88L348.27,261.68L348.57,260.26L348.48,259.45L347.48,258.65L345.89,258.99L344.38,260.21L341.51,263.76L340.71,264.34L339.92,264.27L339.22,263.69L338.8,262.11L338.83,260.47L339.46,257.25L339.33,255.88L338.69,255.18L337.94,254.79L334.85,254.04L333.89,253.04L333.8,251.75L335.2,249.88L337.13,249.11L341.46,247.96L343.57,246.67L344.4,247.02L345.64,247.11L347.06,246.69L348.24,245.66L350.24,243.31L351.34,242.53L352.51,242.9L353.21,243.68L355.49,243.72L356.92,244.77L357.7,244.51L358.48,243.87L359.99,241.81L361.46,240.6L361.98,239.51L362.36,237.81L361,238.14L360.1,237.72L359.62,237.81L358.65,237.51L357.88,238.25L357.36,238.34L354.37,237.42L353.41,236.7L352.85,236.59L352.33,236.02L351.38,236.05L350.57,235.57L349.76,235.85L348.56,235.85L347.67,236.5L347,236.7L346.27,236.16L345.56,235.98L344.73,236.46L343.91,236.5L342.49,237.05L341.15,236.7L338.35,235.29L338.12,232.53L336.7,232.65L335.83,232.32L331.79,229.02L328.65,227.91L328.65,227.91L331.45,225.38L331.5,224.65L331.16,224.13L331.18,223.69L332.05,221.96L333.66,221.07L333.68,220.2L332.72,219.83L332.58,219.49L332.97,218.71L333.01,217.2L333.91,216.79L335.05,216.92L335.61,217.52L336.21,217.2L336.47,216.57L336.45,215.8L337.32,214.51L337.51,212.31L338.24,211.48L338.92,209.77L339.74,209.11L340.36,209.23L340.91,209.85L341.56,209.66L341.85,208.69L342.74,208.09L342.26,207.21L342.5,206.49L342.87,206.15L343.98,206.22L344.81,205.51L345.34,205.97L346.27,208.21L346.96,208.34L348.42,209.42L349.49,209.66L351.35,208.69L352.12,209.27L352.53,210.16L353.49,210.92L354.28,211.07L354.84,212.29L355.31,212.23L356.47,213.03L357.4,212.85L358.12,213.46L359.35,213.46L359.61,213.07L359.48,212.08L359.67,211.5L360.75,210.76L361.9,210.76L363.52,209.8L364.51,208.86L365.72,208.61L368.58,207.28L370.55,207.37L372.56,205.78L373.13,206.37L374.45,205.67L374.93,205.8L375.21,206.17L376.29,206.41L376.47,206L376.32,204.58L376.62,204.25L376.84,204.27L377.14,204.92L379.15,204.25L380.79,203.19L381.45,203.16L382.28,203.74L383.04,203.68L384.02,202.54L385.47,201.62L386.02,201.87L385.99,202.41L386.74,202.34L386.99,201.93L386.64,201.23L386.71,200.93L387.46,200.23L389.93,200.06L391.06,199.33L391.01,198.9L390.66,198.62L389.87,198.88L389.52,198.76L389.37,198.41L389.49,198.13L389.93,198.02L390.14,197.24L390.59,196.73L390.94,196.77L391.81,198.44L392.24,198.27L391.97,197.22L392.45,197.01L395.02,197.75L395.47,198.76L396.02,199.17L397.56,199.35L398.18,201.12L399.49,201.3L399.48,201.92L398.99,202.9L401,202.76L401.44,203.32L402.25,203.24L402.89,203.26L403.27,203.3L404.27,202.27L406.05,202.32L406.44,201.55L407.82,201.57L408.45,200.76L409.94,200.33L414.31,200.33L414.88,199.42L415.19,199.47L415.71,200.17L416.07,200.21L416.41,199.77L417.36,199.87L417.88,199.54L420.13,199.17L420.54,198.67L420.5,197.71L421.2,196.68L421.33,195.56L420.59,195.33L420.26,194.09L420.71,193.6L420.97,192L421.39,191.18L421.95,191.15L422.26,190.74L422.17,190.48L421.79,190.58L421.73,190.24L422.6,190.03L423.24,190.07L423.7,190.08L424.69,189.17L425.21,189.21L425.55,188.63L425.88,188.69L426.33,189.34L427.49,188.99L427.15,188.09L427.44,187.99z"/>
		<path id="CD-SK" title="Sud-Kivu" class="land" d="M542.6,418.52L542.17,419.61L542.27,420.96L543.77,426.4L543.52,428.06L540.93,432.27L540.02,432.64L538.42,432.6L536.81,435.28L535.42,435.2L534.67,435.49L533.97,436.7L533.85,437.42L534.05,438.17L534.62,438.73L533.53,440.23L534.75,441.56L535.01,443.65L534.78,444.49L536.97,445.78L538.06,445.94L538.64,446.41L539.19,447.52L538.17,448.31L538.31,449.36L539.1,449.69L539.72,449.47L540.32,450.41L541.09,451.26L540.96,452.06L541.22,452.68L542.23,452.98L543.49,453.92L543.49,455.09L544.62,455.94L545.68,456.02L546.26,456.87L546.42,457.37L546.47,458.87L546.02,459.14L545.44,460.27L545.24,461.51L545.35,462.64L545.8,463.78L544.78,464.46L544.55,465.05L544.66,466.75L545.57,470.77L545.85,473.09L545.98,475.68L545.54,480.41L545.95,483.12L546.58,485.27L547.23,486.24L548.6,487.48L549.26,488.42L549.9,490.29L550.26,492.71L550.75,503.23L550.5,504.36L548.87,507.89L548.6,509.41L548.92,514.35L550.01,519.04L550.01,519.04L533.04,519.03L533.04,519.03L529.15,519.03L529.15,519.03L524.44,510.81L520.98,503.05L517.52,498.73L514.48,496.14L512.32,493.55L504.96,494.42L503.23,493.12L499.76,491.83L497.16,488.38L490.67,487.09L485.04,487.09L482.01,486.65L478.54,484.93L476.38,482.77L475.51,476.31L477.68,464.24L469.01,443.57L468.15,438.83L469.45,431.94L472.05,431.08L474.64,431.08L481.57,433.23L485.9,431.51L486.34,428.5L488.5,426.35L490.67,425.48L493.7,425.48L495.86,425.05L495.86,425.05L498.89,425.05L498.89,425.05L504.09,425.05L505.82,426.78L507.12,427.21L509.72,427.21L514.05,425.91L517.08,422.9L518.81,420.75L520.55,422.04L521.85,424.19L524.88,423.76L526.18,421.61L529.64,418.17L531.81,414.73L535.27,415.15L535.7,416.88L538.73,418.17z"/>
	</g>
</svg>