<?xml version="1.0" encoding="utf-8"?>
<!-- (c) ammap.com | SVG map of Congo - Low -->
<svg xmlns="http://www.w3.org/2000/svg" xmlns:amcharts="http://amcharts.com/ammap" xmlns:xlink="http://www.w3.org/1999/xlink" version="1.1">
	<defs>
		<style type="text/css">
			.land
			{
				fill: #CCCCCC;
				fill-opacity: 1;
				stroke:white;
				stroke-opacity: 1;
				stroke-width:0.5;
			}
		</style>

		<amcharts:ammap projection="mercator" leftLongitude="11.178092" topLatitude="3.703395" rightLongitude="18.650411" bottomLatitude="-5.031620"></amcharts:ammap>

		<!-- All areas are listed in the line below. You can use this list in your script. -->
		<!--{id:"CG-2"},{id:"CG-5"},{id:"CG-7"},{id:"CG-8"},{id:"CG-9"},{id:"CG-11"},{id:"CG-12"},{id:"CG-13"},{id:"CG-14"},{id:"CG-15"},{id:"CG-16"},{id:"CG-BZV"}-->

	</defs>
	<g>
		<path id="CG-2" title="Lékoumou" class="land" d="M220.35,579.82L221.73,581.56L224.77,582.77L226.83,582.46L230.03,580.99L233.13,583.32L235.22,582L237.91,584.12L239.54,583.5L240.23,582.48L240.23,582.48L240.87,587.52L243.31,588.56L243.94,589.72L243.53,590.91L241.08,591.25L240.8,591.96L243.76,594.29L244.35,594.47L245.42,593L246.99,594.06L246.49,595.33L241.87,598.77L242.6,599.94L243.15,600.55L245.79,600.44L248.06,601.8L251.41,600.35L252.95,601.75L254.89,600.64L256.09,601.32L253.86,607.12L254.46,607.61L255.52,605.87L256.12,605.85L257.1,611.85L258.48,613.52L259.42,616.42L258.62,617.71L256.25,618.91L255.12,621.71L253.23,623.21L252.47,624.88L252.47,624.88L247.63,627.19L245.42,628.91L241.53,639.14L241.62,641.18L240.19,641.99L239.6,644.21L237.94,645.43L238.3,646.95L236.14,647.58L235.05,649.87L233.04,651.25L231.93,653.52L230.34,654.6L228.72,656.96L224.83,659.85L224.74,661.6L223.05,664.97L220.92,667.35L221.23,669.05L219.83,670.12L219.83,670.12L218.94,670.68L216.11,675.19L213.5,675.82L212.66,677.81L213.16,679.47L212,681.14L209.79,681.71L208.63,682.8L207.92,684.36L208.13,686.51L202.23,685.97L202.44,687.53L200.35,688.8L197.41,688.07L195.86,688.78L195.82,691.24L197.64,691.38L197.27,692.94L198.55,693.35L198.03,694.91L195.68,696.68L195.84,699.76L192,703.46L191.38,709.71L188.99,711.45L185.33,712.29L180.98,711.45L179.8,710.64L178,705.45L178.87,703.59L177.09,701.42L176.66,702.62L174.79,701.53L171.63,702.3L167.47,700.08L162.44,702.28L159.75,701.3L152.93,702.21L150.99,701.76L150.22,699.97L148.42,699.47L147.9,697.5L145.35,697.27L142.57,694.33L140.53,694.53L140.64,690.2L139.52,689.61L139.05,688.44L139.84,687.55L139.93,686.03L138.64,685.74L137.93,681.21L135.79,679.96L135.82,678.95L133.93,677.45L134,675.1L132.47,674.57L133.45,673.85L133.22,673.17L130.76,671.68L126.08,672.22L125.92,670.57L127.12,670.09L126.35,669.19L124.26,669.09L123.05,670.14L121.46,670.09L120.9,669.4L120.9,669.4L121.14,667.24L120.59,666.65L118.73,666.44L118.7,664.72L117.09,663.73L118.11,662.53L116.34,660.9L117.77,659.58L120.5,659.31L122.94,652.68L127.15,650.73L131.22,651.16L135.63,650.01L137.93,651.12L140.66,649.37L141.66,650.62L142.51,650.8L142.96,646.48L145.46,647.09L148.63,645.95L149.83,646.16L151.26,643.96L154.38,642.9L155.18,641.09L157.89,639L157.79,632.94L160.05,625.4L154.84,620.29L153.06,620.38L150.63,619.56L150.01,617.07L148.74,615.31L148.99,614.63L151.47,613.63L153.18,612.05L155.59,611.93L153.59,606.93L152.95,603.65L152.27,592.79L153.02,585.4L152.4,583.33L151.64,571.09L151.64,571.09L152.55,572.08L159.17,573.71L162.83,575.75L164.1,575.56L166.88,572.42L169.68,575.37L175.1,576.33L180.72,579.48L185.44,578.62L189.56,580.2L190.41,580.02L197.03,571.32L208.56,558.12L211.3,554.14L215.86,557.4L221.31,566.13L221.83,569.7L224.28,572.09L224.27,574.11L220.83,577.87z"/>
		<path id="CG-5" title="Kouilou" class="land" d="M55.16,774.6L59.85,774.64L59.85,753.43L50.32,753.43L50.32,753.43L43.47,746.85L44.06,746.51L42.33,745.67L17.8,725.31L15.94,722.5L16,719.67L14.14,717.04L10.06,713.53L10.34,713.21L9.97,713.41L1.83,707.14L1.97,706.69L0,704.48L2.84,701.09L3.12,694.88L5.78,693.73L5.53,686.38L15.63,676.43L22.35,675.64L23.55,674.68L26.68,668.88L28.73,668.14L30.13,668.66L35.48,668.32L44.98,682.5L49.8,684.03L56.13,687.29L56.13,687.29L60.5,687.94L63.96,691.43L71.65,696.7L75.38,698.31L81.11,699.04L82.68,700.69L84.5,701.19L84.5,703.7L87.6,703.89L89.56,705.11L95.45,705.97L98.61,707.13L99.39,708.15L99.3,709.98L102.41,710.41L103.78,711.25L112.86,721.92L111.92,728.06L112.72,730.08L115.84,734.34L118.36,735.07L124.78,734.89L126.71,735.68L131.25,739.15L131.25,739.15L132.6,740.66L131.05,740.79L130.68,742.25L128.22,740.84L128.76,742.91L132.39,746.28L132.6,747.52L131.6,749.22L126.09,748.35L120.13,754.58L117.26,754.02L105.16,756.52L96.65,769.66L93.8,772.73L91.98,774.27L88.07,774.58L84.8,773.04L83.83,774.18L83.55,776.5L82.51,777.31L81.47,781.17L68.09,792L60.78,782.16L61.47,781.41L60.65,782L58.92,780.05L58.37,778.25z"/>
		<path id="CG-7" title="Likouala" class="land" d="M526.52,85.66L533.18,85.64L534.61,86.21L536.9,84.85L542.04,86.65L544.76,86.84L547.23,94.49L552.16,91.18L553.67,88.83L556.27,92.25L558.42,93.01L558.77,90.75L562.77,91.61L564.56,91.04L567.38,91.35L569.7,92.16L571.27,93.52L573.19,98.14L574.25,98.71L577.74,97.94L578.55,97.14L580.7,89.71L584.06,90.08L587.11,88.41L592.4,90.83L592.68,88.7L593.15,88.29L595.52,88.93L596.05,87.1L598.64,84.68L602.65,88.2L603.93,92L605.9,94.67L607.51,99.05L610.79,99.53L611.23,103.1L610.58,106.46L612,110.99L610.76,116.7L611.34,120.9L610.01,124.98L607.47,129.26L602.41,132.2L601.11,136.79L597.09,141.33L594.77,147.5L595.26,152.39L593.92,156.81L591.62,159.66L585.8,171.77L582.95,174.38L580.75,175.54L578.57,178.09L577.36,183.51L575.76,187.63L574.36,189.25L573.95,191.28L571.37,194.58L567.45,197.66L566.52,199.97L566.04,212.08L564.12,217.17L565.67,218.98L566.35,222.46L564.3,229.1L563.53,233.94L565.98,245.59L565.19,247.52L564.34,258.33L560.71,263.88L556.82,273.24L554,287.39L551.82,291.42L549.19,293.93L547.6,296.51L546.49,299.76L546.06,307.35L547.4,311.26L549.2,313.94L550.19,319.07L549.34,322.03L549.88,326.4L548.48,328.46L548.63,333.77L549.45,335.57L554.21,340.47L555.09,342.27L555.49,350.51L555,352.41L552.48,356.44L546.88,360.98L544.12,364.6L541.32,370.47L538.95,380.67L540.04,382.14L535.32,392.56L535.44,401.08L537.26,408.06L537.62,413.14L534.98,426.13L532.85,430.58L522.2,443.92L522.2,443.92L520.56,443.19L496.63,442.89L496.56,439.21L493.62,439.03L493.51,435.64L494.44,432.63L492.78,428.16L493.83,426.94L493.99,425.76L494.99,425.11L494.88,422.15L494.26,420.52L491.48,418.28L490.19,418.53L489.21,419.82L488.71,419.73L488.46,416.68L490.67,413.87L491.26,412.18L490.21,411L487.84,410.75L487.41,409.53L491.08,407.07L490.92,406.23L489.41,405.49L489.26,398.91L491.76,396.38L492.12,394.48L490.26,388.56L490.12,381.1L488.53,377.66L489.14,376.62L492.58,374.5L490.92,367.61L493.6,367L494.03,365.82L484.86,351.72L480.93,350.07L480.93,350.07L454.94,317.09L451.73,310.94L451.62,301.45L454.01,298.4L457.79,296.52L458.81,295.34L459.13,293.47L458.33,290.23L460.68,286.48L458.72,279.43L458.65,276.92L455.99,274.48L454.76,270.02L453.53,268.17L453.26,266.72L454.01,263.76L451.85,262.36L454.99,257.34L453.65,250.81L454.19,249.61L452.53,246.4L453.9,244.59L457.49,234.61L456.24,232.85L455.15,227.7L455.69,225.71L454.05,215.14L454.76,211.16L457.17,210.1L457.51,207.57L455.99,206.32L455.37,204.56L455.1,199.02L455.87,194.49L455.81,188.54L449.82,179.06L445.54,177.35L441.93,178.77L440.68,178.3L440.63,174.54L438.92,173.25L437.54,170.87L434.55,169.45L434.17,166.94L435.17,164.68L433.6,161.69L432.03,161.07L432.03,161.07L437.55,150.77L437.93,147.66L435.1,145.32L435.35,137.57L439.55,132.57L436.91,128.11L436.37,124.9L440.68,117.27L440.01,114.89L440.37,113.02L442.21,110L442.69,104.02L443.81,99.03L447.98,94.8L449.99,93.77L456.75,92.52L460.69,93.64L462.16,95.42L464.71,96.31L465.45,96.24L466.48,94.96L466.51,92.49L469.49,93.1L473.35,92.3L474.89,93.88L477.22,93.37L477.74,94.8L479.75,96.08L481.16,94.7L481.61,93.25L489.72,91.05L491.33,91.83L496.46,90.72L497.19,90.38L497.54,88.15L501.33,86.57L505.42,88.62L506.56,88.46L509.15,84L512.98,82.47L513.81,81.38L515.69,80.62L521.39,82.02L522.53,83.38L524.99,84.27z"/>
		<path id="CG-8" title="Cuvette" class="land" d="M336.71,348.87L336.35,350.52L336.92,351.08L338.49,350.45L343.01,351.56L344.99,350.18L348.95,351.08L351.52,352.35L354.16,352.1L355.32,353.16L356.71,353.46L359.94,350.5L361.26,347.33L367.29,345.05L373.25,344.1L374.62,346.09L377.78,344.89L379.15,345.75L382.2,345.39L384.97,346.04L388.09,348.51L391.48,350.16L392.07,353.37L393.57,354.09L395.26,353.8L396.08,354.63L399.47,355.72L401.58,357.53L403.56,361.16L403.68,367.13L405.48,368.67L405.22,372.53L410.09,373.78L413.51,372.33L416.85,374.57L418.31,376.49L421.77,376.35L422.34,378.21L423.29,379.02L480.93,350.07L480.93,350.07L484.86,351.72L494.03,365.82L493.6,367L490.92,367.61L492.58,374.5L489.14,376.62L488.53,377.66L490.12,381.1L490.26,388.56L492.12,394.48L491.76,396.38L489.26,398.91L489.41,405.49L490.92,406.23L491.08,407.07L487.41,409.53L487.84,410.75L490.21,411L491.26,412.18L490.67,413.87L488.46,416.68L488.71,419.73L489.21,419.82L490.19,418.53L491.48,418.28L494.26,420.52L494.88,422.15L494.99,425.11L493.99,425.76L493.83,426.94L492.78,428.16L494.44,432.63L493.51,435.64L493.62,439.03L496.56,439.21L496.63,442.89L520.56,443.19L522.2,443.92L522.2,443.92L517.2,450.41L503.89,463.45L496.31,467.35L491.82,467.44L487.53,468.72L480.23,473.53L474.95,475.83L468.38,480.89L464.22,484.96L460.13,490.43L449.61,511.55L449.61,511.55L443.7,511.6L444.5,507.3L442.63,507.55L441.06,506.28L437.17,506.58L435.49,508.25L434.01,507.55L432.96,508.16L430.87,508.09L430.32,507.53L431.35,506.42L427.75,505.47L427.91,504.77L428.84,504.54L428.43,503.82L426.82,504.41L424.95,503.46L423.88,504.04L421.2,498.44L420.9,495.41L420.01,493.51L418.85,492.99L418.19,491.41L417.06,490.84L416.72,487.99L415.05,489.03L413.85,487.99L411.91,488.76L411.71,487.2L410.64,486.57L410.21,485.35L407.75,485.19L407.04,483.7L405.36,483.11L403.9,481.75L401.77,482.05L401.56,480.71L400.1,480.92L399.38,479.97L397.47,479.15L394.73,479.54L393.37,478.61L392.3,479.22L391.07,478.97L390.5,475.45L389.77,475.38L389.25,476.55L388.8,476.42L386.98,473.23L385.06,473.09L383.86,472.08L382.29,472.17L381.13,469.98L377.56,468.48L374.42,468.57L372.6,465.91L372.09,463.4L372.69,462.29L372.09,460.21L361.56,458.4L359.15,458.74L357.55,460.37L355.12,460.62L353.23,459.89L351.75,461.23L347.91,461.75L346.5,462.56L346.11,466.13L343.72,468.66L341.08,468.66L339.53,471.6L334.1,474L331.32,476.24L329.98,479.42L326.45,482.59L325.93,483.77L324.47,487.38L323.63,491.61L321.74,494.21L320.85,499.95L318.26,501.81L317.55,503.93L314.71,506.67L313.32,509.22L310.39,511.26L301.99,511.89L297.42,514.08L293.18,517.07L291.79,519.65L291.48,522.16L289.47,525.14L287.04,526.66L280.26,538.03L276.75,541.47L273.11,542.98L271.13,546.17L266.81,547.05L262.28,546.04L261.58,543.44L261.94,536.09L261.94,536.09L263.93,534.48L265.58,522.81L268.07,519.87L267.06,518.37L263.21,515.98L261.79,513.15L262.59,512.1L269.91,508.48L270.86,506.94L270.61,504.83L269,501.75L269.3,500.9L271.94,498.74L272.14,497.26L268.16,493.22L268.22,491.25L270.67,486.58L270.89,484.67L270.89,484.67L279.39,484.6L293.54,477.57L306.68,469.04L315.14,469.93L316.25,469.09L317.46,465.92L324.25,459.4L333.2,448.21L322.32,428.49L324.77,423.47L327.65,412.87L327.9,399.32L320.57,395.05L318.05,390.78L315.27,381L315.77,379.19L319.84,375.98L324.89,374.22L327.17,374.72L329.44,372.46L332.69,372.68L335.25,371.96L337.78,373.47L340.56,373.47L343.34,371.71L345.86,368.95L340.56,361.67L330.45,356.4L329.15,354.99L334.32,351.7L335.13,350.14z"/>
		<path id="CG-9" title="Niari" class="land" d="M131.13,536.25L136.22,539.98L138.5,546.01L139.79,553.01L143.51,557.53L149.09,560.8L151.29,563.62L152.04,566.63L151.64,571.09L151.64,571.09L152.4,583.33L153.02,585.4L152.27,592.79L152.95,603.65L153.59,606.93L155.59,611.93L153.18,612.05L151.47,613.63L148.99,614.63L148.74,615.31L150.01,617.07L150.63,619.56L153.06,620.38L154.84,620.29L160.05,625.4L157.79,632.94L157.89,639L155.18,641.09L154.38,642.9L151.26,643.96L149.83,646.16L148.63,645.95L145.46,647.09L142.96,646.48L142.51,650.8L141.66,650.62L140.66,649.37L137.93,651.12L135.63,650.01L131.22,651.16L127.15,650.73L122.94,652.68L120.5,659.31L117.77,659.58L116.34,660.9L118.11,662.53L117.09,663.73L118.7,664.72L118.73,666.44L120.59,666.65L121.14,667.24L120.9,669.4L120.9,669.4L118.73,671.31L117.75,674.37L118.73,679.78L120,682.16L118.57,684.06L119.3,686.6L120.62,688.41L118.23,689.61L116.09,691.58L116.25,692.74L121.89,696.45L126.58,703.95L130.97,708.98L137.61,714.65L144.73,726.27L148.72,735L151.88,735.57L153.25,738.49L153.84,738.72L155.79,738.49L157.11,739.01L159,738.47L160.75,739.56L163.12,739.24L167.51,740.89L170.58,740.83L172.7,744.61L175.57,748.17L176.14,750.71L177.39,751.35L178,753.2L180.5,755.7L180.55,758.17L181.32,759.46L183.92,759.92L190.02,764.23L195.54,767.24L196.3,769.06L196.6,774.84L196.6,774.84L194.3,774.28L191.03,775.58L189.87,776.58L189.18,778.9L185.95,778.34L184.01,778.78L183.71,779.25L185.1,781.78L184.5,782.95L180.25,778.62L180.38,777.34L180.93,777.02L179.73,773.04L178.64,772.95L177.45,771.95L174.86,772.07L172.51,770.83L170.06,768.12L170.12,767.5L170.91,767.37L169.41,764.67L168.28,763.35L166.38,762.47L160.08,756.04L158.56,755.91L157.58,756.91L157.33,760.63L150.29,756.2L148.06,752.05L141.51,746.02L141.25,741.27L133.89,742.09L131.25,739.15L131.25,739.15L126.71,735.68L124.78,734.89L118.36,735.07L115.84,734.34L112.72,730.08L111.92,728.06L112.86,721.92L103.78,711.25L102.41,710.41L99.3,709.98L99.39,708.15L98.61,707.13L95.45,705.97L89.56,705.11L87.6,703.89L84.5,703.7L84.5,701.19L82.68,700.69L81.11,699.04L75.38,698.31L71.65,696.7L63.96,691.43L60.5,687.94L56.13,687.29L56.13,687.29L57.8,687.27L63.67,681.34L62.23,679.14L57.23,675.68L55.71,670.4L62.53,656.07L66.14,653.99L66.14,651.17L58.75,649.66L53.44,644.94L44.34,640.42L46.24,636.27L50.22,636.46L54.96,630.24L45.1,619.31L41.54,612.88L37.99,610.94L37.14,613.65L36.01,614.79L34.11,615.16L32.97,614.79L32.41,609.89L37.91,601.76L39.58,601.02L40.19,596.34L40.16,594.21L38.89,590.55L36.32,586.92L36.32,580.1L35.1,571.37L36.33,571L38.49,572.53L43.77,574.42L47.92,579.81L48.99,579.52L51.79,576.25L53.82,574.91L62.38,574.08L65.21,572.69L67.01,572.58L72,576.34L73.39,579.09L108.47,579.3L108.37,575.83L110.63,571.48L108.07,567.66L108,566.73L110.87,562.32L110.47,560.06L109.12,557.83L110.18,552.66L107.75,549.74L106.21,546.45L105.56,540.31L103.77,534.32L105.14,534.32L107.01,535.83L111.11,536.84L111.81,536.48L113.3,533.44L116.98,531.25L120.77,530.75L125.07,531.25L127.34,533.9z"/>
		<path id="CG-11" title="Bouenza" class="land" d="M219.83,670.12L225.88,672.02L228.27,673.51L232.73,673.28L234.55,672.83L238.98,667.15L241.94,665.2L242.35,663.27L242.96,663.03L244.35,664.75L247.4,666.26L250.68,666.56L254.57,671.77L254.3,673.49L254.82,675.98L256.39,678.08L252.18,679.76L252.04,681.21L248.15,681.55L247.79,682.21L250.11,684.95L250.88,687.53L253,688.8L253.57,691.56L254.96,692.99L254.87,695.64L257.37,697.61L259.19,698.11L260.67,700.53L261.74,704.14L259.85,705.06L259.39,706.35L257.96,707.19L257.25,708.73L255.07,708.08L253.86,708.55L251.34,707.13L250.5,707.4L249.15,710L247.65,711.34L245.83,711.77L245.72,712.77L243.9,713.74L243.12,715.8L244.58,719.84L243.19,721.27L243.01,722.56L238.89,722.87L235.91,725.53L234.34,728L228.7,730.08L227.29,733.41L226.76,739.76L224.99,744.09L223.87,745.27L222.96,749.36L222.96,749.36L221.02,748.23L219.05,744.44L216.3,742.35L213.22,742.56L211.65,744.17L209.39,744.66L208.84,747.67L210.64,751.29L210.65,753.39L209.44,756.27L207.77,758.38L208.19,759.47L207.31,761.01L207.7,763L209.01,763.5L208.93,765.74L205.3,765.96L206.42,768.38L205.73,770.58L204.34,770.11L202.42,768.31L200.86,768.45L197.89,774.28L196.6,774.84L196.6,774.84L196.3,769.06L195.54,767.24L190.02,764.23L183.92,759.92L181.32,759.46L180.55,758.17L180.5,755.7L178,753.2L177.39,751.35L176.14,750.71L175.57,748.17L172.7,744.61L170.58,740.83L167.51,740.89L163.12,739.24L160.75,739.56L159,738.47L157.11,739.01L155.79,738.49L153.84,738.72L153.25,738.49L151.88,735.57L148.72,735L144.73,726.27L137.61,714.65L130.97,708.98L126.58,703.95L121.89,696.45L116.25,692.74L116.09,691.58L118.23,689.61L120.62,688.41L119.3,686.6L118.57,684.06L120,682.16L118.73,679.78L117.75,674.37L118.73,671.31L120.9,669.4L120.9,669.4L121.46,670.09L123.05,670.14L124.26,669.09L126.35,669.19L127.12,670.09L125.92,670.57L126.08,672.22L130.76,671.68L133.22,673.17L133.45,673.85L132.47,674.57L134,675.1L133.93,677.45L135.82,678.95L135.79,679.96L137.93,681.21L138.64,685.74L139.93,686.03L139.84,687.55L139.05,688.44L139.52,689.61L140.64,690.2L140.53,694.53L142.57,694.33L145.35,697.27L147.9,697.5L148.42,699.47L150.22,699.97L150.99,701.76L152.93,702.21L159.75,701.3L162.44,702.28L167.47,700.08L171.63,702.3L174.79,701.53L176.66,702.62L177.09,701.42L178.87,703.59L178,705.45L179.8,710.64L180.98,711.45L185.33,712.29L188.99,711.45L191.38,709.71L192,703.46L195.84,699.76L195.68,696.68L198.03,694.91L198.55,693.35L197.27,692.94L197.64,691.38L195.82,691.24L195.86,688.78L197.41,688.07L200.35,688.8L202.44,687.53L202.23,685.97L208.13,686.51L207.92,684.36L208.63,682.8L209.79,681.71L212,681.14L213.16,679.47L212.66,677.81L213.5,675.82L216.11,675.19L218.94,670.68z"/>
		<path id="CG-12" title="Pool" class="land" d="M342.47,725.69L339.51,722.74L331.21,722.94L329.24,726.09L329.04,729.63L330.03,733.17L332.6,734.94L334.85,734.55L334.85,734.55L327.26,743.99L316.1,752.49L312.57,756.3L311.6,758.18L305.85,763.54L302.83,769.55L302.32,771.84L301.42,772.54L300.23,775.16L291.68,779.35L287.67,782.73L284.05,783.22L279.6,781.61L276.79,778.5L272.76,777.9L271.24,777.09L266.08,780.97L264.86,780.82L264.12,778.14L263.97,773.69L265.24,771.78L264.52,770.4L264.67,766.96L266.26,761.33L265.03,759.84L262.68,759.92L262.07,758.1L262.37,756.5L260.37,755.44L259.73,753.9L260.51,752.23L262.38,750.7L264.85,749.8L265.02,750.26L265.83,749.81L266.49,750.32L266.58,748.12L268.79,746.22L269.58,744.26L270.61,743.53L267.05,741.53L262.84,735.71L264.13,734.24L264.96,730.91L261.15,731.49L260.46,733.51L257.44,733.52L256.41,734.56L254.89,734.39L252.14,737.07L245.73,740.48L243.66,739.99L239.23,741.4L237.39,741.09L234.11,742.66L233.23,742.53L231.19,746.54L227.81,750.16L222.96,749.36L222.96,749.36L223.87,745.27L224.99,744.09L226.76,739.76L227.29,733.41L228.7,730.08L234.34,728L235.91,725.53L238.89,722.87L243.01,722.56L243.19,721.27L244.58,719.84L243.12,715.8L243.9,713.74L245.72,712.77L245.83,711.77L247.65,711.34L249.15,710L250.5,707.4L251.34,707.13L253.86,708.55L255.07,708.08L257.25,708.73L257.96,707.19L259.39,706.35L259.85,705.06L261.74,704.14L260.67,700.53L259.19,698.11L257.37,697.61L254.87,695.64L254.96,692.99L253.57,691.56L253,688.8L250.88,687.53L250.11,684.95L247.79,682.21L248.15,681.55L252.04,681.21L252.18,679.76L256.39,678.08L254.82,675.98L254.3,673.49L254.57,671.77L250.68,666.56L247.4,666.26L244.35,664.75L242.96,663.03L242.35,663.27L241.94,665.2L238.98,667.15L234.55,672.83L232.73,673.28L228.27,673.51L225.88,672.02L219.83,670.12L219.83,670.12L221.23,669.05L220.92,667.35L223.05,664.97L224.74,661.6L224.83,659.85L228.72,656.96L230.34,654.6L231.93,653.52L233.04,651.25L235.05,649.87L236.14,647.58L238.3,646.95L237.94,645.43L239.6,644.21L240.19,641.99L241.62,641.18L241.53,639.14L245.42,628.91L247.63,627.19L252.47,624.88L252.47,624.88L254.5,627.98L260.1,628L260.69,629.09L261.83,629.66L266.67,629.07L269.4,631.94L271.32,632.33L272.59,633.3L273.5,633.19L277.94,626.94L283.94,622.28L284.88,620.38L289.54,616.64L291.11,614.24L293.71,613.5L295.87,611.75L296.8,607.21L302.08,603.47L303.4,603.11L304.36,603.29L305.95,605.62L305.86,607.91L307.47,609.67L308.18,618.14L311.64,618.57L316.1,616.89L319.12,617.84L322.08,617.55L324.58,620.08L324.99,623.02L325.97,624.88L328.73,625.54L329.61,626.78L333.37,628.34L336.98,628.57L339.53,627.75L344.49,629.04L347.31,628.52L352.98,626.35L361.01,620.35L364.4,619.27L365.61,618.23L367.57,618.09L368.45,616.15L371.18,614.29L378.19,612.34L379.15,613.54L380.7,611.71L381.01,613.04L382.77,612.79L383.7,613.97L384.95,613.54L390.73,616.69L391.98,618.23L392.21,619.67L393.78,620.4L394.73,621.67L397.69,621.98L399.81,620.72L401.79,620.49L409.74,621.62L409.74,621.62L410.94,627.65L409.54,634.67L410.72,642.56L410.02,646.76L410.44,648.14L413.16,650.5L412.24,654.03L410.27,658.58L405.79,665.21L404.19,670.06L399.7,675.98L395.02,686.55L390.33,694.91L388.01,702.56L386.16,704.49L383.19,705.67L371.5,707.39L359.02,711.7z"/>
		<path id="CG-13" title="Sangha" class="land" d="M432.03,161.07L433.6,161.69L435.17,164.68L434.17,166.94L434.55,169.45L437.54,170.87L438.92,173.25L440.63,174.54L440.68,178.3L441.93,178.77L445.54,177.35L449.82,179.06L455.81,188.54L455.87,194.49L455.1,199.02L455.37,204.56L455.99,206.32L457.51,207.57L457.17,210.1L454.76,211.16L454.05,215.14L455.69,225.71L455.15,227.7L456.24,232.85L457.49,234.61L453.9,244.59L452.53,246.4L454.19,249.61L453.65,250.81L454.99,257.34L451.85,262.36L454.01,263.76L453.26,266.72L453.53,268.17L454.76,270.02L455.99,274.48L458.65,276.92L458.72,279.43L460.68,286.48L458.33,290.23L459.13,293.47L458.81,295.34L457.79,296.52L454.01,298.4L451.62,301.45L451.73,310.94L454.94,317.09L480.93,350.07L480.93,350.07L423.29,379.02L422.34,378.21L421.77,376.35L418.31,376.49L416.85,374.57L413.51,372.33L410.09,373.78L405.22,372.53L405.48,368.67L403.68,367.13L403.56,361.16L401.58,357.53L399.47,355.72L396.08,354.63L395.26,353.8L393.57,354.09L392.07,353.37L391.48,350.16L388.09,348.51L384.97,346.04L382.2,345.39L379.15,345.75L377.78,344.89L374.62,346.09L373.25,344.1L367.29,345.05L361.26,347.33L359.94,350.5L356.71,353.46L355.32,353.16L354.16,352.1L351.52,352.35L348.95,351.08L344.99,350.18L343.01,351.56L338.49,350.45L336.92,351.08L336.35,350.52L336.71,348.87L336.71,348.87L336.71,348.87L336.71,348.87L336.17,348.28L334.91,349.5L334.21,346.88L331.05,345.66L330.07,346.27L329.45,343.92L327,343.56L327.22,341.68L326.11,341.88L325.02,340.75L323.45,340.85L320.99,339.92L320.33,338.9L320.06,334.45L321.49,331.96L320.01,326.27L319.96,320.25L320.78,315.44L319.08,312.12L318.71,309.74L321.97,306.28L325.33,305.2L325.47,302.98L323.97,300.18L320.33,298.76L319.24,296.52L319.19,296.97L314.02,297.22L308.93,295.89L305.08,292.83L300.1,290.98L298.14,287.75L296.23,286.41L293.77,285.85L290.02,286.57L278.03,282.57L274.52,279.88L273.07,272.15L273.18,270.18L272.34,268.92L267.52,269.71L265.2,269.23L261.6,270.07L256.39,269.8L250.43,271.18L250.43,271.18L247.94,270.28L246.45,268.57L241.73,268.64L239.56,270.2L236.56,269.79L233.59,267.37L233.44,265.96L232.06,265.1L231.06,266.58L229.75,266.89L228.37,266.4L225.07,266.81L222.27,265.55L220.17,266.15L219.35,265.47L216.13,265.96L215.56,265.15L214.8,266.38L215.41,266.29L215.58,267.25L214.7,267.56L214.25,268.57L213.56,268.46L213.82,270.57L212.97,271.36L211.38,272.05L210.02,271.43L210.17,270.81L209.1,270.66L207.17,272.21L205.52,272.41L204.79,271.96L201.09,272.76L201.16,273.98L199.03,273.96L198.69,274.69L197.58,274.98L196.38,277.13L194.79,278.08L193.52,277.65L189.21,278.79L185.12,276.93L184.97,276.33L183.1,276.56L181.77,277.79L179.91,277.1L179.18,278.05L179.71,279.17L178.02,279.11L177.29,279.81L175.57,279.43L175.81,281.39L174.97,281.28L174.54,282.77L170.12,282.19L167.07,282.3L165.22,283.03L162,281.7L162.96,280.37L163.85,280.64L164.66,276.97L167.54,277.57L168.14,276.06L170.28,275.05L170.82,273.38L170.63,272.93L169.7,273.36L169.17,272.71L170.02,271.76L169.38,270.86L170.26,269.12L169.62,268.89L169.89,267.77L168.65,266.7L168.37,265.09L167.34,264.65L167.48,263.32L166.91,262.87L167.27,262.19L166.07,260.88L165.15,261.09L165.44,259.09L163.83,257.16L162.61,258L162.24,257.61L161.04,255.19L160.44,255.08L160.72,253.77L159.92,253L161.11,252.8L160.93,251.08L161.57,249.92L160.67,247.63L160.43,243.65L162.11,241.91L162.23,240.39L164.14,239.16L164.08,236.37L165.22,236.35L165.69,235.1L164.79,233.77L165.24,233.23L164.93,231.28L163.35,230.9L163.26,230.01L162.27,229.5L162.16,228.06L162.46,227.4L164.05,226.94L164.84,225.16L166.93,223.74L166.37,220.85L168.45,219.51L169.37,217.71L171.62,217.34L172.67,216.18L172.24,214.96L172.93,215.28L173.31,214.38L173.72,211.39L173.03,209.74L173.31,208.88L172.73,208.52L173.69,207.74L173.05,206.63L173.69,205.49L251.23,205.4L252.11,205.34L253.2,204.29L256.49,203.86L263.61,204.51L266.63,206.68L275.83,203.33L276.73,202.15L278.07,202.85L278.88,202.13L281.26,203.84L282.77,206.65L284.17,207.07L284.43,208.86L287.3,208.74L288.66,210.48L290.35,210.92L290.29,209.68L290.87,209.42L293.1,211.17L292.99,211.64L292.03,211.62L292.08,212.25L294.35,211.6L294.59,214.36L296.45,213.54L297.85,214.68L298.9,214.29L300.01,212.86L302.13,212.92L301.7,211.21L303.05,210.6L303.47,213.56L306.28,214.91L305.96,216.39L304.66,217.89L306.72,219.56L310.41,219.01L311.97,216.67L315.82,219.43L316.51,221.22L318.46,219.26L319.21,219.61L319.19,221L321.85,221.14L323,218.45L324.59,218.73L325.04,218.27L325.51,216.21L326.32,216.12L327.64,218.2L329.13,216.59L330.59,216.47L333.66,217.28L332.96,218.63L334.31,218.86L336.85,220.77L338.27,222.89L338.17,224.71L339.2,225.01L340.48,224.27L341.27,226.61L346.54,224.36L348.5,222.89L353.47,221.36L356.08,223.14L357.7,222.55L359.28,223.68L361.59,223.22L366.6,224.87L369.28,224.82L372.7,226.44L374.47,226.23L376.09,227.21L379.17,231.37L381.43,232.26L382.55,233.46L384.18,233.62L385.38,236.6L385.16,237.29L387.63,236.52L388.1,237.62L391.63,238.74L397.6,238.71L397.71,239.8L396.43,242.28L397.14,243.61L396.79,245.46L397.59,247.26L400.24,247.6L401.81,244.98L404.77,244.12L406.79,245.25L407.47,243.42L406.42,241.77L406.99,238.75L406.43,235.81L405.38,234.39L404.42,231.19L404.34,228.57L402.4,228.32L401.5,223.77L399.5,221.84L399.5,219.27L401.87,216.15L400.33,214.09L402.21,212.54L401.5,207.95L402.01,203.72L402.8,203.23L405.78,203.38L406.56,205.11L407.02,205.11L410.38,202.39z"/>
		<path id="CG-14" title="Plateaux" class="land" d="M261.94,536.09L261.58,543.44L262.28,546.04L266.81,547.05L271.13,546.17L273.11,542.98L276.75,541.47L280.26,538.03L287.04,526.66L289.47,525.14L291.48,522.16L291.79,519.65L293.18,517.07L297.42,514.08L301.99,511.89L310.39,511.26L313.32,509.22L314.71,506.67L317.55,503.93L318.26,501.81L320.85,499.95L321.74,494.21L323.63,491.61L324.47,487.38L325.93,483.77L326.45,482.59L329.98,479.42L331.32,476.24L334.1,474L339.53,471.6L341.08,468.66L343.72,468.66L346.11,466.13L346.5,462.56L347.91,461.75L351.75,461.23L353.23,459.89L355.12,460.62L357.55,460.37L359.15,458.74L361.56,458.4L372.09,460.21L372.69,462.29L372.09,463.4L372.6,465.91L374.42,468.57L377.56,468.48L381.13,469.98L382.29,472.17L383.86,472.08L385.06,473.09L386.98,473.23L388.8,476.42L389.25,476.55L389.77,475.38L390.5,475.45L391.07,478.97L392.3,479.22L393.37,478.61L394.73,479.54L397.47,479.15L399.38,479.97L400.1,480.92L401.56,480.71L401.77,482.05L403.9,481.75L405.36,483.11L407.04,483.7L407.75,485.19L410.21,485.35L410.64,486.57L411.71,487.2L411.91,488.76L413.85,487.99L415.05,489.03L416.72,487.99L417.06,490.84L418.19,491.41L418.85,492.99L420.01,493.51L420.9,495.41L421.2,498.44L423.88,504.04L424.95,503.46L426.82,504.41L428.43,503.82L428.84,504.54L427.91,504.77L427.75,505.47L431.35,506.42L430.32,507.53L430.87,508.09L432.96,508.16L434.01,507.55L435.49,508.25L437.17,506.58L441.06,506.28L442.63,507.55L444.5,507.3L443.7,511.6L449.61,511.55L449.61,511.55L443.19,524.16L434.9,536.4L424.36,548.03L414.76,554.89L411.4,561L410.62,563.23L410.03,576.08L414.38,595.78L414.01,599.37L411.54,605.68L411.68,609.48L409.7,616.17L409.74,621.62L409.74,621.62L401.79,620.49L399.81,620.72L397.69,621.98L394.73,621.67L393.78,620.4L392.21,619.67L391.98,618.23L390.73,616.69L384.95,613.54L383.7,613.97L382.77,612.79L381.01,613.04L380.7,611.71L379.15,613.54L378.19,612.34L371.18,614.29L368.45,616.15L367.57,618.09L365.61,618.23L364.4,619.27L361.01,620.35L352.98,626.35L347.31,628.52L344.49,629.04L339.53,627.75L336.98,628.57L333.37,628.34L329.61,626.78L328.73,625.54L325.97,624.88L324.99,623.02L324.58,620.08L322.08,617.55L319.12,617.84L316.1,616.89L311.64,618.57L308.18,618.14L307.47,609.67L305.86,607.91L305.95,605.62L304.36,603.29L303.4,603.11L302.08,603.47L296.8,607.21L295.87,611.75L293.71,613.5L291.11,614.24L289.54,616.64L284.88,620.38L283.94,622.28L277.94,626.94L273.5,633.19L272.59,633.3L271.32,632.33L269.4,631.94L266.67,629.07L261.83,629.66L260.69,629.09L260.1,628L254.5,627.98L252.47,624.88L252.47,624.88L253.23,623.21L255.12,621.71L256.25,618.91L258.62,617.71L259.42,616.42L258.48,613.52L257.1,611.85L256.12,605.85L255.52,605.87L254.46,607.61L253.86,607.12L256.09,601.32L254.89,600.64L252.95,601.75L251.41,600.35L248.06,601.8L245.79,600.44L243.15,600.55L242.6,599.94L241.87,598.77L246.49,595.33L246.99,594.06L245.42,593L244.35,594.47L243.76,594.29L240.8,591.96L241.08,591.25L243.53,590.91L243.94,589.72L243.31,588.56L240.87,587.52L240.23,582.48L240.23,582.48L244.71,574.23L249.15,569.64L248.88,568.1L244.58,561.92L244.05,560.18L244.55,559.32L248.39,557.73L249.56,555.25L251.85,553.5L251.37,546.42L252.19,543.54L256.77,539.27z"/>
		<path id="CG-15" title="Cuvette-Ouest" class="land" d="M336.71,348.87L335.13,350.14L334.32,351.7L329.15,354.99L330.45,356.4L340.56,361.67L345.86,368.95L343.34,371.71L340.56,373.47L337.78,373.47L335.25,371.96L332.69,372.68L329.44,372.46L327.17,374.72L324.89,374.22L319.84,375.98L315.77,379.19L315.27,381L318.05,390.78L320.57,395.05L327.9,399.32L327.65,412.87L324.77,423.47L322.32,428.49L333.2,448.21L324.25,459.4L317.46,465.92L316.25,469.09L315.14,469.93L306.68,469.04L293.54,477.57L279.39,484.6L270.89,484.67L270.89,484.67L265.76,463.56L265.48,458.87L264.71,456.1L265.16,454.4L267.22,451.51L269.68,442.45L271.96,437.54L271.49,432.25L269.05,427.03L263.94,420.96L262.74,420.27L256.87,419.38L251.83,417.36L245.59,417.91L245.22,411.71L244.45,408.98L243.41,407.57L239.38,404.78L229.87,400.29L227.91,400.3L226.16,402.49L223.31,400.41L221.84,397.44L221.91,395.03L224.17,391.59L225.11,388.93L225.67,382.14L226.95,381.78L227.71,379.63L227.34,378.42L225.28,378.5L224.87,378.03L224.12,374.76L224.83,373.77L225.08,371.46L221.99,365.65L222.98,365.05L222.4,364.21L222.73,362.77L225.05,360.64L226.36,360.33L225.68,358.88L226.6,358.56L226.02,358.02L226.95,357.14L226.33,356.45L228.44,354.76L230.25,351.53L236.55,347.99L237.22,345.74L238.73,343.95L236.91,341.95L237.88,339.72L239.84,337.4L240.91,336.71L243.56,336.97L245.75,337.96L247.4,337.32L249.36,338.49L252.24,337.52L254.8,337.89L254.33,336.92L255.28,334.92L262.61,330.27L260.57,327.42L261.26,325.3L265.13,321.75L265.07,320.9L266.41,319.05L269.13,317.91L269.83,316L271.14,314.99L270.19,311.92L269.23,310.99L271.38,310.54L272.26,308.43L271.9,306.58L266.99,303.21L263.86,296.1L263.77,293.46L259.51,288.91L259.27,286.33L258.06,284.16L255.37,281.76L256.13,276.37L253.96,273L250.43,271.18L250.43,271.18L256.39,269.8L261.6,270.07L265.2,269.23L267.52,269.71L272.34,268.92L273.18,270.18L273.07,272.15L274.52,279.88L278.03,282.57L290.02,286.57L293.77,285.85L296.23,286.41L298.14,287.75L300.1,290.98L305.08,292.83L308.93,295.89L314.02,297.22L319.19,296.97L319.24,296.52L320.33,298.76L323.97,300.18L325.47,302.98L325.33,305.2L321.97,306.28L318.71,309.74L319.08,312.12L320.78,315.44L319.96,320.25L320.01,326.27L321.49,331.96L320.06,334.45L320.33,338.9L320.99,339.92L323.45,340.85L325.02,340.75L326.11,341.88L327.22,341.68L327,343.56L329.45,343.92L330.07,346.27L331.05,345.66L334.21,346.88L334.91,349.5L336.17,348.28z"/>
		<path id="CG-16" title="Pointe-Noire" class="land" d="M55.16,774.6L54.48,774.59L54.75,774.17L52.8,771.9L52.91,771.06L53.41,771.38L52.98,771.88L53.5,771.77L53.84,772.52L55,772.04L54.91,768.73L50.2,764.26L49.34,762.29L49.38,761.67L51.39,761.45L52.98,758.93L52.71,756.98L50.32,753.43L50.32,753.43L59.85,753.43L59.85,774.64z"/>
		<path id="CG-BZV" title="Brazzaville" class="land" d="M342.47,725.69L334.85,734.55L334.85,734.55L332.6,734.94L330.03,733.17L329.04,729.63L329.24,726.09L331.21,722.94L339.51,722.74z"/>
	</g>
</svg>