<?xml version="1.0" encoding="utf-8"?>
<!-- (c) ammap.com | SVG map of Costa Rica - High -->
<svg xmlns="http://www.w3.org/2000/svg" xmlns:amcharts="http://amcharts.com/ammap" xmlns:xlink="http://www.w3.org/1999/xlink" version="1.1">
	<defs>
		<style type="text/css">
			.land
			{
				fill: #CCCCCC;
				fill-opacity: 1;
				stroke:white;
				stroke-opacity: 1;
				stroke-width:0.5;
			}

			.water
			{
				fill: #CCCCCC;
				fill-opacity: 1;
				stroke:white;
				stroke-opacity: 1;
				stroke-width:0.5;
			}
		</style>

		<amcharts:ammap projection="mercator" leftLongitude="-85.951112" topLatitude="11.216982" rightLongitude="-82.555690" bottomLatitude="8.032245"></amcharts:ammap>

		<!-- All areas are listed in the line below. You can use this list in your script. -->
		<!--{id:"CR-A"},{id:"CR-C"},{id:"CR-G"},{id:"CR-H"},{id:"CR-L"},{id:"CR-LA"},{id:"CR-P"},{id:"CR-SJ"}-->

	</defs>
	<g>
		<path id="CR-A" title="Alajuela" class="land" d="M242.75,26.65L256.14,34.46L262.91,32.24L263.93,34.62L264.83,35.77L268.59,37.39L275.25,39.69L278.94,41.74L285.37,48.77L288.13,50.29L289.55,50.63L290.77,50.6L292.12,50.13L293.48,49.18L294.99,47.55L295.89,47.08L299.81,46.14L302.66,43.29L303.15,43.03L303.69,43.26L304.49,44.08L306.28,47.02L306.24,47.99L305.5,50.1L304.87,51.08L304.98,52.1L306.88,53.4L308.12,55.84L308.78,57.69L309.74,58.67L311.65,58.57L313.68,58.86L314.95,59.39L315.83,60.16L317.07,61.85L317.19,62.86L317.82,63.38L319.21,63.38L323.17,64.22L324.18,64.62L325.56,66.05L328.8,67.14L329.61,68.15L330.08,69.54L329.57,70.69L330.18,72.11L330.42,73.38L329.59,74.76L329.62,75.79L328.97,76.42L326.15,77.25L326.52,78.42L327.91,79.08L328.4,80.11L330.69,80.65L332.33,81.7L332.56,83.11L333.44,84.52L334.6,83.39L335.5,82.89L336.77,82.91L338.65,83.64L340.98,83.23L342.34,83.25L342.34,83.25L341,121.93L341.1,154.64L340.98,178.91L340.58,201.39L341.48,215.91L341.43,220.88L340.07,223.74L340.08,226.4L338.76,230.99L337.67,233.27L334.75,235.83L336.13,240.24L336.13,240.24L333.88,240.13L331.04,241.42L329.07,243.14L327.68,244.74L324.91,246.89L321.67,248.14L314.09,248.75L309.42,250.26L304.76,250.44L301.61,248.51L299,247.83L294.29,247.79L294.18,248.08L286.46,249.67L283.81,249.52L281.09,251.26L280.03,252.39L277.3,253.67L275.72,254.81L272.7,257.84L270.07,258.6L267.9,261.43L267.42,263L264.71,267.17L262.23,267.2L262.23,267.2L260.58,265.98L258.54,265.05L257.53,263.75L257.18,261.22L254.28,260.44L251.46,260.28L248.01,260.43L243.15,259.58L241.65,257.14L241.91,253.67L243.3,251.9L245.64,251.14L247.92,246.23L249.54,244.4L252.65,244.32L255.63,244.06L258.08,240.82L261.05,238.03L265.38,236.41L266.33,233.03L265.89,229.47L262.93,226.48L259.41,226.06L252.68,225.95L251.92,223.55L251.25,219.7L248.51,218.44L247.37,216.51L244.39,210.47L244.36,207.29L244.05,202.16L244.44,199.55L242.22,198.05L243.74,194.83L245.29,192.42L246.86,188.62L245.78,184.84L243.42,182.36L241.45,179.87L239.48,179.17L236.57,180.11L234.02,181.69L229.86,183.13L223.47,178.68L220.12,173.8L220.12,173.8L222.51,169.84L223.89,165.42L225.02,164.69L222.5,160.83L223.3,153.93L223.39,150.69L223.39,150.69L226.38,150.61L230.76,150.9L231.72,150.47L231.12,149.44L231.15,148.17L230.72,147.09L229.48,146.14L227.7,146.13L225.49,143.07L222.11,143.39L222.11,143.39L221.93,141.02L221.99,138.77L218.93,138.33L215.89,136.45L211.85,133.73L207.3,128.88L201.87,125.91L194.11,125.83L191.84,122.48L188.77,119.56L185.49,117.4L181.4,112.36L179.67,107.84L179.41,104.67L178.18,101.35L177.55,99.22L175.28,98.42L172.78,97.1L167.87,96.25L165.42,94.81L162.87,94.13L160.41,94.66L157.41,94.51L155.45,94.04L151.81,89.05L148.18,86.72L144.54,85.84L140.79,85.59L135.75,86.14L129.79,87.11L126.16,86.8L124.22,85.01L122.29,79.33L122.15,76.09L118.99,74.16L112.72,71.72L109.54,68.86L107.91,65.84L106.86,63.14L106.04,60.45L104.2,58.12L98.91,49.35L100.07,47.41L102.64,46.82L106.39,45.1L108.98,42.83L109.8,41.35L111.56,35.86L112.79,34.5L117.39,34.43L119.36,32.93L121.26,32.94L124.29,36.67L127.39,38.85L129.69,38.9L130.36,35.81L130.76,31.28L131.83,27.11L131.83,27.11L134.29,28.24L141.86,32.27L183.44,47.25L197.69,53.2L220.5,39.84L242.16,26.56z"/>
		<path id="CR-C" title="Cartago" class="land" d="M383.02,205.77L407.86,219.06L413.7,222.37L426.72,227.84L446.23,237.12L478.03,237.29L503.33,237.12L502.17,238.88L499.61,240.1L498.69,242.21L498.75,244.34L496.06,244.88L496.17,249.08L496.96,253.04L498.37,256.35L498.42,260.73L498.06,262.07L499.54,265.89L495.9,269.97L488.47,280.27L485.95,283.11L483.78,285.87L481.91,289.1L481.74,293.83L480.53,297.9L476.43,301.81L472.88,304.51L462.43,314.13L463.7,316.23L465.05,319.65L465.4,322.23L465.07,324.95L465.76,327.06L466.69,330.77L466.69,330.77L462.44,328.81L456.21,323.5L453.53,322.42L449.94,321.54L445.21,318.61L443.23,317.69L440.97,315.04L438.59,314.18L436.53,314.47L435.12,315.66L434.02,317.77L430.96,319.76L428.58,318.61L424.63,319.58L422.37,319.01L421.51,316.9L418.69,316.81L417.29,315.92L416.46,313L417.04,310.51L415.26,310.73L412.51,309.61L410.2,308.98L408.04,307.95L405.15,307.33L402.69,305.5L401.64,302.82L401.66,299.18L400.82,297.71L397.58,297.16L396.62,297.71L394.54,297.42L393.03,296.65L390.14,293.79L388.43,294.65L387.44,294.15L386.83,292.84L384.79,291.52L382.77,291.34L382.05,290.27L382.29,288.36L382.15,285.42L377.33,283.3L375.05,279.79L373.26,275.11L371.84,275.72L366.75,278.8L364.33,278.93L361.02,279.71L357.91,279.51L355.87,278.47L356.74,276.65L356.44,274.01L357.58,273.75L361.16,271.98L364.88,269.16L366.87,268.07L367.4,266.39L370.11,262.33L371.12,261.15L371.99,259.45L372.81,257.7L372.83,256.14L371.88,255.07L369.98,255.01L366.83,255.44L367.1,252.61L369.92,250.63L372.32,247.79L372.53,244.78L373.84,244.06L382.09,242.97L384.92,243.52L388.35,242.85L390.32,241.18L391.94,239.41L393.68,239.94L395.08,240.54L398.5,239.46L399.38,237.7L398.04,234.91L397.49,231.58L397.35,228.41L395.95,225.5L392.95,222.76L389,221.25L386.88,219.46L384.68,209.94z"/>
		<path id="CR-G" title="Guanacaste" class="land" d="M6.83,70.02l0.61,1.29l-0.98,0.17l-0.62,-0.67l-0.89,0.13l-0.31,-0.36l1.11,-0.26l0.4,-0.35L6.83,70.02zM82.02,10.49l20.19,7.42l10.88,-0.04l11.43,5.9l7.3,3.35l0,0l-1.06,4.17l-0.4,4.53l-0.67,3.09l-2.3,-0.05l-3.1,-2.17l-3.03,-3.74l-1.9,-0.01l-1.97,1.5l-4.6,0.07l-1.23,1.37l-1.75,5.49l-0.82,1.47l-2.59,2.27l-3.75,1.72l-2.57,0.59l-1.16,1.94l5.29,8.77l1.84,2.32l0.82,2.7l1.05,2.69l1.63,3.02l3.18,2.87l6.27,2.43l3.16,1.94l0.14,3.24l1.93,5.68l1.95,1.8l3.63,0.31l5.96,-0.97l5.05,-0.54l3.74,0.24l3.65,0.89l3.63,2.33l3.64,4.99l1.97,0.47l2.99,0.15l2.46,-0.53l2.55,0.68l2.45,1.44l4.91,0.85l2.51,1.32l2.26,0.81l0.63,2.12l1.24,3.32l0.26,3.17l1.73,4.52l4.1,5.04l3.28,2.17l3.06,2.92l2.27,3.35l7.76,0.08l5.43,2.97l4.55,4.85l4.04,2.72l3.04,1.88l3.06,0.44l-0.06,2.25l0.18,2.36l0,0l-2.61,1.11l-2.82,-0.15l-5.49,-5.46l-1.79,-2.61l-3.87,-2.96l-3.03,-1.71l-2.89,-0.44l-0.05,-1.79l0.26,-0.99l-0.71,-0.79l-0.91,0.49l-3.02,-1.36l-0.47,1.92l-1.94,0.69l-1.18,-1.01l-3,-0.32l-0.38,1.05l-1.09,0.15l-2.59,-0.16l5.06,4.43l3.52,2.74l1.74,0.36l-0.16,-1.73l2.31,0.4l2.31,2.6l3.26,1.64l3.18,0.61l2.43,0.68l2.75,1.95l0.39,3.86l4.39,0.69l4.36,1.84l3.32,1.59l0,0l-0.09,3.24l-0.8,6.9l2.52,3.86l-1.13,0.72l-1.38,4.43l-2.39,3.95l0,0l-3.18,-2.63l-4.35,-1.27l-3.41,1.59l-3.11,4.25l-1.03,4.42l-0.28,2.49l-3.33,8.87l1.05,6.91l-3.89,0.97l-4.16,3.81l0.73,3.79l-2.42,4.34l-2.53,0.07l-4.15,-2.49l-10.06,-4l-4.43,-2.42l-3.68,0.1l0.65,7.01l0,0l-1.89,-0.34l-0.39,-0.53l0.09,-0.49l-1.53,-1.79l-2.11,-1.62l0.23,-0.79l0.97,0.19l0.66,0.63l1.41,0.28l0.53,-0.3l0.23,-0.48l-0.48,-1.15l-1.2,0.47l-3.48,-1.23l-1.01,-0.81l-1.28,-0.23l-2.89,1.21l-1.17,1.49l-1.42,0.34l-0.53,-0.54l-0.88,-0.14l-0.7,-0.45l-1.37,0.16l-2.03,-1.08l-2.43,-0.38l-0.58,0.3l-1.68,-0.46l-1.14,-0.59l-1.46,-0.33l-1.5,-0.99l-1.58,-1.52l-0.38,-1.99l-1.13,-2.4l0.71,-0.39l0.41,-1.41l-0.21,-1.33l-1.22,-2l-1.45,-1.43l-0.13,-0.8l-1.19,-0.45l-1.1,-0.94l-2.86,-1.58l-1.85,-0.64l-0.79,-0.81l1.13,-2.2l-0.08,-0.89l-2.98,-3l-1.06,-0.32l-0.83,-0.76l-0.56,-1.42l-1.49,-1.34l-5.4,-0.14l-0.8,0.21l-1.03,0.96l-1.32,-0.99l-1.46,0.07l1.23,0.76l0.79,1.12l0.66,0.18l0.8,-0.57l1.46,0.37l2.4,-1.13l0.89,-0.03l1.72,0.72l1.49,1.61l1.13,1.83l2.42,1.53l0.48,0.93l-0.01,0.71l-0.68,1.81l0.21,1.51l0.57,0.67l2.12,0.46l1.58,0.9l4.04,3.45l0.51,2.4l-0.46,1.28l-0.11,2.65l0.51,1.91l-0.54,1.05l0.33,2.35l-0.23,0.48l-0.62,0.3l-0.14,0.88l1.32,5.15l2.22,3.69l-2.41,-2.19l-1.19,-0.19l-0.22,-0.31l-1.28,0.03l-0.66,-0.8l-3.68,0.85l-1.16,1.23l0.71,0.45l0.8,-1.1l1.06,0.05l0.7,0.89l-0.85,0.52l-0.63,0.83l0.22,0.44l0.53,-0.04l1.65,-1.44l0.09,-0.53l-0.35,-0.62l0.58,-0.17l0.75,0.49l2.39,0.07l1.01,0.67l0.39,0.93l-0.18,0.4l-1.11,0.21l1.19,0.72l0.22,0.62l-0.94,1.05l0.51,1.64l0.58,-0.57l2.15,2.23l1.36,0.99l4.23,1.77l0.97,0.9l0.56,1.77l1.1,0.5l1.52,2.32l2.07,1.08l1.1,0.01l0.67,-0.7l0.39,0.62l-0.19,1.81l-0.36,0.62l-0.66,-0.09l-1.05,-1.03l-1.95,-0.15l-0.97,-0.58l-1.14,-1.07l-0.78,-1.47l-0.94,0.88l-0.62,-0.14l-0.49,0.39l0.74,0.76l1.2,-0.12l1,1.82l0.84,0.19l0.61,1.07l1.33,-0.34l0.78,1.34l0.44,0.05l0.27,0.54l0,0l-0.87,1.21l-1.59,5.07l-2.24,2.25l-2.29,0.52l-3.63,-0.31l-1.06,1.13l-4.18,0.86l-2.79,0.88l-3.84,0.45l-3.03,2.91l0.02,2.89l2.05,1.56l4.11,0.93l3.64,0.48l4.47,1.55l4.41,7.9l4.16,0.58l-1.36,2.92l-1.6,2.7l-0.95,3.14l0.71,5.06l-2.23,4.91l-2.81,2.44l-2.49,3.35l0,0l-0.9,-0.95l-2.85,-2.19l-3.47,-1.8l-0.04,-0.75l0.53,-0.52l0.23,-0.88l-1.12,-2.97l-5.18,-4.03l-1.76,-0.99l-2.07,-0.68l-2.16,-0.33l-0.03,-0.97l-1.53,-1.3l-4.35,-2.65l-1.85,-0.33l-3.08,-1.49l-1.81,-0.55l-0.71,0.04l-0.54,1.1l-1.68,-0.19l-2.2,-0.91l-0.92,-0.98l-0.97,-0.5l-1.99,-0.33l-2.52,0.38l-0.59,1.63l-0.54,0.44l-0.8,-0.05l-3.52,-2.02l-0.34,-1.24l-0.61,-0.4l-1.91,1.22l-0.93,-0.14l-0.36,0.53l-0.48,-0.14l-0.16,-1.64l-1.93,-1.57l-0.8,-0.09l-1.73,0.87l-2.03,-0.02l-2.51,-0.95l-2.08,0.56l-1.14,-0.81l-2.07,-0.24l-1.76,-1.52l-1.73,0.34l-1.19,-0.28l-3.01,0.02l-0.7,-0.45l-0.21,-1.33l-0.97,-0.85l-1.41,-0.41l-1.24,0.08l-0.71,0.39l0.04,0.62l-0.31,0.48l-2.77,-1.39l0.4,-0.84l0.58,-0.26l0.27,-0.84l-0.42,-2.75l-0.78,-1.64l-1.36,-1.87l0.18,-0.71l-1.22,-2.4l-3.81,-4.76l-0.56,-1.24l-1.41,-1.29l-1.37,-0.76l-3.69,-3.83l-1.05,-1.51l-0.69,-2.62l-0.52,-0.89l-2.37,-2.06l-0.35,-0.84l-0.48,-0.18l-0.87,-1.42l-2.85,-3.61l-0.07,-1.99l-1.14,-1.25l-1.37,-5.81l-1.23,-1.52l-0.12,-1.37l-2.17,-4.8l-3.02,-4.1l0.14,-1.11l-0.47,-1.95l0.06,-1.77l-2.22,-4.89l-0.16,-1.95l0.59,-1.94l-1.08,-3.82l2.37,-2.15l0.89,-1.37l-0.78,-2.27l-1.05,-1.74l-1.58,-1.65l-0.61,-1.07l-0.93,-0.32l-0.44,-0.58l-0.49,0.22l-0.66,-0.67l-0.49,-0.05l-0.08,-0.62l0.72,-1.72l1.29,-0.92l0.66,-0.04l0.61,0.67l0.54,-0.92l0.8,0.09l0.45,-0.66l0.37,-1.55l0.67,-0.39l1.67,-3.4l0.58,-0.13l0.49,-0.57l0.63,-1.55l0.53,0.18l0.39,0.89l2.21,0.37l0.75,-0.39l0.72,-0.79l1.09,-3.89l-0.51,-2.57l1.24,0.14l0.48,0.93l1.16,-0.61l0.99,-1.5l0.19,-1.5l-0.66,-0.63l-0.38,-2.57l-1.46,-0.94l0.23,-0.53l-0.44,-0.36l-0.89,-0.14l-0.48,-0.49l-0.03,-1.6l-1.01,-1.07l0.76,-0.75l-0.57,-1.11l-1.37,-0.94l0.09,-0.4l2.97,-0.51l0.59,-1.1l0.8,-0.57l-0.08,-0.71l0.58,-0.79l-0.04,-0.35l1.16,-0.88l1.28,0.41l0.93,-0.17l0.48,1.16l1.19,1.03l1.29,-0.04l3.61,-3.03l2.22,-0.82l1.79,-1.71l0.13,0.4l0.79,0.54l0.8,-0.04l1.12,-1.45l-0.18,-0.4l0.18,-0.44l-0.74,-1.42l0.13,-0.31l2.04,-0.16l1.47,-0.65l0.54,-0.53l-0.34,-1.6l0.36,-0.53l1.5,0.15l0.45,-0.62l2.17,0.42l0.54,-0.44l0.41,-0.88l0.23,-1.5l1.33,0.23l0.37,-1.81l0.72,-0.66l1.11,-0.43l0.28,-1.55L61,113.13l-0.66,-0.67l-3.76,-1.32l-0.89,0.35l-1.34,1.19l-1.95,0.38l-0.02,2.22l-0.71,0.3l-0.45,1.33l-1.64,0.47l-0.4,0.66l-1.11,-0.41l-0.08,-0.4l1.69,-1l0.5,-1.59l-0.75,-0.54l0.63,-1.19l0.44,0.05l0.41,-0.66l0.97,0.05l0.72,-1.15l-0.13,-0.36l-0.84,-0.36l-0.8,0.04l0.81,-1.01l0.97,-0.08l0.59,-1.19l-0.48,-0.67l0.14,-0.4l1.42,0.37l2.18,-1.44l0.32,-0.75l-1.45,-6.84l-0.98,-2.62l0.48,-1.47l-0.25,-2l0.96,-3.14l0.1,-1.24l-1.27,-1.92l-2.16,-2.02l-0.88,-1.29l-0.91,-2.22l-2.71,0.24l-0.83,-1.03l-1.38,0.08l-0.66,-0.67l-0.75,-0.1l-1.69,0.3l-1.68,-1.08l-1.55,-0.01L38,78.43l-1.29,0.65l-1.17,1.72l-2.38,-1.44l-2.74,-0.86l-0.89,0.04l-0.35,-1.16l-0.52,-0.89L27.99,76l-0.35,-0.85l0.19,-1.37l2.83,0.6l0.14,-0.8l-1.18,-2.32l-2.49,0.69l-1.46,-0.1l-2.39,-1.04l-5.11,-0.12l-1.39,-3.44l-0.66,-0.54l-2.35,-0.69l-5.13,-2.22l-1.01,-0.85l-1.68,-0.63l-1.02,0.04l-0.71,0.53l-3.2,0.82L0,63.35l1.83,-1.1l2.53,-0.51l1.69,-0.87l0.67,-0.7l2.84,-0.42l1.16,-0.61l1.69,-0.21l0.58,-0.39l0.4,-0.75l2.27,-0.47l1.04,-2.08l-0.79,-0.98l-3.01,-1.62l2.09,-0.03l0.54,-0.31l5.32,0.98l0.71,-0.53l1.38,0.1l1.1,0.72l0.71,-0.17l1.23,1.3l0.08,0.62l-0.89,0.75l0.43,2l0.57,0.54l1.24,0.14l1.23,1.12l1.69,0.1l0.71,-0.44l0.18,-0.62l-0.22,-0.67l-1.5,-1.57l0.14,-0.49l0.98,0.01l0.77,-1.37l0.84,0.36l0.36,-0.58l1.78,-0.12l0.67,0.23l0.44,1.02l0.98,-0.79l1.73,0.24l0.63,-0.57l1.24,-0.03l1.02,0.32l0.66,0.58l0.45,-0.31l0.8,0.1l0.53,0.76l-0.23,0.84l0.88,0.72l0.97,0.14l0.45,-0.48l0.02,-1.91l1.25,-0.39l0.45,-0.79l-0.26,-0.71l-2.86,-1.49l0.44,-0.93l1.64,0.32l0.32,-0.97l0.76,-0.35l1.6,-0.08l0.72,-0.79l0.19,-1.37l-0.39,-0.89l-0.79,-0.67l-2.27,-1.17l-2.98,-3.5l-0.71,-0.41l-1.42,-0.14l-1.01,-0.76l-1.59,-0.68l-1.63,-2.01l1.48,-2.03l1.51,0.01l0.23,-0.44l-0.48,-0.71l0.09,-0.44l0.71,-0.44l1.2,0.19l0.45,-0.4l1.76,1.61l0.26,0.98l0.35,0.31l4.17,0.79l1.65,-0.48l1.03,-0.92l1.11,-0.39l0.59,-0.84l0.23,-0.84l-0.42,-3.25l-1.14,-1.21l-0.97,-0.36l-1.15,-1.16l-1.59,0.07l3.17,-5.72l3.21,-4.96l0.77,-1.75l6.64,-10.57l0.83,-1.56l0.61,-2.38l0.75,-0.63L65.01,0l8.28,1.27l1.45,0.39l1.44,1.42l3.68,4.73L81,9.83L82.02,10.49z"/>
		<path id="CR-H" title="Heredia" class="land" d="M368.42,83.69L369.96,86.14L370.5,87.4L372.74,88.6L373.42,89.31L374.2,89.81L375.43,90.18L376.51,90.84L376.89,91.49L377.13,93.11L378.09,94.13L379.76,94.65L381.98,95.03L382.86,95.49L383.24,96.24L383.38,96.98L384.25,98.13L385.68,98.3L387.32,97.83L389.61,96.93L390.86,95.77L394.27,95.97L395.6,96.39L397.43,96.22L398.59,95L400.12,94.06L401.21,92.93L401.86,91.55L403.35,90.88L404.09,90.79L407.25,91.04L409.36,89.25L411.03,87.05L411.58,86.57L413.06,86.76L416.87,86.66L417.96,86.22L417.96,86.22L420.9,87.59L420.61,89.62L420.02,91.43L423.2,94.29L425.43,96.02L426.85,97.37L428.01,100L422.78,100.03L416.5,99.8L414.2,102L411.86,102.53L409.73,102.64L407.67,105.07L406.12,107.54L403.36,107.38L401.94,110.43L401.52,116.34L402.14,118L403.8,120.09L401.36,125.71L401.29,129.53L403.79,135.24L405.01,140.12L403.56,144.09L404.2,146.39L402.05,147.83L399.05,147.8L395.51,152.98L395.01,155.77L396.81,160.86L399.61,164.54L400.54,169.77L400.86,175.42L399.39,178.47L397.3,181.99L395.81,186.94L394.22,189.64L392.17,192.64L390.05,195.18L386.38,197.71L386.38,197.71L377.17,203.97L375.5,206.15L375.62,208.69L375.33,215.22L373.71,217.28L371.43,217.8L368.04,218.01L367.22,219.65L367.09,221.33L366.61,222.55L367.69,224.49L370.08,227.94L369.58,230.84L368.56,233.7L366.11,236.53L363.05,238.35L360.15,239.53L357.27,239.49L356.14,240.1L353.79,240.45L350.19,241.53L349.31,240.98L346.43,240.59L342.95,241.79L340.53,241.56L339.61,241.36L338.33,240.81L336.13,240.24L336.13,240.24L334.75,235.83L337.67,233.27L338.76,230.99L340.08,226.4L340.07,223.74L341.43,220.88L341.48,215.91L340.58,201.39L340.98,178.91L341.1,154.64L341,121.93L342.34,83.25L342.34,83.25L343.53,83.27L346.65,82.84L347.88,86.31L349.6,86.68L351.59,85.45L352.4,85.41L353.66,85.7L356.71,87.39L358.62,87.52L359.79,87.19L360.33,85.4L361.23,84.49L362.04,84.26L362.9,84.44L364.67,85.22L364.85,83.88L365.27,82.8L365.91,82.47L367.25,82.54z"/>
		<path id="CR-L" title="Limón" class="land" d="M446.24,70.96L447.62,76.75L449.88,83.09L446.21,83.67L445.06,80.2L444.11,76.53L442.39,72.87L441.06,76.15L442.2,79.62L443.73,83.48L444.68,87.14L444.49,91L442.77,94.09L439.53,95.44L443.35,94.86L445.83,91.97L447.16,95.44L448.12,91.97L450.35,86.48L450.66,89.05L452.43,94.58L452.13,95.09L452.5,96.28L452.76,96.18L455.03,101.72L456.38,105.91L460.44,115.02L460.86,116.67L462.67,120.15L462.82,121.93L462.47,124.14L465.2,130.74L465.89,132.08L466.08,131.29L463.28,123.62L463.64,122.92L467.27,131.44L467.92,132.43L468.55,134.88L469.65,137.64L471.77,140.87L475.21,147.44L478.88,153.17L481.03,157.55L482.72,159.35L487.7,166.34L489.59,169.7L494.35,174.43L494.29,175.31L493.54,175.17L492.58,174.31L492.01,174.15L492.04,174.74L494.97,176.79L495.2,176.04L496.03,176.76L502.19,184.4L506.77,191.16L507.11,192.18L507.67,192.9L507.62,193.48L508.79,194.74L509.82,196.43L509.99,197.15L509.35,198.87L509.41,199.34L510.43,198.82L510.82,198.95L510.98,198.6L510.35,196.74L508.51,192.96L508.92,192.48L509.7,193.2L512.08,196.79L519.06,205.05L519.36,205.77L519.01,205.72L518.65,206.11L519.12,206.82L519.79,209.09L520.49,209.59L521.16,209.51L520.12,207.9L520.35,207.16L524.94,212.5L525.39,212.79L526.43,214.67L527.51,215.65L528.63,217.44L531.77,220.41L540.92,232.92L541.92,234.04L544.91,235.42L545.88,235.05L546.61,234.09L547.28,233.7L548.47,233.68L549.82,232.82L550.48,232.83L551.61,233.87L552.95,233.27L555.71,234.6L556.72,235.51L556.48,236.48L556.82,237.24L556.17,239.08L556.23,240.23L560.22,247.21L563.79,250.72L564.73,252.02L564.59,252.46L563.79,252.93L563.96,253.24L565.63,253.81L567.53,256.36L576.18,267.04L579.79,272.55L584.99,278.39L588.39,283.32L590.19,284.1L591.71,285.59L593.47,285.98L595.41,285.97L597.61,284.2L598.36,284.39L598.75,284.97L597.29,286.89L597.08,288.83L597.86,289.73L600.76,295.53L601.43,297.53L602.91,298.4L603.42,299.91L604.63,300.99L608.15,301.9L609.66,301.27L610.37,301.41L614.21,303.56L615.54,303.59L618.08,304.7L619.89,304.96L620.86,304.8L621.98,304.07L623.77,305.12L626.1,305.56L627.26,305.41L628.42,304.55L629.57,304.57L631.23,305.49L632.39,305.11L633.53,305.23L634.83,306.49L634.53,308.56L635.44,309.5L635.73,310.61L636.42,311.29L637.1,312.58L638.36,313.67L643.57,316.2L645.05,317.29L645.71,317.53L646.1,317.86L646.43,319.3L647.46,321.99L647.36,322.91L645.85,322.88L645.36,322.45L643.83,319.83L642.84,318.97L640.43,318.75L639.09,318.89L638.31,319.79L638.14,320.38L638.28,321.55L639.22,324.58L638.67,326.65L636.84,330.29L636.16,330.86L634.17,330.31L633.33,330.3L632.66,330.62L631.89,331.44L630.64,331.41L629.65,330.47L628.61,328.28L628.11,328.27L626.76,329.16L625.74,330.14L625.1,328.54L624.11,328.76L623.75,329.06L621.15,329.05L620.58,328.64L620.49,326.61L618.88,324.99L620.27,324.18L620.59,323.65L620.12,322.81L619.11,322.26L617.99,320.82L617.47,322.62L617.07,322.83L613.72,320.08L614.29,318.29L614.21,317.88L611.96,317.41L611.33,315.73L610.76,315.3L609.18,314.68L607.26,314.73L605.79,313.11L602.99,311.21L602.4,311.04L598.95,312.39L597.31,310.93L594.83,309.46L594.1,308.36L590.67,308.54L589.75,309.18L589.06,309.13L588.65,309.83L588.17,311.86L585.89,313.45L585.16,317.19L584.34,318.14L584.95,318.64L584.87,320.71L585.35,320.9L586.64,320.62L587.29,321.29L587.05,322.17L587.39,323.1L586.71,324.15L587.22,325.09L586.71,326.18L586.97,326.8L587.79,327.66L589.82,327.56L590.12,328.06L589.13,329.01L589.3,329.28L589.83,329.33L590.51,328.77L591.25,329.14L591.61,329.93L592.45,329.89L592.73,330.81L592.34,331.26L588.9,332.25L577.21,334.68L575.07,335.4L574.68,335.85L574.41,342L574.52,359.49L574.92,362.15L574.94,406.83L575.16,411.16L575.59,412.23L576.09,412.56L576.09,412.56L576.5,414.83L571.51,413.35L568.93,411.41L566.93,407.6L564.97,396.6L562.23,395.12L556.45,394.12L552.39,393.02L552.08,391.99L552.69,388.86L550.32,384.09L550.66,381.89L549.98,377.99L547.43,377.08L542.41,374.45L538.27,372.55L535.6,371.64L531.48,365.81L528.6,363.3L524.86,363.63L521.61,364.47L518.42,363.75L515.91,360.18L514.33,359.19L509.59,358.28L506.77,356.05L504.64,353.75L500.79,351.72L498.06,353L497.34,354L497.02,357.18L496.08,358.64L494,358.18L492.28,358.34L489.27,359.75L487.35,361.3L486.89,358.95L485.11,357.15L481.69,355.86L481.69,355.86L477.19,352.61L473.19,344.42L471.17,339.58L469.87,333.62L466.69,330.77L466.69,330.77L465.76,327.06L465.07,324.95L465.4,322.23L465.05,319.65L463.7,316.23L462.43,314.13L472.88,304.51L476.43,301.81L480.53,297.9L481.74,293.83L481.91,289.1L483.78,285.87L485.95,283.11L488.47,280.27L495.9,269.97L499.54,265.89L498.06,262.07L498.42,260.73L498.37,256.35L496.96,253.04L496.17,249.08L496.06,244.88L498.75,244.34L498.69,242.21L499.61,240.1L502.17,238.88L503.33,237.12L478.03,237.29L446.23,237.12L426.72,227.84L413.7,222.37L407.86,219.06L383.02,205.77L383.02,205.77L385.28,199.93L386.38,197.71L386.38,197.71L390.05,195.18L392.17,192.64L394.22,189.64L395.81,186.94L397.3,181.99L399.39,178.47L400.86,175.42L400.54,169.77L399.61,164.54L396.81,160.86L395.01,155.77L395.51,152.98L399.05,147.8L402.05,147.83L404.2,146.39L403.56,144.09L405.01,140.12L403.79,135.24L401.29,129.53L401.36,125.71L403.8,120.09L402.14,118L401.52,116.34L401.94,110.43L403.36,107.38L406.12,107.54L407.67,105.07L409.73,102.64L411.86,102.53L414.2,102L416.5,99.8L422.78,100.03L428.01,100L426.85,97.37L425.43,96.02L423.2,94.29L420.02,91.43L420.61,89.62L420.9,87.59L417.96,86.22L417.96,86.22L419.9,84.7L421.91,83.8L424.35,83.61L425.65,82.52L426.72,82.41L428.5,83.14L431.86,82.49L433.47,81.67L435.57,78.55L436.01,76.55L434.22,71.35L434.19,69.14L434.79,65.46L434.55,64.12L433.83,62.89L432.84,61.94L433.56,59L433.04,58.05L430.34,55.05L430.29,54.31L430.5,53.92L432.57,54.37L434.51,55.02L438.49,58.59L441.72,62.28z"/>
		<path id="CR-LA" title="Laguna de Arenal" class="water" d="M222.11,143.39L225.49,143.07L227.7,146.13L229.48,146.14L230.72,147.09L231.15,148.17L231.12,149.44L231.72,150.47L230.76,150.9L226.38,150.61L223.39,150.69L223.39,150.69L220.07,149.11L215.71,147.26L211.33,146.58L210.94,142.71L208.18,140.77L205.75,140.08L202.57,139.47L199.31,137.83L197,135.23L194.69,134.83L194.85,136.56L193.11,136.21L189.59,133.47L184.53,129.04L187.12,129.2L188.21,129.06L188.59,128.01L191.59,128.33L192.76,129.34L194.7,128.65L195.17,126.73L198.19,128.09L199.1,127.6L199.81,128.39L199.55,129.38L199.6,131.17L202.48,131.62L205.52,133.32L209.39,136.28L211.18,138.89L216.67,144.35L219.49,144.5z"/>
		<path id="CR-P" title="Puntarenas" class="land" d="M392.74,482.35l-1.1,0.11l-0.92,-0.41l-0.34,-0.67l0.5,-0.87l0.01,-0.88l3.74,0.19l0.13,0.31l-1.3,1.61L392.74,482.35zM443.73,440.51l-0.67,0.3l-0.35,-0.31l-0.69,-3.62l0.93,-0.47l0.66,0.32l0.81,1.86l-0.2,1.28L443.73,440.51zM443.13,433.72l-0.86,1.22l-0.75,-0.1l-0.43,-0.62l0.18,-2.77l-0.25,-6.7l-1.98,-5.67l0.93,-0.16l0.97,0.24l0.63,1.73l-0.01,0.75l1.28,2.97l-0.34,2.02l0.11,1.19l1.55,4.92l-0.23,0.61L443.13,433.72zM201.5,248.19l-3.67,0.18l-0.97,-0.58l-0.61,-0.89l0.14,-0.44l2.09,-0.73l0.09,-0.57l-0.39,-0.58l3.23,0.43l-0.2,2.21l0.65,0.76L201.5,248.19zM169.73,237.13l2.2,1.71l0.35,0.62l-3.58,-0.13l-1.16,1.05l-0.79,-0.32l-0.52,-1.2l-1.19,-0.81l0.01,-0.53l0.67,-0.39l1.55,0.06l0.4,-0.44L169.73,237.13zM181.31,236.38l2.92,1.09l1.99,0.24l0.96,0.85l0.76,-0.12l0.22,0.49l-0.54,0.44l-2.65,-0.25l-5.42,-1.79l-1.24,0.07l-0.13,-0.4l1.02,-0.43L181.31,236.38zM177.08,236.2l-0.49,0.39l-3.84,-0.97l-0.75,-0.54l0.18,-0.48L177.08,236.2zM159.97,240.03l0.79,0.72l1.81,0.24l1.33,-0.96l1.42,0.1l0.3,1.2l0.8,-0.17l0.25,1.11l0.8,-0.08l1.34,-1.62l0.98,-0.43l0.84,0.01l4.61,2.84l1.17,1.87l2.32,2.46l0.92,0.28l2.52,-0.33l2.65,0.43l0.8,-0.48l2.79,-0.14l1.98,0.91l1.9,0.42l1.54,1.17l1.76,0.64l0.52,0.67l-0.19,1.02l0.25,1.2l0.52,0.8l-0.45,0.83l-1.2,0.38l-1.48,1.71l-0.33,1.37l0.21,0.84l1.84,1.83l0.97,-0.03l0.34,0.84l-0.05,0.75l0.39,0.36l0.84,-0.12l0.79,0.94l-0.31,0.39l-1.5,-0.19l-2.01,1.88l-0.14,0.57l0.35,0.76l1.53,1.26l1.23,0.46l0.88,-0.08l0.36,-0.44l1.28,-0.12l0.89,-0.52l1.54,0.37l1.15,-0.16l2.6,0.69l0.08,0.4l-0.36,0.79l-2.13,0.82l-0.46,1.14l-1.99,0.07l-0.98,0.25l-0.31,0.39l-0.55,1.67l-0.63,0.74l-3.33,0.89l-0.23,0.44l0.52,1.02l-1.67,2.85l-0.46,1.5l-0.62,0.35l-1.81,-0.24l-0.45,0.44l-0.66,-0.18l-0.72,1.8l0.6,1.82l-0.01,1.02l-0.36,0.83l-1.2,0.61l-2.2,-0.64l-1.66,-1.52l-1.76,-0.77l-0.66,-0.67l-1.64,0.25l-1.16,0.92l-1.39,2.06l-0.33,1.46l0.21,1.11l2.38,0.96l0.8,0.73l0.12,0.65l-1.03,1.71l-1.56,1.04l-3.1,0.81l-0.93,0.52l-1.34,1.71l-2.62,0.99l-2.69,3.19l-1.68,4.18l-0.11,1.99l-2.42,7.44l-0.72,1.63l-2.75,0.9l-0.32,0.97l0.21,1.06l-0.27,0.3l-0.83,-1.02l-0.39,-1.15l-0.96,-0.67l-2.16,-0.46l-1.66,-1.74l-0.61,-1.33l-0.43,-5.57l-0.74,-0.93l-1.93,-1.39l-7.91,-8.7l-1.03,-3.41l-0.69,-1.33l-0.96,-0.94l-0.77,-2.17l-2.55,-3.06l0,0l2.49,-3.35l2.81,-2.44l2.23,-4.91l-0.71,-5.06l0.95,-3.14l1.6,-2.7l1.36,-2.92l-4.16,-0.58l-4.41,-7.9l-4.47,-1.55l-3.64,-0.48l-4.11,-0.93l-2.05,-1.56l-0.02,-2.89l3.03,-2.91l3.84,-0.45l2.79,-0.88l4.18,-0.86l1.06,-1.13l3.63,0.31l2.29,-0.52l2.24,-2.25l1.59,-5.07l0.87,-1.21l0,0l-0.27,0.48l0.92,1.12l1.67,0.77l3.86,3.45l2.25,0.51l0.3,1.24l0.61,0.76L159.97,240.03zM152.24,212.97l0.93,0.1l0.97,-0.25l2.25,1l2.39,0.51l0.66,0.45l0.76,-0.13l0.39,0.58l-0.36,0.75l-0.97,0.08l-1.54,-0.72l-0.76,0.44l-5.17,-0.94l-0.96,-1.21l-0.27,0.13l-0.18,0.53l0.74,1.16l0.88,0.45l1.11,0.06l0.48,0.76l0.58,-0.04l0.49,-0.57l0.62,0.32l0.66,-0.13l1.06,0.28l1,1.34l0.53,0.32l1.15,-0.21l1.2,-0.74l1.72,0.02l0.08,0.66l-0.5,0.88l-0.93,0.43l-0.05,0.4l-3.56,1.47l-0.97,-0.14l-4.04,0.84l-3.05,-0.25l-2.95,-1.49l-0.74,-0.76l-0.61,-0.94l-0.98,-3.68l-0.57,-0.8l0.54,-0.92l1.02,0.05l2.85,-1.34l1.99,0.2L152.24,212.97zM220.12,173.8l3.35,4.88l6.39,4.45l4.16,-1.44l2.55,-1.57l2.91,-0.95l1.98,0.7l1.96,2.49l2.37,2.48l1.08,3.78l-1.57,3.8l-1.55,2.41l-1.52,3.22l2.22,1.5l-0.39,2.61l0.31,5.13l0.03,3.18l2.98,6.04l1.14,1.93l2.74,1.25l0.67,3.85l0.76,2.41l6.73,0.11l3.52,0.42l2.96,2.98l0.44,3.57l-0.95,3.37l-4.33,1.62l-2.98,2.8l-2.45,3.24l-2.98,0.25l-3.1,0.08l-1.62,1.83l-2.29,4.91l-2.34,0.76l-1.39,1.77l-0.25,3.47l1.5,2.44l4.86,0.85l3.45,-0.15l2.82,0.16l2.9,0.79l0.35,2.53l1.01,1.3l2.04,0.93l1.64,1.23l0,0l-2.01,2.25l-0.11,2.54l3.28,-0.09l1.56,4.4l2.7,-0.07l1.26,2.04l-3.48,3.1l-4.61,-0.22l-1.3,0.84l-0.54,5.67l1.56,4.52l-0.45,4.57l0.93,2.51l4.5,4.84l0.1,3.63l0.95,3.38l2.61,3.16l1.34,0.54l3.54,1.06l5.98,-0.16l3.49,-0.67l3.21,-0.43l0.93,2.68l1.94,1.62l2.9,-3.25l2.28,-3l1.88,-2.82l-1.6,-3.82l1.43,-2.4l4.45,0.63l3.27,-0.43l6.03,-0.22l3.27,-2.4l4.5,2.82l5.34,1.87l3.16,-0.03l2.58,-0.19l4.14,2.14l6.04,-2.12l4.09,0.41l1.58,0.82l0.98,2.22l-0.7,6.01l2.22,3.4l2.21,0.75l3.75,-1.6l4.19,1.73l-0.51,6.65l0.33,3.85l3.37,1.35l2.58,4.03l3.38,1.7l3.76,2.84l0.33,1.66l1.46,2.9l2.92,-0.66l1.79,4.45l3.71,3.36l3.55,-0.67l1.21,-1.99l1.51,-1.54l3.07,0.67l0.61,3.33l2.25,4.78l2.6,2.75l2.17,1.56l2.07,0.12l2.27,0.97l-2.01,4.38l0.03,3.17l0.57,6.5l5.18,4.3l6.42,3.28l4.97,0.85l4.29,-5.19l6.39,4.49l3.55,5.95l2.27,5.24l2.11,3.69l3.6,1.11l4.6,2.12l3.16,4.35l9.02,3.73l2.52,1.89l4.07,-0.46l3.13,-1.47l1.85,-1.66l1.41,-3.09l0.07,-3.97l2.8,-2.84l1.56,-4.19l-0.27,-1.61l-1.17,-2.73l-4.03,0.05l-2.68,-1.14l-2,-1.73l0.14,-1.16l2.22,-3.11l0.41,-4.16l-0.26,-1.2l1.66,-2.46l2.26,-1.56l1.79,-1.78l2.83,-5.95l2.75,-2.72l1.76,-2.99l2.67,-3.59l0,0l3.43,1.29l1.77,1.8l0.46,2.35l1.92,-1.55l3.01,-1.41l1.72,-0.16l2.08,0.46l0.94,-1.47l0.32,-3.18l0.72,-1l2.73,-1.28l3.85,2.03l2.13,2.3l2.82,2.23l4.74,0.91l1.58,1l2.51,3.56l3.18,0.72l3.26,-0.83l3.73,-0.33l2.89,2.52l4.12,5.82l2.67,0.91l4.13,1.9l5.02,2.63l2.56,0.91l0.68,3.9l-0.34,2.2l2.37,4.78l-0.61,3.13l0.32,1.03l4.05,1.1l5.78,1l2.75,1.48l1.96,11.01l2,3.8l2.58,1.95l4.99,1.48l-0.41,-2.27l0,0l0.33,0.22l5.6,-3l1.22,-0.13l1.13,0.33l2.27,4.14l1.18,1.54l9.97,6.27l2.97,3.25l7.1,1.81l3.44,2.42l0.74,0.85l1.36,4.28l3.8,3.34l0.11,2.05l-0.33,1.13l-5.76,3.07l-1.34,2.63l-1.95,2.46l-1.23,0.73l-6.78,1.38l-1,0.44l-1.55,1.71l-1.38,0.5l-5.1,0.73l-1.38,0.5l-1.62,1.03l-2.25,2.54l-0.41,1.51l0.36,0.92l2.6,2.56l-0.02,0.91l-0.55,1.05l-0.92,0.67l-3.45,1.52l-0.27,2.27l-3.28,0.77l-1.08,0.81l0.64,1.59l-0.07,0.73l-0.64,0.89l-0.01,0.62l2.63,3.11l1.3,3.22l2.98,2.21l2.58,1.33l0.58,0.72l0.44,2.24l1.41,1.5l0.5,1.93l1.61,1.56l2.01,2.87l1.01,1.97l-0.14,1.41l-1.27,1.44l0.1,0.57l0.94,1.04l-0.1,3.39l1.14,2.57l0.03,1.21l-0.63,1.57l-1.55,1.41l-0.53,0.87l0.87,4.63l0.08,3.06l-0.87,3.94l-1.83,3.86l-2.15,3.01l-1.49,1.16l-2.23,1.09l-4.15,1.1l-1.92,0.02l-1.41,-0.42l-2.03,-0.1l-4.1,4.22l-4.46,5.34l-3.85,3.43l-4.63,2.57l-4.26,1.33l-1.31,0.65l-0.64,0.67l-0.25,1.12l0.14,1.42l1.31,2.12l3.54,1.09l0.89,0.58l4.39,3.53l1.37,2.12l0.73,0.07l2.73,-0.96l4.5,1.22l2.07,1.11l0.38,0.8l0.45,3.06l0.71,1.54l-0.34,5.81l3.01,1.75l1.5,1.55l0.37,4.07l-0.51,3.1l3.33,8.65l0.17,5.76l-1.07,5.45l-0.17,3.74l-0.21,-0.27l-1.27,-0.11l-0.7,-0.41l-2.17,-3.69l0.37,-1.22l-0.06,-1.71l0.27,-0.3l0.92,-0.12l0.63,-0.6l0.47,-1.44l0.16,-1.62l-0.43,-2.86l-1.76,-2.36l-0.41,-1.5l-1.2,-1.43l-0.38,-0.93l-0.35,-2.56l-2.49,-5.58l-6.81,-10.01l-3.58,-3.5l-3.62,-1.47l-10.02,-7.66l-9.53,-5.45l-2.59,-2.6l-1.87,-1.26l-1.41,-2.09l-0.26,-2.56l0.25,-1.71l0.87,-1.74l3.17,-2.67l2.09,-1.24l1.03,-1.17l0.45,-3.16l1.43,-1.51l0.54,-0.96l-0.07,-0.84l-1.75,-3.38l-1.84,-2.72l-5.31,-6.08l-0.95,-3.41l-0.94,-1.42l0.53,-0.08l0.91,0.59l0.63,1.9l0.78,0.63l0.66,-0.12l-0.25,-0.8l-0.56,-0.41l0.06,-0.88l0.62,-0.38l2.19,0.44l2.24,-2.34l1.55,0.29l0.01,-0.42l-0.76,-0.43l-1.19,-0.11l-3.11,1.66l-0.92,-0.02l-1.08,-0.94l-0.86,-1.47l-1.31,-0.46l-0.74,-0.63l-4.64,-6.29l-0.28,-1.46l1.55,-2.96l0.88,0.37l0.45,1.81l0.65,0.54l1.18,0.33l0.12,0.62l-0.86,1.26l0.82,0.94l-1.04,1.39l0.85,1.56l2.71,-1.58l1.03,-1.08l1.05,0.06l0.74,0.5l0.68,-0.96l-0.08,-0.53l-1.22,-0.59l-0.93,0.42l-0.39,-0.23l-0.45,-1.72l-3.71,-4.64l-1.79,-0.82l-0.99,-1.25l-0.89,0.6l-0.56,-0.58l-0.57,-0.05l-0.36,0.35l0.04,0.26l1.31,0.46l0.3,0.58l0.07,1.1l-0.41,0.83l-0.66,0.3l-0.66,-0.06l-0.65,-0.58l-1.89,-0.12l-1.13,-0.94l-0.93,0.38l-0.83,-0.19l-0.3,-0.31l0.41,-0.78l-0.17,-0.49l-0.74,-0.32l-2.68,-0.09l-1.01,2.32l-0.61,-0.19l-1.33,-2.18l-0.96,-2.96l-0.57,-0.27l-1.55,0.54l-2.76,-0.93l-1.06,0.11l-1.43,1.03l-2.5,-3.13l-0.79,-0.41l-1.32,-0.15l-0.65,-0.32l-0.38,-0.76l-1.14,-0.42l-0.44,-0.4l0.63,-0.78l-0.59,-1.77l0.55,-1.31l0.07,-1.32l1.11,-0.86l0.29,-1.84l-1.22,-0.64l-0.98,0.95l-0.62,-0.01l-0.43,-0.58l-1.1,-0.2l-1.21,-1.52l-0.83,-0.19l-0.45,0.57l-1.67,-0.51l-1.89,-0.16l-0.3,-0.18l-0.15,-1.5l-0.39,-0.27l-0.76,0.47l-0.06,0.79l-0.93,0.6l-0.19,1.1l-0.4,0.26l-0.84,-0.06l-0.12,-0.8l-0.43,-0.4l-0.67,0.34l-0.66,-0.1l-1.8,2.43l-1.74,1.12l-1.46,0.33l-1.05,-0.24l-0.33,-1.19l-2.86,-0.05l-1.53,-0.51l-1.14,0.03l-0.28,0.57l-0.58,0.34l-1.18,-0.2l-1.13,1.7l-0.25,1.93l0.42,1.06l0.7,0.32l0.85,-0.82l0.83,0.1l0.74,0.58l0.12,0.53l-0.82,1.53l0.52,0.54l0.67,-0.56l0.75,-0.03l1.17,0.86l1.43,1.61l1.48,1.04l1.45,2.71l-0.67,3.07l0.12,1.1l0.81,0.61l0.4,0.86l0.87,0.89l2.17,1.75l2.16,2.5l1.65,1.44l1.31,0.73l1.23,-0.02l1.47,1.48l2.6,-0.4l5.2,1.94l2.6,2.55l1.59,2.14l1.53,0.51l1.13,0.9l0.84,-0.47l0.19,-1.05l0.52,0.62l0.25,0.93l-1.06,7.77l0.6,1.02l3.37,3.8l-0.23,0.83l-0.68,0.91l-1.97,1.77l0.16,0.79l2.02,2.98l0.21,0.84l-1.57,4.15l0.65,2.96l-0.73,1.61l-2.05,1.33l-4.37,-1.53l-5.06,-2.42l-7.39,-2.5l-5.5,-2.51l-3.18,-1.95l-2.05,-0.74l-9.08,-1.82l-4.13,-0.25l-2.38,0.05l-4.19,0.68l-0.27,0.26l-1.22,-0.46l-1.99,0.58l-1.23,-0.2l-4.74,-3.46l-0.5,-1.81l-1.46,-1.92l-2.47,-2.28l-4.05,-2.35l-7.4,-8.26l-6.19,-6.39l-2.06,-0.61l-0.25,-0.66l-0.84,0.38l-0.72,0.74l-0.64,-1.02l-0.58,-2.39l-1.68,-2.53l0.06,-0.7l1.31,-2.4l0.42,-1.67l1.03,-1.35l1.37,-0.51l0.36,-0.61l0.46,-4.04l0.46,-1.09l2.1,-1.77l1.95,-0.67l5.77,-0.35l0.89,-0.34l0.67,-0.87l0.64,-1.79l-0.23,-2.2l0.64,-1.88l1.03,-1.22l1.33,-0.51l0.72,-0.96l-0.47,-0.62l-0.7,-0.1l-0.54,0.61l-0.4,0.04l-0.41,-2.08l0.02,-1.23l0.32,-0.79l0.45,-0.43l2.2,-0.1l1.73,-0.72l1.13,-1.88l1,0.63l0.05,-0.53l-1.03,-1.78l0.27,-0.21l2.74,-0.35l1.9,-0.58l1.53,0.55l1.52,-1.17l-0.42,-1.24l-0.35,-0.23l-0.8,0.43l-0.15,-1.72l-0.31,-0.01l-0.36,0.66l-0.42,1.53l-0.89,0.34l-3.04,-0.05l-1.97,-0.38l-0.66,2.63l-0.5,0.96l-1.6,1.08l-0.88,-0.1l-2.51,-2.68l4.79,-5.12l0.98,-0.47l0.72,-0.96l1.15,-0.38l1.07,-0.91l0.72,-1.22l2.04,-0.58l2.36,1.18l1.36,0.11l1.26,0.82l0.58,-0.34l-0.68,-1.24l-1.83,-1.4l-0.34,-0.97l0.41,-0.65l1,0.81l3.48,-0.08l1.11,-0.33l1.71,0.56l1.25,-0.68l0.12,0.53l-1.27,2.58l-0.71,2.81l-0.99,1.26l-0.88,0.34l-1.54,0.02l-1.11,0.69l-0.42,1.23l0.07,1.01l-0.45,0.83l-1.01,-0.19l-0.1,0.4l0.35,0.44l0.79,0.45l0.93,-0.29l0.66,0.1l0.63,-0.7l-0.15,-1.37l0.41,-0.74l1.5,-0.37l1.65,-1.07l1.24,-3.06l-0.06,-1.67l0.59,-1.27l0.75,-0.25l0.91,0.68l0.49,-0.08l2.14,-1.51l3.53,-0.51l0.54,-0.56l-0.34,-0.89l-0.79,-0.41l-0.32,0.61l-0.67,0.47l-2.55,0l-1.96,1.33l-0.52,-0.27l-0.08,-0.79l1.08,-1.26l-0.61,-0.5l-1.2,0.6l-0.92,-0.19l-1.29,1.08l-2.19,-0.7l-2.21,0.49l-1.4,-0.55l-0.95,-1.12l-0.79,-0.1l-0.8,0.47l-0.24,1.28l0.5,1.81l-0.18,0.39l-0.35,-0.01l-0.87,-0.72l-0.54,-1.95l-0.88,-0.19l-2.4,-1.54l-3.74,0.03l1.28,-2.84l0.16,-2.1l1.35,0.98l1.92,0.82l5.1,0.79l1.27,0.64l0.65,0.8l1.75,0.65l-0.49,-2.34l-1.18,-0.77l-0.38,-0.8l0.81,-1.26l0.71,-0.12l1.49,0.6l1.19,-0.07l0.19,-0.88l-0.52,-0.58l-1.63,-0.2l-1.37,0.2l-1.69,0.94l-0.77,1.62l-0.71,0.61l-3.23,-2.04l-0.58,0.17l-1.75,-0.6l-0.7,-0.54l-0.34,-1.11l0.14,-0.39l0.69,0.89l1.84,0.47l1.17,0.99l0.92,0.06l0.49,-0.48l-0.04,-0.53l-3.46,-0.98l-0.44,-0.32l-0.33,-1.24l-0.39,-0.27l-0.74,-0.23l-1.88,1.47l-0.71,0.08l-0.43,-0.36l-0.04,-0.57l0.5,-0.83l2.37,-2.03l0.55,-1.14l-0.21,-0.88l0.53,-3.12l-0.2,-1.63l-1.03,-1.96l0.06,-0.66l-0.62,-2.46l-0.82,-1.43l-0.03,-0.97l0.42,-1.32l0.67,-0.3l2.33,0.08l0.01,-0.35l-2.54,-0.88l-0.63,-1.86l0.16,-1.5l0.67,-0.47l0.01,-0.35l-0.96,-0.19l-0.51,-1.16l-1.32,-0.11l-0.74,-0.36l-1.64,-2.23l-1.53,-0.86l-0.81,0.87l-0.79,0.03l-1.2,-2.49l-2.53,-1.63l0.19,-0.75l-0.25,-0.71l-1.23,-0.42l-1.07,-1.91l-3.65,-3.29l-0.41,-1.6l-2.11,-1.41l-0.97,-1.64l-1.23,-1.15l-0.81,-0.33l-1.82,0.22l-0.85,0.55l-0.47,1.15l-0.44,-0.01l-0.96,-0.72l0.9,-1.22l-0.55,-1.73l-0.13,-2.96l-0.56,-1.02l-2.31,-2.07l-3.89,-2.27l-6.49,-2.7l-2.33,-0.26l-0.26,-0.35l0.51,-1.54l-0.65,-0.89l-1.18,-0.86l-1.77,-2.5l-5.15,-3.74l-1.74,-1.7l0.15,-1.06l-0.61,-0.45l-0.62,0.08l-0.54,0.61l-3.71,-2.7l-0.2,-1.19l-0.44,0.08l-0.36,0.7l-8.93,-4.94l-8.95,-3.84l-0.65,-0.98l0.86,-1.49l-0.52,-0.45l-0.63,0.48l-0.42,1.76l-0.71,-0.01l-1.32,-0.5l-2.76,-1.72l-2.02,-0.56l-2.85,-1.5l-5.37,-1.27l-0.84,0.21l-1.47,0.95l-0.54,-2.35l-0.48,-0.27l-0.53,0.26l-0.59,0.88l-1.1,-0.15l-0.84,0.39l-0.77,-1.78l-1.18,-1.21l-1.1,-0.55l-1.19,-0.11l-0.93,0.34l-0.79,-0.06l1.13,-1.57l1.06,0.28l0.32,-0.79l-0.98,-2.88l0.63,-1.09l-1.34,-1.78l-2.41,-1.27l-1.7,-1.79l-1.08,-1.6l-1.31,-0.9l-3.95,-1.34l-1.48,-1.52l-1.46,-2.89l-1,-0.99l-0.66,-0.23l-0.41,0.66l0.52,1.11l3.48,4.15l1.57,1.08l1.8,0.6l1.46,0.06l0.53,0.32l0.25,0.93l-0.32,0.44l-1.1,0.03l-2.16,-0.65l-0.35,-0.49l-3.07,-1.32l-2.27,-1.62l-1.47,-2.41l-2.29,-0.08l-1.93,-0.98l-1.2,0.22l0.65,0.74l0.57,0.23l3.05,0.53l0.61,0.45l-0.01,0.53l-0.53,0.17l-3.36,-1.01l-1.55,-0.02l-0.44,-0.4l-2.82,-0.21l-0.44,0.17l-1.71,-1.17l-0.75,-0.19l-0.61,-0.54l0.4,-0.48l-0.07,-1.06l-0.48,-0.18l-0.63,0.79l-1.24,0.07l-0.14,0.31l0.3,0.58l-0.27,0.13l-10.3,-2.39l-0.96,-0.85l-0.54,0.52l-2.2,-0.29l-0.84,-0.37l-0.34,-1.29l-0.7,-0.27l-0.76,0.74l-1.15,-0.06l-2.28,-1l-1.33,-0.06l-2.85,-1.14l-1.85,-0.29L279.8,326l-1.45,-0.55l-0.32,0.66l-8.19,1.39l-1.91,-2.23l-0.43,-0.89l1.03,-1.22l-0.43,-0.89l-2.04,0.72l-1.35,-1.21l-0.48,-0.1l0.09,0.67l0.76,0.78l-0.26,0.24l-1.66,-1.48l-0.3,-0.67l-0.8,-0.01l-2.32,-2.02l-4.65,-2.71l-0.66,-0.54l-1.52,-2.45l0.24,-1.37l-1.22,-1.3l-0.25,-0.93l-0.65,-0.94l-0.44,-0.05l-1.14,-0.99l-1.11,0.56l-0.61,-0.23l-1.62,-1.52l-0.3,-0.71l0.94,-0.83l0.27,-0.75l-0.08,-0.71l-1,-1.12l-1.19,-0.5l-2.04,0.55l-0.35,-0.4l-0.08,-0.62l1.34,-1.4l-0.25,-1.11l0.54,-0.88l-0.13,-0.58l-1.22,-0.94l0.43,-2.87l0.81,-0.92l0.67,-0.21l0.54,-0.83l0.14,-1.02l0.86,-1.71l2.19,-2.31l0.97,-0.21l0.54,-0.97l0.71,-0.52l1.14,-3.12l-1,-4.83l-0.84,-0.54l-3.03,-4.94l-2.79,-3.13l-0.52,-0.93l-1.79,-1.97l-2.15,-1.04l-1.14,-0.9l-0.35,-0.67l0.14,-0.35l0.57,0.09l0.36,-0.3l-1.21,-1.83l-5.21,-4.18l-0.04,-0.66l0.93,-0.56l1.17,-1.31l1.31,-2.11l-0.08,-0.62l-2.37,-1.8l-2.14,-2.28l-0.73,-1.95l0.33,-2.03l-0.39,-0.8l-0.66,-0.67l-1.06,-0.41l-2.7,-0.08l-2.47,-0.69l-2.7,0.37l-2.78,-0.25l-1.56,0.6h-3.85l-2.08,0.37l-0.66,-0.18l-0.39,-0.8l0.32,-0.53l1.2,-0.56l3.77,-0.75l-1.28,-0.28l-1.15,0.12l-3.13,-1.14l-1.97,-1.57l-5.36,-3.29l-1.62,-1.3l-3.16,-2.12l-0.97,-0.06l-0.44,-0.58l0.1,-0.88l-1.82,0.42l-2.53,-3.83l-1.1,-0.5l-0.84,0.21l-2.69,-0.83l-0.31,-0.45l0.36,-0.44l0.98,-0.39l0.88,0.01l-0.61,-0.98l-0.34,-1.6l-0.74,-1.03l-1.98,-1l-2.03,-0.29l-1.63,-0.77l-3.32,-3.75l-1.41,-1.21l-2.9,-1.31l-1.85,-1.21l-0.75,-0.1l-1.17,1.36l-0.53,0.17l-1.16,-0.62l0,0l-0.65,-7.01l3.68,-0.1l4.43,2.42l10.06,4l4.15,2.49l2.53,-0.07l2.42,-4.34l-0.73,-3.79l4.16,-3.81l3.89,-0.97l-1.05,-6.91l3.33,-8.87l0.28,-2.49l1.03,-4.42l3.11,-4.25l3.41,-1.59l4.35,1.27L220.12,173.8z"/>
		<path id="CR-SJ" title="San José" class="land" d="M383.02,205.77L384.68,209.94L386.88,219.46L389,221.25L392.95,222.76L395.95,225.5L397.35,228.41L397.49,231.58L398.04,234.91L399.38,237.7L398.5,239.46L395.08,240.54L393.68,239.94L391.94,239.41L390.32,241.18L388.35,242.85L384.92,243.52L382.09,242.97L373.84,244.06L372.53,244.78L372.32,247.79L369.92,250.63L367.1,252.61L366.83,255.44L369.98,255.01L371.88,255.07L372.83,256.14L372.81,257.7L371.99,259.45L371.12,261.15L370.11,262.33L367.4,266.39L366.87,268.07L364.88,269.16L361.16,271.98L357.58,273.75L356.44,274.01L356.74,276.65L355.87,278.47L357.91,279.51L361.02,279.71L364.33,278.93L366.75,278.8L371.84,275.72L373.26,275.11L375.05,279.79L377.33,283.3L382.15,285.42L382.29,288.36L382.05,290.27L382.77,291.34L384.79,291.52L386.83,292.84L387.44,294.15L388.43,294.65L390.14,293.79L393.03,296.65L394.54,297.42L396.62,297.71L397.58,297.16L400.82,297.71L401.66,299.18L401.64,302.82L402.69,305.5L405.15,307.33L408.04,307.95L410.2,308.98L412.51,309.61L415.26,310.73L417.04,310.51L416.46,313L417.29,315.92L418.69,316.81L421.51,316.9L422.37,319.01L424.63,319.58L428.58,318.61L430.96,319.76L434.02,317.77L435.12,315.66L436.53,314.47L438.59,314.18L440.97,315.04L443.23,317.69L445.21,318.61L449.94,321.54L453.53,322.42L456.21,323.5L462.44,328.81L466.69,330.77L466.69,330.77L469.87,333.62L471.17,339.58L473.19,344.42L477.19,352.61L481.69,355.86L481.69,355.86L479.02,359.45L477.26,362.44L474.51,365.16L471.68,371.11L469.88,372.89L467.62,374.45L465.96,376.91L466.22,378.12L465.82,382.28L463.6,385.39L463.46,386.55L465.46,388.28L468.13,389.42L472.16,389.36L473.33,392.1L473.6,393.7L472.04,397.89L469.24,400.73L469.17,404.71L467.76,407.8L465.9,409.46L462.78,410.93L458.71,411.38L456.18,409.49L447.17,405.76L444,401.41L439.4,399.29L435.8,398.18L433.69,394.49L431.43,389.25L427.88,383.3L421.49,378.81L417.19,383.99L412.22,383.14L405.81,379.86L400.63,375.56L400.06,369.07L400.03,365.9L402.04,361.52L399.77,360.55L397.7,360.43L395.53,358.88L392.93,356.12L390.67,351.34L390.06,348.02L387,347.35L385.48,348.89L384.27,350.88L380.72,351.55L377.01,348.19L375.22,343.75L372.31,344.4L370.85,341.5L370.52,339.84L366.76,337L363.38,335.31L360.8,331.28L357.43,329.93L357.09,326.08L357.61,319.43L353.42,317.7L349.67,319.3L347.46,318.55L345.24,315.15L345.95,309.14L344.97,306.91L343.39,306.09L339.3,305.68L333.26,307.8L329.11,305.67L326.53,305.85L323.37,305.88L318.02,304.01L313.52,301.19L310.25,303.58L304.21,303.8L300.94,304.24L296.5,303.61L295.07,306.01L296.66,309.83L294.78,312.65L292.5,315.65L289.6,318.9L287.66,317.28L286.72,314.6L283.51,315.03L280.02,315.7L274.04,315.86L270.5,314.8L269.17,314.26L266.55,311.1L265.6,307.73L265.5,304.1L261,299.26L260.07,296.75L260.53,292.18L258.97,287.66L259.51,281.99L260.81,281.15L265.42,281.37L268.9,278.28L267.64,276.23L264.94,276.31L263.38,271.9L260.11,271.99L260.21,269.45L262.23,267.2L262.23,267.2L264.71,267.17L267.42,263L267.9,261.43L270.07,258.6L272.7,257.84L275.72,254.81L277.3,253.67L280.03,252.39L281.09,251.26L283.81,249.52L286.46,249.67L294.18,248.08L294.29,247.79L299,247.83L301.61,248.51L304.76,250.44L309.42,250.26L314.09,248.75L321.67,248.14L324.91,246.89L327.68,244.74L329.07,243.14L331.04,241.42L333.88,240.13L336.13,240.24L336.13,240.24L338.33,240.81L339.61,241.36L340.53,241.56L342.95,241.79L346.43,240.59L349.31,240.98L350.19,241.53L353.79,240.45L356.14,240.1L357.27,239.49L360.15,239.53L363.05,238.35L366.11,236.53L368.56,233.7L369.58,230.84L370.08,227.94L367.69,224.49L366.61,222.55L367.09,221.33L367.22,219.65L368.04,218.01L371.43,217.8L373.71,217.28L375.33,215.22L375.62,208.69L375.5,206.15L377.17,203.97L386.38,197.71L386.38,197.71L385.28,199.93z"/>
	</g>
</svg>