<?xml version="1.0" encoding="utf-8"?>
<!-- (c) ammap.com | SVG map of Costa Rica - Low -->
<svg xmlns="http://www.w3.org/2000/svg" xmlns:amcharts="http://amcharts.com/ammap" xmlns:xlink="http://www.w3.org/1999/xlink" version="1.1">
	<defs>
		<style type="text/css">
			.land
			{
				fill: #CCCCCC;
				fill-opacity: 1;
				stroke:white;
				stroke-opacity: 1;
				stroke-width:0.5;
			}

			.water
			{
				fill: #CCCCCC;
				fill-opacity: 1;
				stroke:white;
				stroke-opacity: 1;
				stroke-width:0.5;
			}
		</style>

		<amcharts:ammap projection="mercator" leftLongitude="-85.950620" topLatitude="11.217063" rightLongitude="-82.556099" bottomLatitude="8.032572"></amcharts:ammap>

		<!-- All areas are listed in the line below. You can use this list in your script. -->
		<!--{id:"CR-A"},{id:"CR-C"},{id:"CR-G"},{id:"CR-H"},{id:"CR-L"},{id:"CR-LA"},{id:"CR-P"},{id:"CR-SJ"}-->

	</defs>
	<g>
		<path id="CR-A" title="Alajuela" class="land" d="M242.75,26.65L256.14,34.46L262.91,32.24L264.83,35.77L278.94,41.74L285.37,48.77L288.13,50.29L292.12,50.13L294.99,47.55L299.81,46.14L303.69,43.26L306.28,47.02L304.98,52.1L306.88,53.4L309.74,58.67L314.95,59.39L317.82,63.38L324.18,64.62L329.61,68.15L330.42,73.38L328.97,76.42L326.15,77.25L326.52,78.42L332.33,81.7L333.44,84.52L335.5,82.89L342.34,83.25L342.34,83.25L341,121.93L340.58,201.39L341.43,220.88L338.76,230.99L337.67,233.27L334.75,235.83L336.13,240.24L336.13,240.24L333.88,240.13L331.04,241.42L324.91,246.89L321.67,248.14L304.76,250.44L299,247.83L283.81,249.52L275.72,254.81L272.7,257.84L270.07,258.6L264.71,267.17L262.23,267.2L262.23,267.2L258.54,265.05L257.18,261.22L243.15,259.58L241.65,257.14L241.91,253.67L243.3,251.9L245.64,251.14L249.54,244.4L255.63,244.06L261.05,238.03L265.38,236.41L266.33,233.03L265.89,229.47L262.93,226.48L252.68,225.95L251.25,219.7L248.51,218.44L244.39,210.47L244.44,199.55L242.22,198.05L246.86,188.62L245.78,184.84L241.45,179.87L239.48,179.17L229.86,183.13L223.47,178.68L220.12,173.8L220.12,173.8L223.89,165.42L225.02,164.69L222.5,160.83L223.39,150.69L223.39,150.69L231.72,150.47L230.72,147.09L227.7,146.13L225.49,143.07L222.11,143.39L222.11,143.39L221.99,138.77L218.93,138.33L215.89,136.45L211.85,133.73L207.3,128.88L201.87,125.91L194.11,125.83L191.84,122.48L185.49,117.4L181.4,112.36L177.55,99.22L162.87,94.13L155.45,94.04L151.81,89.05L148.18,86.72L144.54,85.84L126.16,86.8L124.22,85.01L122.15,76.09L112.72,71.72L109.54,68.86L106.04,60.45L98.91,49.35L100.07,47.41L106.39,45.1L108.98,42.83L112.79,34.5L117.39,34.43L119.36,32.93L121.26,32.94L124.29,36.67L127.39,38.85L129.69,38.9L131.83,27.11L131.83,27.11L141.86,32.27L197.69,53.2z"/>
		<path id="CR-C" title="Cartago" class="land" d="M383.02,205.77L413.7,222.37L446.23,237.12L503.33,237.12L502.17,238.88L499.61,240.1L498.75,244.34L496.06,244.88L496.96,253.04L498.37,256.35L498.06,262.07L499.54,265.89L483.78,285.87L481.91,289.1L480.53,297.9L462.43,314.13L465.05,319.65L465.07,324.95L466.69,330.77L466.69,330.77L462.44,328.81L456.21,323.5L449.94,321.54L438.59,314.18L436.53,314.47L434.02,317.77L430.96,319.76L428.58,318.61L424.63,319.58L422.37,319.01L421.51,316.9L417.29,315.92L416.46,313L417.04,310.51L415.26,310.73L405.15,307.33L402.69,305.5L400.82,297.71L394.54,297.42L390.14,293.79L388.43,294.65L384.79,291.52L382.77,291.34L382.05,290.27L382.15,285.42L377.33,283.3L373.26,275.11L366.75,278.8L361.02,279.71L355.87,278.47L356.74,276.65L356.44,274.01L366.87,268.07L371.99,259.45L372.83,256.14L371.88,255.07L366.83,255.44L367.1,252.61L372.32,247.79L372.53,244.78L382.09,242.97L384.92,243.52L388.35,242.85L391.94,239.41L395.08,240.54L398.5,239.46L399.38,237.7L395.95,225.5L392.95,222.76L386.88,219.46z"/>
		<path id="CR-G" title="Guanacaste" class="land" d="M82.02,10.49l20.19,7.42l10.88,-0.04l18.73,9.25l0,0l-2.13,11.79l-2.3,-0.05l-3.1,-2.17l-3.03,-3.74l-1.9,-0.01l-1.97,1.5l-4.6,0.07l-3.81,8.33l-2.59,2.27l-6.32,2.32l-1.16,1.94l7.13,11.09l3.5,8.41l3.18,2.87l9.43,4.37l2.07,8.91l1.95,1.8l18.38,-0.97l3.65,0.89l3.63,2.33l3.64,4.99l7.42,0.09l14.68,5.09l3.85,13.14l4.1,5.04l6.34,5.09l2.27,3.35l7.76,0.08l5.43,2.97l4.55,4.85l4.04,2.72l3.04,1.88l3.06,0.44l0.12,4.62l0,0l-2.61,1.11l-2.82,-0.15l-7.28,-8.07l-6.91,-4.67l-2.89,-0.44l-0.49,-3.57l-0.91,0.49l-3.02,-1.36l-0.47,1.92l-1.94,0.69l-1.18,-1.01l-3,-0.32l-0.38,1.05l-3.68,-0.01l8.58,7.16l1.74,0.36l-0.16,-1.73l2.31,0.4l2.31,2.6l3.26,1.64l5.61,1.29l2.75,1.95l0.39,3.86l4.39,0.69l7.68,3.43l0,0l-0.89,10.14l2.52,3.86l-1.13,0.72l-3.77,8.38l0,0l-3.18,-2.63l-4.35,-1.27l-3.41,1.59l-3.11,4.25l-1.31,6.91l-3.33,8.87l1.05,6.91l-3.89,0.97l-4.16,3.81l0.73,3.79l-2.42,4.34l-2.53,0.07l-18.64,-8.91l-3.68,0.1l0.65,7.01l0,0l-1.89,-0.34l-3.94,-4.42l0.23,-0.79l3.04,1.09l0.76,-0.79l-0.48,-1.15l-1.2,0.47l-5.78,-2.28l-5.47,3.04l-12.8,-3.5l-3.07,-2.51l-1.5,-4.4l0.92,-3.13l-1.22,-2l-1.57,-2.23l-7.79,-4.42l1.05,-3.09l-4.88,-4.08l-0.56,-1.42l-1.49,-1.34l-5.4,-0.14l-1.83,1.18l-2.78,-0.91l2.68,2.06l4.66,-1.33l2.61,0.69l2.62,3.44l2.42,1.53l0.56,5.63l3.71,1.37l4.04,3.45l0.45,8.24l-1.2,5.08l1.32,5.15l2.22,3.69l-2.41,-2.19l-3.35,-1.27l-3.68,0.85l-1.16,1.23l2.57,-0.59l0.7,0.89l-1.26,1.8l2.18,-1.48l0.32,-1.32l4.15,1.24l0.21,1.33l-1.11,0.21l1.4,1.34l-0.94,1.05l0.51,1.64l0.58,-0.57l3.51,3.22l4.23,1.77l4.15,5.48l2.07,1.08l1.78,-0.69l-0.16,3.05l-4.63,-1.86l-1.92,-2.54l-2.04,1.13l1.94,0.64l2.45,3.08l1.33,-0.34l1.49,1.93l0,0l-2.46,6.27l-2.24,2.25l-5.92,0.22l-1.06,1.13l-10.81,2.2l-3.03,2.91l0.02,2.89l2.05,1.56l12.22,2.96l4.41,7.9l4.16,0.58l-3.91,8.76l0.71,5.06l-2.23,4.91l-5.3,5.79l0,0l-7.23,-4.94l0.73,-2.16l-1.12,-2.97l-6.94,-5.02l-4.24,-1.02l-1.57,-2.27l-4.35,-2.65l-6.74,-2.37l-1.25,1.14l-1.68,-0.19l-6.07,-2.71l-2.52,0.38l-0.59,1.63l-1.33,0.39l-3.52,-2.02l-0.96,-1.64l-3.68,1.47l-0.16,-1.64l-1.93,-1.57l-2.53,0.77l-4.54,-0.97l-2.08,0.56l-4.97,-2.56l-5.93,0.08l-0.91,-1.78l-2.38,-1.26l-1.95,0.47l-0.28,1.1l-2.77,-1.39l1.26,-1.94l-0.42,-2.75l-3.17,-6.62l-4.37,-6.01l-6.46,-5.89l-2.26,-5.02l-6.93,-8.11l-2.58,-9.05l-3.52,-7.69l-3.02,-4.1l-0.27,-4.83l-2.22,-4.89l0.43,-3.89l-1.08,-3.82l3.26,-3.51l-4.02,-6.72l-3,-1.4l0.64,-2.34l3.91,-1.12l4.85,-8.24l0.92,1.07l2.97,-0.02l1.81,-4.68l-0.51,-2.57l1.72,1.08l2.14,-2.11l-0.85,-4.7l-3.04,-2.46l-1.04,-2.67l0.76,-0.75l-1.84,-2.45l2.97,-0.51l3,-4.41l2.21,0.24l1.67,2.19l1.29,-0.04l7.62,-5.56l1.72,0.9l1.12,-1.45l-0.6,-2.58l3.51,-0.81l0.56,-2.65l4.12,-0.05l1.17,-2.83l1.33,0.23l2.48,-4.46l-0.88,-1.34l-3.76,-1.32l-4.18,1.91l-0.02,2.22l-1.17,1.63l-2.05,1.13l-1.11,-0.41l1.61,-1.4l0.38,-3.32l2.54,-1.71l-1.77,-0.68l1.78,-1.09l0.24,-2.26l1.42,0.37l2.5,-2.19l-2.43,-9.46l1.29,-7.85l-5.22,-7.45l-2.71,0.24l-0.83,-1.03l-7.71,-1.49l-2.45,0.78l-1.17,1.72l-6.02,-2.27l-1.88,-3.39l0.19,-1.37l2.83,0.6l-1.04,-3.11l-2.49,0.69l-8.96,-1.26l-2.05,-3.98L5.95,62.33L0,63.35l15.67,-6.04l1.04,-2.08l-3.8,-2.6l2.62,-0.33l9.22,1.1l1.23,1.3l-0.81,1.37l0.43,2l3.05,1.8l2.4,-0.34l-1.39,-3.34l2.94,-1.57l2.44,0.11l0.44,1.02l3.34,-1.13l4.17,0.66l0.3,1.6l1.86,0.86l0.46,-2.39l1.7,-1.18l-3.12,-2.2l0.44,-0.93l1.64,0.32l0.32,-0.97l2.36,-0.42l0.91,-2.17l-6.43,-6.23l-4.73,-1.99l-1.63,-2.01l1.48,-2.03l1.51,0.01l0.55,-2.04l1.64,-0.21l2.38,2.91l4.17,0.79l3.79,-1.79l0.81,-1.68l-0.42,-3.25l-3.26,-2.74l-1.59,0.07l13.79,-23l1.43,-3.93L65.01,0l9.73,1.67L82.02,10.49z"/>
		<path id="CR-H" title="Heredia" class="land" d="M368.42,83.69L370.5,87.4L376.51,90.84L378.09,94.13L382.86,95.49L384.25,98.13L385.68,98.3L390.86,95.77L397.43,96.22L401.86,91.55L407.25,91.04L411.58,86.57L417.96,86.22L417.96,86.22L420.9,87.59L420.02,91.43L426.85,97.37L428.01,100L416.5,99.8L414.2,102L409.73,102.64L406.12,107.54L403.36,107.38L401.94,110.43L401.52,116.34L403.8,120.09L401.36,125.71L401.29,129.53L405.01,140.12L403.56,144.09L404.2,146.39L402.05,147.83L399.05,147.8L395.51,152.98L395.01,155.77L396.81,160.86L399.61,164.54L400.86,175.42L394.22,189.64L390.05,195.18L386.38,197.71L386.38,197.71L377.17,203.97L375.5,206.15L375.33,215.22L373.71,217.28L368.04,218.01L366.61,222.55L370.08,227.94L368.56,233.7L366.11,236.53L360.15,239.53L357.27,239.49L350.19,241.53L346.43,240.59L342.95,241.79L336.13,240.24L336.13,240.24L334.75,235.83L337.67,233.27L338.76,230.99L341.43,220.88L340.58,201.39L341,121.93L342.34,83.25L342.34,83.25L346.65,82.84L347.88,86.31L349.6,86.68L352.4,85.41L358.62,87.52L359.79,87.19L361.23,84.49L364.67,85.22L365.91,82.47z"/>
		<path id="CR-L" title="Limón" class="land" d="M446.24,70.96L449.88,83.09L446.21,83.67L442.39,72.87L441.06,76.15L444.68,87.14L444.49,91L442.77,94.09L439.53,95.44L443.35,94.86L445.83,91.97L447.16,95.44L450.35,86.48L452.5,96.28L462.67,120.15L462.47,124.14L465.89,132.08L463.64,122.92L469.65,137.64L481.03,157.55L489.59,169.7L494.35,174.43L494.29,175.31L492.04,174.74L496.03,176.76L502.19,184.4L509.82,196.43L509.41,199.34L510.98,198.6L508.92,192.48L519.06,205.05L519.79,209.09L521.16,209.51L520.35,207.16L531.77,220.41L541.92,234.04L544.91,235.42L550.48,232.83L556.72,235.51L556.23,240.23L560.22,247.21L564.73,252.02L563.96,253.24L565.63,253.81L588.39,283.32L593.47,285.98L598.36,284.39L597.08,288.83L601.43,297.53L604.63,300.99L608.15,301.9L610.37,301.41L618.08,304.7L621.98,304.07L626.1,305.56L628.42,304.55L633.53,305.23L634.83,306.49L634.53,308.56L637.1,312.58L646.1,317.86L647.36,322.91L645.36,322.45L642.84,318.97L639.09,318.89L638.14,320.38L639.22,324.58L636.84,330.29L633.33,330.3L630.64,331.41L628.61,328.28L625.74,330.14L625.1,328.54L620.58,328.64L620.49,326.61L618.88,324.99L620.59,323.65L620.12,322.81L617.99,320.82L617.07,322.83L613.72,320.08L614.21,317.88L611.96,317.41L610.76,315.3L607.26,314.73L602.4,311.04L598.95,312.39L594.1,308.36L589.06,309.13L588.17,311.86L585.89,313.45L584.34,318.14L584.87,320.71L587.29,321.29L586.97,326.8L587.79,327.66L589.82,327.56L589.3,329.28L590.51,328.77L592.73,330.81L574.68,335.85L574.94,406.83L575.16,411.16L576.09,412.56L576.09,412.56L576.5,414.83L571.51,413.35L568.93,411.41L566.93,407.6L564.97,396.6L562.23,395.12L552.39,393.02L552.69,388.86L550.32,384.09L549.98,377.99L535.6,371.64L528.6,363.3L521.61,364.47L518.42,363.75L515.91,360.18L509.59,358.28L504.64,353.75L500.79,351.72L497.34,354L496.08,358.64L492.28,358.34L487.35,361.3L486.89,358.95L485.11,357.15L481.69,355.86L481.69,355.86L477.19,352.61L471.17,339.58L469.87,333.62L466.69,330.77L466.69,330.77L465.07,324.95L465.05,319.65L462.43,314.13L480.53,297.9L481.91,289.1L483.78,285.87L499.54,265.89L498.06,262.07L498.37,256.35L496.96,253.04L496.06,244.88L498.75,244.34L499.61,240.1L502.17,238.88L503.33,237.12L446.23,237.12L413.7,222.37L383.02,205.77L383.02,205.77L383.02,205.77L383.02,205.77L386.38,197.71L386.38,197.71L390.05,195.18L394.22,189.64L400.86,175.42L399.61,164.54L396.81,160.86L395.01,155.77L395.51,152.98L399.05,147.8L402.05,147.83L404.2,146.39L403.56,144.09L405.01,140.12L401.29,129.53L401.36,125.71L403.8,120.09L401.52,116.34L401.94,110.43L403.36,107.38L406.12,107.54L409.73,102.64L414.2,102L416.5,99.8L428.01,100L426.85,97.37L420.02,91.43L420.9,87.59L417.96,86.22L417.96,86.22L425.65,82.52L428.5,83.14L431.86,82.49L433.47,81.67L435.57,78.55L436.01,76.55L434.22,71.35L434.79,65.46L432.84,61.94L433.56,59L430.34,55.05L430.5,53.92L434.51,55.02L438.49,58.59L441.72,62.28z"/>
		<path id="CR-LA" title="Laguna de Arenal" class="water" d="M222.11,143.39L225.49,143.07L227.7,146.13L230.72,147.09L231.72,150.47L223.39,150.69L223.39,150.69L215.71,147.26L211.33,146.58L210.94,142.71L208.18,140.77L202.57,139.47L199.31,137.83L197,135.23L194.69,134.83L194.85,136.56L193.11,136.21L184.53,129.04L188.21,129.06L188.59,128.01L191.59,128.33L192.76,129.34L194.7,128.65L195.17,126.73L198.19,128.09L199.1,127.6L199.6,131.17L202.48,131.62L209.39,136.28L216.67,144.35L219.49,144.5z"/>
		<path id="CR-P" title="Puntarenas" class="land" d="M392.74,482.35l-2.02,-0.3l0.17,-2.42l3.74,0.19L392.74,482.35zM443.73,440.51l-1.02,-0.02l-0.69,-3.62l0.93,-0.47l1.46,2.18L443.73,440.51zM443.13,433.72l-0.86,1.22l-1.18,-0.72l-0.07,-9.48l-1.98,-5.67l1.89,0.08l1.9,5.45l-0.23,3.21l1.55,4.92L443.13,433.72zM201.5,248.19l-3.67,0.18l-1.58,-1.48l2.22,-1.17l-0.3,-1.15l3.23,0.43L201.5,248.19zM169.73,237.13l2.54,2.33l-3.58,-0.13l-1.16,1.05l-2.5,-2.33l0.67,-0.92L169.73,237.13zM181.31,236.38l6.84,2.55l-3.19,0.19l-6.79,-2.11L181.31,236.38zM159.97,240.03l2.6,0.96l2.75,-0.86l1.35,2.14l3.96,-2.12l4.61,2.84l3.49,4.33l9.69,-0.24l7.18,3.13l1.11,3.68l-3.13,2.93l-0.33,1.37l2.05,2.68l0.97,-0.03l0.29,1.59l2.02,1.17l-1.81,0.2l-2.01,1.88l0.21,1.33l2.77,1.71l3.42,-1.15l2.69,0.21l2.6,0.69l-0.28,1.19l-2.13,0.82l-0.46,1.14l-2.97,0.32l-1.49,2.81l-3.33,0.89l0.29,1.46l-2.12,4.35l-3.54,0.36l-0.5,5.47l-1.2,0.61l-2.2,-0.64l-4.08,-2.96l-2.8,1.16l-1.39,2.06l-0.12,2.56l3.29,2.34l-2.59,2.75l-3.1,0.81l-2.28,2.23l-2.62,0.99l-2.69,3.19l-4.21,13.6l-0.72,1.63l-2.75,0.9l-0.38,2.33l-1.21,-2.17l-3.12,-1.14l-1.66,-1.74l-1.03,-6.9l-10.58,-11.02l-1.72,-4.75l-4.29,-6.17l0,0l5.3,-5.79l2.23,-4.91l-0.71,-5.06l3.91,-8.76l-4.16,-0.58l-4.41,-7.9l-12.22,-2.96l-2.05,-1.56l-0.02,-2.89l3.03,-2.91l10.81,-2.2l1.06,-1.13l5.92,-0.22l2.24,-2.25l2.46,-6.27l0,0l0.64,1.59l5.53,4.22l2.25,0.51L159.97,240.03zM152.24,212.97l1.9,-0.16l6.44,2.41l-0.36,0.75l-3.27,-0.21l-5.17,-0.94l-1.23,-1.07l0.56,1.69l2.46,1.27l3.41,-0.14l1.53,1.65l2.36,-0.95l1.81,0.68l-1.48,1.71l-3.56,1.47l-5.01,0.7l-3.05,-0.25l-2.95,-1.49l-2.9,-6.18l0.54,-0.92l3.86,-1.29L152.24,212.97zM220.12,173.8l3.35,4.88l6.39,4.45l9.62,-3.96l1.98,0.7l4.33,4.97l1.08,3.78l-4.64,9.43l2.22,1.5l-0.06,10.92l4.12,7.98l2.74,1.25l1.43,6.26l10.25,0.53l2.96,2.98l0.44,3.57l-0.95,3.37l-4.33,1.62l-5.42,6.04l-6.09,0.34l-3.91,6.74l-2.34,0.76l-1.39,1.77l-0.25,3.47l1.5,2.44l14.02,1.64l1.37,3.83l3.68,2.15l0,0l-2.01,2.25l-0.11,2.54l3.28,-0.09l1.56,4.4l2.7,-0.07l1.26,2.04l-3.48,3.1l-4.61,-0.22l-1.3,0.84l-0.54,5.67l1.56,4.52l-0.45,4.57l0.93,2.51l4.5,4.84l1.05,7.01l2.61,3.16l4.88,1.6l12.68,-1.26l0.93,2.68l1.94,1.62l7.07,-9.07l-1.6,-3.82l1.43,-2.4l4.45,0.63l9.3,-0.65l3.27,-2.4l4.5,2.82l5.34,1.87l5.74,-0.21l4.14,2.14l6.04,-2.12l4.09,0.41l1.58,0.82l0.98,2.22l-0.7,6.01l2.22,3.4l2.21,0.75l3.75,-1.6l4.19,1.73l-0.18,10.5l3.37,1.35l2.58,4.03l7.14,4.53l1.79,4.56l2.92,-0.66l1.79,4.45l3.71,3.36l3.55,-0.67l2.73,-3.53l3.07,0.67l2.86,8.11l4.77,4.31l4.34,1.09l-2.01,4.38l0.6,9.66l5.18,4.3l6.42,3.28l4.97,0.85l4.29,-5.19l6.39,4.49l7.93,14.88l8.2,3.23l3.16,4.35l11.54,5.62l4.07,-0.46l4.98,-3.13l1.41,-3.09l0.07,-3.97l2.8,-2.84l1.56,-4.19l-1.44,-4.34l-4.03,0.05l-2.68,-1.14l-2,-1.73l0.14,-1.16l2.22,-3.11l0.14,-5.36l5.71,-5.8l2.83,-5.95l7.18,-9.3l0,0l3.43,1.29l1.77,1.8l0.46,2.35l4.93,-2.96l3.8,0.3l1.26,-4.65l3.45,-2.28l3.85,2.03l4.95,4.53l6.32,1.91l2.51,3.56l3.18,0.72l6.99,-1.17l7.01,8.34l14.38,6.35l0.33,6.1l2.37,4.78l-0.29,4.16l9.83,2.1l2.75,1.48l1.96,11.01l2,3.8l2.58,1.95l4.99,1.48l-0.41,-2.27l0,0l5.93,-2.79l2.35,0.2l3.45,5.69l9.97,6.27l2.97,3.25l7.1,1.81l3.44,2.42l2.1,5.13l3.8,3.34l0.11,2.05l-0.33,1.13l-5.76,3.07l-4.52,5.83l-6.78,1.38l-2.55,2.15l-6.48,1.24l-2.99,1.53l-2.66,4.04l2.96,3.47l-0.57,1.96l-4.37,2.19l-0.27,2.27l-4.36,1.58l0.64,1.59l-0.72,2.25l3.92,6.33l6.14,4.25l2.35,5.67l4.62,6.4l-1.42,2.86l1.04,1.61l1.07,7.17l-2.71,3.85l0.95,7.68l-2.7,7.8l-2.15,3.01l-3.72,2.24l-4.15,1.1l-5.36,-0.5l-12.41,12.98l-10.2,4.55l-0.88,1.79l1.46,3.53l4.43,1.67l5.77,5.65l3.46,-0.89l6.57,2.33l1.53,5.4l-0.34,5.81l4.51,3.31l-0.14,7.17l3.33,8.65L582.45,612l-2.18,-0.79l-2.17,-3.69l0.32,-2.94l1.82,-1.02l0.47,-1.44l-0.27,-4.49l-3.37,-5.29l-3.22,-9.07l-6.81,-10.01l-3.58,-3.5l-3.62,-1.47l-10.02,-7.66l-9.53,-5.45l-5.87,-5.95l-0.26,-2.56l1.12,-3.45l6.29,-5.08l0.45,-3.16l1.98,-2.47l-3.66,-6.93l-5.31,-6.08l-1.89,-4.83l1.44,0.51l1.41,2.53l0.66,-0.12l-0.75,-2.08l2.81,0.05l2.24,-2.34l1.56,-0.13l-1.95,-0.54l-4.03,1.64l-3.99,-3.5l-4.64,-6.29l-0.28,-1.46l1.55,-2.96l1.33,2.18l1.83,0.87l-0.74,1.88l0.82,0.94l-1.04,1.39l0.85,1.56l3.74,-2.66l1.79,0.56l0.68,-0.96l-1.3,-1.12l-1.32,0.2l-4.16,-6.37l-2.78,-2.08l-0.89,0.6l-1.13,-0.64l-0.32,0.61l1.61,1.04l-1.01,2.23l-4.33,-1.71l-1.76,0.19l-0.8,-1.91l-2.68,-0.09l-1.01,2.32l-3.47,-5.61l-1.55,0.54l-3.81,-0.81l-1.43,1.03l-2.5,-3.13l-4.71,-2.46l0.66,-5.18l1.41,-2.71l-1.22,-0.64l-1.6,0.94l-2.74,-2.29l-4.84,-0.3l-0.85,-1.95l-1.94,2.96l-3.12,-0.76l-3.54,3.55l-2.51,0.09l-0.33,-1.19l-4.39,-0.56l-3.18,0.74l-1.13,1.7l0.17,3l2.38,-0.4l0.86,1.12l-0.3,2.06l1.42,-0.59l4.08,3.5l1.45,2.71l-0.55,4.17l6.4,6.62l5.66,3.62l2.6,-0.4l5.2,1.94l4.19,4.69l2.66,1.41l1.04,-1.52l0.52,0.62l-0.81,8.7l3.96,4.82l-2.87,3.51l2.38,4.62l-1.57,4.15l0.65,2.96l-2.78,2.94l-16.82,-6.45l-10.73,-5.19l-13.21,-2.07l-10.05,1.11l-5.97,-3.66l-1.96,-3.73l-6.52,-4.64l-13.59,-14.65l-2.31,-1.27l-1.56,1.12l-2.9,-5.94l1.79,-4.77l2.77,-2.46l0.91,-5.13l2.1,-1.77l7.72,-1.02l1.56,-1.21l1.06,-5.88l3.08,-2.68l-1.18,-0.72l-0.93,0.65l-0.07,-4.1l4.38,-1.25l1.13,-1.88l1,0.63l-0.71,-2.52l4.64,-0.94l1.53,0.55l1.52,-1.17l-0.42,-1.24l-1.15,0.2l-0.15,-1.72l-1.98,2.52l-5.01,-0.43l-1.16,3.59l-2.48,0.97l-2.51,-2.68l4.79,-5.12l4.64,-3.93l2.04,-0.58l5.57,1.76l-2.51,-2.64l0.07,-1.63l1,0.81l7.54,-0.54l-1.86,5.92l-0.99,1.26l-3.54,1.04l-0.8,3.07l-1.01,-0.19l1.04,1.29l1.59,-0.19l0.88,-2.8l3.15,-1.45l1.77,-6l2.15,0.34l6.21,-2.58l-1.12,-1.3l-5.5,2.42l-0.13,-2.82l-3.41,1.49l-4.4,-0.21l-3.14,-1.77l-0.8,0.47l-0.27,3.48l-1.41,-2.67l-3.28,-1.73l-3.74,0.03l1.44,-4.95l3.28,1.81l5.1,0.79l3.67,2.09l-0.49,-2.34l-1.56,-1.57l0.81,-1.26l3.39,0.41l0.19,-0.88l-3.51,-0.59l-3.18,3.17l-6.25,-3.01l-0.2,-1.5l3.71,2.35l1.42,-0.42l-3.5,-1.51l-1.16,-1.83l-3.76,0.95l3.38,-4.57l0.13,-5.64l-2.44,-7.49l0.42,-1.32l3.01,-0.57l-2.54,-0.88l-0.63,-1.86l0.83,-2.32l-3.54,-1.82l-3.17,-3.09l-1.6,0.9l-1.2,-2.49l-2.53,-1.63l-0.07,-1.46l-1.23,-0.42l-9.44,-11.02l-2.63,-0.11l-1.32,1.7l-1.4,-0.73l0.9,-1.22l-1.24,-5.71l-6.2,-4.33l-8.82,-2.96l-0.4,-2.78l-9.84,-8.8l-0.46,-1.51l-1.16,0.69l-3.71,-2.7l-0.2,-1.19l-0.8,0.78l-17.88,-8.78l-0.31,-2.92l-1.75,2.22l-8.94,-4.28l-5.37,-1.27l-2.31,1.16l-1.02,-2.62l-3.06,1.37l-1.95,-2.98l-4.01,-0.37l2.5,-2.08l-0.98,-2.88l0.63,-1.09l-6.53,-6.45l-5.27,-2.24l-3.95,-5.4l-1.06,0.43l0.52,1.11l3.48,4.15l5.36,2.06l-0.06,1.37l-6.68,-2.43l-3.74,-4.02l-5.42,-0.83l4.28,1.51l0.07,1.15l-8.61,-1.48l-3.06,-1.9l-0.15,-1.73l-1.87,0.86l-0.1,1.01l-11.26,-3.24l-2.74,0.23l-1.88,-1.92l-1.91,0.68l-10.92,-2.79l-8.5,2.05l-2.35,-3.12l1.03,-1.22l-0.43,-0.89l-2.04,0.72l-1.83,-1.32l0.59,1.7l-1.96,-2.14l-7.76,-4.73l-4.06,-7.51l-1.58,-1.04l-1.73,0.33l-1.62,-1.52l0.83,-2.99l-2.19,-1.62l-2.04,0.55l-0.43,-1.02l1.34,-1.4l0.29,-1.98l-1.35,-1.52l0.43,-2.87l2.01,-1.96l1.01,-2.73l4.42,-4.01l1.14,-3.12l-1,-4.83l-8.97,-11.51l-3.29,-1.94l-0.21,-1.02l0.93,-0.21l-1.21,-1.83l-5.21,-4.18l3.29,-5.27l-4.51,-4.08l-0.78,-4.78l-1.71,-1.08l-5.17,-0.77l-13.63,0.9l-0.07,-1.33l4.97,-1.31l-5.56,-1.3l-13.09,-8.34l-0.34,-1.46l-1.82,0.42l-2.53,-3.83l-4.63,-1.11l0.05,-0.88l1.86,-0.38l-1.69,-3.6l-5.64,-2.06l-4.73,-4.96l-4.75,-2.53l-2.45,1.43l-1.16,-0.62l0,0l-0.65,-7.01l3.68,-0.1l18.64,8.91l2.53,-0.07l2.42,-4.34l-0.73,-3.79l4.16,-3.81l3.89,-0.97l-1.05,-6.91l3.33,-8.87l1.31,-6.91l3.11,-4.25l3.41,-1.59l4.35,1.27L220.12,173.8z"/>
		<path id="CR-SJ" title="San José" class="land" d="M383.02,205.77L386.88,219.46L392.95,222.76L395.95,225.5L399.38,237.7L398.5,239.46L395.08,240.54L391.94,239.41L388.35,242.85L384.92,243.52L382.09,242.97L372.53,244.78L372.32,247.79L367.1,252.61L366.83,255.44L371.88,255.07L372.83,256.14L371.99,259.45L366.87,268.07L356.44,274.01L356.74,276.65L355.87,278.47L361.02,279.71L366.75,278.8L373.26,275.11L377.33,283.3L382.15,285.42L382.05,290.27L382.77,291.34L384.79,291.52L388.43,294.65L390.14,293.79L394.54,297.42L400.82,297.71L402.69,305.5L405.15,307.33L415.26,310.73L417.04,310.51L416.46,313L417.29,315.92L421.51,316.9L422.37,319.01L424.63,319.58L428.58,318.61L430.96,319.76L434.02,317.77L436.53,314.47L438.59,314.18L449.94,321.54L456.21,323.5L462.44,328.81L466.69,330.77L466.69,330.77L469.87,333.62L471.17,339.58L477.19,352.61L481.69,355.86L481.69,355.86L474.51,365.16L471.68,371.11L465.96,376.91L465.82,382.28L463.6,385.39L463.46,386.55L465.46,388.28L468.13,389.42L472.16,389.36L473.6,393.7L472.04,397.89L469.24,400.73L469.17,404.71L467.76,407.8L462.78,410.93L458.71,411.38L447.17,405.76L444,401.41L435.8,398.18L427.88,383.3L421.49,378.81L417.19,383.99L412.22,383.14L405.81,379.86L400.63,375.56L400.03,365.9L402.04,361.52L397.7,360.43L392.93,356.12L390.06,348.02L387,347.35L384.27,350.88L380.72,351.55L377.01,348.19L375.22,343.75L372.31,344.4L370.52,339.84L363.38,335.31L360.8,331.28L357.43,329.93L357.61,319.43L353.42,317.7L349.67,319.3L347.46,318.55L345.24,315.15L345.95,309.14L344.97,306.91L343.39,306.09L339.3,305.68L333.26,307.8L329.11,305.67L323.37,305.88L318.02,304.01L313.52,301.19L310.25,303.58L300.94,304.24L296.5,303.61L295.07,306.01L296.66,309.83L289.6,318.9L287.66,317.28L286.72,314.6L274.04,315.86L269.17,314.26L266.55,311.1L265.5,304.1L261,299.26L260.07,296.75L260.53,292.18L258.97,287.66L259.51,281.99L260.81,281.15L265.42,281.37L268.9,278.28L267.64,276.23L264.94,276.31L263.38,271.9L260.11,271.99L260.21,269.45L262.23,267.2L262.23,267.2L264.71,267.17L270.07,258.6L272.7,257.84L275.72,254.81L283.81,249.52L299,247.83L304.76,250.44L321.67,248.14L324.91,246.89L331.04,241.42L333.88,240.13L336.13,240.24L336.13,240.24L342.95,241.79L346.43,240.59L350.19,241.53L357.27,239.49L360.15,239.53L366.11,236.53L368.56,233.7L370.08,227.94L366.61,222.55L368.04,218.01L373.71,217.28L375.33,215.22L375.5,206.15L377.17,203.97L386.38,197.71L386.38,197.71z"/>
	</g>
</svg>