<?xml version="1.0" encoding="utf-8"?>
<!-- (c) ammap.com | SVG map of Croatia - Low -->
<svg xmlns="http://www.w3.org/2000/svg" xmlns:amcharts="http://amcharts.com/ammap" xmlns:xlink="http://www.w3.org/1999/xlink" version="1.1">
	<defs>
		<style type="text/css">
			.land
			{
				fill: #CCCCCC;
				fill-opacity: 1;
				stroke:white;
				stroke-opacity: 1;
				stroke-width:0.5;
			}
		</style>

		<amcharts:ammap projection="mercator" leftLongitude="13.492149" topLatitude="46.542610" rightLongitude="19.400320" bottomLatitude="42.403920"></amcharts:ammap>

		<!-- All areas are listed in the line below. You can use this list in your script. -->
		<!--{id:"HR-01"},{id:"HR-02"},{id:"HR-03"},{id:"HR-04"},{id:"HR-05"},{id:"HR-06"},{id:"HR-07"},{id:"HR-08"},{id:"HR-09"},{id:"HR-10"},{id:"HR-11"},{id:"HR-12"},{id:"HR-13"},{id:"HR-14"},{id:"HR-15"},{id:"HR-16"},{id:"HR-17"},{id:"HR-18"},{id:"HR-19"},{id:"HR-20"},{id:"HR-21"}-->

	</defs>
	<g>
		<path id="HR-01" title="Zagrebačka županija" class="land" d="M285.99,70.84L288.34,77.56L290.15,79.07L294.3,76.95L294.3,76.95L301.22,80.87L303.42,80.13L304.98,81.31L305.36,83.35L307.57,84.4L308.06,88.78L311.58,86.7L312.42,88.1L315.42,87.71L320.94,93.44L322.39,92.37L324.67,93.81L327.82,92.22L331.66,93.13L331.66,93.13L332.28,100.91L330.52,104.86L331.09,107.1L329.2,105.68L326.48,106.45L325.88,104.75L325.18,106.7L321.69,108.4L322.1,112.25L319.25,110.59L311.96,111.3L312.74,113.33L311.37,114.59L313.52,116.23L311.53,121.15L315.57,124.2L318.72,124.26L320.25,127.93L321.76,127.31L324.06,130.34L324.06,130.34L324.14,130.34L324.14,130.34L321.33,137.08L316.54,138.24L309.19,145.95L307.38,142.04L303.12,140.81L300.78,136.26L296.35,137.37L295.35,133.69L290.81,135.9L289.59,137.97L288.08,137.16L284.84,140.98L274.12,135.31L266.38,145.46L270.31,149.41L270.27,160.05L267.7,162.17L263.94,157.09L261.47,156.38L258.23,159.05L252.7,158.72L252.7,158.72L252.46,158.69L252.46,158.69L250.98,156.85L251.53,152.68L249.58,150.33L246.31,150.51L246.07,148.07L243.07,147.79L238.35,151.75L233.28,145.72L233.73,140.4L231.66,142.14L220.06,137L211.56,144.07L210.7,142.53L212.03,139.43L208.98,139.38L209.54,134.64L203.94,131.46L202.12,126.8L198.73,126.41L197.1,122.53L190.97,119.69L191.99,114.57L191.99,114.57L198.76,111.23L205.18,110.85L204.41,107.66L207.02,105.83L208.17,107.26L210.6,107.04L212.01,103.35L214.21,104.82L215.49,102.78L222.71,107.65L225.12,104.57L229.21,104.02L227.12,101.4L226.64,95.37L229.46,92.46L229.51,85.34L229.51,85.34L235.08,85.28L235.91,86.51L237.28,83.23L240.73,83.19L249.62,87.61L253.97,91.69L254.29,95.01L254.29,95.01L242.65,102.66L240.91,106L242.69,112.01L240.6,114.59L246.02,118.17L245.3,121.18L243.52,122.56L238.61,119.38L235.51,123.59L236.37,127.4L245.6,131.79L249.32,135.46L248.96,138.76L252.7,138.76L254.8,137.02L258.36,129.45L259.27,123.51L261.74,123.06L262.92,118.95L273.55,112.27L274.63,109.96L280.17,111.54L280.68,106.63L283.75,105.04L280.58,97.71L278.06,96.55L277.89,90.64L275.57,85.84L275.57,85.84L275.7,82.76L279.02,80.31L278.52,78.49L281.98,77.91L280.08,73.26L282.31,73.48z"/>
		<path id="HR-02" title="Krapinsko-zagorska županija" class="land" d="M245.54,40.24L247.02,46.5L251.73,48.07L253.28,50.96L257.47,51.92L257.47,51.92L261.79,53.21L261.79,53.21L268.61,51.74L270.73,51.96L271.57,53.99L274.89,54.12L276.92,51.13L280.34,49.86L281.21,50.89L279.88,52.39L285.38,52.96L283.66,55.31L285.9,58.19L284.66,66.99L285.99,70.84L285.99,70.84L282.31,73.48L280.08,73.26L281.98,77.91L278.52,78.49L279.02,80.31L275.7,82.76L275.57,85.84L275.57,85.84L271.59,85.75L270.89,87.65L267.39,88.01L254.29,95.01L254.29,95.01L253.97,91.69L249.62,87.61L240.73,83.19L237.28,83.23L235.91,86.51L235.08,85.28L229.51,85.34L229.51,85.34L228.81,80.87L231.96,74.39L230.21,72.15L224.46,70.5L223.24,68.01L220.56,67.79L218.82,63.82L219.56,60.68L218.05,59.32L219.83,58.29L218.82,56.7L223.04,53.03L223.4,48.59L226.62,47.01L231.67,48.73L233.88,47.95L233.86,49.56L235.56,49.75L239.09,45.39L238.24,42.77z"/>
		<path id="HR-03" title="Sisačko-moslavačka županija" class="land" d="M243.03,195.18L238.47,191.06L239.59,187.19L241.7,185.72L237.55,177.41L238.11,175.02L243.71,171.95L242.53,165.49L244.19,161.36L242.31,160.43L244.24,158.13L248.18,156.51L251.63,159.6L252.46,158.69L252.46,158.69L252.7,158.72L252.7,158.72L258.23,159.05L261.47,156.38L263.94,157.09L267.7,162.17L270.27,160.05L270.31,149.41L266.38,145.46L274.12,135.31L284.84,140.98L288.08,137.16L289.59,137.97L290.81,135.9L295.35,133.69L296.35,137.37L300.78,136.26L303.12,140.81L307.38,142.04L309.19,145.95L316.54,138.24L321.33,137.08L324.14,130.34L324.14,130.34L324.32,130.35L324.32,130.35L328.11,129.63L328.73,131.74L334.18,132.95L335.79,136.21L342.41,136.73L344.32,144.41L348.37,147.03L349.94,150.45L348.51,152.96L346.28,152.35L345.62,153.41L348.11,155.63L349.79,154.69L354.09,159.49L356.68,157.41L356.68,157.41L358.91,161.14L363.01,161.09L365.05,162.75L366.43,166.99L368.7,165.24L368.43,163.08L369.84,163.34L370.56,165.61L368.62,169.49L375.27,172.51L377.45,176.65L381.87,175.93L381.87,175.93L381.84,184.03L375.39,190.4L371.23,192.07L370.38,194.4L374.77,197.87L378.17,204.44L378.17,204.44L368.37,198.72L366.85,195.22L364.1,196.65L365.28,193.65L363.69,193.31L362.44,195.77L360.69,194.84L357.04,195.03L356.68,192.48L358.45,190.62L356.31,187.8L350.69,194.29L349.63,193.69L346.15,196.7L347.05,199.76L344.58,201.22L335.4,197.97L331.62,199.52L321.94,194.59L316.98,195.92L314.74,195.04L310.62,197.65L307.53,207.55L300.66,211.81L301.49,215L296.7,223.67L296.42,227.83L291.81,228.35L283.22,226.76L282.39,223.96L274.95,216.81L268.13,213.58L263.85,202.76L260.64,202.51L262.02,200.19L261.28,197.69L256.58,195.38L252.77,198.25L251.47,194.26L248.37,194.63L248.52,196.18z"/>
		<path id="HR-04" title="Karlovačka županija" class="land" d="M191.99,114.57L190.97,119.69L197.1,122.53L198.73,126.41L202.12,126.8L203.94,131.46L209.54,134.64L208.98,139.38L212.03,139.43L210.7,142.53L211.56,144.07L220.06,137L231.66,142.14L233.73,140.4L233.28,145.72L238.35,151.75L243.07,147.79L246.07,148.07L246.31,150.51L249.58,150.33L251.53,152.68L250.98,156.85L252.46,158.69L252.46,158.69L252.46,158.69L252.46,158.69L251.63,159.6L248.18,156.51L244.24,158.13L242.31,160.43L244.19,161.36L242.53,165.49L243.71,171.95L238.11,175.02L237.55,177.41L241.7,185.72L239.59,187.19L238.47,191.06L243.03,195.18L243.03,195.18L234.87,203.8L237.03,211.56L233.26,218.9L237.27,227.46L237.45,232.13L233.98,232.77L232.52,238.53L232.52,238.53L229.72,240.77L224.41,237.19L219.17,239.32L214.7,234.57L210.91,239.58L214.57,244.18L213.85,245.65L209.71,240.53L201.88,238.88L193.94,227.17L187.42,224.85L185.87,222.02L177.65,216.03L176.37,212.53L172.72,213.84L170.37,217.32L165.52,215.73L163.05,212.35L157.23,209.95L157.23,209.95L153,203.65L154.73,198.39L154.77,191.31L152.3,188.34L154.34,186.97L155.39,182.61L157.91,181.57L159.9,184.61L164.47,185L164.82,187.01L166.57,187.52L168.88,184.3L174.52,182.82L174.08,180.19L179.71,170.35L179.28,165.65L179.28,165.65L181.41,161.75L184.4,159.9L190.44,161.8L196.24,156.69L187.44,149.47L187.16,142.57L184.92,139.52L188.06,138.12L187.55,135.51L192.59,134.62L192.18,133.15L196.37,134.44L198.46,132.86L194.55,126.56L192.46,129.19L193.89,125.78L193.3,122.94L191.42,122.99L189.41,125.56L189.62,128.89L188.45,125.28L187.15,126.86L185.6,123.53L181.02,121.8z"/>
		<path id="HR-05" title="Varaždinska županija" class="land" d="M278.8,23.77L281.44,24.92L286.43,23.29L287.82,25.69L289.62,25.37L289.62,25.37L293.81,27.57L297.02,32.88L300.81,32.9L302.03,34.29L305.76,32.29L306.42,34.16L312.24,35.37L312.42,34.31L315.37,34.47L317.25,31.9L321.79,35.37L329.75,33.29L331.92,35.32L335.38,32.73L334.81,35.56L338.81,36.31L338.81,36.31L338.38,43.07L330.33,51.51L325.41,51.89L322.46,50.54L315.34,54.38L315.93,56.74L304.21,57.4L303.46,59.57L298.56,63.01L294.3,76.95L294.3,76.95L290.15,79.07L288.34,77.56L285.99,70.84L285.99,70.84L284.66,66.99L285.9,58.19L283.66,55.31L285.38,52.96L279.88,52.39L281.21,50.89L280.34,49.86L276.92,51.13L274.89,54.12L271.57,53.99L270.73,51.96L268.61,51.74L261.79,53.21L261.79,53.21L257.47,51.92L257.47,51.92L253.28,50.96L251.73,48.07L247.02,46.5L245.54,40.24L245.54,40.24L249.24,37.42L254,37.45L257.7,34.25L261.2,34.22L263.63,30.74L267.26,30.38L265.37,23.22L271.27,23.85L274.6,20.36z"/>
		<path id="HR-06" title="Koprivničko-križevačka županija" class="land" d="M348.75,29.39L350.45,31.11L351.1,39.91L358.09,45.22L360.13,44.85L360.49,47.58L364.16,48.14L371.72,53.33L373.71,53.05L376.11,55.89L379.57,55.69L379.54,57.37L381.91,58.53L381.35,64.87L385.04,64.04L384.74,66.27L387.05,66.24L385.66,68.8L387.4,69.26L387,72.06L391.05,72.58L389.32,76.55L393.6,77.04L389.77,78.95L392.21,80.82L394.72,80.68L393.7,83.32L393.7,83.32L385.15,83.59L375.83,99.1L375.83,99.1L369.96,95.31L368.29,90.68L361.54,91.5L362.5,87.74L359.16,84.17L351.82,83.62L355.06,78.18L352.8,78.17L349.59,72.62L349.98,70.18L346.01,67.76L344.75,73.86L340.13,75.52L340.88,73.65L339.49,72.99L333.94,76.37L332.25,81.72L331.66,93.13L331.66,93.13L327.82,92.22L324.67,93.81L322.39,92.37L320.94,93.44L315.42,87.71L312.42,88.1L311.58,86.7L308.06,88.78L307.57,84.4L305.36,83.35L304.98,81.31L303.42,80.13L301.22,80.87L294.3,76.95L294.3,76.95L298.56,63.01L303.46,59.57L304.21,57.4L315.93,56.74L315.34,54.38L322.46,50.54L325.41,51.89L330.33,51.51L338.38,43.07L338.81,36.31L338.81,36.31L340.61,35.38L341.16,36.77L342.63,34.86L343.15,38.64L345.56,38.28L348.01,28.3L348.01,28.3z"/>
		<path id="HR-07" title="Bjelovarsko-bilogorska županija" class="land" d="M331.66,93.13L332.25,81.72L333.94,76.37L339.49,72.99L340.88,73.65L340.13,75.52L344.75,73.86L346.01,67.76L349.98,70.18L349.59,72.62L352.8,78.17L355.06,78.18L351.82,83.62L359.16,84.17L362.5,87.74L361.54,91.5L368.29,90.68L369.96,95.31L375.83,99.1L375.83,99.1L382.11,102.26L383.68,105.87L388.3,109.28L391.62,109.91L392.74,114.75L395.66,115.42L395.9,117.95L397.64,118.74L398.67,116.27L400.47,117.86L399.51,124L401.97,122.02L403.31,125.98L408.85,122.28L409.82,124.37L414.66,126.65L409.56,135.77L409.58,139.56L407.18,140.96L407.22,144.13L409.05,143.56L409.05,143.56L409.96,144.94L408.62,150.67L405.52,153.29L400.74,152.48L400.32,151.07L393.83,151.87L392.78,153.18L386.67,153L382.25,149.24L379.99,151.84L375.88,150.66L371.67,153.4L368.93,151.01L365.17,153.25L359.92,151.62L359.23,147.4L356.2,152.54L356.68,157.41L356.68,157.41L354.09,159.49L349.79,154.69L348.11,155.63L345.62,153.41L346.28,152.35L348.51,152.96L349.94,150.45L348.37,147.03L344.32,144.41L342.41,136.73L335.79,136.21L334.18,132.95L328.73,131.74L328.11,129.63L324.32,130.35L324.32,130.35L324.06,130.34L324.06,130.34L321.76,127.31L320.25,127.93L318.72,124.26L315.57,124.2L311.53,121.15L313.52,116.23L311.37,114.59L312.74,113.33L311.96,111.3L319.25,110.59L322.1,112.25L321.69,108.4L325.18,106.7L325.88,104.75L326.48,106.45L329.2,105.68L331.09,107.1L330.52,104.86L332.28,100.91z"/>
		<path id="HR-08" title="Primorsko-goranska županija" class="land" d="M109.65,306.5l3.18,2.69l-4.11,-0.29l-1.08,-1.73l1.37,-1.5L109.65,306.5zM86.72,299.13l-2.41,2.01l-1.98,-3.28L86.72,299.13zM81.47,273.94l0.74,3.39l-2.73,-0.83l2.16,9.05l-4.82,-3.39l1.63,-0.88l-0.89,-3.73L81.47,273.94zM88.01,270.12l5.39,2.8l0.51,10.7l5.01,8.98l9.53,8.65l-0.86,2.95l-8.18,-6.87l-0.37,-0.88l-0.6,-2.46l-0.87,-2.75l-0.79,0.68l-1.4,-1.95l-1.71,2.93l-2.61,-1.03l0.4,-3.94l2.06,-2.14l-4.37,-6.01L88.01,270.12zM139.77,273.79l-7.74,-8.16l5.95,4.88L139.77,273.79zM122.5,257.6l8.41,6.86l-7.96,-2.27l-2.44,-3.28L122.5,257.6zM139.07,249.67l-0.73,3.81l-2.77,-3.75L139.07,249.67zM127.9,249.79l2.52,-0.16l1.23,1.48l-2.36,3.45l9.21,8.88l4.06,7.46l-3.2,0.67l-5.95,-6.93l-7.33,-4.98l-1.06,-3.66l2.93,0.95l-5.03,-6.11l4.64,1.43L127.9,249.79zM131.79,246.18l1.99,2.63l-3.47,-0.19l-1.56,-2.23l0.97,-1.6L131.79,246.18zM133.29,237.85l3.99,2.58l2.08,4.63l-7.02,-4.24l-0.33,-3.13L133.29,237.85zM107.88,230.95l2.13,3.54l-1.84,0.16l-5.29,-3.91l3.89,-0.96L107.88,230.95zM86.45,203l3.26,1.36l1.39,2.53l-1.81,4.45l4.77,15.1l3.52,4.65l3.74,-0.42l1.73,4l-2.65,0.38l-1.52,11.12l2.34,12.5l-1.72,-0.8l-0.49,1.35l3.26,5.99l-1.62,2.63l1.48,4.79l3.67,4.54l-0.96,3.5l1.44,-0.65l0.38,1.71l2.52,0.02l-4.85,4.23l-4.17,-3.19l-6.96,-10.08l0.64,-7.3l-2.81,-1.63l-0.38,-6.92l-1.39,-2.22l-1.78,0.52l-0.29,-5.77l-2.99,-8.55l-0.29,-3.45l1.39,-2.32l4.91,7.13l2.91,0.2l1.19,-1.46l-1.83,-4.44l0.79,-1.92l2.56,1.37l-0.78,-1.89l-1.76,-0.07l-1.45,-4.46l-2.79,-1.74l0.95,-3.57l-1.21,-3.79l-4.47,-2.48l-1.5,-4.35l-1.5,-0.7l-0.47,-2.41l2.98,-6.19L86.45,203zM111.07,192.7l2.85,0.54l1.07,1.9l-1.99,-0.38l5.12,9.12l-2.63,-0.76l-1.02,2.88l4.07,-1.52l3.21,2.06l1.22,2.03l-1.77,6.11l1.1,2.03l3.04,1.88l1.53,-0.93l2.9,2.57l-0.25,2.61l7.98,8.22l-1.28,2.35l-5.6,-0.89l0.6,4.34l-2.61,0.63l-4.71,-2.06l-1.18,-2.27l-2.62,0.15l-3.35,-2.04l0.53,-8.97l-1.78,1.81l1.27,1.99l-4.26,-1.85l-1.78,2l-3.73,-0.41l-3.76,-1.56l-5.52,-6.1l-0.06,-3.51l3.56,-0.94l0.64,-4.31l3.02,1.78l2.29,-1.2l-0.47,-3.85l2.44,-2.44l-1.15,-4.76l1.74,-1.14l-1.51,-4.19L111.07,192.7zM112.43,129.79l3.91,0.95l-1.89,5.36l9.99,7.37l-0.17,7.4l2.79,-1.15l8.09,4.67l2.07,6.24l9.4,-2.49l0.57,-6.14l1.88,-1.52l5.29,4.51l10.72,2.38l0.1,2.43l7.45,6.16l2.37,0.24l1.26,-1.93l3,1.38l0,0l0.42,4.7l-5.63,9.84l0.45,2.63l-5.64,1.48l-2.31,3.23l-1.75,-0.51l-0.35,-2.01l-4.57,-0.4l-1.99,-3.04l-2.51,1.04l-1.06,4.36l-2.04,1.38l2.47,2.96l-0.04,7.09l-1.73,5.25l4.22,6.3l0,0l1.51,5.36l-2.1,3.39l-6.32,0.72l-0.94,-2.45l-2.17,2.85l-2.36,0.37l-0.97,3.17l0,0l-3.94,-9.27l0.52,-2.91l-1.47,1.14l0.04,-1.12l-2.08,0.18l-10.46,-5.22l-6.16,-7.57l-8.32,-6.81l-1,-4.87l1.71,0.16l-1.1,-1.67l-3.38,-2.19l2.33,3.39l-1.76,0.78l-4.66,-2.51l-1.7,-2.96l-15.77,-5.94l-4.81,7.43l-5.79,22.48l0,0l-2.54,-1.67l0.73,-6.92l-1.6,-6.59l0.65,-6.58l2.11,-2.42l-3.17,-8.43l1.98,-3.35l-7.91,-5.03l-1.73,-3.04l-0.02,-4.34l0,0l8.97,1.1l1.83,-4.46l2.38,-0.79l1.88,2.89l2.37,-1l4.22,3.36l9.23,-5.31l1.56,0.4l5.83,-4.53l1.57,-9.99l3.4,-1.09L112.43,129.79z"/>
		<path id="HR-09" title="Ličko-senjska županija" class="land" d="M145.4,307.15l7.69,7.74l-7.56,-5.27l-1.41,-2.15L145.4,307.15zM135.71,279.81l8.78,10.61l-1.57,-5l3.96,-0.85l-0.18,1.38l5.18,3.52l2.76,6.33l6.96,2.75l2.75,5.63l-3.2,-1.65l0.13,-1.34l-3.76,0.12l-0.77,-2.34l-9.13,-5.06l-0.02,1.42l1.87,0.48l11.18,13.3l0.94,-1.34l-1.07,-4.11l7.42,5.35l2.55,4.48l3.8,1.99l1.05,2.97l1.6,-0.16l4.74,4.13l0.95,3.89l-8.94,-6.3l6.71,6.71l-2.43,0.07l1.18,2.26l-9.03,-4.18l4.34,6.23l-6.81,-4.09l-1.95,-2.96l1.34,-1.51l-1.89,-1.82l2.91,-2.47l-3.55,-2.87l-1.56,-0.06l0.03,1.44l-2.75,-0.59l-0.3,-2.4l-4.42,-5.39l-4.07,-2.18l0.21,-1.23l-1.73,0.9l-3.23,-2.75l-0.8,-1.75l2.19,-0.51l-5.17,-6.89l1.1,-1.48l-9.65,-10.36l-5.89,-10.85L135.71,279.81zM157.23,209.95l5.83,2.4l2.46,3.38l4.85,1.59l2.35,-3.48l3.65,-1.31l1.27,3.51l8.22,5.99l1.55,2.83l6.52,2.32l7.94,11.71l7.84,1.65l4.14,5.13l0.71,-1.47l-3.65,-4.6l3.79,-5.01l4.47,4.75l5.24,-2.13l5.31,3.58l2.8,-2.24l0,0l1.24,8.52l3.48,3.44l-2.95,2.53l-3.56,0.1l-0.67,1.66l6.41,10.03l4.15,3.8l8.35,-3.66l2.56,3.59l3.57,1.51l2,5.66l5.73,2.77l2.57,6.19l-1.95,0.23l0.27,2.67l-3.19,0.78l2.24,4.58l9.82,4.95l1.94,5.11l-0.66,4.46l0,0l-4.61,1.65l0,0l-3.36,-1.75l-0.28,4.55l-1.96,-1.89l0,0l0.21,-3.01l-3.29,-4.2l0,0l-6.44,-1.54l0,0l-5.39,4.76l0,0h-2.17l-0.63,2.17l-11.7,6.93l3.36,0.91l0.98,1.82l-2.59,3.08l0,0l0.98,1.96l0,0l3.5,-0.07l1.19,1.96l-1.75,8.33l-1.89,1.26l-8.82,0.28l-5.81,-2.73l-5.25,0.07l-3.01,-1.47l-2.45,-5.11l-4.21,-3.21l0,0l-18.86,-8.79L186,320.67l0,0l-10.77,-12.21l-5.12,-3.69l-3.63,-5.97l-11.43,-8.78l-2.87,-8.2l-6.73,-9.59l-1.49,-21.46l4.61,-15.6l-0.9,-3.18l-2.28,-1.79l-1.52,-6.84l0,0l0.97,-3.17l2.36,-0.36l2.17,-2.85l0.94,2.45l6.32,-0.72l2.1,-3.39L157.23,209.95z"/>
		<path id="HR-10" title="Virovitičko-podravska županija" class="land" d="M399.51,84.88L398.69,89.57L402.64,88.81L403.44,91.24L405.39,90.01L405.67,91.38L407.86,91.7L408.04,88.43L417.66,90.8L421.65,90.41L427.42,95.37L431.83,105.21L439.53,106.35L441.51,109.01L443.66,108.3L447.18,110.19L448.3,109.29L452.25,115.88L455.41,112.58L457.82,112.47L457.82,112.47L460.02,120.8L466.7,123.24L469.71,134.99L471.66,135.3L465.97,144.37L466.27,147.24L463.41,148.49L460.05,155.02L454.91,157.46L454.91,157.46L454.33,157.22L454.33,157.22L444.59,158.46L446.02,157.08L443.77,155.18L428.31,152.65L424.5,147.65L421.99,147.37L417.96,143.63L415.99,143.66L414.69,146.12L410.57,142.76L409.05,143.56L409.05,143.56L407.22,144.13L407.18,140.96L409.58,139.56L409.56,135.77L414.66,126.65L409.82,124.37L408.85,122.28L403.31,125.98L401.97,122.02L399.51,124L400.47,117.86L398.67,116.27L397.64,118.74L395.9,117.95L395.66,115.42L392.74,114.75L391.62,109.91L388.3,109.28L383.68,105.87L382.11,102.26L375.83,99.1L375.83,99.1L385.15,83.59L393.7,83.32L393.7,83.32L396.39,82.62L394.88,85.46L396.84,85.83L397.4,81.58z"/>
		<path id="HR-11" title="Požeško-slavonska županija" class="land" d="M454.34,157.23L455.49,161.82L460.1,162.59L468.36,169.41L472.97,169.15L476.97,171.28L477.35,175.68L474.94,177.46L477.25,179.18L478.95,184.15L474.64,188.93L474.64,188.93L465.4,186.44L456.06,186.66L453.27,190.37L454.06,192.18L449.99,197.33L446.26,196.24L444.19,199.3L445.12,200.3L441.09,200.78L436.32,198.94L438.27,196.39L436.21,188.9L423.38,187.55L415.92,182.29L414.26,177.74L411.49,176.95L405.45,170.78L399.2,171.44L398.71,173.55L396.65,174.29L388.81,170.59L381.87,175.93L381.87,175.93L377.45,176.65L375.27,172.51L368.62,169.49L370.56,165.61L369.84,163.34L368.43,163.08L368.7,165.24L366.43,166.99L365.05,162.75L363.01,161.09L358.91,161.14L356.68,157.41L356.68,157.41L356.2,152.54L359.23,147.4L359.92,151.62L365.17,153.25L368.93,151.01L371.67,153.4L375.88,150.66L379.99,151.84L382.25,149.24L386.67,153L392.78,153.18L393.83,151.87L400.32,151.07L400.74,152.48L405.52,153.29L408.62,150.67L409.96,144.94L409.05,143.56L409.05,143.56L410.57,142.76L414.69,146.12L415.99,143.66L417.96,143.63L421.99,147.37L424.5,147.65L428.31,152.65L443.77,155.18L446.02,157.08L444.59,158.46L454.33,157.22L454.33,157.22z"/>
		<path id="HR-12" title="Brodsko-posavska županija" class="land" d="M381.87,175.93L388.81,170.59L396.65,174.29L398.71,173.55L399.2,171.44L405.45,170.78L411.49,176.95L414.26,177.74L415.92,182.29L423.38,187.55L436.21,188.9L438.27,196.39L436.32,198.94L441.09,200.78L445.12,200.3L444.19,199.3L446.26,196.24L449.99,197.33L454.06,192.18L453.27,190.37L456.06,186.66L465.4,186.44L474.64,188.93L474.64,188.93L477.95,191.14L480.96,190.81L482.01,192.62L486.35,192.98L489.24,195.86L494.49,195.01L497.68,192.49L504.01,191.86L511.85,196.23L520,197.55L523.33,199.99L523.33,199.99L517.86,209.85L519.77,213.9L521.88,214.56L521.88,214.56L523.47,217.36L521.48,221.61L520.78,219.23L515.26,218.59L510.28,212.15L499.65,213.14L498.24,211.11L495.65,211.27L494.94,208.48L493.02,207.67L488.49,210.03L489.49,213.86L487.65,216.22L479.1,216.35L474.01,212.38L475.53,210.52L473.86,207.41L471.62,207.38L470.32,209.81L467.49,205.9L465.23,206.85L463.05,211.25L459.75,212.29L460.15,216.21L450.94,221.61L432.42,208.46L425,212.56L422.74,211.28L420.5,212.25L419.92,209.18L418.03,212.23L413.25,212.2L414.1,208.23L409.79,209.53L409.5,204.72L406.22,208.43L400.62,207.95L397.12,205.86L397.06,203.78L395.27,203.88L395.15,202.08L392.71,202.41L391.45,200.58L388.39,206.9L381.46,206.68L378.17,204.44L378.17,204.44L374.77,197.87L370.38,194.4L371.23,192.07L375.39,190.4L381.84,184.03z"/>
		<path id="HR-13" title="Zadarska županija" class="land" d="M208.6,393.34l1.1,1.24l-1.94,0.23l-1.53,-2.2L208.6,393.34zM183.9,370.6l5.81,2.97l3.55,4.07l1.69,-0.23l1.49,4.27l6.78,5.89l-0.42,1.45l-6.92,-4.02l0.02,1.09l-2.54,-0.64l-0.87,-3.09l-4.49,-3.11l-5.82,-8.34L183.9,370.6zM162.02,366.88l2.93,4.81l-3.26,-2.24L162.02,366.88zM164.04,361.16l7.19,7.65l2.12,4.55l-9.36,-8.26L164.04,361.16zM166.29,353.05l9.14,6.31l1.58,3.92l5.39,4.16l-0.56,3.41l-3.21,-4.81l-1.97,2.11l-8.62,-10.75l-5.16,-3.51l-0.25,-4.04L166.29,353.05zM148.35,349.34l2.22,2.66l-5.91,-4.28L148.35,349.34zM141.97,348.27l4.88,4.07l1.21,2.86l2.45,0.6l0.16,2.31l5.1,3.3l-0.02,-1.28l1.25,0.59l-0.82,1.31l2.38,1.54l3.79,8.98l3.76,3.27l0.1,-1.76l2.3,1.66l-0.43,1.29l5.5,4.39l0.46,2.02l5.18,3.01l-1.33,2.38l-4.58,-2.1l-2.74,-3.38l-1.04,0.66l7.26,6.1l0.1,1.96l-10.08,-8.82l-11.45,-18.39l-10.87,-10.56l-1.41,-0.79l0.09,1.61l-5.13,-3.16l-0.56,-1.6l1.34,-1.16l0.24,2.67l2.73,1.47l-1.6,-2l1.09,-0.23l2.47,1.6l-2.32,-5.2L141.97,348.27zM150.58,344.11l8.37,7.65l0.31,2.73l-5.96,-4.38l-2.9,-4.13L150.58,344.11zM136.1,335.01l7.63,6.52l0.6,-1.9l1.61,1.09l-0.85,0.63l1.88,1.07l-1.68,2.06L136.88,339l2.89,4.59l-1.3,0.43l-4.33,-8.2L136.1,335.01zM125.15,331.11l2.96,2.21l-2.1,0.07l-2.03,-2.03L125.15,331.11zM133.98,332.73l1.51,1.33l-1.47,0.97l-2.2,-1.43l0.41,2.4l-3.26,-3.47l2.49,0.35l-0.91,-2.39L133.98,332.73zM159.82,326.15l6.47,1.72l3.57,3.6l-1.42,0.75l-0.04,-1.47l-2.52,-1.02l-4.55,2.09l-3.35,-4.79l0.24,-1.18L159.82,326.15zM117.11,324.63l5,4.64l-7.49,-4.53l-1.55,-2.51l0.91,-0.78L117.11,324.63zM124,313.45l1.93,2.15l-0.41,3.75l1.95,0.97l0.69,2.45l-3.1,-1.33l-1.32,-4.46l-2.43,-0.84l0.28,-2.05L124,313.45zM135.07,312.73l1.65,2.44l-1.78,2.4l2.78,4.21l-0.63,1.9l-7.19,-3.79l3.28,-1.59l-1.77,-5.43L135.07,312.73zM264.56,310.63l1.05,1.26l0.28,-4.55l3.36,1.75l0,0l4.61,-1.65l0,0l0.36,3.9l2.3,3.11l-4.97,0.74l0.48,2.41l8.66,3.06l0.87,1.67l-0.29,9.33l2.02,9.97l0,0l-5.63,1.89l0,0l-2.59,0.07l-1.26,2.73l-0.07,6.93l0,0l-2.38,1.89l0,0l-2.31,1.33l-9.87,-4.55l-2.03,-4.55l0,0l-1.96,-0.14l-4.27,7.21l-4.48,4.55l-2.38,0.49l0,0l-1.26,2.94l-5.04,-0.49l0,0l1.19,1.75l0,0l5.53,2.52l0.14,2.17l0,0l-1.89,2.52l0.98,2.24l-2.94,2.73l0,0l-2.52,0.7l2.69,3.86l-2.76,0.91l0,0l-2.19,1.22l1.41,1.46l-1.86,3.09l-2.4,1.2l0.1,3.44l0,0l-0.29,1.9l-3.49,-1.99l0,0l-3.12,-1.27l-4.42,2.09l-2.03,-0.63l0,0l-3.42,-3.08l-3.63,2.16l-2.67,-3.72l-6.96,-3.52l-1.23,-3.41l-3.66,-2.58l-6.62,-9.05l-4.63,-2.21l1.11,-1.15l-2.71,-1.38l-1.9,-4.68l-4.21,-2.56l-0.38,-2.4l-1.88,-0.47l0.67,-2.11l-6.87,-7.05l1.83,-1.21l0.83,-3.57l-5.85,-4.48l1.52,-2.68l2.03,-0.07l3.67,5.53l3.35,-2.45l-2.39,-3.64l2.29,0.2l-0.45,-1.67l7.83,6.7l1.7,-0.6l-1.97,-4.38l1.84,0.32l0.69,-1.35l-4.64,-4.7l1.43,-1.79l5.34,4.08l0.17,1.73l7.57,4.84l4.4,-0.6l6.27,1.77l0.91,5.92l-4.06,1.61l4.55,4.13l5.74,-1.4l2.87,3.57l1.05,4.62l1.61,-0.49l-1.68,-7.63l-8.47,-6.51l0.82,-5.13l-3.35,-1.86l-2.77,0.69l-6.15,-6.22L186,320.67l0,0l3.6,-7.26l18.86,8.79l0,0l4.21,3.21l2.45,5.11l3.01,1.47l5.25,-0.07l5.81,2.73l8.82,-0.28l1.89,-1.26l1.75,-8.33l-1.19,-1.96l-3.5,0.07l0,0l-0.98,-1.96l0,0l2.59,-3.08l-0.98,-1.82l-3.36,-0.91l11.7,-6.93l0.63,-2.17h2.17l0,0l5.39,-4.76l0,0l6.44,1.54l0,0l3.29,4.2l-0.21,3.01l0,0L264.56,310.63z"/>
		<path id="HR-14" title="Osječko-baranjska županija" class="land" d="M540.02,93.93L548.84,99.1L550.33,98.9L550.78,94.49L551.94,95.41L552.69,99.95L555.48,102.14L554.86,110.27L558.42,114.26L560.82,124.45L566.78,128.75L563.92,136.61L560.24,137.73L561.42,139.92L559.43,145.31L565.7,149.75L569.14,148.67L570.06,146.53L572.41,146.42L573.64,149.67L580.61,152.73L578.73,156.77L570.03,155.79L568.92,161.77L569.91,163.7L569.91,163.7L564.79,164.19L561.28,159.4L555.06,157.25L554.54,158.59L549.03,160.08L551.04,166.49L549.05,166.64L548.94,168.58L546.29,169.15L544.31,167.34L533.49,170.93L533.47,176.12L530.75,177.64L531.45,181.66L527.32,181.97L525.57,184.72L522.67,184.21L519.81,185.95L519.8,192.52L526.25,194.94L525.44,199.3L523.33,199.99L523.33,199.99L520,197.55L511.85,196.23L504.01,191.86L497.68,192.49L494.49,195.01L489.24,195.86L486.35,192.98L482.01,192.62L480.96,190.81L477.95,191.14L474.64,188.93L474.64,188.93L478.95,184.15L477.25,179.18L474.94,177.46L477.35,175.68L476.97,171.28L472.97,169.15L468.36,169.41L460.1,162.59L455.49,161.82L454.34,157.23L454.34,157.23L454.91,157.46L454.91,157.46L460.05,155.02L463.41,148.49L466.27,147.24L465.97,144.37L471.66,135.3L469.71,134.99L466.7,123.24L460.02,120.8L457.82,112.47L457.82,112.47L466.41,111.42L475.13,115.76L477.36,115.19L479.3,112.18L484.11,114.09L485.94,112.41L490.41,113.69L491.88,116.2L497.36,116.39L501.58,118.46L504.33,114.54L508.74,119.38L512.94,119.87L512.8,116.26L516.48,115.64L517.44,111.45L520.59,113.09L524.41,110.14L526.04,110.53L526.03,108.43L531.11,104.79L531.96,99.38L532.76,100.67L534.32,99.49L533.05,97.61L536.12,94.2z"/>
		<path id="HR-15" title="Šibensko-kninska županija" class="land" d="M219.45,419.31l5.38,1.18l2.39,3.22l4.7,2.05l-7.49,-1.35l-3.25,-3.61l-2.18,-0.31l-0.46,-1.73L219.45,419.31zM233.98,415.83l2.35,2.54l-3.06,-1.21l-0.15,-2.75L233.98,415.83zM244.69,416.04l1.39,5.11l-5.03,-5.26l1.54,0.17l0.39,-1.67L244.69,416.04zM225.96,413l5.59,3.9l-0.69,2.88l-2.46,-1.3l-0.24,-1.07l1.62,0.23L225.96,413zM234.87,411.55l2.13,1.78l-1.25,-0.13l0.66,1.5l-2.55,-2.87L234.87,411.55zM239.79,412.13l-1.42,0.71l-1.1,-3.31L239.79,412.13zM218.91,397.52l-0.13,1.72l2.45,3.03l1.63,-0.57l2.29,4.83l-4.23,-1.37l-6.29,-8.39l2.56,1.47l0.77,-1.9L218.91,397.52zM180.69,390.57l2.81,0.92l-0.88,1.59l13.33,12.14l-5.67,-1.97l-2.86,-2l0.18,-1.37l-4.55,-2.49l-4.05,-5.98L180.69,390.57zM183.86,388.04l3.03,1.09l-1.23,0.26l1.18,1.33l1.99,0.26l0.11,-1.96l5.75,9.5l-9.73,-8.08l-1.91,-0.19l-0.7,-1L183.86,388.04zM294.48,356.42l2.84,4.15l5.97,-0.13l1.59,7.58l6.12,0.49l4.1,9.66l0,0l-4.39,-0.24l-5,3.48l-4,0.53l0.95,3.02l-6.44,-0.83l-1.66,5.37l10.19,9.64l-9.3,7.24l1.23,2.87l-2,2.15l2.06,2.7l-3.04,3.42l-7.93,-0.58l-1.9,2.68l-4.65,-0.38l-1.22,3.31l-4.45,0.13l-3.15,5.03l-2.92,0.66l-3.07,3.32l1.33,3.36l2.82,0.47l0.67,3.73l-4.57,1.12l-0.63,2.48l-2.5,1.12l0,0l-1.74,1.95l0.03,-1.71l-3.32,0.71l-2,-2l4.04,-1.46l-0.93,-2.53l-1.88,0.39l-0.19,-0.92l-3.6,-1.82l2.05,-0.77l-0.12,-1.64l-2.65,-0.06l1.42,-2.21l-1.51,-0.68l0.93,-3l-1.41,-2.17l6.01,-0.67l-7.08,-2.22l2.64,-0.95l2.3,2.01l-0.33,-2.69l-5.32,-5.75l-1.35,0.64l-10.27,-8.95l-3.97,0.73l-1.56,-1.77l-3.65,-0.06l-1.06,-2.59l-4.67,-2.48l-2.54,-3.23l1.67,1.84l2.34,-0.87l2.88,2.82l0.04,-2.77l-5.89,-3.95l-3.57,-0.61l-1.57,-2.69l-1.6,1.07l-0.23,-1.46l2.63,-2.65l3.42,3.08l0,0l2.03,0.63l4.42,-2.09l3.12,1.27l0,0l3.49,1.99l0.29,-1.9l0,0l-0.1,-3.43l2.4,-1.2l1.86,-3.09l-1.41,-1.46l2.19,-1.22l0,0l2.76,-0.91l-2.69,-3.86l2.52,-0.7l0,0l2.94,-2.73l-0.98,-2.24l1.89,-2.52l0,0l-0.14,-2.17l-5.53,-2.52l0,0l-1.19,-1.75l0,0l5.04,0.49l1.26,-2.94l0,0l2.38,-0.49l4.48,-4.55l4.27,-7.21l1.96,0.14l0,0l2.03,4.55l9.88,4.55l2.31,-1.33l0,0l2.38,-1.89l0,0l0.07,-6.93l1.26,-2.73l2.59,-0.07l0,0l5.63,-1.89l0,0l3.82,6.06l5.6,4.72L294.48,356.42z"/>
		<path id="HR-16" title="Vukovarsko-srijemska županija" class="land" d="M523.33,199.99L525.44,199.3L526.25,194.94L519.8,192.52L519.81,185.95L522.67,184.21L525.57,184.72L527.32,181.97L531.45,181.66L530.75,177.64L533.47,176.12L533.49,170.93L544.31,167.34L546.29,169.15L548.94,168.58L549.05,166.64L551.04,166.49L549.03,160.08L554.54,158.59L555.06,157.25L561.28,159.4L564.79,164.19L569.91,163.7L569.91,163.7L572.41,165.77L572.37,167.65L567.47,172.98L572.67,177.67L579.75,179.21L581.75,184.93L596.16,192.46L611.47,194.09L611.34,202.98L607.15,203.58L603.09,198.91L600.65,199.14L599.88,203.09L597.52,203.09L588.71,198.61L589.42,203.06L585.21,209.22L579.65,209.4L582.08,220.82L580.26,222.72L580,228.76L575.72,231.43L581.9,232.41L584.9,230.92L586.17,234.64L584.95,236.37L580.95,238.08L578.41,241.17L571.29,242.19L572.73,248.97L554.84,249.15L545.76,241.63L546.62,239.46L544.52,236.45L548.22,237.41L550.05,236.4L547.97,232.73L548.99,229.05L542.05,228.66L542.89,225.45L535.89,218.87L537.82,216.75L536.78,214.6L534.61,215.65L534.38,219.85L529.38,218.62L532.27,215.57L531.87,214.22L529.62,216.27L525.7,214.34L526.04,218.4L524.97,216.15L521.88,214.56L521.88,214.56L519.77,213.9L517.86,209.85z"/>
		<path id="HR-17" title="Splitsko-dalmatinska županija" class="land" d="M278.8,503.39l1.37,0.93l-1.38,1.91l1.02,0.44l2.43,-2.26l2.39,1.24l1.43,-1.16l-0.09,3.01l-2.52,3.09l-12.1,3.29l-4.52,-0.1l2.3,-2.23l0.09,-2.1l-0.98,-1.4l-1.81,0.96l-1.34,-2.06l4.7,-2.61L278.8,503.39zM331.43,500.89l5.05,1.67l-2.79,1.14l-5.33,-1.02L331.43,500.89zM296.13,490.22l3.03,1.7l1.98,-0.65l0.19,1.63l-3.71,0.37l-3.6,-1.75L296.13,490.22zM318.08,482.19l1.06,-0.06l-0.64,1.84l1.41,1.9l2.74,-1.74l6.31,0.85l-0.3,2.08l3.53,2.77l-2.74,-0.49l5.47,3.51l2.35,-1.2l9.69,1.26l3.74,-0.85l2.15,1.48l21.41,2.56l4.15,-0.93l5.26,2.15l-8.55,1.57l-18.32,0.26l-16.86,-2.22l-11.37,0.86l-12.65,-2.66l-6.49,-3.24l-1.43,0.85l-10.38,-5.3l5.46,0.13l5.61,-2.39l5.59,1.03l4.22,3.48l3.06,-0.75l-2.1,-0.75l-2.06,-4.15l-1.84,1.08l-1.95,-1.99L318.08,482.19zM305.79,459.61l10.79,0.14l23.87,4.43l0.25,1.19l1.64,-0.77l2.08,1.16l0.26,0.85l1.05,1.15l0.95,-1.4l6.2,4.54l-1.33,0.52l0.86,1.25l-1.36,0.45l-0.05,1.9l-1.76,-0.54l-0.91,2.1l-6.64,1.3l-16.17,0.94l-10.93,-2.04l-7.94,-4.12l-0.95,-0.68l-3.55,-1.79l-0.2,-2.44l1.72,1.63l2.39,-0.43l-1.53,-2.76l2.9,-1.11l-3.2,-4.45L305.79,459.61zM284.96,456.31l5.35,1.48l0.55,1.49l2.81,-0.3l7.3,9.42l-1.87,0.37l-7.78,-3.93l0.29,-1.02l-10.65,-3.62l-0.48,-3.55L284.96,456.31zM268.99,450.47l0.83,1.21l-1.11,1.44l-3.49,-1.56L268.99,450.47zM274.29,450.07l2.62,0.23l0.19,3.28l-6.12,0.53L274.29,450.07zM288.76,442.1l11.52,3.93l-8.01,0.73l-4.45,-1.48l-2.77,1.88l-4.2,-2.16l5.28,0.11l0.29,-2.09l-1.89,-0.73L288.76,442.1zM261.51,443.96l2.51,-1.12l0.63,-2.47l4.58,-1.12l-0.67,-3.73l-2.81,-0.47l-1.32,-3.36l3.07,-3.32l2.92,-0.65l3.15,-5.03l4.45,-0.13l1.22,-3.31l4.65,0.39l1.9,-2.68l7.93,0.58l3.04,-3.42l-2.06,-2.7l2,-2.15l-1.23,-2.87l9.31,-7.24l-10.18,-9.64l1.66,-5.37l6.44,0.83l-0.95,-3.02l4,-0.53l5,-3.48l4.39,0.24l0,0l16.83,14.25l0.88,5.94l2.7,4.43l6.24,2.79l2.85,4.98l8.16,7.18l14.23,18.51l3.14,-0.21l7.72,7.43l8.4,-0.33l3.31,2.25l2.72,5.71l-3,8.68l7.9,14.73l0.84,4.48l5.36,1l2.73,2.11l2.29,4.16l-0.52,3.03l1.51,0.38l0,0l-3.57,3.34l-5.26,-1.3l-2.17,1.09l0.17,2.02l3.57,1.15l-0.06,2.88l-2.67,2.99l0,0l-1.42,-2.63l-4.81,-2.2l-3.12,-3.43l-8.82,-3.21l-6.39,-4.85l-0.63,-2.63l-2.84,-0.92l-2.83,-5.21l-16.87,-18.55l-16.95,-1.8l-3.52,-4.3l-4.94,0.74l-12.1,-8.36l-14.39,-1.56l5.23,-2.86l3.77,0.23l-0.6,-1.36l-12.12,-2.15l-6.01,3.69l-8.58,2.13l-8.09,-1.29l-1.6,1.11l5.94,1.51l0.3,1.27l-6.46,3.1l-4.86,-1.96l-0.8,1.39l-2.26,-0.47l0.53,-1.69l-2.9,0.67L261.51,443.96z"/>
		<path id="HR-18" title="Istarska županija" class="land" d="M26.76,238.78l3.45,2.72l-2.57,0.16l-0.32,-1.54l-2.04,-1.09L26.76,238.78zM54.5,153.03l5.25,4.02l4.8,0.44l0,0l0.02,4.34l1.73,3.04l7.91,5.03l-1.98,3.35l3.17,8.43l-2.11,2.42l-0.65,6.58l1.6,6.59l-0.72,6.92l2.54,1.67l0,0l-5.02,10.31l-1.28,1.3l-1.21,-0.99l-0.73,1.71l1.29,1.31l-0.38,4.51l1.74,6.1l-2.38,4.16l-4.29,-1.87l-4.37,3.72l0.85,-3.64l2.21,-0.94l-1.79,-4.12l-2.4,0.13l-0.89,-5.63l-0.82,6.17l3.19,0.83l0.77,2.32l-1.23,0.03l-1.23,4.42l-0.23,1.43l-2.34,4.79l-2.28,1.78l-2.55,-1.4l0.01,1.4l2.4,1.22l-2.6,6.45l2.47,5.37l-5.57,0.01l-4.1,-3.9l-0.84,1.82l2.41,2.11l-0.34,3.92l-1.52,1.09l-0.33,-5.87l-4.91,-0.93l-0.85,-1.21l1.3,-1.37l-2.86,-0.01l0.41,-2.5l-4.05,-1.86l-0.09,-1.86l4.18,1.67l1.2,-2.87l-3.1,0.96l-2.35,-1.91l1.94,-3.48l-5.26,-10.35H25.39l-2.57,-3.4l0.21,-1.98l-2.34,-0.16l-0.11,-3.96l-6.54,-2.77l1.2,-0.22l0.32,-3.75l-3.57,-2.66l-0.98,-3.8l1.47,-2.56l-2.3,-2.53l1.63,-0.57l-2.48,-2.71l2.08,-6.59l-2.83,-3.09l0.99,-1.88l2.24,0.06l-3.73,-3.23l2.28,0.19l2.44,-2.45l-5.67,-0.13l0.4,-1.09l-2.47,-1l-0.13,-3.26l1.74,-0.94l-1.3,-0.4l-0.67,-5.92l-2.07,-2.12l0.82,-3.16l-1.41,-0.57L1.97,158.9l-1.94,-2.43l1.3,-2.22l2.42,0.54l15.33,8.55l7.78,-4.15l4.65,1.9l1.27,3.68l6.59,1.24l3.32,-4l4.28,-0.73l2.16,1.31l1.59,-1.31l0.42,-3.99l-3.17,-3.03l0.73,-1.31l3.21,0.65l0.76,-1.74L54.5,153.03z"/>
		<path id="HR-19" title="Dubrovačko-neretvanska županija" class="land" d="M468.2,560.19l0.41,2.24l-3.51,-1.95L468.2,560.19zM462.86,559l1.16,1.25l-2.68,0.53l-2.54,-2.13l1.48,0.39l0.96,-1.6L462.86,559zM446.4,550.24l3.78,1.55v1.42l-3.54,-2.56L446.4,550.24zM449.25,549.27l2.15,0.1l6.27,4.54l-0.32,3.37L449.25,549.27zM349.59,547.15l6.84,0.17l0.33,2.43l-3.45,3.54l-1.87,0.53l-1.94,-1.95l-2.71,1.99l-2.96,-3.54l1.26,0.38l0.99,-4.41L349.59,547.15zM401.67,542.95l2.7,-0.11l-2.66,1.32l0.78,0.79l6.35,-0.11l16.15,5.93l0.28,1.18l4.47,-0.15l0.75,1.18l1.94,-0.95l0.29,1.52l7.87,2.26l0.51,2.83l-10.95,-3.87l-14.14,-2.22l-5.34,-2.96l-1.51,1.22l-3.55,-2.53l-2.14,-0.58l-0.05,1.48l-5.95,-2.58l0.34,-1.62L401.67,542.95zM331.78,516.04l16.02,4.92l6.09,-1.97l14.42,-1.37l-0.27,0.97l6.71,2.09l2.67,-0.66l2.52,5.02l4.44,1.55l-8.7,1.42l-7.52,-2.39l-7.63,-0.44l-11.48,4.89l-1.68,-0.59l0.54,-1.27l-8.13,0.31l-10.74,-3.53l-0.69,1.9l-2.43,-2.94l3.1,-0.9l-0.65,-1.42l4.92,-0.55l-5.73,-3.98l-1.01,1.59l-1.8,-1.55L331.78,516.04zM364.22,508.38l6.42,3.12l10.12,-0.23l13.7,3.23l14.77,7.2l0.65,3.33l4.18,2.62l4.07,0.99l-1.38,-2.97l1.08,-0.08l12.57,7.5l3.22,0.17l5.38,5.09l1.31,-0.13l-4.67,-4.7l-4.93,-2.62l0.95,-1.65l3.36,-3.68l3.54,0.61l6.45,4.28l2.55,-4.03l3.64,3.04l2.19,8.27l2.41,0.77l-0.55,3.32l6.05,1.63l4.68,2.94l1.28,3.09l3.45,0.76l6.66,4.98l-0.11,3.41l4.28,1.18l1.23,3.27l2.81,-0.35l7.29,8.7l7.4,-3.42l4.51,0.59l7.12,7.27l1.84,8.05l-0.89,4.01l7.04,8.04l-0.8,2.5l-5.73,-6.78l-2.34,-0.14l-19.99,-14.6l-1.26,-2.33l0.69,-3.49l-2.27,-3.14l-2.86,1.06l-5.63,-3.6l-6.76,-1.51l1.17,-2.54l-20.13,-13.12l1.14,-3.48l-2.17,1.6l-2.41,-3.85l-4.92,-0.58l-1.33,2.84l-4.11,-3.16l2.72,4.37l-1.03,2.4l-2.16,-4.38l-3.24,-0.55l-3.15,-2.81l-2.03,0.58l-21.67,-7.72l-1.82,-1.07l2.27,-2.41l-3.39,-2.62l-5.79,-0.37l-15.04,-9.54l-8.64,1.03l-6.75,-1.48l-5.48,-3.13l1.93,-2.51l-1.98,-0.49L364.22,508.38zM412.7,492.24l16.81,10.27l7.45,16.42l-10.18,4.37l-7.94,-0.06l-6.7,-6.65l0.94,-2l-2.25,-3.16l-2.78,1.37l-0.92,-7.37l-1.49,3.8l-6.26,-7.41l0,0l2.67,-2.99l0.06,-2.88l-3.57,-1.15l-0.16,-2.02l2.17,-1.09l5.26,1.3l3.57,-3.34l0,0L412.7,492.24z"/>
		<path id="HR-20" title="Međimurska županija" class="land" d="M301.46,1.88L310.56,5.22L313.86,9.45L327.43,11.98L333.93,22.38L335.67,21.3L338.27,24.35L342.23,23.44L348.01,28.3L348.01,28.3L345.56,38.28L343.15,38.64L342.63,34.86L341.16,36.77L340.61,35.38L338.81,36.31L338.81,36.31L334.81,35.56L335.38,32.73L331.92,35.32L329.75,33.29L321.79,35.37L317.25,31.9L315.37,34.47L312.42,34.31L312.24,35.37L306.42,34.16L305.76,32.29L302.03,34.29L300.81,32.9L297.02,32.88L293.81,27.57L289.62,25.37L289.62,25.37L291.41,21.56L287.62,16.89L285.5,7.66L287.35,4.17L294.69,2.38L295.25,0.5L297.31,0.3L298.35,2.01L300.31,0z"/>
		<path id="HR-21" title="Grad Zagreb" class="land" d="M275.57,85.84L277.89,90.64L278.06,96.55L280.58,97.71L283.75,105.04L280.68,106.63L280.17,111.54L274.63,109.96L273.55,112.27L262.92,118.95L261.74,123.06L259.27,123.51L258.36,129.45L254.8,137.02L252.7,138.76L248.96,138.76L249.32,135.46L245.6,131.79L236.37,127.4L235.51,123.59L238.61,119.38L243.52,122.56L245.3,121.18L246.02,118.17L240.6,114.59L242.69,112.01L240.91,106L242.65,102.66L254.29,95.01L254.29,95.01L267.39,88.01L270.89,87.65L271.59,85.75z"/>
	</g>
</svg>