<?xml version="1.0" encoding="utf-8"?>
<!-- (c) ammap.com | SVG map of Cyprus - Low -->
<svg xmlns="http://www.w3.org/2000/svg" xmlns:amcharts="http://amcharts.com/ammap" xmlns:xlink="http://www.w3.org/1999/xlink" version="1.1">
	<defs>
		<style type="text/css">
			.land
			{
				fill: #CCCCCC;
				fill-opacity: 1;
				stroke:white;
				stroke-opacity: 1;
				stroke-width:0.5;
			}
		</style>

		<amcharts:ammap projection="mercator" leftLongitude="32.271509" topLatitude="35.695073" rightLongitude="34.589764" bottomLatitude="34.565124"></amcharts:ammap>

		<!-- All areas are listed in the line below. You can use this list in your script. -->
		<!--{id:"CY-01"},{id:"CY-02"},{id:"CY-03"},{id:"CY-04"},{id:"CY-05"},{id:"CY-06"}-->

	</defs>
	<g>
		<path id="CY-01" title="Nicosia" class="land" d="M174.6,142.45l13.29,4.11l0.89,-1.24l7.19,-0.29l1.15,1.08l5.62,-3.89l-0.18,3.57l7.22,3.83l2.25,-1.63l5.21,0.45l0,0l6.96,-0.77l0,0l2.96,1.59l1.1,-1.66l2.93,2.01l0.78,-3.13l3.56,1.72l-1.2,-1.79l0.86,-0.86l3.24,2.81l5.78,-0.54l3.06,2.1l1.07,3.63l3.92,-0.7l0.86,1.31l0.63,-3.48l2.33,0.35l0.39,-2.42l1.57,1.02l3.09,-1.66l5.55,3.73l0.81,-1.53l6.59,1.21l2.17,2.39l1.33,-1.4l12.56,0.54l16.35,-4.18l0.47,-5.93l3.48,-3.92l8.61,0.64l4.08,-1.72l3.82,0.89l-3.32,1.31l1.94,0.7l5.07,-2.23l3.35,1.53l2.07,-0.86l0,0l1.18,11.35l2.8,1.28l1.41,3.35l-4.24,2.81l3.43,14.85l-0.94,2.68l-6.54,6.53l2.49,4.68l9.44,1.53l1.73,4.23l0,0l-3.74,6.65l-9.13,-2.13l-1.46,-2.67l-3.82,-1.05l-5.39,4.68l1.31,4.23l-5.42,4.1l-1.18,5.76h3.48l3.5,12.12l2.17,0.64l-0.21,2.61l-1.96,-0.67l0.34,5.63l-3.4,2.48l0.58,4.67l-7.72,-3.72l-5.86,4.61l-6.2,-4l-3.66,-0.6l1.31,7.37l-2.41,5.27l-2.41,1.33l-5.94,-1.94l-8.58,2.67l-0.86,-2.45l-3.92,-2.41l-4.71,4.16l-0.99,3.94l-11.09,8.26l-3.9,-0.06l1.44,-0.83l-0.05,-2.92l-3.74,-0.22l0.58,-1.9l-10.12,2.38l-0.84,-2.83l-2.2,-0.25l-1.2,1.56l-2.72,-2.79l-2.04,1.94l0.58,2.35l-4.55,0.57l-4.68,4.76l0,0l-4.58,-0.79l-1.44,-2.6l-3.61,-1.02l-3.74,0.41l-3.19,2.54l-3.4,-2.67l-2.51,-6.6l-8.55,-3.24l-5.05,-7.02l-9.52,-1.49l-10.36,6.93l-5.86,-1.56l-7.3,0.67l-2.15,-2.67l-3.32,0.25l-12.01,-5.4l-1.7,3.43l-3.98,-0.06l-1.07,1.46l0.76,3.08l-1.99,9.62l0,0l-2.85,0.92l-0.13,-2.64l-4.71,-1.87l-1.86,1.37l-3.11,7.84l-6.46,-2.54l3.61,-2.92l-5.18,-0.83l-1.02,5.49l-2.48,-4.7l-2.64,-1.62l-1.23,-7.34l3.09,-0.92l-0.18,-4.35l1.91,-3.21l-0.81,-5.47l-2.33,-0.57l2.35,-3.05l-0.24,-2.19l-1.86,-3.88l-1.96,-0.76l-1.7,-5.66l-7.01,-2.29l-2.93,-7.03l-2.25,-0.6l2.22,-4.49l3.11,0.29l1.7,-1.85v-10.76l-5.91,-2.39l0.05,-5.19l-4.81,-2.36l-3.4,-4.87l-4.37,-2.99l0,0l6.04,-2.74l3.95,0.16l4.68,-4.56l1.88,1.15l3.43,-1.88l6.54,0.22l2.59,2.33l15.77,2.23l1.57,2.17l9.94,3.66l3.17,3.18l7.93,3.69l3.87,-0.8l11.17,-6.05l4.53,-4.87l3.82,-7.65L174.6,142.45z"/>
		<path id="CY-02" title="Limassol" class="land" d="M131.41,256.98L133.4,247.35L132.64,244.27L133.72,242.81L137.69,242.88L139.39,239.44L151.4,244.84L154.72,244.59L156.86,247.26L164.16,246.59L170.02,248.15L180.38,241.22L189.9,242.72L194.95,249.74L203.5,252.98L206.01,259.58L209.41,262.25L212.61,259.71L216.35,259.29L219.96,260.31L221.39,262.91L225.97,263.71L225.97,263.71L224.38,271.13L228.46,271.67L229.42,273.45L234.47,273.07L239.36,275.83L245.33,276.37L252.16,282.78L253.65,287.15L258.93,290.14L263.09,297.62L261.15,309.66L263.17,316.35L263.17,316.35L261.96,319.48L259.01,320.43L241.88,320.18L229.92,317.96L208.21,325.94L202.33,332.06L199.63,331.99L197.04,334.62L197.51,337.63L195.5,336.23L192.65,345.95L193.3,355.31L200.47,363.38L198.22,364.9L184.2,361.55L181.66,363.22L177.19,362.37L173.53,363.66L175.46,361.17L174.76,356.14L170.94,347.28L167.43,341.33L158.15,332.31L151.35,331.42L149.88,333.32L145.09,332.12L143.81,333.76L136.44,332.97L131.88,335.32L128.27,335.32L124.4,338.48L118.28,337.5L116.82,340.06L113.55,340.38L106.96,336.8L98.85,334.81L98.85,334.81L99.14,324.77L97.1,320.56L101.83,318.31L102.59,313.78L107.22,313.24L111.95,308.14L116.9,306.81L118.1,300.19L119.38,299.62L117.39,296.76L114.02,296.06L114.28,293.66L112.66,292.67L115.61,289.56L117.79,290.33L119.75,284.49L125.45,282.21L126.68,275.01L137.14,266.79L136.72,263.07L132.28,261.9z"/>
		<path id="CY-03" title="Larnaca" class="land" d="M346.79,192.44L353.91,190.88L354.85,193.17L362.07,197.47L363.06,210.04L368.61,209.27L369.6,206.86L373,206.63L377.42,202.75L378.57,203.96L375.67,210.77L377.84,214.46L384.62,210.16L388.12,212.26L388.33,215.63L392.31,218.08L392.41,220.69L396.02,221.1L395.16,223.08L403.16,223.14L405.99,225.62L417.63,225.27L421.34,237.28L424.22,238.4L426.94,237.54L426.94,237.54L424.14,242.43L415.48,245.96L408.18,239.57L394.27,234.2L382.99,233.44L369.16,236.58L363.14,240.75L360.29,245.19L358.98,249.13L360.29,251.17L359.22,250.5L359.53,254.18L358.17,255.1L358.2,270.44L350.38,280.08L348.86,286.17L343.58,284.62L335.39,285.06L321.84,295.43L320.69,298.25L314.36,298.66L303.08,302.44L299.76,305.89L293.98,307.35L287.81,312.39L281.63,312.45L275.91,316.22L273.45,316.28L274.39,317.39L270.54,314.67L266.33,314.51L263.17,316.35L263.17,316.35L261.15,309.66L263.09,297.62L258.93,290.14L253.65,287.15L252.16,282.78L245.33,276.37L239.36,275.83L234.47,273.07L229.42,273.45L228.46,271.67L224.38,271.13L225.97,263.71L225.97,263.71L230.65,258.95L235.21,258.37L234.63,256.02L236.67,254.09L239.39,256.88L240.59,255.33L242.79,255.58L243.63,258.41L253.75,256.02L253.18,257.93L256.92,258.15L256.97,261.07L255.53,261.9L259.43,261.96L270.52,253.71L271.51,249.77L276.22,245.61L280.14,248.02L281.01,250.47L289.59,247.8L295.52,249.74L297.93,248.4L300.34,243.13L299.03,235.76L302.69,236.36L308.89,240.37L314.75,235.76L322.47,239.48L321.89,234.8L325.29,232.33L324.95,226.7L326.91,227.37L327.12,224.76L324.95,224.13L321.45,212.01L317.97,212.01L319.14,206.25L324.56,202.15L323.25,197.92L328.64,193.24L332.46,194.29L333.92,196.96L343.05,199.09z"/>
		<path id="CY-04" title="Famagusta" class="land" d="M606.95,5.23l-4.21,8.08l0.47,4.78l-3.03,4.39l-7.19,0.77L591.94,25l-4.71,0.13l-4.58,3.75l-7.51,1.44l-10.96,8.17L560,49.85l-2.59,0.51l-5.44,5.15l-5.54,1.73l-17.92,16.63l-25.56,11.38l-14.12,9.43l-14.81,15.97l-1.49,8.94l-2.85,3.99l-13.52,2.2l-3.84,-2.2l-5.65,0.8l-8.87,6.64l-9.99,16.94l-0.97,15.65l3.11,8.63l-0.42,2.42l1.05,2.33l1.99,0.32l4.03,8.34l3.14,0.45l0.37,1.15l-1.75,-0.38l1.05,1.31l1.6,-0.35l1.62,5.63l7.11,10.18l9.91,7.86l7.53,11.13l2.56,1.11l-0.08,3.12l3.9,5.05l-2.2,1.88l1.67,4.16l2.3,0.54l0.5,1.56l-0.58,1.65l-2.56,-2.7l-2.48,1.88l-3.11,-2.96l-6.72,-2.03l-3.48,-2.77l-8.71,0.38l-3.17,-1.94l-3.43,0.6l-0.39,1.97l-1.83,-0.64l-12.42,4.04l0,0l-2.72,0.86l-2.88,-1.11l-3.71,-12.01l-11.64,0.35l-2.83,-2.48l-8,-0.06l0.86,-1.97l-3.61,-0.41l-0.1,-2.61l-3.98,-2.45l-0.21,-3.37l-3.5,-2.1l-6.77,4.29l-2.17,-3.69l2.9,-6.81l-1.15,-1.21l-4.42,3.88l-3.4,0.22l-0.99,2.42l-5.55,0.76l-0.99,-12.57l-7.22,-4.3l-0.94,-2.29l-7.12,1.56l0,0l-1.73,-4.23l-9.44,-1.53l-2.49,-4.68l6.54,-6.53l0.94,-2.68l-3.43,-14.85l4.24,-2.81l-1.41,-3.35l-2.8,-1.28l-1.18,-11.35l0,0l-1.65,-4.34l17.89,-7.47l1.78,-2.62l2.54,0.77l6.36,-1.79l0.81,-2.3l2.41,-0.64l0.37,-2.23l-4.11,-1.25l-0.76,-3.29l0,0l1.05,-1.47l2.43,0.51l5.39,-2.4l5.99,-5.84l16.64,-8.21l20.51,0.22l7.77,-2.46l2.56,-2.36l2.56,0.58l4.94,-1.76l0.47,-1.41l3.87,0.19l4.26,-3.23l6.51,-0.38l13.31,-7.83l4.87,-0.93l9.16,-7.29l2.07,0.54l9.81,-3.55l7.69,-11.2l3.74,-1.79l2.04,-5.38l3.87,1.76l3.32,-0.06l1.2,-1.54l1.36,1.92l1.78,-1.73l2.54,1.25l5,-4.51l3.19,0.16l4.5,-3.04l2.67,1.18l7.87,-5.12l1.78,-4.07l1.8,1.15l3.17,-3.07l0.18,-4.1l5.73,-0.93l4.34,-3.3l6.38,0.13l8.03,-6.57l5.91,0.99l4.84,-2.47l2.62,0.38l3.61,-3.11l0.24,-2.4l4.94,1.76l3.61,-2.34l1.73,-3.27L606.95,5.23z"/>
		<path id="CY-05" title="Paphos" class="land" d="M75.91,173.37l2.12,0.19l0,0l4.37,2.99l3.4,4.87l4.81,2.36l-0.05,5.19l5.91,2.39v10.76l-1.7,1.85l-3.11,-0.29l-2.22,4.49l2.25,0.6l2.93,7.03l7.01,2.29l1.7,5.66l1.96,0.76l1.86,3.88l0.24,2.19l-2.35,3.05l2.33,0.57l0.81,5.47l-1.91,3.21l0.18,4.35l-3.09,0.92l1.23,7.34l2.64,1.62l2.48,4.7l1.02,-5.49l5.18,0.83l-3.61,2.92l6.46,2.54l3.11,-7.84l1.86,-1.37l4.71,1.87l0.13,2.64l2.85,-0.92l0,0l0.86,4.92l4.45,1.17l0.42,3.71l-10.46,8.22l-1.23,7.2l-5.7,2.28l-1.96,5.84l-2.17,-0.76l-2.96,3.11l1.62,0.98l-0.26,2.41l3.37,0.7l1.99,2.85l-1.28,0.57l-1.2,6.62l-4.94,1.33l-4.73,5.1l-4.63,0.54l-0.76,4.53l-4.73,2.25l2.04,4.21l-0.29,10.04l0,0l-9.44,-3.17l-5.49,-4.59l-9.63,-4.91l-6.17,0.03l-4.05,-3.1l-5.39,1.3l-12.01,-9.76l-3.71,-0.32l-4.94,-6.56l-4,0.25l1.73,-3.68l-1.46,-5.93l-1.86,-1.59l-1.44,-15.67l-1.78,-2.32l-3.3,-0.1l-0.42,-2.35l-1.52,1.02l-0.34,-1.84l-3.19,0.16l-1.57,-4.95l-6.57,-8.48l2.33,-3.24l0.05,-4.64l-3.37,-7.27l-2.72,-0.86l0.03,-2.64l1.75,0.57l1.28,-1.91l-1.13,-2.13l1.13,-8.2l-4.68,-6.87l-1.62,0.25l-4.63,-9.95l0.39,-12.98l0.81,-3.15l2.41,-2.01l4.55,4.58l0.44,2.48l14.18,11.48l11.01,2.64l7.93,-1.94l12.84,-9.51l6.98,-10.85l4.42,-10.79l4.29,-2.83l2.83,-6.63l1.26,-0.51L75.91,173.37z"/>
		<path id="CY-06" title="Kyrenia" class="land" d="M173.61,101.66l9.02,3.16l7.35,6.45l9.65,-0.13l8.79,4.25l8.5,0.35l4.47,-4.57l1.1,1.56l3.45,-0.35l9.5,4.21l3.82,0.42l3.06,-2.52h2.64l10.07,4.44l3.87,-2.01l4.53,1.92l3.48,-1.18l3.69,2.07l7.25,0.1l4.6,2.17l3.56,-0.83l2.59,1.05l1.81,-1.4l1.28,1.28l10.91,0.77l9.68,-1.66l4.58,1.44l13.71,-4.47h8.97l10.67,-4.47l1.44,1.69l10.04,-1.37l0,0l0.76,3.29l4.11,1.25l-0.37,2.23l-2.41,0.64l-0.81,2.3l-6.36,1.79l-2.54,-0.77l-1.78,2.62l-17.89,7.47l1.65,4.34l0,0l-2.07,0.86l-3.35,-1.53l-5.07,2.23l-1.94,-0.7l3.32,-1.31l-3.82,-0.89l-4.08,1.72l-8.61,-0.64l-3.48,3.92l-0.47,5.93l-16.35,4.18l-12.56,-0.54l-1.33,1.4l-2.17,-2.39l-6.59,-1.21l-0.81,1.53l-5.55,-3.73l-3.09,1.66l-1.57,-1.02l-0.39,2.42l-2.33,-0.35l-0.63,3.48l-0.86,-1.31l-3.92,0.7l-1.07,-3.63l-3.06,-2.1l-5.78,0.54l-3.24,-2.81l-0.86,0.86l1.2,1.79l-3.56,-1.72l-0.78,3.13l-2.93,-2.01l-1.1,1.66l-2.96,-1.59l0,0l-6.96,0.77l0,0l-5.21,-0.45l-2.25,1.63l-7.22,-3.83l0.18,-3.57l-5.62,3.89l-1.15,-1.08l-7.19,0.29l-0.89,1.24l-13.29,-4.11l0,0l0.86,-11.68l-1.1,-11.58l-3.35,-4.98l-0.37,-14.47L173.61,101.66z"/>
	</g>
</svg>