<?xml version="1.0" encoding="utf-8"?>
<!-- (c) ammap.com | SVG map of Czech Republic High -->
<svg xmlns="http://www.w3.org/2000/svg" xmlns:amcharts="http://amcharts.com/ammap" xmlns:xlink="http://www.w3.org/1999/xlink" version="1.1">
	<defs>
		<style type="text/css">
			.land
			{
				fill: #CCCCCC;
				fill-opacity: 1;
				stroke:white;
				stroke-opacity: 1;
				stroke-width:0.5;
			}
		</style>

		<amcharts:ammap projection="mercator" leftLongitude="12.090991" topLatitude="51.055529" rightLongitude="18.859691" bottomLatitude="48.551226"></amcharts:ammap>

		<!-- All areas are listed in the line below. You can use this list in your script. -->
		<!--{id:"CZ-JC"},{id:"CZ-JM"},{id:"CZ-KA"},{id:"CZ-KR"},{id:"CZ-LI"},{id:"CZ-MO"},{id:"CZ-OL"},{id:"CZ-PA"},{id:"CZ-ZL"},{id:"CZ-PL"},{id:"CZ-PR"},{id:"CZ-ST"},{id:"CZ-US"},{id:"CZ-VY"}-->

	</defs>
	<g>
		<path id="CZ-JC" title="Jihočeský" class="land" d="M151.5,659.74L153.04,660.49L156.67,657.96L158.36,660.25L161.16,658.24L161.92,659.86L163.6,659.68L162.92,660.67L166.59,661.51L168.19,659.15L170.51,660.08L171.09,658.31L172.49,659.07L174.01,656.2L173.54,654.6L174.81,654.92L176.22,653.32L179.3,653.76L179.23,657.65L181.85,657.71L182.31,656.68L183.99,657.83L183.64,656.35L186.19,657.54L190.41,656.46L191.63,657.24L193.19,652.96L197.5,652.47L199.75,655.49L200.36,654.78L202.93,656.25L202.69,657.97L203.53,657.14L205.85,657.99L207.7,655.67L210.13,656.53L209.46,653.54L211.31,655.86L212.8,654.85L214.72,657.31L215.87,655.32L223.37,657.31L225.99,655.54L225.34,659.1L230.03,658.93L231.17,661.15L231.46,658.99L234.41,656.31L239.21,654.88L237.94,652.25L238.64,648.12L240.16,648.4L239.83,647.01L241.63,646.37L242.07,644.72L243.15,646.99L243.15,646.99L243.85,646.99L243.85,646.99L246.23,647.4L249.12,651.12L250.06,649.36L251.98,649.57L253.26,654.22L255.61,655.49L255.61,655.49L256.5,655.22L256.5,655.22L256.98,654.65L256.98,654.65L257.9,658.24L254.61,658.21L254.1,659.54L257.06,663.9L255.73,665.15L256.44,667.63L254.1,671.6L255.36,672.07L252.99,678.74L257.07,681.63L254.43,684.78L261.2,692.8L262.34,693.04L265.81,689.85L268.75,693.29L272.54,693.59L272.2,696.42L269.9,695.86L272.05,697.54L274.26,696.63L275.72,700.22L275.72,700.22L276.59,700.22L276.59,700.22L278.08,700.92L280.34,698.15L286.26,700.68L285.9,702.42L287.19,701.06L293.99,700.87L294.79,704.11L293.54,707.79L301.44,714.49L302.99,712.43L305.38,714.3L308.55,714.33L309.83,712.69L311.51,713.5L312.27,712.07L314.36,713L314.86,714.74L313.36,714.86L316.62,716.31L315.81,717.08L317.51,718.72L316.47,719.1L317.04,720.4L313.11,720.15L313.22,722.28L311.96,722.72L312.68,724.79L310.63,725.54L311.38,727.19L307.2,731.04L307.8,732.17L309.08,730.92L310.48,731.5L310.52,733.97L315.53,735.37L314.95,736.73L316.09,737.75L316.09,737.75L314.39,738.64L313.7,740.5L314.65,740.63L312.86,741.18L312,743.32L312,743.32L309.65,742.62L308.43,739.45L305.47,737.32L304.35,738.23L301.57,737.37L296.28,733.21L290,733.41L288.33,731.4L286.77,737.07L283.43,736.17L280.25,738.5L277.64,738.6L278.43,735.99L276.7,733.36L277.23,731.63L269.21,730.78L268.57,728.54L262.74,728.61L262.88,731.83L260.94,734.9L262.35,743.82L261.65,747.87L260.49,748.07L261.68,752.31L260.56,752.36L258.87,758.42L261.29,761L260.93,762.41L259.07,763.85L252.96,762.21L252.29,760.81L245.86,761L245.74,767.18L238.4,773.56L237.07,778.56L237.86,785.3L236.08,787.87L232.76,787.94L231.28,784.12L229.1,784.57L227.94,781.55L223.42,784.87L221.94,783.44L218.11,783.14L215.15,778.9L212.8,779.61L213.85,782.08L211.57,787.03L207.67,786.39L207.85,789.25L205.01,788.92L202.86,792L202.01,790.38L197.24,788.01L194.55,788.54L189.99,786.41L184.58,785.76L183.16,786.92L181.34,786.51L181.39,785.47L178.73,786.11L178.88,784.53L176.45,783.67L176.94,781.57L175.34,781.83L173.62,780.1L174.92,778.22L177.46,778.23L178.07,775.32L175.77,774.98L172.97,770.65L168.73,769.96L161.28,762.59L155.72,761.66L155.9,758.44L153.92,754.09L151.32,753.32L148.99,746.37L146.99,747.51L143,747.2L138.57,739.15L139.22,737.77L137.3,739.28L134.76,734.81L132.08,735.16L132.08,735.16L130.8,732.69L131.48,728.07L133.99,723.78L135.46,724.58L136.91,723.04L136.37,718.53L134.73,716.25L136.3,715.77L135.54,713.25L136.5,711.28L135.49,710.57L139.26,711.97L141.78,708.76L145.03,708.21L144.18,707.88L144.83,704.91L147.3,703.77L144.85,700.37L144.85,700.37L144.85,699.79L144.85,699.79L145.44,697.86L146.44,698.16L146.04,697L147.84,697.21L148.16,695.18L146.19,695.14L145.55,692.18L147.99,692.38L148.73,690.4L147.35,689.51L147.58,687.85L152.09,685.9L151.81,683.58L153.73,680.4L150.87,675.63L151.31,672.42L153.45,670.75L151.43,668.25L151.85,663.81L149.98,663.51L150.31,662.46L150.31,662.46L150.31,661.96L150.31,661.96z"/>
		<path id="CZ-JM" title="Jihomoravský" class="land" d="M502.56,751.01l-4.38,2.01l-0.72,1.92l-4.05,1.29l-2.77,0.16l-5.74,-4.19l-5.07,4.31l-2.94,0.08l-3.91,-4.23l-1.39,0.38l-2.45,-2.44l-7.53,-2.26l-3.68,4.14l-3.95,2.04l-1.99,6.08l-4.03,2.75L444,770.4l0.88,2.05l-3.62,3.62l0.47,2.87l-3.12,4.27l-2.03,-0.85l0.79,-2.71l-2.28,-10.27l-2.03,-0.75l-1.12,1.58l-3.04,-0.72l-3.01,1.52l-3.86,-1.39l-0.95,-2.23l-2,-0.75l-3.88,1.34l-1.65,-7.23l-6.32,-0.15l-4.82,-4.35l-1.92,2.05l-4.54,-1.03l-1.8,0.89l-1.29,4.64l-5.02,5.03l-1.76,0.19l-1.66,-2.61l-0.9,2.08l-4.95,-1.35l-15.74,-0.52l-9.9,-4.58l-3.89,-3.63l0.61,-2.46l-1.36,-0.62l-0.85,1.14l-1.27,-2.67l-2.3,0.58l-0.06,-1.11l1.12,0.55l-0.66,-1.3l-1.09,0.89l-0.95,-2.49l-0.9,1.04l-2.06,-0.97l0.86,-1.08l-1.14,-1.36l-5.47,0.37l-2.42,3.18l-3.86,-1.26l-1.56,0.73l-6.74,-5.59h-3.55l-3.38,-1.63l0,0l0.86,-2.14l1.79,-0.55l-0.95,-0.12l0.69,-1.87l1.71,-0.89l0,0l0.02,-0.97l2.36,-0.4l1.09,2.32l2.19,0.51l1.15,-3.53l4.05,-0.55l2.09,2.88l2.61,-4.64l3.21,-0.59l2.17,-3.56l5.14,0.23l0.89,-4.1l2.93,1.32l1.48,-1.32l-0.2,-1.66l2.61,-0.73l0.73,2.43l2.48,1.62l2.34,-0.61l0.98,-2.3l4.82,2.31l0.23,-1.16l5.32,-0.96l-1.63,-1.68l0.88,-1.11l6.38,-0.58l1.25,-3.66l2.18,-0.34l1.76,-2.16l0.24,-1.83l-1.55,-0.68l0.63,-1.45l-2.21,1.05l0.3,-2.65l-1.17,-1.13l0.6,-1.37l3.72,-1.48l0.04,-2.11l-3.28,-1.63l1.37,-5.55l3.18,-0.69l-2.69,-2.54l0.11,-2.13l1.93,-0.87l0.8,-3.76l6.12,-3l0,0h0.8l0,0l1.88,-1.77l-1.36,-3.59l1.15,-4.06l-1.32,-0.28l-0.43,-3.71l2.23,-4.54l-3.23,-3.25l2.89,0.89l2.96,-4.25l-0.81,-2.19l-1.98,0.06l-1.34,-1.76l1.69,-1.61l-0.05,-2.59l0,0l1.35,1.2l0.98,-3.06l2.28,-0.63l0.34,1.68l3.87,-1.82l1.56,1.4l3.17,0.04l1.36,-5.65l4.5,1.38l1.63,-1.53l2.48,1.73l1.32,-1.1l3.12,0.54l6.93,3.71l2.54,-0.36l0,0l-1.43,1.15l0.61,2.36l-4.5,-1.1l-0.81,5.42l8.72,1.6l-2.02,0.07l-0.52,2.57l-1.56,0.42l0.83,7.3l1.92,0.79l0.9,2.09l-2.54,1.07l-0.33,2.25l5.7,4.27l2.93,-2.92l1.77,-4.35l-2.78,-6.38l2.03,-2.01l3.28,0.74l4.08,9.03l1.27,0.5l0.06,3.71l3.73,1.05l0.94,-2.52l0.64,1.72l-2.66,2.08l0.24,1.94l9.72,5.26l1.76,6.94l0,0l-2.66,4.08l1.62,1.97l-0.92,2.22l2.63,3.34l-1.83,2.1l3.54,0.23l1.09,-1.37l0.46,1.27l-1.38,5l-3.24,0.68l-0.81,4.09l-2.48,0.11l-0.34,3.47l3.09,0.5l6.31,-2.55l1.58,3.76l-0.89,4.47l2.58,-0.87l0.09,1.06l1.37,-0.41l0.84,2.74l5.36,-0.15l2.24,1.29l-0.58,3.82l2.08,0.51l1.6,-1.08l3.49,4.38l2.97,-1.66l1.51,0.75l1.38,-1.51l0.95,2.06l3.69,0.88l-0.9,3.4l5.65,1.67L502.56,751.01z"/>
		<path id="CZ-KA" title="Karlovarský" class="land" d="M72.5,531.11L77.58,534.84L77.58,534.84L80,536.88L84.14,536.26L86.54,538L88.06,536.77L89.57,538.24L91.17,537.98L91.14,541.29L92.73,542.96L94.39,541.21L98.87,542.59L101.21,541.01L103.69,544.6L102.77,547.03L102.77,547.03L102.55,547.03L102.55,547.03L103.35,550.02L101.73,553.22L103.41,553.6L103.61,556.86L102.27,557.71L105.32,559.92L103.35,562.63L105.88,562.97L107.14,568.23L108.22,568.27L107.89,569.82L106.27,569.78L107.81,572.59L103.67,571.95L103.67,571.95L103.62,572.06L103.62,572.06L103,573.1L104.44,574.25L107,573.95L109.54,577.94L109.54,577.94L107.75,577.98L107.38,581.07L109.27,581.42L107.72,584.57L103.32,584.99L103.38,592.3L100.53,591.54L99.09,589.48L98.57,590.44L96.76,588.37L92.02,588.46L91.08,586.98L83.94,593.73L82.75,593.27L82.26,594.88L78.64,595.56L78.64,595.56L78.64,596.65L78.64,596.65L79.19,599.84L76.45,602.48L75.4,602.1L75.72,602.97L72.88,601.11L68.92,602.56L65.06,600.36L63.1,600.25L61.75,601.83L60.68,601.16L60.68,601.16L60.71,601.34L60.71,601.34L59.02,601.16L57.85,602.67L55.43,602.23L56.27,604.21L52.69,604.65L53.4,607.06L50.29,603.57L48.01,604.06L45.63,606.76L41.7,605.1L41.7,605.1L41.14,602.74L34.49,599.76L36.99,595.79L36.16,594.5L33.49,592.55L30.93,594.03L30.84,591.53L28.23,591.18L28.09,589.65L25.12,589.44L22.41,586.32L21.5,587.31L20.55,584.46L15.45,583.68L16.71,581.14L14.27,578.19L12.77,578.63L9.89,576.52L9.4,571.89L11.35,568.18L8.93,564.54L9.66,563.91L8.38,563.84L7.61,561.82L6.29,562.2L5.42,558.71L3.34,559.1L0.13,556.78L0.69,554.94L4.51,553.07L2.61,550.03L3.17,548.74L0.97,547.1L8.51,546.52L9.89,548.81L9.99,553.55L14.88,553.8L15.89,556.67L14.01,555.52L13.49,557.31L18.38,560.85L16.68,564.26L18.04,567.06L22.29,567.63L21.07,566.4L22.45,564.88L21.07,562.8L22.13,561.13L21.74,557.91L24.38,557.86L23.73,554.99L25.4,551.78L27.93,550.68L27.95,546.58L30.83,546.48L31.78,543.79L34.23,541.91L36.11,542.68L35.88,539.65L38.16,535.97L52.66,533.15L55.71,535.92L58.31,530.94L63.72,528.54L65.08,531.09L65.9,527.06z"/>
		<path id="CZ-KR" title="Královéhradecký" class="land" d="M313.77,482.02L317.73,482.11L324.55,485.14L326.89,487.71L333.49,486.92L336.79,485.11L340.11,491.75L340.94,496.61L343.04,497.1L349.68,494.17L352.61,495.21L353.63,500.85L355.46,502.91L352.27,505.28L355.57,507.34L357.36,505.21L358.72,505.71L359.57,501.61L362.75,498.21L368.83,500.72L370.38,503.26L373.21,502.3L374.66,497.03L378.52,497.47L379.24,498.58L384.44,498.34L391.59,506.18L393.65,510.18L390.06,511.63L390.62,514.55L388.55,515.41L389.72,517.38L386.1,521.16L384.67,521.99L381.78,520.44L380.16,524.27L376.87,524.24L376.56,526.02L373.58,527.14L374.4,529.44L372.78,528.22L371.22,530.91L372.6,534.01L375.01,533.56L376.41,534.84L375.88,536.05L377.34,536.61L378.81,540.2L381.09,537.97L386.18,538.46L386.3,542.79L388.17,545.59L389.64,546.94L392.94,546.7L397.71,554.66L404.04,560.75L404.03,567.88L406.52,570.26L406.19,571.74L406.19,571.74L405.08,572.38L397.73,568.57L396.16,572.62L391.87,575.15L389.14,575.29L387.61,577.57L384.49,578.7L385.58,580.96L381.6,583.24L383.55,586.18L378.98,584.7L375.93,585.88L375.84,584.08L375.19,585.38L371.25,586.39L368.7,583.19L366.01,583.08L363.55,580.09L360.3,579.63L359.3,576.08L354.49,576.13L354.5,571.48L352.76,571.36L352.75,569.72L348.13,569.4L346.09,567.82L346.08,568.77L343.41,569.05L343.25,571.2L340.34,571.15L338.67,573.48L335.91,572.24L336.41,569.39L333.2,567.29L330.13,569.23L330.05,571.83L328.74,572.96L326.88,572.31L325.39,574.24L321.71,572.12L321.5,573.21L317.04,572.31L317.52,573.19L316.09,573.12L314.45,570.75L313.02,572.96L311.71,572.05L310.33,572.81L310.28,575.39L307.31,575.8L307.31,575.8L307.31,576.43L307.31,576.43L304.11,578.35L303.1,577.04L303.1,577.04L303.4,574.49L300.67,572.24L299.42,573L297.66,571.48L294.59,571.43L296.92,570.01L295.3,568.46L298.93,564.42L298.47,561.29L296.72,559.89L296.41,557.09L297.85,556.03L297.25,551.85L294.82,549.61L290.81,552.24L287.09,550.49L284.54,551.59L281.8,550.27L282.65,546.96L279.52,545.63L280.16,544.05L274.93,543.24L274.16,541.59L275.08,540.68L272.42,538.72L273.7,536.98L275.93,537.23L275.45,535L277.3,534.32L277.11,530.07L274.93,528.32L276.18,524.98L273.36,520.95L276.16,518.13L276.16,518.13L283.23,522.14L284.94,521.72L284.58,520.37L287.14,517.63L291.32,519.77L293.52,519.52L296.47,522.03L297.45,520.2L298.58,524.21L303.08,522.96L304,521.42L302.58,518.31L306.31,516.7L306.25,514.79L307.91,515.84L307.73,517.9L308.19,516.89L311.55,519.43L313.94,517.66L316.77,519.97L316.38,518.44L320.26,518.14L318.27,514.26L316.54,513.38L317.54,512.98L316.05,511.87L316.76,510.82L314.72,509.85L317.51,505.11L314.18,501.86L315.71,499.65L313.5,491.2L314.96,487.85L311.76,484.66L311.35,481.61L311.35,481.61z"/>
		<path id="CZ-LI" title="Liberecký" class="land" d="M264.93,446.7L266.68,448.38L268.13,448.35L268.63,446.89L272.58,448.58L272.57,451.66L275.92,451.35L275.96,448.6L278.38,447.31L278.57,452.11L280.22,453.02L284.85,450.4L284.68,452.29L287.86,453.11L287.91,455.66L289.48,456.8L287.32,459.92L288.15,465.92L291.04,470.04L295.11,471.57L296.32,473.74L296.8,481.88L298.78,482.22L302.62,477.6L311.35,481.61L311.35,481.61L311.76,484.66L314.96,487.85L313.5,491.2L315.71,499.65L314.18,501.86L317.51,505.11L314.72,509.85L316.76,510.82L316.05,511.87L317.54,512.98L316.54,513.38L318.27,514.26L320.26,518.14L316.38,518.44L316.77,519.97L313.94,517.66L311.55,519.43L308.19,516.89L307.73,517.9L307.91,515.84L306.25,514.79L306.31,516.7L302.58,518.31L304,521.42L303.08,522.96L298.58,524.21L297.45,520.2L296.47,522.03L293.52,519.52L291.32,519.77L287.14,517.63L284.58,520.37L284.94,521.72L283.23,522.14L276.16,518.13L276.16,518.13L272.17,516.77L271.62,513.65L268.92,511.3L266.61,512.16L263.54,506.54L260.83,506.84L260.14,508.35L256.21,504.5L254.72,504.77L255.4,506.15L253.67,506.89L254.25,508.92L248.94,511.32L249.24,513.29L247.4,516.41L245.76,517.66L244.84,516.88L243.72,519.87L238.24,518.63L237.58,521.42L235.2,522.4L235.06,524.03L231.85,523.4L231.05,524.31L229.8,523.23L227.93,525.22L225.97,525.02L224.85,519.79L222.11,521.9L218.81,519.99L217.93,522.42L216.38,520.58L216.38,520.58L215.26,517.58L212.52,517.16L209.36,508.86L207.01,507.16L205.19,503.18L205.39,499.15L203.64,499L204.21,496.45L206.87,494.26L206.82,490.12L208.2,489.59L208.2,489.59L208.99,489.3L208.99,489.3L210,487.37L210.22,488.35L211.54,487.89L210.38,486.94L211.33,483.6L214.02,481.55L213.16,480.77L214.04,477.9L212.79,477.13L215.66,476.43L220.03,479.27L222.58,479.07L224.06,473.34L227.2,472.89L228.69,470.42L228.69,470.42L234.97,473.25L236.63,472.82L237.61,475.44L239.92,474.57L242.2,475.99L244.87,475.59L247.9,468.27L249.61,468.79L251.47,467.6L253.76,469.09L254.08,467.9L259.39,469.86L263.26,469.2L262.56,465.62L263.67,463.69L262.14,461.18L264.36,458.89L265.07,454.87L263.73,452.24L262.03,453.3L260.24,451.53L261.75,448.6z"/>
		<path id="CZ-MO" title="Moravskoslezský" class="land" d="M510.63,549.5L511.93,549.78L509.45,555.69L513.04,558.65L512.46,562.82L508.9,562.92L507.76,565.88L498.36,567.95L497.49,569.41L502.09,573.93L502.67,576.25L505.07,577.31L505.66,575.48L506.94,575.48L509.92,578.15L513.59,585.09L514.19,589.13L518.77,590.37L518.65,592.68L522.52,595.72L527.09,594.97L530.12,591.21L532.76,591.17L534.74,589.31L535.04,590.42L538.41,591.19L538.35,586.8L536.57,586.44L535.24,587.66L534.72,586.49L534.78,584.44L537.37,582.66L542.4,585.76L542.07,587.29L543.61,588.64L542.8,589.86L544.81,592.65L546.37,592.19L548.26,594.36L549.87,593.3L549.51,592.11L553.01,592.16L553.75,595.82L559.41,596.86L559.82,600.99L563.18,603.79L564.2,601.62L565.13,602.34L566.19,601.08L564.5,599.09L567.71,600.8L573.21,600.57L573.47,601.95L578.55,605.33L582.52,605.73L583.78,604.7L583.14,602.28L586.11,602.91L586.71,605.21L585.48,608.67L589.04,611.29L587.08,612.58L585.92,615.99L591.2,627.25L590.88,630.68L594.78,633.37L598.44,633.19L599.27,636.17L601.41,637.16L605.07,635.88L607.6,637.5L607.24,640.59L609.01,648.08L610.18,648.41L610.13,653.15L612,654.7L610.41,658.77L605.27,660.63L602.75,663.06L595.85,660.54L590.44,662.17L588.83,661.92L588.31,660.24L585.55,660.56L582.79,662.82L583.74,666.25L578.83,670.53L577.41,674.28L573.99,676.63L571,676.08L571,676.08L567.42,674.8L567.53,671.1L562.17,666.61L561.33,662.97L558.68,662.71L557.15,664.04L552.57,663.1L549.22,659.32L546.62,660.4L545.81,658.83L534.11,661.17L531.9,656.43L526.67,656.33L526.67,656.33L525.69,652.72L523.65,652.58L521.98,655.4L521.13,654.54L520.07,652.82L521.95,650.41L517.53,644.68L514.24,643.29L513.83,640.48L511.27,637.11L509.12,638.65L506.46,637.06L505.54,633.13L506.86,628.92L506.86,628.92L506.64,628.92L506.64,628.92L505.99,629.79L502.83,627.21L502.83,627.21L502.11,627.25L502.11,627.25L501.16,626.58L497.73,629.15L492.25,625.34L490.9,628.23L488.61,627.68L487.56,625.66L482.67,626.05L477.5,619.03L476.22,618.17L474.5,619.04L474.5,619.04L474.04,619.04L474.04,619.04L473.17,620.18L473,619.03L466.57,616.27L463.41,617.36L464.19,611.62L460.7,613.62L457.23,608.95L457.44,607.41L457.44,607.41L457.89,607.45L457.89,607.45L459.76,604.41L458.54,602.97L460.46,601.37L460.46,601.37L460.86,601.37L460.86,601.37L461.99,597.76L457.91,594.27L459.42,593.4L459.39,589.96L465.19,583.09L464.02,577.33L466.63,574.7L465.83,571.72L469.69,567.57L471.4,567.58L472.04,565.49L474.74,565.92L478.21,560.58L481.76,562.43L482.96,556.09L482.96,556.09L485.14,555.72L485.32,553.87L488.71,553.15L493.32,553.9L497.44,552.62L499.54,554.38L506.14,549.53L506.12,545.69L508.82,546.7z"/>
		<path id="CZ-OL" title="Olomoucký" class="land" d="M436.42,529.21L441.61,532.89L443.72,531.57L448.65,534.52L453.85,534.77L453.93,536.41L456.87,538.17L462.33,537.49L462.07,540.5L466.39,545.02L470.36,547.08L475.58,545.64L474.58,547.73L475.94,548.41L474.72,551.9L475.63,554.55L476.88,554.49L477.06,552.18L479.31,552.05L482.12,552.84L482.96,556.09L482.96,556.09L481.76,562.43L478.21,560.58L474.74,565.92L472.04,565.49L471.4,567.58L469.69,567.57L465.83,571.72L466.63,574.7L464.02,577.33L465.19,583.09L459.39,589.96L459.42,593.4L457.91,594.27L461.99,597.76L460.86,601.37L460.86,601.37L460.46,601.37L460.46,601.37L458.54,602.97L459.76,604.41L457.89,607.45L457.89,607.45L457.44,607.41L457.44,607.41L457.23,608.95L460.7,613.62L464.19,611.62L463.41,617.36L466.57,616.27L473,619.03L473.17,620.18L474.04,619.04L474.04,619.04L474.5,619.04L474.5,619.04L476.22,618.17L477.5,619.03L482.67,626.05L487.56,625.66L488.61,627.68L490.9,628.23L492.25,625.34L497.73,629.15L501.16,626.58L502.11,627.25L502.11,627.25L502.83,627.21L502.83,627.21L505.99,629.79L506.64,628.92L506.64,628.92L506.86,628.92L506.86,628.92L505.54,633.13L506.46,637.06L509.12,638.65L511.27,637.11L513.83,640.48L514.24,643.29L517.53,644.68L521.95,650.41L520.07,652.82L521.13,654.54L521.98,655.4L523.65,652.58L525.69,652.72L526.67,656.33L526.67,656.33L525.32,660.11L520.08,658.5L519.77,661.11L515.09,663.36L516.21,665.76L514.2,667.4L514.13,669.4L514.13,669.4L514.13,669.4L514.13,669.4L513.73,670.34L509.03,670.3L506.52,666.82L504.08,667.72L503.95,670.1L502.54,668.42L500.25,668.73L502.73,673.39L500.81,675.62L497.29,675.9L496.43,674.51L491.67,676.04L489.47,675.31L490.53,677.82L486.74,681.77L484.43,678.47L482.73,678.97L479.27,677.23L477.75,678.28L478.77,674.84L477.31,673.57L474.06,677.83L476.08,683.36L473.01,685.05L470.49,689.13L468.52,690.16L464.66,689.61L463.13,690.91L461.46,689.85L459.97,693.81L458.26,692.87L458.26,692.87L458.26,692.87L458.26,692.87L456.49,685.93L446.77,680.67L446.53,678.74L449.19,676.66L448.55,674.94L447.61,677.46L443.88,676.41L443.82,672.7L442.55,672.2L438.47,663.17L435.19,662.43L433.16,664.44L435.93,670.82L434.16,675.18L431.23,678.1L425.54,673.83L425.87,671.59L428.41,670.52L427.51,668.42L425.59,667.63L424.76,660.33L426.31,659.92L426.83,657.35L428.85,657.28L420.13,655.68L420.94,650.26L425.44,651.36L424.84,649L426.27,647.84L426.27,647.84L426.56,644.68L427.65,644.54L425.95,642.46L426.17,640.02L430.05,636.49L430.16,631.59L428.76,629.72L424.9,630.08L426.93,627.15L425.15,625.7L426.25,624.39L422.27,620.31L422.31,617.32L420.08,615.78L420.27,611.38L422.94,609.32L417.92,592.02L421.09,591.71L421.24,592.61L421.24,592.61L421.67,591.95L421.67,591.95L422.95,589.48L426.96,587.43L427.21,583.6L425.77,582.15L427.97,579.88L426.35,576.67L428.33,575.52L431.9,566.91L431.79,563.94L431.79,563.94L433.46,563.71L434.92,560.46L440.06,560.51L441.82,557.44L443.92,561.44L446.55,559.53L444.2,555.8L445.83,552.79L444.3,549.34L439.24,547.48L435.83,537.04L431.25,534.45L433.27,529.46z"/>
		<path id="CZ-PA" title="Pardubický" class="land" d="M431.65,563.92L431.79,563.94L431.79,563.94L431.9,566.91L428.33,575.52L426.35,576.67L427.97,579.88L425.77,582.15L427.21,583.6L426.96,587.43L422.95,589.48L421.67,591.95L421.67,591.95L421.24,592.61L421.24,592.61L421.09,591.71L417.92,592.02L422.94,609.32L420.27,611.38L420.08,615.78L422.31,617.32L422.27,620.31L426.25,624.39L425.15,625.7L426.93,627.15L424.9,630.08L428.76,629.72L430.16,631.59L430.05,636.49L426.17,640.02L425.95,642.46L427.65,644.54L426.56,644.68L426.27,647.84L426.27,647.84L423.73,648.2L416.8,644.49L413.68,643.94L412.36,645.04L409.88,643.32L408.26,644.85L403.75,643.47L402.4,649.12L399.22,649.08L397.67,647.67L393.8,649.5L393.46,647.81L391.18,648.44L390.2,651.5L388.85,650.3L388.85,650.3L385.02,645.98L380.87,644.39L379.45,645L377.89,643.69L378.18,642.15L371.1,636.69L366.98,636.84L366.29,635.25L362.92,636.13L360.69,632.44L358.81,631.62L358.81,631.62L358.23,631.62L358.23,631.62L355.15,631.35L353.65,628.42L350.82,631.64L350.82,631.64L350.82,632.34L350.82,632.34L350.98,633.37L349.35,633.79L350.05,635.17L346.27,635.95L339.8,631.34L341.23,627.67L339.96,628.69L336.1,625.73L333.21,626.04L333.85,622.67L329.82,622.87L327.18,619.49L325.41,619.89L325.25,618.4L323.32,617.77L321.63,619.04L320.84,617.66L316.72,618.82L315.06,615.84L308.05,611.31L308.05,611.31L308.04,606.16L310.18,605.54L311.67,602L309.8,600L311.15,597.17L305.08,593.99L306.05,591.63L304.64,592.23L304.61,590.44L301.75,590.7L302.02,589.58L299.27,589.3L296.47,586.48L297.42,585.17L299.51,585.27L297.55,583.43L300.53,583.05L299.61,579.61L301.81,579.46L299.26,578.37L299.94,577.14L302.8,577.95L303.1,577.04L303.1,577.04L304.11,578.35L307.31,576.43L307.31,576.43L307.31,575.8L307.31,575.8L310.28,575.39L310.33,572.81L311.71,572.05L313.02,572.96L314.45,570.75L316.09,573.12L317.52,573.19L317.04,572.31L321.5,573.21L321.71,572.12L325.39,574.24L326.88,572.31L328.74,572.96L330.05,571.83L330.13,569.23L333.2,567.29L336.41,569.39L335.91,572.24L338.67,573.48L340.34,571.15L343.25,571.2L343.41,569.05L346.08,568.77L346.09,567.82L348.13,569.4L352.75,569.72L352.76,571.36L354.5,571.48L354.49,576.13L359.3,576.08L360.3,579.63L363.55,580.09L366.01,583.08L368.7,583.19L371.25,586.39L375.19,585.38L375.84,584.08L375.93,585.88L378.98,584.7L383.55,586.18L381.6,583.24L385.58,580.96L384.49,578.7L387.61,577.57L389.14,575.29L391.87,575.15L396.16,572.62L397.73,568.57L405.08,572.38L406.19,571.74L406.19,571.74L410.87,576.13L417.41,578.23L421.1,572.85L424.47,571.43L427.13,564.87L428.06,565.28L430.26,562.66z"/>
		<path id="CZ-ZL" title="Zlínský" class="land" d="M571,676.08L571,676.08L567.42,674.8L567.53,671.1L562.17,666.61L561.33,662.97L558.68,662.71L557.15,664.04L552.57,663.1L549.22,659.32L546.62,660.4L545.81,658.83L534.11,661.17L531.9,656.43L526.67,656.33L526.67,656.33L525.32,660.11L520.08,658.5L519.77,661.11L515.09,663.36L516.21,665.76L514.2,667.4L513.73,670.34L509.03,670.3L506.52,666.82L504.08,667.72L503.95,670.1L502.54,668.42L500.38,668.67L502.73,673.39L500.81,675.62L497.29,675.9L496.43,674.51L491.67,676.04L489.47,675.31L490.53,677.82L486.74,681.77L484.43,678.47L482.73,678.97L479.27,677.23L477.75,678.28L478.77,674.84L477.31,673.57L474.06,677.83L476.08,683.36L473.01,685.05L470.49,689.13L468.52,690.16L464.66,689.61L463.13,690.91L461.46,689.85L459.97,693.81L458.26,692.87L458.26,692.87L455.6,696.95L457.22,698.92L456.29,701.15L458.93,704.48L457.1,706.58L460.64,706.82L461.74,705.45L462.2,706.72L460.82,711.72L457.58,712.4L456.76,716.49L454.29,716.6L453.94,720.07L457.04,720.56L463.35,718.02L464.93,721.78L464.03,726.25L466.61,725.38L466.7,726.44L468.07,726.03L468.91,728.76L474.27,728.61L476.51,729.9L475.93,733.72L478.01,734.23L479.61,733.14L483.1,737.53L486.08,735.86L487.59,736.62L488.96,735.11L489.91,737.17L493.6,738.05L492.7,741.45L498.35,743.12L502.56,751.01L502.56,751.01L507.56,750.2L514.7,741.41L523.78,740.93L526.4,729.63L528.07,728L536.57,727.85L540.7,725.83L543.3,722.79L544.89,718.02L544.39,712.38L546.65,708.64L546.2,705.02L548.38,700.98L547.65,696.82L551.15,693.44L551.12,691.3L558.39,689.93L567.47,686.1L570.91,682.38L571.58,678z"/>
		<path id="CZ-PL" title="Plzeňský" class="land" d="M109.54,577.94L111.59,577.38L112.5,579.63L114.42,577.53L115.91,580.89L119.3,579.29L119.3,579.29L121.18,583.12L119.67,583.25L118.35,587.35L121.56,587.98L122.64,586.06L125.24,585.92L126.3,587.41L128.79,586.03L130.71,587.46L127.66,588.09L129.48,590.09L132.24,590.56L133.74,592.64L138.79,592.5L138.79,592.5L139.3,592.5L139.3,592.5L140.61,591.62L142.61,592.33L145.6,596.9L149.84,596.78L149.48,600.29L153.05,600.11L155.57,602.16L157.44,602.07L156.2,604.62L157.67,610.37L155.3,610.4L154.41,615.55L155.48,618.3L153.69,619.78L154.52,622.61L153.03,625.32L154.72,624.75L156.3,626.31L152.88,627.89L151.09,631.28L148.87,629.4L145.19,631.43L143.04,634.33L143.81,637.18L145.58,635.81L148.05,636.76L144.59,637.64L144.39,639.1L147.11,641.44L145.43,642.37L146.97,642.76L146.26,643.74L150.41,644.89L148.91,655.36L149.56,654.49L151.34,655.31L151.5,659.74L151.5,659.74L150.31,661.96L150.31,661.96L150.31,662.46L150.31,662.46L149.98,663.51L151.85,663.81L151.43,668.25L153.45,670.75L151.31,672.42L150.87,675.63L153.73,680.4L151.81,683.58L152.09,685.9L147.58,687.85L147.35,689.51L148.73,690.4L147.99,692.38L145.55,692.18L146.19,695.14L148.16,695.18L147.84,697.21L146.04,697L146.44,698.16L145.44,697.86L144.85,699.79L144.85,699.79L144.85,700.37L144.85,700.37L147.3,703.77L144.83,704.91L144.18,707.88L145.03,708.21L141.78,708.76L139.26,711.97L135.49,710.57L136.5,711.28L135.54,713.25L136.3,715.77L134.73,716.25L136.37,718.53L136.91,723.04L135.46,724.58L133.99,723.78L131.48,728.07L130.8,732.69L132.08,735.16L132.08,735.16L128.19,734.96L128.19,738.61L127.1,738.79L118.73,732.54L117.82,723.33L108.41,714.4L103.55,715.04L98.41,711.85L97.79,706.95L92.34,702.84L92.59,700.66L90.23,699.32L89.61,696.71L87.79,696.16L87.13,694.35L85.29,694.24L84.86,688.77L82.81,688.52L79.71,684.63L72.21,682.28L71.6,685.24L68.52,683.15L62.47,682.86L60.31,676.2L55.89,672.06L51.27,670.7L51.22,668.08L49.12,664.78L50.07,658.32L49.37,657.08L48.03,657.9L45.16,656.32L42.5,644.97L39.58,645.18L39.01,635.69L35.91,635.59L31.8,633.3L28.34,627.86L28.18,625.32L34.58,621.72L33.87,618.34L34.79,614.85L36.9,614.51L36.85,611.95L38.11,611.6L41.7,605.1L41.7,605.1L45.63,606.76L48.01,604.06L50.29,603.57L53.4,607.06L52.69,604.65L56.27,604.21L55.43,602.23L57.85,602.67L59.02,601.16L60.71,601.34L60.71,601.34L60.68,601.16L60.68,601.16L61.75,601.83L63.1,600.25L65.06,600.36L68.92,602.56L72.88,601.11L75.72,602.97L75.4,602.1L76.45,602.48L79.19,599.84L78.64,596.65L78.64,596.65L78.64,595.56L78.64,595.56L82.26,594.88L82.75,593.27L83.94,593.73L91.08,586.98L92.02,588.46L96.76,588.37L98.57,590.44L99.09,589.48L100.53,591.54L103.38,592.3L103.32,584.99L107.72,584.57L109.27,581.42L107.38,581.07L107.75,577.98z"/>
		<path id="CZ-PR" title="Prague" class="land" d="M220.72,567.95L220.89,568.27L220.89,568.27L222.71,568.84L222.71,568.84L223.55,569.91L223.55,569.91L222.09,571.37L226.28,570.27L226.85,573.65L231.77,574.7L232.46,577.64L236.25,578.95L235.81,581.8L230.43,583.95L230.75,585.99L232.23,585.5L232.23,585.5L231.78,587.77L232.93,589.33L231.94,591.25L231.94,591.25L230.92,590.56L230.44,592.85L225.22,589.71L224.31,590.63L222.9,589.8L221.85,591.15L220.38,590.48L220.38,590.48L220.36,590.65L220.36,590.65L220.28,592.09L217.61,591.98L214.3,595.84L210.82,596.97L208.83,596.26L208.4,600.14L207.08,598.74L203.06,599.24L201.92,597.7L203.64,596.37L202.14,595.98L203.6,593.16L200.43,592.48L200.05,587.71L197.62,587.5L196.98,584.22L195,583.5L195.96,581.9L199.16,581L195.05,577.67L192.73,577.53L195.84,575.75L198.21,575.9L200.15,573.69L201.22,573.82L200.77,575.76L205.33,575.52L204.68,572.54L205.76,571.03L208.3,572.02L211.32,569.71L215.04,570.3L214.69,569.4L214.69,569.4L214.66,568.67L214.66,568.67L219.27,567.43L219.27,567.43L220.68,567.11L220.68,567.11L220.61,567.73L220.61,567.73z"/>
		<path id="CZ-ST" title="Středočeský" class="land" d="M216.38,520.58l1.55,1.84l0.88,-2.44l3.3,1.91l2.74,-2.11l1.12,5.23l1.96,0.2l1.87,-1.98l1.25,1.08l0.8,-0.91l3.21,0.62l0.14,-1.63l2.38,-0.98l0.66,-2.79l5.48,1.25l1.12,-2.99l0.92,0.78l1.64,-1.25l1.84,-3.12l-0.3,-1.97l5.31,-2.4l-0.58,-2.03l1.73,-0.74l-0.68,-1.38l1.49,-0.27l3.92,3.85l0.7,-1.51l2.7,-0.3l3.07,5.61l2.31,-0.85l2.69,2.34l0.55,3.12l3.99,1.36l0,0l-2.8,2.82l2.82,4.03l-1.25,3.34l2.18,1.76l0.19,4.25l-1.84,0.68l0.48,2.23l-2.23,-0.25l-1.28,1.74l2.67,1.96l-0.92,0.9l0.77,1.65l5.23,0.81l-0.64,1.58l3.13,1.33l-0.85,3.32l2.74,1.31l2.55,-1.1l3.72,1.75l4.01,-2.63l2.43,2.24l0.6,4.18l-1.44,1.06l0.31,2.81l1.75,1.4l0.46,3.13l-3.63,4.04l1.62,1.55l-2.32,1.42l3.07,0.06l1.76,1.52l1.25,-0.76l2.73,2.25l-0.3,2.54l0,0l-0.3,0.91l-2.87,-0.82l-0.68,1.24l2.55,1.08l-2.2,0.15l0.91,3.44l-2.97,0.38l1.96,1.84l-2.1,-0.1l-0.95,1.31l2.8,2.82l2.75,0.28l-0.26,1.12l2.86,-0.27l0.03,1.8l1.41,-0.6l-0.97,2.36l6.07,3.18L309.8,600l1.86,2l-1.48,3.54l-2.14,0.62l0.01,5.15l0,0l-2.83,3.33l-1.82,-1.16l-2.28,1.89l-0.47,1.71l2.02,2.24l-1.45,1.63l0,0l-0.52,-0.04l0,0l-3.04,-0.99l-1.33,3.24l-1.82,1.03l-5.63,0.47l-1.88,2.11l-1.21,-0.53l0.37,-1.17l-1.53,0.82l0,0l-0.38,-0.01l0,0l-1.13,0.63l-0.49,3.59l-3.13,2.37l-0.31,3.05l0.7,2.76l4.4,0.54l1.29,2.83l-0.61,2.95l-1.84,1.28l-2.93,-1l-0.52,1.36l-1.18,-0.38l-0.8,3.39l-4.05,-2.99l-1.57,1.61l-4.01,0.71l-2.05,-1.39l-0.93,1.04l-1.7,-1.64l-2.2,0.33l-0.92,1.42l1.53,2.18l-4.18,0.11l0.45,2.99l-1.1,0.07l0,0l0.03,0.74l0,0l-0.03,0.22l0,0l-0.48,0.57l0,0l-0.9,0.26l0,0l-2.34,-1.26l-1.28,-4.66l-1.92,-0.21l-0.94,1.77l-2.89,-3.73l-2.38,-0.4l0,0h-0.71l0,0l-1.08,-2.27l-0.44,1.64l-1.8,0.64l0.33,1.39l-1.53,-0.28l-0.7,4.13l1.27,2.63l-4.8,1.43l-2.96,2.68l-0.29,2.17l-1.14,-2.22l-4.68,0.17l0.64,-3.56l-2.61,1.76l-7.5,-1.99l-1.15,1.99l-1.92,-2.46l-1.49,1.01l-1.85,-2.32l0.67,2.99l-2.42,-0.86l-1.85,2.32l-2.32,-0.85l-0.83,0.83l0.24,-1.72l-2.57,-1.47l-0.61,0.71l-2.25,-3.02l-4.3,0.49l-1.56,4.28l-1.22,-0.78l-4.21,1.08l-2.55,-1.19l0.34,1.49l-1.68,-1.15l-0.45,1.03l-2.62,-0.06l0.06,-3.89l-3.07,-0.44l-1.41,1.6l-1.27,-0.32l0.46,1.6l-1.52,2.88l-1.4,-0.76l-0.58,1.78l-2.31,-0.93l-1.6,2.36l-3.67,-0.85l0.68,-0.99l-1.68,0.18l-0.76,-1.63l-2.79,2.01l-1.69,-2.29l-3.63,2.53l-1.54,-0.75l0,0l-0.16,-4.43l-1.78,-0.82l-0.65,0.88l1.5,-10.47l-4.15,-1.16l0.71,-0.97l-1.55,-0.39l1.68,-0.93l-2.72,-2.34l0.21,-1.46l3.45,-0.88l-2.47,-0.95l-1.77,1.37l-0.77,-2.84l2.15,-2.9l3.68,-2.04l2.22,1.88l1.79,-3.39l3.43,-1.58l-1.58,-1.56l-1.69,0.57l1.49,-2.71l-0.83,-2.83l1.79,-1.48l-1.07,-2.75l0.89,-5.15l2.37,-0.03l-1.46,-5.75l1.24,-2.55l-1.87,0.08l-2.52,-2.04l-3.57,0.18l0.36,-3.52l-4.24,0.13l-2.98,-4.57l-2.01,-0.71l-1.3,0.88l0,0h-0.52l0,0l-5.05,0.14l-1.5,-2.08l-2.77,-0.48l-1.82,-1.99l3.06,-0.63l-1.93,-1.43l-2.49,1.38l-1.06,-1.49l-2.6,0.14l-1.08,1.92l-3.21,-0.63l1.32,-4.1l1.51,-0.13l-1.88,-3.84l0,0l-0.35,-1.21l1.76,-1.42l3.36,0.35l0.71,-3.66l1.8,0.69l-0.92,-2.11l1.17,-0.84l-0.46,-2.53l1.17,0.08l0,0h0.33l0,0l3.79,-3.66l2.08,0.89l3.47,-0.97l0.73,-2.54l1.5,0.03l3.42,-3.33l0.01,1.47l7.18,-0.11l0.3,-1.48l1.59,0.34l3.81,-4.4l2.57,3.19l2.16,-0.34l1.13,-3.79l3.76,-0.39l3.32,-2.64l-0.33,-2.19l3.56,0.51l-0.86,-4.26l2.31,-1.81l12.11,2.25l3.44,-0.41l0.23,-1.64l5.92,2.29l0.52,-0.97l0,0l0.16,0.03l0,0l1.73,-2.67l1.83,0.75l0,0l0.75,-0.47l0,0l1.86,-0.82l3.79,0.96l1.23,-6.3l-1.82,-4.7l1.74,-0.93l3.86,1.92l-1,-1.29l1.42,-1.25l-0.26,-1.87l4.48,0.54l-1.49,-6.73l1.65,-0.41l-0.35,-1.39L216.38,520.58zM214.69,569.4L214.69,569.4l0.34,0.9l-3.72,-0.59l-3.02,2.31l-2.54,-0.98l-1.08,1.5l0.64,2.98l-4.56,0.24l0.45,-1.94l-1.07,-0.13l-1.94,2.21l-2.37,-0.15l-3.11,1.79l2.31,0.14l4.11,3.33l-3.2,0.9l-0.96,1.6l1.98,0.72l0.64,3.29l2.42,0.21l0.38,4.77l3.17,0.67l-1.46,2.82l1.5,0.39l-1.73,1.33l1.14,1.54l4.02,-0.5l1.32,1.4l0.42,-3.88l2,0.71l3.47,-1.14l3.32,-3.86l2.67,0.11l0.08,-1.44l0,0l0.02,-0.17l0,0l1.46,0.67l1.06,-1.35l1.41,0.83l0.9,-0.93l5.23,3.14l0.48,-2.29l1.02,0.69l0,0l0.99,-1.92l-1.18,-1.81l0.48,-2.02l0,0l-1.47,0.49l-0.32,-2.04l5.37,-2.15l0.44,-2.85l-3.79,-1.31l-0.69,-2.94l-4.92,-1.05l-0.58,-3.38l-4.19,1.1l1.46,-1.46l0,0l-0.84,-1.07l0,0l-1.83,-0.56l0,0l-0.28,-0.55l0,0l0.07,-0.62l0,0l-1.41,0.32l0,0l-4.61,1.24L214.69,569.4z"/>
		<path id="CZ-US" title="Ústecký" class="land" d="M203,444.44L205.48,443.68L207.7,446.46L210.49,447.44L213.75,444.96L217.2,446.76L217.91,443.42L217.73,446.95L220.69,447.72L221,449.61L223.69,448.73L226.97,452.97L223.82,461.78L225.4,462.51L231.44,459.92L231.67,463.66L230.25,464.79L228.69,470.42L228.69,470.42L227.2,472.89L224.06,473.34L222.58,479.07L220.03,479.27L215.66,476.43L212.79,477.13L214.04,477.9L213.16,480.77L214.02,481.55L211.33,483.6L210.38,486.94L211.54,487.89L210.22,488.35L210,487.37L208.99,489.3L208.99,489.3L208.2,489.59L208.2,489.59L206.82,490.12L206.87,494.26L204.21,496.45L203.64,499L205.39,499.15L205.19,503.18L207.01,507.16L209.36,508.86L212.52,517.16L215.26,517.58L216.38,520.58L216.38,520.58L215.15,520.03L215.5,521.42L213.85,521.83L215.34,528.56L210.87,528.02L211.13,529.89L209.71,531.14L210.71,532.42L206.85,530.5L205.12,531.43L206.94,536.13L205.71,542.44L201.92,541.47L200.05,542.29L200.05,542.29L199.3,542.76L199.3,542.76L197.48,542.01L195.75,544.68L195.75,544.68L195.59,544.65L195.59,544.65L195.07,545.63L189.15,543.34L188.92,544.98L185.48,545.39L173.37,543.14L171.07,544.95L171.93,549.22L168.36,548.71L168.69,550.9L165.37,553.53L161.61,553.93L160.48,557.72L158.32,558.06L155.75,554.87L151.94,559.27L150.35,558.93L150.05,560.42L142.88,560.53L142.87,559.06L139.45,562.39L137.95,562.36L137.22,564.9L133.74,565.87L131.66,564.98L127.88,568.64L127.88,568.64L127.54,568.64L127.54,568.64L126.37,568.56L126.84,571.09L125.67,571.93L126.59,574.04L124.79,573.35L124.08,577.01L120.71,576.66L118.95,578.08L119.3,579.29L119.3,579.29L115.91,580.89L114.42,577.53L112.5,579.63L111.59,577.38L109.54,577.94L109.54,577.94L107,573.95L104.44,574.25L103,573.1L103.62,572.06L103.62,572.06L103.67,571.95L103.67,571.95L107.81,572.59L106.27,569.78L107.89,569.82L108.22,568.27L107.14,568.23L105.88,562.97L103.35,562.63L105.32,559.92L102.27,557.71L103.61,556.86L103.41,553.6L101.73,553.22L103.35,550.02L102.55,547.03L102.55,547.03L102.77,547.03L102.77,547.03L103.69,544.6L101.21,541.01L98.87,542.59L94.39,541.21L92.73,542.96L91.14,541.29L91.17,537.98L89.57,538.24L88.06,536.77L86.54,538L84.14,536.26L80,536.88L77.58,534.84L77.58,534.84L76.99,533.77L80.48,532.81L84.14,528.63L85.15,519.94L90,521.38L94.17,518.71L94.76,520.38L99.91,520.85L104.61,508.28L107.43,508.25L108.55,510.74L111.44,510.04L111.67,506.13L116.32,503.28L115.9,500.06L117.58,500.56L119.82,504.84L124.47,506.69L127.13,502.85L129.71,501.58L128.69,499.55L131.36,496.19L129.87,492.17L132.76,490.87L136.76,491.51L142.37,488.45L146.23,490.5L148,488.15L149.24,489.1L152.57,487.86L159.69,489.03L160.2,486.88L163.47,486.61L162.45,483.15L163.65,479.67L167.01,480.08L168.54,477.61L171.74,475.9L175.38,478.14L179.64,477L180.69,475L192.93,470.15L193.78,466.26L196.79,465.16L200.14,466.74L204.26,465.5L204.32,464.2L207.68,464.71L208.6,459.28L200.8,456.62L201.37,455.87L200.11,455.03L202.4,453.94L202.1,452.31L198.37,453.44L196.16,451.86L196.25,448.93L198.09,448.05L198.54,446.22L197.43,444.51L201.15,442.19z"/>
		<path id="CZ-VY" title="Vysočina" class="land" d="M308.05,611.31L315.06,615.84L316.72,618.82L320.84,617.66L321.63,619.04L323.32,617.77L325.25,618.4L325.41,619.89L327.18,619.49L329.82,622.87L333.85,622.67L333.21,626.04L336.1,625.73L339.96,628.69L341.23,627.67L339.8,631.34L346.27,635.95L350.05,635.17L349.35,633.79L350.98,633.37L350.82,632.34L350.82,632.34L350.82,631.64L350.82,631.64L353.65,628.42L355.15,631.35L358.23,631.62L358.23,631.62L358.81,631.62L358.81,631.62L360.69,632.44L362.92,636.13L366.29,635.25L366.98,636.84L371.1,636.69L378.18,642.15L377.89,643.69L379.45,645L380.87,644.39L385.02,645.98L388.85,650.3L388.85,650.3L388.91,652.89L387.22,654.5L388.55,656.27L390.53,656.21L391.35,658.4L388.39,662.65L385.5,661.76L388.73,665.01L386.49,669.55L386.93,673.26L388.25,673.54L387.1,677.6L388.46,681.19L386.57,682.96L386.57,682.96L385.78,682.96L385.78,682.96L379.66,685.96L378.85,689.72L376.93,690.59L376.82,692.72L379.5,695.26L376.32,695.95L374.95,701.5L378.23,703.13L378.19,705.24L374.47,706.72L373.87,708.08L375.04,709.21L374.74,711.86L376.95,710.81L376.31,712.26L377.86,712.94L377.61,714.77L375.85,716.93L373.67,717.27L372.42,720.94L366.04,721.51L365.16,722.63L366.79,724.31L361.47,725.27L361.24,726.42L356.42,724.11L355.44,726.41L353.1,727.02L350.63,725.39L349.89,722.96L347.28,723.69L347.48,725.35L346,726.67L343.07,725.35L342.18,729.45L337.04,729.21L334.87,732.77L331.66,733.36L329.04,738.01L326.95,735.12L322.9,735.67L321.75,739.2L319.57,738.69L318.47,736.37L316.11,736.77L316.09,737.75L316.09,737.75L314.95,736.73L315.53,735.37L310.52,733.97L310.48,731.5L309.08,730.92L307.8,732.17L307.2,731.04L311.38,727.19L310.63,725.54L312.68,724.79L311.96,722.72L313.22,722.28L313.11,720.15L317.04,720.4L316.47,719.1L317.51,718.72L315.81,717.08L316.62,716.31L313.36,714.86L314.86,714.74L314.36,713L312.27,712.07L311.51,713.5L309.83,712.69L308.55,714.33L305.38,714.3L302.99,712.43L301.44,714.49L293.54,707.79L294.79,704.11L293.99,700.87L287.19,701.06L285.9,702.42L286.26,700.68L280.34,698.15L278.08,700.92L276.59,700.22L276.59,700.22L275.72,700.22L275.72,700.22L274.26,696.63L272.05,697.54L269.9,695.86L272.2,696.42L272.54,693.59L268.75,693.29L265.81,689.85L262.34,693.04L261.2,692.8L254.43,684.78L257.07,681.63L252.99,678.74L255.36,672.07L254.1,671.6L256.44,667.63L255.73,665.15L257.06,663.9L254.1,659.54L254.61,658.21L257.9,658.24L256.98,654.65L256.98,654.65L257.01,654.43L257.01,654.43L256.98,653.69L256.98,653.69L258.08,653.63L257.63,650.64L261.81,650.52L260.28,648.34L261.2,646.92L263.4,646.59L265.1,648.23L266.03,647.19L268.08,648.58L272.09,647.87L273.66,646.25L277.71,649.25L278.52,645.85L279.7,646.23L280.22,644.86L283.15,645.87L284.98,644.58L285.6,641.63L284.3,638.81L279.9,638.26L279.21,635.5L279.51,632.45L282.64,630.08L283.13,626.5L284.26,625.87L284.26,625.87L284.64,625.88L284.64,625.88L286.17,625.06L285.8,626.23L287.01,626.76L288.89,624.65L294.52,624.18L296.34,623.15L297.67,619.91L300.71,620.9L300.71,620.9L301.22,620.94L301.22,620.94L302.67,619.3L300.65,617.07L301.12,615.36L303.4,613.48L305.22,614.64z"/>
	</g>
</svg>