<?xml version="1.0" encoding="utf-8"?>
<!-- (c) ammap.com | SVG map of Denmark - Low -->
<svg xmlns="http://www.w3.org/2000/svg" xmlns:amcharts="http://amcharts.com/ammap" xmlns:xlink="http://www.w3.org/1999/xlink" version="1.1">
	<defs>
		<style type="text/css">
			.land
			{
				fill: #CCCCCC;
				fill-opacity: 1;
				stroke:white;
				stroke-opacity: 1;
				stroke-width:0.5;
			}
		</style>

		<amcharts:ammap projection="mercator" leftLongitude="8.074878" topLatitude="57.751786" rightLongitude="15.157522" bottomLatitude="54.559212"></amcharts:ammap>

		<!-- All areas are listed in the line below. You can use this list in your script. -->
		<!--{id:"DK-84"},{id:"DK-82"},{id:"DK-81"},{id:"DK-85"},{id:"DK-83"}-->

	</defs>
	<g>
		<path id="DK-84" title="Hovedstaden" class="land" d="M927.62,615.16l-0.13,1.36l3.86,3.11l2.54,5.86l7.01,3.71l1.23,2.23l5.22,2.1l1.9,1.89l1.11,0.48l3.56,-1.31l2.74,5.1l4.39,4.18l2.93,1.19l6.44,5.13l4.14,1.74l2.65,-0.18l1.11,2.4l1.18,0.19l0.18,2.5l-1.68,2.45l1.91,7.23l-2.67,3.52l0.08,2.81l-1.45,0.17l-0.55,2.32l-1.96,1.77l1.58,3l-0.14,2.98l-5.22,6.23l-16.46,-3.71l-3.96,-2.69l-1.48,0.09l-5.35,-4.1l-5.77,-2.54l-1.6,0.32l-5.19,-3.11l-2.48,0.35l-4.42,-2.67l-2.8,-3.79l-4.59,-2.84l0.96,-1.06l-0.61,-1.07l0.75,-1.73l-0.09,-3.59l1.13,-2.08l-0.9,-12.79l1.55,-9.54l5.66,-11l0.67,-2.25l-0.79,-2.37l2.98,-2.87L927.62,615.16zM645.33,534.14l-0.77,-2.66l0.74,-0.37l0.49,-5.73l3.58,-2.15l1.48,2.93l0.53,9.23l0.91,0.64l-0.68,1.11l1.33,1.36l-4.19,0.95l-1.38,-3.65l-1.53,0.43L645.33,534.14zM630.63,518.87l0.42,0.68l-2.09,1.64l1.36,2.44l-0.79,-2.3l1.47,-1.11l0.5,1.13l0.78,0.27l0.57,0.91l-1.38,1.8l-1.12,-0.57l0.22,1.6l3.44,6.42l-0.36,0.92l2.94,0.31l0.72,0.95l0.07,3.74l-1.6,2.24l0.7,2.6l0.99,0.36l-2.48,2.47l-4.44,1.32l-5.56,5.37l-3.88,-1.31l-0.95,-3.49l-2.22,0.49l-1.76,-1l-2.21,-4.3l-0.45,-3.52l6.02,-7.83l2.19,-5.04l5.04,-5.59l0.5,-3.25l2.31,-0.04l0.48,0.82L630.63,518.87zM541.01,464.09l2.58,-0.44l2.77,1.95l0.32,1.73l-3.48,4.53l-0.48,4.59l0.54,1.19l3.94,1.77l1.18,8.8l1.96,1.38l-1.57,0.85l-0.08,1.8l0.41,0.72l2.06,-0.3l-0.8,3.15l2,4.39l-1.63,2.46l1.12,0.97l-0.15,5.59l-2.11,-0.8l-5.53,2.55l-0.09,-2.89l-1.42,0.69l-0.76,-2.17l-1.32,2.58l0,0l-6.81,-3.72l-3.72,3.42l-4.05,-1.59l0,0l-2.62,0.33l-0.09,-3.86l-0.78,0.31l-0.64,-1.27l0.96,0.15l0.74,-1.66l0.86,-8.36l1.98,-1.27l-0.12,-3.07l4.89,-1.59l1.15,0.95l2.72,-1.22l2.64,-7.36l-2.08,-4.81l-1.59,-0.84l-0.34,-4.27l-4.03,-6.52l0.51,-4.82l8.12,2.02L541.01,464.09zM585.95,411.72l5.43,1.41l4.99,4.57l6.87,2.01l8.76,0.46l5.75,2.85l9.19,8.89l2.49,1.15l-1.31,0.41l0.15,1.34l-2.61,4.75l-4.54,4.32l-6.46,18.1l7.62,18.2l0.67,8.92l2.58,5.79l-0.49,3.36l1.22,3.67l-2.88,6.73l1.04,1.21l-0.48,2.8l0.86,0.75l1.63,-3.17l2.88,1.94l-0.2,0.83l-1.4,1.15l-2.13,-0.71l0.83,1.31l-1.43,0.27l1.21,3.72l-0.93,2.89l-4.35,3.87l-1.29,3.84l-1,2.03l-2.04,1.81l0.05,-1.49l-3.47,0.5l-1.75,3.97l1.36,1.22l-1.78,3.46l-5.91,-0.89l-0.53,-1.95l-0.31,-0.74l-5.54,-0.24l-0.97,0.46l-0.64,0.9l1.29,1.08l-5.04,3l0,0l-1.11,-1.04l0,0l-2.5,-2.34l-8.44,-3.49l-4.58,2.02l-1.11,-1.75l-2.74,0.83l-0.79,3.21l-6.89,-2.02l0.99,-5.23l-1.34,0.07l-0.93,-9.08l4.85,-4.21l3.68,0.25l5.36,-5.19l-5.03,-4.51l1.77,-3.28l-2.56,-2.57l-5.77,0.91l-10.75,-8.34l0,0l-2.19,-1.4l0.67,-3.11l-1.39,-2.29l-0.72,-4.85l-0.77,0.16l-0.97,-3.54l-1.18,-0.46l0.64,-3.43l2.45,-0.51l0.35,-4.31l-2.82,-5.54l0.23,-3.57l-4.18,-11.15l-5.72,-1.76l-6.03,4.18l-5.89,2.01l-2.7,-0.8l-0.73,0.83l-1.71,-1.08l-1.37,-5.16l1.66,-2.39l21.2,-13.44l7.41,-6.98l16.2,-12.08l14.89,-5.23l3.13,-0.06L585.95,411.72z"/>
		<path id="DK-82" title="Midtjylland" class="land" d="M311.77,499.44l-0.81,5.47l-2.06,1.45l-3.66,-1.62l-4.69,0.31l-1.68,-1.21l1.92,-2.42l3.52,0.62l3.61,-1l-0.44,-1.62l1.97,-5.91L311.77,499.44zM278.66,484.71l1.77,1.12l-2.65,1.88l-2.62,-1.17l-0.88,-2.06l2.31,-1.05L278.66,484.71zM329.2,455.5l-2.18,1.21l-1.28,-0.32l-3.66,-3.69l8.31,1.89L329.2,455.5zM8.05,442.24l3.24,11.32l2.01,1.56l-0.49,5.35l0.99,0.86l0.1,3.22l-0.74,2.43l1.83,4.71l-0.61,2.13l2.41,2.46l-3.09,4.77l0.22,4.72l1.93,1.96l0,0l-2.6,0.48l0,0l-4.35,-34.61l-3.25,-10.62L8.05,442.24zM346.92,456.13l3.2,4.14l6.44,3.07l-1.14,1.44l-1.89,-0.87l-2.81,1.63l1.11,3.88l1.73,0.56l-0.65,1.08l0.96,1.75l1.62,0.94l4.62,-2.31l0.25,3.11l-2.81,2.7l-2.46,5.51l0.2,9.96l-3.02,7.98l-5.64,-1.33l-3.96,0.23l-1.96,-2.19l-1.29,-4.1l0.23,-13.99l2.6,-2.98l3.89,-0.33l0.94,-0.9l2.34,-9.33l-0.83,-2.97l-2.18,-2.85l-3.02,-1.92l-2.9,0.4l-0.95,-1.56l-0.93,-8.96l5.48,-5.8l1.32,10.41L346.92,456.13zM80.33,297.99l-0.73,1.11l-1.52,-0.12l1.57,1.9l-2.48,4.28l0.42,7.11l-2.29,2.57l1.39,-2.57l-2.46,-7.27l3.77,-6.79L80.33,297.99zM70.27,271.2l1.1,2.15l-1.37,1.32l-1.56,5.04l2.01,3.21l1.55,0.65l0.39,-2.75l-1.85,-0.76l0.9,-2.37l2.81,-0.23l2.61,1.23l1.47,-0.71l-1.7,3.76l1.01,1.61l-0.73,2.85l1.11,2.08l-3.89,-3.81l-2.09,-0.23l-1.15,8.97l-5.22,0.17l-2.69,1.77l0.11,1.67l2.62,1.03l0.46,1.13l-3.44,-0.73l-1.89,-2.13l-4.41,-11.23l-7.85,-7.59l-3.08,-1.53l0,0l0.16,-1.37l0,0l2.83,1.32l2.55,-2.46l3.53,-1.17l1,0.55l0.91,2.73l3.24,1.24l4.47,-4.1l1.69,0.1l0.77,-1.33l2.37,0.77l0.73,-1.5L70.27,271.2zM494.68,258.79l1.82,0.46l-6.39,4.56l-5.78,7.16l-5,0.04l-4.26,-6.88l3.37,-2.44l4.43,0.83L494.68,258.79zM137.21,242.4l6.36,4.32l-0.75,1.85l0.5,2.28l2.83,7.3l6.06,8.11l-5.62,4.48l-1.93,3.15l-0.38,2.72l-2.85,-0.24l1.11,6.15l-3,0.18l-4,3.91l-1.67,8.56l1.72,5.72l0.23,1.82l-0.92,0.36l1.07,1.27l2.56,-0.02l2.18,-3.1l0.44,-8.5l2.75,-1.25l1.23,1.73l1.59,0.32l2.23,-2.53l0.02,-2.25l-3.48,0.7l-2.24,-1.07l3.78,-3.39l1.92,-5.37l0.62,2.46l-0.79,2.51l2.84,3.46l2.07,0.16l3.44,-2.25l7.38,0.41l-0.83,0.36l0.61,0.98l1.32,-0.61l1.73,0.84l1.49,3.21l-0.68,-0.05l-0.05,1.76l-4.6,2.34l-1.58,4.79l1.36,0.61l0.73,3.98l1.94,2.86l2.93,2.65l1.78,0.05l-1.17,3.25l5.05,-5.07l4.59,1.38l-0.56,-4.09l1.23,-3.78l-2.34,0.11l-2.66,2.13l-4.08,1.45l-1.72,-0.3l-1.34,-2.76l1.45,-7.92l-0.76,-2.49l2.63,-2.67l0.13,-4.52l1.8,-4.5l-0.74,-5.01l0,0l4.77,0.2l1.56,2.2l4.24,-0.69l-0.16,2.99l4.96,3.53l3.43,0.63l3,-9.47l2.12,-0.16l0.42,-1.79l4.13,0.44l-0.35,2.26l1.42,0.14l1.18,1.93l-1.8,1.7l0.39,1.45l5.1,0.61l-0.56,3.36l4.58,1.56l3.97,-0.77l6.18,0.88l0.76,3.54l-4.37,1.49l-0.13,7.14l4.67,-2.55l4.94,1.25l5.22,7.45l6.24,-1.56l5.12,2.8l6.39,-1.41l1.31,-4.55l8.37,-1.71l1.46,-3.92l2.67,1.43l8.75,-2.68l6.29,-4.37l3.94,-1.16l1.02,-5.67l4.87,-1.45l-0.23,-3.12l5.53,-3.52l-0.35,-1.49l0,0l1.49,0.63l6.45,-4.09l4.51,1.21l3.51,-1.93l4,-0.1l2,2.17l1.4,7.82l-1.83,0.92l1.28,4.79l-2.17,3.98l-6.27,3.49l-2.17,4.48l-2.47,0.79l-2.51,2.55l-1.5,4.85l-2.02,0.91l-0.84,3.01l1.76,9.88l-2.01,6.77l-11.68,4.48l-1.31,-0.48l-0.35,-1.47l-4,-0.45l-7.27,2.95l0.05,0.3l7.48,-2.35l5.86,2.06l7.49,-3.27l4.63,-1.37l4.19,1.75l6.16,-0.42l-7.61,-1.24l-0.88,-1.4l-0.36,-10.11l1.6,-6.93l1.49,-0.78l0.05,-1.99l2.77,-4.33l4.09,-3.73l-0.03,-3.98l1.14,0.17l1.08,1.41l3.42,1.34l1.46,6.86l7.24,8.8l2.98,2.02l11.09,3.04l7.26,-0.37l15.39,-3.82l9.75,-0.77l3.56,-1.29l9.61,1.84l3.42,3.26l2.19,7.64l6.62,4.29l3.45,3.4l1.13,2.82l-0.43,2.05l-2.76,1.09l-1.38,3.04l0.33,3.21l-0.98,0.73l-0.8,6.41l-0.03,8.76l-7.06,10.89l-4.38,3.63l-2.85,7.02l-2.72,3.24l-3.32,1.03l-2.26,2.11l-1.64,2.97l-0.71,3.22l0.79,6.56l-3.55,9.46l-3.47,0.16l-1.25,-1.16l-0.32,-2.26l-4.52,-3.58l-1.04,-2.38l-0.03,-2.01l2.46,1.01l1.96,-1.63l1.09,-3.56l-1.83,-4.48l-1.19,-0.9l-5.63,-0.58l-3.97,2.1l-1.24,4.19l-4.71,5.27l-1.34,4.34l2.62,4.08l0.67,8.51l-1.64,2.81l-4.51,1.83l-4.35,-11.17l1.35,-1.59l3.57,0.28l1.64,-5.69l-1.11,-1.15l-2.08,1.17l-7.24,-3.43l-2.16,1.04l-2.51,3.77l-3.49,0.02l-2.24,-1.59l-0.86,-4.31l-3.52,-1.97l0.35,-1.81l1.51,0.57l6.46,-2.11l0.4,-2.48l2.45,-0.8l1.79,0.31l-2.06,2.5l1.29,1.94l4.36,0.56l2.05,-1.96l-1.73,-3.37l0.4,-1.14l-1.8,-1.15l-1.29,1.48l-0.24,-1.01l3.89,-4.07l1.36,-3.91l3.09,-0.3l-0.28,-3.31l-3.38,-1.96l-0.88,0.62l-2.84,-0.69l-0.12,-3.05l-1,1l-2.46,-1.09l-1.63,1.47l-3.6,-0.74l-1.06,0.82l0.92,2.76l-1.86,2.11l-1.98,-0.52l-2.19,2.25l1.01,3.71l-1.3,1.13l-0.64,-0.66l-0.24,2.81l-4.34,2.25l-3.47,6.38l-5.3,3.28l-2.12,4.57l0.74,0.72l-2.37,1.58l-0.07,1.73l1.84,-1.39l-1.2,3.97l3.13,-1.79l0.64,-2.33l0.6,1.05l0.04,1.11l-5.78,3.45l5.39,10.48l3.17,13.02l-0.51,4.01l-1.56,0.8l-0.19,-1.27l-1.38,0.43l-2.37,3.01l-1.87,0.77l3.33,-0.08l1.76,-2.85l3.35,-0.53l0.89,0.74l-3.88,6.79l-0.1,3.29l1.86,5.35l-1.18,11.59l-2.72,0.81l-4.2,5.15l-2.12,0.23l0.28,3.77l1.45,2.8l-1.71,1.7l0.84,2.67l-0.79,1.02l-4.63,-2.21l-2.36,-2.74l0.3,-3.89l-1.58,-1.9l-1.94,2.48l0.05,2.7l-2.08,-0.43l-3.16,3.12l-5.93,1.53l-0.2,-2.19l2.98,-4.42l7.64,1.35l0.51,-1.73l-1,-2.79l-5.35,-0.38l-4.84,2.05l-8.6,-1.05l-0.84,0.2l-0.89,2.98l0.64,2.01l-4.69,-0.63l-2.29,0.89l-3.3,-2.96l0.18,-1.25l1.19,-0.12l-0.44,-0.55l-6.22,-0.55l0.2,1l2.43,0.67l2.45,-0.57l0.67,2.66l-2.06,0.57l-0.83,1.38l0.44,2.27l1.97,1.26l14.89,4.22l2.74,-2.36l-0.48,1.99l0.7,0.45l-0.99,1.85l2.29,-1.52l3.14,0.49l1.76,3.3l-6.39,6.77l-0.33,3.68l1.08,1.71l7.17,1.43l0.72,1.8l-3.92,-0.07l-2.44,2.74l-4.85,1.62l-0.2,2.22l2.69,0.79l1.46,4.64l-2.37,-1.17l-5.13,1.52l-7.51,0.56l-5.44,1.53l-5.02,3.25l-3.69,1.1l-1.49,-2.22l-3.44,-0.88l-5.13,0.27l-4.28,-5.42l-2.2,-0.1l-3.81,-2.22l0,0l1.73,-5.82l-0.41,-3.33l-4.09,-2.48l-0.57,1.4l-3.22,-1.08l-3.1,1.54l-2.39,-2.96l1.64,-2.18l-1.52,-2.06l-0.86,1.62l-5.56,0.36l0.23,-2.54l-2.86,-0.51l-2.28,-10.15l-2.88,-0.07l0.06,-1.32l-4.99,-0.49l1.15,-3.77l-2.14,-0.93l2.77,-1.99l-10.2,-14.09l-0.04,-1.59l0,0l-5.18,-3.35l-0.5,0.68l0,0l0.02,0.07l0,0l-0.67,0.4l0,0l-0.51,0.54l0,0l-3.69,-1.67l-0.88,0.53l0,0l-3.16,-0.34l-3.26,-3.75l-5.23,-0.3l-3.35,5.91l0.08,3.45l-6.33,8.18l-4.48,3.51l-2.8,-1.95l-3.66,8.06l-1.67,-1.53l-1.73,3.51l-2.24,-1.02l-2.86,2.44l-7.12,-3.66l1.07,-9.68l-11.63,-2.67l-2.27,0.08l-1.32,3.73l-2.21,-0.38l-2.28,8.44l-3.97,2.38l4.47,4.52l-9.38,3.27l-5.05,-1.91l-1.99,-5.88l-4.4,-2.59l-11.51,3.3l-3.2,-3.14l-5.2,1.6l1.94,4.63l-1.31,2.28l-3.33,0.69l0.17,5.58l-2.66,2.65l-6.27,0.08l-1.2,-2.86l-3.54,-1.81l1.24,-0.88l-6.1,-0.61l-4.04,-5.1l-4.01,5.24l-5.21,-0.12l-1.8,1.06l-6.55,-5.1l0.12,-2.11l-6.18,-1.01l0,0l0.76,-4.96l1.63,-0.37l1.64,-2.51l-0.17,-2.25l-1.8,-1.64l2.46,-0.58l-1.01,-1.7l0.83,-2.43l2.87,0.53l0.06,1.12l-1.31,-0.13l2.81,3.48l0.66,-1.35l1.47,-0.39l2.87,1.37l-2.62,3.03l-0.35,4.8l1.64,1.2l0.78,-1.81l7.14,-4.89l7.8,-8.93l-1.9,-3.13l0.91,-1.14l-0.03,-5.64l-8.75,-12.51l-1.46,-10.41l0.24,-4.86l-10.16,-8.59l-9.7,-2.98l-4.68,-3.36l2.71,4.78l-2.07,3.6l-1.02,11.6l1.47,7.03l1.33,0.44l-2.12,0.93l-1.11,-0.48l-0.9,1.54l-2.21,-11.03l0.79,-15.21l3.39,-25.98l0.23,-9.93L5.74,350.61l2.22,0.07l0.45,0.56l-0.16,0.29l0.71,0.9l-1.66,3.89l0.39,5.09l4.79,-2.19l0.48,3.42l3.16,-0.92l2.24,1.67l4.21,-0.33l-0.37,1.79l1.23,3.12l-1.46,0.78l1.43,2.21l1.01,0.43l3.63,-2.36l3.38,-5.46l0.02,-0.79l-1.5,1.37l-5.89,-3.15l1.4,-1.17l-0.89,-3.06l-2.23,-2.83l-6.96,-5.4l-3.29,-8.31l0.95,-0.99l-0.7,-4.65l-2.39,0.86l-2.15,-1.79l-0.21,1.43l-0.8,-0.2l1.07,3.13l-1.22,1.12l1.07,3.24l0.03,1.22l0.6,2.46l-1.54,-0.26l1,1.34l-1.36,1.32l1.25,0.37l-0.1,1.05l-2.1,0.42l1.39,-25.2l-1.35,-12.78l1.15,-8.49l6.28,-25.46l4.72,-10.61l1.38,-1.65l1.28,0.49l-0.03,4.51l1.13,1.52l-3.57,4.4l1.85,2.63l-1.62,0.73l-1.42,-0.86l-1.19,5.87l1.67,-0.48l4.37,2.1l-0.05,4.81l1.91,1.14l7.9,1.69l0.58,1.88l-3.13,0.81l2.27,4.87l-0.4,2.92l1.58,0.6l0,-5.2l2.86,-1.54l3.21,0.66l4.98,-0.92l13.85,6.64l3.71,2.79l2.6,-1.48l2.93,-3.76l1.58,-4.68l0.19,4.66l1.23,1.97l-0.36,2.8l1.61,1.2l2.57,5.03l-2.88,4.6l-0.54,-0.9l-3.92,0.28l-1.23,4.09l0.87,0.72l1.21,-3.7l5.75,1.41l1.81,-1.88l0.01,3.69l1.46,2.72l4.99,1.8l10.94,-3.67l0.86,-4.54l-1.32,-7.89l3.85,-5.29l-1.4,-3.14l-7.22,-5.83l-1.24,-4.61l-2.2,-0.9l0.84,-3.83l6.4,0.55l4.22,-4.15l2.31,-3.7l1.4,-4.97l3.96,-5l1.18,-0.12l2.09,1.97l2.09,-1.61l2.36,0.51l-0.03,-1.67l1.68,-1.01l1.56,2.42l3.69,-1.61l-0.46,-2.22l-1.86,-0.74l-1.73,0.71l-0.69,-2.31l-1.15,2.97l-1.85,-1.68l-1.66,1.14l-3.57,0.09l4,-9.15l2.4,-2.66l-1.17,-2.57l2.89,-0.17l11.14,-9.34l9.4,4.41l1.16,-1.38l-2.09,-2.63L137.21,242.4zM133.24,231.35l5.11,0.76l-2.2,1.83l0.35,1.66l2.2,0.3l-3.14,2.83l-1.1,-0.76l-2.39,0.35l-1,3.89l-1.77,0.47l0.03,1.47l-4.31,-3.87l-2.06,-4.36l-1.84,-1.13l0.75,-1.11L133.24,231.35z"/>
		<path id="DK-81" title="Nordjylland" class="land" d="M140.69,222.32l-3.32,-2.78l1.93,-2.89l2.72,3.84l-0.57,2.16L140.69,222.32zM115.59,203.74l-0.42,2.46l2.09,7.03l-1.9,2.59l-2.38,10.7l-1,1.25l0.27,-5.16l-2.16,0.41l-1.56,-1.84l-2.17,0.37l-2.1,3.91l1.87,9.23l1.42,3.47l3.05,3.31l-0.45,2.95l-2.23,0.66l-0.14,1.23l1.5,1.37l-3.44,3.01l0.12,5.08l-1.57,0.74l0.16,1.96l-4.39,3.11l-4.3,5.77l1.05,2.46l-6.28,3.57l-3.61,-0.6l-8.52,3.46l-1.66,-3.64l0.62,-2.42l-3.2,-3.4l0.19,-2.2l-1.54,-0.15l-1.22,-0.55l0.54,-1.46l-0.82,-1.93l-1.82,0.07l-0.18,2.05l1.87,0.24l-1.32,1.18l1.25,2.15l-3.78,1.48l-1.08,-4.55l2.08,-0.8l-4.09,-4.1l-5.13,4.48l0.99,-6.11l6.67,-2.95l-2.54,-7.23l1.6,-1.02l1.54,1.34l1.66,-2.32l1.65,-0.28l4.67,1.15l6.17,-3.5l-0.39,-2.89l-7.31,-1.27l1.71,-3l2.52,0.83l1.03,-0.66l0.08,-1.51l-2.33,0.02l2.38,-3.95l-0.43,-6.18l-1.07,-1.38l4.47,-1.45l2.52,0.75l5.25,-1l1.42,0.65l2.84,-2.3l8.34,-1.44l1.85,-6.88l2.86,-3.35l1.16,-3.05l1.18,1.48l4.07,-0.09l2.94,-3.42l0.33,-2.69l0.82,0.06l-0.23,2.37L115.59,203.74zM246.64,178.53l-2.01,0.4l-2.62,-1.2l-1.41,-3.38l6.15,-0.32l2.35,2.22L246.64,178.53zM269.72,173.17l1.76,3.96l3.92,3.11l3.81,3.38l6.09,6.68l7.49,5.47l5.54,2.1l9.65,-0.96l-0.3,4.35l-1.27,0.01l-0.98,1.69l1.22,1.09l-2.68,4.25l-1.41,11.21l1.99,22.77l2.97,12.32l4.92,7.81l-0.07,3.83l-1.13,1.04l-3.4,-1.7l-6.49,-0.47l-3.61,-1.81l-3.24,2.07l-0.55,1.51l-2.16,0.69l-2.55,-1.31l-0.42,-2.85l-2.66,-0.26l-5.31,2.65l-0.63,2.4l-2.53,1.66l-2.89,-2.04l-5.05,1.9l-1.57,1.99l0.24,1.32l-4.06,0.64l-3.08,3.27l-2.01,-0.27l-0.12,1.68l-4.44,2.26l-13.04,1.22l-3.06,1.92l6.59,0.36l1.77,-1.82l9.04,-0.29l2.01,-1.08l1.18,0.58l2.73,-1.96l2.02,0.6l1.41,-3.08l1.22,-0.03l1.22,-1.52l2.9,-0.33l2.64,-4.52l1.16,-0.22l2.46,2.3l1.44,-0.13l3.46,-3.44l1.35,-2.91l4.36,0.91l1.51,-0.39l4.16,5.46l0,0l0.35,1.49l-5.53,3.53l0.23,3.12l-4.87,1.45l-1.02,5.67l-3.94,1.16l-6.28,4.37l-8.75,2.68l-2.67,-1.43l-1.46,3.92l-8.37,1.71l-1.31,4.55l-6.39,1.41l-5.12,-2.8l-6.23,1.56l-5.22,-7.45l-4.94,-1.25l-4.67,2.55l0.13,-7.14l4.38,-1.49l-0.76,-3.54l-6.18,-0.88l-3.97,0.77l-4.58,-1.56l0.56,-3.36l-5.1,-0.61l-0.39,-1.45l1.8,-1.7l-1.18,-1.93l-1.42,-0.14l0.35,-2.26l-4.12,-0.44l-0.42,1.8l-2.12,0.16l-3,9.47l-3.43,-0.63l-4.96,-3.53l0.16,-2.99l-4.24,0.69l-1.56,-2.2l-4.77,-0.2l0,0l-1.98,-5.11l-3.25,-1.59l-4.16,2.45l-2.26,0.11l-7.44,5.73l-0.84,0.21l-2.26,-3.22l0.08,-1.2l2.05,-1.03l2.36,-3.63l3.83,-3.29l2.43,-4.1l0.9,-3.76l-1.6,-3.95l-4.53,-1.63l-2.05,0.23l0.49,-5.08l-2.72,-4.86l5.55,-9.07l0.35,-4.9l-1.56,-3.09l-4.42,-3.03l-0.31,-1.71l1.76,-6.3l2.59,-3l0.24,-1.67l4.15,-3.53l1.93,-4.33l4.83,-1.5l2.58,-6.44l18.23,-4.81l11.43,1.05l10.12,6.36l-2.53,4.46l1,2.63l-0.99,1.21l-1.15,-2.47l-0.96,-0.16l-1.66,2.5l4.11,7.69l1.4,-5.94l0.51,-2l5.31,-3.24l1.57,-4.48l1.32,-0.4l4.21,-5.62l0.37,-4.7l3.4,-2.88l11.08,-2.86l9,2.28l3.49,-2.81l3.48,-0.9l2.01,0.13l3.01,2.1l2.03,-0.15l1.98,-0.81l2.19,-4l3.18,-2.46L269.72,173.17zM409.5,138.4l-0.07,2.2l-5.12,1.25l-0.53,-0.7l1.5,-2.32L409.5,138.4zM432.38,111l-1.06,5.57l-1.39,-0.74l-1.58,0.73l-7.52,0.03l-5.27,2.59l-0.32,2.04l2.46,0.38l-1.09,6.37l-2.73,3.03l0.19,0.42l-1.11,1.52l-7.54,4.23l-2.06,-0.5l-1.79,0.95l-1.3,-4.47l-2.85,-0.67l-0.71,-2.17l-2.58,-0.57l-1.67,0.75l-5.43,-3.44l0.06,-1.91l4.6,-3.7l2.17,-3.73l3.64,-2.17l8.69,-1.01l2.68,-3.11l12.38,-0.3l3.85,-2.12l7.02,1.22L432.38,111zM349.84,8.08l-1.1,1.02l-1,-0.71l-0.84,0.7l-0.71,0.31l-3.64,3.1l-8.6,10.76l-6.31,10.87l-2.53,10.66l3.11,11.29l12.14,16.77l1.54,4.8l2.05,0.76l-0.76,2l-1.75,0.01l-0.57,1.03l-1.73,1.95l0.3,2.96l-1.85,8.71l1.03,9.82l1.73,3.12l-1.05,2.04l2.53,13.04l0.22,11.75l-4.82,4.55l-2.62,1.08l-7.07,8.86l-5.57,12.74l-3.63,18.1l-3.21,9.55l-3.03,5.71l-4.23,-1.34l-5.81,1.94l-4.96,-0.83l-5.75,-4.42l-9.87,-10.1l-4.31,-2.14l-8.41,-8.11l-1.91,-0.62l-3.16,1.3l-3.52,3.6l0.03,3.21l-2.78,1.05l-8.56,-4.14l-4.99,-5.42l-8.25,-4.38l0.41,1.92l-3.05,7.38l-1.93,1.41l-5.92,0.96l-4.98,-3.04l-2.08,0.81l0.05,-2.86l2.6,-0.69l1.53,-1.95l0.06,-0.72l-2.12,0.19l-3.88,1.7l-3.73,3.4l1.66,1.58l2.61,0.14l-2.49,1.72l-1.74,3.01l-3.23,-0.19l-1.78,2.41l-4.16,-0.99l-6.79,0.74l-1.11,-1.02l-8.15,2.25l-16.76,6.31l-7.13,5.08l-4.77,-0.75l-1.77,-1.2l-10.58,-10.09l-9.89,4.25l-2.48,3.71l-1.41,-0.16l-0.04,-2.52l-0.93,-0.95l-3.49,0.33l-2.35,0.95l-2.51,3.51l-2.93,-0.74l-2.57,1.44l-1.98,4.86l-2.05,-0.01l-1.1,-2.44l-3.38,-0.96l-1.76,-0.16l-3.16,0.64l-0.12,1.7l2.46,1.77l0.1,1.68l-7.63,3.28l-0.88,1.99L95,206.13l-7.68,-1.64l-5.39,0.65l-1.45,4.06l0.71,2.65l-3.07,3.03l-0.03,3.09l-2.04,2.86l0.8,3.03l-0.95,2.12l1.24,0.87l-3.19,5.74l-4.88,5.85l-5.61,0.31l0.09,2.93l-2.15,-0.19l-4.43,2.67l-2.54,3.7l4.32,6.67l-1.54,1.9l-1.44,6.17l-2.71,2.52l3.4,-0.95l4.45,0.54l0.6,1.14l-1.33,2.75l1.72,-0.97l0.74,0.56l-2.11,2.66l0.27,2.7l-8.5,-4.54l-3.82,1.94l-1.1,1.91l-1.92,-0.25l-0.58,1.73l0.77,0.06l0,0l-0.16,1.38l0,0l-6.73,-1.73l-1.08,-3.89l-4.3,-5.71l-2.45,-10.71l-2.37,-2.84l-3.53,-2.12l-1.26,19.41l-1.24,-0.16l0.01,-2.75l-1.49,-2.67l-1.02,-0.06l2.31,-20.42l4.84,-13.69l12.38,-25.33l2.64,-1.51l4.1,-5.22l7.84,-13.67l1.26,-1.32l3.67,-0.67l3.97,-4.67l8.12,-14.49l1.23,0.56l3.09,-1.69l16.49,6.94l2.09,0.01l15.09,-4.59l16.14,-10.28l3.24,0.59l3.55,-0.8l10.12,3.95l11.53,1.34l9.35,-1.04l9.24,-3.18l6.41,-0.5l4.45,-1.81l19.39,-15.82l13.78,-20.66l10.7,-18.74l10.82,-24.83l9.55,-10.08l9.85,-17.31l2.65,-2.19l3.22,-1.31l3.46,1.41l11.62,0.64l10.18,-1.22l11.8,-4.58l10.83,-6.49l32.36,-27.54L350.68,0l5.21,1.96L349.84,8.08z"/>
		<path id="DK-85" title="Sjælland" class="land" d="M474.65,707.56l-2.84,1.07l4.63,5.32l-1.59,-0.79l-3.67,0.94l-0.59,-2.89l2,-0.63l-2.45,-3.16L474.65,707.56zM441.23,696.93l4.06,2.7l3.54,5.22l5.65,1.81l0.23,4.54l3.04,3.38l6.54,3.09l-0.59,1.65l0.87,0.64l1.89,-1.12l2.35,0.58l0.75,1l-0.14,4.67l3.45,0.32l0.04,1.63l8.58,0.58l1.42,1.32l3.44,-0.74l0.42,-0.92l-2.33,-0.84l-2.07,-2.85l0.43,-1.53l2.7,-1.26l3.47,2.09l5.93,-2.36l-1.24,-2.7l0.77,-4.48l-1.57,-3.69l3.14,0.65l7.28,6.38l4.1,-0.13l0.75,0.8l-1.44,2.94l1.73,4.84l5.53,1.81l-1.22,2.77l0.18,3.27l2.48,2.99l3.04,1.06l4.95,5l1.06,7.7l-2.55,2.42l-1.83,0.08l-2.49,-2.05l-0.1,2.81l1.13,1.04l-2.18,1.02l1.2,2.48l6.1,2.99l-1.66,6.1l-4.26,1.66l2.35,1.8l-2.43,1.15l-1.79,0.47l-10.39,-2.11l0.73,-1.05l-1.1,-1.88l-0.76,0.62l0.45,1.84l-1.69,0.89l-0.99,-1.97l-2.27,-1.06l-2.48,0.64l-1.62,1.1l-2.38,-1.21l-4.62,0.69l-2.33,-1.29l-1.1,0.51l0.82,1.17l-2.72,1.39l-2.51,0.14l-1.05,2.73l-6.42,1.1l-4.95,5.71l6.74,3.47l2.29,-0.6l0.06,0.93l-3.9,0.03l-21.43,-14.26l-6.41,-7.31l-4.74,-3.87l-20.74,-8.63l-8.31,-2.47l-6.98,-3.75l-5.55,-9.57l0.08,-0.44l1.95,2.3l2.87,-0.31l2.12,-2.4l-3.95,-3.24l7.26,2.56l1.06,2.8l3.49,-0.17l1.35,-1.7l-1.68,-1.71l0.22,-1.97l2.23,2.58l1.09,-0.29l0.82,-2.2l1.76,-0.71l-0.34,-1.49l2.51,-0.1l-0.35,-0.78l-4.62,0.9l-1.84,-0.88l0,-3.23l-1.3,0l-0.23,-1.89l-1.6,-1.27l-1.45,-1.53l-2.07,-0.74l-1.75,-2.35l-0.29,-2.06l1.68,-5.86l7.62,-6.96l3.27,0.35l0.69,-1.4l0.8,-0.61l1.75,-0.56l1.8,0.55l5.35,-2.76L441.23,696.93zM461.57,694.08l2.11,1.43l3.33,-0.42l2.87,3.95l-0.26,1.2l-4.94,-0.39l-4.54,5.51l-3.96,-3.31l-1.24,-5.32l-1.18,0.01l-0.61,-2.57l2.22,1.04l0.6,3.53l1.4,-1.52l3.27,1.9l0.97,-1.27L461.57,694.08zM520.84,696.26l5.37,3.87l-0.57,1.09l2.05,1.69l0.18,2.38l1.97,1.15l2.12,-0.12l0.83,-5.38l1.11,1.05l4.64,-0.74l1.93,1.48l0.53,6.83l2.6,2.06l7.57,1.73l2.01,-1.14l6.61,1.55l0.93,4.68l3.96,4.77l1.34,3.21l-0.84,1.37l-3.45,1.42l-2.56,5.37l-4.88,2.81l-5.62,7.55l-3.42,8.2l-3.89,3.4l-2.27,4.18l-1.36,9.71l1.77,17.76L539.04,792l-7.33,-3.6l0.72,-1.28l-0.37,-3.52l-7.5,-14.86l1.7,-7.71l4.47,-6.48l-5.65,-2.48l0.7,-3.48l1.3,-1.4l-2.31,-3l-0.78,-3.33l-3.52,-3.16l-0.79,-2.31l-2.61,-0.56l-2.18,-2.19l2.55,-4.85l-1.43,-1.97l0.31,-1.67l-3.18,-2.47l-3.93,-0.39l0.43,-1.31l-1.23,-2.4l1.03,-2.49l-1.38,-1l-0.89,-2.65l2.05,-5.56l-1.4,-2.39l-5.62,-0.65l2.25,-2.92l2.17,0.55l0.48,-1.12l-1.31,-0.71l1.81,-2.64l3.2,0l2.27,1.4l2.45,4.43l2.99,-1.85l0.93,-3.63l-0.85,-2.01L520.84,696.26zM557.44,695.81l-1.09,1.53l-0.62,0.37l-2.14,1.28l-2.21,-1.2L557.44,695.81zM476.35,688.55l4.33,0.81l2.54,3.79l-4.08,6.21l-3.18,-6l-2.4,-2.13L476.35,688.55zM561.27,689.27l-2.17,4.3l-1.23,-0.39l-0.47,1.14l-0.25,-1.2l1.83,-1.88l-0.53,-1.02L561.27,689.27zM575.8,672.44l-2.59,6.03l-4.28,-1.71l-0.94,-1.48l2.43,-0.48l2.67,-2.53L575.8,672.44zM581.73,676.15l1.38,1.94l3.72,1.8l20.18,1.15l8.26,3.64l3.49,6.51l0.75,3.75l-1.6,4.53l-4.41,0.68l-12.54,-4.51l-8.19,-0.53l-5.99,2.64l-4.64,3.77l-10.45,13.5l-3.68,0.73l-5.34,-0.72l-2.34,-4.28l2.39,0.87l0.79,-1.19l-5.47,-0.41l-14.6,-4.74l-1.25,-2.74l0.31,-1.97l-1.77,-1.83l1.35,-1.87l2.18,5.54l1.65,0.34l1.57,-1.37l5.16,0.02l2.64,2.92l-1.77,3.96l3.97,1.13l2.5,-0.97l-1.79,-1.93l1.38,-3.76l3.77,-2.48l-2.27,-0.94l-1.18,-2.74l5.78,-3.22l2.52,0.96l-1.97,-4.57l4.14,1.44l1.31,3.38l9.74,-4.09l1,0.85l-2.41,4.09l0.95,0.49l2.4,-0.94l2.9,-3.3l5.46,-1.42l-7.11,-0.74l-2.02,1.5l-0.78,-0.87l-1.26,-3.34l1.66,-4.02l-2.87,-4.7l-1.16,-1.04l-2.38,0.52l-0.57,-1.21l0.38,-1.6l3.71,-2.87L581.73,676.15zM505.41,653.42l-1.53,3.31l-0.62,-3.03l1.02,-2.7L505.41,653.42zM429.19,645.36l0.34,0.96l-2.3,2.02l-1.7,4.42l-2.38,-4.78l6.31,-4.05L429.19,645.36zM498.73,643.17l0.34,4.95l-2.89,-0.93l-1.92,-3.11l2.32,0.46L498.73,643.17zM504.45,642.19l-0.77,2.85l-1.41,-0.65l-2.12,0.61l1.73,-7.26l4.17,1.6L504.45,642.19zM431,628.46l-1.06,0.85l-0.6,-0.55l-0.15,1.88l2.28,2.2l1.83,5.89l-1.39,1.04l-3.07,-1.13l0.1,-10.48l-0.84,-1.6l0.54,-0.59l1.52,0.9L431,628.46zM592.4,541.67l0.92,0.81l0,0l-1.25,0.76L592.4,541.67zM446.5,499.51l0.56,1l-1.88,-1.24l-1.74,-3.8l0.65,-2.52l1.44,1.45l-0.69,1.3l1.96,2.22L446.5,499.51zM521.73,496.29l-1.32,6.35l-2.98,1.62l-1.71,-1.87l-1.36,-0.11l-2.43,-5.95l2.12,-0.76l1.12,-1.67l2.47,2.4l1.48,-6.53l2.05,3.06L521.73,496.29zM427.68,470.59l3.45,3.97l3.08,1.71l0.47,2.29l-1.55,-1.65l-8.52,-3.61l-3.87,-5.06l-4.33,-1.97l-0.8,-3.64l5.11,1.85l0.98,2.1L427.68,470.59zM453.05,448.08l4.58,2.77l5.06,1.33l8.77,0.34l5.5,2.25l9.59,-2.57l2.35,3.93l3.24,1.66l9.39,-2.21l10.65,-7.12l2.15,6.88l-1.76,-1.14l-3.45,3.23l-0.84,4.02l0.44,4.71l-2.49,1.51l-3.17,-1.19l-0.52,-2.24l-2.62,0.29l-1.25,-0.83l-1.87,4.89l0.36,3.43l3.21,1.71l2.39,3.24l3.08,6.1l0.32,3.84l-2.58,3.61l-0.57,-1.08l-6.54,-1.89l-2.02,2.38l0.98,1.18l-1.21,0.51l-0.05,1.79l-4.91,2.4l-0.17,1.16l2.93,2.02l2.76,-0.3l11.22,-5.8l1.65,1.79l0.72,3.72l1.59,2.11l-1.08,0.65l-0.48,-1.93l-1.13,1.74l0.91,1.62l3.04,1.45l0.03,1.63l-6.71,2.08l-8.19,0.45l-1.43,0.78l0.72,1.45l-0.66,0.96l1.54,0.36l0.1,0.91l6.78,-1.5l7.81,0.34l0.74,-1.37l-1.52,-1.38l1.12,0.26l2.92,4.53l-0.12,3.2l1.57,0.33l0.51,2.64l-2.44,1.35v2.57l-1.82,0.66l-0.76,2.47l3.88,-1.11l0.61,0.65l1.35,-3.27l3.27,-2.42l0.51,-5.65l2.32,-6.05l2.56,-1.59l0,0l4.05,1.59l3.73,-3.42l6.81,3.72l0,0l-0.09,3.36l-6.99,13.39l0.36,3.51l1.25,-3.32l1.54,-0.7l-0.13,-2.93l6.29,-0.64l-0.91,-2.89l-1.41,-0.81l1.54,-1.13l-0.05,-2.15l0.51,1l1.82,-0.63l-1.14,3.05l0.85,0.37l1.1,-1.26l0.78,0.76l1.63,-0.44l1.75,1.17l-0.39,1.3l1.62,0.87l-0.32,0.82l-1.85,-1.11l-1.82,0.46l-3.54,-2.15l-0.28,1l1.24,0.03l0.92,2.87l-0.68,1.41l3.93,-0.87l0.94,0.82l0.44,-1.08l1.8,-0.23l-0.33,3.99l3.33,1.8l1.47,-4.94l-1.23,0.12l-1.59,-2.55l1.18,-2.1l0.88,-0.29l0.92,1.32l0.45,-2.07l-1.81,0.38l0.17,-0.75l2.14,-0.35l1.48,-1.74l0.59,-1.53l-1.66,-0.34l0,-2.1l2.42,-2.35l-1.46,-1l-1.87,-2.61l0.75,-3.06l-2.12,-2.42l0.56,-3.69l0,0l10.75,8.34l5.77,-0.91l2.56,2.58l-1.77,3.28l5.03,4.51l-5.36,5.19l-3.67,-0.25l-4.85,4.22l0.93,9.08l1.34,-0.07l-0.99,5.23l6.89,2.02l0.79,-3.21l2.75,-0.83l1.11,1.75l4.58,-2.01l8.44,3.49l2.5,2.34l0,0l-0.47,1.83l-7.73,4.01l-7.72,7.83l-6.45,18.03l0.8,2.7l-0.55,1.49l0.7,2.42l3.74,4.39l10.46,5.46l8.6,0.88l7.11,6.79l3.91,5.18l0.33,3.15l1.01,0.97l-1.3,3.95l1.38,5.1l-0.36,2.15l-5.33,5.92l-2.52,1.61l-3.56,-0.11l-2.18,4.38l-11.19,-1.46l-11.14,4.31l-3.64,2.92l-0.85,-0.48l-7.22,9.41l0.57,8.34l-1.92,1.54l-1.74,0.19l-1.13,-1.15l0.86,-5.91l1.67,-2.87l-0.66,-0.61l-4.14,0.47l-4.35,2.12l-2.62,4.31l1.03,1.28l2.39,0.59l0.64,1.67l-0.66,2.72l1.67,-0.77l1.15,1.33l1.66,-2.36l2.52,0.06l0.01,1.78l2.13,-0.15l0.36,-0.87l1.35,0.65l2.29,-1.79l4.83,1.75l2.22,2.38l-1.49,6.5l-2.21,2.74l-2.65,-1.58l-1.67,0.93l-0.37,-1.32l-2.86,-1.61l0.49,1.58l1.78,0.18l-0.07,1.98l1.44,0.35l-1.55,1.36l0.94,0.05l1.22,2.98l-0.43,1.95l2.27,0.45l-0.67,1.82l4.42,8.3l-0.28,2.42l-6.58,-0.27l-6.12,5.85l-3.48,1.95l-3.69,-0.04l-6.55,-3.35l-3.34,-4.81l-5.74,-2l-0.62,0.45l1.34,0.59l0.14,1.31l-2.95,0.18l-9.44,-7.12l-2.72,-3.29l-11.01,-4.15l-6.92,-4.07l-7.49,-2.01l-0.8,-0.74l17.57,4.53l10.84,5.53l1.06,-1.26l-3.29,-6.08l-4.79,-3.54l-1,0.7l1.6,1.88l-2.5,-0.2l-1.73,-2.65l1.14,0.03l0.86,-1.57l-2.7,0.21l-3.22,-4.8l0.61,-3.77l0.96,0.81l-0.45,1.3l4.39,0.34l2.57,-3.36l4.02,0.91l1.42,-1.5l-1.07,-3.6l-2.05,-0.93l-2.25,1.7l-1.12,-0.76l0.28,-1.55l-4.4,0.04l-1.06,0.95l-2.31,-0.96l-0.24,-3.14l3.89,-2.69l-0.63,-1.04l-1.53,0.77l-0.44,-0.66l2.89,-3.31l-1.28,0.18l-3.17,-2.87l-3.74,0.54l-4.33,4.5l0.16,1.6l-2.29,1.21l-5.87,-3.3l-2.28,0.48l-10.66,-2.83l-1.44,0.53l-0.62,-1.78l-2.94,0.09l0.13,-1.27l-1.57,-1.62l-1.22,0.68l-2.45,-1.3l-2.14,3.09l0.38,0.81l1.37,-0.87l2.34,0.43l1.65,4l-3.04,0.6l-6.53,-0.87l1.12,-1.64l3.73,1.47l-1.25,-3.94l-2.18,-0.62l-3.96,2.66l-2.26,-2.85l-2.13,2.32l-0.89,-2.26l-1.93,0.05l-0.65,2.18l0.65,1.13l-2.91,0.7l-1.93,-1.86l-3.29,-0.22l-1.85,-1.61l-0.94,-2.57l1.93,-1l-2.44,-5.13l0.79,-0.58l1.06,1.39l4.72,1.11l3.5,-7.63l-0.67,-2.84l-1.99,1.32l-0.47,4.06l1.04,0.79l-2.46,1.65l-0.9,1.97l-1.24,-1.99l-2.64,-0.67l0.82,-3.2l-1.39,-5.67l-8.34,-4.75l-3.32,-3.57l-2.82,-1.35l-0.17,-1.57l0.89,-0.55l2.61,1.73l4.67,0.33l0.35,-1.24l2.06,-1.15l-0.14,-2.1l-3.3,-2.2l-2.13,-0.07l-1.18,1.03l0.92,2.91l-3.03,0.78l-4.45,-3.26l-2.31,0.35l2.93,-5.67l0.87,1.31l4.26,-0.68l3.66,-2.92l3.43,-0.74l1.81,-3.64l-2.78,-5.02l1.29,-6.25l-3.7,-7.79l-0.53,-5.12l-4.49,-4.5l-2.51,-4.2l-1.08,1.04l0.35,1.48l0.86,-0.28l-1.55,2.72l-2.54,0.37l-1.94,-1.03l2.09,-5.14l6.2,-0.09l2.38,-5l-1,-6.93l-2.85,-6.62l-2.65,-2.77l-9.88,-6.28l-13.22,-2.32l-1.42,-1.11l-0.14,-1.66l1.16,-0.85l3.3,1.34l4.73,-0.23l8.09,1.85l3.76,-0.95l0.39,1.02l2.02,-1.09l0.25,-0.8l-1.94,-0.39l1.7,-1.41l-4.22,-0.99l-1.44,-0.56l-5.11,-3.78l-4.1,-6.35l-1.43,-0.76l-10.38,-0.42l-5.59,-3.46l10.58,-2.07l5.72,1.22l8.26,3.61l4.83,-0.83l6.45,-4.17l4.47,0.27l2.48,-0.83l-0.19,1.77l2.79,3.77l2.19,-0.15l0.9,-1.76l-0.57,-1.23l1.05,-0.74l4.73,4.41l4.03,-2.45l0.77,-3.38l0.71,-0.18l0.99,2.8l0.82,-2.75l5.5,-0.87l2.94,-2.64l1.67,-5.09l-0.91,-2.2l-0.41,-8.71l-1.19,-2.04l-1.36,0.26l0.38,-0.74l0.77,-0.48l4.26,3.68l7.46,-4.13l6.15,0.14l3.29,-4.48l1.27,-4.6l0.18,-8.06l-1.32,-3.79l-7.65,-4.25l-11.73,-1l-5.64,-3.96l-5.24,-1.46l-2.85,-8.73l3.57,5.29L453.05,448.08z"/>
		<path id="DK-83" title="Syddanmark" class="land" d="M352.86,709.9l-0.44,1.84l-2.25,1.11l-2.05,-5.8l3.63,-0.91L352.86,709.9zM334.04,706.2l0.31,0.96l-2.34,-0.64l0.89,-1.85L334.04,706.2zM335.88,702.13l1.22,1.85l-1.8,0.18l-0.43,-1.8l0.72,-1.05L335.88,702.13zM358.45,696l4.56,0.84l0.52,1.99l-1.58,0.01L358.45,696zM335.12,694.59l-1.69,1.93l-1.22,-2.05L335.12,694.59zM294.78,693.34l2.29,0.62l0.35,2.17l4,4.08l4.01,0.81l5.79,5.97l1.67,3.54l3.83,1.27l0.94,2.45l1.76,-0.47l3.22,-4l-2.27,-1.84l0.63,-0.76l2.55,2.82l-1.16,1.34l2.04,4.74l2.26,2.54l1.65,1.02l1.85,-3.14l2.84,2.71l0.59,-0.41l-3.48,-4.83l1.45,-0.27l6.86,7.02l-0.15,3.16l-8.67,1.31l-1.96,1.18l-1.2,2.86l-1.9,1.45l-6.65,-4.99l-7.26,-9.45l-4.49,-2.91l-5.74,-7.3l-1.01,-5.44l-3.81,-3.94L294.78,693.34zM324.77,690.31l2.47,3.4l-1.97,1.87l-5.28,-3.61l-2.16,1.57l-1.6,-1.45l2.87,-1.26l0.64,0.9l4.96,0.93L324.77,690.31zM330.75,683.66l3.56,2.34l-2.13,-0.46l-1.1,1.28l-1.68,-0.2l-0.32,-1.61l1.46,-2.06L330.75,683.66zM304.22,680.96l3.52,0.85l2.46,1.81l2.78,-1.12l0.38,2.57l-1.38,0.34l-4.77,-3.26l-5.32,0.03l-2.96,-3.18l0.46,-1.5l1.82,-0.54L304.22,680.96zM353.63,673.18l1.65,2.4l-0.62,2.09l2.53,0.71l0.35,2.21l-1.45,1.1l-1.42,5.26l-0.64,0.91l-0.73,-0.55l-0.75,1.65l1.5,2.1l2.97,0.68l1.66,-1.66l0.49,-2.27l2.9,-0.52l-0.46,5.49l-5.02,0.55l-4.48,5.67l-5.02,-1.78l-1.05,0.17l1.73,1.8l-2.42,-0.32l-2.34,1.34l1.38,-1.99l-2.03,-0.18l0.12,-2.41l-2.86,-2.39l-0.78,-4.99l0.67,-0.94l-1.7,-0.84l-0.22,-1.94l2.41,0.02l1.65,-2.33l7.3,-4.73l3.9,-3.69L353.63,673.18zM363.29,673.04l0.99,0.63l1.29,5.69l-2.11,-0.94l-4.72,0.81l0.38,-1.75l-2.85,-0.36l-0.42,-2.38l0.83,-0.72l2.38,0.44L363.29,673.04zM288.43,674.57l2.04,0.5l0.75,1.3l-1.36,1.47l-3.22,0.99l-2.9,-3.18l-0.15,-2.24l2.15,-1.54l-0.11,1.92L288.43,674.57zM303.16,673.07l-3.61,-1.77l-0.57,-2.01L303.16,673.07zM244.26,674.6l7.89,7.06l3.96,0.31l3.18,1.4l6.55,6.9l6.59,12.72l0.72,5.38l2.33,3.75l0.72,3.99l-0.94,0.87l-5.97,0.23l-4.53,4.79l-6.41,-0.3l-4.63,-2.55l-2.5,-0.16l-3.02,-3.58l4.26,-4.02l2.4,3.04l4.83,2.36l0.32,1.4l2.33,0.17l2.57,2.78l1.08,-1.01l-2.5,-4.52l-9.71,-6.43l-2.42,-0.51l-1.66,2.15l-1.16,-0.26l-5.47,2.63l-4.96,-2.01l-1.78,-2.08l-0.21,-2.22l-1.69,-0.75l-1.42,-12.64l-1.13,-1.56l1.2,-1.18l1.89,2.89l2.74,0.83l5.05,7.06l3.31,-1l-2.51,-1.55l2.9,-1.09l-3.31,-0.96l1.41,-2.19l1.79,-0.16l-4.58,-3.06l-5.25,-0.8l-0.04,-2.11l-0.59,-0.4l-0.49,-1.54l2.14,-0.88l0.27,-1.6l-12.95,0.77l-5.33,-3.51l-0.12,-1.77l3.48,-0.91l1.53,-1.4l1.15,0.37l-0.1,1.21l1.92,0.1l-1.21,-1.79l-1.62,-0.16l1.15,-1.3l-1.34,0.11l-1.4,1.44l0.26,0.41l-1.15,0.35l-4.98,-0.94l-0.74,-1.32l0.06,-1.61l3.9,-3.54l4.45,-2.81l6.18,-1.52l3.32,0.75l6.72,3.9L244.26,674.6zM207.04,659.22l-2.6,0.61l-1.08,-3.3l0.61,-1.46l1.71,0.26l1.36,1.98L207.04,659.22zM398.55,651.26l-2.76,15.39l-5.65,21.16l-5.12,6.55l-3.79,8.49l-0.5,3.67l-1.27,1.95l-0.4,5.54l-5.32,13.54l-5.6,20.51l-2.65,3.87l-3.1,1.32l-3.68,-4.32l-0.13,-2.13l1.26,-2.21l-2.19,-5.16l-0.22,-4.24l-3.17,-4.92l-4.55,-2.99l-0.96,-2.02l7.15,2.01l1.74,-3.81l1.37,-0.38l-0.9,-0.88l1.12,-7.27l1.52,-0.2l0.49,1.89l2.22,1.05l0.52,-1.52l3.04,-0.24l-2.86,-4.65l-0.05,-2.44l-1.25,2.44l-1.58,-0.91l-0.86,0.69l-0.68,-2.94l1.47,-3.2l9.77,-12.55l1.87,-1.68l2.52,0.28l2.9,-3.14l2.53,-6.24l2.68,-3.34l4.13,-16.32l3.09,-5.66l0.38,-3.13l5.29,-6.31l1.74,1.4L398.55,651.26zM232.68,620.78l0.67,4.01l1.14,-1.11l-0.95,-1.27l2.19,-0.96l-0.4,1.7l-2.37,3.12l-2.78,0.09l-1.92,-2.33l1.03,-0.73l-0.84,-1.91l2.76,-1.04L232.68,620.78zM241.43,607.51l1.39,4.01l-0.34,2.32l-4.01,1.34l-1.19,-5.02l0.8,-2.39l1.37,0.64L241.43,607.51zM226.73,600.69l-1.88,0.98l-1.81,-1.43l1.44,-1.61l1.64,-0.25l1.65,1.78L226.73,600.69zM37.3,575.5l0.78,1.25l0.61,-2.03l2.29,-1.83l3.22,0.22l2.03,0.92l-0.54,7.21l0.73,1.4l1.36,1.06l2.68,-3.13l2.02,1.38l1.63,6.38l-2.6,2.78l2.74,4.22l0.8,5.28l1.35,-0.19l-1.56,3.26l0.43,0.88l-3.24,-0.49l-3.5,-2.72l-7,-15.41l-6.08,-6.1l-0.44,-4.17l4.2,-2.96L37.3,575.5zM225.03,571.58l-1.78,-0.37l-1.81,-3.66l0.53,-2.24l1.77,0.64l1.65,2.77l1.52,0.27l0.17,1.62L225.03,571.58zM351.45,538.45l0.35,-2.22l0.89,1.19l8.06,14.86l3.17,3.68l-0.33,2.73l1.48,4.14l3.56,3.79l1.38,3.25l-1.66,1.86l-3.37,-0.41l-5.45,2.85l-1.08,3.23l-1.77,0.94l-2.63,-1.35l0.29,1.29l-1.24,0.26l-2.71,-2.51l-3.58,-1.4l-0.09,0.88l-3.69,1.09l0.57,1.18l-0.45,1.01l-1.59,-0.14l0.13,1.05l4.44,4.65l0.93,-1.42l-1.12,-5.46l1.78,-1.65l7.09,4.65l3.86,-2.9l13.29,15.1l3.9,7.02l3.85,11.82l2.91,2.52l0.43,0.69l0.94,2.02l-3.43,0.95l0.81,-0.97l-0.64,-1.69l-1.08,-0.71l-0.51,0.85l-2.46,-2.46l-1.53,-0.16l0.38,1.92l-0.07,1.69l-0.1,4.46l3.82,10.14l-1.17,12.21l-2.13,4.11l-2.83,12.97l0.62,2.1l-2.61,1.23l-1.8,6.63l-5.3,2.88l0.18,-1.02l-2.36,-0.62l-0.73,1.34l-5.81,0.72l-0.82,-1.14l-2.96,-0.62l-0.17,2.06l-2.17,1.54l-11.27,5.02l-3.8,-1.12l-2.52,-2.68l-7.68,0.69l-4.03,-2.29l0.35,-1.22l-2.02,-2.69l-2.7,3.5l-4.76,-0.81l-0.18,-2.07l-2.92,-0.94l-1.93,-3.29l-6.24,-3.09l-1.42,-1.96l-2.74,1.69l2.01,1.36l0.85,2.64l-2.25,2.79l-1.5,-0.14l-2.34,-3l-3.43,-0.2l-4.13,-2.52l-7.73,3.46l-0.69,-2.53l1.85,-4.85l2.87,-0.01l1.76,-2.34l4.03,-1.02l1.62,-0.36l2.39,-1.56l-1.64,-0.96l-2.65,-5.13l-1.26,-0.13l-0.21,-2.96l-2.84,-5.61l-0.8,-0.12l-0.93,1.7l-0.83,-0.38l-1.21,2.02l-5.19,-0.27l-3.99,-1.04l-0.17,-3.37l-3.29,-1.55l-0.64,0.71l1.83,2.12l-0.97,1.58l-0.9,-0.59l-0.44,2.56l1.3,-0.98l0.31,3.35l2.02,1.37l4.42,6.43l-2.68,3.17l-6.38,-2.96l1.73,-3.56l-1.28,-4.8l0.47,-9.63l-2.69,-2.81l-5.23,-0.13l-2.75,-4.22l-2.27,-1.89l0.99,-1.8l-2.47,-3.49l1.2,-0.71l0.48,-8.87l-2.17,-6.43l0.14,-1.78l2.24,1.07l0.56,-1.11l-2.44,-0.9l-0.79,-3.28l-1.82,1.46l-3.05,0.15l-7.38,-3.22l0.41,-2.78l4.06,-0.38l2.92,-1.93l0.08,-1.69l-2.34,-2.73l-4.88,-2.02l1.38,-1.13l3.61,0.55l0.19,-2.46l-4.74,-2.15l-6.6,-0.66l0.4,-2.65l-4.13,-5.59l0.77,-1.2l0.81,1.78l7.76,6.48l3.97,1.74l1.69,-0.61l-2.57,-2.2l-0.38,-1.56l-1.09,0.22l-2.64,-1.94l0.48,-1.11l2.24,0.97l-0.91,-1.59l-0.89,0.19l-0.88,-1.3l-2.61,0.6l-2.3,-1.5l-1.71,-4.75l-3.84,-0.41l-2.8,-3.02l-0.46,-2.15l2.67,-0.58l3.54,2.41l3.15,0.42l3.3,-5.89l-1.8,-2.98l3.75,0l3.17,-2.27l3.87,-0.65l1.93,1.02l0.13,6.23l2.26,2.81l7.04,1.07l3.2,-0.63l11.59,-8.37l1.74,-2.64l5.19,-1.15l4.44,-3.08l4.46,-0.67l5.62,-2.95l2.11,0.14l1.13,-0.69l1.15,-2.15l10.01,-1.9l-0.41,0.77l0.86,2.5l-0.78,2.72l4.71,-0.24l0.3,-0.93l-1.71,-1.57l0.07,-3.52l-1.7,-2.8l2.72,-0.48l14.36,8.18l4.87,4.94l12.19,9.13l3.15,3.68l-1.07,0.61l-4.09,-5.54l-3.99,-2.82l-0.63,0.58l0.84,1.63l-1.18,0.27l-0.76,0.82l-1.56,0.78l-0.11,1.19l1.82,1.45l0.05,2.15l2.74,3.04l-1.54,1.02l-1.16,-0.57l-0.77,1.32l1.44,1.79l-4.37,-1.06l-0.44,2.53l-1.5,-0.31l-0.71,2.46l-0.22,1.18l-0.18,3.11l-1.51,3.26l2.59,0.45l1.85,-1.7l2.22,1.36l3.48,-3.58l-0.99,-1.97l-1.15,-2.94l5.55,1.87l2.3,-2.62l2.63,1.11l0.02,-0.87l2.13,-0.44l0.83,-1.34l2.45,-0.43l1.89,1.43l1.74,-2.1l-0.58,-4.2l-7.34,-3.75l0.11,-1.08l2.89,-1.92l3.63,3.65l1.93,-0.6l-1.43,-2.62l0.33,-3.72l-2.06,-3.23l-1.31,-6.18l0.2,-0.12l4.03,6.55l1.21,-2.39l-1.78,-1.46l1.33,-0.36l-0.53,-3.6l-1.69,-4.53l-1.28,0.81l-2.6,-2l0.36,-1.82l1.07,1.78L351.45,538.45zM289.77,529.61l2.82,0.87l0.26,1.46l-1.37,1.68l0.82,5.16l-0.7,1.02l-0.33,-5.74l-2.53,-4.5L289.77,529.61zM169.96,458.32l1.28,0.15l0.53,1.17l1.4,-0.37l0.86,0.88l0.5,-0.68l0,0l0.51,-0.54l0,0l1.37,-0.02l-0.7,-0.38l0,0l-0.01,-0.07l0,0l5.68,2.67l0,0l0.04,1.59l10.2,14.1l-2.77,1.99l2.14,0.93l-1.14,3.77l4.99,0.49l-0.06,1.32l2.88,0.07l2.28,10.15l2.86,0.51l-0.22,2.54l5.56,-0.36l0.86,-1.62l1.52,2.06l-1.64,2.18l2.39,2.96l3.1,-1.54l3.23,1.09l0.57,-1.4l4.09,2.48l0.42,3.33l-1.73,5.82l0,0l-12.77,1.92l-2.99,-1.53l-0.24,2.83l4.37,2.22l7.94,-1.02l1.4,1.05l1.66,-1.2l5.14,7.27l1.09,-0.34l3.53,1.96l1.21,6.24l1.78,2.47l6.55,-1.33l7.35,0.81l-8.97,7.43l-0.69,2.97l-2.8,3.37l-0.27,3.11l-1.7,-0.78l-3.07,0.38l-0.5,3.59l1.48,5.92l-2.31,0.12l-6.99,-2.32l-4.57,4.54l-1.9,-1.12l-2.53,0.79l-0.42,-2.28l-5.03,-1.89l-0.66,0.84l0.98,1.61l2.48,0.14l-1.63,1.4l0.9,3.44l-5.84,0.15l-3.72,-1.11l-4.48,2.69l4.41,1.56l7.64,-2.21l2.38,1.68l2.32,-2.71l3.09,-0.45l9.37,9.19l-5.52,5.96l-7.61,2.49l-0.79,1.84l4.04,7.83l-2.81,6.25l-1.51,-2.43l-2.43,-0.83l-1.29,0.55l1.56,2.38l6.76,1.42l3.15,3.54l0.44,3.54l-2.49,3.6l1.45,-0.08l4.06,6.65l-6.03,-1.02l-2.39,3.75l-3.76,0.98l-0.15,2.78l-1.52,0.15l-1.11,2.33l3.56,-2.22l0,-2.66l3.04,-0.66l3.35,-3.44l1.45,1.15l1.63,-0.65l7.54,5.11l0.9,2.75l-0.94,1.88l0.51,1.33l-3.4,4.36l0.33,5.99l-7.64,4.12l-1.25,-2.81l-5.48,-0.95l-3.89,3.8l-8.71,5.05l0.9,5.15l1.96,2.03l-6.21,-1.04l-1.42,1.64l-0.12,1.07l-0.79,1.43l2.87,-1.03l0.55,0.92l1.25,-1.14l2.2,2.06l1.79,0.35l2.68,4.26l1.62,0.55l-0.06,3.43l-6.93,7.26l-4.71,-0.73l-3.37,1.83l-1.85,-0.5l-0.31,-0.98l-0.46,1.55l-0.1,0.54l-0.14,1.09l0.49,2.09l1.27,0.78l0.95,-0.88l1.74,2.18l5.33,0.36l7.69,-4.04l3.53,-0.68l0.09,-1.91l1.17,-0.4l3.34,2.05l3.27,6.07l3.2,1.03l5.56,4.35l6.14,0.11l0.22,3.21l1.73,1.93l0.4,8.94l1.25,0.8l0.49,2.33l2.07,1.18l-0.62,1.82l-2.95,1.52l-6.43,-1.53l-1.17,1.83l0.22,1.27l3.03,0.37l2.07,1.86l0.37,2.82l2.19,1.88l0.39,2.71l-1.2,2.43l-3.53,1.26l-3.11,-2.8l0.25,-1.36l-3.6,-1.15l-3.1,0.5l-2.66,-1.38l-0.34,-1.42l1.97,-1.39l0.86,-2.02l-2.03,-1.01l-0.74,-2.02l-5.27,-2.95l5.37,-2.33l1.55,0.12l1.01,1.59l2.58,-1.13l-2.85,-3.23l-4.48,-1.92l-1.4,4.59l-2.3,-0.6l-0.78,0.97l1.16,-0.03l0.6,1.12l-3.82,2.12l0.48,2.58l-1.59,2.54l-1.29,0.77l-2.51,-1.3l-0.37,1.19l-1.68,-0.06l-0.57,1.18l-1.44,0.14l-3.32,5.55l-7.37,3.86l-1.95,-0.01l0.01,-1.4l-1.29,-1.07l-3.57,0.79l-1.22,4.32l-2.45,1.42l-1.77,3.6l-1.97,-1.28l-4.96,-0.79l-1.3,-0.17l-1.9,-0.6l-2.82,0.6l-1.97,-5.17l1.25,-3.03l-0.64,-1.47l-12.06,-5.1l-14.56,-0.2l-4.62,-3.48l-9.15,-3.83l-7.76,-0.57l-4.52,1.96l-4.9,-2.42l-3.48,0.51l-3.05,2.88l-3.05,-1.01l-3.75,0.99l-6.48,-4.23l-6.3,-0.28l3.09,-12.41l0.16,-5.58l-3.78,-12.9l2.01,-11.94l5,-9.92l-0.61,-1.22l1.14,-2.05l-1.85,-0.86l-8.9,0.7l-7.23,-1.17l-0.8,1.85l1.23,4.74l-1.16,5.09l2.57,3.91l-3.08,2.47l-3.07,-0.34l1.63,2.73l-1.45,0.69l-2.86,0.89l-1.02,-0.86l-4.76,-6.84l0,-2.86l2.13,-18.32l1.05,-1.8l0.95,-3.91l1.48,-1.45l2.91,-0.47l-0.63,1.94l7.29,0.63l2.44,2.11l-0.74,2.58l-1.9,1.79l-0.63,4.48l8.68,1.36l4.7,-0.7l0.95,-1.6l2.28,0.8l0.41,-1.3l-0.83,-0.75l-2.63,-14.41l-0.49,1.34l-0.88,-0.27l1.3,-4.38l-1.07,-0.54l0.05,-2.87l0.98,-0.99l-1.5,-1.35l1.25,-0.44l-2.76,-2.09l1.07,-2.2l1.21,0.53l-0.82,-4.13l0.73,-2.74l-2.18,-0.73l-7.81,4.7l-2.32,5.15l-3.53,0.52l-1.72,-1.84l0.05,-2.1l2.12,-2.8l1.94,-0.66l4.09,0.6l7.12,-4.29l2.4,0.75l1.35,-3.67l0.14,-2.21l-1.89,-3.95l-4.7,-18.74l-9.77,-6.96l-4.48,0.74l-6.57,-1.6l-0.82,1.69l-3.46,-1.52l1.14,-0.09l-0.18,-0.64l-2.44,-0.06l0.76,-1.39l-2.72,-4.11l-13.81,-15.42l-3.28,-4.97l0.47,-1.84l2.57,-1.27l0.05,-0.92l-3.55,-2.83l-2.96,-0.25l-2.78,3.63l-1.62,3.46l0.03,2.87l2.12,4.15l2.45,1.02l-1.34,2.4l1.22,1.96l5.11,4.77l0.07,3.69l-1.76,1.05l-14.13,-12.25L0,551.26l11.74,-37.63l2.24,-14.9l-0.75,-10.52l0,0l2.6,-0.48l0,0l-1.37,-3.25l0,0l6.18,1.01l-0.12,2.11l6.55,5.1l1.8,-1.06l5.22,0.12l4.01,-5.24l4.04,5.1l6.1,0.61l-1.24,0.88l3.54,1.82l1.2,2.86l6.27,-0.08l2.66,-2.65l-0.16,-5.58l3.33,-0.68l1.31,-2.28l-1.94,-4.63l5.21,-1.6l3.2,3.15l11.51,-3.3l4.4,2.59l1.99,5.88l5.05,1.91l9.39,-3.27l-4.47,-4.52l3.97,-2.38l2.28,-8.44l2.21,0.38l1.32,-3.73l2.27,-0.08l11.63,2.67l-1.07,9.69l7.12,3.66l2.86,-2.44l2.24,1.02l1.73,-3.51l1.67,1.53l3.66,-8.06l2.8,1.95l4.48,-3.51l6.33,-8.18l-0.08,-3.44l3.35,-5.91l5.23,0.3l3.26,3.75L169.96,458.32z"/>
	</g>
</svg>