<?xml version="1.0" encoding="utf-8"?>
<!-- (c) ammap.com | SVG map of Ecuador - Low -->
<svg xmlns="http://www.w3.org/2000/svg" xmlns:amcharts="http://amcharts.com/ammap" xmlns:xlink="http://www.w3.org/1999/xlink" version="1.1">
	<defs>
		<style type="text/css">
			.land
			{
				fill: #CCCCCC;
				fill-opacity: 1;
				stroke:white;
				stroke-opacity: 1;
				stroke-width:0.5;
			}
		</style>

		<amcharts:ammap projection="mercator" leftLongitude="-91.665191" topLatitude="1.438762" rightLongitude="-75.190072" bottomLatitude="-4.989838"></amcharts:ammap>

		<!-- All areas are listed in the line below. You can use this list in your script. -->
		<!--{id:"EC-A"},{id:"EC-B"},{id:"EC-C"},{id:"EC-D"},{id:"EC-E"},{id:"EC-F"},{id:"EC-G"},{id:"EC-H"},{id:"EC-I"},{id:"EC-L"},{id:"EC-M"},{id:"EC-N"},{id:"EC-O"},{id:"EC-P"},{id:"EC-R"},{id:"EC-S"},{id:"EC-SD"},{id:"EC-SE"},{id:"EC-T"},{id:"EC-U"},{id:"EC-W"},{id:"EC-X"},{id:"EC-Y"},{id:"EC-Z"}-->

	</defs>
	<g>
		<path id="EC-A" title="Azuay" class="land" d="M587.41,188.27L590.44,187.64L594.99,188.88L596.77,190.9L597.24,194.35L596.65,195.48L597.24,197.5L599.5,198.92L604.37,198.8L606.39,196.43L608.77,199.99L609.84,200.59L610.55,203.44L612.33,204.63L616.38,204.03L616.51,202.38L617.64,201.42L618.39,199.36L620.79,197.29L625.14,196.05L625.53,193.81L626.59,192.51L629.02,191.76L629.21,194.88L630.4,194.88L632.14,192.86L632.14,192.86L632.65,193.1L632.65,193.1L635.39,194.05L635.27,196.31L628.97,197.73L626.95,199.52L626.59,201.06L626.83,202.61L627.78,203.42L627.54,204.98L624.69,208.43L623.98,215.32L621.72,217.46L619.23,217.94L617.68,219.24L615.54,223.64L610.08,225.66L609.84,227.68L609.84,227.68L608.18,228.63L608.18,228.63L604.73,231.48L605.45,234.17L604.02,237.13L604.85,239.98L603.03,241.21L603.03,241.21L602.89,241.07L602.89,241.07L600.93,239.98L600.33,236.53L598.55,233.92L597.95,233.57L595.04,235.48L594.16,234.86L593.14,232.11L593.07,228.81L590.92,228.02L585.1,227.64L585.1,227.64L581.53,227.25L581.53,227.25L578.23,226.43L577.88,224.17L579.9,221.56L579.9,218.83L573.24,216.87L573.24,216.87L571.73,215L572.04,214.17L572.04,214.17L572.87,214.83L583.68,193.89L586.94,191.64L586.94,188.36L586.94,188.36z"/>
		<path id="EC-B" title="Bolívar" class="land" d="M595.79,126.05L597.12,126.1L599.26,124.36L602.83,123.65L605.09,123.77L606.82,125.65L609.01,126.08L611.74,125.85L612.69,124.18L616.65,124.92L616.65,124.92L614.79,125.98L614.79,125.98L613.83,130.77L612.06,132.46L613.64,137.37L615.38,139.24L615.5,140.26L615.5,140.26L613.76,145.75L615.42,145.99L616.02,147.17L615.78,148.72L614.71,148.6L614.95,151.1L612.69,153.12L610.67,152.88L608.18,153.71L607.05,170.09L605.31,171.57L605.31,171.57L603.45,172.92L602.83,172.13L602.83,172.13L603.9,169.63L602.35,169.99L602.35,169.99L601.15,169.88L601.2,168.58L601.2,168.58L601.14,168.02L598.2,166.54L595.58,161.2L597,158.24L596.45,153.47L598.67,152.76L598.91,151.81L596.17,151.45L595.71,148.07L593.09,147.53L592.85,146.46L595.94,145.04L597.01,142.3L594.66,141.95L594.21,139.49L591.78,138.86L591.54,137.91L593.73,136.97L593.52,135.97L593.8,135.17L594.99,134.82L595.58,131.49L593.04,130.5L591.07,131.49L588.93,130.9L594.63,126.62L594.63,126.62z"/>
		<path id="EC-C" title="Carchi" class="land" d="M656.72,27.93L659.09,30.07L665.6,30.65L671.93,28.88L674.35,30.65L674.42,31.62L672.88,32.69L672.88,33.99L676.36,36.83L676.36,36.83L675.41,37.9L673.88,37.68L672.45,39.22L671.74,41.95L667.12,47.59L666.36,50.75L666.36,50.75L666.36,50.75L666.36,50.75L661.97,49.94L655.3,45.32L652.78,45.06L652.01,43.32L651.89,39.28L644.88,30.96L641.25,29.07L637.16,28.71L637.16,28.71L636.49,28.71L636.49,28.71L633.47,27.46L633.47,25.49L632.2,24.84L631.81,18.31L633.83,17.12L633.9,12.23L633.9,12.23L638.06,14.51L638.66,16.53L641.01,18.39L648.16,20.8L649.47,23.18L654.46,27.1z"/>
		<path id="EC-D" title="Orellana" class="land" d="M692.13,71.27L696.35,72.97L696.35,72.97L698.37,72.82L703.47,74L706.8,72.34L708.94,72.58L718.09,84.46L722.01,86.6L723.7,88.76L727.12,88.5L730.28,92.07L735.32,93.91L736.98,93.91L739.81,91.22L749.65,90.94L751.13,94.09L753.27,95.15L753.33,96.4L757.49,97.12L757.49,96.05L756.64,95.52L756.71,90.1L759.08,89.99L761.11,90.58L762.99,92.12L768.63,91.89L772.33,92.61L774.73,94.88L775.2,96.16L782.17,96.69L782.54,97.78L782.54,97.78L788.05,100.03L788.93,102.23L787.84,103.23L789.03,104.19L789.86,108.58L791.05,109.06L790.81,113.69L792,115.35L785.7,115.35L784.75,114.05L783.33,114.4L783.33,117.61L781.31,122.25L776.91,136.86L774.12,142.26L772.99,142.99L773.12,139.95L769.79,140.3L766.62,138.38L766.31,136.68L765.12,135.38L761.81,135.36L760.76,133.42L758.5,132.35L757.83,133.07L746.41,129.61L738.84,131.02L735.71,130.45L734.26,128.19L731.38,128.54L727.31,125.31L728.27,119.99L727.68,118.92L724.95,118.68L723.58,117.77L712.65,120.4L712.15,123.66L710.14,123.41L707.88,120.9L705.38,121.15L704.37,119.9L701.45,120.22L701.36,119.15L699.85,118.02L699.35,116.39L701.61,116.64L703.62,115.63L700.86,113.38L703.12,112.37L703.12,111.12L698.6,110.87L695.34,109.36L695.34,107.35L699.35,103.84L699.35,101.33L697.09,101.33L691.07,107.85L686.05,110.11L683.04,110.62L682.04,112.12L680.28,112.87L676.52,112.62L678.78,108.86L679.28,106.1L678.53,104.09L680.53,102.33L679.03,97.82L678.03,96.56L676.27,96.31L675.52,94.56L674.01,93.55L675.52,92.3L676.77,92.3L676.77,90.04L678.78,89.79L680.03,91.29L682.29,91.55L682.29,92.3L684.55,91.8L685.05,90.54L686.81,90.54L687.56,88.03L688.81,88.03L688.81,85.27L693.08,82.01L691.83,81.01L690.83,72.96L690.83,72.96L691.92,71.21L691.92,71.21z"/>
		<path id="EC-E" title="Esmeraldas" class="land" d="M633.9,12.23L633.83,17.12L631.81,18.31L632.2,24.84L633.47,25.49L633.47,27.46L636.49,28.71L636.49,28.71L636.33,28.71L636.33,28.71L636.8,31.32L634.07,32.03L633.95,35.36L636.68,36.79L637.87,38.45L637.87,39.99L636.45,42.37L634.42,43.44L631.81,43.5L631.54,45.67L627.18,50.67L624.74,51.47L622.84,49.52L620,49.83L618.26,51.88L612.34,51.39L609.23,53.06L606.74,52.95L606.74,52.95L602.53,53.54L601.06,53.02L601.06,53.02L597.98,52.32L596.4,52.83L596.16,54.85L594.62,56.27L593.31,56.27L593.43,58.53L595.09,59.96L592.64,64.53L592.52,67.63L592.52,67.63L590.96,67.18L590.96,67.18L589.2,69.69L583.93,69.69L580.4,68.41L580.4,68.41L580.36,67.56L580.36,67.56L580.6,65.66L582.08,63.68L580.79,63.25L580.01,61.86L578.05,61.93L575.55,60.3L577.4,57.58L577.16,55.8L575.26,54.97L575.74,52.83L574.67,50.45L572.29,50.21L571.1,53.54L569.56,54.37L566.46,54.31L564.98,56.61L563.54,57.19L561.94,55.72L560.67,52.3L560.67,52.3L561.16,50.9L559.54,50.15L558.83,47.21L560.61,43.5L560.73,40.53L556.21,36.13L557.17,32.33L558.59,30.43L563.58,30.78L570.71,27.34L572.73,24.61L574.39,23.66L579.25,21.35L582.49,21.29L589.27,17.95L601.87,16.88L605.86,13.91L606.22,11.65L614.94,4.75L617.12,0.42L618.05,0L622.26,2.27L627.3,8.68L631.88,11.65z"/>
		<path id="EC-F" title="Cañar" class="land" d="M602.5,173.49L605.55,178.97L610.36,183.01L616.15,182.85L618.37,181.92L618.39,182.39L619.81,181.6L621.07,179.59L622.07,179.59L622.82,180.85L625.08,181.1L626.09,178.84L630.6,179.59L630.6,179.59L630.42,179.84L630.42,179.84L632.89,182.29L633.49,186.33L632.89,191.2L631.61,192.62L631.61,192.62L632.14,192.86L632.14,192.86L630.4,194.88L629.21,194.88L629.02,191.76L626.59,192.51L625.53,193.81L625.14,196.05L620.79,197.29L618.39,199.36L617.64,201.42L616.51,202.38L616.38,204.03L612.33,204.63L610.55,203.44L609.84,200.59L608.77,199.99L606.39,196.43L604.37,198.8L599.5,198.92L597.24,197.5L596.65,195.48L597.24,194.35L596.77,190.9L594.99,188.88L590.44,187.64L587.41,188.27L587.41,188.27L586.3,188.44L586.3,188.44L585.01,189.24L583.1,187.69L587.14,184.01L588.33,180.33L591.3,180.52L593.21,179.1L599.98,178.78L602,175.1L602,175.1z"/>
		<path id="EC-G" title="Guayas" class="land" d="M554.89,212.73l-4.23,1.04l-1.22,1.66l-4.04,-0.36l-3.45,-4.99l-0.24,-2.26l1.19,0.12l2.02,2.02l1.07,2.26l1.69,0.52l0.39,-7.86l2.74,-5.96l5.9,-2.5l3.15,-0.55l5.62,2.86l-0.01,1.5l-1.07,1.54l-2.85,0.48l-5.58,7.57L554.89,212.73zM581.17,109.2l4.91,-0.17l-1.02,3.08l0.9,3.51l-2.06,1.29l-0.4,1.64l-7.84,4.35l-1.66,1.9l-1.58,5.24l-4.41,4.8l-0.64,3.19l0.67,6.47l-0.63,2.43l1.31,3.09l3.33,0.95l1.9,5.23l3.33,3.45l1.54,0.12l2.97,-1.9l2.14,0.12l0.5,0.72l2.13,0.47l5.04,4.67l2.22,3.86l1.67,1.42l1.17,-1.16l2.5,2.14l0.12,0.97l0,0l1.36,0.66l0.53,-1.81l1.2,0.06l0,0l1.54,-0.36l-1.07,2.5l0,0l0.6,0.81l-1.21,0.64L602,175.1l0,0l-2.02,3.68l-6.77,0.32l-1.91,1.42l-2.96,-0.19l-1.19,3.68l-4.04,3.68l1.9,1.54l1.29,-0.8l0,0l0.64,-0.08l0,0v3.28l-3.26,2.26l-10.81,20.94l-0.83,-0.67l0,0l-0.33,0.82l-5.51,-0.23l0,0l-0.19,0.09l0,0l2.91,-12.24l2.43,-6.88l1.62,-1.44l-2.85,-0.12l0.83,-3.68l-1.19,-0.59l-0.71,5.23l-3.09,-0.12l1.19,-4.87l-1.05,-0.42l-1.98,2.31l-0.66,3.1l-5.47,-1.78l-0.29,-1.72l2.85,-10.24l1.39,-0.54l1,-1.51l-3.35,1.24l-3.84,8.16l-6.91,6.63l-0.15,3.91l-2.84,-0.58l-2.95,-2.97L539.7,195l-6.98,-7.22l0,0l2.79,-3.18l3.26,-1.25l2.26,-3.01l8.03,-2.01l2.01,-5.77l-1.76,-2.01l-0.25,-3.76l-3.01,-0.75l-0.5,-2.26l-2.26,-1.76l-4.52,-1.25l-1.76,-4.27l-0.25,-7.03l0,0h1.76l0,0l3.26,-0.75l2.15,1.62l1.51,-1.27l2.85,1.07l0.24,-0.83l2.02,-0.12v-2.02l-2.85,-2.73l-0.24,-1.07l2.26,0.24l2.97,-1.43l-1.43,-2.97l1.19,-3.45l1.43,-0.12l0.12,-3.45h0.91l0.47,-1.21l1.35,0.26l3.46,-3.95l1.69,-0.71l0.2,-2.59l4,-0.9l2.42,-2.25l0.12,-1.19l1.9,-0.59l0.24,-2.38l2.26,-1.9l1.31,-4.04l2.8,0.91l4.1,-1.98l0,0L581.17,109.2z"/>
		<path id="EC-H" title="Chimborazo" class="land" d="M615.5,140.26L617.8,137.25L620.23,137.07L623.03,140.1L624.34,140.1L625.16,139.08L629.14,138.85L632.66,139.88L634.95,139.46L640.07,141.62L640.07,141.62L640.14,143.08L640.14,143.08L640.23,145.62L639.36,147.3L634.56,151.99L637.05,155.08L637.29,157.33L634.91,161.02L632.77,162.92L635.98,164.82L635.39,166.48L635.63,169.45L631.82,170.52L633.37,173.26L633.49,175.51L631.94,176.35L632.34,177.69L630.78,179.35L630.78,179.35L630.6,179.59L630.6,179.59L626.09,178.84L625.08,181.1L622.82,180.85L622.07,179.59L621.07,179.59L619.81,181.6L618.39,182.39L618.37,181.92L616.15,182.85L610.36,183.01L605.55,178.97L602.5,173.49L602.5,173.49L605.31,171.57L605.31,171.57L607.05,170.09L608.18,153.71L610.67,152.88L612.69,153.12L614.95,151.1L614.71,148.6L615.78,148.72L616.02,147.17L615.42,145.99L613.76,145.75z"/>
		<path id="EC-I" title="Imbabura" class="land" d="M666.36,50.75L665.58,52.73L664.25,53.36L663.59,57.83L660.09,59.66L659.61,60.83L659.61,60.83L659.28,60.86L659.28,60.86L657.36,59.42L654.86,59.42L650.7,61.09L650.24,61.92L645.3,62.57L643.93,61.03L643.46,57.7L641.79,59.96L640.16,60.31L638.09,57.33L637.19,56.98L626.69,57.93L621.69,57.24L612.65,57.68L609.83,56.75L608.88,54.97L606.62,54.25L606.2,52.99L606.2,52.99L606.74,52.95L606.74,52.95L609.23,53.06L612.34,51.39L618.26,51.88L620,49.83L622.84,49.52L624.74,51.47L627.18,50.67L631.54,45.67L631.81,43.5L634.42,43.44L636.45,42.37L637.87,39.99L637.87,38.45L636.68,36.79L633.95,35.36L634.07,32.03L636.8,31.32L636.33,28.71L636.33,28.71L637.16,28.71L637.16,28.71L641.25,29.07L644.88,30.96L651.89,39.28L652.01,43.32L652.78,45.06L655.3,45.32L661.97,49.94z"/>
		<path id="EC-L" title="Loja" class="land" d="M603.16,241.33L602.24,242.71L600.81,242.95L599.15,245.32L599.74,248.65L601.56,251.15L601.17,262.02L600.45,265.35L602.47,268.44L602.59,277.82L598.04,283.47L596.82,283.08L596.53,282.22L594.87,282.1L592.02,283.77L591.78,286.38L588.57,291.73L588.57,292.8L586.54,293.1L586.54,293.1L586.04,290.36L584.13,289.59L584.02,284.42L582.12,284.77L579.03,281.31L576.78,280.67L571.22,282.96L569.69,282.81L567.03,281.09L565.36,278.6L560.93,277.74L557.08,274.25L554.35,273.5L552.43,274.17L548.21,278.91L543.58,282.17L542.04,282.8L538.52,281.03L537.74,278.48L544.46,269.43L542.41,269.29L539.4,270.46L538.49,269.81L536.7,262.28L538.44,259.17L542.11,258.87L545.49,260.43L546.77,259.69L549.08,256.26L553.45,254.33L553.45,254.33L557.28,253.49L564.33,250.55L568.61,250.91L570.67,252.28L573.39,251.88L575.38,248.41L577.76,247.34L579.18,247.23L581.16,249.56L583.22,249.01L587.86,249.6L588.81,248.53L588.81,245.21L589.52,243.54L591.07,242.12L588.93,238.55L587.86,238.31L586.98,239.12L585.84,237.48L585.48,236.18L587.6,234.41L587.72,232.96L587.47,231.95L586.08,231.9L585.48,229.64L583.95,227.52L583.95,227.52L585.1,227.64L585.1,227.64L590.92,228.02L593.07,228.81L593.14,232.11L594.16,234.86L595.04,235.48L597.95,233.57L598.55,233.92L600.33,236.53L600.93,239.98L602.89,241.07L602.89,241.07z"/>
		<path id="EC-M" title="Manabí" class="land" d="M581.2,109.69L577.11,111.67L574.31,110.75L573,114.79L570.75,116.7L570.51,119.07L568.61,119.67L568.49,120.85L566.07,123.11L562.07,124L561.87,126.59L560.18,127.31L556.72,131.25L555.37,130.99L554.9,132.2L553.99,132.2L553.87,135.65L552.45,135.77L551.26,139.21L552.68,142.18L549.71,143.61L547.46,143.37L547.69,144.44L550.55,147.17L550.55,149.19L548.53,149.31L548.29,150.15L545.44,149.08L543.92,150.35L541.78,148.73L538.52,149.48L538.52,149.48L536.51,149.48L536.51,149.48L533.75,149.48L533.67,147.89L532.6,147.53L530.94,147.53L530.24,148.29L523.35,148.13L521.39,148.81L521.39,148.81L519.72,144.85L521.33,140.24L523.77,138.74L525.2,132.92L521.9,128.23L519.62,126.5L516.93,118.18L521.64,113.43L524.71,112.63L531.07,112.96L533.99,111.65L537.92,100.36L539.93,97.15L541.51,95.91L538.03,90.38L537.8,87.29L541.84,83.6L542.55,80.63L549.92,75.7L557.48,65.79L559.66,59.54L559.66,51.82L560.67,52.3L560.67,52.3L561.94,55.72L563.54,57.19L564.98,56.61L566.46,54.31L569.56,54.37L571.1,53.54L572.29,50.21L574.67,50.45L575.74,52.83L575.26,54.97L577.16,55.8L577.4,57.58L575.55,60.3L578.05,61.93L580.01,61.86L580.79,63.25L582.08,63.68L580.6,65.66L580.36,67.56L580.36,67.56L580.48,70.29L580.48,70.29L582.07,76.29L588.57,77.07L590.12,78.97L590.47,88L588.81,88.83L585.61,94.98L585.61,94.98L586.6,94.95L586.6,94.95L586.08,98.63L583.98,99.91L583.49,101.03L583.82,103.39L582.41,102.93L580.85,105.06L580.85,105.06z"/>
		<path id="EC-N" title="Napo" class="land" d="M668.05,67.38L668.53,72.61L670.19,71.9L671.86,72.73L678.75,72.97L679.34,71.78L681.36,71.07L682.55,69.4L683.74,69.52L684.09,71.19L684.93,71.3L685.04,71.9L683.86,72.61L684.03,74.5L687.42,75.58L689.92,74.04L689.92,74.04L690.83,72.94L691.83,80.98L693.08,81.99L688.81,85.25L688.81,88.01L687.56,88.01L686.81,90.52L685.05,90.52L684.55,91.77L682.29,92.27L682.29,91.52L680.03,91.27L678.78,89.76L676.77,90.01L676.77,92.27L675.52,92.27L674.01,93.53L675.52,94.53L676.27,96.29L678.03,96.54L679.03,97.79L680.53,102.31L678.53,104.07L679.28,106.07L678.78,108.83L676.52,112.6L680.28,112.85L682.04,112.1L683.04,110.59L686.05,110.09L691.07,107.83L697.09,101.31L699.35,101.31L699.35,103.81L695.34,107.33L695.34,109.34L698.6,110.84L703.12,111.09L703.12,112.35L700.86,113.35L703.62,115.61L701.61,116.61L699.35,116.36L699.85,117.99L701.36,119.12L701.45,120.2L699.85,120.38L699.85,120.38L695.59,120.38L690.82,121.38L688.98,120.81L689.06,121.51L675.26,123.89L665.73,127.15L665.19,125.77L662.66,125.43L662.54,126.38L662.02,126.31L662.22,129.91L650.58,129.12L650.58,129.12L650.61,128.76L650.61,128.76L649.03,123.94L647.48,123.23L641.94,123.39L642.03,118L641.08,116.81L638.51,116.23L638.51,116.23L638.58,114.91L638.58,114.91L637.8,110.71L639.18,110.28L639.53,108.38L637.4,102.56L637.4,102.56L637.3,102.44L637.3,102.44L638.11,100.89L641.73,99.94L642.4,96.55L644.42,94.65L645.25,92.4L645.73,89.9L645.01,87.88L647.35,85.2L651.27,77.01L658,75.3L660.86,73.19L661.16,70.83L664.73,69.17L665.44,68.57L665.36,67.6L665.36,67.6z"/>
		<path id="EC-O" title="El Oro" class="land" d="M573.24,216.87L579.9,218.83L579.9,221.56L577.88,224.17L578.23,226.43L581.53,227.25L581.53,227.25L583.95,227.52L583.95,227.52L585.48,229.64L586.08,231.9L587.47,231.95L587.72,232.96L587.6,234.41L585.48,236.18L585.84,237.48L586.98,239.12L587.86,238.31L588.93,238.55L591.07,242.12L589.52,243.54L588.81,245.21L588.81,248.53L587.86,249.6L583.22,249.01L581.16,249.56L579.18,247.23L577.76,247.34L575.38,248.41L573.39,251.88L570.67,252.28L568.61,250.91L564.33,250.55L557.28,253.49L553.45,254.33L553.45,254.33L552.33,253.13L550.66,247.39L550.91,242.48L548.36,231.99L544.45,230.22L546.81,227.73L547.84,228.22L553.96,228.03L556.93,225.3L558.47,221.86L566,214.84L566,214.84L566.2,214.75L566.2,214.75L571.7,214.96z"/>
		<path id="EC-P" title="Pichincha" class="land" d="M592.52,67.63L592.64,64.53L595.09,59.96L593.43,58.53L593.31,56.27L594.62,56.27L596.16,54.85L596.4,52.83L597.98,52.32L601.06,53.02L601.06,53.02L602.51,53.54L606.2,52.99L606.2,52.99L606.62,54.25L608.88,54.97L609.83,56.75L612.65,57.68L621.69,57.24L626.69,57.93L637.19,56.98L638.09,57.33L640.16,60.31L641.79,59.96L643.46,57.7L643.93,61.03L645.3,62.57L650.24,61.92L650.7,61.09L654.86,59.42L657.36,59.42L659.28,60.86L659.28,60.86L660.42,60.8L660.42,60.8L662.69,63L664.83,66.51L664.29,67.69L664.29,67.69L665.36,67.6L665.36,67.6L665.44,68.57L664.73,69.17L661.16,70.83L660.86,73.19L658,75.3L651.27,77.01L647.35,85.2L645.01,87.88L645.73,89.9L645.25,92.4L644.42,94.65L642.4,96.55L641.73,99.94L638.11,100.89L637.3,102.44L637.3,102.44L635.97,100.89L635.97,100.89L633.47,99.82L632.7,96.96L628.26,97.39L624.57,100.24L623.03,100.24L622.32,95.31L617.33,93.82L617.26,91.96L615.93,89.19L615.38,88.31L614.36,88.24L614,84.73L614,84.73L613.04,84.73L613.04,83.99L613.04,83.99L617.05,83.99L619.06,82.99L619.81,81.23L621.07,80.73L621.07,78.47L618.81,76.72L614.29,76.72L613.04,73.2L603.5,72.7L605.51,70.44L605.76,68.94L595.98,68.94L592.71,67.68L592.71,67.68z"/>
		<path id="EC-R" title="Los Ríos" class="land" d="M599.27,171.08L599.15,170.11L596.65,167.97L595.48,169.13L593.81,167.71L591.6,163.84L586.56,159.18L584.43,158.71L583.94,157.99L581.8,157.87L578.83,159.77L577.28,159.65L573.96,156.21L572.05,150.98L568.73,150.03L567.42,146.94L568.05,144.51L567.38,138.04L568.02,134.84L572.43,130.04L574,124.8L575.66,122.9L583.5,118.56L583.9,116.92L585.96,115.63L585.06,112.12L586.08,109.03L581.17,109.2L581.17,109.2L580.85,105.06L580.85,105.06L582.41,102.93L583.82,103.39L583.49,101.03L583.98,99.91L586.08,98.63L586.6,94.95L586.6,94.95L586.83,94.94L586.83,94.94L587.92,95.05L589.4,94.12L592.85,94.36L592.28,100.22L592.59,101.45L594.28,101.86L603.91,94.55L603.91,94.55L605.37,96L605.37,96L600.69,104.58L600.57,106.24L595.11,113.25L595.34,115.39L596.17,116.22L593.92,119.9L593.92,121.92L595.22,123.59L595.46,125.49L595.46,125.49L594.63,126.62L594.63,126.62L588.93,130.9L591.07,131.49L593.04,130.5L595.58,131.49L594.99,134.82L593.8,135.17L593.52,135.97L593.73,136.97L591.54,137.91L591.78,138.86L594.21,139.49L594.66,141.95L597.01,142.3L595.94,145.04L592.85,146.46L593.09,147.53L595.71,148.07L596.17,151.45L598.91,151.81L598.67,152.76L596.45,153.47L597,158.24L595.58,161.2L598.2,166.54L601.14,168.02L601.2,168.58L601.2,168.58L600.64,171.74z"/>
		<path id="EC-S" title="Morona-Santiago" class="land" d="M640.05,141.36L644.15,141.2L648.17,139.45L649.49,137.68L649.49,137.68L650.17,137.92L650.17,137.92L654.04,141.17L654.52,144.14L656.47,148.28L659.75,147.52L660.98,148.25L662.09,150.25L662.14,151.9L664,152.52L665.43,159.18L665.13,160.12L670.73,165.48L687.83,172.2L692.4,176.58L698.94,180.98L701.31,185.97L703.09,187.52L703.33,189.3L705.59,191.2L710.7,191.08L711.65,192.15L713.13,190.59L714.83,190.83L715.93,192.39L722.43,191.94L722.43,191.94L660.57,213.93L655.33,219.49L654.01,221.8L651.39,221.8L651.39,225.22L647.35,228.01L646.62,229.27L648.79,233.64L650.32,234.87L649.25,237.01L647.23,236.18L644.69,236.75L644.42,232.34L642.5,231.53L640.34,232.83L639.97,237.8L639.97,237.8L630.6,237.3L630.35,239.06L626.09,237.8L624.83,240.06L621.97,240.61L620.72,239.39L617.68,239.21L614.85,237.31L615.55,231.28L613.79,229.27L611.07,228.95L609.61,227.81L609.61,227.81L609.84,227.68L609.84,227.68L610.08,225.66L615.54,223.64L617.68,219.24L619.23,217.94L621.72,217.46L623.98,215.32L624.69,208.43L627.54,204.98L627.78,203.42L626.83,202.61L626.59,201.06L626.95,199.52L628.97,197.73L635.27,196.31L635.39,194.05L632.65,193.1L632.65,193.1L631.61,192.62L631.61,192.62L632.89,191.2L633.49,186.33L632.89,182.29L630.42,179.84L630.42,179.84L630.78,179.35L630.78,179.35L632.34,177.69L631.94,176.35L633.49,175.51L633.37,173.26L631.82,170.52L635.63,169.45L635.39,166.48L635.98,164.82L632.77,162.92L634.91,161.02L637.29,157.33L637.05,155.08L634.56,151.99L639.36,147.3L640.23,145.62L640.14,143.08L640.14,143.08z"/>
		<path id="EC-SD" title="Santo Domingo de los Tsáchilas" class="land" d="M592.71,67.68L595.98,68.94L605.76,68.94L605.51,70.44L603.5,72.7L613.04,73.2L614.29,76.72L618.81,76.72L621.07,78.47L621.07,80.73L619.81,81.23L619.06,82.99L617.05,83.99L613.04,83.99L613.04,83.99L612.98,84.73L611.74,85.44L611.74,85.44L607.71,90.47L607.7,91.68L609.72,94.06L608.29,94.53L608.18,96.44L605.56,96.2L605.56,96.2L603.91,94.55L603.91,94.55L594.28,101.86L592.59,101.45L592.28,100.22L592.85,94.36L589.4,94.12L587.92,95.05L586.83,94.94L586.83,94.94L585.61,94.98L585.61,94.98L588.81,88.83L590.47,88L590.12,78.97L588.57,77.07L582.07,76.29L580.48,70.29L580.48,70.29L580.4,68.41L580.4,68.41L583.93,69.69L589.2,69.69L590.96,67.18L590.96,67.18z"/>
		<path id="EC-SE" title="Santa Elena" class="land" d="M521.39,148.81L523.35,148.13L530.24,148.29L530.94,147.53L532.6,147.53L533.67,147.89L533.75,149.48L536.51,149.48L536.51,149.48L536.76,149.48L536.76,149.48L537.01,156.51L538.77,160.77L543.28,162.03L545.54,163.78L546.04,166.04L549.05,166.79L549.31,170.56L551.06,172.57L549.05,178.34L541.03,180.34L538.77,183.36L535.5,184.61L532.72,187.79L532.72,187.79L528.01,183.19L523.1,182.42L518.03,179.54L513.94,174.58L513.86,173.06L516.35,174.11L519.73,172.59L522.96,170.26L524.56,167.89L525.62,160.11L523.61,152.83z"/>
		<path id="EC-T" title="Tungurahua" class="land" d="M638.51,116.23L641.08,116.81L642.03,118L641.94,123.39L647.48,123.23L649.03,123.94L650.61,128.76L650.61,128.76L650.49,130.3L650.49,130.3L651.32,132.8L650.73,134.82L648.55,137.35L648.55,137.35L649.49,137.68L649.49,137.68L648.17,139.45L644.15,141.2L640.05,141.36L640.05,141.36L640.07,141.62L640.07,141.62L634.95,139.46L632.66,139.88L629.14,138.85L625.16,139.08L624.34,140.1L623.03,140.1L620.23,137.07L617.8,137.25L615.5,140.26L615.5,140.26L615.38,139.24L613.64,137.37L612.06,132.46L613.83,130.77L614.79,125.98L614.79,125.98L617.44,124.47L617.44,124.47L620.28,123.18L624.13,123.46L629.68,121.93L630.52,119.43L633.01,120.02L633.71,120.97L635.61,120.97L638.35,117.41L638.35,117.41z"/>
		<path id="EC-U" title="Sucumbíos" class="land" d="M788.05,100.03l-5.51,-2.25l0,0l-0.37,-1.09l-6.97,-0.52l-0.47,-1.29l-2.4,-2.26l-3.7,-0.73l-5.64,0.23l-1.89,-1.54l-2.02,-0.59l-2.38,0.12l-0.07,5.42l0.85,0.52v1.07l-4.16,-0.71l-0.06,-1.25l-2.14,-1.07l-1.48,-3.15l-9.84,0.29l-2.83,2.68h-1.66l-5.04,-1.84l-3.15,-3.57l-3.42,0.26l-1.69,-2.16l-3.92,-2.14l-9.15,-11.88l-2.14,-0.24L703.47,74l-5.11,-1.19l-2.01,0.16l0,0l-4.43,-1.76l0,0l-1.09,1.75l0,0l-0.92,1.07l0,0l-2.5,1.54l-3.39,-1.08l-0.17,-1.89l1.19,-0.71l-0.12,-0.59l-0.83,-0.12l-0.36,-1.66l-1.19,-0.12l-1.19,1.66l-2.02,0.71l-0.59,1.19l-6.89,-0.24l-1.66,-0.83l-1.66,0.71l-0.48,-5.23l0,0l-3.76,0.31l0,0l0.54,-1.18L662.69,63l-2.27,-2.2l0,0l-0.82,0.02l0,0l0.49,-1.17l3.49,-1.83l0.66,-4.47l1.33,-0.63l0.78,-1.98l0,0l0.76,-3.16l4.61,-5.63l0.71,-2.73l1.43,-1.54l1.53,0.22l0.95,-1.07l0,0l5.27,3l1.22,1.79l-0.75,2.64l1.22,5.74l3.39,1.79l1.6,-0.94l5.27,1.22l4.42,-1.13l1.88,0.66l1.41,3.3l9.23,2.45l2.64,0.28l1.04,-0.66l3.01,-0.19l0.47,-1.13l5.18,0.85l2.07,1.32l2.92,-1.22h0.94l0.47,0.85l2.92,-0.75l2.17,0.56l0.47,-7.34l1.22,-1.13l3.77,-0.85l2.64,1.69l4.9,0.56l1.41,2.26h2.45l1.51,0.75l4.24,6.03l6.59,5.74l2.17,0.94l7.53,0.28l2.45,2.26l-0.28,1.04l2.45,1.32l4.61,1.98l5.18,0.94l-0.75,1.79l-2.26,0.47l-0.47,-0.85l-0.47,1.04l-1.7,0.28l-3.86,-1.69h-6.5v6.68l4.33,3.39l3.58,-0.19l3.48,5.74h1.22l0.94,1.41l1.79,0.19l0.75,1.13l1.69,0.75l0.47,4.9L788.05,100.03z"/>
		<path id="EC-W" title="Galápagos" class="land" d="M96.96,137.65l-3.41,0.43l-4.26,-2.98v-1.71l1.71,-1.71l2.13,-0.85l3.84,0.43l3.62,3.2l-1.28,1.71L96.96,137.65zM59.23,133.36l-1.64,-0.11l-2.74,-2.17l2.12,-4.21l2.08,-0.01l3.21,2.17l-0.11,1.4L59.23,133.36zM79.7,111h-2.56l-1.92,-1.71l-0.21,-2.34l2.34,-1.07l2.56,0.64l1.28,2.77L79.7,111zM106.88,113.37l-4.43,1.09l-4.55,-1.4l0.03,-0.66l7.31,-5.29l0.57,-1.88l2.1,-2.03l2.77,-1.54l5.04,-0.07l0.53,0.79l-1.38,2.91L106.88,113.37zM50.71,100.13l-2.77,1.07l-2.13,-1.28l-1.07,-2.34l0.43,-1.28l2.77,-1.07l2.13,1.07l1.07,1.28L50.71,100.13zM67.76,104.41L63.72,106l-4.42,-0.53l-5.24,-3.74l-0.53,-2.82l0.74,-2.34l2.27,-2.65l1.62,-0.69l7.81,-0.74l5.04,2.29l-0.1,5.27l-0.51,1.45L67.76,104.41zM67.76,89.69h-2.34L63.5,88.2l1.07,-2.56l2.98,-1.07l2.56,2.13l-0.21,1.92L67.76,89.69zM7.93,92.37l-5.46,-2.28l-1.91,-3.01L0,83.77l1.52,-1.18l7.85,-2l3.21,2.78l0.27,6.32l-0.41,0.9L7.93,92.37zM53.68,83.08l-2.8,3.53l-3.13,-1.27l-3.35,0.41l-4.14,-0.94l-2.3,-3.24l1.91,-4.44l1.99,-1.31l8.23,3.08l3.41,3.1L53.68,83.08zM19.64,68.68l1.83,0.61l0.69,0.95l0.05,5.29l1.52,4.64l3.06,3.28l3.09,1.74l3.76,3.68l0.76,4.92l-0.69,1.14l7.31,8.74l-3.06,8.74l-2.51,2.48L23.99,118l-7.48,-0.91l-2.5,0.62l-2.26,-0.48l-3.53,-4.68l-0.05,-3.06l1.89,-2.63l6.79,-5.4l3.65,-1.18l3.68,0.95l3.72,-4.4l-1.84,-1.92l-1.56,-0.06l-9.87,-11.65l-2.3,-3.58l0.66,-2.71l-1.17,-6.2l-0.86,-1.19l-1.71,-0.25l-3.35,1.81l-1.62,-0.02l-1.44,-1.9l10.24,-6.45l3.68,0.61l0.11,1.13L19.64,68.68zM87.37,58.15l-1.71,0.64l-2.56,-0.21l-1.49,-2.56l0.21,-2.34l5.54,0.21l1.49,1.28v1.49L87.37,58.15zM60.94,58.15l-5.12,0.21l-2.34,-2.13l0.21,-2.34l2.56,-1.28l4.69,0.21l3.41,2.56l-0.85,1.7L60.94,58.15zM49.22,46.43l-2.77,1.28l-2.34,-1.92l-1.71,-3.2l0.85,-2.13l2.98,-1.49l2.56,2.13l1.28,2.77L49.22,46.43z"/>
		<path id="EC-X" title="Cotopaxi" class="land" d="M616.65,124.92L612.69,124.18L611.74,125.85L609.01,126.08L606.82,125.65L605.09,123.77L602.83,123.65L599.26,124.36L597.12,126.1L595.79,126.05L595.79,126.05L595.46,125.49L595.46,125.49L595.22,123.59L593.92,121.92L593.92,119.9L596.17,116.22L595.34,115.39L595.11,113.25L600.57,106.24L600.69,104.58L605.37,96L605.37,96L605.56,96.2L605.56,96.2L608.18,96.44L608.29,94.53L609.72,94.06L607.7,91.68L607.71,90.47L611.74,85.44L611.74,85.44L614,84.73L614,84.73L614.36,88.24L615.38,88.31L615.93,89.19L617.26,91.96L617.33,93.82L622.32,95.31L623.03,100.24L624.57,100.24L628.26,97.39L632.7,96.96L633.47,99.82L635.97,100.89L635.97,100.89L637.4,102.56L637.4,102.56L639.53,108.38L639.18,110.28L637.8,110.71L638.58,114.91L638.58,114.91L638.35,117.41L638.35,117.41L635.61,120.97L633.71,120.97L633.01,120.02L630.52,119.43L629.68,121.93L624.13,123.46L620.28,123.18L617.44,124.47L617.44,124.47z"/>
		<path id="EC-Y" title="Pastaza" class="land" d="M722.43,191.94L715.93,192.39L714.83,190.83L713.13,190.59L711.65,192.15L710.7,191.08L705.59,191.2L703.33,189.3L703.09,187.52L701.31,185.97L698.94,180.98L692.4,176.58L687.83,172.2L670.73,165.48L665.13,160.12L665.43,159.18L664,152.52L662.14,151.9L662.09,150.25L660.98,148.25L659.75,147.52L656.47,148.28L654.52,144.14L654.04,141.17L650.17,137.92L650.17,137.92L648.55,137.35L648.55,137.35L650.73,134.82L651.32,132.8L650.49,130.3L650.49,130.3L650.58,129.12L650.58,129.12L662.22,129.91L662.02,126.31L662.54,126.38L662.66,125.43L665.19,125.77L665.73,127.15L675.26,123.89L689.06,121.51L688.98,120.81L690.82,121.38L695.59,120.38L699.85,120.38L699.85,120.38L704.37,119.87L705.38,121.13L707.88,120.88L710.14,123.39L712.15,123.64L712.65,120.38L723.58,117.75L724.95,118.66L727.68,118.89L728.27,119.96L727.31,125.28L731.38,128.52L734.26,128.16L735.71,130.42L738.84,130.99L746.41,129.59L757.83,133.05L758.5,132.32L760.76,133.39L761.81,135.33L765.12,135.35L766.31,136.66L766.62,138.35L769.79,140.27L773.12,139.93L772.97,142.97L749.58,170.48z"/>
		<path id="EC-Z" title="Zamora-Chinchipe" class="land" d="M609.61,227.81L611.07,228.95L613.79,229.27L615.55,231.28L614.85,237.31L617.68,239.21L620.72,239.39L621.97,240.61L624.83,240.06L626.09,237.8L630.35,239.06L630.6,237.3L639.97,237.8L639.97,237.8L639.39,245.8L638.68,247.7L632.5,255.9L631.79,258.75L630.6,258.99L630.27,262.12L629.29,262.79L628.22,265.76L628.22,271.11L625.28,274.27L625.72,282.56L620.62,290.12L615.67,291.56L612.66,293.92L611.35,299.27L608.14,303.67L608.14,306.04L605.29,307.23L603.27,305.93L595.17,306.09L593.41,302.6L590.91,301.89L590.79,299.39L588.68,299.38L587.51,298.07L586.54,293.1L586.54,293.1L588.57,292.8L588.57,291.73L591.78,286.38L592.02,283.77L594.87,282.1L596.53,282.22L596.82,283.08L598.04,283.47L602.59,277.82L602.47,268.44L600.45,265.35L601.17,262.02L601.56,251.15L599.74,248.65L599.15,245.32L600.81,242.95L602.24,242.71L603.16,241.33L603.16,241.33L603.03,241.21L603.03,241.21L604.85,239.98L604.02,237.13L605.45,234.17L604.73,231.48L608.18,228.63L608.18,228.63z"/>
	</g>
</svg>