<?xml version="1.0" encoding="utf-8"?>
<!-- (c) ammap.com | SVG map of El Salvador - High -->
<svg xmlns="http://www.w3.org/2000/svg" xmlns:amcharts="http://amcharts.com/ammap" xmlns:xlink="http://www.w3.org/1999/xlink" version="1.1">
	<defs>
		<style type="text/css">
			.land
			{
				fill: #CCCCCC;
				fill-opacity: 1;
				stroke:white;
				stroke-opacity: 1;
				stroke-width:0.5;
			}
		</style>

		<amcharts:ammap projection="mercator" leftLongitude="-90.125247" topLatitude="14.450692" rightLongitude="-87.683841" bottomLatitude="13.152442"></amcharts:ammap>

		<!-- All areas are listed in the line below. You can use this list in your script. -->
		<!--{id:"SV-AH"},{id:"SV-CA"},{id:"SV-CH"},{id:"SV-CU"},{id:"SV-LI"},{id:"SV-MO"},{id:"SV-PA"},{id:"SV-SA"},{id:"SV-SM"},{id:"SV-SO"},{id:"SV-SS"},{id:"SV-SV"},{id:"SV-UN"},{id:"SV-US"}-->

	</defs>
	<g>
		<path id="SV-AH" title="Ahuachapán" class="land" d="M101.97,129.06L104.47,130.25L106.96,131.44L109.58,133.4L110.95,136.59L112.19,136.53L113.33,138.1L118.89,138.1L121.26,138.77L125.61,138.61L125.61,138.61L128.33,138.72L129.39,139.85L131.13,139.71L132.26,145.17L132.89,146.01L139.34,149.4L140.32,150.41L140.87,151.91L140.34,158.4L135.32,165.31L134.5,170.79L132.49,174.26L132.69,176.87L132.3,178.41L128.6,183.93L126.79,184.37L126.79,184.37L125.78,182.99L122.86,182.18L122.13,181.07L119.62,184.73L116.56,186.26L113.19,186.6L112.02,187.86L114.23,196.92L116.69,201.33L117,202.7L113.73,208.35L110.44,211.13L109.12,212.86L107.98,217.43L107.94,219.4L109.32,225.6L111.24,231.11L107.03,231.53L106.06,232.44L105.68,237.42L103.16,243.2L103.23,246.46L101.42,249.83L99.18,258.93L97.63,261.85L92.99,262.51L91.09,262.29L87.49,258.91L84.86,257.38L80.39,255.73L78.72,253.5L71.56,247.28L70.38,247.38L68.49,249.16L66.56,249.49L62.7,256.26L60.46,257.52L59.15,259.97L56.33,261.3L56.33,261.3L53.8,259.47L51.28,258.82L42.36,254.31L30.37,249.05L28.84,248.22L28.75,247.58L29.56,248.32L33.35,248.96L36.05,250.9L40.1,251.91L39.75,250.99L38.75,250.44L36.4,250.71L34.79,249.61L33.89,248.68L34.43,247.95L32.62,247.67L31.63,247.85L29.2,245.64L27.13,245.92L27.04,246.84L26.59,246.93L15.68,242.05L14.15,241.77L12.08,240.48L12.35,240.02L11.81,239.28L9.82,239.74L0,235.68L2,235.05L5.48,236.76L6.74,236.47L8.74,233.75L9.31,231.9L10.73,231.74L11.31,230.53L10.98,229.7L9.17,229.33L6.07,223.8L3.63,224.51L2.94,223.6L3.43,217.26L4.18,215.75L5.04,214.57L6.07,213.73L5.87,212.42L6.64,211.83L4.95,204.66L7.9,202.37L9.58,200.42L11.73,195.92L12.51,195.73L13.73,194.03L14.76,191.04L18.91,189.86L19.27,188.9L19.71,187.71L20.26,187L26.71,185.95L29.11,184.29L30.35,181.95L29.31,177.72L29.45,177.09L31.48,176.27L31.96,174.91L31.84,170.89L33.51,171.02L34.13,170.08L37.02,169.02L38.84,168.22L39.18,167.03L41.15,165.32L44.29,164.19L44.87,163.42L46.06,163.23L48.39,162.79L49.84,161.05L53.52,159.52L54.95,157.87L54.19,156.22L54.43,155.79L55.08,156.19L57.46,155.75L60.6,153.87L61.91,151.27L63.49,150.97L63.88,149.1L64.68,147.89L70.05,145.56L72.89,139.2L72.72,138L74.11,137.4L74.38,136.41L75.57,135.35L82.27,134.81L83.94,135.54L85.42,135.54L86.58,134.77L88.26,132.19L89.74,130.96L92.27,130.5L95.43,129.11L97.61,129.08L98.29,128.54z"/>
		<path id="SV-CA" title="Cabañas" class="land" d="M485.47,143.51L492.28,148.69L493.96,148.76L496.29,147.31L498.26,147.65L501.74,151.34L504.64,156.18L506.08,156.9L514.98,155.45L518.31,155.88L519.33,156.13L524.69,159.18L527.87,162.5L527.94,164.27L524.7,169.71L523.33,174.97L524.33,177.26L523.23,179.52L528.49,190.14L528.94,192.21L528.31,194.55L528.87,196.66L530.26,197.1L530.26,197.1L528.72,200.48L529.03,203.75L527.56,206.61L527.89,210.65L523.85,214.95L522.94,216.46L522.92,217.63L524,220.29L523.61,222.52L522.04,224.61L521.51,226.21L519.54,227.15L518.43,229.56L518.33,231.65L520.11,234.98L519.88,236.38L519.09,236.75L519.09,236.75L517.65,234.98L516.7,234.85L514.76,235.72L513.3,235.62L510.92,236.51L508.02,236.66L506.21,235.92L504.91,236.67L499.03,236.73L498.07,233.81L496.99,233.38L495.56,231.93L496.1,228.11L492.03,228.14L489.31,227.09L486.1,224.77L481.5,224.41L478.92,222.75L478.56,220.96L475.7,219.91L474.89,220.11L472.59,222.19L467.66,222.19L465.68,220.77L460.54,222.36L458.35,221.66L456.67,222.5L455.76,221.95L454.2,218.84L453.59,219.9L452.97,220.08L450.57,219.1L449.16,219.25L446.84,218.44L445.44,219L444.45,220.64L442.22,220.04L439.76,220.7L431.98,225.22L428.61,225.4L424.6,224.63L422.75,224.82L420.45,223.99L414.75,224.57L413.33,225.55L410.19,229.45L409.41,229.61L409.41,229.61L408.52,229.61L407.37,228.89L405.97,226.43L399.52,221.06L396.9,220.12L394.41,220.58L393.19,220.32L392.41,215.99L391.04,214.61L389.37,213.83L388.69,212.85L388.87,210.94L387.78,206.95L384.52,204.48L382.61,202.38L381.76,202.13L379.71,202.65L377.05,201.15L371.81,197.09L369.44,194.19L368.95,194.2L368.98,189.51L369.76,185.92L375.89,179.99L380.64,171.1L380.64,171.1L382.76,172.25L383.31,173.61L383.1,174.62L384.03,174.82L386.66,177.01L387.05,176.97L387,176.07L386.12,174.37L385.19,173.6L386.63,171.9L389.39,170.64L390.39,170.76L390.49,171.7L391.36,171.62L390.98,172.52L391.56,172.88L392.73,172.45L395.35,172.73L397.07,173.75L401.71,173.56L403.62,172.41L406.13,171.75L407.1,172.49L409.81,170.34L411.87,169.52L412.83,167.15L416.1,166.77L416.41,167.14L415.59,169.09L417.7,167.9L420.85,167.42L423.44,164.14L424.58,163.83L426.02,162.18L426.2,163.74L426.85,164.17L430.73,162.09L431.51,162.13L432.1,162.78L432.86,162.68L434.7,161.23L440.43,158.21L441.44,157.29L442.55,155.2L445.79,153.87L447.12,152.26L450.48,151.61L454.55,151.49L467.95,147.2L468.37,145.83L468.37,145.83L470.51,147.13L471.51,146.9L474.63,144.68L477.38,145.74L478.6,144.59L481.81,145.04L482.95,143.59z"/>
		<path id="SV-CH" title="Chalatenango" class="land" d="M319.44,37.81L324.94,37.38L334.95,34.73L336.53,34.84L339.32,37.11L347.93,40.82L350.91,41.04L354.97,43.85L356.44,47.13L357.3,53.32L355.25,57.01L356.09,58.84L368.13,66.5L373.28,74.97L373.2,76.36L372.02,77.69L372.76,79.1L375.67,79.7L379.18,82.45L388.37,82.6L394.66,82.14L397.93,85.98L402.64,88.14L407.06,89.29L408.87,90.59L412.8,100.93L417.23,108.24L423.37,122.07L425.99,123.71L428.74,123.97L435.12,123.3L442.85,121.58L444.85,121.52L446.82,122.26L451.42,126.74L456.58,135.01L458.53,137.25L465.92,144.4L468.37,145.83L468.37,145.83L467.95,147.2L454.55,151.49L450.48,151.61L447.12,152.26L445.79,153.87L442.55,155.2L441.44,157.29L440.43,158.21L434.7,161.23L432.86,162.68L432.1,162.78L431.51,162.13L430.73,162.09L426.85,164.17L426.2,163.74L426.02,162.18L424.58,163.83L423.44,164.14L420.85,167.42L417.7,167.9L415.59,169.09L416.41,167.14L416.1,166.77L412.83,167.15L411.87,169.52L409.81,170.34L407.1,172.49L406.13,171.75L403.62,172.41L401.71,173.56L397.07,173.75L395.35,172.73L392.73,172.45L391.56,172.88L390.98,172.52L391.36,171.62L390.49,171.7L390.39,170.76L389.39,170.64L386.63,171.9L385.19,173.6L386.12,174.37L387,176.07L387.05,176.97L386.66,177.01L384.03,174.82L383.1,174.62L383.31,173.61L382.76,172.25L380.64,171.1L380.64,171.1L377.01,170.1L376.7,171.76L377.31,173.35L375.94,172.86L375.53,174.07L374.46,175.01L373.93,174.4L372.48,174.08L373.39,172.26L372.23,172.47L371.88,171.99L373.1,171.51L372.96,171.14L371.34,171.4L370.14,173.08L369.2,172.9L368,173.36L367.9,174.23L371.71,174.79L372.82,175.36L372.54,176.94L374.04,181.02L373.53,181.34L371.22,177.85L369.79,177.85L368.76,180.91L366.93,182.41L367.93,178.91L367.01,176.98L366.42,176.74L364.39,179.84L365.16,175.69L363.06,173.99L362.19,171.84L362.43,171.12L360.8,170.81L359.72,169.45L359.71,168.61L359.15,168.32L356.42,170.72L357.65,168.41L357.77,166.15L356.96,164.75L355.2,164.84L354.89,164.48L356.42,162.87L357.03,160.74L355.45,158.71L353.57,159.46L352.42,159.01L354.57,157.64L354.58,156.67L353.64,156.1L354.5,154.82L354.37,154.21L352.65,154.72L352.09,155.35L350.42,154.54L350.11,155.89L349.61,156.12L348.85,154.54L346.83,155.62L345.35,155.23L345.44,154.46L347.84,153.42L348.33,150.33L348.78,149.89L349.82,149.75L350.65,150.69L352.42,151.38L353,151.11L352.09,149.63L352.22,148.8L350.25,146.99L349.78,147.02L349.37,147.86L348.4,147.43L349.1,146.21L348.4,145.72L348.46,143.52L348.03,143.35L347.78,144.45L346.47,144.73L347.19,146.49L343.12,146.66L342.79,146.01L344.87,143.46L341.22,143.79L342.5,141.94L344.09,141.05L343.44,140.49L341.08,140.7L341.35,138.52L339.38,140.57L338.58,138.99L337.97,138.97L336.1,137.47L335.31,137.38L333.8,138.67L331.92,138L331.4,139.29L332.85,140.91L332.26,141.67L330.8,140.91L329.85,139.79L328.48,139.48L327.45,138.01L325.84,137.08L325.89,135.29L322.96,132.59L322.2,130.98L321.27,130.88L319.81,131.95L319.14,133.09L319.14,133.09L318.25,133.41L318.63,131.6L317.09,132.29L316.35,134.28L314.21,135.13L312.45,138.36L310.4,138.43L308.48,139.1L308.05,137.89L305.74,135.79L306.25,133.89L305.83,132.25L304.41,131.06L303.6,131.02L300.81,132.49L298.56,134.91L295.55,136.08L294.43,136.25L291.36,134.13L285.7,133.18L284.26,133.79L283.67,135.56L280.37,136.43L278.94,135.91L277.49,137.69L277.49,137.69L276.56,136.99L275.63,134.44L274.35,133.78L273.52,133.94L272.47,135.05L271.24,134.85L269.3,135.72L268.13,135.64L267.64,134.96L266.94,130.02L265.76,129.13L264.52,129.18L261.15,129.7L257.3,133.44L254,134.92L252.23,134.93L250.37,133.95L249.19,134.22L248.29,135.44L247.96,137.96L246.39,139.58L246.06,141.84L245.55,142.07L243.52,140.93L241.05,141.9L241.05,141.9L237.39,141.01L233.1,141.74L230.36,139.88L227.5,139.66L226.71,138.65L227.22,134.93L226.37,132.07L227.46,130.67L226.74,127.57L227.06,125.73L228.32,124.76L229,123.22L230.9,121.89L230.79,120.15L233.63,119.21L234.66,117.75L234.42,114.56L233.7,112.5L232.47,111.59L232.69,110.84L234.02,109.59L234.92,107.46L238.87,106.77L244.63,101.63L244.77,100.18L246.19,99.63L246.26,97.12L247.4,95.25L252.19,94.65L253.84,94.9L255.64,94.47L256.7,93.43L259.98,93.56L262.73,91.58L263.58,86.16L262.35,82.29L263.8,78.24L263.48,77.1L262.14,75.45L262.09,74.03L261.27,72.6L261.41,70.85L262.97,69.86L265.23,70.19L267.52,68.49L268.76,68.8L269.73,68.39L271.96,69.41L276.87,66.42L278.97,63.52L278.77,62.3L279.34,61.63L278.85,60.43L279.03,57.26L280.69,55.47L281.99,52.83L282.12,50.52L282.86,48.88L282.43,46.35L283.87,44.66L284.5,42.94L284.13,41.85L282.5,40.31L269.67,31.04L265.57,24.57L252.17,10.22L251.11,9.72L251.11,9.72L251.42,9.27L257.49,14.68L268.17,20.07L280.94,23.39L292.26,24.12L297.84,26.79L307.78,35.65L314.91,37.72z"/>
		<path id="SV-CU" title="Cuscatlán" class="land" d="M319.14,133.09L319.81,131.95L321.27,130.88L322.2,130.98L322.96,132.59L325.89,135.29L325.84,137.08L327.45,138.01L328.48,139.48L329.85,139.79L330.8,140.91L332.26,141.67L332.85,140.91L331.4,139.29L331.92,138L333.8,138.67L335.31,137.38L336.1,137.47L337.97,138.97L338.58,138.99L339.38,140.57L341.35,138.52L341.08,140.7L343.44,140.49L344.09,141.05L342.5,141.94L341.22,143.79L344.87,143.46L342.79,146.01L343.12,146.66L347.19,146.49L346.47,144.73L347.78,144.45L348.03,143.35L348.46,143.52L348.4,145.72L349.1,146.21L348.4,147.43L349.37,147.86L349.78,147.02L350.25,146.99L352.22,148.8L352.09,149.63L353,151.11L352.42,151.38L350.65,150.69L349.82,149.75L348.78,149.89L348.33,150.33L347.84,153.42L345.44,154.46L345.35,155.23L346.83,155.62L348.85,154.54L349.61,156.12L350.11,155.89L350.42,154.54L352.09,155.35L352.65,154.72L354.37,154.21L354.5,154.82L353.64,156.1L354.58,156.67L354.57,157.64L352.42,159.01L353.57,159.46L355.45,158.71L357.03,160.74L356.42,162.87L354.89,164.48L355.2,164.84L356.96,164.75L357.77,166.15L357.65,168.41L356.42,170.72L359.15,168.32L359.71,168.61L359.72,169.45L360.8,170.81L362.43,171.12L362.19,171.84L363.06,173.99L365.16,175.69L364.39,179.84L366.42,176.74L367.01,176.98L367.93,178.91L366.93,182.41L368.76,180.91L369.79,177.85L371.22,177.85L373.53,181.34L374.04,181.02L372.54,176.94L372.82,175.36L371.71,174.79L367.9,174.23L368,173.36L369.2,172.9L370.14,173.08L371.34,171.4L372.96,171.14L373.1,171.51L371.88,171.99L372.23,172.47L373.39,172.26L372.48,174.08L373.93,174.4L374.46,175.01L375.53,174.07L375.94,172.86L377.31,173.35L376.7,171.76L377.01,170.1L380.64,171.1L380.64,171.1L375.89,179.99L369.76,185.92L368.98,189.51L368.95,194.2L369.44,194.19L371.81,197.09L377.05,201.15L379.71,202.65L381.76,202.13L382.61,202.38L384.52,204.48L387.78,206.95L388.87,210.94L388.69,212.85L389.37,213.83L391.04,214.61L392.41,215.99L393.19,220.32L394.41,220.58L396.9,220.12L399.52,221.06L405.97,226.43L407.37,228.89L408.52,229.61L409.41,229.61L409.41,229.61L409.83,230.2L410.83,237.01L408.98,238.56L408.94,241.24L406.9,242.5L406.58,243.62L407.68,246.34L407.51,249.61L409.28,252.19L409.14,253.83L402.97,257.33L400,260.96L400,260.96L393.76,261.85L390.65,263.34L388.14,263.92L387.18,265.43L386.65,268.54L382.93,271.54L381.14,270.26L376.89,268.33L371.18,264L363.69,262.13L363.69,262.13L362.39,259.27L362.56,258.76L368.95,255.78L367.74,248.51L365.29,249.9L363.72,251.51L362.74,251.37L362.05,250.41L359.94,249.45L357.39,250.51L357.7,248.97L350.97,235.24L348.49,228.55L344.17,222.13L343.71,218.25L334.6,216.43L332.2,212.22L330.24,209.99L328.45,204.93L327.39,203.22L325.95,201.94L324.76,201.53L321.73,202.24L319.79,202.06L319.01,201.09L318.32,197.22L316.01,196.16L316.01,195.22L316.77,194.11L320.99,192.5L326.71,187.42L326.61,186.77L324.23,184.56L320.96,183.53L318.29,180.79L317.05,176.83L315.79,175.13L313.66,170.22L310.56,164.77L311.15,162.74L314.05,160.76L316.61,153.58L317.14,147.88L316.55,144.6L315.33,143.19L315.4,140.28L317.8,137.37z"/>
		<path id="SV-LI" title="La Libertad" class="land" d="M241.05,141.9L243.52,140.93L245.55,142.07L246.06,141.84L246.39,139.58L247.96,137.96L248.29,135.44L249.19,134.22L250.37,133.95L252.23,134.93L254,134.92L257.3,133.44L261.15,129.7L264.52,129.18L265.76,129.13L266.94,130.02L267.64,134.96L268.13,135.64L269.3,135.72L271.24,134.85L272.47,135.05L273.52,133.94L274.35,133.78L275.63,134.44L276.56,136.99L277.49,137.69L277.49,137.69L277.61,138.79L276.27,139.91L275.94,141.22L274.18,142.07L274.21,144.54L273.16,148.2L272.91,148.54L272.11,148.29L271.45,149.06L271.75,151.06L271.22,152.59L274.04,157.34L274.68,157.56L275.95,156.95L277.92,158.93L278.46,159.19L279.37,158.65L280.5,161.62L282.2,162.76L282.45,163.52L282.04,163.93L280.24,164.39L279.6,165.1L280.26,167.06L286.39,169.73L293.73,170.93L294.28,172.23L294.48,175.81L294.04,178.08L291.02,180.15L290.81,183.51L288.94,185L288.22,193.27L286.79,199.27L285.01,204.41L283.75,210.16L281.15,215.37L281.89,220.15L278.1,233L276.24,237.33L275.02,238.68L275.47,239.47L276.36,239.84L280.63,238.03L281.84,238.29L281.4,240.64L278.13,244.09L278.1,245.38L278.69,246.34L277.5,247.31L277.64,248.14L281.11,249.09L287.76,252.01L288.48,253.08L289.71,258.36L290.65,260.5L291.25,261.48L294.37,263.49L294.99,264.38L294.39,265.47L291.87,266.04L291.19,266.58L290.21,268.83L289.67,272.2L289.81,273.02L290.54,273.42L293.7,273.45L296.11,274.53L296.01,275.18L293.7,277.43L292.68,280.09L293.06,282.84L291.98,284.96L292.23,287.58L294.23,290.5L295.21,292.83L294.6,297.78L292.69,300.77L292.01,302.86L291.96,304.78L294.89,311.07L296.34,313.16L297.19,316.65L299.67,319.01L299.93,321.04L299.24,322.79L299.33,323.72L300.77,324.63L304.04,324.96L307.44,326.09L308.52,325.18L308.38,322.59L309,321.49L308.49,320.88L308.73,320.32L314.2,320.24L314.2,320.24L314.43,322.25L313.83,325.62L315.85,326.17L321.28,325.28L321.94,325.67L322.01,326.55L320.44,332.24L319.63,333.57L317.65,335.69L314.95,336.83L315.02,337.49L315.93,337.99L316.34,339.05L314.58,343.02L314.58,343.02L310.38,340.25L307.68,339.61L301.64,336.57L301.19,335.47L299.12,335.28L295.06,332.52L285.06,328.19L284.07,327.46L283.98,326.81L282.27,326.81L271.09,322.11L270.1,321.28L266.49,320.55L263.61,320.92L262.98,320.36L260.54,320.36L259.37,322.21L258.29,322.76L257.21,321.84L251.89,320.46L249.82,321.38L247.3,319.44L245.13,318.71L241.17,318.8L239.19,317.97L237.83,318.61L236.57,317.6L235.58,318.25L234.32,318.34L232.79,317.97L230.98,317.97L229.72,317.6L227.47,318.71L223.42,317.51L221.88,318.06L219.36,317.6L217.83,317.32L212.96,316.04L211.16,316.68L209.54,316.96L201.97,316.13L200.89,316.5L200.61,317.05L197.37,317.79L193.94,317.97L191.51,316.96L188.54,315.3L187.1,315.3L184.21,315.21L181.6,314.01L179.35,313.73L177.63,313.37L175.56,312.9L171.23,312.72L170.96,312.08L170.06,311.8L169.61,312.17L167.9,311.98L166.91,310.88L163.66,309.66L163.66,309.66L170.03,304.71L175.26,297.96L181.95,291.62L182.91,289.82L183.98,282.95L184.94,280.08L187.77,276.81L189.47,274.06L192.84,271.97L195.23,269.08L195.55,266.58L194.08,251.55L194.6,248.56L196.21,247.32L197.91,246.72L207.11,245.44L208.18,241.84L210.3,240.96L211.31,238.7L213.19,237.03L215.23,236.53L215.83,237.37L217.17,237.62L217.97,236.78L218.49,234.88L220.92,234.39L222.59,230.71L222.36,227.71L221.66,226.9L220.1,226.72L217.3,225.42L217.3,225.42L217.1,221.61L215.52,220.21L214.24,216.88L216.24,214.84L217.92,214.35L219.27,213.31L219.84,211.35L219.46,210L220.11,209.6L219.74,208.58L220.9,204.7L219.41,200.13L220.2,199.17L219.62,194.24L217.19,186.77L218.5,184.58L217.77,182.7L219.18,180.81L219.56,178.95L220.67,177.78L221.65,178.3L222.08,178.04L223.16,175.56L224.54,175.37L225.2,174.11L228.2,173.78L234.45,168.29L237.48,167.6L238.71,166.47L238.68,164.63L237.51,162.5L237.82,159.79L237.01,157.32L238.6,153.62L240.14,153.53L240.62,152.12L241.81,151.27L241.65,148.65L239.96,147.49L239.75,146.86L241.39,143.71L241.47,142.42z"/>
		<path id="SV-MO" title="Morazán" class="land" d="M656.1,154.4L659.2,156.49L667.39,157.04L667.5,163.47L669.68,166.7L671.24,168.09L673.59,172.32L684.33,187.58L685.89,193.59L702.84,183.89L704.56,185.57L704.56,185.57L702.02,191.97L701.54,195.72L701.59,198.24L703.06,206.57L703.46,215.72L700.81,227.52L701.52,228.56L706.11,227.97L706.96,228.65L707.59,233.41L709.07,236.68L708.45,243.56L706.72,247.29L704.07,256.2L694.8,276.28L695.26,279.88L692.15,288.34L689.24,292.44L682.27,295.47L681.12,296.55L681.12,296.55L678.64,296.14L676.01,296.4L663.65,300.91L656.88,302.62L655.31,301.77L651.99,294.54L644.81,291.83L643.97,290.94L644.45,288.61L646.13,286.62L645.56,284.35L646.21,283.33L644.74,282.44L644.72,281.47L643.68,280.5L643.99,278.63L637.54,278.77L631.22,280.07L627.7,280.32L625.75,280.96L621.59,283.81L619.65,284.18L621.33,280.76L623.45,278.88L623.14,277.8L616.75,273.17L616.49,272.06L617.13,269.29L616.52,267.64L612.32,265.11L610.31,261.72L602.66,255.03L601.77,252.62L601.59,247.48L602.48,243.77L603.63,241.88L607.75,238.75L616.43,233.31L616.92,232.21L616.56,227.91L604.02,218.37L602,213.27L601.26,207.25L605.78,200.11L605.95,194.49L607.45,193.37L609.65,193.82L610.29,193.52L609.14,189.9L605.45,188.18L605.61,186.09L604.88,184.74L604.88,184.74L606.67,183.94L619.51,172.89L619.04,165.93L620.28,161.32L620.65,156.01L622.55,155.98L623.24,155.01L626.55,155.03L626.73,156.17L627.8,156.97L629.66,157.43L632.2,157.18L633.43,157.12L634.41,159.03L635.46,159.14L636.68,158.55L637.57,158.79L638.24,159.41L639.66,159.12L641.46,158.98L642.6,157.24L644.17,157.62L644.81,156.98L646.78,157.81L650.42,156.68L653.72,154.65z"/>
		<path id="SV-PA" title="La Paz" class="land" d="M398.7,378.36l2.07,0.92l0.81,1.75l-5.41,-1.29l-1.17,-0.83l0.18,-0.55H398.7zM387.98,372.84l0.63,0.37l0.27,1.1l-0.9,-0.37V372.84zM386.63,372.56l0.9,1.38l-2.52,-0.55l0.09,-0.64L386.63,372.56zM400,260.96l-0.66,8.58l2.2,5.11l-2.2,8.61l2.26,1.2l4.39,0.98l7.59,-0.47l4.58,-1.29l0.9,0.46l-0.61,3.34l1.12,2.19l0.08,1.86l5.97,13.38l0.58,2.3l-0.23,3.91l-1.73,5.46l-0.44,3.7l-1.28,2.04l0.09,1.65l1.02,2.93l-0.19,3.56l1.19,2.5l-0.2,2.47l1.01,1.38l3.25,1.41l1.2,3.48l2.98,2.86l2.93,1.33l1.71,2.82l-0.28,1.36l-2.16,2.77l-0.14,2.91l-0.47,1.18l-0.99,0.99l-2.69,0.46l-1.39,1.36l-0.1,1l1.46,1.98l-1.2,3.22l0.35,2.64l-0.46,1.74l0.92,2.05l2.12,2.62l0.21,1.98l-3.17,3.2l-2.68,0.21l-1.41,0.63l-1.35,1.99l-1.36,1.01l-0.41,0.82l0.41,1.19l-0.29,0.67l-1.5,1.38l-1.15,2.43l0.25,1.28l-0.51,1.43l0.02,2.47l0,0l-9.56,-5.33l-4.42,-1.29l-1.53,-1.66l0.18,-1.93l0.56,0.37l0.25,1.29l1.44,1.1h0.72l3.15,-2.48l0.48,0.09l1.05,0.74l0.27,1.2l0.72,0.19l-0.81,-1.66l-1.35,-0.92l0.36,-1.93l3.78,-0.64l0.36,-1.29l-0.45,-1.01l0.73,-0.93l-0.72,0.28l-0.45,0.83l0.62,0.79l-0.14,0.7l-4.26,1l-0.36,1.93l-0.9,1.1l-0.57,0.47l-1.32,0.08l-0.63,-1.66l0.9,-1.2l-1.44,0.65l-1.89,-2.21l-0.54,-0.18l-0.63,-0.09l-1.08,-1.56l0.81,-0.37l0.09,-0.55l-0.36,0.09l-0.54,-1.01l-1.8,-1.47l-3.79,-0.09l-0.99,-0.83l0.09,0.74h-0.99l-0.45,0.92l-0.72,-0.09l-0.34,-0.56l-0.56,0.46l-0.81,-0.09l-1.44,-1.56l-1.44,-3.13l-2.16,-1.2l-0.99,0.46l-1.95,-0.23l-0.94,-2.26l-0.27,0.46l0.66,1.22l-0.03,0.62l1.44,0.55l0.09,0.55l-2.97,0.74l-1.91,-1.86l-4.45,-0.72l-1.03,-1.83l-0.9,0.28l-1.26,-0.64l-2.16,-0.28l-1.17,-0.92l-0.45,-1.01l-0.72,0.09l1.17,1.2l-0.18,0.46l0.54,0.64l3.7,0.74l3.15,2.12h2.61l3.42,2.3l3.34,-0.37l2.79,1.1l3.43,3.59l6.04,2.76l2.7,0.28l1.8,1.84l0.54,1.38l-1.44,0.46l-2.79,-0.83l-13.88,-7.45l-18.02,-8.19l-1.62,-0.28l-10.63,-4.23l-0.45,-1.29l-0.72,-0.18l-0.18,0.55l-1.53,-0.28l-4.42,-1.84l-7.3,-4.42l-25.09,-13.99l0,0l1.76,-3.96l-0.42,-1.06l-0.91,-0.5l-0.07,-0.66l2.7,-1.13l1.98,-2.12l0.81,-1.32l1.57,-5.69l-0.07,-0.88l-0.67,-0.39l-5.42,0.89l-2.03,-0.55l0.61,-3.37l-0.24,-2l0,0l1.81,-5.18l2.42,-1.55l0.47,-2.07l1.23,-1.73l-0.19,-3.7l2.38,-2.49l0.59,-1.82l-0.84,-2.84l0.03,-3.5l-0.45,-1.73l-3.76,-4.76l-0.87,-3.71l-1.32,-2.11l0.38,-1.09l2.83,-1.1l12.44,-0.95l1.55,-1.27l3.64,-6.25l2.52,-2.6l4.99,1.67l1.54,-0.56l0.21,-1.39l0.96,-0.05l2.06,0.67l3.04,2.34l2.07,0.29l1.06,-0.62l2.05,-2.49l1.24,-0.11l0.95,-1.19l2.32,-1.14l2.98,-0.02l1.4,-3.12l-0.79,-0.09l-1.42,-1.85l0,0l7.48,1.88l5.71,4.33l4.26,1.93l1.79,1.28l3.72,-3l0.53,-3.11l0.97,-1.51l2.51,-0.58l3.11,-1.49L400,260.96z"/>
		<path id="SV-SA" title="Santa Ana" class="land" d="M240.66,7.3L242.25,6.44L243.21,6.63L247.83,10.26L249.37,10.64L251.11,9.72L251.11,9.72L252.17,10.22L265.57,24.57L269.67,31.04L282.5,40.31L284.13,41.85L284.5,42.94L283.87,44.66L282.43,46.35L282.86,48.88L282.12,50.52L281.99,52.83L280.69,55.47L279.03,57.26L278.85,60.43L279.34,61.63L278.77,62.3L278.97,63.52L276.87,66.42L271.96,69.41L269.73,68.39L268.76,68.8L267.52,68.49L265.23,70.19L262.97,69.86L261.41,70.85L261.27,72.6L262.09,74.03L262.14,75.45L263.48,77.1L263.8,78.24L262.35,82.29L263.58,86.16L262.73,91.58L259.98,93.56L256.7,93.43L255.64,94.47L253.84,94.9L252.19,94.65L247.4,95.25L246.26,97.12L246.19,99.63L244.77,100.18L244.63,101.63L238.87,106.77L234.92,107.46L234.02,109.59L232.69,110.84L232.47,111.59L233.7,112.5L234.42,114.56L234.66,117.75L233.63,119.21L230.79,120.15L230.9,121.89L229,123.22L228.32,124.76L227.06,125.73L226.74,127.57L227.46,130.67L226.37,132.07L227.22,134.93L226.71,138.65L227.5,139.66L230.36,139.88L233.1,141.74L237.39,141.01L241.05,141.9L241.05,141.9L241.47,142.42L241.39,143.71L239.75,146.86L239.96,147.49L241.65,148.65L241.81,151.27L240.62,152.12L240.14,153.53L238.6,153.62L237.01,157.32L237.82,159.79L237.51,162.5L238.68,164.63L238.71,166.47L237.48,167.6L234.45,168.29L228.2,173.78L225.2,174.11L224.54,175.37L223.16,175.56L222.08,178.04L221.65,178.3L220.67,177.78L219.56,178.95L219.18,180.81L217.77,182.7L218.5,184.58L217.19,186.77L219.62,194.24L220.2,199.17L219.41,200.13L220.9,204.7L219.74,208.58L220.11,209.6L219.46,210L219.84,211.35L219.27,213.31L217.92,214.35L216.24,214.84L214.24,216.88L215.52,220.21L217.1,221.61L217.3,225.42L217.3,225.42L212.8,223.67L210.29,223.77L208.59,224.66L206.54,224.25L204,224.75L201.52,224.11L198.67,221.87L196.69,221.1L192.31,218.26L192.77,215.31L192.46,213.6L189.81,211.11L187.78,209.91L186.4,209.88L185.7,209L186.06,208.09L187.38,207.66L187.46,207.03L185.83,206.95L182.74,205.65L180.6,205.65L177.59,207.39L172.59,208.71L171.87,214.36L170.9,215.3L168.38,216.51L167.78,218.2L166.71,218.89L164.55,216.14L165.42,213.71L164.51,211.83L163.07,210.96L159.25,209.95L156.41,211.19L155.26,210.24L155.7,208.8L162.13,203.12L162.43,202.27L161.92,200.94L162.34,199.1L162.12,198.3L160.24,197.36L153.43,197.09L153.67,196L152.42,192.84L153.37,191.67L153.1,190.11L153.65,188.57L152.56,187.68L154.1,186.43L154.22,185.57L153.04,185.98L151.9,185.76L150.95,186.76L150,186.38L147.91,187.1L145.61,185.16L142.72,184.28L141.48,184.28L140.5,185.23L139.47,185L136.92,185.77L132.27,183.98L130.34,184.24L129.01,185.52L126.79,184.37L126.79,184.37L128.6,183.93L132.3,178.41L132.69,176.87L132.49,174.26L134.5,170.79L135.32,165.31L140.34,158.4L140.87,151.91L140.32,150.41L139.34,149.4L132.89,146.01L132.26,145.17L131.13,139.71L129.39,139.85L128.33,138.72L125.61,138.61L125.61,138.61L125.38,137.46L127.28,137.87L127.67,135.87L125.6,134.7L124.89,132L125.77,129.9L124.32,127.98L127.77,120.73L128.53,117.19L132,108.22L134.78,103.12L150.36,89.24L150.3,88.52L159.76,83.34L162,82.79L164.71,82.64L172.13,83.69L180.7,82.71L187.6,79.09L192.54,77.64L195.24,76.21L196.43,75.19L197.21,71.92L198.47,70.91L198.54,69.79L197.32,69.22L197.33,70.05L196.84,70.51L193.29,61.44L189.13,55.78L188,52.26L189.48,53.32L190.04,52.9L190.68,51.3L190.04,49.15L188.24,47.41L186.63,46.99L186.7,45.93L186.04,45.67L185.22,44.08L184.19,43.63L179.86,43.55L178.3,42.99L176.22,44.81L175.21,44.92L175.02,44.37L175.29,39.24L176.62,35.3L178.15,34.62L180.55,34.8L181.41,34.03L181.54,31.75L183.99,31.24L183.49,29.3L179.88,26.14L180.33,24.66L178.9,18.16L179.29,13.01L180.76,10.11L191.37,9.76L190.88,11.14L194.19,16.61L192.8,20.55L195.37,21.37L195.96,20.64L197.8,20.71L199.82,17.88L207.85,10.67L209.37,10.64L211.27,9.55L213.44,7.27L215.72,8.43L217.87,8.73L220.36,10.12L222.99,10.81L223.26,12.38L224.89,13.26L226.92,12.98L231.33,9.53L233.62,6.58L234.86,5.85L235.51,3.27L236.67,1.49L238.84,1.03L239.75,0L240.98,1.03z"/>
		<path id="SV-SM" title="San Miguel" class="land" d="M604.88,184.74L605.61,186.09L605.45,188.18L609.14,189.9L610.29,193.52L609.65,193.82L607.45,193.37L605.95,194.49L605.78,200.11L601.26,207.25L602,213.27L604.02,218.37L616.56,227.91L616.92,232.21L616.43,233.31L607.75,238.75L603.63,241.88L602.48,243.77L601.59,247.48L601.77,252.62L602.66,255.03L610.31,261.72L612.32,265.11L616.52,267.64L617.13,269.29L616.49,272.06L616.75,273.17L623.14,277.8L623.45,278.88L621.33,280.76L619.65,284.18L621.59,283.81L625.75,280.96L627.7,280.32L631.22,280.07L637.54,278.77L643.99,278.63L643.68,280.5L644.72,281.47L644.74,282.44L646.21,283.33L645.56,284.35L646.13,286.62L644.45,288.61L643.97,290.94L644.81,291.83L651.99,294.54L655.31,301.77L656.88,302.62L663.65,300.91L676.01,296.4L678.64,296.14L681.12,296.55L681.12,296.55L679.83,298.67L680.09,301.22L679.15,304.64L680.73,308.01L683.27,319.8L682.76,320.89L678.19,321.86L676.58,322.85L674.56,331.25L674.23,336.54L675.22,341.91L677.18,345.5L680.28,346.87L681.31,347.85L683,348.21L682.52,349.96L680.74,353.02L678.89,359.6L677.84,360.35L676.09,360.62L675.61,361.43L676.44,362.67L678.38,363.97L680.1,367.77L678.5,373.99L676.47,378.91L678.68,385.37L679.35,399.8L678.32,400.61L668.09,399.54L666.23,399.94L663.16,406.43L660.48,414.46L659.31,424.36L659.31,424.36L659.18,424.73L652.58,424.27L650.96,424.54L651.05,425.56L650.23,426.05L650.23,426.05L646.61,420.45L638.56,410.05L636.42,405.17L624.2,403.69L620.17,406.09L618.64,405.72L617.17,404.4L616.49,403.01L616.65,401.37L617.37,400.06L622.45,395.69L622.64,394.97L620.79,391.89L618.57,390.39L617.27,388.89L615.9,388.61L614.13,389.42L613.59,389.04L615.6,382.76L614.49,381.15L613.86,381.26L613.39,382.41L612.31,382.18L611.77,383.36L610.73,382.28L606.79,383.31L605.95,381.95L604.84,381.6L605.95,381.01L605.45,380.57L603.19,380.36L601.84,379.5L601.46,380.88L600.47,380.25L599.75,382.84L599.26,382.88L598.39,381.99L597.43,382.39L595.55,389.45L595.64,391.92L599.08,396.73L598.9,397.64L595.86,398.7L592.17,399.07L590.25,400L588.64,399.66L587.87,398.82L587.47,397.63L587.87,392.6L586.52,390.59L586.48,389.67L589.41,386.25L595.07,383.65L595.96,382.19L595.16,378.33L593.19,374.34L593.58,371.06L592.79,370.76L587.02,371.46L584.03,370.76L577.32,370.94L575.97,370.42L575.92,366.78L575.25,365.2L574.11,364.96L573.38,363.46L572.43,363.14L571.29,361.59L567.83,360.05L566.6,358.2L566.64,356.73L567.93,353.84L567.18,347.43L568.69,343.84L568.59,341.03L566.74,339.46L566.18,335.58L565.6,334.59L563.73,334.5L561.85,335.39L560.92,334.75L561.62,327.37L562.45,326.87L565.48,327.65L567.25,326.88L567.53,324.78L566.79,321.06L567.7,319.75L569.93,318.04L570.65,315.61L569.56,299.56L565.84,297.6L564.37,296.36L566.08,291.55L565.1,287.65L565.37,285.55L566.55,285.04L567.86,285.43L569.95,287.79L570.53,287.74L570.92,287.05L570.13,283.69L570.27,282.69L571.2,281.49L571.23,280.48L570.84,279.69L568.35,278.33L567.63,276.76L567.68,274.15L568.85,271.09L567.42,263.48L566.38,262.59L564.82,262.61L563.59,263.14L562.06,264.73L559.64,265.07L556.18,263.17L554.35,263.24L553.54,261.7L551.77,260.36L551.17,259.34L549.17,258.81L545.08,253.42L542.71,252.15L541.98,252.12L540.88,253.6L539.2,253.32L538.37,253.66L537.75,253.3L537.16,253.86L535.33,252.38L533.43,252.65L531.14,252.2L531.14,252.2L529.84,251.11L526.62,249.91L526.32,248.64L526.7,245.38L525.62,243.28L524.05,243.12L521.69,244.35L520.7,244.23L519.09,236.75L519.09,236.75L519.88,236.38L520.11,234.98L518.33,231.65L518.43,229.56L519.54,227.15L521.51,226.21L522.04,224.61L523.61,222.52L524,220.29L522.92,217.63L522.94,216.46L523.85,214.95L527.89,210.65L527.56,206.61L529.03,203.75L528.72,200.48L530.26,197.1L530.26,197.1L532.84,197.25L538.05,199.57L539.02,197.68L539.02,195.61L544.98,196.1L546.93,195.79L550.45,191.05L553.44,190.02L567.12,188.92L574.78,194.58L586.51,190.31z"/>
		<path id="SV-SO" title="Sonsonate" class="land" d="M56.33,261.3L59.15,259.97L60.46,257.52L62.7,256.26L66.56,249.49L68.49,249.16L70.38,247.38L71.56,247.28L78.72,253.5L80.39,255.73L84.86,257.38L87.49,258.91L91.09,262.29L92.99,262.51L97.63,261.85L99.18,258.93L101.42,249.83L103.23,246.46L103.16,243.2L105.68,237.42L106.06,232.44L107.03,231.53L111.24,231.11L109.32,225.6L107.94,219.4L107.98,217.43L109.12,212.86L110.44,211.13L113.73,208.35L117,202.7L116.69,201.33L114.23,196.92L112.02,187.86L113.19,186.6L116.56,186.26L119.62,184.73L122.13,181.07L122.86,182.18L125.78,182.99L126.79,184.37L126.79,184.37L129.01,185.52L130.34,184.24L132.27,183.98L136.92,185.77L139.47,185L140.5,185.23L141.48,184.28L142.72,184.28L145.61,185.16L147.91,187.1L150,186.38L150.95,186.76L151.9,185.76L153.04,185.98L154.22,185.57L154.1,186.43L152.56,187.68L153.65,188.57L153.1,190.11L153.37,191.67L152.42,192.84L153.67,196L153.43,197.09L160.24,197.36L162.12,198.3L162.34,199.1L161.92,200.94L162.43,202.27L162.13,203.12L155.7,208.8L155.26,210.24L156.41,211.19L159.25,209.95L163.07,210.96L164.51,211.83L165.42,213.71L164.55,216.14L166.71,218.89L167.78,218.2L168.38,216.51L170.9,215.3L171.87,214.36L172.59,208.71L177.59,207.39L180.6,205.65L182.74,205.65L185.83,206.95L187.46,207.03L187.38,207.66L186.06,208.09L185.7,209L186.4,209.88L187.78,209.91L189.81,211.11L192.46,213.6L192.77,215.31L192.31,218.26L196.69,221.1L198.67,221.87L201.52,224.11L204,224.75L206.54,224.25L208.59,224.66L210.29,223.77L212.8,223.67L217.3,225.42L217.3,225.42L220.1,226.72L221.66,226.9L222.36,227.71L222.59,230.71L220.92,234.39L218.49,234.88L217.97,236.78L217.17,237.62L215.83,237.37L215.23,236.53L213.19,237.03L211.31,238.7L210.3,240.96L208.18,241.84L207.11,245.44L197.91,246.72L196.21,247.32L194.6,248.56L194.08,251.55L195.55,266.58L195.23,269.08L192.84,271.97L189.47,274.06L187.77,276.81L184.94,280.08L183.98,282.95L182.91,289.82L181.95,291.62L175.26,297.96L170.03,304.71L163.66,309.66L163.66,309.66L160.87,308.48L155.1,307.19L153.75,306.27L149.42,305.72L144.11,304.8L138.52,305.26L138.25,304.71L137.53,304.62L134.28,306.37L133.56,306.37L133.2,305.81L129.42,306.37L121.76,306.09L116.26,305.17L114,305.9L111.03,306.18L110.13,307.84L109.14,306.83L107.7,308.12L108.06,308.94L107.79,309.59L106.71,309.59L106.89,308.21L106.53,307.75L104.54,307.47L103.19,308.58L102.92,309.77L102.38,309.77L102.11,308.58L102.29,307.38L101.39,306.64L100.4,307.01L100.31,306L98.49,305.08L97.6,305.26L97.51,304.43L98.5,304.06L98.5,303.23L96.97,302.86L96.52,301.85L96.88,301.12L95.89,298.44L96.07,296.42L95.44,294.57L94.72,294.27L94.45,291.63L92.74,291.72L91.57,290.52L92.02,289.97L92.29,290.61L93.46,290.24L93.82,290.8L94.27,290.61L93.91,288.03L93.37,287.85L94.18,285.55L92.47,282.69L90.48,281.21L89.04,280.39L83.81,277.16L77.69,273.2L61.83,264.26L60.47,263.34L60.74,262.6L59.93,261.86L59.57,262.6L59.03,262.6z"/>
		<path id="SV-SS" title="San Salvador" class="land" d="M277.49,137.69L278.94,135.91L280.37,136.43L283.67,135.56L284.26,133.79L285.7,133.18L291.36,134.13L294.43,136.25L295.55,136.08L298.56,134.91L300.81,132.49L303.6,131.02L304.41,131.06L305.83,132.25L306.25,133.89L305.74,135.79L308.05,137.89L308.48,139.1L310.4,138.43L312.45,138.36L314.21,135.13L316.35,134.28L317.09,132.29L318.63,131.6L318.25,133.41L319.14,133.09L319.14,133.09L317.8,137.37L315.4,140.28L315.33,143.19L316.55,144.6L317.14,147.88L316.61,153.58L314.05,160.76L311.15,162.74L310.56,164.77L313.66,170.22L315.79,175.13L317.05,176.83L318.29,180.79L320.96,183.53L324.23,184.56L326.61,186.77L326.71,187.42L320.99,192.5L316.77,194.11L316.01,195.22L316.01,196.16L318.32,197.22L319.01,201.09L319.79,202.06L321.73,202.24L324.76,201.53L325.95,201.94L327.39,203.22L328.45,204.93L330.24,209.99L332.2,212.22L334.6,216.43L343.71,218.25L344.17,222.13L348.49,228.55L350.97,235.24L357.7,248.97L357.39,250.51L359.94,249.45L362.05,250.41L362.74,251.37L363.72,251.51L365.29,249.9L367.74,248.51L368.95,255.78L362.56,258.76L362.39,259.27L363.69,262.13L363.69,262.13L365.11,263.97L365.9,264.06L364.51,267.18L361.53,267.2L359.21,268.34L358.26,269.53L357.02,269.63L354.97,272.13L353.91,272.74L351.84,272.46L348.79,270.11L346.73,269.44L345.77,269.49L345.56,270.89L344.02,271.45L339.03,269.79L336.51,272.39L332.87,278.64L331.33,279.91L318.89,280.86L316.07,281.96L315.68,283.05L317.01,285.16L317.88,288.87L321.64,293.63L322.09,295.36L322.07,298.86L322.9,301.7L322.32,303.52L319.93,306.01L320.12,309.71L318.89,311.45L318.42,313.51L316,315.07L314.2,320.24L314.2,320.24L308.73,320.32L308.49,320.88L309,321.49L308.38,322.59L308.52,325.18L307.44,326.09L304.04,324.96L300.77,324.63L299.33,323.72L299.24,322.79L299.93,321.04L299.67,319.01L297.19,316.65L296.34,313.16L294.89,311.07L291.96,304.78L292.01,302.86L292.69,300.77L294.6,297.78L295.21,292.83L294.23,290.5L292.23,287.58L291.98,284.96L293.06,282.84L292.68,280.09L293.7,277.43L296.01,275.18L296.11,274.53L293.7,273.45L290.54,273.42L289.81,273.02L289.67,272.2L290.21,268.83L291.19,266.58L291.87,266.04L294.39,265.47L294.99,264.38L294.37,263.49L291.25,261.48L290.65,260.5L289.71,258.36L288.48,253.08L287.76,252.01L281.11,249.09L277.64,248.14L277.5,247.31L278.69,246.34L278.1,245.38L278.13,244.09L281.4,240.64L281.84,238.29L280.63,238.03L276.36,239.84L275.47,239.47L275.02,238.68L276.24,237.33L278.1,233L281.89,220.15L281.15,215.37L283.75,210.16L285.01,204.41L286.79,199.27L288.22,193.27L288.94,185L290.81,183.51L291.02,180.15L294.04,178.08L294.48,175.81L294.28,172.23L293.73,170.93L286.39,169.73L280.26,167.06L279.6,165.1L280.24,164.39L282.04,163.93L282.45,163.52L282.2,162.76L280.5,161.62L279.37,158.65L278.46,159.19L277.92,158.93L275.95,156.95L274.68,157.56L274.04,157.34L271.22,152.59L271.75,151.06L271.45,149.06L272.11,148.29L272.91,148.54L273.16,148.2L274.21,144.54L274.18,142.07L275.94,141.22L276.27,139.91L277.61,138.79z"/>
		<path id="SV-SV" title="San Vicente" class="land" d="M409.41,229.61L410.19,229.45L413.33,225.55L414.75,224.57L420.45,223.99L422.75,224.82L424.6,224.63L428.61,225.4L431.98,225.22L439.76,220.7L442.22,220.04L444.45,220.64L445.44,219L446.84,218.44L449.16,219.25L450.57,219.1L452.97,220.08L453.59,219.9L454.2,218.84L455.76,221.95L456.67,222.5L458.35,221.66L460.54,222.36L465.68,220.77L467.66,222.19L472.59,222.19L474.89,220.11L475.7,219.91L478.56,220.96L478.92,222.75L481.5,224.41L486.1,224.77L489.31,227.09L492.03,228.14L496.1,228.11L495.56,231.93L496.99,233.38L498.07,233.81L499.03,236.73L504.91,236.67L506.21,235.92L508.02,236.66L510.92,236.51L513.3,235.62L514.76,235.72L516.7,234.85L517.65,234.98L519.09,236.75L519.09,236.75L520.7,244.23L521.69,244.35L524.05,243.12L525.62,243.28L526.7,245.38L526.32,248.64L526.62,249.91L529.84,251.11L531.14,252.2L531.14,252.2L532.09,254.51L529.25,259.44L527.57,260.67L522.82,262.07L520.52,263.33L518.57,266.11L516.06,267.28L513.97,268.9L510.77,272.83L509.59,277.19L506.5,279.47L504.54,284.59L503.75,285.23L500.18,286.37L493.11,286.77L486.82,288.64L485.35,290.2L484.31,292.83L482.93,294.17L479.77,300.57L478.81,301.13L476.08,300.88L474.3,302.3L473.6,304.53L474.3,308.75L473.11,311.23L472.45,317.73L471.03,322.09L470.79,329.44L469.33,331.84L467.03,333.81L463.46,343.27L458.43,350.82L453.39,361.09L453.58,365.04L454.55,367L456.66,368.34L456.91,370.08L456.52,371.17L452.24,372.86L450.03,375.53L447.97,379.73L446.12,380.93L440.99,386.1L437.37,387.76L434.78,390.03L432.51,390.36L430.63,391.25L429.24,392.82L428.81,394.91L430.88,397.03L433.4,398.48L439.31,400.44L440.34,401.77L440.52,403.39L440.52,403.39L428.35,399.61L421.68,395.94L420.78,396.4L419.53,395.65L419.53,395.65L419.51,393.19L420.02,391.76L419.77,390.48L420.92,388.06L422.42,386.68L422.7,386.01L422.29,384.81L422.7,383.99L424.06,382.98L425.41,380.98L426.82,380.36L429.5,380.15L432.67,376.95L432.47,374.97L430.35,372.35L429.42,370.29L429.89,368.55L429.54,365.91L430.74,362.68L429.28,360.7L429.38,359.7L430.77,358.34L433.47,357.88L434.46,356.9L434.93,355.72L435.07,352.81L437.23,350.04L437.51,348.68L435.8,345.86L432.86,344.54L429.89,341.67L428.69,338.19L425.44,336.78L424.43,335.4L424.63,332.93L423.44,330.43L423.63,326.87L422.61,323.94L422.53,322.3L423.8,320.26L424.25,316.56L425.98,311.1L426.21,307.19L425.62,304.89L419.66,291.51L419.57,289.65L418.45,287.46L419.06,284.12L418.16,283.66L413.58,284.95L405.99,285.43L401.6,284.45L399.34,283.25L401.54,274.65L399.34,269.53L400,260.96L400,260.96L402.97,257.33L409.14,253.83L409.28,252.19L407.51,249.61L407.68,246.34L406.58,243.62L406.9,242.5L408.94,241.24L408.98,238.56L410.83,237.01L409.83,230.2z"/>
		<path id="SV-UN" title="La Unión" class="land" d="M791.37,423.18l0.54,1.18v2.21l-0.9,-0.83l-0.45,-1.47L791.37,423.18zM780.55,409.27l0.27,0.73l2.07,-0.18l2.54,0.71l0.44,2.33l1.53,2.48l0.36,1.66l0.18,1.1l0.34,1.91l-0.61,1.22l1.07,1.09l-0.08,1.49l1.17,0.64l-0.38,1.38l-0.88,0l-1.08,1.1l-1.71,-0.55l-1.17,1.66l-0.63,-0.64l0.63,-1.38l-1.51,-1.03l-1.01,0.2l-0.36,0.83l-0.99,0.46l-1.79,0.09l-0.01,-1.28l0.55,-0.84l-0.09,-2.28l-0.63,-0.74l-1.08,-0.18l0.36,-0.83l-0.81,-1.01l0.45,-1.01l-0.54,-1.75l1.08,-1.59l-0.72,-2.91l1.8,-2.48L780.55,409.27zM764.5,398.89l2.88,0.83l1.36,1.36l0.27,2.21l1.08,-0.09l0.45,0.46l-0.36,0.83l0.27,1.65l-0.45,0.83l-0.97,-0.66l-0.47,0.2l-0.63,1.2v1.75l-1.35,1.1h-0.99l-3.33,-1.84l-0.63,-1.84l0.19,-1.47l-0.64,-0.46l-0.01,-1.01l-0.72,-1.1l0.09,-0.57l0.81,-0.35l-0.63,-0.92l0.36,-1.01l1.17,-0.92L764.5,398.89zM773.26,385.43l1.71,0.66l0.81,2.02l-0.54,0.55l-0.91,-0.19l-0.62,0.74l-0.9,-0.18l-0.63,0.55l-0.98,-1.48L773.26,385.43zM772.71,381.58l0.27,0.55l-1.27,0.91l-0.08,-0.72L772.71,381.58zM772.71,375.69l0.36,1.47l-1.53,1.57l-1.81,0.55l0.28,0.99l-0.99,0.76l0.99,1.2l-0.45,1.1l0.63,0.74l-1.98,1.1l-2.24,-0.47l-1.82,0.26l0.81,-1.63l-0.45,-1.75l0.09,-2.39l-0.54,-0.92l0.27,-1.47l0.99,0.1l0,-0.65l0.9,-0.46l0,0.83l0.56,0.55l1.43,-0.82l1.62,0.92l0.99,-1.01L772.71,375.69zM738.65,351.9l0.26,2.16l-1.25,2.02l-2.07,0.19l-2.35,2.3l-0.63,-0.93l-1.44,-0.63l0.18,-1.01l1.44,-0.74l1.28,-2.49l3.41,0.1L738.65,351.9zM727.31,183.29l3.05,2.14l2.06,-0.07l1.91,0.99l3.74,-0.23l6.64,2.3l3.13,0.16l6.49,-1.9l8.07,6.43l6.8,2.8l1.21,0.96l0.99,2l0.69,6.59l1.24,1.76l2.06,1.22l1.98,1.99l2.98,0.39l3.05,1.91l0.46,2.9l-0.71,8.64l-3.44,5.57l-2.75,2.59l-1.37,3.09l0.14,2.14l2,1.58l0.25,1.79l-1.97,5.17l-5.3,5.27l-1.29,2.42l-0.45,3.18l0.98,7.29l-0.86,7.03l-0.71,1.82l-0.07,9.3l-2.21,1.99l-3.56,5.1l-0.71,3.18l-3.08,1.14l0.03,0.78l1.75,0.99l-1.6,1.45l-0.64,1.41l0.33,2.38l-0.84,2.99l1.42,3.07l-2.07,2.62l0.13,1.09l2.44,1.46l0.48,2.27l1.82,-0.4l3.45,1.4l1.03,-0.4l2.93,-2.59l0.73,0.14l0.79,2.31l0.93,0.08l1.66,-1.19l1.58,0.2l4.38,1.98l0.24,2.13l-1.05,2.77l2.14,7.97l-1.54,4.17l-0.14,2.53l-0.71,0.85l-4.79,-0.12l-3.19,2.77l-1.23,-0.12l-0.91,-0.81l-4.77,3.46l-0.75,1.66l-4.18,0.26l-2.73,4.17l-5.47,0.21l-1.98,-2.02l-2.79,-1.31l-4.51,-0.9l-0.81,-1.01l2.16,-4.88l0.09,-1.29l-0.63,-0.64l-0.27,-1.29l0.36,-0.55l1.17,-0.09l2.43,1.38l1.63,-0.18l1.87,-2.41l0.46,-2.1l1.89,-1.47l-0.45,-0.18l-1.53,1.2l-1.8,0.46l-0.18,1.29l0.45,1.3l-0.91,1.46l-1.79,0l-1.26,-1.2l-1.08,-0.37l-1.62,0.65l-0.08,3.04l-1.72,1.29l-1.62,3.04l-2.35,2.3l-0.36,1.46l-1.44,1.86l-0.53,1.92l-1.47,1.77l0.1,3.77l-0.36,0.64l-0.72,0.19l-1.35,-1.1l-0.27,0.28l1.53,1.47l0.09,1.47l1.53,1.01l-0.45,2.76l0.54,2.12l0.72,0.92l2.61,1.29l1.17,-0.64l0.73,0.16l0.26,0.73l-0.62,0.87l0.81,1.19l1.7,0.09l1.09,1.57l1.7,0.46l0.72,-0.28l1.71,1.01l1.6,0.18l1.57,1.94l1.69,-0.01l0.63,1.01l-0.9,0.92l0.99,1.93l3.25,1.18l2.34,2.69l1.17,-0.28l0.65,0.44l1.33,1.95v0.74l1.62,0.83l0.09,1.01h-0.72l-0.72,-0.64l-1.08,0.46l-0.18,2.48l-0.63,0.18l-0.72,1.66l-0.27,1.47l-1.26,1.29l-0.81,0.37l-0.35,0.92l-3.16,2.12l-0.09,1.56l-0.99,0.28l-1.26,2.3l-2.07,0.19l-2.25,2.85l-1.71,0.57l-0.54,1.18l-1.54,0.08l-0.71,0.48l-2.96,-0.26l-1.55,0.52l-1.44,1.59l-0.36,1.2l-2.98,1.01l-0.26,0.91l-1,0.74l-0.99,0.74l-0.63,0.46l-0.45,-0.18l0.09,-1.03l-0.99,-0.08l-3.05,1.21l-0.36,0.93l-1,-0.02l-1.35,1.56l-1.8,-0.09l-0.45,-0.46l-2.34,2.39l-0.9,0.46l-2.07,1.47l-0.72,1.2l0.18,0.55l-0.63,0.65l-0.9,-0.18l-0.72,0.46v0.37l1.08,0.18l2.07,-0.28l0.18,-0.83l2.61,-1.84l0.81,-2.12l0.54,-0.37v1.75l-0.99,2.02l0.27,4.14l1.26,1.29l1.98,0.47l0.36,0.54l1.81,0.09l1.34,3.04l-1.08,1.93l-3.42,-0.28l-1.26,0.46l-1.17,-1.56l-1.34,-0.38l-1.36,0.38l0.9,1.1l-0.45,0.37l-2.52,-1.91l-3.25,-0.75l-3.24,0.92l-2.62,-1.02l-0.81,0.38l-0.99,-0.37l-0.27,1.47h-1.53l-1.53,-1.2l0.36,-0.64l-0.27,-0.83l-1.53,-0.09l-0.09,0.74l0.54,0.37l-0.72,0.18l-8.28,-1.22l-19.03,-1.45l-0.36,-0.64l0.89,-1.11l1.65,0.17l-1.28,-0.72h-0.54l-0.44,0.9l-1.72,1.4l-7.5,-1.01l0,0l1.17,-9.9l2.67,-8.02l3.07,-6.49l1.86,-0.4l10.24,1.07l1.03,-0.81l-0.67,-14.43l-2.21,-6.46l2.03,-4.92l1.6,-6.23l-1.72,-3.8l-1.94,-1.3l-0.83,-1.24l0.48,-0.81l1.75,-0.27l1.05,-0.75l1.85,-6.58l1.78,-3.06l0.48,-1.74l-1.69,-0.36l-1.03,-0.98l-3.1,-1.37l-1.96,-3.59l-0.99,-5.37l0.34,-5.29l2.01,-8.39l1.62,-0.99l4.56,-0.97l0.52,-1.08l-2.55,-11.8l-1.58,-3.37l0.94,-3.41l-0.26,-2.55l1.29,-2.12l0,0l1.15,-1.08l6.97,-3.03l2.91,-4.1l3.11,-8.46l-0.46,-3.6l9.27,-20.08l2.64,-8.91l1.73,-3.73l0.63,-6.88l-1.49,-3.26l-0.63,-4.76l-0.85,-0.69l-4.59,0.59l-0.71,-1.04l2.65,-11.79l-0.4,-9.16l-1.47,-8.32l-0.05,-2.52l0.47,-3.75l2.54,-6.4l0,0l0.76,0.6l1.22,-0.84l1.22,0l4.5,2.21l5.73,-3.89l1.45,-0.23l3.21,0.99l1.98,0L727.31,183.29z"/>
		<path id="SV-US" title="Usulután" class="land" d="M538.84,412.68l1.08,0.92l-0.45,0.64l0.09,0.37l0.54,-0.28l-0.36,0.92l-1.17,-0.46l-0.36,0.37l-0.99,-0.64l0.63,-0.46l-0.09,-0.74L538.84,412.68zM527.22,404.4l1.25,0.36l0.37,1.39l0.72,0.55l3.25,-2.02l2.16,1.84l0.45,1.84l1.62,1.56l2.16,-0.18l1.35,-1.75l2.25,0.18l-0.36,1.1l0.99,1.47l-2.61,0.09l-2.43,1.01l-2.35,-0.55l-0.54,0.64l0.9,1.2l-0.18,0.46l-1.17,-1.2l-1.44,-0.09l-4.05,-2.12l-3.24,0.09l-0.54,0.46l-2.43,0.37l-4.33,-1.01l-1.98,-1.38l0.27,-2.02l0.72,-0.73L527.22,404.4zM479.36,400.72l0.54,0.64l-0.72,0.46l-1.53,-0.46l0.09,-0.46L479.36,400.72zM463.32,395.48l2.07,1.1v1.47l-0.72,0.64l-1.17,-0.64v-1.2l-0.54,-0.74v-0.64H463.32zM466.93,395.02l1.89,0.74l1.09,-0.48l0.54,1.22l3.33,1.47l2.79,-0.74l1.35,0.83l-2.43,0.83l-2.07,0.09l-1.55,0.74l-1.6,-2.85l-1.44,-0.46l-2.43,0.18l-0.54,-1.1L466.93,395.02zM475.22,394.46l0.27,0.64l-0.36,0.65l-0.45,0.46l-0.81,-0.28l0.72,-1.29L475.22,394.46zM533.08,394.37l1.98,0.46v2.85l0.45,1.2l1.71,0.83l3.06,2.85l1.62,1.93v0.92l0.72,0.46l-0.72,1.01l-2.61,0.46l-0.54,1.56l-2.16,-0.09l-1.17,-2.85l-2.73,-1.71l-3.13,1.94l-0.63,-1.24l-0.81,-0.92l-0.09,-0.73l2.53,-4.19l-0.4,-2.56l0.11,-1.62l0.87,-0.34L533.08,394.37zM491.89,394l0.45,1.01l-1.26,0.55l-0.72,-0.74l0.09,-0.46L491.89,394zM509.02,392.9l1.62,0.74l0.81,2.39l5.41,5.52l0.18,0.74l-1.17,1.47h-0.81l-2.61,-2.58l-1.35,-0.37l-1.35,-1.2l0.09,-0.55l-1.17,-0.46l-1.98,-3.77L509.02,392.9zM531.14,252.2l2.29,0.45l1.9,-0.27l1.83,1.48l0.59,-0.56l0.62,0.36l0.83,-0.34l1.68,0.28l1.1,-1.48l0.73,0.02l2.37,1.27l4.09,5.39l2,0.53l0.6,1.02l1.77,1.34l0.81,1.54l1.83,-0.07l3.46,1.9l2.42,-0.34l1.53,-1.6l1.23,-0.52l1.56,-0.03l1.04,0.89l1.42,7.61l-1.17,3.06l-0.05,2.61l0.72,1.58l2.49,1.35l0.39,0.79l-0.03,1.01l-0.93,1.2l-0.13,1l0.78,3.36l-0.39,0.69l-0.58,0.05l-2.08,-2.36l-1.31,-0.38l-1.18,0.51l-0.27,2.1l0.98,3.9l-1.71,4.8l1.47,1.25l3.72,1.95l1.09,16.05l-0.72,2.43l-2.23,1.71l-0.9,1.31l0.74,3.73l-0.28,2.1l-1.77,0.76l-3.03,-0.77l-0.83,0.5l-0.7,7.38l0.94,0.64l1.88,-0.88l1.86,0.09l0.58,0.99l0.56,3.88l1.84,1.57l0.1,2.81l-1.51,3.59l0.75,6.41l-1.29,2.89l-0.05,1.47l1.23,1.84l3.47,1.55l1.14,1.55l0.95,0.31l0.72,1.5l1.14,0.24l0.67,1.57l0.05,3.64l1.35,0.52l6.71,-0.18l2.99,0.7l5.77,-0.69l0.79,0.3l-0.39,3.28l1.97,3.99l0.8,3.86l-0.89,1.46l-5.66,2.6l-2.93,3.42l0.03,0.92l1.35,2.01l-0.4,5.03l0.4,1.19l0.77,0.84l1.62,0.34l1.92,-0.93l3.69,-0.37l3.04,-1.07l0.18,-0.9l-3.44,-4.81l-0.09,-2.47l1.89,-7.05l0.95,-0.4l0.88,0.89l0.49,-0.04l0.72,-2.59l0.98,0.63l0.38,-1.38l1.35,0.86l2.26,0.21l0.5,0.44l-1.11,0.59l1.11,0.35l0.84,1.36l3.94,-1.03l1.04,1.07l0.53,-1.18l1.08,0.23l0.47,-1.15l0.63,-0.11l1.11,1.61l-2.02,6.28l0.55,0.38l1.77,-0.81l1.37,0.28l1.3,1.5l2.23,1.5l1.85,3.08l-0.19,0.72l-5.08,4.37l-0.72,1.31l-0.15,1.64l0.69,1.39l1.47,1.32l1.52,0.37l4.03,-2.4l12.22,1.48l2.14,4.88l8.05,10.39l3.62,5.61l0,0l-0.18,0.42l-1.17,-0.37l0.18,0.74l-0.9,0.46l-1.62,-1.01l-5.86,-0.73l-1.8,-0.09l-0.18,0.74h-0.36l-1.62,-0.83l-1.53,1.29h-0.81l-0.36,-0.73l-5.5,-0.18l-0.9,1.38l-1.35,-0.09l-0.54,-0.73l-0.72,-0.09l-0.18,0.64l-1.08,-0.18l-0.63,1.2l-1.08,-0.55l-0.36,1.2l-2.43,-0.46l-0.18,0.74l-0.45,0.09l-0.36,-0.92l-0.99,-0.09l-0.36,1.01h-0.54l-0.36,-0.64l-1.08,-0.46l-5.23,-0.74l-1.71,-1.38l-1.98,0.92l-2.16,-0.09l-11.27,-2l-16.49,-0.85l-1.17,-0.73l0.18,-0.92l3.25,-1.84l2.35,-0.18l1.62,-1.01l0.9,1.47l0.81,0.37l0.18,0.55l-0.45,0.55l0.63,0.55l0.27,-1.84l-0.81,-0.55l-0.54,-1.29l-1.17,-0.09l-0.9,0.64l-0.81,-0.37l1.17,-1.93l2.07,0.46l0.54,-0.55l-0.63,0.28l-1.8,-0.73l-0.45,-2.21l-0.81,-0.64l-1.35,-0.18l-2.25,-1.65l-1.44,-3.77l-0.09,-1.56l-1.17,-0.83v0.65l0.63,0.55v0.46l-0.45,-0.01l-1.8,-1.71l0,-0.4l-0.99,-0.28l3.34,3.22l0.18,2.39l1.71,2.48l0.9,0.92l2.7,0.74l0.72,0.92l-0.18,0.92l-3.43,2.48l-0.63,-0.09l-1.62,-0.55l-0.99,-1.47l-4.69,-0.92l-1.71,-1.38l-0.63,-1.19v-1.1l-0.45,-0.28v1.38l0.63,1.29l1.71,1.75l3.52,1.66l-0.27,0.74l-2.61,0.37l-1.53,1.29l-0.72,-0.37l-1.71,0.55l-5.32,-0.37l-1.62,0.64l-1.62,2.02l2.98,-1.38l1.8,0.74l1.62,-0.64l0.54,0.9l0.72,0.02l0.99,0.92l1.35,-0.92l0.09,1.1l0.9,0.37l1.26,-0.46l0.63,-1.01l0.18,1.29l-1.8,1.01l-1.8,-0.28l-4.24,0.83l-0.9,-0.28l-3.88,1.38l-6.13,-0.09l-2.25,-1.29l-1.71,-1.65l-3.34,-5.15l0.18,-1.56l1.35,-2.57l1.08,-0.92l1.17,0.09l5.86,3.4l4.51,-0.18l-2.52,-0.64l-2.88,0.28l-3.42,-2.57l-0.27,-0.64l0.36,-0.37l2.25,-0.55l2.16,0.09l1.08,-1.1l-1.53,0.57l-5.5,0.26l-1.08,-3.03l-1.44,-1.29l-3.24,-4.6l-6.58,-5.15l-0.27,-2.76l-0.8,-0.74l-2.81,-0.18l-1.8,0.64l-0.45,1.2l0.45,1.84l-0.36,2.21l-2.61,3.86l-1.98,0.28l-1.71,-0.55l-0.45,0.55l-3.06,0.09l-0.18,-1.01l-1.53,-0.46l-2.34,-4.14l-1.53,-1.1l-1.8,-2.21l-0.9,-0.37l-0.18,-1.66h-0.9l-1.26,-1.01l-5.5,-0.46l-1.17,-1.47l-1.17,0.18l-0.18,0.65l-1.44,0.09l-1.17,-0.92h-1.17l-0.45,0.46l-0.45,-1.1l-0.45,-0.09h-4.6l-0.45,-0.28l0.09,-0.55l1.8,0.09l0.63,-0.74l-0.09,-1.01l-1.62,-1.01l0.09,-0.55l-0.81,1.1l1,-0.05l0.72,0.48l0.25,1.03l-1.7,0.1l-2.97,1.29l-0.9,-1.66l-0.09,-1.47l-0.99,-1.01l-1.62,-0.18l-1.17,-1.38l-0.54,-1.66l-1.53,-0.74l-0.27,0.55l1.35,0.37l1.44,3.22l2.25,1.01v0.92l-1.8,0.74l-0.73,-0.83l-1.24,-0.11l-0.64,0.67v1.01l0.45,0.18l-0.36,0.46l-1.8,-0.46l0.18,-1.29l-0.63,-0.74h-2.61l-0.63,0.19v-1.39l-0.45,-0.46l-1.35,0.83l0.63,0.37l0.72,-0.74v1.47l0.81,0.46l0.63,-0.37l1.62,0.37l0.54,1.56l1.62,0.64h1.89l0.9,-0.46l-3.06,4.51l-2.52,-0.37l-1.26,0.28l-0.81,-0.55l-2.34,-0.09l-0.81,1.01l-1.26,0.18l-2.43,-1.47l-2.88,-0.37l-1.89,1.56l0.27,1.1l-0.9,0.09l-2.07,-1.29l-2.8,-0.64l-1.26,0.64l-0.99,-0.55l0.09,0.74l1.44,0.46l1.53,-0.73l0.99,1.01l-0.09,1.29l-1.44,0.09l-0.18,0.55l-0.99,0.46h1.08l0.81,-0.55l0.54,0.64l-0.09,1.84l0.36,0.18l0.72,-0.37l0.63,-1.29l1.89,1.47h1.17l1.17,-1.47l1.35,-0.37l1.17,2.12l3.25,1.93l1.98,-0.09l0.54,-0.92l1.08,-0.37l0.99,0.64l0.81,1.56l1.17,0.18l1.17,-1.01l-0.27,-1.47l2.8,-1.19l1.35,-2.02l0.72,-0.09l0.18,0.74h0.63l1.53,-0.55l-0.09,-0.46l0.54,-0.18l2.43,0.46l5.32,-2.3h1.17l1.98,1.93l2.25,0.28l0.9,1.29l-0.18,1.38l0.81,-0.09l1.62,1.29l2.25,2.85l1.8,1.29l4.15,5.24l-0.54,0.64l-0.72,-0.11l-1.71,-1.18l-1.26,-0.18h-2.34l-3.79,0.83l-2.97,-1.38l-0.81,-1.56l-1.08,-0.46l-2.16,0.18l-2.16,1.47l3.88,-1.29l3.24,3.04l2.16,0.83h4.42l1.98,1.2l3.16,0.55l4.32,-0.37l2.07,1.47l0.72,1.2l1.62,0.65l0.72,1.2l2.16,-0.64l1.98,0.46l0.54,0.55l2.7,-0.18l0.9,0.83h0.81l1.08,1.1l-0.27,0.37l-0.81,-0.28l0.18,0.92l2.61,3.22l1.17,-0.18l0.09,-0.83l-0.45,-0.37l0.36,-0.55l3.15,-1.01l0.54,3.31l0.36,0.46l0.81,-0.18v0.74h-4.42l-10.72,-3.77l-17.93,-3.77l-16.04,-3.95l-24.78,-4.69l-13.52,-1.47l-10.91,-3.4l0,0l-0.17,-1.62l-1.04,-1.33l-5.91,-1.96l-2.52,-1.44l-2.07,-2.13l0.42,-2.08l1.4,-1.58l1.88,-0.88l2.27,-0.33l2.6,-2.27l3.61,-1.66l5.14,-5.16l1.85,-1.21l2.05,-4.2l2.22,-2.66l4.27,-1.7l0.39,-1.09l-0.25,-1.74l-2.11,-1.33l-0.97,-1.96l-0.18,-3.95l5.03,-10.27l5.03,-7.55l3.57,-9.46l2.3,-1.97l1.47,-2.4l0.24,-7.35l1.41,-4.36l0.66,-6.5l1.19,-2.48l-0.7,-4.22l0.7,-2.22l1.78,-1.42l2.73,0.25l0.96,-0.56l3.17,-6.41l1.38,-1.34l1.04,-2.63l1.47,-1.55l6.29,-1.87l7.07,-0.4l3.57,-1.14l0.79,-0.64l1.96,-5.11l3.09,-2.29l1.18,-4.36l3.2,-3.93l2.1,-1.62l2.51,-1.17l1.95,-2.78l2.31,-1.26l4.74,-1.4l1.68,-1.23l2.84,-4.94L531.14,252.2z"/>
	</g>
</svg>