<?xml version="1.0" encoding="utf-8"?>
<!-- (c) ammap.com | SVG map of Estonia - Low -->
<svg xmlns="http://www.w3.org/2000/svg" xmlns:amcharts="http://amcharts.com/ammap" xmlns:xlink="http://www.w3.org/1999/xlink" version="1.1">
	<defs>
		<style type="text/css">
			.land
			{
				fill: #CCCCCC;
				fill-opacity: 1;
				stroke:white;
				stroke-opacity: 1;
				stroke-width:0.5;
			}
		</style>

		<amcharts:ammap projection="mercator" leftLongitude="21.770501" topLatitude="59.668926" rightLongitude="28.208948" bottomLatitude="57.509646"></amcharts:ammap>

		<!-- All areas are listed in the line below. You can use this list in your script. -->
		<!--{id:"EE-84"},{id:"EE-65"},{id:"EE-44"},{id:"EE-78"},{id:"EE-51"},{id:"EE-86"},{id:"EE-67"},{id:"EE-59"},{id:"EE-39"},{id:"EE-57"},{id:"EE-82"},{id:"EE-49"},{id:"EE-70"},{id:"EE-74"},{id:"EE-37"}-->

	</defs>
	<g>
		<path id="EE-84" title="Viljandimaa" class="land" d="M381.36,580.29L381.71,584.57L380.3,587.25L382.45,587.63L382.99,591.22L381.98,592.97L380.36,593L378.51,594.53L379.28,595.95L386.22,597.08L391.39,595.99L398.09,598.84L398.89,601.08L397.97,602.55L399.13,603.19L399.11,605.02L400.08,604.8L401.87,606.51L404.14,604.84L404.58,611.14L409.79,615.62L410.92,614.71L416.03,620.19L416.03,620.19L417.42,622.22L417.52,625.02L420.1,631.88L418.47,631.61L417.14,632.66L415.85,635.88L406.76,645.57L409,682.87L409,682.87L404.69,682.93L403.94,684.42L400.26,685.35L400.2,686.42L398.76,687.32L395.08,687.16L394.66,683.79L392.92,680.61L389.95,678.66L387.82,678.67L389.25,681.94L386.12,683.47L386.23,685.19L386.77,685.92L387.9,683.73L388.42,687.16L386.86,687.12L387.1,688.25L385.11,689.01L385.2,690.17L383.72,689.9L383.26,691.48L382.53,691L380.94,692.59L377.79,692.37L378.79,693.63L372.99,700.61L371.6,699.05L365.87,699.05L365.09,700.06L367.27,705.33L363.79,712.46L363.79,712.46L362.34,709.78L360.4,711.76L359.75,709.83L356.79,710.92L355.98,710.39L356.69,708.35L353.33,709.14L349.43,705.78L351.5,704.12L350.22,702.38L346.21,699.66L341.94,699.45L339.18,694.36L334.93,690.06L332.32,693.52L336.24,699.05L335.89,705.74L334.34,706.48L331.87,705.87L329.01,701.74L330.57,701.31L329.51,700.38L328.57,700.9L327.95,697.68L328.86,695.62L327.91,696.1L326.8,693.25L327.47,690.69L326.32,689.63L324.9,690.15L325.24,691.41L317.37,691.12L317.02,693.13L314.87,693.18L311.51,697.76L311.51,697.76L310.46,696.48L309.97,692.72L308.54,691.94L309.51,688.63L313.35,686.48L312.42,685.13L312.67,683.45L316.57,683.5L317.54,684.74L318,683.56L319.03,683.57L319.43,684.76L320.04,681.73L317.2,679.59L317.25,678.01L318.53,678.23L319.08,677.2L318.36,674.53L319.11,673.81L319.85,675.06L320.48,678.66L321.71,677.47L320.94,674.36L322.61,673.75L322.95,671.92L321.59,671.92L321.65,670.91L323.43,669.78L326.11,670.3L328.24,668.2L330.02,670.57L330.04,669.22L331.43,668.43L331.47,664.93L330.11,661.15L332.97,659.53L332.15,655.2L323.94,653.85L321.59,648.6L320,647.63L316.85,649.13L316.29,646.8L315.6,647.58L310.99,645.95L305.38,647.2L304.55,643.46L306.03,633.65L305.75,628.66L307,629.31L308.74,626.98L308.21,618.07L310.06,617.01L310.46,614.4L314.02,613.9L314.9,611.95L318.81,611.28L321.22,608.45L322.39,609.6L323.78,608.54L323.74,605.51L325.34,604.46L324.98,603L330.55,601.84L329.18,600.79L328.61,595.28L327.28,595.61L327.59,593.28L330.67,591.68L330.67,591.68L331.53,593.1L335.64,593.64L336.69,594.84L340.14,593.82L341.02,595.64L342.71,595.79L345.06,594.5L350.64,595.7L351.92,594.7L351.45,593.6L353.87,593.59L356.3,590.88L357.69,592.97L358.91,592.06L357.95,591.13L359.63,589.82L362.95,590.51L365.02,588.2L368.35,587.74L369.79,584.32L375.13,583.9L380.08,581.8z"/>
		<path id="EE-65" title="Põlvamaa" class="land" d="M461.4,683.34L464.6,682.28L464.4,680.59L466.04,678.87L464.54,678.03L464.74,677.11L466.16,677.36L464.33,674.8L464.77,672.3L468.32,673.16L471.97,670.86L473.06,673.07L472.33,675.32L473.51,674.13L474.56,674.88L474.87,673.82L477.66,672.19L479.55,672.08L480.66,673.5L480.54,672.21L484.33,669.17L484.95,664.53L487.46,660.61L488.26,660.34L489.26,661.88L489.43,664.42L490.82,662.33L492.57,662.8L493.29,661.7L495.2,662.1L495.41,664.6L497.94,663.83L498.82,662.55L499.54,663.99L501.15,662.42L501.59,657.83L504.2,658.77L505.4,661.09L509.75,660.01L510.27,657.02L511.38,657.13L513.24,659.56L520.01,659.62L520.33,660.7L523.73,661.09L522.95,664.93L530.4,666.49L530.95,665.63L534.28,667.88L536.67,667.34L537.81,670.09L547.38,671.27L547.38,671.27L554.12,683.43L557.45,687.29L554.92,695.53L556.12,703.67L559.57,705.81L559.09,701.63L562.88,704.1L563.4,706.81L561.65,709.82L562.28,712.1L559.73,713.14L562.22,716.85L562.16,718.44L565.33,719.14L565.1,720.95L563.39,721.7L564.34,722.68L566.72,721.72L570,723.95L572.11,722.99L574.31,723.34L574.86,724.79L574.05,725.61L574.46,729.72L572.39,731.84L572.66,733.41L572.01,733L570.79,734.76L569.33,734.44L567.48,735.53L564.38,732.59L562.16,734.58L556.44,733.53L549.21,734.97L549.21,734.97L544.98,735.29L539.31,733.75L534.79,734.01L532.93,734.53L530.55,737.7L530.21,736.34L529.17,736.72L528.19,735.33L526.64,735.19L526.25,733L523.17,732.87L524.83,727.32L525.95,727.71L528.84,724.66L529.06,723.26L526.27,721.97L526.59,720.06L525.51,720.01L525.11,723.38L522.06,721.51L519.93,722.02L517.21,720.33L517.36,719.56L514.66,720.12L514,718.17L512.2,718.76L510.27,714.39L508.48,714.59L507.85,712.78L505.17,715.5L503.78,714.5L502.3,716.35L505.28,721.86L502.07,721.22L502.04,720.47L497.17,720.42L496.8,719.56L496.28,720.33L494.63,719.35L494.26,715.67L487.37,719.8L487.37,718.19L486.4,718.17L483.75,718.98L482.25,718.4L479.08,720.1L477.7,717.71L475.67,717.71L473.99,719.12L473.45,717.6L471.46,717.48L469.3,715.62L466.87,717.32L464.51,717.42L464.03,716.57L461.18,717.53L458.98,715.71L459.26,714.76L457.05,714.91L456.94,713.09L456.05,712.87L456.05,712.87L457.94,707.14L456.14,704.42L458.24,701.29L458.38,698.34L457.39,697.93L457.81,695.08L456.62,695.62L456.34,693.09L458.61,689.49L459.93,683.82z"/>
		<path id="EE-44" title="Ida-Virumaa" class="land" d="M474.77,430.98l12.47,9.79l4.96,2.03l9.65,0.67l16.3,-1.92l14.81,-0.6l14.9,3.71l0.76,0.99l4.92,1.42l13.75,-0.22l1.88,2.57l4.5,1.19l5.16,-1.47l5.14,0.22l1.93,-0.99l5.52,-4.69l4.67,-7.46l0.64,1.36l4.33,2.16l2.61,2.72l1.5,3.52l5.66,4.38l1.02,2.42l-0.06,3.66l-3.65,5.41l-3.77,8.11l-6.77,-0.04l-6.7,3.12l-2.64,0.33l-4.79,5.19l-2.01,11.09l-2.31,4.47l-5.54,6.56l0.42,3.06l-1.99,2.88l0.26,4.02l-1.58,1.84l-0.65,5.14l-2,0.9l-0.73,9.03l-27.25,26.82l0,0l-11.41,-4.23l-13.1,-1.76l-23.25,-0.11l-1.53,-0.62l-1.12,-2.58l-2.37,-1.67l-5.36,-0.82l-0.54,1.71l-7.33,1.3l-1.81,-4.62l0.54,-3.73l-1.4,-1.05l0.9,-2.17l-2.57,-1.82l-0.28,-1.6l0,0l2.42,-2.15l4.59,-0.81l1.82,-2.5l-0.19,-5.43l1.99,-1.82l-1.29,-1.49l0.96,-15.23l1.12,0.54l2.72,-3.25l3.51,-0.41l0.41,-1.35l1.29,1.89l1.98,-0.09l0.67,-5.15l1.1,-0.06l-0.45,-3.03l-1.81,-0.57l1.02,-2.07l-1.09,-2.48l-7.76,-4.07l0.68,-0.91l-0.65,-5.19l-8.08,4.47l-0.84,-4.97l-1.01,0.06l0.77,-4.25l-0.65,-0.85l2.15,-2.3l1.11,-4.27l0.91,0.22l0.46,-1.75l1.8,0.47l0.83,-1.69l-3.95,-2.21l-3.45,0.5l-1.1,-1.49l-1.29,1.15l-1.22,-0.87l5.02,-4.69l-2.39,-4.93l2.64,-1.23l1.26,1.66l2.16,0.37l-0.69,-10.32l-2.56,-5.15l0.01,-1.85l0,0L474.77,430.98z"/>
		<path id="EE-78" title="Tartumaa" class="land" d="M535.5,580.58L549.8,639.15L543.57,650.48L543.81,664.44L547.38,671.27L547.38,671.27L537.81,670.09L536.67,667.34L534.28,667.88L530.95,665.63L530.4,666.49L522.95,664.93L523.73,661.09L520.33,660.7L520.01,659.62L513.24,659.56L511.38,657.13L510.27,657.02L509.75,660.01L505.4,661.09L504.2,658.77L501.59,657.83L501.15,662.42L499.54,663.99L498.82,662.55L497.94,663.83L495.41,664.6L495.2,662.1L493.29,661.7L492.57,662.8L490.82,662.33L489.43,664.42L489.26,661.88L488.26,660.34L487.46,660.61L484.95,664.53L484.33,669.17L480.54,672.21L480.66,673.5L479.55,672.08L477.66,672.19L474.87,673.82L474.56,674.88L473.51,674.13L472.33,675.32L473.06,673.07L471.97,670.86L468.32,673.16L464.77,672.3L464.33,674.8L466.16,677.36L464.74,677.11L464.54,678.03L466.04,678.87L464.4,680.59L464.6,682.28L461.4,683.34L461.4,683.34L461.17,682.34L459.38,682.59L459.36,680.16L456.26,679.05L456.22,676.95L455.16,676.02L448.99,675.91L448.04,677.6L446.26,677.81L443.77,679.73L442.76,678.98L441.62,679.52L440.7,674.88L439.64,675.48L437.29,674.31L433.59,681.53L429.4,680.67L428.12,684.85L416.55,684L416.1,682.8L414.02,683.36L413.43,684.63L412.86,683.09L410.86,683.79L409,682.87L409,682.87L406.76,645.57L415.85,635.88L417.14,632.66L418.47,631.61L420.1,631.88L417.52,625.02L417.42,622.22L416.03,620.19L416.03,620.19L415.94,618.61L416.89,618.28L417.86,615.29L419.86,617.38L421.46,616.2L423.16,617.23L431.39,611.07L433.86,610.32L434.68,608.67L438.17,609.98L438.58,612.66L440.22,613.61L439.68,612.48L440.77,609.49L442.27,608.31L445.77,608.16L448.61,609.7L449.33,608.76L448.23,608.07L449.4,607.04L453.69,606.55L451.62,608.71L454.16,609.96L455.7,608.45L460.06,612.19L463.98,610.01L463.09,609L463.21,607.04L465.46,603.82L464.81,602.53L469.68,607.22L472.23,605.86L472.41,604.22L473.95,605.22L475.59,603.97L477.73,604.6L478.86,603.17L480.95,602.88L480.53,601.35L482.95,601.19L484,590.86L490.49,592.88L493.42,595.61L494.1,594.73L495.37,595.62L495.78,594.1L497.65,596.04L497.75,597.52L499.96,598.02L500.11,595.77L498.66,592.84L499.35,591.48L498.75,590.35L497.33,590.69L497.21,589.49L501.18,588.51L502.82,586.54L504.4,587.4L505.35,585.25L504.75,583.85L534.09,574.49L534.09,574.49z"/>
		<path id="EE-51" title="Järvamaa" class="land" d="M338.88,524.71L340.12,521.47L341.16,521.1L342.77,522.39L345.28,519.56L346.19,512.67L344.14,509.43L346.93,506.94L348.4,507.51L350.74,511.14L353.45,505.35L349.33,502.9L350.82,499.39L349.87,497.41L355.15,490.53L357.54,484.3L355.25,478.22L351.93,474.18L355.14,474.11L357.96,475.31L362.54,473.13L368.01,476.65L369.39,475.78L369.37,473.02L372.03,472.98L374,471.16L378.22,471.44L381.25,468.84L391.11,470.4L393.86,473.61L393.86,473.61L394.22,475.2L392.87,475.65L392.9,476.95L395.64,477.24L395.16,482.52L397.01,481.67L398.93,482.95L397.95,485.17L396.45,485.87L397.27,487.15L396.27,488.57L398.19,488.59L399.87,490.26L401.53,488.94L402.81,489.3L403.71,493.66L401.06,495.77L400.01,501.01L398.41,500.9L397.03,502.38L396.02,508.82L393.91,511.31L394.79,513.11L395.7,511.45L397.12,513.31L398.43,511.29L401.42,514.31L404.69,513.55L405.66,514.14L406.88,515.47L407.95,520.26L410.48,521.05L411,523.55L415.41,526.15L414.94,528.59L416.27,532.21L417.54,532.71L417.05,535.96L418.1,538.25L416.54,542.27L417.11,543.89L417.11,543.89L417.06,545.5L415.74,544.86L413.26,548.76L414.21,549.49L414.76,553.19L406.87,554.18L404.89,555.26L403.74,554.64L402.8,557.73L399.67,557.26L397.99,558.89L399.35,563.31L399.22,566.56L395.45,569.27L394.59,566.86L392.31,565.3L390.78,565.51L391.03,567.77L389.32,569.67L386.19,569.45L386.91,573.07L384.08,574.96L383.89,576.11L382.82,575.86L381.36,580.29L381.36,580.29L380.08,581.8L375.13,583.9L369.79,584.32L368.35,587.74L365.02,588.2L362.95,590.51L359.63,589.82L357.95,591.13L358.91,592.06L357.69,592.97L356.3,590.88L353.87,593.59L351.45,593.6L351.92,594.7L350.64,595.7L345.06,594.5L342.71,595.79L341.02,595.64L340.14,593.82L336.69,594.84L335.64,593.64L331.53,593.1L330.67,591.68L330.67,591.68L331.79,590.77L336.34,577.48L331.76,574.95L326.39,574.11L326.39,574.11L327.62,567.22L329.19,566.33L325.74,560.13L326.35,558.83L328.34,559.47L329.77,556.45L331.9,554.88L331.19,553.82L333.64,549L332.34,547.29L331.1,547.35L329.66,545.02L331.69,540.66L335.99,538.09L336.86,531.44L334.5,527.82z"/>
		<path id="EE-86" title="Võrumaa" class="land" d="M456.05,712.87L456.94,713.09L457.05,714.91L459.26,714.76L458.98,715.71L461.18,717.53L464.03,716.57L464.51,717.42L466.87,717.32L469.3,715.62L471.46,717.48L473.45,717.6L473.99,719.12L475.67,717.71L477.7,717.71L479.08,720.1L482.25,718.4L483.75,718.98L486.4,718.17L487.37,718.19L487.37,719.8L494.26,715.67L494.63,719.35L496.28,720.33L496.8,719.56L497.17,720.42L502.04,720.47L502.07,721.22L505.28,721.86L502.3,716.35L503.78,714.5L505.17,715.5L507.85,712.78L508.48,714.59L510.27,714.39L512.2,718.76L514,718.17L514.66,720.12L517.36,719.56L517.21,720.33L519.93,722.02L522.06,721.51L525.11,723.38L525.51,720.01L526.59,720.06L526.27,721.97L529.06,723.26L528.84,724.66L525.95,727.71L524.83,727.32L523.17,732.87L526.25,733L526.64,735.19L528.19,735.33L529.17,736.72L530.21,736.34L530.55,737.7L532.93,734.53L534.79,734.01L539.31,733.75L544.98,735.29L549.21,734.97L549.21,734.97L550.2,735.37L549.76,736.82L549.01,736.77L549.84,738.09L548.03,739.49L548.13,742.02L544.31,742.82L545.97,745.11L545.53,746.89L547.42,748.45L546.01,749.53L547.59,749.64L547.51,751.22L549,752.46L547.32,753.38L546.96,756.79L545.62,756.31L544.56,757.27L544.08,754.11L541.59,756.88L539.84,755.56L538.2,756.91L538.07,758.6L536.57,758.62L532.75,764.55L533.8,766.46L533.48,768.18L535.31,769.95L534.35,772.82L535.84,773.74L533.42,776.27L530.83,776.67L528.02,780L530.59,790.43L523.9,786.95L522.25,785.03L520.11,785.31L518.93,784.25L515.92,784.66L508.97,782.98L505.32,780.19L501.59,779.36L500.65,778.69L501.34,776.6L500.13,775.28L496.75,775.21L495.16,773.88L494.25,775.36L492.2,775.79L491.54,774.57L492.44,772.68L490.1,770.36L488.44,770.31L484.38,773.38L483.85,777.42L481.57,779.17L478.48,779.32L477.74,780.83L476.94,780.77L476.01,783.09L474.2,782.81L475.54,780.53L472.16,778.51L471.67,781.64L469.7,781.96L468.56,781.15L468.46,782.01L466.31,782.19L465.89,783L466.71,783.65L464.11,784.02L460.6,788.6L460.57,791.97L458.28,790.68L457.92,786.81L455.85,788.6L455.37,791.51L449.75,789.35L446.87,780.37L446.87,780.37L448.53,777.54L444.97,777.22L445.38,776.43L446.63,776.94L449.52,771.6L444.2,767.14L450.16,759.47L449.72,757.2L448.66,757.09L448.68,755.32L446.94,756.4L446.91,754.59L444.92,751.82L445.26,750.63L447.45,750.42L449.16,749L448.05,745.8L449.31,745.38L449.36,743.3L447.42,742.37L443.89,744.04L443.67,742.05L441.65,739.99L442.98,737.8L441.44,733.37L443.61,731.33L441.98,728.87L439.8,728.76L437.4,727.12L439.42,726.37L439.99,724L441.7,722.45L441.38,719.19L439.82,717.9L440.88,715.73L443.12,716.73L445.31,715.5L448.2,715.99L448.31,714.21L449.5,713.21L450.87,714z"/>
		<path id="EE-67" title="Pärnumaa" class="land" d="M212.46,677.33l1.91,0.56l-1.32,6.41l-1.59,2.74l-1.93,0.66l-1.69,-3.78l0.9,-5.78L212.46,677.33zM225.55,664.82l-1.4,3.02l-2.14,0.61l0.42,-1.74l1.03,0.25l2.7,-3.94L225.55,664.82zM224.81,578.72l5.23,4.5l4.5,-1.57l14.24,5.1l2.91,-3.02l4.12,-1.62l1.31,-1.64l0.91,-4.54l3.72,-2.14l1.74,-2.17l3.93,3.03l-1.59,1.59l0.44,1.61l2.71,-0.4l5.87,-3.21l2.42,-4.75l2.41,1.13l1.53,-0.6l4.17,2.76l2.44,-0.8l0.67,0.84l1.58,-0.4l1.47,-2.25l2.73,-1.73l5.25,4.26l-0.96,7.99l1.32,4.81l0.83,0.29l1.36,-0.64l0.73,-3.39l3.59,-4.92l1.34,0.29l1.62,-1.19l0.9,1.24l1.72,-0.46l1.83,-2.65l-0.52,-0.68l8.53,1.84l4.61,-1.13l0,0l5.36,0.84l4.59,2.54l-4.56,13.28l-1.12,0.91l0,0l-3.07,1.6l-0.31,2.33l1.33,-0.33l0.57,5.51l1.38,1.06l-5.57,1.16l0.36,1.45l-1.6,1.05l0.05,3.03l-1.4,1.05l-1.17,-1.14l-2.41,2.83l-3.91,0.67l-0.88,1.94l-3.56,0.51l-0.4,2.61l-1.85,1.05l0.53,8.91l-1.74,2.33l-1.25,-0.65l0.28,4.99l-1.48,9.81l0.83,3.74l5.61,-1.25l4.61,1.62l0.69,-0.78l0.56,2.33l3.14,-1.5l1.6,0.97l2.35,5.25l8.2,1.35l0.83,4.32l-2.87,1.62l1.37,3.78l-0.04,3.51l-1.39,0.79l-0.02,1.35l-1.77,-2.37l-2.13,2.1l-2.68,-0.52l-1.78,1.13l-0.06,1.01h1.36l-0.34,1.83l-1.67,0.61l0.77,3.11l-1.23,1.19l-0.63,-3.59l-0.74,-1.26l-0.75,0.72l0.72,2.68l-0.55,1.02l-1.28,-0.22l-0.06,1.58l2.85,2.14l-0.62,3.03l-0.4,-1.18l-1.02,-0.02l-0.47,1.18l-0.97,-1.24l-3.9,-0.05l-0.25,1.69l0.93,1.35l-3.84,2.15l-0.97,3.32l1.43,0.77l0.48,3.76l1.05,1.29l0,0l-3.44,4.6l-5.34,0.38l-9.83,6.51l-1.66,0.45l-2.12,-3.11l-6.26,1.39l-0.09,3.16l-2.68,0.61l-2.07,2.54l-1.72,-2.12l-2.35,0.21l-2.5,3.13l-3.59,-3.5l-4.04,2.93l-1.86,-0.16l-1.17,2.77l-4.57,1.09l-1.52,2.59l1.35,0.78l-0.67,1.55l0.65,3.14l-4.45,2.46l-0.69,-1.09l-4.74,-0.46l0.39,-3.56l2.54,-5.08l0.17,-4.89l1.53,-4.96l1.57,-3.79l2.22,-1.73l3.4,-11.33v-3.39l-1.38,-1.99l1.15,-2.81l-0.31,-2.35l0.8,-0.2l-1.05,-1.96l0.65,-1.15l-1.22,-4.45l-1.28,0.23l1.87,-6.11l-0.89,-0.99l1.52,-1.58l0.37,-2.63l-1.47,-1.75l8.03,-5.6l2.4,-2.77l0.86,-4.9l-0.6,-2.27l-4.5,-6.37l-4.15,-1.26l-1.17,-1.64l-5.82,-0.9l-9.88,1.41l-1.75,2.91l-0.2,6.86l-2.48,7.54l0.66,1.21l-6.96,1.24l-1.45,1.01l-1.06,-1.12l-1.76,3.12l-3.07,2.23l-0.44,2.2l-0.32,-1.96l-3.79,-2.02l-5.89,-12.54l-1.27,0.23l0.29,4.27l-1.2,-2.52l-0.74,-0.49l0.08,1.37l-2.77,-3.95l-1.35,1.05l-2.36,-1.7l-0.87,3l-2.47,-1.51l-3.75,-6.73l-1.53,2.19l0.55,1.57l-1,0.23l-1.68,-1.46l-0.66,0.56l-2.16,-2.35l-0.43,3.88l-1.23,-0.51l-1.33,-2.13l0.53,-2.26l-2.61,-4.44l-3.63,-10.96l1.35,-6.45l-1.02,-1.69l0.99,-1.6l-1.14,-1.81l0.55,-2.88l-0.98,0.47l-0.3,-1.12l-0.69,2.2l-1.29,0.47l0.13,-0.85l-1.12,0.24l-2.56,-3.45l-0.41,0.44l0,0l1.72,-2.31l2.38,1.6l1.41,-1.47l2.46,-0.44l1.62,0.16l2.99,2.51l1.11,-1.4l2.05,0.8l0.83,-1.36l2.91,-0.96l0.59,-1.62l3.47,1.27l0.88,-1.05l3.1,0.35l1.57,1.09l-0.04,-2.45l-4.25,-7.23l-0.19,-0.87l1.48,-0.91l-2.24,-4.64l0.65,-0.38l2.21,1.89l-0.21,0.91l5.28,3.08l1.24,-2.97l2.84,-1.42l-1.02,-8.52l1.85,-1.06l1.15,2.02l3.36,0.68l-0.33,-0.82l4.91,-0.8L224.81,578.72z"/>
		<path id="EE-59" title="Lääne-Virumaa" class="land" d="M399.15,406.23l1.11,-0.43l1.26,1.29l-1.11,1.18l1.47,0.02l0.17,1.65l2.34,-1.5l0.31,-1.37l1.51,0.94l1.54,-1.09l-1.02,2.19l1.67,2.08l3.56,1.22l-1.47,0.58l1.09,2.25l16.27,-0.09l5.37,5.52l3.5,-0.24l1.01,1.16l5.91,1.1l-0.18,0.97l3.03,1.16l1.01,2l2.78,2.02l0.46,-0.6l-1.2,-0.88l4.22,-0.65l0.56,0.88l2.33,-0.82l1.65,-3.08l-1.94,-2.13l1.75,0.45l0.8,-0.2l0.88,-0.65l1.81,1.25l2.31,-0.02l1.68,1.83l2.13,0.09l2.35,1.42l0.55,1.83l2.2,-0.65l0.58,1.48l-0.66,0.88l1.61,1.81l0,0l-0.01,1.85l2.56,5.15l0.69,10.32l-2.16,-0.37l-1.26,-1.66l-2.64,1.23l2.39,4.93l-5.02,4.69l1.22,0.87l1.29,-1.15l1.1,1.49l3.46,-0.5l3.95,2.21l-0.83,1.69l-1.8,-0.46l-0.45,1.75l-0.91,-0.22l-1.11,4.27l-2.14,2.3l0.65,0.85l-0.77,4.25l1.01,-0.06l0.85,4.97l8.08,-4.47l0.65,5.19l-0.68,0.91l7.77,4.07l1.09,2.48l-1.02,2.07l1.81,0.57l0.46,3.03l-1.1,0.06l-0.66,5.16l-1.98,0.09l-1.29,-1.88l-0.41,1.35l-3.51,0.41l-2.71,3.25l-1.12,-0.53l-0.96,15.23l1.29,1.49l-1.99,1.82l0.19,5.43l-1.82,2.5l-4.59,0.81l-2.42,2.15l0,0l-1.98,-0.86l-11.89,6.25l-2.15,-0.11l0.16,-1.84l-1.19,-0.75l-3.8,0.68l0.19,0.99l-1.73,0.81l0.29,2.02l-1.78,0.31l0.84,3.14l-1.62,1.16l0.16,1.65l-2.53,0.51l-1.16,1.74l-4.37,-0.73l-2.82,-4.57l0.82,-0.51l-0.61,-2.33l-4.1,0.68l-0.69,1.3l-1.64,-0.51l-0.31,2.7l-2.09,0.73l-8.3,0.81l0,0l-0.57,-1.61l1.56,-4.02l-1.04,-2.29l0.48,-3.25l-1.26,-0.5l-1.34,-3.62l0.48,-2.44l-4.41,-2.59l-0.51,-2.5l-2.53,-0.79l-1.07,-4.79l-1.22,-1.33l-0.97,-0.59l-3.27,0.76l-2.99,-3.02l-1.31,2.03l-1.42,-1.86l-0.9,1.66l-0.88,-1.81l2.11,-2.49l1.02,-6.44l1.38,-1.48l1.6,0.11l1.05,-5.25l2.65,-2.11l-0.9,-4.36l-1.27,-0.35l-1.66,1.31l-1.68,-1.66l-1.92,-0.02l1,-1.42l-0.82,-1.28l1.51,-0.7l0.98,-2.22l-1.93,-1.28l-1.84,0.85l0.48,-5.28l-2.73,-0.3l-0.04,-1.3l1.35,-0.44l-0.35,-1.59l0,0l4,-1.26l-1.59,-6.03l-0.28,-7.5l-0.69,-2.88l-4.11,-7.18l1.16,-4.49l-1.44,-1.08l-0.24,-1.51l-3.16,-0.13l-1.48,-11.47l-1.24,-3.12l-1.6,-0.45l-0.31,-2.91l3.39,-1.4l0.9,-1.57l-1.01,-1.53l0,0l3.75,-1.74l-0.28,-9.74l1.02,1.61l3.39,-0.17l1.01,3.02l-1.25,1.82l0.55,1.97l3.09,0.71l1.83,-0.84l0.8,-2.66L399.15,406.23z"/>
		<path id="EE-39" title="Hiiumaa" class="land" d="M122.62,564.57l-0.64,2.01l-1.17,-1.74l0.94,-1.46L122.62,564.57zM116.44,557.46l0.48,1.67l1.53,0.62l-0.12,2.71l-0.48,-2.01l-2.14,-1.92L116.44,557.46zM105.08,555.55l1.74,1.23l-1.76,1.3l1.23,4.23l-1.63,0.62l0.13,-0.79h-1.35l-0.75,0.84l0.48,1.04l-1.78,-0.58l-1.22,2.27l0.55,1.21l-1.82,-0.97l-1.64,-0.33l-0.3,-3.29l0.67,-0.49l1.61,-1.24l0.36,-3.44l2,0.35l1.53,0.11L105.08,555.55zM123.87,555.19l0.88,1.59l-1.08,2.69l-0.88,-0.99l1.3,-1.12l-1.05,-2.14L123.87,555.19zM129.34,553.54l1.52,1.65l-1.8,0.79L128,553.69l0.83,-0.69L129.34,553.54zM117.41,535.94l3.67,2.42l0.48,2.2l-1.1,1.82l-1.96,-2.26l-0.03,-2.59L117.41,535.94zM78.79,507.67l2.5,1.16l3.47,-1.16l3.83,2.82l-1.06,5.01l0.7,4.53l1.52,2.25l2.4,0.63l1.78,-0.86l7.53,2.7l0.79,-1.65l2.2,1.12l0.96,2.96l1.29,1.01l1.36,-1.34l0.28,1.32l1.28,0.15l2.29,-1.27l-1.14,1.89l2.47,2.79l-1.76,0.46l0.42,2.37l2.91,4.54l2.54,0.31l2.15,3.08l0.68,2.38l-0.57,0.9l2.33,2.44l-0.1,1.45l2.15,3.94l-4.08,2.42l-0.51,-4.08l-2.06,1.83l-1.49,-1.7l-2.44,-0.82l-1.39,1.43l1.31,2.14l-0.36,0.86l-1.9,-0.81l-1.24,-2.71l-0.43,4.54l-1.27,-1.59l-3.82,-1.28l-0.08,1.54l-2.9,0.99l-0.57,-0.77l-2.55,1.45l-0.08,0.91l-0.85,-1.21l-1.47,0.16l0.2,1.98l-1.45,-1.26l-1,2.19l0.88,0.35l0.4,1.96l-2.78,-2.83l-1.89,5.38l1.45,1l-4.3,8.27l-1.45,5.16l-9.55,1.97l-3.51,-1.37l-0.74,0.53l-4.21,-2.61l0.44,-1.31l-0.74,-0.78l-0.87,-0.97l3.22,-0.24l0.77,-1.28l-2.06,-1.88l-0.27,-1.64l-2.04,-0.2l1.69,-1.39l0.08,-2.78l-3.38,-2.36l1.71,-2.01l-0.43,-1.52v-0.68l-0.86,-0.49l0.91,-2.67l-0.36,-2.64l-1.85,-2.29l-0.68,-2.89l-3.06,-3.72l-2.95,-1.3l-3.52,0.77l-0.59,1.56l-1.17,0.31l-2.31,-1.76l-2.35,1.91l-8.26,0.09l-3.09,-2.27l-0.38,-2.33l-7.03,-2.7l-0.77,0.5l-1.37,-1.54l1.11,-1.87l-0.74,-0.6l4.07,-1.1l1.76,1.21l2.61,-0.26l6.82,1.52l3.23,-0.33l3.44,-2.19l2,0.7l1.53,-0.97l5.9,2.96l2.06,-0.33l2.51,-3.64l-0.83,-2.54l1.02,-0.02l1.6,1.95l1.11,-0.35l-0.23,-1.41l0.65,1.05l1.19,-0.35l-2.87,-3.9l-0.1,-1.82l3.03,0.24l1.62,2.37l1.41,-1.05l-1.86,-1.07l1.37,-1.77l-1.29,-0.61l0.01,-1.27l-0.49,-0.92l-0.28,-1.58l1.42,-0.42l4.35,1.75l0.48,-1.6l-0.93,-1.14l3.65,0.37l0.97,-1.01l0.4,-10.19L78.79,507.67z"/>
		<path id="EE-57" title="Läänemaa" class="land" d="M159.57,554.42l3.16,1.7l-0.22,1.67l-1.36,-0.09l-0.35,0.9l-1.53,-1.43l-0.64,-2.31L159.57,554.42zM136.01,516.3l5.32,0.9l-0.32,1.25l1.01,0.02l0.82,1.86l1.17,-1.78l0.86,1.1l1.44,-2.47l0.83,1.66l1.6,-1.69l1.74,2.63l1.06,0.18l0.45,2.39l2.23,2.72l-1.18,3.37l-2.46,-1.62l-1.72,0.4l-0.65,1.99l-1.46,-0.77l-0.61,-0.2l-1.44,0.53l0.28,2.46l2.05,0.66l-2.37,-0.11l-2.92,-3.45l-3.55,-1.58l0.21,3.9l-3.04,-1.82l0.19,2.5l-1.41,-0.04l-1.02,-0.07l-1.4,-2.89l1.8,-0.28l0.02,-1.21l-1.24,-0.33l-1.51,-3.03l-1.26,-0.4l-1.16,-3.9l1.24,-2.76l1.6,0.48l1.79,-2.25L136.01,516.3zM180.18,477.98l1.17,2.28l2.07,1.24l3.33,-1.56l0,0l0.15,5.72h4.72l0.07,5.94l4.72,-0.15l1.03,2.96l2.13,-0.28l4.27,5.8l0.44,-1.13l2.08,0.11l1.21,-1.03l8.2,0.76l8.01,3.86l0.22,1.46l-1.72,1.51l0.79,1.72l-0.83,0.3l5.77,6.32l-7.45,7.37l0.58,4.51l0,0l-2.17,3.77l1.35,4.23l2.42,3.78l2.31,1.1l-0.67,4.81l2.23,0.4l-0.75,2.2l1.52,1.05l-0.52,1.58l1.99,1.32l-0.5,1.47l1.22,-0.55l0.98,1.67l-0.56,2.33l-4.17,-0.66l-0.67,0.6l0.48,1.39l-1.38,3.11l1.6,2.09l2.06,0.06l0.13,1.04l-2.77,0.57l-3.42,3.93l-2.07,0.37l-0.28,1.75l1.3,1.22l2.23,-0.69l1.23,1.72l2.37,-2.47l0.89,1.26l0.74,1.79l-3.43,6.83l0,0l-3.75,3.68l-4.91,0.8l0.33,0.82l-3.36,-0.67l-1.15,-2.02l-1.85,1.06l1.02,8.52l-2.84,1.42l-1.24,2.97l-5.28,-3.07l0.21,-0.91l-2.21,-1.89l-0.65,0.38l2.24,4.64l-1.48,0.91l0.19,0.87l4.25,7.23l0.04,2.45l-1.57,-1.09l-3.1,-0.34l-0.88,1.05l-3.47,-1.27l-0.59,1.62l-2.91,0.96l-0.83,1.36l-2.05,-0.8l-1.11,1.4l-2.99,-2.5l-1.62,-0.16l-2.46,0.44l-1.41,1.47l-2.38,-1.6l-1.72,2.31l0,0l-1.36,-0.49l0.73,-1.27l-1.2,-0.73l-1.38,0.84l0.65,-2.49l-1.48,-1.13l1.72,-3.18l-1.9,0.02l-0.65,-2.38l-1.11,0.4l1.37,1.91l-1.22,2.38l1.16,0.67l-0.63,2.16l-0.85,0.49l0.02,-2.29l-1.67,-0.4l-1.64,1.02l-0.98,-1.91l1.99,-0.85l0.68,-3.47l1.15,0.04l-0.28,-0.84l-1.23,0.18l0.43,-3.02L165,587.07l0.65,-3.31l-0.97,-0.49l0.51,-1.22l-0.71,-1.19l-0.84,-0.15l2.71,-0.67l-0.17,-2.73l1.73,1.37l3.63,-0.8l0.79,-1l-4.65,-2.41l0.64,-1.7l-1.1,-0.95l1.79,-0.27l3.81,2.34l1.5,-0.13l4.01,-1.48l1.73,0.77l0.61,-0.58l-1.2,-0.2l0.41,-1.84l1.02,0.55l0.59,-0.99l1.28,0.62l0.68,-0.73l3.56,2.08l0.74,-0.73l1.31,1.06l-0.37,1.04l0.9,0.71l2.03,0.93l1.68,-1.77l1.32,0.6l0.5,-3.76l-1.47,-0.15l0.42,-1.02l-2.69,-0.33l-1.23,-3.47l1.13,-1.72l-2.37,1.26l-2.44,-2.36l-3.73,2.65l-6.34,-2.05l-3.58,0.99l-2.69,2.16l-3.77,-1.33l-6.85,2.21l1.68,-2.5l-0.77,-2.27l1.98,0.33l-0.59,-0.44l0.63,-1.41l0.74,0.44l0.84,-0.88l-1.03,-1.1l0.14,-2.64l1.05,1.12l-0.63,0.04l0.41,1.32l2.04,1.15l2.2,-2.12l-1.04,-0.77l-0.17,-3.33l-1.87,-2.12l-2.8,-4.71l-3.08,-2.66l0.15,-0.7l0.85,0.77l0.09,-2.71l-1.37,0.57l-1.36,-0.64l0.8,-3.76l-0.64,-3.41l1.43,0.7l1.24,-1.06l1.91,2.09l3.41,-2.09l1.82,0.55l-1.27,-4.08l3.53,3.25l2.19,-1.41l1.35,0.39l1.56,-1.89l-0.61,-1.65l0.35,-1.03l1,0.94l1.14,-0.73l2.83,2.43l0.75,-4.01l-1.94,-1.42l0.67,-0.75l-2.74,-1.51l-1.36,0.06l-0.84,0.15l-1.37,0.17l-0.07,-1.05l-1.13,0.33l-0.27,4.6l0.73,0.63l-0.66,1.45l-1.66,-0.68l0.02,0.97l-4.32,-2.79l-3.31,0.88l-4.61,-4.56l-1.75,-4.38l0.67,-0.48l2.89,1.71l0.72,-1.64l-0.71,-1.29l1.02,-0.86l-2.29,-0.31l0.64,-6.47l4.18,0.77l2.76,-4.17l3.1,0.77l-1.54,-5.26l0.65,-2.22l-1.15,-0.96l-0.79,-5.43l-1.86,-1.46l-0.62,-2.92l0.5,-3.59l1.92,-0.98l0.07,-2.44l2.6,2.2l3.73,-0.07L180.18,477.98zM151.82,467.6l3.13,1l1.96,1.84l1.1,1.78l-1.53,0.02l-1.18,-1.13l-2.14,-0.3L151.82,467.6z"/>
		<path id="EE-82" title="Valgamaa" class="land" d="M409,682.87L410.86,683.79L412.86,683.09L413.43,684.63L414.02,683.36L416.1,682.8L416.55,684L428.12,684.85L429.4,680.67L433.59,681.53L437.29,674.31L439.64,675.48L440.7,674.88L441.62,679.52L442.76,678.98L443.77,679.73L446.26,677.81L448.04,677.6L448.99,675.91L455.16,676.02L456.22,676.95L456.26,679.05L459.36,680.16L459.38,682.59L461.17,682.34L461.4,683.34L461.4,683.34L459.93,683.82L458.61,689.49L456.34,693.09L456.62,695.62L457.81,695.08L457.39,697.93L458.38,698.34L458.24,701.29L456.14,704.42L457.94,707.14L456.05,712.87L456.05,712.87L450.87,714L449.5,713.21L448.31,714.21L448.2,715.99L445.31,715.5L443.12,716.73L440.88,715.73L439.82,717.9L441.38,719.19L441.7,722.45L439.99,724L439.42,726.37L437.4,727.12L439.8,728.76L441.98,728.87L443.61,731.33L441.44,733.37L442.98,737.8L441.65,739.99L443.67,742.05L443.89,744.04L447.42,742.37L449.36,743.3L449.31,745.38L448.05,745.8L449.16,749L447.45,750.42L445.26,750.63L444.92,751.82L446.91,754.59L446.94,756.4L448.68,755.32L448.66,757.09L449.72,757.2L450.16,759.47L444.2,767.14L449.52,771.6L446.63,776.94L445.38,776.43L444.97,777.22L448.53,777.54L446.87,780.37L446.87,780.37L442.17,781.06L435.12,778.97L433.32,779.78L431.83,777.31L429.66,777.5L428.43,776.37L425.72,772.73L425.95,769.49L424.58,767.62L425.38,767.17L425.19,765.77L422.82,764.53L422.53,762.04L419.58,760.67L421.41,756.03L420.75,754.93L416.04,752.82L415.17,749.64L409.78,746.83L407.72,747.54L405.88,745.96L404.24,746.62L404.45,742.96L407.29,735.42L407.61,732.11L404.48,732.29L402.39,729.95L398.72,732.55L395.86,731.25L391.62,732.07L390.54,728.87L389.02,730.4L385.08,729.35L381.25,720.78L377.35,718.81L374.36,722.17L372.17,722.1L371.88,720.71L368.85,720.03L367.31,717.12L362.84,715.03L363.79,712.46L363.79,712.46L367.27,705.33L365.09,700.06L365.87,699.05L371.6,699.05L372.99,700.61L378.79,693.63L377.79,692.37L380.94,692.59L382.53,691L383.26,691.48L383.72,689.9L385.2,690.17L385.11,689.01L387.1,688.25L386.86,687.12L388.42,687.16L387.9,683.73L386.77,685.92L386.23,685.19L386.12,683.47L389.25,681.94L387.82,678.67L389.95,678.66L392.92,680.61L394.66,683.79L395.08,687.16L398.76,687.32L400.2,686.42L400.26,685.35L403.94,684.42L404.69,682.93z"/>
		<path id="EE-49" title=" Jõgevamaa" class="land" d="M417.11,543.89L425.41,543.08L427.49,542.34L427.81,539.65L429.45,540.16L430.14,538.86L434.24,538.18L434.85,540.51L434.03,541.02L436.85,545.59L441.22,546.32L442.38,544.58L444.91,544.07L444.75,542.42L446.37,541.26L445.54,538.12L447.32,537.81L447.03,535.79L448.76,534.98L448.57,533.99L452.36,533.31L453.55,534.07L453.39,535.9L455.54,536.01L467.44,529.77L469.42,530.63L469.42,530.63L469.71,532.23L472.28,534.05L471.38,536.22L472.77,537.26L472.23,540.99L474.04,545.61L481.37,544.31L481.91,542.6L487.27,543.43L489.65,545.1L490.77,547.68L492.3,548.3L515.54,548.41L528.64,550.17L540.05,554.4L540.05,554.4L531.56,562.62L534.09,574.49L534.09,574.49L504.75,583.85L505.35,585.25L504.4,587.4L502.82,586.54L501.18,588.51L497.21,589.49L497.33,590.69L498.75,590.35L499.35,591.48L498.66,592.84L500.11,595.77L499.96,598.02L497.75,597.52L497.65,596.04L495.78,594.1L495.37,595.62L494.1,594.73L493.42,595.61L490.49,592.88L484,590.86L482.95,601.19L480.53,601.35L480.95,602.88L478.86,603.17L477.73,604.6L475.59,603.97L473.95,605.22L472.41,604.22L472.23,605.86L469.68,607.22L464.81,602.53L465.46,603.82L463.21,607.04L463.09,609L463.98,610.01L460.06,612.19L455.7,608.45L454.16,609.96L451.62,608.71L453.69,606.55L449.4,607.04L448.23,608.07L449.33,608.76L448.61,609.7L445.77,608.16L442.27,608.31L440.77,609.49L439.68,612.48L440.22,613.61L438.58,612.66L438.17,609.98L434.68,608.67L433.86,610.32L431.39,611.07L423.16,617.23L421.46,616.2L419.86,617.38L417.86,615.29L416.89,618.28L415.94,618.61L416.03,620.19L416.03,620.19L410.92,614.71L409.79,615.62L404.58,611.14L404.14,604.84L401.87,606.51L400.08,604.8L399.11,605.02L399.13,603.19L397.97,602.55L398.89,601.08L398.09,598.84L391.39,595.99L386.22,597.08L379.28,595.95L378.51,594.53L380.36,593L381.98,592.97L382.99,591.22L382.45,587.63L380.3,587.25L381.71,584.57L381.36,580.29L381.36,580.29L382.82,575.86L383.89,576.11L384.08,574.96L386.91,573.07L386.19,569.45L389.32,569.67L391.03,567.77L390.78,565.51L392.31,565.3L394.59,566.86L395.45,569.27L399.22,566.56L399.35,563.31L397.99,558.89L399.67,557.26L402.8,557.73L403.74,554.64L404.89,555.26L406.87,554.18L414.76,553.19L414.21,549.49L413.26,548.76L415.74,544.86L417.06,545.5z"/>
		<path id="EE-70" title="Raplamaa" class="land" d="M221.13,525.69L222.39,525.37L222.15,524.05L224.19,523.02L226.88,518.64L228.49,519.85L231.29,517.42L233.66,520.55L238,519.21L239,521.47L240.55,522.15L240.16,519.43L242.09,518.66L241.34,516.59L243.23,513.74L243.95,514.29L245.38,513.28L245.69,514.03L247.43,513.08L246.62,510.16L245.01,510.35L246.2,509.35L245.93,506.7L248.11,507.86L248.46,507.03L254.62,506.86L259.17,505.18L266.49,506.4L266.5,500.94L265.13,501.05L263.54,498.7L267.02,497.54L265.18,495.1L266.22,488.39L268.95,488.93L273.67,483.23L276.5,483.63L277.77,482.93L280.11,484.67L281.12,482.63L282.95,485.04L284.72,485.17L286.04,487.37L287.1,487.48L287.61,482.73L291.36,482.8L294.56,481.69L297.25,482.35L298.78,481.73L298.07,488.74L298.23,490.07L299.95,489.7L300.04,495.01L303.58,496.97L305.82,496.54L307.08,497.97L308.23,497.26L312.82,504.52L317.01,506.05L320.3,505.44L321.04,506.86L322.11,506.42L326.34,508.19L324.58,510.83L326.59,514.05L325.45,514.66L326.24,517.05L329.36,517.61L328.56,518.71L332.86,519.45L332.31,520.81L335.08,522.39L335.13,524.18L338.88,524.71L338.88,524.71L334.5,527.82L336.86,531.44L335.99,538.09L331.69,540.66L329.66,545.02L331.1,547.35L332.34,547.29L333.64,549L331.19,553.82L331.9,554.88L329.77,556.45L328.34,559.47L326.35,558.83L325.74,560.13L329.19,566.33L327.62,567.22L326.39,574.11L326.39,574.11L321.78,575.24L313.25,573.4L313.77,574.07L311.94,576.72L310.22,577.17L309.32,575.93L307.69,577.12L306.36,576.83L302.77,581.75L302.04,585.14L300.68,585.78L299.85,585.48L298.54,580.67L299.49,572.68L294.24,568.43L291.51,570.16L290.04,572.41L288.46,572.81L287.8,571.97L285.36,572.77L281.19,570.02L279.66,570.62L277.25,569.49L274.83,574.23L268.97,577.45L266.26,577.85L265.83,576.24L267.42,574.65L263.49,571.62L261.75,573.8L258.03,575.93L257.12,580.47L255.81,582.11L251.69,583.74L248.78,586.76L234.54,581.66L230.04,583.23L224.81,578.72L224.81,578.72L228.24,571.9L227.5,570.11L226.6,568.85L224.23,571.31L223,569.6L220.77,570.29L219.47,569.07L219.75,567.31L221.82,566.95L225.24,563.02L228.01,562.45L227.88,561.41L225.82,561.35L224.22,559.27L225.6,556.16L225.11,554.77L225.79,554.16L229.96,554.82L230.52,552.5L229.54,550.83L228.32,551.38L228.83,549.92L226.83,548.6L227.35,547.02L225.84,545.98L226.59,543.77L224.35,543.37L225.03,538.56L222.72,537.46L220.3,533.68L218.95,529.45z"/>
		<path id="EE-74" title="Saaremaa" class="land" d="M139.59,736.84l3.47,2.94l0.17,4.76l-2.26,-0.41l-1.86,-1.79l-1.32,0.84l-0.27,-3.84l1.08,-0.84l-0.63,-0.41l0.52,-1.31l0.87,-0.62L139.59,736.84zM70.31,673.21l0.95,1.19l1.06,0.66l0.3,0.94l-0.46,1.51l1.28,1.19l-3.14,4.68l-1.15,-3.79l-1.4,0.65L70.31,673.21zM76.97,667.16l2.51,1.35l-0.79,1.74l-0.13,-0.88l-1.36,0.34l0.39,-1.49l-1.27,0.02L76.97,667.16zM3.19,645.21l1.56,0.78l-2.47,0.45l-0.1,-1.06l-1.35,-0.11l0.74,-1.25L3.19,645.21zM14.02,634.81l0.67,1.77l-2.33,0.72l-0.71,-0.9l-1.92,1.99l-2.31,-0.43l-1.14,0.69l-2.18,-2.33l3.93,-1.79l3.32,1.48l-0.64,-1.9l1.43,1.08l1.52,-1.16L14.02,634.81zM152.99,610.34l1.43,2.72l-3.53,0.25l1.08,-2.97H152.99zM141.58,608.22l1.32,0.07l0.45,1.03l-1.33,2.29l-0.98,-1.31L141.58,608.22zM158.82,606.33l0.78,0.89l-2.24,0.93l0.37,-1.6L158.82,606.33zM158.38,590.02l0.63,-0.22l0.47,1.42l-1.06,1.2l-1.76,-1.2L158.38,590.02zM73.6,591.44l1.95,-1.51l1.4,0.69l5.46,9.68l4.39,0.58l1.61,-4.09l2.43,1.56l-0.08,2.29l3.09,1.22l2.18,-7.34l2.11,-2.13l4.6,1.82l3.04,-1.82l2.24,1.78h5.4l0.13,1.35l5.69,2.96l1.32,3.18l0.91,-0.73l1.98,1.15l0.68,1.73l1.68,-0.2l0.07,0.93l4.39,0.91l0.12,1.13l-0.83,0.29l0.06,1.16l-0.01,1.16l1.03,2.45l1.79,1.05l-0.62,0.84l3.28,-0.87l3.84,2.99l4.03,1.05l1.6,2.38l1.3,0.05l-0.18,1.63l0.8,0.18l-0.66,1.7l1.95,-0.13l0.85,0.98l-0.43,1.29l-1.16,0.09l-0.18,3.66l-1.33,-2.1l0.22,-1.76l-1.9,-0.78l0.35,-1.33l-0.04,-2.57l-1.18,-0.6l0.07,4.26l-1.06,0.6l0.31,-1.19l-3.87,0.04l1.83,2.84l1.52,-0.38l-0.99,1.36l1.42,0.13l-1.23,1.72l-2.48,-1.16l-0.83,-0.31l-0.19,-2.21l-1.08,1.18l0.4,-1.99l-0.93,-1.19l-0.27,-1.19l2.24,-0.45l0.22,-0.81l-2.67,-0.29l-1.28,-0.09l-0.59,1.61l-1.05,-0.04l0.71,-1.07l-0.77,-1.38l-1.47,3.24l1.11,3.01l-1.88,0.29l0.81,1.67l-0.99,0.56l-0.52,1.61l-1.52,1.09l-0.9,-0.81l0.41,-1.43l-2.76,-0.16l-0.53,2.55l0.62,3.15l0.75,0.16l0.36,2.78l-2.05,-0.92l-1.34,1.1l-0.68,-1.52l2.38,-0.52l-0.75,-0.94l-1.7,0.56l-1.05,2.1l0.86,0.58l-0.2,1.26l-0.96,0.63l0.84,1.41l-1.91,-0.32l-1.3,0.13l-1.99,-1.05l-1.78,-3.69l-1.21,0.29l-0.83,3.32l1.93,0.76l0.41,2.08l-2.05,0.22l0.1,2.22l-0.02,0.58l-0.76,1.16l-0.58,-0.36l0.33,1.82l-1.61,0.43l0.43,2.52l-3.33,0.58l-0.92,-0.45l-0.05,-1.41l-0.08,-1.21l-0.65,0.67l-1.3,-0.59l-0.32,1.88l0.93,0.81l-3.1,1.41l-0.33,4.34l-0.94,1.46l-1.21,-1.8l-4.55,-0.09l-2.3,-1.71l-2.84,0.99l-0.36,2.18l3.62,3.87l0.77,2.25l0.15,1.33l-1.6,1.33l-1.97,0.72l-2.98,-1.33l-1.91,-3.18l-1.4,3.31l-0.87,-3.6l0.54,-0.92l0.99,0.61l-0.64,-1.04l1.03,-0.43l-0.84,-1.08l-1.25,0.59l-1.08,-0.34l-0.9,0.88l0.3,2.52l-1.68,1.84l-0.8,-0.04l-0.36,-2.37l-2.86,2.99l-0.77,-0.25l-0.4,-6.12l-1.42,0.49l-1.96,6.89l-0.41,-1.15l-1.16,-0.02l0.48,-2.09l-1.08,-1.58l-1.02,0.51l0.16,-1.33l-0.73,-0.02l-1.35,0.86l-0.68,2.97l-1.91,1.3l-2.39,-0.13l-0.54,0.79l-1.4,-1.38l-2.57,0.27l-4.59,2.34l-3.37,3.06l-1.29,2.57l-0.37,4.53l1.23,3.39l-1.12,1.13l-0.51,6.35l-2.5,2.8l0.54,3.65l-4.16,7.52l1.82,5.31l-2.39,2.41L37,711.26l-2.14,2.07l-3.27,4.39l-1.65,0.61l-2.77,4.55l0.65,-2.5l-1.16,-0.2l-1.14,1.19l-1.08,-1.19l-1.72,-2.91l0.28,-1.94l-2.06,-1.73l-0.55,-4.41l1.68,-0.89l0.6,1.2l1.63,-1l0.14,-3.73l2.13,-0.79l-0.48,-3.02l1.86,-0.91l-0.48,-1.24l1.33,-1.27l0.55,-4.74l1.7,-1.97l1.49,-0.34l-0.2,-1.07l2.63,1.08l0.39,2.6l2.88,0.32l0.27,-5.48l2.67,-5.77l2.67,-1.9l-1.36,-3.46l-5.26,0.66l-1.01,-1.15l0.06,-1.85l-2.33,-0.7l-0.69,0.94l-0.32,-0.93l-0.98,0.16l0.1,-1.15l-2.16,-0.88l0.36,1.76l-1.6,-0.05l-0.89,-3.4l-1.32,-1.44l0.18,-1.2l0.57,-0.48l-2.15,-2.75l-0.44,-2.25l-2.56,-1.91l-0.71,0.43l0.69,2l-3.71,-0.09l-1.34,-1.44l-4.78,-1.01v-1.33l-1.45,-0.2l-0.95,-0.38l-1.56,-1.98l0.14,-1.17l-1.77,-0.2l1.16,-1.87l-1.57,-1.28l0.64,-2.13l1.15,-0.4l4.6,2.89l-0.3,-1.12l1.52,-0.88l-3.64,-5.5l0.01,-0.97l1.31,0.09l3.47,2.36l0.62,2.83l1.72,1.08l0.4,-0.72l0.59,-0.63l0.27,-1.03l-2.5,-5.4l0.45,-0.99l2.27,2l0.38,-0.81l2.08,2.49l1.24,-1.41l-0.38,-1.25l-1.5,-1.77l0.01,-1.68l1.28,0.27l3.02,0.89l-1.44,-2.11l-1.42,-0.47l0.19,-1.3l-0.94,-0.9l0.43,-0.58l-0.23,-0.85l-0.88,-0.49l-0.82,0.81l-0.46,-1.19l-1.32,-0.31l-0.08,-2.26l-1.18,-0.63l0.87,-1.1l-3.66,-4.38l-0.6,-3.37l-2.45,-0.81l-1.2,1.36l-2.29,-2.12l-0.22,-3.73l3.56,3.5l1.6,0.16l2.93,-2.05l-1.4,-2.66l0.75,-2.39l4.5,2.07l2.7,-0.62l1.54,0.62l3.78,7l2.7,8.64l2.74,0.45l1.09,-1.32l-0.63,-1.79l0.63,-8.44l1.82,-3.04l0.82,-0.49l1.38,1.2l0.27,-2.34l3.64,-1.34l0.14,-5.82l1.51,0.04l1.69,2l0.98,8.47l3.97,0.51l2.45,-6.31l-1.11,-3.54l-1.42,-0.05l-0.11,-5.5l2.58,0.98l4.57,-2.25l2.61,0.78l8.08,-1.47l5.56,-6.44L73.6,591.44zM119.37,588.51l1.21,0.13l1.1,3.62l-3.42,-0.93L119.37,588.51zM135.95,581.66l15.01,7.03l0.88,3.02l-1.76,1.86l0.13,1.8l4.33,6.33l1.42,4.2l-0.66,2.12l-3.21,2.09l-0.14,-1.03l-2.53,-0.4l-1.31,-3.58l-1.77,4.18l0.01,-2.6l-1.09,1.94l-1.53,-2.41l-1.59,-0.02l-2.52,5.01l-0.22,-1.11l-1.25,0.29l-0.01,-2.72l-0.64,0.69l0.22,-1.22l-0.8,0.38l-0.57,-1.38l-0.55,0.89l-1.17,-1.29l-0.6,-1.43l1.15,0.38l-0.28,-1.34l-0.65,0.38l-2.35,-3.05l-2.35,1.05l-4.01,-2.2l-1.58,-2.16l0.78,-2.91l-0.95,-1.04l1.25,0.11l1.72,-1.47l3.65,1.09l0.92,-1.36l-1.03,-4.57l0.53,-3.52l1.19,-1.35l1.06,0.69L135.95,581.66z"/>
		<path id="EE-37" title="Harjumaa" class="land" d="M204.12,459.56l1.83,1.84l-1.94,-0.26l3.09,3.16l0.56,2.32l-1.33,1.52l-1.6,-0.65l-5.5,-7.91l3.84,-0.71L204.12,459.56zM212.17,459.41l1.05,6.11l-3.5,-0.11l-0.87,-3.44l-1.67,-2.12l-1.43,-0.2l2.45,-2.9L212.17,459.41zM326.91,416.65l2.03,-0.49l1.5,3.22l-1.43,-1.48l-1.39,0.24L326.91,416.65zM284.68,417.62l-1.44,-0.17l-0.78,-1.31l0.17,-1.05l2.15,-0.9l0.98,1.24L284.68,417.62zM260.93,411.22l2.35,4.44l2.23,8.23l-3.7,-0.22l-2.54,-1.98l-1.6,-3.5L260.93,411.22zM304.73,403.44l4.42,2.51l2.09,3.58l-0.93,1.44l-2.87,-1.91l-1.66,1.78l-0.65,-1.74l1.79,-0.99l0.35,-1.27l-2.83,-2.23L304.73,403.44zM373.66,399.57l1.12,-0.17l-0.5,1.43l1.06,1.78l1.17,-1.41l2.52,2.27l1.11,1.35l-0.84,0.84l0.36,1.56l2.23,1.33l-1.42,1.97l1.01,2.51l-0.43,4.42l5.08,1.63l0,0l1.01,1.53l-0.9,1.57l-3.39,1.4l0.31,2.92l1.6,0.45l1.24,3.12l1.48,11.47l3.16,0.13l0.24,1.51l1.44,1.08l-1.16,4.49l4.11,7.18l0.69,2.88l0.28,7.51l1.6,6.03l-4,1.26l0,0l-2.75,-3.21l-9.86,-1.56l-3.03,2.6l-4.22,-0.28l-1.96,1.82l-2.66,0.04l0.02,2.76l-1.39,0.87l-5.47,-3.52l-4.58,2.19l-2.82,-1.2l-3.21,0.07l3.32,4.04l2.29,6.08l-2.38,6.24l-5.29,6.88l0.95,1.98l-1.49,3.51l4.12,2.45l-2.7,5.79l-2.35,-3.63l-1.47,-0.57l-2.79,2.49l2.05,3.24l-0.9,6.89l-2.52,2.84l-1.6,-1.29l-1.04,0.37l-1.24,3.24l0,0l-3.75,-0.53l-0.05,-1.78l-2.77,-1.58l0.55,-1.36l-4.3,-0.74l0.81,-1.1l-3.12,-0.55l-0.79,-2.39l1.14,-0.61l-2.01,-3.23l1.76,-2.64l-4.22,-1.77l-1.07,0.44l-0.74,-1.42l-3.29,0.61l-4.19,-1.53l-4.59,-7.26l-1.15,0.7l-1.25,-1.42l-2.25,0.43l-3.53,-1.96l-0.09,-5.31l-1.72,0.37l-0.16,-1.33l0.71,-7.02l-1.53,0.63l-2.7,-0.67l-3.2,1.11l-3.75,-0.07l-0.51,4.76l-1.05,-0.11l-1.32,-2.2l-1.77,-0.13l-1.83,-2.41l-1.01,2.04l-2.33,-1.74l-1.27,0.7l-2.84,-0.41l-4.72,5.7l-2.72,-0.54l-1.04,6.71l1.84,2.44l-3.48,1.16l1.6,2.35l1.37,-0.11l-0.01,5.46l-7.32,-1.22l-4.56,1.68l-6.15,0.17l-0.35,0.83l-2.18,-1.16l0.27,2.66l-1.19,1l1.61,-0.18l0.81,2.91l-1.74,0.96l-0.31,-0.76l-1.43,1.01l-0.71,-0.55l-1.9,2.86l0.75,2.06l-1.93,0.77l0.39,2.72L239,521.47l-1,-2.26l-4.35,1.34l-2.36,-3.13l-2.8,2.43l-1.61,-1.22l-2.69,4.38l-2.04,1.03l0.24,1.33l-1.26,0.31l0,0l-0.58,-4.51l7.45,-7.37l-5.77,-6.32l0.83,-0.29l-0.79,-1.72l1.72,-1.51l-0.22,-1.46l-8.01,-3.86l-8.2,-0.76l-1.21,1.03l-2.08,-0.11l-0.44,1.13l-4.27,-5.8l-2.13,0.28l-1.03,-2.96l-4.72,0.15l-0.07,-5.94h-4.72l-0.15,-5.72l0,0l1.32,-2.85l-1.26,-1.41l0.04,-2.61l3.29,0.87l1.84,-2.82l3.5,-0.83l5.16,2.52l0.46,1.41l2.5,-2.13l4.11,1.8l2.01,-1.58l6.15,-2.13l0.89,1.08l0.66,-0.52l0.98,1.1l1.74,-0.11l-0.84,2l0.44,0.78l1.28,-0.44l3.1,-6.7l-2.03,-4.12l-5.32,-4.38l-1.02,-7.05l3.94,0.63l6.78,3.59l1.05,1.97l3.99,2.68l3.7,-0.56l0.69,-2.4l-1.55,-3.76l-4.95,-3.72l0.71,0.13l0.73,-1.88l1.05,0.17l-0.29,1.17l0.85,0.67l2.01,0.34l10.19,-5.62l1,-2.42l-0.23,-4.79l1.32,-1.03l-0.27,-1.02l9.84,0.84l2.94,3.9l4.62,2.13l3.12,-2.2l-0.44,-2.48l8.86,6.15l1.61,-1.62l0.27,-1.98l-2.98,-2.54l-0.6,-1.66l2.15,1.4l2.18,-0.07l0.49,-1.45l-1.1,-2.26l1.69,0.82l0.36,-1.72l0.66,2.02l1.41,0.82l-2.67,3.32l1.43,-0.71l0.91,1.31l0.48,-0.58l1.9,1.42l3.87,0.73l4.41,-7.68l-2.89,-3.71l0.61,-1.57l-0.95,-1.12l-0.65,0.41l-0.21,-10.26l0.43,1.5l2.27,0.54l0.79,1.42l1.78,-0.24l0.62,1.25l2.46,-0.35l1.22,1.85l-0.49,1.7l2.18,1.96L299,430.72l5.47,2.24l2.91,-1.14l0.21,-2.07l4.57,1.33l3.31,-1.23l0.86,2.39l1.23,0.97l1.02,-0.39l0.31,1.44l2.42,1.16l2.71,-4.55l-0.43,-1.62l-1.25,0.13l-1.94,-2.95l0.57,-3.2l4.17,3.25l1.26,3.75l3.83,-0.9l2.7,-3.62l0.25,3.33l4.63,2.65l2.24,0.58l2.11,-0.65l3.52,1.4l3.63,-0.67l1.8,-2l-0.35,-2.39l6.8,-0.52l2.51,-4.32l-2.52,-3.42l-0.42,-3.03l-3.02,-5.07l-0.01,-4.66l0.92,-1.89l-0.71,-1.56l2.54,0.92l-0.58,3.88l1.02,1.5l2.17,1.03l1.77,-1.14l0.92,2.55l2.53,0.26l1.33,3.87l5.07,2.88l3.37,-2.99l-0.6,-1.14l1.06,-3.14l-2.86,-3.17l-0.15,-3.15l1,-1.97l-2.05,-1.84l2.65,-1.65L373.66,399.57z"/>
	</g>
</svg>