<?xml version="1.0" encoding="utf-8"?>
<!-- (c) ammap.com | SVG map of Estonia - High -->
<svg xmlns="http://www.w3.org/2000/svg" xmlns:amcharts="http://amcharts.com/ammap" xmlns:xlink="http://www.w3.org/1999/xlink" version="1.1">
	<defs>
		<style type="text/css">
			.land
			{
				fill: #CCCCCC;
				fill-opacity: 1;
				stroke:white;
				stroke-opacity: 1;
				stroke-width:0.5;
			}
		</style>

		<amcharts:ammap projection="mercator" leftLongitude="21.770831" topLatitude="59.685430" rightLongitude="28.208783" bottomLatitude="57.509646"></amcharts:ammap>

		<!-- All areas are listed in the line below. You can use this list in your script. -->
		<!--{id:"EE-84"},{id:"EE-65"},{id:"EE-44"},{id:"EE-78"},{id:"EE-51"},{id:"EE-86"},{id:"EE-67"},{id:"EE-59"},{id:"EE-39"},{id:"EE-57"},{id:"EE-82"},{id:"EE-49"},{id:"EE-70"},{id:"EE-74"},{id:"EE-37"}-->

	</defs>
	<g>
		<path id="EE-84" title="Viljandimaa" class="land" d="M381.36,580.29L381.89,581.09L381.71,584.57L381.38,585.89L380.3,587.25L382.45,587.63L382.99,591.22L381.98,592.97L380.36,593L379.65,594.33L378.51,594.53L379.28,595.95L383.93,596.97L386.22,597.08L389.75,595.84L391.39,595.99L395.43,598.32L398.09,598.84L398,599.62L398.89,601.08L398.31,601.39L398.5,601.79L397.97,602.55L399.13,603.19L399.11,605.02L400.08,604.8L401.87,606.51L404.14,604.84L404.58,611.14L409.79,615.62L410.92,614.71L416.03,620.19L416.03,620.19L416.17,620.58L416.58,620.53L416.45,621.02L416.79,620.95L416.99,621.96L417.42,622.22L417.22,622.79L417.92,624.04L417.52,625.02L418.76,626.65L419.37,629.53L420.22,630.85L420.1,631.88L418.47,631.61L417.63,632.62L417.14,632.66L417.18,633.25L416.17,634.03L415.85,635.88L415.01,635.95L406.76,645.57L409,682.87L409,682.87L406.53,683.2L404.69,682.93L403.99,683.34L403.94,684.42L400.26,685.35L400.2,686.42L398.76,687.32L397.85,687.59L395.08,687.16L394.66,683.79L393.65,682.55L392.92,680.61L391.63,679.3L389.95,678.66L387.82,678.67L388.3,680.06L388.93,680.27L389.25,681.94L387.93,682.17L388.08,683.07L386.12,683.47L386.23,685.19L386.43,685.99L386.77,685.92L387.48,683.79L387.9,683.73L388.17,685.89L388.59,686.51L388.42,687.16L386.86,687.12L387.1,688.25L386.43,688.34L386.03,689.15L385.11,689.01L385.2,690.17L384.75,689.7L383.72,689.9L383.26,691.48L382.53,691L381.93,691.96L380.94,692.59L380.59,692.23L377.79,692.37L378.79,693.63L378.2,694.54L377.45,694.69L377.22,695.83L376.06,697.07L375.78,698.02L374.92,698.19L374.03,699.75L372.99,700.61L372.48,699.3L371.6,699.05L367.57,699.21L367.29,699.54L365.87,699.05L365.09,700.06L367.27,705.33L366.58,705.87L366.37,707.19L363.79,712.46L363.79,712.46L363.42,711.21L362.34,709.78L360.4,711.76L359.75,709.83L357.47,710.28L356.79,710.92L355.98,710.39L356.82,709.46L356.69,708.35L353.33,709.14L351.87,707.42L349.43,705.78L349.93,704.63L351.5,704.12L350.22,702.38L346.21,699.66L341.94,699.45L339.18,694.36L334.93,690.06L334.4,690.28L333.67,692.29L332.72,692.66L332.32,693.52L333.18,695.28L335.24,696.78L336.24,699.05L336.03,701.58L335.48,702.36L335.89,705.74L334.34,706.48L333.26,705.78L331.87,705.87L331.39,704.13L330.57,704.17L329.01,701.74L330.57,701.31L329.51,700.38L329.04,700.4L328.8,701.22L328.57,700.9L327.95,697.68L328.86,695.62L328.6,695.44L327.91,696.1L327.44,693.72L326.8,693.25L327.57,691.78L327.47,690.69L326.32,689.63L325.4,690.37L324.9,690.15L325.24,691.41L321.88,691.32L319.87,690.62L317.37,691.12L317.02,693.13L314.87,693.18L311.51,697.76L311.51,697.76L311.03,697.33L310.91,696.26L310.46,696.48L309.97,692.72L308.54,691.94L308.57,690.87L309.51,688.63L313.35,686.48L312.42,685.13L312.67,683.45L316.57,683.5L317.54,684.74L318,683.56L319.03,683.57L318.94,684.63L319.43,684.76L320.04,681.73L319.31,680.99L318.52,681.24L317.2,679.59L317.25,678.01L318.53,678.23L319.08,677.2L318.28,675.87L318.36,674.53L319.11,673.81L319.85,675.06L320.42,677.09L319.88,678.57L320.48,678.66L321.02,678.44L320.94,677.74L321.71,677.47L321.62,676.25L321.11,676.41L320.84,675.96L320.94,674.36L321.39,673.77L322.61,673.75L322.95,671.92L321.59,671.92L321.65,670.91L323.43,669.78L326.11,670.3L327.13,669.82L327.22,668.92L328.24,668.2L328.81,668.27L329.39,668.97L329.13,669.08L329.45,670.25L330.02,670.57L330.04,669.22L331.04,669.24L331.43,668.43L330.92,665.63L331.47,664.93L331.27,663.56L330.73,662.21L330.13,661.88L330.11,661.15L330.3,660.59L331.66,659.74L332.97,659.53L332.52,659.04L332.15,655.2L323.94,653.85L321.59,648.6L320,647.63L318.26,648.01L316.85,649.13L316.29,646.8L316.18,647.4L315.6,647.58L310.99,645.95L305.38,647.2L304.55,643.46L306.03,633.65L305.75,628.66L307,629.31L308.74,626.98L308.21,618.07L310.06,617.01L310.46,614.4L312.94,613.64L314.02,613.9L314.9,611.95L316.46,612.21L318.81,611.28L321.22,608.45L322.03,608.42L321.98,609.63L322.39,609.6L323.16,608.54L323.78,608.54L324,607.69L323.4,607.56L323.79,606.95L323.74,605.51L324.15,604.69L324.73,604.84L325.34,604.46L324.72,603.39L324.98,603L326.34,602.39L329.29,602.31L330.55,601.84L330.53,601.41L329.18,600.79L329.42,599.68L328.76,598.48L328.61,595.28L328.23,594.93L327.76,595.88L327.28,595.61L327.85,593.64L327.59,593.28L330.67,591.68L330.67,591.68L331.53,593.1L335.64,593.64L336.69,594.84L340.14,593.82L341.02,595.64L342.71,595.79L345.06,594.5L348.65,594.88L350.64,595.7L351.7,595.24L351.92,594.7L351.45,593.6L353.87,593.59L354.43,592.13L356.3,590.88L356.83,590.95L356.94,591.71L357.42,591.73L357.21,592.49L357.69,592.97L358.91,592.06L358.56,591.64L357.86,591.68L357.95,591.13L359.63,589.82L362.95,590.51L364.69,589.31L365.02,588.2L366.87,587.65L367.43,587.98L368.35,587.74L369.22,586.96L369.79,584.32L370.81,583.88L372.04,584.54L375.13,583.9L377.14,582.44L377.82,582.75L378.91,581.88L380.08,581.8L380.36,580.77z"/>
		<path id="EE-65" title="Põlvamaa" class="land" d="M461.4,683.34L464.6,682.28L464.4,680.59L466.04,678.87L464.79,678.66L464.54,678.03L464.74,677.11L466.16,677.36L464.88,676.47L464.33,674.8L464.13,673.34L464.77,672.3L465.59,673.07L468.32,673.16L469.64,672.62L470.45,671.27L471.97,670.86L472.56,671.24L473.06,673.07L472.33,675.32L473.51,674.13L474.07,674.18L474.56,674.88L474.87,673.82L475.52,673.77L477.66,672.19L479.55,672.08L480.66,673.5L480.54,672.21L481.36,671.88L482.39,670.03L483.84,669.67L483.92,668.97L484.33,669.17L484.3,667.12L484.95,664.53L485.46,663.18L486.2,663.07L486.43,661.79L487.46,660.61L488.26,660.34L489.26,661.88L488.85,662.77L489.43,664.42L490.44,663.88L490.82,662.33L492.57,662.8L493.29,661.7L495.2,662.1L494.83,663.61L495.41,664.6L497.94,663.83L498.82,662.55L499.54,663.99L501.15,662.42L500.75,660.97L501.49,659.47L501.12,658.37L501.59,657.83L502.66,657.73L503.2,658.61L504.2,658.77L505.4,661.09L508.36,660.17L508.98,660.1L509.06,660.57L509.75,660.01L509.7,657.69L510.27,657.02L511.38,657.13L512.52,659.36L513.24,659.56L517.53,659.29L518.52,659.69L520.01,659.62L520.33,660.7L523.73,661.09L522.95,664.93L530.4,666.49L530.95,665.63L534.28,667.88L535.02,667.19L536.67,667.34L537.81,670.09L547.38,671.27L547.38,671.27L554.12,683.43L557.45,687.29L556.78,688.38L554.92,695.53L556.12,703.67L556.57,704.26L559.57,705.81L559.13,704.94L559.46,703.99L558.73,702.27L558.75,701.7L559.09,701.63L559.81,701.86L560.55,703.22L562.88,704.1L562.51,705.19L563.06,705.58L563.4,706.81L561.65,709.82L562.26,710.51L562.28,712.1L561.08,712.71L560.07,712.69L559.73,713.14L560.99,714.69L560.89,715.42L561.3,716.08L562.22,716.85L562.16,718.44L565.33,719.14L565.1,720.95L563.39,721.7L564.34,722.68L566.72,721.72L567.91,722.61L568.85,722.52L569.24,723.56L570,723.95L572.11,722.99L574.31,723.34L574.63,723.43L574.86,724.79L574.05,725.61L574.51,726.14L574.21,727.66L574.65,728.85L574.46,729.72L572.39,731.84L572.66,733.41L572.01,733L570.79,734.76L569.33,734.44L567.48,735.53L565.43,734.28L564.38,732.59L563.58,733.85L562.16,734.58L559.98,733.69L556.44,733.53L552.83,734.71L550.89,734.92L549.4,734.6L549.21,734.97L549.21,734.97L545.58,734.97L544.98,735.29L543.56,734.71L542.84,734.85L542.51,734.42L541.22,734.58L539.31,733.75L538.69,734.05L538.69,734.05L538.06,734L538.06,734L537.38,733.64L534.79,734.01L533.57,734.96L532.93,734.53L532.37,735.92L531.49,735.94L530.55,737.7L530.08,737.31L530.21,736.34L529.17,736.72L528.44,736.34L528.19,735.33L526.64,735.19L526.25,733L523.17,732.87L523.74,729.85L524.9,728.51L524.83,727.32L525.95,727.71L526.7,726.78L526.58,726.41L527.7,726.37L527.9,725.29L528.47,725.34L528.84,724.66L529.06,723.26L527.99,722.56L527.07,722.85L526.27,721.97L526.85,721.7L526.59,720.06L525.51,720.01L525.67,722.52L525.11,723.38L522.06,721.51L519.93,722.02L517.21,720.33L517.36,719.56L515.08,719.72L514.66,720.12L514,718.17L512.2,718.76L511.94,717.23L510.27,714.39L508.48,714.59L507.79,713.96L508.14,713.3L507.85,712.78L505.91,714.59L505.51,714.44L505.17,715.5L503.78,714.5L503.43,714.69L503.57,715.33L502.58,715.41L502.3,716.35L503.29,718.17L503.6,719.69L505.46,721.29L505.28,721.86L502.07,721.22L502.04,720.47L498.97,720.74L497.17,720.42L497.17,719.72L496.8,719.56L496.63,720.33L496.28,720.33L495.49,719.31L494.63,719.35L494.26,715.67L491.36,717.26L491.36,717.76L489.65,718.44L488.71,718.33L487.37,719.8L487.37,718.19L486.4,718.17L483.75,718.98L482.25,718.4L479.08,720.1L478.01,718.76L477.7,717.71L477.56,718.06L476.06,718.17L475.67,717.71L473.99,719.12L473.45,717.6L472.46,717.73L472.02,717.23L471.46,717.48L470.15,716.73L469.78,715.73L469.3,715.62L468.26,716.69L467.56,716.41L466.87,717.32L464.51,717.42L464.03,716.57L461.18,717.53L460.13,716.08L458.98,715.71L459.26,714.76L457.76,715.41L457.05,714.91L456.94,713.09L456.05,712.87L456.05,712.87L455.94,712.35L457.08,711.26L456.94,709.53L457.46,709.03L457.47,708.26L457.11,707.74L457.94,707.14L456.81,706.35L456.14,704.42L456.64,703.4L457.42,703.35L457.53,701.36L458.24,701.29L458.38,698.34L457.39,697.93L457.21,696.42L457.81,695.08L456.96,694.95L456.62,695.62L456.79,693.63L456.34,693.09L457.01,691.26L458.61,689.49L458.39,687.86L459.78,685.78L459.93,683.82z"/>
		<path id="EE-44" title="Ida-Virumaa" class="land" d="M474.77,430.98l0.74,0.19l0.42,0.77l0.57,-0.15l0.74,1.59l1.92,0.69l5.15,3.71l2.94,3l4.96,2.03l9.65,0.67l8.52,-0.65l7.77,-1.27l14.81,-0.6l4.76,0.99l7.19,2.46l2.95,0.26l0.76,0.99l4.92,1.42l6.14,0.07l2.59,-0.33l2.77,0.47l2.24,-0.43l0.48,0.65l0.6,-0.06l-0.45,0.75l1.26,1.23l1.74,0.8l2.3,-0.07l0.47,0.47l3.19,-0.58l1.98,-0.89l0.81,0.54l4.33,-0.32l1.93,-0.99l3.46,-2.59l2.06,-2.1l2.22,-2.96l2.45,-4.49l0.64,1.36l2.83,0.99l1.5,1.17l2.61,2.72l1.5,3.52l2.35,1.4l3.3,2.98l1.02,2.42l-0.06,3.66l-0.5,1.47l-0.92,0.69l-0.32,1.38l-1.91,1.88l-1.17,3.36l-2.6,4.75l-6.77,-0.04l-3.77,1.34l-2.93,1.78l-2.64,0.33l-3.73,3.63l-1.06,1.56l-0.98,2.06l-0.41,6.11l-0.63,2.92l-1.57,2.37l-0.74,2.11l-3.33,3.05l-0.46,1.29l-1.75,2.22l-0.2,2.2l0.62,0.87l-1.99,2.88l0.26,4.02l-1.58,1.84l-0.36,1.46l0.32,1.49l-0.62,2.19l-1.6,0.2l-0.4,0.7l-0.62,3.59l0.33,2.5l-0.78,1.34l0.57,0.9l-0.24,0.7l-2.36,2.81l-24.89,24.01l0,0l-11.41,-4.23l-13.1,-1.76l-23.25,-0.11l-0.41,-0.73l-1.12,0.11l-1.12,-2.58l-2.37,-1.67l-3.56,-0.15l-1.8,-0.68l-0.54,1.71l-4.52,0.31l-2.81,0.99l-1.14,-1.56l-0.67,-3.06l-0.02,-1.82l0.79,-0.33l-0.23,-1.58l-1.4,-1.05l0.9,-2.17l-1.74,-1.74l-0.83,-0.07l-0.28,-1.6l0,0l1.81,-1.01l0.61,-1.14l4.59,-0.81l1.82,-2.5l0.23,-1.25l-0.53,-1.66l0.11,-2.52l1.95,-1.36l0.05,-0.46l0.03,-0.66l-1.32,-0.83l0.96,-15.23l0.3,-0.15l0.82,0.68l1.29,-0.9l1.42,-2.35l3.51,-0.41l0.41,-1.35l0.95,0.72l0.34,1.16l1.98,-0.09l0.67,-1.02l-0.44,-0.79l0.44,-3.34l1.1,-0.06l-0.45,-3.03l-1.19,0.15l-0.63,-0.72l1.02,-2.07l-1.09,-2.48l-0.82,-0.91l-3.43,-1.09l-3.51,-2.07l0.68,-0.91l-0.65,-5.19l-8.08,4.47l-0.84,-4.97l-1.01,0.06l0.77,-4.25l-0.65,-0.85l1,-0.57l1.15,-1.73l1.11,-4.27l0.91,0.22l0.46,-1.75l1.8,0.47l0.83,-1.69l-1.4,-0.11l-0.18,-0.82l-2.37,-1.28l-3.45,0.5l-1.1,-1.49h-0.61l-0.68,1.15l-0.97,-0.32l-0.25,-0.56l1.22,-1.75l2.63,-1.1l0.06,-0.8l0.7,0.02l-0.51,-0.6l0.93,-0.46l-1.86,-3.37l0.48,-0.24l-1.28,-1.02l0.27,-0.3l2.64,-1.23l1.26,1.66l2.16,0.37l-0.07,-2.35l-0.73,-2.57l0.1,-5.4l-0.71,-1.81l-1.03,-1.16l0.13,-1.46l-0.95,-0.73l0.21,-0.48l-0.57,-0.62l0.37,-0.75l0,0L474.77,430.98z"/>
		<path id="EE-78" title="Tartumaa" class="land" d="M535.5,580.58L543.7,615.76L549.8,639.15L543.57,650.48L543.81,664.44L547.38,671.27L547.38,671.27L537.81,670.09L536.67,667.34L535.02,667.19L534.28,667.88L530.95,665.63L530.4,666.49L522.95,664.93L523.73,661.09L520.33,660.7L520.01,659.62L518.52,659.69L517.53,659.29L513.24,659.56L512.52,659.36L511.38,657.13L510.27,657.02L509.7,657.69L509.75,660.01L509.06,660.57L508.98,660.1L508.36,660.17L505.4,661.09L504.2,658.77L503.2,658.61L502.66,657.73L501.59,657.83L501.12,658.37L501.49,659.47L500.75,660.97L501.15,662.42L499.54,663.99L498.82,662.55L497.94,663.83L495.41,664.6L494.83,663.61L495.2,662.1L493.29,661.7L492.57,662.8L490.82,662.33L490.44,663.88L489.43,664.42L488.85,662.77L489.26,661.88L488.26,660.34L487.46,660.61L486.43,661.79L486.2,663.07L485.46,663.18L484.95,664.53L484.3,667.12L484.33,669.17L483.92,668.97L483.84,669.67L482.39,670.03L481.36,671.88L480.54,672.21L480.66,673.5L479.55,672.08L477.66,672.19L475.52,673.77L474.87,673.82L474.56,674.88L474.07,674.18L473.51,674.13L472.33,675.32L473.06,673.07L472.56,671.24L471.97,670.86L470.45,671.27L469.64,672.62L468.32,673.16L465.59,673.07L464.77,672.3L464.13,673.34L464.33,674.8L464.88,676.47L466.16,677.36L464.74,677.11L464.54,678.03L464.79,678.66L466.04,678.87L464.4,680.59L464.6,682.28L461.4,683.34L461.4,683.34L461.17,682.34L459.38,682.59L459.36,680.16L456.26,679.05L456.22,676.95L455.16,676.02L451.53,675.44L448.99,675.91L448.04,677.6L446.26,677.81L443.77,679.73L442.76,678.98L441.62,679.52L441.76,678.06L441.18,676.18L440.75,675.87L440.98,675.32L440.7,674.88L439.64,675.48L437.29,674.31L433.59,681.53L431.88,680.67L430.48,680.94L429.4,680.67L428.12,684.85L422.23,684.69L416.55,684L416.1,682.8L414.41,683.68L414.02,683.36L413.43,684.63L412.86,683.09L410.86,683.79L409,682.87L409,682.87L406.76,645.57L415.01,635.95L415.85,635.88L416.17,634.03L417.18,633.25L417.14,632.66L417.63,632.62L418.47,631.61L420.1,631.88L420.22,630.85L419.37,629.53L418.76,626.65L417.52,625.02L417.92,624.04L417.22,622.79L417.42,622.22L416.99,621.96L416.79,620.95L416.45,621.02L416.58,620.53L416.17,620.58L416.03,620.19L416.03,620.19L416.44,619.59L415.94,618.61L416.42,618.65L416.41,617.88L416.89,618.28L416.66,617.3L417.49,616.71L416.93,616.36L417.86,615.29L419.86,617.38L421.46,616.2L423.16,617.23L431.39,611.07L433.86,610.32L434.68,608.67L436.28,608.78L438.17,609.98L438.58,612.66L440.22,613.61L439.68,612.48L440.77,609.49L441.26,609.58L442.27,608.31L443.55,607.84L444.18,608.69L445.77,608.16L447.87,609.74L448.61,609.7L449.33,608.76L448.23,608.07L449.4,607.04L453.69,606.55L453.06,608.02L451.64,608.16L451.62,608.71L452.77,609.43L453.36,609.27L454.16,609.96L455.7,608.45L458.12,610.96L460.06,612.19L460.92,611.27L463.04,610.94L463.98,610.01L463.09,609L463.21,607.04L463.61,605.75L465.46,603.82L464.81,602.53L467.16,604L468.03,605.91L468.74,605.91L469.68,607.22L470.36,607.15L472.23,605.86L472.41,604.22L473.95,605.22L475.59,603.97L477.73,604.6L477.9,604.02L478.85,603.62L478.86,603.17L480.95,602.88L480.53,601.35L482.95,601.19L482.64,598.7L484,590.86L485.01,590.73L490.49,592.88L493.42,595.61L493.87,595.52L494.1,594.73L494.99,595.75L495.37,595.62L495.07,594.48L495.78,594.1L496.08,594.66L497.03,595.01L497.65,596.04L497.75,597.52L498.36,598.06L499.96,598.02L500.11,595.77L499.25,595.11L498.66,592.84L499.35,591.48L498.75,590.35L497.33,590.69L497.21,589.49L499.12,588.62L499.83,589.13L501.18,588.51L501.43,587.32L502.82,586.54L504.4,587.4L505.35,585.25L504.48,584.28L504.75,583.85L509.13,581.86L509.8,582.22L509.95,582.81L534.09,574.49L534.09,574.49z"/>
		<path id="EE-51" title="Järvamaa" class="land" d="M338.88,524.71L340.12,521.47L341.16,521.1L342.77,522.39L345.28,519.56L346.19,512.67L344.14,509.43L346.93,506.94L348.4,507.51L349.06,508.39L349.45,510.03L350.74,511.14L353.45,505.35L352.76,504.54L349.33,502.9L349.51,501.6L350.82,499.39L349.87,497.41L350.68,496.99L351.06,495.69L351.56,495.62L353.03,492.33L354.11,491.83L355.15,490.53L354.88,490.22L357.54,484.3L355.92,481.35L355.25,478.22L352.34,475.2L351.93,474.18L355.14,474.11L357.96,475.31L360.64,473.4L362.54,473.13L363.26,473.35L364.99,475.06L367.25,476.24L367.36,476L368.01,476.65L368.93,475.7L369.39,475.78L369.56,474.33L368.82,473.53L369.37,473.02L371.28,472.55L372.03,472.98L374,471.16L375.29,471.68L378.22,471.44L380.6,469.05L381.25,468.84L383.02,468.97L384.28,469.77L391.11,470.4L391.7,470.75L392.33,472.57L393.33,472.77L393.86,473.61L393.86,473.61L394.22,475.2L392.87,475.65L392.9,476.95L393.94,477.37L395.64,477.24L394.94,481.24L395.16,482.52L397.01,481.67L398.93,482.95L397.95,485.17L396.45,485.87L397.27,487.15L396.23,487.76L396.27,488.57L398.19,488.59L399.87,490.26L401.53,488.94L402.29,489.63L402.81,489.3L403.71,493.66L402.89,494.97L401.32,495.27L401.06,495.77L400.38,497.17L400.01,501.01L398.41,500.9L397.03,502.38L396.95,503.91L396.14,504.56L396.6,507.01L396.1,507.1L396.02,508.82L393.91,511.31L394.79,513.11L395.7,511.45L397.12,513.31L398.35,512.26L398.43,511.29L399.77,512.26L401.42,514.31L404.69,513.55L405.66,514.14L406.88,515.47L407.95,520.26L410.48,521.05L411,523.55L413.96,525.35L414.82,525.37L415.41,526.15L414.94,528.59L415.9,529.58L415.67,530.69L416.27,532.21L417.54,532.71L417.05,535.96L418.1,538.25L417.39,540.75L416.77,541.54L416.9,542.09L416.54,542.27L416.52,543.37L417.11,543.89L417.11,543.89L417.48,544.8L417.06,545.5L416.14,545.46L415.74,544.86L414.89,546.14L414.26,546.18L414.14,547.68L413.26,548.76L414.21,549.49L414.76,553.19L414.21,553.63L410.56,553.73L410.15,554.15L408.42,553.96L407.04,554.46L406.87,554.18L405.83,555.1L404.89,555.26L403.74,554.64L403.33,555.7L403.62,556.85L402.8,557.73L401.17,557.99L400.24,557.13L399.67,557.26L399.62,557.73L399.28,557.6L397.99,558.89L398.83,561.12L398.69,562.2L399.35,563.31L399.22,566.56L395.45,569.27L394.59,566.86L392.31,565.3L390.78,565.51L390.62,567.13L391.03,567.77L389.47,568.89L389.32,569.67L387.63,569.1L386.19,569.45L386.29,570.58L387.08,571.5L386.7,572.28L387.04,572.45L386.91,573.07L384.9,574.85L384.08,574.96L383.89,576.11L382.82,575.86L382.12,578.92L381.36,580.29L381.36,580.29L380.36,580.77L380.08,581.8L378.91,581.88L377.82,582.75L377.14,582.44L375.13,583.9L372.04,584.54L370.81,583.88L369.79,584.32L369.22,586.96L368.35,587.74L367.43,587.98L366.87,587.65L365.02,588.2L364.69,589.31L362.95,590.51L359.63,589.82L357.95,591.13L357.86,591.68L358.56,591.64L358.91,592.06L357.69,592.97L357.21,592.49L357.42,591.73L356.94,591.71L356.83,590.95L356.3,590.88L354.43,592.13L353.87,593.59L351.45,593.6L351.92,594.7L351.7,595.24L350.64,595.7L348.65,594.88L345.06,594.5L342.71,595.79L341.02,595.64L340.14,593.82L336.69,594.84L335.64,593.64L331.53,593.1L330.67,591.68L330.67,591.68L331.79,590.77L336.34,577.48L331.76,574.95L326.85,574.47L326.39,574.11L326.39,574.11L326.21,572.41L327.69,569.07L327.62,567.22L329.19,566.33L327.5,563.22L326.69,562.84L325.74,560.13L326.35,558.83L327.95,559.64L328.34,559.47L329.77,557.39L329.77,556.45L331.9,554.88L331.19,553.82L332.29,551.6L333.33,550.48L332.7,549.57L333.64,549L332.34,547.29L332.08,547.62L331.1,547.35L330.32,545.35L329.66,545.02L329.96,544.16L330.74,543.99L331.69,540.66L335.99,538.09L336.86,531.44L334.5,527.82L338.31,525.7z"/>
		<path id="EE-86" title="Võrumaa" class="land" d="M456.05,712.87L456.94,713.09L457.05,714.91L457.76,715.41L459.26,714.76L458.98,715.71L460.13,716.08L461.18,717.53L464.03,716.57L464.51,717.42L466.87,717.32L467.56,716.41L468.26,716.69L469.3,715.62L469.78,715.73L470.15,716.73L471.46,717.48L472.02,717.23L472.46,717.73L473.45,717.6L473.99,719.12L475.67,717.71L476.06,718.17L477.56,718.06L477.7,717.71L478.01,718.76L479.08,720.1L482.25,718.4L483.75,718.98L486.4,718.17L487.37,718.19L487.37,719.8L488.71,718.33L489.65,718.44L491.36,717.76L491.36,717.26L494.26,715.67L494.63,719.35L495.49,719.31L496.28,720.33L496.63,720.33L496.8,719.56L497.17,719.72L497.17,720.42L498.97,720.74L502.04,720.47L502.07,721.22L505.28,721.86L505.46,721.29L503.6,719.69L503.29,718.17L502.3,716.35L502.58,715.41L503.57,715.33L503.43,714.69L503.78,714.5L505.17,715.5L505.51,714.44L505.91,714.59L507.85,712.78L508.14,713.3L507.79,713.96L508.48,714.59L510.27,714.39L511.94,717.23L512.2,718.76L514,718.17L514.66,720.12L515.08,719.72L517.36,719.56L517.21,720.33L519.93,722.02L522.06,721.51L525.11,723.38L525.67,722.52L525.51,720.01L526.59,720.06L526.85,721.7L526.27,721.97L527.07,722.85L527.99,722.56L529.06,723.26L528.84,724.66L528.47,725.34L527.9,725.29L527.7,726.37L526.58,726.41L526.7,726.78L525.95,727.71L524.83,727.32L524.9,728.51L523.74,729.85L523.17,732.87L526.25,733L526.64,735.19L528.19,735.33L528.44,736.34L529.17,736.72L530.21,736.34L530.08,737.31L530.55,737.7L531.49,735.94L532.37,735.92L532.93,734.53L533.57,734.96L534.79,734.01L537.38,733.64L538.06,734L538.06,734L538.69,734.05L538.69,734.05L539.31,733.75L541.22,734.58L542.51,734.42L542.84,734.85L543.56,734.71L544.98,735.29L545.58,734.97L549.21,734.97L549.21,734.97L550.2,735.37L549.76,736.82L549.01,736.77L549.1,737.79L549.78,737.75L549.84,738.09L548.85,738.37L548.71,739.19L548.03,739.49L548.34,740.13L548.13,742.02L547.65,742.53L547.35,742.28L546.82,742.64L546.3,742.12L545.44,742.76L544.79,742.37L544.31,742.82L545.26,743.51L545.97,745.11L545.53,746.89L547.42,748.45L546.01,749.53L547.59,749.64L547.51,751.22L548.39,752.34L549,752.46L547.32,753.38L546.96,756.79L545.62,756.31L545.3,757.2L544.56,757.27L544.08,754.11L543.48,754.94L542.26,755.39L541.59,756.88L539.84,755.56L538.2,756.91L538.07,758.6L536.57,758.62L536.76,759.25L533.57,762.6L532.75,764.55L533.46,765.23L533.27,766L533.8,766.46L533.33,767.39L533.48,768.18L534.26,769.33L535.31,769.95L535.29,771.42L534.27,772.34L534.35,772.82L534.53,773.26L535.72,773.03L535.84,773.74L533.98,775.08L533.42,776.27L531.95,775.9L530.83,776.67L528.02,780L528.09,780.99L528.81,782.19L528.67,783.3L529.34,784.36L529.23,785.45L530.35,787.57L530.59,790.43L530.09,789.71L528.08,789.62L525.31,787.06L523.9,786.95L523.57,785.93L522.56,785.9L522.25,785.03L520.11,785.31L518.93,784.25L515.92,784.66L512.77,783.34L508.97,782.98L507.25,782.05L505.32,780.19L504.06,780.17L503.07,779.31L501.59,779.36L500.65,778.69L501.2,777.98L501.34,776.6L500.13,775.28L496.75,775.21L496.5,774.43L495.16,773.88L494.25,775.36L493.57,775.24L492.2,775.79L491.54,774.57L492.42,773.61L492.44,772.68L491.31,772.36L490.1,770.36L488.44,770.31L487.29,771.83L484.38,773.38L483.73,774.25L484.11,775.03L483.85,777.42L482.92,777.7L481.57,779.17L479.8,779.68L478.48,779.32L477.74,780.83L476.16,779.54L476.25,780.24L476.94,780.77L476.01,783.09L474.2,782.81L475.63,781.15L475.54,780.53L473.54,779.7L472.16,778.51L471.64,779.45L472.38,780.56L471.67,781.64L470.93,781.22L469.7,781.96L468.56,781.15L468.46,782.01L466.31,782.19L465.89,783L466.78,783.14L466.71,783.65L466.15,784.02L464.11,784.02L460.6,788.6L460.57,791.97L458.28,790.68L458.54,789.37L458.18,789.25L458.27,787.24L457.92,786.81L457.2,787.98L455.85,788.6L455.69,789.69L456.08,790.5L455.37,791.51L452.15,790.87L449.75,789.35L448.66,785.95L448.6,784.45L446.87,780.37L446.87,780.37L447.71,779.54L448.53,777.54L444.97,777.22L445.38,776.43L445.69,776.74L446.06,776.37L446.63,776.94L449.52,771.6L444.2,767.14L446.8,762.94L449.22,760.87L450.16,759.47L449.72,757.2L449.15,756.77L448.66,757.09L448.68,755.32L448.11,755.25L447.42,756.45L446.94,756.4L446.91,754.59L445.85,752.6L444.92,751.82L445.26,750.63L445.85,750.76L446.29,750.1L447.45,750.42L448.11,749.35L449.16,749L448.56,747.81L448.64,746.26L448.05,745.8L449.31,745.38L449.36,743.3L448.2,742.32L447.42,742.37L446.19,743.56L445.57,743.28L444.55,743.55L444.17,744.26L443.89,744.04L443.67,742.05L443.15,741.41L442.24,741.43L442.09,740.13L441.65,739.99L442.96,738.44L442.98,737.8L441.9,735.56L442.1,734.48L441.44,733.37L441.53,732.73L443.61,731.33L441.98,728.87L439.8,728.76L439.14,728.08L438.66,728.3L437.4,727.12L439.42,726.37L439.99,724L441.7,722.45L441.78,721.24L441.22,720.49L441.38,719.19L439.82,717.9L440.88,715.73L441.62,715.6L442.15,716.53L443.12,716.73L445.31,715.5L447.13,715.46L447.57,716.05L448.2,715.99L448.31,714.21L449.5,713.21L450.36,713.41L450.87,714L452.9,713.62L453.15,713.14L454.66,713.73L455.39,712.76z"/>
		<path id="EE-67" title="Pärnumaa" class="land" d="M212.46,677.33l1.91,0.56l-1.1,3.03l0.32,1.44l-0.77,1.35l0.23,0.59l-1.02,0.99l-0.58,1.76l-1.22,-0.02l-0.71,0.68l-0.56,-0.34l-1.13,-3.44l0.99,-4.02l-0.36,-0.34l0.49,-0.84l-0.22,-0.57L212.46,677.33zM225.55,664.82l-0.46,0.2l-0.93,2.82l-2.14,0.61l0.42,-1.74l0.27,0.52l0.77,-0.27l0.49,-1.56l0.85,-0.11l0.26,-1.04l1.09,-1.22L225.55,664.82zM191.83,643.71l0.1,0.65l0.8,0.6l-0.05,1.05l-2,-2.35l0.34,-1.3L191.83,643.71zM224.81,578.72l5.23,4.5l4.5,-1.57l4.64,2.17l6.59,1.46l3.01,1.48l0.37,-1.17l2.54,-1.86l1.35,-0.82l2.77,-0.8l1.31,-1.64l0.91,-4.54l3.72,-2.14l0.79,-1.51l0.95,-0.66l0.68,-0.07l0.85,0.53l2.39,2.57l-1.59,1.59l-0.14,0.56l0.44,0.13l0.14,0.91l2.71,-0.4l0.86,-0.82l5,-2.39l2.42,-4.75l2.41,1.13l1.53,-0.6l1.19,1.32l1.08,0.13l1.9,1.31l2.44,-0.8l0.67,0.84l1.58,-0.4l1.47,-2.25l2.73,-1.73l0.67,0.8l1.28,0.4l0.17,0.75l1.64,0.53l1.48,1.77l-1.14,5.57l0.18,2.42l0.43,1.97l0.41,0.16v1.28l0.65,0.97l-0.16,0.44l0.83,0.29l0.65,-0.6l0.71,-0.04l0.73,-3.39l0.97,-0.36l0.48,-2.17l0.25,-0.42l1.15,-0.15l0.74,-1.82l1.34,0.29l0.65,-1.04l0.98,-0.15l-0.03,0.91l0.93,0.33l1.72,-0.46l0.46,-1.62l1.38,-1.02l-0.52,-0.68l1.1,0.16l0.26,0.62l4.63,0.37l2.54,0.69l1.18,-0.8l3.44,-0.33l0,0l0.46,0.37l4.91,0.48l4.59,2.54l-4.56,13.28l-1.12,0.91l0,0l-3.07,1.6l0.26,0.36l-0.57,1.97l0.48,0.27l0.47,-0.95l0.38,0.35l0.15,3.2l0.67,1.2l-0.25,1.11l1.36,0.62l0.02,0.44l-1.26,0.47l-2.95,0.07l-1.36,0.62l-0.26,0.38l0.62,1.07l-0.61,0.38l-0.59,-0.15l-0.41,0.82l0.06,1.44l-0.4,0.62l0.61,0.13l-0.22,0.85h-0.63l-0.77,1.05l-0.41,0.04l0.05,-1.22l-0.81,0.04l-2.41,2.83l-2.35,0.93l-1.56,-0.25l-0.88,1.94l-1.07,-0.25l-2.49,0.76l-0.4,2.61l-1.85,1.05l0.53,8.91l-1.74,2.33l-1.25,-0.65l0.28,4.99l-1.48,9.81l0.83,3.74l5.61,-1.25l4.61,1.62l0.58,-0.18l0.11,-0.6l0.56,2.33l1.4,-1.12l1.74,-0.38l1.6,0.97l2.35,5.25l8.2,1.35l0.37,3.84l0.46,0.49l-1.31,0.22l-1.37,0.85l-0.19,0.56l0.03,0.74l0.6,0.32l0.54,1.35l0.2,1.37l-0.55,0.7l0.51,2.81l-0.4,0.81l-1,-0.02l-0.02,1.35l-0.57,-0.32l-0.32,-1.17l0.27,-0.11l-0.58,-0.7l-0.57,-0.07l-1.02,0.72l-0.09,0.9l-1.02,0.49l-2.68,-0.52l-1.78,1.13l-0.06,1.01h1.36l-0.34,1.83l-1.22,0.02l-0.46,0.59l-0.09,1.6l0.27,0.45l0.51,-0.16l0.09,1.22l-0.77,0.27l0.09,0.7l-0.54,0.22l-0.6,-0.09l0.54,-1.47l-0.57,-2.03l-0.74,-1.26l-0.75,0.72l-0.08,1.35l0.81,1.33l-0.55,1.02l-1.28,-0.22l-0.06,1.58l1.32,1.65l0.8,-0.25l0.73,0.74l-0.62,3.03l-0.48,-0.12l0.09,-1.06l-1.02,-0.02l-0.47,1.18l-0.97,-1.24l-3.9,-0.05l-0.25,1.69l0.93,1.35l-3.84,2.15l-0.94,2.24l-0.03,1.08l1.43,0.77l0.48,3.76l0.46,-0.21l0.11,1.07l0.48,0.43l0,0l-2.31,3.58l-1.13,1.02l-1.43,0.66l-3.91,-0.29l-9.83,6.51l-1.66,0.45l-2.12,-3.11l-6.26,1.39l-0.09,3.16l-2.68,0.61l-2.07,2.54l-1.72,-2.12l-2.35,0.21l-0.5,0.22l0.12,1.05l-1.59,1.93l-0.52,-0.07l-1.39,-1.78l-2.2,-1.71l-1.43,1.57l-2.03,0.5l-0.58,0.86l-1.86,-0.16l-0.6,1.87l-0.69,0.09l0.12,0.8l-4.57,1.09l-1.52,2.59l0.1,0.36l1.25,0.43l-0.67,1.55l0.65,3.14l-4.45,2.46l-0.32,0.02l-0.37,-1.1l-3.4,-0.62l-1.34,0.16l-0.3,-0.68l0.72,-1.09l-0.03,-1.8l1.26,-2.48l0.47,-1.98l0.81,-0.62l0.17,-4.89l1.28,-2.52l0.25,-2.45l1.57,-3.79l0.55,0.07l1.67,-1.81l0.39,-2.95l1.19,-2.61l1.82,-5.77l0.04,-2.22l-0.55,-0.64l0.51,-0.52l-0.3,-0.61l-1.02,-0.61l-0.05,-0.77l0.89,-1.25l0.26,-1.56l-0.4,-1.02v-0.82l0.09,-0.5l0.8,-0.2l-1.05,-1.96l0.65,-1.15l-0.23,-1.13l-0.84,-1.02l-0.14,-2.3l-0.46,-0.5l-0.83,0.74l1.39,-5.21l0.48,-0.9l-0.89,-0.99l1.52,-1.58l-0.39,-0.76l0.76,-1.87l-0.3,-0.99l-1.17,-0.76l0.31,-0.63l1.11,0.22l0.7,-1.76l2.05,-0.72l1.23,-1.33l2.62,-1.37l2.4,-2.77l0.68,-1.21l0.18,-3.7l-0.6,-2.27l-1.39,-1.95l-3.11,-4.42l-0.62,0.04l-3.53,-1.3l-0.64,-1.39l-0.53,-0.25l-0.6,0.16l-1.34,-0.2l-0.94,-0.25l-0.92,-0.49l-2.02,-0.13l-2.29,0.45l-5.62,0.16l-1.97,0.8l-0.94,0.92l-0.81,1.99l-0.05,3.21l-0.47,1.79l0.32,1.86l-0.95,2.42l-0.24,2.85l-1.29,2.27l0.66,1.21l-0.6,0.34l-3.17,0.38l-1.08,0.74l-0.55,-0.29l-0.78,0.18l-0.78,-0.11l-1.45,1.01l-1.06,-1.12l-0.47,0.81l0.25,0.36l-1.09,0.47l0.24,0.63l-0.67,0.85l-0.83,0.06l-0.46,0.36l-0.46,1.15l-1.33,0.67l0.16,1.67l-0.6,0.52l-0.32,-1.96l-2.33,-1.12l-1.45,-0.9l-1.01,-2.09l-0.35,-2.02l-0.65,-0.32l-0.71,-1.33l-0.28,-1.96l-0.96,-1.46l-0.37,0.22l-0.37,-0.34l-1.19,-3.23l-1.04,-0.05l-0.23,0.29l0.6,2.74l-0.3,1.53l-1.2,-2.52l-0.74,-0.49l0.1,0.49l-0.02,0.88l-0.72,-0.77l-0.06,-0.9l-0.52,-0.16l-0.65,-1.41l-0.82,-0.7l-1.02,0.18l-0.33,0.87l-2.36,-1.7l-0.44,2.76l-0.44,0.23l-1.68,-1.46l-0.79,-0.05l-2.28,-4.77l-1.47,-1.97l-1.02,0.49l0.11,1.26l-0.62,0.43l0.55,1.57l-1,0.23l-1.68,-1.46l-0.66,0.56l-0.47,-0.32l-0.03,-0.67l-0.7,-0.09l-0.96,-1.26l-0.25,0.27l-0.35,1.35l-0.02,0.6l0.19,1.66l-1.23,-0.51l-1.33,-2.13l0.56,-0.6l-0.03,-1.66l-0.83,-1.03l0.03,-0.92l-0.8,-0.98l0.03,-0.52l-1.03,-0.99l-0.17,-2.19l-0.76,-1.28l0.03,-0.87l-1.56,-2.41l-0.27,-1.75l-0.43,-0.72l-0.48,-1.74l0.1,-0.81l0.45,-0.2l0.23,-1.63l-0.26,-0.51l0.15,-2.3l0.68,-1l-0.17,-1.43l-0.84,-0.25l0.42,-1.45l0.57,-0.15l-0.07,-1.05l-1.07,-0.76l0.41,-0.58l-0.38,-0.47l0.86,-0.49l-0.01,-0.34l-0.81,-0.14l0.48,-0.85l-0.98,0.47l0.16,-1.12h-0.46l-0.41,0.45l-0.66,1.09l0.38,0.65l-0.84,0.56l-0.45,-0.09l0.13,-0.85l-1.12,0.24l-0.39,-0.83l-0.81,-0.29l-0.52,-1.11l-0.84,-1.22l-0.41,0.44l0,0l1.72,-2.31l0.76,1.02l1.62,0.58l1.41,-1.47l2.46,-0.44l1.62,0.16l1.7,1.87l1.29,0.64l1.11,-1.4l2.05,0.8l0.83,-1.36l1.49,-0.8l1.42,-0.16l0.59,-1.62l1.57,0.93l0.41,-0.27l1.5,0.62l0.88,-1.05l1.22,0.58l1.88,-0.24l1.57,1.09l-0.04,-2.45l-0.92,-0.71l-1.33,-2.05l-2,-4.47l-0.19,-0.87l1.48,-0.91l-0.9,-2.98l-1.34,-1.66l0.65,-0.38l2.21,1.89l-0.21,0.91l3.66,2.66l1.61,0.42l1.01,-1.71l0.24,-1.25l2.84,-1.42l-0.05,-2.84l-0.63,-2.46l-0.61,-0.44l-0.1,-2.3l0.36,-0.49l1.85,-1.06l0.95,0.95l0.2,1.08l3.36,0.68l-0.33,-0.82l4.49,-1.29l0.42,0.49l2.53,-2.06L224.81,578.72z"/>
		<path id="EE-59" title="Lääne-Virumaa" class="land" d="M399.15,406.23l1.11,-0.43l-0.24,0.86l0.71,0.02l-0.16,0.41l0.45,0.28l0.5,-0.28l-0.14,0.64l-0.61,-0.11l-0.36,0.66l0.96,0.49l0.12,-0.37l0.39,-0.09l-0.46,1.03l0.64,0.62l0.69,-0.13l1.64,-1.37l0.31,-1.37l0.42,0.02l0.29,0.86l0.8,0.06l1.54,-1.09l-1.02,1.52l0.01,0.68l0.41,-0.21l0.85,0.92l0.35,0.67l0.06,0.69l1.65,0.73l0.83,-0.19l1.08,0.67l0.07,0.47l-0.5,-0.51l-1.03,0.62l0.1,0.88l1,1.37l1.76,-0.26l2.77,0.51l7.24,-0.77l4.5,0.43l0.76,1.18l0.47,-0.07l0.65,1.35l1.17,0.38l2.34,2.69l1.1,0.19l2.4,-0.43l1.01,1.16l4.62,0.54l0.2,0.52l1.09,0.04l-0.18,0.97l1.93,1.25l1.1,-0.09l0.28,0.77l0.5,0.28l0.23,0.95l1.37,0.93l0.26,0.64l1.16,0.45l0.46,-0.6l-1.2,-0.88l1.42,0.23l2.8,-0.88l0.02,0.6l0.54,0.28l2.33,-0.82l1.65,-3.08l-0.2,-0.99l-1.74,-1.14l1.75,0.45l0.2,-1.29l0.6,1.09l0.76,-0.24l0.12,-0.41l1.42,0.45l0.4,0.8l2.31,-0.02l0.84,1.08l0.13,0.3l0.71,0.45l2.13,0.09l1.25,1.33l1.09,0.09l-0.05,1.01l0.6,0.82l0.5,-0.54l0.72,0.54l0.98,-0.65l0.43,0.39l-0.29,0.78l0.45,0.3l-0.66,0.88l0.43,0.26l-0.09,0.41l1.32,0.43l-0.05,0.71l0,0l-0.37,0.75l0.57,0.62l-0.21,0.49l0.95,0.73l-0.13,1.46l1.03,1.16l0.71,1.81l-0.1,5.41l0.73,2.57l0.07,2.35l-2.16,-0.37l-1.26,-1.66l-2.64,1.23l-0.27,0.3l1.28,1.02l-0.48,0.24l1.86,3.37l-0.93,0.47l0.51,0.6l-0.7,-0.02l-0.06,0.8l-2.63,1.1l-1.22,1.75l0.25,0.56l0.97,0.32l0.68,-1.15h0.61l1.1,1.49l3.46,-0.5l2.37,1.28l0.18,0.82l1.4,0.11l-0.83,1.69l-1.8,-0.46l-0.45,1.75l-0.91,-0.22l-1.11,4.27l-1.15,1.73l-1,0.57l0.65,0.85l-0.77,4.25l1.01,-0.06l0.85,4.97l8.08,-4.47l0.65,5.19l-0.68,0.91l3.51,2.07l3.43,1.09l0.83,0.91l1.09,2.48l-1.02,2.07l0.63,0.72l1.19,-0.15l0.46,3.03l-1.1,0.06l-0.44,3.35l0.44,0.8l-0.66,1.02l-1.98,0.09l-0.34,-1.16l-0.95,-0.72l-0.41,1.35l-3.51,0.41l-1.42,2.35l-1.29,0.9l-0.82,-0.68l-0.3,0.15l-0.96,15.23l1.32,0.83l-0.03,0.66l-0.05,0.46l-1.94,1.36l-0.11,2.52l0.53,1.66l-0.23,1.25l-1.82,2.5l-4.59,0.81l-0.61,1.14l-1.81,1.01l0,0l-0.75,-0.04l-0.33,-0.99l-0.9,0.17l-6.13,2.66l-2.46,1.98l-3.3,1.6l-2.15,-0.11l0.46,-0.66l-0.29,-1.17l-1.19,-0.75l-3.8,0.68l0.19,0.99l-1.73,0.81l0.29,2.02l-1.78,0.31l0.84,3.14l-0.2,0.66l-1.42,0.5l0.16,1.65l-2.53,0.51l-0.65,0.48l0.1,0.88l-0.61,0.39l-1.19,-0.42l-2.2,0.35l-0.28,-0.79l-0.69,0.13l-0.28,-1.6l-0.79,-0.48l-0.66,-1.71l-0.72,-0.13l-0.36,-0.66l0.82,-0.51l-0.61,-2.33l-2.55,0.11l-1.55,0.57l-0.69,1.3l-0.74,-0.75l-0.9,0.24l-0.31,2.7l-2.09,0.73l-8.3,0.81l0,0l-0.59,-0.51l0.02,-1.1l0.36,-0.18l-0.13,-0.55l0.62,-0.79l0.71,-2.5l-1.04,-2.29l0.48,-3.25l-1.26,-0.5l-0.61,-1.52l0.24,-1.1l-0.97,-0.99l0.48,-2.44l-0.59,-0.77l-0.86,-0.02l-2.96,-1.8l-0.51,-2.5l-2.53,-0.79l-1.07,-4.79l-1.22,-1.33l-0.97,-0.59l-3.27,0.76l-1.65,-2.05l-1.34,-0.98l-0.08,0.98l-1.23,1.05l-1.42,-1.86l-0.9,1.66l-0.88,-1.81l2.11,-2.49l0.09,-1.71l0.49,-0.09l-0.45,-2.45l0.81,-0.65l0.09,-1.53l1.38,-1.48l1.6,0.11l0.38,-3.84l0.68,-1.4l0.27,-0.5l1.57,-0.29l0.82,-1.31l-0.9,-4.36l-0.51,0.33l-0.76,-0.68l-1.66,1.31l-1.68,-1.66l-1.92,-0.02l-0.05,-0.81l1.04,-0.61l-0.82,-1.28l1.51,-0.7l0.98,-2.22l-1.93,-1.28l-1.84,0.85l-0.23,-1.28l0.7,-4l-1.7,0.13l-1.03,-0.43l-0.04,-1.3l1.35,-0.44l-0.35,-1.59l0,0l3.1,-0.5l0.9,-0.76l-0.79,-1.41l0.36,-1.02l-1.17,-3.6l0.46,-1l-1.02,-4.77l0.28,-1.73l-0.69,-2.88l-0.96,-1.88l-1.89,-2.06l-0.16,-2.16l-1.1,-1.08l0.54,-0.69l-0.5,-0.91l1.18,-2.14l-0.06,-0.74l-0.84,-1.08h-0.6l-0.24,-1.51l-1.9,0.19l-1.26,-0.32l-1.48,-11.47l-1.33,-2.5l0.09,-0.62l-1.6,-0.45l0.17,-1.25l-0.48,-1.66l3.39,-1.4l0.9,-1.57l-1.01,-1.53l0,0l1.81,-1.33l0.63,0.6l1.31,-1.01l0.24,-2.53l-0.69,-1.03l0.53,-1.24l-0.65,-2.53l0.3,-2.42l1.02,1.61l2.93,0.3l0.46,-0.47l1.01,3.02l-1.25,1.82l-0.04,1.27l0.59,0.69l1.31,0.66l1.77,0.06l1.83,-0.84l0.7,-1.09l0.1,-1.57l-0.5,-0.56l0.28,-1.7l-1.22,-5.32L399.15,406.23z"/>
		<path id="EE-39" title="Hiiumaa" class="land" d="M125.45,566.91l0.08,0.8l-1.31,-0.62l0.76,-0.62L125.45,566.91zM122.62,564.57l-0.64,2.01l-0.07,-0.77l-1.1,-0.97l0.76,-0.26l-0.21,-0.95l0.39,-0.26l1.01,0.64L122.62,564.57zM105.5,562.71l1.19,0.66l-0.24,0.18l0.42,0.81l-0.5,0.62l-0.07,-0.68l0.28,0.04l-0.34,-0.53l-0.3,-0.04l-0.26,0.09l-0.48,0.17l0.05,-0.38l0.07,-0.33l-0.5,-0.06L105.5,562.71zM116.44,557.46l0.48,1.67l1.53,0.62l0.23,1.74l-0.42,0.4l0.07,0.57l-0.58,-1.28l0.1,-0.73l-1.46,-0.97l-0.67,-0.95l0.19,-1.01L116.44,557.46zM105.08,555.55l0.89,0.07l-0.16,0.73l1.01,0.42l-1.76,1.3l0.25,0.29l-0.33,1.37l0.41,1.15l0.68,0.06l0.1,0.53l-0.42,0.07l0.54,0.75l-0.28,0.29l-0.61,-0.29l-0.75,0.62l0.13,-0.79l-1.05,0.33l-0.29,-0.33l-0.75,0.84l0.48,1.04l-0.87,-0.11l-0.3,-0.66l-0.61,0.18l-0.05,0.91l-0.34,-0.31l-0.83,1.66l0.5,0.4l0.05,0.81l-0.46,-0.53l-0.83,0.26l-0.53,-0.69l0.49,0.04l0.41,-1.26l-0.71,-0.15l0.01,1.04l-0.28,-0.26l-0.58,0.35l-0.42,-0.42l-0.57,0.33l0.12,-1.08l-0.52,-0.48l0.01,-0.38l-0.93,-0.58l-1.38,-3.35l0.91,0.33l1.48,2.25l0.67,-0.49l-0.65,-0.73l-0.48,0.07l-0.02,-0.55l0.9,0.11l-0.13,0.36l0.35,0.28l1.65,-0.79l0.35,-0.84l0.01,-2.6l0.57,0.24l0.73,-0.88l0.48,-0.02l0.66,0.9l1.1,0.22L105.08,555.55zM123.87,555.19l0.88,1.59l-1.08,2.69l-0.88,-0.99l0.77,-0.55l-0.08,-0.71l0.62,0.15l-1.05,-2.14L123.87,555.19zM129.34,553.54l0.36,0.49l1.09,0.22l0.07,0.93l-0.49,-0.16l-1.31,0.95l-0.75,-0.73L128,553.69l0.83,-0.69L129.34,553.54zM117.41,535.94l0.79,0.24l0.53,1.12l0.4,-0.31l0.09,0.39l1.87,0.99l0.48,2.2l-1.03,1.21l-0.07,0.61l-1.96,-2.26l-0.03,-2.59l-1.17,-0.92L117.41,535.94zM78.79,507.67l0.9,-0.05l1.6,1.22l3.47,-1.16l3.83,2.82l0.3,0.66l-0.95,0.61l-0.42,3.74l0.67,1.73l-0.25,1.16l0.52,0.61l-0.25,1.03l1.52,2.25l2.4,0.63l1.78,-0.86l0.31,0.5l1.74,0.42l0.98,0.75l0.94,-0.04l1.06,0.59l1.15,-0.39l1.35,0.86l0.4,-0.33l-0.43,-0.48l0.82,-0.85l1.25,1.14l0.95,-0.02l-0.14,0.66l1.16,1.12l-0.06,1.18l0.95,0.31l0.34,0.7l0.9,-1.01l0.4,0.46l0.06,-0.79l0.33,-0.02l-0.21,0.83l0.43,-0.13l-0.27,0.64l0.88,-0.18l0.4,0.33l1.85,-1.42l0.44,0.15l-1.14,1.89l0.57,1.49l1.9,1.31l-0.16,0.59l-1.59,-0.13l-0.18,0.88l0.37,0.13l0.23,1.36l2.12,2.46l0.8,2.07l1.14,0.72l1.41,-0.4l0.43,1.3l1.73,1.78l0.37,0.9l-0.37,0.4l0.68,1.08l-0.57,0.9l2.33,2.44l0.28,0.88l-0.39,0.57l2.15,3.94l-1.01,1.19l-3.08,1.23l-0.51,-4.08l-0.83,0.49l-0.08,0.68l-1.15,0.66l-0.22,-0.71l-1.27,-0.99l-1.47,-0.77l-0.97,-0.06l-0.16,0.6l-1,0.17l-0.24,0.66l1.31,2.14l-0.36,0.86l-1.9,-0.81l-0.65,-1.1l0.23,-0.66l-0.18,-0.35l-0.36,0.24l-0.28,-0.84l-0.61,0.82l0.01,0.48l0.81,0.18l-0.37,1.5l-0.6,0.46l0.56,0.04l0.14,0.68l-0.37,0.38l-0.88,-0.4l-0.39,-1.19l-1.53,-0.11l-2.3,-1.17l-0.08,1.54l-2.5,0.4l-0.41,0.59l-0.57,-0.77l-1.17,0.49l-0.52,0.66l-0.86,0.29l-0.08,0.91l-0.6,-0.38l-0.26,-0.82l-0.66,0.53l-0.12,-0.38l-0.68,0.02l-0.37,0.46l0.57,1.52l-0.89,-0.6l-0.31,-0.16l0.25,-0.71l-0.49,0.22l-0.39,0.59l0.2,0.81l-0.81,0.81l0.88,0.35l0.4,1.96l-0.79,-0.55l-0.83,-1.68l-1.16,-0.6l0.16,1.13l-0.91,0.48l-0.46,1.28l0.22,0.91l-0.9,1.57l0.16,0.29l0.77,0.18l0.52,0.53l-0.85,0.82l0.1,0.46l-0.45,0.06l-0.08,0.99l-3.02,5.95l-1.45,5.16l-0.32,-0.16l-2.27,1.04l-2.71,-0.16l-2.17,0.93l-2.07,0.33l-3.51,-1.37l-0.74,0.53l-0.15,-0.49l-4.06,-2.12l0.62,-0.24l-0.18,-1.08l-1.21,-0.11l-0.34,-0.44l0.81,-0.24l-0.9,-0.4l0.03,-0.56l1.03,0.29l0.45,-0.71l1.74,0.18l0.64,-0.31l0.13,-0.97l-1.17,-1.59l-0.89,-0.29l0.38,-0.57l-0.65,-1.08l-1.45,-0.46l-0.59,0.26l0.1,-0.6l0.54,0.07l0.28,-0.62l0.77,-0.24l0.31,-1.53l-0.24,-1.24l-0.67,-0.95l-1.19,-0.31l-0.98,-1.06l-0.54,-0.04l0.27,-1.06l1.44,-0.95l0.13,-0.58l-0.79,-0.6l0.23,-0.33l-2.26,-0.05l2.26,-0.62l0.1,-0.55l-0.96,0.06l0.64,-0.57l0.28,-2.1l-0.36,-2.64l-0.43,-0.99l-0.86,-0.49l0.06,-0.62l-0.62,-0.18l0.25,-0.84l-0.93,-2.05l-3.06,-3.72l-2.95,-1.3l-3.52,0.77l-0.65,0.75l0.07,0.81l-0.53,-0.37l-0.64,0.68l-0.39,-0.16l0.14,-0.57l-2.06,-1.03l-1.73,0.81l-0.1,0.72l-0.52,0.39l-2.35,-0.15l-0.64,0.51l-0.91,-0.18l-0.8,0.44l-1.56,-0.29l-0.15,-0.44l-1.85,0.2l-0.46,-0.95l-0.49,-0.44l-0.61,0.07l-0.57,-0.95h-0.96l-0.38,-2.33l-4.6,-1.73l-1.96,-0.18l-0.46,-0.79l-0.77,0.5l-1.37,-1.54l0.77,-0.53l0.34,-1.34l-0.74,-0.6l1,-0.5l1.17,0.28l0.51,-0.4l0.11,-0.09l1.28,-0.39l0.22,0.55l1.54,0.66l2.61,-0.26l0.93,0.75l5.89,0.77l1.35,-0.53l1.88,0.2l1.34,-1.25h0.73l1.37,-0.94l2,0.7l1.53,-0.97l3.84,1.94l0.59,0.46l1.46,0.55l2.06,-0.33l1.74,-1.93l0.77,-1.71l0.14,-1.38l-0.96,-0.55l-0.01,-0.61l1.02,-0.02l0.66,1.31l0.93,0.64l1.11,-0.35l-0.23,-1.41l0.65,1.05l1.19,-0.35l-0.26,-0.86h-0.68l-1.93,-3.03l-0.1,-1.82l2.34,0.77l0.49,-0.11l0.2,-0.42l0.53,0.46l-0.05,0.35l-0.23,0.59l1.37,0.98l1.41,-1.05l-0.99,0.09l-0.12,-0.63l-0.75,-0.53l0.08,-0.68l1.29,-1.08l-1.29,-0.61l0.72,-0.46l-0.71,-0.81l0.86,0.11l-1.36,-1.03l0.5,-0.13l-0.38,-1.34l-0.4,-0.11l0.4,-0.33l0.91,0.52l0.11,-0.61l0.96,0.55l1.75,0.24l1.64,0.96l-0.2,-0.86l0.69,-0.11l-0.02,-0.63l-0.6,-0.11l-0.04,-0.4l-0.29,-0.63l2.07,-0.06l0.39,0.42l0.88,-0.26l0.31,0.26l0.97,-1.01l-0.11,-4.61l0.7,-4.7l-0.19,-0.89L78.79,507.67z"/>
		<path id="EE-57" title="Läänemaa" class="land" d="M159.57,554.42l2.15,1.67l1.02,0.04l-0.09,0.48l-0.12,1.19l-0.46,0.15l-0.9,-0.24l-0.35,0.9l-1.53,-1.43l-0.25,-1.21l-0.45,-0.29l0.06,-0.81l0.54,-0.27l-0.09,-0.4L159.57,554.42zM155.2,553.27l0.48,0.37l-0.05,-0.53l0.49,-0.02l-0.27,2.22l-0.42,-1.01l-1.03,-0.99l0.53,-0.88L155.2,553.27zM154.19,551.58l0.13,1.08l-0.33,0.35l-1.04,-1.37l0.62,-0.35L154.19,551.58zM143.86,533.66l0.43,-0.04l0.76,1.43l-0.91,0.06l-0.13,-0.64l-0.58,-0.39l0.16,-0.88L143.86,533.66zM142.12,533.18l1.16,0.68l-0.85,-0.2l-0.23,0.46l-0.38,-0.75l0.09,-0.37L142.12,533.18zM154.07,532.08l0.29,0.39l-0.43,3.44l-0.5,-0.68l0.32,-1.32l-0.36,-0.9l0.24,-0.81L154.07,532.08zM136.01,516.3l2.35,0.88l0.34,-0.04l0.14,-0.76l2.48,0.81l-0.32,1.25l1.01,0.02l0.85,0.98l-0.03,0.88l0.81,-0.15l0.36,-1.64l0.36,0.94l0.5,0.17l0.52,-1.69l0.92,-0.77l0.83,1.66l0.47,-0.28l0.1,-0.64l0.47,-0.4l0.37,0.35l0.2,-0.72l1.28,1.23l0.46,1.4l1.06,0.18l-0.12,0.81l0.69,0.41l-0.12,1.18l2.23,2.72l-1.18,3.37l-0.68,-0.07l-1.17,-0.94l-0.61,-0.61l-0.66,0.68l-1.05,-0.28l0.08,-1.34l-0.39,0.35l-0.15,1.36l0.38,0.61l-0.56,1.01l-0.59,-0.61l-0.56,0.57l-0.31,-0.73l-0.58,0.7l-0.03,-0.9l-0.68,0.75l-0.76,-0.22l0.03,1.62l0.25,0.85l2.05,0.66l-0.11,0.09l-2.26,-0.2l-2.92,-3.45l-1.82,-1.16l-0.5,-0.06l-1.23,-0.37l-0.28,0.55l-0.12,1.95l0.62,1.4l-0.62,-0.04l-0.49,-0.29l-0.45,-0.02l-0.78,-1.16l-0.7,-0.31l0.19,2.5l-0.56,0.18l-0.31,-1.6l-0.37,0.15l-0.17,1.23l-0.6,0.15l-0.43,-0.22l-1.4,-2.89l0.54,-0.61l1.26,0.33l0.02,-1.21l-0.4,-0.05l-0.84,-0.28L131,524.77l-0.23,-1.29l-1.26,-0.4l-0.08,-0.68l-0.77,-0.77l-0.3,-2.45l0.36,-0.99l0.55,0.04l0.4,-0.66l-0.07,-1.14l1.12,0.61l0.48,-0.13l1.11,-0.87l0.68,-1.38l1.79,0.52l0.75,0.81L136.01,516.3zM180.18,477.98l0.33,0.07l-0.19,0.48l0.56,0.09l-0.08,1l0.54,0.63l2.07,1.24l1.44,-0.2l1.89,-1.35l0,0l0.15,5.72h4.72l0.07,5.94l4.72,-0.15l1.2,1.79l-0.16,1.17l2.13,-0.28l4.27,5.8l0.44,-1.13l1.38,-0.42l0.7,0.54l1.21,-1.03l8.2,0.76l2.79,0.83l5.22,3.03l0.22,1.46l-0.93,1.4l-0.79,0.11l0.79,1.72l-0.83,0.3l1.45,1.72l0.02,0.66l2.75,1.66l0.23,1.51l0.94,0.22l0.38,0.55l-7.45,7.37l-0.13,2.06l0.71,2.45l0,0l-0.89,2.7l-1.28,1.07l1.42,2.79l-0.34,0.48l0.28,0.96l0.69,1.56l1.73,2.22l2.31,1.1l-0.55,1.67l0.59,1.76l-0.71,1.38l1.62,0.7l0.61,-0.29l0.2,0.92l-0.73,0.51l-0.22,0.77l1.52,1.05l-0.19,1.39l-0.33,0.18l1.99,1.32l-0.5,1.47l1.22,-0.55l0.52,0.33l0.46,1.34l-0.56,2.33l-4.17,-0.66l-0.67,0.6l0.53,0.57l-0.05,0.82l-0.24,1.19l-1.14,1.92h0.52l1.07,2.09l2.06,0.06l0.13,1.04l-2.77,0.57l-0.02,0.4l-2.63,2.16l-0.77,1.37l-1.45,-0.16l-0.62,0.53l-0.28,1.75l0.23,0.42l0.48,-0.49l0.6,1.3l0.61,0.15l1.62,-0.84l1.23,1.72l1.26,-1.73l1.11,-0.73l0.89,1.26l0.74,1.79l-0.83,0.59l-0.1,1.04l-2.5,5.2l0,0l-1.22,1.62l-2.53,2.06l-0.42,-0.49l-4.49,1.29l0.33,0.82l-3.36,-0.67l-0.2,-1.07l-0.95,-0.95l-1.85,1.06l-0.36,0.49l0.1,2.3l0.61,0.44l0.63,2.46l0.05,2.84l-2.84,1.42l-0.24,1.25l-1.01,1.71l-1.61,-0.42l-3.66,-2.66l0.21,-0.91l-2.21,-1.89l-0.65,0.38l1.34,1.66l0.9,2.98l-1.48,0.91l0.19,0.87l2,4.47l1.33,2.05l0.92,0.71l0.04,2.45l-1.57,-1.09l-1.88,0.24l-1.22,-0.58l-0.88,1.05l-1.5,-0.62l-0.41,0.27l-1.57,-0.93l-0.59,1.62l-1.42,0.16l-1.49,0.8l-0.83,1.36l-2.05,-0.8l-1.11,1.4l-1.29,-0.63l-1.7,-1.87l-1.62,-0.16l-2.46,0.44l-1.41,1.47l-1.62,-0.58l-0.76,-1.02l-1.72,2.31l0,0l-1.36,-0.49l0.73,-1.27l-1.2,-0.73l-0.41,0.27l-0.28,-0.38l-0.69,0.94l0.65,-2.49l-0.38,-0.76h-0.49l0.15,0.51l-0.65,-0.18l-0.1,-0.69l0.72,-0.76l-0.17,-0.93l0.53,-0.07l0.64,-1.42l-1.9,0.02l-0.19,-1.94l-0.46,-0.44l-1.11,0.4l0.08,0.58l1.29,1.33l-0.36,1.93l-0.85,0.46l0.22,0.62l0.94,0.06l-0.52,0.47l0.43,0.62l-0.53,1.07l-0.85,0.49l0.37,-1.85l-0.35,-0.44l-0.32,0.42l-0.89,-0.55l-0.46,-0.27l-1,0.22l-0.65,0.8l-0.98,-1.91l0.92,-0.74l1.07,-0.11l-0.17,-0.89l0.85,-2.58l0.29,0.29l0.38,0.26l0.48,-0.51l-0.28,-0.84l-0.46,-0.13l-0.59,0.6l-0.18,-0.29l0.43,-3.02l-0.48,-0.04l-1.02,-2.58l-0.74,-2.33l0.54,-0.67L165,587.07l0.65,-3.31l-0.97,-0.49l0.51,-1.22l-0.91,-0.4l0.2,-0.78l-0.84,-0.15l2.71,-0.67l0.03,-0.93l-0.59,-0.71l0.39,-1.09l1.73,1.37l3.63,-0.8l0.79,-1l-0.28,-0.16l-0.57,-0.29l-1.26,-0.56l-0.75,-1.06l-0.85,0.24l-0.04,-0.67l-0.89,0.11l0.64,-1.7l-1.08,-0.49l-0.02,-0.46l1.79,-0.27l3.81,2.34l1.5,-0.13l2.15,-1.24l1.26,0.42l0.6,-0.66l0.97,0.86l0.76,-0.09l0.61,-0.58l-1.2,-0.2l0.41,-1.84l1.02,0.55l0.59,-0.99l1.28,0.62l0.71,-0.24l-0.03,-0.49l1.29,1.04l0.75,-0.33l0.46,0.22l1.06,1.15l0.51,-0.15l0.23,-0.58l0.67,1.28l0.64,-0.22l-0.37,1.04l0.84,-0.07l0.07,0.79l0.66,-0.16l0.09,-0.38l0.63,0.11l0.2,0.68l-1.28,0.04l1.74,0.66l0.2,-0.62l1.48,-1.15l1.32,0.6l0.5,-3.76l-0.35,-0.22l-0.66,0.42l-0.46,-0.35l0.42,-1.02l-2.92,0.59l-0.95,-0.58l0.1,-0.42l0.61,0.33l0.48,-0.24l-0.85,-1.02l-0.07,-1.08l0.34,-0.4l-0.65,-0.97l0.15,-0.53l0.84,-0.29l0.14,-0.9l-0.62,-0.22l-0.91,1.28l-0.84,0.2l-0.47,-0.36l0.02,-0.58l-0.7,-0.26l-0.75,-0.38l-0.53,-0.77l-0.79,0.02l-0.61,0.38l-1.06,1.44l-1.27,0.8l-1.68,-0.69l-1.05,0.44l-0.4,-0.8l-0.67,-0.11l-0.56,-0.77l-0.91,0.26l-1.06,-0.36l-3.58,0.99l-0.97,1.41l-1.72,0.75l-0.74,0.04l-3.03,-1.37l-2.61,0.6l-1,0.75h-0.3l-0.3,-0.36l-0.78,0.26l-1,1.24l-0.46,0.13l-0.4,-0.4l1.2,-1.19l0.48,-1.31l-0.28,-0.82l-0.3,0.44l-0.21,-0.33l0.02,-1.55l1.07,0.57l0.91,-0.24l-0.59,-0.44l0.66,-0.37l-0.03,-1.04l0.74,0.44l0.84,-0.88l-1.03,-1.1l0.14,-2.64l1.05,1.12l-0.63,0.04l0.41,1.32l1.04,0.06l1,1.1l1.64,-0.84l0.14,-0.6l0.1,-0.4l0.32,-0.27l-1.04,-0.77l0.32,-1.99l-0.49,-1.34l-1.87,-2.12l-0.29,0.77l-1.09,-1.61l-0.38,-0.31l0.07,-1.32l-1.1,-2.23l-3.08,-2.66l0.15,-0.7l0.85,0.77l0.34,-2.09l-0.26,-0.62l-0.88,-0.28l-0.48,0.84l-0.77,-0.73l-0.59,0.09l-0.02,-0.55l0.4,-0.31l-0.42,-0.73l0.84,-2.16l-0.49,-1.93l0.13,-0.59l-0.16,-0.42l-0.11,-0.48l1.43,0.7l0.65,-0.81l0.6,-0.26l0.62,1.29l1.29,0.81l1.77,-0.81l0.11,-0.44l0.93,-0.11l0.6,-0.73l0.65,-0.02l0.67,0.72l0.51,-0.15l-0.3,-1.95l-0.4,-0.72l-0.57,-1.41l0.86,0.28l0.97,1.75l0.9,0.22l0.8,1.01l1.03,-0.39l0.31,-0.62l0.85,-0.4l1.35,0.39l0.02,-0.94l0.33,-0.4l0.77,-0.02l0.44,-0.53l-0.19,-0.66l-1.78,-1.91l1.37,0.92l0.45,-0.18l-0.09,-0.84l1,0.94l0.3,-0.68l0.53,0.26l0.3,-0.31l1.74,2.26l1.09,0.17l0.3,-0.97l-0.49,-0.9l0.87,0.02l0.03,-1.05l-0.44,-0.55l0.48,-0.55l-0.46,-0.53l-0.76,0.13l-0.09,-0.61l-0.62,-0.4l0.67,-0.75l-1.06,-0.04l-1.68,-1.47l0.22,-0.4l0.93,0.37l0.09,-0.66l-1.57,-1.21l-0.2,-0.61l0.44,-0.24l-1.32,-1.23l-0.39,0.31l0.68,1.33l1.57,1.49l-1.8,0.92l0.86,2.39l0.82,1.05l-0.02,1.07l-1.94,-2.22l-0.57,-2.13l-0.79,0.4l-0.58,-0.24l-0.07,-1.05l-1.13,0.33l-0.27,4.6l0.73,0.63l-0.66,1.45l-0.62,-0.07l-0.43,-0.11l-0.62,-0.5l0.02,0.97l-0.72,-0.79l-1.57,-0.44l-2.03,-1.56l-2.17,1.01l-1.14,-0.13l-2.59,-1.97l-0.38,-0.5l-0.05,-0.53l-1.59,-1.56l0.28,-0.61l-1.05,-1.16l-0.98,-2.61l0.12,-0.48h0.55l1.3,1.27l0.71,-0.07l0.87,0.52l-0.04,-1.27l0.37,0.06l0.39,-0.42l-0.71,-1.29l0.4,-0.9l0.62,0.41l0.01,-0.37l-0.6,-0.35l-0.77,0.72l-0.92,-0.68l0.56,-1.95l-0.46,-2.16l0.54,-2.36l1.17,0.63l0.97,-0.26l2.04,0.41l0.15,-0.57l0.66,0.06l-0.03,-1.2l1.02,-0.39l0.97,-2.06l0.4,-0.11l2.11,1.31l0.6,-0.42l-1.54,-5.26l-0.03,-0.96l0.67,-1.25l-1.15,-0.96l-0.79,-5.43l-0.54,-0.76l-1.32,-0.7l-0.62,-2.92l0.5,-3.59l1.41,-0.15l0.51,-0.83l0.07,-2.44l1.46,0.52l1.14,1.69l3.73,-0.07l2.52,-1.22l1.65,-1.85l1.5,-0.35l1.02,-1.59L180.18,477.98zM151.82,467.6l3.13,1l1.96,1.84l1.1,1.78l-1.53,0.02l-0.16,0.43l0.59,0.78l-0.97,-0.63l-0.64,-1.71l-1.14,-0.61l-0.59,0.04l-0.41,0.28l-1.73,-2.65l-0.01,-0.52L151.82,467.6z"/>
		<path id="EE-82" title="Valgamaa" class="land" d="M409,682.87L410.86,683.79L412.86,683.09L413.43,684.63L414.02,683.36L414.41,683.68L416.1,682.8L416.55,684L422.23,684.69L428.12,684.85L429.4,680.67L430.1,680.94L431.88,680.67L433.59,681.53L437.29,674.31L439.64,675.48L440.7,674.88L440.98,675.32L440.75,675.87L441.18,676.18L441.76,678.06L441.62,679.52L442.76,678.98L443.77,679.73L446.26,677.81L448.04,677.6L448.99,675.91L451.53,675.44L455.16,676.02L456.22,676.95L456.26,679.05L459.36,680.16L459.38,682.59L461.17,682.34L461.4,683.34L461.4,683.34L459.93,683.82L459.78,685.78L458.39,687.86L458.61,689.49L457.01,691.26L456.34,693.09L456.79,693.63L456.62,695.62L456.96,694.95L457.81,695.08L457.21,696.42L457.39,697.93L458.38,698.34L458.24,701.29L457.53,701.36L457.42,703.35L456.64,703.4L456.14,704.42L456.81,706.35L457.94,707.14L457.11,707.74L457.47,708.26L457.46,709.03L456.94,709.53L457.08,711.26L455.94,712.35L456.05,712.87L456.05,712.87L455.39,712.76L454.66,713.73L453.15,713.14L452.9,713.62L450.87,714L450.36,713.41L449.5,713.21L448.31,714.21L448.2,715.99L447.57,716.05L447.13,715.46L445.31,715.5L443.12,716.73L442.15,716.53L441.62,715.6L440.88,715.73L439.82,717.9L441.38,719.19L441.22,720.49L441.78,721.24L441.7,722.45L439.99,724L439.42,726.37L437.4,727.12L438.66,728.3L439.14,728.08L439.8,728.76L441.98,728.87L443.61,731.33L441.53,732.73L441.44,733.37L442.1,734.48L441.9,735.56L442.98,737.8L442.96,738.44L441.65,739.99L442.09,740.13L442.24,741.43L443.15,741.41L443.67,742.05L443.89,744.04L444.17,744.26L444.55,743.55L445.57,743.28L446.19,743.56L447.42,742.37L448.2,742.32L449.36,743.3L449.31,745.38L448.05,745.8L448.64,746.26L448.56,747.81L449.16,749L448.11,749.35L447.45,750.42L446.29,750.1L445.85,750.76L445.26,750.63L444.92,751.82L445.85,752.6L446.91,754.59L446.94,756.4L447.42,756.45L448.11,755.25L448.68,755.32L448.66,757.09L449.15,756.77L449.72,757.2L450.16,759.47L449.22,760.87L446.8,762.94L444.2,767.14L449.52,771.6L446.63,776.94L446.06,776.37L445.69,776.74L445.38,776.43L444.97,777.22L448.53,777.54L447.71,779.54L446.87,780.37L446.87,780.37L442.17,781.06L440.49,780.95L435.12,778.97L434.13,779.85L433.32,779.78L432.79,778.79L432.31,778.64L432.36,778.12L431.88,778.1L431.83,777.31L429.66,777.5L429.29,776.8L428.43,776.37L427.45,774.16L425.72,772.73L425.43,770.29L425.95,769.49L425.2,767.97L424.58,767.62L425.38,767.17L425.19,765.77L424.03,765.54L422.82,764.53L422.53,762.04L420.98,760.96L419.58,760.67L420.34,759.45L421.41,756.03L420.75,754.93L418.66,753.4L416.04,752.82L415.12,751.45L415.62,750.44L415.17,749.64L409.78,746.83L407.72,747.54L405.88,745.96L404.24,746.62L404.08,745.75L404.78,745.11L404.45,742.96L405.23,741.96L405.64,738.87L407.29,735.42L407.72,733.71L407.61,732.11L405.7,731.75L404.48,732.29L403.28,730.22L402.39,729.95L398.72,732.55L395.86,731.25L392.62,731.49L391.62,732.07L391.64,730.65L390.88,730.2L390.54,728.87L389.02,730.4L385.08,729.35L382.08,723.02L382.28,721.74L381.25,720.78L378.6,720.03L377.35,718.81L376.46,719.12L375.77,720.81L374.36,722.17L372.17,722.1L371.88,720.71L370.1,720.79L368.85,720.03L368.58,718.83L367.31,717.12L362.84,715.03L363.79,712.46L363.79,712.46L366.37,707.19L366.58,705.87L367.27,705.33L365.09,700.06L365.87,699.05L367.29,699.54L367.57,699.21L371.6,699.05L372.48,699.3L372.99,700.61L374.03,699.75L374.92,698.19L375.78,698.02L376.06,697.07L377.22,695.83L377.45,694.69L378.2,694.54L378.79,693.63L377.79,692.37L380.59,692.23L380.94,692.59L381.93,691.96L382.53,691L383.26,691.48L383.72,689.9L384.75,689.7L385.2,690.17L385.11,689.01L386.03,689.15L386.43,688.34L387.1,688.25L386.86,687.12L388.42,687.16L388.59,686.51L388.17,685.89L387.9,683.73L387.48,683.79L386.77,685.92L386.43,685.99L386.23,685.19L386.12,683.47L388.08,683.07L387.93,682.17L389.25,681.94L388.93,680.27L388.3,680.06L387.82,678.67L389.95,678.66L391.63,679.3L392.92,680.61L393.65,682.55L394.66,683.79L395.08,687.16L397.85,687.59L398.76,687.32L400.2,686.42L400.26,685.35L403.94,684.42L403.99,683.34L404.69,682.93L406.53,683.2z"/>
		<path id="EE-49" title="Jõgevamaa" class="land" d="M417.11,543.89L425.41,543.08L427.49,542.34L427.81,539.65L428.71,539.41L429.45,540.16L430.14,538.86L431.69,538.29L434.24,538.18L434.85,540.51L434.03,541.02L434.4,541.68L435.12,541.81L435.78,543.52L436.57,543.99L436.85,545.59L437.55,545.46L437.82,546.25L440.02,545.9L441.22,546.32L441.83,545.94L441.73,545.06L442.38,544.58L444.91,544.07L444.75,542.42L446.17,541.92L446.37,541.26L445.54,538.12L447.32,537.81L447.03,535.79L448.76,534.98L448.57,533.99L452.36,533.31L453.55,534.07L453.84,535.24L453.39,535.9L455.54,536.01L458.85,534.42L461.31,532.43L467.44,529.77L468.34,529.6L468.67,530.59L469.42,530.63L469.42,530.63L469.71,532.23L470.54,532.3L472.28,534.05L471.38,536.22L472.77,537.26L473,538.84L472.21,539.17L472.23,540.99L472.9,544.05L474.04,545.61L476.85,544.62L481.37,544.31L481.91,542.6L483.72,543.28L487.27,543.43L489.65,545.1L490.77,547.68L491.89,547.57L492.3,548.3L515.54,548.41L528.64,550.17L540.05,554.4L540.05,554.4L531.56,562.62L534.09,574.49L534.09,574.49L509.95,582.81L509.8,582.22L509.13,581.86L504.75,583.85L504.48,584.28L505.35,585.25L504.4,587.4L502.82,586.54L501.43,587.32L501.18,588.51L499.83,589.13L499.12,588.62L497.21,589.49L497.33,590.69L498.75,590.35L499.35,591.48L498.66,592.84L499.25,595.11L500.11,595.77L499.96,598.02L498.36,598.06L497.75,597.52L497.65,596.04L497.03,595.01L496.08,594.66L495.78,594.1L495.07,594.48L495.37,595.62L494.99,595.75L494.1,594.73L493.87,595.52L493.42,595.61L490.49,592.88L485.01,590.73L484,590.86L482.64,598.7L482.95,601.19L480.53,601.35L480.95,602.88L478.86,603.17L478.85,603.62L477.9,604.02L477.73,604.6L475.59,603.97L473.95,605.22L472.41,604.22L472.23,605.86L470.36,607.15L469.68,607.22L468.74,605.91L468.03,605.91L467.16,604L464.81,602.53L465.46,603.82L463.61,605.75L463.21,607.04L463.09,609L463.98,610.01L463.04,610.94L460.92,611.27L460.06,612.19L458.12,610.96L455.7,608.45L454.16,609.96L453.36,609.27L452.77,609.43L451.62,608.71L451.64,608.16L453.06,608.02L453.69,606.55L449.4,607.04L448.23,608.07L449.33,608.76L448.61,609.7L447.87,609.74L445.77,608.16L444.18,608.69L443.55,607.84L442.27,608.31L441.26,609.58L440.77,609.49L439.68,612.48L440.22,613.61L438.58,612.66L438.17,609.98L436.28,608.78L434.68,608.67L433.86,610.32L431.39,611.07L423.16,617.23L421.46,616.2L419.86,617.38L417.86,615.29L416.93,616.36L417.49,616.71L416.66,617.3L416.89,618.28L416.41,617.88L416.42,618.65L415.94,618.61L416.44,619.59L416.03,620.19L416.03,620.19L410.92,614.71L409.79,615.62L404.58,611.14L404.14,604.84L401.87,606.51L400.08,604.8L399.11,605.02L399.13,603.19L397.97,602.55L398.5,601.79L398.31,601.39L398.89,601.08L398,599.62L398.09,598.84L395.43,598.32L391.39,595.99L389.75,595.84L386.22,597.08L383.93,596.97L379.28,595.95L378.51,594.53L379.65,594.33L380.36,593L381.98,592.97L382.99,591.22L382.45,587.63L380.3,587.25L381.38,585.89L381.71,584.57L381.89,581.09L381.36,580.29L381.36,580.29L382.12,578.92L382.82,575.86L383.89,576.11L384.08,574.96L384.9,574.85L386.91,573.07L387.04,572.45L386.7,572.28L387.08,571.5L386.29,570.58L386.19,569.45L387.63,569.1L389.32,569.67L389.47,568.89L391.03,567.77L390.62,567.13L390.78,565.51L392.31,565.3L394.59,566.86L395.45,569.27L399.22,566.56L399.35,563.31L398.69,562.2L398.83,561.12L397.99,558.89L399.28,557.6L399.62,557.73L399.67,557.26L400.24,557.13L401.17,557.99L402.8,557.73L403.62,556.85L403.33,555.7L403.74,554.64L404.89,555.26L405.83,555.1L406.87,554.18L407.04,554.46L408.42,553.96L410.15,554.15L410.56,553.73L414.21,553.63L414.76,553.19L414.21,549.49L413.26,548.76L414.14,547.68L414.26,546.18L414.89,546.14L415.74,544.86L416.14,545.46L417.06,545.5L417.48,544.8z"/>
		<path id="EE-70" title="Raplamaa" class="land" d="M221.13,525.69L222.39,525.37L222.15,524.05L224.19,523.02L226.88,518.64L228.49,519.85L229.27,518.66L231.29,517.42L233.66,520.55L234.8,520.76L236.79,519.25L238,519.21L238.78,519.71L239,521.47L240.55,522.15L240.82,521.33L240.16,519.43L240.69,518.79L241.18,519.19L242.09,518.66L242.15,517.5L241.71,517.52L241.34,516.59L242,515.6L242.92,515.19L243.23,513.74L243.95,514.29L244.24,513.65L245.38,513.28L245.69,514.03L247.43,513.08L246.43,511.6L246.8,511.01L246.62,510.16L245.32,510.79L245.01,510.35L246.2,509.35L245.5,507.95L245.93,506.7L247.43,507.82L248.11,507.86L248.46,507.03L254.62,506.86L256.61,505.76L259.17,505.18L264.06,505.87L265.08,506.6L266.2,506.14L266.49,506.4L266.5,500.94L265.13,501.05L264.79,499.68L263.54,498.7L267.02,497.54L265.18,495.1L265.3,493.55L266.26,491.05L266.22,488.39L268.95,488.93L271.49,486.37L272.35,484.06L273.39,484.3L273.67,483.23L276.08,483.26L276.5,483.63L277.77,482.93L278.45,483.91L279.01,484.15L279.64,483.82L280.11,484.67L280.49,484.52L280.13,483.48L281.12,482.63L282.95,485.04L283.73,484.71L283.93,485.13L284.72,485.17L285.56,486.04L286.04,487.37L287.1,487.48L287.61,482.73L291.36,482.8L292.01,482.21L294.56,481.69L297.25,482.35L298.78,481.73L298.06,485.82L298.07,488.74L298.23,490.07L299.95,489.7L300.02,493.68L300.49,493.9L300.04,495.01L303.58,496.97L305.23,497.17L305.82,496.54L307.08,497.97L308.23,497.26L308.82,499.13L310.27,500.59L310.5,501.75L312.82,504.52L317.01,506.05L319.62,505.99L320.3,505.44L321.04,506.86L322.11,506.42L324.11,507.84L324.93,507.67L326.34,508.19L325,509.57L324.58,510.83L326.59,514.05L325.45,514.66L326.53,516.5L326.24,517.05L329.36,517.61L329.49,517.98L328.72,517.86L328.56,518.71L331.04,518.75L331.93,519.48L332.15,519.21L332.86,519.45L333.23,520.09L332.31,520.81L333.46,521.42L333.81,522.19L335.08,522.39L334.83,523.2L335.13,524.18L335.63,523.96L338.15,525.19L338.88,524.71L338.88,524.71L338.31,525.7L334.5,527.82L336.86,531.44L335.99,538.09L331.69,540.66L330.74,543.99L329.96,544.16L329.66,545.02L330.32,545.35L331.1,547.35L332.08,547.62L332.34,547.29L333.64,549L332.7,549.57L333.33,550.48L332.29,551.6L331.19,553.82L331.9,554.88L329.77,556.45L329.77,557.39L328.34,559.47L327.95,559.64L326.35,558.83L325.74,560.13L326.69,562.84L327.5,563.22L329.19,566.33L327.62,567.22L327.69,569.07L326.21,572.41L326.39,574.11L326.39,574.11L322.96,574.43L321.78,575.24L319.24,574.54L314.6,574.18L314.35,573.56L313.25,573.4L313.77,574.07L312.39,575.09L311.94,576.72L310.22,577.17L309.29,576.84L309.32,575.93L308.34,576.08L307.69,577.12L306.36,576.83L305.62,578.65L304.47,578.79L304.22,579.22L303.74,581.39L302.77,581.75L302.04,585.14L301.33,585.17L300.68,585.78L299.85,585.48L300.02,585.05L299.37,584.08L299.37,582.81L298.96,582.64L298.54,580.67L298.35,578.25L299.49,572.68L298.01,570.91L296.37,570.38L296.2,569.63L294.92,569.23L294.24,568.43L291.51,570.16L290.04,572.41L288.46,572.81L287.8,571.97L285.36,572.77L283.46,571.46L282.38,571.33L281.19,570.02L279.66,570.62L277.25,569.49L274.83,574.23L269.83,576.63L268.97,577.45L266.26,577.85L266.12,576.93L265.68,576.81L265.83,576.24L267.42,574.65L265.03,572.08L264.17,571.55L263.49,571.62L262.54,572.28L261.75,573.8L258.03,575.93L257.12,580.47L255.81,582.11L253.04,582.92L251.69,583.74L249.15,585.59L248.78,586.76L245.77,585.28L239.18,583.83L234.54,581.66L230.04,583.23L224.81,578.72L224.81,578.72L227.31,573.52L227.41,572.48L228.24,571.9L227.5,570.11L226.6,568.85L225.49,569.58L224.23,571.31L223,569.6L221.37,570.44L220.77,570.29L220.17,568.99L219.69,569.49L219.47,569.07L219.75,567.31L220.37,566.78L221.82,566.95L222.59,565.58L225.22,563.42L225.24,563.02L228.01,562.45L227.88,561.41L225.82,561.35L224.74,559.27L224.22,559.27L225.36,557.35L225.6,556.16L225.65,555.34L225.11,554.77L225.79,554.16L229.96,554.82L230.52,552.5L230.06,551.16L229.54,550.83L228.32,551.38L228.83,549.92L226.83,548.6L227.16,548.41L227.35,547.02L225.84,545.98L226.05,545.21L226.78,544.69L226.59,543.77L225.98,544.07L224.35,543.37L225.07,542L224.48,540.23L225.03,538.56L222.72,537.46L220.99,535.24L220.3,533.68L220.03,532.73L220.37,532.25L218.95,529.45L220.23,528.39z"/>
		<path id="EE-74" title="Saaremaa" class="land" d="M139.59,736.84l2.1,1.19l1.38,1.74l0.45,2.93l-0.28,1.83l-0.49,-0.62l-0.88,0.44l-0.32,-0.55l-0.56,0.32l-0.48,-1.03l-0.39,0.32l-0.1,-0.64l-0.88,-0.44l-1.32,0.84l0.36,-1.51l-0.5,-0.37l-0.12,-1.96l1.08,-0.84l-0.63,-0.41l0.52,-1.31l0.32,0.16l0.55,-0.78L139.59,736.84zM67.55,679.89l-0.91,1.62l0.2,-1.96l0.96,-2.06l0.41,-0.09l-0.46,0.45l0.29,0.81L67.55,679.89zM70.31,673.21l0.07,0.56L71,673.57l0.26,0.83l0.35,-0.5l-0.13,1.53l0.85,-0.36l-0.57,1.26l0.87,-0.32l-0.46,1.51l0.42,0.56l0.56,-0.16l0.3,0.79l-0.41,0.97l-2.63,2.91l-0.1,0.81l-0.23,-0.57l0.32,-0.68l-0.43,0.18l0.1,-0.86l-0.6,-0.22l-0.23,-0.91l-0.41,-0.05l0.32,-0.66l-0.72,0.04l-0.68,0.61l1.45,-2.6l0.98,-3.3l-0.72,0.02L70.31,673.21zM76.97,667.16l0.31,0.25l0.68,-0.36l1.51,1.46l-0.79,1.74l-0.46,-0.16l0.32,-0.72l-1.36,0.34l-0.12,-0.56l0.51,-0.93l-0.61,0.5l-0.07,-0.43l-0.6,-0.05l0.47,-1.44L76.97,667.16zM3.19,645.21l0.54,0.7l1.02,0.07l-1.22,0.61l-0.08,-0.63l-1.17,0.47l-0.1,-1.06l-1.35,-0.11l0.15,-0.76l0.59,-0.49L3.19,645.21zM14.02,634.81l0.14,1.46l0.62,0.04l-0.08,0.27l-1.23,0.02l-1.11,0.71l-0.71,-0.9l0.17,0.62l-0.74,-0.25l0.14,0.87l-1.49,0.76l-0.85,-0.25l-0.34,-0.02l-0.54,0.22l-0.57,-0.38l-1.14,0.69l0.21,-0.63l-2.39,-1.7l1.02,-1.03l0.89,0.33l0.37,-0.69l0.85,0.11l0.12,-0.29l0.46,0.34l0.22,-0.56l0.76,0.61l1.28,-0.07l0.42,0.4l-0.16,0.42l1.02,0.13l0.23,-0.34l-0.88,-0.83l0.02,-0.72l1.43,1.08l0.84,-0.27l0.68,-0.89L14.02,634.81zM124.85,631.21l0.61,0.07l-0.35,0.22l0.19,0.27l-1,-0.36l0.17,-0.51L124.85,631.21zM125.15,629l0.48,0.81l0.8,-0.2l-0.71,0.76l-0.82,-0.34l0.24,0.38l-0.42,0.18l-0.18,-0.52l0.5,-0.51l-0.46,-0.56H125.15zM143.38,627.23l0.14,1.48l0.46,-0.15v-0.67l0.36,0.18l0.89,-0.69L145,628.32l-1.09,1.12l-0.74,-0.11l-0.15,-0.56l-0.15,-1.54H143.38zM152.99,610.34l0.46,0.8l-0.41,0.11l0.1,0.64l0.23,-0.33l1.05,1.51l-0.41,0.56l-0.32,-0.54l-1.05,0.22l-0.42,0.42l-0.62,-0.05l-0.36,-0.52l-0.35,0.18l-0.1,-1.02l1.19,-1.96H152.99zM141.58,608.22l1.32,0.07l-0.01,0.65l0.46,0.38l-0.07,0.56l-0.65,-0.02l0.1,1.05l-0.5,0.04l-0.22,0.65l-0.98,-1.31l-0.03,-1.27l0.59,-0.07L141.58,608.22zM158.82,606.33l0.06,0.45l0.59,-0.02l0.13,0.45l-1.08,0.56l-0.16,0.51l-0.4,-0.4l-0.6,0.25l0.37,-1.6L158.82,606.33zM158.38,590.02l0.63,-0.22l0.47,1.42l-1.06,1.2l-1.76,-1.2l0.15,-0.78l0.86,-0.64L158.38,590.02zM73.6,591.44l1.95,-1.51l1.4,0.69l2.13,3.48l2.37,5.17l0.96,1.04l1.96,0.58h2.44l0.85,-1.69l-0.28,-0.47l0.87,-0.4l-0.73,-0.85l0.9,-0.67l0.22,0.6l0.72,-0.05l0.89,1.09l0.6,-0.07l-0.46,0.65l0.53,0.56l-0.15,1.07l0.74,-0.07l0.36,0.31l0.88,0.27l1.1,0.71l1.12,-1.83l1,-3.55l0.07,-1.96l2.11,-2.13l2.5,0.69l2.11,1.13l0.3,-0.53l0.66,-0.02l2.08,-1.27l2.24,1.78l3.82,-0.33l1.59,0.33l0.13,1.35l1.15,0.07l0.52,0.82l0.24,0.11l2.06,0.66l1.72,1.31l1.32,3.18l0.91,-0.73l1.98,1.15l-0.22,0.98h0.74l0.33,0.27l-0.17,0.47l0.51,0.18l1.17,-0.38l0.48,0.16l-0.69,0.13l0.28,0.64l1.04,0.35l0.85,-0.42l2.51,0.98l0.12,1.13l-0.6,-0.16l-0.23,0.45l0.88,1.58l-0.83,-0.42l-0.01,1.16l0.4,0.74l0.41,-0.18l-0.39,0.64l0.62,1.25l0.83,0.42l0.14,0.69l0.51,-0.36l0.3,0.31l-0.62,0.84h0.56l0.58,-0.74l2.14,-0.13l0.54,0.6l0.37,-0.25l0.97,0.91h0.48l1.48,1.74l2.82,0.44l0.31,0.47l0.89,0.14l0.48,0.36l0.02,0.83l0.85,0.74l0.51,-0.71l0.19,0.35l-0.46,0.8l0.48,0.63l0.47,-0.4l0.35,-0.18l0.24,1.16l-0.42,0.47l0.8,0.18l-0.66,1.7l1.95,-0.13l0.85,0.98l-0.53,0.11l0.1,1.18l-1.16,0.09l-0.18,3.66l-0.33,-0.81l-0.52,0.2l-0.47,-1.48l0.06,-0.8l0.39,-0.18l-0.23,-0.78l-0.52,-0.56l-0.81,0.56l-1.17,-1.03l0.28,-0.49l0.31,0.49l0.76,-0.42l0.24,-0.96l-0.64,0.29l0.15,-1.86l-0.48,-0.52l0.29,-0.18l-1.18,-0.6l-0.43,1.45l0.97,1.31l-0.47,1.5l-1.06,0.6l0.55,-0.96l-0.24,-0.23l-1.91,0.06l-0.46,-0.49l-0.84,1.01l-0.23,-0.91l-0.44,0.36l-0.08,0.74l0.85,0.69l0.44,0.69l0.74,-0.07l-0.1,0.8l0.54,-0.65l0.42,0.22l0.2,-0.32l0.36,0.38l-0.42,0.52l-0.03,0.35l-0.54,0.49l1.42,0.13l-1.23,1.72l-1.65,-1.68l-0.81,-0.38l-0.02,0.9l-0.83,-0.31l-0.04,-1.48l-0.38,-0.32l0.23,-0.4l-0.55,0.22l-0.53,0.96l-0.13,-0.83l0.53,-1.16l-0.93,-1.19l-0.56,-0.05l-1.07,1.38l1.37,-2.52l0.84,-0.56l1.41,0.11l0.22,-0.81l-0.69,0.13l-0.28,-0.02l-0.29,-0.38l-1.4,-0.02l-0.62,0.96l-0.66,-1.05l-0.14,0.49l0.56,0.54l-0.68,0.73l0.58,0.14l-0.26,1.65l-0.4,0.27l-0.25,-2.21l-0.54,0.42l-0.51,-0.45l0.59,-0.38l0.12,-0.69l-0.77,-1.38l-0.36,1.01l-0.01,0.27l-0.08,0.31l0.06,0.25l-0.69,0.74l-0.26,0.16l-0.12,0.49l0.42,0.05l-0.08,0.83l-0.12,0.22l0.89,0.8l-0.3,0.42l0.43,0.07l0.54,2.37l-0.46,0.11l-0.49,-1.07l0.28,-0.8l-0.99,-0.05l0.17,0.65l-1.06,-0.31l-0.09,0.81l0.9,0.85l-1.39,-0.16l0.4,0.73l-1.11,1.14l0.59,0.47l-0.7,0.14l-0.82,0.94l-0.9,-0.81l0.45,-0.89l0.36,0.13l-0.4,-0.67l-0.66,-0.36l-0.89,0.65l-0.32,-0.54l-0.88,0.09l-1.17,2.81l0.17,0.51l0.47,-0.76l-0.15,1.05l0.57,0.13l-0.5,0.58l0.61,0.31l0.1,1.09l0.75,0.16l0.41,-0.63l-0.36,-0.29l0.46,-0.36l0.29,1.01l-0.68,0.98l0.73,0.71l-0.48,1.37l-1.37,-0.16l-0.65,-0.33l0.25,-0.2l-0.28,-0.23l-0.79,0.16l0.31,0.36l-0.9,0.07l0.39,0.43l-0.35,0.07l-0.57,-0.69l0.64,-0.16l-0.75,-0.67l0.65,-0.27l0.09,0.33l0.3,-0.29l0.53,0.22l0.82,-0.51l-0.75,-0.94l-0.29,0.58l-0.69,-0.27l-0.71,0.25l-0.36,1.16l-0.57,0.11l0.24,0.47l-0.36,0.36l0.86,0.58l-0.2,1.26l-0.96,0.63l1.04,0.83l-0.21,0.58l-0.84,-0.27l-0.07,-0.43l-1,0.38l-0.02,-0.65l0.38,-0.16l-0.43,-0.14l-0.44,0.8l-0.8,0.29l-1.99,-1.05l-0.63,-1.19l-0.03,-0.72l-0.34,0.16l-0.08,-0.63l-0.63,-0.32l-0.06,-0.18l-0.02,-0.79l-1.21,0.29l0.46,0.52l-0.56,0.92l-0.47,0.16l-0.25,1.72l1.93,0.76l0.41,2.08l-0.59,0.4l-1.46,-0.18l-0.27,0.98l0.37,1.25l-0.75,-0.16l-0.26,0.36l0.39,0.47l0.4,-0.54l0.2,0.45l-0.71,0.47l0.1,0.34l-0.15,0.34l-0.27,-0.92l-0.31,0.56l0.04,0.31l0.29,1.52l-0.57,0.47l-1.04,-0.04l-0.08,1.62l0.45,0.18l-0.54,0.38l0.6,0.34l-0.91,-0.05l-0.19,0.49l-0.91,-0.16l-0.44,0.4l-0.45,-0.47l-0.44,0.38l-0.92,-0.45l0.13,-0.32l-0.12,-0.32l-0.06,-0.76l-0.63,0.33l0.54,-1.53l-0.56,-0.09l-0.09,0.76l-1.3,-0.59l0.16,0.83l-0.48,1.05l0.57,0.45l0.36,0.36l-2.4,0.79l-0.22,0.6l-0.48,0.02l-0.52,1.01l-0.08,1.12l0.44,0.63l-0.34,1.05l0.17,0.54l-0.28,0.7l-0.66,0.76l0.09,-0.54l-1.18,-0.77l-0.11,-0.49l-1.53,-0.29l-2.02,0.29l-0.48,-0.47l-0.51,0.38l-2.3,-1.71l-2.07,0.36l-0.77,0.63l-0.57,1.01l0.21,1.17l3.09,4.07l0.53,-0.2l0.28,1.62l0.49,0.63l-0.25,0.59l0.4,0.74l-1.6,1.33l-1.97,0.72l-1.84,-0.83l-0.31,-0.14l-0.83,-0.36l0.01,-0.95l-1.75,-1.17l-0.17,-1.06l-0.65,0.16l-0.02,1.66l-0.73,1.49l0.18,-1.33l-0.9,-1.17l-0.15,-1.1l0.54,-0.92l0.45,0.95l0.54,-0.34l-0.09,-0.41l-0.18,-0.25l-0.36,-0.38l0.9,0.11l0.13,-0.54l-0.84,-1.08l-0.72,0.05l-0.53,0.54l-1.09,-0.92l-0.83,0.49l0.84,0.09l-0.9,0.88l0.3,2.52l-1.68,1.84l-0.23,-0.61l-0.28,0.77l-0.28,-0.2l0.38,-0.58l-0.09,-1.02l-0.65,-0.77l-2.86,2.99l-0.28,-0.72l0.34,-0.43l-0.64,0.25l-0.2,0.65l-0.29,-0.52l0.34,-0.32l-0.08,-1.04l-0.53,-1.33l0.39,-1.19l-0.06,-0.36l-0.17,-1.35l-1.42,0.49l0.18,0.65l-1.04,1.96l-0.24,2.16l-1.12,1.66l0.27,0.47l-0.6,-0.5l0.19,-0.65l-0.62,0.36l-0.54,-0.38l0.73,-1.64l-0.26,-0.45l-0.46,0.34l-0.01,-1.02l-0.76,-0.09l0.14,-0.81l-1.02,0.51l0.16,-1.33l-0.31,0.31l-0.42,-0.32l-0.36,0.67l-0.39,-0.49l-0.6,0.69l-0.68,2.97l-0.59,0.56l-0.54,-0.16l-0.78,0.9l-0.65,-0.13l-0.2,0.31l-0.31,-0.59l-0.78,-0.16l-0.19,0.38l0.66,0.32l-0.92,-0.25l0.03,-0.54l-0.83,-0.38l0.26,1.71l-0.47,-0.97l-0.93,-0.05l0.01,-0.36h-0.63l-0.34,0.47l-0.28,-0.41l-0.37,0.4l-0.31,-0.23l-0.24,0.4l-0.4,-0.34l-4.59,2.34l-3.37,3.06l-1.29,2.57l0.05,3.45l-0.42,1.08l1.23,3.39l-1.12,1.13l0.27,-0.05l-0.28,2.3l-0.9,3.03l0.41,1.08l-1.79,1.56l-0.7,1.24l-0.19,1.45l0.73,2.2l-2.31,3.29l-1.85,4.22l0.25,1.4l0.53,0.27l0.85,2.16l0.2,1.48l-1.57,1.07l-0.83,1.34l-0.76,0.43L37,711.26l-1.04,1.43l-1.09,0.64l-0.55,0.84l-0.43,0.34l-1.07,1.11l-1.23,2.11l-1.65,0.61l-1.8,2.41l-0.97,2.14l0.65,-2.5l-1.16,-0.2l0.14,0.43l-0.83,0.46l-0.45,0.3l0.03,-0.48l-1.11,-0.71l0.06,-0.68l-0.43,-0.84l-0.28,0.18l-0.31,-0.16l-0.4,-1.37l-0.36,-0.04l0.49,-0.53l-0.02,-0.82l-0.46,-0.23l0.27,-0.36l-1.19,-0.61l0.04,-0.52l-0.31,-0.16l-0.6,-0.45l0.21,-2.25l-0.58,-0.21l0.38,-1.66l-0.56,-0.28l1.02,-0.25l0.66,-0.64l0.6,1.2l0.6,-0.68l1.03,-0.32l-0.26,-2.36l0.17,-0.48l0.56,-0.12l-0.33,-0.77l1.44,-0.18l0.68,-0.61l-0.03,-0.7l-0.46,0.13l0.44,-1.05l-0.44,-1.4l1.3,-0.43l0.27,-0.23l0.29,-0.25l-0.29,-0.66l0.49,-0.47l-0.68,-0.11l0.63,-1.29l0.7,0.02l0.24,-3.81l0.52,-0.39l-0.21,-0.54l0.55,-0.38l0.03,-0.61l0.84,-0.07l0.15,-0.45l0.13,-0.47l1.49,-0.34l-0.33,-0.34l0.13,-0.73l0.59,-0.12l-0.1,0.68l0.78,0.36l0.3,-0.3l0.24,0.4l0.83,0.07l-0.32,0.34l0.71,2.26l0.38,0.05l0.27,0.11l1.38,0.57l0.85,-0.41l0.42,-1.04l-0.22,-0.97l0.46,-0.81l-0.39,-2.67l0.61,-0.39l0.67,-1.43l-0.01,-1.09l1.41,-2.85l0.55,-0.23l0.34,0.29l1.59,-1.35l0.18,-0.61l-0.91,-1.33l0.07,-1.61l-0.51,-0.52l-0.71,-0.11l-0.6,0.47l-2.42,-0.2l-1.53,0.5l-0.11,-0.57l-0.89,-0.57l0.06,-1.85h-0.83h-0.3l-1.2,-0.7l-0.05,0.83l-0.65,0.11l-0.32,-0.93l-0.98,0.16l0.1,-1.15l-1.68,-0.22l0.17,-0.38l-0.65,-0.29l-0.39,0.77l0.75,0.99l-0.85,-0.32l-0.05,0.47l-0.7,-0.2l-0.48,-2.37l-0.61,-0.34l0.2,-0.68l-0.82,-0.48l-0.5,-0.95l1.06,-0.16l0.09,-0.5l-0.97,-0.54l0.57,-0.48l-0.57,-0.54l0.01,-0.66l-0.74,-0.36l0.17,-0.57l-1.02,-0.61l0.38,-0.32l-1.19,-1.46l0.37,-0.47l-1.49,-0.61l-0.21,-0.77l-0.81,-0.18l-0.06,-0.34l-0.44,0.13l-0.28,0.31l-0.58,-0.74l0.01,-1.15l-0.46,0.27l-0.93,-1.26l0.14,1.31l1,0.2l-0.03,0.9l0.14,0.4l0.05,0.31l1.55,0.95l-0.19,0.81l-0.46,-0.31l-1.62,0.59l-1.62,-0.38l-0.36,-0.88l-0.24,0.32l-0.74,-0.88l-0.28,0.54l-0.55,-0.85l-1.05,0.41l-0.68,-0.9l-1.37,-0.63l0.1,0.76l-0.43,-0.45l-0.53,0.11l-0.03,-0.81l0.32,-0.13l-0.29,-0.4l-0.97,0.14l-0.48,-0.34l-0.06,-0.2l-0.42,-1.3l-0.47,1.12l-0.76,-1.33l-0.8,-0.65l0.14,-1.17l-1.77,-0.2l-0.02,-0.49l1.18,-1.39l-0.39,-0.14l-0.28,-1.01l-0.46,0.29l-0.43,-0.41l0.39,-0.43l-0.34,-1.12l0.59,-0.58l1.15,-0.4l0.85,1.01l0.61,-0.14l0.15,0.7l0.69,-0.09l1.26,1.19l1.04,0.22l-0.3,-1.12l1.52,-0.88l-0.13,-1.08l-2.3,-1.84l-0.45,-0.96l0.22,-0.99l-0.98,-0.63l0.01,-0.97l1.22,0.79l0.09,-0.7l-2.14,-1.9l1.23,0.43l1.26,1.52l0.65,0.11l0.74,1.05l0.65,-0.07l1.09,1.23l-0.14,0.51l0.83,0.81l-0.76,-0.38l0.69,1.9l-0.83,0.29l1.09,0.6l1.11,-0.18l0.34,0.38l0.06,-0.61l-0.51,-0.67l0.85,0.56l-0.23,-1.12l0.82,0.49l0.27,-1.03l-0.46,-2.27l-0.51,-0.78l-0.18,0.61l-0.29,-0.27l0.15,-0.74l-0.48,-0.07l-0.72,-1.88l0.16,-0.41l0.64,0.18l-0.35,-0.76l2.27,2l0.38,-0.81l1.6,1.57l-0.32,0.6l0.81,0.33l0.31,-1.01l0.93,-0.4l-0.38,-1.25l0.7,-0.16l0.47,0.47l-0.26,-0.94l-0.72,0.14l-1.08,-1.25l-0.61,-0.04l0.33,-0.32l-0.32,-1.35l0.51,0.4l0.43,-0.72l-0.04,0.56l0.38,0.04l-0.17,-0.85l1.46,1.23l0.34,-0.49l0.84,0.98l0.55,0.02l-1.44,-2.11l-0.45,0.34l-0.98,-0.81l0.19,-1.3l-0.94,-0.9l0.91,0.27l-1.54,-1.12l1.05,0.27l-0.23,-0.85l-0.88,-0.49l-0.82,0.81l-0.46,-1.19l-0.79,-0.45l-0.53,0.14l0.14,-1.1l-0.8,-0.85l0.58,-0.31l-1.18,-0.63l0.87,-1.1l-1.09,-1.12l-0.04,-0.71l-1.22,-0.83l-1.31,-1.72l0.14,-1.54l-0.74,-1.83l-1.32,-0.94l-1.13,0.13l-1.2,1.36L8.4,619.5l-1.01,-0.38l0.31,-1.92l-0.53,-1.81l1.23,0.69l2.34,2.81l1.6,0.16l2.31,-1.01l0.63,-1.03l-0.18,-1.49l-0.59,0.15l0.06,-0.6l-0.68,-0.72l0.75,-2.39l3.78,1.32l0.72,0.74l2.7,-0.62l1.54,0.62l1.09,1.14l2.04,5.17l0.65,0.69l0.62,3.66l0.98,1.29l1.1,3.69l1.36,0.61l1.39,-0.16l1.09,-1.32l-0.63,-1.79l0.62,-1.99l-0.53,-2.1l0.47,-1.56l-0.32,-1.21l0.4,-1.58l1.82,-3.04l0.82,-0.49l1.38,1.2l0.29,-0.54l-0.54,-1.09l0.51,-0.71l1.52,-1.07l1.63,0.14l0.48,-0.42l0.14,-2.05l-0.6,-1.54l0.6,-2.23l1.51,0.04l1.69,2l0.12,2.45l-0.3,0.78l0.56,1.38l-0.17,2.09l0.77,1.78l1.59,0.25l2.38,0.25l0.6,-0.36l-0.11,-0.49l0.5,-0.07l0.75,-3.1l-0.54,-0.63l0.66,-0.13l-0.37,-0.44l0.97,-1.09l-1.15,-1.81l0.35,-1.29l-0.38,-0.07l0.07,-0.36l-0.65,-0.29l-0.77,0.24l-0.14,1.31l0.42,0.33l-0.73,0.24l0.43,-3.34l-0.43,-2.65l0.34,-1.38l0.78,-0.25l1.8,1.24l1.73,-1.42l1.6,0.18l0.8,-0.31l0.45,-0.71l2.61,0.78l1.09,-0.55l0.28,0.31l1.54,-0.64l1.94,0.27l3.23,-0.87l2.34,-1.85l0.41,-1.45l1.15,-0.87l0.33,-1.24l1.33,-1.02l0.01,-2.29l0.54,-1.29l-0.28,-0.67l0.42,-0.38l0.46,0.38l-0.39,0.22l0.42,0.56L73.6,591.44zM119.37,588.51l0.73,0.53l0.48,-0.4l0.02,2l0.91,1.35l0.3,-0.05l-0.13,0.33l-2.05,-0.07l-1.37,-0.85l0.54,-2.37L119.37,588.51zM135.95,581.66l2.26,1.37l1.5,0.38l0.68,0.69l2.85,1.06l2.2,1.59l0.67,-0.04l1.8,1.18l2.35,0.27l0.68,0.53l0.81,1.71l0.08,1.31l-1.76,1.86l0.13,1.8l0.79,0.27l0.38,1.47l3.16,4.58l0.06,0.2l0.05,1.76l1.32,2.23l-0.66,2.12l-2.13,0.98l-1.08,1.11l-0.14,-1.03l-1.34,0.09l-0.09,-0.38l-1.1,-0.11l-0.59,-2.61l-0.49,0.49l-0.23,-1.45l-0.58,2.54l-1.2,1.63l-0.59,-1.05l0.53,-0.27l0.07,-1.27h-0.53l-0.38,0.58l-0.18,1.36l-0.96,-0.98l-0.57,-1.43l-1.59,-0.02l-0.6,0.73l-0.22,1.18l-0.52,0.16l-0.37,2.25l-0.81,0.69l-0.22,-1.11l-0.34,0.67l-0.91,-0.38l-0.01,-2.72l-0.64,0.69l0.22,-1.22l-0.8,0.38l-0.57,-1.38l-0.55,0.89l-1.17,-1.29l-0.6,-1.43l1.15,0.38l-0.28,-1.34l-0.65,0.38l-2.35,-3.05l-0.97,-0.11l-0.43,0.82l-0.96,0.35l-2.17,-1.65l-1.84,-0.55l-0.91,-1.09l-0.31,-1.09l-0.35,0.02l0.78,-2.91l-0.95,-1.04l1.25,0.11l0.17,-0.49l1.55,-0.98l2.32,1.27l1.33,-0.18l0.92,-1.36l-0.05,-0.89l-0.83,-1.22l0.35,-1.82l-0.51,-0.64l0.55,-0.55l-0.57,-0.35l0.55,-2.62l1.19,-1.35l1.06,0.69L135.95,581.66z"/>
		<path id="EE-37" title="Harjumaa" class="land" d="M204.12,459.56l0.82,0.34l0.12,1.06l0.89,0.45l-0.94,0.17l-0.83,-0.85l-0.17,0.43l1.56,1.56l0.36,-0.33l1.18,1.93l0.56,2.32l-1.33,1.52l-1.6,-0.65l-0.08,-0.87l-3.79,-4.31l-1.63,-2.73l0.12,-0.37l1.18,0.47l2.54,-0.8L204.12,459.56zM212.17,459.41l1.3,4.39l-0.5,0.37l0.26,1.36l-2.18,0.09l-0.27,-0.15l-1.05,-0.06l-0.9,-1.24l0.36,-1.45l-0.33,-0.74l-1.11,-0.74l-0.56,-1.37l-1.43,-0.2l1.04,-0.67l0.59,-1.6l0.82,-0.63l2.61,1.12L212.17,459.41zM343.31,427.58l0.32,1.49l-0.69,0.95l-0.11,-1.01l-1.2,-1.16l1.21,-0.88L343.31,427.58zM331.88,422.16l1.41,0.08l0.42,0.49l-0.56,0.49l0.31,1.07l-0.77,-1.51L331.88,422.16zM326.91,416.65l0.7,0.39l0.23,-0.02l1.1,-0.86l1.5,3.22l-1.43,-1.48l-0.77,-0.15l-0.62,0.39l-1.6,-2.53L326.91,416.65zM286.75,414.72l0.28,0.52l-0.73,0.37l-1.62,2l-1.44,-0.17l-0.78,-1.31l0.17,-1.05l1.92,-0.52l0.23,-0.37l0.98,1.24l0.87,-0.47l-0.33,-0.99L286.75,414.72zM260.93,411.22l0.39,0.04l0.8,2.79l1.17,1.61l1.55,6.27l0.9,1.35l-0.22,0.62l-1.49,0.04l-0.18,0.37l-2.03,-0.64l-1.78,-1.35l-0.35,-0.71l-0.41,0.08l-1.6,-3.5l1.02,-1.36l-0.09,-0.73l0.73,-1.05l0.3,-1.68l0.56,-0.52l0.48,-1.7L260.93,411.22zM316.96,413.69l-1.82,-1.27l-0.32,-1.91L316.96,413.69zM304.73,403.44l0.8,0.92l0.68,-0.26l0.29,0.62l1.73,0.38l0.21,0.82l0.71,0.04l0.09,0.71l1.55,1.71l0.46,1.16l-0.1,0.73l-0.82,0.71l-0.5,-1.01l-2.36,-0.9l-0.6,0.62l-0.92,0.17l-0.14,0.99l-0.65,-1.74l1.79,-0.99l-0.91,-1.2l1.19,0.79l0.08,-0.86l-0.86,-0.41l-0.42,-0.88l-0.11,0.79l-0.46,-1.39l-0.98,-0.34l-0.19,-0.75L304.73,403.44zM373.66,399.57l1.12,-0.17l-0.5,1.43l0.29,0.77l0.67,-0.11l0.1,1.13l0.92,-0.37l0.01,-0.36l0.24,-0.67l2.52,2.27l1.11,1.35l-0.84,0.84l0.36,1.56l0.61,0.66l1.37,0.15l0.26,0.52l-0.66,1.46l-0.76,0.51l1.01,2.51v3.61l-0.43,0.81l1.27,0.81l1,-0.45l1.11,0.41l0.32,1.03l1.38,-0.17l0,0l1.01,1.53l-0.9,1.57l-3.39,1.4l0.48,1.66l-0.17,1.25l1.6,0.45l-0.08,0.62l1.33,2.5l1.48,11.47l1.26,0.32l1.9,-0.19l0.24,1.51h0.6l0.85,1.08l0.06,0.75l-1.18,2.14l0.5,0.91l-0.54,0.69l1.1,1.08l0.16,2.16l1.89,2.07l0.96,1.88l0.69,2.88l-0.28,1.73l1.02,4.77l-0.46,1l1.17,3.6l-0.36,1.02l0.79,1.41l-0.9,0.76l-3.09,0.5l0,0l-0.53,-0.83l-1.01,-0.2l-0.63,-1.82l-0.59,-0.35l-6.83,-0.63l-1.25,-0.8l-1.77,-0.13l-0.65,0.2l-2.38,2.39l-2.93,0.24l-1.29,-0.52l-1.96,1.82l-0.75,-0.43l-1.91,0.46l-0.55,0.52l0.74,0.8l-0.17,1.45l-0.46,-0.07l-0.92,0.95L367.36,476l-0.11,0.24l-2.26,-1.19l-1.73,-1.71l-0.72,-0.22l-1.9,0.28l-2.69,1.91l-2.82,-1.2l-3.21,0.07l0.41,1.02l2.91,3.02l0.67,3.13l1.61,2.94l-2.66,5.92l0.28,0.31l-1.04,1.3l-1.08,0.5l-1.47,3.29l-0.49,0.07l-0.38,1.29l-0.82,0.43l0.95,1.98l-1.31,2.22l-0.18,1.29l3.44,1.64l0.68,0.81l-2.7,5.79l-1.29,-1.11l-0.39,-1.64l-0.66,-0.89l-1.47,-0.57l-2.79,2.49l2.05,3.24l-0.9,6.89l-2.52,2.84l-1.6,-1.29l-1.04,0.37l-1.24,3.24l0,0l-0.72,0.48l-2.52,-1.23l-0.5,0.22l-0.29,-0.97l0.25,-0.81l-1.27,-0.2l-0.35,-0.77l-1.15,-0.61l0.92,-0.72l-0.37,-0.64l-0.71,-0.24l-0.22,0.28l-0.89,-0.74l-2.48,-0.04l0.16,-0.85l0.77,0.11l-0.12,-0.37l-3.12,-0.55l0.28,-0.55l-1.07,-1.84l1.14,-0.61l-2.01,-3.23l0.42,-1.25l1.34,-1.38l-1.4,-0.52l-0.82,0.17l-1.99,-1.42l-1.07,0.44l-0.74,-1.42l-0.68,0.55l-2.61,0.06l-4.19,-1.53l-2.32,-2.77l-0.24,-1.16l-1.44,-1.46l-0.6,-1.86l-1.15,0.7l-1.25,-1.42l-0.6,0.63l-1.65,-0.2l-3.53,-1.96l0.45,-1.11l-0.47,-0.22l-0.07,-3.98l-1.72,0.37l-0.16,-1.33l-0.01,-2.92l0.72,-4.09l-1.53,0.63l-2.7,-0.67l-2.54,0.52l-0.65,0.59l-3.75,-0.07l-0.51,4.76l-1.05,-0.11l-0.48,-1.33l-0.83,-0.87l-0.8,-0.04l-0.2,-0.43l-0.78,0.33l-1.83,-2.41l-0.99,0.85l0.36,1.04l-0.38,0.15l-0.47,-0.85l-0.63,0.33l-0.56,-0.24l-0.67,-0.98l-1.27,0.7l-0.43,-0.37l-2.41,-0.04l-0.28,1.07l-1.04,-0.24l-0.85,2.31l-2.54,2.55l-2.72,-0.54l0.04,2.66l-0.96,2.5l-0.12,1.55l1.84,2.44l-3.48,1.16l1.25,0.98l0.34,1.37l1.37,-0.11l-0.01,5.46l-0.29,-0.26l-1.11,0.46l-1.02,-0.74l-4.89,-0.68l-2.56,0.57l-1.99,1.11l-6.15,0.17l-0.35,0.83l-0.68,-0.04l-1.5,-1.12l-0.43,1.25l0.69,1.4l-1.19,1l0.31,0.44l1.3,-0.63l0.18,0.85l-0.37,0.59l1,1.48l-1.74,0.96l-0.31,-0.76l-1.14,0.37l-0.29,0.65l-0.71,-0.55l-0.31,1.46l-0.92,0.41l-0.66,1l0.37,0.92l0.45,-0.02l-0.07,1.16l-0.9,0.53l-0.49,-0.4l-0.53,0.65l0.67,1.9l-0.28,0.83L239,521.47l-0.22,-1.77l-0.78,-0.5l-1.22,0.04l-1.99,1.51l-1.14,-0.2l-2.36,-3.13l-2.02,1.23l-0.78,1.2l-1.61,-1.22l-2.69,4.38l-2.04,1.03l0.24,1.33l-1.26,0.31l0,0l-0.71,-2.45l0.13,-2.06l7.45,-7.37l-0.38,-0.55l-0.94,-0.22l-0.23,-1.51l-2.75,-1.66l-0.02,-0.66l-1.45,-1.72l0.83,-0.29l-0.79,-1.72l0.79,-0.11l0.93,-1.4l-0.22,-1.46l-5.22,-3.03l-2.79,-0.83l-8.2,-0.76l-1.21,1.03l-0.7,-0.53l-1.38,0.43l-0.44,1.13l-4.27,-5.8l-2.13,0.28l0.16,-1.16l-1.2,-1.79l-4.72,0.15l-0.07,-5.94h-4.72l-0.15,-5.72l0,0l0.72,-0.85l0.6,-2l-0.15,-0.61l-0.9,-0.3l-0.21,-0.5l0.04,-2.61l0.67,0.69l1.18,-0.56l1.43,0.74l0.99,-0.78l0.85,-2.04l2.45,-0.2l1.05,-0.63l2.09,0.89l1.99,1.63h1.08l0.46,1.41l2.5,-2.13l0.89,0.85l3.22,0.95l1.27,-0.48l0.74,-1.09l0.78,-0.13l0.54,-0.28l1.94,-0.78l0.63,0.24l0.54,-0.74l1.06,0.24l0.67,-0.69l0.89,1.08l0.66,-0.52l0.33,0.76l0.65,0.33l1.74,-0.11l0.05,1.11l-0.6,0.09l-0.29,0.8l0.44,0.78l0.24,-0.54l1.04,0.09l0.25,-0.57l1.57,-2.43l0.82,-3.3l0.48,-0.39l-0.7,-0.57l0.28,-0.59l-0.65,-0.26l-0.97,-2.69l-3.44,-2.27l-1.88,-2.12l-0.82,-1.97l-0.2,-5.08l0.49,-0.32l2.06,1.06l1.39,-0.11l2.25,1.6l0.8,0.06l2.6,1.67l1.13,0.26l0.48,0.28l0.57,1.69l3.99,2.68l3.7,-0.56l0.69,-2.4l-1.55,-3.76l-1.22,-1.32l-2.38,-1.02l-1.35,-1.38l0.71,0.13l0.73,-1.88l1.05,0.17l-0.29,1.17l0.85,0.67l2.01,0.34l2.64,-1.82l2.09,-0.26l3.43,-2.74l2.03,-0.8l1,-2.42l-0.11,-1.04l-0.44,-0.37l0.32,-3.37l1.32,-1.03l-0.27,-1.02l0.79,0.3l0.62,-0.63l0.43,0.47l4.54,-0.15l1.31,0.62l2.16,0.24l2.29,2.52l0.66,1.38l3.1,0.95l1.52,1.18l2.23,-1.06l0.89,-1.14l-0.91,-1.75l0.48,-0.73l0.5,0.56l0.96,0.04l0.7,1.08l5.13,3.41l0.62,0.9l0.95,0.17l-0.08,-0.35l1.7,-1.27l0.27,-1.98l-0.35,-0.43l-0.97,-0.3l-0.46,-0.73l-0.4,-0.6l-0.8,-0.48l-0.08,-0.54l-0.39,-0.26l-0.13,-0.86l2.15,1.4l1.73,-0.37l0.46,0.3l0.49,-1.45l-0.17,-0.67l-0.65,-0.32l-0.28,-1.27l0.32,-0.47l0.41,0.88l0.61,-0.04l0.35,0.45l0.37,-0.43l0.01,-0.34l-0.02,-0.95l0.66,2.02l1.41,0.82l-0.54,0.04l-0.76,1.77l-0.76,0.84l-0.35,-0.09l-0.26,0.77l1.43,-0.71l0.91,1.31l0.48,-0.58l0.36,0.15l0.5,0.45l1.03,0.82l0.68,-0.43l0.22,0.63l0.19,0.17l0.48,0.06l0.8,-0.19l1.5,0.48l1.3,-1.25l1.65,-2.85l-0.08,-0.71l0.42,0.06l0.04,-0.06l0.34,-0.39l0.75,-2.48l-0.18,-0.78l-0.85,-0.3l-0.04,-0.65l-0.64,-0.86l-0.45,-0.2l-0.3,0.06l-0.44,-0.97l0.62,-0.62l-0.01,-0.95l-0.95,-1.12l-0.65,0.41l-0.64,-4.56l0.43,-5.7l0.43,1.5l2.27,0.54l0.16,0.99l0.63,0.43l1.02,0.21l0.76,-0.45l0.62,1.25l0.43,-0.13l0.48,0.02l0.57,-0.49l0.99,0.24l0.4,1.55l0.41,-0.15l0.41,0.45l0.05,0.47l-0.58,0.39l0.04,0.84l2.18,1.96L299,430.72l0.4,0.47l0.03,0.04l0.34,0.35l1.19,0.52l0.01,-0.67l0.18,-0.19l0.72,0.84l0.55,-0.32l0.92,0.19l1.13,1.01l2.91,-1.14l0.45,-1.21l-0.24,-0.86l3.48,0.39l1.08,0.93l2.51,-0.41l0.81,-0.82l0.34,0.15l-0.2,1.01l0.72,1.23l1.23,0.97l1.02,-0.39l0.31,1.44h0.6l1.82,1.16l0.06,-1.08l2.07,-1.6l0.58,-1.87l-0.43,-1.62l-1.25,0.13l-0.4,-1.16l-1.55,-1.79l0.68,-0.49l-0.11,-2.71l0.18,0.6l0.86,0.36l0.28,0.78l0.93,0.75l1.91,0.77l1.01,2.19l-0.26,1.01l0.51,0.56l2.23,0.06l1.6,-0.95l2.35,-2.17l0.35,-1.46l0.66,1.33l-0.41,2l1.31,0.88l2.05,0.62l1.27,1.16l2.24,0.58l2.11,-0.65l1.1,0.78l2.42,0.62l0.64,-0.39l1.43,0.34l1.56,-0.61l1.35,-0.97l-0.07,-0.62l0.53,-0.41l-0.35,-2.39l2.07,-0.75l2.37,0.47l0.91,-0.37l1.44,0.13l1.4,-1.46l1.11,-2.86l-0.28,-0.86l-1.15,-0.9l-1.09,-1.66l-0.49,-1.18l0.08,-1.85l-2.07,-2.43l-0.19,-1.5l-0.76,-1.14l-0.01,-4.66l0.3,-1.69l0.62,-0.21l-0.71,-1.56l0.67,0.24l0.46,-0.41l1.42,1.09l-0.65,0.45l0.84,1.93l-0.76,1.5l1.02,1.5l2.17,1.03l1.58,-0.6l0.19,-0.54l0.92,2.55l1.41,0.71l1.12,-0.45l-0.03,0.77l0.9,1.31l-0.13,0.88l0.59,0.92l0.79,-0.11l1,1.72l1.31,0.23l0.76,0.95l1.22,0.09l1.49,-0.69l1.88,-2.3l-0.6,-1.14l1.06,-3.14l-1.03,-1.5l-1.68,-0.94l-0.14,-0.73l0.26,-1.33l-0.41,-1.82l0.89,-0.64l0.1,-1.33l-1.76,-1.07l-0.29,-0.77l0.68,-0.79l0.49,0.15l1.02,-0.84l0.45,-0.17l-0.28,-1.41L373.66,399.57z"/>
	</g>
</svg>