<?xml version="1.0" encoding="utf-8"?>
<!-- (c) ammap.com | SVG map of Hungary - High -->
<svg xmlns="http://www.w3.org/2000/svg" xmlns:amcharts="http://amcharts.com/ammap" xmlns:xlink="http://www.w3.org/1999/xlink" version="1.1">
	<defs>
		<style type="text/css">
			.land
			{
				fill: #CCCCCC;
				fill-opacity: 1;
				stroke:white;
				stroke-opacity: 1;
				stroke-width:0.5;
			}
		</style>

		<amcharts:ammap projection="mercator" leftLongitude="16.113807" topLatitude="48.586431" rightLongitude="22.897693" bottomLatitude="45.736783"></amcharts:ammap>

		<!-- All areas are listed in the line below. You can use this list in your script. -->
		<!--{id:"HU-BK"},{id:"HU-BA"},{id:"HU-BE"},{id:"HU-BC"},{id:"HU-BZ"},{id:"HU-BU"},{id:"HU-CS"},{id:"HU-DE"},{id:"HU-DU"},{id:"HU-EG"},{id:"HU-FE"},{id:"HU-GY"},{id:"HU-GS"},{id:"HU-HB"},{id:"HU-HE"},{id:"HU-HV"},{id:"HU-JN"},{id:"HU-KV"},{id:"HU-KM"},{id:"HU-KE"},{id:"HU-MI"},{id:"HU-NK"},{id:"HU-NO"},{id:"HU-NY"},{id:"HU-PS"},{id:"HU-PE"},{id:"HU-SO"},{id:"HU-SN"},{id:"HU-SZ"},{id:"HU-SD"},{id:"HU-SF"},{id:"HU-SK"},{id:"HU-SH"},{id:"HU-TB"},{id:"HU-TO"},{id:"HU-VA"},{id:"HU-VE"},{id:"HU-VM"},{id:"HU-ZA"},{id:"HU-ZE"}-->

	</defs>
	<g>
		<path id="HU-BK" title="Bács-Kiskun" class="land" d="M257.38,208.68L258.1,206.83L256.41,203.96L262.41,205.31L262.62,206.06L266.46,207.94L268.73,206.7L269.49,203.98L272.64,202.93L275.03,199.65L278.34,199.78L279.15,201.03L281.18,196.37L283.57,195.72L284.6,194.4L286.24,194.71L291.61,200.09L288.88,203.34L286.96,207.67L290.67,212.95L293.44,209.47L293.26,208.12L294.59,208.11L298.9,204.03L303.29,205.31L305.96,196.55L311.04,198.44L313.25,196.39L316.22,201.56L318.3,208.29L322.34,212.86L322.34,212.86L319.12,214.2L311.55,211.9L307.93,216.77L306.93,215.72L304.39,218.17L309.45,224.35L309.99,228.21L312.03,228.23L314.2,230.77L315.48,230.84L318.66,234.63L318.28,236.36L320.19,235.61L322.17,236.12L324,234.36L323.88,233.05L325.05,232.39L325.95,233.19L328.91,231.88L328.5,230.89L329.93,229.67L333.32,232.63L334.67,230.11L337.46,227.81L337.69,226.64L335.33,219.88L335.33,219.88L336.16,219.82L339.39,212.96L344.22,215.96L349.1,217.39L348.98,214.98L350.39,212.57L356.79,210.01L359.08,211.51L359.08,211.51L362.37,213.36L363.26,214.65L362.33,215.59L362.74,217.51L360.28,218.67L360.29,220.08L363.57,220.52L365.11,223.35L361.94,224.94L361.71,226.26L358.56,228.65L356.73,227.86L355.95,228.36L354.82,230.89L353.88,230.01L351.23,232.17L350.35,231.92L351.85,233.94L353.43,234.23L354,233.52L354.34,234.65L351.21,235.22L351.09,237.4L353.76,239.16L354.27,237.79L353.54,236.12L354.6,235.61L356.14,237.19L356.17,238.2L356.17,238.2L352.84,241.21L347.71,248.22L351.62,252.44L348.85,260.14L350.06,261.8L349.57,264.59L350.06,266.12L345.35,271.62L340.65,267.72L330.64,274.02L333.28,277.3L336.9,276.62L341.01,280.62L341.54,283.14L340.02,285.36L341.6,288.51L339.77,293.03L337.66,294.82L334.22,292.5L327.42,297.75L325.42,296.2L319.47,298.1L320.15,300.31L322.66,303.55L317.73,308.85L321.61,314.4L323.21,318.8L323.21,318.8L321.96,319.66L320.2,318.45L317.56,321.04L311.41,320.05L310.49,322L305.99,324.43L307.8,327.66L302.42,330.77L302.46,332.63L297.93,337.14L294.83,338.47L293.35,336.48L286,341.15L287.77,344.07L287.25,344.55L286.23,343.48L273.81,343.51L272.73,338.47L270.07,338.01L266.4,343.08L267.66,347.69L261.65,347.81L260,349.86L261.18,352.9L260.01,353.02L259.22,351.88L256.99,352.64L252.01,351.49L249.55,353.94L248.09,353.39L248.46,354.7L244.91,355.5L244.15,354.23L243.54,354.92L243.54,354.92L242.14,353.67L242.83,352.01L245.67,350.45L247.16,350.51L244.85,348.42L248.37,340.83L246.32,339.22L246.4,337.92L248.58,337.05L246.07,335.79L245.19,331.36L246.44,329.97L243.74,328.85L243.74,328.85L243.65,327.44L244.89,328L245.68,325.84L242.06,324.76L242.14,322.47L243.15,321.27L244.49,321.02L244.15,323.04L244.77,324.35L246.77,318.73L248.52,318.13L247.99,316.63L248.73,314.62L245.41,316.93L244.24,316.13L247.16,312.7L247.92,313.35L248.96,312.18L248.12,308.21L249.07,308.08L250.83,309.42L252.3,309.25L253.29,303.34L251.17,299.76L249.96,291.52L250.38,289.45L253.21,284.62L253.25,280.83L250.87,275.17L250.62,269.58L247.95,265.51L247.69,263.5L249.77,260.27L253.9,259.65L257.36,257.67L260.61,252.71L260.77,250.35L259.04,247.18L257.81,242.17L256.12,238.9L253.6,236.56L253.44,231.14L253.44,231.14L256.41,223.09L256.41,223.09L257.28,220.91L255.89,215.07L256.74,212.01L256.74,212.01z"/>
		<path id="HU-BA" title="Baranya" class="land" d="M174.87,304.5l2.1,0.76l0.58,-1.05l1.69,-0.16l1.94,2.54l0.68,-0.94l-1.46,-0.66l-0.09,-2.97l1.75,-0.86l1.56,1l4.53,-2.97l-0.02,-2.06l-1.38,-1.6l-0.02,-3.81l3.76,-1.6l3.68,0.84l4.25,-2.01l2.83,2.49l-0.24,2.79l0.71,2.07l3.28,1.69l0.13,1.46l-1.34,1.41l0.17,4.15l2.2,0.87l1.32,-0.47l0.56,1.5l-1.75,4.83l-1.88,1.34l-1.73,0.16l0.79,1.52l1.25,0.05l5.6,-3.46l-0.07,-1.13l1.88,-0.3l-0.39,-0.73l1.67,-1.13l-0.13,-3.97l0.71,0.98l1.89,0.35l1.46,2.56l0.8,0.23l0.17,-1.22l0.53,0.81l-0.62,1.01l0.76,1.64l-0.99,2.86l1.99,1.39l1.85,-0.23l-0.69,1.31l2.17,3.72l1.94,-1.01l0.77,1.99l2.4,1.51l3.64,4.7l0.7,-0.64l5.07,3.04l1.53,-0.82l1.18,0.77l3.22,-0.17l0,0l2.7,1.12l-1.25,1.39l0.88,4.43l2.51,1.26l-2.18,0.87l-0.08,1.31l2.06,1.61l-3.53,7.59l2.32,2.1l-1.5,-0.06l-2.83,1.57l-0.69,1.66l1.4,1.25l0,0l-0.39,3.84l-1.3,0.18l-2.95,-1.47l-1.12,-1.4l-2.44,-0.59l-1.52,-1.62l-3.07,0.8l-0.92,-0.68l0.14,2.56l-1.9,1.1l1.11,1.64l-1.36,1.03l-0.69,-1.12l-0.68,2.83l-0.77,0.09l0.7,1.79l-1.94,0.71l-0.72,1.74l-1.77,0.72l0.01,1.83l-1.42,-0.35l-0.49,1.24l-1.71,0.01l-1.2,0.66l0.07,0.67l-2.75,-1.43l-0.84,3.65l-2.26,-0.42l-0.94,0.97l0.13,3.15l-3.66,-0.42l-0.86,-0.59l-0.24,-1.77l-2.74,-1.86l0.19,0.86l-0.81,-0.13l-1.78,2.68l-0.35,-0.85l-3.33,-0.95l-1.78,0.7l-3,-0.86l-1.28,-2.19l-3.9,-1.11L185.42,372l-1.67,-1.48l-2.53,-0.18l-1.69,2.63l-1.94,0.49l-5.13,-1.66l-2.47,-2.12l-6.26,1.34l-2.07,-0.82l-2.62,1.5l-1.4,1.87l-1.06,-2.09l-1.32,-0.7l-1,-2.91l-1.05,0.75l-3.07,-1.65l-1.88,0.62l-1.72,-2.32l-2.53,-0.17l-1.51,-0.93l-2.24,0.44l-1.57,-1.65l0,0l1.59,-0.52l-0.23,-1.15l1.7,-1.63l0.81,1.85l0.72,-1.07l2.17,0.39l0.64,-1.73l-0.76,-1.98l0.63,-0.75l-1.17,-0.89l0.28,-1.23l-2.25,-1.36l0.04,-1.84l-2.84,-0.1l-0.72,-1.6l-0.69,0.3l0.82,1.91l-1.44,-0.15l-1.78,-6.37l2.72,-0.78l0.08,-1.93l-1.98,-2.72l-0.39,-2.2l2.49,-1.02l0.13,-1.09l1.42,-0.23l0.53,-3.67l-1.36,-1.49l1.86,-0.99l0.16,-6.19l1.55,-2.83l0.02,-1.77l1.89,-1.88l-0.91,-1.88l1.75,-1.33l1.25,3.55l1.81,0.6l1.59,-1.79l-0.2,-1.16l0.87,-0.39l0.6,1.07l1.32,-0.34l0.11,1.18l2.51,0.35l1.21,-1.36l1.26,0.31l0.51,-1.03l2.05,0.34l0.54,-0.71l1.08,0.65l1.11,-0.96l-0.35,-3.6l2.18,-6.25l4.68,-0.23l0.45,1.34l1.37,-0.55l2.13,1L174.87,304.5zM192.04,325.91l-3.77,-1l-3.12,2.18l0.66,2.23l-3.79,0.12l0.28,2.15l1.41,2.2l-0.52,2.63l3.66,2.11l2.98,3.69l5.16,-2.02l0.79,-4.37l1.45,-0.78l0.3,-2.8l1.35,-1l2.71,0.93l1.89,-1.58l-1.41,-3.94l-3.12,-4.11l-5.84,2.65L192.04,325.91z"/>
		<path id="HU-BE" title="Békés" class="land" d="M438.62,182l1.25,1.01l0.73,-1.17l1.94,0.85l2.87,4.46l1.16,-0.41l0.03,-1.68l5.66,4.47l6.5,0.86l2.71,2.34l6.55,-0.34l-0.79,2.49l0.67,1.76l-1.37,1.04l0.62,3.21l-5.23,3.9l0.88,3.08l-1.19,0.59l-0.01,1.27l1.54,1.64l9.73,3.96l5.06,0.05l1.31,1.31l1.16,-0.33l0.15,1.61l-0.99,0.26l-0.69,2.1l1.99,-1.84l2.45,0.8l0.88,1.12l1.58,-1.75l6.15,-0.94l-0.76,-2.48l0.86,-2.9l3.17,0.55l1.89,-1.63l0.46,-1.58l0.94,-0.55l0.25,1.31l1.49,-1.07l0,0l1.76,0.77l0.91,2.26l-1.05,0.58l-0.86,3.26l1.23,0.41l0.01,0.69l-0.7,1.34l-1.31,-0.36l-1.89,2.99l-3.41,0.79l-0.08,2.36l1.42,3.09l-0.96,0.24l-0.24,2.63l-7.21,3.59l-0.12,4.75l-0.97,2.37l-2.24,2.26l0.07,0.92l3.73,2.64l0.17,2.48l-1.42,1.13l-1.78,3.38l-1.88,-1.25l-2.08,0.87l-1.53,-0.67l0.33,2.18l1.81,1.91l-1.5,1.64l-1.7,0.54l-0.89,3.04l-3.9,-1.92l-1.48,1.01l-2.13,0.09l-1.18,1.47l-1.02,3.52l1.56,1.14l-2.59,4.74l-1.43,0.52l-1.33,5.32l1.2,3.17l1.99,0.16l1.81,3.07l-0.35,1.38l-2.08,3.43l0.5,1.11l-6.48,-0.89l-0.67,1.38l-0.86,0.1l-0.69,7.26l-2.2,2.28l0.58,3.14l-0.96,0.9l-1.99,-0.1l-0.24,-0.85l-2.82,0.61l-1.06,4.93l-2.8,1.15l-0.73,1.27l-2.45,-0.74l-1.16,-2.18l-2.78,0.92l-3.69,-0.61l-0.61,-1.79l-1.77,0.27l-0.73,1.77l-2.42,-1.21l-1.52,-2.04l-7.35,1.87l-1.35,-0.27l0,0l-2.44,-1.87l0.98,-3.8l-0.13,-4.17l-1.75,-4.43l-4.2,0.65l-0.91,3.7l-5.14,-0.52l-0.14,0.57l-4.2,-2.08l-2.66,-3.44l0,0l2.08,-1.88l1.01,0.05l-0.07,-4.29l0,0v-1.74l2.22,-0.7l-0.5,-2.66l1.33,-6.36l-0.27,-1.2l-2.45,-0.93l-1.17,-1.58l0.73,-1.33l-0.23,-9.63l-0.61,-0.43l0.63,-4.68l1.23,-0.03l-0.96,-5.95l1.47,-4.37l-2.99,-2.34l-5.13,0.05l-4.94,-4.81l-2.73,1.08l0,0l-1.37,-7.23l4.53,-5.05l5.03,0.21l2.6,-1.13l0.75,-1.78l2.57,0.62l1.66,-0.72l3.97,2.32l2.86,-1.87l1.66,0.46l1.05,-0.74l1.96,-3.03l0.17,-2.1l-2.08,-0.32l0.72,-0.74l1.25,0.47l-0.27,-1.96l-1.25,-0.45l0.66,-2.78l-0.97,-0.95l0.33,-3.47l1.48,0.13l0.3,-1.41l2.5,-1.35l0.23,2.18l4.44,-0.03l-0.13,-1.03l0.89,-0.22l-0.55,-0.36l2.42,-1.04l0.74,-1.5l1.52,0.58l-1.14,-1.43l0.42,-2.07l-1.12,-2.38l0.24,-1.31l2.01,-0.46l-1.77,-3.58l4.32,-3.35l1.44,0.03l1.9,-1.85l1.22,0.03L438.62,182zM444.31,247.26l-5.51,2.4l-2.21,-1.51l-3.7,3.32l2.11,2.57l1.43,-0.03l2.74,4.19l-2.15,5.29l15.11,-4.14l1.21,-0.52l2.01,-2.86l2.16,0.85l2.29,-1.39l-0.69,-1.34l0.41,-1.28l-2.42,-2.89l-2.18,-0.1l-1.47,-1.64l-2.77,0.17l-1.61,1.8h-1.35l-1.45,-3.16l-0.99,0.92L444.31,247.26z"/>
		<path id="HU-BC" title="Békéscsaba" class="land" d="M446.76,247.83L447.71,250.16L449.07,250.16L450.67,248.36L453.44,248.19L454.92,249.83L457.1,249.94L459.52,252.82L459.11,254.11L459.8,255.45L457.5,256.83L455.35,255.98L453.34,258.84L452.13,259.37L437.02,263.5L439.17,258.21L436.43,254.02L435,254.04L432.89,251.47L436.59,248.15L438.8,249.66L444.31,247.26L445.27,247.92L446.26,247z"/>
		<path id="HU-BZ" title="Borsod-Abaúj-Zemplén" class="land" d="M480.64,0.01L481.51,1.44L484.86,3.67L485.98,3.45L487.44,4.89L487.41,6.32L489.87,10.6L491.53,10.11L493.15,11.14L494.38,9.74L495.46,10.59L496.21,10.29L497.11,12.68L497.07,15.94L500.64,22.97L500.75,25.73L501.57,26.78L502.6,26.56L504.44,27.65L504.31,29.29L505.47,29.84L505.29,31.39L506.54,32.16L510.19,33.39L513.17,33.19L515.24,34.49L516.18,33.99L516.58,30.05L518.27,30.06L518.93,31.51L520.28,30.36L521.02,30.89L520.59,29.96L521.13,29.3L521.41,30.28L521.9,29.33L522.13,30.02L522.98,29.52L524.61,30.47L524.67,29.17L526.53,28.18L529.9,28.49L533.73,26.29L536.26,28.33L538.1,27.11L539.03,29.04L539.87,27.8L540.14,28.52L541.9,28.2L541.9,28.2L541.48,29.8L542.38,30.7L540.61,30.76L542.28,31.86L540.84,32.19L538.5,35.46L539.36,37.76L537.14,37.49L537.19,38.88L535.63,37.95L536.72,39.13L536.03,40.1L535.56,38.84L534.22,38.07L534.31,39.26L532.29,39.29L533.33,37.37L532.2,37.52L529.53,39.95L528.9,41.25L529.38,42.26L528.42,41.86L526.17,44.49L525.51,43.82L525.6,44.98L524.39,45.56L523.77,47.05L521.67,46.18L519.67,47.36L517.63,46.98L516.72,49.11L515.7,46.63L515.3,48L514.21,46.91L514.36,48.73L512.98,48.99L513.17,50.35L512.14,50.61L511.63,51.89L510.46,51.26L510.11,52.95L508.61,53.58L508.69,51.83L506.99,52.74L506.23,52.04L505.9,53.62L505.07,52.92L500.87,53.53L496.05,52.97L492.9,51.12L492.36,52.14L490.85,52.23L487.39,54.28L487.75,55.6L486.18,56.01L486.07,55.4L484.04,54.98L483.21,56.83L481.93,55.17L480.7,55.24L478.97,58.03L479.44,60.88L478.13,62.8L478.89,64.81L481.38,67.02L481.14,67.72L479.81,67.36L480.19,68.8L481.62,68.61L482.46,69.53L480.23,70.36L480.14,72.86L479.49,73.2L478.02,72.18L477.49,74.76L472.66,74.77L471.09,76.33L469.45,75.04L467.57,75.27L467.46,74.01L464.75,74.09L463.69,71.87L460.96,74.01L461.44,75.58L460.52,76.2L458.07,75.34L456.09,75.74L456.35,73.94L455.72,73.31L454.45,73.79L452.7,72.93L452.38,74.09L447.86,78.57L450.44,82.45L449.95,83.19L451.75,84.45L451.75,84.45L450.77,88.51L449.04,89.97L450.38,90.66L451.96,90.22L452.06,90.95L448.29,93.91L448.3,97.46L445.8,99L447.9,103.45L446.9,104.92L446.68,107.28L445.23,109.2L444.67,112.46L444.03,113.12L442.48,111.59L440.67,112.29L440.11,114.72L440.7,116.57L436.21,117.5L434.73,119.1L434.92,120.35L433.89,120.14L431.93,121.47L430.44,119.74L430.59,122.3L431.95,122.68L430.87,123.37L430.87,123.37L429.39,123.1L429.39,123.1L427.37,123.1L427.91,125.23L429.66,126.3L429.08,127.12L427.97,126.6L427.53,125.09L426.32,125.01L426.21,123.6L425.28,123.73L425.28,123.73L422.24,121.97L419.48,124.01L420.09,125.62L420.09,125.62L414.21,120.98L412.96,121.46L411.66,120.43L411.27,121.33L408.27,121.26L403.01,118.09L402.19,117.01L404.26,114.23L398.38,109.25L397.25,106.71L396.11,105.93L395.74,103.5L396.85,101.05L396.08,97.76L392.58,96.21L391,93.45L391,93.45L392.54,91.41L392.54,91.41L393.21,91.32L393.21,91.32L393.85,91.99L395.76,91.92L394.99,90.66L397.39,88.87L396.93,87.45L393.22,85.56L391.2,83.43L394.78,76.2L394.82,73.6L393.79,71.45L395.38,71.16L396.14,70.09L396.14,70.09L407.29,69.22L410.97,72.19L414.27,73L415.75,76.12L419.27,74.26L420.61,74.04L421.96,74.9L423.74,74.17L425.24,72.3L426.93,72.04L428.06,68.38L426.86,67.86L427.2,63.69L425.57,62.16L425.65,61.11L421.47,59.88L419.2,60.5L416.85,58.09L415.84,59.25L409.78,58.91L404.76,61.97L397.67,61.71L393.84,63.63L393.84,63.63L391.21,58.99L387.85,59.18L386.95,58.59L385.58,59.15L385.91,60.86L383.55,63.69L382.9,66.87L379.99,64.68L379.27,62.75L377.72,63.42L376.51,62.8L375.78,66.15L372.65,67.22L369.84,66.62L368.71,65L366.01,63.99L365.29,61.07L361.93,59.97L359.54,60.68L358.89,60L358.89,60L358.41,58.77L356.29,58.44L355.15,56.59L355.15,56.59L357.72,54.59L356.81,53.73L357.59,52.77L358.6,52.8L362.52,49.19L363.3,46.45L362.88,45.07L366.65,45.74L369.37,45.36L368.97,44.06L371.27,43.88L371.9,42.63L371.17,41.86L372.4,41.42L376.49,43.95L378.86,43.55L378.42,42.42L380.09,42.49L381.15,38.87L383.71,36.39L384.44,35.18L383.95,34.45L387.76,29.82L387.15,27.72L388.46,25.94L388.4,22.49L391.27,18.82L393.2,17.68L392.65,16.51L394.46,15.35L395.43,13.37L396.57,13.13L396.82,9.87L396.07,7.6L397.53,6.65L399.13,7.94L400.16,5.68L403.6,7.01L410.06,3.44L412.22,3.45L415.23,2.15L416.77,2.77L426.98,0.29L426.38,1.35L427.16,1.13L427.16,2.98L428.87,4.64L433.53,3.79L434.99,6.46L435.59,5.94L435.71,6.87L436.99,7.12L437.1,8.58L438.63,8.51L439.29,9.28L442.21,7.26L445.67,7.98L445.68,8.67L446.82,8.06L449.37,9.31L449.94,11.88L451.82,12.76L452.81,12.5L454.42,9.43L456.44,8.55L457.08,9.15L457.75,8.29L459.75,7.93L459.73,7.08L460.45,7.29L460.83,6.54L461.87,6.99L462.51,6.29L465.02,8.15L468.5,8.54L469.45,7.22L468.95,6.23L469.56,6.32L469.95,5.29L469.32,4.65L470.39,4.26L469.48,3.98L469.88,3.32L475.01,3.67L476.97,2.96L478.39,3.62L479.09,0.86z"/>
		<path id="HU-BU" title="Budapest" class="land" d="M270.25,131.44L269.97,131.98L271.05,132.76L273.17,133.2L274.37,134.88L274.35,135.77L273.59,135.86L276.19,137.6L275.02,138.28L277.15,140.52L279.36,140.8L280.36,141.85L282.58,141.24L284.27,145.04L289.23,144.13L288.84,147.12L290.63,151.02L287.63,151.93L285.79,154.72L284.4,154.44L282.99,157.02L282.39,156.79L279.03,160.08L276.63,164.66L273.91,165.23L273.02,166.2L269.19,162.32L269.82,161.29L267.88,158.9L263.24,161.82L262.23,160.65L256.55,162.76L255.97,160.54L256.95,159.48L256.52,156.86L258.24,155.27L258.4,153.11L257.7,152.66L258.78,151.32L257.05,148.48L255.6,148.49L254.59,147.28L255.47,146.28L254.39,145.25L255.19,143.66L253.75,143.19L254.53,143.07L254.58,140.38L253.71,140.4L255,139.36L254,136.58L255.91,135.58L258.32,136.41L259.43,134.82L263.46,134.57L262.67,132.22L264.21,131.44L267.39,131.85L267.07,134.5L269.05,131.46z"/>
		<path id="HU-CS" title="Csongrád" class="land" d="M358.93,320.7l2.06,-3.99l1.95,0.59l3.55,-1.49l1.59,2.05l3.76,9.17l0,0l-2.44,-1.37l-0.09,-0.93l-2.34,-2.19l-3.73,1.84l-2.83,-2.12l-0.46,-1.96L358.93,320.7zM400.03,292.12l2.66,3.44l4.21,2.09l0.14,-0.57l5.14,0.52l0.91,-3.7l4.21,-0.65l1.75,4.43l0.13,4.17l-0.98,3.8l2.44,1.87l0,0l-2.27,3.54l0.83,5.53l-2.75,-0.32l-1.4,5.5l-3.31,2.84l-1.9,-0.95l-1.51,3.17l-8.52,-6.87l-4.11,-1.68l-0.41,2.87l-2.81,3.17l-2.5,0.22l-3.28,-1.86l-0.52,0.91l-1.2,-1.08l-1.23,1.18l-1.17,-2.51l-3.75,2.64l-0.37,-0.91l-1.82,1.36l-3,3.8l-0.53,-0.66l0,0l1.41,-0.71l0.36,-2.12l-0.66,-0.82l1.6,-5.87l-3.87,0.81l-1.47,-0.68l-0.82,-0.84l-0.18,-4.35h2.08l0.75,0.73l5.28,-0.26l0.6,-4.43l-0.72,-4.06l0,0l5.72,-0.18l2.47,-0.86l3.28,-2.32l2.52,-3.39l8.59,-4.95L400.03,292.12zM388.64,238.37l2.73,-1.08l4.95,4.81l5.13,-0.05l2.99,2.34l-1.47,4.37l0.96,5.95l-1.23,0.03l-0.63,4.68l0.61,0.43l0.23,9.64l-0.73,1.33l1.17,1.58l2.45,0.93l0.27,1.2l-1.33,6.36l0.51,2.66l-2.22,0.71v1.74l0,0l-6.36,-0.13l-4.8,-6.7l-1.56,0.21l-1.46,-2.42l-3.96,2.18l-1.29,-2.27l-6.06,0.24l0.57,2.88l-3.99,0.95l1.52,2.7l-4.01,3.97l-2.03,-0.81l0.69,-2.99l-0.72,-1.14l-1.67,0.82l-1.7,5.25l0.14,2.4l0,0l0,0l0,0l-1.03,-0.18l-1.15,1.02l0.11,3.86l2.4,1.79l-0.97,2.61l-0.48,-0.64l-2.83,0.04l-1.43,-1.16l-3.26,-0.33l-0.97,2.55l0.48,3.23l-3.27,-1.74l-1.26,0.08l-4.53,4.21l3.24,2.64l4.35,0.85l1.63,1.13l-2.15,3.56l0.38,2.12l1.15,0.31v2.04l-1.28,1.42l-2.65,0.49l0,0l-8.33,-0.65l-1.79,1.53l-5.31,1.82l-3.22,2.79l-5.18,-2.35l-2.54,-3.1l-1.29,0.03l-1.93,-2.29l0,0l-1.61,-4.41l-3.88,-5.55l4.94,-5.3l-2.51,-3.24l-0.69,-2.2l5.96,-1.9l1.99,1.55l6.8,-5.25l3.44,2.32l2.11,-1.79l1.83,-4.53l-1.58,-3.14l1.52,-2.22l-0.53,-2.52l-4.11,-4l-3.62,0.68l-2.64,-3.28l10.01,-6.3l4.71,3.9l4.7,-5.49l-0.49,-1.53l0.5,-2.79l-1.22,-1.66l2.77,-7.69l-3.91,-4.22l5.13,-7.01l3.32,-3.01l0,0l0.39,1.85l1.55,0.66l0.67,2.99l1.53,-0.55l-0.51,-1.86l0.86,-0.54l5.67,4.18l2.38,-3.76l1.72,0.37l-0.29,-1.59l1.51,-0.97l2.12,0.56l3.2,3.49l3.27,0.85l1.29,-0.83l0.62,-2.28l4.68,-0.12L388.64,238.37z"/>
		<path id="HU-DE" title="Debrecen" class="land" d="M480.27,142.57L480.09,139.84L482.97,132.84L491.71,131.35L498.13,128.15L498.76,128.54L496.92,132.41L497.67,132.6L500,129.33L502.49,130.59L502.49,130.59L505.7,130.03L505.7,130.03L506.61,131.05L504.57,137.62L508.93,138.16L511.36,135.49L514.67,134.16L519.22,137.96L518.36,139.02L518.11,144.99L514.76,151.09L512.6,150.81L509.13,154.07L505.56,154.53L502.12,156.37L501.1,155.39L500.92,152.98L499.36,152.29L495.75,152.59L493.85,154.61L490.89,155.96L489.94,149.37L488.6,147.47L488.35,143.86L485.21,143.35L485.21,143.35z"/>
		<path id="HU-DU" title="Dunaújváros" class="land" d="M256.41,223.09L253.05,224.32L249.66,224.01L246.74,220.78L247.41,220.21L246.05,218.07L244.4,217.45L243.19,214.24L247.67,212.37L256.74,212.01L256.74,212.01L255.89,215.07L257.28,220.91z"/>
		<path id="HU-EG" title="Eger" class="land" d="M391,93.45L388.65,94L388.16,97.97L384.01,99.14L382.27,98.64L382.56,96.87L380.45,95.31L379.18,93.17L379.18,93.17L379.37,92.38L379.37,92.38L380.05,92.22L379.69,89.56L377.86,83.14L380.37,78.18L384.02,79.39L385.24,80.61L384.66,83.26L386.67,87.13L389.27,88.82L391,87.42L392.35,88.19L392.06,89.02L393.21,91.32L393.21,91.32L393.21,91.32L393.21,91.32L392.54,91.41L392.54,91.41z"/>
		<path id="HU-FE" title="Fejér" class="land" d="M232.29,135.76l0.93,1.96l-0.72,1.37l0.33,2.83l2.94,5.33l2.21,0.04l2.98,4.5l0.33,3.99l-2.82,3.3l5.36,7.36l4.08,3.61l0.37,1.39l-0.61,0.76l1.73,0.41l-0.48,1.3l0.64,1.65l3.56,0.72l-1.03,5.82l-2.35,4.26l-0.78,6.09l2.36,10.18l4.29,3.61l1.76,2.47l0,0l-0.64,3.34l0,0l-9.07,0.36l-4.48,1.87l1.21,3.2l1.64,0.62l1.36,2.15l-0.67,0.57l2.92,3.23l3.38,0.32l3.37,-1.24l0,0l-2.97,8.06l0,0l-2.01,-0.28l-0.1,0.62l-3.6,0.96l1.42,1.32l-1.25,2.19l-5.99,4.26l-0.1,2.38l-4.26,0.47l-2.72,2.09l1.26,3.03l-4.8,4.37l-2.35,0.76l-2.14,-0.26l0.29,-2.03l-1.5,-3.21l-0.07,-2.02l-1.01,0.09l-2.67,-1.73l-1.63,-3.19l-4.48,2.48l0.55,2.31l-2.01,0.34l-0.68,-0.59l-1.44,0.97l-3.59,-0.91l-0.05,-2.91l-0.87,-1.46l0.55,-1.12l-1.36,-1.97l-0.18,4.58l-0.71,0.04l-0.25,-2.09l-0.57,1.3l-0.64,-1.97l-1.41,1.72l-2.46,-1.54l-2.08,-0.18l-0.8,-0.83l0.55,-1.76l-0.56,-1.02l-5.04,3.82l-0.08,0.74l-3.53,0.72l0,0l-1.29,-5.44l1.06,-2.12l-0.88,-3.73l0.96,-0.49l-1.83,-0.64l2.3,-1.96l-1.91,-5.69l-2.79,-3.65l0,0l4.02,-3.48l0.6,-1.83l1.89,-1.13l0.15,-0.94l2.37,-0.71l-0.29,-0.73l-2.08,0.44l-2.12,-3.96l-0.74,-3.49l2.75,-2.18l-1.03,-1.48l0.19,-2.31l-1.16,-4.36l1.07,-2.99l0.02,-4.82l-0.62,-1.18l-1.79,-0.05l-1.99,-1.91l-1.57,-3.43l-1.18,0.01l-3.39,2.16l-2.86,-4.19l-1.6,0.41l-0.89,-3.62l1.66,-1.98l-1.93,-0.29l-0.72,-1.67l0,0l-0.28,-0.73l1.83,-1.46l2.97,-0.94l-0.67,-1.86l2.5,-3.65l-0.25,-2.71l1.4,-1.17l-0.37,-2.18l2.11,-1l1.27,1.65l1.66,-1.06l1,0.65l1.07,-1.21l-0.59,-3.22l4.92,2.4l0.5,3.05l2.43,1.21l1.67,2.57l1.71,0.88l1.61,-1.94l1.18,0.55l2.97,-0.9l-2.31,-2.53l0.42,-1.12l1.68,-1.94l1.66,1.3l2.57,-2.95l0.47,-1.66l2.25,-1.04l0,0l2.65,-1.69l-0.2,-1.02l0.84,0.12l-1.16,-1.85l1.6,-0.31l-0.64,-2.93l3.68,-0.68l0,0l0.85,0.44l1.16,-2.33l1.27,0.29l1.11,-0.93l3.66,1.32l0.79,-0.89l3.46,0.11L232.29,135.76zM206.72,178.39l-1.52,0.65l-0.32,1.42l-2.4,1.55l-3.26,4.28l4.02,7.17l1.68,0.89l0.32,5.83l3.09,-0.51l2.27,-1.55l1.07,1.39l3.41,-4.11l2.36,-1.51l0.98,0.87l1.33,-0.73l-1.85,-4.39l-1.89,0.12l-0.04,-1.24l1.15,-1.59l-1.74,-1.79l-0.15,-1.72l1.55,-2.16l-2.74,-3.1l-2.99,0.2l-2.08,-3.5l-1.8,0.92L206.72,178.39z"/>
		<path id="HU-GY" title="Győr" class="land" d="M135.48,117.76L136.51,117.89L136.4,117.2L140.19,114.51L142.64,116.38L149.02,115.67L152.77,118.05L154.69,123.34L142.31,129.89L139.42,128.99L136.83,132.49L136.4,134.3L134.23,134.64L126.93,132L126.08,130.43L126.27,129.51L127.86,129.65L130.63,128.49L131.55,122.25L131.55,122.25L133.06,119.58L133.06,119.58L134.12,119.58L134.12,119.58z"/>
		<path id="HU-GS" title="Győr-Moson-Sopron" class="land" d="M102.16,76.95l0.66,2.26l1.19,0.54l6.11,0.32l8.44,9.11l2.62,5.65l6.7,2.84l3.07,6l3.98,-0.56l9.29,8.74l4.82,1.08l1.59,1.2l6.94,-0.88l3.13,0.9l0,0l0.84,5.14l-0.93,1.84l-0.08,1.27l0.83,0.87l-1.26,4.59l1.71,2.15l2.15,0.56l-0.76,3.46l-0.98,0.95l0.76,0.44l-1.4,2.77l1.92,1.28l0.07,-0.8l0.9,1.09l-2.54,0.92l-2.34,-1l0.11,2.47l2.41,3.38l-0.04,1.04l-0.56,-0.35l-1.48,1.21l0.14,1.76l-1.41,-0.03l1.17,1.93l-1.39,0.83l0,0l-1.2,-2.78l-2.41,-1.89l-1.87,2.49l-1.01,-0.19l-0.32,-2.17l-3.75,4.64l-1.73,-2.51l-0.76,0.23l0.35,0.59l-0.77,0.88l0.7,1.25l-2.35,0.43l0.6,-1.62l-0.79,-1.25l-1.79,0.72l-0.74,-0.82l-0.93,0.53l-0.23,1.5l-1.85,0.65l-0.44,-1.37l-0.83,0.37l-0.59,-0.76l-1.44,1.13l-3.27,-4.1l-2.86,2.72l-5.82,-2.57l-2.87,-0.31l-1.82,1.46l-3.09,-0.78l-0.36,3.25l-1.5,2.18l-6.98,1.42l0,0h-1.07l0,0l-4.2,-0.85l-0.69,0.07l-0.13,0.9l-2.24,-1.69l-1.89,1.58l0,0l-2.63,-0.74l-1.75,2.73l-5.23,1.56l-1.6,1.52l-0.5,-0.36l2.28,-5.8l-1.51,-2.67l-5.33,4.89l-2.63,0.98l-1.94,2.78l-1.38,-2.17l-1.41,-0.05l-0.2,-0.92l-2.44,0.69l-1.59,-1.41l-1.55,-3.24l-3.46,1.88l-0.56,-1.17l-1.4,0.94l-0.54,-0.89l-2.59,1.08l-3.6,3.11l-2.28,-1.5l-1,0.39l-2.86,-3.48l0,0l1.42,-1.29l0.72,-2.39l-1.58,-3.45l0.86,-1.16l0.91,0.59l1.57,-0.81l2.37,-3.93l-1.57,-1.01l-0.71,-1.57l-1.58,-0.09l-0.78,-1.07l1.07,-1.44l-0.73,-2.09l0.35,-1.4l-1.06,-0.28l-0.59,-2.07l-2.26,-0.79l-3.37,1.43l-1.89,-0.85l0,0l4.19,-2.23l6.49,-1.19l2.03,1.06l3.29,-5.7l0,0l7.33,0.2l1.06,-2.89l2.43,-2.21l0.54,4.14l1.04,0.2l18.71,-2.66l-1.82,-2.54l-0.33,-5.56l-1.33,-3.21l1.99,-2.09l-2.37,-2.61l0.42,-1.34l-3.73,-2.84l0.65,-1.22l2.09,0.12l3.25,-1.35l0.69,0.43l1.44,-2.66l-0.38,-1.68l1.6,-2.6l-1.97,-1.24l2.18,-3.38l-1.93,-1.42l6.92,-5.54l2.62,-1.05l2.22,0.46l1.53,-0.79L102.16,76.95zM134.12,119.58L134.12,119.58h-1.06l0,0l-1.51,2.67l0,0l-0.92,6.24l-2.77,1.16l-1.59,-0.13l-0.19,0.92l0.85,1.56l7.3,2.64l2.17,-0.33l0.43,-1.81l2.59,-3.5l2.89,0.9l12.39,-6.54l-1.92,-5.29l-3.75,-2.38l-6.38,0.71l-2.44,-1.87l-3.79,2.69l0.11,0.7l-1.04,-0.13L134.12,119.58z"/>
		<path id="HU-HB" title="Hajdú-Bihar" class="land" d="M451.75,84.45l2.19,0.98l0.83,-1.36l3.55,0.9l3.28,2.19l0.49,1.18l2.13,0.91l1.06,2.97l4.42,-2.13l2.89,-0.33l1.99,0.74l4.59,-0.71l0.38,-0.79l6.02,0.44l0.13,-1.29l1.13,-0.01l0.65,-1.05l2.27,0.89l0,0l1.98,0.83l-0.81,1.72l0,0l-0.04,3.57l0.88,0.27l-2,9.34l-0.02,3.59l3.92,2.44l1.32,0.07l3.4,5.98l3.92,0.54l0.1,-0.8l2.08,-0.15l1.21,3.28l4.76,0.31l-0.43,2.17l2.59,0.54l0.62,1.46l2.64,0.87l2.16,-1.09l0.4,-1.27l2.23,-1.88l0.3,-3.5l3.28,-0.94l3.74,3.41l1.78,0.46l-0.46,3.66l2.61,1.56l-0.69,2.62l1.6,3.06l1.94,-1.6l2.05,-4.86l0.91,-0.19l2.58,1.62l1.29,7.18l1.1,1.05l0,0l-0.05,1.15l-2.92,3.77l-1.62,-0.15l-2.05,1.64l1.35,1.63l-0.83,1.08l-1.43,-1.37l-2.23,3.05l-1.23,5.34l1.12,2.82l1.11,0.52l-0.6,1.16l0.79,4.02l-2.22,4.7l-1.65,-0.52l-4.66,0.97l-5.48,11.35l0.79,1.9l-3.28,4.81l-0.32,1.8l0.95,0.76v3.97l-3.71,2.16l-2.35,6.4l0.04,2.13l-2.27,-0.16l-3.63,1.35l-1.02,3.17l-2.97,3.76l-2.92,0.59l0.86,2.3l0,0l-1.49,1.07l-0.25,-1.31l-0.94,0.55l-0.46,1.58l-1.89,1.64l-3.17,-0.55l-0.86,2.9l0.76,2.48l-6.15,0.94l-1.58,1.75l-0.87,-1.12l-2.45,-0.8l-1.99,1.85l0.69,-2.1l0.99,-0.26l-0.15,-1.61l-1.15,0.33l-1.31,-1.3l-5.06,-0.05l-9.73,-3.96l-1.54,-1.64l0.01,-1.27l1.19,-0.59l-0.88,-3.08l5.23,-3.9l-0.62,-3.21l1.37,-1.04l-0.67,-1.76l0.79,-2.49l-6.55,0.34l-2.71,-2.34l-6.5,-0.86l-5.66,-4.47l-0.03,1.68l-1.16,0.41l-2.87,-4.46l-1.94,-0.85l-0.73,1.17l-1.25,-1.01l0,0l3.98,-2.85l1.05,-12.03l-3.45,-17.12l1.06,-2.46l-1.52,-2.3l0.1,-7.87l-1.53,-2.47l-2.61,-1.45l-4.78,1.92l-4.4,-2l-1.71,-5.63l0.49,-3.99l0,0l0.93,-0.13l0.11,1.42l1.21,0.08l0.44,1.51l1.11,0.52l0.58,-0.83l-1.75,-1.07l-0.54,-2.12h2.02l0,0l1.48,0.27l0,0l1.08,-0.69l-1.36,-0.37l-0.14,-2.57l1.49,1.74l1.96,-1.34l1.03,0.21l-0.19,-1.26l1.48,-1.59l4.49,-0.94l-0.6,-1.85l0.56,-2.43l1.81,-0.7l1.55,1.53l0.64,-0.66l0.56,-3.26l1.44,-1.91l0.23,-2.36l1,-1.47l-2.1,-4.45l2.5,-1.54l-0.01,-3.55l3.76,-2.95l-0.09,-0.74l-1.59,0.44l-1.33,-0.68l1.73,-1.46L451.75,84.45zM485.21,143.35L485.21,143.35l3.15,0.51l0.24,3.61l1.35,1.9l0.95,6.59l2.96,-1.34l1.9,-2.02l3.62,-0.31l1.56,0.69l0.18,2.41l1.02,0.98l3.44,-1.83l3.56,-0.47l3.48,-3.26l2.16,0.28l3.36,-6.1l0.24,-5.97l0.87,-1.07l-4.56,-3.8l-3.3,1.33l-2.44,2.67l-4.36,-0.53l2.04,-6.58l-0.91,-1.01l0,0l-3.21,0.56l0,0l-2.48,-1.27l-2.34,3.27l-0.75,-0.19l1.84,-3.87l-0.63,-0.39l-6.42,3.2l-8.74,1.48l-2.88,7l0.18,2.73L485.21,143.35z"/>
		<path id="HU-HE" title="Heves" class="land" d="M358.89,60L359.54,60.68L361.93,59.97L365.29,61.07L366.01,63.99L368.71,65L369.84,66.62L372.65,67.22L375.78,66.15L376.51,62.8L377.72,63.42L379.27,62.75L379.99,64.68L382.9,66.87L383.55,63.69L385.91,60.86L385.58,59.15L386.95,58.59L387.85,59.18L391.21,58.99L393.84,63.63L393.84,63.63L394.01,66.9L396.14,70.09L396.14,70.09L395.38,71.16L393.79,71.45L394.82,73.6L394.78,76.2L391.2,83.43L393.22,85.56L396.93,87.45L397.39,88.87L394.99,90.66L395.76,91.92L393.85,91.99L393.21,91.32L393.21,91.32L392.06,89.02L392.35,88.19L391,87.42L389.27,88.82L386.67,87.13L384.66,83.26L385.24,80.61L384.02,79.39L380.37,78.18L377.86,83.14L379.69,89.56L380.05,92.22L379.37,92.38L379.37,92.38L379.18,93.17L379.18,93.17L380.45,95.31L382.56,96.87L382.27,98.64L384.01,99.14L388.16,97.97L388.65,94L391,93.45L391,93.45L392.58,96.21L396.08,97.76L396.85,101.05L395.74,103.5L396.11,105.93L397.25,106.71L398.38,109.25L404.26,114.23L402.19,117.01L403.01,118.09L408.27,121.26L411.27,121.33L411.66,120.43L412.96,121.46L414.21,120.98L420.09,125.62L420.09,125.62L419.01,127.31L416.8,127.24L415.08,128.5L415.19,131.78L413.47,132.97L414.52,134.64L414,136.25L411.49,137.33L410.62,139.29L405.5,141.84L402.59,144.39L397.57,146.14L395.81,150.57L394.23,151.21L392.07,150.2L391.72,148.71L392.87,147.32L390,148.4L389.55,149.21L390.62,153.99L389.33,155.48L386.74,156.54L384.67,155.88L384.88,153.32L382.18,154.29L380.76,153.98L379.56,152.37L376.61,148.09L377.86,145.13L376.58,140.97L373.46,139.89L373.78,138.86L371.23,137.93L369.17,131.77L365.67,132.17L359.65,134.24L362.55,137.49L360.51,139.06L352.48,135.45L351.18,133.69L352.27,130.74L351.14,129.14L350.98,124.85L350.21,123.09L348.03,122.61L347.3,123.63L342.87,125.5L339.35,123.88L338.82,128.81L336.55,129.82L335.99,131.68L334.14,133.52L328.27,130.06L324.03,131.79L323.67,135.06L322.19,134.08L320.47,134.41L320.47,134.41L319.26,133.13L319.62,130.96L317.98,126.67L316.26,126.18L313.67,121.09L315.05,117.75L311.9,114.63L311.9,114.63L315.79,111.14L316.91,111.91L318.44,110.74L317.85,110.25L318.69,108.74L317.37,105.27L319.24,104.34L320.17,106.28L320.35,104.9L321.82,104.6L322.37,103.52L325.26,103.67L324.79,102.78L326.13,100.19L329.04,97.35L329.6,92.32L330.44,92.11L335.08,96.28L336.56,95.58L337.3,93.52L335.98,92.24L333.27,91.42L332.89,89.67L339.07,88.62L341.31,90.39L343.96,90.31L345.3,87.06L347.64,85.78L347.39,83.07L349.29,82.08L348.38,80.71L348.93,79.56L353.32,77.98L351.81,76.44L351.26,72.29L352.07,72.02L349.36,70L349.52,69.41L347.98,68.99L347.76,67.22L353.95,65.06L354.63,62.85L356.97,63.1L357.59,61z"/>
		<path id="HU-HV" title="Hódmezővásárhely" class="land" d="M366.34,291.14L366.2,288.74L367.9,283.5L369.56,282.67L370.29,283.81L369.6,286.8L371.63,287.61L375.65,283.64L374.12,280.94L378.11,279.98L377.54,277.11L383.6,276.87L384.9,279.15L388.86,276.96L390.32,279.38L391.88,279.17L396.68,285.87L403.04,286L403.04,286L403.11,290.29L402.1,290.24L400.03,292.12L400.03,292.12L400.04,293.1L391.45,298.05L388.93,301.44L385.64,303.76L383.17,304.62L377.45,304.8L377.45,304.8L377.94,302.65L372.81,301.32z"/>
		<path id="HU-JN" title="Jász-Nagykun-Szolnok" class="land" d="M425.28,123.73L424.8,127.73L426.51,133.36L430.91,135.36L435.7,133.44L438.3,134.89L439.84,137.36L439.74,145.23L441.25,147.54L440.2,150L443.65,167.12L442.6,179.15L438.62,182L438.62,182L435.82,187.7L434.6,187.68L432.7,189.53L431.26,189.5L426.93,192.85L428.7,196.43L426.69,196.9L426.46,198.2L427.57,200.58L427.16,202.66L428.3,204.08L426.77,203.5L426.03,205.01L423.61,206.05L424.16,206.41L423.28,206.63L423.41,207.66L418.97,207.69L418.73,205.51L416.23,206.86L415.94,208.27L414.46,208.14L414.12,211.61L415.1,212.56L414.44,215.34L415.69,215.79L415.96,217.75L414.71,217.28L413.99,218.01L416.07,218.33L415.9,220.42L413.94,223.45L412.89,224.19L411.23,223.73L408.37,225.6L404.4,223.28L402.74,224.01L400.17,223.39L399.42,225.17L396.82,226.3L391.8,226.09L387.27,231.14L388.64,238.37L388.64,238.37L386.83,240.66L382.14,240.78L381.52,243.06L380.23,243.89L376.96,243.03L373.76,239.54L371.64,238.98L370.13,239.95L370.42,241.54L368.7,241.17L366.32,244.93L360.65,240.75L359.79,241.29L360.31,243.15L358.77,243.7L358.1,240.71L356.55,240.05L356.17,238.2L356.17,238.2L356.14,237.19L354.6,235.61L353.54,236.12L354.27,237.79L353.76,239.16L351.09,237.4L351.21,235.22L354.34,234.65L354,233.52L353.43,234.23L351.85,233.94L350.35,231.92L351.23,232.17L353.88,230.01L354.82,230.89L355.95,228.36L356.73,227.86L358.56,228.65L361.71,226.26L361.94,224.94L365.11,223.35L363.57,220.52L360.29,220.08L360.28,218.67L362.74,217.51L362.33,215.59L363.26,214.65L362.37,213.36L359.08,211.51L359.08,211.51L360.66,208.02L358.64,206.91L357.76,202.41L355.5,198.43L354.93,195.86L356.33,192.52L356.33,192.52L361.31,195.72L360.67,196.54L362.09,198.09L366.55,198.39L367.65,200.37L369.76,201.49L372.63,201.52L373.85,199.39L374.98,200.05L376.3,197.97L374.86,193.82L371.96,192.36L373.35,186.92L374.48,185.96L371.71,186.3L371.74,185.52L373.15,185.11L371.41,182.7L369.43,182.78L365.99,179.73L363.72,179.13L361.78,182.15L358.21,184.92L358.21,184.92L357.79,183.31L354.63,180.92L349.5,179.11L352.22,172.36L349.79,168.76L349.6,166.48L346.88,163.48L342.75,161.57L335.24,155.77L332.48,151.44L327.89,147.54L331.66,141.9L330.67,141.25L329.39,142.12L326.85,141.51L323.77,143.98L319.17,139.9L319.65,138.62L319.06,137.93L320.47,134.41L320.47,134.41L322.19,134.08L323.67,135.06L324.03,131.79L328.27,130.06L334.14,133.52L335.99,131.68L336.55,129.82L338.82,128.81L339.35,123.88L342.87,125.5L347.3,123.63L348.03,122.61L350.21,123.09L350.98,124.85L351.14,129.14L352.27,130.74L351.18,133.69L352.48,135.45L360.51,139.06L362.55,137.49L359.65,134.24L365.67,132.17L369.17,131.77L371.23,137.93L373.78,138.86L373.46,139.89L376.58,140.97L377.86,145.13L376.61,148.09L379.56,152.37L380.76,153.98L382.18,154.29L384.88,153.32L384.67,155.88L386.74,156.54L389.33,155.48L390.62,153.99L389.55,149.21L390,148.4L392.87,147.32L391.72,148.71L392.07,150.2L394.23,151.21L395.81,150.57L397.57,146.14L402.59,144.39L405.5,141.84L410.62,139.29L411.49,137.33L414,136.25L414.52,134.64L413.47,132.97L415.19,131.78L415.08,128.5L416.8,127.24L419.01,127.31L420.09,125.62L420.09,125.62L419.48,124.01L422.24,121.97z"/>
		<path id="HU-KV" title="Kaposvár" class="land" d="M150.67,288.3L150.8,288.98L153.31,286.2L156.79,290.7L157.94,297.44L157.12,298.17L155.36,298L154.83,299.25L155.6,300.44L154.4,306.75L152.81,306.32L152.11,303.61L151.74,304.24L149.89,304.11L149.42,306.39L147.5,305.66L147.28,302.52L144.82,296.14L144.78,293.91L145.83,292.75L145.1,287.56L146.23,285.62z"/>
		<path id="HU-KM" title="Kecskemét" class="land" d="M335.33,219.88L337.69,226.64L337.46,227.81L334.67,230.11L333.32,232.63L329.93,229.67L328.5,230.89L328.91,231.88L325.95,233.19L325.05,232.39L323.88,233.05L324,234.36L322.17,236.12L320.19,235.61L318.28,236.36L318.66,234.63L315.48,230.84L314.2,230.77L312.03,228.23L309.99,228.21L309.45,224.35L304.39,218.17L306.93,215.72L307.93,216.77L311.55,211.9L319.12,214.2L322.34,212.86L322.34,212.86L330.75,219.11L332.71,218.33z"/>
		<path id="HU-KE" title="Komárom-Esztergom" class="land" d="M242.96,103.13L246.27,103.76L246.27,103.76L251.44,106.01L252.24,109.79L253.16,110.83L253.05,114.25L255.04,116.11L253.25,118.09L251.23,116.61L246.92,117.71L246.58,120.45L247.91,123.41L247.93,125.87L243.81,125.31L240.23,123.29L240.32,124.68L237.58,124.67L240.59,127.59L237,129.73L236.66,130.86L235.14,131.61L235.13,133.48L232.29,135.76L232.29,135.76L229.86,136.78L226.4,136.68L225.62,137.57L221.95,136.25L220.84,137.18L219.57,136.89L218.41,139.22L217.56,138.78L217.56,138.78L217.31,136.54L213.44,133.12L212.14,133.49L208.92,131.58L205.11,131.61L204.14,132.44L201.73,136.77L203.33,139.94L204.68,139.45L205.11,141.79L209.6,144.59L210.79,147.15L210.79,147.15L208.55,148.19L208.08,149.85L205.5,152.81L203.84,151.5L202.17,153.44L201.74,154.56L204.05,157.09L201.08,157.99L199.9,157.45L198.29,159.39L196.58,158.51L194.91,155.94L192.48,154.73L191.99,151.69L187.07,149.29L187.66,152.51L186.58,153.72L185.58,153.07L183.92,154.14L182.65,152.49L180.54,153.48L180.91,155.67L179.51,156.83L179.76,159.55L177.26,163.2L177.93,165.06L174.96,166L173.13,167.46L173.41,168.19L173.41,168.19L171.71,167.53L166.67,168.27L166.45,166.19L163.91,164.49L165.51,163.9L165.55,162.4L164.19,161.26L162.33,161.06L161.69,161.82L159.09,160.45L161.19,156.12L158.53,151.93L158.53,151.93L159.92,151.1L158.75,149.17L160.15,149.2L160.02,147.44L161.5,146.23L162.06,146.58L162.09,145.54L159.68,142.16L159.58,139.69L161.91,140.69L164.45,139.77L163.55,138.68L163.47,139.48L161.55,138.2L162.95,135.42L162.19,134.98L163.18,134.04L163.93,130.58L161.79,130.02L160.08,127.87L161.34,123.28L160.51,122.41L160.6,121.14L161.53,119.3L160.69,114.16L160.69,114.16L165.44,113.48L167.76,111.73L170.57,113.24L172.99,111.87L176.99,111.89L185.84,113.95L190.69,113.84L196.54,115.27L207.81,112.38L211.04,110.82L215.02,112.48L219.08,110.82L228.52,111.58L231.81,110.44L235.33,108.06L236.88,104.38z"/>
		<path id="HU-MI" title="Miskolc" class="land" d="M393.84,63.63L397.67,61.71L404.76,61.97L409.78,58.91L415.84,59.25L416.85,58.09L419.2,60.5L421.47,59.88L425.65,61.11L425.57,62.16L427.2,63.69L426.86,67.86L428.06,68.38L426.93,72.04L425.24,72.3L423.74,74.17L421.96,74.9L420.61,74.04L419.27,74.26L415.75,76.12L414.27,73L410.97,72.19L407.29,69.22L396.14,70.09L396.14,70.09L394.01,66.9z"/>
		<path id="HU-NK" title="Nagykanizsa" class="land" d="M82.73,291.99L79.14,294.6L78.81,298.13L75.5,297.4L74.4,298.36L71.94,294.79L74.67,280.14L77.36,280.35L77.82,277.93L76.98,277.2L77.16,275.27L78.32,274.81L79.06,275.93L81.01,274.87L82.03,273.12L84.02,273.68L84.66,276.26L83.89,280.67L87.04,283.26L86.64,285.69L88.07,286.32L88.32,288.49L88.32,288.49L87.39,288.6L86.9,290.43L86.06,290.83L84.68,288.87L83.39,288.94z"/>
		<path id="HU-NO" title="Nógrád" class="land" d="M319.2,47.07L321.07,46.91L321.97,50.42L323.33,51.69L326.01,51.88L327.04,50.21L327.99,50.08L329.29,50.42L331.79,53.2L332.76,52.99L333.37,54.44L331.34,57.01L332.52,58.5L334.65,56.32L336.75,57.3L337.82,55.17L338.25,56.29L341.67,56.81L343.03,59.37L341.87,62.36L345.27,61.25L346.46,58.76L347.63,58.56L348.63,56.91L349.79,57.29L351.11,56.06L353.52,55.39L355.15,56.59L355.15,56.59L356.29,58.44L358.41,58.77L358.89,60L358.89,60L357.59,61L356.97,63.1L354.63,62.85L353.95,65.06L347.76,67.22L347.98,68.99L349.52,69.41L349.36,70L352.07,72.02L351.26,72.29L351.81,76.44L353.32,77.98L348.93,79.56L348.38,80.71L349.29,82.08L347.39,83.07L347.64,85.78L345.3,87.06L343.96,90.31L341.31,90.39L339.07,88.62L332.89,89.67L333.27,91.42L335.98,92.24L337.3,93.52L336.56,95.58L335.08,96.28L330.44,92.11L329.6,92.32L329.04,97.35L326.13,100.19L324.79,102.78L325.26,103.67L322.37,103.52L321.82,104.6L320.35,104.9L320.17,106.28L319.24,104.34L317.37,105.27L318.69,108.74L317.85,110.25L318.44,110.74L316.91,111.91L315.79,111.14L311.9,114.63L311.9,114.63L309.15,113.24L306.93,116.35L304.61,117.6L304.44,118.59L305.9,118.8L306.56,119.76L303.63,121.06L300.98,115.95L300.59,110.35L297.71,109.99L298.9,106.6L300.56,105.8L298.63,103.83L295.69,103.2L292.7,103.6L289.58,101.79L281.13,102.74L280.13,101.43L276.18,99.32L275.24,100.42L270.17,99.51L269.14,100.61L267.61,100.41L266.12,98.16L265.27,98.65L264.19,95.4L261.18,93.64L255.18,87.56L255.74,85.07L259.65,82.25L259.32,81.38L260.77,80.11L261.06,78.03L260.52,77.88L261.1,77.09L259.42,75.33L258.11,76.09L256.62,75.26L254.12,71.49L254.12,71.49L258.91,71.71L261.98,68.84L263.61,70.54L264.72,70.2L265.83,71.34L267.86,69.62L270.07,70.6L272.57,69.41L277.43,71.32L280.24,70.72L282.27,72L283.43,69.85L285.48,69.28L287.44,67.52L294.08,67.56L295.24,66.89L296.54,68.08L298.63,67.49L300.5,65.63L301.52,65.76L301.56,67.1L302.83,68.02L302.96,66.5L304.72,65.8L305.18,60.45L306.76,58.87L306.32,56.01L308.21,53.66L308.02,51.92L312.93,49.94L317.51,45.56z"/>
		<path id="HU-NY" title="Nyíregyháza" class="land" d="M489.74,87.97L494.3,78.57L497.28,79.71L497.85,78.98L501.17,79.17L501.26,77.16L502.62,76.93L502.65,75.45L500.85,73.5L501.23,72L504.58,71.63L505.7,73.11L507.23,73.52L509.18,72.76L510.97,73.03L512.28,76.48L511.21,79.23L512.84,79.4L513.03,80.75L517.37,80.57L518.32,87.84L519.45,89.38L518.59,89.77L518.8,91.25L516.59,91.44L516,93.4L512.9,91.8L512.77,97.59L514.93,98.01L513.82,100.6L512.06,101.15L510.3,99.38L509.95,97.84L502.62,98.44L500.55,95.62L499.13,94.84L497.09,94.97L496.33,92.95L490.91,90.52L490.91,90.52L491.72,88.81z"/>
		<path id="HU-PS" title="Pécs" class="land" d="M201.06,325.62L203.47,330.62L201.58,332.2L198.87,331.27L197.52,332.26L197.22,335.06L195.77,335.84L194.69,340.56L189.82,342.23L186.84,338.54L183.18,336.42L183.7,333.79L182.3,331.59L182.02,329.44L185.81,329.32L185.15,327.09L186.38,325.79L188.27,324.91L192.04,325.91L195.87,323.51L198.94,322.56z"/>
		<path id="HU-PE" title="Pest" class="land" d="M252.12,72.19l2,-0.7l0,0l2.5,3.77l1.49,0.83l1.31,-0.77l1.68,1.76l-0.58,0.79l0.54,0.15l-0.29,2.08l-1.45,1.26l0.33,0.87l-3.92,2.82l-0.56,2.48l6,6.08l3.01,1.76l1.07,3.26l0.86,-0.5l1.49,2.25l1.53,0.2l1.04,-1.1l5.07,0.91l0.94,-1.1l3.94,2.1l1,1.31l8.46,-0.95l3.12,1.81l2.99,-0.4l2.94,0.63l1.92,1.97l-1.65,0.8l-1.19,3.39l2.88,0.36l0.39,5.61l2.65,5.11l2.93,-1.3l-0.66,-0.96l-1.46,-0.21l0.16,-0.99l2.33,-1.24l2.22,-3.12l2.74,1.39l0,0l3.15,3.12l-1.38,3.34l2.59,5.09l1.72,0.49l1.64,4.29l-0.36,2.17l1.21,1.28l0,0l-1.41,3.52l0.59,0.69l-0.48,1.28l4.6,4.08l3.08,-2.46l2.55,0.6l1.28,-0.87l0.98,0.65l-3.77,5.63l4.59,3.9l2.76,4.34l7.51,5.8l4.13,1.91l2.73,3l0.19,2.28l2.43,3.6l-2.73,6.75l5.14,1.82l3.16,2.38l0.42,1.62l0,0l1.45,3.57l-3.34,4.02l0,0l-1.4,3.35l0.57,2.56l2.27,3.98l0.88,4.5l2.02,1.11l-1.58,3.5l0,0l-2.29,-1.5l-6.4,2.56l-1.41,2.41l0.12,2.41l-4.88,-1.44l-4.83,-2.99l-3.23,6.85l-0.83,0.07l0,0l-2.62,-1.55l-1.97,0.78l-8.41,-6.25l0,0l-4.03,-4.56l-2.08,-6.73l-2.97,-5.17l-2.21,2.05l-5.08,-1.89l-2.67,8.76l-4.38,-1.28l-4.31,4.08l-1.33,0.01l0.17,1.35l-2.76,3.48l-3.71,-5.28l1.91,-4.33l2.73,-3.25l-5.37,-5.38l-1.64,-0.32l-1.03,1.32l-2.39,0.65l-2.03,4.67l-0.81,-1.25l-3.31,-0.13l-2.39,3.29l-3.15,1.04l-0.76,2.72l-2.26,1.24l-3.84,-1.87l-0.21,-0.75l-6,-1.35l1.69,2.87l-0.72,1.85l0,0l-1.76,-2.47l-4.29,-3.6l-2.36,-10.18l0.78,-6.09l2.35,-4.26l1.03,-5.82l-3.56,-0.72l-0.64,-1.64l0.48,-1.3l-1.73,-0.41l0.61,-0.76l-0.37,-1.39l-4.08,-3.61l-5.36,-7.36l2.82,-3.3l-0.33,-3.99l-2.98,-4.5l-2.21,-0.04l-2.94,-5.33l-0.33,-2.82l0.72,-1.37l-0.93,-1.96l0,0l2.84,-2.28l0.01,-1.87l1.53,-0.75l0.34,-1.13l3.58,-2.14l-3,-2.92l2.73,0.01l-0.09,-1.39l3.58,2.02l4.12,0.56l-0.02,-2.46l-1.33,-2.97l0.34,-2.74l4.3,-1.1l2.02,1.48l1.8,-1.98l-1.99,-1.86l0.11,-3.42l-0.92,-1.04l-0.79,-3.78l-5.17,-2.25l0,0l0.79,-1.18l-1.83,-1.21l-0.77,-2.04l-2.7,-1.9l-2.69,-0.76l0.38,-5.12l-0.7,-1.41l1.48,-1.73l-0.6,-2.65l0.81,-0.12l-1.77,-2.83l1.37,-1.84l2.59,0.35l1.32,-1.17l0.04,-3.84l1.04,-1.17l-0.54,-0.93l0.79,-1.24l1.13,-0.63l0.98,0.65l2.55,-0.39l0.42,-1.31L252.12,72.19zM267.07,134.5l0.33,-2.65l-3.18,-0.41l-1.54,0.79l0.79,2.35l-4.03,0.25l-1.11,1.59l-2.41,-0.83l-1.9,1l0.99,2.77l-1.29,1.04l0.88,-0.01l-0.05,2.69l-0.78,0.12l1.44,0.47l-0.79,1.59l1.07,1.04l-0.87,1l1.01,1.21l1.45,-0.01l1.72,2.83l-1.07,1.34l0.7,0.45l-0.16,2.15l-1.71,1.6l0.43,2.62l-0.98,1.06l0.58,2.22l5.69,-2.11l1.01,1.17l4.64,-2.92l1.94,2.39l-0.63,1.04l3.83,3.88l0.88,-0.97l2.72,-0.57l2.41,-4.58l3.36,-3.28l0.6,0.23l1.42,-2.58l1.39,0.28l1.84,-2.79l3,-0.9l-1.79,-3.9l0.39,-3l-4.96,0.92l-1.69,-3.81l-2.22,0.61l-1,-1.05l-1.61,0.11l-2.72,-2.62l1.17,-0.68l-2.6,-1.73l0.76,-0.09l0.02,-0.89l-1.2,-1.68l-2.12,-0.44l-1.41,-1.32L267.07,134.5z"/>
		<path id="HU-SO" title="Somogy" class="land" d="M117.69,245.31l6.3,-0.31l16.49,-8.03l3.57,-2.67l8.48,-3.26l4.06,-2.53l3.2,0.21l2.19,-2.01l-0.05,-3.37l13.64,-6.3l8.08,1.53l0.58,-1.05l0.43,0.4l0,0l2.79,3.65l1.91,5.69l-2.3,1.96l1.83,0.65l-0.96,0.49l0.88,3.74l-1.06,2.12l1.29,5.44l0,0l-3.87,1.43l0.4,3.26l-2.19,-0.17l-3.14,1.75l1.44,3.42l0.98,-0.5l0.34,0.87l-1.13,1.19l-0.3,2.07l-2.62,2.52l0.67,1.17l-3.05,3.56l1.3,3.56l-1.25,3.89l-1.94,1.27l-1.19,-0.65l0.02,6.93l-0.71,0.78l0.88,0.71l2.64,7.89l-0.19,1.41l-1.3,0.18l-0.64,0.97l-0.53,-0.55l-1.63,2.04l-1.54,0.44l0.83,2.2l3.41,-1.2l1.16,3.57l1.5,-0.33l0.51,4.96l-1.06,2.85l-1.98,1.38l0,0l-0.6,0.53l-2.13,-1l-1.37,0.55l-0.45,-1.34l-4.68,0.23l-2.18,6.25l0.35,3.6l-1.11,0.96l-1.08,-0.65l-0.54,0.72l-2.05,-0.34l-0.5,1.03l-1.26,-0.31l-1.21,1.37l-2.51,-0.35l-0.11,-1.18l-1.32,0.34l-0.6,-1.07l-0.87,0.39l0.2,1.16l-1.59,1.79l-1.8,-0.6l-1.25,-3.55l-1.75,1.33l0.91,1.89l-1.89,1.88l-0.02,1.77l-1.55,2.83l-0.16,6.19l-1.86,0.99l1.36,1.49l-0.53,3.67l-1.42,0.23l-0.13,1.09l-2.49,1.02l0.39,2.2l1.99,2.72l-0.08,1.93l-2.72,0.78l1.78,6.37l1.44,0.16l-0.82,-1.91l0.69,-0.3l0.72,1.6l2.84,0.1l-0.04,1.84l2.25,1.36l-0.28,1.23l1.17,0.89l-0.63,0.75l0.76,1.98l-0.64,1.73l-2.17,-0.39l-0.72,1.07l-0.81,-1.85l-1.7,1.63l0.23,1.15l-1.59,0.52l0,0l-2.72,-7.26l-5.03,-4.32l-3.48,0.34l-8.38,-2.07l-0.67,0.98l0.81,1.37l-0.89,0.65l-1.32,-0.43l-0.24,-1.19l-1.31,1.14l-0.77,-0.27l-0.32,-1.91l-3.45,0.66l-0.04,-2.42l0.67,1.03l0.95,-0.78l2.29,-0.08l-0.05,-0.5l-2.55,0.27l0.02,-1.12l1.24,-0.03l-0.62,-0.66l0.47,-1.76l-0.7,-0.13l-0.1,1.49l-0.83,0.6l-1.35,-2.63l-0.78,-0.12l-0.27,0.63l0.95,0.82l-0.31,1.58l-2.01,0.56l1.06,-2.81l-0.96,-0.06l-0.42,1.1l-0.87,-0.3l-0.26,-1.02l1.07,-1.41l-2.19,0.13l-2.12,-1.63l2.95,-1.24l0.31,-0.93l-3.59,0.13l0.26,-2.15l1.18,-1.36l-3.53,-0.45l0.14,-0.76l1.71,0.31l-1.02,-0.3l-0.48,-1.69l-2.91,0.18l0.12,-0.63l1.28,0.05l1.21,-2.23l-2.01,0.03l0.8,-1.15l-0.54,-0.79l-0.3,0.6l-2.85,0.23l-0.32,-2.83l0.88,-0.57l-0.13,-2.14l-2.08,-1.1l0.1,-1.4l-1.99,-0.48l-1.09,0.6l-0.38,-1.23l-0.88,0.3l-0.93,-0.84l0.1,-0.7l-1.08,-0.42l-0.65,0.66l-1.71,-2l-4.88,-2.52l-3.19,-0.49l-0.32,-2.38l-1.78,0.33l-2.32,-2.51l-3.77,-2.12l-0.98,-6.56l0,0l2.49,1.93l3.01,-0.61l0.47,3.32l1.45,-0.49l2.62,-2.71l2.58,1.33l0.96,-0.52l1.48,-0.94l-0.39,-1.76l0.96,-1.47h0.96l0.11,-1.12l-1.38,-5.03l-1.06,-0.7l0,0l0.66,-3.05l1.29,-0.06l1.38,1.96l0.84,-0.4l0.49,-1.83l0.93,-0.1l0,0l1.64,0.8l0.11,0.94l1.23,0.14l1.19,-0.4l0.14,-2.56l4.08,-0.29l0.27,-7.14l1.03,0.08l2.17,-3.49l-0.7,-14.35l0.46,-5.87l3.15,-2.96l1.07,-5.94l8.55,0.39l2.56,-1.86L117.69,245.31zM145.83,292.75l-1.06,1.16l0.05,2.23l2.45,6.38l-0.17,2.51l2.32,1.35l0.47,-2.28l1.85,0.13l0.37,-0.62l0.7,2.71l1.59,0.43l1.2,-6.31l-0.77,-1.19l0.53,-1.25l1.76,0.17l0.82,-0.73l-1.15,-6.74l-3.48,-4.5l-2.51,2.78l-0.49,-1.28l-3.83,-2.23l-1.37,2.09L145.83,292.75z"/>
		<path id="HU-SN" title="Sopron" class="land" d="M45.6,111.98L46.9,111.66L47.32,112.97L49,114.01L54.65,115.14L57.07,121.62L57.07,121.62L53.78,127.32L51.75,126.27L45.26,127.46L41.07,129.69L41.07,129.69L36.17,126.75L35.41,127.62L33.67,127.52L33.15,126.19L29.3,125.39L27.88,124.15L29.68,123.08L30.06,119.96L31.25,121.77L32.51,122.08L32.73,120.87L34.58,119.23L36.66,118.01L38.51,118.03L39.48,116.58L38.17,114.75L39.1,113.99L39.15,112.69L44.49,111.36z"/>
		<path id="HU-SZ" title="Szabolcs-Szatmár-Bereg" class="land" d="M552.48,23.8L555,23.94L554.11,26.28L552.82,27.08L555.23,30.67L559.96,31.9L559.31,35.34L561.42,37.72L561.69,41.45L563.56,43.34L565.46,47.37L567.26,45.42L569.83,45.7L570.14,45.15L572.49,46.52L575.38,44.93L576.37,45.64L575.98,46.79L577.62,47.13L577.57,48.67L579.07,50.98L579.68,50.69L582.58,52.65L581.96,55.25L582.94,57.84L583.7,57.7L585.02,59.85L584.15,60.18L585.13,63.33L584.43,64.62L587.01,64.88L588.49,66.17L591.66,66.87L597.62,63.06L599.5,63.1L600.54,64.54L601.31,64.02L600.97,62.82L602.63,63.41L603.54,62.76L603.98,64.87L604.85,63.33L605.72,63.52L606.21,64.5L605.55,66L606.46,66.63L606.79,68.34L607.4,68.07L608.94,69.57L609.55,72.47L610.06,71.76L610.73,72.11L609.31,77.76L606.68,80.71L607.04,81.75L609.65,82.17L611.44,83.46L612,85.72L610.95,85.93L607.15,91.67L605.54,91.72L602.47,94L599.32,93.83L600.17,95.52L599.72,97.21L601.24,99.18L600.97,100.48L598.62,101.59L595.25,101.47L592.39,107.78L586.6,109.16L586.07,109.91L580.59,109.84L574.5,104.72L571.48,105.65L569.47,112.76L569.82,114.01L563.08,112.89L559.62,110.54L559.58,113.75L556.75,115.55L554.86,115.42L554.31,119.66L551.56,120.77L550.98,124.61L549.36,125.54L548.11,131.21L546.75,133.78L542.66,133.25L542.66,133.25L541.56,132.2L540.27,125.01L537.68,123.4L536.77,123.59L534.73,128.45L532.79,130.05L531.19,126.99L531.87,124.37L529.27,122.81L529.73,119.15L527.95,118.69L524.2,115.28L520.92,116.22L520.62,119.72L518.39,121.61L518,122.88L515.84,123.97L513.21,123.1L512.58,121.65L509.99,121.11L510.43,118.95L505.67,118.64L504.46,115.36L502.38,115.51L502.28,116.31L498.36,115.78L494.96,109.8L493.64,109.73L489.73,107.3L489.74,103.71L491.75,94.36L490.87,94.09L490.91,90.52L490.91,90.52L496.33,92.95L497.09,94.97L499.13,94.84L500.55,95.62L502.62,98.44L509.95,97.84L510.3,99.38L512.06,101.15L513.82,100.6L514.93,98.01L512.77,97.59L512.9,91.8L516,93.4L516.59,91.44L518.8,91.25L518.59,89.77L519.45,89.38L518.32,87.84L517.37,80.57L513.03,80.75L512.84,79.4L511.21,79.23L512.28,76.48L510.97,73.03L509.18,72.76L507.23,73.52L505.7,73.11L504.58,71.63L501.23,72L500.85,73.5L502.65,75.45L502.62,76.93L501.26,77.16L501.17,79.17L497.85,78.98L497.28,79.71L494.3,78.57L489.74,87.97L489.74,87.97L487.47,87.09L486.82,88.13L485.69,88.15L485.57,89.44L479.55,88.99L479.17,89.79L474.58,90.5L472.59,89.76L469.7,90.09L465.28,92.23L464.22,89.26L462.09,88.35L461.6,87.17L458.32,84.98L454.77,84.08L453.94,85.44L451.75,84.45L451.75,84.45L449.95,83.19L450.44,82.45L447.86,78.57L452.38,74.09L452.7,72.93L454.45,73.79L455.72,73.31L456.35,73.94L456.09,75.74L458.07,75.34L460.52,76.2L461.44,75.58L460.96,74.01L463.69,71.87L464.75,74.09L467.46,74.01L467.57,75.27L469.45,75.04L471.09,76.33L472.66,74.77L477.49,74.76L478.02,72.18L479.49,73.2L480.14,72.86L480.23,70.36L482.46,69.53L481.62,68.61L480.19,68.8L479.81,67.36L481.14,67.72L481.38,67.02L478.89,64.81L478.13,62.8L479.44,60.88L478.97,58.03L480.7,55.24L481.93,55.17L483.21,56.83L484.04,54.98L486.07,55.4L486.18,56.01L487.75,55.6L487.39,54.28L490.85,52.23L492.36,52.14L492.9,51.12L496.05,52.97L500.87,53.53L505.07,52.92L505.9,53.62L506.23,52.04L506.99,52.74L508.69,51.83L508.61,53.58L510.11,52.95L510.46,51.26L511.63,51.89L512.14,50.61L513.17,50.35L512.98,48.99L514.36,48.73L514.21,46.91L515.3,48L515.7,46.63L516.72,49.11L517.63,46.98L519.67,47.36L521.67,46.18L523.77,47.05L524.39,45.56L525.6,44.98L525.51,43.82L526.17,44.49L528.42,41.86L529.38,42.26L528.9,41.25L529.53,39.95L532.2,37.52L533.33,37.37L532.29,39.29L534.31,39.26L534.22,38.07L535.56,38.84L536.03,40.1L536.72,39.13L535.63,37.95L537.19,38.88L537.14,37.49L539.36,37.76L538.5,35.46L540.84,32.19L542.28,31.86L540.61,30.76L542.38,30.7L541.48,29.8L541.9,28.2L541.9,28.2L543.52,27.85L543.04,26.48L544.91,25.68L545.28,23.81L549.54,21.74z"/>
		<path id="HU-SD" title="Szeged" class="land" d="M366.34,291.14L372.81,301.32L377.94,302.65L377.45,304.8L377.45,304.8L378.17,308.86L377.57,313.29L372.29,313.55L371.54,312.83L369.46,312.83L369.64,317.18L370.46,318.02L371.93,318.7L375.8,317.89L374.2,323.77L374.86,324.58L374.5,326.7L373.09,327.41L373.09,327.41L372.96,326.31L371.83,327.02L371.83,327.02L368.07,317.86L366.48,315.8L362.93,317.3L360.98,316.71L358.93,320.7L358.93,320.7L356.44,324.28L353.99,324.12L352.8,321.02L352.8,321.02L355.45,320.53L356.73,319.12L356.73,317.08L355.59,316.76L355.21,314.65L357.36,311.08L355.72,309.95L351.37,309.11L348.13,306.46L352.66,302.26L353.93,302.18L357.2,303.93L356.72,300.7L357.69,298.14L360.95,298.47L362.38,299.63L365.22,299.59L365.69,300.23L366.67,297.62L364.27,295.84L364.16,291.98L365.31,290.96z"/>
		<path id="HU-SF" title="Székesfehérvár" class="land" d="M210.27,176.97L211.03,178.35L214.01,178.15L216.76,181.25L215.2,183.41L215.36,185.13L217.1,186.92L215.95,188.51L216,189.75L217.89,189.64L219.74,194.03L218.42,194.75L217.44,193.88L215.08,195.39L211.67,199.5L210.59,198.11L208.33,199.66L205.24,200.17L204.93,194.34L203.25,193.46L199.22,186.29L202.48,182.01L204.88,180.46L205.21,179.04L206.72,178.39L207.81,175.14L208.95,174.85z"/>
		<path id="HU-SK" title="Szolnok" class="land" d="M358.21,184.92L361.78,182.15L363.72,179.13L365.99,179.73L369.43,182.78L371.41,182.7L373.15,185.11L371.74,185.52L371.71,186.3L374.48,185.96L373.35,186.92L371.96,192.36L374.86,193.82L376.3,197.97L374.98,200.05L373.85,199.39L372.63,201.52L369.76,201.49L367.65,200.37L366.55,198.39L362.09,198.09L360.67,196.54L361.31,195.72L356.33,192.52L356.33,192.52L359.67,188.5z"/>
		<path id="HU-SH" title="Szombathely" class="land" d="M46.02,177.31L49.2,179.35L50.64,177.76L51.51,177.85L52.61,181.06L50.29,183.19L51.45,185.25L51.39,191.94L50.64,192.32L48.7,190.06L47.98,190.1L45.94,193.35L44.67,193.75L41.27,191.2L41.3,189.16L39.67,186.31L39.2,181.64L36.25,179.92L36.11,178.72L38,178.01L39.61,179.27L40.78,179.11L43.31,178.58L43.11,177.41L44.77,177.93z"/>
		<path id="HU-TB" title="Tatabánya" class="land" d="M210.79,147.15L209.6,144.59L205.11,141.79L204.68,139.45L203.33,139.94L201.73,136.77L204.14,132.44L205.11,131.61L208.92,131.58L212.14,133.49L213.44,133.12L217.31,136.54L217.56,138.78L217.56,138.78L213.88,139.46L214.52,142.4L212.92,142.7L214.09,144.55L213.25,144.43L213.44,145.46z"/>
		<path id="HU-TO" title="Tolna" class="land" d="M189.06,241.63L192.58,240.91L192.66,240.17L197.71,236.35L198.27,237.37L197.72,239.13L198.52,239.96L200.6,240.15L203.06,241.68L204.47,239.96L205.11,241.93L205.68,240.63L205.93,242.72L206.64,242.68L206.82,238.1L208.18,240.07L207.63,241.18L208.51,242.64L208.56,245.56L212.15,246.46L213.6,245.49L214.27,246.08L216.29,245.74L215.74,243.43L220.22,240.95L221.85,244.14L224.53,245.87L225.54,245.78L225.61,247.8L227.11,251.01L226.82,253.05L228.96,253.31L231.3,252.55L236.1,248.18L234.84,245.15L237.55,243.06L241.81,242.59L241.91,240.21L247.9,235.95L249.15,233.76L247.73,232.44L251.33,231.48L251.43,230.86L253.44,231.14L253.44,231.14L253.6,236.56L256.12,238.9L257.81,242.17L259.04,247.18L260.77,250.35L260.61,252.71L257.36,257.67L253.9,259.65L249.77,260.27L247.69,263.5L247.95,265.51L250.62,269.58L250.87,275.17L253.25,280.83L253.21,284.62L250.38,289.45L249.96,291.52L251.17,299.76L253.29,303.34L252.3,309.25L250.83,309.42L249.07,308.08L248.12,308.21L248.96,312.18L247.92,313.35L247.16,312.7L244.24,316.13L245.41,316.93L248.73,314.62L247.99,316.63L248.52,318.13L246.77,318.73L244.77,324.35L244.15,323.04L244.49,321.02L243.15,321.27L242.14,322.47L242.06,324.76L245.68,325.84L244.89,328L243.65,327.44L243.74,328.85L243.74,328.85L240.52,329.02L239.34,328.26L237.82,329.07L232.75,326.04L232.04,326.67L228.41,321.97L226,320.47L225.24,318.48L223.3,319.49L221.12,315.78L221.81,314.46L219.96,314.7L217.97,313.31L218.97,310.45L218.21,308.81L218.83,307.79L218.3,306.98L218.13,308.21L217.32,307.97L215.86,305.41L213.98,305.06L213.26,304.08L213.39,308.05L211.72,309.18L212.11,309.91L210.23,310.21L210.3,311.34L204.7,314.8L203.45,314.75L202.66,313.23L204.39,313.07L206.27,311.73L208.02,306.91L207.46,305.41L206.15,305.88L203.94,305.01L203.77,300.85L205.12,299.45L204.99,297.99L201.71,296.29L201,294.22L201.25,291.43L198.42,288.94L194.17,290.95L190.49,290.11L186.73,291.72L186.75,295.52L188.13,297.13L188.14,299.19L183.61,302.15L182.05,301.15L180.3,302.01L180.39,304.98L181.85,305.64L181.18,306.58L179.24,304.04L177.55,304.2L176.97,305.25L174.87,304.5L174.87,304.5L176.85,303.12L177.9,300.27L177.39,295.3L175.89,295.63L174.73,292.06L171.32,293.26L170.49,291.05L172.03,290.61L173.66,288.57L174.19,289.12L174.83,288.15L176.13,287.97L176.32,286.56L173.69,278.68L172.81,277.97L173.53,277.19L173.51,270.26L174.7,270.91L176.64,269.64L177.89,265.76L176.59,262.19L179.64,258.63L178.98,257.46L181.59,254.95L181.89,252.88L183.02,251.68L182.68,250.82L181.69,251.32L180.25,247.89L183.39,246.15L185.58,246.32L185.18,243.06z"/>
		<path id="HU-VA" title="Vas" class="land" d="M47.92,153.38l2.86,3.48l1,-0.38l2.28,1.5l3.6,-3.11l2.59,-1.08l0.54,0.89l1.4,-0.94l0.56,1.17l3.46,-1.87l1.55,3.25l1.59,1.41l2.44,-0.69l0.2,0.92l1.41,0.05l1.38,2.17l1.94,-2.78l2.63,-0.98l5.33,-4.89l1.51,2.67l-2.28,5.8l0.5,0.36l1.6,-1.51l5.23,-1.55l1.75,-2.73l2.63,0.75l0,0l0.91,3.39l2.12,1.91l-1.77,1.38l2.27,2.72l0.51,-0.31l0.64,1.17l2.99,1.71l0.92,-0.34l2.25,2.26l-6.23,2.44l-0.86,1.21l0.2,2.23l-1.54,1.26l0.52,8.2l0.6,0.58l-0.41,4.04l-1.12,1.46l-0.01,2.91l1.59,4.19l0.17,4.08l-2.46,2.05l-1.97,-1.45l-0.74,0.69l-1.27,-1.03l-3.34,1.65l-2.87,0.09l-0.2,2.44l0,0l0.05,3.01l-1.61,-0.88l-1.33,0.98L83.32,207l-1.49,0.5l-0.36,-0.66l-1.27,0.9l1.25,4.51l-2.58,2.68l0.29,1.16l-0.99,1.4l-5.06,-0.25l-0.36,-1l-1.96,-0.65l-1.62,0.8l-2.73,-0.14l-0.42,-1l-3.45,3.69l-1.84,0.36l-0.82,2.98l-3.87,-0.97l-3.15,0.42l-1.31,-1l-1.5,0.21l-1.64,2l-1.82,-0.67l-3.63,4.53l-0.52,2.71l-1.57,1.87l-5.9,3.04l-0.04,3.88l-1.28,1.18l-3.9,1.83l-0.23,0.78l-3.46,-1.65l-3.46,1.12l-0.01,1.43l3.52,-1.06l0.23,1.01l-1.41,1.01l0.25,2.53L23,248.94l0,0l-1.15,1.01l-0.66,-2.44l-2.81,-2.95l0.97,-2.86l-1.61,-0.42l0.39,-2.26l2.23,-0.95l0.64,-4.35l-4.02,-2.87l-0.77,-1.56l-5.12,-0.5l-7.29,2.8l-2.49,-0.42L0,229.75l1.64,-0.89l2.79,-3.71l1.41,-0.46l1.62,-4.25l1.79,-0.17l0.45,0.62l2.08,-1.33l0.75,-2.1l1.9,-0.01l0.22,-3.22l1.39,-3.52l0.88,2.02l1.98,-0.47l1.58,0.86l0.74,-1.87l1.45,0.42l0.63,1.1l3.57,-0.9l1.68,1.64l1.47,-0.24l0.19,-1.41l3.19,1.45l0.45,-0.91l2.05,-0.01l-4.1,-3.88l-1.68,1.03l-0.81,-0.91l0.29,-1.07l7.06,-2.59l-1.19,-1.31l-3.09,-0.82l0.15,-1.51l-1.11,-1.19l1.06,-1.49l0.46,0.57l0.42,-0.96l1.47,-0.2l0.13,-1.82l2.52,-0.41l-1.18,-2.84l-5.6,0.75l-0.42,-1.19l1.22,-2.23l-0.87,-2.62l-2.3,0.41l-1.12,-2.71l0.31,-0.7l0.3,0.56l1.2,-0.45l0.27,-1.01l0.21,-3.56l-0.87,-1.01l3.25,-0.12l1.16,-1.22l-0.12,-1.95l0.95,-0.49l-2.3,-7.27l-1.33,-0.42l-1.36,-1.88l1.69,-0.56l0.5,-1.43l-0.68,-1.1l0.3,-0.85l0.74,0.04l-1.37,-3.41l0.86,-0.56l2.67,0.7l-0.23,1.21l1.08,0.23l0.19,0.84l1.16,-0.98l0.07,-1.62l5.63,0.47l1.31,-2.3l2.96,-1.05l0.62,-1.48L47.92,153.38zM43.11,177.41l0.2,1.17l-3.7,0.69l-1.61,-1.26l-1.89,0.72l0.14,1.19l2.95,1.72l0.48,4.68l1.62,2.85l-0.03,2.04l3.4,2.55l1.26,-0.4l2.04,-3.25l0.72,-0.04l1.94,2.26l0.75,-0.38l0.06,-6.68l-1.16,-2.07l2.33,-2.13l-1.1,-3.21l-0.87,-0.09l-1.44,1.59l-3.18,-2.04l-1.25,0.62L43.11,177.41z"/>
		<path id="HU-VE" title="Veszprém" class="land" d="M95.6,155.25l1.89,-1.58l2.24,1.69l0.13,-0.9l0.7,-0.07l4.2,0.85l0,0h1.07l0,0l6.98,-1.42l1.5,-2.18l0.36,-3.25l3.1,0.79l1.82,-1.46l2.87,0.31l5.82,2.57l2.86,-2.71l3.27,4.1l1.44,-1.13l0.59,0.76l0.83,-0.37l0.44,1.37l1.85,-0.65l0.24,-1.5l0.93,-0.53l0.74,0.83l1.79,-0.72l0.79,1.25l-0.6,1.62l2.35,-0.43l-0.7,-1.25l0.77,-0.88l-0.35,-0.58l0.76,-0.23l1.73,2.52l3.75,-4.64l0.32,2.17l1.01,0.19l1.87,-2.49l2.41,1.89l1.2,2.78l0,0l2.66,4.19l-2.1,4.33l2.6,1.37l0.64,-0.76l1.86,0.2l1.36,1.14l-0.04,1.5l-1.61,0.58l2.54,1.7l0.22,2.08l5.04,-0.74l1.7,0.66l0,0l0.72,1.67l1.93,0.29l-1.66,1.98l0.89,3.62l1.6,-0.41l2.86,4.19l3.39,-2.16l1.18,-0.01l1.57,3.43l1.99,1.91l1.79,0.05l0.62,1.18l-0.02,4.82l-1.06,2.99l1.16,4.36l-0.19,2.31l1.03,1.48l-2.75,2.18l0.74,3.49l2.12,3.96l2.08,-0.44l0.29,0.73l-2.37,0.71l-0.15,0.94l-1.89,1.13l-0.6,1.83l-4.02,3.48l0,0l-0.43,-0.39l-0.58,1.05l-8.08,-1.53l-13.64,6.3l0.05,3.37l-2.19,2.01l-3.2,-0.21l-4.06,2.53l-8.48,3.26l-3.57,2.67l-16.48,8.03l-6.3,0.32l0,0l-5.38,-5.58l-0.97,-2.92l-2.19,-2.47l-0.01,-1.92l1.34,-1l-1.91,-2.18l0.71,-1.35l-0.44,-1.32l-1.08,-0.37l-2.35,-3.11l-2.44,0.67l-2.57,-1.18l1.06,-3.89l1.1,-0.75l-0.21,-1.44l-1.76,-1.37l-0.46,-1.5l-1.71,-1.5l-1.99,1.06l-2.82,-0.71l-7.1,-6.28l0,0l0.2,-2.44l2.87,-0.09l3.34,-1.65l1.27,1.03l0.74,-0.69l1.97,1.45l2.46,-2.05l-0.17,-4.08l-1.59,-4.19l0.01,-2.91l1.12,-1.46l0.42,-4.04l-0.59,-0.58l-0.52,-8.2l1.54,-1.26l-0.2,-2.23l0.86,-1.21l6.24,-2.44l-2.25,-2.26l-0.92,0.35l-2.99,-1.71l-0.64,-1.17l-0.5,0.31l-2.26,-2.72l1.77,-1.38l-2.12,-1.91L95.6,155.25zM153.16,190.65l0.45,1.31l3.18,1.36l0.5,3.5l-3.7,3.91l5.14,5.45l0.2,2.92l2.12,0.29l1.16,-0.57l1.61,-3.71l3.78,-0.12l1.25,-4.95l-0.52,-1.06l0.85,-1.03l-4.24,-7.26l-3.52,-3.32l-2.08,-0.63l-3.17,3.64L153.16,190.65z"/>
		<path id="HU-VM" title="Veszprém" class="land" d="M163.8,189.38L168.68,196.71L168.84,200.05L167.39,205.23L163.82,205.13L162.21,208.84L159.53,209.53L158.46,208.07L158.73,206.2L153.58,200.74L157.28,196.83L156.79,193.33L153.61,191.96L153.16,190.65L156.17,190.39L159.33,186.75L161.41,187.39z"/>
		<path id="HU-ZA" title="Zala" class="land" d="M86.48,206.18l7.1,6.28l2.83,0.71l1.99,-1.05l1.71,1.5l0.46,1.5l1.76,1.37l0.21,1.44l-1.1,0.75l-1.06,3.89l2.57,1.19l2.44,-0.67l2.36,3.11l1.08,0.37l0.44,1.32l-0.71,1.36l1.91,2.18l-1.33,1l0.01,1.92l2.19,2.47l0.98,2.92l5.38,5.58l0,0l-2.44,0.67l-2.56,1.86l-8.54,-0.39l-1.06,5.94l-3.15,2.96l-0.46,5.87l0.7,14.35l-2.17,3.49l-1.03,-0.08l-0.27,7.14l-4.08,0.29l-0.14,2.56l-1.19,0.4l-1.23,-0.14l-0.11,-0.94l-1.64,-0.8l0,0l-0.25,-2.18l-1.42,-0.63l0.4,-2.43l-3.15,-2.59l0.77,-4.42l-0.63,-2.57l-1.99,-0.56l-1.02,1.75l-1.95,1.06l-0.74,-1.12l-1.16,0.46l-0.18,1.94l0.84,0.73l-0.46,2.42l-2.69,-0.21l-2.72,14.65l2.45,3.57l1.1,-0.96l3.31,0.73l0.33,-3.53l3.59,-2.61l0,0l1.06,0.71l1.38,5.03l-0.11,1.12h-0.96l-0.96,1.47l0.39,1.76l-1.48,0.94l-0.96,0.52l-2.58,-1.33l-2.62,2.71l-1.45,0.5l-0.47,-3.32l-3,0.61l-2.49,-1.93l0,0l0.42,-1.11l-1.48,-1.5l0.35,-0.98l-1.28,-0.1l-0.37,-1.09l-1.01,-0.35v-1.19l-0.92,0.95l-2.83,-2.49l-1.45,0.93l-0.86,-0.83l-0.77,0.77l-0.63,-1.13l-1.2,0.1l-0.63,-1.71l-1.26,1.06l-4.21,-7.28l-1.31,0.39l0.6,-1.7l-1.26,-0.67l-1.95,0.27l-0.41,-0.93l-2.51,0.52l-1.72,-2.46l-4.98,-2.66l0.89,-1.18l-0.69,-0.76l0.63,-1.65l-1.22,-0.54l-0.59,-3.28l-2.56,-0.82l-0.26,-1.92l-3.19,-3.78l-2.15,-0.5l-0.69,-1.74l-1.89,-0.86l-0.66,-1.49l0.6,-2.5l2.42,0.71l0.91,-4.76l-4.96,-0.76L23,251.36l0.9,-1.09L23,248.94l0,0l2.2,-2.49l-0.25,-2.53l1.41,-1.01l-0.23,-1.01l-3.52,1.06l0.01,-1.43l3.47,-1.12l3.46,1.66l0.23,-0.77l3.9,-1.83l1.28,-1.18l0.04,-3.88l5.9,-3.04l1.57,-1.87l0.52,-2.71l3.63,-4.53l1.82,0.67l1.64,-2l1.5,-0.21l1.31,1l3.15,-0.42l3.87,0.98l0.82,-2.98l1.84,-0.36l3.45,-3.69l0.42,1l2.73,0.14l1.62,-0.8l1.96,0.65l0.36,1l5.06,0.25l0.99,-1.4l-0.29,-1.16l2.58,-2.68l-1.25,-4.51l1.27,-0.9l0.36,0.66L83.32,207l0.26,2.28l1.34,-0.98l1.62,0.88L86.48,206.18zM60.85,227.05l-0.78,2.65l-0.21,1.92l1.24,1.16l-0.63,3.8l1.63,2.46l-1.66,2.65l1.7,2.23l1.34,-0.29l0.92,-1.33l3.7,0.34l3.39,-0.89l-0.63,-3.44l0.89,-0.72l0.04,-2.43l-1.71,-2.76l0.46,-1.5l-1.07,-1.3l-1.95,-0.28l-0.87,-2.13l-2.37,-0.26l-0.33,0.67L60.85,227.05z"/>
		<path id="HU-ZE" title="Zalaegerszeg" class="land" d="M65.26,227.35L66.65,227.18L67.52,229.31L69.47,229.59L70.54,230.89L70.08,232.39L71.8,235.15L71.76,237.58L70.87,238.31L71.5,241.75L68.11,242.64L64.41,242.3L63.49,243.63L62.14,243.91L60.45,241.68L62.11,239.03L60.47,236.57L61.11,232.77L59.87,231.61L60.08,229.69L60.85,227.05z"/>
	</g>
</svg>