<?xml version="1.0" encoding="utf-8"?>
<!-- (c) ammap.com | SVG map of Hungary - Low -->
<svg xmlns="http://www.w3.org/2000/svg" xmlns:amcharts="http://amcharts.com/ammap" xmlns:xlink="http://www.w3.org/1999/xlink" version="1.1">
	<defs>
		<style type="text/css">
			.land
			{
				fill: #CCCCCC;
				fill-opacity: 1;
				stroke:white;
				stroke-opacity: 1;
				stroke-width:0.5;
			}
		</style>

		<amcharts:ammap projection="mercator" leftLongitude="16.113634" topLatitude="48.586316" rightLongitude="22.897693" bottomLatitude="45.736783"></amcharts:ammap>

		<!-- All areas are listed in the line below. You can use this list in your script. -->
		<!--{id:"HU-BK"},{id:"HU-BA"},{id:"HU-BE"},{id:"HU-BC"},{id:"HU-BZ"},{id:"HU-BU"},{id:"HU-CS"},{id:"HU-DE"},{id:"HU-DU"},{id:"HU-EG"},{id:"HU-FE"},{id:"HU-GY"},{id:"HU-GS"},{id:"HU-HB"},{id:"HU-HE"},{id:"HU-HV"},{id:"HU-JN"},{id:"HU-KV"},{id:"HU-KM"},{id:"HU-KE"},{id:"HU-MI"},{id:"HU-NK"},{id:"HU-NO"},{id:"HU-NY"},{id:"HU-PS"},{id:"HU-PE"},{id:"HU-SO"},{id:"HU-SN"},{id:"HU-SZ"},{id:"HU-SD"},{id:"HU-SF"},{id:"HU-SK"},{id:"HU-SH"},{id:"HU-TB"},{id:"HU-TO"},{id:"HU-VA"},{id:"HU-VE"},{id:"HU-VM"},{id:"HU-ZA"},{id:"HU-ZE"}-->

	</defs>
	<g>
		<path id="HU-BK" title="Békéscsaba" class="land" d="M257.38,208.68L258.1,206.83L256.41,203.96L262.41,205.31L266.46,207.94L275.03,199.65L278.34,199.78L279.15,201.03L281.18,196.37L284.6,194.4L291.61,200.09L286.96,207.67L290.67,212.95L293.26,208.12L298.9,204.03L303.29,205.31L305.96,196.55L311.04,198.44L313.25,196.39L318.3,208.29L322.34,212.86L322.34,212.86L319.12,214.2L311.55,211.9L307.93,216.77L306.93,215.72L304.39,218.17L309.45,224.35L309.99,228.21L312.03,228.23L315.48,230.84L318.66,234.63L318.28,236.36L322.17,236.12L323.88,233.05L328.91,231.88L329.93,229.67L333.32,232.63L337.69,226.64L335.33,219.88L335.33,219.88L339.39,212.96L349.1,217.39L350.39,212.57L356.79,210.01L359.08,211.51L359.08,211.51L363.26,214.65L362.74,217.51L360.28,218.67L360.29,220.08L363.57,220.52L365.11,223.35L358.56,228.65L355.95,228.36L354.82,230.89L353.88,230.01L350.35,231.92L351.85,233.94L354,233.52L354.34,234.65L351.21,235.22L351.09,237.4L353.76,239.16L353.54,236.12L354.6,235.61L356.17,238.2L356.17,238.2L347.71,248.22L351.62,252.44L348.85,260.14L350.06,261.8L350.06,266.12L345.35,271.62L340.65,267.72L330.64,274.02L333.28,277.3L336.9,276.62L341.01,280.62L341.54,283.14L340.02,285.36L341.6,288.51L339.77,293.03L337.66,294.82L334.22,292.5L327.42,297.75L325.42,296.2L319.47,298.1L322.66,303.55L317.73,308.85L323.21,318.8L323.21,318.8L321.96,319.66L320.2,318.45L317.56,321.04L311.41,320.05L310.49,322L305.99,324.43L307.8,327.66L302.42,330.77L302.46,332.63L297.93,337.14L294.83,338.47L293.35,336.48L286,341.15L287.25,344.55L286.23,343.48L273.81,343.51L272.73,338.47L270.07,338.01L266.4,343.08L267.66,347.69L261.65,347.81L260,349.86L261.18,352.9L252.01,351.49L249.55,353.94L248.09,353.39L248.46,354.7L243.54,354.92L243.54,354.92L242.14,353.67L242.83,352.01L247.16,350.51L244.85,348.42L248.37,340.83L246.4,337.92L248.58,337.05L246.07,335.79L245.19,331.36L246.44,329.97L243.74,328.85L243.74,328.85L243.65,327.44L244.89,328L245.68,325.84L242.06,324.76L242.14,322.47L244.49,321.02L244.77,324.35L246.77,318.73L248.52,318.13L248.73,314.62L245.41,316.93L244.24,316.13L248.96,312.18L248.12,308.21L252.3,309.25L253.29,303.34L251.17,299.76L249.96,291.52L253.21,284.62L253.25,280.83L250.87,275.17L250.62,269.58L247.69,263.5L249.77,260.27L257.36,257.67L260.61,252.71L257.81,242.17L253.6,236.56L253.44,231.14L253.44,231.14L256.41,223.09L256.41,223.09L256.74,212.01L256.74,212.01z"/>
		<path id="HU-BA" title="Baranya" class="land" d="M174.87,304.5l2.1,0.76l2.27,-1.21l1.94,2.54l0.68,-0.94l-1.46,-0.66l-0.09,-2.97l1.75,-0.86l1.56,1l4.53,-2.97l-1.42,-7.47l3.76,-1.6l3.68,0.84l4.25,-2.01l2.83,2.49l0.47,4.86l3.28,1.69l-1.05,7.02l3.52,0.4l0.56,1.5l-1.75,4.83l-3.61,1.5l0.79,1.52l8.66,-4.84l1.28,-1.86l-0.13,-3.97l2.6,1.33l1.46,2.56l0.98,-0.99l0.53,0.81l-0.86,5.52l3.83,1.16l-0.69,1.31l2.17,3.72l1.94,-1.01l6.8,8.19l0.7,-0.64l5.07,3.04l5.93,-0.22l0,0l2.7,1.12l-1.25,1.39l0.88,4.43l2.51,1.26l-2.18,0.87l1.98,2.92l-3.53,7.59l2.32,2.1l-4.33,1.5l-0.69,1.66l1.4,1.25l0,0l-0.39,3.84l-1.3,0.18l-8.02,-5.08l-3.99,0.12l0.14,2.56l-1.9,1.1l1.11,1.64l-1.36,1.03l-0.69,-1.12l-1.44,2.92l0.7,1.79l-4.43,3.18l0.01,1.83l-1.42,-0.35l-3.33,2.58l-2.75,-1.43l-0.84,3.65l-3.2,0.54l0.13,3.15l-3.66,-0.42l-3.84,-4.21l-2.4,3.42l-3.68,-1.8l-4.77,-0.17l-1.28,-2.19l-3.9,-1.11L185.42,372l-4.2,-1.66l-1.69,2.63l-1.94,0.49l-7.61,-3.78l-6.26,1.34l-2.07,-0.82l-4.02,3.37l-3.37,-5.7l-5.99,-0.28l-1.72,-2.32l-6.27,-0.66l-1.57,-1.65l0,0l1.59,-0.52l1.47,-2.78l0.81,1.85l0.72,-1.07l2.17,0.39l0.64,-1.73l-0.13,-2.73l-3.14,-3.48l0.04,-1.84l-2.84,-0.1l-0.72,-1.6l0.14,2.21l-1.44,-0.15l-1.78,-6.37l2.72,-0.78l-2.29,-6.85l4.03,-2.35l0.53,-3.67l-1.36,-1.49l1.86,-0.99l0.16,-6.19l3.46,-6.48l-0.91,-1.88l1.75,-1.33l1.25,3.55l1.81,0.6l2.26,-3.34l4.54,2.26l2.98,-2.08l3.67,0.27l1.11,-0.96l-0.35,-3.6l2.18,-6.25L174.87,304.5zM188.27,324.91L188.27,324.91l-3.12,2.18l0,0l0.66,2.23l-3.79,0.12l1.69,4.36l-0.52,2.63l3.66,2.11l2.98,3.69l0,0l5.16,-2.02l0.79,-4.37l0,0l3.1,-4.58l3.83,0.58l0.77,-1.23l-1.41,-3.94l0,0l-3.12,-4.11l-6.89,3.35L188.27,324.91z"/>
		<path id="HU-BE" title="Békés" class="land" d="M438.62,182l3.93,0.69l2.87,4.46l1.19,-2.09l5.66,4.47l6.5,0.86l2.71,2.34l6.55,-0.34l-0.13,4.24l-1.37,1.04l0.62,3.21l-5.23,3.9l0.88,3.08l-1.2,1.86l11.27,5.59l7.53,1.03l-1.53,3.97l1.99,-1.84l3.33,1.92l1.58,-1.75l6.15,-0.94l0.1,-5.38l3.17,0.55l2.35,-3.22l0.94,-0.55l0.25,1.31l1.49,-1.07l0,0l1.76,0.77l0.91,2.26l-1.9,3.84l1.24,1.09l-3.9,3.98l-3.41,0.79l1.34,5.45l-1.2,2.87l-7.21,3.59l-0.12,4.75l-3.2,4.62l3.8,3.56l0.17,2.48l-3.2,4.51l-1.88,-1.25l-3.62,0.2l2.15,4.09l-3.19,2.17l-0.89,3.04l-3.9,-1.92l-4.79,2.57l-1.02,3.52l1.56,1.14l-2.59,4.74l-1.43,0.52l-1.33,5.32l1.2,3.17l1.99,0.16l1.45,4.45l-2.08,3.43l0.5,1.11l-6.48,-0.89l-1.52,1.49l-0.69,7.26l-2.2,2.28l0.58,3.14l-6.02,0.56l-1.06,4.93l-3.53,2.42l-2.45,-0.74l-1.16,-2.18l-6.47,0.31l-0.61,-1.79l-1.77,0.27l-0.73,1.77l-3.93,-3.25l-8.71,1.6l0,0l-2.44,-1.87l0.86,-7.97l-1.75,-4.43l-4.2,0.65l-0.91,3.7l-5.29,0.05l-4.2,-2.08l-2.66,-3.44l0,0l3.09,-1.83l-0.07,-4.29l0,0v-1.74l2.22,-0.7l0.82,-9.03l-3.9,-3.71l-0.12,-11.4l0.63,-4.68l1.23,-0.03l-0.96,-5.95l1.47,-4.37l-2.99,-2.34l-5.13,0.05l-4.94,-4.81l-2.73,1.08l0,0l-1.37,-7.23l4.53,-5.05l5.03,0.21l2.6,-1.13l0.75,-1.78l4.23,-0.1l3.97,2.32l5.57,-2.15l2.13,-5.12l-2.08,-0.32l1.98,-0.26l-0.27,-1.96l-1.25,-0.45l0.02,-7.2l1.48,0.13l2.8,-2.76l0.23,2.18l4.44,-0.03l0.21,-1.61l3.16,-2.55l1.52,0.58l-1.84,-5.88l0.24,-1.31l2.01,-0.46l-1.77,-3.58l8.89,-5.15L438.62,182zM446.26,247L446.26,247l-7.46,2.66l-2.21,-1.51l-3.7,3.32l2.11,2.57l1.43,-0.03l2.74,4.19l-2.15,5.29l15.11,-4.14l3.22,-3.38l2.16,0.85l2.29,-1.39l-0.28,-2.62l-2.42,-2.89l-2.18,-0.1l-1.47,-1.64l-5.73,1.97L446.26,247z"/>
		<path id="HU-BC" title="Békéscsaba" class="land" d="M446.76,247.83L447.71,250.16L447.71,250.16L453.44,248.19L454.92,249.83L457.1,249.94L459.52,252.82L459.8,255.45L457.5,256.83L455.35,255.98L452.13,259.37L437.02,263.5L439.17,258.21L436.43,254.02L435,254.04L432.89,251.47L436.59,248.15L438.8,249.66L446.26,247L446.26,247z"/>
		<path id="HU-BZ" title="Borsod-Abaúj-Zemplén" class="land" d="M480.64,0.01L487.44,4.89L489.87,10.6L496.21,10.29L500.75,25.73L504.44,27.65L506.54,32.16L515.24,34.49L516.58,30.05L518.27,30.06L518.93,31.51L521.02,30.89L521.13,29.3L521.41,30.28L521.9,29.33L524.61,30.47L526.53,28.18L529.9,28.49L533.73,26.29L536.26,28.33L538.1,27.11L539.03,29.04L539.87,27.8L541.9,28.2L541.9,28.2L542.38,30.7L540.61,30.76L542.28,31.86L538.5,35.46L539.36,37.76L537.14,37.49L537.19,38.88L535.63,37.95L536.72,39.13L536.03,40.1L534.22,38.07L534.31,39.26L532.29,39.29L533.33,37.37L532.2,37.52L529.53,39.95L529.38,42.26L528.42,41.86L526.17,44.49L525.51,43.82L523.77,47.05L521.67,46.18L517.63,46.98L516.72,49.11L515.7,46.63L515.3,48L514.21,46.91L513.17,50.35L511.63,51.89L510.46,51.26L508.61,53.58L508.69,51.83L506.23,52.04L505.9,53.62L500.87,53.53L496.05,52.97L492.9,51.12L487.39,54.28L487.75,55.6L484.04,54.98L483.21,56.83L480.7,55.24L478.13,62.8L481.38,67.02L479.81,67.36L480.19,68.8L482.46,69.53L480.23,70.36L480.14,72.86L478.02,72.18L477.49,74.76L472.66,74.77L471.09,76.33L467.57,75.27L467.46,74.01L464.75,74.09L463.69,71.87L460.96,74.01L460.52,76.2L456.09,75.74L455.72,73.31L452.7,72.93L447.86,78.57L451.75,84.45L451.75,84.45L450.77,88.51L449.04,89.97L452.06,90.95L448.29,93.91L448.3,97.46L445.8,99L447.9,103.45L444.67,112.46L440.67,112.29L440.7,116.57L436.21,117.5L434.92,120.35L431.93,121.47L430.44,119.74L430.59,122.3L431.95,122.68L427.37,123.1L429.66,126.3L429.08,127.12L425.28,123.73L425.28,123.73L422.24,121.97L419.48,124.01L420.09,125.62L420.09,125.62L414.21,120.98L408.27,121.26L403.01,118.09L402.19,117.01L404.26,114.23L396.11,105.93L396.08,97.76L392.58,96.21L391,93.45L391,93.45L393.21,91.32L393.21,91.32L395.76,91.92L394.99,90.66L397.39,88.87L391.2,83.43L394.78,76.2L393.79,71.45L396.14,70.09L396.14,70.09L407.29,69.22L410.97,72.19L414.27,73L415.75,76.12L419.27,74.26L423.74,74.17L426.93,72.04L428.06,68.38L426.86,67.86L427.2,63.69L425.65,61.11L421.47,59.88L419.2,60.5L416.85,58.09L415.84,59.25L409.78,58.91L404.76,61.97L397.67,61.71L393.84,63.63L393.84,63.63L391.21,58.99L386.95,58.59L385.58,59.15L385.91,60.86L383.55,63.69L382.9,66.87L379.27,62.75L376.51,62.8L375.78,66.15L372.65,67.22L366.01,63.99L365.29,61.07L358.89,60L358.89,60L355.15,56.59L355.15,56.59L357.72,54.59L356.81,53.73L357.59,52.77L362.52,49.19L362.88,45.07L369.37,45.36L368.97,44.06L371.27,43.88L371.17,41.86L372.4,41.42L376.49,43.95L380.09,42.49L381.15,38.87L387.76,29.82L388.4,22.49L396.57,13.13L396.07,7.6L397.53,6.65L399.13,7.94L400.16,5.68L403.6,7.01L410.06,3.44L426.98,0.29L426.38,1.35L428.87,4.64L433.53,3.79L437.1,8.58L439.29,9.28L442.21,7.26L446.82,8.06L449.37,9.31L449.94,11.88L451.82,12.76L454.42,9.43L457.08,9.15L460.83,6.54L468.5,8.54L469.88,3.32L478.39,3.62L479.09,0.86z"/>
		<path id="HU-BU" title="Budapest" class="land" d="M270.25,131.44L274.37,134.88L273.59,135.86L276.19,137.6L275.02,138.28L275.02,138.28L277.15,140.52L279.36,140.8L279.36,140.8L280.36,141.85L282.58,141.24L284.27,145.04L289.23,144.13L288.84,147.12L290.63,151.02L287.63,151.93L285.79,154.72L284.4,154.44L279.03,160.08L276.63,164.66L273.02,166.2L269.19,162.32L269.82,161.29L267.88,158.9L263.24,161.82L262.23,160.65L256.55,162.76L256.52,156.86L258.24,155.27L257.7,152.66L258.78,151.32L257.05,148.48L254.59,147.28L255.47,146.28L254.39,145.25L255.19,143.66L253.75,143.19L254.58,140.38L253.71,140.4L255,139.36L254,136.58L263.46,134.57L262.67,132.22L264.21,131.44L267.39,131.85L267.07,134.5L269.05,131.46L269.05,131.46z"/>
		<path id="HU-CS" title="Csongrád" class="land" d="M358.93,320.7l2.06,-3.99l1.95,0.59l3.55,-1.49l5.35,11.22l0,0l-4.87,-4.5l-3.73,1.84l-2.83,-2.12l-0.46,-1.96L358.93,320.7zM400.03,292.12l2.66,3.44l4.21,2.09l5.29,-0.05l0.91,-3.7l4.21,-0.65l1.75,4.43l-0.86,7.97l2.44,1.87l0,0l-2.27,3.54l0.83,5.53l-2.75,-0.32l-1.4,5.5l-3.31,2.84l-1.9,-0.95l-1.51,3.17l-8.52,-6.87l-4.11,-1.68l-0.41,2.87l-2.81,3.17l-7.51,-1.8l-1.23,1.18l-1.17,-2.51l-5.95,3.09l-3,3.8l-0.53,-0.66l0,0l1.41,-0.71l1.3,-8.8l-5.34,0.13l-1,-5.2l8.11,0.47l-0.12,-8.49l0,0l8.19,-1.04L400.03,292.12zM388.64,238.37l2.73,-1.08l4.95,4.81l5.13,-0.05l2.99,2.34l-1.47,4.37l0.96,5.95l-1.23,0.03l-0.63,4.68l0.12,11.4l3.9,3.71l-0.82,9.03l-2.22,0.71v1.74l0,0l-6.36,-0.13l-4.8,-6.7l-1.56,0.21l-1.46,-2.42l-3.96,2.18l-1.29,-2.27l-6.06,0.24l0.57,2.88l-3.99,0.95l1.52,2.7l-4.01,3.97l-2.03,-0.81l-0.04,-4.12l-1.67,0.82l-1.55,7.65l0,0l0,0l0,0l-2.18,0.84l0.11,3.86l2.4,1.79l-0.97,2.61l-8,-2.08l-0.49,5.78l-4.54,-1.67l-4.53,4.21l3.24,2.64l5.98,1.98l-2.15,3.56l1.53,4.47l-3.93,1.91l0,0l-8.33,-0.65l-10.31,6.14l-5.18,-2.35l-5.77,-5.36l0,0l-5.49,-9.96l4.94,-5.3l-3.19,-5.44l5.96,-1.9l1.99,1.55l6.8,-5.25l3.44,2.32l2.11,-1.79l1.83,-4.53l-1.58,-3.14l1.52,-2.22l-0.53,-2.52l-4.11,-4l-3.62,0.68l-2.64,-3.28l10.01,-6.3l4.71,3.9l4.7,-5.49l0.01,-4.32l-1.22,-1.66l2.77,-7.69l-3.91,-4.22l8.46,-10.02l0,0l2.61,5.5l1.53,-0.55l0.34,-2.4l5.67,4.18l5.32,-5.95l2.12,0.56l3.2,3.49l3.27,0.85l1.91,-3.11l4.68,-0.12L388.64,238.37z"/>
		<path id="HU-DE" title="Debrecen" class="land" d="M480.27,142.57L480.09,139.84L482.97,132.84L491.71,131.35L498.13,128.15L496.92,132.41L500,129.33L506.61,131.05L504.57,137.62L508.93,138.16L514.67,134.16L519.22,137.96L518.11,144.99L514.76,151.09L512.6,150.81L509.13,154.07L502.12,156.37L500.92,152.98L499.36,152.29L495.75,152.59L490.89,155.96L488.35,143.86z"/>
		<path id="HU-DU" title="Dunaújváros" class="land" d="M256.41,223.09L249.66,224.01L243.19,214.24L247.67,212.37L256.74,212.01L256.74,212.01z"/>
		<path id="HU-EG" title="Eger" class="land" d="M391,93.45L388.65,94L388.16,97.97L382.27,98.64L382.56,96.87L379.18,93.17L380.05,92.22L377.86,83.14L380.37,78.18L385.24,80.61L384.66,83.26L386.67,87.13L389.27,88.82L391,87.42L392.35,88.19L393.21,91.32L393.21,91.32z"/>
		<path id="HU-FE" title="Fejér" class="land" d="M232.29,135.76l0.54,6.16l2.94,5.33l2.21,0.04l2.98,4.5l0.33,3.99l-2.82,3.3l9.44,10.97l-0.24,2.15l1.73,0.41l0.16,2.94l3.56,0.72l-4.15,16.17l2.36,10.18l6.05,6.07l0,0l-0.64,3.34l0,0l-9.07,0.36l-4.48,1.87l6.47,9.76l6.75,-0.92l0,0l-2.97,8.06l0,0l-5.71,1.3l1.42,1.32l-1.25,2.19l-5.99,4.26l-0.1,2.38l-4.26,0.47l-2.72,2.09l1.26,3.03l-7.15,5.13l-2.14,-0.26l-1.28,-7.27l-3.68,-1.64l-1.63,-3.19l-4.48,2.48l0.55,2.31l-4.13,0.72l-3.59,-0.91l-0.38,-5.49l-1.36,-1.97l-0.18,4.58l-2.17,-2.72l-1.41,1.72l-4.54,-1.72l-0.81,-3.61l-5.12,4.56l-3.53,0.72l0,0l-1.29,-5.44l1.06,-2.12l-0.88,-3.73l0.96,-0.49l-1.83,-0.64l2.3,-1.96l-1.91,-5.69l-2.79,-3.65l0,0l6.66,-7.38l2.37,-0.71l-2.36,-0.29l-2.86,-7.45l2.75,-2.18l-2,-8.16l1.08,-7.81l-4.4,-3.14l-1.57,-3.43l-4.57,2.17l-2.86,-4.19l-1.6,0.41l-0.89,-3.62l1.66,-1.98l-1.93,-0.29l-0.72,-1.67l0,0l1.55,-2.19l2.97,-0.94l-0.67,-1.86l2.5,-3.65l0.78,-6.06l2.11,-1l1.27,1.65l2.66,-0.41l1.07,-1.21l-0.59,-3.22l4.92,2.4l0.5,3.05l5.81,4.65l1.61,-1.94l4.15,-0.36l-2.31,-2.53l0.42,-1.12l1.68,-1.94l1.66,1.3l3.04,-4.62l2.25,-1.04l0,0l3.29,-2.6l-1.16,-1.85l1.6,-0.31l-0.64,-2.93l3.68,-0.68l0,0l4.39,-2.53l3.66,1.32L232.29,135.76zM208.95,174.85l-1.8,0.92l0,0l-0.42,2.63l-7.5,7.9l4.02,7.17l1.68,0.89l0.32,5.83l5.35,-2.06l1.07,1.39l3.41,-4.11l4.67,-1.36l-1.85,-4.39l-1.89,0.12l1.1,-2.83l-1.89,-3.51l1.55,-2.16l-2.74,-3.1l-2.99,0.2L208.95,174.85z"/>
		<path id="HU-GY" title="Győr" class="land" d="M135.48,117.76L140.19,114.51L142.64,116.38L149.02,115.67L152.77,118.05L154.69,123.34L142.31,129.89L139.42,128.99L136.4,134.3L130.56,133.81L126.93,132L126.27,129.51L130.63,128.49L131.55,122.25z"/>
		<path id="HU-GS" title="Győr-Moson-Sopron" class="land" d="M102.16,76.95l1.85,2.8l6.11,0.32l8.44,9.11l2.62,5.65l6.7,2.84l3.07,6l3.98,-0.56l9.29,8.74l6.41,2.29l6.94,-0.88l3.13,0.9l0,0l0.84,5.14l-1.44,8.58l3.85,2.71l-2.38,7.62l2.9,1.57l-2.54,0.92l-2.34,-1l2.48,6.89l-2.04,0.87l0.14,1.76l-1.41,-0.03l1.17,1.93l-1.39,0.83l0,0l-3.61,-4.67l-1.87,2.49l-1.33,-2.36l-3.75,4.64l-2.49,-2.29l0.29,2.71l-2.35,0.43l-0.19,-2.87l-2.53,-0.11l-3.01,2.69l-1.86,-1.76l-1.44,1.13l-3.27,-4.1l-2.86,2.72l-8.69,-2.87l-1.82,1.46l-3.09,-0.78l-1.86,5.43l-8.99,1.73l-3.27,-1.16l-0.82,0.97l-2.24,-1.69l-1.89,1.58l0,0l-2.63,-0.74l-1.75,2.73l-6.83,3.07l1.79,-6.15l-1.51,-2.67l-7.96,5.88l-1.94,2.78l-2.99,-3.14l-2.44,0.69l-3.14,-4.65l-3.46,1.88l-0.56,-1.17l-1.4,0.94l-0.54,-0.89l-6.19,4.19l-3.28,-1.12l-2.86,-3.48l0,0l2.14,-3.69l-1.58,-3.45l3.34,-1.38l2.37,-3.93l-4.64,-3.75l1.07,-1.44l-0.38,-3.49l-1.65,-2.35l-7.52,-0.21l0,0l4.19,-2.23l6.49,-1.19l2.03,1.06l3.29,-5.7l0,0l7.33,0.2l3.48,-5.09l0.54,4.14l1.04,0.2l18.71,-2.66l-1.82,-2.54l-1.66,-8.78l1.99,-2.09l-2.37,-2.61l0.42,-1.34l-3.73,-2.84l0.65,-1.22l6.03,-0.8l1.44,-2.66l-0.38,-1.68l1.6,-2.6l-1.97,-1.24l2.18,-3.38l-1.93,-1.42l6.92,-5.54L102.16,76.95zM131.55,122.25l-0.92,6.24l-4.55,1.95l0.85,1.56l7.3,2.64l2.17,-0.33l3.02,-5.31l2.89,0.9l12.39,-6.54l-1.92,-5.29l-3.75,-2.38l-6.38,0.71l-2.44,-1.87l-6.07,5.07L131.55,122.25z"/>
		<path id="HU-HB" title="Hajdú-Bihar" class="land" d="M451.75,84.45l6.57,0.52l5.9,4.28l1.06,2.97l4.42,-2.13l15.86,-0.66l1.9,-2.35l2.27,0.89l0,0l1.98,0.83l-0.81,1.72l0,0l0.84,3.84l-2.02,12.93l5.23,2.5l3.4,5.98l6.1,-0.41l1.21,3.28l4.76,0.31l-0.43,2.17l5.85,2.86l4.78,-4.25l0.3,-3.5l3.28,-0.94l5.52,3.86l-0.46,3.66l2.61,1.56l-0.69,2.62l1.6,3.06l4.9,-6.65l2.58,1.62l2.39,8.24l0,0l-2.98,4.92l-3.67,1.49l1.35,1.63l-0.83,1.08l-1.43,-1.37l-2.23,3.05l-1.23,5.34l2.23,3.34l0.2,5.17l-2.22,4.7l-6.31,0.45l-5.48,11.35l0.79,1.9l-3.28,4.81l0.62,6.53l-3.71,2.16l-2.32,8.53l-5.9,1.19l-3.99,6.93l-2.92,0.59l0.86,2.3l0,0l-1.49,1.07l-0.25,-1.31l-0.94,0.55l-2.35,3.22l-3.17,-0.55l-0.1,5.38l-6.15,0.94l-1.58,1.75l-3.33,-1.92l-1.99,1.85l1.53,-3.97l-7.52,-1.03l-11.27,-5.59l1.2,-1.86l-0.88,-3.08l5.23,-3.9l-0.62,-3.21l1.37,-1.04l0.13,-4.24l-6.55,0.34l-2.71,-2.34l-6.5,-0.86l-5.66,-4.47l-1.19,2.09l-2.87,-4.46l-3.92,-0.69l0,0l3.98,-2.85l1.05,-12.03l-3.45,-17.12l1.06,-2.46l-1.52,-2.3l0.1,-7.87l-4.14,-3.92l-4.78,1.92l-4.4,-2l-1.71,-5.63l0.49,-3.99l0,0l3.8,3.39l0.58,-0.83l-2.29,-3.19l4.58,-0.43l-1.36,-0.37l-0.14,-2.57l1.49,1.74l2.99,-1.12l1.29,-2.85l4.49,-0.94l-0.04,-4.28l4.01,0.17l3.23,-9.01l-2.1,-4.45l2.5,-1.54l-0.01,-3.55l3.76,-2.95l-3.01,-0.98l1.73,-1.46L451.75,84.45zM488.35,143.86l2.54,12.1l4.85,-3.36l3.62,-0.31l1.56,0.69l1.2,3.39l7,-2.3l3.48,-3.26l2.16,0.28l3.36,-6.1l1.11,-7.03l-4.56,-3.8l-5.74,4l-4.36,-0.53l2.04,-6.58l-6.6,-1.72l-3.09,3.08l1.21,-4.26l-6.42,3.2l-8.74,1.48l-3.18,8.68l0.48,1.05l4.94,0.79L488.35,143.86z"/>
		<path id="HU-HE" title="Heves" class="land" d="M358.89,60L365.29,61.07L366.01,63.99L372.65,67.22L375.78,66.15L376.51,62.8L379.27,62.75L382.9,66.87L383.55,63.69L385.91,60.86L385.58,59.15L386.95,58.59L391.21,58.99L393.84,63.63L393.84,63.63L394.01,66.9L396.14,70.09L396.14,70.09L393.79,71.45L394.78,76.2L391.2,83.43L397.39,88.87L394.99,90.66L395.76,91.92L393.21,91.32L393.21,91.32L392.35,88.19L391,87.42L389.27,88.82L386.67,87.13L384.66,83.26L385.24,80.61L380.37,78.18L377.86,83.14L380.05,92.22L379.18,93.17L382.56,96.87L382.27,98.64L388.16,97.97L388.65,94L391,93.45L391,93.45L392.58,96.21L396.08,97.76L396.11,105.93L404.26,114.23L402.19,117.01L403.01,118.09L408.27,121.26L414.21,120.98L420.09,125.62L420.09,125.62L419.01,127.31L415.08,128.5L415.19,131.78L413.47,132.97L414,136.25L402.59,144.39L397.57,146.14L395.81,150.57L392.07,150.2L392.87,147.32L390,148.4L390.62,153.99L386.74,156.54L384.67,155.88L384.88,153.32L382.18,154.29L379.56,152.37L376.61,148.09L377.86,145.13L376.58,140.97L371.23,137.93L369.17,131.77L359.65,134.24L362.55,137.49L360.51,139.06L352.48,135.45L351.18,133.69L352.27,130.74L350.21,123.09L348.03,122.61L342.87,125.5L339.35,123.88L338.82,128.81L336.55,129.82L334.14,133.52L328.27,130.06L324.03,131.79L323.67,135.06L320.47,134.41L320.47,134.41L317.98,126.67L316.26,126.18L313.67,121.09L315.05,117.75L311.9,114.63L311.9,114.63L315.79,111.14L316.91,111.91L318.44,110.74L317.37,105.27L319.24,104.34L320.17,106.28L322.37,103.52L325.26,103.67L326.13,100.19L329.04,97.35L329.6,92.32L335.08,96.28L336.56,95.58L337.3,93.52L333.27,91.42L332.89,89.67L339.07,88.62L341.31,90.39L343.96,90.31L345.3,87.06L347.64,85.78L347.39,83.07L349.29,82.08L348.93,79.56L353.32,77.98L351.81,76.44L352.07,72.02L347.98,68.99L347.76,67.22L353.95,65.06L354.63,62.85L356.97,63.1z"/>
		<path id="HU-HV" title="Hódmezővásárhely" class="land" d="M366.34,291.14L367.9,283.5L369.56,282.67L369.6,286.8L371.63,287.61L375.65,283.64L374.12,280.94L378.11,279.98L377.54,277.11L383.6,276.87L384.9,279.15L388.86,276.96L390.32,279.38L391.88,279.17L396.68,285.87L403.04,286L403.04,286L403.11,290.29L400.03,292.12L400.03,292.12L385.64,303.76L377.45,304.8L377.45,304.8L377.94,302.65L372.81,301.32z"/>
		<path id="HU-JN" title="Jász-Nagykun-Szolnok" class="land" d="M425.28,123.73L424.8,127.73L426.51,133.36L430.91,135.36L435.7,133.44L439.84,137.36L439.74,145.23L441.25,147.54L440.2,150L443.65,167.12L442.6,179.15L438.62,182L438.62,182L435.82,187.7L426.93,192.85L428.7,196.43L426.69,196.9L426.46,198.2L428.3,204.08L426.77,203.5L423.61,206.05L423.41,207.66L418.97,207.69L418.73,205.51L415.94,208.27L414.46,208.14L414.44,215.34L415.69,215.79L415.96,217.75L413.99,218.01L416.07,218.33L413.94,223.45L408.37,225.6L404.4,223.28L400.17,223.39L399.42,225.17L396.82,226.3L391.8,226.09L387.27,231.14L388.64,238.37L388.64,238.37L386.83,240.66L382.14,240.78L380.23,243.89L376.96,243.03L373.76,239.54L371.64,238.98L366.32,244.93L360.65,240.75L360.31,243.15L358.77,243.7L356.17,238.2L356.17,238.2L354.6,235.61L353.54,236.12L353.76,239.16L351.09,237.4L351.21,235.22L354.34,234.65L354,233.52L351.85,233.94L350.35,231.92L353.88,230.01L354.82,230.89L355.95,228.36L358.56,228.65L365.11,223.35L363.57,220.52L360.29,220.08L360.28,218.67L362.74,217.51L363.26,214.65L359.08,211.51L359.08,211.51L360.66,208.02L358.64,206.91L355.5,198.43L354.93,195.86L356.33,192.52L356.33,192.52L361.31,195.72L360.67,196.54L362.09,198.09L366.55,198.39L369.76,201.49L372.63,201.52L376.3,197.97L374.86,193.82L371.96,192.36L374.48,185.96L371.71,186.3L373.15,185.11L371.41,182.7L369.43,182.78L363.72,179.13L358.21,184.92L358.21,184.92L354.63,180.92L349.5,179.11L352.22,172.36L349.6,166.48L335.24,155.77L332.48,151.44L327.89,147.54L331.66,141.9L326.85,141.51L323.77,143.98L319.17,139.9L320.47,134.41L320.47,134.41L323.67,135.06L324.03,131.79L328.27,130.06L334.14,133.52L336.55,129.82L338.82,128.81L339.35,123.88L342.87,125.5L348.03,122.61L350.21,123.09L352.27,130.74L351.18,133.69L352.48,135.45L360.51,139.06L362.55,137.49L359.65,134.24L369.17,131.77L371.23,137.93L376.58,140.97L377.86,145.13L376.61,148.09L379.56,152.37L382.18,154.29L384.88,153.32L384.67,155.88L386.74,156.54L390.62,153.99L390,148.4L392.87,147.32L392.07,150.2L395.81,150.57L397.57,146.14L402.59,144.39L414,136.25L413.47,132.97L415.19,131.78L415.08,128.5L419.01,127.31L420.09,125.62L420.09,125.62L419.48,124.01L422.24,121.97z"/>
		<path id="HU-KV" title="Kaposvár" class="land" d="M150.67,288.3L150.8,288.98L150.8,288.98L153.31,286.2L156.79,290.7L157.94,297.44L155.36,298L154.83,299.25L155.6,300.44L154.4,306.75L152.81,306.32L152.11,303.61L149.89,304.11L149.42,306.39L149.42,306.39L147.5,305.66L147.28,302.52L147.28,302.52L144.82,296.14L145.83,292.75L145.1,287.56L145.1,287.56L146.23,285.62z"/>
		<path id="HU-KM" title="Kecskemét" class="land" d="M335.33,219.88L337.69,226.64L333.32,232.63L329.93,229.67L328.91,231.88L323.88,233.05L322.17,236.12L318.28,236.36L318.66,234.63L315.48,230.84L312.03,228.23L309.99,228.21L309.45,224.35L304.39,218.17L306.93,215.72L307.93,216.77L311.55,211.9L319.12,214.2L322.34,212.86L322.34,212.86L330.75,219.11L332.71,218.33z"/>
		<path id="HU-KE" title="Komárom-Esztergom" class="land" d="M242.96,103.13L246.27,103.76L246.27,103.76L251.44,106.01L253.05,114.25L255.04,116.11L253.25,118.09L251.23,116.61L246.92,117.71L247.93,125.87L240.23,123.29L240.32,124.68L237.58,124.67L240.59,127.59L237,129.73L235.14,131.61L235.13,133.48L232.29,135.76L232.29,135.76L225.62,137.57L221.95,136.25L217.56,138.78L217.56,138.78L217.31,136.54L213.44,133.12L208.92,131.58L204.14,132.44L201.73,136.77L203.33,139.94L204.68,139.45L205.11,141.79L209.6,144.59L210.79,147.15L210.79,147.15L208.55,148.19L205.5,152.81L203.84,151.5L202.17,153.44L201.74,154.56L204.05,157.09L199.9,157.45L198.29,159.39L192.48,154.73L191.99,151.69L187.07,149.29L187.66,152.51L186.58,153.72L183.92,154.14L182.65,152.49L180.54,153.48L179.76,159.55L177.26,163.2L177.93,165.06L174.96,166L173.41,168.19L173.41,168.19L166.67,168.27L166.45,166.19L163.91,164.49L165.51,163.9L165.55,162.4L159.09,160.45L161.19,156.12L158.53,151.93L158.53,151.93L159.92,151.1L158.75,149.17L160.15,149.2L160.02,147.44L162.06,146.58L159.58,139.69L161.91,140.69L164.45,139.77L161.55,138.2L163.93,130.58L160.08,127.87L161.53,119.3L160.69,114.16L160.69,114.16L165.44,113.48L167.76,111.73L170.57,113.24L172.99,111.87L176.99,111.89L196.54,115.27L211.04,110.82L215.02,112.48L219.08,110.82L228.52,111.58L235.33,108.06L236.88,104.38z"/>
		<path id="HU-MI" title="Miskolc" class="land" d="M393.84,63.63L397.67,61.71L404.76,61.97L409.78,58.91L415.84,59.25L416.85,58.09L419.2,60.5L421.47,59.88L425.65,61.11L427.2,63.69L426.86,67.86L428.06,68.38L426.93,72.04L423.74,74.17L419.27,74.26L415.75,76.12L414.27,73L410.97,72.19L407.29,69.22L396.14,70.09L396.14,70.09L394.01,66.9z"/>
		<path id="HU-NK" title="Nagykanizsa" class="land" d="M82.73,291.99L79.14,294.6L78.81,298.13L75.5,297.4L74.4,298.36L71.94,294.79L74.67,280.14L77.36,280.35L77.16,275.27L78.32,274.81L79.06,275.93L82.03,273.12L84.02,273.68L83.89,280.67L87.04,283.26L86.64,285.69L88.07,286.32L88.32,288.49L88.32,288.49L86.06,290.83L83.39,288.94z"/>
		<path id="HU-NO" title="Nógrád" class="land" d="M319.2,47.07L321.07,46.91L323.33,51.69L326.01,51.88L327.99,50.08L332.76,52.99L333.37,54.44L331.34,57.01L332.52,58.5L334.65,56.32L336.75,57.3L337.82,55.17L338.25,56.29L341.67,56.81L343.03,59.37L341.87,62.36L345.27,61.25L348.63,56.91L353.52,55.39L355.15,56.59L355.15,56.59L358.89,60L358.89,60L356.97,63.1L354.63,62.85L353.95,65.06L347.76,67.22L347.98,68.99L352.07,72.02L351.81,76.44L353.32,77.98L348.93,79.56L349.29,82.08L347.39,83.07L347.64,85.78L345.3,87.06L343.96,90.31L341.31,90.39L339.07,88.62L332.89,89.67L333.27,91.42L337.3,93.52L336.56,95.58L335.08,96.28L329.6,92.32L329.04,97.35L326.13,100.19L325.26,103.67L322.37,103.52L320.17,106.28L319.24,104.34L317.37,105.27L318.44,110.74L316.91,111.91L315.79,111.14L311.9,114.63L311.9,114.63L309.15,113.24L304.61,117.6L306.56,119.76L303.63,121.06L300.98,115.95L300.59,110.35L297.71,109.99L298.9,106.6L300.56,105.8L298.63,103.83L292.7,103.6L289.58,101.79L281.13,102.74L276.18,99.32L275.24,100.42L270.17,99.51L267.61,100.41L266.12,98.16L265.27,98.65L264.19,95.4L255.18,87.56L255.74,85.07L259.65,82.25L261.1,77.09L259.42,75.33L256.62,75.26L254.12,71.49L254.12,71.49L258.91,71.71L261.98,68.84L265.83,71.34L267.86,69.62L270.07,70.6L272.57,69.41L282.27,72L283.43,69.85L287.44,67.52L295.24,66.89L296.54,68.08L300.5,65.63L302.83,68.02L302.96,66.5L304.72,65.8L308.02,51.92L312.93,49.94L317.51,45.56z"/>
		<path id="HU-NY" title="Nyíregyháza" class="land" d="M489.74,87.97L494.3,78.57L497.28,79.71L501.17,79.17L502.65,75.45L500.85,73.5L501.23,72L504.58,71.63L507.23,73.52L510.97,73.03L512.28,76.48L511.21,79.23L512.84,79.4L513.03,80.75L517.37,80.57L519.45,89.38L518.8,91.25L516.59,91.44L516,93.4L512.9,91.8L512.77,97.59L514.93,98.01L513.82,100.6L512.06,101.15L509.95,97.84L502.62,98.44L500.55,95.62L497.09,94.97L496.33,92.95L490.91,90.52L490.91,90.52L491.72,88.81z"/>
		<path id="HU-PS" title="Pécs" class="land" d="M201.06,325.62L202.06,326.67L202.06,326.67L203.47,330.62L202.7,331.85L198.87,331.27L195.77,335.84L195.77,335.84L194.69,340.56L189.82,342.23L189.82,342.23L186.84,338.54L183.18,336.42L183.7,333.79L182.02,329.44L185.81,329.32L185.15,327.09L185.15,327.09L188.27,324.91L188.27,324.91L192.04,325.91L192.04,325.91L198.94,322.56z"/>
		<path id="HU-PE" title="Pest" class="land" d="M252.12,72.19l2,-0.7l0,0l2.5,3.77l2.8,0.07l1.68,1.76l-1.44,5.16l-3.92,2.82l-0.56,2.48l9.01,7.84l1.07,3.26l0.86,-0.5l1.49,2.25l2.56,-0.9l5.07,0.91l0.94,-1.1l4.95,3.42l8.46,-0.95l3.12,1.81l5.93,0.23l1.92,1.97l-1.65,0.8l-1.19,3.39l2.88,0.36l0.39,5.61l2.65,5.11l2.93,-1.3l-1.96,-2.17l4.55,-4.36l2.74,1.39l0,0l3.15,3.12l-1.38,3.34l2.59,5.09l1.72,0.49l2.49,7.74l0,0l-1.3,5.49l4.6,4.08l3.08,-2.46l4.81,0.39l-3.77,5.63l4.59,3.9l2.76,4.34l14.36,10.71l2.62,5.88l-2.73,6.75l5.14,1.82l3.58,4l0,0l1.45,3.57l-3.34,4.02l0,0l-1.4,3.35l0.57,2.56l3.14,8.48l2.02,1.11l-1.58,3.5l0,0l-2.29,-1.5l-6.4,2.56l-1.29,4.83l-9.71,-4.43l-4.06,6.92l0,0l-2.62,-1.55l-1.97,0.78l-8.41,-6.25l0,0l-4.03,-4.56l-5.05,-11.9l-2.21,2.05l-5.08,-1.89l-2.67,8.76l-4.38,-1.28l-5.64,4.09l-2.59,4.83l-3.71,-5.28l4.65,-7.58l-7.01,-5.7l-3.42,1.97l-2.03,4.67l-0.81,-1.25l-3.31,-0.13l-8.56,8.29l-4.05,-2.63l-6,-1.35l1.69,2.87l-0.72,1.85l0,0l-6.04,-6.07l-2.36,-10.18l4.15,-16.17l-3.56,-0.72l-0.16,-2.94l-1.73,-0.41l0.24,-2.15l-9.44,-10.97l2.82,-3.3l-0.33,-3.99l-2.98,-4.5l-2.21,-0.04l-2.94,-5.33l-0.54,-6.16l0,0l2.84,-2.28l0.01,-1.87l1.87,-1.88l3.58,-2.14l-3,-2.92l2.73,0.01l-0.09,-1.39l7.71,2.58l-1.01,-8.16l4.3,-1.1l2.02,1.48l1.8,-1.98l-1.99,-1.86l-1.61,-8.24l-5.17,-2.25l0,0l0.79,-1.18l-2.6,-3.24l-5.39,-2.67l-0.32,-6.53l1.7,-4.5l-1.77,-2.83l1.37,-1.84l2.59,0.35l1.32,-1.17l1.32,-7.18l4.66,-0.38l0.42,-1.31L252.12,72.19zM267.07,134.5l0.33,-2.65l-3.18,-0.41l-1.54,0.79l0.79,2.35l-9.46,2.01l0.99,2.77l-1.29,1.04l0.88,-0.01l-0.83,2.81l1.44,0.47l-0.79,1.59l1.07,1.04l-0.87,1l2.46,1.2l1.72,2.83l-1.07,1.34l0.53,2.61l-1.71,1.6l0.03,5.9l5.69,-2.11l1.01,1.17l4.64,-2.92l1.94,2.39l-0.63,1.04l3.83,3.88l3.6,-1.54l2.41,-4.58l5.37,-5.64l1.39,0.28l1.84,-2.79l3,-0.9l-1.79,-3.9l0.39,-3l-4.96,0.92l-1.69,-3.81l-2.22,0.61l-1,-1.05l0,0l-1.61,0.11l-2.72,-2.62l0,0l1.17,-0.68l-2.6,-1.73l0.78,-0.99l-4.12,-3.44l0,0l-1.19,0.03L267.07,134.5z"/>
		<path id="HU-SO" title="Somogy" class="land" d="M117.69,245.31l6.3,-0.31l32.6,-16.48l3.2,0.21l2.19,-2.01l-0.05,-3.37l13.64,-6.3l9.09,0.87l0,0l2.79,3.65l1.91,5.69l-2.3,1.96l1.83,0.65l-0.96,0.49l0.88,3.74l-1.06,2.12l1.29,5.44l0,0l-3.87,1.43l0.4,3.26l-5.33,1.58l1.44,3.42l1.33,0.37l-6.42,10.51l1.3,3.56l-1.25,3.89l-1.94,1.27l-1.19,-0.65l-0.69,7.71l3.32,10l-5.65,3.08l0.83,2.2l3.41,-1.2l1.16,3.57l1.5,-0.33l0.51,4.96l-3.03,4.23l0,0l-9.24,-1.03l-2.18,6.25l0.35,3.6l-1.11,0.96l-3.67,-0.27l-2.98,2.08l-4.54,-2.26l-2.26,3.34l-1.8,-0.6l-1.25,-3.55l-1.75,1.33l0.91,1.89l-3.46,6.48l-0.16,6.19l-1.86,0.99l1.36,1.49l-0.53,3.67l-4.03,2.35l2.29,6.85l-2.72,0.78l1.78,6.37l1.44,0.16l-0.13,-2.21l0.72,1.6l2.84,0.1l-0.04,1.84l3.14,3.48l0.13,2.73l-0.64,1.73l-2.17,-0.39l-0.72,1.07l-0.81,-1.85l-1.47,2.78l-1.59,0.52l0,0l-2.72,-7.26l-5.03,-4.32l-3.48,0.34l-8.38,-2.07l-0.75,3l-1.56,-1.62l-2.08,0.87l-0.32,-1.91l-3.45,0.66l-0.04,-2.42l0.67,1.03l3.24,-0.85l-2.61,-0.23l0.02,-1.12l1.24,-0.03l-0.15,-2.42l-1.63,1.96l-2.14,-2.74l0.36,3.03l-2.01,0.56l1.06,-2.81l-2.26,0.74l0.81,-2.43l-2.19,0.13l-2.12,-1.63l3.26,-2.18l-3.59,0.13l1.44,-3.51l-3.53,-0.45l1.85,-0.45l-1.5,-1.98l-2.91,0.18l2.61,-2.81l-2.01,0.03l0.26,-1.95l-3.15,0.83l0.43,-5.54l-2.08,-1.1l0.1,-1.4l-3.09,0.12l-2.09,-2.48l-1.73,0.25l-6.6,-4.52l-3.19,-0.49l-0.32,-2.38l-1.78,0.33l-6.09,-4.63l-0.98,-6.56l0,0l2.49,1.93l3.01,-0.61l0.47,3.32l4.07,-3.2l3.54,0.81l3.11,-5.29l-2.44,-5.74l0,0l0.66,-3.05l2.67,1.89l2.26,-2.33l0,0l2.98,1.88l1.19,-0.4l0.14,-2.56l4.08,-0.29l0.27,-7.14l3.2,-3.41l-0.24,-20.22l3.15,-2.96l1.07,-5.94l8.55,0.39L117.69,245.31zM147.1,305.03l2.32,1.35l0,0l0.47,-2.28l2.22,-0.49l0.7,2.71l1.59,0.43l1.2,-6.31l-0.77,-1.19l0.53,-1.25l2.58,-0.56l-1.15,-6.74l-3.48,-4.5l-2.51,2.78l0,0l-4.32,-3.51l-1.37,2.09l0,0l0.73,5.19l-1.01,3.39l2.45,6.38L147.1,305.03z"/>
		<path id="HU-SN" title="Sopron" class="land" d="M45.6,111.98L54.65,115.14L57.07,121.62L57.07,121.62L53.78,127.32L51.75,126.27L45.26,127.46L41.07,129.69L41.07,129.69L36.17,126.75L33.67,127.52L33.15,126.19L27.88,124.15L29.68,123.08L30.06,119.96L32.51,122.08L34.58,119.23L38.51,118.03L39.15,112.69z"/>
		<path id="HU-SZ" title="Szabolcs-Szatmár-Bereg" class="land" d="M552.48,23.8L555,23.94L552.82,27.08L555.23,30.67L559.96,31.9L559.31,35.34L565.46,47.37L567.26,45.42L570.14,45.15L572.49,46.52L575.38,44.93L579.07,50.98L582.58,52.65L581.96,55.25L585.02,59.85L584.15,60.18L584.43,64.62L591.66,66.87L597.62,63.06L599.5,63.1L600.54,64.54L600.97,62.82L603.54,62.76L603.98,64.87L605.72,63.52L606.79,68.34L608.94,69.57L609.55,72.47L610.73,72.11L609.31,77.76L606.68,80.71L611.44,83.46L612,85.72L607.15,91.67L602.47,94L599.32,93.83L600.97,100.48L595.25,101.47L592.39,107.78L586.07,109.91L580.59,109.84L574.5,104.72L571.48,105.65L569.82,114.01L563.08,112.89L559.62,110.54L559.58,113.75L554.86,115.42L554.31,119.66L551.56,120.77L546.75,133.78L542.66,133.25L542.66,133.25L540.27,125.01L537.68,123.4L532.79,130.05L531.19,126.99L531.87,124.37L529.27,122.81L529.73,119.15L524.2,115.28L520.92,116.22L520.62,119.72L515.84,123.97L509.99,121.11L510.43,118.95L505.67,118.64L504.46,115.36L498.36,115.78L494.96,109.8L489.73,107.3L491.75,94.36L490.91,90.52L490.91,90.52L496.33,92.95L497.09,94.97L500.55,95.62L502.62,98.44L509.95,97.84L512.06,101.15L513.82,100.6L514.93,98.01L512.77,97.59L512.9,91.8L516,93.4L516.59,91.44L518.8,91.25L519.45,89.38L517.37,80.57L513.03,80.75L512.84,79.4L511.21,79.23L512.28,76.48L510.97,73.03L507.23,73.52L504.58,71.63L501.23,72L500.85,73.5L502.65,75.45L501.17,79.17L497.28,79.71L494.3,78.57L489.74,87.97L489.74,87.97L487.47,87.09L485.57,89.44L469.7,90.09L465.28,92.23L464.22,89.26L458.32,84.98L451.75,84.45L451.75,84.45L447.86,78.57L452.7,72.93L455.72,73.31L456.09,75.74L460.52,76.2L460.96,74.01L463.69,71.87L464.75,74.09L467.46,74.01L467.57,75.27L471.09,76.33L472.66,74.77L477.49,74.76L478.02,72.18L480.14,72.86L480.23,70.36L482.46,69.53L480.19,68.8L479.81,67.36L481.38,67.02L478.13,62.8L480.7,55.24L483.21,56.83L484.04,54.98L487.75,55.6L487.39,54.28L492.9,51.12L496.05,52.97L500.87,53.53L505.9,53.62L506.23,52.04L508.69,51.83L508.61,53.58L510.46,51.26L511.63,51.89L513.17,50.35L514.21,46.91L515.3,48L515.7,46.63L516.72,49.11L517.63,46.98L521.67,46.18L523.77,47.05L525.51,43.82L526.17,44.49L528.42,41.86L529.38,42.26L529.53,39.95L532.2,37.52L533.33,37.37L532.29,39.29L534.31,39.26L534.22,38.07L536.03,40.1L536.72,39.13L535.63,37.95L537.19,38.88L537.14,37.49L539.36,37.76L538.5,35.46L542.28,31.86L540.61,30.76L542.38,30.7L541.9,28.2L541.9,28.2L543.52,27.85L543.04,26.48L544.91,25.68L545.28,23.81L549.54,21.74z"/>
		<path id="HU-SD" title="Szeged" class="land" d="M366.34,291.14L372.81,301.32L377.94,302.65L377.45,304.8L377.45,304.8L377.57,313.29L369.46,312.83L370.46,318.02L375.8,317.89L374.5,326.7L373.09,327.41L373.09,327.41L372.96,326.31L371.83,327.02L371.83,327.02L366.48,315.8L362.93,317.3L360.98,316.71L358.93,320.7L358.93,320.7L356.44,324.28L353.99,324.12L352.8,321.02L352.8,321.02L356.73,319.12L355.21,314.65L357.36,311.08L351.37,309.11L348.13,306.46L352.66,302.26L357.2,303.93L357.69,298.14L365.69,300.23L366.67,297.62L364.27,295.84L364.16,291.98z"/>
		<path id="HU-SF" title="Székesfehérvár" class="land" d="M210.27,176.97L211.03,178.35L211.03,178.35L214.01,178.15L216.76,181.25L215.2,183.41L217.1,186.92L216,189.75L217.89,189.64L219.74,194.03L215.08,195.39L211.67,199.5L210.59,198.11L205.24,200.17L204.93,194.34L203.25,193.46L199.22,186.29L206.72,178.39L207.15,175.77L207.15,175.77L208.95,174.85z"/>
		<path id="HU-SK" title="Szolnok" class="land" d="M358.21,184.92L363.72,179.13L369.43,182.78L371.41,182.7L373.15,185.11L371.71,186.3L374.48,185.96L371.96,192.36L374.86,193.82L376.3,197.97L372.63,201.52L369.76,201.49L366.55,198.39L362.09,198.09L360.67,196.54L361.31,195.72L356.33,192.52L356.33,192.52L359.67,188.5z"/>
		<path id="HU-SH" title="Szombathely" class="land" d="M43.31,178.58L43.11,177.41L46.02,177.31L49.2,179.35L51.51,177.85L52.61,181.06L50.29,183.19L51.45,185.25L51.39,191.94L47.98,190.1L44.67,193.75L41.27,191.2L39.2,181.64L36.11,178.72L38,178.01L39.61,179.27L39.61,179.27z"/>
		<path id="HU-TB" title="Tatabánya" class="land" d="M210.79,147.15L209.6,144.59L205.11,141.79L204.68,139.45L203.33,139.94L201.73,136.77L204.14,132.44L208.92,131.58L213.44,133.12L217.31,136.54L217.56,138.78L217.56,138.78L213.88,139.46L214.52,142.4L212.92,142.7L214.09,144.55z"/>
		<path id="HU-TO" title="Tolna" class="land" d="M189.06,241.63L192.58,240.91L197.71,236.35L198.52,239.96L203.06,241.68L204.47,239.96L206.64,242.68L206.82,238.1L208.18,240.07L208.56,245.56L212.15,246.46L216.29,245.74L215.74,243.43L220.22,240.95L221.85,244.14L225.54,245.78L226.82,253.05L228.96,253.31L236.1,248.18L234.84,245.15L237.55,243.06L241.81,242.59L241.91,240.21L247.9,235.95L249.15,233.76L247.73,232.44L253.44,231.14L253.44,231.14L253.6,236.56L257.81,242.17L260.61,252.71L257.36,257.67L249.77,260.27L247.69,263.5L250.62,269.58L250.87,275.17L253.25,280.83L253.21,284.62L249.96,291.52L251.17,299.76L253.29,303.34L252.3,309.25L248.12,308.21L248.96,312.18L244.24,316.13L245.41,316.93L248.73,314.62L248.52,318.13L246.77,318.73L244.77,324.35L244.49,321.02L242.14,322.47L242.06,324.76L245.68,325.84L244.89,328L243.65,327.44L243.74,328.85L243.74,328.85L237.82,329.07L232.75,326.04L232.04,326.67L225.24,318.48L223.3,319.49L221.12,315.78L221.81,314.46L217.97,313.31L218.83,307.79L218.3,306.98L217.32,307.97L215.86,305.41L213.26,304.08L213.39,308.05L212.11,309.91L203.45,314.75L202.66,313.23L206.27,311.73L208.02,306.91L207.46,305.41L203.94,305.01L204.99,297.99L201.71,296.29L201.25,291.43L198.42,288.94L194.17,290.95L190.49,290.11L186.73,291.72L188.14,299.19L183.61,302.15L182.05,301.15L180.3,302.01L180.39,304.98L181.85,305.64L181.18,306.58L179.24,304.04L176.97,305.25L174.87,304.5L174.87,304.5L177.9,300.27L177.39,295.3L175.89,295.63L174.73,292.06L171.32,293.26L170.49,291.05L176.13,287.97L172.81,277.97L173.51,270.26L174.7,270.91L176.64,269.64L177.89,265.76L176.59,262.19L183.02,251.68L181.69,251.32L180.25,247.89L185.58,246.32L185.18,243.06z"/>
		<path id="HU-VA" title="Vas" class="land" d="M47.92,153.38l2.86,3.48l3.29,1.12l6.19,-4.19l0.54,0.89l1.4,-0.94l0.56,1.17l3.46,-1.87l3.14,4.65l2.44,-0.69l2.99,3.14l1.94,-2.78l7.96,-5.88l1.51,2.67l-1.79,6.16l6.83,-3.07l1.75,-2.73l2.63,0.75l0,0l0.91,3.39l2.12,1.91l-1.77,1.38l2.27,2.72l7.3,4.49l-6.23,2.44l-0.66,3.44l-1.54,1.26l1.12,8.79l-1.54,8.4l1.76,8.27l-2.46,2.05l-3.98,-1.8l-6.21,1.74l-0.2,2.44l0,0l0.05,3.01l-1.61,-0.88l-1.33,0.98L83.32,207l-3.12,0.74l1.25,4.51l-3.28,5.23l-5.06,-0.25l-2.32,-1.65l-4.36,0.66l-0.42,-1l-3.45,3.69l-1.84,0.36l-0.82,2.98l-8.33,-1.55l-3.14,2.21l-1.82,-0.67l-5.72,9.11l-5.9,3.04l-0.04,3.88l-1.28,1.18l-4.12,2.6l-3.46,-1.65l-3.46,1.12l-0.01,1.43l3.52,-1.06l0.23,1.01L23,248.94l0,0l-1.15,1.01l-3.46,-5.39l0.97,-2.86l-1.61,-0.42l0.39,-2.26l2.23,-0.95l0.64,-4.35l-4.79,-4.43l-5.12,-0.5l-7.29,2.8L0,229.75l5.84,-5.07l1.62,-4.25l2.24,0.45l2.82,-3.43l1.9,-0.01l1.61,-6.74l0.88,2.02l3.56,0.38l0.74,-1.87l2.08,1.52l3.57,-0.9l1.68,1.64l1.47,-0.24l0.19,-1.41l3.19,1.45l2.5,-0.92l-4.1,-3.88l-1.68,1.03l-0.81,-0.91l0.29,-1.07l7.06,-2.59l-4.29,-2.13l-0.96,-2.69l3.42,-2.09l0.13,-1.82l2.52,-0.41l-1.18,-2.84l-5.6,0.75l0.8,-3.43l-0.87,-2.62l-2.3,0.41l-1.12,-2.71l2.08,-1.6l-0.66,-4.57l3.25,-0.12l1.99,-3.66l-2.3,-7.27l-2.7,-2.31l1.69,-0.56l0.86,-3.35l-1.37,-3.41l3.53,0.15l1.05,2.27l1.24,-2.6l5.63,0.47l1.31,-2.3L47.92,153.38zM39.61,179.27L39.61,179.27l-1.61,-1.26l-1.89,0.72l3.09,2.92l2.08,9.56l3.4,2.55l3.3,-3.65l3.41,1.84l0.06,-6.68l-1.16,-2.07l2.33,-2.13l-1.1,-3.21l-2.32,1.5l-3.18,-2.04l-2.91,0.11l0.2,1.17L39.61,179.27z"/>
		<path id="HU-VE" title="Veszprém" class="land" d="M95.6,155.25l1.89,-1.58l2.24,1.69l0.82,-0.97l3.27,1.16l8.99,-1.73l1.86,-5.43l3.1,0.79l1.82,-1.46l8.69,2.88l2.86,-2.71l3.27,4.1l1.44,-1.13l1.86,1.76l3.01,-2.69l2.53,0.11l0.19,2.87l2.35,-0.43l-0.29,-2.71l2.49,2.29l3.75,-4.64l1.33,2.36l1.87,-2.49l3.61,4.67l0,0l2.66,4.19l-2.1,4.33l6.46,1.95l-0.04,1.5l-1.61,0.58l2.54,1.7l0.22,2.08l6.74,-0.08l0,0l0.72,1.67l1.93,0.29l-1.66,1.98l0.89,3.62l1.6,-0.41l2.86,4.19l4.58,-2.17l1.57,3.43l4.4,3.14l-1.08,7.81l2,8.16l-2.75,2.18l2.86,7.45l2.36,0.29l-2.37,0.71l-6.66,7.38l0,0l-9.09,-0.87l-13.64,6.3l0.05,3.37l-2.19,2.01l-3.2,-0.21l-32.6,16.48l-6.3,0.32l0,0l-5.38,-5.58l-3.17,-5.39l1.33,-2.92l-1.91,-2.18l0.27,-2.67l-3.44,-3.48l-2.44,0.67l-2.57,-1.18l2.16,-4.64l-2.43,-4.31l-1.71,-1.5l-1.99,1.06l-2.82,-0.71l-7.1,-6.28l0,0l0.2,-2.44l6.21,-1.74l3.98,1.8l2.46,-2.05l-1.76,-8.27l1.54,-8.4l-1.12,-8.78l1.54,-1.26l0.66,-3.44l6.24,-2.44l-7.3,-4.49l-2.26,-2.72l1.77,-1.38l-2.12,-1.91L95.6,155.25zM158.93,209.11l3.29,-0.28l0,0l1.61,-3.71l0,0l3.78,-0.12l1.25,-4.95l0,0l-0.52,-1.06l0,0l0.85,-1.03l-4.24,-7.26l-3.52,-3.32l0,0l-2.08,-0.63l-3.17,3.64l-3,0.26l3.63,2.67l0.5,3.5l-3.7,3.91l5.14,5.45L158.93,209.11z"/>
		<path id="HU-VM" title="Veszprém" class="land" d="M163.8,189.38L168.68,196.71L168.32,199L168.32,199L168.84,200.05L168.84,200.05L167.39,205.23L163.82,205.13L163.82,205.13L162.21,208.84L162.21,208.84L159.53,209.53L158.73,206.2L158.73,206.2L153.58,200.74L157.28,196.83L156.79,193.33L153.16,190.65L156.17,190.39L159.33,186.75L161.41,187.39L161.41,187.39z"/>
		<path id="HU-ZA" title="Zala" class="land" d="M86.48,206.18l7.1,6.28l2.83,0.71l1.99,-1.05l1.71,1.5l2.43,4.31l-2.16,4.64l2.57,1.19l2.44,-0.67l3.44,3.48l-0.27,2.67l1.91,2.18l-1.33,2.92l3.17,5.39l5.38,5.58l0,0l-5,2.53l-8.54,-0.39l-1.06,5.94l-3.15,2.96l0.24,20.22l-3.2,3.41l-0.27,7.14l-4.08,0.29l-0.14,2.56l-1.19,0.4l-2.98,-1.88l0,0l-0.25,-2.18l-1.42,-0.63l0.4,-2.43l-3.15,-2.59l0.14,-6.99l-1.99,-0.56l-2.97,2.81l-0.74,-1.12l-1.16,0.46l0.2,5.08l-2.69,-0.21l-2.72,14.65l2.45,3.57l1.1,-0.96l3.31,0.73l0.33,-3.53l3.59,-2.61l0,0l2.44,5.74l-3.11,5.29l-3.54,-0.81l-4.07,3.2l-0.47,-3.32l-3,0.61l-2.49,-1.93l0,0l-0.71,-3.58l-1.28,-0.1l-1.38,-2.63l-0.92,0.95l-2.83,-2.49l-3.08,0.86l-2.46,-2.74l-1.26,1.06l-4.21,-7.28l-1.31,0.39l0.6,-1.7l-3.62,-1.32l-2.51,0.52l-1.72,-2.46l-4.98,-2.66l0.84,-3.58l-1.22,-0.54l-0.59,-3.28l-2.56,-0.82l-3.45,-5.71l-2.15,-0.5l-3.24,-4.1l0.6,-2.5l2.42,0.71l0.91,-4.76l-4.96,-0.76L23,248.94l0,0l3.36,-6.04l-0.23,-1.01l-3.52,1.06l0.01,-1.43l3.47,-1.12l3.46,1.66l4.12,-2.6l1.28,-1.18l0.04,-3.88l5.9,-3.04l5.72,-9.11l1.82,0.67l3.14,-2.21l8.33,1.55l0.82,-2.98l1.84,-0.36l3.45,-3.69l0.42,1l4.36,-0.66l2.32,1.65l5.06,0.25l3.29,-5.23l-1.25,-4.51L83.32,207l0.26,2.28l1.34,-0.98l1.62,0.88L86.48,206.18zM60.85,227.05L60.85,227.05l-0.98,4.57l1.24,1.16l-0.63,3.8l1.63,2.46l-1.66,2.65l1.7,2.23l2.27,-1.61l7.09,-0.55l0.3,-6.6l-1.71,-2.76l0.46,-1.5l-3.02,-1.58l-0.87,-2.13l0,0l-2.37,-0.26l0,0l-1.3,0.67L60.85,227.05z"/>
		<path id="HU-ZE" title="Zalaegerszeg" class="land" d="M65.26,227.35L66.65,227.18L66.65,227.18L67.52,229.31L70.54,230.89L70.08,232.39L71.8,235.15L71.5,241.75L64.41,242.3L62.14,243.91L60.45,241.68L62.11,239.03L60.47,236.57L61.11,232.77L59.87,231.61L60.85,227.05L60.85,227.05L62.98,227.59L62.98,227.59L64.28,226.92L64.28,226.92z"/>
	</g>
</svg>