<?xml version="1.0" encoding="utf-8"?>
<!-- (c) ammap.com | SVG map of Ireland - Low -->
<svg xmlns="http://www.w3.org/2000/svg" xmlns:amcharts="http://amcharts.com/ammap" xmlns:xlink="http://www.w3.org/1999/xlink" version="1.1">
	<defs>
		<style type="text/css">
			.land
			{
				fill: #CCCCCC;
				fill-opacity: 1;
				stroke:white;
				stroke-opacity: 1;
				stroke-width:0.5;
			}
		</style>

		<amcharts:ammap projection="mercator" leftLongitude="-10.617130" topLatitude="55.384293" rightLongitude="-5.429497" bottomLatitude="51.419835"></amcharts:ammap>

		<!-- All areas are listed in the line below. You can use this list in your script. -->
		<!--{id:"GB-NIR"},{id:"IE-CW"},{id:"IE-CN"},{id:"IE-CE"},{id:"IE-CO"},{id:"IE-DL"},{id:"IE-D"},{id:"IE-G"},{id:"IE-KE"},{id:"IE-KK"},{id:"IE-KY"},{id:"IE-LD"},{id:"IE-LH"},{id:"IE-LK"},{id:"IE-LM"},{id:"IE-LS"},{id:"IE-MH"},{id:"IE-MN"},{id:"IE-MO"},{id:"IE-OY"},{id:"IE-RN"},{id:"IE-SO"},{id:"IE-TA"},{id:"IE-WD"},{id:"IE-WH"},{id:"IE-WX"},{id:"IE-WW"}-->

	</defs>
	<g>
		<path id="GB-NIR" title="Northern Ireland" class="land" d="M599.25,152.79l-1.17,0.77l2.63,1.33L599.25,152.79zM605.28,182.24l0.66,-5.3l-5.12,-7.05l-1.21,-3.86l0.08,-5.43l-6.04,-6.9l-3.44,0.38l-2.34,-0.91l-0.09,1.65l-1.69,1.53l-1.05,-1.43l-1.59,1.25l-1.06,-0.66l-4.12,0.5l-3.13,-2.25l-6.78,3.4l-6.28,5.41l-3.16,1.07l-1.29,3.9l-2.23,0.84l-0.93,-0.64l1.57,-4.94l-1.49,-0.89l0.43,-2.31l2.18,-5.09l5.4,-4.53l0.83,-1.91l11,-4.17l4.36,-3.95l2.45,-4.4l-0.21,-7.85l-4.22,-8.53l-4.13,-2.28l-0.28,1.4l-1.77,-1.05l-1.9,1.96l-1.89,-3.98l-3,-2.97l-0.59,-3.52l-1.94,0.1l-2.16,-1.74l-2.29,-6.64l-2.6,-4.07l-1.92,-1.72l-2.3,0.1l-1.12,-2.23l-2.67,-0.35l-0.42,-1.24l1.69,-3.63l1.66,-8.81l-3.49,-2.13l-5.63,1.32l-1.66,-1.26l0.38,-5.27l1.96,-3.84l-0.61,-5.31l1.87,-2.85l-0.89,-4.93l-2.05,-1.24l-1.59,-4.73l-6.16,-2.49l-2.65,-3.24l-2.05,-0.04l-2.61,2.61l-6.68,2.06L511,41.85l-2.27,0.22l-4.91,-2.69l-1.87,-0.53L497,41.58l-0.65,-0.98l-4.62,-0.65l-1.47,-2.31l-1.9,-0.16l-5.56,3.7l0.4,1.69l-1.88,1.8l-11.84,2.41l-1.94,-1.57l0.85,1.8l-0.57,0.98l-6.99,1.96l-1.22,3.83l-18.58,0.2l-6.75,-4.57l-2.32,-0.49l0.58,2.98l-0.93,6.68l-2.26,7.51l-3.09,1.81l0.34,4.92l-3.5,3.52l0.6,0.94l-10.43,2.52l-2.12,-0.85l-0.15,-2.21L410,76.45l-3.27,-0.26l-3.36,1.08l-1.03,-0.81l-1.34,0.65l-0.11,1.65l-2.06,0.96l-0.79,-4.63l0,0l-1.61,0.61l-1.74,2.78l-1.4,-1.26l-2.29,2.11l-3.36,-1.02l-5.65,6.68l-0.77,2.5l1.26,1.79l-1.86,2.98l0.9,1.99l-0.63,3.37l1.18,2.13l-4.61,0.75l-1.4,1.26l-0.64,8.08l1,5.16l-4.3,9.26l-5.25,3.33l-2.29,3.13l-0.36,6.6l1.39,1.65l-1.11,1.79l-3.58,-0.28l-0.08,-1.47l-1.48,1.35l-3.13,0.16l-2.64,-1.41l-4.38,3.75l-6.89,3.1l-1.24,1.89l-6.42,-2.7l-1.88,-3.04l-1.73,-0.4l-5.45,6.81l-4.58,0.26l-0.02,1.33l2.37,1.25l-1.68,2.64l1.12,3.16l5.2,2.17l0.58,3.94l2.88,-0.42l1.96,-2.31l4.72,4.52l1.39,-0.52l2.34,1.09l3.84,-2.85l-0.01,2.73l1,1.31l-1.18,1.33l-4.98,1.61l-1.63,2.47l-3.64,1.15l-0.61,2.33l-3.49,2.69l0.85,2.19l-2.59,2.05l-1.53,-0.64l-10.75,0.66l-1.96,-2.89l-2.07,0.96l-2.26,-0.38l-4.18,7.7l-0.3,4.07l-4.5,-0.14l-3.62,2.38l-0.04,1.2l-4.28,-0.06l-2.9,1.06l0,0l3.9,2.62l-2.04,2.56l7.9,6.96l3.45,6.88l3.41,2.52l3.95,-0.24l-0.1,1.82l5.98,8.44l0,0l3.1,0.54l1.46,1.77l1.08,-1.28l1.37,0.38l0.72,1.52l2.55,-0.22l-1.37,1.46l-0.29,2.57l1.52,2.45l0.5,8.84l4.99,2.91l1.08,-1.01l6.4,-0.84l1.61,1.61l5.81,-0.8l1.24,4.85l1.96,-0.97l3.65,3.26l0.7,3.76l2.36,1.97l2.85,0.12l1.29,2.7l2.06,1.31l2.32,-2.5l5.75,1.79l1.4,-3.52l2.73,-1.91l3.69,-0.87l0.51,0.97l-2.04,2.25l0.55,0.64l5.58,-0.58l-2.3,3.65l3.48,-2.13l1.36,1.19l0.51,2.26l2.46,-1.93l0.46,1.33l0,0l1.47,-0.24l0.09,-0.97l-1.35,-2.68l-1.07,0.12l-1.14,-1.57l3.48,-4.57l2.03,-0.76l1.33,0.95l-0.64,2.7l-1.74,1.55l1.74,1.65l-2.63,1.13l1.1,2.03l2.08,-0.08l0.19,-1.37l1.9,-1.49l-0.36,-1.93l1.17,-2.82l1.98,-1.87l-1.8,-2.72l0.08,-2.17l2.39,-0.32l-0.56,-1.07l-1.35,0.04l0.42,-1.07l1.96,-0.02l0.31,-1.45l2.82,-0.7l1.52,-1.67l2.69,1.33l2.31,-1.04l-0.07,-3.03l-1.03,-1.18l1.39,-2.27l-2.02,-3.51l-1.95,0.1l0.63,-2.15l-4.3,-2.25l1.47,-3.15l1.94,-0.16l0.38,-2.37l-1.08,-3.07l4.06,0.72l3.77,-3.45l1.95,-0.26l-0.76,-2.62l2.85,-2.28l3.73,-6.34l3.03,-1.8l2.68,1.52l0.36,1.26l2.04,-0.44l2.16,1.5l0.75,1.66l3.42,1.92l-0.15,1.24l1.23,-0.52l1.01,0.82l1.05,4.57l2.33,0.76l2.87,6.73l0.33,4.27l-0.95,0.72l0.16,1.56l-0.82,-1l-0.79,0.4l0.27,1.16l2.73,3.03l1.21,-0.38l1.25,1.1l1.38,7.01l1.76,0.7l-0.06,1.47l3.07,2.89l2.34,0.26l1.73,2.96l2.29,0.14l2.26,-3.74l4.93,2.17l3.52,7.79l-2.49,5.96l-1.18,-0.24l2.05,5.16l-1.88,0.42l0.42,2.98l-1,2.96l1.99,0.61l2.86,4.38l2.68,-1.21l0,0l1.25,-2.12l3.8,0.87l3.03,-1.35l2.3,0.97l1.48,-1.94l2.55,-0.6l-0.86,-1.05l0.56,-1.27l2.44,1.03l1.79,2.86l3.41,-0.97l2.96,0.58l0.73,-1.53l2.08,-0.81l-0.02,-8.22l2.74,-0.08l0.56,3.71l1.46,0.58l2.79,-3.51l1.28,-0.14l2.28,1.99l0,0l7.35,0.08l1.45,1.15l0.93,3.91l2.22,1.53l8.18,0.73l2.37,2.99l-2.8,-0.2l-0.93,1.74l5.48,3.35l4.6,-3.01l2.59,-3.65l4.21,-1.21l1.27,-2.98l6.6,-5.74l2.74,-11.68l-0.33,-4.22l-1.8,-3.54l1.15,-2.21l5.92,-4.72l-0.82,-2.43l-1.76,1.04l-0.79,1.85l0.06,-2.27l2.17,-1.59l2.46,-4.86l0.27,4.72l-1.99,0.3l1.47,2.73l7.44,-0.74l3.11,-1.37l0.92,0.84l3.25,-0.28l1.69,0.5l2.31,4.5l2.75,-3.19l-0.9,-2.85l0.91,-1.16l2.17,3.13l0.86,-0.42l0.97,-2.19l-0.58,-1.06l1.66,0.5l3.6,-4.42l1.68,-4.49l2.6,-1.36l-1.89,-0.94l-1.04,-10.08l-1.41,-1.2l-0.62,2.04l-1.01,-1.38l0.49,-2.14l-4.98,0.78l-4.01,2.9l-3.64,-0.64l-0.25,-1.3l3.5,-1.68l-0.51,-0.64l1.91,-3.12l-0.12,-5.72l1.4,0.22l0.23,-1.1l-2.25,-3.7l1.03,-0.4l0.08,-1.76l-1.88,-0.92l1.17,-0.92l-0.96,-0.16l1.08,-1.42l-1.1,-0.82l0.75,-0.92l-1.13,-1.7l-1.19,1.32l-1.18,-1.46l0.28,-2.22l1.2,-0.1l1.38,-2l-1.63,0.22l-6.04,-4.05l2.53,-1.52l-0.27,-4.4l1.91,-2.97l5.11,4.24l2.8,0.7l4.11,5.44l2.16,-0.28l2.86,9.28l-0.63,0.58l1.01,3.15l-1.08,1.38l0.92,0.64l-0.21,5.44l-0.51,1.18l-1.17,-0.7l0.22,-1.26l-1.91,1.04l-1.84,5.9l3.39,3.84l1.21,3.48l1.21,0.38l0.47,3.77l1.4,-0.28l1.26,2.58l0.69,-3.97l1.97,-1.78l-1.33,-0.96l0.41,-2.34l1.1,-1.4l1.08,0.4l1.17,-1l-0.47,-5.44l-1.71,-2.66l1.17,-1.92l1.57,-0.22l1.76,-3.86l0.48,-2.32l-0.75,-1.66l1.18,-1.92l-2.64,-1.38l-1.8,-6.42L605.28,182.24z"/>
		<path id="IE-CW" title="Carlow" class="land" d="M458.79,501.13L461.8,500.65L464.84,503.31L467.73,502.44L469.47,504.6L470.55,503.29L475.83,504.52L476.52,507.94L478.71,507.53L480.8,508.65L482.56,505.93L485.62,507.92L485.54,510.17L483.3,510.66L483.81,519.56L481.02,519.33L479.01,520.35L479.46,521.08L478.25,522.71L476.17,522.48L474.47,521.37L473.09,521.73L471.92,519.11L467.69,516.51L466.66,517.42L467.08,519.5L463.29,522.29L462.18,527.45L463.65,528.22L465.72,526.93L468.48,529.45L469.67,532.18L468.67,533.64L473.25,540.19L473.25,540.19L469.58,544.84L467.66,545.13L466.43,546.49L466.23,549.41L468.21,548.76L468.68,549.83L466.01,554.43L458.83,553.65L454.35,557.39L453.85,565.61L452.77,568.36L450.95,568.61L449.76,572.63L447.19,574.96L447.63,577.32L444,584.92L440.44,587.73L437.87,587.71L437.87,587.71L435.77,587.04L437.67,585.5L435.13,580.89L435.72,575.69L432.95,573.78L437.96,569.19L437.68,565.89L434.04,561.56L431.62,560.8L430.01,557.94L430.62,556.91L429.36,555.43L430.2,553.42L429.72,550.64L430.78,548.54L428.73,547.32L427.56,543.55L423.7,539.87L422.18,541.63L420.23,540.65L418.73,537.56L415.71,537.54L417.66,535.95L416.27,533.56L418.21,531.56L417.82,528.01L421.03,524.95L421.03,524.95L422.99,524.31L423.85,521.79L432.35,521.94L433.85,520.67L435.42,518.36L434.55,515.82L436.37,514.57L435.42,508.44L435.42,508.44L436.21,506.8L437.24,506.72L439.27,510.14L442.06,512.02L443.39,511.39L442.48,508.79L443.45,508.5L446.13,511.64L448.56,509.31L452.67,510.56L455.61,505.95L457.17,506.09L457.53,501.71z"/>
		<path id="IE-CN" title="Cavan" class="land" d="M317.54,228.09L320.65,228.63L322.1,230.4L323.19,229.13L324.55,229.5L325.28,231.02L327.83,230.8L326.47,232.26L326.17,234.83L327.69,237.28L328.19,246.12L333.19,249.03L334.27,248.01L340.68,247.18L342.29,248.79L348.09,247.99L349.33,252.85L351.29,251.87L354.94,255.13L355.64,258.89L358,260.86L360.84,260.98L362.14,263.68L364.2,264.99L366.53,262.49L372.28,264.27L373.68,260.76L373.68,260.76L373.68,260.76L373.68,260.76L376.41,258.85L380.09,257.98L380.61,258.95L378.56,261.2L379.11,261.83L384.69,261.26L382.39,264.91L385.87,262.79L387.23,263.98L387.75,266.24L390.21,264.31L390.66,265.65L390.66,265.65L391.14,268.03L394.52,267.99L397.5,270.39L399.67,270.35L399.22,268.7L400.89,269.73L402.02,268.92L410.17,272.63L413.95,270.01L416.86,270.83L418.11,272.87L422.37,269L425.97,269.62L424.98,273.03L426.75,273.66L427.92,276.28L430.27,277.07L432.07,280.88L435.23,282.39L437.03,286.19L440.83,287.08L443.97,291.74L448.14,302.54L454.2,303.29L455.88,305.26L455.88,305.26L455.09,306.94L453.83,305.92L453.39,306.67L452.13,311.64L449.63,310.6L450.34,309.27L448.81,308.98L445.92,311.43L446.91,312.37L446.27,313.16L442.06,313.99L437.3,310.48L435.72,310.48L436.82,313.78L433.18,316.03L431.37,314.86L432.26,319.5L433.45,319.7L433.81,321.55L438.3,326.91L437.23,328.55L435.53,328.45L434.99,330.85L436.14,331.7L434.49,332.45L432.75,330.54L429.92,333.87L428.66,332.41L428.34,335.44L423.3,333.32L416.01,333.4L415.11,330.32L413.19,330.44L410.8,328.12L407.63,330.3L405.45,329.65L403.29,331.45L403.1,334.12L396.12,332.25L394.86,328.92L392.17,326.18L388.19,328.75L388.19,328.75L380.5,333.3L380.5,333.3L379.87,330.6L374.24,328.16L372.63,326.09L373.76,324.84L372.42,317.98L366.76,316.05L364.65,317.9L360.04,318.49L361.4,312.75L363.06,313.18L363.71,310.26L362.9,308.03L361.08,307.65L360.79,308.62L360.2,306.29L356.75,301.53L356.75,301.53L359.29,297.75L358.69,295.46L360.19,293.75L358.22,291.64L359.05,289.62L358.46,285.16L356.82,283.89L356.25,285.42L353.31,283.97L352.9,282.66L354.22,280.8L353.12,279.87L351.86,280.54L351.45,277.81L348.57,276.7L345.66,272.2L342.5,272.59L341.97,270.31L339.85,268.05L336.25,267.51L335.01,265.88L333.1,267.65L332.64,269.56L331.35,269.58L328.08,266.58L328.93,265.41L324.1,262.11L324.52,260.76L322.73,258.49L317.25,253.74L312.76,253.2L310.61,250.94L309.21,252.05L306.34,252.03L305.96,249.41L307.41,246.7L304.71,242.06L305.08,240.83L306.62,238.51L311.3,239.13z"/>
		<path id="IE-CE" title="Clare" class="land" d="M184.55,454.2l3.93,-0.25l1.52,1.61l1.84,-0.21l-0.69,1.05l2.86,0.87l0,0l-2.1,0.6l-0.58,1.59l2.23,5.24l8.06,3.91l2.4,3.04l3.22,0.72l-0.65,5.01l1.82,3.97l-1.66,1.37l0.27,1.7l1.59,4.77l2.45,-0.44l0.75,1.72l1.07,-1.72l-0.44,-1.02l1.83,-0.71l0.82,1.66l4.95,1.18l0.85,-3l4.14,-2.65l2.68,-4.51l2.43,-0.17l3.63,-2.59l3.7,-0.37l1.33,1.2l7.72,-1.3l0.83,3.75l2.53,-0.17l0.41,1.95l2,1.12l0.84,4.85l2.3,-0.99l3.83,3.09l2.18,-1.39l1.87,-2.96l1.68,1.86l3.6,1.24l0.92,1.47l2.5,-2.96l2.86,0.37l0,0l0.68,1.47l2.69,0.73l0.32,1.06L272,501.15l-6.05,-0.35l-1.62,0.71l-1.62,7.46l-4.16,5.05l1.61,10.53l-4.47,6.68l0,0l-3.49,2.04l0.69,5.59l-1.23,2.34l-3.32,1.54l-0.64,3.44l-3.58,2.16l-1.13,4.13l-2.63,2.25l-1.38,-1.25l-7.76,-0.5l0.5,-3.13l4.25,-2.38l0,-2.47l-3.9,0.13l-3.25,2.76l-5.8,-0.86l0,0l-1.01,0.47l-10.82,-4.41l-2.75,-0.25l-4.88,1.75l-0.63,1.25l-3.88,-0.38l-0.63,-1.5l5,-3.13l-2.38,-4l0.25,-2.5l-1.5,-1l1.25,-2.5l-1.75,-1.25h-2l-6.38,3.5l-0.63,0.88l0.75,4.75l-4.38,7.26l-1.75,0.5l-0.88,3.13l-3.13,2.25l-1.13,2.75l-2.63,2.63l-12.39,1.75l-1.88,4l-1.38,0.63l-4.75,0.38l-0.75,-1.13l0.25,-1.38l5.51,-4.25l1.25,-2.88h-1.75l-0.38,1.63l-2.5,1.25l-13.76,2.63l-1.88,-1.38l-4.38,-0.13l-3.13,-2.13h-1.88l-1.63,-2l-0.25,-4.63l-0.5,-1h-1.38l-1.88,1.38l-0.25,1.5v1.63l1.75,-0.13l-0.25,2.38l-2.88,1.13l-1.38,1.25l0.25,1.25l-4.5,-0.5l-3.63,1.75l-3.38,0.25l-2.19,5.02l-3.15,-1.04l-0.07,1.3l-7.62,2.85l-4.08,-1.15l-2.06,0.19l-0.83,1.7l-2.63,1.22l-5.6,-0.82l2.12,-1.11l1.77,-2.55l2.81,-0.21l1.26,-1.36l-0.69,-0.86l7.06,-1.8l2.83,-4.73l6.66,-3.43l1.38,-3.03l3.03,-1.21l2.52,-3.11h3.39l-1.26,-2.44l1.14,-0.9l0.02,-1.52l3.69,-2.05l-2.09,-2.27l1.33,0.4l-0.47,-1.17l2.23,-0.27l0.26,-2.06l5.79,-1.58l2.82,3.15l0.44,-2.02l3.41,-0.67l0.79,-2.21l-1.13,-1.83l2.33,-1.27l-1.13,-6.25l3.72,-1.39l0.91,-1.83l-0.49,-1.14l2.85,-0.98l-0.3,-1.29l-1.94,-1l2.29,-1.97l0.45,-1.7l-1.66,0.13l0.96,-3.01l4.33,-2.31l3.17,-3.94l1.61,-0.5l0.64,-2.57l-1.63,-2.49l-4.44,2.03l-4.35,-0.79l-3.32,1.25l-1.18,-0.37l0.18,-1.8l4.85,-4.71l0.46,-3.73l4.4,-4.43l-1.89,-1.88l4.98,-6.15l0.85,-4.22l5.74,-4.17l2.54,-4.96l-0.44,-2.41l1.13,-2.44l2.45,-1.96l4.85,2.87l5.81,0.74l-1.57,0.17l0.31,1.03l3.21,2l6.78,-4.75l-0.72,1.11l1.41,-0.08l1.91,3.22l-0.28,-3.38l-1.73,-1.42l-1.87,0.64l-0.5,-1.13l-1.49,0.85l-1.71,-0.89l4.14,-1.82L184.55,454.2z"/>
		<path id="IE-CO" title="Cork" class="land" d="M140.64,778.68l0.26,1.01l-1.94,2.43l-2.37,1.57l-0.46,-1.68l-1.22,2.89l-0.75,-1.75l-0.86,0.24l2.27,-2.58L140.64,778.68zM147.22,771.66l0.91,0.24l0.57,3.27l-0.75,-0.37l0.26,1.01l-4.23,2.86l-0.35,-1.85l1.83,-0.86l-1.26,-1.66l1.42,-0.5l1.28,1.48l0.51,-0.69l-1.1,-0.52l-0.1,-1.49L147.22,771.66zM145.07,769.75l-0.69,2.56l-1.11,-1.1l-1.61,0.77l0.78,-1.38l0.51,0.5L145.07,769.75zM130.13,771.06l-3.5,0.5l5.76,-2.39L130.13,771.06zM136.97,768.01l-1.1,1.4l-0.65,-0.36L136.97,768.01zM140.25,767.38l-1.61,0.09l2.71,-1.35L140.25,767.38zM59.11,749.56l0.26,1.11l-8.64,4.44l3.67,-4.57L59.11,749.56zM102.36,743.77l-1.12,0.47l0.38,0.94l-2.55,0.6l-1.35,1.57l-1.22,-0.64l-4.09,1.41l-0.58,1.09l-0.22,-1.33l-3.17,0.56l-0.79,-0.67l2.23,-3.84l7.45,-1.05l1.43,1.14l-0.63,1.2l1.97,-1.74l3.45,-1.05L102.36,743.77zM138.65,732.68l-1.8,3.47l-3.49,-0.49l5.32,-4.47L138.65,732.68zM277.75,706.81l1.08,0.57l-1.03,0.49L277.75,706.81zM276.97,705.7l0.25,0.73l-1.47,-0.39L276.97,705.7zM169.42,619.57l0.88,-1.67l4.15,-1.16l0.1,-1.33l3.93,-2.78l0.46,-2l3.24,2.13l8.82,1.92l6.17,5.94l0.59,-0.49l-1.14,-3.43l12.09,-3.85l-0.84,-1.16l1.39,-2.95l0.76,0.78l2.11,-1.39l0.17,-2.48l2.57,-0.21l0.93,-2.52l1.98,-0.46l1.19,2.73l1.7,-2.55l5.11,2.76l7.13,-2.63l-0.04,3.77l1.58,2.69l3.27,1.26l0.77,-0.65l0.08,1.94l1.12,-0.27l3.53,6.02l3.17,0.08l1.88,3.2l4.22,2.15l7.98,-2.63l5.86,-0.34l0.56,-2.36l2.19,-0.8l0.21,-1.68l2.64,-1.62l1.25,1.98l1.94,-0.78l2.13,5.06l1.53,1.39l3.87,-1.9l7.29,1.73l0,0l0.82,2.45l1.61,-0.21l-0.71,1.96l1.26,4.62l6.57,2.22l-0.16,4.6l0,0l0,0l0,0l-2.46,1.23l0.91,0.55l-1.28,5.56l-2.89,0.61l-1.07,4.3l5.91,-0.82l1.52,0.38l0.68,1.65l3.07,-1.31l0.14,3.45l-1.43,-2.26l-0.58,1.08l1.75,2.35l2.61,0.59l0.52,1.52L308,656l1.64,5.68l-0.83,4.01l4.3,3.35l3.11,-0.19l-0.48,1.99l3.94,3.23l1.4,6.44l5.27,0.4l2.29,-0.95l1.6,4.74l0,0l-0.12,2.49l-2.74,1.94l-2.19,3.62l-2.51,0.72l0.14,2.3l3.85,1.36l0.58,1.56l-12.77,2.51l-5.52,3.24l0.02,2.22l0.01,-1.21l-1.03,0.43l2.8,3.13l-4.91,1.37l-1.57,1.39l-7.94,0.7l-3.62,3.56l-1.52,0.34l-0.49,-1.9l-1.84,-0.28l-6.94,0.9l0.6,-2.5l-1.73,-1.77l1.63,-1.98l1.85,-0.06l-0.78,-1.83l2.16,-1.28l5.07,-0.58l-1.89,-0.45l0.82,-1.79l2.02,-0.94l-10.94,0.73l-5.69,2.88l-1.94,-1.22l-1.25,1.62l-2.04,0.34l4.46,1.68l0.2,-0.92l1.19,0.7l0.91,-0.66l-0.5,2.86l-2.4,-0.47l0.24,0.81l3.37,1l-0.19,1.92l1.27,-1.35l1.05,0.21l0.21,1.92l-1.1,1.9l-3.57,2.95l1.78,0.94l-0.25,4.29l-1.1,0.19l-0.12,2.2l-2.21,-0.39l-1.1,3.17l-5.19,0.47l-1,2.44l-3.1,-0.45l-0.93,2.78l-1.45,0.66l-1.53,-1.22l-2.83,3.15l-1.96,-0.09l0.18,-2.72l-1.56,-2.67l-0.8,1.54l1.06,1.99l-0.69,1.05l-1.98,-1.46l0.8,1.24l-1.19,4.45l-2.32,2.53l2.59,2.92l-1.35,1.37l0.97,2.79l-1.4,-0.88l-0.61,-2.47l-1.46,-0.15l-0.13,-2.66l-2.05,-1.09l-9.09,1.76l-1.89,-6.34l0.26,3.11l-0.94,1.29l-2.26,-1.05l-1.28,2.1l-4.06,-1.35l-2.8,1.63l0.08,1.01l2.18,-1.97l2.68,1.44l4.93,-0.17l-1.91,3.66l2.69,1.69l-2.85,2.14l0.38,3.18l-1.53,1.67l-3.73,-1.22l-0.51,1.18l-1.03,-0.39l0.77,-1.74l-1.06,-1.89l-1.98,1.76l-3.38,-2.34l-4.97,0.43l-0.06,-3.6l-2.27,-0.06l-2.06,-1.93l1.26,3.28l2.13,-0.36l0.52,1.24l-1,1.11l-3.76,-1.63l-0.21,1.31l3.16,0.9l-0.21,2.87l-2.66,1.1l0.39,3.39l-1.13,-0.07l-0.08,0.99l-2.1,1.27l-1.06,-1.31l-1.45,0.24l-1.84,3.18l0.01,-4.73l-5.18,-2.45l-2.36,0.54l-0.99,-3.15l-0.3,1.67l1.76,2.6l-1.89,-0.08l-0.59,1.12l-2.05,0.45l-2.06,-1.57l0.83,1.42l-0.73,0.33l-2.72,-0.22l-2.69,-2.33l-1.94,0.22l-1.67,-3.28l0.58,4.1l2.3,0.11l0.49,-0.95l3.62,3.09l3.8,-0.88l-3.32,1.27l-3.88,-1.78l-0.44,0.97l1.15,2l-1.69,-0.26l0.37,0.8l-1.82,0.84l0.67,0.75l-1.89,0.94l-0.28,-1.59l-1.29,0.45l0.56,1.31l-2.24,0.9l1.28,-3.2l-0.79,-3.55l-0.92,1.03l1.14,0.21l-0.1,2.97l-2.24,1.96l-0.12,2.11l-1.74,-0.13l-1.41,1.93l0.69,2.06l-3.64,0.9l1.21,-1.76l-0.63,-0.95l-3.99,2.19l0.66,-3.1l-1.54,0.56l-0.02,0.92l-3.37,-2.3l1.81,2.8l-6.23,4.22l-2.06,-1.25l-1.95,1.2l-1.07,-1.08l1.87,-2.26l1.81,0.26l0.52,-3.74l-1.92,0.45l0.76,1.55l-2.03,1.4l-0.76,-0.62l0.56,-2.11l-1.22,0.04l2.08,-1.01l0.28,-1.36l-4.36,3.4l-0.94,-0.8l0.57,-2.73l-1.4,2.08l-0.67,-1.14l2.86,-2.28l1.35,-5.76l-2.19,2.49l-0.19,-2.21l-1.35,0.07l-0.26,1.46l-3.34,-3.61l0.23,2.23l1.41,0.37l-0.41,1.2l1.34,0.13l-2.45,3.16l-2.27,-0.97l-0.31,1.44l-1.37,-0.26l-4.35,1.94l0.28,-2.97l-1.6,0.09l-0.69,3.48l-4.79,1.08l0.06,-2.19L125.9,769l-2.37,1.07l2.11,-0.52l0.9,0.79l-5.35,1.18l1.56,-1.23l-1.96,-1.03l0.28,-1.61l-1.34,-0.17l0.06,-1.44l-1.05,1.23l-1,-0.77l-0.69,0.41l1.13,1.12l-0.75,1.76l-0.71,-1.12l-4.53,2l0.56,3.63l-5.37,2.33l5.6,-1.06l-4.63,1.47l-3.45,2.52l1.28,-2.41l-1.95,-2.02l1.97,-1.16l-0.47,-0.52l-1.77,1.4l-2.09,4.26l-2.64,0.21l1.49,-4.56l-3.53,-1.53l4.89,-2.47l5.09,-4.97l1.31,0.17l0.71,-1.03l3.5,0.26l4.18,-3.55l1.75,0.67l0.26,-0.75l-1.26,-0.02l2.01,-1.44l0.06,-2.32l3.46,-1.57l-0.67,-0.9l4.37,-1.97l0.91,-2.27l3.95,-0.75l1.05,-1.16l-1.27,-0.56l0.53,-0.88l-2.66,1.82l-2.67,-0.45l-4.06,2.9l-1.85,-0.6l-2.55,3.15l-1.45,-0.28l-1.56,1.24l-1.1,-0.41l-1.49,1.61l-2.4,0.22l-0.64,1.85l-1.02,-0.8l-8.95,4.15l-4.13,-0.08l7.8,-5.17l-0.78,-0.82l0.88,-1.09l7.64,-3.78l2.5,-2.49l12.31,-5.42l2.38,-2.01l7.13,-1.93l2.53,-2.96l2.73,-0.21l0.54,-1.76l2.03,-0.7l-2.18,-0.77l2.48,-4.96l-2.09,1.3l0.91,-1.93l-0.75,-0.54l-2.99,2.91l-2.27,-0.38l-1.12,-2.22l-2.2,-0.28l0.5,-2.12l-1.38,-1.99l-1.81,0.92l1.01,1.18l-1.74,1.35l1.03,0.06l-0.4,0.7l1.2,1.11l-0.67,1.86l-2.72,1.73l-0.9,-0.96l-0.71,1.88l-4.28,3.45l-6.02,2.03l1.03,-2.53l-1.28,1.09l-4.48,0.47l-1.17,-3.15l-1.17,1.33l1.21,1.99l-0.75,1.2l-1.66,-0.56l-2.17,1.67l-3.51,0.21l-2.1,1.16l-0.89,-0.92l-3.43,1.09l-2,-0.53l-1.56,1.37l-2.75,-0.94l-1.4,3.13l-2.6,0.15l1.66,0.71l-0.04,1.86l-1.32,1.48l-3.3,-0.08l-0.15,-1.03l-8.73,6.13l-0.9,-0.8l1.18,-0.62l-2.04,0.47l1.21,-1.18l-0.51,-0.54l-7.16,1.09l-0.97,-0.64l-5.21,3.73l2.13,-3l0.12,-1.59l-1.71,-0.73l0.15,-0.99l1.68,-1.07l2.48,1.5l3.55,-2.25l1.25,0.92l3.06,-2.51l-1.91,-0.13l1.13,-1.07l0.06,-2.63l-1.6,0.47l-0.37,-1.22l-2.99,-0.19l-0.61,-0.92l1.61,-1.93l1.94,0.47l0.55,-1.01l2.02,1.5l2.69,-1.76l2.55,0.79l1.38,-2.2l3.11,-0.19l0.89,-3.42l2.06,-1.8l-1.4,-0.54l-2.88,1.15l0.07,-0.81l-2.73,-0.06l3.01,-3.36l4.23,-1.54l1.69,0.3l-0.06,-0.85l5.25,-3.48v2.99l-1.18,1.43l4.49,-2.18l0,0l2.53,3.38l-1.17,1.69l2.3,1.09l-1.07,4.28l1.38,1.07l3.64,-0.88l3.55,-3.51l-0.05,-1.41l4.29,-3.66l6.6,-1.63l1.27,-2.9l4.2,-4.31l4.88,0.34l1.52,-1.09l1.2,0.58l1.6,-0.71l2.15,0.79l7.19,-1.39l1.82,-1.19l1.2,-4.57l3.62,-0.11l2.19,-2l2.99,0.24l1.33,-1.49l2.25,-0.55l0.55,-2l2.76,-2.75l-0.02,-1.36l3.18,-3.17l-2.04,-1.62l0.7,-1.92l-1.88,-1.98l-0.27,-4.04l4.9,-2.57l0.87,-1.96l5.04,-1.13l2.17,-1.46l4.33,-0.62l2.25,0.72l1.92,-2.42l-0.96,-1.98l-3.94,0.3l-2.06,-4.25l-3.23,0.68l-1.37,-5.07l1.49,-3.9l1.94,-0.66l0.99,-1.8l-3.29,-2.03l-0.13,-2.24l-2.03,-2.79l0.38,-1.25l-1.41,-3.73l0.7,-5.41l-1.6,-1.42l-0.79,-5.05l-2.66,-3.7l0.3,-4.88l3.02,-1.94l-0.17,-2.42l3.77,-0.46l0.56,-1.64L169.42,619.57z"/>
		<path id="IE-DL" title="Donegal" class="land" d="M259.88,96.41l0.43,2.09l-2.23,-0.18L259.88,96.41zM257.96,92.47l1.42,2.01l-2.43,-0.59l0.3,-1.87L257.96,92.47zM249.49,86.12l4.19,2.05l-0.52,1.64l1.38,4.18l-3.63,-0.02l-0.47,0.97l-0.67,-1.01l-4.56,-0.39l0.03,-1.26l0.99,-0.3l-0.48,-2.31l1.89,-1.32l-1.63,-2.68l1.81,0.45l0.58,-1.85L249.49,86.12zM263.16,82.67l0.21,3.23l-1.23,-2.58l-1.82,-0.32l1.91,-1.36l-1.1,-3.62l1.06,0.81L263.16,82.67zM368.1,71.59l2.58,-0.1l2.76,2.28l1.92,4.47l-5.11,0.67l-1.22,-1.63l-2.15,-0.55l-1.02,-2.78L368.1,71.59zM268.93,69.3l1.69,2.01l-1.24,0.89l-2.29,-1.28l1.15,-0.37l-0.81,-1.06L268.93,69.3zM282.47,32.88l1.54,-0.1l-0.34,0.82l1.67,0.04l2.03,2.31l1.25,0.27l0.27,-0.96l0.04,1.16l-2.31,0.63l-1.6,-2.19l-2.58,0.12L282.47,32.88zM385.56,11.36l2.92,0.94l0.65,1.41L395.6,14l0.82,1.19l3.17,0.2l1.46,1.58l4.37,1.02l2.67,2.09l-1.58,0.94l1.76,0.68l-0.74,1.76l2.22,2l0.14,2.86l2.54,0.98l1.24,-0.65l6.23,4.48l3.44,-0.33l0.51,1.12l3.02,0.69l0.57,2l6.18,0.51l3.55,3.35l-0.26,2.16l-3.41,3.27l-7.94,4.24l-3.09,0.69l-12.95,7.74L404.22,65l-0.76,2.54l-5.41,7.52l0,0l-1.61,0.61l-1.74,2.78l-1.4,-1.26l-2.29,2.11l-3.36,-1.02l-5.65,6.68l-0.77,2.5l1.26,1.79l-1.86,2.98l0.9,1.99l-0.63,3.37l1.18,2.13l-4.61,0.75l-1.4,1.26l-0.64,8.08l1,5.16l-4.3,9.26l-5.25,3.33l-2.29,3.13l-0.36,6.6l1.39,1.65l-1.11,1.79l-3.58,-0.28l-0.08,-1.47l-1.48,1.35l-3.13,0.16l-2.64,-1.41l-4.38,3.75l-6.89,3.1l-1.24,1.89l-6.42,-2.7l-1.88,-3.04l-1.73,-0.4l-5.45,6.81l-4.58,0.26l-0.02,1.33l2.37,1.25l-1.68,2.64l1.12,3.16l5.2,2.17l0.58,3.94l2.88,-0.42l1.96,-2.31l4.72,4.52l1.39,-0.52l2.34,1.09l3.84,-2.85l-0.01,2.73l1,1.31l-1.18,1.33l-4.98,1.61l-1.63,2.47l-3.64,1.15l-0.61,2.33l-3.49,2.69l0.85,2.19l-2.59,2.05l-1.53,-0.64l-10.75,0.66l-1.96,-2.89l-2.07,0.96l-2.26,-0.38l-4.18,7.7l-0.3,4.07l-4.5,-0.14l-3.62,2.38l-0.04,1.2l-4.28,-0.06l-2.9,1.06l0,0l-5.14,-1.72l-1.71,2.34l-2.06,-0.02l-4.08,-3.14l0,0l0.92,-1.1l-0.57,-0.98l2.06,-0.74l1.1,-4.19l-1.35,-2.97l6.46,-4.33l-0.86,-5.16l1.57,0.22l4.62,-4.64l-0.12,-5.71l1.76,0.32l-0.79,0.36l0.22,0.78l0.84,-0.38l-0.72,1.11l1.2,1l-0.49,1.43l1.52,-0.4l0.33,-2.95l2.13,0.58l-0.41,0.9l1.31,-0.4l0.15,-1.21l-2.11,0.26l0.91,-1.25l-1.95,0.26l2.74,-1.93l-4.18,0.3l2.55,-1.05l1.4,-3.7l-2.83,0.82l0.06,1.39l-3.28,2.96l-0.38,-2.84l1.47,-0.99l-2.23,0.5l-0.78,1.01l0.89,0.84l-1.63,-1.01l-5.63,4.54l-7.33,3.38l0.82,-4.24l2.18,-2.71l-1.82,-2.17l-6.35,3.3l-1.12,3l-4.56,4.26l-4.41,1.43l-1.27,1.17l0.1,1.35l-2.66,1.39l2.03,-2.77l-0.34,-1.35l5.81,-2.01l2.43,-2.95l-1.31,-3.2l0.41,-1.43l-1.06,1.03l-0.28,-1.05l-2.99,3.6l-1.91,0.4l2.22,-6.88l-0.97,-0.02l-2.09,3.12l0.24,2.45l-3.51,3.78l-1.19,-0.2l0.48,-1.87l-0.81,-0.7l1.26,-1.69l-0.33,-2.11l-6.58,3.44l-4.95,1.15l-0.93,1.51l-0.63,-0.46l0.83,-1.51l-4.26,-0.46l1.99,-1.65l-2.16,0.72l-1.28,-1.17l0.25,-1.59l-1.45,-2.62l1.45,5.47l-5.79,0.66l-0.59,-1.65l0.92,-1.01l-1.71,-1.97l-9.44,-2.94l-0.04,-1.63l-0.79,1.05l-0.66,-1.03l-0.72,0.91l1.17,-5.9l-2.57,-1.03l0.1,-1.77l1.25,-0.65l1.49,0.95l2.13,-1.53l1.96,0.38l1.52,-0.97l-2.02,-0.1l-0.04,-3.14l1.04,-0.87l-0.67,-1.05l4.69,-1.23l0.25,-1.81l1.7,-1.77l1.9,0.3l0.68,-2.02l8.49,-1.66l6.92,2.7l2.46,-1.05l0.02,1.78l9.33,1.21l-3.69,-0.77l-2.27,-2.52l-2.37,-0.71l-1.34,0.59l-3.49,-2.16l0.08,-1.33l3.57,1.03l1.58,-1.01l1.57,0.4l0.54,-0.95l1.2,0.32l1.97,3.81l3.18,1.86l1.81,-2.16l-3.27,-0.87l0.3,-0.99l-2.4,-1.88l0.87,-0.34l-1.03,-1.43l-4.57,0.04l0.23,-1.66l-1.8,-1.19l-1.8,0.18l0.44,-2.1l-4.64,-0.87l3.42,-1.37l2.93,1.5l0.78,-0.83l-0.56,-1.74l2.46,-1.66l4.63,1.74l2.73,-2.47l1.76,1.11l1.19,-1.21l-0.03,1.7l1.75,0.63l0.12,-6.81l-0.76,-0.79l2.43,0.49l1.92,-1.46l3.58,1.86l-0.47,-1.23l2.08,-1.64l-4.02,-0.69l-0.29,-3.22l-2.22,1.74l-1.87,-1.23l0.61,3.42l-1.13,0.91l-3.02,-3l-3.78,-1.23l-1.62,-1.56l-0.19,-2.37l1.26,-0.12l0.41,-1.22l-1.65,-1.22l0.48,-1.62l2.15,-0.2l0.14,1.09l-1.64,0.77l2.16,1.3l-0.16,-1.11l2.78,-0.08l2.5,-1.64l0.82,0.97l1.82,-1.88l-5.23,-2.57l-0.6,0.47l-0.64,-2.01l-3.06,-3.04l0.97,-0.75L258.54,89l0.37,-1.62l3.27,-1.04l0.7,0.32l-0.82,0.67l2.6,0.95l-0.93,-2.72l1.8,-1.89l-1.54,-1.83l0.79,-1.5l0.9,-0.37l1.36,1.95l1.31,-1.63l2.24,0.26l0.84,-1.75l-0.96,-2.62l2.92,-1.77l0.64,-1.95l-0.68,-2.01l1.35,-0.85l-0.26,-3.78l2.38,-2.71l-0.49,-2.77l1.35,-1.32l-0.85,-1.02l1.25,-1.63l6.08,1.92l1.64,-0.69l0.79,1.26l5.28,0.31l1.65,-1.12l0.51,-2.53l1.66,-0.02l0.54,1.49l-3.64,2.75l0.59,0.81l-0.9,2.4l1.16,0.47l0.93,-1.42l1,0.71l-0.23,1.67l0.78,-0.81l-0.48,-3.67l1.64,0.92l0.63,-2.93l-0.77,-1.3l6.32,-1.06l2.38,-2.36l1.65,0.67l1.29,-0.65l1,-2.12l-1.12,-0.94l1.29,-1.47l-1.26,-0.43l0.86,-3.22l2.89,-0.51l1.25,-1.8l1.9,2.73l2.93,-0.43l0.32,1.06l-0.53,2.45l-1.85,1.35l-1.74,-0.08l-0.96,1.59l3.06,-1.06l2.97,1.98l2.15,-2.61l2.01,0.84l-0.55,2.39l2.5,0.59l-4.22,3.67l4.68,-2.57l2.23,0.84l-1.26,2.75l-3.04,0.69l-1.78,2.79l2.15,-1.43l1.34,0.33l0.23,-1.14l1.26,1.67l-0.34,1.63l1.49,-0.26l-0.51,-2.24l2.4,-2.08l-1.16,-0.96l2.03,-2l0.75,-2.87l-1.53,-3.2l-1.41,1l-2.68,-2.45l0.73,-5.82l1,0.88l1.68,-1.16l1.83,1.39l1.17,-0.24l-0.44,-2.43h1.59l0.36,-2.59l1.74,0.69l0.4,-1.59l-0.28,6.08l-2.27,1.82l0.05,2.33l-1.08,1.26l1.88,2.2l-0.5,1.96l1.2,0.06l-0.04,-1.35l0.68,0.88l0.42,-0.96l2.05,0.33l0.49,-1.18l1.06,0.75L340,52.62l1.6,0.82l0.09,-1.67l2.65,4.22l-1.11,-3.1l1.98,1.9l2.59,4.75l-2.93,8.83l1.61,-1.57l0.53,1.67l3.46,-12.15l-1.66,-1.45l-0.35,-3.51l-0.8,1.16l-1.23,-1.1l0.7,-1.94l-0.84,0.71l-1.43,-1.41l0.33,-1.37l1.63,-0.06l-1.19,-2.88l0.77,-1.73l-0.91,-0.9l-1.68,1.76l0.36,3.18l0.93,-0.06L344,48.19l0.42,2.24l1.6,1.04l-0.75,2.75l-3.96,-3.53l-0.38,-1.16l1.25,0.51l0.32,-1.35l-1.69,-0.37l-0.21,0.9l-2.11,0.55l-1.34,-2.59l-1.8,-0.55l-0.41,-1.77l4.58,-4.59l0.96,0.29l-0.92,-1.06l1.13,-1.39l-0.7,-1.74l1.66,1.55l1.26,-1.2l0.41,1.61l3.03,-0.16l1.2,-1.41l-0.25,-1.88l1.47,0.37l2.76,-2.9l2.72,-0.02l-0.4,1.1l0.94,0.47l2.82,7.35l-0.57,3.16l-1.97,2.79l2.61,3.41l1.24,-0.33l2.39,1.75l-0.11,2.71l3.76,4.91l2.15,0.92l0.48,3.09l-1.43,1.61l0.57,2.14l-1.04,2.16l-5.72,2.52l-1.43,1.59l-0.06,2.42l-3.22,0.83l-1.8,2.28l0.17,1.46l1.7,-1.65l1.75,0.71l3.62,-2.21l1.17,0.3l0.92,2.15l-0.05,1.75l-2.61,3.01l-6.6,4.63l-2.1,5.5l-2.9,1.85v1.6l0.77,-1.18l3.96,-1.07l0.76,-1.6l1.43,1.48l3.21,-6.17l6.63,-6.09l1.43,0.85l1.24,-0.93l0.46,-3.31l2.05,0.1l1.63,-1.26l0.43,0.73l2.61,-0.37l1.06,-1.34l-1.42,-5.31l-2.55,-2.77l0.16,-2.34l2.46,-3.89l-0.48,-3.5l-1.39,-0.2l-1.52,-3.61l-1.94,-1.04l-1.99,-4.63l-4.09,-2.24l1.74,-1.37l-1.14,-0.88l1.42,-4.33l2.09,-2l-1.74,-1.9l2.34,-1.63l0.52,-1.74l0.05,-1.23l-1.94,-2.1l0.62,-1.12l2,-0.8l4.11,1.76l0.45,-2.96l1.73,1.19v1.49l2.55,0.61l-0.57,-1.53l1.75,-0.9l4.08,-0.04l0.98,-4.7l1.34,-0.53l3.17,1.06l1.31,2.04l1.29,-0.33l1.01,2.04l-1.03,1.04l-3.99,-0.49l-0.05,1.35l3.72,-0.1l3.37,2.15l1.87,-1.45l0.71,1.08l2.19,-0.33l-2.44,-2.29l1.81,-1.04L395.85,29l-6.3,-3.91l-0.5,-2.8l-2.13,-1.51l0.49,-5.42l-2.78,-0.27l-2.18,-3.05l-1,-0.04l3.33,-1.5L385.56,11.36z"/>
		<path id="IE-D" title="Dublin" class="land" d="M528.46,403.37l0.59,-0.31l1.7,3.63l-0.42,-8.42l-9.37,-4.22l5.4,-0.53l0.86,-1.35l2.09,1.37l-1.69,2.91l2.25,-1.25l0.93,-3.21l2.6,-3.19l-1.29,-0.49l-0.94,-2.8l-1.61,-0.08l1.06,2.15l-4.51,0.02l-0.59,-1.13l4.58,-1.74l1.92,0.59l3.94,-1.84l-1.41,-2.08l1.04,-1.84l-0.85,-0.67l0.71,-0.61l-0.5,-2.8l-1.55,-1.29l-0.16,-3.57l-5.67,-0.33l-2.07,-3.84l-2.68,-2.35l-0.09,-2.24l-2.92,-0.61l0,0l-1.91,0.94l-1.14,-1.24l-2.15,0.61l-1.62,3.38l0.04,3.31l-4.25,2.41l-1.18,1.84l-3.29,0.22l0.15,-1l-1.6,-1.14l-3.49,-1.1l0.22,2l-4.14,2.76l-1.22,4.51l1.33,0.53l1.6,3.02l4.91,2.15l-0.13,1.6l2.6,1.47l0.86,4.09l-1.81,2.64l-0.01,3.58l-4.09,1.68l-2.75,-0.37l-0.97,4.53l-4.15,5.48l0,0l-2.43,5.01l-1.52,0.68l-1.1,7.52l-2.18,-0.49l-1.61,1.46l0.36,0.72l-1.16,0.93l1.34,1.17l-0.15,2.39l-2.1,1.93l3.52,3.15l1.16,-0.35l-3.25,2.2l0.26,1.13l1.78,-0.12l5.28,2.18l-0.37,0.58l0,0l1.32,1.48l1.27,-0.88l3.76,0.12l2.1,3.93l3.46,-0.93l-0.13,4.43l4.54,2.74l2.64,-3.17l0.23,-5.13l0.96,-0.7l7,4.33l3.65,-1.57l0.27,-1.24l2.97,-0.58l2.31,3.17l3.07,0.83l3.99,-2.45l0,0l-0.97,-9.27l2.32,-2.2l-1.53,-2.92l-2.73,-1.01l0.32,-2.12l-0.56,1.69l-1.42,-1.01l0.82,-0.99l-2.2,1.5l-5.84,-3.93l-0.94,-3.6l4,-0.64l0.14,-0.86l-7.2,-0.84l4.96,-0.12l-0.41,-1.21l-3.92,-0.96l0.73,-0.72l4.25,0.92l3.9,-4.2l3.16,-1.71l3.06,0.7l0.59,2.54l1.53,1.56l3.69,0.12l1.08,-3.84l-2.51,-2.54l-1.11,0.82l-4.86,-0.59L528.46,403.37zM544.59,388.59l-0.92,2.13l-2.8,-1.31l0.57,-1.74L544.59,388.59zM529.54,410.57l1.59,0.08l-4.54,2.96l-1.6,2.22l-0.76,-0.62l2.24,-3.04L529.54,410.57z"/>
		<path id="IE-G" title="Galway" class="land" d="M134.04,471.8l1.5,0.16l0.58,1.74l-2.73,1.88l-3.24,-0.68l1.23,-2.92L134.04,471.8zM128.24,464.9l0.9,2.91l-1.69,2.62l-4.08,1.16l-0.14,-3.08l1.97,-2.98L128.24,464.9zM104.1,455.88l2.02,0.16l1.08,3.16l5.66,-2l2.06,1.67l3.45,0.29l-2.39,3.35l1.98,1.75l0.9,-0.54l-0.37,1.07l1.11,0.41l0.55,-0.68l-0.75,-0.35l1.76,-0.95l-0.75,4.05l-2.83,-0.52l-3.43,-3.02l-2.16,-0.06l-5.67,-3.28l-8.1,-2.66l2.36,-2.39L104.1,455.88zM197.47,446.84l-0.59,-0.6l1.98,0.62l-4.9,0.78l2.08,-1.67L197.47,446.84zM193.02,440.97l-2.18,1.61l1.71,0.68l-3.27,-1.07L193.02,440.97zM107.85,437.97l-1.5,0.14l-0.06,-0.74l1.07,-0.35L107.85,437.97zM110.05,436.5l0.84,0.49l-0.19,3.48l-1.42,-0.97l-2.86,0.86l0.09,-1.03l2.15,-0.45l-0.47,-2.24L110.05,436.5zM107.76,433.95l0.91,2.41l-0.98,-0.41L107.76,433.95zM107.1,434.42l-0.78,-0.14l0.4,-1.44L107.1,434.42zM111.78,430.35l1.25,0.86l-1.7,0.72l-0.76,-1.65l0.68,-0.7L111.78,430.35zM118.45,429.74l0.67,1.79l-1.53,-0.37l2.34,3.95l-0.64,5.06l-2.25,0.93l-1.77,-0.47l0.29,-0.62l-2.43,0.8l-1.95,-3.44l1.66,-1.65l-1.76,-0.27l-0.56,-1.91l4.72,-1.4l0.06,-1.93L118.45,429.74zM123.02,429.49l-0.68,1.73l-0.41,-1.6L123.02,429.49zM124.34,429.51l-0.86,-0.02l0.65,-0.97L124.34,429.51zM100.65,426.32l0.43,0.66l-2.09,1.77L100.65,426.32zM116.33,425.38l2.18,1.07l1.95,-0.9l0.82,1.44l-2.82,1.81l-3.57,-0.18l-0.48,1.69l-2.08,-1.13l-0.19,-0.68l1.73,0.6l0.49,-0.64l-2.5,-1.42l0.72,-1.32l2.33,-1.17L116.33,425.38zM121.03,424.14l0.82,0.39l-0.98,0.68l-0.23,-0.99l-1.82,-0.04l1.77,-1.73L121.03,424.14zM126.16,417.36l-0.2,1.52l-0.62,-1.52H126.16zM116.37,415.99l0.77,0.57l-1.31,0.27L116.37,415.99zM118.6,415.54l0.25,0.88l-1.48,0.29L118.6,415.54zM86.58,411.54l0.64,0.7l-1.04,1.05L86.58,411.54zM90.06,404.4l0.17,1.25l-0.97,0.7l2.02,1.52l-1.75,0.49l1.46,2.3l-0.79,0.92l-1.38,-0.9l0.58,-2.67l-0.91,-2.99l0.71,-1.46L90.06,404.4zM60.65,386.54l1.52,0.78l-2.59,0.14L60.65,386.54zM60.46,384.46l0.62,0.53l-1.66,0.76l0.1,-1.15L60.46,384.46zM60.42,381.43l0.22,0.74l-2.24,0.61l-0.52,-0.63l0.75,-0.55l-1.67,-1.25l2.33,-0.53L60.42,381.43zM44.97,364.04l2.45,2.51l-2.77,-0.37l-1.56,1.1L44.97,364.04zM55.34,360.8l1.85,0.69l-1.15,1.83l1.5,0.78l-2.09,2.26l-1.87,-0.43l0.44,-0.82l-3.2,0.24l-2.92,-2.04l1.35,-1.77l0.52,1.73l1.19,0.43l1.14,-2.12l1.8,0.9l0.03,-1.65L55.34,360.8zM216.35,354.36l2.29,2.02l2.34,-1.41l4.19,0.37l1.59,-1.53l0.71,1.1l6.93,-2.1l2.39,-2l-0.27,-1.71l1.07,-1.85l5.96,-0.94l1.2,-1.69l4.78,0.02l1.55,1.08l5.84,-0.51l3.1,2.62l-2.02,0.55l3.67,5.23l7.35,3.81l-0.49,2.42l-1.68,0.25l0,0l-1.6,0.79l0,0l-1.52,1.84l2.54,-0.2l0.99,1.9l-0.21,2.84l3.18,0.63l1.66,2.29l-0.03,1.82l3.71,-0.06l2.67,2.29l-0.26,0.84l-1.25,-0.78l-1.14,1.04l2.57,4.41l-0.84,1.49l1.78,1.37l-1.47,1.06l-0.35,1.78l2.09,2.76l-0.78,1.39l1.17,1.54l-1.76,1.58l5.62,5.16l-0.62,1.54l-2.29,1.21l0.72,3.67l1.99,0.16l1.67,3.24l-2.01,5.64l1.65,1.97l-0.14,1.4l2.06,0.97l1.57,-0.6l1.31,2.48l-0.68,5.28l1.92,3.78l2.68,0.41l1.2,1.58l1.34,-0.51l9.13,1.52l0,0l2.96,1.85l0.25,2.02l2.31,0.35l3.83,3.15l0.57,4.02l-2.47,4l-5.44,-0.23l-2.64,1.3l-2.63,4.41l0,0l-5.4,1.57l-3.69,4.7l-1.03,3.76l-5.56,8.78l-5.39,2.34l-1.56,7.3l-2.58,2.05l-1.88,4.72l0,0l-2.86,-0.37l-2.5,2.96l-0.92,-1.47l-3.6,-1.24l-1.68,-1.86l-1.87,2.96l-2.18,1.39l-3.83,-3.09l-2.3,0.99l-0.84,-4.85l-2,-1.12l-0.41,-1.95l-2.53,0.17l-0.83,-3.75l-7.72,1.3l-1.33,-1.2l-3.7,0.37l-3.63,2.59l-2.43,0.17l-2.68,4.51l-4.14,2.65l-0.85,3l-4.95,-1.18l-0.82,-1.66l-1.83,0.71l0.44,1.02l-1.07,1.72l-0.75,-1.72l-2.45,0.44l-1.59,-4.77l-0.27,-1.7l1.66,-1.37l-1.82,-3.97l0.65,-5.01l-3.22,-0.72l-2.4,-3.04l-8.06,-3.91l-2.23,-5.24l0.58,-1.59l2.1,-0.6l0,0l0.22,-1.65l1.75,0.97l-1.03,-2.21l-1.11,0.99l0.16,-1.26l-0.78,0.56l-3.3,-1.05l-0.64,-1.11l-3.37,1.49l-1.11,-1.18l0.85,-0.89l2.12,0.85l4.4,-1.22l3.78,0.31l2.63,-1.51l0.21,1.86l-2.76,1.07l4.46,0.93l-0.54,0.58l2.57,2.58l1.63,-0.89l-1.49,-0.19l-0.42,-3.59l-1.63,-1.47l0.71,-0.93l-0.91,-0.08l0.58,-1.81l0.99,0.37l-0.48,-1.57l1.74,-0.83l-2.88,0.99l2.78,-1.59l0.62,-1.57l1.73,-0.21l1.41,-2.02l-1.32,-0.37l-1.98,1.77l-2.47,0.58l-5.12,-0.17l2.52,1.42l-5.39,-2.14h4.86l-2.12,-0.82l1.74,-1.15l-2.93,0.58l0.72,-0.41l-0.57,-0.39l6.74,-2.59l-7.28,1.01l4.81,-1.26l0.35,-0.99l-3.23,-0.31l1.61,-1.79l4.49,-0.49l-1.12,-0.7l1.39,-1.97l-4.15,0.45l-0.69,0.95l0.76,0.53l-2.73,0.1l-0.07,-1.63l-2.75,0.72l-0.16,-0.72l-2.88,0.43l-0.02,-0.74l-1.33,1.71l-5.84,1.5l-0.88,1.3l0.19,-2.08l-2.24,0.58l0.68,0.93l0.91,-0.37l-0.33,0.58l-5.19,0.86l-6.36,0.12l-0.84,-0.76l-12.63,2.08l-3.45,-0.66l-4.55,1.67l-5.86,-0.1l-1.73,1.56l-2.51,-0.64l-0.45,0.89l-3.6,0.62l-3.65,-3.25l0.29,-1.15l1.08,0.23l-0.83,-0.74l0.22,-2.92l-1.13,2.08l-1.14,-2.39l3.37,-2.9l-1.64,-2.47l-1.52,0.99l1.66,0.93l-2.68,0.41l-1.08,1.52l1.1,1.97l-1.81,5.15l-0.51,-1.32l-2.34,1.73l-1.4,-1.19l-0.61,-2.37l1.14,-2.78l2.75,-2.86l-0.73,-1.67l0.9,-0.31l-0.4,-1.03l-1.19,0.27l-0.08,-3.47l-1.69,-1.27l0.42,-1.5l3.67,-0.58l1.68,2.32l-0.84,-2.24l1.7,-1.05l-0.71,-1.25l0.58,-1.03l0.25,4.37l1.59,1.99l0.36,-1.58l-0.69,0.54l-0.89,-1.75l1.87,-3.57l-2.85,-1.27l-0.69,0.94l-0.01,-1.87l-0.68,0.9l-1.56,-2.22l0.49,-1.79l2.33,-0.92l2.17,-0.45l0.97,0.98l-1.01,-1.64l-2.31,0.1l0.81,-2.01l2.22,0.29l-1.49,-0.9l2.23,-1.37l-3.78,1.52l-0.02,1.5l-1.12,0.18l1,0.27l-0.04,1.29l-1.4,-0.45l-1.48,0.88l-0.44,-1.27l-0.77,0.78l1.48,2.38l-0.82,3.59l-1.01,-0.16l1.83,0.8l0.33,1.74l-5.4,1.03l-2.66,-1.75l1.54,-0.7l1.19,0.66l2.2,-1.36l-2.46,-0.16l-0.25,-1.03l2.27,-1.75l-1.21,-2.13l1.68,-0.12l-0.55,-1.37l-2.27,1.78l1.7,-3.08l-2.66,0.25l1.03,-1.29l-1.84,-0.29l-0.51,0.68l1.22,-0.12l0.01,1.72l-1.05,2.42l-1.42,0.7l-2.01,-1.15l-0.16,0.68l1.87,0.6l-1.84,1.52l-2.02,-0.1l1.7,1.17l-2.65,4.81l-1.76,1.11l0.3,2.69l-4.81,1.29l-0.05,1.89l-0.49,-2.04l-0.84,0.54l-0.65,-1.29l-2.43,-0.54l-0.43,-2.65l-0.16,2.49l-1.03,-0.8l-0.88,1.42l-0.8,-0.92l-1.23,0.9l0.88,0.37l0.28,3.23l-1.12,-0.6l-0.04,-1.71l-2.74,-0.88l2.3,-1.85l2.33,0.49l-0.41,-2.42l-1.77,0.82l-0.16,-1.23l-1.57,-0.93l0.46,3.04l-0.77,0.49l-0.47,-0.78l-0.48,0.92l-0.62,-2.03l-1.27,0.74l-1.08,-1.03l0.82,-3h1.54l-0.22,-1.93l1.21,-0.82l-0.35,-0.9l-1.82,0.84l0.98,-1.31l-0.69,-1l6.11,-1.81l0.63,-1.05l1.74,1.46l1.44,-2.67l2.59,-1.19l-1,-0.68l-0.7,0.6l-0.02,-0.96l1.84,-1.76l-3.27,1.01L99,405.49l0.42,-0.98l2.33,-0.2l-0.17,-0.82l-2.95,0.02l-2.36,2.07l-0.63,2.42l-0.07,-1.56l-0.94,-0.25l-0.88,2.91l-1.73,-1.13l-0.5,-3.73l1.82,-1.03l1.4,0.68l-0.48,-0.9l1.45,0.12l-0.61,-0.88l0.66,-0.63l1.21,1.17l1.29,-0.92l-3.74,-1.45l-0.41,2.07l-2.94,1.27l-0.93,-1.17l0.73,-0.76l-1.11,0.2l-1.87,1.87l-0.31,5.27l-2.76,1.85l-1.35,-0.68l-1.06,1.23l1.29,0.92l-0.79,0.43l-2.03,-0.94l1.35,-1.17l-0.63,-0.9l-4.88,0.76l-2.4,-0.92l-0.78,-4.59l-2.89,-1.21l-1.81,-2.19l-0.9,3.5v-1.29l-1.53,-0.04l-0.71,1.04l-0.75,-0.9l-1,2.56l-3.46,-3.9l-3.49,2.6l-0.46,-1.19l3.57,-5.68l0.69,-0.02l-0.27,2.27l0.93,0.78l-0.44,-2.34l1.18,-3.34l4.28,1.31l1.2,2.5l0.7,-0.31l-1,-1.52l1.95,1.56l1.9,-3.91l2.53,-0.45l-3.52,-0.63l-1.03,-0.63l1.08,-0.06l-0.52,-0.55l-2.57,0.41l1.23,-1.19l-2.23,-1.31l1.35,-1.23l0.94,-0.33l7.21,4.38l-0.57,-1.78l-1.21,0.43l-1.4,-1.19l2.47,-1.62L71.93,390l-4.41,-2.09l-1.98,0.16l-2.19,-1.33l0.1,-0.63l1.68,0.68l-0.58,-0.86l-2.39,-0.47l-0.31,-1.04l3.86,0.59l-3.59,-1.76l3.24,0.25l4.06,1.92l-1.15,0.53l2.55,0.67l2.23,-0.49l-0.16,-1l-1.06,0.45l-9.45,-2.68L61,379.04l-3.74,0.61l-2.48,-0.9l1.15,-1.08l-0.23,-1.1l3.1,-1.31l1.29,1.72l0.33,-2.51l1.95,1.55l1.18,-0.63l3.97,1.69l-4.48,-3.94l0.09,-0.69l1.2,0.59l1.84,-0.73l0.94,0.86l2.26,-0.35l1.31,1.43l2.01,-0.92l3.69,0.98l0.37,0.94l-1.06,0.71l1.85,2.51l2.75,-0.24l-1.06,-0.71l1.13,-1.21l1.2,1.29l1.78,-0.39l-2.66,-1.59l-2.42,0.73l-0.03,-1.06l0.96,0.55l0.67,-1.12l1.5,0.55l-0.62,-1.18l1.75,-0.71l-7.1,-1.35l-2.51,-3.08l-0.49,-3.2l3.31,0.75l2.75,-0.86l3.59,2l5.53,0.43l1.61,-1.71l1.69,0.16l-1.19,-0.67l0.21,-0.92l2.95,-0.41l2.99,1.28l-3.66,-2.94l0.9,0.39l0.08,-0.86l0,0l10.93,5.83l9.09,-0.43l3.84,-2.47l2.18,2.33l4.56,-0.94l3.67,1.31l2.4,-2.53l1.62,5.77l3.52,0.69l4.01,3.27l7.06,-0.29l6.86,-1.69l1.64,1.78l-0.48,3.72l2.82,0.86l2.58,-3.29l0.07,1.98l1.68,0.49l1.43,5.7l4.9,3.23l-0.05,3.42l6,1.43l2.92,-2.11l2.71,1.04l2.2,-3.01l1.89,0.2l0.84,-4.21l6.72,-4.27l0.97,-2.45l-2.02,-5.72l4.55,-1.08l-1.21,-2.55l2.01,-1.22l0.75,1.14l1.54,-1.77l-0.75,-2.69l1.32,-1.35l0.29,-3.1l-0.73,-0.57l0.88,-1.77l1.61,-0.12l1.45,-1.45l4.98,3.79l0.14,-1.88l6.6,-0.16L216.35,354.36z"/>
		<path id="IE-KE" title="Kildare" class="land" d="M418.5,410.59L419.51,407.43L424.23,404.91L427.5,399.73L432.34,396.88L434.24,398.76L437.96,397.53L438.33,399.62L440.87,401.63L442.05,404.11L449.96,407.17L452.51,403.15L457.5,400.94L464.54,404.36L469.04,407.99L478.1,409.42L480.51,406L487.06,410.28L488.44,409.07L491.63,409.16L491.63,409.16L489.2,414.18L487.68,414.86L486.59,422.38L484.4,421.9L482.79,423.36L483.16,424.08L482,425.01L483.34,426.18L483.19,428.58L481.09,430.5L484.61,433.66L485.77,433.31L482.51,435.5L482.77,436.63L484.56,436.52L489.84,438.69L489.47,439.28L489.47,439.28L485.52,443.15L486.6,444.95L484.05,448.51L481.99,448L479.87,449.38L479.67,451.05L481.83,452.45L477.96,455.63L477.81,458.87L473.63,464.94L471.85,464.44L471.33,466.72L467.71,467.48L467.28,468.57L459.38,472.01L458.74,476.95L456.48,479.93L454.09,480.86L455.26,482.93L452.76,484.73L452.37,487.74L458.73,495.76L458.79,501.13L458.79,501.13L457.53,501.71L457.17,506.09L455.61,505.95L452.67,510.56L448.56,509.31L446.13,511.64L443.45,508.5L442.48,508.79L443.39,511.39L442.06,512.02L439.27,510.14L437.24,506.72L436.21,506.8L435.42,508.44L435.42,508.44L435.68,500.86L430.56,488.81L425.63,491.32L425.82,489.46L421.29,488.32L417.76,484.55L420.19,477.98L422.34,476.85L421.01,475.17L422.33,473.66L421.85,471.74L422.72,470.52L421.42,464.67L419.62,463.47L418.16,459.43L416.25,458.27L417.27,456L416.52,454L416.52,454L418.12,454.22L419.59,455.88L420.5,452.43L418.55,451.36L415.96,452.12L413.55,449.65L408.73,448.78L410.81,447.54L416.59,448.47L423.93,447.73L423.74,444.54L426.74,442.45L424.37,440.74L422.72,441.22L419.8,439.98L419.78,439.26L422.34,439.06L422.23,437.43L425.95,435.5L424.39,430.64L429.17,429.28L426.84,427.19L430.84,424.92L429.41,422.48L425.32,420.65L425.46,418.54L423.13,415.5L421.18,416.13L418.02,413.51z"/>
		<path id="IE-KK" title="Kilkenny" class="land" d="M349.46,526.77L352.18,525.18L356.37,525.08L356.48,521.67L360.62,517.92L362.97,521.5L365.67,522.5L365.72,521.27L366.64,521.17L367.98,523.41L369.89,522.96L372.43,525.99L375.68,525.39L378.07,522.5L381.4,523.95L382.59,519.61L384.5,517.42L385.98,517.86L386.17,520.65L387.4,520.48L387.71,517.32L390.19,511.45L392.05,510.37L397.87,513.91L399.77,510.87L399.53,508.23L402.64,508.44L405.78,505.29L408.74,507.4L409.55,509.5L410.83,508.71L411.78,509.88L411.67,513.89L414.13,518.25L416.98,518.52L417.67,519.98L419.49,520.63L421.03,524.95L421.03,524.95L417.82,528.01L418.21,531.56L416.27,533.56L417.66,535.95L415.71,537.54L418.73,537.56L420.23,540.65L422.18,541.63L423.7,539.87L427.56,543.55L428.73,547.32L430.78,548.54L429.72,550.64L430.2,553.42L429.36,555.43L430.62,556.91L430.01,557.94L431.62,560.8L434.04,561.56L437.68,565.89L437.96,569.19L432.95,573.78L435.72,575.69L435.13,580.89L437.67,585.5L435.77,587.04L437.87,587.71L437.87,587.71L436.65,591.59L437.87,594.43L436.58,595.9L434.17,594.87L432.73,595.56L434.96,597.35L435.06,599.17L432.33,603.72L432.21,605.86L429.8,605.93L429.01,607.33L429.67,614.75L426.36,619.74L428.48,623.62L428.48,623.62L425.83,624.42L423.56,627.14L417.74,628.05L416.46,625.56L413.07,624.95L409.7,622.95L404.46,628.96L402.67,629.7L400.18,626.15L397.25,625.03L394.84,619.38L393.26,618.25L392.78,615.8L390.59,613.17L384.9,610.77L384.9,610.77L381.9,606.58L383.41,595.46L380.26,593.38L378.66,590.16L373.75,586.01L378.96,578.87L377.67,577.47L375.6,578.75L375.78,577.3L374.77,576.57L375.17,565.47L372.23,562.48L372.62,558.19L367.4,551.17L365.46,546.43L366.06,545.09L363.95,542.02L357.22,538.6L354.93,536.04L354.93,536.04L352.52,536.2L352.52,536.2L352.22,534.03L350.11,531.85z"/>
		<path id="IE-KY" title="Kerry" class="land" d="M49.62,725.83l0.77,0.38l-1.16,1.54l-1.97,-0.09l0.51,-1.32L49.62,725.83zM102.81,707.84l-2.54,2.32l0.18,-1.39L102.81,707.84zM31.27,706.17l-1.75,1.54l1.28,-2.09L31.27,706.17zM37.76,688.94l1.68,0.85l1.21,-1.23l0.47,1.75l3.36,-0.47l-0.2,2.11l-7.5,4.71l-3.04,0.75l-1.32,-1.02l-4.21,2.32l2.23,-6.01l3.79,-0.53l3.03,-2.13l-0.19,-1.77L37.76,688.94zM43.23,687.69l1.33,0.32l-1.75,0.87l-1.52,-0.85l0.42,-0.92L43.23,687.69zM7.07,666.81l1.49,1.14l-2.47,-1.06L7.07,666.81zM18.03,655l1.17,1.21l-0.97,1.65l-7.22,4.39l1.36,-2.56l4.44,-2.77L18.03,655zM11.6,650.73l-0.64,1.69l-1.61,-0.19l2.1,-2.31L11.6,650.73zM152.21,566.56l0.91,1.15l0,0l0.4,1.22l1.84,-0.1l-1.21,1.46l0.69,1.09l-0.72,1.49l2.2,2.77l2.86,0.98l0.98,5.05l-2.17,0.44l-0.62,4.03l-2.31,0.11l1.68,5.6l2.59,1.89l-2.53,1.89l-1.47,3l4.02,4.02l-1.12,2.02l-3.11,1.33l-0.49,1.77l3.16,1.96l2.43,3.22l6.7,2.36l2.51,4.24l0,0l0.83,1.5l-0.56,1.64l-3.77,0.46l0.17,2.42l-3.02,1.94l-0.3,4.88l2.66,3.7l0.79,5.05l1.6,1.42l-0.7,5.41l1.41,3.73l-0.38,1.25l2.03,2.79l0.13,2.24l3.29,2.03l-0.99,1.8l-1.94,0.66l-1.49,3.9l1.37,5.07l3.23,-0.68l2.06,4.25l3.94,-0.3l0.96,1.98l-1.92,2.42l-2.25,-0.72l-4.33,0.62l-2.17,1.46l-5.04,1.13l-0.87,1.96l-4.9,2.57l0.27,4.04l1.88,1.98l-0.7,1.92l2.04,1.62l-3.18,3.17l0.02,1.36l-2.76,2.75l-0.55,2l-2.25,0.55l-1.33,1.49l-2.99,-0.24l-2.19,2l-3.62,0.11l-1.2,4.57l-1.82,1.19l-7.19,1.39l-2.15,-0.79l-1.6,0.71l-1.2,-0.58l-1.52,1.09l-4.88,-0.34l-4.2,4.31l-1.27,2.9l-6.6,1.63l-4.29,3.66l0.05,1.41l-3.55,3.51l-3.64,0.88l-1.38,-1.07l1.07,-4.28l-2.3,-1.09l1.17,-1.69l-2.53,-3.38l0,0l1.26,-1.22l-1.17,-1.41l1.21,-2.24l1.24,1.18l-1.31,1.11l3.97,-0.85l-1.14,1.43l2.46,-0.98l0.96,0.13l-1.35,1.26l2.78,-0.71l-0.93,-1.32l0.77,-0.26l-4.46,-1.35l-0.6,-1.09l5.68,-2.54l-0.22,-2.11l3.81,-2.05l1.48,-2.64l10.35,-2.01l2.32,-2.54l7.19,-2.98l1.77,-2.39l-4.58,2.54l-5.1,1.21l-2.65,-0.89l-10.34,4.43l-0.44,-0.79l-0.85,1.47l-9.16,3.95l-1.66,2.18l2.02,-1.92l-0.48,1.53l-2.57,1.49l-0.78,-0.3l0.22,-1.39l-2.19,0.45l-0.51,-0.73l-1.65,0.94l0.15,-2.03l-1.26,-2.09l0.37,4.78l-0.75,0.81l-4.79,0.55l-7.49,5.61l-2.74,-0.83l-0.89,1.05l-0.73,-0.49l-1.92,1.28l1.39,-0.23l-0.13,1.17l-5.05,0.77l-0.22,1.43l-2.39,0.64l-0.94,1.33l-1.21,-0.7l3.16,-4.13l-1.08,1.37l-2.52,-0.36l-0.75,-1.33l-1.49,0.83l-4.2,-2.8l-1.74,0.45l-1.01,-0.81l-0.04,-0.77l2.59,0.19l2.33,-1.18l1.08,-3.31l-0.73,-0.7l0.5,-3.54l-3.63,-3.65l-4.86,0.73l-2.95,3.94l-0.16,2.18l1.34,0.64l-2.94,0.83l-0.13,-1.05l-2.19,2.58l-4.07,2.18l-1.36,-2.76l2.31,-1.26l-0.64,-1.62l0.96,-1.68l-0.71,-0.51l0.36,-3.9l-7.24,0.45l1.61,-3.05l-0.85,-0.64l0.36,-1.77l-1.18,-0.92l0.85,-1.58l4.75,0.08l4.61,-2.34l1.82,0.4l2.52,-3.38l2.75,2.66l0.07,-2.21l-1.02,-0.57l0.63,-1.04l-3.09,-1.89l7.68,-5l1.15,0.79l2.39,-2.38l-3.52,0.81l-1.92,1.91l-3.15,0.77l-0.68,-0.96l-1.22,2.28l-1.18,-1.32l0.41,-0.98l-4.69,-0.25l0.34,-1.04l4.2,-2.17l1.88,0.94l0.78,-5.04l3.7,-0.93l1.46,1.49l1.02,-2.74l5.69,-2.55l2.31,-2.27l2.24,0.51l1.34,-0.78l0.77,0.81l3.94,-2.7l4.58,0.3l5.88,-3.16l0.2,-5.04l0.93,-1.61l1.14,-0.06l-1.34,1.25l0.67,2.33l-0.76,0.13l-0.61,2.92l4.63,-4.58l0.35,2.18l1.97,0.28l-2.36,-3.67l3.65,-5.02l0.47,-5.1l0.2,1.61l0.82,-0.38l-0.44,4.4l4.7,-1.42l0.8,0.87l-0.15,-1.57l1.41,-1.18l1.73,0.29l0.72,1.21l0.31,-2.48l3.28,0.66l-1.54,-1.61l0.64,-3.3l-0.9,-1.92l-1.49,2.09l-1.04,-1.5l-17.44,3.53l2.45,1.78l0.8,3.17l1.35,1l-0.7,1.14l-2.11,-1.23l-3.56,-5.95l-7.27,1.2l-5.16,2.75l-1.41,-0.59l-1.92,2.1l-1.89,0.53l-0.99,-0.13l0.82,-1.06l-2.04,-0.68l-4.18,2.82l-1.83,-2.84l-1.49,0.99l-3.14,-0.08l-2.68,-4.11l-1.68,-0.47l-0.1,0.89l-1.47,-0.11l-1.46,1.65l5.35,0.91l0.06,1.71l-3.07,0.64l-3.72,-0.72l-0.36,-1.36l-3.98,-1.82l-2.03,2.45l3.55,2.01l-4.5,0.15l-7.58,1.99l-0.77,-2.03l-2.26,-0.23l2.21,-2.42l-1.26,-1.88l0.57,-2.43l-1.46,-1l1.8,-0.8l0.02,-1.69l2.55,-2.03l-2.08,0.11l0.35,-1.14l-2.06,-0.3l7.49,-5.26l0.56,0.83l-1.33,3.89l3.32,0.42l1.8,1.9l0.68,-2.81l-1.44,-0.87l-0.07,-1.29l2.62,-2.91l-2.11,-1.2l1.05,-2.68l4.44,-0.57l3.09,-1.81l0.83,-2.32l2.82,-0.25l1.97,-2.7l2.82,-0.82l2.02,1.01l0.49,-2.02l3.56,-1.48l2.33,0.46l-0.76,4.6l1.56,0.48l-3.73,5.89l2.5,-1.44l2.41,0.61l0.65,-1.71l5.72,-0.97l5.81,-6.37l0.01,-2.49l-2.59,-2.61l2.6,-0.36l1.08,1.37l1.11,-2.19l1.08,1.24l-1.1,1.33l-0.77,6.58l2.47,3.14l5.23,3.55l3.67,-0.4l3.22,0.93l3.85,-1.24l2.99,-4.07l2.18,-0.59l0.88,0.25l-3.31,1.73l1.54,1.29l2.55,-0.1l2.64,-1.67l2.51,1.22l-0.18,-0.93l0.85,-0.19l0.61,0.87l-0.3,-1.37l1.52,-0.72l-4.25,-2.98l-4.32,0.59l-4.29,-1.65L92.76,624l0.09,-1.84l-1.71,-2.36l0.51,-0.97l0.92,-0.27l1.54,1.5l-1.31,1.67l0.3,1.27l1.53,-1.92l2.5,-0.46l1.04,-1.69l-4.16,0.61l-0.54,-0.84l1.75,-1.22l1.42,0.23l0.37,-1.14l1.41,0.5l0.35,-1.85l-1.19,-0.82l-1.52,3.06l-0.35,-0.55l1.76,-4.99l0.18,-8.48l-1,-1.3l-8.43,-1.11l-2.82,-1.47l-1.08,-1.47l0.51,-2.02l4.02,-2.17l5.44,1.22l4.18,-1.39l3.52,-2.33l3.04,-0.53l4.63,-5.06l4.71,-1.59l1.55,-5.75l-0.79,-2.01l1.07,-0.59l-0.89,-0.61l1.13,-0.27l0.37,-1.4l-1.19,-1.7l5.48,-5.04l1.75,-0.75l7.63,1.25l1.13,1.75l1.25,-1.75l2,-0.13l2.88,2.38l2.75,-0.25l1.63,-2.88h6.51l1,-1.63l2.76,0.85L152.21,566.56z"/>
		<path id="IE-LD" title="Longford" class="land" d="M321.11,321.37L321.59,324.31L324.9,323.58L324.72,325.08L326.56,325.97L325.78,326.83L326.8,327.58L327.66,322.73L328.53,322.77L330.38,326.36L332.31,324.63L336.04,325.3L338.14,319.22L337.56,315.59L339.7,315.51L340.79,312.93L341.99,313.68L342.87,313.03L345.13,308.9L347.48,307.73L347.46,305.28L349.96,304.83L352.42,300.68L355.68,301.96L356.75,301.53L356.75,301.53L360.2,306.29L360.79,308.62L361.08,307.65L362.9,308.03L363.71,310.26L363.06,313.18L361.4,312.75L360.04,318.49L364.65,317.9L366.76,316.05L372.42,317.98L373.76,324.84L372.63,326.09L374.24,328.16L379.87,330.6L380.5,333.3L380.5,333.3L383.36,334.06L384.19,335.68L383.2,341.39L381.12,341.54L379.74,343.51L377.79,341.56L374.62,342.57L374.21,345.26L372.89,345.38L370.42,348.39L367.97,346.85L368.5,348.6L366.53,348.55L365.81,351.12L366.39,353.09L364.66,353.22L363.8,354.34L361.72,354.01L361,356.48L361.94,358.84L358.46,356.78L356.71,356.86L356.28,358.35L361.08,360.47L362.54,365.3L359.63,364.9L357.57,365.81L357.8,368.63L354.7,369.79L353.96,372.43L350.86,375.94L350.71,380.86L349.2,381.68L345.63,380.13L343.92,382.21L341.58,382.07L339.98,380.7L334.9,380.08L332.44,378.74L330.58,379.51L327.88,377.69L321.11,378.78L318.03,382.23L315.04,383.01L315.04,383.01L313.66,377.57L307.24,366.24L307.28,359.51L308.93,356.31L313.18,352.08L313.08,348.11L315.7,345.87L317.21,345.83L317.82,340.56L321,341.29L321.19,338.93L324.67,336.58L325.69,332.49L322.21,329.87z"/>
		<path id="IE-LH" title="Louth" class="land" d="M474.9,280.03L476.15,277.91L479.95,278.78L482.98,277.43L485.28,278.4L486.76,276.46L489.32,275.86L488.45,274.81L489.01,273.54L491.45,274.58L493.24,277.43L496.64,276.46L499.6,277.04L500.34,275.51L502.42,274.69L502.39,266.48L505.13,266.4L505.69,270.11L507.15,270.69L509.94,267.17L511.22,267.03L513.5,269.02L513.5,269.02L516.24,273.62L521.73,277.29L523.56,280.84L527.32,283.42L529.53,282.11L529.96,285.36L532.8,288.75L528.49,292.88L525.52,293.38L515.77,291.32L507.38,286.19L503.75,286.63L502.4,282.82L501.51,283.18L502.87,286.29L499.58,286.33L499.56,287.24L504.27,287.5L505.21,289.52L502.54,292.21L502.45,296.27L500.55,298.7L501.41,299.99L501.03,304.49L502.02,308.54L506.35,313.22L509.26,313.07L517.02,316.46L515.4,318.91L514.56,326.76L516.23,328.49L519.47,329.32L517.22,331.23L516.11,335.52L515.01,341.84L516.06,343.83L516.06,343.83L513.12,342.15L507.38,344.5L507.06,346.68L504.68,347.09L496.24,343.24L493.89,344.4L494.12,345.16L490.74,345.5L488.31,342.17L492.14,337.23L491.64,335.48L489.98,334.46L484.5,335.01L481.81,332.75L480.69,332.84L480.51,329.18L477.29,327.92L477.1,324.07L474.94,321.06L475.66,319.46L474.43,316.6L471.63,313.07L467.96,312.24L463.71,308.31L463.71,308.31L465.03,306.31L466.4,306.92L469.25,305.58L470.85,303.15L467.97,300.88L469.26,299.49L467.48,297.79L469.11,298.46L467.94,296.09L470.24,296.25L469.88,294.25L471.53,293.99L472.65,292.45L476.34,294.8L478.69,294.43L479.29,293.46L478.59,292.61L479.9,291.1L479.24,289.34L480.51,288.05L479.28,285.04L477.18,283.16L477.77,282.27z"/>
		<path id="IE-LK" title="Limerick" class="land" d="M223.03,547.03L228.83,547.89L232.08,545.13L235.98,545L235.98,547.47L231.73,549.85L231.23,552.98L238.98,553.48L240.36,554.73L242.99,552.48L244.12,548.35L247.69,546.18L248.33,542.75L251.66,541.21L252.88,538.87L252.19,533.28L255.68,531.24L255.68,531.24L256.94,534.87L257.63,542.88L261.74,546.59L264.48,544.09L266.79,545.84L269.5,546.15L276.94,543.11L282.09,545.82L282.07,548.16L284.05,548.56L284.65,549.81L286.26,548.03L289.55,548.51L288.71,553.3L286.69,555.1L285.95,559.94L286.89,560.38L286.71,562.21L284,565.15L285.37,567.1L284.23,568.9L285.22,570.18L284.46,577.74L281.66,578.87L281.12,577.05L280.1,577.64L278.25,576.72L276.8,579.02L274.05,579.78L274.74,582.27L273.1,584.58L272.35,583.91L273.26,581.5L272.12,580.93L272.26,578.54L269.57,578.75L268.92,581.37L265.66,583.45L265.85,586.05L264.27,587.43L266.09,593.58L268.9,591.15L270.55,593.25L274.36,592.35L275.24,596.09L278,596.86L278.39,599.89L284.21,598.29L284.72,602.58L286.4,606.22L287.68,605.53L288.9,606.66L292.17,606.22L291.93,610.32L290.41,612.92L292.51,615.21L293.22,618.62L289.94,621.01L289.94,621.01L282.65,619.28L278.78,621.19L277.25,619.8L275.12,614.73L273.18,615.51L271.93,613.53L269.29,615.15L269.08,616.83L266.89,617.63L266.33,619.99L260.48,620.33L252.5,622.95L248.27,620.8L246.4,617.61L243.22,617.53L239.69,611.52L238.57,611.78L238.49,609.84L237.72,610.49L234.45,609.23L232.88,606.54L232.91,602.77L225.78,605.4L220.67,602.64L218.97,605.19L217.78,602.46L215.8,602.92L214.86,605.44L212.3,605.65L212.12,608.13L210.01,609.52L209.25,608.73L207.87,611.69L208.71,612.85L196.62,616.69L197.76,620.12L197.17,620.61L191,614.68L182.18,612.75L178.94,610.62L178.48,612.62L174.55,615.4L174.44,616.73L170.29,617.89L169.42,619.57L169.42,619.57L166.91,615.32L160.21,612.96L157.79,609.74L154.62,607.78L155.11,606.01L158.23,604.68L159.35,602.66L155.32,598.63L156.79,595.64L159.33,593.75L156.74,591.86L155.06,586.26L157.37,586.15L157.98,582.12L160.15,581.68L159.17,576.63L156.32,575.65L154.11,572.88L154.83,571.39L154.15,570.3L155.36,568.84L153.52,568.94L153.12,567.71L153.12,567.71L152.63,567.32L156.9,566.49L160.53,567.87L171.79,562.49L177.17,561.11L178.05,559.98L182.55,559.86L188.56,556.11L189.31,558.61L190.44,558.73L191.31,557.23L193.56,557.36L194.31,558.98L196.82,557.11L196.94,554.98L197.94,554.6L199.19,550.98L216.21,548.47L218.46,551.48L219.72,549.35L222.84,548.47L222.32,547.36z"/>
		<path id="IE-LM" title="Leitrim" class="land" d="M276.39,193.64l1.71,0.34l0,0l4.08,3.14l2.06,0.02l1.71,-2.34l5.14,1.72l0,0l3.9,2.62l-2.04,2.56l7.9,6.96l3.45,6.88l3.41,2.52l3.95,-0.24l-0.1,1.82l5.98,8.44l0,0l-6.24,11.04l-4.68,-0.62l-1.54,2.31l-0.37,1.23l2.69,4.64l-1.45,2.71l0.39,2.63l2.87,0.02l1.4,-1.11l2.15,2.27l4.49,0.54l5.48,4.75l1.78,2.27l-0.42,1.35l4.83,3.3l-0.85,1.17l3.28,3l1.28,-0.02l0.47,-1.91l1.9,-1.77l1.25,1.63l3.59,0.54l2.12,2.26l0.53,2.28l3.16,-0.4l2.92,4.5l2.88,1.11l0.41,2.74l1.26,-0.67l1.1,0.93l-1.32,1.86l0.41,1.31l2.94,1.45l0.57,-1.53l1.64,1.27l0.58,4.46l-0.83,2.02l1.97,2.12l-1.5,1.7l0.61,2.29l-2.54,3.78l0,0l-1.07,0.44l-3.25,-1.29l-2.46,4.15l-2.5,0.45l0.01,2.45l-2.34,1.17l-2.26,4.13l-0.88,0.65l-1.2,-0.75l-1.1,2.59l-2.13,0.08l0.58,3.63l-2.1,6.07l-3.73,-0.67l-1.94,1.73l-1.84,-3.59l-0.88,-0.04l-0.85,4.85l-1.03,-0.75l0.78,-0.87l-1.84,-0.89l0.19,-1.5l-3.31,0.73l-0.48,-2.94l0,0l-1.13,-2.41l-1.68,0.14l-2.51,-3.63l-1.75,0.35l0.02,-4.94l-1.66,-2.61l-0.13,-3.97l-1.44,0.55l-0.88,-2.61l-1.73,-0.34l-0.37,2.29l-3.83,2.65l-1.21,-2.59l-1.38,0.55l-0.86,-1.9l0.91,-2.37l-1,0.26l-2.5,-2.83l5.4,-6.91l-1.25,-0.65l-1.15,-8.16l1.17,-4.06l0.68,0.5l1.35,-1.13l1.57,-2.82l-0.96,-1.33l0.23,-5.02l-5.8,-1.07l-4.69,-3.12l-2.03,3.1l0,0l-2.08,-3.65l-0.7,0.38l-1.35,-1.95l-0.81,0.46l-1.32,-0.97l-0.94,-3.04l-3.07,-1.15l-0.93,1.33l-2.5,-0.04l-5.55,-4.23l1.27,-2.98L271,249.9l1.94,-2.85l-1.67,-17.85l-1.1,-2.23l-3.93,-1.62l-1.1,-7.95l3.79,-2.5l2.68,-9.68l-5.9,-1.58l0.29,1.88l-0.82,0.58l-2.31,0.26l-0.99,-1.36l2.16,-1.88l0.43,-2.54l4.02,-1.3l-1.45,-3.08l0,0L276.39,193.64z"/>
		<path id="IE-LS" title="Laois" class="land" d="M342.76,492.86L345.88,487.47L344.89,486.76L345.31,483.04L346.9,479.35L351.65,476.97L351.56,474.69L356.63,470.95L359.6,465.56L359.81,464.63L356.6,463.29L356.74,461.65L352.84,457.2L354.45,451.98L364.1,450.24L370.43,447.77L371.5,446.47L374.54,448.16L377.77,448.27L378.58,446.97L378.16,444.7L380.93,443.38L382.48,444.41L383.85,443.05L386.04,444.16L389.21,448.27L391.29,451.77L389.56,451.92L390.1,454.27L393.2,458.72L397.68,458.04L398.14,457.03L400.26,457.73L401.77,455.83L404.86,454.49L407.2,450.86L408.18,454.02L416.52,454L416.52,454L417.27,456L416.25,458.27L418.16,459.43L419.62,463.47L421.42,464.67L422.72,470.52L421.85,471.74L422.33,473.66L421.01,475.17L422.34,476.85L420.19,477.98L417.76,484.55L421.29,488.32L425.82,489.46L425.63,491.32L430.56,488.81L435.68,500.86L435.42,508.44L435.42,508.44L436.37,514.57L434.55,515.82L435.42,518.36L433.85,520.67L432.35,521.94L423.85,521.79L422.99,524.31L421.03,524.95L421.03,524.95L419.49,520.63L417.67,519.98L416.98,518.52L414.13,518.25L411.67,513.89L411.78,509.88L410.83,508.71L409.55,509.5L408.74,507.4L405.78,505.29L402.64,508.44L399.53,508.23L399.77,510.87L397.87,513.91L392.05,510.37L390.19,511.45L387.71,517.32L387.4,520.48L386.17,520.65L385.98,517.86L384.5,517.42L382.59,519.61L381.4,523.95L378.07,522.5L375.68,525.39L372.43,525.99L369.89,522.96L367.98,523.41L366.64,521.17L365.72,521.27L365.67,522.5L362.97,521.5L360.62,517.92L356.48,521.67L356.37,525.08L352.18,525.18L349.46,526.77L349.46,526.77L349.46,526.77L349.46,526.77L347.13,517.73L344.42,515.97L342.6,512.26L344.29,510.98L343.77,506.36L345.19,505.8L345.66,503.44L349.24,501.21L350.87,497.38L346.13,497.48L343.02,495.2z"/>
		<path id="IE-MH" title="Meath" class="land" d="M455.88,305.26L458.05,306.17L459.04,305.52L460.99,308.09L463.71,308.31L463.71,308.31L467.96,312.24L471.63,313.07L474.43,316.6L475.66,319.46L474.94,321.06L477.1,324.07L477.29,327.92L480.51,329.18L480.69,332.84L481.81,332.75L484.5,335.01L489.98,334.46L491.64,335.48L492.14,337.23L488.31,342.17L490.74,345.5L494.12,345.16L493.89,344.4L496.24,343.24L504.68,347.09L507.06,346.68L507.38,344.5L513.12,342.15L516.06,343.83L516.06,343.83L516.97,352.81L519.82,361.25L519.82,361.25L517.91,362.2L516.76,360.96L514.62,361.57L513,364.94L513.03,368.26L508.79,370.67L507.61,372.51L504.32,372.73L504.47,371.73L502.87,370.59L499.38,369.49L499.6,371.49L495.46,374.26L494.24,378.76L495.57,379.29L497.17,382.31L502.08,384.46L501.95,386.07L504.55,387.53L505.41,391.62L503.61,394.26L503.59,397.84L499.5,399.52L496.75,399.15L495.78,403.68L491.63,409.16L491.63,409.16L488.44,409.07L487.06,410.28L480.51,406L478.1,409.42L469.04,407.99L464.54,404.36L457.5,400.94L452.51,403.15L449.96,407.17L442.05,404.11L440.87,401.63L438.33,399.62L437.96,397.53L434.24,398.76L432.34,396.88L427.5,399.73L424.23,404.91L419.51,407.43L418.5,410.59L418.5,410.59L411.48,407.91L411.58,406.31L405.92,402.51L405.92,402.51L405.7,400.57L409.56,399.56L410.68,397.33L414.29,398.07L420.9,393.58L420.44,388.53L423.24,387.47L425.55,383.17L426.07,378.88L424.28,376.96L424.54,374.36L426.22,372.34L429.41,372.42L428.49,370.73L430.3,367.16L429.52,364.26L432.54,361.18L433.29,357.15L431.25,356.54L429.57,352.87L428.06,352.56L427.17,354.79L425.4,354.05L424.77,355.84L422.13,356.68L420.33,359.15L415.82,354.6L414.38,351.65L412.57,353.66L410.98,351.53L405.62,350.18L404.46,348.57L403.4,348.96L400.5,345.54L401.17,341.58L397.4,338.79L394.51,333.14L391.31,330.78L388.6,330.48L388.19,328.75L388.19,328.75L392.17,326.18L394.86,328.92L396.12,332.25L403.1,334.12L403.29,331.45L405.45,329.65L407.63,330.3L410.8,328.12L413.19,330.44L415.11,330.32L416.01,333.4L423.3,333.32L428.34,335.44L428.66,332.41L429.92,333.87L432.75,330.54L434.49,332.45L436.14,331.7L434.99,330.85L435.53,328.45L437.23,328.55L438.3,326.91L433.81,321.55L433.45,319.7L432.26,319.5L431.37,314.86L433.18,316.03L436.82,313.78L435.72,310.48L437.3,310.48L442.06,313.99L446.27,313.16L446.91,312.37L445.92,311.43L448.81,308.98L450.34,309.27L449.63,310.6L452.13,311.64L453.39,306.67L453.83,305.92L455.09,306.94z"/>
		<path id="IE-MN" title="Monaghan" class="land" d="M390.66,265.65L392.13,265.41L392.22,264.43L390.87,261.75L389.8,261.87L388.66,260.3L392.13,255.73L394.16,254.97L395.49,255.93L394.85,258.63L393.11,260.18L394.85,261.83L392.22,262.96L393.32,264.99L395.4,264.91L395.58,263.54L397.49,262.05L397.12,260.12L398.29,257.3L400.27,255.43L398.48,252.71L398.56,250.54L400.95,250.22L400.39,249.15L399.04,249.19L399.46,248.11L401.42,248.09L401.73,246.64L404.55,245.94L406.07,244.27L408.77,245.6L411.08,244.57L411.01,241.54L409.98,240.37L411.37,238.1L409.35,234.59L407.4,234.69L408.03,232.54L403.73,230.28L405.2,227.13L407.13,226.97L407.52,224.6L406.43,221.52L410.49,222.24L414.26,218.79L416.21,218.53L415.45,215.91L418.3,213.63L422.03,207.3L425.06,205.5L427.75,207.02L428.11,208.27L430.15,207.83L432.31,209.33L433.05,210.99L436.47,212.91L436.32,214.15L437.54,213.63L438.56,214.45L439.61,219.03L441.94,219.79L444.81,226.51L445.14,230.78L444.19,231.5L444.36,233.05L443.54,232.06L442.75,232.46L443.02,233.61L445.75,236.64L446.96,236.26L448.21,237.36L449.58,244.37L451.34,245.07L451.29,246.54L454.35,249.43L456.7,249.68L458.43,252.65L460.71,252.79L462.97,249.05L467.91,251.22L471.43,259.01L468.95,264.97L467.77,264.73L469.82,269.89L467.94,270.31L468.36,273.29L467.36,276.24L469.36,276.86L472.21,281.24L474.9,280.03L474.9,280.03L477.77,282.27L477.18,283.16L479.28,285.04L480.51,288.05L479.24,289.34L479.9,291.1L478.59,292.61L479.29,293.46L478.69,294.43L476.34,294.8L472.65,292.45L471.53,293.99L469.88,294.25L470.24,296.25L467.94,296.09L469.11,298.46L467.48,297.79L469.26,299.49L467.97,300.88L470.85,303.15L469.25,305.58L466.4,306.92L465.03,306.31L463.71,308.31L463.71,308.31L460.99,308.09L459.04,305.52L458.05,306.17L455.88,305.26L455.88,305.26L454.2,303.29L448.14,302.54L443.97,291.74L440.83,287.08L437.03,286.19L435.23,282.39L432.07,280.88L430.27,277.07L427.92,276.28L426.75,273.66L424.98,273.03L425.97,269.62L422.37,269L418.11,272.87L416.86,270.83L413.95,270.01L410.17,272.63L402.02,268.92L400.89,269.73L399.22,268.7L399.67,270.35L397.5,270.39L394.52,267.99L391.14,268.03z"/>
		<path id="IE-MO" title="Mayo" class="land" d="M67.85,345.42l0.73,0.53l-1.21,0.87l-0.07,1.73l-5.11,1.1l1.32,-3.97L67.85,345.42zM82.46,325.93l2.3,1.01l-0.75,1.66l-2.69,1.22L72,330.3l0.83,-2.94l5.84,-1.73l1.85,-2.8L82.46,325.93zM82.57,314.05l2.01,0.69l0.09,1.93l-2.5,-1.5L82.57,314.05zM93.58,289.91l1.63,2.49l-0.55,1.84l-1.56,0.55l0.57,-1.44l-0.99,-2.43l0.93,0.1l-0.42,-1.62L93.58,289.91zM90.83,288.84l-0.09,3.07l-0.36,-1.41l-2.46,1.09l-0.77,-2.04l4.18,-1.5L90.83,288.84zM82.51,284.67l3.97,4.99L83,290.71l0.97,1.66l-0.94,1.74l0.79,1.68l-0.84,2.55l-0.89,0.04l2.48,0.73l-1.17,-1.21l1.71,-1.4l-0.48,-0.93l2.82,0.85l-0.69,4.23l-1.5,0.87l-0.08,0.81l1.92,-0.08l-2.09,1.92l0.96,1.01l-2.81,1.13l1.67,0.38l0.63,2l-1.07,4.8l-2.05,0.04l-3.02,-2.61l-1.54,-1.72l1,-1.28l-2.42,-1.68l-0.41,-1.58l-2.11,1.15l-2.06,-0.47l0.37,-7.28l0.9,-1.01l-3.02,-2.79l-5.47,2.24l-1.31,-2.51l-3.18,1.5l-4.2,-0.77l0.12,1.76l-5.59,-3.58l-2.58,0.83l2.53,-1.43l3.24,0.28l2.59,-3.31l-0.09,-3.47l2.03,1.56l2.85,-0.26l1.7,2l3.65,-0.38l0.48,-1.8l4.23,-3.07l2.26,0.5l1.69,2.22l1.5,-0.99l3,0.65l1.55,-3.37L82.51,284.67zM53.93,266l-3.58,2.16l3.14,-3.67L53.93,266zM54.17,259.92l0.96,0.12l1.88,3.42l-1.73,-0.44l-1.13,1.31L54.17,259.92zM177.58,247.71l0.75,1.41l-0.98,-0.08l-1.54,-2.59l-4.29,-1.87l4.71,1.51L177.58,247.71zM78.05,228.17l1.97,0.86l-0.43,2.29l2.03,0.36l1.14,3.07l2.23,0.7l2.23,-1.14l0.46,2.11l1.05,0.44l2.45,-1.28l-0.45,2.75l-1.19,2.95l-2.47,1.1l1.18,1.1l-3.88,0.26l0.25,1.27l-1.57,-0.44l-2.13,-5.54l-0.98,0.06l2.45,5.36l-5.96,-0.26l1.24,1.99l-2.58,0.18l2.34,2.37l-0.68,4.08l-2.61,-2.07l-1.82,0.22l1.54,2.9l-0.65,1.73l-2.34,-0.48l-1.19,1.53l-2.24,0.56l0.2,1.11l3.98,1.83l-2.25,1.19l1.05,3.1l-2.13,-0.62l-0.99,2.4l3,0.99l0.66,2.02l-1.33,1.89l-2.26,0.44l-3.85,-1.81l-0.77,-2.34l1.26,-0.5l-0.42,-3.79l0.85,-2.96l1.79,-1.57l1.73,-5.01l-1.05,-4.18l1.7,-2.11l2.16,-0.14l0.93,-3.15l-6.28,-3.21l2.81,-0.04l0.9,1.65h1.46l-1.12,-2.23l-2.61,-0.68l1.63,-0.34l0.68,-2.79l-0.63,-1l3.88,-1.77l0.24,-1.28l2.36,0.48l0.7,-2.07l1.59,0.42l-0.56,-2.23L78.05,228.17zM103.15,221.04l0.77,-0.28l0.52,1.58l1.89,-0.66l2.18,2.3l2.06,-0.22l4.26,2.08l1.53,-0.74l1.34,1.48l2.37,-2.21l0.69,0.64l2.09,-0.9l2.13,1.08l4.2,-0.1l0.14,1.6l1.14,0.28l2.3,-1.24l-0.42,1.18l2.02,0.46l1.9,-0.82l0.28,-1.26l1.25,0.82l1.12,-0.5l3.2,2.13l0.56,-0.8l6.4,0.5l0.19,2.31l1.11,0.4l4.22,-4.93l0.09,-1.66l2.51,2.2l6.89,1.58l1.76,2.51l-0.61,5.04h1.05l0.01,-1.51h1.76l1.53,-1.75l1.04,2.43l-1.65,5.92l-4.29,2.45l-0.14,1.19l2.04,-1.53l0.83,0.72l1.97,-2.53l2.55,-0.38l-0.35,3.43l-1.05,0.78l0.61,-1.67l-1.95,1.57v2.57l6.84,2.47l-0.68,1.99l2.5,1.45l0.88,9.72l0.24,-5.41l0,0l4.75,3.82l4.47,-0.26l0.61,-2.27l2.21,0.38l0.69,-1.69l3.65,2.54l7.08,1.25l-1.19,0.99l0.35,1.05l3.13,2.9l-2.36,2.5l-2.66,0.66l0.52,2.22l-1.62,1.17l0.4,2.44l-5.11,3.21l-0.93,1.55l-0.14,4.97l4.99,-0.08l1.04,-1.33l2.9,4.3l2.16,-0.02l4.64,-2.56l-0.62,2.81l1.02,3.88l1.7,-0.12l1.46,3.05l6.49,1.94l1.92,-1.84l3.02,-0.59l1.73,-3.6l1.94,1.41l1.4,-0.57l1.12,-2.85l2.72,-1.39l-0.38,-3.53l3.93,-1.8l2.23,2.62l5.26,2.65l-1.19,8.31l1.24,3.09l0,0l-1.92,-0.67v1.23l-7.92,-4.45l-2.32,2.3l0.83,2.49l1.43,0.38l-1.32,0.61l-0.77,5.14l5.79,3.89l-0.55,1.96l1.62,1.26l-1.52,1.22l0.38,1.58l-1.35,0.47l-3.18,-1.91l-3.23,0.41l1.14,2.45l-0.37,2.09l-2.94,0.57l1.25,3.08l-1.27,1.24l0.72,1.64l-2.81,1.44l6.05,3.07l2.21,3.98l-1.53,1.3l0.12,2.97l-2.01,3.56l0.47,1.83l-2.25,0.29l0.21,2.1l-5.05,2.56l-0.38,1.79l-1.97,0.2l-1.84,-1.12l-2.88,5.4l0,0l-3.2,2.89l-6.6,0.16l-0.14,1.88l-4.98,-3.79l-1.45,1.45l-1.61,0.12l-0.88,1.77l0.73,0.57l-0.29,3.1l-1.32,1.35l0.75,2.69l-1.54,1.77l-0.75,-1.14l-2.01,1.22l1.21,2.55l-4.55,1.08l2.02,5.72l-0.97,2.45l-6.72,4.27l-0.84,4.21l-1.89,-0.2l-2.2,3.01l-2.71,-1.04l-2.92,2.11l-6,-1.43l0.05,-3.42l-4.9,-3.23l-1.43,-5.7l-1.68,-0.49l-0.07,-1.98l-2.58,3.29l-2.82,-0.86l0.48,-3.72l-1.64,-1.78l-6.86,1.69l-7.06,0.29l-4.01,-3.27l-3.52,-0.69l-1.62,-5.77l-2.4,2.53l-3.67,-1.31l-4.56,0.94l-2.18,-2.33l-3.84,2.47l-9.09,0.43l-10.93,-5.83l0,0l-0.73,-1.43l0.7,-0.73l-1.78,-1.37l1.29,-0.67l-4.11,-0.82l-0.34,-0.94l0.84,-3.97l-1.5,-3.85l2.9,-8.1l-0.49,-2.2l-1.1,-0.67l0.43,-1.99l9.66,-1.32l4.63,-2.3l1.28,0.06l0.63,1.36l3.11,0.28l9.1,-2.72l0.38,1.02l1.98,0.1l-0.05,-1.14l2.59,0.28l0.78,0.61l-1.21,0.79l4.71,-0.45l2.37,-3.07l2.25,-1.08l-2.8,-1.3l-0.79,0.37l1.04,0.75l-6.14,-1.62l-0.92,-0.93l1.88,-0.26l-2.17,-1.08l1.65,-0.28l-0.46,-4.06l4.09,-0.63l-2.3,-0.67l0.88,-0.51l4.42,-0.53l-2.55,-1.16l0.4,-0.69l-3.23,-0.06l2.31,-0.99l-0.65,-1.03l1.13,-0.59l-1.06,-0.24l3.36,-1.03l-2.72,-1.6l-1.66,1.03l0.89,-1.62l-2.48,1.9l-1.04,-1.26l-2.1,0.93l0.89,-1.42l-2.89,0.91l0.23,0.75l-1,-0.85l0.98,-0.91l-0.63,-0.61l-1.44,1.78l-1.29,-1.94l-4.81,0.97l-2.62,-1.21l-0.23,1.5l-3.86,-2.21l-0.72,0.55l0.83,1.03l-1.78,0.16l-2.08,3.26l-6.26,2.59l-4.34,0.71l-2.36,-1.6l-2.38,-0.14l0.2,-1.26l1.49,-0.12l-0.35,-1.13l0.96,-1.11l-0.68,-4.56l1.73,-0.93l1.71,-3.22l-2.26,-0.08l0.48,-1.98l0.58,0.57l0.56,-0.73l-0.16,-2.53l1.47,1.4l1.15,-1.4l5.25,-0.55l1.08,2.49l1.71,0.49l1.56,-0.91l-0.27,4.75l-1.39,-0.65l1.35,3.32l1.25,0.32l0.42,-7.35l-0.72,0.12l0.22,-2l-1.56,-3.66l-0.35,2.41L97.81,295l-1.26,1.19l-1.18,-0.89l0.43,-5.42l2.58,1.13l-3.22,-4.87l0.17,2.2l-3.06,-0.99l-0.33,-2.95l-1.53,-0.63l-1.31,-2.28l-0.19,-1.82l1.91,-1.31l-0.48,-3.83l-3.84,1.98l-2.38,-1.01l-2.67,0.85l0.56,-3.97l-2.61,-4.15l5.69,-1.45l1.19,-2.08l1.24,1.41v-1.11l2.77,0.52l-2.06,-1.29l-0.23,-1.77l-1.33,-0.52l-0.57,1.81l-3.14,-3.32l0.22,-2.11l3.24,1.31l0.8,-1.35l-2.48,-1.25l-2.65,-3.3l-2.13,-0.76l1.49,-0.44l2.02,2.11l2.2,-1.59l0.51,-2.45l1.28,1.55l0.06,-2.09l-3.43,-0.76l-0.39,0.84l-4,-3.76l-0.58,-1.91l7.47,2.23l6.1,-1.15l-0.28,-1.65l-1.83,-0.44l1.03,-0.9l4.33,2.11l-3.76,-4.4l1.32,-5.62l5.84,-2.23l1.54,0.96l0.37,-2.97l2.3,1.91l1.73,-0.14l-2.62,-2.49l-2.79,1.22l-3.04,-1.93l-0.65,1.02l0.1,-1.48l-2.02,0.02l0.95,-0.92l-0.62,-1.9l0.68,-1.2l2.13,-0.02l3.32,-3.35l1.77,0.42l0.5,-1.34L103.15,221.04z"/>
		<path id="IE-OY" title="Offaly" class="land" d="M405.92,402.51L411.58,406.31L411.48,407.91L418.5,410.59L418.5,410.59L418.02,413.51L421.18,416.13L423.13,415.5L425.46,418.54L425.32,420.65L429.41,422.48L430.84,424.92L426.84,427.19L429.17,429.28L424.39,430.64L425.95,435.5L422.23,437.43L422.34,439.06L419.78,439.26L419.8,439.98L422.72,441.22L424.37,440.74L426.74,442.45L423.74,444.54L423.93,447.73L416.59,448.47L410.81,447.54L408.73,448.78L413.55,449.65L415.96,452.12L418.55,451.36L420.5,452.43L419.59,455.88L418.12,454.22L416.52,454L416.52,454L408.18,454.02L407.2,450.86L404.86,454.49L401.77,455.83L400.26,457.73L398.14,457.03L397.68,458.04L393.2,458.72L390.1,454.27L389.56,451.92L391.29,451.77L389.21,448.27L386.04,444.16L383.85,443.05L382.48,444.41L380.93,443.38L378.16,444.7L378.58,446.97L377.77,448.27L374.54,448.16L371.5,446.47L370.43,447.77L364.1,450.24L354.45,451.98L352.84,457.2L356.74,461.65L356.6,463.29L359.81,464.63L359.6,465.56L356.63,470.95L351.56,474.69L351.65,476.97L346.9,479.35L345.31,483.04L344.89,486.76L345.88,487.47L342.76,492.86L342.76,492.86L342.76,492.86L342.76,492.86L342.76,492.86L342.76,492.86L337.69,490.35L336.02,490.51L334.42,488.61L331.61,489.81L331.71,491.24L329.41,493.4L327.25,493.04L326.83,495.24L329.28,497.31L326.72,499.58L327.71,500.82L323.68,502.81L324.87,504.39L323.28,505.39L320.95,504.75L321.58,507.24L319.74,508.59L318.63,506.43L316.17,505.35L317.69,507.69L317.93,510.42L315.68,512.31L315.22,514.05L313.04,512.62L311.93,510.6L313.12,508.07L306.92,506.24L306.04,503.91L306.83,501.53L305.33,498.7L306.41,496.4L310.02,498.39L312.06,498.23L314.37,494.56L310.68,486.64L312.39,485.17L317.34,485.71L315.85,482.5L316.85,478.27L316.04,476.43L318.99,475.77L320.81,464.55L314.01,458.7L301.92,452.49L301.92,452.49L304.55,448.08L307.18,446.78L312.62,447.01L315.09,443.01L314.52,438.99L310.7,435.83L308.39,435.49L308.14,433.46L305.18,431.61L305.18,431.61L306.24,428.69L307.87,427.33L308.54,422.29L311.79,422.05L313.45,419.36L317.61,418.56L318.74,415.46L320.54,414.06L320.54,414.06L329.3,418.21L332.53,415.35L333.17,416.42L335.53,415.99L338.14,417.18L343.99,414.84L345.71,413.47L344.7,413.07L345.35,410.72L346.75,410.41L347.25,408.38L350.56,406.51L350.95,405.22L351.77,405.98L355.28,403.66L357.32,404.75L357.6,406.94L360.95,407.86L360.41,409.51L362.06,412.03L362.22,416.38L365.85,421.49L366.95,421.76L365.94,420.53L366.56,417.61L370.46,418.35L370.31,420.77L373.09,420.34L375,422.85L378.48,419.58L381.55,420.53L385.13,418.6L388.24,414.08L390.02,413.49L395.85,407.09L402.51,405.79L403.56,403.09z"/>
		<path id="IE-RN" title="Roscommon" class="land" d="M292.53,267.31L294.56,264.21L299.25,267.33L305.05,268.4L304.82,273.43L305.77,274.75L304.2,277.57L302.84,278.7L302.17,278.21L301,282.27L302.16,290.43L303.4,291.08L298,297.99L300.5,300.82L301.5,300.56L300.59,302.93L301.46,304.83L302.83,304.28L304.05,306.86L307.87,304.22L308.25,301.92L309.97,302.26L310.85,304.87L312.28,304.31L312.41,308.29L314.07,310.89L314.04,315.83L315.79,315.47L318.3,319.1L319.98,318.97L321.11,321.37L321.11,321.37L322.21,329.87L325.69,332.49L324.67,336.58L321.19,338.93L321,341.29L317.82,340.56L317.21,345.83L315.7,345.87L313.08,348.11L313.18,352.08L308.93,356.31L307.28,359.51L307.24,366.24L313.66,377.57L315.04,383.01L315.04,383.01L316.63,390.58L315.38,397.25L316.55,400.65L315.08,402.74L318.17,404.56L320.34,408.25L322.02,412.71L320.54,414.06L320.54,414.06L318.74,415.46L317.61,418.56L313.45,419.36L311.79,422.05L308.54,422.29L307.87,427.33L306.24,428.69L305.18,431.61L305.18,431.61L296.04,430.09L294.7,430.6L293.5,429.02L290.82,428.62L288.89,424.84L289.57,419.56L288.26,417.08L286.69,417.69L284.62,416.71L284.76,415.31L283.12,413.34L285.13,407.7L283.46,404.46L281.46,404.3L280.74,400.63L283.02,399.42L283.64,397.88L278.02,392.72L279.78,391.13L278.62,389.59L279.4,388.2L277.31,385.44L277.66,383.66L279.13,382.6L277.34,381.23L278.18,379.74L275.62,375.33L276.76,374.3L278.01,375.08L278.27,374.24L275.59,371.94L271.88,372L271.92,370.18L270.26,367.89L267.08,367.26L267.29,364.41L266.3,362.51L263.75,362.71L265.27,360.86L265.27,360.86L266.87,360.08L266.87,360.08L268.55,359.82L269.04,357.41L261.69,353.6L258.01,348.37L260.03,347.82L256.93,345.2L251.09,345.71L249.53,344.63L244.75,344.61L243.55,346.3L237.59,347.25L236.52,349.1L236.78,350.81L234.39,352.81L227.46,354.91L226.75,353.81L225.17,355.34L220.98,354.97L218.63,356.39L216.35,354.36L216.35,354.36L219.23,348.96L221.07,350.08L223.04,349.88L223.43,348.09L228.48,345.54L228.27,343.43L230.52,343.14L230.05,341.31L232.06,337.75L231.94,334.77L233.47,333.47L231.27,329.5L225.21,326.42L228.02,324.98L227.3,323.35L228.57,322.1L227.32,319.03L230.26,318.45L230.64,316.36L229.49,313.91L232.72,313.5L235.91,315.41L237.26,314.94L236.88,313.36L238.39,312.14L236.77,310.87L237.32,308.92L231.53,305.03L232.3,299.89L233.62,299.27L232.19,298.9L231.36,296.41L233.68,294.11L241.6,298.56L241.6,297.34L243.53,298.01L243.53,298.01L248.9,297.41L250.96,300.24L251.09,303.45L255.74,304.79L256.93,306.09L258.95,306.03L259.1,304.08L260.62,303.21L272.23,303.52L270.78,299.06L267.96,299.02L262.28,296.19L267.07,295.02L266.44,291.28L264.78,289.72L268.72,287.95L271.46,289.1L274.8,288.03L276.94,280.33L278.66,281.4L280.89,278.42L283.61,281.24L283.71,277.75L286.24,275.9L285.95,272.59L290.85,271.48L293.28,268.7z"/>
		<path id="IE-SO" title="Sligo" class="land" d="M244.24,229.38l-1.02,2.23l-0.94,-0.02l0.1,-3.15L244.24,229.38zM258.99,196.51l1.2,2l6.86,-2.3l0,0l1.45,3.08l-4.02,1.3l-0.43,2.54l-2.16,1.88l0.99,1.36l2.31,-0.26l0.82,-0.58l-0.29,-1.88l5.9,1.58l-2.68,9.68l-3.79,2.5l1.1,7.95l3.93,1.62l1.1,2.23l1.67,17.85L271,249.9l3.56,1.55l-1.27,2.98l5.55,4.23l2.5,0.04l0.93,-1.33l3.07,1.15l0.94,3.04l1.32,0.97l0.81,-0.46l1.35,1.95l0.7,-0.38l2.08,3.65l0,0l0.75,1.39l-2.43,2.78l-4.9,1.11l0.29,3.31l-2.53,1.84l-0.1,3.49l-2.72,-2.81l-2.23,2.97l-1.73,-1.07l-2.13,7.71l-3.34,1.07l-2.74,-1.15l-3.94,1.76l1.66,1.56l0.63,3.74l-4.78,1.17l5.68,2.83l2.81,0.04l1.46,4.47l-11.62,-0.32l-1.52,0.87l-0.15,1.96l-2.02,0.06l-1.19,-1.3l-4.65,-1.34l-0.13,-3.2l-2.05,-2.83l-5.38,0.59l0,0l-1.24,-3.09l1.19,-8.31l-5.26,-2.65l-2.23,-2.62l-3.93,1.8l0.38,3.53l-2.72,1.39l-1.12,2.85l-1.4,0.57l-1.94,-1.41l-1.73,3.6l-3.02,0.59l-1.92,1.84l-6.49,-1.94l-1.46,-3.05l-1.7,0.12l-1.02,-3.88l0.62,-2.81l-4.64,2.56l-2.16,0.02l-2.9,-4.3l-1.04,1.33l-4.99,0.08l0.14,-4.97l0.93,-1.55l5.11,-3.21l-0.4,-2.44l1.62,-1.17l-0.52,-2.22l2.66,-0.66l2.36,-2.5l-3.13,-2.9l-0.35,-1.05l1.19,-0.99l-7.08,-1.25l-3.65,-2.54l-0.69,1.69l-2.21,-0.38l-0.61,2.27l-4.47,0.26l-4.75,-3.82l0,0l-0.19,-3.12l1.52,-0.58l-0.43,-3.08l2.11,-1.43l-3.03,-0.52l4.64,-1.71l-0.22,-2.11l4.9,-9.58l-0.64,-1.42l0.93,-2.79l14,0.3l2.83,1.54l2.09,2.61l3.24,1.99l1,-0.66l3.42,2.51l3.65,-1.61l3.73,-3.73l0.93,0.38l-0.11,1.79l3.14,1.06l4.96,-1.91l2.36,0.08l4.41,4.86l0.25,2.17l2.3,1.27l0.36,1.53l1.47,-0.02l0.89,3.05l1.05,-0.16l0.2,-1.73l7.75,-0.1l-0.88,-0.26l0.38,-0.8l-2.29,0.16l-0.21,-1.19l-1.12,1.39l-0.4,-1.59l-3.2,-0.8l0.02,-1.47l-3.62,-3.94l-2.52,1l2.08,-4.03l-0.55,-1.71l2.58,0.1l0.26,1.24l2.25,0.38l2.65,-1l3.06,0.66l1.59,-1.18l1.95,1.02l1.19,-0.9l-5.26,-3.95l-5.91,-0.68v-6.05l2.25,3.13l4.16,1.36l1.82,-1.02l-0.63,-1.62l0.79,-0.42l-3.74,-0.62l-1.24,0.8l-0.57,-0.9l1.13,-0.82l-6.22,-1.24l-3.02,1.72l-2.82,0.26l0.08,2.34l-1.82,-0.82l0.91,-2.3l-3.37,-2.34l1.15,-0.92l-1.34,-0.56l1.07,-1.62l3.36,-1.3l2.18,0.36l0.88,-2.18l5.47,-2.46l0.16,-3.64l1.4,0.9l2.27,-0.68l1.19,-1.24l-0.41,-0.98l2.52,-0.96l-2.88,3.3l-3.46,1l1.65,1.84l4.05,-3.74l1.85,-0.3l3.38,-4.7l-0.09,-2.04l-1.81,-1l2.27,-1.62l-0.35,-1.66l1.79,-0.7L258.99,196.51z"/>
		<path id="IE-TA" title="Tipperary" class="land" d="M337.69,490.35L336.02,490.51L334.42,488.61L331.61,489.81L331.71,491.24L329.41,493.4L327.25,493.04L326.83,495.24L329.28,497.31L326.72,499.58L327.71,500.82L323.68,502.81L324.87,504.39L323.28,505.39L320.95,504.75L321.58,507.24L319.74,508.59L318.63,506.43L316.17,505.35L317.69,507.69L317.93,510.42L315.68,512.31L315.22,514.05L313.04,512.62L311.93,510.6L313.12,508.07L306.92,506.24L306.04,503.91L306.83,501.53L305.33,498.7L306.41,496.4L310.02,498.39L312.06,498.23L314.37,494.56L310.68,486.64L312.39,485.17L317.34,485.71L315.85,482.5L316.85,478.27L316.04,476.43L318.99,475.77L320.81,464.55L314.01,458.7L301.92,452.49L301.92,452.49L296.52,454.06L292.84,458.76L291.81,462.52L286.24,471.3L280.86,473.64L279.29,480.94L276.71,482.99L274.84,487.7L274.84,487.7L275.51,489.17L278.21,489.91L278.52,490.97L272,501.15L265.95,500.8L264.33,501.51L262.7,508.98L258.54,514.03L260.15,524.56L255.68,531.24L255.68,531.24L256.94,534.87L257.63,542.88L261.74,546.59L264.48,544.09L266.79,545.84L269.5,546.15L276.94,543.11L282.09,545.82L282.07,548.16L284.05,548.56L284.65,549.81L286.26,548.03L289.55,548.51L288.71,553.3L286.69,555.1L285.95,559.94L286.89,560.38L286.71,562.21L284,565.15L285.37,567.1L284.23,568.9L285.22,570.18L284.46,577.74L281.66,578.87L281.12,577.05L280.1,577.64L278.25,576.72L276.8,579.02L274.05,579.78L274.74,582.27L273.1,584.58L272.35,583.91L273.26,581.5L272.12,580.93L272.26,578.54L269.57,578.75L268.92,581.37L265.66,583.45L265.85,586.05L264.27,587.43L266.09,593.58L268.9,591.15L270.55,593.25L274.36,592.35L275.24,596.09L278,596.86L278.39,599.89L284.21,598.29L284.72,602.58L286.4,606.22L287.68,605.53L288.9,606.66L292.17,606.22L291.93,610.32L290.41,612.92L292.51,615.21L293.22,618.62L289.94,621.01L289.94,621.01L290.76,623.47L292.37,623.26L291.66,625.22L292.92,629.84L299.48,632.06L299.32,636.66L299.32,636.66L308.86,636.05L311.43,637.19L312.83,635.99L312.72,629.95L314.45,630.88L314.74,629.91L317.96,629.32L321.51,632.76L330.9,633.2L333.36,635.99L334.91,634.22L340.97,634.85L340.1,627.56L338.82,624.48L336.6,623.13L335.19,619.02L336.45,610.7L340.64,610.89L343.91,609.38L345.48,610.79L351.02,607.57L358.7,606.77L378.74,610.03L381.91,612.47L384.9,610.77L384.9,610.77L381.9,606.58L383.41,595.46L380.26,593.38L378.66,590.16L373.75,586.01L378.96,578.87L377.67,577.47L375.6,578.75L375.78,577.3L374.77,576.57L375.17,565.47L372.23,562.48L372.62,558.19L367.4,551.17L365.46,546.43L366.06,545.09L363.95,542.02L357.22,538.6L354.93,536.04L354.93,536.04L352.52,536.2L352.52,536.2L352.22,534.03L350.11,531.85L349.46,526.77L349.46,526.77L347.13,517.73L344.42,515.97L342.6,512.26L344.29,510.98L343.77,506.36L345.19,505.8L345.66,503.44L349.24,501.21L350.87,497.38L346.13,497.48L343.02,495.2L342.76,492.86z"/>
		<path id="IE-WD" title="Waterford" class="land" d="M299.32,636.66L308.86,636.05L311.43,637.19L312.83,635.99L312.72,629.95L314.45,630.88L314.74,629.91L317.96,629.32L321.51,632.76L330.9,633.2L333.36,635.99L334.91,634.22L340.97,634.85L340.1,627.56L338.82,624.48L336.6,623.13L335.19,619.02L336.45,610.7L340.64,610.89L343.91,609.38L345.48,610.79L351.02,607.57L358.7,606.77L378.74,610.03L381.91,612.47L384.9,610.77L384.9,610.77L390.59,613.17L392.78,615.8L393.26,618.25L394.84,619.38L397.25,625.03L400.18,626.15L402.67,629.7L404.46,628.96L409.7,622.95L413.07,624.95L416.46,625.56L417.74,628.05L423.56,627.14L425.83,624.42L428.48,623.62L428.48,623.62L430.08,624.65L429.44,627.67L431.71,629.89L431.71,629.89L431.65,636.35L430.16,639.92L431.54,641.9L433.97,641.95L431.62,643.17L428.27,648.99L424.27,650.66L421.59,649.18L415.73,651.53L418.21,646.73L420.69,645.33L419.23,645.35L419.58,644.19L418.52,645.16L416.06,643.51L414.12,643.56L414.89,646.35L417.69,647.11L410.91,645.52L408.37,649.8L406.69,650.26L402.76,650.7L394.25,648.93L392.54,650.58L390.94,649.48L386.04,649.29L382.31,651.3L376.72,651.47L374.9,652.89L374.6,652.21L370.85,656.02L368.11,655.64L365.32,657.08L363.82,660.98L359.3,657.25L355.6,660.21L354.31,660L355,663.1L352.88,663.61L353.57,664.35L357.63,663.73L357.02,659.85L357.88,664.14L359.63,665.94L365.76,665.32L361.29,669.04L359.71,677.46L353.5,680.35L347.06,680.97L344.06,684.75L345.56,686.11L345.25,687.28L340.48,687.41L337.89,685.26L332.86,687.77L331.55,687.32L331.2,684.96L330.26,684.71L330.26,684.71L328.66,679.97L326.37,680.92L321.1,680.52L319.7,674.07L315.76,670.84L316.24,668.86L313.12,669.04L308.82,665.7L309.65,661.68L308,656L306.71,655.55L306.18,654.03L303.57,653.44L301.82,651.09L302.4,650.01L303.84,652.27L303.7,648.82L300.63,650.13L299.95,648.48L298.44,648.1L292.52,648.91L293.59,644.61L296.49,644L297.77,638.44L296.86,637.89z"/>
		<path id="IE-WH" title="Westmeath" class="land" d="M388.19,328.75L388.6,330.48L391.31,330.78L394.51,333.14L397.4,338.79L401.17,341.58L400.5,345.54L403.4,348.96L404.46,348.57L405.62,350.18L410.98,351.53L412.57,353.66L414.38,351.65L415.82,354.6L420.33,359.15L422.13,356.68L424.77,355.84L425.4,354.05L427.17,354.79L428.06,352.56L429.57,352.87L431.25,356.54L433.29,357.15L432.54,361.18L429.52,364.26L430.3,367.16L428.49,370.73L429.41,372.42L426.22,372.34L424.54,374.36L424.28,376.96L426.07,378.88L425.55,383.17L423.24,387.47L420.44,388.53L420.9,393.58L414.29,398.07L410.68,397.33L409.56,399.56L405.7,400.57L405.92,402.51L405.92,402.51L403.56,403.09L402.51,405.79L395.85,407.09L390.02,413.49L388.24,414.08L385.13,418.6L381.55,420.53L378.48,419.58L375,422.85L373.09,420.34L370.31,420.77L370.46,418.35L366.56,417.61L365.94,420.53L366.95,421.76L365.85,421.49L362.22,416.38L362.06,412.03L360.41,409.51L360.95,407.86L357.6,406.94L357.32,404.75L355.28,403.66L351.77,405.98L350.95,405.22L350.56,406.51L347.25,408.38L346.75,410.41L345.35,410.72L344.7,413.07L345.71,413.47L343.99,414.84L338.14,417.18L335.53,415.99L333.17,416.42L332.53,415.35L329.3,418.21L320.54,414.06L320.54,414.06L322.02,412.71L320.34,408.25L318.17,404.56L315.08,402.74L316.55,400.65L315.38,397.25L316.63,390.58L315.04,383.01L315.04,383.01L318.03,382.23L321.11,378.78L327.88,377.69L330.58,379.51L332.44,378.74L334.9,380.08L339.98,380.7L341.58,382.07L343.92,382.21L345.63,380.13L349.2,381.68L350.71,380.86L350.86,375.94L353.96,372.43L354.7,369.79L357.8,368.63L357.57,365.81L359.63,364.9L362.54,365.3L361.08,360.47L356.28,358.35L356.71,356.86L358.46,356.78L361.94,358.84L361,356.48L361.72,354.01L363.8,354.34L364.66,353.22L366.39,353.09L365.81,351.12L366.53,348.55L368.5,348.6L367.97,346.85L370.42,348.39L372.89,345.38L374.21,345.26L374.62,342.57L377.79,341.56L379.74,343.51L381.12,341.54L383.2,341.39L384.19,335.68L383.36,334.06L380.5,333.3L380.5,333.3z"/>
		<path id="IE-WX" title="Wexford" class="land" d="M473.25,540.19l1.74,0.52l0.76,1.61l1.96,-0.65l1.26,4.45l0.96,-0.79l4.18,0.02l2.57,-1.96l0.44,0.67l2.58,-4.32l4.67,-3.92l0.16,-3.88l1.8,-0.19l0.36,-4.1l1.81,-1.91l1.01,0.35l2.95,-1.81l2.72,1.02l0.89,-1.23l1.71,-0.13l2.79,2.77l4.74,-2.21l1.49,3.08l1.61,-0.23l0.73,1.15l0.91,-0.88l1.9,1.62l3.2,0.46l-0.82,2.27l0.93,1.02l-1.74,0.37l5.11,2.19l0,0l-2.13,3.9l-3.27,3.01l-3.83,8.5l-1.27,0.88l0.25,5.33l2.04,3.95l-0.12,2.82l1.8,5.23l-2.3,5.49l-2.08,1.76l-10.28,17.06l-3.5,4.01l-1.62,5.63l1.18,6.8l-2.51,0.48l0.44,-0.97l-1.35,-1.22l-5.95,-0.15l-3.16,2.88l1.83,2.65l0.06,3.79l3.8,1.62l0.72,2.26l0.9,-0.21l0.21,-2.82l1.22,-1.37l-0.35,4.79l2.18,5.4l1.42,0.76l2.89,-0.55l2.25,2.68l-3.33,5.19l-0.93,2.71l0.59,1.99l-1.82,2.92l-6.53,-2.47l-8.98,-0.99l-11.64,4.1l-1.66,-2.96l-4.32,-3.09l-7.24,-2.58l2.62,-0.06l6.38,2.54l-1.98,-1.18l-0.36,-2.58l-0.14,1.77l-6.47,-0.95l-9.31,2.56l-2.37,-2.53l1.17,-0.99l0.2,2.15l0.76,-0.36l0.44,-2.79l3.75,-3.69l-0.69,-2.83l-1.95,3.46l-3.1,-0.17l0.87,1.04l-2.73,2.24l-1.12,0.36l-0.89,-1.52l0.72,2.53l-3,2.85l3.58,-1.6l0.68,0.84l0.3,-0.82l0.99,0.38l-3.46,4.1l1.9,-0.13l-1.37,1.82l0.83,1.52l-2.23,0.02l-4.01,2.3l-2.59,2.84l-0.78,3.03l-2.31,1.55l-0.5,-1.63l3.96,-5.57v-2.58l-1.54,-3.25l0.96,-1.56l-2.17,-3.42l-1.74,-0.57l-1.84,-4.14l-2.01,0.13l0,0l-2.27,-2.22l0.64,-3.02l-1.6,-1.03l0,0l-2.12,-3.88l3.31,-4.99l-0.66,-7.43l0.79,-1.39l2.42,-0.08l0.12,-2.13l2.73,-4.56l-0.1,-1.81l-2.23,-1.79l1.45,-0.69l2.4,1.03l1.29,-1.47l-1.22,-2.84l1.22,-3.88l0,0l2.57,0.02l3.56,-2.81l3.64,-7.61l-0.44,-2.35l2.57,-2.33l1.19,-4.02l1.82,-0.25l1.08,-2.76l0.5,-8.22l4.48,-3.74l7.17,0.79l2.67,-4.6l-0.47,-1.07l-1.98,0.65l0.2,-2.92l1.24,-1.36l1.91,-0.29L473.25,540.19z"/>
		<path id="IE-WW" title="Wicklow" class="land" d="M489.47,439.28L490.79,440.75L492.06,439.88L495.81,440L497.91,443.92L501.38,442.99L501.25,447.42L505.79,450.16L508.42,446.99L508.66,441.86L509.61,441.16L516.61,445.5L520.26,443.92L520.53,442.68L523.51,442.1L525.82,445.26L528.88,446.1L532.87,443.65L532.87,443.65L535.86,447.75L536.47,454.12L540.29,462.25L541.03,471.2L539.41,478.46L539.54,485.87L540.49,487.82L542.74,489.81L544,489.79L544.92,491.55L543.23,493.93L542.45,498.85L540.55,500.74L540.35,504.04L538.29,506.92L537.56,510.46L538.26,512.04L533.35,515.17L528.87,523.06L527.99,526.81L528.09,530.28L529.01,531.18L527.93,534.06L528.63,535.54L528.63,535.54L523.52,533.35L525.26,532.99L524.32,531.97L525.14,529.7L521.94,529.24L520.04,527.62L519.13,528.51L518.4,527.35L516.79,527.58L515.29,524.5L510.56,526.72L507.77,523.95L506.05,524.08L505.17,525.31L502.45,524.29L499.5,526.1L498.48,525.75L496.68,527.66L496.31,531.76L494.52,531.95L494.35,535.83L489.69,539.75L487.11,544.07L486.67,543.4L484.1,545.36L479.92,545.34L478.97,546.13L477.71,541.67L475.75,542.33L474.99,540.71L473.25,540.19L473.25,540.19L468.67,533.64L469.67,532.18L468.48,529.45L465.72,526.93L463.65,528.22L462.18,527.45L463.29,522.29L467.08,519.5L466.66,517.42L467.69,516.51L471.92,519.11L473.09,521.73L474.47,521.37L476.17,522.48L478.25,522.71L479.46,521.08L479.01,520.35L481.02,519.33L483.81,519.56L483.3,510.66L485.54,510.17L485.62,507.92L482.56,505.93L480.8,508.65L478.71,507.53L476.52,507.94L475.83,504.52L470.55,503.29L469.47,504.6L467.73,502.44L464.84,503.31L461.8,500.65L458.79,501.13L458.79,501.13L458.73,495.76L452.37,487.74L452.76,484.73L455.26,482.93L454.09,480.86L456.48,479.93L458.74,476.95L459.38,472.01L467.28,468.57L467.71,467.48L471.33,466.72L471.85,464.44L473.63,464.94L477.81,458.87L477.96,455.63L481.83,452.45L479.67,451.05L479.87,449.38L481.99,448L484.05,448.51L486.6,444.95L485.52,443.15z"/>
	</g>
</svg>