<?xml version="1.0" encoding="utf-8"?>
<!-- (c) ammap.com | SVG map of Israel High -->
<svg xmlns="http://www.w3.org/2000/svg" xmlns:amcharts="http://amcharts.com/ammap" xmlns:xlink="http://www.w3.org/1999/xlink" version="1.1">
	<defs>
		<style type="text/css">
			.land
			{
				fill: #CCCCCC;
				fill-opacity: 1;
				stroke:white;
				stroke-opacity: 1;
				stroke-width:0.5;
			}
		</style>

		<amcharts:ammap projection="mercator" leftLongitude="34.228663" topLatitude="33.434207" rightLongitude="35.935383" bottomLatitude="29.496766"></amcharts:ammap>

		<!-- All areas are listed in the line below. You can use this list in your script. -->
		<!--{id:"IL-GH"},{id:"IL-Z"},{id:"IL-HA"},{id:"IL-M"},{id:"IL-TA"},{id:"IL-D"},{id:"IL-JM"},{id:"PS"}-->

	</defs>
	<g>
		<path id="IL-GH" title="Golan Heights" class="land" d="M290.34,111.58L287.22,117.03L284.69,122.59L281.89,125.59L277.66,133.18L272.28,139.43L272.12,138.75L271.03,138.13L267.27,139.68L265.48,139.9L264.62,140.63L263.95,142.15L263.25,144.92L259.32,145.46L256.84,147.97L254.1,149.91L252.39,150.43L251.16,151.23L246.89,151.53L244.83,152.86L244.83,152.86L244.74,151.58L244.25,151.04L240.95,149.55L239.7,148.66L239.75,148.26L243.02,144.94L244.95,140.9L245.48,137.32L245.79,129.9L247,125.29L247.33,122.21L246.86,118.96L246.11,117.02L243.87,112.63L242.35,111L241.63,109.76L240.34,110.32L239.55,109.88L239.19,109.01L239.24,107.95L240.24,105.74L240.59,103.99L241.35,93.51L241.06,88.78L239.07,85.04L239.01,84.08L241.84,81.25L243.62,77.85L244.43,76.91L246.28,76.35L246.78,76.93L246.84,71.61L247.31,67.13L249.88,60.27L250.52,57.78L250.53,56.4L249.7,52.83L249.39,50.1L249.51,45.63L250.35,42.42L251.83,39L251.67,38.47L250.68,37.89L248.51,37.6L247.48,37.73L245.22,38.94L243.93,39.27L242.65,38.96L241.21,37.61L241.21,37.61L241.86,35.98L242.67,34.92L247.67,32.57L252.94,29.41L254.72,27.7L257.28,23.61L258.71,22.31L259.78,21.89L264.11,22.26L266.73,21.81L270.19,20.37L273.39,17.76L274.4,16.38L274.94,14.76L275.74,9.53L277.22,7.17L279.84,5.26L289.33,0L290.22,0.69L290.46,2.16L289.84,4.78L288.04,7.76L284.61,11.67L283.14,15.49L282.61,19.2L283.44,27.53L283.18,28.93L281.2,32.31L282.48,33.85L285.02,36.02L286.14,37.58L286.71,38.57L287.87,42.74L288.09,45.15L287.75,46.78L287.1,48.45L285.56,50.13L285.01,51.23L285.34,53.45L286.77,53.96L289.13,54.21L290.44,54.82L294.08,60.08L293.67,65.45L290.91,67.89L290.59,68.74L290.98,69.86L292.93,72.07L293.13,72.95L292.88,73.45L291.96,74L290.02,74.23L286.59,73.32L285.86,73.91L285.45,74.98L286.32,78.56L285.81,85L286.71,87.93L288.19,101.54L291.19,105.7L291.78,107.13L291.79,108.26L291,110.44z"/>
		<path id="IL-Z" title="HaẔafon" class="land" d="M209.45,209.32L208.31,208.31L208.36,207.28L207.14,205.7L206.14,202.76L206.35,198.7L205.81,194.34L203.01,189.6L200.22,187.52L198.76,187.16L195.45,187.1L187.02,188.65L185.01,188.64L183.64,188.28L180.93,186.94L178.29,185L175.21,181.81L172.83,180.51L171.16,180.76L170.24,181.22L169.28,182.31L169.28,182.31L168.37,180.77L167.94,180.32L165.93,179.53L165.36,179.13L164.06,176.7L163.58,176.25L162.96,175.97L161.96,176.36L160.71,178.4L158.84,179.3L158.32,179.75L158.03,181.28L157.65,181.85L156.54,182.19L155.4,184.28L154.68,184.9L153.63,185.29L153.15,185.29L150.32,184.39L147.64,184.39L146.92,184.16L146.3,183.43L145.87,182.41L145.2,182.13L144.91,182.35L144.14,182.41L143.62,181.06L143.09,180.66L142.04,180.32L141.7,179.24L142.23,177.49L142.32,176.14L141.89,175.63L140.94,175.23L140.51,174.27L140.17,174.1L139.36,174.16L138.88,173.7L138.59,172.63L138.59,170.93L137.92,170.2L137.59,170.08L137.1,169.63L136.96,168.84L137.35,168.27L138.02,168.05L139.31,168.05L140.65,168.61L141.46,168.73L142.52,168.5L142.66,167.76L142.28,167.2L139.69,166.52L139.12,165.73L139.02,164.88L139.21,163.69L139.88,162.5L140.36,161.99L141.32,161.6L142.18,161.6L143.23,161.88L145.15,162.84L145.92,162.84L146.44,162.39L146.97,161.54L148.21,158.6L148.79,157.8L151.81,156.11L152.28,155.65L152.57,155.03L152.52,153.79L151.95,152.99L151.13,152.37L150.85,151.69L150.94,149.65L151.18,148.97L151.61,148.52L152.04,148.46L152.52,148.92L153.39,150.39L153.72,150.56L154.34,150.33L155.44,149.09L155.73,148.46L155.88,147.67L155.88,147.22L155.49,146.2L157.12,145.01L157.5,144.5L157.6,144.1L156.83,142.06L156.74,141.21L156.83,140.82L159.37,136.79L159.47,135.6L159.8,134.52L159.75,133.62L159.42,132.66L158.51,131.24L157.26,128.18L157.22,126.93L157.89,124.32L157.74,123.53L156.64,122.73L153.43,121.77L151.66,120.24L150.13,119.44L150.13,118.7L150.7,116.49L150.75,115.59L150.37,115.07L149.46,114.56L148.79,113.83L148.41,112.81L148.26,111.56L147.94,111.48L148.45,107.75L147.76,105.72L146.56,105.89L146.56,105.89L146.23,105.4L145.84,105.11L145.27,105.06L145.08,105.23L145.08,105.68L144.74,105.57L144.31,105.62L144.31,105.17L145.08,103.13L145.17,101.65L145.84,98.87L145.89,97.22L146.04,96.88L145.99,96.2L146.08,96.14L146.08,95.57L146.28,94.89L146.23,94.61L146.66,93.53L146.66,93.02L146.95,92.9L146.95,91.37L147.14,91.2L147.28,90.35L147.95,89.1L147.9,88.3L147.76,88.02L147.9,87.9L147.9,87.16L148.14,86.71L148.1,86.14L148.38,85.52L148.33,85.35L148.57,85.23L148.48,84.66L148.81,83.98L148.96,83.13L149.2,82.67L149.29,81.82L149.77,80.97L149.58,80.86L149.58,80.4L150.06,80L149.96,79.89L150.11,79.43L150.01,79.15L150.35,78.64L150.25,78.07L150.39,78.07L150.35,77.45L150.58,77.27L150.63,75.97L150.82,75.57L150.92,73.69L151.11,73.35L151.11,72.73L150.97,72.55L150.97,70.61L158.66,70.5L164.09,70.04L170.2,71.1L170.8,70.84L171.79,69.77L173.78,69.12L180.16,68.91L186.8,67.98L190.21,68.79L193.11,74.3L194.73,76.16L197.33,77.7L198.33,77.99L202.71,76.04L207.44,75.66L208.69,75L211.63,72.17L212.48,71.01L213.89,69.97L214.64,69.89L217.68,70.62L220.59,69.52L221,69.03L221.23,66.44L221.62,65.58L224.9,64.19L225.76,62.14L226.11,57.66L227.19,52.69L228.3,50.76L229.15,48.48L229.01,45.99L228.39,43.19L228.47,41.59L229.94,38.24L230.94,37.4L232.56,35.27L234.21,31.63L234.62,31.2L235.83,32.19L239.91,38.01L240.58,38.22L241.21,37.61L241.21,37.61L242.65,38.96L243.93,39.27L245.22,38.94L247.48,37.73L248.51,37.6L250.68,37.89L251.67,38.47L251.83,39L250.35,42.42L249.51,45.63L249.39,50.1L249.7,52.83L250.53,56.4L250.52,57.78L249.88,60.27L247.31,67.13L246.84,71.61L246.78,76.93L246.28,76.35L244.43,76.91L243.62,77.85L241.84,81.25L239.01,84.08L239.07,85.04L241.06,88.78L241.35,93.51L240.59,103.99L240.24,105.74L239.24,107.95L239.19,109.01L239.55,109.88L240.34,110.32L241.63,109.76L242.35,111L243.87,112.63L246.11,117.02L246.86,118.96L247.33,122.21L247,125.29L245.79,129.9L245.48,137.32L244.95,140.9L243.02,144.94L239.75,148.26L239.7,148.66L240.95,149.55L244.25,151.04L244.74,151.58L244.83,152.86L244.83,152.86L239.97,154.98L238.85,156.26L239.17,159.13L237.22,159.9L237.3,161.14L236.88,161.63L235.36,162.06L232.87,163.95L232.64,166.04L233.18,166.67L232.93,169.7L233.32,170.64L234.6,171.34L234.94,172.61L234.12,174.51L234,176.42L235.77,180.09L235.6,180.51L233.88,180.49L233.57,182.41L232.78,182.39L231.78,181.73L231.41,181.93L231.52,183.14L232.68,185.02L232.3,185.66L230.56,186.03L229.64,187.32L230.46,187.94L231.57,187.91L232.67,190.42L233.96,190.94L234.29,191.49L234.08,192.53L231.95,196.36L231.8,197.39L232.07,198.31L233.5,199.01L233.85,199.69L233.42,200.69L232.58,200.72L232,201.25L232.42,203.94L230.4,204.57L230.9,209.17L230.6,209.92L229.31,210.3L229.13,210.63L230.78,213.41L229.37,213.27L225.37,212.12L220.29,209.75L218.13,209.09L214.21,208.92L211.63,209.67z"/>
		<path id="IL-HA" title="H̱efa" class="land" d="M109.79,209.33L109.69,209.16L109.89,208.7L110.22,208.54L110.36,208.08L110.36,207.97L109.89,207.97L110.17,207.58L110.17,207.29L110.41,206.84L110.8,206.67L110.75,206.5L110.84,206.45L111.56,202.95L111.66,201.31L112.18,199.73L112.47,198.2L112.09,197.19L109.98,197.19L109.98,196.9L111.85,196.85L111.99,196.73L112.09,196.28L112.28,196.45L112.33,196.85L112.9,196.85L112.95,196.73L112.62,196.73L112.47,196.57L112.47,196.34L112.66,196.28L112.76,195.89L112.76,195.66L112.57,195.6L112.57,195.44L112.76,195.38L112.81,195.55L112.95,195.55L113.19,195.38L113.09,195.21L113.14,194.59L113.67,193.68L113.57,193.4L113.29,193.51L113.24,192.72L113.43,192.61L113.43,192.16L113.62,191.82L113.52,191.59L113.86,191.2L113.86,190.8L113.67,190.63L113.76,189.96L114.15,189.67L114.2,188.88L114.67,188.26L114.2,188.2L114.15,187.92L114.39,187.92L114.67,187.3L115.06,185.6L115.25,185.32L115.3,184.59L115.54,184.13L115.49,183.4L115.2,183.34L115.06,183.17L115.06,182.61L115.3,181.87L115.68,181.48L116.02,181.53L116.3,180.97L116.25,180.74L115.92,180.69L115.92,180.35L115.68,180.18L116.25,179.1L116.11,178.82L116.16,178.37L116.45,178.03L116.83,176.62L117.02,176.73L117.12,176.5L117.02,176.11L117.4,175.37L117.31,174.92L116.97,174.58L116.97,174.24L117.31,173.9L117.45,173.11L117.26,173L117.26,172.71L117.55,171.87L117.83,171.47L117.69,171.24L117.83,170.85L117.79,169.89L117.98,169.49L117.98,168.98L117.83,168.87L118.03,168.3L118.22,166.49L118.46,166.43L118.7,165.87L118.79,164.23L119.08,162.98L119.41,162.42L119.13,162.25L119.37,161L119.32,160.1L119.75,159.7L119.8,159.47L119.85,157.66L120.13,155.79L120.08,154.1L120.28,153.7L120.28,153.53L120.08,153.36L120.08,153.08L120.18,152.96L120.13,152.57L120.42,152.34L120.37,152L120.13,151.83L120.13,151.38L120.42,150.53L120.42,150.08L120.95,149.45L120.95,149.17L121.33,148.77L122,148.83L122.48,148.21L122.81,147.47L123.01,146.62L122.86,146.11L123.2,145.71L123.39,143.62L123.77,142.71L124.11,138.75L124.3,138.01L124.3,136.25L124.39,135.46L124.59,135.01L124.82,132.12L124.63,131.21L124.87,131.21L124.92,131.1L125.06,129.74L125.02,129.05L124.78,128.6L124.92,128.6L125.02,128.43L125.16,128.6L125.3,128.54L125.3,128.37L125.16,128.32L125.3,127.86L125.11,127.69L124.97,127.18L124.97,125.37L125.21,125.09L125.02,124.75L125.3,124.41L125.73,124.52L126.79,123.5L127.31,123.38L127.94,123.44L128.8,122.99L128.99,122.65L129.13,122.53L129.28,122.59L129.42,122.36L129.85,122.36L130.48,122.65L130.91,123.44L131.34,123.44L131.58,123.67L132.44,124.01L132.96,124.06L132.96,124.23L133.2,124.52L134.5,124.58L135.74,124.23L135.74,124.41L135.17,124.63L135.07,124.52L134.69,124.8L134.5,124.8L133.3,124.69L132.58,124.46L131.72,123.84L131.34,123.95L131.58,124.01L131.67,124.23L131.86,124.29L131.82,124.52L132.82,125.03L132.96,125.31L133.16,125.37L133.44,125.71L133.54,126.11L133.73,125.99L133.73,125.43L133.92,125.43L134.02,125.94L134.26,125.94L134.35,125.6L134.11,125.37L134.11,125.14L134.16,125.03L134.45,125.09L134.83,125.65L134.98,126.73L135.31,126.84L135.5,127.3L136.12,127.3L136.36,127.13L136.89,127.07L136.75,126.67L136.94,126.62L137.7,127.13L137.85,128.03L138.81,127.75L138.85,127.58L138.71,127.35L138.23,127.3L138.14,126.73L137.75,126.79L137.47,126.62L138.23,126.39L139.76,125.37L140.1,125.31L140.29,124.92L140.58,124.86L140.58,124.63L140.91,124.46L140.91,124.18L141.15,123.95L141.44,123.33L142.11,122.7L143.12,121.23L144.84,117.2L145.13,117.09L145.03,116.69L145.46,115.27L145.65,115.16L145.6,114.93L145.99,113.85L146.23,113.68L146.13,113.46L146.61,111.81L146.56,111.58L146.99,109.37L147.04,106.87L146.56,105.89L146.56,105.89L147.76,105.72L148.45,107.75L147.94,111.48L148.26,111.56L148.41,112.81L148.79,113.83L149.46,114.56L150.37,115.07L150.75,115.59L150.7,116.49L150.13,118.7L150.13,119.44L151.66,120.24L153.43,121.77L156.64,122.73L157.74,123.53L157.89,124.32L157.22,126.93L157.26,128.18L158.51,131.24L159.42,132.66L159.75,133.62L159.8,134.52L159.47,135.6L159.37,136.79L156.83,140.82L156.74,141.21L156.83,142.06L157.6,144.1L157.5,144.5L157.12,145.01L155.49,146.2L155.88,147.22L155.88,147.67L155.73,148.46L155.44,149.09L154.34,150.33L153.72,150.56L153.39,150.39L152.52,148.92L152.04,148.46L151.61,148.52L151.18,148.97L150.94,149.65L150.85,151.69L151.13,152.37L151.95,152.99L152.52,153.79L152.57,155.03L152.28,155.65L151.81,156.11L148.79,157.8L148.21,158.6L146.97,161.54L146.44,162.39L145.92,162.84L145.15,162.84L143.23,161.88L142.18,161.6L141.32,161.6L140.36,161.99L139.88,162.5L139.21,163.69L139.02,164.88L139.12,165.73L139.69,166.52L142.28,167.2L142.66,167.76L142.52,168.5L141.46,168.73L140.65,168.61L139.31,168.05L138.02,168.05L137.35,168.27L136.96,168.84L137.1,169.63L137.59,170.08L137.92,170.2L138.59,170.93L138.59,172.63L138.88,173.7L139.36,174.16L140.17,174.1L140.51,174.27L140.94,175.23L141.89,175.63L142.32,176.14L142.23,177.49L141.7,179.24L142.04,180.32L143.09,180.66L143.62,181.06L144.14,182.41L144.91,182.35L145.2,182.13L145.87,182.41L146.3,183.43L146.92,184.16L147.64,184.39L150.32,184.39L153.15,185.29L153.63,185.29L154.68,184.9L155.4,184.28L156.54,182.19L157.65,181.85L158.03,181.28L158.32,179.75L158.84,179.3L160.71,178.4L161.96,176.36L162.96,175.97L163.58,176.25L164.06,176.7L165.36,179.13L165.93,179.53L167.94,180.32L168.37,180.77L169.28,182.31L169.28,182.31L167.08,184.8L166.48,186.04L164.41,188.04L161.02,190.51L156.72,192.7L149.79,195.32L148.48,196.31L146.88,199.31L146.12,202.14L145.31,207.35L143.81,211.51L143.46,214.04L143.46,214.04L142.67,213.99L137.87,215.51L136.63,215.51L135.86,215.34L134.66,213.76L133.47,213.08L132.84,211.84L131.98,210.88L131.41,210.48L130.69,210.26L126.57,210.26L123.94,209.64L121.31,209.47L119.63,209.69L117.57,210.48L116.33,210.54L115.56,210.37L113.6,209.52L112.02,209.24z"/>
		<path id="IL-M" title="HaMerkaz" class="land" d="M76.13,317.74L77.71,313.79L77.9,312.94L78.43,311.82L78.43,311.6L78.62,311.37L78.86,310.14L79.15,309.58L79.19,308.9L79.39,308.85L79.43,308.62L79.58,308.57L79.58,308.17L79.67,308L79.82,308L79.82,307.72L79.91,307.72L80.3,307.05L80.54,306.94L80.58,306.6L82.02,304.47L83.26,301.43L84.46,298.29L86.57,291.01L86.57,291.01L87.98,291.24L88.79,291.86L89.94,292.08L93.01,292.03L94.49,292.87L95.69,293.04L98.37,292.87L99.81,292.47L101,291.35L103.3,288.54L104.45,287.87L105.31,287.87L106.27,288.26L107.13,289.72L107.8,290L108.76,289.61L108.95,289.27L109.48,288.94L110.63,288.65L112.3,288.82L112.97,288.15L113.02,287.25L112.78,286.58L112.06,285.84L110.15,285L109.24,279.49L109,278.82L108.33,278.09L106.65,276.96L106.08,276.17L105.94,275.39L106.08,274.26L106.32,273.59L106.37,271.84L106.61,270.27L108.09,268.47L109.24,266.39L109.77,265.09L109.81,263.35L109.33,262L109.67,260.93L109.77,258.28L109.48,257.61L107.99,256.82L107.47,255.92L106.56,255.47L105.27,254.34L103.92,253.83L100.24,253.38L98.97,253.34L98.97,253.34L99.26,252.57L99.26,252.29L99.11,252.12L99.16,251.83L99.69,250.6L99.93,250.37L99.88,249.92L100.31,249.13L100.36,248.46L100.88,247.67L100.98,246.88L101.22,246.32L101.12,245.75L101.51,245.36L101.51,244.46L101.84,242.99L102.13,242.54L102.61,241.24L102.56,240.57L102.75,240.29L102.99,239.5L102.94,239.33L103.48,237.92L103.52,237.08L103.37,237.08L103.37,236.91L103.71,236.34L103.81,235.05L104.33,234.03L104.43,233.47L104.86,232.51L104.81,231.83L105,231.95L105.15,231.89L105.05,230.93L105.24,229.92L105.43,229.75L105.39,229.35L106.1,226.14L106.1,225.91L105.86,225.74L105.82,225.46L106.44,225.12L106.49,224.95L106.82,223.04L107.01,222.53L107.01,221.85L107.3,221.29L108.11,217.56L108.11,216.89L108.35,215.65L108.07,215.65L108.07,215.53L108.59,215.03L108.74,214.69L108.83,213.9L108.74,213.22L109.02,212.09L108.69,211.87L108.93,211.36L109.12,211.24L109.5,210.23L109.65,210.17L109.79,209.33L109.79,209.33L112.02,209.24L113.6,209.52L115.56,210.37L116.33,210.54L117.57,210.48L119.63,209.69L121.31,209.47L123.94,209.64L126.57,210.26L130.69,210.26L131.41,210.48L131.98,210.88L132.84,211.84L133.47,213.08L134.66,213.76L135.86,215.34L136.63,215.51L137.87,215.51L142.67,213.99L143.46,214.04L143.46,214.04L143.1,216.66L141.9,217.83L137.42,219.84L136.27,221.29L134.44,224.73L134.25,230.2L135.06,236.01L134.49,237.51L133.03,238.55L130.66,241.98L127.55,249.03L127.25,251.4L127.33,253.75L129.68,257.27L130.61,259.22L131.92,265L132.13,267.6L131.58,269.72L130.18,272.37L129.98,273.98L130.52,275.33L132.32,277.25L134.3,281.02L134.87,283.35L134.47,286.34L133.09,289.35L133.13,290.71L133.46,291.8L132.7,292.42L133.45,294.42L131.09,299.46L131.51,304.04L134.15,307.6L138.09,310.74L138.92,313.98L137.4,318.7L128.79,320.24L128.64,320.47L128.64,320.47L124.21,320.28L121.54,319.95L119.99,320.12L118.72,321.11L117.17,325.57L115.34,326.72L109.84,327.88L107.02,328.87L103.5,332.33L102.74,334.29L102.74,334.29L102.35,334.29L101.82,334.68L100.72,335.91L98.99,338.32L98.08,339.28L97.56,339.67L96.45,339.95L95.88,339.56L94.92,338.21L93.68,334.34L93.25,333.39L92.48,332.27L91.52,331.43L88.56,329.75L88.17,329.69L87.07,330.92L86.54,331.32L85.83,331.43L84.2,331.2L83.38,331.37L83.53,331.93L84.87,332.49L85.2,333.56L86.16,334.46L86.21,334.9L85.78,335.41L85.35,335.46L84.25,335.18L83.91,335.3L83.86,336.59L83.38,337.09L81.8,337.37L81.37,337.31L80.32,336.47L79.27,336.19L77.35,336.08L76.54,335.46L76.3,334.79L76.3,334.29L76.68,333.73L77.49,333.17L78.79,332.61L79.27,332.16L79.6,331.54L79.46,330.75L78.84,329.97L77.06,329.02L76.63,328.01L76.63,327.22L77.11,326.32L77.73,325.99L78.16,325.93L79.89,326.55L80.65,326.66L81.56,326.61L82.04,326.21L82,324.03L82.43,322.62L82.09,321.11L82.19,320.72L83.53,319.31L83.67,318.58L83.34,318.02L82.71,317.69L81.04,318.3L79.84,318.19L78.79,316.9L77.93,317.01L77.45,317.46L76.78,317.74z"/>
		<path id="IL-TA" title="Tel-Aviv" class="land" d="M86.57,291.01L86.95,289.52L87.33,288.63L87.48,287.33L87.86,286.83L87.62,286.66L87.96,285.53L88.24,285.08L88.24,284.75L88.44,284.3L88.68,284.02L88.82,282.78L89.39,282.33L89.39,281.82L89.2,281.66L89.73,281.15L90.06,281.15L90.49,280.81L91.02,279.97L91.36,278.9L91.6,278.56L91.64,278.06L91.55,277.94L91.84,277.83L91.64,277.55L91.79,277.38L91.69,277.33L91.79,276.93L92.51,275.25L92.55,274.74L92.76,274.63L92.89,274.29L92.65,273.61L92.65,273.05L93.03,272.77L93.22,272.83L93.51,271.93L93.94,271.08L93.7,270.63L93.75,270.3L93.89,270.3L93.99,270.58L94.18,270.58L94.71,268.95L95.04,267.26L95.47,266.69L95.62,266.3L95.57,266.08L95.71,265.96L96.19,264.11L96.19,263.26L96.77,261.8L96.67,261.18L97.2,260.9L97.15,260.45L96.81,260.22L96.91,258.93L97.1,258.76L97.39,258.87L97.48,258.7L98.16,256.45L98.63,253.92L98.97,253.34L98.97,253.34L100.24,253.38L103.92,253.83L105.27,254.34L106.56,255.47L107.47,255.92L107.99,256.82L109.48,257.61L109.77,258.28L109.67,260.93L109.33,262L109.81,263.35L109.77,265.09L109.24,266.39L108.09,268.47L106.61,270.27L106.37,271.84L106.32,273.59L106.08,274.26L105.94,275.39L106.08,276.17L106.65,276.96L108.33,278.09L109,278.82L109.24,279.49L110.15,285L112.06,285.84L112.78,286.58L113.02,287.25L112.97,288.15L112.3,288.82L110.63,288.65L109.48,288.94L108.95,289.27L108.76,289.61L107.8,290L107.13,289.72L106.27,288.26L105.31,287.87L104.45,287.87L103.3,288.54L101,291.35L99.81,292.47L98.37,292.87L95.69,293.04L94.49,292.87L93.01,292.03L89.94,292.08L88.79,291.86L87.98,291.24z"/>
		<path id="IL-D" title="HaDarom" class="land" d="M214.85,399.13L214.78,409.42L214.17,413.46L211.33,421.56L204.81,433.27L202.82,437.31L200.97,440.58L200.08,444.62L202.05,448.9L209.74,459.25L211.11,462.19L211.97,466.37L212.15,469.5L210.98,474.63L209.92,478.3L203.32,488.47L202.62,492.55L203.03,495.81L204.44,499.71L204.43,503.83L201.44,506.58L194.96,510.83L190.36,520.99L190.3,524.61L191.17,527.9L190.29,531.93L186.99,533.12L184.42,536.23L182.9,540.39L182.88,548.53L180.45,554.2L176.22,561.92L175.31,566.35L172.75,568.73L167.66,578.55L167.25,581.83L163.35,599.91L162.16,603.47L159.78,606.89L159.1,609.58L165.06,620.79L165.97,623.89L165.42,626.26L161.59,630.5L160.49,633.92L161.08,637.88L157.8,645.16L163.2,669.05L149.86,688.19L146.27,702.45L146.81,717.93L141.73,728.09L140.96,731.81L141.46,734.76L140.96,738.75L138.02,750.98L138.02,757.64L138.48,761.8L138.52,765.65L136.26,768.42L133.18,770.68L130.56,773.72L128.71,777.43L127.03,782.15L126.69,782.04L125.97,782.09L125.54,781.65L125.16,781.65L125.02,782.2L124.82,782.26L124.73,782.8L124.49,783.08L124.44,783.35L124.01,783.35L123.92,783.62L123.48,783.79L123.29,784.17L123.15,784.99L122.72,785.71L122.34,785.71L122.34,785.87L121.81,786.47L121.19,786.85L121.04,787.4L120.37,788.06L120.37,788.88L119.94,789.15L119.32,790.03L118.98,790.3L118.98,790.8L118.22,791.67L117.5,792L113.15,786.96L110.88,782.67L110.06,779.37L109.37,773.62L110.99,768.24L111.8,762.85L111.02,759.14L107.93,753.75L108.05,744.24L90.42,694.75L90.77,691.76L85.19,676.33L70.34,634.34L66.83,621.14L54.8,613.27L54.36,607.16L57.93,597.1L50.45,588.33L50.95,577.46L45.96,556.7L30.78,524.81L20.94,496L6.72,448.8L14.48,442.98L22.15,436.36L24.05,432.87L24.01,427.46L23.58,421.67L25.09,416.63L30.83,409.25L48.13,392.49L53.15,391.29L54.68,388.58L54.66,384.71L52.31,381.24L44.82,374.24L48.98,367.47L49.7,367.02L50.04,366.52L49.99,366.41L49.7,366.35L49.75,365.85L49.6,365.79L49.6,365.63L50.18,364.95L50.18,365.18L49.75,365.68L50.23,365.79L50.32,365.96L50.47,365.91L53.1,361.54L53.44,360.36L54.06,359.92L55.02,358.68L55.4,357.9L55.35,357.62L55.88,356.95L56.16,356.22L56.4,356.05L56.5,356.28L56.69,356.28L59.61,351.07L60.14,350.34L61.48,347.65L62.24,346.7L62.63,345.58L64.54,342.27L66.27,338.57L67.13,337.12L67.99,335.04L68.28,334.54L68.42,334.48L68.37,334.31L68.85,333.42L69.33,332.07L69.95,330.95L70.67,329.27L70.15,328.71L69.86,327.75L69.91,326.97L70.38,325.79L70.53,325.79L70.53,326.18L70.34,326.3L70.05,326.97L70.05,327.92L70.67,328.99L71.06,328.99L71.15,328.71L70.67,328.43L70.67,328.26L70.86,328.15L70.82,327.59L70.96,327.42L71.01,326.97L71.01,326.8L70.82,326.69L70.82,326.46L71.25,326.46L71.44,326.69L72.54,326.69L72.64,326.41L73.02,326.02L73.11,325.79L72.87,325.68L72.83,325.4L72.87,323.94L73.02,323.83L73.07,324.05L73.21,324.05L73.21,323.94L73.59,323.72L75.02,320.12L76.13,317.74L76.13,317.74L76.78,317.74L77.45,317.46L77.93,317.01L78.79,316.9L79.84,318.19L81.04,318.3L82.71,317.69L83.34,318.02L83.67,318.58L83.53,319.31L82.19,320.72L82.09,321.11L82.43,322.62L82,324.03L82.04,326.21L81.56,326.61L80.65,326.66L79.89,326.55L78.16,325.93L77.73,325.99L77.11,326.32L76.63,327.22L76.63,328.01L77.06,329.02L78.84,329.97L79.46,330.75L79.6,331.54L79.27,332.16L78.79,332.61L77.49,333.17L76.68,333.73L76.3,334.29L76.3,334.79L76.54,335.46L77.35,336.08L79.27,336.19L80.32,336.47L81.37,337.31L81.8,337.37L83.38,337.09L83.86,336.59L83.91,335.3L84.25,335.18L85.35,335.46L85.78,335.41L86.21,334.9L86.16,334.46L85.2,333.56L84.87,332.49L83.53,331.93L83.38,331.37L84.2,331.2L85.83,331.43L86.54,331.32L87.07,330.92L88.17,329.69L88.56,329.75L91.52,331.43L92.48,332.27L93.25,333.39L93.68,334.34L94.92,338.21L95.88,339.56L96.45,339.95L97.56,339.67L98.08,339.28L98.99,338.32L100.72,335.91L101.82,334.68L102.35,334.29L102.74,334.29L102.74,334.29L103.01,334.29L103.97,335.24L105.07,336.87L105.79,338.49L106.56,341.01L106.94,341.52L107.52,341.85L109.05,341.52L109.91,341.63L110.53,341.85L111.39,342.92L111.39,343.65L110.48,345.55L110.58,346.28L111.35,348.35L111.44,349.19L111.35,350.48L110.87,351.43L110.72,352.22L110.96,355.24L110.82,356.87L111.25,358.27L111.25,359.66L110.96,361.23L111.39,362.24L114.03,363.75L116.52,365.43L118.86,366.72L119.63,367.39L120.59,368.73L123.27,369.4L123.84,369.68L127.59,372.59L127.59,372.59L124.92,376.57L123.4,384.14L124.15,392.34L123.51,395.84L120.06,402.39L116.24,407.32L112.89,414.05L113.36,418.05L115.29,421.18L118.06,423.47L122.34,424.62L130.17,423.59L137.39,421.79L144.44,422.38L154.38,423.02L158.02,421.13L160.41,421.68L164.14,421.04L167.37,420.76L171.51,419.98L174.04,418.46L179.07,413.31L183.36,408.48L188.94,406L194.67,401.82L200.76,396.44L203.48,395.48L214.87,395.65z"/>
		<path id="IL-JM" title="Jerusalem" class="land" d="M170.64,345.39L170.4,345.77L161.71,345.99L154.37,349L145.36,357.91L137.28,361.79L134.42,364.29L129.16,369.97L127.59,372.59L127.59,372.59L123.84,369.68L123.27,369.4L120.59,368.73L119.63,367.39L118.86,366.72L116.52,365.43L114.03,363.75L111.39,362.24L110.96,361.23L111.25,359.66L111.25,358.27L110.82,356.87L110.96,355.24L110.72,352.22L110.87,351.43L111.35,350.48L111.44,349.19L111.35,348.35L110.58,346.28L110.48,345.55L111.39,343.65L111.39,342.92L110.53,341.85L109.91,341.63L109.05,341.52L107.52,341.85L106.94,341.52L106.56,341.01L105.79,338.49L105.07,336.87L103.97,335.24L103.01,334.29L102.74,334.29L102.74,334.29L103.5,332.33L107.02,328.87L109.84,327.88L115.34,326.72L117.17,325.57L118.72,321.11L119.99,320.12L121.54,319.95L124.21,320.28L128.64,320.47L128.64,320.47L126.67,323.38L128.11,328.79L131.44,330.22L136.2,330.9L140.59,329.33L143.83,325.81L147.11,323.87L150.91,327.38L154.37,329.04L161.82,332.04L169.81,332L172.95,335.28L172.44,342.58z"/>
		<path id="PS" title="Palestine" class="land" d="M54.66,384.71l0.02,3.87l-1.53,2.72l-4.99,1.19l-15.95,15.44l-1.38,1.33l-5.75,7.39l-0.68,2.26l-0.83,2.78l0.43,5.79l0.04,5.41l-1.9,3.49l-6.37,5.5l-1.31,1.13l-7.76,5.82L0,426.58l0.38,-0.29l5.12,-5.01l5.89,-6.31l1.87,-1.67l1.58,-1.45l3.21,-3.35l2.54,-2.79l4.07,-4.91l1.01,-1.4l1.34,-1.56l3.78,-4.19l7.85,-10.13l4.32,-6.24l1.86,-3l7.5,6.96L54.66,384.71zM231.9,248.38l-0.48,-1.61l-0.17,-3.25l-0.67,-2.9l0.62,-4.49l-1.18,-2.93l0.04,-1.44l0.84,-2.36l-1.35,-3.62l0.13,-1.63l0.55,-1.42l0.49,-3.04l-0.42,-1.19l-1.27,-1.58l0.33,-3.64l-4,-1.15l-5.08,-2.37l-2.17,-0.66l-3.92,-0.17l-2.58,0.75l-2.18,-0.35l-1.14,-1.01l0.05,-1.03l-1.23,-1.58l-1,-2.94l0.21,-4.06l-0.54,-4.36l-2.8,-4.74l-2.79,-2.08l-1.46,-0.36l-3.32,-0.05l-8.43,1.55l-2.01,-0.01l-1.37,-0.36l-2.71,-1.34l-2.65,-1.94l-3.07,-3.19l-2.39,-1.3l-1.67,0.26l-0.91,0.46l-3.17,3.58l-0.6,1.24l-2.06,2l-3.4,2.47l-4.29,2.19l-6.93,2.62l-1.31,0.99l-1.03,1.93l-0.57,1.08l-0.76,2.83l-0.8,5.21l-1.5,4.16l-0.71,5.15l-1.21,1.17l-4.48,2.01l-1.15,1.45l-1.83,3.44l-0.19,5.47l0.81,5.81l-0.57,1.51l-0.36,0.26l-1.09,0.78l-2.37,3.43l-3.12,7.05l-0.29,2.37l0.08,2.35l2.35,3.52l0.93,1.95l1.31,5.78l0.21,2.6l-0.55,2.12l-1.4,2.65l-0.1,0.81l-0.1,0.8l0.54,1.34l1.8,1.92l0.24,0.45l1.74,3.32l0.57,2.33l-0.4,2.98l-1.39,3.01l0.04,1.36l0.33,1.09l-0.76,0.62l0.76,2l-2.36,5.05l0.42,4.58l2.64,3.56l3.94,3.14l0.83,3.24l-1.53,4.72l-8.6,1.54l-2.13,3.15l1.44,5.41l3.33,1.43l4.76,0.69l4.39,-1.58l3.24,-3.52l2.35,-1.39l0.94,-0.55l3.79,3.51l3.47,1.66l7.44,3l8,-0.04l3.14,3.28l-0.52,7.3l-1.8,2.81l-0.24,0.37l-8.69,0.23l-7.35,3l-7.45,7.37l-1.56,1.54l-8.08,3.88l-2.86,2.5l-5.26,5.68l-1.57,2.62l-2.67,3.98l-1.52,7.56l0.75,8.2l-0.64,3.5l-3.45,6.55l-3.82,4.93l-3.35,6.73l0.47,4l1.94,3.13l2.76,2.29l4.28,1.14l7.82,-1.03l7.23,-1.8l7.04,0.59l9.94,0.64l3.64,-1.89l2.39,0.55l3.73,-0.64l3.22,-0.27l4.15,-0.78l2.53,-1.52l5.03,-5.15l4.29,-4.83l5.58,-2.48l5.72,-4.18l1.67,-1.47l4.43,-3.91l2.72,-0.96l11.39,0.16l0.12,-8.34l0.35,-8.99l3.64,-12.49l3.74,-11.77l1.59,-5.01l0.2,-0.36l4.17,-7.48l-2.13,-11.79l1.36,-3.83l-1.79,-2.87l1.68,-3.32l-3,-1.91l-1.68,-8.51l3.11,-3l1.09,-7.22l-2.88,-6.34l1.61,-2.34l-0.28,-1.38l-1.89,-2.18l-0.38,-8.72l0.49,-0.98l0.93,-1.86l0.56,-3.59l2.43,-3.29l0.66,-2.25l0.49,-5.4l1.11,-5.06l1.49,-2.94l0.42,-1.73L231.9,248.38z"/>
	</g>
</svg>