<?xml version="1.0" encoding="utf-8"?>
<!-- (c) ammap.com | SVG map of Kosovo - High -->
<svg xmlns="http://www.w3.org/2000/svg" xmlns:amcharts="http://amcharts.com/ammap" xmlns:xlink="http://www.w3.org/1999/xlink" version="1.1">
	<defs>
		<style type="text/css">
			.land
			{
				fill: #CCCCCC;
				fill-opacity: 1;
				stroke:white;
				stroke-opacity: 1;
				stroke-width:0.5;
			}
		</style>

		<amcharts:ammap projection="mercator" leftLongitude="20.047065" topLatitude="43.270767" rightLongitude="21.814280" bottomLatitude="41.83369"></amcharts:ammap>

		<!-- All areas are listed in the line below. You can use this list in your script. -->
		<!--{id:"XK-PR"},{id:"XK-KM"},{id:"XK-DA"},{id:"XK-GN"},{id:"XK-PE"},{id:"XK-UR"},{id:"XK-PZ"}-->

	</defs>
	<g>
		<path id="XK-PR" title="Pristina" class="land" d="M251.87,318.29L251.73,317.92L253.11,314.33L253.11,312.12L250.91,308.81L251.46,304.94L253.94,302.46L255.32,296.94L256.98,295.01L260.84,293.9L264.71,291.69L269.68,291.97L271.33,288.66L269.4,284.52L268.85,281.76L270.23,277.62L275.2,277.62L275.75,274.58L278.51,272.65L283.48,272.65L287.07,275.13L287.34,278.45L290.65,279.55L296.45,275.41L296.45,272.65L297.56,268.23L302.8,267.96L305.84,267.13L309.7,264.64L312.74,264.64L314.39,268.78L317.43,271.27L319.36,275.13L323.78,280.38L327.37,280.1L333.72,274.03L337.03,270.44L341.44,266.85L345.31,264.64L348.62,261.88L351.66,260.23L350.55,255.26L351.38,253.05L354.42,252.5L355.52,243.39L353.31,241.73L351.11,240.63L351.38,237.59L356.35,233.45L358.83,230.42L362.42,227.38L364.91,226.83L364.91,224.62L370.7,224.34L371.81,219.1L370.43,213.58L367.12,210.82L364.63,208.06L361.04,207.23L360.21,203.92L359.66,192.32L356.63,187.91L355.8,182.11L353.59,178.8L353.59,172.73L357.45,168.59L358.01,160.03L360.77,152.3L360.49,145.4L354.42,129.11L352.21,123.87L349.73,122.76L345.58,121.38L343.65,117.8L344.48,112.83L342.55,111.17L338.68,109.79L337.3,103.55L333.72,99.14L334.27,94.17L334.27,91.96L335.92,88.1L333.44,84.78L331.78,81.47L329.58,82.02L325.99,84.51L322.67,80.37L320.74,76.5L320.09,73.66L320.09,73.66L327.8,71.11L329.99,68.89L331.54,67.75L332.58,67.42L335.39,67.94L343.25,72.15L345.71,73L347.48,72.67L355.86,68.03L360.19,65.2L361.64,64.77L363.34,64.96L364.97,65.72L369.3,69.93L371.52,73.28L372.97,76.88L376.61,88.12L377.06,88.31L377.75,88.12L382.77,82.55L384.71,81.6L386.31,81.18L387.93,82.22L389.49,83.92L390.32,86.42L391.09,90.35L392.09,97.9L392.47,107.59L392.4,115.66L391.64,127.32L392.78,141.47L393.34,141.9L394.34,141.47L400.13,130.34L401.75,128.88L403.59,127.32L405.88,126.66L408.89,127.08L411.9,128.97L413.67,130.67L418.73,145.72L418.59,148.17L413.88,160.33L411.14,168.72L411.45,170.42L412.53,172.54L420.49,171.46L428.04,171.08L444.43,175.18L453.5,184.18L459.6,196.23L461.88,197.22L470.06,193.64L472.59,197.22L472.21,205.13L471.72,209.55L468.36,219.48L461.92,228.79L461.61,237.11L463.2,241.34L476.33,242.52L477.26,242.42L478.51,242.71L488.42,243.22L492.64,247.08L503.39,251.09L503.39,251.09L503.75,255.42L502.09,257.63L501.54,259.84L500.16,263.15L496.02,264.53L496.02,268.4L494.92,272.54L490.5,272.81L487.74,271.71L485.26,271.71L484.15,270.05L481.67,268.12L478.91,267.57L476.42,270.33L473.66,270.61L472.56,272.26L475.32,275.3L478.35,278.06L478.35,281.37L481.94,283.03L484.98,283.58L486.91,286.89L491.05,288L492.43,291.58L490.5,292.96L491.05,294.9L493.54,298.49L490.22,299.87L489.4,302.9L489.4,305.66L492.71,309.25L496.57,310.91L496.57,313.94L497.68,317.26L502.92,321.12L505.68,328.02L500.44,329.95L498.78,332.44L494.64,329.95L492.16,328.85L489.12,330.78L486.64,327.47L481.67,327.47L479.18,330.78L476.42,333.82L477.53,338.51L477.53,342.1L473.11,344.58L468.69,343.75L466.49,342.37L465.11,340.44L464.55,337.96L462.07,337.13L458.76,336.58L457.38,334.09L452.68,335.75L448.27,337.96L444.4,336.58L442.2,333.82L437.5,333.54L432.26,336.85L430.33,339.06L428.12,344.86L430.88,349.27L434.47,352.59L431.98,356.18L432.53,360.87L433.36,362.52L438.05,364.73L437.78,367.49L435.29,374.12L430.6,373.84L428.39,372.74L425.91,372.74L424.53,374.95L426.46,378.53L425.36,381.85L426.19,384.61L425.38,387.03L425.38,387.03L425.36,386.98L425.36,386.98L422.87,387.81L421.49,390.57L419.28,390.29L417.35,385.88L414.32,383.12L410.18,383.67L406.59,380.91L399.69,381.18L395.55,383.12L392.79,383.67L389.2,382.56L386.71,383.67L383.13,386.43L380.09,386.15L379.54,382.56L377.6,378.98L373.19,378.98L366.84,378.15L365.18,375.66L362.97,374.83L352.76,379.53L348.62,377.87L346.41,376.49L343.1,376.22L338.13,377.04L332.61,372.63L331.51,375.66L324.61,377.04L323.23,372.63L321.02,371.25L317.15,370.97L314.39,372.63L310.25,375.66L309.15,378.7L302.8,379.25L298.96,380.02L298.96,380.02L298.94,379.8L298.94,379.8L297.28,375.11L297,372.07L290.93,370.14L285.13,374.28L282.37,372.07L285.96,367.38L284.58,364.35L284.03,361.59L289.55,361.03L289.83,354.41L287.89,353.58L286.51,349.44L284.31,349.99L281.82,356.06L275.2,356.06L272.71,358.27L268.02,358.83L262.78,364.35L261.12,360.76L261.4,358.55L264.71,354.68L265.81,350.54L265.26,347.51L268.3,344.75L268.85,337.85L263.88,333.98L262.5,332.6L260.57,332.33L260.57,329.57L264.71,325.43L265.54,320.46L260.02,317.42L253.37,318.39L253.37,318.39L253.39,318.14z"/>
		<path id="XK-KM" title="Kosovska Mitrovica" class="land" d="M320.09,73.66L320.74,76.5L322.67,80.37L325.99,84.51L329.58,82.02L331.78,81.47L333.44,84.78L335.92,88.1L334.27,91.96L334.27,94.17L333.72,99.14L337.3,103.55L338.68,109.79L342.55,111.17L344.48,112.83L343.65,117.8L345.58,121.38L349.73,122.76L352.21,123.87L354.42,129.11L360.49,145.4L360.77,152.3L358.01,160.03L357.45,168.59L353.59,172.73L353.59,178.8L355.8,182.11L356.63,187.91L359.66,192.32L360.21,203.92L361.04,207.23L364.63,208.06L367.12,210.82L370.43,213.58L371.81,219.1L370.7,224.34L364.91,224.62L364.91,226.83L362.42,227.38L358.83,230.42L356.35,233.45L351.38,237.59L351.11,240.63L353.31,241.73L355.52,243.39L354.42,252.5L351.38,253.05L350.55,255.26L351.66,260.23L348.62,261.88L345.31,264.64L341.44,266.85L337.03,270.44L333.72,274.03L327.37,280.1L323.78,280.38L319.36,275.13L317.43,271.27L314.39,268.78L312.74,264.64L309.7,264.64L305.84,267.13L302.8,267.96L297.56,268.23L296.45,272.65L296.45,275.41L290.65,279.55L287.34,278.45L287.07,275.13L283.48,272.65L278.51,272.65L275.75,274.58L275.2,277.62L270.23,277.62L268.85,281.76L269.4,284.52L271.33,288.66L269.68,291.97L264.71,291.69L260.84,293.9L256.98,295.01L255.32,296.94L253.94,302.46L251.46,304.94L250.91,308.81L253.11,312.12L253.11,314.33L251.73,317.92L251.87,318.29L251.87,318.29L250.63,318.41L250.63,318.41L247.32,320.07L245.11,319.24L243.73,311.79L238.49,307.93L235.73,306.82L230.2,306.27L228.55,297.99L234.62,293.57L232.96,288.6L230.2,286.95L232.41,284.46L228.55,281.7L227.72,280.05L225.24,281.15L224.41,285.02L221.37,288.05L215.85,288.33L213.09,285.02L208.4,277.01L207.57,272.59L205.91,271.21L202.05,270.11L201.5,266.8L203.43,262.66L205.64,261.83L207.02,262.38L210.61,258.24L212.26,253.55L212.54,249.41L208.4,245.82L207.02,240.3L208.67,236.43L211.43,231.47L211.43,223.46L213.09,220.7L215.02,216.56L215.57,208.28L208.12,208.28L208.4,201.93L205.36,197.51L202.33,195.86L201.22,192.27L198.19,189.23L192.39,188.68L191.01,184.54L186.87,185.64L184.11,187.85L179.97,188.96L174.45,189.51L170.31,190.61L167.2,190.61L167.2,190.61L170.21,184.27L170.45,181.4L160.16,168.58L158.26,164.77L157.11,161.42L156.49,155.9L158.05,151.57L160.44,147.6L163.52,144.82L165.88,143.83L167.4,142.79L171.45,140.81L176.23,136.43L179.45,132.98L186.55,129.3L197.29,126.47L199.92,124.49L202.42,125.01L205.43,126.66L208.24,129.3L209.9,129.49L210.38,129.11L209.76,123.21L229.82,120.29L231.13,116.61L230.75,106.41L226.63,97.57L225.28,88.69L226.14,83.87L225.45,76.97L224.62,76.36L223.72,76.36L220.36,77.87L219.18,78.1L217.9,77.25L216.55,74.94L215.06,70.4L214.96,68.13L215.23,66.52L217.14,62.26L217.59,60.56L217.69,59L217.24,55.5L216.13,53.32L214.47,51.43L202.42,40.36L199.92,36.05L200.96,32.92L217.55,28.81L227.77,23.93L232.86,20.19L243.36,13.51L245.78,12.61L251.85,11.04L253.68,9.72L262.34,1.75L265.25,0.38L268.89,0L278,0.28L287.14,6.07L291.54,13.46L301.45,31.41L305.53,37.52L305.95,39.41L305.32,42.16L304.77,43.29L302.69,43.39L292.51,39.08L289.95,38.79L286.55,39.79L282.98,43.01L284.23,51.95L285.37,54.13L287.45,57.11L290.67,60.56L294.03,62.78L303.28,64.87L310.1,69.45z"/>
		<path id="XK-DA" title="Đakovica" class="land" d="M153.63,482.55L152.3,480.78L148.9,478.59L148.7,476.77L148.18,475.51L145.02,473.09L142.53,470.01L138.58,468.66L136.33,467.31L131.27,466.84L130.96,466.61L130.34,464.83L128.05,464.74L125.91,463.95L124.07,463.67L122.27,461.57L120.99,458.16L120.33,457.51L119.01,457.18L115.17,454.94L113.61,454.29L110.8,453.96L108.34,452.52L106.2,452.42L106.06,452.19L106.54,449.16L105.12,447.62L103.67,445.38L102.01,444.72L100.69,443.74L96.6,443.88L96.01,444.35L94.56,446.36L92,447.2L90.02,449.53L89.09,449.3L88.39,448.5L85.9,447.2L84.38,445.47L83.27,445.56L78.8,447.01L72.98,447.95L72.63,447.71L71.8,446.13L69.38,445.89L67.92,444.68L67.68,443.56L69,441.78L68.89,440.2L68.13,438.24L65.78,435.48L65.43,434.22L66.5,432.91L67.27,432.45L67.85,432.45L68.06,432.07L68.62,428.01L68.51,424.37L66.85,422.5L67.16,421.14L66.64,419.46L65.43,418.85L64.36,417.22L60.27,413.48L56.35,410.77L55.83,409.74L58.02,405.26L60.68,403.71L61.55,402.92L62.1,401.94L61.83,398.76L60.89,397.5L59.68,393.66L59.02,392.91L56.91,391.88L54.86,388.66L50.74,385.99L50.26,385.43L50.08,383.51L50.54,382.72L51.68,381.6L51.96,380.43L49.57,377.1L47.42,375.89L46.83,375L45.96,371.54L45.72,369.38L42.26,365.92L41.46,364.84L41.32,363.91L41.74,361.85L41.56,360.82L41.11,360.07L37.93,358.38L37.23,357.12L36.68,356.7L31.76,354.78L29.75,353.61L26.22,352.39L25.84,351.92L25.6,350.28L22.93,350.28L18.6,347.85L17.8,347.15L16.52,343.87L14.58,341.71L14.06,339.37L11.33,337.59L9.21,337.31L14.1,324.99L14.48,322.08L14.1,319.55L12.37,314.86L12.02,310.27L12.71,306.98L14.62,304.12L16.28,302.57L20.33,300.42L24.8,295.35L27.92,290.84L29.37,289.18L29.37,289.18L35.33,293.52L42.78,293.79L48.3,296L54.65,296L57.96,297.1L55.48,300.69L52.72,304.01L53.55,307.59L56.31,308.42L60.45,315.32L62.93,316.15L68.45,315.6L73.14,318.91L85.01,323.33L87.77,323.88L90.26,323.33L94.67,320.84L96.05,317.26L99.09,317.81L101.3,320.57L103.51,321.67L105.99,324.43L108.2,327.74L104.89,329.12L106.27,331.88L108.48,334.37L112.34,334.92L113.17,337.41L110.68,339.89L109.3,341.82L112.34,344.03L123.38,343.48L126.97,341.55L129.73,339.61L135.25,340.99L137.73,342.1L143.53,342.1L150.16,339.06L157.33,340.17L160.09,343.2L163.13,344.58L168.37,342.65L170.31,342.93L172.51,345.69L170.86,349.55L173.07,352.31L173.07,355.35L176.93,361.42L179.69,360.32L179.69,360.32L182.73,360.04L182.73,360.04L186.32,361.97L188.52,368.04L191.01,369.7L196.53,369.98L197.91,374.67L198.19,380.19L201.5,380.74L211.71,380.74L216.96,381.57L220.27,384.88L223.86,386.54L224.68,389.85L230.76,390.96L232.41,391.78L231.31,397.58L234.07,400.06L237.38,400.34L238.76,402.82L234.62,406.96L237.38,410L240.42,413.87L240.14,418.56L239.04,424.63L240.97,430.7L238.21,433.46L238.76,435.4L239.31,440.64L236.28,442.57L234.62,446.71L234.62,450.03L230.76,453.34L228.27,452.51L226.89,449.2L226.34,446.44L224.13,442.85L219.16,442.85L216.96,445.06L215.3,449.75L213.64,452.51L211.16,455.55L209.23,456.93L208.4,460.51L205.36,458.86L202.05,458.86L202.05,454.44L198.46,453.89L193.77,453.89L189.9,454.99L188.8,457.75L187.14,459.96L186.04,456.65L183.83,453.89L183.28,456.37L182.45,463.27L176.93,464.38L175.55,466.59L172.51,470.18L166.44,471.56L166.17,475.7L162.58,477.9L155.68,479.28z"/>
		<path id="XK-GN" title="Gnjilane" class="land" d="M425.38,387.03L426.19,384.61L425.36,381.85L426.46,378.53L424.53,374.95L425.91,372.74L428.39,372.74L430.6,373.84L435.29,374.12L437.78,367.49L438.05,364.73L433.36,362.52L432.53,360.87L431.98,356.18L434.47,352.59L430.88,349.27L428.12,344.86L430.33,339.06L432.26,336.85L437.5,333.54L442.2,333.82L444.4,336.58L448.27,337.96L452.68,335.75L457.38,334.09L458.76,336.58L462.07,337.13L464.55,337.96L465.11,340.44L466.49,342.37L468.69,343.75L473.11,344.58L477.53,342.1L477.53,338.51L476.42,333.82L479.18,330.78L481.67,327.47L486.64,327.47L489.12,330.78L492.16,328.85L494.64,329.95L498.78,332.44L500.44,329.95L505.68,328.02L502.92,321.12L497.68,317.26L496.57,313.94L496.57,310.91L492.71,309.25L489.4,305.66L489.4,302.9L490.22,299.87L493.54,298.49L491.05,294.9L490.5,292.96L492.43,291.58L491.05,288L486.91,286.89L484.98,283.58L481.94,283.03L478.35,281.37L478.35,278.06L475.32,275.3L472.56,272.26L473.66,270.61L476.42,270.33L478.91,267.57L481.67,268.12L484.15,270.05L485.26,271.71L487.74,271.71L490.5,272.81L494.92,272.54L496.02,268.4L496.02,264.53L500.16,263.15L501.54,259.84L502.09,257.63L503.75,255.42L503.39,251.09L503.39,251.09L503.93,251.31L521.22,250.98L534.72,254.22L546.05,261.55L559.35,284.93L567.84,292.21L574.94,289.3L577.36,284.79L586.47,275.03L588.13,273.85L589.52,273.29L591.77,272.91L595.13,273.48L597.83,275.07L603.34,279.06L605.59,281.93L606.74,286.39L606.35,292.44L607.08,297.79L609.89,302.01L612,305.9L609.13,308.76L598.25,313.78L589.14,329.58L586.89,346.07L582.21,360.3L575.49,368.26L557.65,377.29L547.75,386.41L545.25,393.76L548.06,400.07L544.35,417.69L534.03,425.16L528.63,435.15L528.01,444.02L531.75,452.14L538.5,455.41L538.54,460.45L537.12,464.23L538.15,475.84L513.67,477.94L505.18,479.9L502.82,479.62L500.05,477.47L492.85,473.56L489.45,473.18L484.33,473.56L483.01,473.84L481.9,475.05L481.7,479.06L481.28,480.55L480.17,482.6L477.12,484.93L465,485.68L461.29,487.12L460.2,488.07L460.2,488.07L458.76,486.63L457.1,483.04L453.24,481.11L448.54,482.49L446.06,482.21L443.85,478.35L440.54,477.52L436.67,479.45L434.74,476.41L432.53,476.41L431.15,473.38L425.63,463.99L422.87,463.44L422.32,455.99L424.25,453.23L424.8,449.64L428.39,449.36L428.95,445.22L429.77,442.46L430.05,439.98L422.04,441.91L419.56,438.05L415.14,437.49L416.8,433.63L416.8,429.49L418.73,427.83L422.32,427.83L424.25,424.8L427.01,423.42L430.05,423.14L434.74,427L434.74,423.69L437.23,421.21L434.74,417.9L431.15,414.58L431.98,410.72L433.36,407.41L435.02,400.78L428.39,395.81L427.01,391.4L427.01,391.4z"/>
		<path id="XK-PE" title="Peć" class="land" d="M180.53,360.24L179.69,360.32L179.69,360.32L176.93,361.42L173.07,355.35L173.07,352.31L170.86,349.55L172.51,345.69L170.31,342.93L168.37,342.65L163.13,344.58L160.09,343.2L157.33,340.17L150.16,339.06L143.53,342.1L137.73,342.1L135.25,340.99L129.73,339.61L126.97,341.55L123.38,343.48L112.34,344.03L109.3,341.82L110.68,339.89L113.17,337.41L112.34,334.92L108.48,334.37L106.27,331.88L104.89,329.12L108.2,327.74L105.99,324.43L103.51,321.67L101.3,320.57L99.09,317.81L96.05,317.26L94.67,320.84L90.26,323.33L87.77,323.88L85.01,323.33L73.14,318.91L68.45,315.6L62.93,316.15L60.45,315.32L56.31,308.42L53.55,307.59L52.72,304.01L55.48,300.69L57.96,297.1L54.65,296L48.3,296L42.78,293.79L35.33,293.52L29.37,289.18L29.37,289.18L32.07,285.68L31.8,284.42L28.26,282.12L26.01,280L24.83,278.45L22.38,273.85L20.26,270.8L17.49,269.25L15.38,269.16L13.58,268.64L12.47,267.8L11.12,265.68L9.63,264.37L6.34,263.33L5.61,262.58L4.54,259.86L3.88,258.92L1.73,251.31L0.35,248.77L0,247.36L0.1,246.23L1.73,243.93L3.12,242.47L4.57,240.26L5.09,238.99L5.44,237.16L5.51,235.28L6.55,232.93L7.17,232.46L8.1,231.99L9.28,232.13L13.61,233.87L16.04,234.34L17.21,235.14L19.43,235.51L22.93,236.92L26.91,238.9L30.83,239.51L33.98,241.25L37.58,242.47L40.77,243.18L43.37,242.71L47.8,243.08L55.73,243.04L61.2,243.6L65.98,245.34L70.04,245.39L73.67,243.69L82.09,231.85L83.3,230.77L85.55,228.04L85.69,227.15L85.31,225.97L83.61,222.91L82.75,219.34L82.96,218.02L83.61,216.94L87.15,213.41L91.68,210.96L93.83,210.12L95.22,208.85L97.02,206.59L98.47,205.41L100,205.03L105.54,206.59L107.82,206.82L108.69,207.25L111.77,207.48L123,205.46L147.62,200.33L148.63,200.37L158.6,198.82L159.4,198.16L162.34,196.84L164.14,195.57L167.2,190.61L167.2,190.61L170.31,190.61L174.45,189.51L179.97,188.96L184.11,187.85L186.87,185.64L191.01,184.54L192.39,188.68L198.19,189.23L201.22,192.27L202.33,195.86L205.36,197.51L208.4,201.93L208.12,208.28L215.57,208.28L215.02,216.56L213.09,220.7L211.43,223.46L211.43,231.47L208.67,236.43L207.02,240.3L208.4,245.82L212.54,249.41L212.26,253.55L210.61,258.24L207.02,262.38L205.64,261.83L203.43,262.66L201.5,266.8L202.05,270.11L205.91,271.21L207.57,272.59L208.4,277.01L213.09,285.02L215.85,288.33L221.37,288.05L224.41,285.02L225.24,281.15L227.72,280.05L228.55,281.7L232.41,284.46L230.2,286.95L232.96,288.6L234.62,293.57L228.55,297.99L230.2,306.27L235.73,306.82L238.49,307.93L243.73,311.79L245.11,319.24L247.32,320.07L250.63,318.41L250.63,318.41L253.39,318.14L253.11,322.28L253.11,322.28L250.91,325.59L250.35,329.18L242.63,329.18L239.31,328.63L237.1,325.87L228.55,329.73L224.13,337.74L222.2,340.5L221.65,345.74L219.72,347.67L218.33,350.71L215.02,352.37L215.3,355.95L210.33,355.68L204.81,356.51L199.84,358.71L192.39,357.06L187.97,357.06L182.45,357.89z"/>
		<path id="XK-UR" title="Uroševac" class="land" d="M460.2,488.07L458.21,489.78L454.99,494.16L450.14,499.66L442.38,513.58L433.93,540.02L429.88,545.23L427.66,547.42L424.93,548.21L420.77,548.91L417.69,547.05L414.22,546.67L411.11,547.84L408.89,548.16L407.71,547.93L406.33,546.67L405.36,544.54L404.94,541.46L403.76,537.65L399.54,530.11L390.29,520.75L388.9,515.68L388.21,508.97L386.62,505.48L384.02,502.41L382.46,501.01L380.31,500.03L378.1,499.94L371.27,498.82L369.47,499.29L368.02,500.5L365.38,503.48L356.24,508.6L353.33,513.82L350.98,516.42L344.12,521.55L341.76,522.38L338.85,523.04L335.25,525.36L330.96,528.74L330.96,528.74L328.2,521.41L324.88,514.23L321.85,510.92L315.77,509.81L311.08,506.5L300.04,506.78L291.48,505.4L287.89,504.02L287.34,499.6L289.83,498.77L292.04,495.74L291.48,492.98L290.38,491.04L290.65,488.28L294.24,486.63L300.59,490.21L303.35,487.18L304.73,484.14L308.32,481.38L312.46,480.28L314.39,475.03L314.95,471.17L318.26,470.34L321.02,473.1L323.78,469.79L328.2,468.96L330.13,468.13L327.64,465.37L325.99,459.85L329.02,457.92L329.85,455.16L327.64,452.12L327.64,448.81L324.88,448.26L324.88,443.84L327.09,441.08L327.64,438.32L324.33,435.84L324.33,430.87L321.57,427.28L317.43,423.42L312.46,423.42L309.98,421.48L309.7,418.45L313.29,416.79L318.81,419.55L320.47,416.24L318.26,413.75L315.77,412.93L313.84,410.72L313.84,407.96L317.43,407.68L318.53,403.54L322.67,403.27L323.78,401.61L320.74,398.85L318.53,397.75L316.33,394.43L316.88,390.57L313.84,389.46L309.7,388.91L305.28,387.81L303.63,386.15L300.04,386.15L299.49,384.22L299.49,384.22L298.96,380.02L298.96,380.02L302.8,379.25L309.15,378.7L310.25,375.66L314.39,372.63L317.15,370.97L321.02,371.25L323.23,372.63L324.61,377.04L331.51,375.66L332.61,372.63L338.13,377.04L343.1,376.22L346.41,376.49L348.62,377.87L352.76,379.53L362.97,374.83L365.18,375.66L366.84,378.15L373.19,378.98L377.6,378.98L379.54,382.56L380.09,386.15L383.13,386.43L386.71,383.67L389.2,382.56L392.79,383.67L395.55,383.12L399.69,381.18L406.59,380.91L410.18,383.67L414.32,383.12L417.35,385.88L419.28,390.29L421.49,390.57L422.87,387.81L425.36,386.98L425.36,386.98L427.01,391.4L427.01,391.4L428.39,395.81L435.02,400.78L433.36,407.41L431.98,410.72L431.15,414.58L434.74,417.9L437.23,421.21L434.74,423.69L434.74,427L430.05,423.14L427.01,423.42L424.25,424.8L422.32,427.83L418.73,427.83L416.8,429.49L416.8,433.63L415.14,437.49L419.56,438.05L422.04,441.91L430.05,439.98L429.77,442.46L428.95,445.22L428.39,449.36L424.8,449.64L424.25,453.23L422.32,455.99L422.87,463.44L425.63,463.99L431.15,473.38L432.53,476.41L434.74,476.41L436.67,479.45L440.54,477.52L443.85,478.35L446.06,482.21L448.54,482.49L453.24,481.11L457.1,483.04L458.76,486.63z"/>
		<path id="XK-PZ" title="Prizren" class="land" d="M330.96,528.74L326.25,532.3L323.96,532.86L316.89,533.65L310.76,536.35L307.13,539.74L300.75,548.02L298.4,550.54L296.53,551.7L295.38,552.02L290.6,552.16L285.34,551.61L284.27,551.79L281.67,553L279.73,554.63L276.71,556.25L271.42,557.6L264.63,558.02L263.52,558.3L262.31,559.04L260.92,560.35L259.78,562.67L257.25,565.37L247.86,580.52L246.82,582.84L246.65,583.86L247.31,590.09L247.13,595.8L247.76,605.6L248.52,608.15L251.71,613.16L252.33,616.27L252.26,617.89L251.26,621.28L251.01,624.07L251.15,625.88L251.57,627.36L252.47,628.98L256.21,634.18L256.31,635.57L244.05,647.53L241.56,651.61L240.35,653L228.26,660.78L222.65,663.56L217.49,666.99L215.79,669.12L214.96,673.52L214.58,674.36L208.31,682.74L206.61,684.59L205.78,685.93L203.98,691.58L202.07,693.48L199.2,695.65L197.95,696.3L195.46,695.75L193.14,694.31L192.65,694.26L189.22,696.21L187.84,696.49L183.89,695.98L182.36,695.19L181.95,694.59L182.23,690.89L181.95,689.68L180.67,686.91L177.93,677.37L178.45,674.73L178.1,672.37L178.8,669.86L178.97,668.2L177.79,661.99L177.86,657.63L178.42,656.57L180.22,656.24L181.57,654.53L182.26,654.11L189.01,653.51L189.46,653.23L189.33,649.85L187.56,647.11L183.37,635.38L185.76,634.5L186.59,633.95L188.11,631.02L188.98,630L192.37,628.47L196.7,625.46L198.26,624.02L199.27,617.76L200.24,615.53L200.55,614.18L199.89,609.68L199.89,607.64L198.95,606.38L196.98,604.81L195.49,601.6L193.55,594.73L192.2,588.83L191.09,587.81L190.47,586.51L189.5,576.62L183.68,569.78L182.64,568.9L181.22,568.58L176.75,559.18L175.78,558.07L175.89,556.95L179.52,550.91L179.52,550.26L178.76,549.19L178,547.37L177.9,546.07L178.1,544.91L180.01,541L180.11,540.3L179.97,539.14L176.13,531.27L176.06,530.16L176.75,529.09L176.79,528.34L174.29,525.55L171.63,521.78L171.59,521.41L172.35,520.43L172.32,519.96L171.42,517.96L171.07,516.52L169.31,513.58L167.78,510.14L166.08,501.01L165.01,497.47L163.07,495.51L162,493.74L156.91,489.17L156.84,487.36L156.18,484.7L155.35,483.67L153.63,482.55L153.63,482.55L155.68,479.28L162.58,477.9L166.17,475.7L166.44,471.56L172.51,470.18L175.55,466.59L176.93,464.38L182.45,463.27L183.28,456.37L183.83,453.89L186.04,456.65L187.14,459.96L188.8,457.75L189.9,454.99L193.77,453.89L198.46,453.89L202.05,454.44L202.05,458.86L205.36,458.86L208.4,460.51L209.23,456.93L211.16,455.55L213.64,452.51L215.3,449.75L216.96,445.06L219.16,442.85L224.13,442.85L226.34,446.44L226.89,449.2L228.27,452.51L230.76,453.34L234.62,450.03L234.62,446.71L236.28,442.57L239.31,440.64L238.76,435.4L238.21,433.46L240.97,430.7L239.04,424.63L240.14,418.56L240.42,413.87L237.38,410L234.62,406.96L238.76,402.82L237.38,400.34L234.07,400.06L231.31,397.58L232.41,391.78L230.76,390.96L224.68,389.85L223.86,386.54L220.27,384.88L216.96,381.57L211.71,380.74L201.5,380.74L198.19,380.19L197.91,374.67L196.53,369.98L191.01,369.7L188.52,368.04L186.32,361.97L182.73,360.04L182.73,360.04L180.53,360.24L180.53,360.24L182.45,357.89L187.97,357.06L192.39,357.06L199.84,358.71L204.81,356.51L210.33,355.68L215.3,355.95L215.02,352.37L218.33,350.71L219.72,347.67L221.65,345.74L222.2,340.5L224.13,337.74L228.55,329.73L237.1,325.87L239.31,328.63L242.63,329.18L250.35,329.18L250.91,325.59L253.11,322.28L253.11,322.28L253.37,318.39L253.37,318.39L260.02,317.42L265.54,320.46L264.71,325.43L260.57,329.57L260.57,332.33L262.5,332.6L263.88,333.98L268.85,337.85L268.3,344.75L265.26,347.51L265.81,350.54L264.71,354.68L261.4,358.55L261.12,360.76L262.78,364.35L268.02,358.83L272.71,358.27L275.2,356.06L281.82,356.06L284.31,349.99L286.51,349.44L287.89,353.58L289.83,354.41L289.55,361.03L284.03,361.59L284.58,364.35L285.96,367.38L282.37,372.07L285.13,374.28L290.93,370.14L297,372.07L297.28,375.11L298.94,379.8L298.94,379.8L299.49,384.22L299.49,384.22L300.04,386.15L303.63,386.15L305.28,387.81L309.7,388.91L313.84,389.46L316.88,390.57L316.33,394.43L318.53,397.75L320.74,398.85L323.78,401.61L322.67,403.27L318.53,403.54L317.43,407.68L313.84,407.96L313.84,410.72L315.77,412.93L318.26,413.75L320.47,416.24L318.81,419.55L313.29,416.79L309.7,418.45L309.98,421.48L312.46,423.42L317.43,423.42L321.57,427.28L324.33,430.87L324.33,435.84L327.64,438.32L327.09,441.08L324.88,443.84L324.88,448.26L327.64,448.81L327.64,452.12L329.85,455.16L329.02,457.92L325.99,459.85L327.64,465.37L330.13,468.13L328.2,468.96L323.78,469.79L321.02,473.1L318.26,470.34L314.95,471.17L314.39,475.03L312.46,480.28L308.32,481.38L304.73,484.14L303.35,487.18L300.59,490.21L294.24,486.63L290.65,488.28L290.38,491.04L291.48,492.98L292.04,495.74L289.83,498.77L287.34,499.6L287.89,504.02L291.48,505.4L300.04,506.78L311.08,506.5L315.77,509.81L321.85,510.92L324.88,514.23L328.2,521.41z"/>
	</g>
</svg>