<?xml version="1.0" encoding="utf-8"?>
<!-- (c) ammap.com | SVG map of Kyrgyzstan - High -->
<svg xmlns="http://www.w3.org/2000/svg" xmlns:amcharts="http://amcharts.com/ammap" xmlns:xlink="http://www.w3.org/1999/xlink" version="1.1">
	<defs>
		<style type="text/css">
			.land
			{
				fill: #CCCCCC;
				fill-opacity: 1;
				stroke:white;
				stroke-opacity: 1;
				stroke-width:0.5;
			}
		</style>

		<amcharts:ammap projection="mercator" leftLongitude="69.259411" topLatitude="43.256543" rightLongitude="80.288715" bottomLatitude="39.169714"></amcharts:ammap>

		<!-- All areas are listed in the line below. You can use this list in your script. -->
		<!--{id:"KG-B"},{id:"KG-C"},{id:"KG-J"},{id:"KG-N"},{id:"KG-O"},{id:"KG-T"},{id:"KG-Y"}-->

	</defs>
	<g>
		<path id="KG-B" title="Batken" class="land" d="M142.21,279.98l0.97,0.51l2.46,-0.06l1.08,1.54l-0.12,0.89l0.64,0.25l3.48,-0.69l0.38,0.59l2.13,0.56l2.06,1.31l0.19,0.97l2.3,1.02l3.25,-0.45l1.14,3.88l0.91,1.03l2.06,0.4l3.6,-0.34l1.2,-0.91l0.06,-3.08l0.8,-0.57h1.49l1.43,0.8l1.26,2.91l0.63,2.06l-1.09,2.56l1.04,0.9l0.85,2.66h0.8l1.66,-2.17l2.34,-1.6l0.4,0.29l2.74,-2l0.91,-0.4l0.75,0.3l0.54,-0.49l0.03,-1.58l-1.43,-1.03l1.1,-1.75l2.96,-0.3l2.91,1.77l1.22,0.2l2.72,-2.6l2.91,-0.23l-0.27,-1.87l0,0l3.41,-1.63l6.43,-1.77h1.4l0.93,0.75l0.37,1.12l-1.02,4.19l1.49,1.86v0.75l-2.7,1.96l0.65,0.75l4.29,1.68l1.12,1.02l0.47,1.3v1.3l-2.98,2.61l3.07,1.02l0.93,0.65l0.37,1.02l-0.84,2.79l1.3,1.86l0.09,1.21l-1.58,4l0.09,1.3l3.91,0.75l2.61,1.68l1.96,4.94l1.58,2.05h1.3l1.12,-1.4l0.84,-0.28l1.58,0.65l0.28,0.93l1.02,0.84l-1.02,1.12l1.49,1.03l2.24,2.7l0.65,2.51l-0.93,0.65l-0.28,1.96l-2.42,1.58l-5.4,1.77l-0.75,0.93l-2.42,0.28l-2.33,2.79l-3.45,0.84l-0.93,0.75l-3.17,0.93l-2.14,-1.21l-3.26,-0.28l-1.68,0.19l-3.63,1.68l-1.58,-1.68l-3.82,-0.09l-3.54,-2.79l-2.7,-0.37l-3.17,0.47l-2.33,-1.96l-3.35,-0.47l-1.68,-0.75l-1.12,-0.84l-0.47,-1.58l-4.01,-0.56l-1.68,3.26l-1.21,0.75l-5.68,0.56l-0.84,0.56l-2.7,4.75l-0.37,2.89l-0.98,1.34l0,0l-1.41,-0.9l-0.8,0.06l0.06,1.26l-4.11,0.97l-0.69,2l-0.69,0.4l-2.97,-0.29l-2.08,0.8l-0.55,2.28l-1.77,2.11l-1.83,-0.23l-0.69,-1.31h-0.8l-4.11,2.29l-5.44,-0.69l-1.6,0.34l-0.74,0.51l-0.4,1.31l-0.51,5.6l-1.6,2l-1.49,0.34l-2.23,-0.34l-3.88,-2.11l-1.83,3.54l-1.66,-0.34l-0.8,-1.03l-1.03,-0.17l-2.11,1.94l-1.83,0.11l-2.69,-0.91l-2.17,-1.88l0.61,-5.06l-1.41,-1.96l-3.43,-1.88l-2.63,-5.77l-0.97,-0.69l-5.32,-1.02l-2.28,-2.46l-0.97,0.17l-0.8,1.14l-2.23,0.29l-1.17,1.23l-2.37,-0.32l-1.43,1.77l-3.54,-1.65l-1.03,2.1l-1.44,1.22l-1.65,2.67l-3.43,-0.06l-0.91,-0.8l-0.23,-2l-1.6,-1.37l-0.91,-0.06l-2.34,1.71l-0.97,-0.11l-3.43,-3.14l-2.53,1.46l-0.58,1.18l-2.15,-0.46l-1.82,2.68l-1.43,0.11l-1.2,-2.68l-2.11,-0.06l-2.8,-0.97l-0.8,0.51l-0.86,2.74l-1.81,0.81l-5.45,-4.18l-5.08,-1.71l-1.54,0.06l-1.2,1.14l-1.48,0.17l-1.6,-0.46l-0.61,-0.73l-1.34,0.33l-2.07,2.75l-1.28,0.11l-0.82,0.75l0.06,0.8l-1.94,-0.06l-2.87,0.92l-0.87,-0.65l-1.52,0.7l-2.17,-0.74l-0.86,-1.71H9.43l-0.62,2.51l-1.32,1.08l-1.94,-1.54l0.06,-1.88l0.86,-1.09l0.23,-1.6l-2.11,-6.28l-0.06,-4l-0.63,-2.29l-2.8,-3.51l0,-3.73l-1.03,-0.89L0,328.99l4.86,-5.51l-2.29,-3.23l1.31,-3.83l2.34,-1.91l0.63,-1.49l-1.6,-2.4l0.51,-0.69l0.8,0.34l1.14,1.94l1.77,-0.17l1.43,1.03l1.14,1.77l0.29,4.23l2.57,0.4l1.83,-1.57l1.66,-0.31l1.94,0.63l0.4,-0.46l-2.57,-3.94l-0.57,-2.4l0.91,-9.6l0.8,-0.63l1.49,0.11l2.11,1.37l5.03,-2l1.54,0.06l0.34,0.86l1.03,-0.11l1.94,-3.14l3.88,-2.28l4.68,-1.54l3,0.11l3.2,-0.8l6.11,-2.46l1.31,0.06l5.37,3.14l3.83,3.77l1.2,0.11l0.86,-0.91l1.14,0.46l0.23,1.43l1.31,1.43l4.34,-0.34l1.09,0.4l2.46,1.49l1.83,0.17l0.11,1.2l0.63,0.57l4.51,2.46l8.34,2.23l2.06,1.31l0.74,0.69l-0.4,1.43l-2.4,1.31l-3.37,2.86l-0.4,3.43l0.51,1.2l1.03,0.17l-0.15,-2.72l0.49,-1.79l0.69,-0.51l2.17,0.11l4.34,-2.46l-0.23,-1.89l1.31,-1.88l0.74,-6.83l2.17,-0.91l8.11,-1.6l1.09,-1.89l-0.23,-2.46l1.94,-0.69l0.8,0.69l1.57,-0.43l2.48,-1.62l5.54,-2.23l0.9,-2.34l-1.83,-3.08l0.46,-1.09l1.54,-0.51l4.86,-0.17l3.43,-2.11l2.51,-3.08l3.31,-0.34L142.21,279.98zM128.46,291.79l0.58,-1.12l0.04,-1.62l-0.73,-0.96l-0.77,0.96l0.42,2.39L128.46,291.79zM173.68,293.79l0.25,-0.95l-1.9,-0.55v1.25l0.5,0.15L173.68,293.79zM126.11,297.92l0.19,3.08l-0.58,4.32l0.62,2.31l1.16,1.62l1.46,0.85l3.01,0.46l0.85,0.5l0.15,0.85l-0.31,1.27l-1.04,0.42l1.35,2.58l-2.51,2.43l-0.58,1.97l-1.23,0.93l0.27,0.69l2,0.23l1.35,1.19l0.54,-0.66l-0.73,-0.85l0.19,-0.89l0.85,-1.04l1.04,0.23l-0.19,2.12l0.58,0.31l3.59,-0.5l2.39,-2.66l0.15,-0.69l-0.85,-0.85l0.15,-1.08l-0.81,-0.5l-4.16,0.15l-0.08,-0.73l1.46,-0.66l0.39,-0.81l-0.23,-1.08l-1.12,-1.23l1.7,-0.54l2.2,-1.54l0.31,-0.66l-0.35,-1.04l-4.05,2l-0.89,-0.08l-1.58,-6.25l-1.47,-0.66l-0.77,-1l-0.62,-3.2l-1.58,-3.12l-2.16,-1.04l-1.04,0.58l0.19,0.73L126.11,297.92zM178.78,317.91l2.74,-1.92l3.63,0.48l0.96,-2.19l-5.21,-4.32l-0.75,0.89l0.82,2.26l-1.51,1.23l-2.54,0.62l-0.27,1.1L178.78,317.91zM91.24,323.2l-0.61,1.22l1.62,2.84l0.32,2.63l1.04,0.17l2.4,-0.93l0.58,0.35l0.49,0.98l-0.87,2.43l0.26,1.16l2.23,-1.5l2.43,-3.47l3.33,-1.42l1.56,-2.08l-0.43,-1.42l-1.13,-0.23l-3.07,0.84l-2.49,-0.06l-5.44,-1.68L91.24,323.2z"/>
		<path id="KG-C" title="Chü" class="land" d="M358.32,1.83L360.32,1.83L362.38,4.51L364.2,4.34L364.2,5.26L364.78,5.66L365.63,6.11L366.6,5.88L367.06,6.68L367.97,6.46L370.32,9.03L373.06,10.05L373.57,10.97L375.57,10.4L376.77,11.43L381.69,12.74L382.14,14.17L386.43,19.54L388.48,21.37L390.37,22.11L391.57,24.28L394.25,26.05L395.68,26.28L397.34,25.54L398.31,25.82L400,24.96L400.97,25.25L406,27.54L407.08,28.62L414.17,32.33L419.37,33.82L422.74,36.16L425.99,37.08L428.33,38.96L432.79,38.73L436.96,39.93L440.09,39.93L445.75,41.19L449.06,40.73L464.6,44.84L466.94,41.47L467.96,40.86L469.42,34.82L471.01,32.79L473.34,30.96L478.82,29.42L480.02,29.76L481.33,31.76L484.24,32.1L486.35,33.76L488.01,33.76L494.01,32.1L498.01,32.22L499.09,33.08L504.58,33.19L505.78,33.88L506.38,37.79L507.6,38.45L509.55,38.56L519.25,35.77L520.17,33.99L520.97,33.46L526.26,34.36L527.59,33.65L530.32,34.36L535.98,34.33L537.58,33.36L538.26,32.19L538.38,30.45L539.13,29.76L543.18,29.48L544.27,27.54L545.12,27.42L550.15,28.28L551.87,27.19L554.94,26.76L556.02,27.22L557.69,29.76L558.78,29.65L561.17,27.62L565.45,27.96L566.71,28.31L567.16,30.42L569.12,30.68L572.02,32.97L571.17,34.28L568.44,34.96L565.26,37.8L563.78,42.57L562.65,43.14L559.92,42.69L549.35,44.05L547.88,44.5L547.19,45.3L544.24,44.96L539.7,47L537.99,47.23L533.11,46.55L530.49,47.69L528.11,47.35L526.29,48.14L522.77,47.57L520.72,48.03L519.7,47.12L517.77,47L517.66,49.28L514.93,49.62L513.34,50.41L510.84,50.07L508.91,52.12L502.32,56.32L500.5,58.37L498,59.5L497.66,62.12L496.64,62.8L495.16,63.25L493.57,62.57L490.27,62.57L488.34,63.02L487.21,63.93L482.66,64.73L481.87,65.64L478,65.52L475.39,66.09L472.89,64.96L470.62,64.61L470.05,65.86L470.62,68.14L470.5,70.18L466.98,70.3L465.62,71.43L464.14,71.43L463.23,72.23L461.76,75.64L458.12,78.25L456.87,79.73L452.89,81.43L451.42,80.52L450.17,80.41L449.6,79.38L449.71,78.36L448.69,78.13L448.24,78.93L446.99,79.5L445.05,80.07L443.12,79.73L441.53,80.29L438.92,78.48L437.78,79.95L434.6,80.07L431.88,81.2L426.88,79.38L423.7,80.18L422.33,79.73L421.42,78.7L418.36,80.86L415.52,80.98L414.38,79.27L413.24,78.93L410.97,80.18L405.86,79.38L404.72,79.95L397.11,80.63L397.45,82.23L399.72,84.84L400.52,87L401.88,88.81L402.34,91.43L401.31,92.22L399.5,91.77L395.75,92.22L394.04,93.02L391.66,96.09L388.93,98.24L386.09,97.79L381.14,99.55L378.75,99.44L375.57,100.23L373.18,99.67L370.46,100.57L367.73,100.8L364.66,100.23L362.73,109.21L363.87,110.23L367.16,111.71L367.5,112.73L366.59,113.07L365.68,114.55L364.21,114.89L362.84,116.03L362.28,117.16L363.18,120.57L362.5,122.27L359.78,123.64L358.82,129.15L356.89,129.49L354.5,128.81L353.14,129.38L352,130.4L350.19,135.85L348.94,136.76L347.46,135.06L349.16,130.17L348.71,129.6L344.85,130.28L343.37,129.94L342.69,128.35L339.96,125.85L338.83,124.04L337.12,125.74L335.98,125.51L334.17,126.31L329.05,126.31L328.26,125.63L325.31,126.31L324.64,125.94L324.64,125.94L324.57,123.89L323.96,123.21L323.5,121L322.44,120.47L319.24,120.01L310.96,121.99L309.74,121.08L308.75,121L307.91,121.91L305.71,121.69L304.42,120.32L302.36,120.47L295.52,118.34L294.07,118.72L292.48,117.35L291.64,113.93L290.42,112.26L282.59,110.13L279.34,110.43L277.11,109.55L277.11,109.55L276.75,107.8L277.24,105.04L273.99,103.86L272.62,101.99L272.91,96.87L273.7,96.18L278.03,97.56L282.46,93.72L283.54,93.52L285.02,94.12L288.56,92.84L292.7,93.92L295.35,91.56L299.49,91.26L303.92,92.74L311.3,90.18L312.48,88.8L312.68,85.65L315.44,82.3L316.13,80.24L316.13,78.37L313.86,76.79L312.58,77.87L311.5,77.68L310.81,75.81L309.73,74.72L308.35,75.02L308.25,77.18L307.17,80.53L306.38,80.83L305.3,80.28L305.43,78.78L302.75,76.21L300.12,71.09L298.92,66.7L298.98,61.33L300.65,56.98L300.98,53.97L303.15,49.73L304.79,47.67L305.54,40.05L305.09,36.56L304.13,34.33L304.59,32.16L307.21,29.53L307.09,24.91L307.9,22.91L311.44,22.05L314.08,20.61L316.24,18.51L319.9,16.62L324.3,13.37L324.96,14.22L326.33,14.68L327.3,13.65L332.75,14.17L334.29,12.62L334.61,11.57L335.16,11.74L337.53,4.91L340.84,6.11L342.15,8.28L343.93,9.19L345.41,8.68L346.95,7.25L354.32,6.86L355.41,6.34L355.86,5.26L353.81,1.6L354.26,0L356.04,1.26z"/>
		<path id="KG-J" title="Jalal-Abad" class="land" d="M216.05,101.01L222.85,102.09L224.32,102.97L226.19,105.83L227.57,106.22L231.02,105.24L233.97,107.5L235.74,107.31L239.97,109.57L244.7,109.18L249.72,111.64L255.98,116.46L261,115.87L261.89,112.92L264.64,111.64L266.81,108.68L267.5,108.49L269.07,110.06L271.04,108.78L271.83,110.26L273.21,109.96L274.78,110.55L277.11,109.55L277.11,109.55L279.34,110.43L282.59,110.13L290.42,112.26L291.64,113.93L292.48,117.35L294.07,118.72L295.52,118.34L302.36,120.47L304.42,120.32L305.71,121.69L307.91,121.91L308.75,121L309.74,121.08L310.96,121.99L319.24,120.01L322.44,120.47L323.5,121L323.96,123.21L324.57,123.89L324.64,125.94L324.64,125.94L325.48,126.4L324.26,128.45L320.31,132.56L320.46,133.09L324.26,135.07L325.4,135.14L326.62,134.08L327.23,134.16L329.58,136.36L332.25,135.75L333.16,136.21L336.05,136.21L337.26,137.12L337.72,138.64L337.42,141.76L339.24,145.64L340.84,146.7L344.87,146.7L345.86,147.39L345.32,151.34L345.93,152.79L346.31,157.8L345.4,160.08L344.26,160.16L342.74,158.11L342.74,156.66L343.58,154.91L343.04,153.85L340.69,151.87L336.81,151.04L334.68,149.59L332.78,150.2L332.7,151.04L335.36,157.12L337.46,158L337.87,159.35L339.22,160.7L342.47,162.87L345.04,163.27L348.69,162.73L350.86,163.14L353.7,164.9L355.73,163.54L362.62,162.87L366.55,163.95L368.3,165.44L369.79,165.44L372.5,162.06L376.15,161.11L382.1,160.84L384.67,160.03L386.56,158L389.41,156.51L391.03,156.11L393.19,156.51L392.65,159.08L391.43,160.98L391.84,165.84L389.54,171.66L389.27,176.12L388.46,178.02L384.94,180.18L383.99,181.54L380.75,181.67L378.31,183.83L372.63,184.65L368.57,187.35L362.49,188.7L361.95,190.73L364.11,193.98L364.79,197.63L361.41,197.09L357.35,198.17L352.88,198.44L350.86,198.04L349.77,199.93L348.15,200.34L346.93,201.42L346.66,202.64L342.6,203.31L341.93,204.66L342.06,206.42L343.01,208.05L347.34,211.29L347.34,212.78L344.09,215.35L342.06,218.33L341.52,220.08L340,218.06L337.28,217.99L335.27,216.96L332.23,216.24L331.84,210.47L331.45,209.57L329.92,208.79L329.85,206.33L327.85,205.42L326.81,205.61L326.74,207.49L325.51,208.59L325.25,210.47L319.74,215.92L318.25,222.27L317.28,222.27L313.65,220.58L311.97,218.45L309.57,216.63L309.57,215.33L312.16,212.16L316.57,209.57L317.35,208.34L316.57,205.61L315.14,203.99L314.43,204.12L311,205.35L310.8,206.07L312.16,207.82L312.16,208.92L311.51,209.57L305.62,208.72L302.18,208.79L299.65,207.95L298.03,209.24L297.9,211.25L297.39,211.9L295.38,212.74L295.38,213.58L293.95,215.01L291.1,214.56L286.3,215.53L285.33,216.7L284.49,219.81L284.62,223.37L285.59,225.25L285.4,226.94L284.1,229.2L281.05,229.72L278.4,232.53L268.52,231.66L267.23,232.96L267.2,233.59L265.68,234.73L265.49,235.65L264.46,236.33L263.15,236.28L261.38,235.19L258.42,230.66L257.32,230.28L256.58,230.33L256.18,231.13L249.84,232.96L247.44,232.85L238.81,230.16L238.18,230.51L237.44,229.93L238.78,226.56L238.35,224.36L234.47,220.25L232.64,220.19L232.59,217.91L231.58,216.18L228.24,214.28L225.04,215L222.71,212.05L221.93,211.71L221.15,211.99L220.31,213.5L218.07,214.94L215.16,216.6L212.19,217.22L211.39,218.25L210.13,218.48L207.96,217.4L207.76,216.29L209.99,215.9L212.59,213.11L212.55,211.13L210.1,208.62L209.76,207.45L210.27,205.6L209.93,202.65L208.48,201.64L205.87,201.87L204.34,202.82L202.29,205.27L200.5,204.93L196.3,202.57L192.36,203.14L188.87,201.37L187.33,197.77L188.5,195.73L190.24,194.12L191.04,191.49L190.96,190.54L188.78,187.41L188.34,185.91L189.39,185.03L188.93,183.43L187.1,184.18L185.5,184.06L184.99,181.13L182.36,177.78L182.13,175.38L181.39,175.04L180.36,175.78L180.65,178.18L180.02,178.18L178.65,175.61L176.99,175.32L176.3,176.29L177.05,178.35L176.3,179.38L175.16,178.86L174.83,177.23L175.31,175.92L177.73,173.32L177.57,169.08L178.18,168.69L178.25,165.95L176.88,165.9L175.62,167.27L174,168.02L173.44,169.97L172.48,170.81L169.68,171.78L169.85,172.92L172.19,172.92L173.28,173.95L173.05,177.45L171.87,179.68L172.49,181.8L172.21,182.7L171.21,182.86L170.48,185.2L168.99,184.8L168.88,186.92L167.79,188.29L165.6,189.8L163.14,188.89L161.09,189.75L158.74,189.06L156.57,190.49L156.63,191.8L157.14,191.96L156.81,193.24L157.14,194.77L158.43,196.2L158.17,197.69L156.52,199.34L158.86,202.31L156.4,206.6L155.37,207L153.54,206.14L152.92,202.6L151.03,201.34L148.29,202.54L147.49,205.23L146.29,205.11L145.38,204.2L145.15,200.34L143.78,199.6L143.09,199.54L142.18,200.34L141.57,199.61L138.54,199.31L135.69,201.14L135.34,202.97L133.46,203.66L132.32,203.51L130.32,200.94L128.49,199.91L125.63,199.63L123.58,201.43L120.83,201.11L120.03,199.4L117.75,197.86L115.64,194.72L114.89,194.54L112.49,194.6L111.83,195.09L111.16,197.09L109.98,198.54L109.38,197.71L109.41,194.03L108.09,192.94L108.09,190.96L109.12,188L108.84,181.63L104.1,174.04L101.58,173.46L99.41,174.21L98.46,174.01L98.44,174.55L95.13,175.01L91.13,179.52L88.84,179.86L86.73,178.83L85.76,176.08L81.53,172.89L80.37,172.95L78.71,170.21L77.34,170.67L74.25,168.27L72.66,169.19L71.57,170.67L70.31,170.72L67.51,169.81L65.96,168.47L66.02,164.73L68.48,162.44L68.94,159.47L73.28,159.18L75.45,157.58L78.14,157.01L79.79,155.87L82.48,151.87L84.88,151.01L86.76,148.96L88.93,149.01L90.12,146.73L89.79,144.63L90.24,142.21L91.45,141.16L94.48,139.85L95.87,138.14L96.25,136.82L99.33,134.64L100.28,132.22L101.73,130.76L104.82,129.73L107.33,130.13L107.87,128.54L108.59,128.42L111.79,129.85L113.44,129.45L114.9,127.03L115.01,125.08L113.78,121.51L115.27,116.77L121.5,119.11L123.61,119.05L125.61,118.31L126.36,116.77L130.41,113.88L132.41,113.25L133.15,111.65L137.44,108.63L140.29,108.4L142.88,106.77L143.64,105.89L144.15,102.77L146.36,101.7L151.18,101.99L152.66,102.29L155.52,104.06L159.65,104.35L162.01,102.78L165.75,102.68L168.8,101.3L170.28,101.4L174.91,103.27L177.76,106.13L188.69,108.59L195.48,112.13L198.14,112.92L201.68,115.57L205.42,115.67L206.31,116.76L209.56,115.57L210.74,113.8L211.13,112.13L210.74,108.59L211.13,106.72L213.3,103.27L213.2,101.7L214.28,100.81z"/>
		<path id="KG-N" title="Naryn" class="land" d="M449.68,79.38L450.25,80.41L451.5,80.52L452.97,81.43L456.95,79.73L458.15,78.31L458.15,78.31L459.89,80.19L464.31,81.66L465.71,83.29L467.49,83.05L467.65,85.23L469.35,85.54L469.58,86.78L475.63,86L476.48,83.21L477.26,82.9L482.38,83.52L483.07,84.22L482.14,89.49L482.84,89.88L482.53,91.58L482.92,94.3L484.63,98.72L484.39,100.81L488.35,103.37L488.35,106.08L492.61,107.71L493,108.33L493,109.65L491.45,112.83L491.14,114.61L490.44,115.54L489.04,115.62L487.03,119.11L487.11,119.96L490.13,120.73L493.39,119.42L495.87,119.49L497.18,118.02L499.04,118.02L501.12,118.53L505.7,120.77L506.86,120.31L511.28,120.93L511.82,122.17L513.22,123.02L515.93,123.41L517.25,122.56L517.95,122.71L518.96,123.64L521.98,124.65L523.22,126.12L526.79,127.13L527.41,128.53L528.34,128.84L529.81,127.75L530.27,128.06L530.74,129.92L530.35,131.01L528.41,132.25L528.34,134.42L527.79,135.5L526.71,136.12L521.82,136.28L520.04,135.81L519.27,136.28L517.87,139.23L518.49,142.09L518.02,143.65L518.33,145.2L519.73,144.65L525.47,145.51L530.66,144.96L531.52,143.65L533.07,142.71L534.85,143.33L535.93,144.34L536.63,145.66L536.87,147.99L536.24,149.07L534.46,150.24L533.76,151.86L534,152.72L536.4,154.11L536.71,154.96L535.08,159.81L535,161.59L536.4,161.83L538.03,160.28L538.73,160.43L541.05,163.53L547.1,163.61L554.15,162.45L555.16,162.76L556.48,164.23L558.34,164.69L562.14,162.14L571.96,163.38L576.68,162.45L578.86,160.82L580.17,158.34L580.79,158.34L582.19,162.6L580.25,168.18L579.71,169.27L575.68,169.11L576.92,169.5L578,171.21L580.17,179.35L582.81,180.74L584.05,181.05L585.76,180.59L587,181.13L588,182.91L586.61,185.94L586.53,188.5L585.83,189.89L584.13,191.68L582.03,192.92L582.19,194.47L582.89,194.78L590.33,191.21L600.41,189.19L601.73,190.28L604.05,191.06L602.81,192.53L602.81,195.86L605.45,198.27L610.1,197.72L610.95,197.18L615.84,197.88L618.32,197.57L623.75,199.82L626.23,200.28L629.56,198.03L633.13,196.71L633.83,195.86L638.17,195.24L638.63,195.86L639.87,195.94L638.94,198.5L639.41,200.67L640.26,201.99L642.2,203.54L644.05,203.98L644.05,203.98L643.21,207.4L642.3,207.67L639.94,210.2L635.1,210.83L631.9,213.85L630.93,213.85L628.41,211.63L625.27,211.23L622.56,211.57L621.16,211.23L619.5,209.97L618.19,209.97L617.84,210.94L615.56,211.68L615.66,212.19L612.19,213.4L610.81,215.28L608.11,214.81L606.42,215.62L605.45,216.77L601.33,216.54L596.65,217.91L595.05,217.22L590.62,217.74L589.25,217.34L589.38,216.02L585.7,215.62L584.9,214.54L582.11,214.08L575.94,217.22L572.34,215.11L570.34,215.17L567.82,216.42L566.62,216.08L565.48,215.28L563.71,215L562.97,212.83L560.4,211.57L556.57,211.68L556,211.05L554.63,211.11L551.77,214.14L549.93,215.27L548.2,214.98L548.46,215.68L546.12,215.4L545.14,216.88L544.97,219.77L542.57,219.82L542.12,221.19L539.32,222.17L538,226.51L538.35,231.76L536.52,232.73L536.82,234.41L535.78,235.59L535.43,237.19L530.86,240.45L530.98,243.13L532.75,245.7L530.58,250.5L530.9,252.39L529.83,254.1L528.12,254.73L526.98,257.13L525.38,257.87L523.89,260.1L522.35,263.81L522.58,267.01L521.67,268.55L519.78,269.98L519.67,271.01L515.95,273.18L515.32,275.01L512.58,276.21L509.55,276.21L507.96,279.41L506.64,278.32L506.47,274.72L504.53,273.41L501.5,272.89L500.07,273.06L498.05,275.35L494.96,277.52L488.4,276.26L485.48,278.55L484.74,278.21L483.54,276.32L481.65,275.86L480.74,276.44L479.6,279.18L478.4,280.61L478.51,283.18L477.67,283.95L476.11,282.78L472.34,282.83L471.66,281.75L471.26,282.15L470.46,281.29L467.6,283.29L464.75,283.4L462.57,285.03L461.77,284.83L460.92,279.69L459.77,277.69L459.77,276.72L460.74,273.98L460.46,272.89L462.8,270.21L463.54,267.58L460.48,264.78L458.69,264.03L457.81,262.44L456.95,259.07L456.61,252.44L455.87,250.67L453.58,249.53L450.67,250.79L446.5,253.76L441.93,259.07L439.88,260.17L437.64,260.55L436.04,261.7L433.42,264.21L433.02,265.92L431.05,266.35L429.57,268.24L427.17,269.78L423.17,268.75L421.11,268.75L417.57,270.07L415.4,269.84L413.51,268.47L411.06,268.98L409.4,268.58L404.4,264.01L401.6,262.75L402.74,263.27L400.28,262.64L399.18,263.6L396.79,262.58L395.69,262.58L394.33,263.55L388.3,263.03L387.2,261.48L385.25,261.35L384.48,260.77L383.24,261.09L382.08,259.86L381.23,260.31L380.72,260.05L380.26,257.98L381.62,254.74L381.1,253.7L380,252.66L378.71,252.53L376.96,251.24L374.3,250.59L372.36,250.91L370.15,248.26L368.08,248.19L366.52,246.31L364.25,245.54L361.34,239.7L359.72,240.03L358.94,239.57L357.71,236.07L357.26,235.62L355.77,235.62L354.34,234.58L353.95,231.47L351.88,229.01L350.06,228.36L348.05,226.03L346.11,225.77L344.94,222.2L341.9,220.71L341.6,220.08L342.95,216.97L345.25,214.27L347.42,212.78L347.42,211.29L343.09,208.05L342.14,206.42L342.01,204.66L342.68,203.31L346.74,202.64L347.01,201.42L348.23,200.34L349.85,199.93L350.93,198.04L352.96,198.44L357.43,198.17L361.48,197.09L364.87,197.63L364.19,193.98L362.02,190.73L362.57,188.7L368.65,187.35L372.71,184.65L378.39,183.83L380.83,181.67L384.07,181.54L385.02,180.18L388.54,178.02L389.35,176.12L389.62,171.66L391.92,165.84L391.51,160.98L392.73,159.08L393.27,156.51L391.11,156.11L389.48,156.51L386.64,158L384.75,160.03L382.18,160.84L376.23,161.11L372.58,162.06L369.87,165.44L368.38,165.44L366.62,163.95L362.7,162.87L355.8,163.54L353.77,164.9L350.93,163.14L348.77,162.73L345.12,163.27L342.55,162.87L339.3,160.7L337.95,159.35L337.54,158L335.44,157.12L332.78,151.04L332.86,150.2L334.76,149.59L336.89,151.04L340.76,151.87L343.12,153.85L343.65,154.91L342.82,156.66L342.82,158.11L344.34,160.16L345.48,160.08L346.39,157.8L346.01,152.79L345.4,151.34L345.93,147.39L344.95,146.7L340.92,146.7L339.32,145.64L337.49,141.76L337.8,138.64L337.34,137.12L336.13,136.21L333.24,136.21L332.32,135.75L329.66,136.36L327.3,134.16L326.7,134.08L325.48,135.14L324.34,135.07L321.15,133.62L320.39,132.56L324.34,128.45L325.39,126.31L328.34,125.63L329.13,126.31L334.24,126.31L336.06,125.51L337.2,125.74L338.9,124.04L340.04,125.85L342.77,128.35L343.45,129.94L344.92,130.28L348.79,129.6L349.24,130.17L347.54,135.06L349.01,136.76L350.26,135.85L352.08,130.4L353.22,129.38L354.58,128.81L356.97,129.49L358.9,129.15L359.85,123.64L362.58,122.27L363.26,120.57L362.35,117.16L362.92,116.03L364.28,114.89L365.76,114.55L366.67,113.07L367.58,112.73L367.24,111.71L363.94,110.23L362.81,109.21L364.74,100.23L367.81,100.8L370.53,100.57L373.26,99.67L375.65,100.23L378.83,99.44L381.21,99.55L386.17,97.79L389.01,98.24L391.73,96.09L394.12,93.02L395.82,92.22L399.57,91.77L401.39,92.22L402.41,91.43L401.96,88.81L400.6,87L399.8,84.84L397.53,82.23L397.19,80.63L404.8,79.95L405.94,79.38L411.05,80.18L413.32,78.93L414.46,79.27L415.59,80.98L418.43,80.86L421.5,78.7L422.41,79.73L423.77,80.18L426.95,79.38L431.95,81.2L434.68,80.07L437.86,79.95L439,78.48L441.61,80.29L443.2,79.73L445.13,80.07L447.06,79.5L448.31,78.93L448.77,78.13L449.79,78.36z"/>
		<path id="KG-O" title="Osh" class="land" d="M399.03,263.6L398.99,264.16L398.47,264.18L398.47,267.9L396.64,269.72L396.76,270.41L401.29,274.46L402.75,276.97L405.03,278.55L404.84,279.92L403.87,280.01L402.04,281.21L400.76,281.03L398.59,279.07L397.82,278.92L390.77,279.07L390.15,279.46L390.36,282.14L387.73,286L386.59,286.36L385.84,285.42L383.9,285.15L382.02,285.55L378.13,291.6L374.7,293.57L372.42,296.89L368.13,300.14L366.74,301.82L364.6,302.71L363.58,302.71L361.58,301.23L360.2,301.87L358.26,299.57L349.69,301.63L348.44,302.26L348.38,302.83L347.01,303.91L345.47,304.37L343.07,302.83L342.44,303L339.71,307.71L335.81,309L335.76,310.03L338.26,311.11L338.5,312.71L334.67,317.4L333.93,319.25L334.73,323.51L333.01,325.05L332.1,324.94L330.1,326.48L328.79,331.96L329.24,334.59L332.5,335.62L333.8,336.96L335.93,342.82L336.84,346.93L336.61,350.24L334.56,350.24L334.1,350.81L333.53,353.47L331.99,354.67L332.5,355.98L331.76,357.64L331.7,360.67L330.16,361.47L321.7,362.73L318.56,362.55L314.85,361.47L313.13,362.44L310.46,362.27L309.03,363.18L306.8,361.87L302.23,361.98L299.72,363.53L296.86,363.92L294.52,365.18L293.95,366.04L294.06,368.27L292.69,370.15L287.61,369.87L286.47,371.35L282.35,372.84L280.24,372.72L277.05,371.29L275.45,371.35L271.51,372.89L268.54,372.21L265.28,373.35L263.34,371.87L262.14,371.92L259.63,373.58L256.94,372.38L253.69,373.64L251.06,371.52L247.12,370.09L241.52,369.29L240.21,370.61L239.58,372.27L238.44,373.01L237.12,373.07L235.98,370.78L233.06,370.61L231.29,371.58L231.41,373.52L231.01,373.87L227.07,373.87L224.38,375.12L221.53,375.35L220.55,376.21L219.56,377.46L218.13,381.52L214.38,388.55L213.39,388.72L212.71,388.15L211.85,384.21L211.16,383.46L209.96,383.35L209.16,381.12L205.11,380.83L203.79,380.26L202.88,379.18L201.51,372.84L200.82,372.15L199.11,372.27L196.6,373.75L195.4,373.75L191.68,376.55L190.26,378.59L184.77,379.23L183.97,379.92L182.48,379.52L180.85,377.77L179.17,374.26L179.69,372.67L182.03,370.49L183.06,368.32L181.07,363.06L179.86,362.41L172.37,364.13L168.83,363.27L168.03,364.18L165.69,363.55L163.92,359.38L163.8,357.9L165.58,354.87L165.67,352.36L165.05,351.08L161.54,348.86L161.54,348.86L162.51,347.52L162.89,344.63L165.59,339.88L166.43,339.32L172.11,338.76L173.32,338.02L175,334.76L179,335.31L179.47,336.9L180.59,337.74L182.26,338.48L185.62,338.95L187.94,340.9L191.11,340.44L193.81,340.81L197.35,343.6L201.17,343.7L202.76,345.38L206.39,343.7L208.07,343.51L211.33,343.79L213.47,345L216.64,344.07L217.57,343.33L221.01,342.49L223.34,339.69L225.76,339.41L226.51,338.48L231.91,336.71L234.33,335.13L234.61,333.17L235.54,332.52L234.89,330L232.66,327.3L231.17,326.28L232.19,325.16L231.17,324.32L230.89,323.39L229.3,322.74L228.47,323.02L227.35,324.42L226.04,324.42L224.46,322.37L222.5,317.43L219.9,315.75L215.98,315.01L215.89,313.7L217.47,309.7L217.38,308.49L216.08,306.62L216.92,303.83L216.54,302.8L215.61,302.15L212.54,301.13L215.52,298.52L215.52,297.22L215.05,295.91L213.93,294.89L209.65,293.21L209,292.46L211.7,290.51L211.7,289.76L210.21,287.9L211.23,283.71L210.86,282.59L209.93,281.85L208.53,281.85L202.1,283.62L198.69,285.25L198.69,285.25L195.25,283.12L194.62,282.43L194.79,281.98L197.67,278.59L198.96,278.32L200.9,275.75L200.5,274.38L202.27,272.44L202.62,270.09L205.87,270.21L205.99,269.29L208.57,267.69L209.04,266.93L208.68,266.04L209.71,265.75L211.08,266.61L213.88,266.61L214.11,269.29L216.05,271.18L217.14,271.69L217.82,271.12L219.14,271.18L221.37,272.89L222.39,274.38L223.36,274.66L223.71,275.46L225.82,274.89L225.31,272.44L225.54,271.29L227.25,269.28L227.31,265.47L226.94,264.35L224.79,263.98L225.08,262.44L225.82,261.7L224.11,257.87L221.82,256.56L222.34,255.58L224.39,255.64L224.85,254.04L225.88,254.38L228.42,257.58L228.99,259.87L230.53,261.18L231.5,260.84L231.61,259.18L232.53,258.78L233.56,260.67L238.58,262.5L240.7,264.15L242.41,264.38L244.3,263.75L245.04,261.18L245.1,256.9L246.07,256.84L246.81,257.81L249.55,257.88L250.75,256.9L250.64,255.58L252.07,250.9L250.52,249.3L250.64,248.56L251.67,247.93L252.75,249.19L253.72,249.07L257.15,247.76L258.46,244.73L263.25,243.47L263.78,242.56L265.78,241.36L268.81,240.33L274.47,239.53L276.24,238.96L277.5,237.82L279.1,234.79L278.32,232.53L280.97,229.72L284.02,229.2L285.32,226.94L285.51,225.25L284.54,223.37L284.41,219.81L285.25,216.7L286.22,215.53L291.02,214.56L293.87,215.01L295.3,213.58L295.3,212.74L297.31,211.9L297.82,211.25L297.95,209.24L299.57,207.95L302.1,208.79L305.54,208.72L311.43,209.57L312.08,208.92L312.08,207.82L310.72,206.07L310.92,205.35L315.06,203.99L317.01,206.39L317.27,208.34L316.49,209.57L312.08,212.16L309.49,215.33L309.49,216.63L311.89,218.45L313.57,220.58L317.2,222.27L318.17,222.27L318.63,221.69L319.08,217.15L320.31,214.88L325.17,210.47L325.43,208.59L326.66,207.49L326.73,205.61L329.06,205.74L329.78,206.33L329.84,208.79L331.37,209.57L331.76,210.47L332.15,216.24L335.19,216.96L337.2,217.99L339.92,218.06L341.74,220.71L344.78,222.2L345.95,225.77L347.9,226.03L349.9,228.36L351.72,229.01L353.79,231.47L354.18,234.58L355.61,235.62L357.1,235.62L357.55,236.07L358.78,239.57L359.56,240.03L361.18,239.7L364.1,245.54L366.37,246.31L367.92,248.19L370,248.26L372.2,250.91L374.14,250.59L379.85,252.66L381.47,254.74L380.11,257.98L380.56,260.05L381.08,260.31L381.92,259.86L383.09,261.09L384.32,260.77L385.1,261.35L387.04,261.48L388.14,263.03L394.17,263.55L395.53,262.58L396.63,262.58z"/>
		<path id="KG-T" title="Talas" class="land" d="M193.03,44.24L194.48,44.87L196.14,46.53L201.22,47.67L202.99,49.84L204.76,50.59L208.48,50.87L210.93,49.21L215.73,48.93L223.62,51.3L230.19,54.84L232.24,56.73L234,57.53L234.86,56.84L241.03,56.5L247.37,59.64L249.25,59.81L251.48,61.01L256.11,67.64L259.88,68.27L261.08,68.72L261.59,69.52L263.36,70.04L267.19,70.49L269.78,69.73L271.76,70.32L278.05,69.58L283.19,71.58L289.99,72.32L290.84,73.86L291.33,78.83L294.08,80.15L302.39,81.58L303.31,81.52L305.22,80.28L306.3,80.83L307.09,80.53L307.68,78.86L308.27,75.02L309.65,74.72L310.73,75.81L311.42,77.68L312.5,77.87L313.78,76.79L314.86,77.18L316.04,78.37L316.04,80.24L315.36,82.3L312.6,85.65L312.4,88.8L311.22,90.18L303.84,92.74L299.41,91.26L295.27,91.56L292.62,93.92L288.48,92.84L284.94,94.12L283.46,93.52L282.38,93.72L277.95,97.56L273.62,96.18L272.83,96.87L272.54,101.99L273.91,103.86L277.16,105.04L276.67,107.8L277.16,109.47L274.7,110.55L273.13,109.96L271.75,110.26L270.96,108.78L268.99,110.06L267.42,108.49L266.73,108.68L264.56,111.64L261.81,112.92L260.92,115.87L257.28,116.46L255.9,116.46L249.64,111.64L244.62,109.18L239.89,109.57L235.66,107.31L233.89,107.5L230.94,105.24L227.49,106.22L226.11,105.83L224.24,102.97L221.09,101.5L218.34,101.6L214.2,100.81L213.12,101.7L213.22,103.27L211.05,106.72L210.66,108.59L211.05,112.13L210.66,113.8L209.48,115.57L206.23,116.76L205.34,115.67L201.6,115.57L198.06,112.92L195.4,112.13L188.61,108.59L177.68,106.13L174.83,103.27L170.2,101.4L168.73,101.3L165.67,102.68L161.93,102.78L159.57,104.35L157.31,104.35L155.44,104.06L152.58,102.29L151.1,101.99L146.28,101.7L144.08,102.77L142.27,100.4L140.5,100.11L138.5,98.8L136.73,96.8L133.3,94.74L128.39,94.23L127.36,94.57L125.47,97.03L123.7,97.83L122.33,97.6L120.5,96.4L118.67,97.31L117.59,97.26L117.02,95.09L115.76,94.17L115.25,92.29L117.13,87.43L119.07,87.03L119.14,86.07L120.45,85.49L121.96,83.87L121.59,82.86L120.16,82.01L120.12,80.97L122.79,79.21L123.82,74.98L125.42,74.75L129.19,76.86L130.79,76.69L130.96,74.81L130.5,73.95L128.44,70.98L125.87,68.52L125.42,67.44L125.82,65.95L126.96,64.58L128.33,64.24L133.7,65.21L137.7,64.07L137.81,56.84L140.44,56.24L142.5,54.41L144.15,51.56L144.44,48.64L145.64,48.3L148.55,49.04L150.67,48.64L153.64,45.73L156.55,45.67L157.64,46.24L159.41,46.3L163.69,44.87L166.24,46.83L168.95,47.73L170.01,46.19L172.18,45.27L172.92,43.96L176.98,44.36L184.18,41.73L189.95,42.7z"/>
		<path id="KG-Y" title="Ysyk-Köl" class="land" d="M644.05,203.98L642.2,203.54L640.26,201.99L639.41,200.67L638.94,198.5L639.87,195.94L638.63,195.86L638.17,195.24L633.83,195.86L633.13,196.71L629.56,198.03L626.23,200.28L623.75,199.82L618.32,197.57L615.84,197.88L610.95,197.18L610.1,197.72L605.45,198.27L602.81,195.86L602.81,192.53L604.05,191.06L601.73,190.28L600.41,189.19L590.33,191.21L582.89,194.78L582.19,194.47L582.03,192.92L584.13,191.68L585.83,189.89L586.53,188.5L586.61,185.94L588,182.91L587,181.13L585.76,180.59L584.05,181.05L582.81,180.74L580.17,179.35L578,171.21L576.92,169.5L575.68,169.11L579.71,169.27L580.25,168.18L582.19,162.6L580.79,158.34L580.17,158.34L578.86,160.82L576.68,162.45L571.96,163.38L562.14,162.14L558.34,164.69L556.48,164.23L555.16,162.76L554.15,162.45L547.1,163.61L541.05,163.53L538.73,160.43L538.03,160.28L536.4,161.83L535,161.59L535.08,159.81L536.71,154.96L536.4,154.11L534,152.72L533.76,151.86L534.46,150.24L536.24,149.07L536.87,147.99L536.63,145.66L535.93,144.34L534.85,143.33L533.07,142.71L531.52,143.65L530.66,144.96L525.47,145.51L519.73,144.65L518.33,145.2L518.02,143.65L518.49,142.09L517.87,139.23L519.27,136.28L520.04,135.81L521.82,136.28L526.71,136.12L527.79,135.5L528.34,134.42L528.41,132.25L530.35,131.01L530.74,129.92L530.27,128.06L529.81,127.75L528.34,128.84L527.41,128.53L526.79,127.13L523.22,126.12L521.98,124.65L518.96,123.64L517.95,122.71L517.25,122.56L515.93,123.41L513.22,123.02L511.82,122.17L511.28,120.93L506.86,120.31L505.7,120.77L501.12,118.53L499.04,118.02L497.18,118.02L495.87,119.49L493.39,119.42L490.13,120.73L487.11,119.96L487.03,119.11L489.04,115.62L490.44,115.54L491.14,114.61L491.45,112.83L493,109.65L493,108.33L492.61,107.71L488.35,106.08L488.35,103.37L484.39,100.81L484.63,98.72L482.92,94.3L482.53,91.58L482.84,89.88L482.14,89.49L483.07,84.22L482.38,83.52L477.26,82.9L476.48,83.21L475.63,86L469.58,86.78L469.35,85.54L467.65,85.23L467.49,83.05L465.71,83.29L464.31,81.66L459.89,80.19L458.15,78.31L458.15,78.31L461.83,75.64L463.31,72.23L464.22,71.43L465.7,71.43L467.06,70.3L470.58,70.18L470.7,68.14L470.13,65.86L470.7,64.61L472.97,64.96L475.47,66.09L478.08,65.52L481.94,65.64L482.74,64.73L487.28,63.93L488.42,63.02L490.35,62.57L493.65,62.57L495.24,63.25L496.71,62.8L497.74,62.12L498.08,59.5L500.58,58.37L502.39,56.32L508.98,52.12L510.92,50.07L513.42,50.41L515.01,49.62L517.73,49.28L517.85,47L519.78,47.12L520.8,48.03L522.84,47.57L526.37,48.14L528.18,47.35L530.57,47.69L533.18,46.55L538.07,47.23L539.77,47L544.32,44.96L547.27,45.3L547.95,44.5L549.43,44.05L560,42.69L562.72,43.14L563.86,42.57L565.34,37.8L568.52,34.96L571.25,34.28L572.1,32.97L572.95,33.68L577.92,33.68L581.87,34.3L584.09,33.05L589.81,31.68L591.86,32.13L594.83,31.51L596.72,32.02L597.69,33.05L603.35,33.28L609.4,34.36L612.31,33.85L616.83,36.53L618.69,36.36L621.43,37.5L622.57,37.45L624.25,39.56L625.26,39.79L628.57,38.47L632.19,39.85L633.51,40.02L636.08,39.39L638.08,39.79L640.46,38.87L640.85,37.67L644.92,37.85L651.71,39.65L653.37,38.79L654.62,36.79L655.36,36.62L657.26,37.62L663.49,35.73L666.8,38.65L668.56,38.9L669.65,40.27L671.42,40.16L673.37,41.22L675.03,43.56L677.93,43.42L678.79,42.9L680.63,43.67L682.57,43.56L684.05,45.16L686.96,44.56L693.92,47.24L700.36,47.47L702.76,48.67L706.76,46.84L712.24,45.19L713.33,45.3L713.36,46.53L711.88,49.39L712.64,53.41L714.16,56.5L717.63,60.94L720.27,62.21L721.47,64.1L724.29,64.32L724.92,64.84L725.04,66.04L729.69,70.67L730.83,72.89L732.71,74.78L734.71,75.81L735.9,78.04L744.14,78.55L746.88,76.38L760.75,80.09L765.61,79.92L767.49,80.38L768.26,81.12L769.06,85.06L771.29,87.12L772.23,89L776.29,89.86L777.46,91.97L780.03,93.34L780.22,94.99L779.57,96.32L782.37,100.37L782.77,101.91L783.63,102.26L784.86,100.89L785.72,100.77L788,101.4L789.74,102.88L790.54,108.88L789.57,113.22L791.85,116.42L791.54,117.4L789.39,117.4L787.49,116.65L786.4,117L785.58,118L781.97,119.02L773.29,118L770.2,118.4L765.74,118.17L761.86,119.14L759.8,120.45L759.47,124.11L758.13,125.37L756.35,130.64L755.06,131.88L754.09,134.45L752.43,135.93L751.63,138.33L748.21,141.76L743.29,142.96L736.66,142.43L734.3,142.9L733.01,141.69L734.39,141.25L733.98,140.65L734.9,140.24L734.66,139.6L735.44,138.71L734.2,136.95L730.61,136.56L727.64,138.05L725.36,140.9L723.76,141.13L722.45,140.5L721.41,141.02L717.24,145.24L717.08,145.99L716.04,146.39L715.7,147.24L714.39,148.1L711.46,147.82L708.62,148.44L706.05,150.96L701.48,152.56L700.73,154.27L696.56,154.78L694.39,155.98L692.57,158.04L692.62,158.52L691.77,158.73L690.62,160.15L688.97,160.73L687.6,162.44L686.45,162.44L686.51,162.84L684.82,163.7L682.17,163.64L681.94,164.15L679.08,164.44L677.66,165.24L676.74,168.67L675.37,169.29L673.77,172.09L670.17,172.44L667.6,171.69L666.69,172.21L665.49,174.61L663.49,175.98L659.49,177.75L655.55,178.26L654.92,179.81L654.86,182.72L656.23,184.32L656.52,188.26L655.03,189.17L654.63,191.63L651.61,191.97L647.95,195.92L646.46,196.72z"/>
	</g>
</svg>