<?xml version="1.0" encoding="utf-8"?>
<!-- (c) ammap.com | SVG map of Lithuania - Low -->
<svg xmlns="http://www.w3.org/2000/svg" xmlns:amcharts="http://amcharts.com/ammap" xmlns:xlink="http://www.w3.org/1999/xlink" version="1.1">
	<defs>
		<style type="text/css">
			.land
			{
				fill: #CCCCCC;
				fill-opacity: 1;
				stroke:white;
				stroke-opacity: 1;
				stroke-width:0.5;
			}
		</style>

		<amcharts:ammap projection="mercator" leftLongitude="20.958510" topLatitude="56.446758" rightLongitude="26.838150" bottomLatitude="53.898758"></amcharts:ammap>

		<!-- All areas are listed in the line below. You can use this list in your script. -->
		<!--{id:"LT-AL"},{id:"LT-KU"},{id:"LT-KL"},{id:"LT-MR"},{id:"LT-PN"},{id:"LT-SA"},{id:"LT-TA"},{id:"LT-TE"},{id:"LT-UT"},{id:"LT-VL"}-->

	</defs>
	<g>
		<path id="LT-AL" title="Alytus" class="land" d="M374.13,466.22L376.8,467.85L379.26,467.51L380.57,464.57L389.89,465.95L388.26,468.68L394.31,466.48L394.32,460.76L403.11,461.59L408.02,458.86L408.54,455.92L406.11,454.66L408.62,448.5L414.03,446.06L418.76,446.96L421.39,451.49L424.05,449.17L433.19,449.21L434.25,445.12L438.82,445.17L441.26,442.96L443.2,443.49L441.87,447.9L444.43,453.03L455.59,454.2L461.04,453.39L462.36,451.12L462.36,451.12L462.06,458.01L463.93,462.07L460.34,463.77L466,467.76L463.39,474.82L465.58,474.11L467.73,477L479.52,475.81L479.48,477.96L483.7,479.22L484.81,473.77L488.41,473.56L489.62,471L492.63,472.05L495.51,470.49L502.12,475.03L500.87,479.7L502.41,484.35L504.87,480.53L505.87,481.86L519.54,481.92L520.1,478.63L527.52,477.64L528.09,479.54L529.67,475.99L542.83,472.51L542.63,481.72L539.61,482.45L539.96,485.22L530.5,487.05L530.83,489.64L528.47,490.33L531.29,504.55L524.66,505L523.2,507.08L525.17,509.3L522.04,509.62L520.12,513.84L516.52,513.66L516.17,515.35L514.38,514.73L514.69,518.31L507.49,520.14L507.19,524.97L515.58,528.66L518.36,538.57L518.36,538.57L516.33,539.3L518.08,542.32L510.23,546.87L516.64,556.17L516.95,562.05L519.69,564.64L522.57,563.6L523.67,565.09L518.97,565.93L519.43,570.72L517.59,570.36L515.97,573.51L509.87,573.9L505.27,578.21L505.63,579.95L499,580.68L500.29,568.2L497.59,567.91L494.86,570.81L490.09,570.04L487.34,574.08L476.43,581.47L467.96,593.02L465.01,594.49L463.77,593.04L463.87,595.03L463.18,593.22L454.77,594.51L453.34,591.98L451.27,594.44L449,593.85L440.84,583.15L438.12,584.93L435.25,583.8L434.02,579.23L426.06,582.85L422.3,582.15L420.54,586.2L405.8,589.1L403.15,588.78L402.29,583.3L395.86,579.54L392.44,585.41L387.56,582.78L384.9,583.37L380.22,587.56L382.64,593.11L377.35,595.24L377.99,592.59L375.95,589.76L369.98,586.79L354.68,589.15L350.96,585.41L344.98,585.18L339.72,579.72L337.77,572.88L343.5,565.66L343.96,557.85L339.24,546.24L338.39,538.07L334.77,532.92L330.21,532.42L324.33,520.77L316.59,515.19L316.59,515.19L318.18,510L315.31,504.91L319.73,502.58L320.4,494.26L327.47,489.16L334.94,488.79L332.43,486.69L331.68,481.6L334.67,482.04L338.88,478.26L342.2,478.65L342.17,466.52L355.62,460.81L357.07,456.52L359.65,455.07L363.01,458.15L364.88,463.68L368.88,461.61z"/>
		<path id="LT-KU" title="Kaunas" class="land" d="M230.61,231.84L233.67,229.23L235.31,230.43L241.07,223.37L243.15,225.8L252.83,225L253.23,230.81L249.82,232.15L252.35,235.68L253.9,233.63L258.45,235.35L263.83,230.2L271.24,228.43L272.79,229.61L278.79,224.15L280.77,226.34L281.13,223.54L284.54,225.84L283.07,218.28L286.19,217.2L286.13,211.14L289.76,210.39L290.3,213.74L292.57,214.09L302.2,211.07L303.89,208.81L305.52,218.5L307.73,220.17L310.02,216.56L311.6,218.14L318.77,214.84L324.18,218.38L327.03,224.69L334.35,226.95L333.4,228.55L335.75,229.26L338.09,227.04L336.97,222.5L345,220.5L349.44,224.1L349.21,232.03L361.57,232.48L361.17,229.47L366.57,223.89L392.93,210.69L392.93,210.69L396.13,215.03L393.85,215.93L394.71,218.61L398.22,222.69L401.38,224.78L401.51,223.3L404.68,222.9L412.47,230.95L415.3,230.43L414.38,237.98L420.39,239.32L421.94,236.85L424.44,237.04L426.18,240.19L429.91,236.83L435.04,237.09L435.77,231.68L441.14,233.91L441.38,237.3L447.82,239.67L449.63,235.94L454.11,240.31L457.45,239.86L460.76,241.93L460.47,246.02L467.01,249.61L467.01,249.61L466.75,255.03L463.86,256.21L463.55,259.44L461.59,260.64L459.64,274.33L463.98,274.73L465.06,277.25L462.98,288.16L475.2,291.31L472.04,295.47L474.56,304.49L480.23,306.56L477.61,309.39L480.15,314.54L482.47,317.31L485.33,316.71L486.59,325.26L489.64,325.42L491.77,330.68L493.59,331.15L491.09,332.57L491.29,335.41L485.8,336.34L486.47,339.97L482.9,341.27L481.16,345.08L484.83,349.03L490.13,348.96L492.62,353.07L497.93,355.39L499.47,359.78L504.82,358.78L504.82,358.78L507.39,358.78L507.39,358.78L515.63,365.49L514.2,369.75L511.54,368.73L507.59,371.03L509.33,383.69L507.15,383.14L506.11,384.9L504.6,383.53L504.39,385.11L498.83,385.82L493.19,389.52L491.52,396.48L493.38,400.62L491.52,400.96L490.66,411.33L486.33,411.79L481.9,407.96L480.27,414.24L474.9,411.68L470.98,412.49L468.19,416.78L470.41,426.96L467.48,428.83L470.05,428.81L471.58,434.01L469.54,433.57L465.49,437.62L463.78,436.31L462.36,451.12L462.36,451.12L461.04,453.39L455.59,454.2L444.43,453.03L441.87,447.9L443.2,443.49L441.26,442.96L438.82,445.17L434.25,445.12L433.19,449.21L424.05,449.17L421.39,451.49L418.76,446.96L414.03,446.06L408.62,448.5L406.11,454.66L408.54,455.92L408.02,458.86L403.11,461.59L394.32,460.76L394.31,466.48L388.26,468.68L389.89,465.95L380.57,464.57L379.26,467.51L376.8,467.85L374.13,466.22L374.13,466.22L378.79,457.78L374.47,453.25L373.04,447.03L367.21,449L362.2,439.21L366.69,436.96L363.29,431.29L359.43,431.64L359.95,429.84L357.35,428.62L363.29,426.39L360.97,423.28L363.63,421.43L363.01,417.63L358.74,410.96L362.53,407.8L358.9,401.4L360.27,397.94L358.03,396.76L351.44,398.56L360.15,389.43L354.52,383.62L356.01,381.8L354.37,379.97L357.28,375.61L345.59,366.81L340.12,370.24L337.22,367.6L336.66,359.55L325.79,354.07L332.86,347.99L341.79,346.36L350.25,341.94L351.63,335.15L347.41,332.76L338.01,331.73L328.46,325.84L328.46,325.84L332.28,323.23L337.51,313.79L337.56,305.21L341.29,295.07L334.26,291.62L329.82,293.6L328.65,292.04L326.4,292.97L323.78,291.45L322.79,285.7L315.6,285.91L314.47,287.81L298.88,287.31L298.7,278.99L290.36,282.07L284.32,280.67L282.76,283.76L274.44,283.27L276.99,277.82L270.48,274.44L271.8,268.21L266.59,269.74L264.28,267.96L265.07,270.09L260.26,270.74L260.11,273.27L257.84,273.06L255.96,275.78L255.96,271.26L253.28,269.57L253.22,266.9L245.96,266.76L246.15,263.06L248.62,261.3L246.75,253.63L241.27,254.17L240.35,251.63L237.92,251.75L238.74,243.39L233.03,245.31L229.55,236.6L232.41,234.74z"/>
		<path id="LT-KL" title="Klaipėda" class="land" d="M19.76,174.5l4.45,9.61l-2.06,44.33l-3.81,11.29l2.78,4.82l-3.18,2.4l0.85,1.53l-4.9,8.64l0.31,9.05l-5.57,3.54l-0.55,2.9l-2.45,1.1l1.02,1.99l-2.78,2.5l-3.25,-0.47l11.72,-29.03l6,-24.55l2.26,-29.22l-2.02,-21.66L19.76,174.5zM134.61,16.9l1.52,0.43l0,0v5.06l-5.18,0.79l-0.57,8.03l6.12,0.6l-1.04,11.44l3.06,4.66l-0.39,5.49l3.42,3.5l-0.17,3.55l-6.39,-1.15l-6.16,21.02l-11.37,-4.81l1.55,8.61l-12.31,-3.04l-2.82,7.39l-3.07,-0.67l-7.87,18l-10.1,-1.55l-1.59,3.82l4.72,2.05l-3.37,7.55l1.18,7.81l-2.38,0.07l0.67,2.38l6.45,4.14l-3.63,1.02l-1.44,5.49l-6.51,2.97l0.23,4.58l-1.67,-1.04l-2.41,6.27l6.29,3.96l3.96,-5.01l1.04,3.56l4.37,3.46l-0.63,2.49l2.06,0.52l-1.52,5.07l2.75,0.73l2.19,-2.84l6.51,3.29l1.11,-1.56l0.76,1.71l1.64,-0.64l1.04,-2.51l2.49,1.54l0.12,6.35l-2.02,4.12l5.22,3.86l3.21,0.07l-2.45,2.25l-2.81,10.26l3.29,2.43l0.35,5.69l5.13,-1.68l6.43,5.33l0,0l-1.72,2.43l1.12,1.32l-5.87,3.02l-2.94,4.13l3.61,0.14l-2.26,2.31l0.19,5.09l1.86,5.04l1.75,-0.78l2.73,17.61l6.65,-2.91l6.05,3.59l4.45,-0.82l3.07,6.18l-4.54,10.82l-13.28,18.37l10.94,2.53l8.69,5.71l-1.22,3.16l4.61,13.85l13.2,-1.59l3.77,4.27l13.24,0.84l2.9,2.61l-5.24,0.07l-0.76,7.41l2.23,9.69l0,0l-15.93,1.89l-5.06,6.84l-5.53,0.33l-5.28,-3.72l-0.51,-9.96l-5.56,-0.4l-3.69,2.66l-5.99,-1.28l-9.43,-4.01l-4.33,-5.06l-4.65,0.02l-7.7,-3.29l-1.26,-3.69l-8.48,-7.4l-11.09,-4.11l-9.01,2.41l-6.53,-7.87l-9.13,-17.08l-14.67,11.19l3.39,-13.15l-7.51,-9.28l1.32,-4.5l2.04,-0.07l-2.54,-1.24l-2,3.4l-6.55,2.67l8.31,-18.17l0.95,-10.55l-4.18,-14.55l2.83,-1.84l-3.85,1.86l-0.94,-11.13l-4.5,-5.64l-3.63,-10.27l-0.41,-5.27l2.42,3.59l-3.49,-9.93l-2.62,-5.8l-4.98,-3.95l-4.22,-45.05l3.35,-19.22l-1.6,-16.4l12.64,-3.94l2.91,2.58l2.82,-0.43l4.48,-9.2l-0.51,-11.18l5.83,-2.3l7.27,-11.05l16.62,-7.13l5.4,-10.52l5.49,-0.1l3.86,-5.5l4.29,-1.73l5.29,-0.05l5.17,2.91l6.53,-0.5l15.01,-13.93l4.68,2.7L134.61,16.9z"/>
		<path id="LT-MR" title="Marijampolė" class="land" d="M218.79,326.73L228.51,331.57L239.39,329.1L244.1,325.26L253.51,322.51L264.57,323.7L280.8,318.48L316.85,327.24L328.46,325.84L328.46,325.84L338.01,331.73L347.41,332.76L351.63,335.15L350.25,341.94L341.79,346.36L332.86,347.99L325.79,354.07L336.66,359.55L337.22,367.6L340.12,370.24L345.59,366.81L357.28,375.61L354.37,379.97L356.01,381.8L354.52,383.62L360.15,389.43L351.44,398.56L358.03,396.76L360.27,397.94L358.9,401.4L362.53,407.8L358.74,410.96L363.01,417.63L363.63,421.43L360.97,423.28L363.29,426.39L357.35,428.62L359.95,429.84L359.43,431.64L363.29,431.29L366.69,436.96L362.2,439.21L367.21,449L373.04,447.03L374.47,453.25L378.79,457.78L374.13,466.22L374.13,466.22L368.88,461.61L364.88,463.68L363.01,458.15L359.65,455.07L357.07,456.52L355.62,460.81L342.17,466.52L342.2,478.65L338.88,478.26L334.67,482.04L331.68,481.6L332.43,486.69L334.94,488.79L327.47,489.16L320.4,494.26L319.73,502.58L315.31,504.91L318.18,510L316.59,515.19L316.59,515.19L304.67,513.31L300.45,506.92L293.97,504.98L294.68,502.06L292.65,500.78L286.07,504.59L280.11,501.3L279.47,498.19L281.81,494.79L272.62,490.17L274.73,485.31L271.16,483.67L254.1,479.04L251.41,480.02L248.13,488.08L246,489.32L236.69,475.08L233.89,468.68L233.53,456.86L230.97,450.75L234.63,443.9L231.46,438.38L239.43,429.2L239.25,425.19L241.04,423.83L236.82,415.18L240.11,410.5L238.78,406.3L243.45,400.29L247.62,399.49L248.73,396.88L252.81,396.64L254.81,394.24L253.91,391.77L257.4,391.19L256.8,387.83L258.43,385.87L256.42,384.32L257.09,381.1L254.86,380.2L256.32,377.03L252.4,374.43L254.22,369.24L253.27,366.78L249.61,363.19L246.17,365.32L244.13,360.08L240.88,361.73L242.34,357.71L239.24,356.88L237.09,351.4L234.59,348.96L232.24,349.29L230.77,345.71L228.09,347.22L228.51,351.21L226,349.36L223.6,341.73L220.02,337.64z"/>
		<path id="LT-PN" title="Panevėžys" class="land" d="M526.54,0.82L529.98,2.32L528.99,8.75L533.25,17.88L536.95,20.63L537.66,33.16L542.7,37.97L543.62,41.69L548.22,44.24L551.04,61.22L561.22,66.01L567.62,66.01L572.04,61.87L583.13,73.24L585.95,71.04L594.97,70.08L594.93,72.36L597.09,73.03L599.01,70.85L608.33,73.34L609.46,69.51L612.38,68.12L615.13,69.29L616.68,74.25L620.77,75.61L627.95,75.54L631.17,72L632.6,73.2L631.89,76.59L634.6,79.13L633.2,87.14L642.91,92.63L650.69,94.57L652.38,99.82L655.35,101.85L655.85,107.53L660.79,107.26L680.4,118.18L680.4,118.18L673.67,119.39L669.49,123.89L669.21,126.82L671.9,130.56L670.24,136.52L660.83,138.4L661.38,147.38L656.04,148.42L653.1,146.95L650.92,162.23L643.66,159.62L638.6,160.57L638.34,168.91L632.91,173.2L631.16,168.49L627.11,170.76L622.63,170.45L620.64,168.06L618.45,173.27L613.2,171.45L612.09,174.26L610.28,174.33L606.73,172.56L607.57,170.19L603.99,168.94L602.63,171.64L592.18,163.65L589.05,164.41L584.71,170.48L579.84,171L580.18,175.19L582,175.92L580.87,178.85L576.5,174.52L573.35,174.9L554.11,182.97L552.22,178.12L554.2,175.21L549.43,175.71L537.93,170.43L531.61,174.81L523.59,174.22L523.15,177.86L520.41,177.39L518.04,173.44L512.51,176.49L507.37,176.32L504.43,173.51L502.14,182.66L507.73,185.9L503.97,189.54L500.37,187.65L501.31,185.97L494.35,187.56L494.41,191.95L499.67,190.44L502.3,192.36L504.05,200.2L497.47,202.41L496,206.57L497.57,210.65L495.47,212.2L496.56,214.37L494.21,221.37L494.21,221.37L490.45,223.63L493.92,232.39L492.6,235.75L486.47,238.45L478.79,236.01L478.38,240.78L475.77,242.05L476.81,245.22L472.42,247.71L472.87,250.08L467.01,249.61L467.01,249.61L460.47,246.02L460.76,241.93L457.45,239.86L454.11,240.31L449.63,235.94L447.82,239.67L441.38,237.3L441.14,233.91L435.77,231.68L435.04,237.09L429.91,236.83L426.18,240.19L424.44,237.04L421.94,236.85L420.39,239.32L414.38,237.98L415.3,230.43L412.47,230.95L404.68,222.9L401.51,223.3L401.38,224.78L398.22,222.69L394.71,218.61L393.85,215.93L396.13,215.03L392.93,210.69L392.93,210.69L397.46,199.94L397.1,194.53L403.96,196.91L405.36,194.34L413.06,193.63L410.82,189.78L410.53,181.62L413.06,182.21L417.01,178.33L412.21,174.71L414.07,167.3L409.88,164.74L411.68,162.06L409.64,157.65L405.4,158.51L401.27,145.05L409.27,146.12L407.44,141.99L411.23,142.92L411.73,139.99L418.6,137.21L417.49,132.53L420.04,127.68L419.8,121.16L416.02,121.51L414.31,118.61L411.53,119.68L408.78,116.46L410.76,111.15L410.01,107.6L412.74,104.35L412.52,99.08L415.33,101.78L416.34,100.37L416.89,90.91L421.07,89.77L424.57,78.29L426.19,79.15L431.31,76.55L431.3,66.85L427.93,67.52L429.83,61.87L425.31,59.81L423.12,52.35L427.57,46.83L427.57,46.83L430.55,47.14L434.29,43.33L445.59,38.95L445.25,35.85L452.07,36.41L454.64,42.17L459.38,40.92L463.38,44.91L467.61,45.73L476.78,39.79L484.4,38.59L484.14,30.57L490.99,24.17L491.37,17.6L499.54,17.81L501.93,14.83L501.51,11.67L511.03,12.1L514.64,6.8L517.56,9.45L521.99,8.46L521.88,3.43L524.31,0.24z"/>
		<path id="LT-SA" title="Šiauliai" class="land" d="M266.58,8.15L273.46,10.46L275.6,18.29L273.79,19.18L276.71,28.62L279.23,30.88L282.93,30.11L285.74,34.53L297.67,26.6L296.2,19.57L310.85,18.7L315.02,15.84L324.96,16.92L329.14,19.02L331.96,23.42L346.2,28.06L357.94,21.11L375.55,18.13L377.42,21.11L375.49,30.3L377.55,30.93L379.8,26.33L382.4,25.78L395.27,26.31L397.33,28.59L408.9,28.55L409.88,33.26L413.34,36.26L413.35,40.49L419.91,41.14L422.25,47.79L427.57,46.83L427.57,46.83L423.12,52.35L425.31,59.81L429.83,61.87L427.93,67.52L431.3,66.85L431.31,76.55L426.19,79.15L424.57,78.29L421.07,89.77L416.89,90.91L416.34,100.37L415.33,101.78L412.52,99.08L412.74,104.35L410.01,107.6L410.76,111.15L408.78,116.46L411.53,119.68L414.31,118.61L416.02,121.51L419.8,121.16L420.04,127.68L417.49,132.53L418.6,137.21L411.73,139.99L411.23,142.92L407.44,141.99L409.27,146.12L401.27,145.05L405.4,158.51L409.64,157.65L411.68,162.06L409.88,164.74L414.07,167.3L412.21,174.71L417.01,178.33L413.06,182.21L410.53,181.62L410.82,189.78L413.06,193.63L405.36,194.34L403.96,196.91L397.1,194.53L397.46,199.94L392.93,210.69L392.93,210.69L366.57,223.89L361.17,229.47L361.57,232.48L349.21,232.03L349.44,224.1L345,220.5L336.97,222.5L338.09,227.04L335.75,229.26L333.4,228.55L334.35,226.95L327.03,224.69L324.18,218.38L318.77,214.84L311.6,218.14L310.02,216.56L307.73,220.17L305.52,218.5L303.89,208.81L302.2,211.07L292.57,214.09L290.3,213.74L289.76,210.39L286.13,211.14L286.19,217.2L283.07,218.28L284.54,225.84L281.13,223.54L280.77,226.34L278.79,224.15L272.79,229.61L271.24,228.43L263.83,230.2L258.45,235.35L253.9,233.63L252.35,235.68L249.82,232.15L253.23,230.81L252.83,225L243.15,225.8L241.07,223.37L235.31,230.43L233.67,229.23L230.61,231.84L230.61,231.84L223.31,230.6L226.69,227.66L225.98,225.21L217.54,215.36L218.19,211.76L214.24,212.09L211.41,205.74L207.44,204.73L207.64,202.06L207.64,202.06L207.82,201.23L207.82,201.23L209.15,197.1L204.07,193.82L204.87,188.31L203.23,184.72L203.23,184.72L204.79,181.81L210.74,179.97L211.11,176.84L209.83,167.63L204.14,156.47L217,153.34L216.62,140.11L224.38,140.78L228.2,137.24L231.26,139.3L230.42,135.29L234.08,135.24L234.38,129.98L232.49,127.01L235.54,126.2L234.94,123.87L231.92,123.77L229.14,114.25L226.24,113.25L227.64,119.3L222.63,119.15L220.42,118.42L220.83,115.18L218.14,111.67L221.64,109.24L224.75,100.37L222.96,95.88L225.46,98.1L229.18,94.12L232.91,95.29L240.63,92.97L239.65,89.22L235.46,86.18L236.14,78.75L234.17,77.81L224.83,80.45L224.61,83.89L223,83.46L222.19,85.47L212.11,80.78L208.67,80.71L206.67,83.08L197.11,81.23L199.81,76.35L196.2,77.5L198.3,72.1L193.09,70.08L193.19,68.53L197.48,48.22L205.21,46.59L206.74,38.74L204.08,39.1L202.1,35.25L211.02,35.9L211.7,33.19L220.08,34.8L223.24,27.46L218.65,21.11L225.8,20.41L225.8,20.41L230.67,23.45L236.99,18.66L254.24,19.79L263.46,15.91L264.49,13.28L262.66,12.01z"/>
		<path id="LT-TA" title="Tauragė" class="land" d="M123.61,203.83L138.46,199.39L139.5,201.38L143.35,201.38L151.01,189.07L155.35,191.03L159.57,186.12L173.2,180.94L180.5,186.42L181.57,184.22L184.64,184.34L190.32,188.31L195.61,185.22L199.79,187.04L203.23,184.72L203.23,184.72L204.87,188.31L204.07,193.82L209.15,197.1L207.82,201.23L207.82,201.23L207.64,202.06L207.64,202.06L207.44,204.73L211.41,205.74L214.24,212.09L218.19,211.76L217.54,215.36L225.98,225.21L226.69,227.66L223.31,230.6L230.61,231.84L230.61,231.84L232.41,234.74L229.55,236.6L233.03,245.31L238.74,243.39L237.92,251.75L240.35,251.63L241.27,254.17L246.75,253.63L248.62,261.3L246.15,263.06L245.96,266.76L253.22,266.9L253.28,269.57L255.96,271.26L255.96,275.78L257.84,273.06L260.11,273.27L260.26,270.74L265.07,270.09L264.28,267.96L266.59,269.74L271.8,268.21L270.48,274.44L276.99,277.82L274.44,283.27L282.76,283.76L284.32,280.67L290.36,282.07L298.7,278.99L298.88,287.31L314.47,287.81L315.6,285.91L322.79,285.7L323.78,291.45L326.4,292.97L328.65,292.04L329.82,293.6L334.26,291.62L341.29,295.07L337.56,305.21L337.51,313.79L332.28,323.23L328.46,325.84L328.46,325.84L316.85,327.24L280.8,318.48L264.57,323.7L253.51,322.51L244.1,325.26L239.39,329.1L228.51,331.57L218.79,326.73L218.79,326.73L202.41,332.5L176.85,327.91L176.85,327.91L174.62,318.22L175.38,310.81L180.62,310.74L177.72,308.13L164.48,307.29L160.71,303.02L147.51,304.6L142.9,290.75L144.11,287.6L135.43,281.89L124.48,279.36L137.77,260.99L142.31,250.18L139.24,244L134.79,244.82L128.73,241.23L122.08,244.14L119.35,226.53L117.6,227.3L115.74,222.26L115.56,217.18L117.82,214.87L114.21,214.73L117.15,210.6L123.01,207.58L121.89,206.26z"/>
		<path id="LT-TE" title="Telšiai" class="land" d="M156.93,4.29L161.8,6.95L167.36,5.91L172.21,11.19L181.58,9.69L186.51,13.09L194.89,9.45L203.6,10.59L208.01,13.5L221.89,15.93L225.8,20.41L225.8,20.41L218.65,21.11L223.24,27.46L220.08,34.8L211.7,33.19L211.02,35.9L202.1,35.25L204.08,39.1L206.74,38.74L205.21,46.59L197.48,48.22L193.19,68.53L193.09,70.08L198.3,72.1L196.2,77.5L199.81,76.35L197.11,81.23L206.67,83.08L208.67,80.71L212.11,80.78L222.19,85.47L223,83.46L224.61,83.89L224.83,80.45L234.17,77.81L236.14,78.75L235.46,86.18L239.65,89.22L240.63,92.97L232.91,95.29L229.18,94.12L225.46,98.1L222.96,95.88L224.75,100.37L221.64,109.24L218.14,111.67L220.83,115.18L220.42,118.42L222.63,119.15L227.64,119.3L226.24,113.25L229.14,114.25L231.92,123.77L234.94,123.87L235.54,126.2L232.49,127.01L234.38,129.98L234.08,135.24L230.42,135.29L231.26,139.3L228.2,137.24L224.38,140.78L216.62,140.11L217,153.34L204.14,156.47L209.83,167.63L211.11,176.84L210.74,179.97L204.79,181.81L203.23,184.72L203.23,184.72L199.79,187.04L195.61,185.22L190.32,188.31L184.64,184.34L181.57,184.22L180.5,186.42L173.2,180.94L159.57,186.12L155.35,191.03L151.01,189.07L143.35,201.38L139.5,201.38L138.46,199.39L123.61,203.83L123.61,203.83L117.19,198.5L112.06,200.17L111.71,194.48L108.42,192.05L111.23,181.79L113.67,179.54L110.47,179.47L105.24,175.61L107.26,171.49L107.14,165.15L104.65,163.6L103.61,166.12L101.97,166.76L101.21,165.05L100.1,166.61L93.59,163.32L91.4,166.16L88.65,165.43L90.17,160.36L88.11,159.84L88.74,157.35L84.37,153.88L83.33,150.32L79.37,155.33L73.08,151.37L75.48,145.1L77.15,146.15L76.93,141.56L83.43,138.59L84.88,133.1L88.51,132.08L82.06,127.94L81.39,125.56L83.77,125.49L82.59,117.68L85.96,110.12L81.24,108.07L82.83,104.26L92.94,105.81L100.81,87.81L103.88,88.48L106.7,81.09L119,84.13L117.45,75.52L128.83,80.33L134.99,59.3L141.37,60.45L141.55,56.91L138.13,53.41L138.51,47.91L135.45,43.25L136.5,31.82L130.38,31.21L130.95,23.18L136.14,22.39L136.14,17.33L136.14,17.33L139.01,8.42L141.51,8.13L141.81,6.01L146.01,7.62z"/>
		<path id="LT-UT" title="Utena" class="land" d="M694.81,137.12L699.88,139.47L705.17,146.1L705.53,152.29L710.61,163.06L716.33,168.51L721.3,169.01L725.79,177.79L736.57,177.67L740.38,182L745.83,184.34L758.81,183.68L758.83,189.5L760.72,189.76L761.63,196.13L759.3,200.08L760.61,208.67L756.31,210.67L752.33,217.22L747.21,219.58L744.92,223.96L747.02,229.75L750.2,232.62L747.09,237.18L749,239.89L746.79,239.63L749.14,246.54L747.73,247.73L748.48,252.03L745.42,252.1L741.53,256.42L738.05,256.49L737.32,259.68L733.68,261.51L747.22,265.82L749.71,268.26L752.49,266.67L755.57,268.31L758.47,264.65L759.01,267.7L763.51,263.55L770.63,267.6L783.19,269.13L786.16,273.32L785.54,277.77L773.75,283.97L773.75,283.97L775.96,281.54L763.72,282L763.8,285.05L761.93,285.37L762.13,282.71L758.46,282.5L758.81,283.97L756.61,284.18L758.35,286.1L754.68,290.52L748.36,292.32L745.58,290.94L743.51,293.46L735.52,291.92L734.15,294.44L724.49,290.49L711.22,289.3L709.14,291.59L705.18,285.68L703.87,287.76L700.83,286.64L698.21,290.94L694.76,290.21L698.92,284.02L694.51,281.75L694.2,276.32L689.84,274.35L687.91,276.25L682.65,273.88L682.39,270.86L682.84,274.84L680.97,271.52L677.51,276.29L680.53,275.99L678.77,278.45L674.34,278.31L673.62,279.92L670,277.96L667.89,279.31L666.07,275.59L662.26,279.01L656.88,272.57L652.13,273.62L654.04,275.57L650.37,278.78L644.18,268.85L637.97,273.58L639.27,274.02L636.86,275.83L636.02,281.82L632.24,279.5L635.66,286.99L630.63,286.75L629.14,292.62L630.97,292.69L627.88,297.25L628.9,300.14L635.93,303.2L636.01,308.83L647.99,316.85L645.39,317.01L644.73,319.25L643.18,317.62L640.98,320.16L643.29,321.28L642.79,323.58L641.78,322.35L638.64,323.93L639.53,326.47L641.99,324.75L639.23,330.96L642.79,333.9L636.26,334.8L635.03,332.03L630.07,333.24L629.99,329.99L624.88,327.47L621.63,329.22L618.09,327.59L617.73,331.29L615.21,329.38L612.37,330.2L611.18,334.22L593.7,334.71L591.91,336.27L586.06,335.5L583.1,332.62L570.24,333.45L572.47,329.5L570.48,322.63L563.16,320.58L561.87,321.95L560.67,317.11L563.98,311.23L563.01,307.8L571.41,304.91L572.17,299.02L576.58,298.84L571.24,297.55L569.13,292.85L564.3,294.61L561.64,291.69L565.04,287.03L566.21,280.74L561.71,281.7L560.13,284.25L554.39,280.83L554.91,277.63L551.56,274.68L550.79,270.53L538.53,270.23L536.68,259.33L527.96,263.15L526.3,262.61L527.36,259.35L519.93,260.22L512.38,256.04L512.87,248.67L511.32,247.64L513.05,243.81L515.81,245.71L517.32,240.12L511.59,237.58L509.4,229.89L506.3,231.11L503.4,224.85L494.1,225.89L494.21,221.37L494.21,221.37L496.56,214.37L495.47,212.2L497.57,210.65L496,206.57L497.47,202.41L504.05,200.2L502.3,192.36L499.67,190.44L494.41,191.95L494.35,187.56L501.31,185.97L500.37,187.65L503.97,189.54L507.73,185.9L502.14,182.66L504.43,173.51L507.37,176.32L512.51,176.49L518.04,173.44L520.41,177.39L523.15,177.86L523.59,174.22L531.61,174.81L537.93,170.43L549.43,175.71L554.2,175.21L552.22,178.12L554.11,182.97L573.35,174.9L576.5,174.52L580.87,178.85L582,175.92L580.18,175.19L579.84,171L584.71,170.48L589.05,164.41L592.18,163.65L602.63,171.64L603.99,168.94L607.57,170.19L606.73,172.56L610.28,174.33L612.09,174.26L613.2,171.45L618.45,173.27L620.64,168.06L622.63,170.45L627.11,170.76L631.16,168.49L632.91,173.2L638.34,168.91L638.6,160.57L643.66,159.62L650.92,162.23L653.1,146.95L656.04,148.42L661.38,147.38L660.83,138.4L670.24,136.52L671.9,130.56L669.21,126.82L669.49,123.89L673.67,119.39L680.4,118.18L680.4,118.18L687.01,131.65L690.76,136.31z"/>
		<path id="LT-VL" title="Vilnius" class="land" d="M605.58,509.46l-1.63,-1.71l3.66,-0.53L605.58,509.46zM494.21,221.37l-0.11,4.52l9.3,-1.04l2.9,6.26l3.1,-1.22l2.19,7.69l5.73,2.54l-1.51,5.59l-2.77,-1.9l-1.72,3.83l1.55,1.03l-0.49,7.37l7.55,4.18l7.43,-0.87l-1.06,3.26l1.66,0.54l8.72,-3.82l1.84,10.9l12.27,0.3l0.76,4.15l3.35,2.95l-0.52,3.21l5.75,3.42l1.58,-2.55l4.5,-0.96l-1.18,6.29l-3.39,4.65l2.66,2.92l4.82,-1.75l2.11,4.7l5.34,1.28l-4.41,0.19l-0.76,5.88l-8.41,2.89l0.98,3.43l-3.31,5.88l1.2,4.85l1.28,-1.38l7.32,2.05l1.99,6.87l-2.23,3.96l12.87,-0.84l2.95,2.88l5.85,0.77l1.79,-1.56l17.48,-0.49l1.19,-4.03l2.85,-0.81l2.51,1.91l0.36,-3.7l3.54,1.63l3.25,-1.75l5.12,2.51l0.08,3.26l4.96,-1.21l1.23,2.77l6.53,-0.91l-3.57,-2.93l2.77,-6.22l-2.46,1.72l-0.9,-2.54l3.14,-1.58l1.02,1.24l0.5,-2.31l-2.31,-1.12l2.21,-2.54l1.55,1.63l0.66,-2.24l2.61,-0.16l-11.99,-8.02l-0.08,-5.62l-7.03,-3.06l-1.02,-2.9l3.09,-4.56l-1.83,-0.07l1.5,-5.87l5.02,0.23l-3.42,-7.49l3.78,2.32l0.84,-5.99l2.41,-1.8l-1.3,-0.44l6.21,-4.73l6.19,9.93l3.67,-3.21l-1.91,-1.94l4.74,-1.05l5.39,6.44l3.81,-3.42l1.82,3.72l2.11,-1.36l3.62,1.97l0.72,-1.61l4.42,0.14l1.76,-2.46l-3.02,0.3l3.46,-4.78l1.87,3.33l-0.45,-3.98l0.27,3.02l5.25,2.37l1.94,-1.9l4.36,1.97l0.31,5.43l4.41,2.27l-4.16,6.2l3.45,0.72l2.62,-4.3l3.05,1.12l1.31,-2.08l3.96,5.92l2.08,-2.29l13.27,1.19l9.66,3.95l1.36,-2.52l7.99,1.54l2.07,-2.52l2.78,1.38l6.32,-1.8l3.67,-4.42l-1.74,-1.92l2.19,-0.21l-0.35,-1.47l3.67,0.21l-0.2,2.67l1.87,-0.33l-0.08,-3.04l12.24,-0.47l-2.22,2.43l0,0l-2.07,3.02l0.32,5.45l-3.34,3.58l-1.4,-1.19l-2.35,1.64l1.47,4.88l2.18,1.17l-1.2,1.66l-2.14,-0.82l-0.75,2.78l-2.65,-0.98l-4.32,3.24l-4.98,-1.49l-5.67,2.38l-3.5,-3.85l-4.78,2.78l-2.39,4.36l-6.39,-2.64l-2.06,1.7l-0.84,-2.12l-4.72,-1.73l-4.36,1.14l0.36,2.17l-3.39,0.47l1.24,1.05l-1.28,1.03l-9.54,3.89l5.25,7.39l-3.63,2.31l-4.78,16.03l-3.03,2.07l-8.4,0.51l-1.52,3.81l-4.12,0.53l0.37,3.37l-3.59,1.28l1.24,1.49l-8.74,-1.53l-2.1,-2.18l-7.12,4.92l-9.35,1.86l-1.07,7.4l-9.51,9.59l-0.77,7.22l-2.99,-0.02l-1.01,1.8l-1.18,3.72l1.52,17.84l-1.92,9.62l3.86,24.04l-1.36,2.92l-9.27,6.6l-5.87,14.99l-4.4,2.43l2.99,0.64l0.31,7.84l-3.31,5.7l-1.74,-1.17l-0.16,6.11l-3.71,2.54l-1.06,4.9l-2.55,0.3l-0.21,2.08l1.99,0.34l0.35,3.91l4.85,-1.78l1.43,2.01l2.65,0.8l1.76,-1.69l1.39,1.44l5.55,-2.47l3.41,5.44l-1.02,4.5l6.45,1.71l2.04,6.5l3.85,0.84l-6.47,4.49l3.75,3.72l0.59,7.88l2.23,0.43l0.05,1.75l-3.96,-0.77l-1.36,-2.19l-0.09,2.46l-2.34,1.16l-4.3,-2.96l-0.23,2.64l-2.33,0.02l-0.2,3.73l-5.83,2.69l-1.88,-3.46l-9.83,-0.89l-2.57,-1.91l-3.19,-4.35l0.59,-2.37l6.25,-2.6l0.05,-3.92l-2.49,-3.63l6.16,0.55l-4.46,-8.88l0.91,-1.62l-5.92,-2.35l-0.35,-5.23l-2.19,-0.94l-4.28,4.64l-6.03,-1.74l-1.76,3.61l-7.47,4.18l-6.07,-0.82l-0.63,1.37l-4.69,-2.65l-2.21,4.86l-2.46,-2.6l-1.54,0.94l-2.66,5.04l0.17,3.83l-17.25,19.54l-10.7,-1.89l-1.9,-5.01l-2.85,-1.59l-11.81,5.67l-5.06,-0.32l0,0l-2.78,-9.91l-8.39,-3.69l0.29,-4.83l7.2,-1.82l-0.31,-3.58l1.79,0.62l0.35,-1.69l3.59,0.18l1.92,-4.22l3.13,-0.32l-1.96,-2.21l1.46,-2.08l6.63,-0.46l-2.82,-14.22l2.36,-0.69l-0.33,-2.59l9.46,-1.83l-0.35,-2.77l3.02,-0.73l0.2,-9.21l-13.16,3.48l-1.58,3.55l-0.57,-1.9l-7.42,0.98l-0.56,3.3l-13.67,-0.07l-1,-1.33l-2.46,3.82l-1.54,-4.65l1.24,-4.67l-6.6,-4.54l-2.89,1.56l-3.01,-1.05l-1.22,2.57l-3.59,0.21l-1.11,5.45l-4.22,-1.26l0.04,-2.15L467.73,477l-2.15,-2.89l-2.19,0.71l2.61,-7.06l-5.65,-3.99l3.58,-1.7l-1.87,-4.06l0.31,-6.89l0,0l1.42,-14.81l1.71,1.31l4.05,-4.05l2.04,0.44l-1.54,-5.2l-2.57,0.02l2.93,-1.87l-2.22,-10.19l2.79,-4.29l3.92,-0.81l5.37,2.56l1.63,-6.28l4.44,3.83l4.33,-0.46l0.86,-10.37l1.86,-0.35l-1.86,-4.14l1.67,-6.96l5.64,-3.7l5.56,-0.72l0.21,-1.57l1.51,1.37l1.04,-1.76l2.18,0.56l-1.74,-12.67l3.94,-2.29l2.66,1.02l1.43,-4.27l-8.23,-6.7l0,0h-2.58l0,0l-5.35,1l-1.54,-4.39l-5.32,-2.32l-2.49,-4.11l-5.3,0.07l-3.66,-3.95l1.74,-3.81l3.57,-1.3l-0.67,-3.63l5.49,-0.93l-0.2,-2.84l2.5,-1.42l-1.82,-0.47l-2.14,-5.26l-3.05,-0.16l-1.26,-8.55l-2.86,0.61l-2.33,-2.77l-2.54,-5.15l2.62,-2.82l-5.67,-2.08l-2.53,-9.01l3.17,-4.16l-12.23,-3.16l2.08,-10.9l-1.08,-2.53l-4.34,-0.4l1.95,-13.69l1.96,-1.2l0.31,-3.24l2.89,-1.17l0.27,-5.42l0,0l5.85,0.47l-0.44,-2.37l4.38,-2.49l-1.04,-3.17l2.62,-1.27l0.4,-4.77l7.68,2.45l6.13,-2.7l1.32,-3.36l-3.47,-8.75L494.21,221.37z"/>
	</g>
</svg>