<?xml version="1.0" encoding="utf-8"?>
<!-- (c) ammap.com | SVG map of Macedonia - High -->
<svg xmlns="http://www.w3.org/2000/svg" xmlns:amcharts="http://amcharts.com/ammap" xmlns:xlink="http://www.w3.org/1999/xlink" version="1.1">
	<defs>
		<style type="text/css">
			.land
			{
				fill: #CCCCCC;
				fill-opacity: 1;
				stroke:white;
				stroke-opacity: 1;
				stroke-width:0.5;
			}
		</style>

		<amcharts:ammap projection="mercator" leftLongitude="20.455561" topLatitude="42.338669" rightLongitude="23.006302" bottomLatitude="40.855173"></amcharts:ammap>

		<!-- All areas are listed in the line below. You can use this list in your script. -->
		<!--{id:"MK-01"},{id:"MK-02"},{id:"MK-03"},{id:"MK-04"},{id:"MK-05"},{id:"MK-06"},{id:"MK-07"},{id:"MK-08"},{id:"MK-09"},{id:"MK-10"},{id:"MK-11"},{id:"MK-12"},{id:"MK-13"},{id:"MK-14"},{id:"MK-15"},{id:"MK-16"},{id:"MK-17"},{id:"MK-18"},{id:"MK-19"},{id:"MK-20"},{id:"MK-21"},{id:"MK-22"},{id:"MK-23"},{id:"MK-24"},{id:"MK-25"},{id:"MK-26"},{id:"MK-27"},{id:"MK-28"},{id:"MK-29"},{id:"MK-30"},{id:"MK-31"},{id:"MK-32"},{id:"MK-33"},{id:"MK-34"},{id:"MK-35"},{id:"MK-36"},{id:"MK-37"},{id:"MK-38"},{id:"MK-39"},{id:"MK-40"},{id:"MK-41"},{id:"MK-42"},{id:"MK-43"},{id:"MK-44"},{id:"MK-45"},{id:"MK-46"},{id:"MK-47"},{id:"MK-48"},{id:"MK-49"},{id:"MK-50"},{id:"MK-51"},{id:"MK-52"},{id:"MK-53"},{id:"MK-54"},{id:"MK-55"},{id:"MK-56"},{id:"MK-57"},{id:"MK-58"},{id:"MK-59"},{id:"MK-60"},{id:"MK-61"},{id:"MK-62"},{id:"MK-63"},{id:"MK-64"},{id:"MK-65"},{id:"MK-66"},{id:"MK-67"},{id:"MK-68"},{id:"MK-69"},{id:"MK-70"},{id:"MK-71"},{id:"MK-72"},{id:"MK-73"},{id:"MK-74"},{id:"MK-75"},{id:"MK-76"},{id:"MK-77"},{id:"MK-78"},{id:"MK-79"},{id:"MK-80"},{id:"MK-81"},{id:"MK-82"},{id:"MK-83"},{id:"MK-84"},{id:"MK-LKD"},{id:"MK-LKO"}-->

	</defs>
	<g>
		<path id="MK-01" title="Aerodrom" class="land" d="M333.53,167.52L328.02,171.25L328.02,171.25L325.39,167.43L320.88,163.91L316.75,162.91L310.37,160.39L306.99,157.88L303.61,153.35L299.86,152.85L297.17,149.64L297.17,149.64L296.48,148.82L298.34,145.18L298.34,145.18L299.48,144.8L300.16,145.18L300.16,145.18L303.61,147.31L306.62,147.81L311.12,150.33L317.5,155.36L325.77,159.39L331.02,163.41z"/>
		<path id="MK-02" title="Aračinovo" class="land" d="M329.48,109.56L331.04,111.86L335.13,116.21L337.52,120.55L339.74,122.38L344.68,123.52L346.39,122.84L348.55,113.97L348.55,113.97L351.2,113.97L357.26,117.25L357.6,121.87L357.6,121.87L351.95,127.63L343.77,138.05L338.07,139.11L332.85,142.01L331.37,143.86L329.9,143.99L329.2,143.31L329.2,143.31L328.81,142.94L329.21,135.94L330.58,133.57L332.75,131.59L332.95,129.74L331.86,120.1L329.01,115.87L328.81,111.12z"/>
		<path id="MK-03" title="Berovo" class="land" d="M673.63,216.54L674.42,218.65L677.45,218.46L688.85,219.81L693.18,221.16L698.88,224.12L698.88,224.12L699.38,227.33L703.57,238.5L705.73,239.66L706.31,241.97L706.45,245.83L707.61,248.52L710.06,249.1L710.93,248.52L711.22,246.41L712.95,245.06L717.13,244.86L730.41,247.37L733.87,248.91L735.46,251.8L735.46,254.69L739.64,254.5L744.41,254.88L749.02,257.77L754.8,262.58L763.02,265.28L766.92,268.18L766.92,268.18L766.62,269.68L765.61,269.96L762.64,273.63L761.4,276.64L761.47,277.5L760.78,277.79L760.34,279.51L758.96,280.47L759.06,281.55L759.76,282.25L759.58,284.2L758.92,284.51L758.27,283.91L756.86,284.65L754.59,284.31L752.62,285.1L752.37,284.67L751.9,286.19L750.01,287.26L749.84,289.66L749,291.07L750.38,293.06L750.59,294.05L750.21,295.17L750.82,296.46L750.48,299.12L749.8,300.17L749.66,301.73L750.04,302.9L749.3,304.71L749.69,308.51L750.34,310.15L752.62,310.27L752.83,311.45L754.28,313L753.95,313.83L754.42,316.8L755.18,318.27L756.28,318.68L756.42,320.11L755.16,322.51L755.38,327.03L752.27,327.72L752.25,329.48L751.71,330.94L752.17,332.27L752.17,332.27L749.87,333.24L739.19,334.01L729.38,334.01L729.38,334.01L727.94,334.01L725.2,330.17L722.45,328.25L712.14,327.67L703.19,326.14L698.71,323.06L696.12,319.99L695.25,316.34L693.09,313.27L689.9,312.84L689.9,312.84L680.82,310.77L674.18,310.96L674.04,307.5L677.79,305.96L678.51,304.04L678.66,297.89L677.65,295.39L676.2,294.04L672.59,293.08L668.27,288.47L666.17,287.94L664.73,289.14L663.11,292.99L660.76,293.71L659.86,290.82L660.22,287.46L659.91,286.69L659.91,286.69L658.78,283.85L658.24,280.48L658.42,277.84L664.37,268.46L664.55,266.29L663.11,264.6L660.76,263.4L658.6,261.48L657.51,256.18L657.38,249.01L657.38,249.01L659.84,246.79L663.16,246.21L667.35,246.21L670.23,242.75L672.25,237.93L673.41,233.11L673.84,226.36L673.41,222.12L672.4,220L672.97,216.72z"/>
		<path id="MK-04" title="Bitola" class="land" d="M260.57,457.66L263.26,461.49L263.26,464.85L260.58,469.99L260.58,473.94L261.62,477.49L263.26,481.05L265.95,484.2L268.94,486.18L272.96,487.56L274.76,489.34L275.5,494.66L275.05,505.32L275.8,507.49L277.29,509.07L279.68,510.45L282.07,511.04L283.71,511.04L289.08,507.49L290.57,507.1L295.05,507.69L295.81,508.35L295.81,508.35L295.19,510.1L295.19,514.21L294.46,516.63L293.36,518.32L293.18,521.22L293.73,525.33L294.65,527.02L298.31,530.89L298.85,534.51L299.22,543.2L305.81,544.9L307.09,547.79L314.96,556.73L318.25,561.55L319.16,564.93L319.35,568.55L320.45,573.37L320.35,577.48L320.35,577.48L306.86,577.35L297.71,573.36L270.18,591.47L254.83,596.59L244.42,596.62L240.82,593.99L240.82,593.99L242.3,588.83L243.04,584.45L244.15,582.02L244.52,579.35L243.78,577.4L240.64,575.46L241.01,570.35L239.72,565.24L238.06,564.03L230.68,563.79L227.55,562.81L227.55,559.65L226.26,556.97L222.94,552.35L218.88,550.16L206.15,550.4L203.94,548.46L203.94,545.29L203.2,542.86L198.59,537.75L197.11,534.82L196.38,531.41L196.38,527.76L195.04,526.66L189.74,525.75L187.66,523.31L187.66,518.74L188.81,514.79L194.35,510.22L197.35,505.04L198.04,500.46L197.35,496.81L194.58,493.76L194.7,491.57L194.7,491.57L204.95,486.74L212.1,485.83L219.25,482.47L222.71,477.9L227.32,475.15L231.24,474.85L235.16,468.14L237.92,467.83L241.38,466L246.91,461.73L249.91,456.54L253.27,454.22L253.27,454.22L254.75,453.79L256.6,455.92L258.67,457.45z"/>
		<path id="MK-05" title="Bogdanci" class="land" d="M640.82,445.1L641.39,447.3L643.11,449.22L645.28,450.18L648.18,454.38L653.79,454.74L656.24,453.66L660.4,453.78L662.67,454.62L667.83,458.33L669.28,458.33L670,459.29L670,467.79L670.34,467.87L670.34,467.87L667.79,468.72L664.85,471.18L661.18,480.36L655.32,488.89L648.82,494.05L647.2,493.48L647.2,493.48L648.65,492.44L646.01,490.08L641.39,486.97L633.6,482.9L626.72,482.42L626,481.58L626.27,477.75L627.9,472.6L628.44,467.32L628.08,465.29L622.07,456.56L622.07,456.56L627.65,452.61L628.53,442.94L629.86,440.6L635.16,440.45L636.49,443.09L639.36,444.99z"/>
		<path id="MK-06" title="Bogovinje" class="land" d="M152.46,157.5L152.74,165.24L153.95,167.15L161.46,167.42L161.26,170.41L159.03,176.39L157,179.38L154.77,181L151.52,181.55L150.1,183.72L150.3,185.62L151.72,189.7L149.56,189.7L149.56,189.7L148.27,189.7L146.24,187.8L142.18,186.98L125.74,177.74L115.79,174.48L96.91,171.22L93.43,172.25L93.43,172.25L88.79,168.67L90.67,162.75L90.74,161.18L90.74,161.18L95.39,158.99L98.84,155.46L103.51,153.01L108.79,151.1L112.44,148.38L115.49,145.39L118.94,143.21L123.61,142.94L141.06,147.02L143.91,148.65L151.21,157.36z"/>
		<path id="MK-07" title="Bosilovo" class="land" d="M689.9,312.84L693.09,313.27L695.25,316.34L696.12,319.99L698.71,323.06L703.19,326.14L712.14,327.67L722.45,328.25L725.2,330.17L727.94,334.01L729.38,334.01L729.38,334.01L729.81,340.73L728.95,343.99L727.07,345.53L721.15,353.78L713.65,359.73L712.21,361.65L712.21,376.03L711.63,378.14L707.88,381.2L707.59,382.35L707.59,382.35L703.84,382.54L699.22,384.65L696.62,384.27L694.17,382.93L692.29,381.2L691.43,379.86L690.42,374.69L689.26,373.15L684.79,373.54L682.91,375.26L681.33,375.26L680.03,373.92L677.14,372.96L677.14,370.66L679.45,365.67L679.59,363.56L677.28,355.7L673.6,351.85L673.6,351.85L673.68,350.52L676.13,348.98L681.47,347.45L683.49,344.95L686.23,342.84L689.41,336.7L691.14,325.18L691.14,321.14z"/>
		<path id="MK-08" title="Brvenica" class="land" d="M171.34,157.42L174.35,162.8L177.8,166.33L180.44,166.6L182.07,167.42L182.68,176.93L185.52,178.56L189.58,178.56L191,182.09L191,183.45L190.19,185.35L187.55,185.9L186.74,188.88L186.74,196.49L189.78,197.03L198.1,197.3L203.99,202.46L213.73,202.19L214.95,198.12L217.18,197.3L219.42,197.3L221.04,199.74L221.04,203.6L221.04,203.6L215.76,203.27L209.88,207.62L202.77,215.49L197.7,223.62L193.44,227.69L189.24,228.66L189.24,228.66L187.85,226.07L181.97,218.2L176.49,213.86L174.05,210.87L174.46,207.89L173.64,204.63L167.15,204.9L160.65,204.09L154.16,200.29L151.85,199.36L151.85,199.36L150.1,198.66L150.1,191.33L149.56,189.7L149.56,189.7L151.72,189.7L150.3,185.62L150.1,183.72L151.52,181.55L154.77,181L157,179.38L159.03,176.39L161.26,170.41L161.46,167.42L153.95,167.15L152.74,165.24L152.46,157.5L152.46,157.5L153.65,157.63L155.88,152.73L157.71,151.65L159.54,151.92L165.83,156.54z"/>
		<path id="MK-09" title="Butel" class="land" d="M320.38,96.76L316.75,98.95L311.12,106.01L307.74,112.56L306.99,120.63L306.99,134.73L305.11,138.75L300.61,138.75L300.61,139.36L300.61,139.36L295.23,135.85L295.23,135.85L294.56,134.07L294.56,134.07L293.58,130.12L293.37,124.95L293.7,125.31L293.7,125.31L294.86,126.54L295.35,125.66L297.98,124.66L297.23,110.55L297.98,101.48L299.48,95.93L303.99,87.86L306.62,81.3L311.12,79.79L312.88,80.38L312.88,80.38L311.82,83.24L315.23,87.25z"/>
		<path id="MK-10" title="Valandovo" class="land" d="M604.21,362.69L604.12,363.76L608.74,369.7L614.8,375.84L618.55,377.56L624.47,377.37L627.35,377.75L628.94,379.09L630.39,381.39L630.39,383.31L629.23,385.99L626.92,388.87L625.77,391.93L625.77,393.66L631.25,403.62L631.68,409.55L640.77,409.55L644.24,408.21L646.26,408.4L651.74,413.57L651.74,416.25L654.05,417.02L660.26,417.02L662.28,416.25L663.43,414.34L665.02,413.38L667.04,413.57L668.05,415.1L669.64,415.1L672.52,411.85L675.84,404L678.01,402.66L680.03,402.08L683.64,403.04L694.6,408.79L700.71,412.8L700.71,412.8L700.13,414.18L699.42,418.98L699.91,429.32L699.91,429.32L698.49,428.3L690.03,425.37L685.39,424.64L676.66,425.22L673.01,424.2L669.92,423.9L667.82,425.22L666.16,427.86L666.16,430.2L665.39,432.55L663.62,433.43L652.63,433.28L646.44,442.5L643.78,444.26L640.82,445.1L640.82,445.1L639.36,444.99L636.49,443.09L635.16,440.45L629.86,440.6L628.53,442.94L627.65,452.61L622.07,456.56L622.07,456.56L621.35,456.56L618.42,451.58L618.42,449.68L617.43,448.07L615,447.19L615,439.87L611.57,430.49L611.68,418.92L611.02,416.14L609.91,415.55L607.7,415.55L604.5,414.23L602.4,412.18L599.64,407.93L594.77,402.35L592.34,398.4L590.35,396.78L587.15,396.34L583.28,394.44L580.3,391.21L571.05,390.12L571.05,390.12L569.58,388.42L567.92,383.58L567.37,380.35L567.59,376.38L569.06,371.31L569.06,371.31L569.49,372L570.79,372L571.22,370.08L572.37,367.97L579.73,365.1L593.15,361.84L598.64,361.65z"/>
		<path id="MK-11" title="Vasilevo" class="land" d="M659.91,286.69L660.22,287.46L659.86,290.82L660.76,293.71L663.11,292.99L664.73,289.14L666.17,287.94L668.27,288.47L672.59,293.08L676.2,294.04L677.65,295.39L678.66,297.89L678.51,304.04L677.79,305.96L674.04,307.5L674.18,310.96L680.82,310.77L689.9,312.84L689.9,312.84L691.14,321.14L691.14,325.18L689.41,336.7L686.23,342.84L683.49,344.95L681.47,347.45L676.13,348.98L673.68,350.52L673.6,351.85L673.6,351.85L671.73,352.82L667.98,355.89L664.95,356.47L660.18,358.39L651.38,358.19L645.18,350.14L641.57,348.41L639.12,346.49L637.1,346.49L633.63,344.57L630.6,344.95L628.73,348.79L626.99,351.1L623.82,354.74L623.4,354.37L623.4,354.37L622.95,353.97L622.52,350.33L621.51,347.06L621.29,340.73L621.44,338.23L621.77,337.94L621.77,337.94L622.74,337.08L622.74,334.97L620.57,330.56L620.57,329.02L621.73,328.06L625.62,327.48L628.51,325.37L630.1,321.53L631.4,320.76L633.13,320.76L637.89,323.64L646.84,332.48L648.57,332.67L651.02,329.98L652.75,327.29L653.04,320.38L652.61,317.69L651.45,315.38L650.73,309.81L648.57,308.46L646.11,304.62L644.38,301.74L644.24,299.43L645.1,296.74L648.86,289.81L650.01,288.66L659.1,287.7z"/>
		<path id="MK-12" title="Vevčani" class="land" d="M19.63,440.66L23.94,439.1L33.38,438.81L36.9,439.1L39.97,440.56L44.58,440.85L49.19,436.78L52.05,436.19L54.46,436.19L56.66,438.23L57.1,440.27L57.1,443.18L54.9,445.51L51.39,447.54L44.14,447.54L38.65,451.32L31.63,451.9L23.94,449.58L20.68,449.58L20.68,449.58L19.63,443.79L20.05,441.16z"/>
		<path id="MK-13" title="Veles" class="land" d="M409.14,174.14L409.11,179.33L412.38,192L422.99,205.28L422.99,205.28L423.09,207.22L422.03,209L413.92,217.52L412.99,219.12L413.52,220.72L419.64,228.71L419.64,231.55L415.78,240.42L414.98,243.79L415.91,245.21L419.37,245.21L421.76,246.09L426.81,255.15L426.81,255.15L426.81,260.46L425.61,266.31L422.96,269.67L417.91,274.81L412.86,286.68L409.94,291.28L401.97,291.99L401.04,293.41L400.06,299.71L400.06,299.71L397.1,299.39L390.18,297.62L387.52,294.61L386.72,284.32L385.65,282.73L384.19,283.08L380.47,286.63L378.87,287.34L377.27,287.16L375.68,284.68L375.15,282.37L375.28,280.07L374.48,276.7L371.95,272.79L370.89,266.05L369.03,261.61L365.83,260.02L358.78,259.13L353.99,256.82L352.26,256.46L350.67,256.46L348.27,258.42L346.54,258.42L344.95,257.18L340.16,247.23L338.29,244.57L338.59,243.65L338.59,243.65L338.69,243.32L344.15,242.79L348.94,241.02L350.8,239.77L356.92,229.64L356.92,222.36L355.46,221.47L354.26,219.69L354.26,211.87L355.7,211.36L355.7,211.36L355.78,212.35L358.83,213.77L362.15,214.3L364.41,214.48L365.87,213.06L367.07,212.52L367.87,213.23L368,216.25L367.33,217.67L367.6,218.56L369.33,218.56L370.39,216.43L373.45,213.23L373.58,211.81L375.7,211.81L379.02,216.61L382.61,217.85L384.21,217.32L385,215.72L387,207.37L388.46,203.29L389.12,199.38L389.52,192.09L388.72,185.69L388.99,184.27L390.72,183.38L394.57,183.56L398.69,181.96z"/>
		<path id="MK-14" title="Vinica" class="land" d="M652.81,145.31L653.64,167.68L654.93,168.84L664.31,171.55L676,177.73L682.5,179.27L685.38,179.47L685.38,181.59L684.09,182.75L680.33,190.09L678.17,202.44L676.29,206.11L674.13,209L673.55,211.9L673.63,216.54L673.63,216.54L672.97,216.72L672.4,220L673.41,222.12L673.84,226.36L673.41,233.11L672.25,237.93L670.23,242.75L667.35,246.21L663.16,246.21L659.84,246.79L657.38,249.01L657.38,249.01L652.32,248.62L648.57,247.08L641.21,240.34L634.42,236.87L632.69,232.82L631.68,231.86L629.52,232.05L628.08,235.9L626.34,237.64L622.16,238.6L615.38,238.79L612.78,237.64L609.46,233.98L607.29,232.24L604.33,231.55L604.33,231.55L604.48,223.79L604.48,223.79L605.2,214.5L604.91,202.93L603.62,195.4L602.03,193.66L601.07,191.25L601.07,191.25L601.16,190.38L603.33,187.87L603.04,174.54L604.48,170.49L605.92,159.47L606.79,157.92L611.7,157.73L615.02,160.05L616.46,162.17L617.9,163.33L621.51,163.53L626.05,160.48L626.05,160.48L630.31,162.56L632.48,162.56L635.94,160.24L639.98,151.74L641.28,145.55L643.16,143.81L645.46,143.42L650.08,144z"/>
		<path id="MK-15" title=" Vraneštica" class="land" d="M196.06,308.67L196.28,308.38L197.29,310.81L198.1,317.3L199.73,319.73L203.38,323.25L210.08,327.03L210.28,329.46L207.24,331.35L203.79,334.86L200.34,339.45L195.87,342.69L194.04,345.66L191.2,346.47L188.97,347.82L188.36,350.79L188.36,354.32L188.36,354.32L182.88,352.68L178.21,353.22L177.4,354.84L177.2,357.54L178.62,361.04L179.23,364.55L179.23,367.52L181.26,370.76L184.91,369.68L186.85,369.68L186.85,369.68L186.74,373.45L182.47,375.61L178.21,376.69L166.64,376.42L165.42,373.99L165.42,371.57L164,369.14L156.08,363.74L154.87,361.31L154.46,358.35L154.87,354.84L157.79,353.3L157.79,353.3L160.55,348.9L163.6,341.34L166.84,339.18L166.84,339.18L172.12,338.64L175.98,335.94L178.62,332.16L181.46,322.71L183.89,320.27L187.55,319.19L191.61,315.68z"/>
		<path id="MK-16" title="Vrapčište" class="land" d="M93.43,172.25L96.91,171.22L115.79,174.48L125.74,177.74L142.18,186.98L146.24,187.8L148.27,189.7L149.56,189.7L149.56,189.7L150.1,191.33L150.1,198.66L151.85,199.36L151.85,199.36L149.69,200.29L147.05,203.82L148.47,210.33L145.43,213.86L139.74,215.76L130,213.32L122.29,214.4L118.63,217.66L113.15,216.84L107.88,213.86L106.05,211.14L104.22,205.99L102.19,203.55L90.01,202.73L88.74,202.09L88.74,202.09L100.57,193.39L87.23,180.97z"/>
		<path id="MK-17" title="Gazi Baba" class="land" d="M329.2,143.31L326.25,148.08L326.35,149.53L327.04,150.85L329.99,152.7L332.06,153.36L338.95,158.37L341.81,163.78L342.21,170.86L342.21,170.86L338.93,174.72L338.93,174.72L335.31,167.99L333.53,167.52L333.53,167.52L331.02,163.41L325.77,159.39L317.5,155.36L311.12,150.33L306.62,147.81L303.61,147.31L300.16,145.18L300.16,145.18L300.61,139.36L300.61,139.36L300.61,138.75L305.11,138.75L306.99,134.73L306.99,120.63L307.74,112.56L311.12,106.01L316.75,98.95L320.38,96.76L320.38,96.76L323.03,101.1L329.48,109.56L329.48,109.56L328.81,111.12L329.01,115.87L331.86,120.1L332.95,129.74L332.75,131.59L330.58,133.57L329.21,135.94L328.81,142.94z"/>
		<path id="MK-18" title="Gevgelija" class="land" d="M571.05,390.12L580.3,391.21L583.28,394.44L587.15,396.34L590.35,396.78L592.34,398.4L594.77,402.35L599.64,407.93L602.4,412.18L604.5,414.23L607.7,415.55L609.91,415.55L611.02,416.14L611.68,418.92L611.57,430.49L615,439.87L615,447.19L617.43,448.07L618.42,449.68L618.42,451.58L621.35,456.56L622.07,456.56L622.07,456.56L628.08,465.29L628.44,467.32L627.9,472.6L626.27,477.75L626,481.58L626.72,482.42L633.6,482.9L641.39,486.97L646.01,490.08L648.65,492.44L647.2,493.48L647.2,493.48L637.73,488.6L633.95,488.59L627.57,489.74L623.81,490.65L621.61,491.7L611.67,493.95L600.36,493.46L596.18,492.16L591.79,486.25L588.24,485.99L587.87,485.6L579.6,486.14L571.57,487.79L568.93,487.03L564.87,481.84L561.36,482.89L552.6,477.08L552.16,476.41L549.25,474.83L539.98,474.95L538.38,474.62L538.38,474.62L532.08,472.96L533.05,468.61L534.08,466.4L535.87,465.55L541,464.7L545.36,464.87L547.41,464.7L548.31,464.19L548.31,462.16L546.9,458.42L546.39,454.86L544.59,449.76L544.85,447.21L548.57,446.87L552.16,445.17L557.67,440.42L560.62,439.23L560.75,436.85L559.98,435.83L558.44,435.83L556.77,434.98L556.13,422.91L554.49,419.18L554.49,419.18L554.59,417.81L558.57,412.71L560.11,411.35L566.26,411.01L572.8,411.35L574.34,410.84L574.85,405.73L574.6,402.67L573.32,398.59L570.88,395.35L570.62,393.31z"/>
		<path id="MK-19" title="Gostivar" class="land" d="M151.85,199.36L154.16,200.29L160.65,204.09L167.15,204.9L173.64,204.63L174.46,207.89L174.05,210.87L176.49,213.86L181.97,218.2L187.85,226.07L189.24,228.66L189.24,228.66L181.26,229.59L179.63,233.39L179.63,243.42L178.82,245.04L176.38,245.04L174.76,246.4L174.35,248.57L175.77,252.63L178.62,254.8L179.02,261.57L182.27,268.34L182.88,275.38L181.3,281.23L181.3,281.23L179.43,281.06L176.79,283.23L173.54,283.77L169.69,285.12L165.42,285.66L160.96,288.91L160.69,290.57L160.69,290.57L157.91,288.1L152.84,281.6L148.37,278.35L143.7,275.92L137.41,274.02L134.09,274.36L134.09,274.36L133.45,270.77L128.99,265.63L122.9,255.07L127.16,250.73L127.16,248.57L115.59,248.29L111.94,250.46L109.09,247.21L108.48,239.35L104.63,232.57L102.8,230.4L98.13,230.13L86.56,228.23L80.27,228.23L74.58,235.56L71.13,238.27L58.55,236.64L53.88,232.57L46.98,229.32L43.86,225.75L43.86,225.75L47.05,220.65L50.73,219.38L54.06,211.82L56.75,211.85L60.57,208.88L63.84,204.31L73.79,206.81L80.73,206.4L88.74,202.09L88.74,202.09L90.01,202.73L102.19,203.55L104.22,205.99L106.05,211.14L107.88,213.86L113.15,216.84L118.63,217.66L122.29,214.4L130,213.32L139.74,215.76L145.43,213.86L148.47,210.33L147.05,203.82L149.69,200.29z"/>
		<path id="MK-20" title="Gradsko" class="land" d="M426.81,255.15L427.07,252.48L428.01,251.77L431.46,251.77L433.32,252.3L434.12,253.72L434.51,257.27L435.98,261.88L436.11,269.67L437.44,276.94L438.5,279.42L440.36,280.48L444.21,281.54L449.66,281.9L452.98,279.77L455.9,276.94L457.08,274.59L457.08,274.59L458.02,275.35L463.25,274.85L466.36,275.18L472.15,278.84L472.15,278.84L472.34,281.32L471.46,283.81L469.85,286.14L468.1,289.95L466.24,290.95L464.12,293.27L462.75,296.26L462.38,300.73L463.37,302.56L465.36,303.72L467.6,303.72L472.21,301.23L474.7,300.4L476.32,300.4L478.19,301.9L478.56,305.88L476.32,311.02L473.71,315.49L473.95,317.81L474.95,318.31L476.57,320.13L476.57,322.12L473.46,329.58L469.6,329.74L468.6,328.25L467.98,325.1L467.96,320.58L466.56,318.92L464.69,318.92L463.82,319.69L463.82,319.69L461.42,318.3L458.93,318.3L456.29,319.96L455.51,325.75L451.15,325.75L449.28,324.1L445.7,323.27L443.84,324.72L441.97,327L440.88,330.1L439.17,332.18L434.5,332.18L429.99,329.9L428.43,328.45L425.94,327.62L423.76,327.83L422.83,328.65L422.83,332.38L423.92,337.14L423.92,339.22L421.58,341.9L416.6,342.32L413.18,345.22L413.02,345.8L413.02,345.8L404.76,340.81L403.83,337.28L404.49,329.32L408.61,324.73L409.94,321.72L409.94,317.83L408.74,315.35L401.43,310.22L399.57,307.57L400.06,299.71L400.06,299.71L401.04,293.41L401.97,291.99L409.94,291.28L412.86,286.68L417.91,274.81L422.96,269.67L425.61,266.31L426.81,260.46z"/>
		<path id="MK-21" title="Debar" class="land" d="M29.79,308.29L35.63,314.85L43.24,320.34L53.39,322.45L56.88,322.45L63.23,327.94L66.71,333.43L70.84,338.07L77.5,340.6L81.62,342.71L82.94,349.46L82.94,349.46L80.07,348.09L77.63,348.63L75.6,351.33L74.38,354.84L71.95,366.71L69.55,371.21L69.55,371.21L68.5,369.95L67.59,370.98L67.59,370.98L65.76,367.17L61,366.32L61,354.52L58.78,347.35L55.3,347.35L52.12,344.4L50.22,336.8L46.73,331.74L41.34,330.89L34.04,330.89L30.56,336.8L23.9,341.02L16.92,344.4L15.58,345.64L15.58,345.64L15.39,343.36L13.99,342.17L12.07,342.65L7.76,341.69L5.25,338.96L5,336.05L1.6,334.36L0,330.9L2.34,327.78L4.63,320.11L6.06,317.71L10.32,318.02L14.4,316.07L23.6,313.06z"/>
		<path id="MK-22" title="Debarca" class="land" d="M70.32,372.13L72.96,369.68L82.71,370.22L104.02,369.68L113.36,370.49L119.85,372.1L131.42,372.37L133.45,378.04L136.7,384.78L137.72,389.9L137.1,394.48L139.34,399.06L145.02,400.94L147.46,403.64L150.1,409.29L151.75,411.79L151.75,411.79L151.37,412.53L151.37,416.69L152.11,419.87L157.28,424.76L163.18,427.94L166.13,436.01L168.16,438.7L171.66,440.66L171.66,445.3L174.82,451.74L174.82,451.74L170.4,452.88L155.98,450.73L148.07,445.35L137.1,441.59L128.78,441.59L123.71,443.74L116,443.47L112.95,444.01L110.92,445.89L110.31,449.12L106.45,451.54L102.8,458.8L103.21,466.86L97.93,469.01L96.1,473.04L86.67,473.46L86.67,473.46L85.95,471.7L86.76,465.52L84.13,462.56L83.52,459.6L83.52,456.92L84.53,453.96L89.2,448.04L91.43,440.78L92.45,431.91L92.04,428.41L84.13,416.3L84.13,406.87L82.91,396.9z"/>
		<path id="MK-23" title="Delčevo" class="land" d="M665.44,115.13L666.37,115.1L667.87,117.29L669.95,117.98L670.82,117.49L671.38,118.05L671.93,117.49L675.16,118.12L679.19,116.75L680.25,116.83L681.57,115.85L681.23,118.26L683.14,120.27L684.16,120.47L684.25,121.75L685.57,124.47L687.69,125.89L688.65,126.07L689.73,125.29L690.76,125.34L691.65,126.39L694.38,126.87L696.55,127.78L696.99,128.51L698.66,128.78L699.08,129.39L700.27,128.86L701.09,129.14L702.54,128.86L703.83,127.45L704.36,125.38L709,132.92L711.85,135.59L716.5,136.15L717.84,135.75L719.58,134.37L721.02,135.66L723.12,135.3L723.74,137.66L723.42,139.46L721.47,142.55L721.72,143.11L726.09,145.3L725.7,147.37L726.09,148.09L725.85,152.78L727.02,153.8L726.44,156.22L726.49,159.73L725.89,162.13L726.69,165.01L726.16,166.14L727.21,167L727.02,168.12L726.03,169.65L727.23,171.04L727.8,173.96L728.8,175.48L731.18,176.4L732.01,178.18L731.96,180.17L733.58,182.82L732.88,184.88L733.04,186.28L734.28,187.6L733.57,189.27L734.31,191.41L734.32,192.89L734.32,192.89L725.36,199.36L721.32,203.79L715.4,215.56L712.8,215.95L709.34,217.3L707.17,220.77L704.14,224.05L701.69,224.43L698.88,224.12L698.88,224.12L693.18,221.16L688.85,219.81L677.45,218.46L674.42,218.65L673.63,216.54L673.63,216.54L673.55,211.9L674.13,209L676.29,206.11L678.17,202.44L680.33,190.09L684.09,182.75L685.38,181.59L685.38,179.47L682.5,179.27L676,177.73L664.31,171.55L654.93,168.84L653.64,167.68L652.81,145.31L652.81,145.31L652.19,138.68L652.91,136.55L657.53,135.39L658.25,134.23L659.08,110.07L659.08,110.07L660.45,110.88L660.73,112.46z"/>
		<path id="MK-24" title="Demir Kapija" class="land" d="M559.97,345.22L560.83,347.26L563.57,347.64L569.63,350.9L571.07,353.97L570.5,356.85L567.9,359.34L567.32,361.84L568.19,369.89L569.06,371.31L569.06,371.31L567.59,376.38L567.37,380.35L567.92,383.58L569.58,388.42L571.05,390.12L571.05,390.12L570.62,393.31L570.88,395.35L573.32,398.59L574.6,402.67L574.85,405.73L574.34,410.84L572.8,411.35L566.26,411.01L560.11,411.35L558.57,412.71L554.59,417.81L554.49,419.18L554.49,419.18L552.6,419.91L543.99,425.85L536.41,430.19L531.42,430.87L525.91,430.19L516.62,424.02L515.07,419.68L513.69,417.4L511.8,417.17L510.08,416.26L507.84,413.75L506.63,413.29L494.09,401.72L494.59,401.68L494.59,401.68L505.11,402.01L509.62,400.98L510.51,399.38L511.72,394.84L512.16,390.75L511.28,388.55L507.42,383.43L506.65,381.68L506.98,380.36L508.08,378.9L509.62,378.75L512.93,376.12L515.35,370.7L518,360.45L519.32,358.11L522.4,355.77L525.71,351.81L527.8,350.35L530.56,350.35L532.32,350.93L535.52,354.01L538.6,355.77L543.34,358.26L546.09,359.14L547.64,359.14L549.84,356.35L551.49,352.4L555.13,350.05z"/>
		<path id="MK-25" title="Demir Hisar" class="land" d="M207.47,387.34L214.54,390.84L216.84,392.75L216.84,398.49L221.46,397.73L226.07,398.49L229.52,398.49L231.54,401.55L231.25,417.61L231.83,419.14L237.31,418.76L240.19,417.23L243.07,418.37L246.82,422.96L247.68,427.93L249.12,432.89L252.58,435.95L254.31,439.01L254.31,447.41L253.44,450.08L253.27,454.22L253.27,454.22L249.91,456.54L246.91,461.73L241.38,466L237.92,467.83L235.16,468.14L231.24,474.85L227.32,475.15L222.71,477.9L219.25,482.47L212.1,485.83L204.95,486.74L194.7,491.57L194.7,491.57L190.66,485.34L189,479L189,473.87L187.52,465.57L186.23,462.4L180.51,462.15L178.49,459.71L177.56,456.29L177.19,456.99L177.19,456.99L176.83,455.07L174.82,451.74L174.82,451.74L171.66,445.3L171.66,440.66L168.16,438.7L166.13,436.01L163.18,427.94L157.28,424.76L152.11,419.87L151.37,416.69L151.37,412.53L151.75,411.79L151.75,411.79L153.59,408.13L160.41,402.99L167.6,399.81L182.18,400.05L191.2,399.64L196.09,396.58L200.71,391.99L201.57,388.93L206.18,386.63z"/>
		<path id="MK-26" title="Dojran" class="land" d="M640.82,445.1L643.78,444.26L646.44,442.5L652.63,433.28L663.62,433.43L665.39,432.55L666.16,430.2L666.16,427.86L667.82,425.22L669.92,423.9L673.01,424.2L676.66,425.22L685.39,424.64L690.03,425.37L698.49,428.3L699.91,429.32L699.91,429.32L698.72,445.97L698.25,445.46L698.25,445.46L697.27,444.41L694.73,443.38L688.21,443.82L684.45,446.46L681.91,450.26L681.03,452.46L680.69,455.97L682.13,461.53L686.99,470.75L692.8,476.3L692.8,476.3L692.5,477.71L686.61,483.27L684.82,482.99L679.66,478.81L677.06,475.39L674.9,471.43L671.71,468.2L670.34,467.87L670.34,467.87L670,467.79L670,459.29L669.28,458.33L667.83,458.33L662.67,454.62L660.4,453.78L656.24,453.66L653.79,454.74L648.18,454.38L645.28,450.18L643.11,449.22L641.39,447.3z"/>
		<path id="MK-27" title="Dolneni" class="land" d="M278.91,303.34L281.47,303.34L293.71,307.71L296.25,310.5L297.14,313.88L298.63,316.65L300.27,318.05L303.56,319.24L305.05,323.01L305.8,327.78L306.24,337.31L308.18,340.89L310.27,343.27L313.41,344.85L321.17,344.66L322.96,343.27L324.9,343.07L326.99,343.66L329.22,351.4L330.27,352.99L332.21,353.98L343.1,356.76L345.94,359.14L347.88,362.12L348.23,363.7L348.23,363.7L344.74,365.29L342.36,367.87L340.57,372.82L339.97,377.58L333.25,379.96L329.67,384.52L326.54,386.1L316.54,386.5L309.45,388.68L303.18,388.68L299.3,392.05L296.17,397L294.08,397.4L289.79,401.09L289.79,401.09L289.23,400.17L285.8,397.99L281.92,397.79L279.23,398.19L276.99,399.18L274.61,399.38L272.96,399.38L271.47,398.78L270.58,397L268.79,387.1L266.85,386.3L265.5,386.9L263.26,388.88L261.32,389.08L259.83,390.26L259.48,391.2L259.48,391.2L257.07,389.87L256.03,387.69L248.42,379.17L244.98,377.38L245.13,374.61L246.33,373.02L256.48,373.22L256.77,368.86L255.73,366.48L253.94,365.29L249.16,359.74L244.11,352.16L244.11,352.16L243.79,349.22L244.24,348.23L246.48,346.84L248.57,346.84L250.21,345.85L251.4,343.07L252.74,341.48L256.25,340.89L264.91,344.85L264.61,334.33L265.5,331.55L267.14,328.57L273.86,320.43L275.8,315.66L276.55,303.34z"/>
		<path id="MK-28" title="Drugovo" class="land" d="M133.96,332.3L134.77,337.02L136.6,339.72L138.63,341.61L143.3,344.58L147.56,346.47L152.03,347.82L156.49,351.06L157.79,353.3L157.79,353.3L154.87,354.84L154.46,358.35L154.87,361.31L156.08,363.74L164,369.14L165.42,371.57L165.42,373.99L166.64,376.42L178.21,376.69L182.47,375.61L186.74,373.45L186.85,369.68L186.85,369.68L189.78,368.33L192.22,368.06L195.46,374.26L204.19,378.04L205.8,379.22L205.8,379.22L205.02,380.9L207.14,385.64L207.47,387.34L207.47,387.34L206.18,386.63L201.57,388.93L200.71,391.99L196.09,396.58L191.2,399.64L182.18,400.05L167.6,399.81L160.41,402.99L153.59,408.13L151.75,411.79L151.75,411.79L150.1,409.29L147.46,403.64L145.02,400.94L139.34,399.06L137.1,394.48L137.72,389.9L136.7,384.78L133.45,378.04L131.42,372.37L119.85,372.1L113.36,370.49L104.02,369.68L82.71,370.22L72.96,369.68L70.32,372.13L70.32,372.13L69.55,371.21L69.55,371.21L71.95,366.71L74.38,354.84L75.6,351.33L77.63,348.63L80.07,348.09L82.94,349.46L82.94,349.46L86.36,350.79L91.23,351.6L95.09,350.25L98.33,347.01L101.92,340.18L105.73,338.07L106.04,329.21L109.85,324.98L109.85,308.09L107.42,294.54L107.42,294.54L110.82,295.13L113.05,299.19L114.47,304.33L116.5,309.46L121.58,310.27L125.84,320.27L130.51,325.41L132.74,331.89z"/>
		<path id="MK-29" title="Gjorče Petrov" class="land" d="M253.43,98.02L257.44,99L256.97,98.17L259.82,99.97L259.82,99.97L269.06,109.04L274.32,120.63L274.32,126.33L274.32,126.33L274.13,144.35L274.13,144.35L266.46,143.64L261.8,137.71L258.54,130.22L255.05,123.67L254.12,118.36L251.56,115.54L249.23,115.86L247.37,118.04L244.11,118.67L241.31,117.11L239.22,111.79L238.48,104.23L238.48,104.23L243.13,104.1L248.51,101.66z"/>
		<path id="MK-30" title="Želino" class="land" d="M174.78,135.15L175.99,136.4L181.18,137.92L184.56,137.92L186.82,136.71L188.4,137.92L188.4,140.64L186.6,142.46L187.27,143.97L190.89,145.18L199.24,145.78L200.82,143.36L202.4,142.46L207.27,142.31L207.27,142.31L207.23,142.72L210.37,143.51L214.1,145.09L222.14,150.35L223.12,151.92L222.92,157.18L220.77,167.95L219.98,174.78L219.98,178.72L222.34,181.34L224.3,181.6L228.22,186.33L231.19,187.92L231.19,187.92L231.01,190.2L233.22,193.15L238.37,196.76L237.64,206.92L235.92,212.17L236.22,212.48L236.22,212.48L230.99,210.06L227.54,206.8L223.88,204.36L221.04,203.6L221.04,203.6L221.04,199.74L219.42,197.3L217.18,197.3L214.95,198.12L213.73,202.19L203.99,202.46L198.1,197.3L189.78,197.03L186.74,196.49L186.74,188.88L187.55,185.9L190.19,185.35L191,183.45L191,182.09L189.58,178.56L185.52,178.56L182.68,176.93L182.07,167.42L180.44,166.6L177.8,166.33L174.35,162.8L171.34,157.42L171.34,157.42L173.54,154.37L179.63,152.46L179.83,149.47L178.82,148.65L175.57,147.57L174.15,145.39L173.54,143.49L170.9,142.67L169.69,141.31L169.69,140.22L172.93,135.59z"/>
		<path id="MK-31" title="Zajas" class="land" d="M160.69,290.57L160.14,294.05L161.16,298.11L160.96,309.19L158.72,313.25L157.3,317.84L155.68,318.92L155.34,320.73L155.34,320.73L152.23,320.27L148.98,321.08L146.75,322.98L140.46,325.95L135.38,327.03L133.96,330.27L133.96,332.3L133.96,332.3L132.74,331.89L130.51,325.41L125.84,320.27L121.58,310.27L116.5,309.46L114.47,304.33L113.05,299.19L110.82,295.13L107.42,294.54L107.42,294.54L106.15,294.32L102.09,295.4L99.65,293.51L99.45,290.8L102.7,286.74L109.6,286.47L112.04,284.58L117.31,278.35L120.76,276.19L127.67,276.19L129.29,274.84L134.09,274.36L134.09,274.36L137.41,274.02L143.7,275.92L148.37,278.35L152.84,281.6L157.91,288.1z"/>
		<path id="MK-32" title="Zelenikovo" class="land" d="M343.29,180.93L347.64,181.12L350.46,182L354.45,184L357.24,183.74L358.7,185.87L358.17,206.49L355.64,210.57L355.7,211.36L355.7,211.36L354.26,211.87L354.26,219.69L355.46,221.47L356.92,222.36L356.92,229.64L350.8,239.77L348.94,241.02L344.15,242.79L338.69,243.32L338.59,243.65L338.59,243.65L336.3,242.97L313.68,243.68L311.9,241.94L311.9,241.94L311.69,238.35L313.28,233.02L312.09,230.18L308.36,225.38L307.3,222.54L306.9,214L308.89,209.55L311.42,206.71L313.68,206.89L314.21,208.49L314.35,211.33L315.15,212.4L316.88,212.75L319.67,212.58L321,210.98L321.67,204.75L323.13,202.62L325.39,200.66L327.39,196.75L328.18,191.05L332.18,188.91L338.16,184.46L342.02,183.22z"/>
		<path id="MK-33" title="Zrnovci" class="land" d="M601.07,191.25L602.03,193.66L603.62,195.4L604.91,202.93L605.2,214.5L604.48,223.79L604.48,223.79L596.88,223.63L587.59,222.63L587.59,222.63L584.33,216.42L580.94,212.06L577.93,209.2L577.17,205.85L577.09,200.48L577.09,200.48L582.19,200.31L587.59,195.11L589.22,195.11L590.48,196.11L590.85,197.62L592.48,198.13L593.86,197.46L597.38,192.08z"/>
		<path id="MK-34" title="Ilinden" class="land" d="M357.6,121.87L358.54,124.38L362.15,126.52L369.27,132.65L373.42,132.65L374.21,134.22L374.21,137.78L373.36,142.63L373.36,144.33L373.74,144.78L373.74,144.78L373.04,145.05L368.79,154.3L368.37,156.01L368.37,157.58L370.22,159.32L370.89,162.88L369.89,164.88L362.09,165.55L359.43,164.22L356.94,161.99L354.28,161.99L352.29,164.88L348.63,166.66L345.31,168.89L342.99,169.56L342.21,170.86L342.21,170.86L341.81,163.78L338.95,158.37L332.06,153.36L329.99,152.7L327.04,150.85L326.35,149.53L326.25,148.08L329.2,143.31L329.2,143.31L329.9,143.99L331.37,143.86L332.85,142.01L338.07,139.11L343.77,138.05L351.95,127.63z"/>
		<path id="MK-35" title="Jegunovce" class="land" d="M234.33,97.25L230.77,101.48L215.32,103.12L211.89,104.77L210.67,106.41L215.57,111.68L217.78,111.68L219.74,110.36L221.45,110.04L222.68,113.65L222.68,117.27L221.45,118.92L218.51,120.23L216.55,122.54L216.3,124.84L217.04,128L219.59,132.73L219.59,135.89L213.9,138.25L209.78,139.04L208.21,139.83L207.43,140.62L207.27,142.31L207.27,142.31L202.4,142.46L200.82,143.36L199.24,145.78L190.89,145.18L187.27,143.97L186.6,142.46L188.4,140.64L188.4,137.92L186.82,136.71L184.56,137.92L181.18,137.92L175.99,136.4L174.78,135.15L174.78,135.15L174.18,132.55L174.18,132.55L173.96,131.56L175.08,130.35L188.63,127.63L193.37,125.2L195.4,120.36L198.79,114.3L201.5,112.18L204.66,108.24L205.11,103.7L203.98,100.06L201.72,98.54L198.79,97.94L196.3,96.42L193.59,90.97L189.53,85.21L185.02,79.75L176.78,72.17L176.78,72.17L182.71,67.79L185.72,63.62L189.64,60.47L193.8,57.87L201.46,58.26L205.7,61.74L209.83,62.65L212.69,67.03L216.1,68.83L215.56,75.42L220.05,77.21L224.08,80.34L228.43,86.39z"/>
		<path id="MK-36" title="Kavadarci" class="land" d="M463.95,339.66L466.09,341.49L469.36,341.49L472,341.28L475.12,339.42L477.61,339.01L480.72,340.25L482.28,342.53L482.12,350.81L485.23,366.11L485.23,380.38L486.63,386.58L489.28,391.12L489.9,394.43L489.9,398.77L494.59,401.68L494.59,401.68L494.09,401.72L506.63,413.29L507.84,413.75L510.08,416.26L511.8,417.17L513.69,417.4L515.07,419.68L516.62,424.02L525.91,430.19L531.42,430.87L536.41,430.19L543.99,425.85L552.6,419.91L554.49,419.18L554.49,419.18L556.13,422.91L556.77,434.98L558.44,435.83L559.98,435.83L560.75,436.85L560.62,439.23L557.67,440.42L552.16,445.17L548.57,446.87L544.85,447.21L544.59,449.76L546.39,454.86L546.9,458.42L548.31,462.16L548.31,464.19L547.41,464.7L545.36,464.87L541,464.7L535.87,465.55L534.08,466.4L533.05,468.61L532.08,472.96L538.38,474.62L538.38,474.62L523.44,477.64L513.12,488.81L510.9,490.54L503.36,489.27L501.49,487.22L500.06,486.85L492.46,481.95L491.61,478.55L487.99,477.45L487.29,478.61L485.99,477.77L482.01,485.9L478.35,488.35L469.64,489.15L467.78,490.19L460.72,490.91L457.29,492.03L454.3,495.05L446.88,500.93L446.88,500.93L446.17,498.95L445.55,494.43L445.55,490.93L444.77,488.87L438.86,488.66L436.52,488.05L434.81,486.81L433.72,477.96L434.11,465.08L431.78,461.17L430.22,460.35L428.35,456.84L428.98,448.39L432.4,442L433.02,438.7L434.11,437.46L433.49,435.81L428.35,435.4L420.57,435.81L417.93,434.99L416.53,432.1L414.97,426.74L414.19,423.23L414.04,417.24L414.5,410.64L415.13,407.75L416.84,404.45L416.99,398.66L416.37,395.15L413.02,390.09L412.4,386.58L412.71,378.73L413.8,376.45L413.8,371.49L413.18,369.42L411.62,370.25L409.29,375.21L406.33,375.21L404.78,374.18L401.51,370.66L399.64,367.77L399.64,364.57L399.64,364.57L399.64,364.04L402.29,360.94L404,357.63L405.87,355.77L409.45,356.39L411.1,358.44L411.1,358.44L415.98,365.49L418.63,368.39L426.41,369.01L428.43,368.39L437.77,368.18L439.95,366.53L440.57,361.36L441.97,359.91L444.62,359.91L446.64,360.73L449.13,361.98L451.62,364.04L453.33,364.66L454.89,364.04L455.04,360.94L456.29,359.29L461.58,355.98L462.36,349.36L462.04,343.98L462.98,340.66z"/>
		<path id="MK-37" title="Karbinci" class="land" d="M513.57,195.23L517.8,192.78L519.72,193.29L520.62,195L520.62,196.88L521.64,200.13L524.84,201.5L535.71,200.99L537.03,199.48L537.03,199.48L540.05,203.21L546.7,209.37L554.63,215.18L566.52,217.23L570.11,216.72L573.56,216.89L580.21,223.55L586.6,224.07L587.59,222.63L587.59,222.63L596.88,223.63L604.48,223.79L604.48,223.79L604.33,231.55L604.33,231.55L602.39,232.24L595.9,237.25L595.9,242.65L595.32,246.69L594.02,249.97L591.78,252.28L590.63,254.85L590.63,254.85L589.1,252.93L584.75,252.76L580.34,254.29L573.81,254.81L565.76,256.51L559.36,256.51L555.91,251.9L551.43,247.29L545.3,242L539.29,240.98L535.45,236.54L529.95,231.58L525.6,228.85L521.13,228.17L515.12,228L511.66,227.31L509.11,223.38L507.06,217.4L506.17,210.39L506.17,204.75L508.72,199.45z"/>
		<path id="MK-38" title="Karpoš" class="land" d="M274.32,126.33L277.86,126.79L281.12,129.29L282.99,133.03L286.48,137.09L291.13,138.34L293.7,138.34L295.2,137L295.2,137L295.05,140.51L295.05,140.51L293.37,140.78L290.1,143.07L289.38,145.55L288.67,146.51L288.24,150.71L289.24,152.81L292.23,156.24L293.8,156.24L294.65,154.52L294.51,151.85L295.71,151.47L295.71,151.47L294.97,157.88L295.35,160.39L295.35,160.39L275.07,160.39L274.52,159.16L274.52,159.16L273.94,157.88L274.13,144.35L274.13,144.35z"/>
		<path id="MK-39" title="Kisela Voda" class="land" d="M297.17,149.64L299.86,152.85L303.61,153.35L306.99,157.88L310.37,160.39L316.75,162.91L320.88,163.91L325.39,167.43L328.02,171.25L328.02,171.25L323.99,173.14L322.51,174.85L321.04,179.59L319.85,181.7L317.59,182.75L313.85,181.3L313.16,179.46L313.16,170.63L310.37,167.43L307.37,167.43L304.74,168.94L301.36,168.94L301.08,168.49L301.08,168.49L299.86,166.43L299.86,161.4L297.98,160.39L295.35,160.39L295.35,160.39L294.97,157.88L295.71,151.47L295.71,151.47z"/>
		<path id="MK-40" title="Kičevo" class="land" d="M155.34,320.73L155.07,322.16L156.29,324.06L157.51,329.19L159.54,329.19L161.36,327.57L162.78,327.3L165.22,329.19L166.84,332.16L166.84,339.18L166.84,339.18L163.6,341.34L160.55,348.9L157.79,353.3L157.79,353.3L156.49,351.06L152.03,347.82L147.56,346.47L143.3,344.58L138.63,341.61L136.6,339.72L134.77,337.02L133.96,332.3L133.96,332.3L133.96,330.27L135.38,327.03L140.46,325.95L146.75,322.98L148.98,321.08L152.23,320.27z"/>
		<path id="MK-41" title="Konče" class="land" d="M567.05,300.99L570.14,302.31L572.16,302.31L574.9,303.08L579.95,307.5L596.11,308.85L598.71,310.96L602.89,315.57L605.64,320.18L609.75,325.18L609.75,327.48L609.03,329.4L606,331.32L605.85,333.44L607.44,334.78L610.33,335.55L614.22,335.55L621.77,337.94L621.77,337.94L621.44,338.23L621.29,340.73L621.51,347.06L622.52,350.33L622.95,353.97L623.4,354.37L623.4,354.37L623.02,357.04L621.58,358.39L617.97,357.81L616.39,356.66L614.22,356.66L610.61,357.81L606.29,359.92L604.27,362.03L604.21,362.69L604.21,362.69L598.64,361.65L593.15,361.84L579.73,365.1L572.37,367.97L571.22,370.08L570.79,372L569.49,372L569.06,371.31L569.06,371.31L568.19,369.89L567.32,361.84L567.9,359.34L570.5,356.85L571.07,353.97L569.63,350.9L563.57,347.64L560.83,347.26L559.97,345.22L559.97,345.22L559.53,344.19L559.39,340.16L557.94,336.89L553.18,329.4L547.89,323.29L547.89,323.29L547.55,322.87L547.84,320.95L555.05,314.8L562.27,306.73L565.73,303.46z"/>
		<path id="MK-42" title="Kočani" class="land" d="M595.46,97.61L596.76,102.77L598.78,103.93L600.22,102.57L601.38,100.25L603.25,99.28L604.99,100.44L607.01,103.35L607.29,116.13L608.59,119.62L616.1,123.68L617.25,125.04L618.12,131.23L617.97,134.33L621.29,138.97L622.02,141.29L624.03,143.81L624.03,151.74L624.61,154.83L626.05,157.34L626.05,160.48L626.05,160.48L621.51,163.53L617.9,163.33L616.46,162.17L615.02,160.05L611.7,157.73L606.79,157.92L605.92,159.47L604.48,170.49L603.04,174.54L603.33,187.87L601.16,190.38L601.07,191.25L601.07,191.25L597.38,192.08L593.86,197.46L592.48,198.13L590.85,197.62L590.48,196.11L589.22,195.11L587.59,195.11L582.19,200.31L577.09,200.48L577.09,200.48L575.73,199.81L574.1,197.62L572.72,197.62L570.96,196.78L569.46,190.74L567.58,186.88L567.32,177.31L568.08,175.46L569.08,174.79L569.08,171.76L568.33,170.75L556.53,171.09L551.89,167.9L548,163.02L546.7,159.24L546.7,159.24L546.62,158.82L548.13,156.97L551.14,154.79L554.9,150.92L559.29,147.39L562.56,141L567.14,138.14L568.52,137.8L571.12,127.54L571.12,127.54L573.91,116.6L576.04,112.89L576.42,109.52L575.92,106.49L574.54,103.29L574.1,99.69L574.1,99.69L574.1,98.44L574.9,97.36L590.66,96.69z"/>
		<path id="MK-43" title="Kratovo" class="land" d="M476.05,71.53L480.79,76.46L483.81,76.46L484.64,77.38L485.06,83.86L486.16,85.71L493.04,86.08L498,88.67L501.44,93.11L511.91,101.8L517.01,101.62L520.04,100.14L523.89,99.21L526.65,97.92L527.2,96.62L527.47,90.34L530.64,89.18L530.64,89.18L530.39,90.69L531.94,92.54L539.68,92.77L544.33,92.54L550.19,91.38L552.77,90.46L554.66,88.61L556.9,89.31L560,92.54L565.34,93.93L574.1,99.69L574.1,99.69L574.54,103.29L575.92,106.49L576.42,109.52L576.04,112.89L573.91,116.6L571.12,127.54L571.12,127.54L568.61,123.5L564.13,119.58L560.51,117.5L555.01,117.04L544.5,117.27L543.3,118.19L543.3,130.43L541.23,133.43L539.86,133.43L537.45,132.51L534.18,127.89L532.63,127.66L531.08,128.35L529.53,129.97L527.81,130.43L524.19,130.43L522.64,129.28L521.27,126.27L518.34,124.2L507.67,128.35L504.82,129.97L500.87,130.66L494.5,130.43L492.77,131.35L490.71,134.12L488.13,141.97L486.75,142.2L485.37,141.74L483.31,140.12L478.49,137.59L476.4,138.11L476.4,138.11L474.5,137.47L470.26,138.34L464.56,138.34L464.56,138.34L463.71,135.25L460.13,131.74L457.92,130.44L456.55,128.97L455.31,121.58L454.34,119.36L446.63,118.81L445.39,116.96L445.12,114.19L447.05,110.31L450.49,105.87L451.31,99.95L452.45,98.5L452.45,98.5L452.76,98.1L456.62,97.92L460.2,96.62L463.23,92L466.12,86.27L466.39,82.01L466.12,72.2L467.63,71.09z"/>
		<path id="MK-44" title="Kriva Palanka" class="land" d="M557.75,4.61L561.78,9.49L565.89,13.03L571.69,16.06L573.83,14.11L576.28,15.63L577.05,15.44L577.86,16L579.45,15.5L581.95,19.34L582.27,21.29L586.1,23.33L585.4,25.81L586.97,28.6L588.25,29.58L588.52,30.65L589.41,31.39L589.86,32.88L591.47,34.29L592.55,34.19L592.72,37.48L595.58,36.8L595.79,37.82L596.89,39.08L596.89,41.04L600.08,43.52L599.59,45.74L601.76,49L602.29,51.56L602.98,51.91L602.97,53.25L605.3,56.49L606.03,59.21L605.85,60.1L610.39,60.35L615.12,63.03L615.83,64.86L615.17,66.18L615.29,67.34L616.32,69.74L616.76,73.38L620.05,77.96L618.68,78.65L618.55,79.55L618.55,79.55L603.98,89.2L600.8,93.85L595.46,96.76L595.46,97.61L595.46,97.61L590.66,96.69L574.9,97.36L574.1,98.44L574.1,99.69L574.1,99.69L565.34,93.93L560,92.54L556.9,89.31L554.66,88.61L552.77,90.46L550.19,91.38L544.33,92.54L539.68,92.77L531.94,92.54L530.39,90.69L530.64,89.18L530.64,89.18L530.73,88.61L533.66,85.83L533.83,80.75L533.14,77.97L531.42,75.19L530.73,71.49L530.73,66.17L527.29,58.53L527.64,50.43L529.01,48.81L530.39,45.56L530.39,42.79L527.64,41.4L518.68,41.4L513.17,38.61L502.16,22.85L499.46,15.76L499.46,15.76L510.64,13.34L516.5,11.56L522.91,4.53L528.06,4.61L541.29,1.59L545.73,0L552.29,0.3z"/>
		<path id="MK-45" title="Krivogaštani" class="land" d="M259.48,391.2L259.83,390.26L261.32,389.08L263.26,388.88L265.5,386.9L266.85,386.3L268.79,387.1L270.58,397L271.47,398.78L272.96,399.38L274.61,399.38L276.99,399.18L279.23,398.19L281.92,397.79L285.8,397.99L289.23,400.17L289.79,401.09L289.79,401.09L284.98,405.32L284.83,406.5L284.98,409.08L286.32,410.07L286.47,412.25L287.66,413.83L293.78,414.42L295.13,415.41L295.13,418.98L293.93,421.75L292.44,423.73L290.95,433.42L284.68,440.74L282.14,442.52L277.81,442.72L275.94,443.21L275.94,443.21L273.11,441.53L270.73,437.97L267.59,436.39L266.84,436.46L266.84,436.46L266.7,434.41L264.61,434.21L262.97,433.42L263.56,431.05L264.61,429.86L266.1,424.91L266.55,420.76L266.1,416.6L264.16,413.24L260.43,409.08L258.94,406.11L259.09,392.25z"/>
		<path id="MK-46" title="Kruševo" class="land" d="M244.11,352.16L249.16,359.74L253.94,365.29L255.73,366.48L256.77,368.86L256.48,373.22L246.33,373.02L245.13,374.61L244.98,377.38L248.42,379.17L256.03,387.69L257.07,389.87L259.48,391.2L259.48,391.2L259.09,392.25L258.94,406.11L260.43,409.08L264.16,413.24L266.1,416.6L266.55,420.76L266.1,424.91L264.61,429.86L263.56,431.05L262.97,433.42L264.61,434.21L266.7,434.41L266.84,436.46L266.84,436.46L263.12,437.38L259.68,447.06L257.59,450.23L257.29,453.98L260.57,457.66L260.57,457.66L258.67,457.45L256.6,455.92L254.75,453.79L253.27,454.22L253.27,454.22L253.44,450.08L254.31,447.41L254.31,439.01L252.58,435.95L249.12,432.89L247.68,427.93L246.82,422.96L243.07,418.37L240.19,417.23L237.31,418.76L231.83,419.14L231.25,417.61L231.54,401.55L229.52,398.49L226.07,398.49L221.46,397.73L216.84,398.49L216.84,392.75L214.54,390.84L207.47,387.34L207.47,387.34L207.14,385.64L205.02,380.9L205.8,379.22L205.8,379.22L206.32,378.09L208.6,376.58L219.8,372.27L224.51,369.52L224.51,369.52L228.57,367.52L238.31,364.07L239.45,360.83L239.45,354.78L240.1,352.19z"/>
		<path id="MK-47" title="Kumanovo" class="land" d="M388.52,36.83L392.81,37.32L392.81,37.32L393.36,38.45L400.71,41.14L402.71,43.54L402.81,46.93L402.18,48.91L395.88,51.17L395.25,53.29L395.14,56.54L396.93,59.51L397.03,67.55L395.04,71.22L394.51,75.6L394.83,82.23L395.88,85.48L398.61,89.57L403.65,95.64L406.07,96.62L408.48,96.62L409.95,94.37L413,92.82L415.83,92.25L417.93,90.56L420.35,89.71L423.92,89.01L425.92,89.15L428.65,91.97L436.94,94.65L439.47,94.79L440.41,94.51L441.78,92.82L442.61,88.72L444.3,87.6L446.92,87.31L449.02,88.3L452.45,98.5L452.45,98.5L451.31,99.95L450.49,105.87L447.05,110.31L445.12,114.19L445.39,116.96L446.63,118.81L454.34,119.36L455.31,121.58L456.55,128.97L457.92,130.44L460.13,131.74L463.71,135.25L464.56,138.34L464.56,138.34L463.98,141.89L461.09,144.11L455.58,146.14L451.18,148.54L447.87,148.72L446.08,146.88L444.15,143L440.98,139.49L436.85,138.38L432.31,138.57L428.59,139.31L422.12,145.03L420.47,147.25L419.78,150.01L419.78,152.97L418.26,155L415.78,157.03L414.82,159.24L412.48,160.9L412.05,161.79L412.05,161.79L408.01,159L405.57,155.59L402.7,153.59L394.83,153.73L393.13,155.16L390.79,156.16L388.77,156.16L386.97,155.3L385.8,152.03L382.82,149.75L379.85,149.18L375.38,146.76L373.74,144.78L373.74,144.78L373.36,144.33L373.36,142.63L374.21,137.78L374.21,134.22L373.42,132.65L369.27,132.65L362.15,126.52L358.54,124.38L357.6,121.87L357.6,121.87L357.26,117.25L351.2,113.97L348.55,113.97L348.55,113.97L347.06,113.12L346.95,110.12L347.8,107.56L352.26,105.13L356.73,100.85L358,96.71L358.27,85.72L359.33,83.58L360.82,83.01L362.63,83.58L364.43,85.01L366.03,85.29L366.98,84.58L366.98,74.15L369,72.58L371.34,72.29L373.04,71.58L373.57,70.01L373.57,66.58L371.56,58.43L371.35,44.35L371.35,44.35L373.01,45.38L377.99,44.6L382.19,42.33L384.82,38.65z"/>
		<path id="MK-48" title="Lipkovo" class="land" d="M324.42,38.96L327.65,40.73L336.02,39.21L340.82,36.9L344.67,36.68L348.59,39.13L353.13,40.38L357.42,39.6L362.31,39.88L367.58,42.02L371.35,44.35L371.35,44.35L371.56,58.43L373.57,66.58L373.57,70.01L373.04,71.58L371.34,72.29L369,72.58L366.98,74.15L366.98,84.58L366.03,85.29L364.43,85.01L362.63,83.58L360.82,83.01L359.33,83.58L358.27,85.72L358,96.71L356.73,100.85L352.26,105.13L347.8,107.56L346.95,110.12L347.06,113.12L348.55,113.97L348.55,113.97L346.39,122.84L344.68,123.52L339.74,122.38L337.52,120.55L335.13,116.21L331.04,111.86L329.48,109.56L329.48,109.56L323.03,101.1L320.38,96.76L320.38,96.76L315.23,87.25L311.82,83.24L312.88,80.38L312.88,80.38L318.21,77.8L320.98,75.22L321.83,69.78L321.83,64.33L320.77,62.04L318.21,61.18L314.8,57.17L311.6,51.72L311.01,48.79L311.01,48.79L310.33,45.42L310.54,39.1L310.06,32.06L314.79,31.92L320.67,35.1z"/>
		<path id="MK-49" title="Lozovo" class="land" d="M422.99,205.28L427.36,205.58L430.37,206.73L437.26,215.71L441.56,217.55L445,218.24L447.59,220.31L457.4,232.96L463.42,239.16L468.76,243.76L473.1,246.66L473.1,246.66L471.09,247.27L471.09,248.6L472.21,249.77L472.21,251.43L471.71,252.42L467.36,252.92L466.24,256.41L465.11,256.75L463.37,255.42L462.38,253.75L460.14,251.6L458.52,250.6L456.9,250.6L455.03,251.6L453.79,254.42L450.8,257.91L449.68,263.06L450.55,264.72L456.65,269.87L456.77,274.35L457.08,274.59L457.08,274.59L455.9,276.94L452.98,279.77L449.66,281.9L444.21,281.54L440.36,280.48L438.5,279.42L437.44,276.94L436.11,269.67L435.98,261.88L434.51,257.27L434.12,253.72L433.32,252.3L431.46,251.77L428.01,251.77L427.07,252.48L426.81,255.15L426.81,255.15L421.76,246.09L419.37,245.21L415.91,245.21L414.98,243.79L415.78,240.42L419.64,231.55L419.64,228.71L413.52,220.72L412.99,219.12L413.92,217.52L422.03,209L423.09,207.22z"/>
		<path id="MK-50" title="Mavrovo i Rostuša" class="land" d="M39.91,224.59L43.2,226.8L43.86,225.75L43.86,225.75L46.98,229.32L53.88,232.57L58.55,236.64L71.13,238.27L74.58,235.56L80.27,228.23L86.56,228.23L98.13,230.13L102.8,230.4L104.63,232.57L108.48,239.35L109.09,247.21L111.94,250.46L115.59,248.29L127.16,248.57L127.16,250.73L122.9,255.07L128.99,265.63L133.45,270.77L134.09,274.36L134.09,274.36L129.29,274.84L127.67,276.19L120.76,276.19L117.31,278.35L112.04,284.58L109.6,286.47L102.7,286.74L99.45,290.8L99.65,293.51L102.09,295.4L106.15,294.32L107.42,294.54L107.42,294.54L109.85,308.09L109.85,324.98L106.04,329.21L105.73,338.07L101.92,340.18L98.33,347.01L95.09,350.25L91.23,351.6L86.36,350.79L82.94,349.46L82.94,349.46L81.62,342.71L77.5,340.6L70.84,338.07L66.71,333.43L63.23,327.94L56.88,322.45L53.39,322.45L43.24,320.34L35.63,314.85L29.79,308.29L29.79,308.29L31.56,306.88L31.29,303.65L29.34,295.97L25.55,289.1L23.58,285.99L22.57,285.14L22.08,282.99L22.52,280.78L22.18,278.63L20.63,275.02L22.47,265.36L22.46,261.63L21.87,258.24L19.82,252.48L19.07,247.24L19.32,242.85L20.56,239.01L22.24,236.7L23.81,233.14L24.3,229.67L26.3,227.48L29.3,226L34.56,224.93L35.01,225.74z"/>
		<path id="MK-51" title="Makedonska Kamenica" class="land" d="M639.99,98.48L642.14,98.22L645.15,103.12L646.9,103.28L648.68,104.67L650.47,103.83L654.36,105.28L655.62,107.03L656.59,107.28L658.49,108.98L659.08,110.07L659.08,110.07L658.25,134.23L657.53,135.39L652.91,136.55L652.19,138.68L652.81,145.31L652.81,145.31L650.08,144L645.46,143.42L643.16,143.81L641.28,145.55L639.98,151.74L635.94,160.24L632.48,162.56L630.31,162.56L626.05,160.48L626.05,160.48L626.05,157.34L624.61,154.83L624.03,151.74L624.03,143.81L622.02,141.29L621.29,138.97L617.97,134.33L618.12,131.23L617.25,125.04L616.1,123.68L608.59,119.62L607.29,116.13L607.01,103.35L604.99,100.44L603.25,99.28L601.38,100.25L600.22,102.57L598.78,103.93L596.76,102.77L595.46,97.61L595.46,97.61L595.46,96.76L600.8,93.85L603.98,89.2L618.55,79.55L618.55,79.55L622.35,82.52L623.63,85.3L626.87,87.05L629.51,87.85L631.13,90.15L633.63,92.13L634.5,94.36z"/>
		<path id="MK-52" title="Makedonski Brod" class="land" d="M236.22,212.48L243.03,220.03L247.44,227.24L253.08,235.1L257.74,244.27L263.62,249.51L268.53,250.16L270.44,248.66L270.44,248.66L272.66,249.4L276.11,249.4L278.79,252.47L278.79,266.27L282.24,273.43L284.92,275.98L285.26,274.78L285.26,274.78L285.69,277.64L283.73,281.23L278.33,287.44L278.09,290.06L279.32,293.32L278.91,303.34L278.91,303.34L276.55,303.34L275.8,315.66L273.86,320.43L267.14,328.57L265.5,331.55L264.61,334.33L264.91,344.85L256.25,340.89L252.74,341.48L251.4,343.07L250.21,345.85L248.57,346.84L246.48,346.84L244.24,348.23L243.79,349.22L244.11,352.16L244.11,352.16L240.1,352.19L239.45,354.78L239.45,360.83L238.31,364.07L228.57,367.52L224.51,369.52L224.51,369.52L223.54,365.15L220.61,363.42L217.53,362.99L213.96,361.48L212.17,359.53L211.03,357.59L210.71,356.08L210.55,349.82L209.09,348.74L205.35,348.74L200.97,351.55L195.93,353.27L191.39,353.49L188.36,354.32L188.36,354.32L188.36,350.79L188.97,347.82L191.2,346.47L194.04,345.66L195.87,342.69L200.34,339.45L203.79,334.86L207.24,331.35L210.28,329.46L210.08,327.03L203.38,323.25L199.73,319.73L198.1,317.3L197.29,310.81L196.28,308.38L196.06,308.67L196.06,308.67L196.48,303.24L196.48,291.88L194.86,288.64L190.59,286.74L184.1,286.47L182.27,284.85L181.3,281.23L181.3,281.23L182.88,275.38L182.27,268.34L179.02,261.57L178.62,254.8L175.77,252.63L174.35,248.57L174.76,246.4L176.38,245.04L178.82,245.04L179.63,243.42L179.63,233.39L181.26,229.59L189.24,228.66L189.24,228.66L193.44,227.69L197.7,223.62L202.77,215.49L209.88,207.62L215.76,203.27L221.04,203.6L221.04,203.6L223.88,204.36L227.54,206.8L230.99,210.06z"/>
		<path id="MK-53" title="Mogila" class="land" d="M275.94,443.21L275.58,443.31L275.88,445.88L277.37,448.05L284.83,449.24L288.71,451.61L292.29,457.34L296.02,460.31L297.14,463.47L298.93,465.25L305.5,465.64L307.44,466.43L309.53,470.19L315.35,473.34L322.06,473.54L325.94,470.78L328.18,470.78L333.7,475.12L337.88,476.7L342.51,477.49L346.09,478.68L347.22,479.97L347.22,479.97L345.79,486.15L332.98,502.6L329.5,504.78L315.78,502.84L307.09,499.45L303.98,499.45L299.22,502.84L296.48,506.47L295.81,508.35L295.81,508.35L295.05,507.69L290.57,507.1L289.08,507.49L283.71,511.04L282.07,511.04L279.68,510.45L277.29,509.07L275.8,507.49L275.05,505.32L275.5,494.66L274.76,489.34L272.96,487.56L268.94,486.18L265.95,484.2L263.26,481.05L261.62,477.49L260.58,473.94L260.58,469.99L263.26,464.85L263.26,461.49L260.57,457.66L260.57,457.66L257.29,453.98L257.59,450.23L259.68,447.06L263.12,437.38L266.84,436.46L266.84,436.46L267.59,436.39L270.73,437.97L273.11,441.53z"/>
		<path id="MK-54" title="Negotino" class="land" d="M472.15,278.84L475.7,281.82L478.56,281.99L481.55,283.15L484.91,288.62L487.4,291.44L488.89,291.44L490.39,290.78L491.38,289.45L493.87,283.98L495.99,283.65L498.6,286.96L499.73,289.79L500.85,294.43L501.22,298.91L502.59,302.72L504.46,304.22L506.95,303.55L515.16,304.05L520.02,305.71L520.89,308.36L521.01,314.17L523.38,315.66L526.74,317.15L534.46,322.45L539.81,323.94L545.54,323.78L547.89,323.29L547.89,323.29L553.18,329.4L557.94,336.89L559.39,340.16L559.53,344.19L559.97,345.22L559.97,345.22L555.13,350.05L551.49,352.4L549.84,356.35L547.64,359.14L546.09,359.14L543.34,358.26L538.6,355.77L535.52,354.01L532.32,350.93L530.56,350.35L527.8,350.35L525.71,351.81L522.4,355.77L519.32,358.11L518,360.45L515.35,370.7L512.93,376.12L509.62,378.75L508.08,378.9L506.98,380.36L506.65,381.68L507.42,383.43L511.28,388.55L512.16,390.75L511.72,394.84L510.51,399.38L509.62,400.98L505.11,402.01L494.59,401.68L494.59,401.68L489.9,398.77L489.9,394.43L489.28,391.12L486.63,386.58L485.23,380.38L485.23,366.11L482.12,350.81L482.28,342.53L480.72,340.25L477.61,339.01L475.12,339.42L472,341.28L469.36,341.49L466.09,341.49L463.95,339.66L463.95,339.66L464.22,332.38L463.82,319.69L463.82,319.69L464.69,318.92L466.56,318.92L467.96,320.58L467.98,325.1L468.6,328.25L469.6,329.74L473.46,329.58L476.57,322.12L476.57,320.13L474.95,318.31L473.95,317.81L473.71,315.49L476.32,311.02L478.56,305.88L478.19,301.9L476.32,300.4L474.7,300.4L472.21,301.23L467.6,303.72L465.36,303.72L463.37,302.56L462.38,300.73L462.75,296.26L464.12,293.27L466.24,290.95L468.1,289.95L469.85,286.14L471.46,283.81L472.34,281.32z"/>
		<path id="MK-55" title="Novaci" class="land" d="M347.22,479.97L349.81,477.67L352.01,477.43L353.29,478.89L356.22,484.45L360.97,487.84L365,489.29L380.37,491.47L390.43,496.31L397.75,497.76L400.5,499.7L403.61,503.81L406.17,505.5L410.38,506.71L417.33,506.47L418.61,504.05L419.53,503.81L420.44,504.29L421.54,506.71L427.4,512.27L430.69,513L437.46,516.14L439.42,517.77L439.42,517.77L439.48,518.53L435.82,525.02L431.92,525.44L429.62,531.89L427.51,533.38L424.08,534.19L422.03,537.44L420.08,542.18L417.97,545.89L409.46,552.69L407.18,564.79L403.68,568.81L394.67,570.03L388.03,569.09L381.81,565.62L378.81,566.18L369.1,572.73L368.46,580.43L365.94,580.9L366.11,583.12L363.8,584.03L359.89,583.69L357.64,584.02L345.84,593.47L341.39,594.17L338.44,592.25L327.53,577.55L320.35,577.48L320.35,577.48L320.45,573.37L319.35,568.55L319.16,564.93L318.25,561.55L314.96,556.73L307.09,547.79L305.81,544.9L299.22,543.2L298.85,534.51L298.31,530.89L294.65,527.02L293.73,525.33L293.18,521.22L293.36,518.32L294.46,516.63L295.19,514.21L295.19,510.1L295.81,508.35L295.81,508.35L296.48,506.47L299.22,502.84L303.98,499.45L307.09,499.45L315.78,502.84L329.5,504.78L332.98,502.6L345.79,486.15z"/>
		<path id="MK-56" title="Novo Selo" class="land" d="M754.56,372.48L754.34,372.97L752.48,373.12L751.04,374.94L749.71,377.77L750.02,380.49L752.21,381.8L752.21,382.72L754.63,386.62L754.07,388.66L754.07,391.74L755.93,396.82L756.34,400L756.27,400.82L755.85,401.02L752.2,401.22L751.84,401.81L752.35,404.18L749.52,404.93L740.79,404.17L731.95,404.08L723.74,406.04L714.72,403.96L711.07,405.32L710.45,405.94L710.45,405.94L709.9,405.15L709.61,385.03L707.59,383.12L707.59,382.35L707.59,382.35L707.88,381.2L711.63,378.14L712.21,376.03L712.21,361.65L713.65,359.73L721.15,353.78L727.07,345.53L728.95,343.99L729.81,340.73L729.38,334.01L729.38,334.01L739.19,334.01L749.87,333.24L752.17,332.27L752.17,332.27L753.16,334.81L755.61,337.37L755.85,338.38L755.1,343.14L752.5,345L751.17,347.37L751.91,348.09L752.04,348.89L751.83,349.43L752.46,351.59L752.23,354.1L754.22,355.27L753.1,358.77L753.73,360.71L756.66,363.46L758.07,365.94L757.91,367.12L756.44,368.84z"/>
		<path id="MK-57" title="Oslomej" class="land" d="M181.3,281.23L182.27,284.85L184.1,286.47L190.59,286.74L194.86,288.64L196.48,291.88L196.48,303.24L196.06,308.67L196.06,308.67L191.61,315.68L187.55,319.19L183.89,320.27L181.46,322.71L178.62,332.16L175.98,335.94L172.12,338.64L166.84,339.18L166.84,339.18L166.84,332.16L165.22,329.19L162.78,327.3L161.36,327.57L159.54,329.19L157.51,329.19L156.29,324.06L155.07,322.16L155.34,320.73L155.34,320.73L155.68,318.92L157.3,317.84L158.72,313.25L160.96,309.19L161.16,298.11L160.14,294.05L160.69,290.57L160.69,290.57L160.96,288.91L165.42,285.66L169.69,285.12L173.54,283.77L176.79,283.23L179.43,281.06z"/>
		<path id="MK-58" title="Ohrid" class="land" d="M86.67,473.46L96.1,473.04L97.93,469.01L103.21,466.86L102.8,458.8L106.45,451.54L110.31,449.12L110.92,445.89L112.95,444.01L116,443.47L123.71,443.74L128.78,441.59L137.1,441.59L148.07,445.35L155.98,450.73L170.4,452.88L174.82,451.74L174.82,451.74L176.83,455.07L177.19,456.99L177.19,456.99L174.43,462.15L170.74,466.3L164.28,471.19L145.84,481.93L142.34,485.34L136.25,493.15L134.04,499.49L132.56,508.02L132.01,520.69L129.43,521.91L127.95,523.37L128.13,529.22L129.79,531.17L131.45,535.07L130.9,543.1L128.5,545.78L120.76,546.51L117.25,549.19L114.67,559.16L114.67,567.43L115.14,569.9L113.39,571.65L108.89,580.72L108.89,580.72L95.6,582.15L89.85,580.81L86.96,579.09L86.18,577.96L86.18,577.96L88.79,575.73L95.09,571.98L98.54,560.47L103.41,551.63L106.86,540.92L107.06,532.88L106.25,525.64L105.85,510.62L105.85,506.33L106.66,499.62L102.8,496.67L99.55,495.86L96.91,493.72L93.87,489.15L90.82,479.49L87.17,477.61L85.62,475.29L85.62,475.29z"/>
		<path id="MK-59" title="Petrovec" class="land" d="M373.74,144.78L375.38,146.76L379.85,149.18L382.82,149.75L385.8,152.03L386.97,155.3L388.77,156.16L390.79,156.16L393.13,155.16L394.83,153.73L402.7,153.59L405.57,155.59L408.01,159L412.05,161.79L412.05,161.79L410.96,164.03L409.28,169.65L409.14,174.14L409.14,174.14L398.69,181.96L394.57,183.56L390.72,183.38L388.99,184.27L388.72,185.69L389.52,192.09L389.12,199.38L388.46,203.29L387,207.37L385,215.72L384.21,217.32L382.61,217.85L379.02,216.61L375.7,211.81L373.58,211.81L373.45,213.23L370.39,216.43L369.33,218.56L367.6,218.56L367.33,217.67L368,216.25L367.87,213.23L367.07,212.52L365.87,213.06L364.41,214.48L362.15,214.3L358.83,213.77L355.78,212.35L355.7,211.36L355.7,211.36L355.64,210.57L358.17,206.49L358.7,185.87L357.24,183.74L354.45,184L350.46,182L347.64,181.12L343.29,180.93L343.29,180.93L339.83,180.89L338.01,180.45L337.34,178.23L338.01,175.78L338.93,174.72L338.93,174.72L342.21,170.86L342.21,170.86L342.99,169.56L345.31,168.89L348.63,166.66L352.29,164.88L354.28,161.99L356.94,161.99L359.43,164.22L362.09,165.55L369.89,164.88L370.89,162.88L370.22,159.32L368.37,157.58L368.37,156.01L368.79,154.3L373.04,145.05z"/>
		<path id="MK-60" title="Pehčevo" class="land" d="M735.95,194.11L737.43,193.24L738.6,193.6L739.74,194.83L740.42,196.26L741.61,197.42L741.94,198.69L742.67,199.15L742.52,200.34L743.64,201.97L744.18,204.4L744.94,205.24L745.82,205.47L745.6,207.56L746.95,209.8L748.14,213.17L748.01,216.49L748.39,218.89L749.73,220.36L750.81,223.68L752.51,225.02L753.66,228.2L755.25,230L756.02,229.87L757.47,235.04L757.44,235.87L756.86,236.44L757.37,237.47L759.08,238.48L759.39,237.29L760.93,237.03L762.06,235.15L763.04,236.76L764.41,234.99L766.87,234.91L767.69,237.75L769.1,239.4L768.98,242.18L770.66,242.88L770.93,243.44L771.52,246.44L773.48,249.88L773.48,251.37L774.22,252.64L773.48,253.92L773.44,254.86L774.34,257.95L772.86,259.08L772.16,260.9L770.91,260.92L766.92,268.18L766.92,268.18L763.02,265.28L754.8,262.58L749.02,257.77L744.41,254.88L739.64,254.5L735.46,254.69L735.46,251.8L733.87,248.91L730.41,247.37L717.13,244.86L712.95,245.06L711.22,246.41L710.93,248.52L710.06,249.1L707.61,248.52L706.45,245.83L706.31,241.97L705.73,239.66L703.57,238.5L699.38,227.33L698.88,224.12L698.88,224.12L701.69,224.43L704.14,224.05L707.17,220.77L709.34,217.3L712.8,215.95L715.4,215.56L721.32,203.79L725.36,199.36L734.32,192.89L734.32,192.89L734.73,193.87z"/>
		<path id="MK-61" title="Plasnica" class="land" d="M188.36,354.32L191.39,353.49L195.93,353.27L200.97,351.55L205.35,348.74L209.09,348.74L210.55,349.82L210.71,356.08L211.03,357.59L212.17,359.53L213.96,361.48L217.53,362.99L220.61,363.42L223.54,365.15L224.51,369.52L224.51,369.52L219.8,372.27L208.6,376.58L206.32,378.09L205.8,379.22L205.8,379.22L204.19,378.04L195.46,374.26L192.22,368.06L189.78,368.33L186.85,369.68L186.85,369.68L184.91,369.68L181.26,370.76L179.23,367.52L179.23,364.55L178.62,361.04L177.2,357.54L177.4,354.84L178.21,353.22L182.88,352.68z"/>
		<path id="MK-62" title="Prilep" class="land" d="M399.64,364.57L399.64,367.77L401.51,370.66L404.78,374.18L406.33,375.21L409.29,375.21L411.62,370.25L413.18,369.42L413.8,371.49L413.8,376.45L412.71,378.73L412.4,386.58L413.02,390.09L416.37,395.15L416.99,398.66L416.84,404.45L415.13,407.75L414.5,410.64L414.04,417.24L414.19,423.23L414.97,426.74L416.53,432.1L417.93,434.99L420.57,435.81L428.35,435.4L433.49,435.81L434.11,437.46L433.02,438.7L432.4,442L428.98,448.39L428.35,456.84L430.22,460.35L431.78,461.17L434.11,465.08L433.72,477.96L434.81,486.81L436.52,488.05L438.86,488.66L444.77,488.87L445.55,490.93L445.55,494.43L446.17,498.95L446.88,500.93L446.88,500.93L440.86,504.72L439.55,509L439.01,513.25L439.42,517.77L439.42,517.77L437.46,516.14L430.69,513L427.4,512.27L421.54,506.71L420.44,504.29L419.53,503.81L418.61,504.05L417.33,506.47L410.38,506.71L406.17,505.5L403.61,503.81L400.5,499.7L397.75,497.76L390.43,496.31L380.37,491.47L365,489.29L360.97,487.84L356.22,484.45L353.29,478.89L352.01,477.43L349.81,477.67L347.22,479.97L347.22,479.97L346.09,478.68L342.51,477.49L337.88,476.7L333.7,475.12L328.18,470.78L325.94,470.78L322.06,473.54L315.35,473.34L309.53,470.19L307.44,466.43L305.5,465.64L298.93,465.25L297.14,463.47L296.02,460.31L292.29,457.34L288.71,451.61L284.83,449.24L277.37,448.05L275.88,445.88L275.58,443.31L275.94,443.21L275.94,443.21L277.81,442.72L282.14,442.52L284.68,440.74L290.95,433.42L292.44,423.73L293.93,421.75L295.13,418.98L295.13,415.41L293.78,414.42L287.66,413.83L286.47,412.25L286.32,410.07L284.98,409.08L284.83,406.5L284.98,405.32L289.79,401.09L289.79,401.09L294.08,397.4L296.17,397L299.3,392.05L303.18,388.68L309.45,388.68L316.54,386.5L326.54,386.1L329.67,384.52L333.25,379.96L339.97,377.58L340.57,372.82L342.36,367.87L344.74,365.29L348.23,363.7L348.23,363.7L354.44,364.3L356.68,365.88L358.32,368.46L358.92,370.64L361.76,370.84L364.59,370.05L366.23,369.25L368.47,364.5L368.92,356.56L369.82,354.98L370.71,354.38L378.62,353.78L382.5,351.4L384.59,351.4L386.23,352L387.42,353.98L395.48,357.95L398.02,363.31z"/>
		<path id="MK-63" title="Probištip" class="land" d="M571.12,127.54L568.52,137.8L567.14,138.14L562.56,141L559.29,147.39L554.9,150.92L551.14,154.79L548.13,156.97L546.62,158.82L546.7,159.24L546.7,159.24L545.3,158.37L544.15,158.54L542.1,160.08L539.8,164.54L538.52,171.21L536.86,174.12L534.17,175.49L532,177.21L529.82,179.77L528.16,179.77L526.88,180.46L525.99,182.51L526.37,185.42L530.21,191.07L537.03,199.48L537.03,199.48L535.71,200.99L524.84,201.5L521.64,200.13L520.62,196.88L520.62,195L519.72,193.29L517.8,192.78L513.57,195.23L513.57,195.23L512.58,193.38L511.41,192.59L508.65,193.38L504.92,191.8L500.4,191.54L498.8,192.03L498.8,192.03L498.8,191.07L494.84,186.47L495.01,185.55L496.56,184.39L497.42,181.86L497.42,177.48L496.22,176.56L493.46,175.87L491.57,174.03L485.54,162.27L477.28,156.5L473.15,152.58L472.29,149.58L472.98,145.2L476.4,138.11L476.4,138.11L478.49,137.59L483.31,140.12L485.37,141.74L486.75,142.2L488.13,141.97L490.71,134.12L492.77,131.35L494.5,130.43L500.87,130.66L504.82,129.97L507.67,128.35L518.34,124.2L521.27,126.27L522.64,129.28L524.19,130.43L527.81,130.43L529.53,129.97L531.08,128.35L532.63,127.66L534.18,127.89L537.45,132.51L539.86,133.43L541.23,133.43L543.3,130.43L543.3,118.19L544.5,117.27L555.01,117.04L560.51,117.5L564.13,119.58L568.61,123.5z"/>
		<path id="MK-64" title="Radoviš" class="land" d="M604.33,231.55L607.29,232.24L609.46,233.98L612.78,237.64L615.38,238.79L622.16,238.6L626.34,237.64L628.08,235.9L629.52,232.05L631.68,231.86L632.69,232.82L634.42,236.87L641.21,240.34L648.57,247.08L652.32,248.62L657.38,249.01L657.38,249.01L657.51,256.18L658.6,261.48L660.76,263.4L663.11,264.6L664.55,266.29L664.37,268.46L658.42,277.84L658.24,280.48L658.78,283.85L659.91,286.69L659.91,286.69L659.1,287.7L650.01,288.66L648.86,289.81L645.1,296.74L644.24,299.43L644.38,301.74L646.11,304.62L648.57,308.46L650.73,309.81L651.45,315.38L652.61,317.69L653.04,320.38L652.75,327.29L651.02,329.98L648.57,332.67L646.84,332.48L637.89,323.64L633.13,320.76L631.4,320.76L630.1,321.53L628.51,325.37L625.62,327.48L621.73,328.06L620.57,329.02L620.57,330.56L622.74,334.97L622.74,337.08L621.77,337.94L621.77,337.94L614.22,335.55L610.33,335.55L607.44,334.78L605.85,333.44L606,331.32L609.03,329.4L609.75,327.48L609.75,325.18L605.64,320.18L602.89,315.57L598.71,310.96L596.11,308.85L579.95,307.5L574.9,303.08L572.16,302.31L570.14,302.31L567.05,300.99L567.05,300.99L563.5,298.85L562.05,295.97L562.05,288.85L561.48,285.58L560.32,284.04L557.29,275.96L558.3,273.65L563.35,268.46L565.23,268.07L569.27,270.96L575.33,273.07L578.65,273.27L580.96,272.88L585.58,263.06L590.63,254.85L590.63,254.85L591.78,252.28L594.02,249.97L595.32,246.69L595.9,242.65L595.9,237.25L602.39,232.24z"/>
		<path id="MK-65" title="Rankovce" class="land" d="M499.46,15.76L502.16,22.85L513.17,38.61L518.68,41.4L527.64,41.4L530.39,42.79L530.39,45.56L529.01,48.81L527.64,50.43L527.29,58.53L530.73,66.17L530.73,71.49L531.42,75.19L533.14,77.97L533.83,80.75L533.66,85.83L530.73,88.61L530.64,89.18L530.64,89.18L527.47,90.34L527.2,96.62L526.65,97.92L523.89,99.21L520.04,100.14L517.01,101.62L511.91,101.8L501.44,93.11L498,88.67L493.04,86.08L486.16,85.71L485.06,83.86L484.64,77.38L483.81,76.46L480.79,76.46L476.05,71.53L476.05,71.53L479.61,71.65L481.82,71.28L483.2,69.43L483.2,66.83L482.09,63.87L478.38,57.76L478.24,46.83L475.97,42.57L475.41,39.79L476.52,37.38L482.44,36.45L484.5,34.04L483.81,23.66L482.74,20.77L482.74,20.77L492.78,17.33z"/>
		<path id="MK-66" title="Resen" class="land" d="M177.19,456.99L177.56,456.29L178.49,459.71L180.51,462.15L186.23,462.4L187.52,465.57L189,473.87L189,479L190.66,485.34L194.7,491.57L194.7,491.57L194.58,493.76L197.35,496.81L198.04,500.46L197.35,505.04L194.35,510.22L188.81,514.79L187.66,518.74L187.66,523.31L189.74,525.75L195.04,526.66L196.38,527.76L196.38,531.41L197.11,534.82L198.59,537.75L203.2,542.86L203.94,545.29L203.94,548.46L206.15,550.4L218.88,550.16L222.94,552.35L226.26,556.97L227.55,559.65L227.55,562.81L230.68,563.79L238.06,564.03L239.72,565.24L241.01,570.35L240.64,575.46L243.78,577.4L244.52,579.35L244.15,582.02L243.04,584.45L242.3,588.83L240.82,593.99L240.82,593.99L232.68,588.03L215,596.36L201.98,598.89L165.14,600L162.61,598.89L162.19,592.22L161,583.8L159.35,581.53L155.3,579.03L153.94,577.01L151.67,575.17L145.04,573.81L138.34,576.56L132.53,575.4L126.3,572.41L124.83,572.26L119,574.29L113.31,579.64L110.73,580.63L108.89,580.72L108.89,580.72L113.39,571.65L115.14,569.9L114.67,567.43L114.67,559.16L117.25,549.19L120.76,546.51L128.5,545.78L130.9,543.1L131.45,535.07L129.79,531.17L128.13,529.22L127.95,523.37L129.43,521.91L132.01,520.69L132.56,508.02L134.04,499.49L136.25,493.15L142.34,485.34L145.84,481.93L164.28,471.19L170.74,466.3L174.43,462.15z"/>
		<path id="MK-67" title="Rosoman" class="land" d="M463.82,319.69L464.22,332.38L463.95,339.66L463.95,339.66L462.98,340.66L462.04,343.98L462.36,349.36L461.58,355.98L456.29,359.29L455.04,360.94L454.89,364.04L453.33,364.66L451.62,364.04L449.13,361.98L446.64,360.73L444.62,359.91L441.97,359.91L440.57,361.36L439.95,366.53L437.77,368.18L428.43,368.39L426.41,369.01L418.63,368.39L415.98,365.49L411.1,358.44L411.1,358.44L411.62,351.63L413.02,345.8L413.02,345.8L413.18,345.22L416.6,342.32L421.58,341.9L423.92,339.22L423.92,337.14L422.83,332.38L422.83,328.65L423.76,327.83L425.94,327.62L428.43,328.45L429.99,329.9L434.5,332.18L439.17,332.18L440.88,330.1L441.97,327L443.84,324.72L445.7,323.27L449.28,324.1L451.15,325.75L455.51,325.75L456.29,319.96L458.93,318.3L461.42,318.3z"/>
		<path id="MK-68" title="Saraj" class="land" d="M234.33,97.25L237.86,104.24L238.48,104.23L238.48,104.23L239.22,111.79L241.31,117.11L244.11,118.67L247.37,118.04L249.23,115.86L251.56,115.54L254.12,118.36L255.05,123.67L258.54,130.22L261.8,137.71L266.46,143.64L274.13,144.35L274.13,144.35L273.94,157.88L274.52,159.16L274.52,159.16L273.43,160.99L266.57,161.32L261.42,164.27L255.53,168.87L248.42,176.42L244.5,179.37L232.73,183.97L231.26,186.92L231.19,187.92L231.19,187.92L228.22,186.33L224.3,181.6L222.34,181.34L219.98,178.72L219.98,174.78L220.77,167.95L222.92,157.18L223.12,151.92L222.14,150.35L214.1,145.09L210.37,143.51L207.23,142.72L207.27,142.31L207.27,142.31L207.43,140.62L208.21,139.83L209.78,139.04L213.9,138.25L219.59,135.89L219.59,132.73L217.04,128L216.3,124.84L216.55,122.54L218.51,120.23L221.45,118.92L222.68,117.27L222.68,113.65L221.45,110.04L219.74,110.36L217.78,111.68L215.57,111.68L210.67,106.41L211.89,104.77L215.32,103.12L230.77,101.48z"/>
		<path id="MK-69" title="Sveti Nikole" class="land" d="M476.4,138.11L472.98,145.2L472.29,149.58L473.15,152.58L477.28,156.5L485.54,162.27L491.57,174.03L493.46,175.87L496.22,176.56L497.42,177.48L497.42,181.86L496.56,184.39L495.01,185.55L494.84,186.47L498.8,191.07L498.8,192.03L498.8,192.03L498.8,193.61L497.94,195.22L496.39,196.37L494.5,197.06L493.98,198.67L494.32,201.67L497.77,207.65L498.28,209.95L497.94,212.48L494.24,214.78L492,218.7L487.18,225.14L485.29,228.36L479.78,229.97L478.74,231.12L478.57,232.73L481.5,237.56L482.36,240.54L482.19,243.3L480.64,243.76L479.6,246.52L480.64,247.67L482.19,248.36L482.88,251.35L481.84,252.5L480.12,252.5L478.06,251.58L476.33,249.05L473.1,246.66L473.1,246.66L468.76,243.76L463.42,239.16L457.4,232.96L447.59,220.31L445,218.24L441.56,217.55L437.26,215.71L430.37,206.73L427.36,205.58L422.99,205.28L422.99,205.28L412.38,192L409.11,179.33L409.14,174.14L409.14,174.14L409.28,169.65L410.96,164.03L412.05,161.79L412.05,161.79L412.48,160.9L414.82,159.24L415.78,157.03L418.26,155L419.78,152.97L419.78,150.01L420.47,147.25L422.12,145.03L428.59,139.31L432.31,138.57L436.85,138.38L440.98,139.49L444.15,143L446.08,146.88L447.87,148.72L451.18,148.54L455.58,146.14L461.09,144.11L463.98,141.89L464.56,138.34L464.56,138.34L470.26,138.34L474.5,137.47z"/>
		<path id="MK-70" title="Sopište" class="land" d="M274.52,159.16L275.07,160.39L295.35,160.39L295.35,160.39L297.98,160.39L299.86,161.4L299.86,166.43L301.08,168.49L301.08,168.49L300.97,173.35L298.82,183.59L286.26,184.38L281.56,182.02L278.42,181.23L274.3,181.23L269.59,182.54L267.43,184.9L267.43,190.15L268.81,193.83L272.53,193.83L276.65,195.14L279.01,195.4L280.58,196.98L280.18,199.08L277.44,199.08L274.3,201.44L273.12,204.85L271.36,212.71L270.77,217.17L269.59,217.96L267.63,217.96L266.45,219.27L266.06,222.41L267.43,223.98L270.18,225.03L271.52,228.94L269.22,233.03L268.07,239.17L268.07,243.78L269.6,248.38L270.44,248.66L270.44,248.66L268.53,250.16L263.62,249.51L257.74,244.27L253.08,235.1L247.44,227.24L243.03,220.03L236.22,212.48L236.22,212.48L235.92,212.17L237.64,206.92L238.37,196.76L233.22,193.15L231.01,190.2L231.19,187.92L231.19,187.92L231.26,186.92L232.73,183.97L244.5,179.37L248.42,176.42L255.53,168.87L261.42,164.27L266.57,161.32L273.43,160.99z"/>
		<path id="MK-71" title="Staro Nagoričane" class="land" d="M467.23,14.06L474.96,21.54L480.52,21.53L482.74,20.77L482.74,20.77L483.81,23.66L484.5,34.04L482.44,36.45L476.52,37.38L475.41,39.79L475.97,42.57L478.24,46.83L478.38,57.76L482.09,63.87L483.2,66.83L483.2,69.43L481.82,71.28L479.61,71.65L476.05,71.53L476.05,71.53L467.63,71.09L466.12,72.2L466.39,79.24L466.12,86.27L463.23,92L460.2,96.62L456.62,97.92L452.76,98.1L452.45,98.5L452.45,98.5L449.02,88.3L446.92,87.31L444.3,87.6L442.61,88.72L441.78,92.82L440.41,94.51L439.47,94.79L436.94,94.65L428.65,91.97L425.92,89.15L423.92,89.01L420.35,89.71L417.93,90.56L415.83,92.25L413,92.82L409.95,94.37L408.48,96.62L406.07,96.62L403.65,95.64L398.61,89.57L395.88,85.48L394.83,82.23L394.51,75.6L395.04,71.22L397.03,67.55L396.93,59.51L395.14,56.54L395.25,53.29L395.88,51.17L402.18,48.91L402.81,46.93L402.71,43.54L400.71,41.14L393.36,38.45L392.81,37.32L392.81,37.32L399.11,36.93L405.84,35.76L406.89,29.68L406.76,23.96L407.28,20.57L415.44,12.64L420.9,12.29L430.06,24.27L451.36,7.45L460.94,13.87z"/>
		<path id="MK-72" title="Struga" class="land" d="M70.32,372.13L82.91,396.9L84.13,406.87L84.13,416.3L92.04,428.41L92.45,431.91L91.43,440.78L89.2,448.04L84.53,453.96L83.52,456.92L83.52,459.6L84.13,462.56L86.76,465.52L85.95,471.7L86.67,473.46L86.67,473.46L85.62,475.29L85.62,475.29L71.95,474.11L65.05,474.38L62.2,477.07L56.11,493.72L54.29,502.3L54.06,507.85L54.06,507.85L43.88,505.22L42.79,503.68L40.49,499.5L40.17,495.64L40.98,493.63L43.36,491.18L42.83,488.63L40.36,482.35L33.17,469.95L31.13,464.93L28.55,465.13L26.51,464L25.38,462.14L20.68,449.58L20.68,449.58L23.94,449.58L31.63,451.9L38.65,451.32L44.14,447.54L51.39,447.54L54.9,445.51L57.1,443.18L57.1,440.27L56.66,438.23L54.46,436.19L52.05,436.19L49.19,436.78L44.58,440.85L39.97,440.56L36.9,439.1L33.38,438.81L23.94,439.1L19.63,440.66L19.63,440.66L18.25,439.03L17.31,435.35L18.17,430.28L13.42,412.47L11.93,410.31L11.88,405.77L13.27,403.06L14.24,402.98L16.05,405.12L17.39,405.66L19.68,405.8L21.21,404.71L22.9,401.65L23.09,400.01L25.51,397.87L26.5,394.22L27.71,393.15L29.27,388.47L31.18,379.49L31.18,379.49L49.21,379.65L57.94,380.19L62.2,377.77L67.59,370.98L67.59,370.98L68.5,369.95L69.55,371.21L69.55,371.21z"/>
		<path id="MK-73" title="Strumica" class="land" d="M623.4,354.37L623.82,354.74L626.99,351.1L628.73,348.79L630.6,344.95L633.63,344.57L637.1,346.49L639.12,346.49L641.57,348.41L645.18,350.14L651.38,358.19L660.18,358.39L664.95,356.47L667.98,355.89L671.73,352.82L673.6,351.85L673.6,351.85L677.28,355.7L679.59,363.56L679.45,365.67L677.14,370.66L677.14,372.96L680.03,373.92L681.33,375.26L682.91,375.26L684.79,373.54L689.26,373.15L690.42,374.69L691.43,379.86L692.29,381.2L694.17,382.93L696.62,384.27L699.22,384.65L703.84,382.54L707.59,382.35L707.59,382.35L707.59,383.12L709.61,385.03L709.9,405.15L710.45,405.94L710.45,405.94L708.42,407.98L702.15,409.3L700.71,412.8L700.71,412.8L694.6,408.79L683.64,403.04L680.03,402.08L678.01,402.66L675.84,404L672.52,411.85L669.64,415.1L668.05,415.1L667.04,413.57L665.02,413.38L663.43,414.34L662.28,416.25L660.26,417.02L654.05,417.02L651.74,416.25L651.74,413.57L646.26,408.4L644.24,408.21L640.77,409.55L631.68,409.55L631.25,403.62L625.77,393.66L625.77,391.93L626.92,388.87L629.23,385.99L630.39,383.31L630.39,381.39L628.94,379.09L627.35,377.75L624.47,377.37L618.55,377.56L614.8,375.84L608.74,369.7L604.12,363.76L604.21,362.69L604.21,362.69L604.27,362.03L606.29,359.92L610.61,357.81L614.22,356.66L616.39,356.66L617.97,357.81L621.58,358.39L623.02,357.04z"/>
		<path id="MK-74" title="Studeničani" class="land" d="M338.93,174.72L338.01,175.78L337.34,178.23L338.01,180.45L339.83,180.89L343.29,180.93L343.29,180.93L342.02,183.22L338.16,184.46L332.18,188.91L328.18,191.05L327.39,196.75L325.39,200.66L323.13,202.62L321.67,204.75L321,210.98L319.67,212.58L316.88,212.75L315.15,212.4L314.35,211.33L314.21,208.49L313.68,206.89L311.42,206.71L308.89,209.55L306.9,214L307.3,222.54L308.36,225.38L312.09,230.18L313.28,233.02L311.69,238.35L311.9,241.94L311.9,241.94L303.34,244.6L300.15,247.22L294.76,258.34L292.55,260.63L289.12,261.94L287.65,264.23L285.26,274.78L285.26,274.78L284.92,275.98L282.24,273.43L278.79,266.27L278.79,252.47L276.11,249.4L272.66,249.4L270.44,248.66L270.44,248.66L269.6,248.38L268.07,243.78L268.07,239.17L269.22,233.03L271.52,228.94L270.18,225.03L267.43,223.98L266.06,222.41L266.45,219.27L267.63,217.96L269.59,217.96L270.77,217.17L271.36,212.71L273.12,204.85L274.3,201.44L277.44,199.08L280.18,199.08L280.58,196.98L279.01,195.4L276.65,195.14L272.53,193.83L268.81,193.83L267.43,190.15L267.43,184.9L269.59,182.54L274.3,181.23L278.42,181.23L281.56,182.02L286.26,184.38L298.82,183.59L300.97,173.35L301.08,168.49L301.08,168.49L301.36,168.94L304.74,168.94L307.37,167.43L310.37,167.43L313.16,170.63L313.16,179.46L313.85,181.3L317.59,182.75L319.85,181.7L321.04,179.59L322.51,174.85L323.99,173.14L328.02,171.25L328.02,171.25L333.53,167.52L333.53,167.52L335.31,167.99z"/>
		<path id="MK-75" title="Tearce" class="land" d="M176.78,72.17L185.02,79.75L189.53,85.21L193.59,90.97L196.3,96.42L198.79,97.94L201.72,98.54L203.98,100.06L205.11,103.7L204.66,108.24L201.5,112.18L198.79,114.3L195.4,120.36L193.37,125.2L188.63,127.63L175.08,130.35L173.96,131.56L174.18,132.55L174.18,132.55L171.11,131.78L168.47,130.15L167.66,128.52L167.66,123.07L168.47,120.08L167.25,117.63L165.02,114.63L162.38,113.54L160.55,113.54L157.91,112.72L155.27,105.37L152.84,100.46L150.2,97.46L143.5,93.38L135.12,90.32L135.12,90.32L139.32,87.07L152.79,85.48L158.67,84.11L161.63,79.34L169.98,77.37z"/>
		<path id="MK-76" title="Tetovo" class="land" d="M135.12,90.32L143.5,93.38L150.2,97.46L152.84,100.46L155.27,105.37L157.91,112.72L160.55,113.54L162.38,113.54L165.02,114.63L167.25,117.63L168.47,120.08L167.66,123.07L167.66,128.52L168.47,130.15L171.11,131.78L174.18,132.55L174.18,132.55L174.78,135.15L174.78,135.15L172.93,135.59L169.69,140.22L169.69,141.31L170.9,142.67L173.54,143.49L174.15,145.39L175.57,147.57L178.82,148.65L179.83,149.47L179.63,152.46L173.54,154.37L171.34,157.42L171.34,157.42L165.83,156.54L159.54,151.92L157.71,151.65L155.88,152.73L153.65,157.63L152.46,157.5L152.46,157.5L151.21,157.36L143.91,148.65L141.06,147.02L123.61,142.94L118.94,143.21L115.49,145.39L112.44,148.38L108.79,151.1L103.51,153.01L98.84,155.46L95.39,158.99L90.74,161.18L90.74,161.18L90.89,157.67L85.08,148.18L84.24,142.32L86.18,136.91L85.98,128.5L101.61,108.67L111.57,100.68L122.28,101.56L127.77,100.87L131.91,95.63z"/>
		<path id="MK-77" title="Centar" class="land" d="M295.05,140.51L294.97,143.57L297.42,143.33L298.34,145.18L298.34,145.18L296.48,148.82L297.17,149.64L297.17,149.64L295.71,151.47L295.71,151.47L294.51,151.85L294.65,154.52L293.8,156.24L292.23,156.24L289.24,152.81L288.24,150.71L288.67,146.51L289.38,145.55L290.1,143.07L293.37,140.78z"/>
		<path id="MK-78" title="Centar Župa" class="land" d="M15.58,345.64L16.92,344.4L23.9,341.02L30.56,336.8L34.04,330.89L41.34,330.89L46.73,331.74L50.22,336.8L52.12,344.4L55.3,347.35L58.78,347.35L61,354.52L61,366.32L65.76,367.17L67.59,370.98L67.59,370.98L62.2,377.77L57.94,380.19L49.21,379.65L31.18,379.49L31.18,379.49L32.61,377.81L31.45,375.62L28.27,372.61L26.36,369.19L18.13,364.31L15.13,351.85L13.43,347.1z"/>
		<path id="MK-79" title=" Čair" class="land" d="M300.61,139.36L300.16,145.18L300.16,145.18L299.48,144.8L298.34,145.18L298.34,145.18L297.42,143.33L294.97,143.57L295.05,140.51L295.05,140.51L295.2,137L295.2,137L295.23,135.85L295.23,135.85z"/>
		<path id="MK-80" title="Čaška" class="land" d="M311.9,241.94L313.68,243.68L336.3,242.97L338.59,243.65L338.59,243.65L338.29,244.57L340.16,247.23L344.95,257.18L346.54,258.42L348.27,258.42L350.67,256.46L352.26,256.46L353.99,256.82L358.78,259.13L365.83,260.02L369.03,261.61L370.89,266.05L371.95,272.79L374.48,276.7L375.28,280.07L375.15,282.37L375.68,284.68L377.27,287.16L378.87,287.34L380.47,286.63L384.19,283.08L385.65,282.73L386.72,284.32L387.52,294.61L390.18,297.62L397.1,299.39L400.06,299.71L400.06,299.71L399.57,307.57L401.43,310.22L408.74,315.35L409.94,317.83L409.94,321.72L408.61,324.73L404.49,329.32L403.83,337.28L404.76,340.81L413.02,345.8L413.02,345.8L411.62,351.63L411.1,358.44L411.1,358.44L409.45,356.39L405.87,355.77L404,357.63L402.29,360.94L399.64,364.04L399.64,364.57L399.64,364.57L398.02,363.31L395.48,357.95L387.42,353.98L386.23,352L384.59,351.4L382.5,351.4L378.62,353.78L370.71,354.38L369.82,354.98L368.92,356.56L368.47,364.5L366.23,369.25L364.59,370.05L361.76,370.84L358.92,370.64L358.32,368.46L356.68,365.88L354.44,364.3L348.23,363.7L348.23,363.7L347.88,362.12L345.94,359.14L343.1,356.76L332.21,353.98L330.27,352.99L329.22,351.4L326.99,343.66L324.9,343.07L322.96,343.27L321.17,344.66L313.41,344.85L310.27,343.27L308.18,340.89L306.24,337.31L305.8,327.78L305.05,323.01L303.56,319.24L300.27,318.05L298.63,316.65L297.14,313.88L296.25,310.5L293.71,307.71L281.47,303.34L278.91,303.34L278.91,303.34L279.32,293.32L278.09,290.06L278.33,287.44L283.73,281.23L285.69,277.64L285.26,274.78L285.26,274.78L287.65,264.23L289.12,261.94L292.55,260.63L294.76,258.34L300.15,247.22L303.34,244.6z"/>
		<path id="MK-81" title="Češinovo-Obleševo" class="land" d="M546.7,159.24L548,163.02L551.89,167.9L556.53,171.09L568.33,170.75L569.08,171.76L569.08,174.79L568.08,175.46L567.32,177.31L567.58,186.88L569.46,190.74L570.96,196.78L572.72,197.62L574.1,197.62L575.73,199.81L577.09,200.48L577.09,200.48L577.17,205.85L577.93,209.2L580.94,212.06L584.33,216.42L587.59,222.63L587.59,222.63L586.6,224.07L580.21,223.55L573.56,216.89L570.11,216.72L566.52,217.23L554.63,215.18L546.7,209.37L540.05,203.21L537.03,199.48L537.03,199.48L530.21,191.07L526.37,185.42L525.99,182.51L526.88,180.46L528.16,179.77L529.82,179.77L532,177.21L534.17,175.49L536.86,174.12L538.52,171.21L539.8,164.54L542.1,160.08L544.15,158.54L545.3,158.37z"/>
		<path id="MK-82" title="Čučer Sandevo" class="land" d="M311.01,48.79L311.6,51.72L314.8,57.17L318.21,61.18L320.77,62.04L321.83,64.33L321.83,69.78L320.98,75.22L318.21,77.8L312.88,80.38L312.88,80.38L311.12,79.79L306.62,81.3L303.99,87.86L299.48,95.93L297.98,101.48L297.23,110.55L297.98,124.66L295.35,125.66L294.86,126.54L293.7,125.31L293.7,125.31L290.44,118.98L288.11,116.79L285.55,117.42L283.45,119.61L283.22,126.48L284.15,127.41L286.71,127.73L288.57,129.91L289.27,132.41L291.13,134.91L293.23,135.22L294.56,134.07L294.56,134.07L295.23,135.85L295.23,135.85L295.2,137L295.2,137L293.7,138.34L291.13,138.34L286.48,137.09L282.99,133.03L281.12,129.29L277.86,126.79L274.32,126.33L274.32,126.33L274.32,120.63L269.06,109.04L259.82,99.97L259.82,99.97L260.4,98.67L256.91,92.42L256.21,88.67L259.24,83.03L262.5,75.21L262.81,71.58L267.86,67.56L274.29,63.73L279.07,59.17L281.77,54.82L283.21,47.67L288.81,47.67L291.6,49.23L293.93,49.86L297.65,49.54L299.05,47.67L304.17,46.73L307.9,48.6z"/>
		<path id="MK-83" title="Štip" class="land" d="M498.8,192.03L500.4,191.54L504.92,191.8L508.65,193.38L511.41,192.59L512.58,193.38L513.57,195.23L513.57,195.23L508.72,199.45L506.17,204.75L506.17,210.39L507.06,217.4L509.11,223.38L511.66,227.31L515.12,228L521.13,228.17L525.6,228.85L529.95,231.58L535.45,236.54L539.29,240.98L545.3,242L551.43,247.29L555.91,251.9L559.36,256.51L565.76,256.51L573.81,254.81L580.34,254.29L584.75,252.76L589.1,252.93L590.63,254.85L590.63,254.85L585.58,263.06L580.96,272.88L578.65,273.27L575.33,273.07L569.27,270.96L565.23,268.07L563.35,268.46L558.3,273.65L557.29,275.96L560.32,284.04L561.48,285.58L562.05,288.85L562.05,295.97L563.5,298.85L567.05,300.99L567.05,300.99L565.73,303.46L562.27,306.73L555.05,314.8L547.84,320.95L547.55,322.87L547.89,323.29L547.89,323.29L545.54,323.78L539.81,323.94L534.46,322.45L526.74,317.15L523.38,315.66L521.01,314.17L520.89,308.36L520.02,305.71L515.16,304.05L506.95,303.55L504.46,304.22L502.59,302.72L501.22,298.91L500.85,294.43L499.73,289.79L498.6,286.96L495.99,283.65L493.87,283.98L491.38,289.45L490.39,290.78L488.89,291.44L487.4,291.44L484.91,288.62L481.55,283.15L478.56,281.99L475.7,281.82L472.15,278.84L472.15,278.84L466.36,275.18L463.25,274.85L458.02,275.35L457.08,274.59L457.08,274.59L456.77,274.35L456.65,269.87L450.55,264.72L449.68,263.06L450.8,257.91L453.79,254.42L455.03,251.6L456.9,250.6L458.52,250.6L460.14,251.6L462.38,253.75L463.37,255.42L465.11,256.75L466.24,256.41L467.36,252.92L471.71,252.42L472.21,251.43L472.21,249.77L471.09,248.6L471.09,247.27L473.1,246.66L473.1,246.66L476.33,249.05L478.06,251.58L480.12,252.5L481.84,252.5L482.88,251.35L482.19,248.36L480.64,247.67L479.6,246.52L480.64,243.76L482.19,243.3L482.36,240.54L481.5,237.56L478.57,232.73L478.74,231.12L479.78,229.97L485.29,228.36L487.18,225.14L492,218.7L494.24,214.78L497.94,212.48L498.28,209.95L497.77,207.65L494.32,201.67L493.98,198.67L494.5,197.06L496.39,196.37L497.94,195.22L498.8,193.61z"/>
		<path id="MK-84" title="Šuto Orizari" class="land" d="M294.56,134.07L293.23,135.22L291.13,134.91L289.27,132.41L288.57,129.91L286.71,127.73L284.15,127.41L283.22,126.48L283.45,119.61L285.55,117.42L288.11,116.79L290.44,118.98L293.7,125.31L293.7,125.31L293.37,124.95L293.58,130.12z"/>
		<path id="MK-LKD" title="Lake Dojran" class="land" d="M693.17,474.51L692.8,476.3L692.8,476.3L686.99,470.75L682.13,461.53L680.69,455.97L681.03,452.46L681.91,450.26L684.45,446.46L688.21,443.82L694.73,443.38L697.27,444.41L698.25,445.46L698.25,445.46L696.41,468.79z"/>
		<path id="MK-LKO" title="Lake Ohrid" class="land" d="M85.62,475.29L87.17,477.61L90.82,479.49L93.87,489.15L96.91,493.72L99.55,495.86L102.8,496.67L106.66,499.62L105.85,506.33L105.85,510.62L106.25,525.64L107.06,532.88L106.86,540.92L103.41,551.63L98.54,560.47L95.09,571.98L88.79,575.73L86.18,577.96L86.18,577.96L83.28,569.54L76.35,546.02L69.64,521.33L66.16,512.38L65.01,510.2L54.06,507.85L54.06,507.85L54.29,502.3L56.11,493.72L62.2,477.07L65.05,474.38L71.95,474.11z"/>
	</g>
</svg>