<?xml version="1.0" encoding="utf-8"?>
<!-- (c) ammap.com | SVG map of Montenegro - High -->
<svg xmlns="http://www.w3.org/2000/svg" xmlns:amcharts="http://amcharts.com/ammap" xmlns:xlink="http://www.w3.org/1999/xlink" version="1.1">
	<defs>
		<style type="text/css">
			.land
			{
				fill: #CCCCCC;
				fill-opacity: 1;
				stroke:white;
				stroke-opacity: 1;
				stroke-width:0.5;
			}
		</style>

		<amcharts:ammap projection="mercator" leftLongitude="18.438402" topLatitude="43.565072" rightLongitude="20.376798" bottomLatitude="41.848772"></amcharts:ammap>

		<!-- All areas are listed in the line below. You can use this list in your script. -->
		<!--{id:"ME-01"},{id:"ME-02"},{id:"ME-03"},{id:"ME-04"},{id:"ME-05"},{id:"ME-06"},{id:"ME-07"},{id:"ME-08"},{id:"ME-09"},{id:"ME-10"},{id:"ME-11"},{id:"ME-12"},{id:"ME-13"},{id:"ME-14"},{id:"ME-15"},{id:"ME-16"},{id:"ME-17"},{id:"ME-18"},{id:"ME-19"},{id:"ME-20"},{id:"ME-21"},{id:"ME-SLK"}-->

	</defs>
	<g>
		<path id="ME-01" title="Andrijevica" class="land" d="M463.63,377.32L463.16,377.55L463.16,377.55L451.89,381.89L444.52,389.26L438.01,396.63L435.41,403.57L434.11,411.81L424.14,414.41L420.64,416.82L420.64,416.82L418.9,415.03L417.35,411.18L415.55,410.24L415.07,409.6L415.14,407.68L414.25,405.45L414.13,404.08L414.38,403.4L416.27,401.35L416.43,400.58L416.15,399.72L414.41,398.52L411.92,398.18L411.54,397.88L410.18,395.79L408.54,391.38L406.99,390.1L405.63,390.01L404.81,390.27L401.75,392.24L399.85,392.49L399.54,393.18L398.15,394.63L398.21,397.07L394.67,400.41L392.72,403.44L392.12,403.78L391.14,403.91L388.61,402.89L387.51,402.97L387.03,403.23L384.92,405.98L384.92,405.98L381.04,399.28L376.7,386.7L376.7,386.7L374.6,383.79L374.6,383.79L379.74,381.67L382.77,377.34L382.77,370.83L387.11,368.66L388.41,361.73L384.94,359.13L384.07,349.59L386.67,344.38L387.11,339.18L380.6,334.41L375.83,328.77L374.53,322.27L380.17,316.2L380.17,316.2L386.76,314.26L386.76,314.26L392.48,317.28L399.86,322.05L420.67,334.19L428.48,338.09L436.28,340.7L445.39,341.56L449.29,338.09L453.62,338.53L453.19,344.6L450.59,348.5L445.39,352.84L445.39,358.04L449.29,363.24L452.32,369.31L457.96,373.65z"/>
		<path id="ME-02" title="Bar" class="land" d="M206.05,540.22L205.86,540.42L205.86,540.42L210.19,545.19L213.23,549.09L214.53,553.86L214.96,562.53L216.7,568.6L219.73,572.07L224.94,573.38L231.44,574.24L237.94,574.24L240.98,575.54L244.01,582.48L246.18,590.72L248.78,599.39L254.42,603.73L257.46,610.23L270.46,614.57L278.7,625.41L283.04,628.88L287.04,631.49L287.04,631.49L286.94,631.48L286.94,631.48L283.47,636.68L279.14,639.72L272.2,638.42L269.16,639.72L264.83,639.72L259.19,635.82L257.02,631.48L253.55,629.31L249.65,631.91L247.92,633.65L247.92,637.98L250.08,638.42L253.55,639.72L254.42,641.45L253.12,644.92L250.95,649.26L250.52,653.16L253.12,655.33L254.85,658.8L257.89,659.66L258.76,665.74L259.62,668.34L257.89,672.24L253.55,673.97L248.78,673.11L238.81,668.34L234.47,665.74L228.84,665.74L224.59,666.3L224.59,666.3L224.78,666.12L224.68,664.85L223.86,664.55L223.07,663.75L222.28,663.54L222.38,662.56L223.77,662.14L224.08,659.35L221.46,657.69L221.46,657.4L222.25,656.63L222.22,656.25L221.72,655.66L221.72,655.41L222.16,655.19L222,654.52L222.41,654.05L221.87,652.61L220.52,651.3L219.85,651.13L219.06,650.53L212.15,644.6L210.32,643.84L207.95,641.59L205.71,640.45L203.94,638.79L203.97,638.58L204.54,638.58L204.51,638.33L202.83,637.31L201,635.79L199.61,634.13L199.45,633.16L201.22,633.03L201.79,633.62L204.25,634.26L204.6,634.01L204.57,633.62L203.78,632.86L203.78,632.56L204.06,632.48L204.76,633.07L205.17,633.07L205.07,632.31L204.57,632.14L204.44,631.8L204.54,631.29L204.82,631.21L205.36,631.59L205.99,630.7L206.08,629L205.04,625.86L204.03,623.87L203.15,622.81L199.23,620.01L198.66,619.38L196.58,618.91L197.21,617.85L197.27,617.17L196.14,614.16L193.42,612.54L192.63,612.54L191.94,613.01L188.12,612.59L186.41,612.76L185.46,613.18L184.99,611.57L184.61,611.15L183.98,611.15L182.91,611.48L181.67,613.56L181.17,614.2L180.85,614.24L177.85,607.79L178.04,605.8L178.55,604.82L178.48,604.23L177.57,603.25L176.69,601.71L176.69,601.71L179.84,595.06L182.01,591.15L185.91,587.25L183.31,580.31L179.41,575.11L173.77,569.91L168.13,565.14L165.96,556.9L164.66,555.16L163.79,551.26L161.63,546.49L161.63,546.49L166.4,545.62L166.4,545.62L172.47,547.36L177.24,549.53L179.84,553.43L188.08,554.3L193.71,551.69L194.58,548.23L191.98,543.89L190.68,540.42L192.41,536.95L198.48,536.08L203.69,538.25z"/>
		<path id="ME-03" title="Berane" class="land" d="M463.63,377.32L457.96,373.65L452.32,369.31L449.29,363.24L445.39,358.04L445.39,352.84L450.59,348.5L453.19,344.6L453.62,338.53L449.29,338.09L445.39,341.56L436.28,340.7L428.48,338.09L420.67,334.19L399.86,322.05L392.48,317.28L386.76,314.26L386.76,314.26L387.54,314.03L387.54,314.03L383.64,301.45L384.94,291.05L384.94,291.05L384.04,291.15L384.04,291.15L392.74,282.81L392.74,282.81L394.33,280.7L394.33,280.7L402.02,281.51L410.7,278.9L418.5,275.44L423.27,270.67L427.61,265.46L434.55,262.86L438.45,264.6L441.05,267.63L445.82,268.93L452.32,270.23L459.69,268.93L464.9,264.6L470.97,262L478.77,260.26L485.28,257.66L489.61,252.89L493.95,251.15L502.62,250.29L508.69,247.25L513.46,244.65L518.42,237.83L518.42,237.83L519.6,238.93L523.2,239.96L525.28,241.08L529.93,245.77L533.46,249.77L536.59,251.92L538.52,251.96L540.73,251.28L545.24,248.26L546.85,248.09L546.85,248.09L545.98,260.26L540.35,268.5L538.61,277.6L528.64,287.14L527.77,297.12L524.74,307.09L516.93,313.6L509.99,322.27L512.6,336.14L514.39,339.53L514.39,339.53L513.95,339.86L513,342L512.94,343.72L512.62,345.39L512.15,346.55L510.82,348.56L508.71,350.96L508.07,351.99L507.98,353.02L508.3,354.3L509.56,356.62L510.32,358.8L511.52,363.56L512.12,364.41L513.1,366.9L513.76,367.58L516.76,368.52L518.12,369.72L518.93,371L518.93,371L504.36,373.65L491.35,374.95L481.38,374.08L470.1,374.08L470.1,374.08z"/>
		<path id="ME-04" title="Bijelo Polje" class="land" d="M518.42,237.83L513.46,244.65L508.69,247.25L502.62,250.29L493.95,251.15L489.61,252.89L485.28,257.66L478.77,260.26L470.97,262L464.9,264.6L459.69,268.93L452.32,270.23L445.82,268.93L441.05,267.63L438.45,264.6L434.55,262.86L427.61,265.46L423.27,270.67L418.5,275.44L410.7,278.9L402.02,281.51L394.33,280.7L394.33,280.7L395.35,279.34L395.35,279.34L383.21,270.23L380.6,266.33L385.37,257.23L385.37,250.29L380.17,243.35L372.8,238.58L366.73,237.71L355.02,236.85L347.65,234.68L338.54,229.04L334.21,226L325.1,225.14L317.3,221.67L317.3,221.67L316.77,221.83L316.77,221.83L319.03,214.73L318.6,204.76L322.06,199.55L326.83,195.65L334.21,195.65L336.81,190.45L337.24,183.94L341.58,181.34L344.18,178.31L344.18,172.67L341.58,168.33L341.58,164.43L346.78,161.4L349.82,155.76L353.72,153.59L355.89,138.85L352.42,133.21L353.25,129.05L353.25,129.05L360.73,133.37L367.64,138.17L369.92,139.21L372.54,140.76L373.74,142.14L379.39,154.1L381.16,157.38L382.23,158.38L386.4,160.75L389.56,163.04L393.16,165.24L398.15,166.75L401.56,167.18L403.9,168.22L408.28,169.38L411.13,170.89L413.12,172.79L413.72,172.79L414.54,172.45L415.77,165.84L416.65,164.72L418.3,163.6L420.25,164.33L422.08,166.15L423.73,169.25L423.82,173.61L424.07,174.6L427.86,181.42L428.56,184.26L429.25,189.74L429.76,190.3L431.43,190.6L439.93,191.03L440.65,191.29L443.72,195.52L444.28,196.21L444.69,196.33L445.17,196.29L445.58,195.95L447.22,193.75L447.85,193.27L448.61,193.23L449.75,193.66L453.06,196.64L454.07,197.2L461.12,198.19L465.35,198.19L470.81,197.67L473.4,196.9L475.55,194.7L477.19,192.41L478.67,191.08L480.41,190.56L481.64,190.6L482.46,191.38L485.02,198.58L486.73,201.08L487.67,204.05L489,205.3L490.23,205.86L492.95,210.64L503.12,222.1L505.9,225.63L507.95,227.57L513.25,231.83z"/>
		<path id="ME-05" title="Budva" class="land" d="M162.75,546.29L161.63,546.49L161.63,546.49L163.79,551.26L164.66,555.16L165.96,556.9L168.13,565.14L173.77,569.91L179.41,575.11L183.31,580.31L185.91,587.25L182.01,591.15L179.84,595.06L176.69,601.71L176.69,601.71L176.27,601.68L175.83,602.53L174.76,602.74L174.32,601L173.78,600.83L173.08,601.34L172.9,599.9L170.43,598.67L167.59,596.5L167.21,595.82L167.05,594.89L168.41,592.51L168.51,591.32L167.5,589.45L165.66,587.59L164.75,587.2L163.61,587.8L162.54,587.37L162.1,586.91L162.13,585.38L160.71,585.42L159.79,584.65L159.47,583.72L158.81,583.17L157.71,583.38L155.46,582.57L154.83,582.87L154.52,582.79L154.29,581.09L153.88,580.36L153.54,580.15L152.34,580.19L148.52,577.18L147.79,575.73L148.01,574.42L147.57,573.18L147.6,572.21L146.5,570.47L146.12,570.93L145.9,570.85L145.9,569.78L145.1,569.78L144.63,569.15L144.85,568.51L145.55,567.74L145.52,566.81L144.76,565.41L145.26,563.92L144.63,562.22L143.75,561.33L144.03,560.52L143.27,557.67L143.37,556.65L142.67,556.1L142.36,554.69L141.66,553.97L140.05,553.76L140.24,552.02L140.05,551.67L138.25,551.46L135.76,551.55L134.15,552.14L133.74,553.42L132.82,552.31L132.47,551.25L131.05,549.68L128.91,549.72L126.63,550.99L126.63,551.8L127.2,552.48L126.88,552.95L126.54,553.12L125.68,553.04L124.52,553.72L123.92,554.48L122.46,553.21L120.22,552.78L120.13,551.29L119.57,550.85L119.57,550.85L119.57,546.49L118.27,545.19L118.7,542.59L122.17,535.22L118.7,532.18L117.4,529.58L116.1,525.68L117.83,522.64L117.83,522.64L122.17,520.47L122.17,520.47L126.07,521.34L129.97,524.81L135.61,526.54L140.81,527.85L146.88,530.45L150.79,530.45L155.99,531.75L159.03,537.82L161.63,544.32z"/>
		<path id="ME-06" title="Cetinje" class="land" d="M227.54,527.59L227.54,526.54L227.54,526.54L224.5,525.68L218.86,522.64L215.4,524.81L210.19,523.08L206.72,519.61L203.25,519.61L201.09,524.38L203.69,527.85L206.72,532.61L207.59,534.78L207.59,538.69L207.59,538.69L206.05,540.22L206.05,540.22L203.69,538.25L198.48,536.08L192.41,536.95L190.68,540.42L191.98,543.89L194.58,548.23L193.71,551.69L188.08,554.3L179.84,553.43L177.24,549.53L172.47,547.36L166.4,545.62L166.4,545.62L162.75,546.29L162.75,546.29L161.63,544.32L159.03,537.82L155.99,531.75L150.79,530.45L146.88,530.45L140.81,527.85L135.61,526.54L129.97,524.81L126.07,521.34L122.17,520.47L122.17,520.47L119.04,522.04L119.04,522.04L118.27,518.96L117.83,507.25L113.5,502.91L110.03,499.01L107.42,494.24L108.29,489.47L111.76,485.13L112.19,478.2L110.46,465.62L108.29,458.25L102.22,451.75L96.15,449.58L90.95,442.64L88.35,437L85.74,429.2L80.11,422.26L75.77,417.49L75.77,417.49L71.73,405.38L71.73,405.38L77.94,404.05L83.14,401.01L83.14,383.23L89.65,378.03L91.81,375.86L92.25,371.53L92.25,366.76L97.89,366.76L110.89,375.43L126.94,375L133.01,378.9L141.25,388.87L149.49,393.21L154.69,396.68L158.59,401.01L158.59,401.01L160.76,409.69L160.76,409.69L159.89,417.06L166.83,418.79L171.6,422.26L175.07,430.5L179.84,432.67L184.61,437.44L183.31,440.9L175.94,444.81L175.94,453.91L175.94,453.91L167.7,456.95L167.7,456.95L168.13,460.85L174.64,462.59L177.67,463.89L180.71,464.75L186.34,470.82L188.94,476.03L196.32,481.23L200.22,482.53L202.82,487.74L205.86,495.11L210.19,500.31L216.7,505.08L223.63,508.98L227.97,512.89L230.57,522.42z"/>
		<path id="ME-07" title="Danilovgrad" class="land" d="M175.5,454.07L175.94,453.91L175.94,453.91L175.94,444.81L183.31,440.9L184.61,437.44L179.84,432.67L175.07,430.5L171.6,422.26L166.83,418.79L159.89,417.06L160.76,409.69L160.76,409.69L160.24,407.62L160.24,407.62L174.2,407.95L179.84,404.48L179.41,395.38L180.27,384.54L185.04,378.46L191.55,373.69L197.62,370.23L205.42,370.66L214.53,374.13L223.63,374.56L234.04,374.13L243.58,375.43L248.35,371.96L245.31,368.49L241.85,365.46L238.38,359.39L237.94,355.05L241.85,352.88L244.88,349.85L244.88,349.85L248.35,349.85L248.35,349.85L254.42,353.31L256.59,361.12L258.32,371.96L260.93,375.43L268.3,383.67L268.3,383.67L270.03,388L270.03,388L264.39,391.91L259.19,394.94L258.76,404.48L260.93,410.12L259.19,418.36L254.42,420.96L248.78,423.56L246.18,432.23L247.05,442.21L248.35,452.18L247.05,457.38L240.98,464.75L235.34,468.66L229.27,465.19L222.77,462.15L218.43,465.62L208.02,465.19L199.35,466.92L195.88,461.29L188.51,459.55L181.57,456.95z"/>
		<path id="ME-08" title="Herceg-Novi" class="land" d="M64.65,494.86l-0.15,2.42l0.87,3.9l3.9,2.6l1.68,2.99l0,0l-0.97,0.22l-0.38,0.56l-0.82,0.47v2.47l1.55,1.41l0.03,0.26l-0.09,0.26l-0.76,0.13l-1.14,1.24l0.32,1.75l-0.31,0.64l-1.04,-0.08l-1.42,-0.51l-0.54,-0.64l0.13,-1.32l-1.2,-0.72l-0.6,0.09l-0.41,0.51l-1.17,-0.64l-0.54,0.26l0.54,1.41l-0.03,0.73L61.8,516.1l-0.5,0.34l-1.01,-0.08l-1.17,-0.68l-1.29,-0.26l-0.19,-0.13l0.03,-1.11l-0.44,-0.17l-0.41,0.26l-0.22,0.81l-2.02,0.6l-0.44,-0.68l0.51,-1.06l-0.92,-0.34l-0.22,-0.6l-1.04,0.6l-0.76,-0.08l-0.19,-1.28l-0.6,-0.43l-1.2,-0.34l-1.48,-1.24l-0.13,-0.55l0.85,-0.89l-0.13,-0.43l-1.89,0.34l-0.57,-0.38l-0.28,-1.36l-1.14,-0.6l-0.5,0.38l-0.66,-0.17l-1.99,-2.6l0.19,-0.3l1.17,-0.17l1.2,-0.77l-0.47,-0.43l-0.13,-0.55l0.22,-0.26l1.01,-0.04l-0.09,-0.64l-0.6,-0.38l-4.96,-1.28l-1.26,-0.81l-0.76,-1.53l0.35,-1.41l-2.27,-0.17l-0.79,-0.47l-0.16,-0.56l0.19,-1.15l-0.35,-1.79l0.51,-1.02l2.46,-2l0.79,-0.3l0.63,-0.68l0.6,-0.3l1.93,-0.34l2.81,0.38l11.84,3.71l7.04,3.58L64.65,494.86zM23.94,420.88l6.19,0.3l1.05,-0.63l0,0l6.87,9.52l3.47,9.54l2.6,3.04l5.2,3.9l10.41,1.3l5.2,1.3l6.94,3.47l1.62,4.06l0,0l-0.83,0.34l-2.27,1.62l-1.01,1.11l-1.58,1.11l-0.38,1.19l1.33,0.9l0.88,-0.13l3.66,0.43l5.81,2.9l0.16,0.38l-0.35,0.68l-1.36,1.62l-0.73,1.54l-1.64,1.79l-0.32,1.45l0.82,1.07l-0.22,0.68l-0.54,0.43l-2.65,1.07l-1.99,1.15l-1.17,1.45l-1.29,-0.26l-0.82,0.3l-2.84,2.43l-3.13,1.54l-4.99,1.15l-1.33,1.02l-2.08,0.04l-1.23,0.64l-2.08,-1.36l-2.59,-0.68l-0.47,-0.26l-0.76,-1.11l-1.17,-0.38l-1.99,-3.03l-1.36,-1.36l-2.21,-0.43l-0.88,0.85l-1.48,0.73l-2.15,0.21l-1.64,-0.51l-1.17,0.47h-0.63l-1.93,-1.06l-1.74,-1.71l-1.42,-0.98l-0.6,-0.3l-0.63,0.04l-3.16,2.6l-0.54,1.58l0.44,0.38l0.32,1.24l1.58,2.64l1.45,1.11l0.76,1.62l1.2,0.51l2.31,2.22l0.13,0.43l-0.16,0.56l-0.82,0.21l-1.26,1.66l-3.41,-0.85l-0.88,-1.66l-5.18,-5.24l-6.32,-7.68l-4.67,-6.1l-3.66,-3.67l-0.44,-1.58l-0.31,-2.47l0.16,-2.35l0.16,-0.47l2.69,-3.24l0.51,-0.98l-0.03,-1.15l-3.32,-9.82l-1.36,-5.04L0,435.71l0.35,-3.33l2.59,-0.51l2.21,0.3l1.48,-0.04l2.18,-0.56l2.4,-0.3l2.31,-0.68l2.31,-3.5l4.64,-6.15l1.42,-0.47L23.94,420.88z"/>
		<path id="ME-09" title="Kolašin" class="land" d="M374.6,383.79L371.06,378.9L371.06,378.9L361.96,378.46L356.75,372.39L351.98,358.08L342.44,357.22L336.81,358.08L333.34,371.09L332.91,375.43L328.14,376.73L319.46,378.03L318.6,383.67L312.09,385.84L304.72,389.3L299.52,393.21L292.58,392.34L284.77,388.44L280,389.74L274.37,386.27L269.67,387.1L269.67,387.1L268.3,383.67L268.3,383.67L260.93,375.43L258.32,371.96L256.59,361.12L254.42,353.31L248.35,349.85L248.35,349.85L246.34,349.85L246.34,349.85L240.98,345.25L238.81,340.48L239.68,330.07L243.58,326.6L246.18,321.4L244.88,316.63L241.41,310.99L235.78,305.79L235.78,305.79L234.66,305.87L234.66,305.87L233.61,298.85L240.55,291.05L241.41,287.14L250.95,285.84L255.72,287.14L273.93,285.84L282.17,284.98L288.24,280.21L288.24,280.21L290.21,273.9L290.21,273.9L296.92,274.14L299.52,278.04L301.69,280.64L309.06,284.98L317.73,286.71L324.67,289.75L339.84,291.05L344.18,288.45L351.12,286.71L358.06,289.75L365.43,288.88L371.06,292.35L377.57,291.91L377.57,291.91L384.94,291.05L384.94,291.05L383.64,301.45L387.54,314.03L387.54,314.03L380.17,316.2L380.17,316.2L374.53,322.27L375.83,328.77L380.6,334.41L387.11,339.18L386.67,344.38L384.07,349.59L384.94,359.13L388.41,361.73L387.11,368.66L382.77,370.83L382.77,377.34L379.74,381.67z"/>
		<path id="ME-10" title="Kotor" class="land" d="M73.49,456.67L71.87,452.61L64.93,449.14L59.73,447.84L49.32,446.54L44.12,442.64L41.52,439.6L38.05,430.06L31.18,420.55L31.18,420.55L32.18,419.94L32.75,419.17L33.03,418.4L32.84,417.64L31.83,416.31L28.6,413.82L28.6,413.82L39.35,412.29L46.29,409.69L55.39,406.65L65.36,402.75L71.43,404.48L71.43,404.48L75.77,417.49L75.77,417.49L80.11,422.26L85.74,429.2L88.35,437L90.95,442.64L96.15,449.58L102.22,451.75L108.29,458.25L110.46,465.62L112.19,478.2L111.76,485.13L108.29,489.47L107.42,494.24L110.03,499.01L113.5,502.91L117.83,507.25L118.27,518.96L119.04,522.04L119.04,522.04L117.83,522.64L117.83,522.64L116.1,525.68L117.4,529.58L118.7,532.18L122.17,535.22L118.7,542.59L118.27,545.19L119.57,546.49L119.57,550.85L119.57,550.85L118.8,550.1L117.51,549.8L115.01,551.59L115.11,552.44L116.24,554.23L115.96,554.69L112.8,552.02L109.83,550.65L109.64,550.99L110.18,552.18L109.86,553.72L110.02,554.48L110.53,555.25L110.46,555.93L110.08,556.23L109.3,556.35L108.35,557.16L106.77,556.65L105.32,554.31L103.77,552.99L103.2,552.1L102.41,551.93L102.22,550.95L100.61,549.8L99.03,548.02L98.72,547.46L98.94,546.53L98.12,546.36L97.8,546.06L96.41,543.81L95.59,543.25L94.48,541.89L93.32,541.93L93.76,540.79L93.66,540.45L91.52,539.68L91.39,538.57L89.18,536.83L86.59,534.02L85.48,533.64L85.61,533.04L86.87,531.72L87.76,531.6L87.95,531.17L87.95,530.91L85.93,528.83L85.9,527.13L86.12,526.23L83.87,524.36L83.24,523.29L82.14,523.08L81.98,522.15L79.99,520.83L79.48,519.38L79.48,518.65L79.8,518.23L81.13,518.23L82.23,518.57L84.76,520.02L85.17,519.97L85.2,519.29L83.51,517.38L83.51,517.38L85.92,516.84L94.44,509.7L97.46,505.71L98.43,498.16L103.65,491.15L103.62,490.92L103.62,490.92L104.05,490.32L104.18,487.3L103.17,485L102.47,484.23L102.25,483.29L103.3,480.82L103.07,479.41L103.33,477.66L102.7,473.27L102.51,467.94L103.17,464.52L103.11,463.88L102.63,463.07L102.13,462.82L100.71,462.82L99.35,463.2L95.08,465.29L92.72,465.68L85.93,465.59L84.03,465.21L82.77,464.61L80.4,463.12L79.83,462.26L79.58,460.3L80.05,458.51L79.93,457.48L80.62,456.93L80.37,455.73L81.38,454.5L80.68,452.28L79.58,451.25L78.63,451.29L77.84,451.94L77.4,453.04L76.45,454.15L75.79,456.12L75.06,456.5z"/>
		<path id="ME-11" title="Mojkovac" class="land" d="M384.04,291.15L377.57,291.91L377.57,291.91L371.06,292.35L365.43,288.88L358.06,289.75L351.12,286.71L344.18,288.45L339.84,291.05L324.67,289.75L317.73,286.71L309.06,284.98L301.69,280.64L299.52,278.04L296.92,274.14L290.21,273.9L290.21,273.9L290.41,273.27L290.41,273.27L286.94,266.33L280,265.46L277.4,259.39L275.67,251.15L275.67,251.15L275.47,251.05L275.47,251.05L277.4,248.99L277.4,239.88L283.04,238.58L290.41,237.71L296.48,237.28L297.78,229.91L298.65,227.31L302.99,223.84L302.99,223.84L302.8,223.71L302.8,223.71L310.36,223.84L310.36,223.84L317.3,221.67L317.3,221.67L325.1,225.14L334.21,226L338.54,229.04L347.65,234.68L355.02,236.85L366.73,237.71L372.8,238.58L380.17,243.35L385.37,250.29L385.37,257.23L380.6,266.33L383.21,270.23L395.35,279.34L395.35,279.34L392.74,282.81L392.74,282.81z"/>
		<path id="ME-12" title="Nikšić" class="land" d="M246.34,349.85L244.88,349.85L244.88,349.85L241.85,352.88L237.94,355.05L238.38,359.39L241.85,365.46L245.31,368.49L248.35,371.96L243.58,375.43L234.04,374.13L223.63,374.56L214.53,374.13L205.42,370.66L197.62,370.23L191.55,373.69L185.04,378.46L180.27,384.54L179.41,395.38L179.84,404.48L174.2,407.95L160.24,407.62L160.24,407.62L158.59,401.01L158.59,401.01L154.69,396.68L149.49,393.21L141.25,388.87L133.01,378.9L126.94,375L110.89,375.43L97.89,366.76L92.25,366.76L92.25,371.53L91.81,375.86L89.65,378.03L83.14,383.23L83.14,401.01L77.94,404.05L71.73,405.38L71.73,405.38L71.43,404.48L71.43,404.48L65.36,402.75L55.39,406.65L46.29,409.69L39.35,412.29L28.6,413.82L28.6,413.82L28.17,413.49L25.92,407.36L27.71,401.08L29.65,397.21L34.77,396.94L36.51,395.96L38.34,395.61L41.24,395.44L42.13,395.06L42.32,394.72L41.84,388.9L40.04,383.25L38.97,375.46L39.66,373.4L41.75,370.02L42.1,369.12L42.35,367.11L42.19,365.78L41.43,364.11L39.79,362.53L39.13,362.06L38.24,361.84L37.55,361.84L35.72,362.87L32.53,363.81L28.11,363.85L26.4,363.51L25.17,362.96L24.16,361.97L22.9,360.17L22.52,359.44L22.83,358.07L18.1,350.62L16.04,349.89L14.75,350.02L13.17,349.55L12.47,349.12L11.72,348.05L11.56,346.72L11.72,345.82L13.07,341.49L12.32,339.95L11.62,339.52L11.12,338.83L10.83,334.72L10.55,334.12L9.76,333.82L9.54,333.39L9.79,332.66L10.23,332.27L13.2,332.4L16.11,331.29L17.24,329.61L17.34,327.51L16.14,323.95L15.28,322.15L13.61,316.7L13.39,313.27L13.64,313.01L13.99,310.27L17.27,304.08L19.33,302.54L20.15,301.42L20.37,300.69L19.39,297.39L19.33,295.46L20.24,294.64L23.02,293.14L23.4,292.06L23.21,290.26L22.14,289.61L20.56,289.06L17.59,283.99L17.72,277.33L15.16,273.2L15.22,271.48L15.73,270.88L18.47,269.51L19.7,268.09L25.83,255.4L27.03,250.72L28.17,248.05L30.22,242.07L31.11,240.82L33.38,238.93L35.12,236.39L36.1,235.66L37.9,235.1L39.76,235.18L56.46,238.02L58.71,238.5L63.6,240.31L67.2,240.65L70.01,240.18L74.15,238.8L77.91,236.95L79.17,236.52L82.36,236.04L82.8,235.7L83.08,235.01L82.58,232.52L80.21,228.04L71.07,204.24L71.07,204.24L83.58,202.16L92.68,205.19L100.05,211.26L103.96,221.23L106.12,230.77L110.46,242.48L115.23,251.15L120.43,262L126.5,267.63L131.27,270.23L154.69,270.23L169,270.67L169,270.67L172.47,277.6L172.47,277.6L176.8,279.34L184.18,283.68L195.45,291.05L206.29,295.82L218,307.09L218,307.09L235.78,305.79L235.78,305.79L241.41,310.99L244.88,316.63L246.18,321.4L243.58,326.6L239.68,330.07L238.81,340.48L240.98,345.25z"/>
		<path id="ME-13" title="Plav" class="land" d="M420.64,416.82L424.14,414.41L434.11,411.81L435.41,403.57L438.01,396.63L444.52,389.26L451.89,381.89L463.16,377.55L463.16,377.55L470.1,374.08L470.1,374.08L481.38,374.08L491.35,374.95L504.36,373.65L518.93,371L518.93,371L519.35,371.65L520.36,372.42L522,372.89L523.93,372.98L526.45,374.39L528.38,377.17L530.62,381.37L531.69,382.78L533.75,384.7L536.97,386.8L537.22,387.96L533.43,392.66L530.59,396.77L526.52,401.39L522.82,403.36L521.31,404.77L519.57,407.38L518.94,410.37L519.25,414.56L520.83,418.83L521.18,421.14L520.83,423.79L516.38,435.03L514.93,434.81L510.66,433.53L508.99,436.44L508.11,437.2L506.53,437.67L501.47,439.85L498.82,440.11L498.1,440.45L497.59,441.13L497.37,441.94L497.72,444.76L497.59,445.96L495.79,450.19L495.41,452.49L494.21,454.2L493.52,454.45L490.83,453.51L488.43,453.39L487.48,453.04L486.57,453L485.05,453.17L483.28,453.94L481.67,454.03L478.04,453.39L475.14,451L473.59,451.08L471.69,451.64L469.71,452.75L467.87,454.28L465.88,455.48L463.52,455.78L463.07,456.8L462.76,458.47L462.92,461.75L462.57,462.56L461.97,462.86L460.71,464.65L459.88,464.44L458.59,463.5L457.11,461.41L454.55,460.09L453.98,460.6L453.66,462.05L453.06,463.16L452.75,464.35L451.45,466.06L450.03,466.19L448.36,465.59L447.16,465.46L446.4,466.66L445.45,467.38L441.98,467.47L441.69,468.24L441.88,469.64L441.76,470.5L439.99,472.89L436.14,471.56L434.12,469.94L427.64,466.06L426.85,465.12L425.05,461.45L423.66,459.92L419.24,457.78L418.93,457.44L417.82,453L417.38,449.2L416.37,448.09L415.45,446.21L415.11,444.38L413.81,442.93L412.23,439.38L412.39,438.14L413.62,437.76L414.16,437.29L414.06,434.73L415.71,431.31L415.71,430.2L414.66,429.26L414.28,428.62L413.91,426.99L414.32,426.05L415.01,425.54L415.14,423.83L415.33,423.66L416.56,423.88L421.39,423.88L422.12,423.58L422.46,423.15L422.56,422.59L421.99,420.54L422.05,418.53L421.58,417.64z"/>
		<path id="ME-14" title="Pljevlja" class="land" d="M353.25,129.05L352.42,133.21L355.89,138.85L353.72,153.59L349.82,155.76L346.78,161.4L341.58,164.43L341.58,168.33L344.18,172.67L344.18,178.31L341.58,181.34L337.24,183.94L336.81,190.45L334.21,195.65L326.83,195.65L322.06,199.55L318.6,204.76L319.03,214.73L316.77,221.83L316.77,221.83L310.36,223.84L310.36,223.84L302.8,223.71L302.8,223.71L295.61,218.63L295.61,218.63L292.15,210.83L288.68,203.89L280,202.59L275.23,195.22L267.43,190.01L264.39,184.38L256.15,180.91L252.69,177.87L247.48,176.14L240.11,173.1L227.54,159.66L215.4,159.66L210.63,165.3L203.69,164.86L196.75,165.3L193.71,160.53L188.51,160.96L187.64,150.12L185.91,141.88L186.78,136.25L185.61,134.61L185.61,134.61L188.84,128.88L190.61,126.55L192.35,125.03L194.18,124L196.67,123.13L206.62,122.09L207.1,120.23L207.66,116.13L208.11,110.33L207.82,108.34L206.46,104.75L203.46,100.3L200.05,92.81L197.4,88.83L194.12,84.81L190.3,80.91L184.96,68.4L183.98,64.54L184.33,61.21L183.98,58L183.73,57.05L181.93,54.49L181.83,51.06L181.26,50.67L180.63,50.81L180.03,50.28L179.56,50.33L178.8,51.06L178.2,52.76L177.73,52.8L176.12,50.07L174.88,49.24L174.41,47.47L172.2,46.12L170.91,45.65L170.37,42.57L169.23,39.01L169.39,35.63L168.79,33.72L167.91,31.9L168.1,27.09L169.8,23.22L169.64,21.58L169.23,20.53L168.1,18.8L167.62,18.54L166.99,18.49L166.2,18.88L164.78,20.19L163.67,23.92L162.82,25.52L162.16,25.91L160.93,25.52L159.92,23.61L159.13,17.45L159.25,16.85L159.92,15.85L162.16,13.81L163.9,12.9L169.26,12.94L169.99,12.81L171.06,12.07L172.04,10.81L173.15,6.56L175.58,1.56L177.22,0.3L178.93,0L180.66,0.61L180.98,2.74L181.42,3.65L181.99,3.73L182.5,3.56L183.1,1.43L183.44,1L185.15,0.35L187.55,0.78L188.84,1.56L189.7,1.52L191.62,0.87L194.75,1.04L195.63,1.74L198.76,5.73L199.42,6.25L204.44,8.47L213.47,15.37L214.45,15.85L218.18,18.88L219.54,18.84L220.9,18.15L223.52,15.02L228.82,9.94L229.8,9.51L231.95,9.38L235.99,11.59L236.84,11.29L238.52,9.86L240,9.6L242.46,12.07L243.06,11.94L244.61,10.46L245.18,10.2L245.81,10.29L247.67,11.29L249.7,13.42L250.9,28.82L253.11,32.2L256.55,35.72L260.68,39.32L262.39,42L265.45,45.69L272.84,53.36L284.02,60.82L287.9,62.63L294.22,64.41L295.96,65.1L298.39,66.53L300.92,70.04L306.1,75.11L312.32,78.83L321.41,81.56L321.88,82.82L324.35,93.81L328.8,99.95L331.23,102.07L333.03,102.94L342.54,105.06L343.9,105.84L346.55,110.46L350.12,126.11L350.87,127.24L352.2,128.45z"/>
		<path id="ME-15" title="Plužine" class="land" d="M176.24,133.25L174.64,140.58L173.33,150.56L174.2,163.13L172.9,173.1L172.9,180.91L177.67,187.85L183.31,194.35L183.31,194.35L183.31,202.59L183.31,202.59L180.71,201.72L172.9,204.32L166.4,206.06L159.89,213.43L157.72,219.93L156.42,226.87L151.65,231.64L152.52,245.08L155.99,251.59L172.9,258.96L176.37,264.6L174.2,268.93L169.29,271.25L169.29,271.25L169,270.67L169,270.67L154.69,270.23L131.27,270.23L126.5,267.63L120.43,262L115.23,251.15L110.46,242.48L106.12,230.77L103.96,221.23L100.05,211.26L92.68,205.19L83.58,202.16L71.07,204.24L71.07,204.24L67.14,194.01L66.28,189.74L66.32,186.33L66.88,182.67L67.93,178.35L69.63,173.78L71.65,170.42L76.2,163.64L79.8,158.81L86.34,151.64L87.6,149.74L88.83,147.11L88.83,145.42L88.04,144.04L81.54,139.98L80.4,138.21L80.05,135.97L80.34,134.11L81.98,132.03L90.66,125.72L101.72,118.07L112.52,111.5L121.33,107.87L125.24,106.57L129.38,105.84L132.22,105.92L131.72,104.84L131.62,103.33L130.77,101.6L130.67,100.43L129.1,97.75L127.3,96.02L127.3,93.59L129.66,93.38L135.03,91.3L137.24,91.08L138.92,90.26L141.06,90.22L143.56,90.95L144.66,91.04L146.18,90.61L148.99,88.49L149.4,88.44L150.66,89.22L154.86,93.2L155.5,94.8L158.05,97.7L160.2,101.16L161.15,101.51L164.24,101.38L164.72,101.68L165.41,104.37L164.87,107.13L162.85,109.25L161.84,113.23L161.84,114.05L163.26,118.2L164.08,119.46L165.63,119.54L169.9,121.23L172.74,123.17L174.13,126.5L173.94,127.89L172.86,129.57L172.8,130.26L173.46,131.08L175.39,132.16z"/>
		<path id="ME-16" title="Podgorica" class="land" d="M384.92,405.98L382.42,409.69L375.66,418.4L370.64,425.58L370.45,426.1L370.11,431.99L371.27,433.83L371.27,435.24L372.28,439.3L372.13,440.54L371.4,441.13L370.26,441.52L368.72,442.41L368.24,442.88L368.05,443.52L368.15,444.81L367.83,445.23L355.33,452.4L354.95,453.22L354.76,457.82L353.97,460.26L352.55,462.56L350.87,463.84L350.24,465.63L347.84,469.39L347.21,472.5L344.5,476.98L341.94,479.03L341.08,482.91L340.52,483.33L336.85,484.74L335.56,486.62L334.74,487.43L334.36,488.45L333.98,491.13L333.85,491.35L332.65,491.13L332.12,491.69L331.14,496.04L328.93,500.21L326.43,504.09L323.24,506.52L321.57,507.33L320.08,507.67L317.72,507.54L315.76,508.56L315.13,509.07L313.61,511.42L311.94,512.99L310.67,515.55L310.83,519.97L310.42,520.61L308.18,521.8L307.99,522.1L308.84,528.53L310.55,532.02L305.59,537.3L303.03,541.51L298.71,545.72L298.55,547.29L298.71,549.93L297.85,552.06L291.03,560.26L289.9,561.96L288.85,564.22L288.36,566.06L288.36,566.06L283.91,565.57L280,563.4L274.8,559.5L272.2,556.9L265.69,555.6L260.49,553.86L253.55,555.16L248.78,557.33L237.51,560.37L235.78,556.03L233.17,554.3L230.14,553L228.84,549.96L223.63,546.49L222.33,543.89L221.9,537.39L223.63,532.61L227.54,530.45L227.54,530.45L227.54,527.59L227.54,527.59L230.57,522.42L227.97,512.89L223.63,508.98L216.7,505.08L210.19,500.31L205.86,495.11L202.82,487.74L200.22,482.53L196.32,481.23L188.94,476.03L186.34,470.82L180.71,464.75L177.67,463.89L174.64,462.59L168.13,460.85L167.7,456.95L167.7,456.95L175.5,454.07L175.5,454.07L181.57,456.95L188.51,459.55L195.88,461.29L199.35,466.92L208.02,465.19L218.43,465.62L222.77,462.15L229.27,465.19L235.34,468.66L240.98,464.75L247.05,457.38L248.35,452.18L247.05,442.21L246.18,432.23L248.78,423.56L254.42,420.96L259.19,418.36L260.93,410.12L258.76,404.48L259.19,394.94L264.39,391.91L270.03,388L270.03,388L269.67,387.1L269.67,387.1L274.37,386.27L280,389.74L284.77,388.44L292.58,392.34L299.52,393.21L304.72,389.3L312.09,385.84L318.6,383.67L319.46,378.03L328.14,376.73L332.91,375.43L333.34,371.09L336.81,358.08L342.44,357.22L351.98,358.08L356.75,372.39L361.96,378.46L371.06,378.9L371.06,378.9L376.7,386.7L376.7,386.7L381.04,399.28z"/>
		<path id="ME-17" title=" Rožaje" class="land" d="M514.39,339.53L512.6,336.14L509.99,322.27L516.93,313.6L524.74,307.09L527.77,297.12L528.64,287.14L538.61,277.6L540.35,268.5L545.98,260.26L546.85,248.09L546.85,248.09L549.38,249L550.86,250.59L551.72,251.1L553.2,251.36L557.12,252.78L558.6,252.95L559.11,253.17L560.27,254.46L564.19,255.88L571.14,258.93L572.78,259.92L576.44,263.79L578.81,264.99L582.51,265.98L587.62,266.54L593.21,267.7L593.59,268.17L594,270.71L594.73,272.13L594.69,272.86L594.28,273.33L594.38,273.63L596.37,274.66L597.13,275.35L597.79,276.38L601.74,276.6L603.32,277.63L604.58,278.79L607.9,280.64L610.39,282.7L611.68,284.5L612,287.55L611.91,296.92L610.99,301.46L611.53,309.11L610.93,311.51L608.75,314.9L607.04,315.89L606.28,316.06L604.2,315.84L599.15,314.43L597.76,314.77L596.43,315.84L594.79,317.9L593.53,319.06L591.57,319.83L587.43,322.06L585.32,324.08L583.61,326.27L583.42,327.47L584.21,330.73L585.76,333.52L586.11,334.59L585.98,335.4L583.93,337.89L582.82,338.87L575.15,349.68L571.83,351.22L568.14,351.17L563.78,349.59L558.79,349.08L551.56,349.12L547.52,348.78L545.15,349.2L542.24,348.56L538.96,347.45L536.08,345.86L532.52,345.3L528.88,343.5L525.69,342.22L523.67,341.88L522.6,341.15L520.39,340.72L516.44,339.13L515.37,339z"/>
		<path id="ME-18" title="Šavnik" class="land" d="M183.31,202.16L186.34,206.93L187.64,210.83L190.68,216.03L201.09,217.33L203.69,213L211.49,213.43L217.56,221.67L223.63,227.31L228.4,227.74L233.61,226L238.38,225.14L244.88,230.77L249.65,239.88L255.72,242.92L260.93,243.78L268.3,247.25L268.3,247.25L275.67,251.15L275.67,251.15L277.4,259.39L280,265.46L286.94,266.33L290.41,273.27L290.41,273.27L288.24,280.21L288.24,280.21L282.17,284.98L273.93,285.84L255.72,287.14L250.95,285.84L241.41,287.14L240.55,291.05L233.61,298.85L234.66,305.87L234.66,305.87L218,307.09L218,307.09L206.29,295.82L195.45,291.05L184.18,283.68L176.8,279.34L172.47,277.6L172.47,277.6L169.29,271.25L169.29,271.25L174.2,268.93L176.37,264.6L172.9,258.96L155.99,251.59L152.52,245.08L151.65,231.64L156.42,226.87L157.72,219.93L159.89,213.43L166.4,206.06L172.9,204.32L180.71,201.72L183.31,202.59L183.31,202.59z"/>
		<path id="ME-19" title="Tivat" class="land" d="M103.62,490.92L103.65,491.15L98.43,498.16L97.46,505.71L94.44,509.7L85.92,516.84L83.51,517.38L83.51,517.38L83.43,515.76L82.42,514.31L82.07,513.97L80.56,513.5L79.45,512.1L79.3,511.63L79.45,511.03L80.43,510.39L78.28,508.05L78.38,506.6L77.87,506.35L77.62,506.47L77.59,507.33L77.31,507.67L75.76,507.54L72.73,506.22L70.95,506.77L70.95,506.77L69.27,503.78L65.36,501.18L64.5,497.28L64.65,494.86L64.65,494.86L67.83,496.38L71.62,497.02L71.97,497.87L72.57,497.61L73.64,498.34L79.77,498.72L81.79,500L84.1,502.81L86.46,503.71L87.1,503.19L87.47,501.36L85.58,499.7L85.45,499.32L86.24,499.06L86.5,498.76L85.83,498.25L83.78,498.25L83.53,497.57L84.13,497.19L85.42,497.7L87.19,497.36L87.54,496.42L87.03,494.71L87.25,493.82L86.27,492.88L85.33,491.43L84.54,491.22L84.44,490.88L83.81,490.49L83.18,488.88L82.67,488.88L81.51,487.85L80.87,486.79L80.72,484.61L79.61,483.67L78.35,483.67L78.85,482.91L78.79,481.88L76.74,478L76.52,477.02L76.93,474.55L77.81,472.25L78.13,469.86L78.73,468.71L80.08,467.08L81.03,467.25L82.52,467.94L83.59,468.06L85.26,469.26L86.97,469.09L88.3,469.94L89.53,470.2L92.56,471.73L94.26,472.25L95.34,474.21L98.37,476.68L98.91,478.43L100.17,479.75L100.3,480.31L99.92,481.37L100.52,482.61L100.3,483.59L101.46,485.85L101.87,489.17L102.92,490.62z"/>
		<path id="ME-20" title="Ulcinj" class="land" d="M301.12,633.01L299.02,636.93L297.32,639.43L296.46,644.94L296.5,649.05L295.36,650.62L294.06,654.43L294.25,656.51L294.03,658.33L295.01,661.17L294.6,666.76L294.85,668.32L295.07,668.92L296.5,670.52L297.06,671.75L297.6,673.61L297.92,676.07L297.79,677.47L296.46,680.05L296.27,681.61L297,682.59L299.05,684.03L299.84,685.04L299.87,685.68L299.08,686.95L298.26,687.37L294.44,687.92L290.56,688.09L289.17,688.72L288.16,689.7L288.35,692.02L287.9,695.15L288.13,696.25L288.88,697.4L289.74,698.16L293.31,700.48L293.87,701.07L294.54,702.22L294.7,703.7L294.06,705.05L292.45,706.36L291.13,706.78L289.33,706.99L286.67,707.84L285.85,708.52L285.44,709.78L285.73,711.43L286.55,712.24L288.82,713.25L291.98,713.84L292.58,714.22L292.93,714.81L293.43,717.35L294,718.28L294.85,718.7L296.94,718.91L297.63,719.63L297.35,721.03L295.93,723.27L295.67,729.18L294.85,731.21L294.73,733.53L294.35,734.25L292.42,734.88L291.6,734.76L289.93,732.18L288.85,731L284.78,728.67L283.93,727.62L281.94,724.03L279.06,721.15L277.77,720.27L272.65,717.31L266.05,714.35L261.79,712.07L256.42,710.25L254.75,710L253.33,709.49L252.85,709.53L252.41,709.87L252.19,711.05L251.65,710.93L250.33,709.32L247.36,706.78L245.15,705.94L243.54,704.88L242.12,705.01L242.24,704.03L242.08,703.7L240.98,703.99L240.73,703.32L240.19,703.15L239.68,702.55L239.02,702.77L238.3,702.51L237.63,701.96L237.03,702.17L236.12,701.67L235.67,701.2L235.55,700.69L234.88,700.52L234.16,699.76L233.53,699.81L232.64,698.62L231.54,698.49L230.81,697.9L230.56,697.4L227.31,694.6L226.86,693.8L226.14,693.72L224.97,692.78L224.37,690.88L226.99,691.3L228.85,692.11L229.33,692.02L229.74,691.18L228.22,688.81L226.23,687.71L225.25,685.8L223.52,685L222.82,684.32L222.13,682.29L221.34,681.53L221.34,681.11L222.22,679.46L223.01,679.16L224.72,679.54L225.51,678.57L225.47,677.81L224.97,676.79L223.61,675.69L222.32,675.31L222.6,674.63L224.08,674L223.39,672.68L223.48,671.92L223.86,671.2L222.57,669.72L222.44,669.04L223.48,667.22L223.96,667.05L223.88,666.4L224.59,666.3L224.59,666.3L228.84,665.74L234.47,665.74L238.81,668.34L248.78,673.11L253.55,673.97L257.89,672.24L259.62,668.34L258.76,665.74L257.89,659.66L254.85,658.8L253.12,655.33L250.52,653.16L250.95,649.26L253.12,644.92L254.42,641.45L253.55,639.72L250.08,638.42L247.92,637.98L247.92,633.65L249.65,631.91L253.55,629.31L257.02,631.48L259.19,635.82L264.83,639.72L269.16,639.72L272.2,638.42L279.14,639.72L283.47,636.68L286.94,631.48L286.94,631.48L296.48,632.35L296.48,632.35z"/>
		<path id="ME-21" title="Žabljak" class="land" d="M185.61,134.61L186.78,136.25L185.91,141.88L187.64,150.12L188.51,160.96L193.71,160.53L196.75,165.3L203.69,164.86L210.63,165.3L215.4,159.66L227.54,159.66L240.11,173.1L247.48,176.14L252.69,177.87L256.15,180.91L264.39,184.38L267.43,190.01L275.23,195.22L280,202.59L288.68,203.89L292.15,210.83L295.61,218.63L295.61,218.63L302.99,223.84L302.99,223.84L298.65,227.31L297.78,229.91L296.48,237.28L290.41,237.71L283.04,238.58L277.4,239.88L277.4,248.99L275.47,251.05L275.47,251.05L268.3,247.25L268.3,247.25L260.93,243.78L255.72,242.92L249.65,239.88L244.88,230.77L238.38,225.14L233.61,226L228.4,227.74L223.63,227.31L217.56,221.67L211.49,213.43L203.69,213L201.09,217.33L190.68,216.03L187.64,210.83L186.34,206.93L183.31,202.16L183.31,202.16L183.31,194.35L183.31,194.35L177.67,187.85L172.9,180.91L172.9,173.1L174.2,163.13L173.33,150.56L174.64,140.58L176.24,133.25L176.24,133.25L177.25,134.71L178.36,135.36L179.46,135.49L180.54,136.31L181.07,137.3L181.39,138.69L184.04,136.79z"/>
		<path id="ME-SLK" title="Skadar Lake" class="land" d="M288.36,566.06L288.13,567.23L287.4,568.77L266.02,594.21L265.96,594.72L304.07,626.76L304.04,627.39L301.12,633.01L301.12,633.01L296.48,632.35L296.48,632.35L287.04,631.49L287.04,631.49L283.04,628.88L278.7,625.41L270.46,614.57L257.46,610.23L254.42,603.73L248.78,599.39L246.18,590.72L244.01,582.48L240.98,575.54L237.94,574.24L231.44,574.24L224.94,573.38L219.73,572.07L216.7,568.6L214.96,562.53L214.53,553.86L213.23,549.09L210.19,545.19L205.86,540.42L205.86,540.42L207.59,538.69L207.59,538.69L207.59,534.78L206.72,532.61L203.69,527.85L201.09,524.38L203.25,519.61L206.72,519.61L210.19,523.08L215.4,524.81L218.86,522.64L224.5,525.68L227.54,526.54L227.54,526.54L227.54,530.45L227.54,530.45L223.63,532.61L221.9,537.39L222.33,543.89L223.63,546.49L228.84,549.96L230.14,553L233.17,554.3L235.78,556.03L237.51,560.37L248.78,557.33L253.55,555.16L260.49,553.86L265.69,555.6L272.2,556.9L274.8,559.5L280,563.4L283.91,565.57z"/>
	</g>
</svg>