<?xml version="1.0" encoding="utf-8"?>
<!-- (c) ammap.com | SVG map of Moroco - High -->
<svg xmlns="http://www.w3.org/2000/svg" xmlns:amcharts="http://amcharts.com/ammap" xmlns:xlink="http://www.w3.org/1999/xlink" version="1.1">
	<defs>
		<style type="text/css">
			.land
			{
				fill: #CCCCCC;
				fill-opacity: 1;
				stroke:white;
				stroke-opacity: 1;
				stroke-width:0.5;
			}
		</style>

		<amcharts:ammap projection="mercator" leftLongitude="-17.107061" topLatitude="35.922390" rightLongitude="-0.995761" bottomLatitude="20.768035"></amcharts:ammap>

		<!-- All areas are listed in the line below. You can use this list in your script. -->
		<!--{id:"MA-01"},{id:"MA-02"},{id:"MA-03"},{id:"MA-04"},{id:"MA-05"},{id:"MA-06"},{id:"MA-07"},{id:"MA-08"},{id:"MA-09"},{id:"MA-10"},{id:"MA-11"},{id:"MA-12"},{id:"MA-13"},{id:"MA-15"},{id:"MA-14"},{id:"MA-16"}-->

	</defs>
	<g>
		<path id="MA-01" title="Tanger-Tétouan" class="land" d="M444.7,138.27l0.15,0.46l0.45,-0.01l0.28,1.31l1.38,0.42l-0.47,2.17l0.73,5.4l0.57,1.35l1.74,-0.12l-0.4,1.07l0.56,2.81l1.17,2.52l0.52,-0.1l0.32,0.54l0.63,-0.13l1.02,0.46l0.77,1.27l1.79,1.28l0.95,1.91l0.07,0.24l0.63,1.11l1.21,0.35l0.52,-0.19l3.37,3.94l1.16,0.62l1.14,0.15l1.32,1.54l1.44,0.84l0.46,0.58l3.81,1.54l1.26,-0.45l0.7,0.89l0.65,0.27l0.95,-0.12l2.59,0.78l1.14,-0.06l1.45,0.69l0,0l-1.09,1.26l-0.17,1.35l0.66,0.69l0.18,2.36l-0.93,2.41l-2.54,1.66l-3.84,0.68l-4.02,3.51l-0.83,0.04l-0.63,0.51l-0.75,1.3l-0.81,0.12l-1.49,0.77l-1.15,-0.05l-2.81,0.74l-1.01,-0.32l-0.63,0.42l-0.89,0l-2.48,1.17l-1.13,1.3l0,0l-2.59,-0.68l-3.25,1.39l-4.14,-0.87l-1.86,-1.07l-1.51,-2.41l-1.11,-0.59l-0.53,-0.79l-0.27,-0.09l-1.23,0.88l-1.27,-0.26l-1.62,0.07l-0.65,-0.43l-1.36,-2.03l-1.45,-0.68l-0.73,-0.82l-1.7,-0.25l-0.85,-0.99l-2.08,-0.17l-2.3,-0.9l-5.26,-0.95l-2.53,0.15l-3.63,-0.35l0,0l3.05,-9.56l0.52,-0.21l0.41,-0.69l2.43,-8.46l0.75,-1.26l0.39,-1.5l0.87,-0.81l0.89,-2.52l0.19,-1.76l0.23,-0.44l0.96,-4.72l1.27,-4.57l0.23,-0.06l-0.02,-0.63l0.86,-0.62l1.65,0.23l0.67,-0.21l1.6,0.61l0.01,0.34l0.92,0.19l1.11,-1.05l0.03,-0.91l1.02,-0.25l0.14,-0.35l0.46,0.1l0.75,-0.47l1.31,0.61l0.85,-0.43l1.1,0.26l0.67,-0.21l0.82,-0.67l0.08,0.23l0.31,-0.08l1.72,-1.93l0.51,-0.06l0.4,-0.97l0.24,0.21l0.42,-0.48h0.35l0.52,0.51l0.16,-0.29l0.92,-0.03L444.7,138.27z"/>
		<path id="MA-02" title="Gharb-Chrarda-Beni Hssen" class="land" d="M412.43,181.64l3.63,0.35l2.53,-0.15l5.26,0.95l2.3,0.9l2.08,0.17l0.85,0.99l1.7,0.25l0.73,0.82l1.45,0.68l1.36,2.03l0.65,0.43l1.62,-0.07l1.27,0.26l1.23,-0.88l0.27,0.09l0.53,0.79l1.11,0.59l1.51,2.41l1.86,1.07l4.14,0.87l3.25,-1.39l2.59,0.68l0,0l-0.45,1.49l-0.01,1.65l-0.57,2.56l0.05,0.52l0.58,0.29l-0.21,0.69l-0.44,0.37l-1.03,-0.19l-1.27,0.53l-0.2,0.89l-0.48,0.43l-0.63,0.47l-1.39,0.32l-0.27,0.5l0.03,1.09l-0.56,0.49l-1.07,0.25l-0.56,1.07l-2.52,1.51l-1.72,0.46l-0.31,0.64l0.72,0.83l-0.31,0.56l0.19,0.73l0.5,0.11l0.71,-0.42l0.52,0.24l-0.13,0.53l0,0l0,1.13l0.99,1.44l0,0l-0.5,0.45l-1.08,-0.02l-0.15,1.75l-0.83,1l-0.92,0.5l-0.25,0.58l0.75,1.04l-2.29,0.66l-1.44,1.87l-0.56,-0.18l-0.34,-0.78l0.29,-0.7L437.1,220l-0.6,-0.41l-2.31,-0.4l-1.35,0.27l-0.86,-0.27l-0.24,-0.69l0.84,-1.61l-0.49,-0.61l-1.35,-0.13l-0.49,-0.7l-1.35,-0.13l-1.37,1.04l0.08,1.19l-0.47,0.51l-0.53,0.33l-1.39,0.21l-0.37,0.33l0.42,1.09l0.76,-0.11l0.46,0.26l0.65,2.39l0,0l-2.11,-0.06l-1.86,-0.57l-1.62,-0.02l-6.97,-2.14l-6.64,0.55l-3.79,-0.94l-3.52,1.58l-0.43,-0.28l-1.58,-0.06l-0.65,-0.34l-0.73,-1.1l-1.83,0.16l-0.52,-0.97l0,0l1.23,-3.15l0.15,-0.43l5.76,-9.42l5.09,-10.4l3.31,-7.91l0.64,0.18l-0.37,1.05l0.11,0.41l0.87,0.31l0.13,0.35l0.36,-0.75l0.34,-0.1l-0.03,-0.99l-1.27,-0.41l-0.25,-0.32l-0.31,0.08L412.43,181.64z"/>
		<path id="MA-03" title="Taza-Al Hoceima-Taounate" class="land" d="M500.69,168.92l0.47,0.32l-0.44,0.49l0.27,0.17l-0.09,0.41l0.87,1.03l1.88,0.6l1.65,-0.28l0,0l0.31,1.31l-0.51,2.95l0.37,1.63l0.01,2.4l0.3,0.43l-0.14,5.57l0.54,0.3l0.08,0.85l0.39,0.17l1.69,-0.21l0.12,0.27l-0.59,0.5l0.32,0.46l2.02,-0.25l1.54,0.99l1.64,-0.21l0.43,0.48l-0.43,0.66l0.45,0.87l-0.14,1.38l-0.9,1.55l0.35,0.6l0.95,0.49l0.06,0.54l-0.59,0.28l-1.42,-0.01l-0.25,0.26l0.42,1.93l-0.14,0.64l-0.87,0.8l0.15,0.32l1.94,-0.68l0.64,0.74l0.06,0.99l0.31,0.38l1.9,0.75l0.69,-0.05l0.89,-2.97l0.78,-0.32l0.11,-1.02l1.28,0.4l1.14,-1.33l2.5,-1.43l0.58,-1.19l-0.04,-1.28l0.49,-0.32l4.83,0.08l0.81,0.46l1.34,1.79l1.23,-0.04l1.86,1.09l0.54,0.7l1.55,0.54l0.13,0.49l-0.66,1.74l1.45,0.76l0.11,0.65l-0.38,0.17l-2.08,-0.91l-2.27,1.09l0.15,1.43l-0.65,2.53l-1.35,0.09l0.22,0.96l-0.26,0.52l-0.85,0.2l-0.49,0.83l-2.38,1.18l-0.35,0.77l0.13,0.46l-0.38,0.38l0.16,0.87l0.68,0.9l1.13,1.18l1.76,1.17l0.24,4.61l1.6,1.37l0.04,0.64l-1.44,3.14l-1.01,0.65l-3.75,1.4l-0.35,0.67l-0.15,2.15l1.74,1.34l2.65,3.66l1.01,2.31l0.09,2.17l0,0l-3.39,-0.61l-1.47,-0.53l-2.76,-2.02l-3.25,-0.71l-0.57,-0.32l-1.75,-2.11l-0.89,-0.27l-0.29,-0.43l-1.03,-0.46l-0.51,-0.85l-0.5,-0.02l-0.51,0.14l-0.58,1.61l-0.97,0.58l-2.04,3.7l-1.51,1.22l-1.43,0.54l-0.31,0.73l-1.35,1.45l-1.41,0.91l-0.25,1.35l-0.39,0.21l-0.81,1.31l-3.17,1.4l-1.3,0.88l-4,0.35l-1.55,-1.96l1.34,-2.04l0.09,-0.74l-0.98,-0.59l-0.78,-0.03l-0.72,0.1l-1.36,0.94l-1.02,-1.73l0.17,-3.14l0.92,-1.52l1.98,-1.21l-0.45,-0.31l-2.51,0.12l-0.47,-0.41l-0.59,-0.06l-0.53,-2.05l-0.2,-0.21l-1.03,-0.02l-1.04,-0.74l-0.95,0.01l-2.75,2l-0.54,-0.12l-1.39,-1.12l-1.32,-0.17l-1.37,-0.6l-1.12,-1.13l0.04,-3.22l-0.12,-0.63l-0.81,-0.98l0.11,-0.69l-0.52,-0.38l-1.39,-0.08l-1.07,-0.86l-1.49,-0.09l-0.41,-0.43l-1.37,-0.3l-0.88,-1.66l0.18,-0.86l-0.27,-1.23l-0.9,0.29l-0.61,-0.1l0.15,-1.41l-0.19,-0.63l-0.54,-0.18l-0.92,0.5l-1.84,0.01l-0.02,-0.79l-0.64,-0.41l0.12,-0.43l0.98,-0.14l-0.64,-0.96l-0.46,-0.05l-0.7,0.69l-0.68,0.19l-0.24,-0.4l0.57,-0.65l-0.44,-0.74l-3.18,-0.27l-0.42,0.66l-0.4,0.03l-0.14,-0.34l0.25,-0.45l-0.4,-0.03l-1.17,0.87l-0.38,-0.11l0.05,-0.81l-0.43,-0.32l-1.83,-0.32l-1.58,0.61l-0.8,0.79l-0.86,-0.27l-0.35,0.28l-1.25,0.06l-1.79,0.69l-0.65,-0.93l-1.37,0.53l-1.59,-1.71l0,0l0.13,-0.53l-0.52,-0.24l-0.71,0.42l-0.5,-0.11l-0.19,-0.73l0.31,-0.56l-0.72,-0.83l0.31,-0.64l1.72,-0.46l2.52,-1.51l0.56,-1.07l1.07,-0.25l0.56,-0.49l-0.03,-1.09l0.27,-0.5l1.39,-0.32l0.63,-0.47l0.48,-0.43l0.2,-0.89l1.27,-0.53l1.03,0.19l0.44,-0.37l0.21,-0.69l-0.58,-0.29l-0.05,-0.52l0.57,-2.56l0.01,-1.65l0.45,-1.49l0,0l1.13,-1.3l2.48,-1.17l0.89,0l0.63,-0.42l1.01,0.32l2.81,-0.74l1.15,0.05l1.49,-0.77l0.81,-0.12l0.75,-1.3l0.63,-0.51l0.83,-0.04l4.02,-3.51l3.84,-0.68l2.54,-1.66l0.93,-2.41l-0.18,-2.36l-0.66,-0.69l0.17,-1.35l1.09,-1.26l0,0l0.98,0.33l0.84,-0.21l1.88,0.51l0.56,-0.45l0.57,-0.05l0.4,-0.45l0.95,-0.21l0.27,-0.26l1.15,-0.48l1.31,0.15l0.13,-0.26l1.88,-0.53l0.51,0.23l0.58,-0.13l3.21,-1.35l0.26,-0.39l0.39,0.17l0.71,-0.31l0.26,0.36l1.12,-0.19l1.42,-1.05L500.69,168.92z"/>
		<path id="MA-04" title="L'Oriental" class="land" d="M537.32,160.66l0.51,0.59l-0.55,0.68l0.36,0.4l-0.63,1.82l0.58,0.84l-0.14,2.66l1.41,0.99l0.15,0.41l2.81,2.93l-1.08,-0.58l-0.23,-0.59l-0.9,-0.64l-0.57,-0.88l-0.43,0.15l0.2,1.22l0.33,0.4l0.37,-0.1l0.26,0.26l-0.15,0.33l-0.32,-0.26l-0.54,0.59l0.04,0.69l0.78,1.04l0.13,0.71l0.82,0.69l2.53,1.27l2.34,0.04l0.16,-0.5l-0.19,-0.31l-1.26,-0.9l-0.2,-0.6l-0.8,-0.5l-1.25,-1.45l3.65,3.23l3.81,1.58l3.01,0.41l1.79,-0.36l1.48,-0.71l2.29,-2.03l0.05,0.35l0.52,0.22l2.56,0.59l4.75,1.75l-0.06,1.76l1.1,0.72l0.65,0.99l1.75,0.73l0.1,0.55l1.19,1.27l1.94,1.38l2.48,-0.46l0.13,2.67l2.95,1.63l0.2,1.58l1.12,0.22l1.44,0.96l0.54,-0.22l-0.07,0.54l2.65,1.42l-1.27,0.91l-0.14,1.17l-2.9,3.78l0.52,-0.07l0.87,0.59l1,1.54l0,0.47l0.84,0.79l0.1,0.58l0.42,0.17l0.2,0.63l2.32,0.99l-3.66,4.67l0.53,0.87l1.39,1.29l1.01,1.6l-0.29,3.23l2.44,6.04l-1.95,10.78l1.09,4.44l-2.21,1.7l-0.33,1.59l1.01,0.56l0.16,0.44l2.03,-0.19l0.86,2.33l1.21,0.73l0.13,0.45l-0.26,1.32l0.31,0.09l-0.01,0.34l-0.36,0.43l0.58,1.22l-1.23,1.75l-0.16,2l-0.29,0.71l-0.49,0.35l-0.69,2l0.09,3.47l-0.32,1.07l1.43,2.43l1.14,0.95l1,2.54l1.58,1.87l0.76,0.61l1.02,0.35l0.63,0.75l0.36,1.23l-0.57,0.92l0.17,0.81l-0.52,1.28l-0.4,0.37l-0.54,-0.11l-1.26,0.53l6.14,9.82l4.22,1.97l10.29,7.92l0.07,0.29l-1.84,1.62l-0.8,1.2l-1.36,0.81l-0.71,0.78l-1.12,-0.16l-1.82,0.64l-0.39,0.53l-0.53,2.11l-1.01,0.79l0.53,0.76l-0.43,2.64l0.18,2.04l-2.21,1.72l0.48,0.36l2.73,-0.74l1.29,0.55l0.41,1.23l0.61,0.33l-0.02,0.79l-1.15,0.36l-0.72,0.79l-1.88,0.38l-0.65,-0.45l-2.06,0.18l-1.33,-0.4l-0.78,0.23l-1.56,-0.08l-2.28,-0.31l-0.81,-0.39l-2.87,0.52l-4,-1.05l-1.09,0.07l-4.24,-1.42l-1.84,-0.04l-0.91,-0.69l-0.86,0l-0.23,0.5l-0.67,-0.33l-0.92,0.05l-0.76,-0.75l-1,-0.36l-3.32,1.28l-2.63,0.49l-0.71,-0.02l-3.32,-1.14l-0.97,0.55l-6.1,-0.15l-3.15,0.65l-2.03,1.44l-2.41,-0.22l-2.47,0.31l-3.47,-0.2l-2.33,0.19l-1.16,-0.43l-0.75,1.14l-0.34,2.87l1.77,2.96l0.19,1.4l1.34,2.23l0.2,1.15l-0.19,0.97l0.85,0.98l-0.06,0.67l-6.4,1.51l0.02,0.26l-10,2.16l0,0l-1.27,-8.51l-0.08,-2.48l0.5,-4.2l1.56,-3.04l-0.34,-1.13l-1.35,-0.42l-6.62,-1.04l-3.59,-0.36l-2.79,0.49l-1.43,-0.14l-0.62,-0.37l-0.07,-0.69l0.68,-1.46l-0.66,-0.84l-1.36,-0.4l-1.2,-1.15l-0.75,-0.29l-1.84,0.01l-0.99,-0.47l-0.84,-3.88l-4.42,-9l-1.26,-1.52l-1.32,-0.58l0,0l-0.16,-0.74l2.09,-3.29l2.23,-2.44l3.34,-6.38l1.95,-3.09l2.99,-2.98l1.92,-1.14l4.79,-0.51l3.92,0.05l3.61,0.57l2.74,-0.12l2.26,-0.49l4.28,-1.75l1.71,-0.29l2.41,-0.86l0.83,-1.24l0.32,-1.85l-0.55,-1.54l-3.01,-3.58l-1.54,-2.58l-2.68,-2.44l-2.45,-1.53l-0.74,-1.49l0.01,-0.93l0.93,-2.09l2.5,-2.73l1.09,-1.71l0.76,-2.94l0,0l-0.09,-2.17l-1.01,-2.31l-2.65,-3.66l-1.74,-1.34l0.15,-2.15l0.35,-0.67l3.75,-1.4l1.01,-0.65l1.44,-3.14l-0.04,-0.64l-1.6,-1.37l-0.24,-4.61l-1.76,-1.17l-1.13,-1.18l-0.68,-0.9l-0.16,-0.87l0.38,-0.38l-0.13,-0.46l0.35,-0.77l2.38,-1.18l0.49,-0.83l0.85,-0.2l0.26,-0.52l-0.22,-0.96l1.35,-0.09l0.65,-2.53l-0.15,-1.43l2.27,-1.09l2.08,0.91l0.38,-0.17l-0.11,-0.65l-1.45,-0.76l0.66,-1.74l-0.13,-0.49l-1.55,-0.54l-0.54,-0.7l-1.86,-1.09l-1.23,0.04l-1.34,-1.79l-0.81,-0.46l-4.83,-0.08l-0.49,0.32l0.04,1.28l-0.58,1.19l-2.5,1.43l-1.14,1.33l-1.28,-0.4l-0.11,1.02l-0.78,0.32l-0.89,2.97l-0.69,0.05l-1.9,-0.75l-0.31,-0.38l-0.06,-0.99l-0.64,-0.74l-1.94,0.68l-0.15,-0.32l0.87,-0.8l0.14,-0.64l-0.42,-1.93l0.25,-0.26l1.42,0.01l0.59,-0.28l-0.06,-0.54l-0.95,-0.49l-0.35,-0.6l0.9,-1.55l0.14,-1.38l-0.45,-0.87l0.43,-0.66l-0.43,-0.48l-1.64,0.21l-1.54,-0.99l-2.02,0.25l-0.32,-0.46l0.59,-0.5l-0.12,-0.27l-1.69,0.21l-0.39,-0.17l-0.08,-0.85l-0.54,-0.3l0.14,-5.57l-0.3,-0.43l-0.01,-2.4l-0.37,-1.63l0.51,-2.95l-0.31,-1.31l0,0l1.29,-0.89l0.81,-2.44l1.59,-0.63l1.15,0.1l0.44,0.8l2.88,1.96l2.07,0.44l1.73,0.85l1.48,-0.33l0.9,0.63l3.42,0.32l1.27,-0.89l1.74,-0.37l0.76,-0.48l0.43,0.08l0.34,-0.28l0.96,0.21l1.37,-1.35l0.87,-1.52l1.09,0.62l1.5,-1.06l2.04,-3.83l0.05,-0.82l0.05,-0.3l0.54,-0.75l0.06,-0.83L537.32,160.66z"/>
		<path id="MA-05" title="Fès-Boulemane" class="land" d="M443.55,212.11L445.15,213.82L446.51,213.29L447.16,214.22L448.96,213.53L450.2,213.47L450.55,213.19L451.41,213.46L452.21,212.67L453.79,212.06L455.62,212.37L456.05,212.7L456.01,213.51L456.38,213.62L457.55,212.75L457.95,212.79L457.71,213.24L457.84,213.58L458.25,213.54L458.67,212.89L461.85,213.16L462.29,213.9L461.72,214.55L461.96,214.95L462.64,214.76L463.34,214.07L463.8,214.13L464.45,215.08L463.47,215.22L463.35,215.66L463.99,216.07L464.01,216.86L465.84,216.85L466.77,216.35L467.31,216.54L467.5,217.17L467.35,218.58L467.96,218.68L468.85,218.39L469.13,219.62L468.95,220.47L469.83,222.13L471.2,222.43L471.61,222.86L473.1,222.94L474.16,223.81L475.55,223.89L476.07,224.27L475.96,224.96L476.76,225.94L476.88,226.57L476.85,229.79L477.96,230.92L479.33,231.52L480.65,231.69L482.04,232.81L482.58,232.93L485.33,230.93L486.27,230.92L487.32,231.66L488.35,231.68L488.55,231.89L489.07,233.94L489.66,234L490.13,234.41L492.63,234.3L493.08,234.6L491.1,235.82L490.18,237.34L490,240.48L491.02,242.21L492.39,241.26L493.1,241.17L493.88,241.19L494.86,241.79L494.77,242.53L493.42,244.57L494.97,246.52L498.97,246.18L500.27,245.3L503.43,243.9L504.25,242.59L504.63,242.38L504.88,241.02L506.29,240.11L507.63,238.66L507.94,237.92L509.37,237.39L510.88,236.17L512.92,232.47L513.9,231.89L514.48,230.28L514.99,230.14L515.5,230.16L516,231.01L517.04,231.47L517.33,231.9L518.22,232.17L519.97,234.28L520.54,234.6L523.79,235.31L526.55,237.33L528.02,237.86L531.41,238.47L531.41,238.47L530.65,241.41L529.56,243.13L527.07,245.85L526.14,247.94L526.13,248.88L526.86,250.37L529.31,251.89L531.99,254.33L533.53,256.91L536.54,260.49L537.09,262.03L536.77,263.88L535.94,265.12L533.54,265.98L531.83,266.27L527.54,268.02L525.29,268.51L522.55,268.64L518.94,268.06L515.02,268.01L510.23,268.53L508.31,269.67L505.32,272.65L503.37,275.74L500.03,282.12L497.8,284.56L495.71,287.85L495.87,288.59L495.87,288.59L494.51,289.14L493.4,289.21L490.63,289.16L489.22,288.8L488.12,289.02L487.21,288.7L486.9,288.14L486.78,284.97L483.3,281.46L481.76,280.48L480.82,278.44L480.2,277.75L479.64,277.38L477.1,277.17L472.51,277.86L470.8,277.16L469.3,276L468.94,275.11L469.05,274.04L469.53,273.29L469.66,272.47L466.13,268.48L464.16,262.18L462.79,259.05L460.46,256.98L459.75,255.6L459.63,254.71L459.88,253.93L463.78,248.28L464.08,247.26L463.83,245.79L462.21,244.07L460.05,242.32L456.4,241.82L455.54,241.28L455.13,240.42L455.11,239.41L456.86,234.83L456.63,232.56L455.35,230.52L454.46,230L453.64,226.9L451.41,226.27L450.26,226.31L449.71,225.65L449.06,224.08L448.58,223.69L447.58,223.48L446.34,224.08L445.8,223.9L445.42,221.73L445.62,218.73L445.41,216.62L445,215.17L444.55,214.69L444.55,214.69L443.56,213.25z"/>
		<path id="MA-06" title="Meknès-Tafilalet" class="land" d="M444.55,214.69L445,215.17L445.41,216.62L445.62,218.73L445.42,221.73L445.8,223.9L446.34,224.08L447.58,223.48L448.58,223.69L449.06,224.08L449.71,225.65L450.26,226.31L451.41,226.27L453.64,226.9L454.46,230L455.35,230.52L456.63,232.56L456.86,234.83L455.11,239.41L455.13,240.42L455.54,241.28L456.4,241.82L460.05,242.32L462.21,244.07L463.83,245.79L464.08,247.26L463.78,248.28L459.88,253.93L459.63,254.71L459.75,255.6L460.46,256.98L462.79,259.05L464.16,262.18L466.13,268.48L469.66,272.47L469.53,273.29L469.05,274.04L468.94,275.11L469.3,276L470.8,277.16L472.51,277.86L477.1,277.17L479.64,277.38L480.2,277.75L480.82,278.44L481.76,280.48L483.3,281.46L486.78,284.97L486.9,288.14L487.21,288.7L488.12,289.02L489.22,288.8L490.63,289.16L493.4,289.21L494.51,289.14L495.87,288.59L495.87,288.59L497.18,289.17L498.45,290.69L502.87,299.68L503.7,303.56L504.69,304.03L506.53,304.02L507.28,304.32L508.48,305.46L509.84,305.87L510.5,306.71L509.82,308.16L509.9,308.85L510.52,309.23L511.95,309.37L514.74,308.87L518.33,309.23L524.95,310.27L526.3,310.69L526.64,311.82L525.09,314.86L524.58,319.05L524.67,321.53L525.94,330.04L525.94,330.04L510.7,333.44L510.7,343.73L511.37,344.07L510.85,344.78L510.39,344.46L510.14,345.1L508.92,345.48L508.86,346.01L508.5,346.36L508.01,346.29L507.8,345.63L507.49,345.53L507.16,346.16L507.3,346.46L506.91,346.72L506.98,347.76L506.11,348.55L506.24,348.82L506.52,348.59L506.72,349.19L507.21,349.01L507.13,349.84L506.2,350.49L506.33,350.79L505.91,351.05L506.22,351.69L506.61,351.63L506.83,353.34L507.11,353.53L506.44,354.96L506.61,356.19L507.07,355.93L507.79,355.97L508.2,356.31L508.46,355.51L508.07,355.03L508.96,354.67L508.83,354.16L509.28,353.71L509.57,354.11L510.08,354.19L510.44,354.8L510.5,356.19L510.14,357.66L510.63,357.5L510.7,356.96L511.46,357.36L511.77,357.08L511.48,356.62L511.46,355.74L511.2,355.55L511.69,355.23L511.76,356.57L512.03,356.78L512.55,356.21L512.49,357.1L512.96,357.27L513.04,358.23L513.48,358.2L513.46,358.91L514.15,359.58L514.22,359.2L514.71,359.31L514.63,358.8L514.97,358.66L514.87,359.7L515.12,360.08L515.36,359.78L515.52,362.64L515.11,363.09L515.4,363.12L515.42,363.46L514.78,363.76L514.96,364.18L514.73,364.12L514.69,364.6L514.1,364.39L514.09,364.9L513.67,365.04L513.81,365.54L513.41,366.13L512.98,366.12L512.56,367.4L512.24,367.44L511.91,367.29L511.25,368.22L511.1,369.98L510.71,370.33L510.95,371.67L511.48,371.45L512.09,371.79L512.56,373.21L512.05,373.48L511.62,374.57L503.88,377.86L498.12,379.4L492.39,379.73L485.76,382.21L474.88,393L462.38,399.22L455.46,405.07L455.46,405.07L454.14,401.25L453.62,400.97L452.62,399.59L452.26,397.74L451.76,396.78L452,393.47L451.9,387.95L452.33,385.69L452.3,378.48L450.41,375.89L450.22,375.01L449.1,373.61L447.08,370.09L446.37,366.7L446.29,365.37L447.43,359.79L448.29,353.12L449.88,349.4L450.8,346.04L450.98,343.41L450.72,342.05L450.25,340.97L449.11,339.69L448.17,339.09L445.21,338.18L442.45,336.49L441.46,334.66L440.86,334.18L435.56,332.73L432.84,333.37L430.11,332.98L429.63,332.49L430.08,331.11L438.75,321.93L439.76,319.81L439.32,319.23L434.12,315.68L433.18,315.63L430.68,317.41L429.18,317.78L429.18,317.78L429.45,317.03L429.1,315.7L428.25,315.41L427.91,314.67L428.17,314.04L429.03,313.66L428.83,312.11L429.82,311.42L429.85,309.87L430.7,309.05L432.07,308.98L432.82,308.27L433.39,307.53L433.59,306.22L433.87,305.92L434.76,305.48L437.08,305.04L439,305.5L439.63,305.06L439.83,303.96L438.84,303.12L439.72,301.11L439.26,300.29L439.94,299.27L440.06,298.21L440.9,296.98L439.94,294.77L438.55,292.78L438.15,291.32L435.91,291.11L435.57,290.55L433.98,289.44L432.85,289.24L431.58,290.31L430.59,290.24L430.09,287.65L429.7,286.86L428.92,286.46L428.09,285.38L427.32,285.54L426.67,285.22L426.01,283.84L424.31,282.85L421.97,283.22L421.53,283.04L421.53,283.04L421.2,282.41L421.4,281.14L421.06,280.64L421.14,280.27L421.94,279.76L420.58,277.94L420.33,276.68L419.59,276.39L417.82,277.17L417.17,277.18L416.6,276.7L416.69,275L418.39,274.64L419.04,274.16L419.11,273.5L418.76,273.06L417.09,272.34L416.76,270.69L414.62,269.66L412.86,267.95L411.35,267.45L410.91,266.25L407.18,264.98L406.82,264.31L406.93,263.55L407.36,262.75L408.07,262.22L408.2,261.5L408.2,261.5L407.23,259.61L408,257.84L407.59,257.15L408.09,255.36L408.66,254.88L410.97,254.35L412,254.33L413.17,255.05L413.72,254.93L414.27,254.29L414.8,254.57L415.23,255.48L415.66,255.67L416.58,255.54L416.89,255.83L416.88,256.64L417.21,257.08L417.34,259.27L417.89,260.04L419.41,260.2L419.83,260.76L420.56,260.89L421.33,260.51L422.84,258.77L424.28,258.31L429.02,259.7L429.9,259.38L430.61,258.03L430.67,256.75L430.08,255.15L429.95,251.76L430.36,246.83L431.08,244.07L431.63,238.42L431.54,236.69L431.1,236L430.1,235.36L429.82,234.69L429.76,233.82L430.13,232.79L429.51,232.51L428.73,232.76L428.49,232.24L428.51,231.28L430.56,229.34L430.22,227.63L427.76,225.59L427.27,224.86L427.13,222.57L427.13,222.57L426.49,220.17L426.03,219.91L425.27,220.03L424.85,218.94L425.21,218.61L426.61,218.4L427.14,218.07L427.62,217.56L427.54,216.37L428.91,215.33L430.25,215.45L430.75,216.15L432.09,216.28L432.58,216.89L431.75,218.51L431.98,219.2L432.84,219.46L434.19,219.2L436.5,219.59L437.1,220L437.25,220.86L436.96,221.56L437.3,222.34L437.86,222.52L439.3,220.65L441.59,219.98L440.84,218.95L441.08,218.37L442,217.87L442.83,216.86L442.98,215.11L444.06,215.13z"/>
		<path id="MA-07" title="Rabat-Salé-Zemmour-Zaer" class="land" d="M394.89,218.37l0.52,0.97l1.83,-0.16l0.73,1.1l0.65,0.34l1.58,0.06l0.43,0.28l3.52,-1.58l3.79,0.94l6.64,-0.55l6.97,2.14l1.62,0.02l1.86,0.57l2.11,0.06l0,0l0.14,2.29l0.49,0.74l2.46,2.04l0.34,1.71l-2.05,1.94l-0.02,0.96l0.24,0.52l0.78,-0.26l0.62,0.28l-0.38,1.03l0.07,0.87l0.28,0.67l0.99,0.64l0.45,0.69l0.09,1.72l-0.55,5.65l-0.72,2.77l-0.41,4.92l0.13,3.39l0.6,1.6l-0.07,1.28l-0.71,1.35l-0.88,0.32l-4.74,-1.38l-1.44,0.46l-1.5,1.74l-0.78,0.38l-0.73,-0.13l-0.43,-0.56l-1.52,-0.16l-0.55,-0.77l-0.14,-2.19l-0.33,-0.44l0.01,-0.81l-0.31,-0.29l-0.92,0.14l-0.43,-0.19l-0.42,-0.91l-0.54,-0.27l-0.55,0.64l-0.54,0.12l-1.18,-0.71l-1.02,0.01l-2.32,0.54l-0.57,0.47l-0.5,1.8l0.41,0.69l-0.77,1.77l0.98,1.89l0,0l-2.22,1.22l-0.79,-0.05l-1.57,1.02l-1.02,1.85l-0.53,0.33l-1.62,-2.26l-1.51,-1.06l-2.98,0.23l-0.83,0.31l-1.82,-0.83l-1.36,0.68l-2.12,-0.99l0.45,-1.16l-0.42,-2.81l0.13,-0.64l0.95,-1.22l0.22,-1.2l-1.26,-1.76l-0.47,-1.24l-0.05,-1.04l2.39,-3.64l0.35,-1.68l-0.98,-0.09l-0.57,0.39l-2.74,0.16l-0.37,-0.64l-0.73,-0.33l-0.78,-1.26l-1.37,-0.6l-0.6,0l-0.04,0.4l-0.55,-0.03l0.34,-1.12l-1.18,-2l-0.03,-1.99l-0.33,-1.2l-0.88,-1.5l-1.69,-0.13l-0.51,-0.92l0,0l2.3,-1.9l0.41,0.1l0.97,-0.4l1.04,-0.85l-0.03,-0.25l0.84,-0.32l0.11,-0.43l0.56,-0.19l0.29,-0.54l1.58,-1.37l2.88,-3.47l1.98,-2.21L394.89,218.37z"/>
		<path id="MA-08" title="Grand Casablanca" class="land" d="M370.62,239.79l0.03,0l0,0L370.62,239.79zM368.86,239.64l0.15,0.62h0.58l0.17,-0.05l0.45,-0.08l0.43,-0.34l0,0l0.02,0.6l-0.98,1.1l0.48,1.04l-1.43,0.37l0.28,0.4l-0.5,1.06l0.22,0.22l-0.18,0.95l0.57,0.58l-0.44,1.2l0.36,1.07l0.68,0.42l0.28,1.22l-0.4,0.19l-0.49,-0.24l-0.27,0.52l-0.74,0.26l0.52,1.11l-1.75,0.23l-0.07,0.53l-1,0.19l-1.96,1.6l-0.43,1.75l-0.91,1.66l-0.85,0.05l-0.51,-0.27l-0.63,-2.24l1.3,-0.71l2.09,-0.64l-0.19,-0.14l-1.69,-0.66l-1.3,-0.09l-0.7,0.47l-0.56,-0.69l-1.69,0.73l-0.17,-0.93l-1.13,-0.47l-0.43,-0.65l-0.78,0.28l-0.42,-0.33l-0.73,0.31l-0.66,-0.67l-0.6,0.14l-0.75,-0.27l-1.12,0.46l-0.86,-0.88l-0.2,-0.82l0,0l2.41,-1.44l0.3,-0.42l0.24,0.47l0.61,-0.01l0.3,-0.21l0.11,-0.04l1.35,-0.69l1.7,-1.03l0.2,-0.62l0.4,0.1l0.54,-0.6l0.62,-0.14l0.41,-0.67l0.39,0.49l0.34,-0.28l0.62,0.15l0.05,-0.01l0.39,0.18v-0.24l0.07,-0.11l0.35,0.42l0.01,-0.5l0.37,0.37l1.18,-0.69l1.21,-0.24l3,-2.46l0.15,-0.25l0.88,-0.61L368.86,239.64z"/>
		<path id="MA-09" title="Chaouia-Ouardigha" class="land" d="M379.12,234.7l0.51,0.92l1.69,0.13l0.88,1.5l0.33,1.2l0.03,1.99l1.18,2l-0.34,1.12l0.55,0.03l0.04,-0.4l0.6,0l1.37,0.6l0.78,1.26l0.73,0.33l0.37,0.64l2.74,-0.16l0.57,-0.39l0.98,0.09l-0.35,1.68l-2.39,3.64l0.05,1.04l0.47,1.24l1.26,1.76l-0.22,1.2l-0.95,1.22l-0.13,0.64l0.42,2.81l-0.45,1.16l2.12,0.99l1.36,-0.68l1.82,0.83l0.83,-0.31l2.98,-0.23l1.51,1.06l1.62,2.26l0.53,-0.33l1.02,-1.85l1.57,-1.02l0.79,0.05l2.22,-1.22l0,0l-0.13,0.72l-0.71,0.53l-0.43,0.8l-0.11,0.76l0.37,0.66l3.72,1.27l0.44,1.2l1.51,0.51l1.76,1.71l2.14,1.03l0.33,1.65l1.67,0.72l0.35,0.44l-0.07,0.66l-0.65,0.49l-1.7,0.35l-0.09,1.71l0.57,0.48l0.64,-0.01l1.77,-0.78l0.74,0.3l0.25,1.26l1.36,1.82l-0.79,0.51l-0.09,0.37l0.34,0.5l-0.2,1.27l0.34,0.63l0,0l-0.98,0.88l-0.51,0.98l-1.4,0.85l-3.76,0.38l-2.78,1.07l-4.05,0.09l-0.72,-0.21l-2.11,0.21l-1.54,-0.71l-2.13,-0.4l-1.93,0.34l-0.58,0.59l-0.52,0.12l-0.23,0.39l0.49,0.5l-0.17,0.49l-1.75,-0.19l-1.07,-0.56l-1.9,-0.07l-1.22,-0.56l-0.41,0.08l-0.31,0.62l-1.57,0.2l-1.25,1.11l-1.82,0.66l-0.85,0l-0.84,-0.93l-0.88,-0.25l0.16,0.52l-0.44,1.21l-0.25,4.05l-1.78,4.82l-2.14,2.2l0,0l-0.55,-0.79l-1.46,-0.16l-0.7,-1.03l-1.13,-0.39l-1.3,-1.15l-2.42,-0.28l-1.71,-2.4l-2.92,0.15l-1.12,0.62l-0.5,-0.39l-0.37,0.25l0.04,0.82l-1.74,1.09l-1.26,0.11l-0.81,-0.55l-0.31,0.47l-0.37,0l-1.08,-1.78l-1.02,-2.56l-0.52,-0.84l-1.06,-0.41l-1.39,-3.22l-0.54,-0.66l-0.58,-0.39l-1.27,-0.16l-1.06,-0.92l-3.5,-1.08l-0.19,-1.13l-1.65,-2.36l-0.61,-1.73l-0.83,-0.03l0,0l0.57,-0.59l-0.04,-0.19l-0.81,-0.02l0.06,-0.45l0.75,-0.42l-0.21,-0.21l-0.75,-0.18l-0.83,0.68l-1,0.02l1.04,-0.89l-0.84,-0.47l0.18,-1.32l0.35,-0.39l-0.94,-0.86l0.75,-0.35l-0.19,-0.45l-0.65,-0.35l0.58,-0.39l-0.15,-0.58l0.58,-0.56l-0.55,-0.68l0.19,-0.27l0.61,0.02l0.02,-0.31l-0.76,-0.87l0.32,-2.11l-0.19,-0.25l-0.69,0.38l-0.33,-0.19l0.41,-0.62l-1.03,-0.78l-0.07,-0.83l-0.54,-0.12l-0.21,0.37l-0.23,-0.06l0,-0.35l-0.5,-0.49l0.06,-0.35l0.9,-0.15l0.66,-1.16l0.2,-1.12l0.67,-0.31l0.92,0.29l1.38,-0.11l0.56,-0.83l-0.9,-0.43l1.59,-0.67l1.21,-1.64l-1.07,-0.39l-0.17,-0.97l-0.46,0.15l-0.3,-0.39l1.15,-0.79l-0.65,-0.66l0.81,-1.31l-0.49,-0.35l-0.17,-0.78l-1.48,-1.95l0,0l1.59,-0.88l1.13,-0.14l1.54,-0.74l0,0l0.2,0.82l0.86,0.88l1.12,-0.46l0.75,0.27l0.6,-0.14l0.66,0.67l0.73,-0.31l0.42,0.33l0.78,-0.28l0.43,0.65l1.13,0.47l0.17,0.93l1.69,-0.73l0.56,0.69l0.7,-0.47l1.3,0.09l1.69,0.66l0.19,0.14l-2.09,0.64l-1.3,0.71l0.63,2.24l0.51,0.27l0.85,-0.05l0.91,-1.66l0.43,-1.75l1.96,-1.6l1,-0.19l0.07,-0.53l1.75,-0.23l-0.52,-1.11l0.74,-0.26l0.27,-0.52l0.49,0.24l0.4,-0.19l-0.28,-1.22l-0.68,-0.42l-0.36,-1.07l0.44,-1.2l-0.57,-0.58l0.18,-0.95l-0.22,-0.22l0.5,-1.06l-0.28,-0.4l1.43,-0.37l-0.48,-1.04l0.98,-1.1l-0.02,-0.6l0,0l0,0l0,0l-0.03,0l0,0v-0.17l0.18,-0.06l0.13,-0.35l1.03,-0.57l1.87,-1.77l0.71,-0.24l0.34,-0.43l0.39,0.01l-0.01,-0.34l1.66,-0.06l0.55,-0.48l0.37,-0.03l0.59,-0.54l0.31,0.34L379.12,234.7z"/>
		<path id="MA-10" title="Doukhala-Abda" class="land" d="M345.68,251.56l1.48,1.95l0.17,0.78l0.49,0.35l-0.81,1.31l0.65,0.66l-1.15,0.79l0.3,0.39l0.46,-0.15l0.17,0.97l1.07,0.39l-1.21,1.64l-1.59,0.67l0.9,0.43l-0.56,0.83l-1.38,0.11l-0.92,-0.29l-0.67,0.31l-0.2,1.12l-0.66,1.16l-0.9,0.15l-0.06,0.35l0.5,0.49l0,0.35l0.23,0.06l0.21,-0.37l0.54,0.12l0.07,0.83l1.03,0.78l-0.41,0.62l0.33,0.19l0.69,-0.38l0.19,0.25l-0.32,2.11l0.76,0.87l-0.02,0.31l-0.61,-0.02l-0.19,0.27l0.55,0.68l-0.58,0.56l0.15,0.58l-0.58,0.39l0.65,0.35l0.19,0.45l-0.75,0.35l0.94,0.86l-0.35,0.39l-0.18,1.32l0.84,0.47l-1.04,0.89l1,-0.02l0.83,-0.68l0.75,0.18l0.21,0.21l-0.75,0.42l-0.06,0.45l0.81,0.02l0.04,0.19l-0.57,0.59l0,0l-0.78,0.24l-0.91,1.03l-0.22,1.13l0.46,1.09l-0.33,0.41l0,0.72l-1.39,1.08l0.25,0.47l-0.25,0.74l1.07,1.64l0.21,1.11l-0.26,1.28l-0.23,0.21l-0.44,-0.2l-1.34,1.92l-0.97,0.7l-0.56,0.83l-1.14,0.52l-0.52,0.62l-2.37,0.04l-0.62,0.52l0.03,1.54l-0.23,0.35l-1.66,-0.01l-1.12,0.48l-0.8,1.3l-2.93,0.94l-0.29,1.47l0.13,0.92l1.18,2.91l1.61,2.22l1.52,1.34l1.31,0.24l2.3,1.27l1.54,1.3l0.15,0.65l-0.05,0.8l-0.48,-0.68l-0.64,-0.1l-0.15,1.97l-1.42,0.85l-1.66,1.47l-1.41,2.53l-0.24,1.51l-0.92,1.17l-0.16,0.68L329.9,326l0.7,2.34l0.62,0.14l1.23,1.69l-1.11,0.42l-0.51,-0.1l-1.26,-0.91l-2.75,1.17l-1.98,-0.66l-0.73,-1.2l-1.12,-0.66l-3.19,0.48l-0.61,0.33l-0.93,-0.48l-0.51,0.11l-0.77,1.01l-0.29,0.08l-0.36,-0.61l-0.53,0.82l-0.43,-0.08l-1.33,-1.17l-1.02,0.4l-0.5,-0.38l0.03,-0.84l-2.28,-0.53l-0.29,-0.71l-2.07,-1.18l-0.55,-2.47l-0.63,-1.16l-1.97,-0.69l-4.96,-0.47l-2.66,0.44l-2.07,-0.19l-3.65,-1.32l0,0l2.99,-3.5l0.42,-0.36l0.06,-0.12l0.15,-0.63l-0.25,0.02l0.63,-0.84l0.26,-2.1l2.31,-2.79l0.32,-1.15l0.05,-1.02l-0.54,-1.27l0.82,-2.15l-0.06,-0.29l-0.18,-0.55l-1.15,-0.47l-0.37,-1.54l0.19,-0.6l1.41,-1.75l0.65,-2.68l-1.18,-1.25l-0.36,-1.11l-0.53,-0.65l6.3,-5.37l2.91,-3.46l0.18,0.25l0.37,-0.49l-0.44,0.11l5.31,-4.39l4.18,-4.62l0.4,-0.63l0.88,-0.93h0.45l0.32,-0.64l-0.29,0.09l-0.04,0.39l-0.52,0.05l1.58,-1.89l0.59,-0.31l0.03,-0.33l0.79,-1.37l1.9,-2.14l0.12,-0.3l0.13,-0.29l0.14,-0.38l-0.88,0.41l0.43,-0.45l0.74,-0.21l-0.65,-0.99l0.17,-0.43l1.48,-1.69l1.19,-0.64l-0.13,-0.41l0.48,-0.63l1.36,-0.96l0.36,0.1l0.22,0.36l-0.2,0.23l0.43,0.35l1.66,-0.31l1.88,-1.12l1.67,-1.58l0.62,-0.28l1.25,-2.14l3.42,-0.89l1.19,-0.86l1.95,-0.4L345.68,251.56z"/>
		<path id="MA-11" title="Marrakech-Tensift-Al Haouz" class="land" d="M346.36,280.61l0.83,0.03l0.61,1.73l1.65,2.36l0.19,1.13l3.5,1.08l1.06,0.92l1.27,0.16l0.58,0.39l0.54,0.66l1.39,3.22l1.06,0.41l0.52,0.84l1.02,2.56l1.08,1.78l0.37,0l0.31,-0.47l0.81,0.55l1.26,-0.11l1.74,-1.09l-0.04,-0.82l0.37,-0.25l0.5,0.39l1.12,-0.62l2.92,-0.15l1.71,2.4l2.42,0.28l1.3,1.15l1.13,0.39l0.7,1.03l1.46,0.16l0.55,0.79l0,0l0.06,2.49l-0.38,1.41l0.77,3.52l-0.4,1.6l0.44,3.85l1.1,1.84l1.29,0.55l0.44,1.74l-0.87,0.96l-0.11,0.67l0.45,0.53l-0.15,0.78l1.92,2.35l-0.31,0.45l-0.84,0.1l-0.19,0.71l0.38,1.59l-0.64,0.59l-1.8,-0.29l-2.47,0.57l-1.52,-0.83l-1.01,-0.06l-0.86,0.16l-1.13,0.68l-0.62,0.86l-0.01,2.83l0.35,0.69l1.56,0.93l-0.25,1.57l0.68,0.41l0.41,-0.31l1.95,-0.37l0.74,0.14l0.22,0.85l-0.13,1.43l-1.22,3.46l-0.15,1.26l0.08,1.34l0.43,1.24l0,0l-2.25,0.67l-0.98,0.65l-1.99,2.75l-2.52,0.56l-3.5,0.19l-1.86,0.9l-3.09,3.24l-1.02,0.63l-1.45,0.39l-2.23,0.03l-2.15,1.05l-3.13,2.94l-2.7,1.46l-0.16,0.29l0.35,0.57l-0.28,1.18l-3.18,2.8l-2.57,1.5l-0.51,-0.14l0.14,-1.42l-1.21,-1l-3.18,1.5l-1.34,0.37l-3.94,0.67l-1.82,-0.47l-0.82,0.21l-1.26,1.31l-6.17,-0.15l-1.12,0.25l-1.32,1.25l-1.34,0.16l-0.99,-3.58l-0.72,-0.74l-1.51,-0.39l-0.4,-0.97l-0.66,-0.15l-0.8,0.07l-1.49,1.76l-1.07,0.74l-4.12,1.83l-0.9,1.51l-0.95,0.46l-3.47,-0.53l-1.98,0.87l-1.89,0.04l-1.19,0.72l-2.08,-0.22l-0.89,-0.8l-2.5,0.27l-0.68,0.47l-1.03,0.15l-1.31,-0.71l-1.27,-0.29l-0.17,-0.26l0.27,-1.03l-0.39,-0.28l-1.39,1.99l-1.09,0.5l-1.93,-0.81l-0.89,0.3l-2.07,-0.07l0.16,-0.27l-0.86,-2.24l-2.85,-2.88l0,0l-0.25,-0.55l0.11,-0.61l0.61,-1.3l-0.36,-0.85l-0.03,-1.25l-0.25,-0.18l0.32,-1.48l-0.97,-0.58l0.32,-0.79l-0.2,-0.66l0.37,-0.88l-0.12,-0.32l0.67,-1.19l-0.29,-0.33l0.07,-1.68l0.89,-1.95l0.14,-1.76l-0.14,-1.43l-0.42,-1.03l-0.32,-0.34l-0.93,-0.15l0.29,-1.14l1.28,-1.32l0.99,-1.93l0.21,0.11l0.13,-0.99l-0.59,-0.09l1.59,-1.33l1.95,-2.8l0.49,-1.53l-0.16,-2.83l1.66,-1.33l1.85,-2.85l1.08,-0.95l1.42,-2.06l3.24,-3.65l0,0l3.65,1.32l2.07,0.19l2.66,-0.44l4.96,0.47l1.97,0.69l0.63,1.16l0.55,2.47l2.07,1.18l0.29,0.71l2.28,0.53l-0.03,0.84l0.5,0.38l1.02,-0.4l1.33,1.17l0.43,0.08l0.53,-0.82l0.36,0.61l0.29,-0.08l0.77,-1.01l0.51,-0.11l0.93,0.48l0.61,-0.33l3.19,-0.48l1.12,0.66l0.73,1.2l1.98,0.66l2.75,-1.17l1.26,0.91l0.51,0.1l1.11,-0.42l-1.23,-1.69l-0.62,-0.14l-0.7,-2.34l1.76,-2.16l0.16,-0.68l0.92,-1.17l0.24,-1.51l1.41,-2.53l1.66,-1.47l1.42,-0.85l0.15,-1.97l0.64,0.1l0.48,0.68l0.05,-0.8l-0.15,-0.65l-1.54,-1.3l-2.3,-1.27l-1.31,-0.24l-1.52,-1.34l-1.61,-2.22l-1.18,-2.91l-0.13,-0.92l0.29,-1.47l2.93,-0.94l0.8,-1.3l1.12,-0.48l1.66,0.01l0.23,-0.35l-0.03,-1.54l0.62,-0.52l2.37,-0.04l0.52,-0.62l1.14,-0.52l0.56,-0.83l0.97,-0.7l1.34,-1.92l0.44,0.2l0.23,-0.21l0.26,-1.28l-0.21,-1.11l-1.07,-1.64l0.25,-0.74l-0.25,-0.47l1.39,-1.08l0,-0.72l0.33,-0.41l-0.46,-1.09l0.22,-1.13l0.91,-1.03L346.36,280.61z"/>
		<path id="MA-12" title="Tadla-Azilal" class="land" d="M421.53,283.04L421.97,283.22L424.31,282.85L426.01,283.84L426.67,285.22L427.32,285.54L428.09,285.38L428.92,286.46L429.7,286.86L430.09,287.65L430.59,290.24L431.58,290.31L432.85,289.24L433.98,289.44L435.57,290.55L435.91,291.11L438.15,291.32L438.55,292.78L439.94,294.77L440.9,296.98L440.06,298.21L439.94,299.27L439.26,300.29L439.72,301.11L438.84,303.12L439.83,303.96L439.63,305.06L439,305.5L437.08,305.04L434.76,305.48L433.87,305.92L433.59,306.22L433.39,307.53L432.82,308.27L432.07,308.98L430.7,309.05L429.85,309.87L429.82,311.42L428.83,312.11L429.03,313.66L428.17,314.04L427.91,314.67L428.25,315.41L429.1,315.7L429.45,317.03L429.18,317.78L429.18,317.78L429.1,319.15L429.41,319.88L429.4,320.72L429,321.37L427.16,322.77L427.01,323.34L425.11,323.26L423.7,325.13L420.1,326.72L420,328.6L419.58,329.59L418.17,329.6L417.43,329.88L415.86,329.59L414.4,330.51L413.46,331.81L407.37,334.2L401.64,337.76L399.3,338.55L397.39,338.05L396.22,338.6L394.4,338.86L393.3,340.24L393.16,340.97L393.76,342.62L393.22,343.13L392.42,345.48L391.64,345.3L390.76,345.66L390.29,344.93L388.41,345.16L387.34,345.7L381.16,343.86L378.52,343.82L378.52,343.82L378.09,342.58L378.01,341.24L378.16,339.98L379.38,336.52L379.51,335.09L379.28,334.24L378.55,334.1L376.6,334.46L376.19,334.77L375.51,334.36L375.76,332.8L374.2,331.86L373.86,331.17L373.86,328.34L374.48,327.48L375.61,326.8L376.48,326.64L377.48,326.7L379,327.53L381.46,326.96L383.27,327.25L383.91,326.65L383.52,325.06L383.71,324.35L384.55,324.25L384.86,323.8L382.94,321.45L383.09,320.68L382.64,320.14L382.75,319.47L383.61,318.51L383.17,316.77L381.88,316.22L380.77,314.38L380.33,310.54L380.73,308.94L379.96,305.42L380.34,304L380.28,301.51L380.28,301.51L382.42,299.31L384.2,294.49L384.45,290.44L384.89,289.23L384.73,288.71L385.61,288.96L386.46,289.89L387.3,289.89L389.13,289.23L390.37,288.13L391.95,287.93L392.26,287.31L392.67,287.23L393.89,287.79L395.79,287.86L396.86,288.41L398.62,288.61L398.79,288.11L398.29,287.62L398.53,287.23L399.04,287.11L399.63,286.52L401.55,286.18L403.68,286.58L405.22,287.29L407.33,287.07L408.05,287.28L412.1,287.19L414.88,286.13L418.65,285.75L420.04,284.9L420.55,283.92z"/>
		<path id="MA-13" title="Souss-Massa-Drâa" class="land" d="M429.18,317.78l1.5,-0.37l2.5,-1.79l0.94,0.05l5.2,3.55l0.44,0.58l-1.02,2.12l-8.67,9.18l-0.45,1.38l0.48,0.49l2.73,0.39l2.72,-0.64l5.3,1.45l0.6,0.48l0.99,1.84l2.76,1.68l2.95,0.91l0.95,0.6l1.14,1.27l0.47,1.08l0.26,1.36l-0.18,2.63l-0.92,3.36l-1.59,3.72l-0.86,6.67l-1.14,5.59l0.08,1.33l0.71,3.39l2.02,3.52l1.12,1.4l0.19,0.89l1.89,2.59l0.03,7.21l-0.42,2.26l0.1,5.52l-0.24,3.31l0.5,0.96l0.36,1.85l0.99,1.38l0.53,0.28l1.32,3.82l0,0l-0.76,0.24l-3.88,2.94l-0.46,0.79l-1.26,0.79l-1.58,2.65l0.26,1.7l-0.53,1.28l-7.69,10.94l-0.65,0.27l0.28,0.45l-0.43,0.95l-0.27,0.09l-0.48,-0.56l-1.06,0.03l-0.9,-0.55l-0.8,-0.13l-1.44,-1.52l-0.98,0.86l-1.32,0.07l0.19,-1.3l0.75,-1.12l0.04,-0.53l-0.86,-0.63l-2.06,-0.61l-2.42,0.29l-0.62,0.52l-2.95,0.25l-2.27,0.76l-0.79,-0.03l-0.95,0.47l-3.9,-0.86l-2.11,0.2v0.21l-1.01,0.33l-1.6,-0.22l-3.2,0.12l-0.46,0.28l-0.16,0.49l-0.33,-0.43l0,0l0.14,-1.21l-0.39,-2.79l0.52,-3.86l-0.19,-3.59l0.8,-3.73l-0.19,-6.44l-1.57,-3.72l-5.79,-9.14l-1.63,-1.75l-1.86,-1.01l-1.01,0.06l-0.83,0.3l-1.14,1.05l-1.86,2.58l-1.06,0.3l-1.95,1.13l-1.89,0l-3.6,-1.66l-1.56,-0.24l-0.57,0.2l-1.73,1.88l-1.7,3.91l-0.64,3.24l-0.89,0.65l-5.82,-0.26l-1.91,-0.35l-1.11,-1.12L367,396.6l-0.34,-0.7l-0.59,-0.72l-2.96,-1.92l-1.68,0.95l-1.48,1.3l-1.12,2.18l-0.12,0.85l1.13,5.49l-0.06,0.64l-0.71,0.85l-0.61,0.35l-2.13,-0.09l-2.78,-0.83l-1.46,0.21l-1.62,1.06l-2.56,2.67l-1.84,0.46l-0.57,0.41l-1.46,-0.27l-2.59,-1.11l-4.3,-3.07l-1.05,-0.23l-0.83,0.19l-1.21,1.03l-1.21,3l-0.83,1.13l-0.75,0.45l-1.19,0.05l-6.2,-3.05l-1.03,-0.27l-1.66,-0.07l-1.31,0.35l-1.35,1.21l0.07,2.14l0.67,0.58l1.57,-0.61l1.03,0.06l0.22,0.32l-0.2,1.36l-1.43,1.5l-1.14,1.78l-0.38,1.48l-0.13,5.21l0.77,1.82l1.25,0.92l0.32,0.81l-0.48,0.88l-8.37,2.48l-1.05,0.55l-2.61,0.06l-2.4,-0.36l-0.52,0.29l-0.91,0.62l-1.28,2.63l-1.45,6.12l-0.16,-0.66l-1.23,-1.59l-0.59,-1.5l-1.41,-0.77l-1.64,0.06l-1.06,-0.46l-1.56,0.41l-0.77,1.52l-1.41,1.16l-2.93,0.55l-2.38,1.26l-2.4,0.63l-0.58,-0.28l-1.45,0.22l-0.36,-0.19l-0.96,-1.73l-1.23,-1.07l-1.42,-0.13l-0.95,0.29l-1.16,1.38l-1.56,4.38l-0.45,0.43l-1.42,0.6l-1.54,-0.43l-1.41,0.46l-4.01,2.96l-1.13,0.15l-0.53,-0.3l-0.44,-0.77l-0.92,-0.27l-1.81,0.37l-4.15,-0.5l-1.27,0.27l-0.72,-0.15l-1.79,-1.4l0,0l0.58,-1.48l0.7,-0.35l0.13,-0.77l2.34,-2.68l0.41,-0.82l1.32,-1.16l1.66,-0.84l1.39,-1.34l1.27,-2.77l1,-1.47l1.33,-1.24l0.81,-1.83l0.81,-0.84l0.28,-0.58l-0.14,-0.77l0.35,-0.24l-0.05,-0.43l0.39,-0.23l-0.14,-0.48l0.31,-0.15l0.02,-0.62l0.51,-0.35l0.45,-1.12l1.22,-1.5l0.4,-1.11l5.73,-5.65l0.25,-0.73l1.37,-1.86l-0.06,-0.51l1.04,-1.54l0.06,-0.69l2.54,-5.37l0.82,-1.09l0.13,-0.1l0.07,-0.61l0.96,-3.34l0.01,-1.55l1.32,-6.69l0.13,-0.23l0.17,-0.04l-0.3,-0.57l0.38,-0.79l-0.17,-0.67l-0.45,-0.65l-0.14,0.23l-0.34,-0.04l-0.2,0.05l-0.53,-0.45l-0.03,-0.29l-0.52,-0.39l-0.66,-2.4l-0.39,-0.38l-0.51,-1.44l-1.47,-0.44l-0.24,-1l-1.4,-1.59l-1.59,-0.76l-1.6,0.16l-0.83,-0.31l0.44,-2.69l1.06,-1.33l-0.07,-0.53l1.75,-3.58l-0.04,-0.86l-0.27,-0.31l-0.35,0.17l-0.15,-0.44l0.73,-1.95l-0.48,-0.86v-1.77l0,0l2.85,2.88l0.86,2.24l-0.16,0.27l2.07,0.07l0.89,-0.3l1.93,0.81l1.09,-0.5l1.39,-1.99l0.39,0.28l-0.27,1.03l0.17,0.26l1.27,0.29l1.31,0.71l1.03,-0.15l0.68,-0.47l2.5,-0.27l0.89,0.8l2.08,0.22l1.19,-0.72l1.89,-0.04l1.98,-0.87l3.47,0.53l0.95,-0.46l0.9,-1.51l4.12,-1.83l1.07,-0.74l1.49,-1.76l0.8,-0.07l0.66,0.15l0.4,0.97l1.51,0.39l0.72,0.74l0.99,3.58l1.34,-0.16l1.32,-1.25l1.12,-0.25l6.17,0.15l1.26,-1.31l0.82,-0.21l1.82,0.47l3.94,-0.67l1.34,-0.37l3.18,-1.5l1.21,1l-0.14,1.42l0.51,0.14l2.57,-1.5l3.18,-2.8l0.28,-1.18l-0.35,-0.57l0.16,-0.29l2.7,-1.46l3.13,-2.94l2.15,-1.05l2.23,-0.03l1.45,-0.39l1.02,-0.63l3.09,-3.24l1.86,-0.9l3.5,-0.19l2.52,-0.56l1.99,-2.75l0.98,-0.65l2.25,-0.67l0,0l2.64,0.04l6.19,1.85l1.07,-0.55l1.88,-0.22l0.47,0.73l0.88,-0.36l0.78,0.18l0.81,-2.36l0.54,-0.51l-0.6,-1.65l0.15,-0.73l1.09,-1.38l1.82,-0.26l1.17,-0.55l1.92,0.49l2.34,-0.79l5.73,-3.56l6.09,-2.39l0.93,-1.3l1.46,-0.93l1.57,0.3l0.74,-0.28l1.41,-0.01l0.42,-0.99l0.1,-1.87l3.6,-1.6l1.41,-1.86l1.9,0.08l0.15,-0.57l1.84,-1.41l0.4,-0.65l0.01,-0.84l-0.32,-0.74L429.18,317.78z"/>
		<path id="MA-15" title="Laâyoune-Boujdour-Sakia el Hamra" class="land" d="M201.95,482.75L198.89,484.05L198.66,484.14L197.58,484.54L190.77,488.1L185.05,489.51L184.15,489.5L172.28,492L162.74,493.22L161.15,493.69L159.13,493.78L158.6,494.27L158.38,494.77L157.54,495.16L157.29,495.87L156.64,496.57L155.66,499.97L154.94,500.54L154.08,502.41L153.29,503.09L151.69,503.71L149.64,505.01L148.46,507.93L147.25,512.94L145.3,518.39L144.52,519.77L144.4,520.63L140.45,527.38L140.14,529.68L139.93,530.25L140.1,530.75L139.63,531.83L139.64,532.04L138.01,536.04L137.03,539.76L135.82,542.82L134.18,545.76L132.54,547.54L130.24,549.39L121.04,554.89L118.84,556.78L114.92,558.31L111.04,558.73L110.18,560.5L108.68,562.41L105.53,564.96L102.66,565.56L99.64,569.62L98.92,571.23L99.52,572.66L99.45,575.1L99.05,577.14L96.43,583.01L94.64,585.61L93.76,586.33L92.71,590.67L91.9,592.62L91.93,594.07L91.47,595.72L90.59,597.48L88.07,600.98L87.85,602.84L86.5,606.13L86.6,607.92L85.84,609.94L86.18,611.74L85.84,613.25L86.17,614.29L86.01,615.07L86.49,615.38L86.86,616.41L86.66,619.5L86.31,620.83L86.51,622.3L84.45,628.11L84.25,629.27L84.45,630.89L82.07,633.01L80.54,633.79L80.3,635.19L79.98,635.66L79.98,635.66L83.06,636.14L88.23,638.23L89.42,639.02L91.67,642.27L92.86,642.94L94.07,643.21L98.92,642.42L106.94,640.38L115.11,639.94L125.13,642.25L128.04,643.43L129.79,643.84L136.49,642.02L139.42,640.66L144.78,638.76L151.43,638.16L162.66,640.36L170.89,643.19L174.24,643.2L183.17,641.3L189.47,641.29L191.48,641.79L193.83,641.28L193.83,641.28L193.82,576.78L193.82,576.78L177.07,576.85L176.54,573.04L175.85,570.92L175.48,568.33L174.79,565.8L173.95,564.52L173.73,562.68L172.37,558.91L172.03,557.36L172.13,555.68L172.9,552.74L174.78,548.92L178.08,544.96L181.85,541.28L184.16,538.36L186.75,531.7L188.75,528L190.47,520.69L192.02,516.7L197.04,509.27L199.95,506.68L201.91,505.49L209.85,505.52L209.25,502.26L210.53,501.92L213.77,501.97L210.55,498.15L208.77,495.28L207.5,491.49L204.84,488.73L202.51,482.56L202.51,482.56L202.33,482.69z"/>
		<path id="MA-14" title="Guelmim-Es Smara" class="land" d="M250.59,447.54L246.21,450.57L240.15,454.1L231.76,458.56L230.44,459L229.14,459.9L229.12,460.36L227.65,462.27L226.91,462.64L225.64,464.08L223.93,465.32L222.36,467.37L220.36,468.98L218.62,471.15L218.65,471.57L217.2,472.92L216.51,474.38L215.16,475.58L214.4,477.29L212.06,478.82L211.87,479.27L212.24,479.75L211.66,479.58L211.63,479.26L211.32,479.15L208.09,480.53L207.87,480.58L206.46,480.99L202.51,482.56L202.51,482.56L204.84,488.73L207.5,491.49L208.77,495.28L210.55,498.15L213.77,501.97L210.53,501.92L209.25,502.26L209.85,505.52L201.91,505.49L199.95,506.68L197.04,509.27L192.02,516.7L190.47,520.69L188.75,528L186.75,531.7L184.16,538.36L181.85,541.28L178.08,544.96L174.78,548.92L172.9,552.74L172.13,555.68L172.03,557.36L172.37,558.91L173.73,562.68L173.95,564.52L174.79,565.8L175.48,568.33L175.85,570.92L176.54,573.04L177.07,576.85L193.82,576.78L193.82,576.78L320.33,576.71L320.58,461.13L328.48,457.54L333.75,452.41L339.2,448.09L340.22,448.06L342.97,445.93L347.33,443.35L347.61,442.65L348.52,441.65L351.88,439.68L354.1,437.72L357.99,435.9L358.76,435.7L359.24,435.86L360.23,434.34L360.17,433.32L361.2,432.5L365.18,433L368.33,432.28L369.13,432.35L369.71,431.84L371.24,431.39L374.87,427.76L378.29,426.14L379.89,426.15L383.13,427.41L384.39,426.96L385.32,427.37L387.2,427.24L388.13,427.78L389.45,427.88L390.3,428.52L392.45,428.78L393.22,428.56L394.59,426.88L395.58,426.47L397.99,426.27L398.47,425.84L401.93,426.22L402.42,425.6L404.44,424.45L405.23,424.27L406.83,424.53L406.83,424.53L406.97,423.32L406.58,420.53L407.1,416.66L406.91,413.08L407.71,409.35L407.51,402.9L405.94,399.19L400.15,390.05L398.52,388.3L396.65,387.29L395.64,387.35L394.81,387.66L393.66,388.7L391.8,391.28L390.74,391.59L388.79,392.72L386.9,392.72L383.3,391.06L381.73,390.82L381.17,391.03L379.43,392.91L377.73,396.82L377.09,400.06L376.19,400.71L370.37,400.45L368.47,400.1L367.36,398.98L367,396.6L366.65,395.9L366.07,395.18L363.1,393.26L361.42,394.22L359.93,395.51L358.81,397.7L358.69,398.54L359.82,404.03L359.75,404.68L359.04,405.53L358.43,405.87L356.3,405.79L353.53,404.96L352.07,405.17L350.44,406.23L347.89,408.9L346.05,409.36L345.48,409.77L344.02,409.49L341.43,408.38L337.13,405.31L336.07,405.08L335.24,405.26L334.03,406.3L332.82,409.3L331.99,410.43L331.25,410.88L330.05,410.92L323.85,407.87L322.82,407.59L321.16,407.52L319.84,407.87L318.5,409.08L318.57,411.22L319.24,411.8L320.81,411.19L321.84,411.25L322.06,411.57L321.87,412.93L320.44,414.43L319.29,416.21L318.91,417.69L318.79,422.9L319.56,424.72L320.81,425.64L321.13,426.45L320.65,427.34L312.28,429.82L311.22,430.37L308.62,430.43L306.22,430.07L305.69,430.36L304.79,430.99L303.5,433.62L302.05,439.74L301.89,439.08L300.66,437.49L300.08,436L298.67,435.23L297.02,435.28L295.96,434.83L294.4,435.24L293.63,436.76L292.22,437.92L289.29,438.46L286.91,439.72L284.51,440.36L283.93,440.08L282.47,440.3L282.11,440.11L281.15,438.38L279.92,437.32L278.5,437.18L277.55,437.47L276.39,438.85L274.83,443.23L274.38,443.66L272.96,444.25L271.42,443.83L270.01,444.28L266,447.24L264.87,447.39L264.34,447.09L263.91,446.32L262.98,446.05L261.17,446.42L257.03,445.91L255.76,446.18L255.04,446.03L253.25,444.63L253.25,444.63L252.95,444.68z"/>
		<path id="MA-16" title="Oued ed Dahab-Lagouira" class="land" d="M79.98,635.66l3.09,0.48l5.16,2.09l1.2,0.79l2.25,3.25l1.19,0.67l1.21,0.27l4.85,-0.79l8.02,-2.04l8.17,-0.45l10.02,2.31l2.9,1.18l1.75,0.42l6.7,-1.83l2.93,-1.35l5.36,-1.91l6.65,-0.6l11.24,2.21l8.22,2.82l3.35,0.01l8.93,-1.91l6.3,0l2.02,0.49l2.34,-0.51l0,0l0.15,41.23l-28.87,2.76l-3.44,2.41l-4.05,4.76l-3.36,5.34l-1.51,3.64l-2.01,8.54l-0.28,2.25l5.47,57.08l-74.43,-0.52l-74.4,0.54l-0.78,0.15l-2.41,9l-1.4,2.6l-0.34,2.43l-0.67,2.31l-0.01,3.36l0.56,2.65l0.22,0.1L2.04,792l-1.16,-2.28l-0.51,0.01L0,788.96l1.03,-1.63l-0.68,-1.5l1.2,-3.17l-0.03,-3.18l0.79,-3.35l-0.25,-0.91l0.88,-4.33l-0.17,-1.48l1.91,-9.41l-0.13,-2l0.43,-2.11l-0.31,-2.35l1.19,-1.67l-0.01,-0.38l-0.55,-0.15l0.24,-2.21l2.22,-2.92l0.26,-0.87l-0.14,-0.87l0.96,-1.9l2.47,-7.09l1.26,-0.58l0.18,-0.42l-0.24,-0.62l0.26,-0.63l1.96,-1.53l0.64,-1.06l0.71,-0.59l1.09,0.07l0.63,1.02l1.08,-0.1l2.3,-0.8l1.99,-1.35l-0.02,-1.02l0.68,-0.53l0.68,-1.23l0.29,-2.8l0.49,-0.89l-0.03,-0.77l0.48,-0.89l1.57,-1.02l1.01,-1.24l0.18,-1.91l0.47,-0.98l-0.04,-3.09l0.27,-1.33l1.85,-3.19l-0.08,-0.59l-0.54,-0.15l0.59,-2.14l0.58,0.36l2.25,-0.9l1.57,-1.52l0.99,-1.63l0.2,-1.6l-0.24,-1.03l-0.54,-0.83l-0.74,-0.49l-0.7,0.13l-0.4,0.43l0.42,-1.23l0.38,-0.83l0.97,-0.64l1.51,-1.91l0.38,-0.8l-0.06,-0.98l2.11,-3.21l-0.25,-0.74l2.18,-1.98l1.08,-1.5l1.11,-2.47l-0.9,-1.46l1.31,-0.74l0.72,-1.19l0.59,-0.35l1.17,-2.59l0.6,-0.21l0.44,-0.54l0.54,-1.17l1.21,-1.48l0.79,-1.72l1.31,-1.08l0.45,-1.26l0.77,-0.52l-0.13,-0.37l-1.08,0.81l0.39,-1.89l0.98,-1.53l-0.39,-1.09l0.83,-2.35l-0.6,0.31l-0.7,0.71l-0.62,0.15l0.11,0.98l-0.54,1.02l-0.12,-0.31l-0.02,-0.23l-0.14,-0.39l-0.58,0.4l-0.81,1.71l-0.93,0.6l-0.22,0.03l-0.08,-0.36l-0.54,0.39l-1.65,2.34l-1.11,4.06l-1.25,1.08l-0.09,0.1l-0.82,1.24l-0.08,0.55l-0.63,-0.18l-0.25,-0.73l0.81,-1.26l0.96,-0.88l0.11,-1.05l1.25,-1.26l-0.07,-0.54l0.8,-1.98l2.41,-2.89l1.29,-0.99l0.09,-0.41l2.13,-1.46l3.31,-1.7l2.61,-1.86l0.61,-0.88l-0.28,-0.43l0.41,-0.77l1.47,-1.02l0.54,-1.07l0.65,-0.4l3.26,-3.58l3.24,-2.53l3.33,-4.67l2.94,-3.08l1.63,-0.93l3.88,-1.55l0.59,-0.53L79.98,635.66z"/>
	</g>
</svg>