<?xml version="1.0" encoding="utf-8"?>
<!-- (c) ammap.com | SVG map of Nigeria - Low -->
<svg xmlns="http://www.w3.org/2000/svg" xmlns:amcharts="http://amcharts.com/ammap" xmlns:xlink="http://www.w3.org/1999/xlink" version="1.1">
	<defs>
		<style type="text/css">
			.land
			{
				fill: #CCCCCC;
				fill-opacity: 1;
				stroke:white;
				stroke-opacity: 1;
				stroke-width:0.5;
			}
		</style>

		<amcharts:ammap projection="mercator" leftLongitude="2.667421" topLatitude="13.892503" rightLongitude="14.681004" bottomLatitude="4.269658"></amcharts:ammap>

		<!-- All areas are listed in the line below. You can use this list in your script. -->
		<!--{id:"NG-AB"},{id:"NG-AD"},{id:"NG-AK"},{id:"NG-AN"},{id:"NG-BA"},{id:"NG-BE"},{id:"NG-BO"},{id:"NG-BY"},{id:"NG-CR"},{id:"NG-DE"},{id:"NG-EB"},{id:"NG-ED"},{id:"NG-EK"},{id:"NG-EN"},{id:"NG-FC"},{id:"NG-GO"},{id:"NG-IM"},{id:"NG-JI"},{id:"NG-KD"},{id:"NG-KE"},{id:"NG-KN"},{id:"NG-KO"},{id:"NG-KT"},{id:"NG-KW"},{id:"NG-LA"},{id:"NG-NA"},{id:"NG-NI"},{id:"NG-OG"},{id:"NG-ON"},{id:"NG-OS"},{id:"NG-OY"},{id:"NG-PL"},{id:"NG-RI"},{id:"NG-SO"},{id:"NG-TA"},{id:"NG-YO"},{id:"NG-ZA"}-->

	</defs>
	<g>
		<path id="NG-AB" title="Abia" class="land" d="M290.66,491.93L291.26,492.7L298.8,492.08L300.85,493.42L301.18,494.88L301.18,494.88L300.7,502.1L301.69,503.86L315.78,504.72L317.94,509.81L322.49,512.35L322.49,512.35L323.57,513.64L323.13,521.14L327.7,532L327.1,533.21L323.68,532.45L323.68,532.45L320.99,529.84L315.69,526.86L313.92,523.28L308.1,522.51L308.35,526.93L306.51,532.03L309.06,532.32L308.36,534.76L307.63,535.66L301.55,535.5L300.45,536.48L301.45,539.17L300.24,544.98L300.87,549.87L299.7,552.76L297.18,554.7L296.8,556.11L297.61,558.25L296.96,561.04L298.88,566.26L298.88,566.26L298.88,566.26L298.88,566.26L293.58,563.06L291.78,563.49L288.5,562.27L285.71,562.39L281.47,563.61L279.67,563.34L278.22,561.93L277.79,559.73L279.16,556.03L284.97,547.51L284.92,544.73L283.72,542.96L283.72,542.96L286.81,532.71L290.73,527.16L293.23,521.21L293.15,515.71L291.64,513.27L292.87,512.5L292.02,502.68L290.98,501.23L285.64,499.45L283.63,497.76L283.63,497.76L286.26,494.24z"/>
		<path id="NG-AD" title="Adamawa" class="land" d="M682.29,187.44L681.34,191.03L677.45,196.33L676.09,201.22L672.95,204.77L672.34,207.78L673.83,214.15L672.22,215.81L671.12,225.54L668.29,230.05L668.03,233.07L666.42,234.11L664.98,236.72L659.11,237.88L654.93,243.76L656.66,247L655.51,249.74L653.66,251.13L653.63,252.9L654.32,254.5L657.01,255.83L658.02,257.42L655.86,260.51L654.18,271.65L653.16,273.29L650.49,274.48L642.48,275.3L630.59,283.12L630.68,284.46L633.54,285.15L633.63,292.63L632.07,297.73L632.91,299.8L632.05,305.15L629.24,309.95L626.6,312.25L627.3,314.24L626.48,316.29L627.75,320.21L626.62,322.06L622.4,322.75L621.67,326.58L619.7,329.17L617.52,329.36L614.12,332.12L607.41,330.6L602.75,339.52L599.3,340.55L596.83,340.27L592.35,342.63L591.67,346.67L593.69,357.66L590.43,363.77L591.27,370.01L587.14,376.36L583.65,379.45L580.29,385.93L579.88,389.38L578.77,390.94L580.11,398.88L575.22,400.63L572.47,403.77L572.47,403.77L571.25,402.89L568.24,391.44L568.82,385.95L565.63,381.33L558.81,374.34L555.87,372.79L554.23,373.17L551.4,377.18L548.68,379.17L545.97,376.72L543.06,372.02L540.54,365.29L545.5,358.93L554.38,350.23L563.01,338.71L569.13,333.49L569.19,325.63L575.18,314.19L576.18,310.57L573.9,304.92L569.76,303.45L567.1,300.51L567.22,294.5L561.96,284.68L555.23,282.31L548.32,270.21L548.32,270.21L554.52,269.3L557.89,267.87L573.04,258.21L574.14,255.88L573.62,252.18L574.3,241.95L574.3,241.95L580.64,242.92L587.91,241.41L591.35,238.44L601.28,225.83L610.08,224.47L615.98,222.25L618.42,219.63L619.24,216.97L622.56,216.83L624.91,215.69L627.13,211.99L631.74,208.36L640.26,209.15L645.71,211.73L648.55,214.84L650.98,215.99L653.36,217.01L657.75,217L658.89,215.78L660.37,208.02L664.3,198.7L665.46,186.59L668.55,186.16L672.92,188.04L682.4,186.01L682.4,186.01z"/>
		<path id="NG-AK" title="Akwa Ibom" class="land" d="M302.56,585.59v0.01l0,0l-0.02,-0.02l0,0L302.56,585.59zM310.13,584.89l3.1,0.45l-3.58,0.75l-0.49,-0.59L310.13,584.89zM350.44,577.33l0.88,2.09l-1.82,1.04l-0.22,-1.24L350.44,577.33zM298.88,566.26l-1.91,-5.21l0.65,-2.79l-0.81,-2.14l0.38,-1.42l2.52,-1.94l1.18,-2.89l-0.64,-4.9l1.21,-5.81l-1,-2.7l1.1,-0.98l6.09,0.16l0.73,-0.9l0.7,-2.44l-2.55,-0.29l1.84,-5.1l-0.24,-4.42l5.82,0.77l1.77,3.58l5.3,2.98l2.69,2.61l0,0l-0.85,0.1l-1.15,2.45l0.66,1.79l1.62,2.25l4.77,-0.56l4.96,2.68l-0.22,8.2l1.63,5.13l3.41,4.91l11.22,10.96l0,0l-0.43,2.16l0.79,0.44l0.03,2.5l-0.98,0.36l1.19,1.17l-3.08,6.72l-10.97,-0.7l-22.77,2.23l-3.27,-0.58l-1.82,0.27l0.76,1.27l-3.32,1.32l-0.98,-1.7l-2.99,-1.9l0.29,-1.03l-1.03,0.12l0,0l-0.65,-6.68l0.96,-4.27L298.88,566.26z"/>
		<path id="NG-AN" title="Anambra" class="land" d="M262.32,445.18L262.85,449.2L266.68,449.07L274.9,452.26L274.01,456.5L269.72,461.2L268.91,465.34L273.15,467.04L274.57,468.84L277.22,474.33L276.1,475.58L276.01,478.57L276.73,479.31L279.23,478.31L279.82,480.89L281.15,481.52L280.8,483.67L283.62,489.95L286.01,491.35L288.75,490.48L290.66,491.93L290.66,491.93L286.26,494.24L283.63,497.76L283.63,497.76L278.31,499.18L272.93,497.93L266.62,499.09L264.84,500.13L261.54,508.29L258.86,508.56L254.35,506.64L252.73,507.44L249.73,511.27L247.64,512.1L247.64,512.1L245.24,511.89L244.13,510.61L244.13,510.61L244.13,510.61L244.13,510.61L247.06,505.54L249.17,498.21L251.67,493.66L252.05,487.65L253.33,484L247.44,460.87L247.44,460.87L247.37,460.58L247.37,460.58L249.04,459.81L252.63,460.47L254.06,459.58L255.9,457.07L257.2,450.22z"/>
		<path id="NG-BA" title="Bauchi" class="land" d="M491.59,87.79L499.33,93.98L500.47,96.91L501.05,105.8L504.21,110.46L505.9,126.48L514.25,147.39L511.98,161.81L513.61,163.34L516.65,163.71L516.65,163.71L513.14,167.71L507.1,170.99L502.52,176.44L497.12,178.08L495.68,179.44L494.3,181.47L490.72,193.84L486.91,200.29L494.29,203.28L495.43,204.99L496.3,212.14L497.18,213.29L504.38,215.91L506.46,220.85L506.38,232.34L505.55,234.1L499.66,235.65L498.35,237.56L498.68,239.18L502.97,243.56L514.62,252.06L516.46,262.04L520.73,269.44L520.02,270.55L520.02,270.55L509.59,269.43L499,274.28L493.15,273.5L488.56,276.15L488.56,276.15L476.02,268.68L445.52,254.55L442.49,256.33L442.19,257.77L445.36,261.83L445.13,265.24L440.37,266.54L437.48,271.75L433.09,273.16L423.05,273.75L411.27,271.47L409.71,270.13L407.16,264.9L401.85,261.92L404.55,254.59L403.32,245.52L400.46,243.39L389.49,245.58L389.53,233.2L388.75,228.4L386.14,224.24L383.36,223.36L378.65,223.77L378.65,223.77L373.06,218.58L375.41,214.38L375.94,210.42L375.94,210.42L379.52,205.77L380.85,201.92L380,198.25L376.14,193.92L375.69,191.93L375.29,185.04L377.34,176.97L383.1,176.19L388.49,168.87L396.38,162.03L398.07,161.73L400.35,162.89L405.87,160.72L405.87,160.72L412.87,161.63L420.3,164.04L423.65,162.58L425.95,163.31L427.73,166.98L443.27,166.1L446.48,173.15L445.65,181L447.81,184.41L453.51,185.6L459.11,184.21L464.99,186.36L466.85,185.79L465.78,180.56L469.84,177.29L475.32,175.52L477.17,174.13L478.27,171.41L477.23,169.95L456.25,167.35L453.26,165.5L447.96,158.08L446.44,153.01L442.6,153.95L441.42,152.84L440.87,151.1L443.38,146.1L441.4,137.36L439.59,136.86L432.11,138.2L430.76,137.57L431.25,133.31L434.47,128.77L440.63,128.31L446.1,125.27L464.46,118.09L463.86,113.96L470.57,93.37L478.59,90.87L480.53,94.72z"/>
		<path id="NG-BE" title="Benue" class="land" d="M309.31,368.03L326.95,371.76L340.58,378.13L346.9,378.98L350.22,381.78L355.55,384.01L356.78,381.55L352.08,369.91L352,367.39L354.26,363.12L359.59,360.64L364.86,360.9L381.81,366.17L390.65,366.36L390.66,365.66L402.45,374.59L402.45,374.59L398.66,380.56L400.56,381.13L406.68,378.5L414.15,377.55L422.33,378.03L429.81,379.8L439.39,390.35L447.76,397.92L448.79,399.93L448.5,405.98L446.12,411.87L446.41,417.79L438.96,424.41L435.65,430.57L433.54,442.07L434.15,442.8L433.79,452.64L431.89,460.83L431.89,460.83L429.05,460.4L428.37,463.82L425.55,465.56L420.98,465.34L420.98,465.34L415.45,457.16L409.92,451.43L405.34,450.49L395.77,452.73L391.39,452.29L390.18,451.4L390.84,446.63L390.28,444.99L381.64,439.61L376.21,437.92L371.79,438.44L368.16,440.31L368.93,444.81L365.79,446.73L362.66,447.56L354.84,447.2L351.12,450.91L348.13,451.4L348.13,451.4L346.43,449.13L345.59,444.87L343.83,443.57L342.81,445.88L339.4,446.25L337.63,449.13L335.71,450.06L329.31,450.21L327.07,460.49L325.66,461.08L323.88,460.34L319.87,456.66L319.39,454.21L319.39,454.21L321.67,447.79L320.77,442.17L319.35,440.03L317.83,438.88L315.02,438.53L310.71,441.37L307.79,439.85L301.32,433.74L298.71,426.7L298.71,426.7L299.96,426.78L303.33,430.07L307.26,431.02L307.6,426.6L308.56,425.16L315,422.04L318.3,418.93L320.66,409.17L322.72,404.86L317.93,404.71L316.66,403.66L315.42,398.13L314.84,384.42L309.53,376.74z"/>
		<path id="NG-BO" title="Borno" class="land" d="M661.8,11.35L662.5,17L661.67,20L665.16,26.26L664.5,29.27L663.52,30.35L665.9,32.9L668.36,33.51L667.99,34.72L673.23,42.44L676.06,45.52L680.46,47.9L684.33,48.65L684.59,49.51L683.45,50.6L683.25,49.56L681.85,50.1L683.29,51.7L683.56,53.46L687.44,52.3L693.82,47L692.74,48.76L693.54,49.02L694.11,51.36L693.11,50.2L691.69,51.91L689.67,52.48L690.34,54.36L687.29,59.22L687.7,59.99L689.07,59.54L688.42,63.13L689.27,63.17L687.78,66.07L690.04,66.76L687.41,68.15L690.43,69.59L688.36,70.77L689.84,71.56L688.12,71.86L689.1,72.49L688.25,74.16L689.76,74.37L689.41,76.45L691.17,79.13L690.93,80.28L692.88,80.83L693.83,82.81L695.9,82.06L698.14,85.76L700.3,86.53L700.57,89.82L702.39,91.01L705.8,90.77L705.53,91.81L706.36,91.87L706.75,91.18L712.49,90.22L712.66,91.44L713.73,91.53L712.2,93.93L715.4,96.82L719.85,96.24L720.28,97.05L722,96.18L731.57,97.47L733.63,99.01L733.38,101.02L735.55,102.03L736.25,103.4L735.53,104.79L738.52,105.56L739.28,107.06L738.74,107.52L739.87,108.06L742.25,107.1L743.58,109.61L741.15,113.57L741.83,115.57L740.11,116.73L740.05,118.3L742.25,122.08L741.04,123.82L741.27,125.17L738.95,127.94L739.25,133.23L735.68,137.16L741.11,142.19L740.93,149.03L729.43,153.43L727.73,156.52L719.64,159.69L716.36,161.76L714.43,164.41L709.97,166.35L707.65,166.39L704.93,164.02L700.27,162.91L696.22,171.03L694.04,173.04L694.28,174.53L690.23,178.46L689.02,181.37L683.36,183.52L682.4,186.01L682.4,186.01L672.92,188.04L668.55,186.16L665.46,186.59L664.3,198.7L660.37,208.02L658.89,215.78L657.75,217L653.36,217.01L650.98,215.99L648.55,214.84L645.71,211.73L640.26,209.15L631.74,208.36L627.13,211.99L624.91,215.69L622.56,216.83L619.24,216.97L618.42,219.63L615.98,222.25L610.08,224.47L601.28,225.83L591.35,238.44L587.91,241.41L580.64,242.92L574.3,241.95L574.3,241.95L568.58,238.15L565.45,231.98L559.79,229.64L555.53,224.31L554.72,221.48L559.9,213.92L560.52,210.9L559.17,207.6L559.17,207.6L562.21,206.91L565.62,202.38L565.34,193.99L567.67,188.39L570.33,186.47L581.54,183.45L587.65,179.8L589.74,176.72L589.18,166.66L590.08,163.8L601.8,148.01L600.96,144.68L597.83,140.93L592.92,141.14L592.13,138.84L596.85,129.7L595.16,122.26L597.83,102.47L597.88,96.68L596.16,92.85L596.71,90.65L603.77,84.34L607.98,77.05L607.5,73.31L601.25,67.65L600.02,63.8L601.59,51.57L601.59,51.57L607.42,52.33L608.3,48.28L609.78,46.95L612.27,46.46L612.66,44.22L611.54,43.71L613.51,39.47L617.81,38.35L619.38,39.18L620.57,36.63L623.38,36.11L624.31,34.08L626.42,33.6L628.41,31.58L629.53,28.45L631.06,27L630.25,26.69L630.82,26.08L632.05,26.71L631.76,25.14L634.87,25.88L637.76,23.84L640.06,24.12L641.45,22.79L642.47,23.28L642.52,22.2L643.6,21.84L644.62,21.93L643.73,23.1L645.2,23.89L646.12,22.58L647.47,23.62L647.27,22.31L648.75,21.8L648.44,23.88L650.96,22.78L651.88,24.17L652.84,21.64L654.5,20.8L654.16,19.46L655.35,19.66L655.99,18.86L654.95,17.67L656.57,15.49z"/>
		<path id="NG-BY" title="Bayelsa" class="land" d="M248.93,584.84l0.27,5.81l-1.25,-4.2l-1.11,-0.54l0.82,5.04l1.15,0.75l0.96,3.97l-3.53,0.38l-0.96,0.98l-2.25,-2.16l0.52,-2.04l-1.27,1.44l0.55,2.11l-8.46,0.91l-1.53,-0.79l0.43,-0.99l-2.17,0.48l-1.6,-2.21l-1.34,-0.26l-0.98,-6.85l-2.41,1.23l0.48,2.57l-2.72,2.47l0.1,-3.1l-1.63,-3.98l1,5.02l-0.6,1.13l-0.96,-1.58l-1.67,-0.22l1.91,1.15l0.29,1.37l-1.69,4.15l0.64,2.4l-8.34,0.7l-0.38,-3.84l-0.84,2.81l-5.18,-1.32l0.31,-3.2l-0.76,-1.64l-1.08,0.45l0.71,0.75l-0.19,2l-7.39,-4.06l0.62,-2.21l-1.58,0.46l0.1,0.99l-2.72,-3.08l-2.75,-1.2l-0.89,-1.82l-2.77,-1.35l-8.67,-11.76l-5.25,-10.03l-2.87,-9.98l-2.36,-4.61l1.63,-0.84l2.51,0.53l0.56,-0.72l0,0l2.1,2.1l5.95,2.37l3.69,2.7l3.26,-0.03l7.48,-4.1l2.62,0.42l3.3,-1.64l2.23,-3.57l3.1,2.93l1.89,0.67l2.31,-0.62l1.23,-1.99l4.64,-0.32l2.83,-1.56l0.1,-3.26l2.26,0.68l2.11,-0.52l2.01,-4.1l6.23,-0.05l5.08,-2.19l1.2,-0.85l-0.77,-2.47l0,0l3.98,-0.21l1.92,0.83l1.4,2.12l0.03,1.94l-2.53,2.55l0.23,1.81l-1.54,0.79l-0.75,2.49l-3.32,0.33l-4.49,7.84l-1.33,4.44l2.13,0.62l-0.03,1.27l-2.66,4.72l-0.07,4.34l3.81,2.27l-0.07,3.4l9.57,-2.26l1.38,1.87l1.2,4.38l4.64,2.5l0,0l0.21,0.62L248.93,584.84zM232.08,597.65l-11.02,0.89l1.87,-4.5l2.97,-3.59l-0.77,-2.06l1.58,-0.54l0.58,1.5l0.38,4.35l1.63,0.44L232.08,597.65z"/>
		<path id="NG-CR" title="Cross River" class="land" d="M348.13,451.4L351.12,450.91L354.84,447.2L362.66,447.56L365.79,446.73L368.93,444.81L368.16,440.31L371.79,438.44L376.21,437.92L381.64,439.61L390.28,444.99L390.84,446.63L390.18,451.4L391.39,452.29L395.77,452.73L405.34,450.49L409.92,451.43L415.45,457.16L420.98,465.34L420.98,465.34L418.81,473.68L413.66,471.47L412.86,475.29L408.4,481.82L403.54,483.95L400.4,488.6L391.68,496.37L386.75,499.43L382.12,504.08L383.88,505.98L382.78,509.25L381.31,511.12L380.74,510.54L380.79,512.04L385.89,517.68L386.2,519.44L382.04,527.25L382.25,531.14L380.44,537.02L380.59,543.58L378.05,547.78L376.16,548.55L374.74,550.43L373.52,553.73L372.27,554.77L373.24,555.79L370.4,558.33L370.49,560.09L367.5,562.09L369.02,565.72L366.6,567.18L364.83,566.22L363.8,567.04L362.25,570.56L362.92,570.63L363.52,568.88L363.78,571.39L363.42,571.95L362.39,571.42L362.97,572.86L361.49,573.13L361.55,573.89L358.3,573.58L358.81,571.81L359.88,571.69L358.61,570.08L356.65,571.78L354.58,571.32L353.93,570.17L354.91,569.31L354.6,568.4L352.11,568.18L349.73,570.36L349.73,570.36L338.51,559.4L335.1,554.49L333.47,549.36L333.69,541.16L328.73,538.48L323.96,539.04L322.34,536.79L321.68,535L322.83,532.55L323.68,532.45L323.68,532.45L327.1,533.21L327.7,532L323.13,521.14L323.57,513.64L322.49,512.35L322.49,512.35L322.87,509.96L325.21,506.85L324.85,504.19L328.63,499.29L327.76,494.09L332.65,492.83L335.34,497.33L336.68,495.25L341.04,492.77L341.32,491.46L343.2,491.17L345.38,492.43L347.8,485.16L354.72,476.77L352.87,471.17L354.52,469.54L356.71,469.17L357.3,466.42L355.92,465.42L355.09,461.61L353.31,458.78L348.62,454.29z"/>
		<path id="NG-DE" title="Delta" class="land" d="M244.99,514.5l-0.82,3.18l-3.63,4.66l-0.19,5.3l-3.52,1.81l0.36,1.48l0,0l0.77,2.47l-1.2,0.85l-5.08,2.19l-6.23,0.05l-2.01,4.1l-2.11,0.52l-2.26,-0.68l-0.1,3.26l-2.83,1.56l-4.64,0.32l-1.23,1.99l-2.31,0.62l-1.89,-0.67l-3.1,-2.93l-2.23,3.57l-3.3,1.64l-2.62,-0.42l-7.48,4.1l-3.26,0.03l-3.69,-2.7l-5.95,-2.37l-2.1,-2.1l0,0l0.8,-0.31l0.1,-1.53l-0.63,-0.61l0.26,-3.64l-0.94,2.65l0.98,2.47l-4.69,1.05l-2.08,-2.26l-1.72,-11.73l2.67,0.98l4.57,-0.82l1,1.61l3.37,-1.6l-2.96,-0.36l3.46,-2.2l1.19,0.93l-0.32,1.47l1.25,-1.41l1.55,1.12l0.3,-0.8l-3.23,-1.28l-1.16,-1.6l0.71,-4l0.89,-0.7l0.96,0.98l-0.22,-0.86l3.39,-0.67l1.01,-1.68l1.38,0.94l0.89,-0.04l0.03,-0.99l-0.61,0.66l-2.06,-1.08l-2.25,1.97l-3.68,-0.27l0.64,0.33l-4.02,7.09l-2.65,-1.12l0.6,2.02l-5.09,-0.29l-6.04,-2.63l-5.81,-6.57l2.99,-3.59l10.28,0.88l-1,1.58l2.34,-1.97l0.46,-2.76l3.73,0.16l1.12,2l-0.64,0.73l1.33,0.35l-0.38,-2.09l1,-0.14l-4.11,-2.23l-1.79,0.15l-1.58,3.18l-3.54,-0.36l-1,-2.13l-1.05,1.51l-2.97,-0.41l-4.13,1.87l-3.18,-3.14l-2.63,-4.5l0.53,-4.69l1.05,-0.82l1.98,0.45l3.53,-3.26l2.25,-0.98l0.83,0.53l1.08,-1.86l2,-0.95l-0.34,-0.68l-11.99,6.27l-1.89,2.85l-1.39,-0.88l-2.48,-4.48l0,0l6.9,-16.74l0,0l7.09,4.47l-0.56,4.36l0.71,5.02l1.66,-0.07l4.1,-3.22l0.52,-1.06l-0.83,-2.6l0.63,-0.3l7.14,-0.26l5.42,2.67l1.85,-2.38l5.12,-1.85l9.48,5.21l2,2.83l3.91,2.35l0.47,0.83l-2.04,4.03l1.6,1.61l-0.7,1.8l2.13,0.56l5.23,-1.04l4.59,-2.59l2.29,-3.07l4.7,-3.69l1.55,-1.91l0.7,-3.24l-0.29,-1.75l-4.11,-2.27l-3.99,-6l-0.54,-4.82l-1.86,-1.56l1.04,-4.39l1.78,-1.58l1.67,0.31l4.23,4.31l4.03,-4.53l7.35,-3.1l8.19,-5.12l3.73,-0.81l4.1,0.38l1.88,-2.04l0,0l5.89,23.14l-1.27,3.65l-0.38,6.01l-2.5,4.55l-2.1,7.32l-2.93,5.07L244.99,514.5z"/>
		<path id="NG-EB" title="Ebonyi" class="land" d="M319.39,454.21L319.87,456.66L323.88,460.34L325.66,461.08L327.07,460.49L329.31,450.21L335.71,450.06L337.63,449.13L339.4,446.25L342.81,445.88L343.83,443.57L345.59,444.87L346.43,449.13L348.13,451.4L348.13,451.4L348.62,454.29L353.31,458.78L355.09,461.61L355.92,465.42L357.3,466.42L356.71,469.17L354.52,469.54L352.87,471.17L354.72,476.77L347.8,485.16L345.38,492.43L343.2,491.17L341.32,491.46L341.04,492.77L336.68,495.25L335.34,497.33L332.65,492.83L327.76,494.09L328.63,499.29L324.85,504.19L325.21,506.85L322.87,509.96L322.49,512.35L322.49,512.35L317.94,509.81L315.78,504.72L301.69,503.86L300.7,502.1L301.18,494.88L301.18,494.88L304.81,493.87L309.68,498.17L310.41,498.24L311.06,496.8L310.11,491.24L313.58,486.78L310.91,475.29L313.65,469.18L313.66,463.36L311.15,454.02z"/>
		<path id="NG-ED" title="Edo" class="land" d="M208,395.76L211.22,396.39L211.58,398.61L213.76,398.36L212.84,402.94L214.2,404.77L216.33,405.3L222.27,402.37L228.25,407.98L233.81,407.43L237.43,415.71L241.61,415.25L244.94,413.85L248.69,418.46L249.63,423.88L247.7,429.74L247.76,433.9L243.69,442.27L244.97,444.42L244.04,449.94L246.34,454.55L247.37,460.58L247.37,460.58L247.44,460.87L247.44,460.87L245.56,462.9L241.47,462.52L237.74,463.33L229.55,468.44L222.2,471.54L218.17,476.07L213.93,471.76L212.27,471.44L210.48,473.03L209.44,477.42L211.3,478.98L211.84,483.8L215.83,489.8L219.94,492.07L220.22,493.81L219.53,497.05L217.98,498.96L213.28,502.65L210.98,505.72L206.4,508.31L201.16,509.35L199.03,508.78L199.73,506.98L198.13,505.37L200.16,501.34L199.69,500.51L195.79,498.16L193.79,495.33L184.31,490.12L179.19,491.97L177.34,494.35L171.92,491.68L164.79,491.94L164.15,492.24L164.98,494.84L164.46,495.9L160.37,499.13L158.71,499.2L158,494.18L158.56,489.82L151.47,485.36L151.47,485.36L151.86,484.2L150.63,481.94L147.74,480.81L146.09,477.87L142.98,475.39L144.74,471.06L148.27,469.58L149.11,465.84L151.69,462.17L151.47,459L148.84,456.08L150.04,449.08L153.97,445.63L156.26,439.94L158.46,438.93L176.12,439.38L177.86,441.46L175.85,443.72L177.95,449.18L182.46,445.99L183.8,446.11L185.8,447.94L188.48,446.92L190.94,438.57L192.38,438.83L192.39,437.2L193.27,436.68L191.94,434.59L192.55,429.95L195.31,427.56L198.91,416.55L202.82,413.67L204.25,410.13L203.05,407.37L203.92,404.48L201.91,403.66L201.69,401.43L203.1,399.71L205.55,399.25z"/>
		<path id="NG-EK" title="Ekiti" class="land" d="M148.31,367.38L150.36,369.37L154.84,368.12L158.21,371.04L166.08,371.4L167.65,366.39L171.76,365.05L177.52,364.96L177.52,364.96L176.43,365.38L176.95,370.11L179.43,368.69L183.1,368.05L185.97,369.02L185.69,370.39L182.06,374.04L183.3,379.35L187.75,382.03L194.57,384.42L194.57,384.42L192.23,387.12L190.73,385.87L188.87,386.26L188.02,388.32L183.44,392.25L178.9,406.41L175.85,410.84L170.32,414.33L168.05,413.74L166.08,407.01L164.66,404.79L163.11,404.27L148.36,404.14L143.81,405.59L143.81,405.59L139.29,393.99L138.6,389.21L139.79,385.22L139.1,381.01L141,376.76L146.79,372.68z"/>
		<path id="NG-EN" title="Enugu" class="land" d="M262.32,445.18L265.05,440.17L265.96,440.42L266.14,442.7L268.21,444.76L270.14,444.77L275.11,439.38L281.09,435.52L287.27,428.1L289.71,427.19L291.85,425.09L295.16,424.33L297.6,425.08L298.71,426.7L298.71,426.7L301.32,433.74L307.79,439.85L310.71,441.37L315.02,438.53L317.83,438.88L319.35,440.03L320.77,442.17L321.67,447.79L319.39,454.21L319.39,454.21L311.15,454.02L313.66,463.36L313.65,469.18L310.91,475.29L313.58,486.78L310.11,491.24L311.06,496.8L310.41,498.24L309.68,498.17L304.81,493.87L301.18,494.88L301.18,494.88L300.85,493.42L298.8,492.08L291.26,492.7L290.66,491.93L290.66,491.93L288.75,490.48L286.01,491.35L283.62,489.95L280.8,483.67L281.15,481.52L279.82,480.89L279.23,478.31L276.73,479.31L276.01,478.57L276.1,475.58L277.22,474.33L274.57,468.84L273.15,467.04L268.91,465.34L269.72,461.2L274.01,456.5L274.9,452.26L266.68,449.07L262.85,449.2z"/>
		<path id="NG-FC" title="Federal Capital Territory" class="land" d="M287.39,288.57L293.51,287.94L298.23,289.11L302.23,284.68L303.3,285.11L304.77,288.22L306.89,287.74L306.89,287.74L306.82,290.18L304.84,291.48L302.73,298L302.61,312.81L300.63,318.08L299.11,326.03L296.2,331.43L292.42,336.05L285.46,339.69L277.92,341.95L266.79,343.7L266.79,343.7L257.93,344.01L257.93,344.01L254.68,343.75L252.73,338.84L252.8,293.6L266.85,292.42L268.61,293.05L277.8,301.15L278.74,300.91z"/>
		<path id="NG-GO" title="Gombe" class="land" d="M516.65,163.71L521.73,161.32L525.77,161.49L530.93,163.79L539.42,170.05L547.59,180.03L546.59,181.57L548.17,180.55L551.85,183.93L552.52,188.8L551.32,200.65L552.09,207.1L559.17,207.6L559.17,207.6L560.52,210.9L559.9,213.92L554.72,221.48L555.53,224.31L559.79,229.64L565.45,231.98L568.58,238.15L574.3,241.95L574.3,241.95L573.62,252.18L574.14,255.88L573.04,258.21L557.89,267.87L554.52,269.3L548.32,270.21L548.32,270.21L523.59,271.26L520.02,270.55L520.02,270.55L520.73,269.44L516.46,262.04L514.62,252.06L502.97,243.56L498.68,239.18L498.35,237.56L499.66,235.65L505.55,234.1L506.38,232.34L506.46,220.85L504.38,215.91L497.18,213.29L496.3,212.14L495.43,204.99L494.29,203.28L486.91,200.29L490.72,193.84L494.3,181.47L495.68,179.44L497.12,178.08L502.52,176.44L507.1,170.99L513.14,167.71z"/>
		<path id="NG-IM" title="Imo" class="land" d="M283.63,497.76L285.64,499.45L290.98,501.23L292.02,502.68L292.87,512.5L291.64,513.27L293.15,515.71L293.23,521.21L290.73,527.16L286.81,532.71L283.72,542.96L283.72,542.96L281.15,543.91L274.5,542.82L270.35,543.88L265.66,542.77L256.8,542.5L254.64,540.85L250.82,534.78L251.91,532.02L251.98,525.73L249.86,524.96L244.89,525.19L247.64,512.1L247.64,512.1L249.73,511.27L252.73,507.44L254.35,506.64L258.86,508.56L261.54,508.29L264.84,500.13L266.62,499.09L272.93,497.93L278.31,499.18z"/>
		<path id="NG-JI" title="Jigawa" class="land" d="M433.75,67.57L435.54,68.75L441.54,69.48L444.68,67.68L446.78,63.69L452.1,61.1L464.41,57.14L466.62,58.39L470.9,70.05L477.88,67.47L482.87,69.69L484.9,69.08L486.75,69.96L488.96,73.36L491.59,87.79L491.59,87.79L480.53,94.72L478.59,90.87L470.57,93.37L463.86,113.96L464.46,118.09L446.1,125.27L440.63,128.31L434.47,128.77L431.25,133.31L430.76,137.57L432.11,138.2L439.59,136.86L441.4,137.36L443.38,146.1L440.87,151.1L441.42,152.84L442.6,153.95L446.44,153.01L447.96,158.08L453.26,165.5L456.25,167.35L477.23,169.95L478.27,171.41L477.17,174.13L475.32,175.52L469.84,177.29L465.78,180.56L466.85,185.79L464.99,186.36L459.11,184.21L453.51,185.6L447.81,184.41L445.65,181L446.48,173.15L443.27,166.1L427.73,166.98L425.95,163.31L423.65,162.58L420.3,164.04L412.87,161.63L405.87,160.72L405.87,160.72L406.87,154.76L413.99,147.88L408.18,143.56L405.11,137.82L400.05,137.97L400.35,133.92L403.71,129.23L404.96,125.34L402.49,115.7L397.45,119.4L395.63,119.58L394.26,119.33L393.68,115.32L390.54,115.57L388.64,116.76L388.64,115.73L386.99,115.01L388.7,111.9L388.78,106.29L387.98,103.35L385.21,101.98L378.94,101L377.92,99.61L378.49,97.6L377.39,94.52L372.45,91.02L372,85.1L364.22,83.08L360.45,83.43L354.73,86.71L352.24,92.92L347.56,83.56L347.56,83.56L345.49,80.24L340.55,80.12L337.1,78.47L338.22,68.23L348.61,66.85L353.98,67.84L363.2,67.06L366.46,73.91L371.11,76.1L373.73,74.59L374.37,76.15L375.86,76.85L383.72,74.56L386.91,71.98L387.94,69.35L390.52,67.72L390.53,66.86L390.53,66.86L432.21,68.81z"/>
		<path id="NG-KD" title="Kaduna" class="land" d="M316.2,159.67L321.73,159.02L325.91,155.19L330.71,152.35L336.44,151.11L338.79,152.12L339.11,153.37L337,157.39L338.57,161.14L345.85,164.2L349.36,168.33L356.12,169.44L361.5,173.87L365.09,180.29L365.47,184.17L363.45,191.52L364.45,199.3L363.73,200.4L360.18,201.36L359.63,202.15L360.23,204.23L361.29,205.3L368.31,206.27L371.89,210.07L375.94,210.42L375.94,210.42L375.41,214.38L373.06,218.58L378.65,223.77L378.65,223.77L377.52,228.39L372.11,232.08L369.98,237.05L369.76,239.76L371.87,246.1L369.14,249.17L369.15,261.05L366.82,263.67L366.42,266.75L364.66,268.03L364.87,272.77L363.82,274.17L367.18,280.61L371.46,284.9L372.46,286.99L372.58,290.4L370.91,294.34L370.91,294.34L369.82,294.91L363.04,306.64L358.96,306.93L358.36,305.03L353.02,299.12L349.21,298.88L346.38,297.41L340.04,305.04L336.54,306.85L334.8,304.58L334.85,294.88L333.82,293.27L329.6,290.83L329.28,287.58L326.35,284.91L324.24,284.87L321.65,289.53L319.34,291.63L315.15,290.82L312.71,289.03L310.28,289.5L308.98,286.83L306.89,287.74L306.89,287.74L304.77,288.22L303.3,285.11L302.23,284.68L298.23,289.11L293.51,287.94L287.39,288.57L287.39,288.57L283.7,288.75L285.08,284.62L281.69,281.84L282.34,278.59L285.58,276.43L286.18,273.64L289.27,270.47L288.69,268.59L285.69,266.97L286.52,263.95L282.9,262.59L281.6,260.91L282.77,259.85L286,259.44L286.63,257.93L285.45,245.9L283.75,244.22L270.88,244.3L264.21,241.81L262.5,240.15L261.47,238.17L267.02,232.41L271.26,229.81L272.59,226.04L264.53,222.63L265.93,215.92L263.95,212.12L258.7,212.21L258.42,207.71L257.33,205.28L252.6,204.78L251.42,205.98L252.09,208.37L251.45,209.35L247.48,208.79L239.85,211.65L237.79,207.99L234.88,208.12L230.32,210.23L224.73,214.73L219.35,221.74L217.94,222.63L216.51,222.03L215.29,218.51L212.24,216.51L212.02,215.14L212.35,212.83L214.19,211.03L213.95,207.22L214.69,205.22L213.11,201.36L213.51,196.57L216.55,191.19L216.55,191.19L219.51,190.31L222.37,186.15L227.64,181.44L233.28,180.49L241.22,181.06L245.93,180.44L248.26,178.93L251.3,175.83L255.16,165.64L261.1,160.35L262.11,160.38L262.11,160.38L268.46,161.08L269.82,161.98L270.38,164.79L267.1,168.8L273.45,170.73L277.7,175.02L279.45,175.25L282.14,173.73L283.52,171.82L281.71,168.46L281.59,166.42L285.04,165.33L291.16,166.45L292.93,161.55L295.99,158.96L297.38,158.68L304.16,160.97L308.75,165.06L314.37,162.82z"/>
		<path id="NG-KE" title="Kebbi" class="land" d="M90.42,42.99L97.04,42.85L98.9,43.59L103.53,42.01L110.19,47.36L125.76,53.23L128.21,52.24L130.7,48.55L131.86,48.24L132.94,49.12L133.34,50.37L131.72,54.3L129.97,63.38L133.63,69.81L132.15,79.19L133.87,86.75L133.63,94.77L132.99,96.33L131.97,96.37L128.8,94.33L126.12,94.35L122.17,95.53L120.89,97.01L119.88,100.79L119.74,110.73L120.53,123.78L118.41,133.57L114.64,143.97L117.19,147.62L120.73,148.42L124.84,144.07L136.84,138.62L140.42,139.36L142.46,138.64L143.23,140.39L145.79,139.49L145.79,139.49L148.47,139.01L152.58,141.26L158.92,139.8L159.74,137.48L160.8,136.86L164.59,137.66L168.2,137.01L170.97,140.88L173.84,140.99L177.49,143.4L182.96,142.64L186.75,143.14L190.46,141.74L195.31,142.36L199.66,144.13L201.07,146.28L201.06,148.75L199.01,156.44L204.39,159.15L206.32,162.16L207.91,175.22L207.91,175.22L204.7,173.76L201.28,176.52L200,178.72L196.07,179.13L183.97,184.21L173.3,184.9L171.66,183.65L171.19,173.04L166.63,169.31L165.65,162.8L163.96,161.2L157.48,160.45L147.62,162.04L139.75,163.87L130.47,168.08L129.1,170.15L130.13,172.95L139.16,177.15L144.52,177.68L145.57,179.69L148.06,180.4L149.18,186.96L146.12,190.95L146.61,192.4L150.52,195.39L150.45,197.46L149.44,198.95L140.42,202.56L135.42,202.04L132.97,203.21L132.48,214.17L137.4,222L137.87,225.97L133.46,229.67L130.08,229.93L122.66,232.43L121.6,238.76L117.28,238.3L115.86,237.31L117.16,227.81L114.23,225.15L113.11,222.74L113.29,216.42L116.59,211.16L121.99,208.71L126.61,204.28L129.04,193.57L128.73,188.78L124.26,187.82L115.86,182.12L110.62,180.43L84.82,181.8L79.47,180.09L68.43,174.01L64.65,174.17L64.65,174.17L63.36,174.16L51.23,163.88L55.56,143.49L57.68,138.78L62.57,134.6L61.75,131.34L59.33,129.52L58.76,124.65L61.93,120.81L59.57,112.05L61.23,102.53L60.3,86.68L78.85,71.3L88.38,56.68L90.46,47.05z"/>
		<path id="NG-KN" title="Kano" class="land" d="M347.56,83.56L352.24,92.92L354.73,86.71L360.45,83.43L364.22,83.08L372,85.1L372.45,91.02L377.39,94.52L378.49,97.6L377.92,99.61L378.94,101L385.21,101.98L387.98,103.35L388.78,106.29L388.7,111.9L386.99,115.01L388.64,115.73L388.64,116.76L390.54,115.57L393.68,115.32L394.26,119.33L395.63,119.58L397.45,119.4L402.49,115.7L404.96,125.34L403.71,129.23L400.35,133.92L400.05,137.97L405.11,137.82L408.18,143.56L413.99,147.88L406.87,154.76L405.87,160.72L405.87,160.72L400.35,162.89L398.07,161.73L396.38,162.03L388.49,168.87L383.1,176.19L377.34,176.97L375.29,185.04L375.69,191.93L376.14,193.92L380,198.25L380.85,201.92L379.52,205.77L375.94,210.42L375.94,210.42L371.89,210.07L368.31,206.27L361.29,205.3L360.23,204.23L359.63,202.15L360.18,201.36L363.73,200.4L364.45,199.3L363.45,191.52L365.47,184.17L365.09,180.29L361.5,173.87L356.12,169.44L349.36,168.33L345.85,164.2L338.57,161.14L337,157.39L339.11,153.37L338.79,152.12L336.44,151.11L330.71,152.35L325.91,155.19L321.73,159.02L316.2,159.67L316.2,159.67L312.6,156.99L311.49,154.73L310.71,151.12L312.23,148.45L312.3,146.24L314.12,144.61L317.87,143.58L320.32,141.88L323.98,141.23L320.84,133.43L321.51,129.37L319.42,124.79L320.28,118.46L319.85,103.25L322.03,100.97L326.28,98.6L337.6,94.29L341.65,84.44z"/>
		<path id="NG-KO" title="Kogi" class="land" d="M219.3,324.19L224.27,326.34L227.79,329.59L230.56,333.91L233.11,342.16L239.53,347.15L247.72,356.96L249.68,356.86L251.54,351.44L253.18,351.97L253.24,349L256.81,347.26L257.93,344.01L257.93,344.01L266.79,343.7L266.79,343.7L264.64,349.86L267.65,354.21L268.19,360.38L267.02,365.09L266.98,369.78L264.52,373.57L264.35,377.31L265.04,377.87L269.3,374.92L278.56,370.85L290.96,367.48L298.03,366.78L309.31,368.03L309.31,368.03L309.53,376.74L314.84,384.42L315.42,398.13L316.66,403.66L317.93,404.71L322.72,404.86L320.66,409.17L318.3,418.93L315,422.04L308.56,425.16L307.6,426.6L307.26,431.02L303.33,430.07L299.96,426.78L298.71,426.7L298.71,426.7L297.6,425.08L295.16,424.33L291.85,425.09L289.71,427.19L287.27,428.1L281.09,435.52L275.11,439.38L270.14,444.77L268.21,444.76L266.14,442.7L265.96,440.42L265.05,440.17L262.32,445.18L262.32,445.18L262.32,445.18L262.32,445.18L257.2,450.22L255.9,457.07L254.06,459.58L252.63,460.47L249.04,459.81L247.37,460.58L247.37,460.58L246.34,454.55L244.04,449.94L244.97,444.42L243.69,442.27L247.76,433.9L247.7,429.74L249.63,423.88L248.69,418.46L244.94,413.85L241.61,415.25L237.43,415.71L233.81,407.43L228.25,407.98L222.27,402.37L216.33,405.3L214.2,404.77L212.84,402.94L213.76,398.36L211.58,398.61L211.22,396.39L208,395.76L208,395.76L200.99,388.11L201.7,383.97L199.19,383.54L194.57,384.42L194.57,384.42L187.75,382.03L183.3,379.35L182.06,374.04L185.69,370.39L185.97,369.02L183.1,368.05L179.43,368.69L176.95,370.11L176.43,365.38L177.52,364.96L177.52,364.96L178.27,363.52L177.45,361.11L170.14,356.13L165.74,349.31L170.34,341.98L174.05,337.94L177.65,335.65L181.59,340.03L188.63,343.04L193.23,344.2L202.99,344.56L209.29,346.08L212.32,345.58L213.89,341.82L214.53,335.33L216.84,327.54z"/>
		<path id="NG-KT" title="Katsina" class="land" d="M322.31,35.41L336.66,38.14L343.16,42.58L345.89,43.31L355.78,52.95L359.07,52.07L361.99,52.45L367.31,55.75L370.2,60.3L390.53,66.86L390.53,66.86L390.52,67.72L387.94,69.35L386.91,71.98L383.72,74.56L375.86,76.85L374.37,76.15L373.73,74.59L371.11,76.1L366.46,73.91L363.2,67.06L353.98,67.84L348.61,66.85L338.22,68.23L337.1,78.47L340.55,80.12L345.49,80.24L347.56,83.56L347.56,83.56L341.65,84.44L337.6,94.29L326.28,98.6L322.03,100.97L319.85,103.25L320.28,118.46L319.42,124.79L321.51,129.37L320.84,133.43L323.98,141.23L320.32,141.88L317.87,143.58L314.12,144.61L312.3,146.24L312.23,148.45L310.71,151.12L311.49,154.73L312.6,156.99L316.2,159.67L316.2,159.67L314.37,162.82L308.75,165.06L304.16,160.97L297.38,158.68L295.99,158.96L292.93,161.55L291.16,166.45L285.04,165.33L281.59,166.42L281.71,168.46L283.52,171.82L282.14,173.73L279.45,175.25L277.7,175.02L273.45,170.73L267.1,168.8L270.38,164.79L269.82,161.98L268.46,161.08L262.11,160.38L262.11,160.38L263.38,151.95L262.48,148.26L260.41,145.29L263.07,133.39L264.57,132.55L271.18,132.42L272.46,133.29L277.34,129.32L277.89,126.12L281.23,126.93L283.12,125.31L281.46,121.93L274.99,117.27L276.81,113.64L277.9,108.48L276.39,101.28L273.89,96.08L274.29,92.51L272.98,89.3L271.59,79.38L270.67,67.16L272.11,56.34L272.11,56.34L276.97,54.77L282.25,49.41L290.95,50.19L294.53,49.45L317.93,35.3z"/>
		<path id="NG-KW" title="Kwara" class="land" d="M62.01,236.63L78.71,235.36L82.33,236.29L103.91,261.73L106.2,263.31L108.94,263.61L108.54,276.58L109.42,280.26L118.29,279.86L119.13,280.6L119.72,287.05L123.59,290.48L127.7,291.42L129.34,298.98L131.23,300.3L144.8,296.57L152.57,300.68L158.92,307.91L161.17,308.6L165.13,307.44L174.02,309.59L185.79,316.91L193.37,322.78L200.13,323.7L211.04,322.48L219.3,324.19L219.3,324.19L216.84,327.54L214.53,335.33L213.89,341.82L212.32,345.58L209.29,346.08L202.99,344.56L193.23,344.2L188.63,343.04L181.59,340.03L177.65,335.65L174.05,337.94L170.34,341.98L165.74,349.31L170.14,356.13L177.45,361.11L178.27,363.52L177.52,364.96L177.52,364.96L171.76,365.05L167.65,366.39L166.08,371.4L158.21,371.04L154.84,368.12L150.36,369.37L148.31,367.38L148.31,367.38L147.92,366.84L142.76,367.77L141.28,364.6L139.1,364.02L134.36,365.72L131.71,365.34L131.79,366.22L131.25,365.46L127.7,367.07L116.83,367.16L116.83,367.16L114.18,365.49L111.08,356.45L107.62,354.2L104.67,349.96L102.57,341.65L95.94,330L93.81,323.13L94.84,318.63L96.92,317.08L97.84,314.89L101,312.8L103.34,309.64L103.18,308.34L101.87,307.56L99.04,309.36L96.83,309.44L91.9,308.49L83.8,305.21L78.86,300.75L78.32,298.27L74.24,295.81L72.2,295.9L68.38,297.98L66.69,301.69L66.22,305.45L61.8,308.88L35.74,322.77L34.81,322.92L32.23,320.96L29.66,321.23L21.07,327.42L16.97,331.85L8.22,333.38L5.03,336.16L5.03,336.16L5.59,334.38L4.28,328.58L5.07,325.75L3.71,321.25L5.88,318.94L5.48,315.6L6.17,315.37L7.45,308.95L6.42,306.64L6.96,303.05L12.33,303.23L14.09,301.89L17.64,301.33L19.54,302.6L21.03,302.5L25.98,300.77L28.18,295.13L28.35,291.39L30.26,289.51L28.95,278.26L30.11,276.38L32.58,275L35.99,269.55L36.84,266.45L40.02,266.11L42.11,264.38L40.55,258.67L42.03,256.11L48.78,253.41L53.31,253.35L55.33,251.29L55.45,249.99L57.81,247.4L58.63,240.02L61.56,238.06z"/>
		<path id="NG-LA" title="Lagos" class="land" d="M3.06,463.92L7.72,463.89L9.66,464.78L13.12,462.34L13.53,460.62L30.79,460.96L31.85,459.95L32.62,456L34.7,454.35L34.79,452L36.15,449.49L41.41,451.17L43.42,453.4L47.99,452.92L47.48,451.47L49.07,450.41L86.65,450.8L88.26,451.91L85.53,454.79L86.07,458.43L88.26,459.52L91.48,457.36L94.93,456.95L96.11,459.38L92.19,461.75L91.85,463.48L95.54,464.99L96.67,466.3L103.64,466.51L103.63,470.12L103.63,470.12L79.89,466.46L71.3,466L46.28,467.1L45.23,468.97L33.79,468.16L2.7,469.99z"/>
		<path id="NG-NA" title="Nassarawa" class="land" d="M306.89,287.74L308.98,286.83L310.28,289.5L312.71,289.03L315.15,290.82L319.34,291.63L321.65,289.53L324.24,284.87L326.35,284.91L329.28,287.58L329.6,290.83L333.82,293.27L334.85,294.88L334.8,304.58L336.54,306.85L340.04,305.04L346.38,297.41L349.21,298.88L353.02,299.12L358.36,305.03L358.96,306.93L363.04,306.64L369.82,294.91L370.91,294.34L370.91,294.34L372.6,295.99L377.1,296.95L377.73,301.43L379.66,304.84L387.14,306.38L390.84,306.38L393.61,305.03L396.66,307.8L395.87,310.73L393.17,314.74L388.19,317.97L385.09,322.19L384.77,324.44L387.82,329.83L387.52,335.24L388.96,337.31L397.77,341.32L405.96,341.17L415.72,338.38L426.08,342.71L428.6,344.78L430.06,347.46L430.06,347.46L427.48,351.14L424.74,351.96L418.38,350.83L415.65,348.86L412.51,349.72L410.45,354.72L414.19,358.59L414.89,365.99L402.45,374.59L402.45,374.59L390.66,365.66L390.65,366.36L381.81,366.17L364.86,360.9L359.59,360.64L354.26,363.12L352,367.39L352.08,369.91L356.78,381.55L355.55,384.01L350.22,381.78L346.9,378.98L340.58,378.13L326.95,371.76L309.31,368.03L309.31,368.03L298.03,366.78L290.96,367.48L278.56,370.85L269.3,374.92L265.04,377.87L264.35,377.31L264.52,373.57L266.98,369.78L267.02,365.09L268.19,360.38L267.65,354.21L264.64,349.86L266.79,343.7L266.79,343.7L277.92,341.95L285.46,339.69L292.42,336.05L296.2,331.43L299.11,326.03L300.63,318.08L302.61,312.81L302.73,298L304.84,291.48L306.82,290.18z"/>
		<path id="NG-NI" title="Niger" class="land" d="M64.65,174.17L68.43,174.01L79.47,180.09L84.82,181.8L110.62,180.43L115.86,182.12L124.26,187.82L128.73,188.78L129.04,193.57L126.61,204.28L121.99,208.71L116.59,211.16L113.29,216.42L113.11,222.74L114.23,225.15L117.16,227.81L115.86,237.31L117.28,238.3L121.6,238.76L122.66,232.43L130.08,229.93L133.46,229.67L137.87,225.97L137.4,222L132.48,214.17L132.97,203.21L135.42,202.04L140.42,202.56L149.44,198.95L150.45,197.46L150.52,195.39L146.61,192.4L146.12,190.95L149.18,186.96L148.06,180.4L145.57,179.69L144.52,177.68L139.16,177.15L130.13,172.95L129.1,170.15L130.47,168.08L139.75,163.87L147.62,162.04L157.48,160.45L163.96,161.2L165.65,162.8L166.63,169.31L171.19,173.04L171.66,183.65L173.3,184.9L183.97,184.21L196.07,179.13L200,178.72L201.28,176.52L204.7,173.76L207.91,175.22L207.91,175.22L215.03,186.26L216.55,191.19L216.55,191.19L213.51,196.57L213.11,201.36L214.69,205.22L213.95,207.22L214.19,211.03L212.35,212.83L212.02,215.14L212.24,216.51L215.29,218.51L216.51,222.03L217.94,222.63L219.35,221.74L224.73,214.73L230.32,210.23L234.88,208.12L237.79,207.99L239.85,211.65L247.48,208.79L251.45,209.35L252.09,208.37L251.42,205.98L252.6,204.78L257.33,205.28L258.42,207.71L258.7,212.21L263.95,212.12L265.93,215.92L264.53,222.63L272.59,226.04L271.26,229.81L267.02,232.41L261.47,238.17L262.5,240.15L264.21,241.81L270.88,244.3L283.75,244.22L285.45,245.9L286.63,257.93L286,259.44L282.77,259.85L281.6,260.91L282.9,262.59L286.52,263.95L285.69,266.97L288.69,268.59L289.27,270.47L286.18,273.64L285.58,276.43L282.34,278.59L281.69,281.84L285.08,284.62L283.7,288.75L287.39,288.57L287.39,288.57L278.74,300.91L277.8,301.15L268.61,293.05L266.85,292.42L252.8,293.6L252.73,338.84L254.68,343.75L257.93,344.01L257.93,344.01L256.81,347.26L253.24,349L253.18,351.97L251.54,351.44L249.68,356.86L247.72,356.96L239.53,347.15L233.11,342.16L230.56,333.91L227.79,329.59L224.27,326.34L219.3,324.19L219.3,324.19L211.04,322.48L200.13,323.7L193.37,322.78L185.79,316.91L174.02,309.59L165.13,307.44L161.17,308.6L158.92,307.91L152.57,300.68L144.8,296.57L131.23,300.3L129.34,298.98L127.7,291.42L123.59,290.48L119.72,287.05L119.13,280.6L118.29,279.86L109.42,280.26L108.54,276.58L108.94,263.61L106.2,263.31L103.91,261.73L82.33,236.29L78.71,235.36L62.01,236.63L62.01,236.63L62.5,233.61L58.44,230.89L56.69,227.35L59.77,220.38L59.63,218.69L63.1,216.22L69.18,219.41L70.43,213.3L73.25,206.87L72.59,200.67L69.9,198.77L66.93,193.17L68.27,186.53L67.04,181.48L64.91,180.66L65.56,174.81z"/>
		<path id="NG-OG" title="Ogun" class="land" d="M0.61,375.66L6.58,371.37L10.07,371.16L11.97,372.09L13.62,375.31L13.77,381.79L15.64,386.32L16.48,386.45L17.99,379.64L19.83,379.19L20.71,379.8L21.09,384.64L19.35,390.62L18.43,390.95L18.95,394.61L24.12,399.59L25.14,402.63L28.34,407.14L33.69,410.63L39.48,410.42L42.26,406.45L43.4,402.21L45.02,400.73L47.62,401.02L49.37,405.36L50.96,406.49L55.58,404.52L61.78,404.74L62.95,406.63L63.28,412.29L67.31,415.32L68.72,423.11L64.75,427.12L64.79,428.53L76.62,427.83L81.31,425.22L87.2,424.34L87.2,424.34L91.34,422.15L92.8,423.38L93.39,427.66L95.36,427.65L99.21,425.67L102.6,426.26L105.57,433.37L108.63,431.41L110.88,432.08L117.16,430.9L117.17,432.04L117.17,432.04L115.36,440.8L107.32,447.15L104.34,452.07L104.37,455.48L106.38,457.45L113.02,458.13L116.09,454.8L117.85,454.29L118.5,455.07L119.33,463.11L118.61,464.92L116.17,465.58L114.28,467.4L111.88,467.51L110.56,468.85L114.33,469.03L117.63,470.77L117.84,471.85L117.02,473.57L113.01,473.29L113.01,473.29L103.63,470.12L103.63,470.12L103.64,466.51L96.67,466.3L95.54,464.99L91.85,463.48L92.19,461.75L96.11,459.38L94.93,456.95L91.48,457.36L88.26,459.52L86.07,458.43L85.53,454.79L88.26,451.91L86.65,450.8L49.07,450.41L47.48,451.47L47.99,452.92L43.42,453.4L41.41,451.17L36.15,449.49L34.79,452L34.7,454.35L32.62,456L31.85,459.95L30.79,460.96L13.53,460.62L13.12,462.34L9.66,464.78L7.72,463.89L3.06,463.92L3.06,463.92L3.48,460.64L5.24,457.92L3.9,454.18L7.31,450.22L7.51,447.48L7.3,446.52L5.16,446.24L3.97,444.99L5.14,436.74L4.92,435.76L3.08,435.01L3.23,432.15L7.69,428.76L4.75,425.57L7.21,421.45L6.55,416.79L5.02,415.13L4.9,405.44L7.27,405.36L8.13,404.16L7.71,400.66L5.03,398.62L3.83,395.34L3.78,382.18L0,376.13z"/>
		<path id="NG-ON" title="Ondo" class="land" d="M194.57,384.42l4.62,-0.88l2.51,0.43l-0.71,4.14l7.01,7.65l0,0l-2.45,3.49l-2.45,0.46l-1.41,1.72l0.22,2.22l2.02,0.82l-0.88,2.89l1.2,2.77l-1.43,3.54l-3.91,2.88l-3.61,11.01l-2.75,2.4l-0.62,4.63l1.34,2.09l-0.88,0.51l-0.01,1.63l-1.44,-0.25l-2.46,8.34l-2.68,1.03l-2,-1.83l-1.34,-0.12l-4.51,3.19l-2.1,-5.46l2.01,-2.25l-1.74,-2.09l-17.66,-0.44l-2.2,1.01l-2.29,5.69l-3.93,3.45l-1.2,7.01l2.63,2.92l0.22,3.17l-2.57,3.67l-0.85,3.74l-3.53,1.48l-1.76,4.32l3.1,2.48l1.65,2.94l2.88,1.13l1.24,2.26l-0.39,1.16l0,0l-6.9,16.74l0,0l-14.03,-15.18l-17.52,-13.62l0,0l4,0.28l0.83,-1.73l-0.21,-1.07l-3.3,-1.74l-3.77,-0.18l1.32,-1.35l2.4,-0.1l1.89,-1.82l2.44,-0.66l0.72,-1.82l-0.83,-8.04l-0.64,-0.78l-1.77,0.51l-3.07,3.33l-6.63,-0.68l-2.01,-1.96l-0.03,-3.41l2.98,-4.92l8.03,-6.35l1.81,-8.76l0,0l2.67,-1.42l2.15,-4.97l4.29,-3.44l2.32,-0.02l5.42,3.47l1.81,0.03l0.81,-5l-0.46,-3.98l1.56,-6.54l6.7,-2.16l-0.62,-2.4l0,0l4.55,-1.45l14.75,0.12l1.55,0.53l1.42,2.21l1.96,6.74l2.28,0.59l5.53,-3.5l3.04,-4.43l4.54,-14.16l4.58,-3.93l0.85,-2.06l1.86,-0.38l1.5,1.24L194.57,384.42z"/>
		<path id="NG-OS" title="Osun" class="land" d="M116.83,367.16L127.7,367.07L131.25,365.46L131.79,366.22L131.71,365.34L134.36,365.72L139.1,364.02L141.28,364.6L142.76,367.77L147.92,366.84L148.31,367.38L148.31,367.38L146.79,372.68L141,376.76L139.1,381.01L139.79,385.22L138.6,389.21L139.29,393.99L143.81,405.59L143.81,405.59L144.43,408L137.73,410.16L136.17,416.7L136.63,420.68L135.82,425.68L134.01,425.65L128.59,422.19L126.27,422.2L121.99,425.65L119.84,430.61L117.17,432.04L117.17,432.04L117.16,430.9L110.88,432.08L108.63,431.41L105.57,433.37L102.6,426.26L99.21,425.67L95.36,427.65L93.39,427.66L92.8,423.38L91.34,422.15L87.2,424.34L87.2,424.34L91.64,400.49L84.34,391.86L86.13,388.13L87,378.86L91.9,379.92L94.22,379.17L95.13,375.88L99,371.99L102.01,373.83L105.6,379.39L107.73,378.46L111.41,374.48L116.06,372.98L117.36,370.36z"/>
		<path id="NG-OY" title="Oyo" class="land" d="M5.03,336.16L8.22,333.38L16.97,331.85L21.07,327.42L29.66,321.23L32.23,320.96L34.81,322.92L35.74,322.77L61.8,308.88L66.22,305.45L66.69,301.69L68.38,297.98L72.2,295.9L74.24,295.81L78.32,298.27L78.86,300.75L83.8,305.21L91.9,308.49L96.83,309.44L99.04,309.36L101.87,307.56L103.18,308.34L103.34,309.64L101,312.8L97.84,314.89L96.92,317.08L94.84,318.63L93.81,323.13L95.94,330L102.57,341.65L104.67,349.96L107.62,354.2L111.08,356.45L114.18,365.49L116.83,367.16L116.83,367.16L117.36,370.36L116.06,372.98L111.41,374.48L107.73,378.46L105.6,379.39L102.01,373.83L99,371.99L95.13,375.88L94.22,379.17L91.9,379.92L87,378.86L86.13,388.13L84.34,391.86L91.64,400.49L87.2,424.34L87.2,424.34L81.31,425.22L76.62,427.83L64.79,428.53L64.75,427.12L68.72,423.11L67.31,415.32L63.28,412.29L62.95,406.63L61.78,404.74L55.58,404.52L50.96,406.49L49.37,405.36L47.62,401.02L45.02,400.73L43.4,402.21L42.26,406.45L39.48,410.42L33.69,410.63L28.34,407.14L25.14,402.63L24.12,399.59L18.95,394.61L18.43,390.95L19.35,390.62L21.09,384.64L20.71,379.8L19.83,379.19L17.99,379.64L16.48,386.45L15.64,386.32L13.77,381.79L13.62,375.31L11.97,372.09L10.07,371.16L6.58,371.37L0.61,375.66L0.61,375.66L3.74,365.13L3.81,361.31L5.3,356.16L2.86,353.1L1.69,349.11L2.82,345.22L2.38,343.17L4.11,342.17L5.48,339.29L5.79,336.81z"/>
		<path id="NG-PL" title="Plateau" class="land" d="M378.65,223.77L383.36,223.36L386.14,224.24L388.75,228.4L389.53,233.2L389.49,245.58L400.46,243.39L403.32,245.52L404.55,254.59L401.85,261.92L407.16,264.9L409.71,270.13L411.27,271.47L423.05,273.75L433.09,273.16L437.48,271.75L440.37,266.54L445.13,265.24L445.36,261.83L442.19,257.77L442.49,256.33L445.52,254.55L476.02,268.68L488.56,276.15L488.56,276.15L490.12,280.09L490.58,292.28L492.88,296.14L493.93,302.16L493.38,303.49L494.32,311.28L492.54,314.36L480.36,320.22L468.94,322.21L466.45,323.65L464.39,327.84L459.65,333.56L452.54,337.32L444.86,344.97L438.02,347.17L430.06,347.46L430.06,347.46L428.6,344.78L426.08,342.71L415.72,338.38L405.96,341.17L397.77,341.32L388.96,337.31L387.52,335.24L387.82,329.83L384.77,324.44L385.09,322.19L388.19,317.97L393.17,314.74L395.87,310.73L396.66,307.8L393.61,305.03L390.84,306.38L387.14,306.38L379.66,304.84L377.73,301.43L377.1,296.95L372.6,295.99L370.91,294.34L370.91,294.34L372.58,290.4L372.46,286.99L371.46,284.9L367.18,280.61L363.82,274.17L364.87,272.77L364.66,268.03L366.42,266.75L366.82,263.67L369.15,261.05L369.14,249.17L371.87,246.1L369.76,239.76L369.98,237.05L372.11,232.08L377.52,228.39z"/>
		<path id="NG-RI" title="Rivers" class="land" d="M277.37,584.84l-1.44,2.16l-0.62,-0.24l0.22,-1.42L277.37,584.84zM275.38,585.08l-0.71,3.79l-1.75,-0.49l-0.52,1.02l-2.84,-0.04L267.35,575l1.24,-0.51l1.71,3.19l1.7,0.82l-0.58,3.84l2.82,0.67L275.38,585.08zM273.21,572.38zM272.28,569.69zM278.42,582.29l-0.91,-0.17l-1.29,-1.2l-0.41,-3.3l-2.1,-1.43l0.84,-0.65l2.91,1.63l1.44,2.86L278.42,582.29zM288.5,586.31l-1.86,1.49l-5.21,-2.66l1.31,-1.63l2.08,2.62L288.5,586.31zM266.73,580.13l0.4,5l-1.03,-2.28l-2.33,-1.33l0.27,-1.25l0.87,-0.74L266.73,580.13zM283.04,582.09l-2.37,-1.62l-2.06,-4.32l-0.88,0.07l-0.29,-0.38l-2.79,-0.81l-0.88,-1.08l-0.91,-3.1l0.5,-0.79l-0.98,-1.22l-1.15,1.42l0.65,1.54l-5.38,2.95l-0.09,-1.51l-0.58,0.74l1.32,4.61l-1.84,0.65l-3.53,-5.92l-1.5,-0.51l0.56,-1.55l-0.68,-2.22l1.33,-1.29l-0.53,-0.67l-3.61,-1.35l-1.17,2.16l-4.16,-2.04l-0.5,1.73l1.74,1.58l0.86,6.17l3.22,3.31l0.02,1.18l-1.91,2.04l2.37,9.89l2.41,2.48l-7.53,1.01l-2.24,-0.75l-0.88,-9.34l1.94,-3.67l-0.19,-2.67l-0.67,0.15l0,0l-4.64,-2.5l-1.2,-4.38l-1.38,-1.87l-9.57,2.26l0.07,-3.4l-3.81,-2.27l0.07,-4.34l2.66,-4.72l0.03,-1.27l-2.13,-0.62l1.33,-4.44l4.49,-7.84l3.32,-0.33l0.75,-2.49l1.54,-0.79l-0.23,-1.81l2.53,-2.55l-0.03,-1.94l-1.4,-2.12l-1.92,-0.83l-3.98,0.21l0,0l-0.36,-1.48l3.52,-1.81l0.19,-5.3l3.63,-4.66l0.82,-3.18l-0.86,-3.89l0,0l1.11,1.28l2.4,0.21l0,0l-2.75,13.08l4.98,-0.23l2.12,0.78l-0.07,6.28l-1.09,2.76l3.82,6.08l2.16,1.65l8.86,0.26l4.7,1.12l4.15,-1.07l6.64,1.1l2.57,-0.95l0,0l1.2,1.77l0.06,2.78l-5.81,8.52l-1.37,3.71l0.44,2.2l1.45,1.41l1.8,0.27l4.24,-1.22l2.79,-0.12l3.28,1.22l1.81,-0.42l5.29,3.19l0,0l2.58,5.8l-0.96,4.27l0.65,6.68l0,0l-1.22,0.77l-1.01,-1.7l-1.77,-0.53l-1.65,1.64l-1.93,-0.22l-1.5,-2.36l-1.27,0.96l-4.59,-2.55l-1.7,1.63l0.62,2.11l1.01,1.2l2.2,-0.46l-0.17,1.75l-3.22,0.7L283.04,582.09zM304.25,588.8l-10.11,1.06l-5.47,-0.77l0.69,-2.4l2.2,-1.11l-2.41,-0.22l-0.59,-2.04l-1.26,-1.16h-1.72l0.02,-0.79l0.71,-0.82l3.49,1.31l1.07,0.13l1.2,-0.5l1.68,1.97l1.85,0.09l2.8,-1.23l1.15,1.88l1.32,-0.65l0.53,2.03l1.14,0.02l0,0l0.02,0.02l0,0l1.99,0.79L304.25,588.8zM255.88,568.33l1.71,-0.96l0.08,-1.12l2.89,1.53l-0.96,1.17l0.7,2.17l-0.63,1.52l2.49,2.3l2.07,4.36l-1.19,2.36l3.15,1.85l1.84,7.21l1.48,1.13l-1.12,1.39l-2.42,0.27l-6.38,-1.39l-0.81,-2.54l0.53,-0.62l-2.77,-5.77l0.1,-2.06l1.63,-1.56l-0.17,-1.35l-3.49,-2.81l-1,-6.24l-0.8,-1.3l1.24,-0.74L255.88,568.33z"/>
		<path id="NG-SO" title="Sokoto" class="land" d="M178.08,0.5L190.96,6.18L211.49,13.43L215.49,15.78L220.13,14.29L223.78,14.27L232.32,18.39L248.2,33.95L254.18,44.37L254.18,44.37L244.05,50.97L234.54,49.69L228.67,46.3L223.7,46.11L222.38,53.48L219.18,52.26L216.39,52.26L211.54,53.82L209.32,56.34L210.17,69.92L204.78,72.56L188.67,74.3L182.84,82.88L177.89,86.66L180.03,98.43L179.29,101.46L176.83,103.16L157.53,104.06L148.2,102.39L147.28,102.99L146.35,107.5L145.79,139.49L145.79,139.49L143.23,140.39L142.46,138.64L140.42,139.36L136.84,138.62L124.84,144.07L120.73,148.42L117.19,147.62L114.64,143.97L118.41,133.57L120.53,123.78L119.74,110.73L119.88,100.79L120.89,97.01L122.17,95.53L126.12,94.35L128.8,94.33L131.97,96.37L132.99,96.33L133.63,94.77L133.87,86.75L132.15,79.19L133.63,69.81L129.97,63.38L131.72,54.3L133.34,50.37L132.94,49.12L131.86,48.24L130.7,48.55L128.21,52.24L125.76,53.23L110.19,47.36L103.53,42.01L98.9,43.59L97.04,42.85L90.42,42.99L90.42,42.99L90.51,26.55L94.65,26.53L111.21,11.95L136.33,6.94L138.74,9.08L161.08,9.24L166.33,2.98L176.93z"/>
		<path id="NG-TA" title="Taraba" class="land" d="M488.56,276.15L493.15,273.5L499,274.28L509.59,269.43L520.02,270.55L520.02,270.55L523.59,271.26L548.32,270.21L548.32,270.21L555.23,282.31L561.96,284.68L567.22,294.5L567.1,300.51L569.76,303.45L573.9,304.92L576.18,310.57L575.18,314.19L569.19,325.63L569.13,333.49L563.01,338.71L554.38,350.23L545.5,358.93L540.54,365.29L543.06,372.02L545.97,376.72L548.68,379.17L551.4,377.18L554.23,373.17L555.87,372.79L558.81,374.34L565.63,381.33L568.82,385.95L568.24,391.44L571.25,402.89L572.47,403.77L572.47,403.77L567.53,409.25L565.55,414.11L565.93,420.03L568,426.76L567.02,427.49L560.24,427.66L560.06,429.3L556.8,431.98L554.89,432.41L553.8,436.62L551.68,437.27L550.31,439.99L551.77,440.88L551.86,442.65L552.93,443.65L551.32,445.23L552.18,447.79L550.26,448.9L550.04,452.12L548.01,455.47L546.2,456.25L544.43,455.42L542.59,456.11L542.41,459.36L537.8,460.76L537.6,462.13L533.2,459.92L530.95,460.93L525.85,458.35L524.05,459.81L522.02,459.73L522.26,451L520.23,448.84L517.99,448.73L515.63,450.87L510.93,449.54L508.32,443.97L505.93,443.09L504.62,440.98L506.16,435.46L503.5,433.62L502.01,433.42L501.41,434.16L499.72,432.01L496.42,430.25L496.06,428.73L492.94,428.2L491.09,426.62L491.21,422.6L489.56,421.29L487.49,434.96L484.6,437.4L483.02,436.54L467.33,438.06L464.69,434.98L465.31,433.23L464.34,429.18L463.45,428.86L452.17,439.1L446.43,445.57L440.49,443.92L438.75,449.61L438.83,452.71L435.86,461.27L433.36,461.69L432.33,460.37L431.89,460.83L431.89,460.83L433.79,452.64L434.15,442.8L433.54,442.07L435.65,430.57L438.96,424.41L446.41,417.79L446.12,411.87L448.5,405.98L448.79,399.93L447.76,397.92L439.39,390.35L429.81,379.8L422.33,378.03L414.15,377.55L406.68,378.5L400.56,381.13L398.66,380.56L402.45,374.59L402.45,374.59L414.89,365.99L414.19,358.59L410.45,354.72L412.51,349.72L415.65,348.86L418.38,350.83L424.74,351.96L427.48,351.14L430.06,347.46L430.06,347.46L438.02,347.17L444.86,344.97L452.54,337.32L459.65,333.56L464.39,327.84L466.45,323.65L468.94,322.21L480.36,320.22L492.54,314.36L494.32,311.28L493.38,303.49L493.93,302.16L492.88,296.14L490.58,292.28L490.12,280.09z"/>
		<path id="NG-YO" title="Yobe" class="land" d="M526.07,32.72L538.52,32.91L548.08,34.11L558.84,38.29L570.53,40.84L584.13,50.52L585.71,50.66L587.01,49.56L588.66,50.21L589.28,49.69L588.73,48.51L591.92,49.61L593.58,49.19L595.04,50.97L596.08,50.35L601.59,51.57L601.59,51.57L600.02,63.8L601.25,67.65L607.5,73.31L607.98,77.05L603.77,84.34L596.71,90.65L596.16,92.85L597.88,96.68L597.83,102.47L595.16,122.26L596.85,129.7L592.13,138.84L592.92,141.14L597.83,140.93L600.96,144.68L601.8,148.01L590.08,163.8L589.18,166.66L589.74,176.72L587.65,179.8L581.54,183.45L570.33,186.47L567.67,188.39L565.34,193.99L565.62,202.38L562.21,206.91L559.17,207.6L559.17,207.6L552.09,207.1L551.32,200.65L552.52,188.8L551.85,183.93L548.17,180.55L546.59,181.57L547.59,180.03L539.42,170.05L530.93,163.79L525.77,161.49L521.73,161.32L516.65,163.71L516.65,163.71L513.61,163.34L511.98,161.81L514.25,147.39L505.9,126.48L504.21,110.46L501.05,105.8L500.47,96.91L499.33,93.98L491.59,87.79L491.59,87.79L488.96,73.36L486.75,69.96L484.9,69.08L482.87,69.69L477.88,67.47L470.9,70.05L466.62,58.39L464.41,57.14L452.1,61.1L446.78,63.69L444.68,67.68L441.54,69.48L435.54,68.75L433.75,67.57L433.75,67.57L453.65,46.11L466.68,39.51L482.74,38.57L495.29,33.87z"/>
		<path id="NG-ZA" title="Zamfara" class="land" d="M258.24,50.54L263.69,57.06L272.11,56.34L272.11,56.34L270.67,67.16L271.59,79.38L272.98,89.3L274.29,92.51L273.89,96.08L276.39,101.28L277.9,108.48L276.81,113.64L274.99,117.27L281.46,121.93L283.12,125.31L281.23,126.93L277.89,126.12L277.34,129.32L272.46,133.29L271.18,132.42L264.57,132.55L263.07,133.39L260.41,145.29L262.48,148.26L263.38,151.95L262.11,160.38L262.11,160.38L261.1,160.35L255.16,165.64L251.3,175.83L248.26,178.93L245.93,180.44L241.22,181.06L233.28,180.49L227.64,181.44L222.37,186.15L219.51,190.31L216.55,191.19L216.55,191.19L215.03,186.26L207.91,175.22L207.91,175.22L206.32,162.16L204.39,159.15L199.01,156.44L201.06,148.75L201.07,146.28L199.66,144.13L195.31,142.36L190.46,141.74L186.75,143.14L182.96,142.64L177.49,143.4L173.84,140.99L170.97,140.88L168.2,137.01L164.59,137.66L160.8,136.86L159.74,137.48L158.92,139.8L152.58,141.26L148.47,139.01L145.79,139.49L145.79,139.49L146.35,107.5L147.28,102.99L148.2,102.39L157.53,104.06L176.83,103.16L179.29,101.46L180.03,98.43L177.89,86.66L182.84,82.88L188.67,74.3L204.78,72.56L210.17,69.92L209.32,56.34L211.54,53.82L216.39,52.26L219.18,52.26L222.38,53.48L223.7,46.11L228.67,46.3L234.54,49.69L244.05,50.97L254.18,44.37L254.18,44.37z"/>
	</g>
</svg>