<?xml version="1.0" encoding="utf-8"?>
<!-- (c) ammap.com | SVG map of Nigeria - High -->
<svg xmlns="http://www.w3.org/2000/svg" xmlns:amcharts="http://amcharts.com/ammap" xmlns:xlink="http://www.w3.org/1999/xlink" version="1.1">
	<defs>
		<style type="text/css">
			.land
			{
				fill: #CCCCCC;
				fill-opacity: 1;
				stroke:white;
				stroke-opacity: 1;
				stroke-width:0.5;
			}
		</style>

		<amcharts:ammap projection="mercator" leftLongitude="2.667421" topLatitude="13.892750" rightLongitude="14.680752" bottomLatitude="4.269658"></amcharts:ammap>

		<!-- All areas are listed in the line below. You can use this list in your script. -->
		<!--{id:"NG-AB"},{id:"NG-AD"},{id:"NG-AK"},{id:"NG-AN"},{id:"NG-BA"},{id:"NG-BE"},{id:"NG-BO"},{id:"NG-BY"},{id:"NG-CR"},{id:"NG-DE"},{id:"NG-EB"},{id:"NG-ED"},{id:"NG-EK"},{id:"NG-EN"},{id:"NG-FC"},{id:"NG-GO"},{id:"NG-IM"},{id:"NG-JI"},{id:"NG-KD"},{id:"NG-KE"},{id:"NG-KN"},{id:"NG-KO"},{id:"NG-KT"},{id:"NG-KW"},{id:"NG-LA"},{id:"NG-NA"},{id:"NG-NI"},{id:"NG-OG"},{id:"NG-ON"},{id:"NG-OS"},{id:"NG-OY"},{id:"NG-PL"},{id:"NG-RI"},{id:"NG-SO"},{id:"NG-TA"},{id:"NG-YO"},{id:"NG-ZA"}-->

	</defs>
	<g>
		<path id="NG-AB" title="Abia" class="land" d="M290.66,491.93L291.26,492.7L296.09,491.81L298.8,492.08L300.85,493.42L301.18,494.88L301.18,494.88L301.25,499.24L300.7,502.1L300.75,502.83L301.69,503.86L315.78,504.72L317.02,506.58L317.24,508.77L317.94,509.81L321.15,512.14L322.49,512.35L322.49,512.35L323.57,513.64L322.98,517.36L323.13,521.14L324.5,525.77L325.23,527.45L326.94,529.45L327.7,532L327.1,533.21L323.68,532.45L323.68,532.45L320.99,529.84L318.45,529L315.69,526.86L315.11,524.75L313.92,523.28L310.52,522.37L308.1,522.51L307.82,523.42L308.35,526.93L306.51,532.03L306.83,532.48L309.06,532.32L308.36,534.76L307.63,535.66L301.55,535.5L300.45,536.48L300.38,537.23L301.45,539.17L300.24,544.98L300.21,547.38L300.87,549.87L299.7,552.76L297.18,554.7L297.27,555.47L296.8,556.11L297.02,557.58L297.61,558.25L297.63,559.42L296.96,561.04L298.75,564.41L298.88,566.26L298.88,566.26L296.52,564.47L293.58,563.06L291.78,563.49L288.5,562.27L285.71,562.39L284.6,563.03L281.47,563.61L279.67,563.34L278.22,561.93L277.63,560.83L277.79,559.73L279.16,556.03L282.58,551.7L284.97,547.51L284.92,544.73L284.26,543.01L283.72,542.96L283.72,542.96L286.81,532.71L288.91,528.84L290.73,527.16L291.91,524.12L292.8,523.22L293.23,521.21L292.87,517.76L293.15,515.71L291.64,513.27L292.87,512.5L292.49,504.03L292.02,502.68L290.98,501.23L285.64,499.45L283.63,497.76L283.63,497.76L284.9,495.54L286.26,494.24z"/>
		<path id="NG-AD" title="Adamawa" class="land" d="M682.29,187.44L682.16,189.27L681.34,191.03L680.32,192.6L679.22,193.43L677.45,196.33L676.09,201.22L673.43,203.67L672.95,204.77L672.34,207.78L673.06,211.39L673.83,212.45L673.83,214.15L672.22,215.81L671.96,220.42L670.99,222.09L671.12,225.54L670.34,227.48L668.29,230.05L668.03,233.07L666.42,234.11L664.98,236.72L659.11,237.88L654.93,243.76L655.08,244.74L656.62,246.36L656.66,247L655.51,249.74L653.66,251.13L653.63,252.9L654.32,254.5L657.01,255.83L658.02,257.42L655.86,260.51L655.73,262.76L655.19,264.05L655.46,265.16L654.38,266.63L654.71,267.41L654.49,268.82L654.92,269.45L654.18,271.65L653.16,273.29L652.19,273.16L650.49,274.48L642.48,275.3L639.73,277.46L638.11,277.75L634.35,281.14L630.59,283.12L630.68,284.46L633.05,284.73L633.54,285.15L633.63,292.63L632.9,293.32L632.07,297.73L632.91,299.8L631.75,303.83L632.05,305.15L629.24,309.95L626.6,312.25L626.59,313.25L627.3,314.24L626.48,316.29L627.75,320.21L626.62,322.06L625.53,322.44L623.86,322.21L622.4,322.75L621.83,323.85L621.67,326.58L620.69,327.32L619.7,329.17L617.52,329.36L614.12,332.12L613.29,332.24L607.41,330.6L606.75,331.26L606.51,332.97L605.33,334.13L604.52,337.18L602.75,339.52L600.42,339.66L599.3,340.55L596.83,340.27L594.98,341.48L593.07,341.81L592.35,342.63L591.67,346.67L593.11,351.89L593.69,357.66L593.63,358.7L592.86,359.26L590.43,363.77L591.05,366.28L591.27,370.01L587.14,376.36L583.65,379.45L581.89,382.46L581.41,384.46L580.29,385.93L579.88,389.38L578.77,390.94L579.46,397.08L580.11,398.88L577.18,400.36L575.22,400.63L572.47,403.77L572.47,403.77L571.25,402.89L571.3,401.33L569.36,396.71L568.98,393.17L568.24,391.44L568.82,385.95L567.78,383.93L565.63,381.33L561.31,377.49L558.81,374.34L557.29,373.22L555.87,372.79L554.23,373.17L551.4,377.18L548.68,379.17L545.97,376.72L543.06,372.02L540.54,365.29L541.36,363.71L545.5,358.93L549.3,355.71L554.38,350.23L563.01,338.71L569.13,333.49L569.57,331.41L569.19,325.63L575.18,314.19L576.18,310.57L575.92,308.76L573.9,304.92L569.76,303.45L567.1,300.51L566.76,296.67L567.22,294.5L561.96,284.68L559.88,283.39L555.23,282.31L553.77,280.39L548.32,270.21L548.32,270.21L554.52,269.3L557.89,267.87L567.29,262.21L573.04,258.21L574.14,255.88L573.62,252.18L574.3,241.95L574.3,241.95L580.64,242.92L583.34,242.73L587.91,241.41L589.65,240.34L591.35,238.44L595.08,232.89L601.28,225.83L603.79,224.96L610.08,224.47L615.98,222.25L618.42,219.63L619.24,216.97L622.56,216.83L624.91,215.69L627.13,211.99L629.23,209.83L631.74,208.36L640.26,209.15L643.13,210.18L645.71,211.73L648.55,214.84L650.98,215.99L653.36,217.01L657.75,217L658.89,215.78L660.37,208.02L663.08,202.34L664.3,198.7L665.18,194.6L665.46,186.59L668.55,186.16L669.17,186.9L672.92,188.04L676.78,187.75L682.4,186.01L682.4,186.01z"/>
		<path id="NG-AK" title="Akwa Ibom" class="land" d="M302.56,585.59v0.01l0,0l-0.02,-0.02l0,0L302.56,585.59zM310.13,584.89l0.97,0.5l0.92,-0.19l0.88,-0.14l0.33,0.28l-3.58,0.75l-0.49,-0.59L310.13,584.89zM350.44,577.33l0.88,2.09l-0.76,0.82l-1.07,0.22l-0.22,-1.24l0.56,-0.1l0.35,-0.9L350.44,577.33zM298.88,566.26l-0.12,-1.85l-1.79,-3.36l0.67,-1.63l-0.02,-1.17l-0.59,-0.67l-0.22,-1.47l0.47,-0.65l-0.09,-0.77l2.52,-1.94l1.18,-2.89l-0.66,-2.49l0.02,-2.41l1.21,-5.81l-1.07,-1.94l0.07,-0.75l1.1,-0.98l6.09,0.16l0.73,-0.9l0.7,-2.44l-2.23,0.16l-0.32,-0.45l1.84,-5.1l-0.53,-3.51l0.29,-0.91l2.42,-0.14l3.4,0.91l1.19,1.47l0.58,2.11l2.75,2.14l2.54,0.84l2.69,2.61l0,0l-0.85,0.1l-1.15,2.45l0.66,1.79l0.84,0.31l0.78,1.94l4.77,-0.56l4.96,2.68l0.4,2.1l-0.61,6.1l1.63,5.13l3.41,4.91l3.19,2.8l3.77,4.33l3.67,2.81l0.59,1.01l0,0l-0.43,2.16l0.79,0.44l0.03,2.5l-0.5,0.45l-0.41,-0.67l-0.07,0.58l1.19,1.17l-0.6,1.8l-0.74,0.19l0.1,1.03l-1.03,1.15l0.24,0.17l-1.05,2.38l-5.23,-0.63l-5.74,-0.07l-10.71,0.55l-12.05,1.68l-0.52,-0.46l-1.82,0.36l-0.93,-0.48l-0.88,0.36l-0.95,-0.09l-0.02,0.03l0.5,0.81l0.27,0.43l-3.32,1.32l-0.98,-1.7l-1.17,-0.65l-0.86,-0.19l-0.96,-1.06l0.38,-0.91l-0.09,-0.12l-0.53,0.5l-0.5,-0.38l0,0l-0.61,-1.17l0.04,-0.64l0.51,-0.32l-0.58,-4.55l0.96,-4.27l-0.63,-2.3L298.88,566.26z"/>
		<path id="NG-AN" title="Anambra" class="land" d="M262.32,445.18L262.76,445.58L262.85,449.2L266.68,449.07L269.12,450.48L271.17,450.56L274.9,452.26L275.26,453.05L274.01,456.5L273.26,457.58L271.57,458.72L269.72,461.2L269.96,462.16L269.34,462.99L268.91,465.34L269.3,465.88L273.15,467.04L274.57,468.84L275.91,472.48L277.22,474.33L276.92,475.29L276.1,475.58L276.51,476.95L276.01,478.57L276.73,479.31L278.62,478.18L279.23,478.31L279.82,480.89L281.15,481.52L280.8,483.67L282.68,487.46L282.86,488.97L283.62,489.95L286.01,491.35L287.67,490.39L288.75,490.48L289.87,491.22L289.83,491.76L290.66,491.93L290.66,491.93L286.26,494.24L284.9,495.54L283.63,497.76L283.63,497.76L278.31,499.18L272.93,497.93L266.62,499.09L264.84,500.13L263.91,503.68L261.54,508.29L258.86,508.56L254.35,506.64L252.73,507.44L249.73,511.27L247.64,512.1L247.64,512.1L245.24,511.89L244.13,510.61L244.13,510.61L245.14,509.44L247.06,505.54L247.4,502.9L249.17,498.21L251.67,493.66L252.05,487.65L253.33,484L252.1,480.23L250.62,472.94L250.7,471.57L249.57,470.44L247.44,460.87L247.44,460.87L247.37,460.58L247.37,460.58L249.04,459.81L252.63,460.47L254.06,459.58L255.9,457.07L255.96,454.34L257.2,450.22L259.44,447.91L260.98,447.05z"/>
		<path id="NG-BA" title="Bauchi" class="land" d="M491.59,87.79L499.33,93.98L500.47,96.91L501.24,103.99L501.05,105.8L504.21,110.46L504.42,117.2L504.75,119.9L505.7,122.61L505.9,126.48L514.25,147.39L514.02,152.31L512.97,155.03L511.98,161.81L513.61,163.34L516.65,163.71L516.65,163.71L515.85,163.95L513.14,167.71L507.1,170.99L504.53,174.69L502.52,176.44L501.03,177.2L497.12,178.08L495.68,179.44L494.3,181.47L493.33,186.41L490.72,193.84L487.11,198.91L486.91,200.29L494.29,203.28L495.43,204.99L496.3,212.14L497.18,213.29L504.38,215.91L506.46,220.85L505.98,229.48L506.38,232.34L505.55,234.1L501.65,234.73L499.66,235.65L498.35,237.56L498.68,239.18L502.97,243.56L505.47,244.97L514.62,252.06L515.85,255.85L516.46,262.04L519.04,267.32L520.73,269.44L520.6,270.39L520.02,270.55L520.02,270.55L516.03,270.52L509.59,269.43L499,274.28L493.15,273.5L488.56,276.15L488.56,276.15L482.2,272.72L476.02,268.68L464.95,263.94L455.69,259.01L453.12,258.5L445.52,254.55L442.49,256.33L442.19,257.77L445.36,261.83L445.63,263.57L445.13,265.24L440.37,266.54L437.48,271.75L433.09,273.16L423.05,273.75L417.58,272.27L412.78,272L411.27,271.47L409.71,270.13L408.06,266.06L407.16,264.9L406.37,264.19L402.45,262.77L401.85,261.92L401.94,260.23L404.32,255.76L404.55,254.59L404.29,248.65L403.32,245.52L401.52,243.6L400.46,243.39L389.49,245.58L389.53,233.2L388.75,228.4L386.14,224.24L383.36,223.36L380.18,223.28L378.65,223.77L378.65,223.77L376.12,221.06L373.33,219.31L373.06,218.58L375.41,214.38L375.94,210.42L375.94,210.42L376.93,209.86L379.52,205.77L380.85,201.92L380.77,199.92L380,198.25L376.14,193.92L375.69,191.93L375.29,185.04L375.74,181.54L377.34,176.97L378.36,176.54L381.06,176.7L383.1,176.19L385.84,172.98L388.49,168.87L393.23,164.7L393.9,163.6L396.38,162.03L398.07,161.73L399.21,162.8L400.35,162.89L405.87,160.72L405.87,160.72L406.87,160.53L412.87,161.63L420.3,164.04L423.65,162.58L425.95,163.31L427.73,166.98L430.86,167.19L438.56,166.71L442.13,165.8L443.27,166.1L445.94,171L446.48,173.15L445.65,181L446.46,183.05L447.81,184.41L453.51,185.6L459.11,184.21L460.67,184.38L462.53,185.74L464.99,186.36L466.85,185.79L465.74,182.36L465.78,180.56L467.31,178.65L469.84,177.29L473.88,176.3L475.32,175.52L477.17,174.13L478.27,171.41L477.23,169.95L468.36,169.39L462.64,168.12L456.25,167.35L453.26,165.5L447.96,158.08L446.91,155.58L446.44,153.01L442.6,153.95L441.42,152.84L440.87,151.1L443.38,146.1L442.86,141.78L441.4,137.36L439.59,136.86L436.84,137.13L434.72,138.16L432.11,138.2L430.76,137.57L431.25,133.31L434.47,128.77L440.63,128.31L446.1,125.27L457.04,121.54L463.27,119.03L464.46,118.09L464.43,115.84L463.86,113.96L470.57,93.37L475.11,91.42L478.59,90.87L479.58,91.69L480.41,93.33L480.53,94.72z"/>
		<path id="NG-BE" title="Benue" class="land" d="M309.31,368.03L318.44,370.51L326.95,371.76L335.66,375.31L340.58,378.13L345.83,379.12L346.9,378.98L350.22,381.78L355.55,384.01L356.69,382.91L356.78,381.55L352.08,369.91L352,367.39L353.02,364.53L354.26,363.12L358.21,360.92L359.59,360.64L362.18,360.46L364.86,360.9L374.95,364.62L381.81,366.17L386.69,366.58L390.65,366.36L390.66,365.66L402.45,374.59L402.45,374.59L398.66,380.56L400.56,381.13L406.68,378.5L414.15,377.55L422.33,378.03L429.81,379.8L434.95,384.7L439.39,390.35L447.76,397.92L447.62,398.57L448.79,399.93L448.53,400.97L449.09,402.75L448.5,405.98L446.12,411.87L446.41,417.79L445.49,419.22L442.4,421.16L438.96,424.41L435.65,430.57L433.54,442.07L434.15,442.8L433.82,443.88L433.79,452.64L431.89,460.83L431.89,460.83L431.17,461.13L429.05,460.4L428.27,461.82L428.37,463.82L425.55,465.56L423.76,465.78L420.98,465.34L420.98,465.34L420.33,463.79L415.45,457.16L409.92,451.43L408.43,450.71L405.34,450.49L395.77,452.73L391.39,452.29L390.18,451.4L390.84,446.63L390.28,444.99L381.64,439.61L376.21,437.92L374.1,437.85L371.79,438.44L369.68,439.11L368.16,440.31L368.93,444.81L365.79,446.73L362.66,447.56L358.82,447.42L356.76,446.75L354.84,447.2L353.48,448.95L351.12,450.91L348.13,451.4L348.13,451.4L346.43,449.13L345.59,444.87L343.83,443.57L342.81,445.88L339.4,446.25L337.63,449.13L335.71,450.06L332.76,449.81L329.31,450.21L328.06,458.44L327.07,460.49L325.66,461.08L323.88,460.34L319.87,456.66L319.22,455.12L319.39,454.21L319.39,454.21L321.67,447.79L320.77,442.17L319.35,440.03L317.83,438.88L315.02,438.53L312.81,440.64L310.71,441.37L307.79,439.85L304.21,437.09L301.32,433.74L298.58,427.23L298.71,426.7L298.71,426.7L299.12,426.2L299.96,426.78L303.33,430.07L304.15,429.97L305.5,431.02L307.26,431.02L307.6,426.6L308.56,425.16L315,422.04L318.3,418.93L320.24,413.1L320.66,409.17L321.13,407.88L322.36,406.67L322.72,404.86L321.24,404.39L317.93,404.71L316.66,403.66L315.42,398.13L314.85,391.32L314.84,384.42L314.11,382.57L311.41,379.96L309.53,376.74L308.99,370.87z"/>
		<path id="NG-BO" title="Borno" class="land" d="M661.8,11.35L662.5,17L661.67,20L665.16,26.26L664.96,28.78L664.5,29.27L664.78,27.1L663.74,28.43L663.52,30.35L665.9,32.9L668.36,33.51L667.71,34.18L667.99,34.72L668.77,34.91L673.23,42.44L676.06,45.52L677.11,45.74L678.83,46.7L680.46,47.9L684.33,48.65L684.59,49.51L684.01,49.5L683.45,50.6L683.25,49.56L682.59,50.14L681.85,50.1L683.29,51.7L683.56,53.46L687.44,52.3L689.75,49.69L692.22,47.67L693.82,47L692.74,48.76L692.89,49.21L693.54,49.02L694.11,51.36L693.78,51.58L693.11,50.2L692.26,50.68L691.69,51.91L689.67,52.48L690.34,54.36L689.15,55.49L687.29,59.22L687.7,59.99L689.07,59.54L689,61.98L688.42,63.13L689.27,63.17L688.93,64.53L687.78,66.07L688.18,66.64L689.75,66.21L690.04,66.76L687.41,68.15L689.38,68.65L689.23,69.54L690.43,69.59L689.68,70.44L688.36,70.77L688.48,71.19L689.72,70.96L689.84,71.56L689.36,72L689.13,71.63L688.12,71.86L688.36,72.61L689.1,72.49L688.25,74.16L689.76,74.37L689.98,75.71L689.41,76.45L689.67,77.7L690.64,77.92L691.17,79.13L690.93,80.28L692.88,80.83L693.22,82.29L693.83,82.81L695.44,81.86L695.9,82.06L696.61,83.97L697.83,84.68L698.14,85.76L700.3,86.53L700.27,87.63L700.94,88.63L700.57,89.82L701.28,90.46L702.39,91.01L703.8,90.51L705.8,90.77L705.53,91.81L706.36,91.87L706.75,91.18L708.56,91.11L710.03,90.3L712.49,90.22L712.66,91.44L713.73,91.53L713.61,92.44L712.36,92.76L712.58,93.29L712.2,93.93L713.15,94.21L715.4,96.82L718.82,96.29L719.85,96.24L720.28,97.05L722,96.18L724.93,97.05L728.43,96.7L729.11,97.01L729.96,97.13L731.57,97.47L732.36,98.67L733.63,99.01L733.97,99.88L733.3,99.9L733.38,101.02L735.55,102.03L736.25,103.4L735.53,104.79L738.52,105.56L739.28,107.06L738.74,107.52L739.87,108.06L740.65,108.18L740.77,107.69L741.74,107.61L742.25,107.1L743.58,109.61L742.21,110.9L741.89,112.7L741.15,113.57L741.83,115.57L740.11,116.73L740.05,118.3L742.25,122.08L741.04,123.82L741.27,125.17L738.95,127.94L738.96,129.44L739.25,133.23L738.55,134.46L735.74,136.61L735.68,137.16L736.94,138.88L738.95,140.01L741.11,142.19L741.55,144.35L740.93,149.03L739.67,149.96L733.31,152.53L729.43,153.43L727.73,156.52L719.64,159.69L716.36,161.76L714.43,164.41L709.97,166.35L707.65,166.39L704.93,164.02L702.41,163.58L701.34,162.75L700.27,162.91L699.66,163.67L699.08,165.99L697,168.35L696.22,171.03L695.5,172.08L694.04,173.04L694.28,174.53L693.63,174.74L692.55,176.42L690.23,178.46L689.02,181.37L685.78,182.98L683.36,183.52L682.59,184.27L682.4,186.01L682.4,186.01L676.78,187.75L672.92,188.04L669.17,186.9L668.55,186.16L665.46,186.59L665.18,194.6L664.3,198.7L663.08,202.34L660.37,208.02L658.89,215.78L657.75,217L653.36,217.01L650.98,215.99L648.55,214.84L645.71,211.73L643.13,210.18L640.26,209.15L631.74,208.36L629.23,209.83L627.13,211.99L624.91,215.69L622.56,216.83L619.24,216.97L618.42,219.63L615.98,222.25L610.08,224.47L603.79,224.96L601.28,225.83L595.08,232.89L591.35,238.44L589.65,240.34L587.91,241.41L583.34,242.73L580.64,242.92L574.3,241.95L574.3,241.95L570.39,239.75L568.58,238.15L565.45,231.98L559.79,229.64L557.96,227.82L555.53,224.31L554.72,221.48L559.9,213.92L560.52,210.9L559.17,207.6L559.17,207.6L562.21,206.91L565.62,202.38L565.34,193.99L565.95,191.22L567.67,188.39L570.33,186.47L581.54,183.45L587.65,179.8L589.74,176.72L589.98,173.78L589.22,169.63L589.18,166.66L590.08,163.8L592.97,160.45L596.27,154.55L600.81,150.12L601.8,148.01L600.96,144.68L597.83,140.93L592.92,141.14L592.28,140.78L592.13,138.84L596.85,129.7L595.16,122.26L595.29,118.76L597.83,102.47L597.88,96.68L596.16,92.85L596.71,90.65L603.77,84.34L606.14,81.26L607.98,77.05L607.5,73.31L602.7,69.47L601.25,67.65L600.02,63.8L601.51,55.78L601.59,51.57L601.59,51.57L603.04,51.45L607.42,52.33L607.45,51.14L608.04,50.73L608.11,49.99L608.3,48.28L609.78,46.95L610.92,47.19L612.27,46.46L611.93,45.3L612.66,44.22L612.43,43.9L611.54,43.71L611.94,42.58L612.71,41.25L613.51,39.47L614.15,38.87L616.43,39.22L617.81,38.35L618.77,38.44L619.38,39.18L620.34,38.07L620.57,36.63L621.91,36.4L623.38,36.11L623.67,35.65L623.33,35.25L624.31,34.08L626.42,33.6L627.04,32.36L628.41,31.58L628.57,30.79L629.15,30.05L629.55,29.31L629.53,28.45L630.63,28.02L631.06,27L630.25,26.69L630.82,26.08L632.05,26.71L631.76,25.14L632.86,25.26L632.92,25.73L633.77,26.02L634.87,25.88L636.74,24.21L637.76,23.84L638.08,24.22L640.06,24.12L641.45,22.79L642.47,23.28L642.52,22.2L643.6,21.84L644.62,21.93L643.73,23.1L645.2,23.89L646.12,22.58L647.47,23.62L647.27,22.31L648.75,21.8L648.44,23.88L649.36,24L649.81,23.03L650.96,22.78L651.88,24.17L652.84,21.64L654.5,20.8L654.52,20.36L653.97,20.17L654.16,19.46L655.35,19.66L655.99,18.86L655.35,18.69L654.95,17.67L656.63,16.07L656.57,15.49L658.06,14.82L658.01,13.89L659.06,12.83L660.3,12.59L660.69,11.53z"/>
		<path id="NG-BY" title="Bayelsa" class="land" d="M250.87,579.58l-0.21,-0.62l-0.68,0.1l-3.96,-2.6l-1.2,-4.38l-1.38,-1.87l-1.99,-0.02l-6.54,2.54l-1.04,-0.26l-0.35,-1.94l0.42,-1.46l-3.31,-1.44l-0.5,-0.83l0.07,-4.34l1.9,-2.67l0.76,-2.05l0.03,-1.27l-1.29,0.16l-0.84,-0.78l1.33,-4.44l4.49,-7.84l2.77,0.17l0.55,-0.5l0.75,-2.49l1.54,-0.79l-0.23,-1.81l1.58,-1.07l0.95,-1.48l-0.03,-1.94l-0.63,-1.54l-0.76,-0.58l-1.92,-0.83l-2.94,0.49l-1.04,-0.28l0.77,2.47l-1.2,0.85l-5.08,2.19l-3.49,-0.44l-2.74,0.49l-2.01,4.1l-2.11,0.52l-0.79,-0.6l-1.47,-0.08l-0.36,0.95l0.26,2.31l-2.83,1.56l-1.62,0.56l-3.01,-0.24l-1.23,1.99l-2.31,0.62l-1.89,-0.67l-0.99,-1.66l-2.11,-1.28l-0.75,0.5l-1.48,3.07l-3.3,1.64l-2.62,-0.42l-7.48,4.1l-0.94,-0.37l-2.32,0.4l-1,-1.1l-2.69,-1.6l-3.05,-0.71l-2.9,-1.66l-2.1,-2.1l-0.56,0.72l-0.72,-0.57l-1.43,0.53l-0.36,-0.5l-1.63,0.84l2.36,4.61l1.91,5.81l-0.34,0.79l0.95,1.52l0.35,1.86l4.06,6.77l0.19,1.44l0.94,0.55l0.01,0.17l0.05,1.1l7.5,10.38l1.19,0.62l-0.02,0.75l2.77,1.35l-0.27,0.41l1.05,0.75l0.12,0.65l2.56,1.59l0.19,-0.39l0.31,0.34l-0.22,0.24l0.02,0.34l2.61,2.16l0.48,-0.02l-0.14,-0.77l-0.45,-0.21l1.58,-0.46l-0.76,0.7l0.33,0.72l-0.26,0.27l0.07,0.51l2.32,1.7l5.07,2.36l0.19,-2l-0.79,-0.51l-0.55,-1.25l0.34,0.12l0.29,0.89l0.79,0.22l-0.12,-0.7l0.41,0.03l-0.02,0.7l0.52,0.17l0.26,0.77l-0.62,1.18l0.26,0.43l-0.34,1.3l0.4,0.29l5.18,1.32l0.19,-2.23l0.65,-0.58l0.38,3.84l8.34,-0.7l-0.64,-2.4l1.03,-3.05l0.65,-1.1l-0.29,-1.37l-1.91,-1.15l0.48,-0.05l1.19,0.27l0.96,1.58l0.6,-1.13l-0.55,-0.79l0.09,-2.14l-0.84,-1.35l0.31,-0.74l0.17,1.03l0.69,0.55l0.03,0.38l0.74,2.02l-0.1,3.1l2.72,-2.47l-0.58,-0.63l0.1,-1.94l1.91,-0.6l0.5,-0.63l0.69,1.61l0.12,1.29l-0.48,1.03l0.6,1.32l0.05,1.61l1.34,0.26l1.08,1.51l0.48,-0.05l-0.19,0.33l0.22,0.43l2.17,-0.48l0.19,0.34l-0.62,0.65l1.53,0.79l8.46,-0.91l0.02,-0.48l-0.4,-0.51l-0.07,-0.77l-0.1,-0.34l0.67,-0.86l0.6,-0.58l-0.52,2.04l0.22,0.39l2.03,1.76l0.96,-0.98l3.53,-0.38l-0.5,-2.47l-0.09,-0.38l-0.38,-1.13l-1.15,-0.75l-0.19,-0.99l0.02,-0.19l0.29,-1.06l-0.53,-2.25l-0.41,-0.55l0.35,-0.36l0.76,0.9l1.25,4.2l0.38,-0.58l-0.65,-5.23l1.7,-3.39L250.87,579.58zM172.57,560.17L172.57,560.17l0.01,0.01L172.57,560.17zM232.08,597.65l-8.22,0.99l-2.8,-0.1l-0.22,-0.7l1.36,-2.52l0.15,-0.02l0.45,0.04l0.14,-1.3l1.98,-2.19l0.12,-0.31l0.43,-0.89l0.45,-0.19l-0.59,-0.77l-0.18,-1.3l0.55,-0.35l1.03,-0.19l0.9,1.34l-0.5,1.33l0.78,1.62l-0.22,1.57l1.63,0.44l0.65,0.92L232.08,597.65z"/>
		<path id="NG-CR" title="Cross River" class="land" d="M348.13,451.4L351.12,450.91L353.48,448.95L354.84,447.2L356.76,446.75L358.82,447.42L362.66,447.56L365.79,446.73L368.93,444.81L368.16,440.31L369.68,439.11L371.79,438.44L374.1,437.85L376.21,437.92L381.64,439.61L390.28,444.99L390.84,446.63L390.18,451.4L391.39,452.29L395.77,452.73L405.34,450.49L408.43,450.71L409.92,451.43L415.45,457.16L420.33,463.79L420.98,465.34L420.98,465.34L418.81,473.68L413.66,471.47L412.88,473.31L412.86,475.29L412.28,476.02L411.2,476.96L408.4,481.82L405.17,482.76L403.54,483.95L402.34,485.13L401.39,487.63L400.4,488.6L391.68,496.37L387.87,499.1L386.75,499.43L385.11,501.73L383.42,502.6L382.12,504.08L382.52,504.94L383.88,505.98L382.83,507.46L383.23,508.29L382.78,509.25L381.31,511.12L380.74,510.54L380.79,512.04L385.89,517.68L386.2,519.44L383.8,523.49L383.16,525.89L382.04,527.25L382.25,531.14L380.44,537.02L380.59,543.58L378.05,547.78L376.16,548.55L376.08,549.39L374.74,550.43L373.52,553.73L372.27,554.77L373.24,555.79L372.34,556.14L371.36,557.38L371.41,557.95L370.4,558.33L370.49,560.09L368.52,560.84L367.5,562.09L367.48,563.05L368.68,564.19L369.02,565.72L366.6,567.18L365.51,566.94L364.83,566.22L363.8,567.04L363.16,568.56L362.41,569.09L362.25,570.56L362.92,570.63L363.52,568.88L363.78,571.39L363.42,571.95L362.99,571.28L362.39,571.42L362.97,572.86L361.49,573.13L361.55,573.89L359.77,574.18L358.3,573.58L358.81,571.81L359.88,571.69L358.61,570.08L357.81,571.3L356.65,571.78L354.58,571.32L353.93,570.17L354.7,569.47L354.91,569.31L354.6,568.4L353.24,568.81L352.11,568.18L349.73,570.36L349.73,570.36L349.14,569.35L345.47,566.54L341.69,562.2L338.51,559.4L335.1,554.49L333.47,549.36L334.08,543.26L333.69,541.16L328.73,538.48L323.96,539.04L323.17,537.1L322.34,536.79L321.68,535L322.83,532.55L323.68,532.45L323.68,532.45L327.1,533.21L327.7,532L326.94,529.45L325.23,527.45L324.5,525.77L323.13,521.14L322.98,517.36L323.57,513.64L322.49,512.35L322.49,512.35L322.87,509.96L325.21,506.85L324.85,504.19L326.31,502.93L326.65,501.58L328.63,499.29L328.71,496.87L327.57,495.07L327.76,494.09L330.03,493.01L332.65,492.83L335.34,497.33L336.68,495.25L338.84,494.48L341.04,492.77L341.32,491.46L343.2,491.17L345.38,492.43L346.22,491.52L346.9,489.22L347,486.63L347.8,485.16L354.72,476.77L354.74,475.37L352.88,472.77L352.87,471.17L354.52,469.54L356.71,469.17L357.54,467.47L357.3,466.42L355.92,465.42L355.51,463.92L354.99,463.55L355.09,461.61L353.81,460.49L353.31,458.78L350.61,456.91L348.62,454.29z"/>
		<path id="NG-DE" title="Delta" class="land" d="M252.1,480.23l-1.48,-7.29l0.08,-1.37l-1.13,-1.13l-2.13,-9.57l-1.88,2.04l-4.1,-0.38l-3.73,0.81l-8.19,5.12l-7.35,3.1l-4.03,4.53l-0.64,0.05l-2.58,-3.94l-1.01,-0.42l-1.67,-0.31l-1.78,1.58l-0.89,2.03l-0.15,2.37l0.4,0.75l1.46,0.81l0.54,4.82l2.03,3.59l1.96,2.42l1.88,1.46l2.23,0.81l0.29,1.75l-0.7,3.24l-1.55,1.91l-1.63,1.66l-3.08,2.03l-2.29,3.07l-2.78,1.99l-1.81,0.6l-5.23,1.04l-2.13,-0.56l0.7,-1.8l-1.6,-1.61l2.04,-4.03l-0.47,-0.83l-3.91,-2.35l-2,-2.83l-4.67,-2.62l-3.17,-1.25l-1.64,-1.34l-5.12,1.85l-1.85,2.38l-1.77,-0.4l-2.27,-1.98l-1.38,-0.29l-3.17,0.67l-2.98,-0.72l-0.99,0.31l-0.63,0.3l-0.06,1.03l0.89,1.57l-0.52,1.06l-4.1,3.22l-1.66,0.07l-0.05,-2.47l-0.66,-2.55l0.7,-2.93l-0.15,-1.43l-1.66,-1.67l-5.43,-2.8l-6.9,16.74l2.48,4.48l1.39,0.88l0.58,-1.6l1.31,-1.25l7.76,-4.22l1.26,-0.22l1.85,-1.28l1.13,-0.54l0.36,0.51l-0.02,0.17l-2,0.95l-1.01,1.6l-0.07,0.26l-0.83,-0.53l-2.25,0.98l-3.18,2.51l-0.34,0.75l-1.98,-0.45l-1.05,0.82l-0.79,3.14l0.26,1.54l2.63,4.5l3.18,3.14l1.12,-0.53l3.01,-1.34l2.97,0.41l0.74,-3.16l1.15,-2.15l-0.02,-0.38l0.4,-0.3l0,0.01l0.38,0.12l-0.23,0.14L164.5,513l-1.12,2.27l1,2.13l1.91,0.63l1.63,-0.27l1.58,-3.18l1.6,0.1l0.19,-0.25l0,0.01l2.99,1.54l1.12,0.67l0.19,0.48l-1.19,-0.34l0.27,0.77l0.1,1.32l-1.33,-0.35l0.97,-0.67l-0.33,-1.34l-1.12,-0.72l-3.13,-0.29l-0.6,0.14l0.09,1.63l-0.55,1.13l-2.34,1.97l1,-1.58l-1.79,0.15l-2.1,-0.55l-4.44,-0.67l-1.96,0.19l-0.12,0.84l-1.62,1.08l-1.26,1.67l2.77,3.96l3.04,2.61l6.04,2.63l5.09,0.29l0.02,-0.65l-1.19,-1.39l-0.95,-2.9l-0.26,-0.45l0.07,-0.74l0.47,-0.12l-0.19,0.82l1,2.2l0.83,-0.6h0.36l-0.07,0.22l-0.95,1.08l0.26,0.5l2.65,1.12l0.57,-0.21l1.65,-4.8l0.84,-1.46l0.96,-0.62l-0.64,-0.33l3.2,0.12l0.48,0.15l1.05,-0.46l0.46,-1.13l0.74,-0.38l1.12,0.17l0.95,0.91l0.61,-0.66l0.09,0.23l-0.12,0.75l-0.89,0.04l-1.38,-0.94l-1.01,1.68l-1.58,0.79l-1.81,-0.12l0.22,0.86l-0.96,-0.98l-1.32,0.36l-0.55,3.02l0.27,1.32l0.58,1.08l0.45,0.72l3.36,1.09l-0.3,0.8l-1.55,-1.12l-0.65,0.36l-0.03,0.7l-0.07,0.22l-0.49,0.13l0.32,-1.47l-0.31,-0.12l-0.43,-0.34l-0.45,-0.46l-0.45,0.48l-0.74,0.5l-0.36,0.53l-0.79,0.12l-1.12,0.57l0.91,0.46l2.05,-0.1l-2.97,0.96l-0.4,0.63l-1,-1.61l-0.6,0.05l-0.28,-0.02l-2.53,0.15l-1.17,0.63l-0.07,-0.39l-0.69,-0.07l-0.41,-0.31l-0.67,0.22l-0.83,-0.43l0.05,2.44l1.91,7.63l-0.24,1.66l2.08,2.26l2.05,-0.88l2.65,-0.17l-0.89,-1.35l-0.09,-1.12l0.15,-0.24l0.5,-2.38l0.29,-0.03l-0.15,0.6l0.15,0.41l-0.52,2.69l0.88,0.55l-0.1,1.53l-0.8,0.31l2.1,2.1l2.9,1.66l3.05,0.71l2.69,1.6l1,1.1l2.32,-0.4l0.94,0.37l7.48,-4.1l2.62,0.42l3.3,-1.64l1.48,-3.07l0.75,-0.5l2.11,1.28l0.99,1.66l1.89,0.67l2.31,-0.62l1.23,-1.99l3.01,0.24l1.62,-0.56l2.83,-1.56l-0.26,-2.31l0.36,-0.95l1.47,0.08l0.79,0.6l2.11,-0.52l2.01,-4.1l2.74,-0.49l3.49,0.44l5.08,-2.19l1.2,-0.85l-0.77,-2.47l-0.57,-1.04l0.21,-0.44l3.52,-1.81l0.19,-5.3l0.7,-1.48l2.05,-1.42l0.89,-1.75l0.82,-3.18l-1.09,-3.54l0.23,-0.35l1.01,-1.17l1.92,-3.9l0.34,-2.63l1.76,-4.69l2.5,-4.55l0.38,-6.01l1.27,-3.65L252.1,480.23z"/>
		<path id="NG-EB" title="Ebonyi" class="land" d="M319.39,454.21L319.22,455.12L319.87,456.66L323.88,460.34L325.66,461.08L327.07,460.49L328.06,458.44L329.31,450.21L332.76,449.81L335.71,450.06L337.63,449.13L339.4,446.25L342.81,445.88L343.83,443.57L345.59,444.87L346.43,449.13L348.13,451.4L348.13,451.4L348.62,454.29L350.61,456.91L353.31,458.78L353.81,460.49L355.09,461.61L354.99,463.55L355.51,463.92L355.92,465.42L357.3,466.42L357.54,467.47L356.71,469.17L354.52,469.54L352.87,471.17L352.88,472.77L354.74,475.37L354.72,476.77L347.8,485.16L347,486.63L346.9,489.22L346.22,491.52L345.38,492.43L343.2,491.17L341.32,491.46L341.04,492.77L338.84,494.48L336.68,495.25L335.34,497.33L332.65,492.83L330.03,493.01L327.76,494.09L327.57,495.07L328.71,496.87L328.63,499.29L326.65,501.58L326.31,502.93L324.85,504.19L325.21,506.85L322.87,509.96L322.49,512.35L322.49,512.35L321.15,512.14L317.94,509.81L317.24,508.77L317.02,506.58L315.78,504.72L301.69,503.86L300.75,502.83L300.7,502.1L301.25,499.24L301.18,494.88L301.18,494.88L304.81,493.87L306.8,495.57L307.57,495.66L309.68,498.17L310.41,498.24L311.06,496.8L310.26,493.88L310.11,491.24L312.78,488.51L313.58,486.78L312.59,480.14L311.97,477.59L310.89,476.52L310.91,475.29L313.65,469.18L313.66,463.36L313.01,462.21L312.63,458.92L311.15,454.02L317.6,454.57z"/>
		<path id="NG-ED" title="Edo" class="land" d="M208,395.76L208.77,396.4L210.52,396.03L211.22,396.39L211.5,397.07L211.12,397.96L211.58,398.61L213.76,398.36L214.03,399.16L213.07,401.01L212.84,402.94L213.12,403.99L214.2,404.77L216.33,405.3L222.27,402.37L223.83,404.47L224.48,404.4L225.74,405.81L226.29,405.75L228.25,407.98L230.51,407.79L231.25,407.28L233.81,407.43L234.87,409.44L234.94,410.66L235.79,411.27L236.27,413.01L237.01,413.57L236.77,414.08L237.43,415.71L241.18,414.87L241.61,415.25L243.07,414.26L244.94,413.85L246.69,415.26L247.24,417.38L248.69,418.46L249.48,420.47L249.63,423.88L249.32,425.8L247.7,429.74L247.76,433.9L245.85,438.72L243.69,442.27L244.97,444.42L244.04,449.94L244.93,452.54L246.34,454.55L247.37,460.58L247.37,460.58L247.44,460.87L247.44,460.87L245.56,462.9L241.47,462.52L237.74,463.33L229.55,468.44L222.2,471.54L218.17,476.07L217.52,476.11L214.94,472.17L213.93,471.76L212.27,471.44L210.48,473.03L209.59,475.05L209.44,477.42L209.84,478.17L211.3,478.98L211.84,483.8L213.87,487.38L215.83,489.8L217.71,491.26L219.94,492.07L220.22,493.81L219.53,497.05L217.98,498.96L216.36,500.62L213.28,502.65L210.98,505.72L208.21,507.71L206.4,508.31L201.16,509.35L199.03,508.78L199.73,506.98L198.13,505.37L200.16,501.34L199.69,500.51L195.79,498.16L193.79,495.33L189.11,492.71L185.95,491.46L184.31,490.12L179.19,491.97L177.34,494.35L175.57,493.95L173.3,491.97L171.92,491.68L168.75,492.35L165.78,491.63L164.79,491.94L164.15,492.24L164.09,493.27L164.98,494.84L164.46,495.9L160.37,499.13L158.71,499.2L158.66,496.73L158,494.18L158.71,491.25L158.56,489.82L156.9,488.15L151.47,485.36L151.47,485.36L151.86,484.2L150.63,481.94L149.3,480.9L147.74,480.81L146.09,477.87L144.15,476.51L143.45,476.45L143.01,475.54L143.26,474.95L142.98,475.39L143.78,474.69L144.74,471.06L145.32,470.45L148.27,469.58L149.11,465.84L150.85,464.13L151.69,462.17L152.04,460.45L151.47,459L150.07,456.72L148.84,456.08L148.84,453.24L149.65,452.26L149.55,450.04L150.04,449.08L151.79,447.46L152.24,446.43L153.97,445.63L154.76,443.36L155.72,442.67L155.81,440.72L156.26,439.94L158.46,438.93L160.59,439.33L162.87,438.95L164.55,439.31L171.19,439.42L174.48,439.04L176.12,439.38L177.86,441.46L175.85,443.72L177.95,449.18L178.69,449.15L182.46,445.99L183.8,446.11L184.99,447.59L185.8,447.94L188.48,446.92L189.99,443.53L190.94,438.57L191.19,438.32L192.38,438.83L192.39,437.2L193.27,436.68L193.12,435.87L191.94,434.59L192.55,429.95L193.79,428.29L195.31,427.56L195.68,426.71L195.36,425.87L198.59,418.98L198.44,417.59L198.91,416.55L200.67,414.72L202.82,413.67L204.25,410.13L203.82,409.85L203.05,407.37L203.92,404.48L201.91,403.66L201.51,402.82L201.69,401.43L203.1,399.71L204.66,399.85L205.55,399.25z"/>
		<path id="NG-EK" title="Ekiti" class="land" d="M148.31,367.38L148.72,367.21L149.33,368.88L150.36,369.37L154.84,368.12L155.79,368.49L157.26,370.55L158.21,371.04L160.54,370.81L162.84,371.43L164.79,370.85L166.08,371.4L167.12,369.24L166.83,368.61L167.65,366.39L171.76,365.05L177.52,364.96L177.52,364.96L176.43,365.38L176.4,369.66L176.95,370.11L179.43,368.69L183.1,368.05L185.41,368.32L185.97,369.02L185.69,370.39L184.35,371.03L182.06,374.04L181.98,375.6L183.3,379.35L184.62,380.31L185.9,380.34L187.75,382.03L194.57,384.42L194.57,384.42L193.05,386.82L192.23,387.12L190.73,385.87L188.87,386.26L188.02,388.32L185.84,389.77L183.44,392.25L182.31,394.39L180.6,402.49L178.9,406.41L175.85,410.84L170.32,414.33L168.05,413.74L166.96,411.06L167.12,410.2L166.08,407.01L164.66,404.79L163.11,404.27L156.14,404.58L148.36,404.14L143.81,405.59L143.81,405.59L142.98,403.89L142.14,400.1L139.29,393.99L138.6,389.21L139.79,385.22L138.98,382.41L139.1,381.01L141,376.76L142.62,375.26L144.8,374.32L146.79,372.68z"/>
		<path id="NG-EN" title="Enugu" class="land" d="M262.32,445.18L265.05,440.17L265.96,440.42L266.14,442.7L266.88,442.75L268.21,444.76L268.9,445.1L270.14,444.77L275.11,439.38L281.09,435.52L287.27,428.1L289.71,427.19L291.85,425.09L295.16,424.33L297.6,425.08L298.71,426.7L298.71,426.7L298.58,427.23L301.32,433.74L304.21,437.09L307.79,439.85L310.71,441.37L312.81,440.64L315.02,438.53L317.83,438.88L319.35,440.03L320.77,442.17L321.67,447.79L319.39,454.21L319.39,454.21L317.6,454.57L311.15,454.02L312.63,458.92L313.01,462.21L313.66,463.36L313.65,469.18L310.91,475.29L310.89,476.52L311.97,477.59L312.59,480.14L313.58,486.78L312.78,488.51L310.11,491.24L310.26,493.88L311.06,496.8L310.41,498.24L309.68,498.17L307.57,495.66L306.8,495.57L304.81,493.87L301.18,494.88L301.18,494.88L300.85,493.42L298.8,492.08L296.09,491.81L291.26,492.7L290.66,491.93L290.66,491.93L289.83,491.76L289.87,491.22L288.75,490.48L287.67,490.39L286.01,491.35L283.62,489.95L282.86,488.97L282.68,487.46L280.8,483.67L281.15,481.52L279.82,480.89L279.23,478.31L278.62,478.18L276.73,479.31L276.01,478.57L276.51,476.95L276.1,475.58L276.92,475.29L277.22,474.33L275.91,472.48L274.57,468.84L273.15,467.04L269.3,465.88L268.91,465.34L269.34,462.99L269.96,462.16L269.72,461.2L271.57,458.72L273.26,457.58L274.01,456.5L275.26,453.05L274.9,452.26L271.17,450.56L269.12,450.48L266.68,449.07L262.85,449.2L262.76,445.58z"/>
		<path id="NG-FC" title="Federal Capital Territory" class="land" d="M287.39,288.57L293.51,287.94L296.71,288.26L298.23,289.11L299.36,288.26L301.17,285.22L302.23,284.68L303.3,285.11L304.77,288.22L305.71,288.53L306.89,287.74L306.89,287.74L306.82,290.18L306.4,290.8L305.37,290.87L304.84,291.48L302.73,298L302.65,303.62L303.16,305.81L302.61,312.81L300.63,318.08L299.11,326.03L298.32,326.39L297.24,329.79L296.2,331.43L292.42,336.05L285.46,339.69L280.83,340.75L277.92,341.95L266.79,343.7L266.79,343.7L265.39,344.16L257.93,344.01L257.93,344.01L256.1,344.22L254.68,343.75L252.73,338.84L253.19,337.47L252.44,307.26L252.8,293.6L253.14,293.22L255.82,292.89L266.85,292.42L268.61,293.05L277.8,301.15L278.74,300.91z"/>
		<path id="NG-GO" title="Gombe" class="land" d="M516.65,163.71L517.56,162.83L521.73,161.32L525.77,161.49L528.75,162.5L530.93,163.79L539.42,170.05L544.17,176.45L547.59,180.03L546.59,181.57L548.17,180.55L551.85,183.93L552.52,188.8L551.32,200.65L552.09,207.1L552.39,207.61L559.17,207.6L559.17,207.6L560.52,210.9L559.9,213.92L554.72,221.48L555.53,224.31L557.96,227.82L559.79,229.64L565.45,231.98L568.58,238.15L570.39,239.75L574.3,241.95L574.3,241.95L573.62,252.18L574.14,255.88L573.04,258.21L567.29,262.21L557.89,267.87L554.52,269.3L548.32,270.21L548.32,270.21L541.95,270.68L529.49,270.66L523.59,271.26L520.02,270.55L520.02,270.55L520.6,270.39L520.73,269.44L519.04,267.32L516.46,262.04L515.85,255.85L514.62,252.06L505.47,244.97L502.97,243.56L498.68,239.18L498.35,237.56L499.66,235.65L501.65,234.73L505.55,234.1L506.38,232.34L505.98,229.48L506.46,220.85L504.38,215.91L497.18,213.29L496.3,212.14L495.43,204.99L494.29,203.28L486.91,200.29L487.11,198.91L490.72,193.84L493.33,186.41L494.3,181.47L495.68,179.44L497.12,178.08L501.03,177.2L502.52,176.44L504.53,174.69L507.1,170.99L513.14,167.71L515.85,163.95z"/>
		<path id="NG-IM" title="Imo" class="land" d="M283.63,497.76L285.64,499.45L290.98,501.23L292.02,502.68L292.49,504.03L292.87,512.5L291.64,513.27L293.15,515.71L292.87,517.76L293.23,521.21L292.8,523.22L291.91,524.12L290.73,527.16L288.91,528.84L286.81,532.71L283.72,542.96L283.72,542.96L281.15,543.91L276.63,542.78L274.5,542.82L270.35,543.88L265.66,542.77L258.94,542.91L256.8,542.5L254.64,540.85L252.92,537.45L251.08,536.15L250.82,534.78L251.91,532.02L252.43,527.39L251.98,525.73L249.86,524.96L246.4,525.63L244.89,525.19L247.64,512.1L247.64,512.1L249.73,511.27L252.73,507.44L254.35,506.64L258.86,508.56L261.54,508.29L263.91,503.68L264.84,500.13L266.62,499.09L272.93,497.93L278.31,499.18z"/>
		<path id="NG-JI" title="Jigawa" class="land" d="M433.75,67.57L435.54,68.75L441.54,69.48L444.68,67.68L446.78,63.69L452.1,61.1L455.26,60.47L458.08,59.1L464.41,57.14L466.62,58.39L468.75,63.17L469.44,67.52L470.9,70.05L472.02,69.33L477.88,67.47L482.87,69.69L484.9,69.08L486.75,69.96L488.96,73.36L490.72,84.89L491.59,87.79L491.59,87.79L480.53,94.72L480.41,93.33L479.58,91.69L478.59,90.87L475.11,91.42L470.57,93.37L463.86,113.96L464.43,115.84L464.46,118.09L463.27,119.03L457.04,121.54L446.1,125.27L440.63,128.31L434.47,128.77L431.25,133.31L430.76,137.57L432.11,138.2L434.72,138.16L436.84,137.13L439.59,136.86L441.4,137.36L442.86,141.78L443.38,146.1L440.87,151.1L441.42,152.84L442.6,153.95L446.44,153.01L446.91,155.58L447.96,158.08L453.26,165.5L456.25,167.35L462.64,168.12L468.36,169.39L477.23,169.95L478.27,171.41L477.17,174.13L475.32,175.52L473.88,176.3L469.84,177.29L467.31,178.65L465.78,180.56L465.74,182.36L466.85,185.79L464.99,186.36L462.53,185.74L460.67,184.38L459.11,184.21L453.51,185.6L447.81,184.41L446.46,183.05L445.65,181L446.48,173.15L445.94,171L443.27,166.1L442.13,165.8L438.56,166.71L430.86,167.19L427.73,166.98L425.95,163.31L423.65,162.58L420.3,164.04L412.87,161.63L406.87,160.53L405.87,160.72L405.87,160.72L405.79,158.48L406.87,154.76L413.99,147.88L413.1,146.73L411.01,146.2L408.18,143.56L406.7,140.81L406.2,138.81L405.11,137.82L400.05,137.97L399.85,136.01L400.35,133.92L403.71,129.23L403.9,127.18L404.96,125.34L404.77,122.88L402.49,115.7L401.24,116.23L399.77,117.98L397.45,119.4L395.63,119.58L394.26,119.33L394.25,116.76L393.68,115.32L390.54,115.57L388.64,116.76L388.64,115.73L386.99,115.01L387.52,113.29L388.7,111.9L388.78,106.29L387.98,103.35L387.06,102.54L385.21,101.98L379.77,101.42L378.94,101L377.92,99.61L378.49,97.6L377.39,94.52L373.58,92.4L372.45,91.02L372,85.1L364.22,83.08L360.45,83.43L356.46,85.36L354.73,86.71L354.11,89.31L352.24,92.92L351.17,91.8L351.07,89.84L347.56,83.56L347.56,83.56L346.32,80.94L345.49,80.24L340.55,80.12L337.69,79.19L337.1,78.47L337.03,74.62L337.78,71.22L337.76,68.53L338.22,68.23L348.61,66.85L353.98,67.84L363.2,67.06L364.37,68.29L365.78,72.97L366.46,73.91L369.12,75.58L371.11,76.1L373.73,74.59L374.37,76.15L375.86,76.85L379.54,76.3L383.72,74.56L386.91,71.98L387.94,69.35L388.52,68.6L390.52,67.72L390.53,66.86L390.53,66.86L391.8,66.47L401.86,66.91L410.88,68.33L416.12,67.58L422.18,68.36L432.21,68.81z"/>
		<path id="NG-KD" title="Kaduna" class="land" d="M316.2,159.67L319.29,159.69L321.73,159.02L325.91,155.19L330.71,152.35L332.36,152.35L336.44,151.11L337.66,151.3L338.79,152.12L339.11,153.37L337,157.39L337.53,159.96L338.57,161.14L342.1,162.97L345.85,164.2L349.36,168.33L350.89,168.88L353.67,168.85L356.12,169.44L361.5,173.87L365.09,180.29L365.47,184.17L364.46,186.61L363.45,191.52L364.65,197.57L364.45,199.3L363.73,200.4L360.18,201.36L359.63,202.15L360.23,204.23L361.29,205.3L368.31,206.27L370.29,209.02L371.89,210.07L374.89,210.71L375.94,210.42L375.94,210.42L375.41,214.38L373.06,218.58L373.33,219.31L376.12,221.06L378.65,223.77L378.65,223.77L378.28,224.06L378.07,226.96L377.52,228.39L376.2,229.95L374.01,230.68L372.11,232.08L369.98,237.05L369.76,239.76L371.12,242.58L371.87,246.1L369.48,248.07L369.14,249.17L369.32,251.14L368.62,258.95L369.15,261.05L368.73,262.12L366.82,263.67L366.42,266.75L364.66,268.03L364.87,272.77L363.82,274.17L363.92,275.33L367.18,280.61L369.75,283.69L371.46,284.9L372.46,286.99L372.58,290.4L370.91,294.34L370.91,294.34L369.82,294.91L367.17,300.52L363.86,305.92L363.04,306.64L361.43,307.06L358.96,306.93L358.36,305.03L353.02,299.12L349.21,298.88L347.71,297.63L346.38,297.41L345.09,298.39L344.2,300.29L340.04,305.04L337.69,306.64L336.54,306.85L335.2,305.89L334.8,304.58L334.85,294.88L333.82,293.27L329.6,290.83L329.28,287.58L326.35,284.91L325.25,284.52L324.24,284.87L322.59,286.99L321.65,289.53L319.34,291.63L318.24,291.63L316.49,290.57L315.15,290.82L312.71,289.03L311.78,288.89L310.28,289.5L309.58,288.71L308.98,286.83L308.23,286.72L306.89,287.74L306.89,287.74L305.71,288.53L304.77,288.22L303.3,285.11L302.23,284.68L301.17,285.22L299.36,288.26L298.23,289.11L296.71,288.26L293.51,287.94L287.39,288.57L287.39,288.57L286.16,288.15L283.7,288.75L285.08,284.62L281.69,281.84L281.78,279.52L282.34,278.59L284.79,277.3L285.58,276.43L286.18,273.64L289.27,270.47L288.69,268.59L285.69,266.97L286.52,263.95L282.9,262.59L281.77,261.82L281.6,260.91L281.89,260.27L282.77,259.85L286,259.44L286.63,257.93L286.53,254.84L285.61,250.96L285.45,245.9L285.12,244.89L283.75,244.22L270.88,244.3L264.21,241.81L262.5,240.15L261.47,238.17L262.38,236.93L264.55,235.57L266.17,233.89L267.02,232.41L271.26,229.81L272.28,228.02L272.59,226.04L269.36,224.29L264.53,222.63L265.88,218.49L265.93,215.92L263.95,212.12L262.34,211.68L260.09,212.35L258.7,212.21L258.42,207.71L257.94,205.79L257.33,205.28L252.6,204.78L251.42,205.98L252.09,208.37L251.45,209.35L247.48,208.79L239.85,211.65L238.81,208.99L237.79,207.99L234.88,208.12L232.78,208.73L230.32,210.23L224.73,214.73L219.35,221.74L217.94,222.63L216.51,222.03L215.29,218.51L212.24,216.51L212.02,215.14L212.35,212.83L214.19,211.03L213.95,207.22L214.69,205.22L214.55,203.74L213.11,201.36L213.51,196.57L216.55,191.19L216.55,191.19L218.23,191.07L219.51,190.31L222.37,186.15L227.64,181.44L233.28,180.49L241.22,181.06L245.93,180.44L248.26,178.93L251.3,175.83L252.81,172.6L253.45,169.05L255.16,165.64L256.01,164.5L258.76,162.73L261.1,160.35L262.11,160.38L262.11,160.38L266.52,161.26L268.46,161.08L269.82,161.98L270.61,163.72L270.38,164.79L267.49,167.48L267.1,168.8L273.45,170.73L277.7,175.02L279.45,175.25L282.14,173.73L283.52,171.82L281.71,168.46L281.59,166.42L285.04,165.33L286.99,165.44L289.76,166.54L291.16,166.45L291.74,165.91L291.73,164.52L292.93,161.55L295.99,158.96L297.38,158.68L304.16,160.97L306.21,162.7L307.18,164.28L308.75,165.06L314.37,162.82L315.21,160.77z"/>
		<path id="NG-KE" title="Kebbi" class="land" d="M90.42,42.99L97.04,42.85L98.9,43.59L103.53,42.01L104.29,42.32L105.94,44.44L109.13,46.26L110.19,47.36L119.75,50.48L122.7,52.55L125.76,53.23L127.58,52.8L128.21,52.24L130.7,48.55L131.86,48.24L132.94,49.12L133.34,50.37L131.72,54.3L131.81,56.7L130.39,59.68L129.97,63.38L131.83,65.53L133.63,69.81L133.45,73.13L132.15,79.19L132.19,81.23L133.87,86.75L133.63,94.77L132.99,96.33L131.97,96.37L128.8,94.33L126.12,94.35L122.17,95.53L120.89,97.01L119.88,100.79L119.74,110.73L120.53,123.78L118.41,133.57L115.8,139.2L114.64,143.97L117.19,147.62L117.95,148.13L120.73,148.42L122.44,147.07L124.84,144.07L136.84,138.62L138.53,138.5L140.42,139.36L142.46,138.64L143.23,140.39L144.17,140.46L145.79,139.49L145.79,139.49L146.65,139.01L148.47,139.01L152.58,141.26L158.92,139.8L159.74,137.48L160.8,136.86L161.59,136.71L162.5,137.35L164.59,137.66L168.2,137.01L169.28,137.58L170.97,140.88L173.84,140.99L177.49,143.4L182.96,142.64L186.75,143.14L189.24,142.55L190.46,141.74L195.31,142.36L199.66,144.13L201.07,146.28L201.06,148.75L199.01,155.24L199.01,156.44L204.39,159.15L206.32,162.16L207.7,169.74L207.91,175.22L207.91,175.22L206.55,174.12L204.7,173.76L201.28,176.52L200,178.72L196.07,179.13L183.97,184.21L173.3,184.9L171.66,183.65L171.3,179.63L171.67,174.82L171.19,173.04L167.44,170.57L166.63,169.31L165.65,162.8L163.96,161.2L161.12,160.49L157.48,160.45L147.62,162.04L139.75,163.87L135.32,165.49L130.47,168.08L129.1,170.15L129.26,171.69L130.13,172.95L133.76,174.96L139.16,177.15L144.52,177.68L145.57,179.69L147.28,179.66L148.06,180.4L149.18,186.96L148.93,188.03L146.75,189.48L146.12,190.95L146.61,192.4L149.35,194.03L150.52,195.39L150.45,197.46L149.44,198.95L145.64,199.92L140.42,202.56L135.42,202.04L133.87,202.46L132.97,203.21L132.93,212.8L132.48,214.17L133.73,217L135.54,218.97L137.4,222L138.15,224.44L137.87,225.97L136.1,228.1L133.46,229.67L130.08,229.93L122.66,232.43L122.16,238.28L121.6,238.76L117.28,238.3L115.86,237.31L115.84,235.03L116.87,231.75L117.16,227.81L114.23,225.15L113.11,222.74L113.29,216.42L114.75,213.16L116.59,211.16L118.07,210.15L121.99,208.71L126.61,204.28L129.04,193.57L129.24,189.52L128.73,188.78L125.84,187.72L124.26,187.82L115.86,182.12L110.62,180.43L107.68,180.5L103.18,181.35L96.99,180.99L84.82,181.8L82.96,181.51L79.47,180.09L68.43,174.01L65.54,173.65L64.65,174.17L64.65,174.17L63.36,174.16L51.23,163.88L55.56,143.49L57.68,138.78L62.57,134.6L61.75,131.34L59.33,129.52L58.76,124.65L61.93,120.81L59.57,112.05L59.96,106.83L61.23,102.53L60.3,86.68L71.12,77.35L78.85,71.3L88.38,56.68L90.46,47.05z"/>
		<path id="NG-KN" title="Kano" class="land" d="M347.56,83.56L351.07,89.84L351.17,91.8L352.24,92.92L354.11,89.31L354.73,86.71L356.46,85.36L360.45,83.43L364.22,83.08L372,85.1L372.45,91.02L373.58,92.4L377.39,94.52L378.49,97.6L377.92,99.61L378.94,101L379.77,101.42L385.21,101.98L387.06,102.54L387.98,103.35L388.78,106.29L388.7,111.9L387.52,113.29L386.99,115.01L388.64,115.73L388.64,116.76L390.54,115.57L393.68,115.32L394.25,116.76L394.26,119.33L395.63,119.58L397.45,119.4L399.77,117.98L401.24,116.23L402.49,115.7L404.77,122.88L404.96,125.34L403.9,127.18L403.71,129.23L400.35,133.92L399.85,136.01L400.05,137.97L405.11,137.82L406.2,138.81L406.7,140.81L408.18,143.56L411.01,146.2L413.1,146.73L413.99,147.88L406.87,154.76L405.79,158.48L405.87,160.72L405.87,160.72L400.35,162.89L399.21,162.8L398.07,161.73L396.38,162.03L393.9,163.6L393.23,164.7L388.49,168.87L385.84,172.98L383.1,176.19L381.06,176.7L378.36,176.54L377.34,176.97L375.74,181.54L375.29,185.04L375.69,191.93L376.14,193.92L380,198.25L380.77,199.92L380.85,201.92L379.52,205.77L376.93,209.86L375.94,210.42L375.94,210.42L374.89,210.71L371.89,210.07L370.29,209.02L368.31,206.27L361.29,205.3L360.23,204.23L359.63,202.15L360.18,201.36L363.73,200.4L364.45,199.3L364.65,197.57L363.45,191.52L364.46,186.61L365.47,184.17L365.09,180.29L361.5,173.87L356.12,169.44L353.67,168.85L350.89,168.88L349.36,168.33L345.85,164.2L342.1,162.97L338.57,161.14L337.53,159.96L337,157.39L339.11,153.37L338.79,152.12L337.66,151.3L336.44,151.11L332.36,152.35L330.71,152.35L325.91,155.19L321.73,159.02L319.29,159.69L316.2,159.67L316.2,159.67L312.6,156.99L311.49,154.73L310.71,151.12L312.23,148.45L312.3,146.24L314.12,144.61L317.87,143.58L320.32,141.88L323.03,141.81L323.98,141.23L320.84,133.43L321.51,129.37L319.42,124.79L320.28,118.46L319.58,106.14L319.85,103.25L322.03,100.97L326.28,98.6L333.92,96.22L337.6,94.29L338.38,93.44L339.51,89.05L341.65,84.44L342.93,83.92z"/>
		<path id="NG-KO" title="Kogi" class="land" d="M219.3,324.19L221.5,324.76L224.27,326.34L227.79,329.59L230.56,333.91L233.11,342.16L236.82,344.46L239.53,347.15L245,354.42L247.72,356.96L249.35,357.21L249.68,356.86L250.3,353.97L251.54,351.44L251.73,351.18L252.72,352.06L253.18,351.97L253.24,349L256.81,347.26L257.93,344.01L257.93,344.01L265.39,344.16L266.79,343.7L266.79,343.7L266.19,346.34L264.64,349L264.64,349.86L265.46,351.55L267.65,354.21L268.19,360.38L267.02,365.09L266.98,369.78L265.37,371.45L264.52,373.57L264.35,377.31L265.04,377.87L269.3,374.92L278.56,370.85L290.96,367.48L298.03,366.78L301.61,367.46L309.31,368.03L309.31,368.03L308.99,370.87L309.53,376.74L311.41,379.96L314.11,382.57L314.84,384.42L314.85,391.32L315.42,398.13L316.66,403.66L317.93,404.71L321.24,404.39L322.72,404.86L322.36,406.67L321.13,407.88L320.66,409.17L320.24,413.1L318.3,418.93L315,422.04L308.56,425.16L307.6,426.6L307.26,431.02L305.5,431.02L304.15,429.97L303.33,430.07L299.96,426.78L299.12,426.2L298.71,426.7L298.71,426.7L297.6,425.08L295.16,424.33L291.85,425.09L289.71,427.19L287.27,428.1L281.09,435.52L275.11,439.38L270.14,444.77L268.9,445.1L268.21,444.76L266.88,442.75L266.14,442.7L265.96,440.42L265.05,440.17L262.32,445.18L262.32,445.18L262.32,445.18L262.32,445.18L260.98,447.05L259.44,447.91L257.2,450.22L255.96,454.34L255.9,457.07L254.06,459.58L252.63,460.47L249.04,459.81L247.37,460.58L247.37,460.58L246.34,454.55L244.93,452.54L244.04,449.94L244.97,444.42L243.69,442.27L245.85,438.72L247.76,433.9L247.7,429.74L249.32,425.8L249.63,423.88L249.48,420.47L248.69,418.46L247.24,417.38L246.69,415.26L244.94,413.85L243.07,414.26L241.61,415.25L241.18,414.87L237.43,415.71L236.77,414.08L237.01,413.57L236.27,413.01L235.79,411.27L234.94,410.66L234.87,409.44L233.81,407.43L231.25,407.28L230.51,407.79L228.25,407.98L226.29,405.75L225.74,405.81L224.48,404.4L223.83,404.47L222.27,402.37L216.33,405.3L214.2,404.77L213.12,403.99L212.84,402.94L213.07,401.01L214.03,399.16L213.76,398.36L211.58,398.61L211.12,397.96L211.5,397.07L211.22,396.39L210.52,396.03L208.77,396.4L208,395.76L208,395.76L207.77,394.98L203.03,390.81L200.99,388.11L201.7,383.97L199.19,383.54L194.57,384.42L194.57,384.42L187.75,382.03L185.9,380.34L184.62,380.31L183.3,379.35L181.98,375.6L182.06,374.04L184.35,371.03L185.69,370.39L185.97,369.02L185.41,368.32L183.1,368.05L179.43,368.69L176.95,370.11L176.4,369.66L176.43,365.38L177.52,364.96L177.52,364.96L178.27,363.52L177.45,361.11L172.69,358.53L172.56,357.94L170.14,356.13L170.07,355.46L167.66,353.01L165.74,349.31L165.91,348.32L168.05,345.89L170.34,341.98L174.05,337.94L177.65,335.65L179.42,338.27L181.59,340.03L188.63,343.04L190.47,343.12L193.23,344.2L196.94,343.99L199.07,344.68L202.99,344.56L209.29,346.08L212.32,345.58L213.89,341.82L214.53,335.33L216.84,327.54z"/>
		<path id="NG-KT" title="Katsina" class="land" d="M322.31,35.41L331.47,36.76L336.66,38.14L340.24,40.08L343.16,42.58L345.89,43.31L355.78,52.95L359.07,52.07L361.99,52.45L365.02,54L367.31,55.75L369.16,57.86L370.2,60.3L373.16,61.67L378.42,62.94L390.53,66.86L390.53,66.86L390.52,67.72L388.52,68.6L387.94,69.35L386.91,71.98L383.72,74.56L379.54,76.3L375.86,76.85L374.37,76.15L373.73,74.59L371.11,76.1L369.12,75.58L366.46,73.91L365.78,72.97L364.37,68.29L363.2,67.06L353.98,67.84L348.61,66.85L338.22,68.23L337.76,68.53L337.78,71.22L337.03,74.62L337.1,78.47L337.69,79.19L340.55,80.12L345.49,80.24L346.32,80.94L347.56,83.56L347.56,83.56L342.93,83.92L341.65,84.44L339.51,89.05L338.38,93.44L337.6,94.29L333.92,96.22L326.28,98.6L322.03,100.97L319.85,103.25L319.58,106.14L320.28,118.46L319.42,124.79L321.51,129.37L320.84,133.43L323.98,141.23L323.03,141.81L320.32,141.88L317.87,143.58L314.12,144.61L312.3,146.24L312.23,148.45L310.71,151.12L311.49,154.73L312.6,156.99L316.2,159.67L316.2,159.67L315.21,160.77L314.37,162.82L308.75,165.06L307.18,164.28L306.21,162.7L304.16,160.97L297.38,158.68L295.99,158.96L292.93,161.55L291.73,164.52L291.74,165.91L291.16,166.45L289.76,166.54L286.99,165.44L285.04,165.33L281.59,166.42L281.71,168.46L283.52,171.82L282.14,173.73L279.45,175.25L277.7,175.02L273.45,170.73L267.1,168.8L267.49,167.48L270.38,164.79L270.61,163.72L269.82,161.98L268.46,161.08L266.52,161.26L262.11,160.38L262.11,160.38L262.13,158.05L263.38,151.95L262.48,148.26L260.57,146.36L260.41,145.29L260.86,141.53L262.42,137.39L263.07,133.39L264.57,132.55L271.18,132.42L272.46,133.29L277.34,129.32L277.89,126.12L281.23,126.93L283.12,125.31L282.62,123.36L281.46,121.93L278.78,119.64L276.25,118.48L274.99,117.27L276.81,113.64L277.9,108.48L276.95,106.01L277.08,104.33L276.39,101.28L273.89,96.08L274.29,92.51L272.98,89.3L272.59,84.55L271.59,79.38L271.66,73.33L270.67,67.16L272.11,56.34L272.11,56.34L276.97,54.77L282.25,49.41L290.95,50.19L294.53,49.45L317.93,35.3L319.21,34.97z"/>
		<path id="NG-KW" title="Kwara" class="land" d="M62.01,236.63L67.39,235.71L78.71,235.36L82.33,236.29L96.31,252.15L98.3,255.25L103.91,261.73L106.2,263.31L107.9,263.13L108.94,263.61L109.21,266.55L108.48,271.2L108.54,276.58L109.42,280.26L110.72,280.65L118.29,279.86L119.13,280.6L119.56,282.22L119.37,285.65L119.72,287.05L120.38,288.07L123.59,290.48L126.63,290.87L127.7,291.42L128.6,293.53L129.34,298.98L131.23,300.3L133.23,300.29L142.39,296.73L144.8,296.57L151.15,299.58L152.57,300.68L158.92,307.91L161.17,308.6L165.13,307.44L169.65,308.25L173.38,309.86L174.02,309.59L185.79,316.91L190.98,320.58L191.91,322.07L193.37,322.78L195.21,323.38L200.13,323.7L203.52,322.79L211.04,322.48L219.3,324.19L219.3,324.19L216.84,327.54L214.53,335.33L213.89,341.82L212.32,345.58L209.29,346.08L202.99,344.56L199.07,344.68L196.94,343.99L193.23,344.2L190.47,343.12L188.63,343.04L181.59,340.03L179.42,338.27L177.65,335.65L174.05,337.94L170.34,341.98L168.05,345.89L165.91,348.32L165.74,349.31L167.66,353.01L170.07,355.46L170.14,356.13L172.56,357.94L172.69,358.53L177.45,361.11L178.27,363.52L177.52,364.96L177.52,364.96L171.76,365.05L167.65,366.39L166.83,368.61L167.12,369.24L166.08,371.4L164.79,370.85L162.84,371.43L160.54,370.81L158.21,371.04L157.26,370.55L155.79,368.49L154.84,368.12L150.36,369.37L149.33,368.88L148.72,367.21L148.31,367.38L148.31,367.38L147.92,366.84L146.25,367.64L142.76,367.77L141.28,364.6L139.1,364.02L134.36,365.72L131.71,365.34L131.79,366.22L131.61,365.37L131.25,365.46L127.7,367.07L125.1,367.38L116.83,367.16L116.83,367.16L116.34,366.5L114.89,366.43L114.18,365.49L112.28,360.68L111.89,357.91L111.11,357.25L111.08,356.45L107.62,354.2L104.67,349.96L103.45,346.52L103.36,344.42L102.57,341.65L100.6,339.02L97.6,331.91L95.94,330L94.62,324.71L93.81,323.13L94.84,318.63L96.92,317.08L97.27,315.48L97.84,314.89L101,312.8L103.34,309.64L103.18,308.34L101.87,307.56L99.04,309.36L96.83,309.44L93,308.36L91.9,308.49L89.5,306.95L83.8,305.21L80.55,302.79L78.86,300.75L78.32,298.27L74.24,295.81L72.2,295.9L68.38,297.98L66.69,301.69L66.67,304.34L66.22,305.45L61.8,308.88L55.16,311.8L49.37,315.1L46.88,317.04L45.75,317.3L42.74,319.51L35.74,322.77L34.81,322.92L34.28,322.17L33.83,322.28L32.92,321.15L32.23,320.96L29.66,321.23L22.73,326.76L21.07,327.42L17.16,330.86L16.97,331.85L15.47,332.64L11.39,333.36L8.22,333.38L5.03,336.16L5.03,336.16L5.59,334.38L5,333.02L4.99,329.48L4.28,328.58L4.52,327.14L5.07,325.75L4.68,323.04L3.71,321.25L4.45,319.85L5.88,318.94L5.48,315.6L6.17,315.37L6.51,313.65L6.31,313.03L6.33,312.15L7.02,310.51L7.45,308.95L7.04,308.19L6.77,307.42L6.42,306.64L6.55,305.47L6.8,303.74L6.96,303.05L12.33,303.23L13.04,303.07L14.09,301.89L17.64,301.33L18.3,302.15L19.54,302.6L21.03,302.5L25.98,300.77L26.23,299.01L28.18,295.13L28.35,291.39L30.26,289.51L29.92,283.69L28.64,279.68L28.95,278.26L30.11,276.38L32.58,275L33.4,273.17L35.99,269.55L36.84,266.45L37.88,265.86L40.02,266.11L42.11,264.38L42.21,263.16L40.87,260.6L40.55,258.67L40.92,257.33L42.03,256.11L48.78,253.41L52.17,253.65L53.31,253.35L55.33,251.29L55.45,249.99L57.81,247.4L58.38,244.99L58.63,240.02L59.48,238.92L61.56,238.06z"/>
		<path id="NG-LA" title="Lagos" class="land" d="M3.06,463.92L4.31,464.32L7.72,463.89L9.66,464.78L13.12,462.34L13.12,460.73L13.53,460.62L17.08,461.15L30.79,460.96L31.85,459.95L32.62,456L34.7,454.35L34.79,452L36.15,449.49L38,449.74L41.41,451.17L42.61,451.97L43.42,453.4L47.99,452.92L47.48,451.47L49.07,450.41L86.65,450.8L87.72,451.01L88.26,451.91L85.53,454.79L85.3,455.73L86.03,456.97L86.07,458.43L88.26,459.52L91.48,457.36L94.93,456.95L95.99,458.43L96.11,459.38L94.99,460.44L92.19,461.75L91.63,462.78L91.85,463.48L92.77,464.22L95.54,464.99L96.67,466.3L97.25,466.44L98.37,465.86L103.64,466.51L103.99,467.76L103.63,470.12L103.63,470.12L94.1,468.97L91.91,468.3L79.89,466.46L71.3,466L61.39,466.94L46.28,467.1L45.71,467.41L45.52,468.73L44.99,468.63L45.23,468.97L39.81,468.15L33.79,468.16L12.19,468.89L2.7,469.99L2.34,466.88z"/>
		<path id="NG-NA" title="Nassarawa" class="land" d="M306.89,287.74L308.23,286.72L308.98,286.83L309.58,288.71L310.28,289.5L311.78,288.89L312.71,289.03L315.15,290.82L316.49,290.57L318.24,291.63L319.34,291.63L321.65,289.53L322.59,286.99L324.24,284.87L325.25,284.52L326.35,284.91L329.28,287.58L329.6,290.83L333.82,293.27L334.85,294.88L334.8,304.58L335.2,305.89L336.54,306.85L337.69,306.64L340.04,305.04L344.2,300.29L345.09,298.39L346.38,297.41L347.71,297.63L349.21,298.88L353.02,299.12L358.36,305.03L358.96,306.93L361.43,307.06L363.04,306.64L363.86,305.92L367.17,300.52L369.82,294.91L370.91,294.34L370.91,294.34L372.6,295.99L375.02,296.1L377.1,296.95L377.73,301.43L379.66,304.84L381.82,305.82L387.14,306.38L390.84,306.38L393.61,305.03L394.65,305.59L396.66,307.8L395.87,310.73L393.17,314.74L391.06,316.72L389.65,316.92L388.19,317.97L386.64,320.83L385.09,322.19L384.77,324.44L385.41,326.16L387.5,328.59L387.82,329.83L387.52,335.24L388.96,337.31L394.11,340.02L397.77,341.32L405.96,341.17L415.72,338.38L426.08,342.71L428.6,344.78L430.06,347.46L430.06,347.46L427.48,351.14L424.74,351.96L420.23,351.01L419.9,350.6L418.38,350.83L417.38,349.76L415.65,348.86L413.79,348.86L412.51,349.72L411.18,351.86L410.45,354.72L412.16,356.08L414.19,358.59L414.54,361.47L414,362.12L415,364.8L414.89,365.99L403.66,373.2L402.45,374.59L402.45,374.59L390.66,365.66L390.65,366.36L386.69,366.58L381.81,366.17L374.95,364.62L364.86,360.9L362.18,360.46L359.59,360.64L358.21,360.92L354.26,363.12L353.02,364.53L352,367.39L352.08,369.91L356.78,381.55L356.69,382.91L355.55,384.01L350.22,381.78L346.9,378.98L345.83,379.12L340.58,378.13L335.66,375.31L326.95,371.76L318.44,370.51L309.31,368.03L309.31,368.03L301.61,367.46L298.03,366.78L290.96,367.48L278.56,370.85L269.3,374.92L265.04,377.87L264.35,377.31L264.52,373.57L265.37,371.45L266.98,369.78L267.02,365.09L268.19,360.38L267.65,354.21L265.46,351.55L264.64,349.86L264.64,349L266.19,346.34L266.79,343.7L266.79,343.7L277.92,341.95L280.83,340.75L285.46,339.69L292.42,336.05L296.2,331.43L297.24,329.79L298.32,326.39L299.11,326.03L300.63,318.08L302.61,312.81L303.16,305.81L302.65,303.62L302.73,298L304.84,291.48L305.37,290.87L306.4,290.8L306.82,290.18z"/>
		<path id="NG-NI" title="Niger" class="land" d="M64.65,174.17L65.54,173.65L68.43,174.01L79.47,180.09L82.96,181.51L84.82,181.8L96.99,180.99L103.18,181.35L107.68,180.5L110.62,180.43L115.86,182.12L124.26,187.82L125.84,187.72L128.73,188.78L129.24,189.52L129.04,193.57L126.61,204.28L121.99,208.71L118.07,210.15L116.59,211.16L114.75,213.16L113.29,216.42L113.11,222.74L114.23,225.15L117.16,227.81L116.87,231.75L115.84,235.03L115.86,237.31L117.28,238.3L121.6,238.76L122.16,238.28L122.66,232.43L130.08,229.93L133.46,229.67L136.1,228.1L137.87,225.97L138.15,224.44L137.4,222L135.54,218.97L133.73,217L132.48,214.17L132.93,212.8L132.97,203.21L133.87,202.46L135.42,202.04L140.42,202.56L145.64,199.92L149.44,198.95L150.45,197.46L150.52,195.39L149.35,194.03L146.61,192.4L146.12,190.95L146.75,189.48L148.93,188.03L149.18,186.96L148.06,180.4L147.28,179.66L145.57,179.69L144.52,177.68L139.16,177.15L133.76,174.96L130.13,172.95L129.26,171.69L129.1,170.15L130.47,168.08L135.32,165.49L139.75,163.87L147.62,162.04L157.48,160.45L161.12,160.49L163.96,161.2L165.65,162.8L166.63,169.31L167.44,170.57L171.19,173.04L171.67,174.82L171.3,179.63L171.66,183.65L173.3,184.9L183.97,184.21L196.07,179.13L200,178.72L201.28,176.52L204.7,173.76L206.55,174.12L207.91,175.22L207.91,175.22L211.23,179.62L215.03,186.26L216.62,190.35L216.55,191.19L216.55,191.19L213.51,196.57L213.11,201.36L214.55,203.74L214.69,205.22L213.95,207.22L214.19,211.03L212.35,212.83L212.02,215.14L212.24,216.51L215.29,218.51L216.51,222.03L217.94,222.63L219.35,221.74L224.73,214.73L230.32,210.23L232.78,208.73L234.88,208.12L237.79,207.99L238.81,208.99L239.85,211.65L247.48,208.79L251.45,209.35L252.09,208.37L251.42,205.98L252.6,204.78L257.33,205.28L257.94,205.79L258.42,207.71L258.7,212.21L260.09,212.35L262.34,211.68L263.95,212.12L265.93,215.92L265.88,218.49L264.53,222.63L269.36,224.29L272.59,226.04L272.28,228.02L271.26,229.81L267.02,232.41L266.17,233.89L264.55,235.57L262.38,236.93L261.47,238.17L262.5,240.15L264.21,241.81L270.88,244.3L283.75,244.22L285.12,244.89L285.45,245.9L285.61,250.96L286.53,254.84L286.63,257.93L286,259.44L282.77,259.85L281.89,260.27L281.6,260.91L281.77,261.82L282.9,262.59L286.52,263.95L285.69,266.97L288.69,268.59L289.27,270.47L286.18,273.64L285.58,276.43L284.79,277.3L282.34,278.59L281.78,279.52L281.69,281.84L285.08,284.62L283.7,288.75L286.16,288.15L287.39,288.57L287.39,288.57L278.74,300.91L277.8,301.15L268.61,293.05L266.85,292.42L255.82,292.89L253.14,293.22L252.8,293.6L252.44,307.26L253.19,337.47L252.73,338.84L254.68,343.75L256.1,344.22L257.93,344.01L257.93,344.01L256.81,347.26L253.24,349L253.18,351.97L252.72,352.06L251.73,351.18L251.54,351.44L250.3,353.97L249.68,356.86L249.35,357.21L247.72,356.96L245,354.42L239.53,347.15L236.82,344.46L233.11,342.16L230.56,333.91L227.79,329.59L224.27,326.34L221.5,324.76L219.3,324.19L219.3,324.19L211.04,322.48L203.52,322.79L200.13,323.7L195.21,323.38L193.37,322.78L191.91,322.07L190.98,320.58L185.79,316.91L174.02,309.59L173.38,309.86L169.65,308.25L165.13,307.44L161.17,308.6L158.92,307.91L152.57,300.68L151.15,299.58L144.8,296.57L142.39,296.73L133.23,300.29L131.23,300.3L129.34,298.98L128.6,293.53L127.7,291.42L126.63,290.87L123.59,290.48L120.38,288.07L119.72,287.05L119.37,285.65L119.56,282.22L119.13,280.6L118.29,279.86L110.72,280.65L109.42,280.26L108.54,276.58L108.48,271.2L109.21,266.55L108.94,263.61L107.9,263.13L106.2,263.31L103.91,261.73L98.3,255.25L96.31,252.15L82.33,236.29L78.71,235.36L67.39,235.71L62.01,236.63L62.01,236.63L62.5,233.61L60.54,232.91L58.44,230.89L56.69,227.35L59.77,220.38L59.63,218.69L60.52,217.55L63.1,216.22L69.18,219.41L70.18,216.29L70.43,213.3L73.25,206.87L72.59,200.67L69.9,198.77L66.93,193.17L68.14,188.57L68.27,186.53L67.04,181.48L64.91,180.66L65.33,178.71L65.05,176.76L65.56,174.81z"/>
		<path id="NG-OG" title="Ogun" class="land" d="M0.61,375.66L6.58,371.37L10.07,371.16L11.97,372.09L13.21,373.88L13.62,375.31L13.77,381.79L14.33,384.15L15.64,386.32L16.48,386.45L17.42,380.89L17.99,379.64L18.46,379.19L19.83,379.19L20.71,379.8L21.25,381.55L21.09,384.64L19.35,390.62L18.94,390.38L18.43,390.95L18.95,394.61L21.07,397.12L24.12,399.59L25.14,402.63L28.34,407.14L31.35,409.5L33.69,410.63L37.74,410.91L39.48,410.42L42.26,406.45L43.4,402.21L45.02,400.73L47.62,401.02L49.37,405.36L50.96,406.49L51.98,406.23L53.11,405.12L55.58,404.52L61.78,404.74L62.95,406.63L63.28,412.29L63.69,413L66.67,414.22L67.31,415.32L67.21,417.54L68.31,420.24L68.72,423.11L64.75,427.12L64.42,428.25L64.79,428.53L70.88,428.28L73.58,427.7L76.62,427.83L79.8,426.59L81.31,425.22L87.2,424.34L87.2,424.34L89.94,423.26L91.34,422.15L92.28,422.54L92.8,423.38L93.39,427.66L95.36,427.65L99.21,425.67L102.6,426.26L105.57,433.37L108.63,431.41L109.73,431.39L110.88,432.08L113,431.16L117.16,430.9L117.47,431.03L117.17,432.04L117.17,432.04L116.42,437.54L115.36,440.8L113.01,442.9L110.95,443.87L107.32,447.15L104.34,452.07L104.37,455.48L106.38,457.45L111.19,458.26L113.02,458.13L114.44,457.07L116.09,454.8L117.85,454.29L118.5,455.07L118.48,459.54L119.33,463.11L118.61,464.92L116.17,465.58L115.4,466.72L114.28,467.4L111.88,467.51L110.56,468.85L111.54,469.28L114.33,469.03L117.63,470.77L117.84,471.85L117.02,473.57L113.01,473.29L113.01,473.29L108.01,471.05L103.63,470.12L103.63,470.12L103.99,467.76L103.64,466.51L98.37,465.86L97.25,466.44L96.67,466.3L95.54,464.99L92.77,464.22L91.85,463.48L91.63,462.78L92.19,461.75L94.99,460.44L96.11,459.38L95.99,458.43L94.93,456.95L91.48,457.36L88.26,459.52L86.07,458.43L86.03,456.97L85.3,455.73L85.53,454.79L88.26,451.91L87.72,451.01L86.65,450.8L49.07,450.41L47.48,451.47L47.99,452.92L43.42,453.4L42.61,451.97L41.41,451.17L38,449.74L36.15,449.49L34.79,452L34.7,454.35L32.62,456L31.85,459.95L30.79,460.96L17.08,461.15L13.53,460.62L13.12,460.73L13.12,462.34L9.66,464.78L7.72,463.89L4.31,464.32L3.06,463.92L3.06,463.92L3.48,460.64L4.61,459.46L5.24,457.92L3.9,454.18L5.2,452.02L7.31,450.22L7.51,447.48L7.3,446.52L5.16,446.24L4.38,445.85L3.97,444.99L3.8,443.17L5,441.27L4.66,440.2L5.14,436.74L4.92,435.76L3.62,435.62L3.08,435.01L3.23,432.15L4.63,430.54L7.69,428.76L5.23,426.53L4.75,425.57L6.62,423.37L7.21,421.45L6.55,416.79L5.02,415.13L4.9,405.44L7.27,405.36L8.09,404.88L8.13,404.16L7.71,400.66L5.03,398.62L4.81,396.86L3.83,395.34L3.53,391.14L3.78,382.18L3.48,381.23L2.66,380.88L1.69,378.3L0,376.13z"/>
		<path id="NG-ON" title="Ondo" class="land" d="M194.57,384.42l4.62,-0.88l2.51,0.43l-0.71,4.14l2.04,2.7l4.74,4.17l0.23,0.78l0,0l-2.45,3.49l-0.9,0.6l-1.56,-0.14l-1.41,1.72l-0.18,1.38l0.4,0.84l2.02,0.82l-0.88,2.89l0.77,2.49l0.42,0.28l-1.43,3.54l-2.15,1.05l-1.76,1.83l-0.47,1.04l0.15,1.39l-3.23,6.89l0.32,0.83l-0.37,0.85l-1.51,0.73l-1.24,1.67l-0.62,4.63l1.18,1.28l0.16,0.82l-0.88,0.51l-0.01,1.63l-1.19,-0.51l-0.25,0.25l-0.95,4.96l-1.51,3.39l-2.68,1.03l-0.81,-0.36l-1.19,-1.48l-1.34,-0.12l-3.77,3.16l-0.74,0.03l-2.1,-5.46l2.01,-2.25l-1.74,-2.09l-1.64,-0.34l-3.29,0.39l-6.64,-0.11l-1.68,-0.36l-2.28,0.38l-2.12,-0.39l-2.2,1.01l-0.46,0.78l-0.09,1.96l-0.95,0.68l-0.79,2.27l-1.73,0.8l-0.45,1.04l-1.76,1.61l-0.49,0.96l0.09,2.22l-0.8,0.99l0,2.84l1.23,0.64l1.39,2.28l0.58,1.45l-0.36,1.72l-0.83,1.96l-1.74,1.71l-0.85,3.74l-2.94,0.86l-0.58,0.62l-0.96,3.62l-0.8,0.7l0.28,-0.44l-0.25,0.6l0.44,0.91l0.7,0.05l1.94,1.36l1.65,2.94l1.56,0.1l1.33,1.04l1.24,2.26l-0.39,1.16l0,0l-6.9,16.74l0,0l-4.86,-5.94l-9.17,-9.24l-14.82,-11.96l-2.7,-1.66l0,0l4,0.28l0.83,-1.73l-0.21,-1.07l-3.3,-1.74l-2.79,0.25l-0.98,-0.43l1.32,-1.35l2.4,-0.1l1.11,-0.68l0.78,-1.14l2.44,-0.66l0.72,-1.82l-0.84,-3.57l0.01,-4.47l-0.64,-0.78l-1.77,0.51l-1.65,2.27l-1.42,1.06l-1.83,0.13l-4.8,-0.81l-2.01,-1.96l-0.03,-3.41l2.98,-4.92l3.63,-3.28l2.06,-0.96l2.35,-2.1l1.07,-3.25l0.74,-5.51l0,0l2.67,-1.42l2.15,-4.97l4.29,-3.44l2.32,-0.02l2.51,1.24l2.91,2.22l1.81,0.03l0.64,-1.26l-0.23,-1.63l0.41,-2.11l-0.46,-3.98l1.56,-6.54l0.84,-0.57l5.86,-1.59l-0.62,-2.4l0,0l4.55,-1.45l7.78,0.43l6.97,-0.31l1.55,0.53l1.42,2.21l1.03,3.19l-0.16,0.86l1.09,2.69l2.28,0.59l5.53,-3.5l3.04,-4.43l1.71,-3.92l1.7,-8.1l1.13,-2.14l2.4,-2.48l2.18,-1.45l0.85,-2.06l1.86,-0.38l1.5,1.24l0.82,-0.3L194.57,384.42z"/>
		<path id="NG-OS" title="Osun" class="land" d="M116.83,367.16L125.1,367.38L127.7,367.07L131.25,365.46L131.61,365.37L131.79,366.22L131.71,365.34L134.36,365.72L139.1,364.02L141.28,364.6L142.76,367.77L146.25,367.64L147.92,366.84L148.31,367.38L148.31,367.38L146.79,372.68L144.8,374.32L142.62,375.26L141,376.76L139.1,381.01L138.98,382.41L139.79,385.22L138.6,389.21L139.29,393.99L142.14,400.1L142.98,403.89L143.81,405.59L143.81,405.59L144.43,408L138.57,409.58L137.73,410.16L136.17,416.7L136.63,420.68L136.23,422.79L136.46,424.42L135.82,425.68L134.01,425.65L131.1,423.43L128.59,422.19L126.27,422.2L121.99,425.65L119.84,430.61L117.17,432.04L117.17,432.04L117.47,431.03L117.16,430.9L113,431.16L110.88,432.08L109.73,431.39L108.63,431.41L105.57,433.37L102.6,426.26L99.21,425.67L95.36,427.65L93.39,427.66L92.8,423.38L92.28,422.54L91.34,422.15L89.94,423.26L87.2,424.34L87.2,424.34L89.54,414.5L89.97,409.21L91.64,400.49L90.77,400L87.72,395.12L84.61,392.79L84.34,391.86L84.2,390.98L85.35,389.89L86.13,388.13L87,378.86L87.6,378.58L91.9,379.92L94.22,379.17L95,378.18L95.13,375.88L96.19,375.31L99,371.99L102.01,373.83L105.6,379.39L107.73,378.46L108.38,377.03L110.43,375.87L111.41,374.48L111.69,374.87L113.52,373.36L115.81,372.6L116.06,372.98L117.05,371.64L117.36,370.36z"/>
		<path id="NG-OY" title="Oyo" class="land" d="M5.03,336.16L8.22,333.38L11.39,333.36L15.47,332.64L16.97,331.85L17.16,330.86L21.07,327.42L22.73,326.76L29.66,321.23L32.23,320.96L32.92,321.15L33.83,322.28L34.28,322.17L34.81,322.92L35.74,322.77L42.74,319.51L45.75,317.3L46.88,317.04L49.37,315.1L55.16,311.8L61.8,308.88L66.22,305.45L66.67,304.34L66.69,301.69L68.38,297.98L72.2,295.9L74.24,295.81L78.32,298.27L78.86,300.75L80.55,302.79L83.8,305.21L89.5,306.95L91.9,308.49L93,308.36L96.83,309.44L99.04,309.36L101.87,307.56L103.18,308.34L103.34,309.64L101,312.8L97.84,314.89L97.27,315.48L96.92,317.08L94.84,318.63L93.81,323.13L94.62,324.71L95.94,330L97.6,331.91L100.6,339.02L102.57,341.65L103.36,344.42L103.45,346.52L104.67,349.96L107.62,354.2L111.08,356.45L111.11,357.25L111.89,357.91L112.28,360.68L114.18,365.49L114.89,366.43L116.34,366.5L116.83,367.16L116.83,367.16L117.36,370.36L117.05,371.64L116.06,372.98L115.81,372.6L113.52,373.36L111.69,374.87L111.41,374.48L110.43,375.87L108.38,377.03L107.73,378.46L105.6,379.39L102.01,373.83L99,371.99L96.19,375.31L95.13,375.88L95,378.18L94.22,379.17L91.9,379.92L87.6,378.58L87,378.86L86.13,388.13L85.35,389.89L84.2,390.98L84.34,391.86L84.61,392.79L87.72,395.12L90.77,400L91.64,400.49L89.97,409.21L89.54,414.5L87.2,424.34L87.2,424.34L81.31,425.22L79.8,426.59L76.62,427.83L73.58,427.7L70.88,428.28L64.79,428.53L64.42,428.25L64.75,427.12L68.72,423.11L68.31,420.24L67.21,417.54L67.31,415.32L66.67,414.22L63.69,413L63.28,412.29L62.95,406.63L61.78,404.74L55.58,404.52L53.11,405.12L51.98,406.23L50.96,406.49L49.37,405.36L47.62,401.02L45.02,400.73L43.4,402.21L42.26,406.45L39.48,410.42L37.74,410.91L33.69,410.63L31.35,409.5L28.34,407.14L25.14,402.63L24.12,399.59L21.07,397.12L18.95,394.61L18.43,390.95L18.94,390.38L19.35,390.62L21.09,384.64L21.25,381.55L20.71,379.8L19.83,379.19L18.46,379.19L17.99,379.64L17.42,380.89L16.48,386.45L15.64,386.32L14.33,384.15L13.77,381.79L13.62,375.31L13.21,373.88L11.97,372.09L10.07,371.16L6.58,371.37L0.61,375.66L0.61,375.66L1.68,373.58L2.41,369.28L3.74,365.13L3.44,364.01L3.81,361.31L4.94,359.05L5.3,356.16L2.86,353.1L1.69,349.11L1.77,347.09L2.82,345.22L2.38,343.17L2.86,342.47L4.11,342.17L5.48,339.29L5.05,338.85L5.78,337.88L5.79,336.81z"/>
		<path id="NG-PL" title="Plateau" class="land" d="M378.65,223.77L380.18,223.28L383.36,223.36L386.14,224.24L388.75,228.4L389.53,233.2L389.49,245.58L400.46,243.39L401.52,243.6L403.32,245.52L404.29,248.65L404.55,254.59L404.32,255.76L401.94,260.23L401.85,261.92L402.45,262.77L406.37,264.19L407.16,264.9L408.06,266.06L409.71,270.13L411.27,271.47L412.78,272L417.58,272.27L423.05,273.75L433.09,273.16L437.48,271.75L440.37,266.54L445.13,265.24L445.63,263.57L445.36,261.83L442.19,257.77L442.49,256.33L445.52,254.55L453.12,258.5L455.69,259.01L464.95,263.94L476.02,268.68L482.2,272.72L488.56,276.15L488.56,276.15L490.12,280.09L490.33,282.24L489.82,286.32L490.58,292.28L492.88,296.14L493.93,302.16L493.38,303.49L493.68,305.74L494.11,305.74L494.32,311.28L492.54,314.36L480.36,320.22L478.46,320.11L468.94,322.21L466.45,323.65L464.39,327.84L459.65,333.56L452.54,337.32L444.86,344.97L442.43,346.16L438.02,347.17L433.91,347.71L430.06,347.46L430.06,347.46L428.6,344.78L426.08,342.71L415.72,338.38L405.96,341.17L397.77,341.32L394.11,340.02L388.96,337.31L387.52,335.24L387.82,329.83L387.5,328.59L385.41,326.16L384.77,324.44L385.09,322.19L386.64,320.83L388.19,317.97L389.65,316.92L391.06,316.72L393.17,314.74L395.87,310.73L396.66,307.8L394.65,305.59L393.61,305.03L390.84,306.38L387.14,306.38L381.82,305.82L379.66,304.84L377.73,301.43L377.1,296.95L375.02,296.1L372.6,295.99L370.91,294.34L370.91,294.34L372.58,290.4L372.46,286.99L371.46,284.9L369.75,283.69L367.18,280.61L363.92,275.33L363.82,274.17L364.87,272.77L364.66,268.03L366.42,266.75L366.82,263.67L368.73,262.12L369.15,261.05L368.62,258.95L369.32,251.14L369.14,249.17L369.48,248.07L371.87,246.1L371.12,242.58L369.76,239.76L369.98,237.05L372.11,232.08L374.01,230.68L376.2,229.95L377.52,228.39L378.07,226.96L378.28,224.06z"/>
		<path id="NG-RI" title="Rivers" class="land" d="M277.37,584.84l-1.46,1.39l0.02,0.77l-0.62,-0.24l0.22,-1.42l1.44,-0.82L277.37,584.84zM274.23,583l-1.72,-0.98l-0.55,0.15l-0.55,0.15l-0.21,-0.69l0.86,-0.79l-0.31,-0.67l0.31,-0.65l-0.07,-1.05l-0.57,-0.81l-0.91,-0.17l-0.22,0.16l-0.71,-1.7l-0.27,-0.17l0.14,-0.46l-0.86,-0.86l-0.27,0.36l-0.96,0.15l-0.19,0.82l0.57,1.03l0.5,1.05l0.41,2.04l-0.48,-0.23l-0.45,0.63l1.07,3.48l-0.14,1.27l1.17,4.04l-0.24,0.22l0.77,0.46l2.06,-0.43l0.4,-0.45l0.13,-0.58l1.75,0.49l0.03,-2.23l0.67,-1.56L274.23,583zM270.43,572.74l0.41,0.46l2.18,0.09l0.19,-0.91l-0.41,-0.31l-1.69,0.3L270.43,572.74zM271.7,570.28l0.36,1.13l0.52,0.19l-0.29,-1.9L271.7,570.28zM278.9,580.02l-1.44,-2.86l-1,-0.7l-1.63,-0.81l-0.27,-0.12l-0.84,0.65l0.65,0.09l1.31,1.13l0.14,0.21l-0.23,0.46l0.52,0.93l0.12,1.92l1.29,1.2l0.91,0.17l0.67,-1.41L278.9,580.02zM284.82,586.14l-2.08,-2.62l-1.31,1.63l0.79,0.79l0.81,-0.24l0.38,0.91h0.76l0.22,0.62l1.17,-0.5l1.08,1.08l1.86,-1.49l-0.62,-0.55L284.82,586.14zM264.91,579.53l-1.12,0.53l-0.28,1.32l1.14,0.4l1.44,1.08l1.03,2.28l-0.29,-3.36l-0.36,-0.15l0.26,-1.49L264.91,579.53zM283.04,582.09l-2.37,-1.62l-1.55,-2.35l-0.03,-0.27l-0.48,-1.7l-0.48,0.43l-0.4,-0.36l0.43,-0.67l-0.03,-1.49l-0.12,-0.07l-0.57,1.85l-2.25,-0.7l-0.53,-0.1l-0.88,-1.08l-0.07,-1.52l-0.36,-0.29l-0.07,-0.46l-0.26,-0.17l-0.15,-0.65l0.5,-0.79l-0.98,-1.22l-0.81,0.53l-0.34,0.89l0.65,1.54l-2.06,0.77l-0.41,0.36l-0.93,0.38l-0.52,0.05l-1,0.77l-0.46,0.62l-0.09,-1.51l-0.58,0.74l-0.22,0.51l1,1.65l0.55,2.45l-1.31,0.45l-0.53,0.21l-1.38,-1.61l-0.71,-1.9l-1.45,-2.41l-1.5,-0.51l0.56,-1.55l-0.68,-2.22l0.98,-0.81l0.35,-0.48l-0.53,-0.67l-1.81,-0.24l-1.81,-1.11l-0.28,1.59l-0.89,0.57l-0.33,-0.77l-1.27,-0.14l-0.34,-0.34l-0.64,0.19l-0.77,0.03l-0.62,-0.87l-0.19,-0.14l-0.55,0.41l0.19,0.99l-0.14,0.33l0.46,0.31l1.27,1.27l-0.12,1.53l0.98,4.64l3.22,3.31l0.02,1.18l-1.81,1.46l-0.1,0.58l1.82,6.56l0.55,3.32l2.41,2.48l-0.29,0.33l-7.24,0.69l-2.24,-0.75l-0.09,-2.71l-0.24,-2.54l0.14,-0.46l-0.03,-0.17l-0.46,-2.71l-0.19,-0.75l1.94,-3.67l-0.19,-2.67l-0.67,0.15l-0.68,0.1l-3.96,-2.6l-1.2,-4.38l-1.38,-1.87l-1.99,-0.02l-6.54,2.54l-1.04,-0.26l-0.35,-1.94l0.42,-1.46l-3.31,-1.44l-0.5,-0.83l0.07,-4.34l1.9,-2.67l0.76,-2.05l0.03,-1.27l-1.29,0.16l-0.84,-0.78l1.33,-4.44l4.49,-7.84l2.77,0.17l0.55,-0.5l0.75,-2.49l1.54,-0.79l-0.23,-1.81l1.58,-1.07l0.95,-1.48l-0.03,-1.94l-0.63,-1.54l-0.76,-0.58l-1.92,-0.83l-2.94,0.49l-1.04,-0.28l-0.57,-1.04l0.21,-0.44l3.52,-1.81l0.19,-5.3l0.7,-1.48l2.05,-1.42l0.89,-1.75l0.82,-3.18l-1.09,-3.54l0.23,-0.35l1.11,1.28l2.4,0.21l-2.75,13.08l1.51,0.44l3.47,-0.67l2.12,0.78l0.44,1.66l-0.52,4.62l-1.09,2.76l0.26,1.37l1.84,1.3l1.72,3.41l2.16,1.65l2.14,0.41l6.72,-0.14l4.7,1.12l4.15,-1.07l2.13,-0.03l4.51,1.13l2.57,-0.95l0.55,0.05l0.66,1.72l0.06,2.78l-2.4,4.19l-3.41,4.33l-1.37,3.71l-0.16,1.09l0.6,1.11l1.45,1.41l1.8,0.27l3.13,-0.59l1.11,-0.64l2.79,-0.12l3.28,1.22l1.81,-0.42l2.94,1.4l2.35,1.79l1.95,3.49l0.63,2.3l-0.96,4.27l0.58,4.55l-0.51,0.32l-0.04,0.64l0.61,1.17l-1.22,0.77l-0.84,-0.72l-0.17,-0.98l-1.22,-0.27l-0.55,-0.26l-0.26,0.46l-1.39,1.18l-0.58,-0.24l-0.26,-0.36l-0.38,-0.02l-0.71,0.39l-1.5,-2.36l-1.27,0.96l-0.93,-0.36l-1.6,-0.5l-0.65,-1.03l-0.67,0.19l-0.74,-0.86l-0.62,0.51l-0.19,0.79l-0.89,0.33l0.34,1.08l0.27,1.03l0.24,0.6l0.78,0.6l0.77,-0.24l0.57,0.08l0.86,-0.31l-0.17,1.75l-1.77,0.17l-1.44,0.53l-0.74,-1.2l-0.1,-0.33l-1.05,-1.17l-0.15,-0.94L283.04,582.09zM304.56,586.4l-0.69,-0.39l-0.43,-0.03l-0.88,-0.36l-0.02,-0.02l-0.4,-0.36l-0.42,0.46l-0.32,-0.13l0.35,-0.54l-0.88,-1.49l-0.9,0.53l-1.04,-0.9l-0.36,-0.34l-0.17,-0.51l-1.39,0.01l-0.26,0.28l-1.23,0.87l-1.33,-0.05l-0.46,0.04l-0.43,-0.23l-0.63,-0.63l-0.53,-0.31l-0.09,-0.81l-1.24,0.34l-1.03,0.02l0.02,-0.42l-1.25,-0.34l-0.91,-0.46l-1.34,-0.09l-0.48,0.24l-0.23,0.58l-0.02,0.79h1.72l0.09,0.08l1.17,1.07l0.23,0.67l0.36,1.37l0.84,0.31l0.16,-0.4l0.34,0.28l1.07,0.03l0.06,0.22l-1.84,0.74l-0.43,0.15l-0.69,2.4l5.47,0.77l4.18,-0.92l5.93,-0.14l-0.19,-1.22L304.56,586.4zM255.88,568.33l0.79,-0.17l0.92,-0.79l0.08,-1.12l1.29,0.9l1.6,0.63l-0.96,1.17l0.43,1.85l0.27,0.32l-0.03,0.58l-0.6,0.94l0.22,0.64l1.01,0.31l1.26,1.35l2.07,4.36l-0.93,0.61l-0.42,0.84l0.15,0.91l3.15,1.85l0.6,2.9l0.88,1.32l-0.12,1.39l0.48,1.61l1.48,1.13l-1.12,1.39l-0.96,0.36l-0.86,-0.5l-0.6,0.41l-6.38,-1.39l-0.81,-2.54l0.53,-0.62l-0.6,0.02l-1.36,-3.89l-0.81,-1.9l0.1,-2.06l1.63,-1.56l-0.17,-1.35l-1.81,-1.66l-1.69,-1.15l-0.76,-4.06l-0.29,-0.58l0.02,-1.82l-0.77,-1.08l1.24,-0.74l0.88,0.63h0.67L255.88,568.33z"/>
		<path id="NG-SO" title="Sokoto" class="land" d="M178.08,0.5L190.96,6.18L211.49,13.43L215.49,15.78L220.13,14.29L223.78,14.27L232.32,18.39L248.2,33.95L254.18,44.37L254.18,44.37L251.15,46.97L244.05,50.97L234.54,49.69L232.64,49.03L230.94,46.98L228.67,46.3L223.7,46.11L223.11,51.59L222.38,53.48L221.88,53.7L219.18,52.26L216.39,52.26L211.54,53.82L209.43,55.64L209.32,56.34L210.1,61.48L210.17,69.92L208.82,70.92L204.78,72.56L194.76,73.35L188.67,74.3L182.84,82.88L180.96,84.75L177.89,86.66L177.95,89.54L179.38,94.18L180.03,98.43L179.29,101.46L176.83,103.16L170.72,103.69L169.44,103.4L164.64,104.04L162,103.73L157.53,104.06L148.2,102.39L147.28,102.99L146.35,107.5L146.45,125.71L145.79,139.49L145.79,139.49L144.17,140.46L143.23,140.39L142.46,138.64L140.42,139.36L138.53,138.5L136.84,138.62L124.84,144.07L122.44,147.07L120.73,148.42L117.95,148.13L117.19,147.62L114.64,143.97L115.8,139.2L118.41,133.57L120.53,123.78L119.74,110.73L119.88,100.79L120.89,97.01L122.17,95.53L126.12,94.35L128.8,94.33L131.97,96.37L132.99,96.33L133.63,94.77L133.87,86.75L132.19,81.23L132.15,79.19L133.45,73.13L133.63,69.81L131.83,65.53L129.97,63.38L130.39,59.68L131.81,56.7L131.72,54.3L133.34,50.37L132.94,49.12L131.86,48.24L130.7,48.55L128.21,52.24L127.58,52.8L125.76,53.23L122.7,52.55L119.75,50.48L110.19,47.36L109.13,46.26L105.94,44.44L104.29,42.32L103.53,42.01L98.9,43.59L97.04,42.85L90.42,42.99L90.42,42.99L90.51,26.55L94.65,26.53L111.21,11.95L136.33,6.94L138.74,9.08L144.45,9.56L150.9,8.84L155.75,9.4L161.08,9.24L166.33,2.98L176.93z"/>
		<path id="NG-TA" title="Taraba" class="land" d="M488.56,276.15L493.15,273.5L499,274.28L509.59,269.43L516.03,270.52L520.02,270.55L520.02,270.55L523.59,271.26L529.49,270.66L541.95,270.68L548.32,270.21L548.32,270.21L553.77,280.39L555.23,282.31L559.88,283.39L561.96,284.68L567.22,294.5L566.76,296.67L567.1,300.51L569.76,303.45L573.9,304.92L575.92,308.76L576.18,310.57L575.18,314.19L569.19,325.63L569.57,331.41L569.13,333.49L563.01,338.71L554.38,350.23L549.3,355.71L545.5,358.93L541.36,363.71L540.54,365.29L543.06,372.02L545.97,376.72L548.68,379.17L551.4,377.18L554.23,373.17L555.87,372.79L557.29,373.22L558.81,374.34L561.31,377.49L565.63,381.33L567.78,383.93L568.82,385.95L568.24,391.44L568.98,393.17L569.36,396.71L571.3,401.33L571.25,402.89L572.47,403.77L572.47,403.77L567.53,409.25L566.44,411.19L565.55,414.11L565.93,420.03L566.85,423.35L568.18,425.47L568,426.76L567.02,427.49L562.98,427.14L562.3,427.6L560.24,427.66L560.06,429.3L558.34,430.05L556.8,431.98L554.89,432.41L553.8,436.62L551.68,437.27L550.31,439.99L550.37,440.49L551.31,440.44L551.77,440.88L551.86,442.65L552.74,442.76L552.93,443.65L551.94,444.08L551.32,445.23L552.26,446.75L552.18,447.79L550.26,448.9L550.04,452.12L548.58,453.56L548.01,455.47L546.2,456.25L544.43,455.42L543.83,455.96L542.59,456.11L542.13,456.75L542.59,457.63L542.41,459.36L541.97,459.86L538.22,460.54L537.8,460.76L537.6,462.13L536.23,461.95L533.2,459.92L530.95,460.93L530.28,460.23L527.27,459.57L525.85,458.35L525.27,458.4L524.05,459.81L522.02,459.73L522.26,451L520.23,448.84L517.99,448.73L515.63,450.87L512.79,450.39L510.93,449.54L509.5,446.16L508.32,443.97L507.1,443.16L505.93,443.09L504.62,440.98L504.5,440.25L506.16,435.46L503.5,433.62L502.01,433.42L501.41,434.16L499.72,432.01L498.69,431.93L497.19,430.32L496.42,430.25L496.06,428.73L494.81,428.1L494.41,428.56L492.94,428.2L491.09,426.62L491.61,424.69L491.21,422.6L489.56,421.29L488.8,426.05L488.88,428.94L487.49,434.96L486.61,435.96L484.94,436.53L484.6,437.4L483.96,437.51L483.02,436.54L467.33,438.06L464.69,434.98L465.31,433.23L464.46,431.17L464.27,429.99L464.34,429.18L463.45,428.86L455.25,436.26L454.61,437.38L452.17,439.1L451.05,440.94L446.43,445.57L445.09,444.85L442.89,444.75L441.29,444.53L440.49,443.92L439.59,446.05L439.89,446.84L439.13,447.81L438.75,449.61L439.11,451.64L438.83,452.71L438.23,453.08L437.21,455.9L435.86,461.27L435.36,461.66L434.68,461.32L433.36,461.69L432.33,460.37L431.89,460.83L431.89,460.83L433.79,452.64L433.82,443.88L434.15,442.8L433.54,442.07L435.65,430.57L438.96,424.41L442.4,421.16L445.49,419.22L446.41,417.79L446.12,411.87L448.5,405.98L449.09,402.75L448.53,400.97L448.79,399.93L447.62,398.57L447.76,397.92L439.39,390.35L434.95,384.7L429.81,379.8L422.33,378.03L414.15,377.55L406.68,378.5L400.56,381.13L398.66,380.56L402.45,374.59L402.45,374.59L403.66,373.2L414.89,365.99L415,364.8L414,362.12L414.54,361.47L414.19,358.59L412.16,356.08L410.45,354.72L411.18,351.86L412.51,349.72L413.79,348.86L415.65,348.86L417.38,349.76L418.38,350.83L419.9,350.6L420.23,351.01L424.74,351.96L427.48,351.14L430.06,347.46L430.06,347.46L433.91,347.71L438.02,347.17L442.43,346.16L444.86,344.97L452.54,337.32L459.65,333.56L464.39,327.84L466.45,323.65L468.94,322.21L478.46,320.11L480.36,320.22L492.54,314.36L494.32,311.28L494.11,305.74L493.68,305.74L493.38,303.49L493.93,302.16L492.88,296.14L490.58,292.28L489.82,286.32L490.33,282.24L490.12,280.09z"/>
		<path id="NG-YO" title="Yobe" class="land" d="M526.07,32.72L538.52,32.91L548.08,34.11L558.84,38.29L570.53,40.84L573.26,42.35L579.35,47.52L584.13,50.52L585.71,50.66L586.01,49.84L587.01,49.56L588.66,50.21L589.28,49.69L588.73,48.51L590.22,48.67L591.92,49.61L593.58,49.19L594.41,49.9L595.04,50.97L596.08,50.35L598.93,50.96L599.67,51.46L600.6,51.58L601.59,51.57L601.59,51.57L601.51,55.78L600.02,63.8L601.25,67.65L602.7,69.47L607.5,73.31L607.98,77.05L606.14,81.26L603.77,84.34L596.71,90.65L596.16,92.85L597.88,96.68L597.83,102.47L595.29,118.76L595.16,122.26L596.85,129.7L592.13,138.84L592.28,140.78L592.92,141.14L597.83,140.93L600.96,144.68L601.8,148.01L600.81,150.12L596.27,154.55L592.97,160.45L590.08,163.8L589.18,166.66L589.22,169.63L589.98,173.78L589.74,176.72L587.65,179.8L581.54,183.45L570.33,186.47L567.67,188.39L565.95,191.22L565.34,193.99L565.62,202.38L562.21,206.91L559.17,207.6L559.17,207.6L552.39,207.61L552.09,207.1L551.32,200.65L552.52,188.8L551.85,183.93L548.17,180.55L546.59,181.57L547.59,180.03L544.17,176.45L539.42,170.05L530.93,163.79L528.75,162.5L525.77,161.49L521.73,161.32L517.56,162.83L516.65,163.71L516.65,163.71L513.61,163.34L511.98,161.81L512.97,155.03L514.02,152.31L514.25,147.39L505.9,126.48L505.7,122.61L504.75,119.9L504.42,117.2L504.21,110.46L501.05,105.8L501.24,103.99L500.47,96.91L499.33,93.98L491.59,87.79L491.59,87.79L490.72,84.89L488.96,73.36L486.75,69.96L484.9,69.08L482.87,69.69L477.88,67.47L472.02,69.33L470.9,70.05L469.44,67.52L468.75,63.17L466.62,58.39L464.41,57.14L458.08,59.1L455.26,60.47L452.1,61.1L446.78,63.69L444.68,67.68L441.54,69.48L435.54,68.75L433.75,67.57L433.75,67.57L441.13,60.07L444.38,55.47L448.46,51.96L453.65,46.11L457.63,43.57L466.68,39.51L482.74,38.57L495.29,33.87L514.87,32.8z"/>
		<path id="NG-ZA" title="Zamfara" class="land" d="M258.24,50.54L263.69,57.06L268.77,56.95L272.11,56.34L272.11,56.34L270.67,67.16L271.66,73.33L271.59,79.38L272.59,84.55L272.98,89.3L274.29,92.51L273.89,96.08L276.39,101.28L277.08,104.33L276.95,106.01L277.9,108.48L276.81,113.64L274.99,117.27L276.25,118.48L278.78,119.64L281.46,121.93L282.62,123.36L283.12,125.31L281.23,126.93L277.89,126.12L277.34,129.32L272.46,133.29L271.18,132.42L264.57,132.55L263.07,133.39L262.42,137.39L260.86,141.53L260.41,145.29L260.57,146.36L262.48,148.26L263.38,151.95L262.13,158.05L262.11,160.38L262.11,160.38L261.1,160.35L258.76,162.73L256.01,164.5L255.16,165.64L253.45,169.05L252.81,172.6L251.3,175.83L248.26,178.93L245.93,180.44L241.22,181.06L233.28,180.49L227.64,181.44L222.37,186.15L219.51,190.31L218.23,191.07L216.55,191.19L216.55,191.19L216.62,190.35L215.03,186.26L211.23,179.62L207.91,175.22L207.91,175.22L207.7,169.74L206.32,162.16L204.39,159.15L199.01,156.44L199.01,155.24L201.06,148.75L201.07,146.28L199.66,144.13L195.31,142.36L190.46,141.74L189.24,142.55L186.75,143.14L182.96,142.64L177.49,143.4L173.84,140.99L170.97,140.88L169.28,137.58L168.2,137.01L164.59,137.66L162.5,137.35L161.59,136.71L160.8,136.86L159.74,137.48L158.92,139.8L152.58,141.26L148.47,139.01L146.65,139.01L145.79,139.49L145.79,139.49L146.45,125.71L146.35,107.5L147.28,102.99L148.2,102.39L157.53,104.06L162,103.73L164.64,104.04L169.44,103.4L170.72,103.69L176.83,103.16L179.29,101.46L180.03,98.43L179.38,94.18L177.95,89.54L177.89,86.66L180.96,84.75L182.84,82.88L188.67,74.3L194.76,73.35L204.78,72.56L208.82,70.92L210.17,69.92L210.1,61.48L209.32,56.34L209.43,55.64L211.54,53.82L216.39,52.26L219.18,52.26L221.88,53.7L222.38,53.48L223.11,51.59L223.7,46.11L228.67,46.3L230.94,46.98L232.64,49.03L234.54,49.69L244.05,50.97L251.15,46.97L254.18,44.37L254.18,44.37z"/>
	</g>
</svg>