<?xml version="1.0" encoding="utf-8"?>
<!-- (c) ammap.com | SVG map of Pakistan - Low -->
<svg xmlns="http://www.w3.org/2000/svg" xmlns:amcharts="http://amcharts.com/ammap" xmlns:xlink="http://www.w3.org/1999/xlink" version="1.1">
	<defs>
		<style type="text/css">
			.land
			{
				fill: #CCCCCC;
				fill-opacity: 1;
				stroke:white;
				stroke-opacity: 1;
				stroke-width:0.5;
			}
		</style>

		<amcharts:ammap projection="mercator" leftLongitude="60.895802" topLatitude="37.095717" rightLongitude="77.845456" bottomLatitude="23.706264"></amcharts:ammap>

		<!-- All areas are listed in the line below. You can use this list in your script. -->
		<!--{id:"PK-BA"},{id:"PK-GB"},{id:"PK-IS"},{id:"PK-JK"},{id:"PK-KP"},{id:"PK-PB"},{id:"PK-SD"},{id:"PK-TA"}-->

	</defs>
	<g>
		<path id="PK-BA" title="Balochistan" class="land" d="M325.83,241.13l8.46,0.33l4.85,-5.45l5.76,-0.93l-1.14,3.85l2.77,1.78l-1.42,3.64l1.29,0.84l2.81,-1.6l-1.03,16.63l3.25,2.32l1.14,6.48l2.01,-4.22l2.78,-0.31l2.83,-2.43l0.73,1.05l-0.82,14.34l0.97,2.91l0,0l0.44,11.39l-2.48,0.46l-0.41,2.63l-4.17,2.51l0.53,4.18l-4.46,7.74l-1.47,6.36l1.42,2.84l2.2,-1.53l1.23,1.71l-3.29,4.18l0.02,3.14l-4.9,10.97l-3.64,3.95l-5.56,2.81l-1.26,9.58l3.72,1.52l-0.42,2.71l1.55,2.29l1.64,-1.16l0.66,0.9l-1.73,8.31l-7.6,7.77l-0.34,2.92l1.27,1.99l-1.96,4.62l-2.51,3.79l-3.39,1.9l2,4.24l0,0l-35.11,1.29l-3.65,4.68l-15.94,11.24l-2.08,3.46l-10.27,4.24l-10.19,2.1l-0.99,4.66l-6.76,9.88l-2.18,11.11l1.53,31.15l11.06,19.35l-0.67,12.91l-2.4,6.17l-3.29,2.61l-0.64,2.63l-1.9,0.89l-2.46,4.34l0.18,3.49l-5.31,6.85l-0.13,2.66l-3.16,3.47l-2.95,0.41l-5.99,5.07l0,0l-1.34,-1.77l2.51,-10.95l-7.46,-7.16l1.4,-2.86l-0.9,-2.15l-4.8,-1.32l-0.16,-1.42l-1.59,0.3l0.19,-1.75l-2.12,-0.78l-3.76,2.06l3.87,0.04l3.27,2.76l3.28,0.33l0.43,1.52l-1.45,0.13l1.28,1.37l-9.14,-2.7l-17.61,2.06l-7.32,2.8l-6.97,-1.6l-7.36,0.52l-3.02,3.23l-16.45,-0.7l-4.72,2.47l-0.13,2.53l2.04,0.82l-3.85,1.2l-0.67,-0.96l1.56,-1.79l-1.79,-1.85l-6.69,1.08l-6.71,-3.19l-5.17,-0.5l-0.05,-1.68l-0.73,-1.35l3.06,-0.04l1.11,-1.93l-2.23,-1.34l-4.79,0.57l0.74,1.02l-1.83,0.76l0.99,1.31l1.82,-0.91l0.47,3.51l-13.87,-2.51l-4.71,0.72l-2.99,1.8l-0.04,5.13l-14.31,-2.23l-4.66,2.02l-18.32,-2.44l-7.12,3.97l-0.71,2.38l1.78,1.04l-4.48,-0.42l2.27,-0.68l-0.42,-2.3l-5.37,-1.97l-4.15,1.8l1.3,3.33l-7.11,-0.38l-1.78,0.77l-0.39,2.3l-4.72,0.63l1,-4.4l-7,-2.49l3.05,-4.82l1.98,-16.57l-0.68,-4.82l3.53,-0.81l2.61,-17.55l10.57,-3.8l0.44,-3.14l5.81,1.36l-1.01,-3.76l2.03,-1.32l-0.11,-2.05l4.97,-1.88l6.72,-0.73l6.6,-2.89l15.1,0.21l0.89,-8.45l3.45,-1.34l-0.99,-9l2.38,-2.41l-5.15,-4.45l-9,2.14l-6.52,-1.83l1.92,-3.06l-0.97,-1.52l1.86,-5.42l-3.37,-24.66l0.92,-10.68l-7.72,0.96l-6.79,-7.14l-14.44,-3.92l-9.25,-5.8l-11.6,-16.14l-1.31,-4.68l-2.12,-0.95l0.5,-2.56L17.73,360l0.57,-2.91l-6.96,-6.8L0,335.46l61.2,20.41l45.77,-4.42l11.78,2.24l6.57,2.83l1.91,-4.43l11.56,-4.86l18.33,0.21l3.58,1.43l28.35,-8.44l-0.02,1.1l18.57,-6.27l3.5,-5.16l-4.59,-4.8l2.51,-3.62l2.98,-12.81l-0.62,-2.68l-2.69,-1.93l3.49,-9.74l-0.99,-1.36l4.77,-5.98l-1,-0.71l5.28,-1.12l4.01,-4.55l1.29,-6.74l2.42,-0.05l4.23,-3.74l4.29,-0.69l1.13,1.11l-1.08,2.37l1.84,1.39l9.4,0.95l17.71,-6.54l1.05,-1.31l-0.72,-1.95l-5.32,-0.03l-3.09,-5.78l6.79,1.1l5.09,-4.69l7.44,-3.09l4.46,-7.13l3.5,1.48l1.05,2.02l5.23,-0.02l5.74,-3.2l2.4,2.25l2.69,0.38l0.59,3.31l3.4,3.92l4.33,0.24l1.25,-1.85l2.78,0.86l3.75,-3.46l3.08,-6.57L325.83,241.13z"/>
		<path id="PK-GB" title="Gilgit-Baltistan" class="land" d="M535.43,3.62L538.9,1.67L539.66,5.26L542.41,7.84L546.39,4.13L551.09,3.72L554.59,6.73L560.95,7.44L562.99,18.08L565.95,18.03L566.54,15.92L570.64,15.81L580.95,22.94L585.07,33.06L583.63,38.6L586.24,41.76L584.33,42.05L584.83,44.65L581.64,46.21L582.01,49.29L584.15,51.73L587.64,51.9L590.36,56.02L590.86,60.51L597.58,60.51L599.31,58.73L606.03,56.5L607.14,62.82L613.19,68.07L617.05,68.21L620.97,71.28L624.96,71.61L629.99,74.98L634.85,74.86L638.29,77.8L643.5,76.51L649.68,77.24L653.62,75.51L655.38,76.27L628.83,97.32L625.41,98.76L623.47,98.08L622.67,102.75L617.74,101.19L613.07,103.34L612.84,107.4L610.46,111.18L605.82,111.24L602.43,109.55L590.2,116.62L585.5,115.36L574.39,122.59L563.38,121.3L563.38,121.3L559.1,116.6L559.29,110.11L555.4,104.27L547.94,109.41L545.83,106.37L539.31,103L537.34,103.9L538.26,97.7L531.43,92.6L525.64,96.18L519.59,93.5L511.62,94.03L511.62,94.03L498.99,88.7L496.15,89.47L495.1,81.81L499.25,76.12L478.92,70.93L473.31,66.42L472.85,60.27L471.63,59.24L467.13,60.49L461.29,59.44L455.31,61.23L451.61,59.92L449.2,57.34L451.3,52.23L449.43,48.28L451.07,41.06L455.55,39.99L462.28,34.67L463.22,30.97L466.49,30.1L469.42,26.92L470.87,23.67L470.37,19.56L483.8,16.64L490.72,18.77L500.84,18.75L500.55,14.73L494.98,12.06L493.61,9.99L493.61,9.99L493.68,8.96L500.54,9.07L511.36,12.31L512.61,9.03L516.49,9.48L522.99,4.87L526.74,4.73L528.33,6.6L530.7,0.39L533.15,0.1z"/>
		<path id="PK-IS" title="Islamabad" class="land" d="M468.43,158.06L472.3,156.09L477.42,156.4L482.67,152.28L482.67,152.28L483.56,159.54L485.62,160.56L487.76,165.64L487.96,172.68L481.53,174.7L475.36,173.47L472.97,170.57L471.81,161.6L468.7,164.34z"/>
		<path id="PK-JK" title="Azad Kashmir" class="land" d="M511.62,94.03L519.59,93.5L525.64,96.18L531.43,92.6L538.26,97.7L537.34,103.9L539.31,103L545.83,106.37L547.94,109.41L555.4,104.27L559.29,110.11L559.1,116.6L563.38,121.3L563.38,121.3L558.97,120.42L555.07,116.44L546.13,116.71L541.95,114.76L534.89,114.5L529.17,110.69L518.61,109.27L512.21,114.38L505.19,114.13L503.92,116.5L504.72,119.91L502.68,121.14L502.81,123.52L498.1,127.23L497.96,130.34L502.84,129.87L505.81,134.3L505.82,136.77L502.31,143.13L502.79,145.09L506.96,145.57L511.51,144.05L516.35,145.97L516.83,150.11L515.23,152.78L509.27,154.96L505.04,159.58L507.83,166.32L510.43,166.52L513.96,171.82L513.33,176.84L510.71,180.35L507.51,180.89L507.28,183.67L511.05,185.23L514.67,190.8L520.26,192.04L519.03,196.47L522.74,197.19L524.59,202.33L524.59,202.33L520.89,203.19L519.48,201.25L506.84,195L503.68,191.22L499.22,192.38L492.35,188.44L493.6,183.81L492.19,182.85L490.12,175.66L492.29,171.63L492.3,166.59L490.05,164.03L491.21,160.59L489.97,156.41L490.7,152.09L488.55,147.73L488.55,147.73L486.02,133.81L483.49,129.98L485.17,120.75L490.55,119.22L492.85,120.2L493.72,114.23L496.14,110.44L506.07,106.12L510.03,99.03L509.27,95.66z"/>
		<path id="PK-KP" title="Khyber Pakhtunkhwa" class="land" d="M493.61,9.99L494.98,12.06L500.55,14.73L500.84,18.75L490.72,18.77L483.8,16.64L470.37,19.56L470.87,23.67L469.42,26.92L466.49,30.1L463.22,30.97L462.28,34.67L455.55,39.99L451.07,41.06L449.43,48.28L451.3,52.23L449.2,57.34L451.61,59.92L455.31,61.23L461.29,59.44L467.13,60.49L471.63,59.24L472.85,60.27L473.31,66.42L478.92,70.93L499.25,76.12L495.1,81.81L496.15,89.47L498.99,88.7L511.62,94.03L511.62,94.03L509.27,95.66L510.03,99.03L506.07,106.12L496.14,110.44L493.72,114.23L492.85,120.2L490.55,119.22L485.17,120.75L483.49,129.98L486.02,133.81L488.55,147.73L488.55,147.73L483.79,149.74L484.27,151.56L482.67,152.28L482.67,152.28L477.42,156.4L472.3,156.09L468.43,158.06L468.43,158.06L466.56,158.85L465.46,157.42L462.08,157.14L460.19,148.67L456.34,152L454.53,151.89L453.4,151.01L454.33,148.57L451.01,148.34L449.69,145.81L446.8,144.8L438.83,149.06L439.15,156.69L433.18,155.83L431.14,157.49L428.99,161.68L428.1,168.17L424.92,173.14L418.39,176.87L417.69,180.5L419.91,184.78L418.23,189.66L414.54,187.85L412.51,182.73L405.7,182.04L407.58,191.8L403.73,193.64L400.69,192.73L397.15,194.99L394.76,203.13L396.87,211.03L400.72,212.03L399.81,215.34L404.34,214.32L404.12,221.46L400.38,222.39L397.48,226.57L397.45,229.92L394.63,231.77L392.2,243.7L385.52,253.01L383.94,259.49L385.54,258.85L386.17,260.29L385.52,264.22L383.58,265.2L383.14,269.28L380.72,271.33L379.99,268.69L377.67,269.81L373.08,268.38L368.96,270.42L367.17,273.7L367.17,273.7L364.13,261.55L367.13,258.94L363.33,257.14L361.81,254.66L355.12,230.57L369.71,217.35L373.37,216.29L366.41,205.21L366.18,201.12L369.77,193.83L372.39,190.35L379.15,190.39L385.22,184.04L378.92,182.67L378.39,181L372.78,177.41L370.48,173.5L374.15,173.09L379.76,170.04L380.76,166.2L387.49,167.32L393.27,166.35L395.56,159.02L403.44,164.2L414.74,164.39L413.19,166.73L414.55,168.58L418.03,168.01L423.04,163.95L422.15,161.92L424.03,158.41L419.68,155.03L416.17,158.78L410.76,159.18L410.37,155.12L406.94,152.9L404.97,146.19L405.04,142.4L407.96,136.62L417.73,125.07L415.85,121.32L417.84,117.08L420.41,115.55L421.63,111.25L420.15,109.67L415.89,108.91L411.14,101.43L411.14,101.43L413.44,98.61L411.41,95.64L417.35,90.17L412.61,85.21L416.65,79.54L414.68,75.78L415.67,73.29L411.01,70.74L413,66.77L409.84,63.62L410.76,62.25L409.27,59.36L406.37,56.83L405.87,54.48L403.72,54.08L399.48,49.72L402.91,45.35L408.03,42.34L408.67,40.16L414.61,37.16L412.92,34.81L415.86,31.78L415.91,29.91L421.47,33.47L423.85,33.53L424.02,32.1L422.35,31.49L422.87,28.45L425.85,28.46L426.87,25.8L433.11,24.05L433.35,21.59L437.6,20.82L436.98,19.43L438.7,16.55L448.52,15.39L453.8,11.98L463.51,12.34L475.33,10.61L480.48,11.83z"/>
		<path id="PK-PB" title="Punjab" class="land" d="M367.17,273.7L368.96,270.42L373.08,268.38L377.67,269.81L379.99,268.69L380.72,271.33L383.14,269.28L383.58,265.2L385.52,264.22L386.17,260.29L385.54,258.85L383.94,259.49L385.52,253.01L392.2,243.7L394.63,231.77L397.45,229.92L397.48,226.57L400.38,222.39L404.12,221.46L404.34,214.32L399.81,215.34L400.72,212.03L396.87,211.03L394.76,203.13L397.15,194.99L400.69,192.73L403.73,193.64L407.58,191.8L405.7,182.04L412.51,182.73L414.54,187.85L418.23,189.66L419.91,184.78L417.69,180.5L418.39,176.87L424.92,173.14L428.1,168.17L428.99,161.68L431.14,157.49L433.18,155.83L439.15,156.69L438.83,149.06L446.8,144.8L449.69,145.81L451.01,148.34L454.33,148.57L453.4,151.01L454.53,151.89L456.34,152L460.19,148.67L462.08,157.14L465.46,157.42L466.56,158.85L468.43,158.06L468.43,158.06L468.7,164.34L471.81,161.6L472.97,170.57L475.36,173.47L481.53,174.7L487.96,172.68L487.76,165.64L485.62,160.56L483.56,159.54L482.67,152.28L482.67,152.28L484.27,151.56L483.79,149.74L488.55,147.73L488.55,147.73L490.7,152.09L489.97,156.41L491.21,160.59L490.05,164.03L492.3,166.59L492.29,171.63L490.12,175.66L492.19,182.85L493.6,183.81L492.35,188.44L499.22,192.38L503.68,191.22L506.84,195L519.48,201.25L520.89,203.19L524.59,202.33L524.59,202.33L527.29,204.67L530.49,203.89L531.56,200.91L533.69,200.14L531.57,210.6L533.29,215.99L539.04,215.84L544.37,218.05L546.57,216.05L548.6,216.58L550.36,219.27L552.7,219.12L558.19,223.35L559.45,227.76L554.66,234.47L552.96,233.13L551.77,235.34L549.9,234.67L545.6,237.12L542.54,235.45L540.47,236.14L538.02,240.47L535.19,241.27L534.16,240.34L533.93,241.84L529.95,243.6L528.25,246.19L526.74,250.99L529.97,258L528.61,260.98L531.56,262.87L526.5,271.33L526.25,277.35L528.08,279.73L530.77,277.42L532.93,277.71L533.59,279.29L530.81,281.46L528.33,280.54L527.54,283.86L520.87,288.72L520.77,290.49L518.96,290.41L516.87,293.98L517.63,295.67L510.25,300.93L509.73,304.65L508.04,304.35L505.28,307.86L504.23,307.62L501.75,311.83L505.1,316.6L505.43,319.57L498.5,325.29L483.19,331L478.54,347.89L465.79,371.26L444.25,382.83L441.05,387.18L436.5,400.62L426.79,410.71L425.4,418.1L416.15,421.95L401.25,423.13L386.21,429.37L381.31,428.55L377.56,419.27L372.52,414.83L366.17,415.89L360.02,421.26L360.02,421.26L353.59,418.33L350.37,415.32L344.58,401.95L344.37,398.76L342.51,398.22L341.85,396.01L332.35,393.2L328.13,395.04L328.13,395.04L326.13,390.8L329.52,388.9L332.03,385.12L333.99,380.49L332.72,378.51L333.07,375.59L340.66,367.81L342.39,359.5L341.74,358.6L340.09,359.77L338.55,357.48L338.96,354.76L335.25,353.24L336.5,343.66L342.07,340.85L345.71,336.9L350.61,325.93L350.59,322.8L353.88,318.62L352.65,316.91L350.45,318.44L349.03,315.61L350.5,309.25L354.96,301.51L354.44,297.33L358.6,294.82L359.01,292.2L361.5,291.74L361.05,280.34L361.05,280.34L361.73,276.01z"/>
		<path id="PK-SD" title="Sindh" class="land" d="M278.99,594.83l2.74,-0.55l-0.97,5.52l-3.72,-0.19L278.99,594.83zM394.83,558.77l-6.25,-10.76l-1.98,-8.9l-8.51,-10.43l-0.32,-13.13l-10.3,1.43l-4.64,-1.6l-7.1,-10.39l-0.52,-5.54l3.49,-7.34l-0.19,-13.13l-3.93,-2.09l-9.7,0.31l-11.6,-6.37l-1.23,-2.85l1.14,-9.09l2.51,-6.42l16.95,-16.92l3.54,-9.16l3.84,-5.13l0,0l-6.44,-2.93l-3.22,-3.01l-5.79,-13.36l-0.21,-3.19l-1.86,-0.53l-0.66,-2.21l-9.51,-2.81l-4.22,1.84l0,0l-35.11,1.29l-3.65,4.68l-15.94,11.24l-2.08,3.46l-10.27,4.24l-10.19,2.1l-0.99,4.66l-6.76,9.88l-2.18,11.11l1.53,31.15l11.06,19.35l-0.67,12.91l-2.4,6.17l-3.29,2.61l-0.64,2.63l-1.9,0.89l-2.46,4.34l0.18,3.49l-5.31,6.85l-0.13,2.66l-3.16,3.47l-2.95,0.41l-5.99,5.07l0,0l-2.07,1.66l0.28,1.3l7.32,-1.51l4.93,3.23l-2.56,-3.15l1.97,-0.48l0.75,2.38l3.67,2.83l0.26,-1.93l5.44,0.18l0.33,1.31l-2.47,1.55l1.11,1.8l-0.96,0.65l2.31,1.03l-0.61,3.95l2.98,4.59l0.43,3.2l1.62,0.9l-2.11,1.58l2.15,2.86l-0.57,1.43l2.77,8.18l3.55,1.63l-0.54,1.85l2.75,0.28l4.45,4.59l2.13,-0.23l-0.46,-1.06l4.21,0.7l0.42,-3.78l4.27,2.97l0.98,2.97l2.67,-0.84l-0.1,-4.73l1.82,2.58l4.17,-0.54l3.57,-3.69l1.7,0.55l1.79,-2.75l0.68,1.14l4.02,-1.84l0.69,2.63l9.1,-0.52l0.58,-13.57l2.41,-1.02l0.83,4.22l1.19,0.48l2.66,-3.36l2.06,2.14l3.57,-1.82l4.13,1.43l4.27,-1.75l7.38,0.91l3.85,-0.96l4.79,4.33l9.83,0.42l3.12,-1.17l2.31,-4.13l17.06,-5.4l2,0.76l-1.54,2.36l0.08,3.89l8.96,1.25l3.42,-1.45l-0.35,-1.42l2.89,-2.34l3.38,-0.05l3.36,-2.81l-4.89,-1.2l-0.27,-6.64L394.83,558.77z"/>
		<path id="PK-TA" title="Federally Administered Tribal Areas" class="land" d="M411.14,101.43L415.89,108.91L420.15,109.67L421.63,111.25L420.41,115.55L417.84,117.08L415.85,121.32L417.73,125.07L407.96,136.62L405.04,142.4L404.97,146.19L406.94,152.9L410.37,155.12L410.76,159.18L416.17,158.78L419.68,155.03L424.03,158.41L422.15,161.92L423.04,163.95L418.03,168.01L414.55,168.58L413.19,166.73L414.74,164.39L403.44,164.2L395.56,159.02L393.27,166.35L387.49,167.32L380.76,166.2L379.76,170.04L374.15,173.09L370.48,173.5L372.78,177.41L378.39,181L378.92,182.67L385.22,184.04L379.15,190.39L372.39,190.35L369.77,193.83L366.18,201.12L366.41,205.21L373.37,216.29L369.71,217.35L355.12,230.57L361.81,254.66L363.33,257.14L367.13,258.94L364.13,261.55L367.17,273.7L367.17,273.7L361.73,276.01L361.05,280.34L361.05,280.34L360.09,277.43L360.9,263.09L360.17,262.04L357.35,264.47L354.56,264.79L352.56,269.01L351.42,262.53L348.17,260.21L349.2,243.58L346.39,245.18L345.1,244.34L346.52,240.7L343.75,238.92L344.89,235.07L339.14,236.01L334.29,241.45L325.83,241.13L325.83,241.13L323.88,231.57L324.19,222.22L322.64,217.43L324.36,214.17L328.23,212.63L331.35,208.19L330.78,205.13L328.91,203.48L334.01,198.91L332.36,195.42L332.82,191.96L335.77,188.3L340.58,188.63L343.75,186.93L347.19,188.39L352.9,186.2L354.61,182.97L358.08,183.68L358.59,181.83L365.24,176.79L364.16,172.82L359.59,168.51L360.47,163.19L358.4,162.43L357.98,159.3L352.17,158.66L350.97,157.43L350.89,154.85L347.04,149.68L348.53,145.68L352.41,145.22L371.39,149.95L374.98,148.27L386.24,147.69L393.21,144.21L393.5,141.7L396.22,139.2L395.41,134.19L397.31,129.94L390.95,125.14L390.52,120.77L391.77,121.6L394.48,119.56L395.66,117.42L395.03,114.77L400.07,111.85L402.67,105.59z"/>
	</g>
</svg>