<?xml version="1.0" encoding="utf-8"?>
<!-- (c) ammap.com | SVG map of Palestine Low -->
<svg xmlns="http://www.w3.org/2000/svg" xmlns:amcharts="http://amcharts.com/ammap" xmlns:xlink="http://www.w3.org/1999/xlink" version="1.1">
	<defs>
		<style type="text/css">
			.land
			{
				fill: #CCCCCC;
				fill-opacity: 1;
				stroke:white;
				stroke-opacity: 1;
				stroke-width:0.5;
			}
		</style>

		<amcharts:ammap projection="mercator" leftLongitude="34.228663" topLatitude="33.434207" rightLongitude="35.935383" bottomLatitude="29.496687"></amcharts:ammap>

		<!-- All areas are listed in the line below. You can use this list in your script. -->
		<!--{id:"PS-JRH"},{id:"PS-JEN"},{id:"PS-TKM"},{id:"PS-TBS"},{id:"PS-NBS"},{id:"PS-QQA"},{id:"PS-SLT"},{id:"PS-RBH"},{id:"PS-JEM"},{id:"PS-BTH"},{id:"PS-HBN"},{id:"PS-NGZ"},{id:"PS-GZA"},{id:"PS-DEB"},{id:"PS-KYS"},{id:"PS-RFH"},{id:"IL"}-->

	</defs>
	<g>
		<path id="PS-JRH" title="Jericho" class="land" d="M223.99,276.82L223.5,277.8L223.87,286.52L225.77,288.7L226.05,290.08L224.44,292.42L227.32,298.76L226.23,305.98L223.12,308.97L224.8,317.49L227.8,319.39L226.12,322.72L227.91,325.59L226.56,329.42L228.68,341.21L224.51,348.68L224.51,348.68L217.87,342.64L216.94,341.15L216.56,338.42L214.18,336.92L209.29,336.98L204.37,338.57L200.31,336.52L199.62,335.28L200.67,333L199.64,331.39L197.84,330.51L197.4,325.28L197.4,325.28L202.89,326.08L203.73,325.31L204.22,323.52L203.53,319.58L203.93,316.08L205.5,313.4L205.76,312.09L204.06,308.24L204.26,305.18L203.31,302.24L204.76,300.66L206.21,296.5L205.76,295.78L203.53,294.98L200.58,291.9L200.96,291.22L204.38,290.73L204.62,289.8L203.3,288.22L203.3,288.22L202.31,285.16L202.31,281.5L201,278.4L201.24,276.56L202.59,274.69L208.23,273.63L209.23,273.11L209.53,272.3L207.94,268.34L208.59,264.9L208.08,261.04L208.95,256.06L207.71,254.8L205.02,255.24L204.58,254.21L207.86,250.36L210.32,244.44L210.32,244.44L214.85,247.15L216.94,250.45L218.22,254.42L219.51,255.79L220.56,255.58L224.22,252.77L231.66,252.42L231.66,252.42L230.17,255.37L227.91,268.08L225.48,271.37L224.92,274.96z"/>
		<path id="PS-JEN" title="Jenin" class="land" d="M209.45,209.32L208.71,209.77L207.39,212.04L205.31,212.89L203.08,214.57L201.61,216.57L198.62,215.73L196.05,217.73L192.94,218.55L191.75,223.27L192.08,227.31L189.82,231.99L189.82,231.99L187.11,230.4L183.51,227.09L181.6,229.23L179.77,229.68L173.48,229.04L170.98,227.97L165.64,228.74L164.29,228.18L163.79,227.21L163.79,227.21L164.14,224.53L163.76,223.16L158.65,220.78L156.99,218.9L154.47,218.01L155.27,213.05L155.2,209.17L156.21,206.75L155.97,205.75L155.05,205.18L152.67,205.19L148.68,207.21L147.34,206.29L147.45,204.84L150.56,203.26L151.18,201.17L150.81,199.56L150.06,198.71L147.46,198.24L147.46,198.24L148.48,196.31L148.48,196.31L149.79,195.32L156.72,192.7L161.02,190.51L164.41,188.04L166.48,186.04L167.08,184.8L167.08,184.8L170.24,181.22L170.24,181.22L172.83,180.51L175.21,181.81L178.29,185L180.93,186.94L185.01,188.64L195.45,187.1L200.22,187.52L203.01,189.6L205.81,194.34L206.35,198.7L206.14,202.76L207.14,205.7L208.36,207.28L208.31,208.31z"/>
		<path id="PS-TKM" title="Tulkarm" class="land" d="M162.56,241.55L155.16,243.23L151.82,246.84L151.33,248.48L149.1,249.21L148.06,250.61L145.76,250.77L142.07,248.31L134.13,237.77L134.13,237.77L134.49,237.51L134.49,237.51L135.06,236.01L134.25,230.2L134.44,224.73L137.42,219.84L141.9,217.83L143.1,216.66L143.1,216.66L143.81,211.51L143.81,211.51L145.31,207.35L146.88,199.31L146.88,199.31L147.46,198.24L147.46,198.24L150.06,198.71L150.81,199.56L151.18,201.17L150.56,203.26L147.45,204.84L147.34,206.29L148.68,207.21L152.67,205.19L155.05,205.18L155.97,205.75L156.21,206.75L155.2,209.17L155.27,213.05L154.47,218.01L156.99,218.9L158.65,220.78L163.76,223.16L164.14,224.53L163.79,227.21L163.79,227.21L158.92,225.12L159.17,228.68L161.79,230.6L162.66,232L162.64,234.64L160.85,236.03L160.41,237.58z"/>
		<path id="PS-TBS" title="Tubas" class="land" d="M229.37,213.27L229.04,216.92L230.73,219.69L229.57,225.78L230.91,229.41L230.03,233.21L231.21,236.14L230.59,240.62L231.9,248.38L232.08,250.7L231.66,252.42L231.66,252.42L224.22,252.77L220.56,255.58L219.51,255.79L218.22,254.42L216.94,250.45L214.85,247.15L210.32,244.44L210.32,244.44L208.45,238.46L207.36,236.77L204.56,236.4L202.39,237.41L196.84,238.57L194.8,235.84L192.08,234.38L189.82,231.99L189.82,231.99L192.08,227.31L191.75,223.27L192.94,218.55L196.05,217.73L198.62,215.73L201.61,216.57L203.08,214.57L205.31,212.89L207.39,212.04L208.71,209.77L209.45,209.32L209.45,209.32L209.45,209.32L209.45,209.32L211.63,209.67L214.21,208.92L218.13,209.09L225.37,212.12z"/>
		<path id="PS-NBS" title="Nablus" class="land" d="M166.81,280.84L171.27,275.8L175.2,273.69L178.87,272.7L179.62,271.11L179.66,269.51L178.91,267.97L177.72,267.05L173.34,265.68L171.52,265.61L169.06,266.72L166.3,266.04L165,264.62L163.41,260.53L162.37,259.41L162.37,259.41L164.87,253.52L165.68,248.19L165.53,246.21L164.41,243.3L162.56,241.55L162.56,241.55L160.41,237.58L160.85,236.03L162.64,234.64L162.66,232L161.79,230.6L159.17,228.68L158.92,225.12L163.79,227.21L163.79,227.21L164.29,228.18L165.64,228.74L170.98,227.97L173.48,229.04L179.77,229.68L181.6,229.23L183.51,227.09L187.11,230.4L189.82,231.99L189.82,231.99L192.08,234.38L194.8,235.84L196.84,238.57L202.39,237.41L204.56,236.4L207.36,236.77L208.45,238.46L210.32,244.44L210.32,244.44L207.86,250.36L204.58,254.21L205.02,255.24L207.71,254.8L208.95,256.06L208.08,261.04L208.59,264.9L207.94,268.34L209.53,272.3L209.23,273.11L208.23,273.63L202.59,274.69L201.24,276.56L201,278.4L202.31,281.5L202.31,285.16L203.3,288.22L203.3,288.22L199.41,287.91L197.57,289.65L196.67,289.76L194.64,287.54L193.5,283.94L187.08,281.43L183.77,281.76L181.4,280.31L175.86,280.53L173.5,278.95L169.89,280.6z"/>
		<path id="PS-QQA" title="Qalqilya" class="land" d="M162.37,259.41L156.99,259.54L147.77,256.54L147.1,257.21L146.32,260.21L143.21,265.96L139.76,268.46L136.41,269.18L133.01,270.63L130.08,273.18L130.08,273.18L130.18,272.37L130.18,272.37L132.13,267.6L131.92,265L130.61,259.22L127.33,253.75L127.25,251.4L127.55,249.03L130.66,241.98L133.03,238.55L133.03,238.55L134.13,237.77L134.13,237.77L142.07,248.31L145.76,250.77L148.06,250.61L149.1,249.21L151.33,248.48L151.82,246.84L155.16,243.23L162.56,241.55L162.56,241.55L164.41,243.3L165.53,246.21L165.68,248.19L164.87,253.52z"/>
		<path id="PS-SLT" title="Salfit" class="land" d="M166.81,280.84L162.81,278.51L159.2,278.78L155.79,277.21L153.84,277.63L152.02,279.55L149.8,279.89L145.97,281.39L138.15,280.11L136.85,279.5L135.41,277.83L132.56,277.7L132.56,277.7L132.32,277.25L132.32,277.25L130.52,275.33L129.98,273.98L129.98,273.98L130.08,273.18L130.08,273.18L133.01,270.63L136.41,269.18L139.76,268.46L143.21,265.96L146.32,260.21L147.1,257.21L147.77,256.54L156.99,259.54L162.37,259.41L162.37,259.41L163.41,260.53L165,264.62L166.3,266.04L169.06,266.72L171.52,265.61L173.34,265.68L177.72,267.05L178.91,267.97L179.66,269.51L179.62,271.11L178.87,272.7L175.2,273.69L171.27,275.8z"/>
		<path id="PS-RBH" title="Ramallah" class="land" d="M197.4,325.28L193.23,325.34L190.36,320.29L186.85,319.41L184.48,316.74L180.21,315.86L178.19,317.48L175.82,315.79L172.71,315.58L171.24,316L169.04,315.26L166.73,316.38L166.15,317.48L166.1,319.48L165.21,319.92L162.1,319.84L160.45,319.03L154.09,319.05L150.36,317.84L149.42,318.89L148.78,321.98L146.18,324.42L146.18,324.42L143.83,325.81L143.83,325.81L140.59,329.33L136.2,330.9L131.44,330.22L128.11,328.79L126.67,323.38L126.67,323.38L128.79,320.24L128.79,320.24L137.4,318.7L138.92,313.98L138.09,310.74L134.15,307.6L131.51,304.04L131.09,299.46L133.45,294.42L132.7,292.42L133.46,291.8L133.09,289.35L134.47,286.34L134.87,283.35L134.3,281.02L134.3,281.02L132.56,277.7L132.56,277.7L135.41,277.83L136.85,279.5L138.15,280.11L145.97,281.39L149.8,279.89L152.02,279.55L153.84,277.63L155.79,277.21L159.2,278.78L162.81,278.51L166.81,280.84L166.81,280.84L166.81,280.84L166.81,280.84L169.89,280.6L173.5,278.95L175.86,280.53L181.4,280.31L183.77,281.76L187.08,281.43L193.5,283.94L194.64,287.54L196.67,289.76L197.57,289.65L199.41,287.91L203.3,288.22L203.3,288.22L204.62,289.8L204.38,290.73L200.96,291.22L200.58,291.9L203.53,294.98L205.76,295.78L206.21,296.5L204.76,300.66L203.31,302.24L204.26,305.18L204.06,308.24L205.76,312.09L205.5,313.4L203.93,316.08L203.53,319.58L204.22,323.52L203.73,325.31L202.89,326.08z"/>
		<path id="PS-JEM" title="Jerusalem" class="land" d="M224.51,348.68L222.72,354.06L222.72,354.06L215.83,347.08L212.12,345.47L208.27,345.91L201,344.59L196.5,346.23L192.29,345.56L187.88,347.63L185.02,348.12L182.65,347.92L179.16,349.28L177.48,349.41L175.87,348.98L170.64,345.39L170.64,345.39L172.44,342.58L172.95,335.28L169.81,332L161.82,332.04L150.91,327.38L147.11,323.87L147.11,323.87L146.18,324.42L146.18,324.42L148.78,321.98L149.42,318.89L150.36,317.84L154.09,319.05L160.45,319.03L162.1,319.84L165.21,319.92L166.1,319.48L166.15,317.48L166.73,316.38L169.04,315.26L171.24,316L172.71,315.58L175.82,315.79L178.19,317.48L180.21,315.86L184.48,316.74L186.85,319.41L190.36,320.29L193.23,325.34L197.4,325.28L197.4,325.28L197.84,330.51L199.64,331.39L200.67,333L199.62,335.28L200.31,336.52L204.37,338.57L209.29,336.98L214.18,336.92L216.56,338.42L216.94,341.15L217.87,342.64z"/>
		<path id="PS-BTH" title="Bethlehem" class="land" d="M196.33,400.35L193.89,400.65L189.04,398.34L187.12,394.55L187.86,391.7L187.37,390.2L184.72,388.04L180.13,386.17L176.91,382.42L175.01,380.94L174.6,377.78L171.27,368.86L169.18,366.04L168.59,365.95L168.24,366.47L167.94,370.23L167.14,371.26L165.5,371.61L160.81,370.88L159.5,370.06L158.79,368.68L161.09,366.63L161.26,365.45L160.61,364.46L157.46,362.74L154.88,363.5L153.34,363.15L152.03,359.12L146.92,356.37L146.92,356.37L154.37,349L154.37,349L161.71,345.99L170.4,345.77L170.64,345.39L170.64,345.39L175.87,348.98L177.48,349.41L179.16,349.28L182.65,347.92L185.02,348.12L187.88,347.63L192.29,345.56L196.5,346.23L201,344.59L208.27,345.91L212.12,345.47L215.83,347.08L222.72,354.06L222.72,354.06L215.34,378.32L214.87,395.65L214.87,395.65L203.48,395.48L200.76,396.44L200.76,396.44z"/>
		<path id="PS-HBN" title="Hebron" class="land" d="M127.59,372.59L129.16,369.97L137.28,361.79L145.36,357.91L145.36,357.91L146.92,356.37L146.92,356.37L152.03,359.12L153.34,363.15L154.88,363.5L157.46,362.74L160.61,364.46L161.26,365.45L161.09,366.63L158.79,368.68L159.5,370.06L160.81,370.88L165.5,371.61L167.14,371.26L167.94,370.23L168.24,366.47L168.59,365.95L169.18,366.04L171.27,368.86L174.6,377.78L175.01,380.94L176.91,382.42L180.13,386.17L184.72,388.04L187.37,390.2L187.86,391.7L187.12,394.55L189.04,398.34L193.89,400.65L196.33,400.35L196.33,400.35L194.67,401.82L194.67,401.82L188.94,406L183.36,408.48L174.04,418.46L171.51,419.98L160.41,421.68L158.02,421.13L154.38,423.02L137.39,421.79L130.17,423.59L122.34,424.62L118.06,423.47L115.29,421.18L113.36,418.05L112.89,414.05L116.24,407.32L120.06,402.39L123.51,395.84L124.15,392.34L123.4,384.14L124.92,376.57z"/>
		<path id="PS-NGZ" title="North Gaza" class="land" d="M38.64,383.51L44.82,374.27L52.31,381.24L52.31,381.24L54.66,384.71L54.68,388.58L53.15,391.29L53.15,391.29L48.16,392.48L48.16,392.48L44.81,390.36L42.55,389.69L41.71,387.23z"/>
		<path id="PS-GZA" title="Gaza" class="land" d="M32.21,407.92L32.09,405.44L30.83,401.95L27.71,400.93L24.66,400.8L24.66,400.8L38.64,383.51L38.64,383.51L41.71,387.23L42.55,389.69L44.81,390.36L48.16,392.48L48.16,392.48z"/>
		<path id="PS-DEB" title="Deir El Balah" class="land" d="M24.41,418.89L22.85,418.64L20.55,416.65L14.95,414.62L13.26,413.3L13.26,413.3L24.66,400.8L24.66,400.8L27.71,400.93L30.83,401.95L32.09,405.44L32.21,407.92L32.21,407.92L30.83,409.25L30.83,409.25L25.09,416.63L25.09,416.63z"/>
		<path id="PS-KYS" title="Khan Yunis" class="land" d="M15.78,441.86L13.25,434.18L6.62,430.57L0.38,426.29L0.38,426.29L13.26,413.3L13.26,413.3L14.95,414.62L20.55,416.65L22.85,418.64L24.41,418.89L24.41,418.89L23.58,421.67L23.58,421.67L24.05,432.87L22.15,436.36L22.15,436.36z"/>
		<path id="PS-RFH" title="Rafah" class="land" d="M6.72,448.8L0,426.58L0.38,426.29L0.38,426.29L6.62,430.57L13.25,434.18L15.78,441.86L15.78,441.86L14.48,442.98L14.48,442.98z"/>
		<path id="IL" title="Israel" class="land" d="M133.2,124.52l-0.32,-0.15l0.49,0.13L133.2,124.52zM135.74,124.23l-2.37,0.27l1.12,0.3L135.74,124.23zM293.67,65.45l0.41,-5.37l-3.63,-5.26l-5.1,-1.38l-0.33,-2.22l2.09,-2.77l0.65,-1.67l0.12,-4.05l-1.73,-5.16l-4.94,-5.26l1.98,-3.39l0.26,-1.4l-0.83,-8.33l0.53,-3.72l1.47,-3.82l3.42,-3.91l1.81,-2.98l0.62,-2.61l-0.24,-1.48L289.33,0l-12.11,7.17l-1.47,2.36l-1.34,6.85l-4.22,3.99l-3.46,1.44l-2.62,0.45l-4.32,-0.36l-1.07,0.42l-5.77,7.1l-10.27,5.51l-1.45,2.69l-0.64,0.61l-0.67,-0.21l-4.08,-5.82l-1.21,-0.99l-0.41,0.44l-1.65,3.64l-2.62,2.97l-1.47,3.35l0.68,6.89l-1.96,4.21l-1.08,4.98l-0.35,4.48l-0.86,2.05l-3.28,1.39l-1.02,3.94l-2.92,1.1l-3.78,-0.65L208.69,75l-1.24,0.66l-4.73,0.37l-4.38,1.96l-1,-0.29l-2.6,-1.54l-1.62,-1.86l-2.9,-5.52l-3.42,-0.8l-6.64,0.93l-6.38,0.21l-1.99,0.65l-1.59,1.33l-6.1,-1.06l-13.13,0.57l0.14,2.74l-0.77,5.29l-2.25,7.5l-0.14,2.95l-1.01,2.27l-1.87,11.76l-0.77,2.04v0.45l0.77,0.06l0.19,-0.62l0.57,0.06l0.72,0.78l0.48,0.98l-0.05,2.5l-1.87,7.72l-4.21,7.37l-3.45,2.15l0.67,0.11l0.67,1.02l-0.96,0.28l-0.14,-0.91l-0.77,-0.51l-0.05,0.45l-1.39,0.23l-1.05,-2.21l-0.34,0.06l0.14,0.79l-0.53,-0.51l-0.19,0.68l-2.2,-2.15l1.54,0.42l-1.97,-0.93l-1.05,-1.08l-1.92,1.08l-1.15,0.06l-1.77,1.25l0.29,3.8l-0.53,0.06l0.29,1.13l-1.29,12.98l-0.96,4.76l-0.81,1.36l-1.05,0.34l-0.81,2.21l0.29,0.96l-0.62,7.13l-0.48,0.62l0.1,2.32l-1.2,4.07l-0.38,4.98l-0.86,2.77l0.43,1.13l-1.72,4.81l0.62,0.79l-1.25,1.64l0.48,1.53l-1.39,3.79l0.53,0.34l-0.91,1.7l0.1,1.24l-0.62,1.52l0.43,0.96l-0.48,1.69l-0.62,0.06l-0.1,1.13l0.43,0.28h-0.57l-0.24,-0.57l-0.24,0.57l-1.87,0.06l2.11,0.28l0.38,1.02l-1.68,8.47l-0.91,1.3l0.48,0.11l-0.57,1.25l-1.1,2.54l0.33,0.23l-0.29,2.6l-0.67,0.85l0.05,2.03l-1.63,7.39l-0.67,0.51l0.29,0.68l-0.96,5.75l-0.34,-0.06l-1.01,3.21l-1.2,6.2l-3.64,12.1l-1.48,5.36l-0.57,0.23l0.29,1.97l-0.53,0.28l-1.05,5.12l-1.44,4.28l-0.43,-0.28l0.19,0.79l-0.72,1.74l-0.57,0.23l0.24,1.24l-1.29,4.27l-1.1,2.25l-1.29,0.84l0.19,0.67l-0.58,0.45l-2.25,8.23l-3.3,10.42l-1.24,3.03l-2.83,4.44l-3.06,8.84l-2.54,5.97l-0.72,0.22l0.14,2.08l-0.48,0.67l-1.72,-0.22l-0.14,1.96l0.38,0.56l-1.01,-1.07l0.33,-2.13l-0.53,1.96l0.81,1.51l-8.43,17.43l-5.55,9.58l-0.53,-0.06l-1.15,2.46l-1.58,1.68l-2.97,5.54l-0.72,-0.22l0.43,-0.73l-0.58,0.67l0.43,0.9l-1.05,0.95l-4.17,6.77l7.5,6.99l2.35,3.47l0.02,3.87l-1.53,2.72l-5.02,1.19l-17.29,16.76l-5.75,7.39l-1.51,5.04l0.47,11.2l-1.9,3.49l-7.67,6.63l-7.76,5.82L20.94,496l9.84,28.8l15.18,31.89l4.99,20.76l-0.5,10.87l7.48,8.77l-3.56,10.05l0.44,6.11l12.03,7.87l3.51,13.2l20.43,57.42l-0.36,3l17.63,49.49l-0.12,9.51l3.09,5.38l0.78,3.71l-0.81,5.39l-1.62,5.39l0.69,5.74l0.82,3.3l2.27,4.29l4.35,5.04l1.48,-1.2l1.39,-1.92v-0.82l2.35,-2.35l0.77,-1.92l0.96,-0.44l0.72,-1.7l1.87,0.5l3.52,-8.43l2.62,-3.04l3.08,-2.27l2.26,-2.76l-0.5,-14.67l2.94,-12.24l0.5,-3.99l-0.5,-2.95l0.77,-3.72l5.08,-10.16l-0.54,-15.48l3.59,-14.26l13.34,-19.14l-5.4,-23.89l3.29,-7.29l-0.59,-3.96l1.1,-3.42l3.83,-4.24l0.55,-2.37l-0.91,-3.1l-5.97,-11.21l0.69,-2.69l2.38,-3.42l1.19,-3.56l4.31,-21.36l5.08,-9.82l2.56,-2.37l0.92,-4.43l4.23,-7.72l2.44,-5.67l0.01,-8.14l1.52,-4.16l2.57,-3.11l3.3,-1.19l0.88,-4.03l-0.86,-3.3l0.05,-3.62l4.61,-10.16l6.48,-4.25l2.99,-2.74l0.01,-4.13l-1.41,-3.9l-0.4,-3.26l0.7,-4.08l6.59,-10.17l2.23,-8.81l-0.17,-3.12l-0.86,-4.18l-1.37,-2.94l-7.69,-10.35l-1.97,-4.28l0.88,-4.04l10.36,-19.02l2.83,-8.09l0.61,-4.05l0.07,-10.28l0.02,-3.49l-11.39,-0.16l-2.72,0.96l-6.1,5.38l-5.72,4.18l-5.58,2.48l-9.32,9.98l-2.53,1.52l-11.1,1.7l-2.39,-0.55l-3.64,1.89l-16.99,-1.23l-7.23,1.8l-7.82,1.03l-4.28,-1.14l-2.76,-2.29l-1.94,-3.13l-0.47,-4l3.35,-6.73l3.82,-4.93l3.45,-6.55l0.64,-3.5l-0.75,-8.2l1.52,-7.56l2.67,-3.98l1.57,-2.62l8.12,-8.18l8.08,-3.88l9.01,-8.91l7.35,-3l8.69,-0.23l0.24,-0.37l1.8,-2.81l0.52,-7.3l-3.14,-3.28l-8,0.04l-10.91,-4.67l-3.79,-3.51l-3.28,1.94l-3.24,3.52l-4.39,1.58l-4.76,-0.69l-3.33,-1.43l-1.44,-5.41l1.97,-2.91l0.16,-0.23l8.6,-1.54l1.53,-4.72l-0.83,-3.24l-3.94,-3.14l-2.64,-3.56l-0.42,-4.58l2.36,-5.05l-0.76,-2l0.76,-0.62l-0.37,-2.45l1.39,-3.01l0.4,-2.98l-0.57,-2.33l-1.98,-3.77l-1.8,-1.92l-0.54,-1.34l0.19,-1.62l1.95,-4.77l-0.21,-2.6l-1.31,-5.78l-3.28,-5.47l-0.08,-2.35l0.29,-2.37l3.12,-7.05l2.37,-3.43l1.46,-1.04l0.57,-1.51l-0.81,-5.81l0.19,-5.47l2.97,-4.89l4.48,-2.01l1.21,-1.17l0.36,-2.62l0.35,-2.53l1.5,-4.16l1.57,-8.03l1.6,-3l1.31,-0.99l6.93,-2.62l4.29,-2.19l3.4,-2.47l2.06,-2l0.6,-1.24l2.21,-2.5l0.96,-1.09l2.58,-0.71l2.39,1.3l3.07,3.19l2.65,1.94l4.08,1.7l10.44,-1.54l4.78,0.42l2.79,2.08l2.8,4.74l0.54,4.36l-0.21,4.06l1,2.94l1.23,1.58l-0.05,1.03l1.14,1.01l2.18,0.35l2.58,-0.75l3.92,0.17l7.24,3.03l4,1.15l1.4,0.13l-1.64,-2.78l1.46,-0.71l0.3,-0.76l-0.5,-4.59l2.03,-0.63l-0.43,-2.69l1.42,-0.57l0.43,-0.99l-0.35,-0.69l-1.42,-0.69l-0.27,-0.92l2.48,-5.9l-1.62,-1.07l-1.1,-2.51l-1.11,0.03l-0.81,-0.61l0.92,-1.3l1.74,-0.37l0.38,-0.65l-1.16,-1.88l-0.11,-1.21l2.16,0.48l0.3,-1.92l1.73,0.03l0.17,-0.43l-1.77,-3.67l0.12,-1.92l0.82,-1.9l-0.34,-1.27l-1.28,-0.7l-0.4,-0.94l-0.06,-5.75l2.49,-1.89l1.52,-0.42l0.42,-0.49l-0.08,-1.25l1.95,-0.77l-0.32,-2.87l1.12,-1.28l4.86,-2.12l2.06,-1.33l4.27,-0.3l2.94,-1.32l5.22,-4.45l3.93,-0.53l1.37,-4.3l0.86,-0.73l1.79,-0.21l3.76,-1.55l1.09,0.62l0.16,0.68l5.38,-6.25l4.23,-7.59l2.8,-3l5.65,-11.01l1.45,-3.32l-0.02,-1.12l-3.59,-5.59l-1.48,-13.61l-0.9,-2.92l0.51,-6.44l-0.87,-3.58l1.14,-1.66l3.44,0.91l2.86,-0.78l0.05,-1.39l-1.95,-2.21l-0.39,-1.11l0.32,-0.86L293.67,65.45z"/>
	</g>
</svg>