<?xml version="1.0" encoding="utf-8"?>
<!-- (c) ammap.com | SVG map of Peru - Low -->
<svg xmlns="http://www.w3.org/2000/svg" xmlns:amcharts="http://amcharts.com/ammap" xmlns:xlink="http://www.w3.org/1999/xlink" version="1.1">
	<defs>
		<style type="text/css">
			.land
			{
				fill: #CCCCCC;
				fill-opacity: 1;
				stroke:white;
				stroke-opacity: 1;
				stroke-width:0.5;
			}
		</style>

		<amcharts:ammap projection="mercator" leftLongitude="-81.390193" topLatitude="-0.035767" rightLongitude="-68.672457" bottomLatitude="-18.388935"></amcharts:ammap>

		<!-- All areas are listed in the line below. You can use this list in your script. -->
		<!--{id:"PE-AMA"},{id:"PE-ANC"},{id:"PE-APU"},{id:"PE-ARE"},{id:"PE-AYA"},{id:"PE-CAJ"},{id:"PE-CAL"},{id:"PE-CUS"},{id:"PE-HUC"},{id:"PE-HUV"},{id:"PE-ICA"},{id:"PE-JUN"},{id:"PE-LAL"},{id:"PE-LAM"},{id:"PE-LIM"},{id:"PE-LMA"},{id:"PE-LOR"},{id:"PE-MDD"},{id:"PE-MOQ"},{id:"PE-PAS"},{id:"PE-PIU"},{id:"PE-PUN"},{id:"PE-SAM"},{id:"PE-TAC"},{id:"PE-TUM"},{id:"PE-UCA"},{id:"PE-LKT"}-->

	</defs>
	<g>
		<path id="PE-AMA" title="Amazonas" class="land" d="M154.14,293.95L149.99,295.28L149.99,295.28L147.39,295.88L147.39,295.88L146.72,289.62L144.27,286.73L137.28,273.05L130.27,269.38L125.28,259.67L120.48,256.19L120.64,253.23L115.76,249.1L115.76,245.35L118.39,238.97L118.76,235.97L120.26,232.22L122.14,229.6L122.14,225.85L118.62,224.25L118.53,223.7L116.51,223.6L113.51,220.59L113.51,213.09L116.51,207.47L117.75,202.91L114.4,193.05L114.4,193.05L116.2,191.77L116.91,188.32L115.98,181.23L117.28,180.02L120.61,172.24L121.04,167.27L121.97,164.47L127.62,157.39L129.89,144.17L131.8,143.02L133.51,143.73L134.13,147.78L136.93,145.75L137.39,144.89L136.93,143.24L135.46,141.01L136.11,139.89L139.7,137.42L143.2,132.33L147.85,127.39L150.66,125.1L152.77,124.35L152.77,124.35L154.33,131.17L154.62,136.79L156.7,140.8L156.7,140.8L158.48,144.77L160.3,152.95L160.3,152.95L160.03,157.5L163.33,163.15L163.92,170.36L162.82,180.89L163.33,183.25L162.98,185.67L162.98,185.67L159.95,192.66L159.95,192.66L156.44,196.91L154.92,199.92L154.09,204.46L154.52,207.75L151.77,210.84L151.77,213.84L156.18,217.36L157.04,220.99L160.03,227.09L160.03,227.09L157.47,229.51L156.74,231.61L156.35,240.57L157.57,243.47L162,251.94L163.77,253.92L175.38,257.29L178.54,261.2L180.56,267.19L179.64,268.93L174.68,272.95L172.4,278.38L172.4,280.23L170.15,282.86L167.9,283.98L164.89,281.73L160.39,281.36L158.14,281.73L155.87,283.65L153.83,293.04L153.83,293.04z"/>
		<path id="PE-ANC" title="Ancash" class="land" d="M116.33,380.21L118.05,379.91L119.12,377.35L119.02,374.23L121.18,371.31L133.81,366.99L139.69,351.77L143.1,348.75L146.92,346.5L150.35,341.52L159.56,340.05L161.07,344.82L164.1,347.75L166.49,348.87L173.46,360.01L173.46,360.01L176.35,359.37L176.35,359.37L175.99,365.22L178.94,367.04L178.79,372.6L182.64,378.67L187.43,380.89L200.61,389.16L200.39,392.73L199.05,394.3L193.65,394.96L189.27,404.66L187.2,405.02L186.09,410.83L187.44,410.62L192.34,413.29L194.35,416.64L195.02,419.77L195.25,424.91L191.9,428.71L192.79,431.61L191.45,435.86L190.28,437L190.28,437L182,440.18L180.57,442.22L179.73,445.99L177.02,448.98L169.29,455.66L165.93,456.89L162.23,456.92L161.49,452.39L161.73,449.52L158.84,447.57L158.22,444.85L158.6,443.45L159.72,441.89L161.73,440.55L161.96,437.64L159.95,436.75L157.26,437.2L153.9,440.51L153.21,446.81L152.46,448.67L149.17,451.04L149.17,451.04L148.27,448.51L141.7,438.51L137.13,428.45L133.75,419.15L134.16,415.86L128.54,408.25L127.53,404.15L127.37,400.02L125.9,397.23L123.95,395.82L122.45,389.05L117.36,384.63z"/>
		<path id="PE-APU" title="Apurímac" class="land" d="M380.04,627.64L374.61,628.7L370.88,628.3L368,626.9L367.06,626.99L365.83,628.27L363.38,627.78L363.38,627.78L360.04,627.49L360.04,627.49L356.95,625.71L356.29,626.49L355.33,625.77L352.43,626.22L347.74,628L343.94,628.23L339.02,630.24L337.24,632.25L334.92,633.47L332.77,628L333.21,623.98L332.54,620.18L330.76,616.83L335,609.68L335,607.65L332.43,604.11L328.62,593.61L326.19,588.82L326.55,587.78L328.07,587.55L328.64,586.87L326.38,583.28L324.18,582.43L323.42,580.8L321.72,570.15L322.57,566.2L323.69,563.69L324.53,563.38L325.67,564.03L326.56,565.67L337.34,573.56L344.27,572.15L344.97,569.66L344.97,569.66L345.64,570.51L345.64,570.51L347.96,572.23L357.77,572.5L362.17,571.79L366.33,573.32L374.42,578.38L383.69,583.07L388.93,584.9L391.43,586.5L394.35,589.63L397.04,594.76L397.47,596.73L397.37,602.31L395.91,607.66L395.19,609.01L390.44,613.33L389.07,616.23L380.83,620.29L379.63,621.66L379.22,622.73L380.19,624.89z"/>
		<path id="PE-ARE" title="Arequipa" class="land" d="M449.87,685.44L449.18,696.92L445.55,701.08L445.04,702.11L445.41,704.34L443.81,704.97L440.91,704.08L435.77,700.73L433.76,700.73L432.86,702.29L436.92,706.9L434.38,708.11L430.26,713.74L430.67,716.38L430.26,718.71L427.77,719.72L425.01,722.02L424.23,723.67L424.62,726.23L426.05,729.34L428.88,732.87L427.66,737.5L422.83,740.37L418.55,741.63L418.55,741.63L414.21,739.92L407.82,738.43L405.53,736.73L403.95,734.25L395.39,729.28L390.85,725.86L385.22,719.49L381.23,717.19L374.54,715.05L369.6,714.7L366.95,713.87L362.14,709.93L348.07,704.15L344.69,701.22L340.73,699.22L322.41,692.92L315.44,687.2L313.43,684.45L308.08,681.55L298.58,678.47L296.54,676.95L294.82,673.75L270.53,662.42L268.41,660.27L268.41,660.27L270.74,653.7L274.09,649.45L280.05,646.25L284.4,645.81L284.4,645.81L285.48,647.92L295.38,650.32L297.76,657.73L303.89,663.32L306.54,663.66L310.72,661.6L312.03,668.66L313.48,668.63L315.03,667.75L315.34,664.09L318.24,657.83L324.72,654.7L324.5,657.16L325.62,660.29L327.42,661.3L333.17,660.61L338.36,658.04L341.02,659.07L343.04,658.17L345.95,653.7L349.75,652.8L354.44,646.32L355.78,643.2L355.11,636.94L356,634.04L357.34,631.8L361.37,630.46L362.06,627.67L362.06,627.67L363.38,627.78L363.38,627.78L365.83,628.27L367.06,626.99L368,626.9L370.88,628.3L374.61,628.7L380.04,627.64L380.04,627.64L379.71,629.54L380.27,630.77L383.58,634.44L387.2,635.01L391.76,634.11L396.14,635.84L396.89,636.75L398.01,636.7L399.08,635.05L399.75,630.85L398.74,628.88L399.38,627.56L400.57,627.49L407.45,635.86L406.84,644.42L415.03,647.15L421.66,643.72L421.74,642.73L426.2,643.97L430.03,647.23L430.94,647.04L432.59,645.34L434.32,645.33L434.2,656.27L436.88,659.4L439.57,660.07L442.42,659.71L442.42,659.71L442.36,662.17L442.36,662.17L442.88,666.64L447.75,672.27L446.13,676.75L448.38,680.5L450.53,682.74z"/>
		<path id="PE-AYA" title="Ayacucho" class="land" d="M362.06,627.67L361.37,630.46L357.34,631.8L356,634.04L355.11,636.94L355.78,643.2L354.44,646.32L349.75,652.8L345.95,653.7L343.04,658.17L341.02,659.07L338.36,658.04L333.17,660.61L327.42,661.3L325.62,660.29L324.5,657.16L324.72,654.7L318.24,657.83L315.34,664.09L315.03,667.75L313.48,668.63L312.03,668.66L310.72,661.6L306.54,663.66L303.89,663.32L297.76,657.73L295.38,650.32L285.48,647.92L284.4,645.81L284.4,645.81L285.79,642.36L285.78,637.86L282.83,635.15L277.92,625.55L276.58,623.76L274.95,623.18L273.44,624.72L268.75,624.65L266.97,619.74L266.3,615.04L267.41,612.36L268.24,599.5L268.24,599.5L268.54,599.6L268.54,599.6L270.32,599.4L274.12,600.52L278.81,599.18L281.27,592.92L281.63,585.13L281.16,583.21L281.69,580.12L278.49,575.92L275.74,574.11L277.13,569.37L281.56,568.06L282.79,568.82L284.17,568.13L288.86,562.54L294.67,559.19L296.68,555.17L300.04,554.05L302.17,552.52L301.24,550.96L301.58,549.71L300.71,545.33L297.08,531.57L296.51,530.74L295.59,530.61L295.12,529.02L292.46,525.98L293.9,522.08L296.68,522.32L300.08,519.5L300.08,519.5L300.09,519.52L300.09,519.52L302.05,519.31L305.4,521.76L308.97,522.43L311.65,521.99L313.44,520.87L317.69,521.09L317.69,521.09L317.56,523.09L317.56,523.09L323.76,536.21L325.99,538.76L326.71,538.24L329.03,540.42L331.32,545.26L334.44,547.35L339.13,556.95L340.25,561.42L345.17,568.57L344.94,569.63L344.94,569.63L344.97,569.66L344.97,569.66L344.27,572.15L337.34,573.56L326.56,565.67L325.67,564.03L324.53,563.38L323.69,563.69L322.57,566.2L321.72,570.15L323.42,580.8L324.18,582.43L326.38,583.28L328.64,586.87L328.07,587.55L326.55,587.78L326.19,588.82L328.62,593.61L332.43,604.11L335,607.65L335,609.68L330.76,616.83L332.54,620.18L333.21,623.98L332.77,628L334.92,633.47L337.24,632.25L339.02,630.24L343.94,628.23L347.74,628L352.43,626.22L355.33,625.77L356.29,626.49L356.95,625.71L360.04,627.49L360.04,627.49z"/>
		<path id="PE-CAJ" title="Cajamarca" class="land" d="M114.4,193.05L117.75,202.91L116.51,207.47L113.51,213.09L113.51,220.59L116.51,223.6L118.53,223.7L118.62,224.25L122.14,225.85L122.14,229.6L120.26,232.22L118.76,235.97L118.39,238.97L115.76,245.35L115.76,249.1L120.64,253.23L120.48,256.19L125.28,259.67L130.27,269.38L137.28,273.05L144.27,286.73L146.72,289.62L147.39,295.88L147.39,295.88L147.27,295.9L147.27,295.9L152.75,307.27L154.54,311.96L155.21,315.99L149.4,322.69L147.91,323.19L147.29,324.61L145.12,325.14L143.52,323.74L140.89,322.99L137.89,325.61L132.08,328.14L131.58,325.91L129.85,324.83L129.64,318.86L127.39,317.36L120.64,318.49L118.01,317.74L117.26,314.36L114.26,312.49L109.38,315.11L104.51,320.36L101.88,321.49L99.5,321.34L99.43,320.04L97.72,316.52L93.85,313.28L89.71,312.2L88.38,308.74L88.38,306.11L87.57,304.96L87.14,296.44L87.14,296.44L88.08,296.09L88.44,294.68L88.52,291.04L91.27,289.72L94.86,286.09L95.07,284.45L94.56,283.48L88.48,282.28L82.74,275.45L82.24,268.79L85.05,266.07L87.01,265.21L89.7,265.39L91.39,262.11L92.82,255.11L92.46,254.31L88.34,252.48L86.91,249.72L86.91,249.72L87.09,249.58L87.09,249.58L84.9,245.63L84.05,242.03L84.9,235.21L87.47,232.07L88.4,232.2L88.16,225.15L86.64,223.05L85.17,217.86L88.69,212.78L92.08,209.17L92.08,209.17L97.7,209.65L99.28,210.73L100.42,210.52L105.03,205.11L105.47,199.69L107.27,196.98L110.91,194.29z"/>
		<path id="PE-CAL" title="El Callao" class="land" d="M179.43,498.31L183.85,498.64L184.08,506.46L187.65,512.27L188.32,514.5L186.16,517.57L186.16,517.57L183.52,515.12L179.85,514.13L181.33,511.06L180.83,506.44L179.42,502.48L179.89,499.62z"/>
		<path id="PE-CUS" title="Cusco" class="land" d="M360.67,481.22L365.19,483.99L371.13,484.66L374.13,485.97L374.13,485.97L376.25,486.53L380.92,484.09L380.92,484.09L383.29,481.94L388.62,480.35L388.62,480.35L387.73,489.25L385.72,492.61L381.47,497.3L385.17,501.98L384.79,503.73L386.17,505.34L387.06,510.03L394.66,514.73L397.11,518.08L398.46,521.21L401.81,522.77L400.68,525.03L401.19,525.29L396.67,529.02L401.14,534.83L401.81,541.54L404.26,543.32L406.05,543.32L419.23,540.64L424.15,547.57L427.72,550.03L434.2,551.81L435.2,553.84L437.33,563.21L439.34,563.66L442.02,561.87L445.92,558.38L446.49,556.51L448.28,555.84L451.63,557.18L456.77,557.62L461.02,558.96L464.02,558.72L467.49,559.41L467.49,559.41L467.05,565.67L467.05,565.67L466.82,570.36L459,579.07L451.41,588.9L447.83,590.47L447.16,596.28L448.06,600.3L446.72,608.57L442.92,615.94L441.13,622.86L438.23,624.88L437.11,626.66L440.41,630.99L441.54,631.28L443.52,634.24L444.26,638.81L442.58,642.08L442.89,646.84L444.07,648.7L444.49,651.87L444.23,655.53L442.22,656.62L442.44,658.6L442.44,658.6L442.42,659.71L442.42,659.71L439.57,660.07L436.88,659.4L434.2,656.27L434.32,645.33L432.59,645.34L430.94,647.04L430.03,647.23L426.2,643.97L421.74,642.73L421.66,643.72L415.03,647.15L406.84,644.42L407.45,635.86L400.57,627.49L399.38,627.56L398.74,628.88L399.75,630.85L399.08,635.05L398.01,636.7L396.89,636.75L396.14,635.84L391.76,634.11L387.2,635.01L383.58,634.44L380.27,630.77L379.71,629.54L380.04,627.64L380.04,627.64L380.19,624.89L379.22,622.73L379.63,621.66L380.83,620.29L389.07,616.23L390.44,613.33L395.19,609.01L395.91,607.66L397.37,602.31L397.47,596.73L397.04,594.76L394.35,589.63L391.43,586.5L388.93,584.9L383.69,583.07L374.42,578.38L366.33,573.32L362.17,571.79L357.77,572.5L347.96,572.23L345.64,570.51L345.64,570.51L344.94,569.63L344.94,569.63L345.17,568.57L340.25,561.42L339.13,556.95L334.44,547.35L331.32,545.26L329.03,540.42L326.71,538.24L325.99,538.76L323.76,536.21L317.56,523.09L317.56,523.09L317.67,521.4L317.67,521.4L322.15,520.2L327.07,520.42L330.64,524.67L340.25,517.29L342.26,514.61L337.08,504.44L333.55,503L332.88,499.42L334.82,490.8L337.09,487.68L339.52,481.79L339.52,481.79L340.44,482.16L351.28,480.74L359.45,478.32L359.45,478.32z"/>
		<path id="PE-HUC" title="Huánuco" class="land" d="M190.28,437L191.45,435.86L192.79,431.61L191.9,428.71L195.25,424.91L195.02,419.77L194.35,416.64L192.34,413.29L187.44,410.62L186.09,410.83L187.2,405.02L189.27,404.66L193.65,394.96L199.05,394.3L200.39,392.73L200.61,389.16L187.43,380.89L182.64,378.67L178.79,372.6L178.94,367.04L175.99,365.22L176.35,359.37L176.35,359.37L178.02,359L178.02,359L181.4,356.75L181.4,356.75L183.65,360.22L185.42,359.93L186.62,361.45L192.7,361.45L192.5,360.68L197.9,359.75L200.9,360.5L205.03,359L209.9,361.25L212.9,356.37L214.67,357.26L214.75,356.75L218.06,358.81L223.56,370.06L225.72,370.32L227.21,368.57L225.28,356L229.03,352.24L233.05,350.8L233.05,350.8L234.52,353.1L234.52,353.1L234.38,353.29L234.38,353.29L233.55,356.95L233.55,356.95L233.23,362.57L233.23,362.57L234.26,365.14L234.12,368.6L234.12,368.6L233.45,372.65L234.76,377.55L238.69,386.23L245.97,397.87L248.2,398.57L255.17,394.39L257.58,394.97L260.94,394.07L264.96,390.28L264.73,385.81L266.97,383.13L267.85,378.72L273.67,377.76L274.79,380L276.8,380L277.92,377.99L278.14,375.08L280.62,367.34L285.47,365.4L290.93,365.66L292.77,367.1L293.56,371.1L291.52,372.43L289.01,377.31L288.33,380.54L289.09,383.8L289.09,388.26L290.87,390.5L291.77,393.85L291.77,393.85L289.98,396.08L289.14,399.16L289.14,399.16L283.5,405.47L282.61,408.6L279.7,411.72L277.02,411.95L273.45,414.18L272.8,415.47L272.04,415.4L268.98,418.2L266,415.19L264.51,414.41L261.83,414.18L254.37,420.01L252.97,420.2L244.4,427.37L240.16,433.84L237.7,434.74L236.58,436.53L234.35,437.42L232.56,443.45L218.93,440.99L216.92,440.1L214.69,437.87L211.56,437.64L208.21,438.76L201.95,443L198.14,443.9L198.14,443.9L198.03,443.77L198.03,443.77L195.48,442.76L194.65,439.91L193.7,439.25L191.83,439.68L190.74,439.02z"/>
		<path id="PE-HUV" title="Huancavelica" class="land" d="M300.08,519.5L296.68,522.32L293.9,522.08L292.46,525.98L295.12,529.02L295.59,530.61L296.51,530.74L297.08,531.57L300.71,545.33L301.58,549.71L301.24,550.96L302.17,552.52L300.04,554.05L296.68,555.17L294.67,559.19L288.86,562.54L284.17,568.13L282.79,568.82L281.56,568.06L277.13,569.37L275.74,574.11L278.49,575.92L281.69,580.12L281.16,583.21L281.63,585.13L281.27,592.92L278.81,599.18L274.12,600.52L270.32,599.4L268.54,599.6L268.54,599.6L267.19,599.18L267.19,599.18L264.06,599.18L262.33,599.99L259.37,599.63L255.8,597.62L254.83,596.03L250.23,593.96L248.93,591.63L248.72,587.39L250.09,584.77L249.06,579.54L251.03,577.57L252.16,575.36L252.22,570.36L250.88,569.02L248.2,569.24L244.33,572.23L239.59,572.44L238.64,571.4L237.25,571.48L235.91,569.69L239.49,564.1L240.51,555.58L240.51,555.58L240.52,555.58L240.52,555.58L240.38,554.27L243.06,553.16L246.64,546.68L248.2,545.11L247.53,543.1L248.89,538.25L248.21,537.79L248.21,537.79L248.15,537.63L248.15,537.63L251.55,537.63L265.85,524.22L270.1,517.52L270.54,512.38L273,510.82L278.72,509.93L286.85,509.92L287.98,510.59L291.32,510.59L297.35,511.93L299.81,514.17L300.48,517.07L298.91,517.5L298.91,517.5z"/>
		<path id="PE-ICA" title="Ica" class="land" d="M219,566.13L220.56,564.77L222.35,560.75L230.62,554.72L233.3,553.6L235.75,554.5L240,554.5L240.32,555.61L240.32,555.61L240.51,555.58L240.51,555.58L239.49,564.1L235.91,569.69L237.25,571.48L238.64,571.4L239.59,572.44L244.33,572.23L248.2,569.24L250.88,569.02L252.22,570.36L252.16,575.36L251.03,577.57L249.06,579.54L250.09,584.77L248.72,587.39L248.93,591.63L250.23,593.96L254.83,596.03L255.8,597.62L259.37,599.63L262.33,599.99L264.06,599.18L267.19,599.18L267.19,599.18L268.24,599.5L268.24,599.5L267.41,612.36L266.3,615.04L266.97,619.74L268.75,624.65L273.44,624.72L274.95,623.18L276.58,623.76L277.92,625.55L282.83,635.15L285.78,637.86L285.79,642.36L284.4,645.81L284.4,645.81L280.05,646.25L274.09,649.45L270.74,653.7L268.41,660.27L268.41,660.27L262.89,651.73L260.11,648.85L255.84,645.82L250.47,637.96L236.88,629.95L232.86,626.66L232.51,623.31L230.66,618.78L226.35,614.6L224.04,608.19L221.34,605.73L216.99,603.65L217.25,593.87L213.49,592.06L214.17,589.85L215.98,589.18L217.13,589.76L218.37,591.57L221.42,582.31L222.29,574.45L218.89,568.16z"/>
		<path id="PE-JUN" title="Junín" class="land" d="M208.91,470.21L211.56,469.82L214.02,470.49L214.84,471.93L215.95,471.77L217.59,472.94L220.49,472.5L222.73,470.26L225.86,470.71L228.98,469.37L229.88,467.13L229.43,465.12L225.86,465.35L225.6,462.95L226.08,461.33L228.98,459.54L231.22,459.76L233.23,461.33L239.71,459.99L249.99,455.29L251.1,455.29L254.23,458.81L258.26,458.88L260.39,458.21L261.16,456.86L266.52,453.95L269.43,453.51L272.92,454.32L275.01,454.18L288.45,461.29L293.7,461.22L293.7,461.22L294.81,466.51L297.8,467.58L302.27,467.58L309.21,467.39L314.3,466.42L315.9,472.5L320.14,473.39L322.15,472.27L323.05,469.37L323.18,461.22L325.4,457.11L330.87,458.77L330.87,458.77L333.94,462.01L333.94,462.01L334.67,469.03L337.06,469.7L338.91,471.27L339.81,477.75L339.52,481.79L339.52,481.79L337.09,487.68L334.82,490.8L332.88,499.42L333.55,503L337.08,504.44L342.26,514.61L340.25,517.29L330.64,524.67L327.07,520.42L322.15,520.2L317.67,521.4L317.67,521.4L317.69,521.09L317.69,521.09L313.44,520.87L311.65,521.99L308.97,522.43L305.4,521.76L302.05,519.31L300.09,519.52L300.09,519.52L298.91,517.5L298.91,517.5L300.48,517.07L299.81,514.17L297.35,511.93L291.32,510.59L287.98,510.59L286.85,509.92L278.72,509.93L273,510.82L270.54,512.38L270.1,517.52L265.85,524.22L251.55,537.63L248.15,537.63L248.15,537.63L247.83,536.67L247.83,536.67L247.06,534.39L246.84,528.8L247.68,524.41L244.97,519.35L245.77,517.3L245.44,516L244.53,515.28L244.4,510.93L236.69,511.35L227.6,508.27L223.92,503.17L221.34,500.64L220.32,492.85L219.33,492.18L216.86,492.28L214.98,491.49L213.54,489.05L209.43,480.69L208.9,475.37L209.3,471.15L209.3,471.15z"/>
		<path id="PE-LAL" title="La Libertad" class="land" d="M154.36,294.58L161.87,304.63L160.51,308.06L160.69,310.3L162.5,314.7L164.33,315.81L165.93,330.4L169.51,331.07L171.07,332.41L172.25,339.87L177.27,337.99L180.65,337.62L183.27,339.49L187.77,340.24L191.52,345.87L192.65,349.99L191.73,350.46L192.01,352.69L183.27,354.87L181.4,356.75L181.4,356.75L178.02,359L178.02,359L173.46,360.01L173.46,360.01L166.49,348.87L164.1,347.75L161.07,344.82L159.56,340.05L150.35,341.52L146.92,346.5L143.1,348.75L139.69,351.77L133.81,366.99L121.18,371.31L119.02,374.23L119.12,377.35L118.05,379.91L116.33,380.21L116.33,380.21L116.37,378.41L113.67,374.26L111.72,363.89L105.16,356.63L105.46,354.69L102.21,348.17L94.44,339.88L88.39,335.49L86.08,332.46L83.7,328.34L82.51,324.08L76.91,315.76L77.05,313.05L74.76,307L71.72,303.75L71.72,303.75L78.82,296.27L81.52,294.22L85.73,295.27L87.14,296.44L87.14,296.44L87.57,304.96L88.38,306.11L88.38,308.74L89.71,312.2L93.85,313.28L97.72,316.52L99.43,320.04L99.5,321.34L101.88,321.49L104.51,320.36L109.38,315.11L114.26,312.49L117.26,314.36L118.01,317.74L120.64,318.49L127.39,317.36L129.64,318.86L129.85,324.83L131.58,325.91L132.08,328.14L137.89,325.61L140.89,322.99L143.52,323.74L145.12,325.14L147.29,324.61L147.91,323.19L149.4,322.69L155.21,315.99L154.54,311.96L152.75,307.27L147.27,295.9L147.27,295.9L149.99,295.28L149.99,295.28L154.14,293.95L154.14,293.95z"/>
		<path id="PE-LAM" title="Lambayeque" class="land" d="M76.39,249.26L77.58,250.67L77.58,250.67L79.03,250.33L79.03,250.33L82.09,251.49L82.73,252.85L82.73,252.85L83.64,252.31L83.64,252.31L86.91,249.72L86.91,249.72L88.34,252.48L92.46,254.31L92.82,255.11L91.39,262.11L89.7,265.39L87.01,265.21L85.05,266.07L82.24,268.79L82.74,275.45L88.48,282.28L94.56,283.48L95.07,284.45L94.86,286.09L91.27,289.72L88.52,291.04L88.44,294.68L88.08,296.09L87.14,296.44L87.14,296.44L85.73,295.27L81.52,294.22L78.82,296.27L71.72,303.75L71.72,303.75L71.46,300.98L70.79,299.89L67.07,295.4L62.18,291.32L60.15,286.11L54.33,280.85L39.98,273.56L33.33,268.64L33.33,268.64L38.59,261.18L40.05,257.52L44.27,252.44L46.01,250.98L51.39,249.15L56.51,245.02L59.99,240.21L60.28,236.82L61.47,233.94L68.08,239.02L70.97,245.28L72.72,246.06L72.72,246.06L75.36,247.38z"/>
		<path id="PE-LIM" title="Lima" class="land" d="M209.3,471.15L208.9,475.37L209.43,480.69L213.54,489.05L214.98,491.49L216.86,492.28L219.33,492.18L220.32,492.85L221.34,500.64L223.92,503.17L227.6,508.27L236.69,511.35L244.4,510.93L244.53,515.28L245.44,516L245.77,517.3L244.97,519.35L247.68,524.41L246.84,528.8L247.06,534.39L247.83,536.67L247.83,536.67L248.21,537.79L248.21,537.79L248.89,538.25L247.53,543.1L248.2,545.11L246.64,546.68L243.06,553.16L240.38,554.27L240.52,555.58L240.52,555.58L240.32,555.61L240.32,555.61L240,554.5L235.75,554.5L233.3,553.6L230.62,554.72L222.35,560.75L220.56,564.77L219,566.13L219,566.13L217.28,565.97L209.03,556.51L207.84,550.31L202.84,543.6L196.45,530.3L196.45,530.3L198.15,529.02L197.7,525L201.73,518.75L201.95,513.16L199.94,509.59L197.03,506.24L193.91,504.89L195.02,501.54L196.81,501.1L195.69,498.86L186.09,489.25L183.18,488.58L180.95,490.82L178.71,491.94L177.16,494.04L177.16,494.04L174.35,489.87L171.37,487.27L159.71,480.65L158.95,478.69L159.65,477.26L161.06,477.12L161.28,475.57L158.35,464.93L153.92,456.98L149.17,451.04L149.17,451.04L152.46,448.67L153.21,446.81L153.9,440.51L157.26,437.2L159.95,436.75L161.96,437.64L161.73,440.55L159.72,441.89L158.6,443.45L158.22,444.85L158.84,447.57L161.73,449.52L161.49,452.39L162.23,456.92L165.93,456.89L169.29,455.66L177.02,448.98L179.73,445.99L180.57,442.22L182,440.18L190.28,437L190.28,437L190.74,439.02L191.83,439.68L193.7,439.25L194.65,439.91L195.48,442.76L198.03,443.77L198.03,443.77L198.77,444.61L198.77,444.61L200.02,449.38L202.09,452.95L202.96,457.06L205.4,459.88L205.56,466.55L206.08,467.79L208.61,469.5L208.61,469.5z"/>
		<path id="PE-LMA" title="Municipalidad Metropolitana de Lima" class="land" d="M196.45,530.3L194.97,526.69L186.16,517.57L186.16,517.57L188.32,514.5L187.65,512.27L184.08,506.46L183.85,498.64L179.43,498.31L179.43,498.31L177.16,494.04L177.16,494.04L178.71,491.94L180.95,490.82L183.18,488.58L186.09,489.25L195.69,498.86L196.81,501.1L195.02,501.54L193.91,504.89L197.03,506.24L199.94,509.59L201.95,513.16L201.73,518.75L197.7,525L198.15,529.02z"/>
		<path id="PE-LOR" title="Loreto" class="land" d="M266.88,0.36L271.81,3.65L275.37,6.87L278.69,8.29L280.73,7.16L282.44,7.25L284.63,10.72L285.16,13.77L288.4,15.67L289.48,14.7L298.6,21.47L299.61,22.93L301.92,31.58L304.84,34.63L303.34,37.88L305.14,41.39L306.22,42.32L312.09,43.93L321.05,49.69L322.2,52.08L325.99,53.13L330.2,52.9L334.38,56.75L334.93,60.69L339.01,66.73L337.31,68.6L336.44,72.58L340.33,75.48L345.42,77.89L347.9,76.7L349.69,75.04L352.43,76.86L354.24,80.01L355.62,89.43L354.78,91.75L352.48,93.7L353.18,97.21L354.95,99.01L357.97,100.68L360.89,100.23L363.14,104.74L375.6,100.53L388,104.11L391.08,104.43L401.55,98.93L405.49,99.29L406.28,96.85L408.96,93.05L413.88,89.53L414.69,92.8L421.27,93.21L425.88,95.19L428.04,97.98L435.45,98.55L439.16,96.49L444.48,95.07L449.49,92.82L455.96,97.06L459.92,97.06L463.76,100.41L468.07,102.33L470.63,104.6L471.83,104.15L473.55,104.53L476.82,107.46L477.24,109.12L484.84,107.6L484.84,110L483.28,115.32L455.25,158.82L463.62,162.2L464.78,162.2L470.7,159.16L472.37,159.64L476.15,162.71L478.4,165.52L480.91,171.25L488.01,177.08L488.28,179.34L487.03,181.46L485.44,182.55L477.72,182.32L473.29,178.81L473.37,175.58L472.49,174.12L467.83,173.79L464.82,175.82L461.22,176.49L459.45,175L453.61,174.46L450.63,176.13L448.91,180.09L445.34,184.43L443.77,184.42L441.23,186.68L436.44,186.68L432.13,189.07L425.89,190.03L419.67,192.43L407.2,191.95L399.06,199.14L394.26,202.49L388.03,204.89L381.32,209.2L374.62,216.39L368.38,218.79L363.59,226.46L360.72,242.75L354.97,247.54L349.69,256.17L354.01,266.71L355.92,273.42L349.69,279.65L328.13,290.2L326.21,300.26L324.12,300.86L327.37,305.52L327.97,309.21L326.59,310.27L318.35,311.34L318.38,314.93L317.02,318.54L315.96,318.6L315.96,318.6L314.64,317.46L314.56,316.1L308.75,311.41L301.38,310.74L299.81,308.95L296.01,309.17L290.72,316.42L292.03,328.6L291.88,332.37L290.9,334.59L288.81,335.95L287.75,338.44L285.29,339.78L279.7,340.23L275.23,339.78L273,338.66L268.08,338.22L262.75,343.9L258.56,343.26L255.89,345.27L254.9,347.15L254.68,356.23L253.2,357.38L250.91,357.95L247.42,355.18L245.56,355.18L235.78,364.48L235.78,364.48L234.21,365.16L233.23,362.57L233.23,362.57L233.55,356.95L233.55,356.95L234.38,353.29L234.38,353.29L234.52,353.1L234.52,353.1L232.78,350.37L232.78,350.37L233.53,344.74L235.41,341.37L237.81,339.14L236.32,336.12L233.37,336.12L232.64,333.56L230,330.1L228.77,326.03L227.76,319.11L224.3,315.65L223.07,311.98L223.23,306.04L226.03,305.11L226.39,303.44L230.53,300.48L229.41,287.73L231.47,285.66L234.02,285.31L237.7,286.43L239.97,288.11L239.97,288.11L240.42,288.68L245.16,288.48L248.91,287.73L248.91,287.73L250.52,287.09L251.67,282.48L252.77,269.64L252.29,266.28L254.16,264.1L254.54,260.35L252.29,257.35L248.54,255.48L248.54,255.48L243.28,256.6L240.49,258.73L240.49,258.73L236.63,257.92L230.32,257.93L223.78,262.23L220.78,260.73L217.78,256.98L213.65,253.23L209.8,252.84L205.95,255.24L203.57,255.6L199.34,253.24L198.49,251.97L198.49,251.97L196.31,245.95L196.31,245.95L195.66,244.76L195.66,244.76L194.97,243.53L190.63,240.55L188.48,239.87L188.48,239.87L178.63,239.42L178.63,239.42L178.63,239.42L178.63,239.42L176.26,238.49L171.48,233.14L164.22,230.51L160.03,227.09L160.03,227.09L157.04,220.99L156.18,217.36L151.77,213.84L151.77,210.84L154.52,207.75L154.09,204.46L154.92,199.92L156.44,196.91L159.95,192.66L159.95,192.66L162.98,185.67L162.98,185.67L163.33,183.25L162.82,180.89L163.92,170.36L163.33,163.15L160.03,157.5L160.3,152.95L160.3,152.95L158.48,144.77L156.7,140.8L156.7,140.8L154.62,136.79L154.33,131.17L152.77,124.35L152.77,124.35L201.84,107.53L226.88,88.82L245.95,66.13L248.65,63.74L255.56,37.56L258.62,39.98L263.47,39.54L260.23,29.41L260.63,26.26L262.1,25.13L262.3,22.22L261.52,20.61L258.22,18.14L257.19,18.22L255.08,16.23L252.19,8.29L248.35,6.07L246.07,5.73L246.44,2.95L250.57,3.39L254.59,5.4L257.8,4.85L260.53,3.51L261.67,3.63L263.08,2.51L263.98z"/>
		<path id="PE-MDD" title="Madre de Dios" class="land" d="M459.18,466.71L459.21,468.17L463.69,465L466.87,468.12L471.42,467.74L485.6,465.83L489.32,464.06L495.54,464.52L497.35,466.12L504.62,465.64L532.04,510.98L542.77,532.81L539.79,536.44L536.72,542.89L533.99,543.95L534.38,547.4L533.57,550.93L529.98,553.52L529.98,553.52L526.7,555.61L508.61,562.76L506.15,565.44L501.23,566.56L496.45,566.97L486.93,565L476.43,559.86L470.18,559.19L467.47,559.69L467.47,559.69L467.49,559.41L467.49,559.41L464.02,558.72L461.02,558.96L456.77,557.62L451.63,557.18L448.28,555.84L446.49,556.51L445.92,558.38L442.02,561.87L439.34,563.66L437.33,563.21L435.2,553.84L434.2,551.81L427.72,550.03L424.15,547.57L419.23,540.64L406.05,543.32L404.26,543.32L401.81,541.54L401.14,534.83L396.67,529.02L401.19,525.29L400.68,525.03L401.81,522.77L398.46,521.21L397.11,518.08L394.66,514.73L387.06,510.03L386.17,505.34L384.79,503.73L385.17,501.98L381.47,497.3L385.72,492.61L387.73,489.25L388.62,480.35L388.62,480.35L389.08,480.42L389.08,480.42L392.21,476.66L393.23,473L393.84,470.56L392.21,469.13L392.62,467.09L404.88,467.38L409.33,466.85L425.59,466.69L430.07,462.41L430.89,459.97L431.5,454.07L432.92,449.79L437.2,445.11L441.88,443.28L450.23,434.74L452.67,433.71L459.32,423.15L459.32,423.15z"/>
		<path id="PE-MOQ" title="Moquegua" class="land" d="M449.87,685.44L451.04,685.28L452.3,686.19L460.79,685.76L461.51,686.48L468.23,688.12L469.06,689.21L470.97,694.64L471.11,700.72L473.02,706.42L480.51,714.11L484.3,715.08L485.48,716.37L481.95,719.76L481.57,726.65L480.31,728.16L480.31,728.16L480.44,728.36L480.44,728.36L476.88,729.1L476.28,727.62L475.54,727.47L475.09,722.85L473.08,721.73L468.97,722.1L467.6,722.87L466.18,724.67L465.14,727.91L465.94,732.99L460.84,739.1L456.29,741.16L449.62,753.38L449.62,755.47L447.39,760.61L444.93,762.84L438.23,766.19L436.35,766.19L436.35,766.19L434.49,764.09L430.6,761.84L428.25,757.84L426.43,747.95L422.74,744.9L422.38,743.63L418.55,741.63L418.55,741.63L422.83,740.37L427.66,737.5L428.88,732.87L426.05,729.34L424.62,726.23L424.23,723.67L425.01,722.02L427.77,719.72L430.26,718.71L430.67,716.38L430.26,713.74L434.38,708.11L436.92,706.9L432.86,702.29L433.76,700.73L435.77,700.73L440.91,704.08L443.81,704.97L445.41,704.34L445.04,702.11L445.55,701.08L449.18,696.92z"/>
		<path id="PE-PAS" title="Pasco" class="land" d="M293.7,461.22L288.45,461.29L275.01,454.18L272.92,454.32L269.43,453.51L266.52,453.95L261.16,456.86L260.39,458.21L258.26,458.88L254.23,458.81L251.1,455.29L249.99,455.29L239.71,459.99L233.23,461.33L231.22,459.76L228.98,459.54L226.08,461.33L225.6,462.95L225.86,465.35L229.43,465.12L229.88,467.13L228.98,469.37L225.86,470.71L222.73,470.26L220.49,472.5L217.59,472.94L215.95,471.77L214.84,471.93L214.02,470.49L211.56,469.82L208.91,470.21L208.91,470.21L208.61,469.5L208.61,469.5L206.08,467.79L205.56,466.55L205.4,459.88L202.96,457.06L202.09,452.95L200.02,449.38L198.77,444.61L198.77,444.61L198.14,443.9L198.14,443.9L201.95,443L208.21,438.76L211.56,437.64L214.69,437.87L216.92,440.1L218.93,440.99L232.56,443.45L234.35,437.42L236.58,436.53L237.7,434.74L240.16,433.84L244.4,427.37L252.97,420.2L254.37,420.01L261.83,414.18L264.51,414.41L266,415.19L268.98,418.2L272.04,415.4L272.8,415.47L273.45,414.18L277.02,411.95L279.7,411.72L282.61,408.6L283.5,405.47L289.14,399.16L289.14,399.16L289.31,401L289.31,401L291.1,403.46L293.33,405.02L293.33,405.02L295.57,410.61L295.57,410.61L295.31,414.32L296.36,417.22L298.02,417.98L299.14,425.13L301.82,428.71L303.83,430.27L306.74,430.72L306.74,430.72L306.51,434.07L305.4,436.53L305.4,436.53L304.95,439.43L306.07,442.33L309.2,445.02L309.87,446.8L309.64,448.81L308.33,449.47L308.26,450.55L303.14,452.73L298.3,457.94z"/>
		<path id="PE-PIU" title="Piura" class="land" d="M11.21,258.51L9.33,254.51L10,251.84L11.66,249.84L14.5,250.01L16.49,249.34L19.33,245.68L20.66,242.01L20.33,237.68L15.49,228.85L9,225.35L5.33,222.35L5.66,220.02L7.16,217.52L8.4,216.86L8.98,213.87L12.44,213.3L9.33,208.86L5,205.53L0,200.03L0.17,196.2L2.67,183.7L5.61,178.87L12.86,172.55L12.86,172.55L13.81,175.39L16.57,177.66L28.39,177.28L31.78,176.02L32.66,174.95L32.66,174.95L35.15,172.75L39.19,178.03L40.45,182.25L38.81,184.7L38.75,185.89L39.5,186.96L42.62,188.53L45.03,187.42L50.43,182.81L51.64,182.68L54.02,183.19L56.29,184.69L63.7,187.46L65.84,189.34L67.06,188.48L69.96,188.22L78.1,189.55L78.97,190.33L79.99,194.56L82.98,202.09L89.79,209.21L92.08,209.17L92.08,209.17L88.69,212.78L85.17,217.86L86.64,223.05L88.16,225.15L88.4,232.2L87.47,232.07L84.9,235.21L84.05,242.03L84.9,245.63L87.09,249.58L87.09,249.58L83.64,252.31L83.64,252.31L82.73,252.85L82.73,252.85L82.09,251.49L79.03,250.33L79.03,250.33L77.58,250.67L77.58,250.67L75.36,247.38L72.72,246.06L72.72,246.06L70.97,245.28L68.08,239.02L61.47,233.94L60.28,236.82L59.99,240.21L56.51,245.02L51.39,249.15L46.01,250.98L44.27,252.44L40.05,257.52L38.59,261.18L33.33,268.64L33.33,268.64L31.16,268.84L27.82,270.34L18.33,263.17L17.6,261.59z"/>
		<path id="PE-PUN" title="Puno" class="land" d="M514.39,661.8L511.02,659.61L506.76,659.31L505.23,656.26L499.75,655.66L498.84,652L495.49,649.26L485.75,646.52L479.06,646.83L478.45,648.66L479.06,650.48L488.19,650.48L490.01,651.39L490.62,655.66L486.67,658.7L487.28,661.74L489.41,662.96L489.41,666.92L487.58,667.22L486.67,669.96L481.49,672.09L483.93,681.53L488.19,681.22L491.84,683.66L493.06,681.22L494.28,680.62L496.41,685.49L500.12,685.16L501.89,686.09L506.45,687.01L507.06,688.83L504.93,691.27L503.71,694.62L506.15,697.05L510.1,695.23L512.23,695.23L514.37,698.57L517.71,699.18L521.67,697.66L523.5,694.31L525.67,692.98L525.67,692.98L528.02,695.15L529.61,698.83L529.32,704.47L527.39,706.86L527.08,710.16L528.32,715L520.65,720.37L515.16,726.94L512.33,732.55L506.16,735.97L502.43,739.74L500.84,742.96L500.84,742.96L497.55,743.51L489.48,739.36L484.7,735.6L484.7,735.6L480.31,728.16L480.31,728.16L481.57,726.65L481.95,719.76L485.48,716.37L484.3,715.08L480.51,714.11L473.02,706.42L471.11,700.72L470.97,694.64L469.06,689.21L468.23,688.12L461.51,686.48L460.79,685.76L452.3,686.19L451.04,685.28L449.87,685.44L449.87,685.44L449.87,685.44L449.87,685.44L450.53,682.74L448.38,680.5L446.13,676.75L447.75,672.27L442.88,666.64L442.36,662.17L442.36,662.17L442.44,658.6L442.44,658.6L442.22,656.62L444.23,655.53L444.49,651.87L444.07,648.7L442.89,646.84L442.58,642.08L444.26,638.81L443.52,634.24L441.54,631.28L440.41,630.99L437.11,626.66L438.23,624.88L441.13,622.86L442.92,615.94L446.72,608.57L448.06,600.3L447.16,596.28L447.83,590.47L451.41,588.9L459,579.07L466.82,570.36L467.05,565.67L467.05,565.67L467.47,559.69L467.47,559.69L470.18,559.19L476.43,559.86L486.93,565L496.45,566.97L501.23,566.56L506.15,565.44L508.61,562.76L526.7,555.61L529.98,553.52L529.98,553.52L533.57,550.93L533.03,555.27L533.3,559.88L534.11,561.78L532.75,567.75L530.56,571.37L530.5,576.58L529.74,579.17L526.17,585.36L528.24,589L529.91,596.65L532.3,598.91L531.94,602.36L532.75,605.35L529.77,606.43L527.6,608.06L526.78,613.22L518.1,623.53L515.38,627.33L513.49,631.4L512.57,640.39L516.25,645.43L522.99,651.94L522.74,653.12L520.48,653.44L517.39,656.31z"/>
		<path id="PE-SAM" title="San Martín" class="land" d="M160.03,227.09L164.22,230.51L171.48,233.14L176.26,238.49L178.63,239.42L183.56,239.99L188.48,239.87L188.48,239.87L190.63,240.55L194.97,243.53L195.66,244.76L195.66,244.76L196.31,245.95L196.31,245.95L198.49,251.97L198.49,251.97L199.34,253.24L203.57,255.6L205.95,255.24L209.8,252.84L213.65,253.23L217.78,256.98L220.78,260.73L223.78,262.23L230.32,257.93L236.63,257.92L240.49,258.73L240.49,258.73L243.28,256.6L248.54,255.48L248.54,255.48L252.29,257.35L254.54,260.35L254.16,264.1L252.29,266.28L252.77,269.64L251.67,282.48L250.52,287.09L248.91,287.73L248.91,287.73L245.16,288.48L240.42,288.68L239.97,288.11L239.97,288.11L237.7,286.43L234.02,285.31L231.47,285.66L229.41,287.73L230.53,300.48L226.39,303.44L226.03,305.11L223.23,306.04L223.07,311.98L224.3,315.65L227.76,319.11L228.77,326.03L230,330.1L232.64,333.56L233.37,336.12L236.32,336.12L237.81,339.14L235.41,341.37L233.53,344.74L232.78,350.37L232.78,350.37L233.05,350.8L233.05,350.8L229.03,352.24L225.28,356L227.21,368.57L225.72,370.32L223.56,370.06L218.06,358.81L214.75,356.75L214.67,357.26L212.9,356.37L209.9,361.25L205.03,359L200.9,360.5L197.9,359.75L192.5,360.68L192.7,361.45L186.62,361.45L185.42,359.93L183.65,360.22L181.4,356.75L181.4,356.75L183.27,354.87L192.01,352.69L191.73,350.46L192.65,349.99L191.52,345.87L187.77,340.24L183.27,339.49L180.65,337.62L177.27,337.99L172.25,339.87L171.07,332.41L169.51,331.07L165.93,330.4L164.33,315.81L162.5,314.7L160.69,310.3L160.51,308.06L161.87,304.63L154.36,294.58L154.36,294.58L153.83,293.04L153.83,293.04L155.87,283.65L158.14,281.73L160.39,281.36L164.89,281.73L167.9,283.98L170.15,282.86L172.4,280.23L172.4,278.38L174.68,272.95L179.64,268.93L180.56,267.19L178.54,261.2L175.38,257.29L163.77,253.92L162,251.94L157.57,243.47L156.35,240.57L156.74,231.61L157.47,229.51z"/>
		<path id="PE-TAC" title="Tacna" class="land" d="M436.35,766.19L438.23,766.19L444.93,762.84L447.39,760.61L449.62,755.47L449.62,753.38L456.29,741.16L460.84,739.1L465.94,732.99L465.14,727.91L466.18,724.67L467.6,722.87L468.97,722.1L473.08,721.73L475.09,722.85L475.54,727.47L476.28,727.62L476.88,729.1L480.44,728.36L480.44,728.36L484.7,735.6L484.7,735.6L489.48,739.36L497.55,743.51L500.84,742.96L500.84,742.96L503.63,743.32L507.46,747.03L507.51,752.65L498.77,760.5L495.87,760.94L494.75,762.51L497.21,772.79L497.43,777.25L493.41,785.3L489.17,789.32L470.85,792L469.22,789.93L468.85,790.26L463.83,785.8L458.43,783.33L445.29,770.92L439.42,768.4z"/>
		<path id="PE-TUM" title="Tumbes" class="land" d="M44.09,167.91L42.68,167.29L39.43,167.55L37.9,170.53L32.66,174.95L32.66,174.95L31.78,176.02L28.39,177.28L16.57,177.66L13.81,175.39L12.86,172.55L12.86,172.55L14.03,171.78L17.1,166.49L22.42,162.59L23.17,159.44L24.41,157.42L33.59,152.04L36.57,147.37L41.37,146.76L43.23,145.78L46.86,146.93L49.12,155.1L49.37,159.37L47.74,164.9z"/>
		<path id="PE-UCA" title="Ucayali" class="land" d="M235.78,364.48L245.56,355.18L247.42,355.18L250.91,357.95L253.2,357.38L254.68,356.23L254.9,347.15L255.89,345.27L258.56,343.26L262.75,343.9L268.08,338.22L273,338.66L275.23,339.78L279.7,340.23L285.29,339.78L287.75,338.44L288.81,335.95L290.9,334.59L291.88,332.37L292.03,328.6L290.72,316.42L296.01,309.17L299.81,308.95L301.38,310.74L308.75,311.41L314.56,316.1L314.64,317.46L315.96,318.6L315.96,318.6L315.32,318.67L315.22,319.69L321.15,324.86L322.15,326.67L327.94,329.19L328.49,330.34L328.3,332.18L327.14,333.61L324.93,333.32L325.15,336.54L330.28,339.48L332.67,343.96L335.34,353.86L340.82,358.07L343.34,364.58L346.43,367.66L348.9,368.17L350.99,369.38L355.59,377.45L357.85,378.65L359.71,381.15L360.32,384.5L359.54,387.79L357.09,391.14L350.29,397.32L349.53,398.86L369.63,399.39L384.92,402.81L387.92,404.55L390.01,409.88L389.29,413.04L389.67,414.27L393.09,416.18L393.75,417.53L394.35,419.78L392.85,424.75L394.64,424.84L430.82,424.44L435.77,421.72L437.56,418.78L442.88,416.93L448.51,410.44L452.9,407.67L461.91,400.27L460.75,415.23L459.46,417.15L459.32,423.15L459.32,423.15L452.67,433.71L450.23,434.74L441.88,443.28L437.2,445.11L432.92,449.79L431.5,454.07L430.89,459.97L430.07,462.41L425.59,466.69L409.33,466.85L404.88,467.38L392.62,467.09L392.21,469.13L393.84,470.56L393.23,473L392.21,476.66L389.08,480.42L389.08,480.42L388.12,480.27L383.29,481.94L380.92,484.09L380.92,484.09L376.25,486.53L374.13,485.97L374.13,485.97L371.13,484.66L365.19,483.99L360.67,481.22L359.45,478.32L359.45,478.32L351.28,480.74L340.44,482.16L339.52,481.79L339.52,481.79L339.81,477.75L338.91,471.27L337.06,469.7L334.67,469.03L333.94,462.01L333.94,462.01L330.87,458.77L330.87,458.77L325.4,457.11L323.18,461.22L323.05,469.37L322.15,472.27L320.14,473.39L315.9,472.5L314.3,466.42L309.21,467.39L302.27,467.58L297.8,467.58L294.81,466.51L293.7,461.22L293.7,461.22L298.3,457.94L303.14,452.73L308.26,450.55L308.33,449.47L309.64,448.81L309.87,446.8L309.2,445.02L306.07,442.33L304.95,439.43L305.4,436.53L305.4,436.53L306.51,434.07L306.74,430.72L306.74,430.72L303.83,430.27L301.82,428.71L299.14,425.13L298.02,417.98L296.36,417.22L295.31,414.32L295.57,410.61L295.57,410.61L293.33,405.02L293.33,405.02L291.1,403.46L289.31,401L289.31,401L289.09,398.54L289.98,396.08L291.77,393.85L291.77,393.85L290.87,390.5L289.09,388.26L289.09,383.8L288.33,380.54L289.01,377.31L291.52,372.43L293.56,371.1L292.77,367.1L290.93,365.66L285.47,365.4L280.62,367.34L278.14,375.08L277.92,377.99L276.8,380L274.79,380L273.67,377.76L267.85,378.72L266.97,383.13L264.73,385.81L264.96,390.28L260.94,394.07L257.58,394.97L255.17,394.39L248.2,398.57L245.97,397.87L238.69,386.23L234.76,377.55L233.45,372.65L234.12,368.6L234.12,368.6L234.26,365.14z"/>
		<path id="PE-LKT" title="Lake Titicaca" class="water" d="M525.67,692.98L523.5,694.31L521.67,697.66L517.71,699.18L514.37,698.57L512.23,695.23L510.1,695.23L506.15,697.05L503.71,694.62L504.93,691.27L507.06,688.83L506.45,687.01L501.89,686.09L500.12,685.16L496.41,685.49L494.28,680.62L493.06,681.22L491.84,683.66L488.19,681.22L483.93,681.53L481.49,672.09L486.67,669.96L487.58,667.22L489.41,666.92L489.41,662.96L487.28,661.74L486.67,658.7L490.62,655.66L490.01,651.39L488.19,650.48L479.06,650.48L478.45,648.66L479.06,646.83L485.75,646.52L495.49,649.26L498.84,652L499.75,655.66L505.23,656.26L506.76,659.31L511.02,659.61L514.39,661.8L514.39,661.8L510.88,669.27L517.79,687.75z"/>
	</g>
</svg>