<?xml version="1.0" encoding="utf-8"?>
<!-- (c) ammap.com | SVG map of Philippines - High -->
<svg xmlns="http://www.w3.org/2000/svg" xmlns:amcharts="http://amcharts.com/ammap" xmlns:xlink="http://www.w3.org/1999/xlink" version="1.1">
	<defs>
		<style type="text/css">
			.land
			{
				fill: #CCCCCC;
				fill-opacity: 1;
				stroke:white;
				stroke-opacity: 1;
				stroke-width:0.5;
			}
		</style>

		<amcharts:ammap projection="mercator" leftLongitude="116.927573" topLatitude="20.834769" rightLongitude="126.606549" bottomLatitude="4.640292"></amcharts:ammap>

		<!-- All areas are listed in the line below. You can use this list in your script. -->
		<!--{id:"PH-SUR"},{id:"PH-TAR"},{id:"PH-TAW"},{id:"PH-ZMB"},{id:"PH-ZAN"},{id:"PH-ZSI"},{id:"PH-ABR"},{id:"PH-AGN"},{id:"PH-AGS"},{id:"PH-AKL"},{id:"PH-ALB"},{id:"PH-ANT"},{id:"PH-APA"},{id:"PH-AUR"},{id:"PH-BAN"},{id:"PH-BTN"},{id:"PH-BTG"},{id:"PH-BEN"},{id:"PH-BIL"},{id:"PH-BOH"},{id:"PH-BUK"},{id:"PH-BUL"},{id:"PH-CAG"},{id:"PH-CAN"},{id:"PH-CAS"},{id:"PH-CAM"},{id:"PH-CAP"},{id:"PH-CAT"},{id:"PH-CAV"},{id:"PH-CEB"},{id:"PH-COM"},{id:"PH-DAV"},{id:"PH-DAS"},{id:"PH-DAO"},{id:"PH-DIN"},{id:"PH-EAS"},{id:"PH-GUI"},{id:"PH-IFU"},{id:"PH-ILN"},{id:"PH-ILS"},{id:"PH-ILI"},{id:"PH-ISA"},{id:"PH-KAL"},{id:"PH-LUN"},{id:"PH-LAG"},{id:"PH-LAN"},{id:"PH-LAS"},{id:"PH-LEY"},{id:"PH_MG"},{id:"PH-MAD"},{id:"PH-MAS"},{id:"PH-MNL"},{id:"PH-MSC"},{id:"PH-MSR"},{id:"PH-MOU"},{id:"PH-NEC"},{id:"PH-NER"},{id:"PH-NCO"},{id:"PH-NSA"},{id:"PH-NUE"},{id:"PH-NUV"},{id:"PH-MDC"},{id:"PH-MDR"},{id:"PH-PLW"},{id:"PH-PAM"},{id:"PH-PAN"},{id:"PH-QUE"},{id:"PH-QUI"},{id:"PH-RIZ"},{id:"PH-ROM"},{id:"PH-WSA"},{id:"PH-SAR"},{id:"PH-SIG"},{id:"PH-SOR"},{id:"PH-SCO"},{id:"PH-SLE"},{id:"PH-SUK"},{id:"PH-SLU"},{id:"PH-SUN"},{id:"PH-BAS"},{id:"PH-ZAS"}-->

	</defs>
	<g>
		<path id="PH-SUR" title="Surigao del Sur" class="land" d="M697.34,868.78l2.26,1.56l0.67,0.3l-0.92,0.84l-1.71,-0.44l-1.92,1.12l-0.1,1.14l1.66,1.7l1.02,-0.44l1.2,2.28l2.03,-0.97l-0.33,-1.19l1.14,-0.74l-0.05,1.74l-1.29,0.87l1.21,2.22l2.46,5.08l-0.96,0.08l3.07,2.42l5.07,-1.64l3.61,-3.78l2.82,0.11l-1.15,1.38l0.45,1.28l-1.73,4.96l0.42,3.07l-1.52,4.17l2.28,2.12l0.54,-1.12l2.92,5.03l2.83,2.9l0.95,0.33l1.33,1.52l0.24,1.56l-1.43,0.65l2.52,0.57l-1.33,2.76l2.02,2.94l-1.45,0.26l0.89,0.85l-1.96,1.44l0.2,1.58l-3.57,0.77l-1.15,0.75l-0.08,1.64l-1.81,0.61l-0.02,1.49l2.38,1.16l-4.19,-0.18l-5.97,3.46l-1.61,2.84l3.08,2.11l-0.83,1.24l2.16,2.61l1.45,-0.08l-0.26,-0.77l4.29,1.34l0.44,-0.69l-2.82,-1.26l1.61,-0.61l3.87,0.55l1.95,1.54l1.84,-0.69l1.69,0.64l1.21,-1.35l0.68,0.83l-0.82,1.34l2.86,0.18l0.4,1.74l-0.97,0.73l1.01,1.09l-2.5,-0.34l-1.07,3.16l1.85,-0.18l0.5,1.56l-1.73,2.96l-2.72,0.94l1.34,1.63l-0.79,0.3l0.25,1.17l3.31,0.3l0.99,1.32l-5.44,4.67l2.14,3.2l3.37,-1.44l3.59,-3.16l1.21,0.18l-2.04,9.59l1.73,1.05l-2.67,3.17l0.52,2.98l-1.17,0.3l0.67,1.82l2.46,-0.25l-3.13,2.49h-1.41l-1.93,3.22l0,0l-0.7,-6.63l0,0l-0.39,-3.68l-3.31,-1.01l4.35,-4.24l-4.81,0.51l-4.43,-4.21l-1.88,-0.26l1.04,-3.75l3.67,-4.18l1.38,-0.03l0.03,-1.74l-1.69,-2.12l0.86,-4.63l-1.47,2.12l-5.79,0.38l-5.89,-0.71l-2.79,-2.72l3.51,-3.9l-4.81,0.46l-1.25,-7.6l-1.8,-0.14l-0.16,-1.06l-0.38,-4.65l1.71,-1.16l-0.26,-0.84l-3.11,-4.7l-1.64,-5.7l-3.57,-4.09l-1.46,-14.2l-3.16,-5.48l-5.76,-6.65l0,0l-0.54,-6.53l0,0l12.34,-12.47l0,0L697.34,868.78z"/>
		<path id="PH-TAR" title="Tarlac" class="land" d="M312.23,398.57L315.23,411.22L318.34,414.5L322.49,415.63L320.16,419.8L323.27,429.65L321.65,432.29L321.41,435.57L324.51,437.92L323.78,440.84L323.78,440.84L321.75,441.15L321.55,439.9L318.48,441.6L315.5,440.55L314.12,441.47L309.39,441.44L295.97,448.51L294.67,448.3L294.67,448.3L292.25,443.47L288.47,439.22L279.6,433.89L281.25,422.9L283.88,417.77L286.88,416.02L286.18,414.58L286.18,414.58L291.26,412.22L290.74,410.86L293.29,408.66L293.78,406.23L296.25,403.56L302.67,406.24L307.52,403.17L310.43,394.3z"/>
		<path id="PH-TAW" title="Tawi-Tawi" class="land" d="M225.73,1211.16l-1.45,7.03l-0.56,-2.53l1.03,-1.87l-1.39,-1.19l2.42,-3.16L225.73,1211.16zM255.17,1206.92l2.96,2.03l-3.77,-0.16l-0.54,-1.43L255.17,1206.92zM228.27,1200.34l2.82,5.67l0.89,5.45l-1.83,6.65l-1.67,1.91l0.5,-10.77l-1.53,-8.06L228.27,1200.34zM253.4,1199.52l3.63,1.87l0.02,2.55l-3.61,0.54l-0.99,-4.28L253.4,1199.52zM269.12,1193.39l-0.9,3.46l-1.41,0.29l0.24,-3.5L269.12,1193.39zM251.6,1191.86l-0.42,1.37l-2.56,-0.2l0.32,-1.39L251.6,1191.86zM276.58,1191.94l1.12,0.67l-0.21,1.15l-2.58,-2.03L276.58,1191.94zM283.97,1192.26l-0.7,0.69l-2.11,-0.57l1.76,-1.56l1.4,0.76L283.97,1192.26zM253.96,1185.49l0.52,4.34l-1.15,0.52l-0.75,-0.95l-0.4,1.67l-3.17,0.46l1.94,-4.56L253.96,1185.49zM290.23,1185.16l0.64,1.47l-1.18,0.84l-2.56,-0.14L290.23,1185.16zM292.85,1183.39l-0.58,1.95l-1.1,-0.38l0.15,-2.17l1.14,-0.5L292.85,1183.39zM290.25,1179.95l-2.56,1.53l-0.45,-1.01l-1.55,0.35l1.66,-5.24l2.83,2.42L290.25,1179.95zM294,1175.44l-1.54,5.38l-0.66,-2.93L294,1175.44zM283.03,1168.83l0.34,3.42l2.8,1.87l-1.7,3.07l0.65,3.73l-1.49,2.53l0.34,1.65l-4.17,-1.47l1.98,-2.81l-1.72,-0.73l-0.85,2.17l-2.6,-1.67l-1.81,2.58l-0.77,-0.7l-0.89,-0.54l-1.09,0.42l-0.17,-1.28l-1.24,-0.08l-3.19,1.92l0.3,1.71l-0.66,0.62l-2.17,3.31l-2.2,-0.78l-3,1.72l-0.6,0.34l-1.49,0.9l-2.93,-0.64l0.35,-3.99l-1.02,-1.01l1.38,-1.75l1.99,0.2l6.09,-3.07l2.75,-3.5l3.65,0.36l2.9,-2.76l0.56,-0.74l6.85,-4.54L283.03,1168.83zM290.76,1166.13l1.26,0.34l-1.68,1.23l-1.74,-0.5L290.76,1166.13zM310.94,1165.07l-1.75,-0.85l0.7,-1.81l1.93,1.68L310.94,1165.07zM159.31,1045.51l1.53,1.53l-1.27,2.6l1.89,2.08l-7.63,-1.81l-0.04,-1.33l-1.59,-0.97l3.31,-1.15l1.69,0.56L159.31,1045.51z"/>
		<path id="PH-ZMB" title="Zambales" class="land" d="M259.64,400.47l1.78,0.92l2.65,-1.21l0.71,1.37h2.3l2.76,-3.97l4.11,2.57l4.6,-0.98l2.7,7.29l4.93,8.11l0,0l0.7,1.44l-3,1.75l-2.63,5.14l-1.65,10.98l8.87,5.33l3.78,4.26l2.42,4.83l0,0l-0.91,2.36l0.56,2.26l2.82,2.05l1.26,2.56l-0.12,3.96l2.25,2.08l0.67,2.51l0,0l-1.8,3.56l-4.35,-0.68l-1.29,3.14l-4.04,3.17l-0.53,0.41l0.16,-1.19l-1.9,-0.31l-0.3,-1.89l-1.73,-0.1l-1.43,-2.26l-1.65,0.91l0.91,3.73l-2.56,5.62l-4.59,-1.59l1.45,-0.31l-1.09,-1.26l-2.68,-0.31l1.94,-2.6l-2.2,0.59l0.35,-2.95l-0.96,0.02l0.07,-1.86l-1.45,-1.33l1.01,-8.98l-0.87,-6.39l-3.08,-9.9l0.34,-2.43l-2,-2.45l-1.71,-1.97l0.11,-1.57l-2.72,-2.88l0.63,-0.42l-2.32,-0.71l0.14,-1.27l-1.29,-1l1.97,-1.33l-1.15,-1.73l0.29,-1.64l0.99,1.24l1.75,-0.08l0.25,-1.43l1.59,-0.8l-2.3,-3.56l0.87,-1.27l-1.5,0.08l0.08,1.19l-0.9,-0.34l0.6,-2.64l-1.52,-1.97l1.55,-1.65l0.62,-3.7l-1.22,-1l-1.21,0.39l-2.28,-2.55l2.96,-1.49L259.64,400.47z"/>
		<path id="PH-ZAN" title="Zamboanga del Norte" class="land" d="M513.99,923.4l3.18,0.8l1.13,2.39l3.62,-1.3l0.47,1.37l-1.63,1.84l0.22,1.05l1.75,1.52l1.57,-0.75l0.11,0.89l1.36,-0.14l0,0l-0.37,29.59l0,0l-12.14,0.04l-2.46,-1.23l-10.72,-0.56l-0.55,9.71l-1.9,4v4.04l-6.47,-0.18l-8.39,6.12l-3.37,-0.31l0,0l-11.8,-1.81l-6.56,1l-8.08,3.8l-7.26,6.03l-6.8,3.29l-5.94,8.8l-3.35,7.16l-0.81,5.02l0,0l-3.6,6.96l-0.24,6.6l-1.47,4l-5.35,5.09l-12.38,0.25l0,0l5.24,-7.46l2.43,-0.95l0.37,-1.25l3.71,-1.13l0.12,-1.37l-2.02,-0.95l-0.54,-2.32l1.99,-3.04l-0.15,-3.39l2.56,-3.6l-1.21,-1.99l2.06,-0.1l2.99,-3.58l-0.57,-1.11l-0.91,0.58l-1.26,-1.08l2.1,-3.18l0.05,-2.01l-1.34,-4l-2.27,-1l1.31,-1.92l0.61,1l0.91,-0.59l-0.33,-1.46l0.12,-1.75l1.47,-0.39l1.35,-3.81l4.81,-3.63l-0.02,-3.8l8.65,-5.66l8.47,-2.47l3.51,0.53l5.32,-1.32l3.27,-2.18l2.38,-3.58l1.78,3.01l2.46,0.65l6.78,-0.65l3.35,-1.9l3.87,0.02l6.05,-4.92l-0.08,-2.61l-2.04,-0.79l-2.2,-3.38l3.37,-1.48l-0.21,-6.3l2.07,-1.05l1.62,-4.52l2.39,-1.83l8.63,-1.29l6.29,1.54l2.18,-0.54l2.25,-3.17l1.43,-5.26l1.48,-0.63l1.6,1.36l1.58,-0.59l0.43,-2.14l-1.64,-0.93l-0.28,-0.62l-1.12,-1.52l0.01,-1.57L513.99,923.4z"/>
		<path id="PH-ZSI" title="Zamboanga Sibugay" class="land" d="M432.59,1049.16l0.61,0.74l-0.46,2.27l-3.14,-0.52l0.5,1.06l-2.72,2.25l1.07,-2.75l-0.57,-0.68l1.21,-1.51l1.37,0.59L432.59,1049.16zM480.95,1019.95l0.67,-0.53l-1.17,-1.37l-2.24,-1.05l-0.88,1.03l0.28,3.53l-0.93,0.71l-3,-4.77l-2.52,0.89l-1.07,5.59l1.61,0.59l-0.32,2.99l1.85,1.41l1.17,-2.24l3.83,-0.85l1.39,-2.1l2.24,0.73l-1.83,-2.36l3.67,0.61L480.95,1019.95zM491.71,990.17l-12.31,-1.56V982.3l-11.8,-1.81l-6.56,1l-8.08,3.8l-7.26,6.03l-6.8,3.29l-5.94,8.8l-3.35,7.16l-0.81,5.02l-3.6,6.96l-0.24,6.6l-1.47,4l-5.35,5.09l-12.38,0.25l-0.28,5.02l2.93,8.2l12.37,5.56l3.09,-1.39l0.44,-1.17l2.06,-2.14l1.98,-6.11l0.06,-0.87l-0.58,-1.49l3.77,-3.07l-0.06,-1.31l-1.1,-0.14l1.38,-2.05l-0.96,-2.17l1.33,-0.4l-0.18,-0.67l0.29,-1.7l0.96,-0.28l0.78,-6.54l2.02,-1.11l0.77,0.52l-0.24,1.63l1.09,-0.51l3.82,-5.54l-3.54,-0.51l0.94,-4.76l-0.1,-0.14l3.42,-1.82l1.36,-1.02l1.9,-2.23l1.35,-0.3l1.3,0.04l0.16,-1.76l1.37,-1.25l-3.96,0.88l-1.28,-0.34l-0.19,-1.14l4.28,-3.23l-0.55,-1.5l1.97,-2.78l1.16,-0.19l1.28,-3.04l5.55,-1.75l0.34,-1.25l1.15,0.4l1.29,-1.31l1.03,1.68l1.47,-1.63l1.9,0.34l1.89,2.48l1.65,-0.93l3.25,1.29l0.54,2.28l-1.45,-0.91l-0.2,1.54l-1.11,2.14l1.01,2.67l-0.69,1.7l0.16,1.66l1.68,0.89l0.78,2.93l-0.76,1.27l-0.98,-1.71l-0.74,0.49l-0.66,3.79l0.12,1.21l1.39,-1.37l1.32,0.78l-0.27,3.25l1.32,-0.89l0.69,0.76l2.39,-2.09l-0.01,-1.6l-1.37,-0.64l2.07,-0.99l0.34,-2.26l1.02,-0.33l1.24,0.54l2.16,4.19l1.65,-0.55l1.38,2.15l0.86,-1.59l-0.54,-1.49l2.84,-5.72l-0.62,-3.48l2.26,-0.02l-0.32,-1.93l0.5,-0.56l0.1,-1.39l1.64,0.22l0.95,-2.06L491.71,990.17z"/>
		<path id="PH-ABR" title="Abra" class="land" d="M335.1,236.75L339.41,239.67L341.08,246.94L345.18,246.61L347.58,248.42L349.24,259.04L349.24,259.04L346.98,260.35L349.03,266.21L348.34,268.36L340.19,273.62L339.93,279.87L334.15,292.05L334.15,292.05L334.18,294.63L332.91,296.34L330.05,296.53L330.05,296.53L325.74,296.56L322.68,298.82L318.18,298.62L316.19,296.1L317.23,295.73L317.3,291.43L312.34,287.28L308.25,287.5L306.86,283.73L309.76,278.22L310.25,274.76L305.88,272.98L302.78,274.4L301.66,272.83L303.14,269.56L304.22,262.4L306.58,257.55L306.58,257.55L309.98,250.31L317.85,247.61L320.56,243.21L324.6,241.79L328.23,238.13L333.79,238.84z"/>
		<path id="PH-AGN" title="Agusan del Norte" class="land" d="M663.57,871.34L666.23,870.14L671.46,869.96L680.53,871.63L684.43,874.89L684.96,879.75L684.96,879.75L685.5,886.28L685.5,886.28L686.39,891.5L684.88,898.13L681.19,904.54L679.32,910.11L679.41,913.29L677.11,917.4L679.65,925.47L666.75,925.28L662.44,928.25L648.27,928.3L648.27,928.3L647.49,914.02L649.23,912.63L646.59,909.04L647.83,906.58L645.61,896.7L645.61,896.7L646.63,897.1L647.92,901.22L650.96,904.03L654.73,904.14L654.77,905.72L655.39,904.19L661.71,905.24L668.41,902.3L667.8,901.41L669.52,898.18L668.37,893.09L669.17,889.28L667.32,885.58L667.35,881.89L664.17,875.39z"/>
		<path id="PH-AGS" title="Agusan del Sur" class="land" d="M685.5,886.28L691.26,892.93L694.42,898.42L695.87,912.62L699.44,916.71L701.08,922.41L704.19,927.11L704.45,927.95L702.74,929.11L703.12,933.76L703.28,934.83L705.08,934.97L706.33,942.57L711.14,942.11L707.63,946.01L710.42,948.73L716.31,949.45L722.09,949.07L723.57,946.95L722.71,951.58L724.4,953.7L724.38,955.44L723,955.47L719.33,959.65L718.29,963.4L720.17,963.66L724.6,967.87L729.41,967.37L725.06,971.61L728.37,972.62L728.76,976.3L728.76,976.3L715.09,976.37L715.09,976.37L708.24,979.35L706.59,981.1L703.13,979.09L701.88,976.5L679.7,976.5L679.7,976.5L658.39,977.42L658.39,977.42L657.93,974.5L658.84,970.72L657.42,969.09L657.7,965.26L656.28,962.2L657.07,959.13L655.68,958.11L654.7,954.5L650.85,951.85L649.64,949.38L648.41,933.98L648.41,933.98L648.27,928.3L648.27,928.3L662.44,928.25L666.75,925.28L679.65,925.47L677.11,917.4L679.41,913.29L679.32,910.11L681.19,904.54L684.88,898.13L686.39,891.5z"/>
		<path id="PH-AKL" title="Aklan" class="land" d="M409.91,688.02l8.84,7.33l6.05,0.86l2.48,1.37l1.78,-0.47l1.21,2l1.41,-0.61l3.71,4.43l2.28,-0.14l1.67,-0.1l-0.6,1.95l2.02,-1.07l2.52,4.29l5.58,4.57l-0.96,0.75l-4.86,-4.89l-1.98,0.78l2.34,2l0.12,2.31l1.59,0.33l0.44,-1.52l0.87,2.11l-1.27,0.1l0.62,1.71l2.11,0.06l1.06,-3l3.06,1.19l2,0.92l-2.04,0.67l2.74,0.45l0,0l-0.01,1.23L450,721.64l-8.43,0.09l-1.79,3.24l-1.45,-0.35l-1.39,4.06l-2.07,2.27l-2,1.58l-5.43,1.45l0,0l-1.29,-2.22l0.61,-3.17l-1.59,-0.91l-0.25,-3.12l-2.21,-2.41l1.44,-4.39l-1.05,-1.84l0.71,-2.78l-0.64,-3.6l2.71,-5.48l-1.21,-2.86l-12.7,-5.14l-3.86,0.5l-3.23,3.04l-3.32,1.29l0,0l2.67,-3.9l0.31,-6.17l4.39,-1.26L409.91,688.02zM407.33,683.46l0.47,2.52l1.35,0.77l-0.55,1.12l-2.57,-3.61L407.33,683.46z"/>
		<path id="PH-ALB" title="Albay" class="land" d="M567.48,592.03l5.4,1.81l0.97,2.68l-8.12,-0.86l-3.41,-1.47L567.48,592.03zM556.41,588.73l0.59,1.51l1.34,-2.02l1.87,2.11l1.13,-1.52l3.96,1.55l-2.4,0.51l0.37,1.05l-3.51,1.58l-2.16,-0.72l-0.06,-0.9l-3.01,0.34l-2.61,-2.24l0.48,-1.07l-0.95,-0.64l4.45,0.48L556.41,588.73zM547.53,583.3l5.5,1.94l-3.27,3.47l1.84,3.09l-1.92,1.08l-0.87,0.09l-0.17,-2.27l-0.73,-0.06l-1.52,-1.37l1.68,-3.13l-1.6,-1.53L547.53,583.3zM541.13,579.33l3,0.97l1.45,1.88l1.78,-0.03l-1.21,1.88l-2.55,-1.5L541.13,579.33zM529.42,571.32l1.44,1.76l3.81,1.02l5.03,11.57l4.9,2.44l1.3,1.6l2.54,1.97l-0.4,1.23l-4.35,-1l-1.95,0.73l-1.48,4.42l0.18,1.75l2.11,2.26l-0.72,1.84l-1.78,-0.01l1.01,1.09l-0.93,0.69l3.66,1.3l2.41,-2.63l0.21,-2.01l1.26,0.1l0.47,-1.94l1.17,-0.57l4.43,1.86l0,0l-2.56,5.72l-3.41,0.03l-6.46,4.05l-2.53,-2.83l-4.61,-0.15l-3.01,1.16l-3.97,-1.53l-6.79,3.12l0,0L518.3,607.7l-3.26,-1.57l-6.17,2.98l-1.71,-3.59l-1.15,-0.05l1.01,-2.11l-0.55,-4.74l1.59,-1.44l-0.43,-1.51l1.67,-0.74l-3.74,-4.8l0,0l8.09,-5.84l1.19,0.74l-0.05,-1.07l2.18,-1.22l1.86,-0.58l2.08,0.74l6.84,-2.76l0.29,-3.25l-3.08,-4.73l0.79,-1.1l3.41,-0.32l0,0L529.42,571.32z"/>
		<path id="PH-ANT" title="Antique" class="land" d="M401.57,700.91l3.32,-1.29l3.23,-3.04l3.86,-0.5l12.7,5.14l1.21,2.86l-2.71,5.48l0.64,3.6l-0.71,2.78l1.05,1.84l-1.44,4.39l2.21,2.41l0.25,3.12l1.59,0.91l-0.61,3.17l1.29,2.22l0,0l0.12,7.2l0.62,-0.41l0.39,3.49l1.69,2.38l0,0l5.91,8.19l-0.52,5.21l0.77,1.74l-2.08,0.49l-1.15,2.59l-1.31,-0.2l-4.39,4.5l-1.85,5.72l-7.39,4.85l-2.89,4.86l-0.89,3.63l-0.76,5.9l0.2,1.43l1.17,0.54l0,0l-5.02,4.47l-3.59,-2.97l0.19,-4.26l3.2,-3.41l1.46,-8.52l-0.93,-3.56l-3.06,-3.52l1.95,-3.37l2.46,-8.85l5.07,-7.49l-1.53,-11.64l1.43,-2.55l-0.06,-2.74l-1.79,-2.8l2.26,-3.13l-0.44,-9.2l1.65,-0.76l0.79,-1.74l-0.54,-2.99l1.73,-7.67l-0.16,-4.34l-2.63,-2.71l-1.39,0.76l-9.19,-2.59l-2.42,0.83L401.57,700.91zM371.87,693.18l5.69,0.42l1.31,1.22l-1.15,1.4l-5.68,-1.19l-1.61,0.59L371.87,693.18zM380.6,686.34l1.67,1.82l0.38,2.21l-2.17,1.07l-0.95,-0.87l-0.17,-3.43L380.6,686.34zM366.04,674.79l2.36,0.35l1.72,5.26l1.26,0.77l-2.79,3.49l-2.4,-5.22l1.86,-1.15l-2.74,-1.31L366.04,674.79z"/>
		<path id="PH-APA" title="Apayao" class="land" d="M337.51,201.1L340.57,199.6L343.2,196.64L343.5,194.88L346.52,193.98L346.83,198.16L358.41,202.37L361.07,205.46L363.47,205.57L374.23,211.69L375.86,217.92L373.8,231.27L370.49,232.73L363.93,248.26L362.68,248.99L367.69,250.74L371.66,255.13L372.49,258.6L372.49,258.6L369.3,260.52L368.6,262.27L358.76,260.03L356.85,263.56L349.24,259.04L349.24,259.04L347.58,248.42L345.18,246.61L341.08,246.94L339.41,239.67L335.1,236.75L335.1,236.75L336.02,235.31L335.73,227.5L338.59,222.39L337.36,220.01L336.14,207.13z"/>
		<path id="PH-AUR" title="Aurora" class="land" d="M431.78,347.14l-1.17,0.72l-1.09,3.68l-2.11,1.76l1.72,3.42l1.19,-3.02l0.29,0.69l-1.36,4.83l-2.4,1.61l-0.87,2.38l1.14,1l3.08,-1.67l-2.28,3.3l-0.08,2.07l-9.82,9.08l0.18,2.19l-2.96,3.07l-3.1,1.57l2.75,-5.64l4.77,-4.79l0.15,-2.71l2.46,-1.61l0.16,-2.69l-2.72,-0.19l-1.63,1.67l-0.54,1.88l1.06,2.01l-4.33,0.77l-5.99,4.06l-4.76,0.31l-6.6,4.47l-1.43,-1.12l-1.34,0.62l-5.57,4.78l-1.02,2.63l-1.73,0.32l-0.03,1.09l-5.19,3.95l-0.12,8.32l1.34,2.68l2.03,-0.82l2.75,1.01l0.16,3.37l-2.12,-0.21l0.11,1.71l0.15,0.97l0.2,1.73l-2.39,1.17l-3.87,6.54l-2.69,1.61l-1.32,7.99l-1.52,0.48l-1.64,3.49l-1.99,-1.56l-1.44,1.47l-0.79,3.93l3.33,7.27l0,0l-1.32,1.1l0.22,1.56l-1.66,0.54l1.33,1.29l-0.12,2.18l-4.1,6.14l0.7,1.85l-0.69,1.63l0,0l-2.19,-15.1l0,0l4.68,-21.25l-6.86,-21.49l0,0l13.5,-10.95l0,0l26.69,-23.37l16.67,-19.55l4.84,-3.18l0,0l10.2,0.49l0,0L431.78,347.14z"/>
		<path id="PH-BAN" title="Bataan" class="land" d="M301.19,466.09l2.68,1.37l0.4,3.23l1.61,2.04l1.94,1.21l1.87,-0.5l0,0l0.3,1.2l-1.81,0.01l0.12,1.96l-0.83,-0.08v4.79l2.56,5.61l-0.26,2.69l1.6,5.59l0.86,0.4l-0.28,4.07l-3.3,4.15l-5.37,-0.86l0.75,2.16l-2.2,-0.61l-1.71,-2.4l-1.56,0.43l-0.15,-0.93l-2.43,-0.44l-1.09,-4.89l1.15,-0.91l-0.66,-0.87l0.89,-2.9l-1.88,-2.9l-1.37,0.52l-1.17,-1.25l-1.42,0.79l-0.01,-1.04l-0.79,0.4l-3.87,-4.3l0.42,-3.19l1.83,-0.06l-2.76,-1.88l2.84,-1.43l-1.75,-0.62l0.7,-0.98l2.06,0.08l0,0l4.63,-3.63l1.29,-3.14l4.35,0.68L301.19,466.09z"/>
		<path id="PH-BTN" title="Batanes" class="land" d="M401.69,55.1l3.23,3.56l-1.99,3.81l-1.6,-2.08L401.69,55.1zM413.19,44.85l2.3,1.91l-5.24,4.02l1.28,1.58l-0.55,1.87l-1.69,1.5l-2.52,0.04l0.83,-4.83l2.88,-2.75l-0.7,-1.81L413.19,44.85zM403.03,18.24l1.43,1.89l-1.09,2.09l0.62,1.86l-1.41,0.6l-0.83,2.87l-3.33,1.95l-1.37,-2.49l2.38,-3.09l1.57,-4.95L403.03,18.24z"/>
		<path id="PH-BTG" title="Batangas" class="land" d="M346.53,567.03l1.03,2.91l-1.35,0.62l-2.8,-3.36l1.37,0.62L346.53,567.03zM328,558.47l2.06,1.77l5.04,0.53l1.39,1.42l-3.02,1.07l-2.32,-0.74l-2.34,-1.2L328,558.47zM310.97,518.22l1.88,0.66l0,0l4.36,1.43l-0.69,1.8l2.47,2.68l4.28,0.24l5.28,3.69l0.48,2.06l2.88,-1.83l1.15,0.57l4.13,-1.14l6.83,-3.84l-0.58,-0.69l0,0l4.71,-0.18l6.29,1.83l1.59,7.77l1.92,2.91l1.33,-0.22l0.04,2l0,0l0.31,1.85l-1.54,-0.05l-0.48,1.19l2.53,3.52l7,0.53l1.09,1.52l5.25,2.19l0,0l-1.76,4.34l1.25,3.06l-0.46,1.82l1.16,-0.32l0.74,1.2l-3.37,2.18l-2.83,-0.99l-7.13,5.29l-1.84,-0.03l-1.95,-2.24l-2.23,-0.01l-1.38,-1.27l-7.59,1.91L343,562.56l1.23,-2.43l0.57,-4.04l-0.72,-1.23l-1.1,-2.06l-2.56,-1.26l-2.68,0.73l-5.16,6.65l-1.43,-2.74l3.93,-3.18l-1.86,-4.44l0.97,-0.62l-0.23,-3.45l-2.25,-1.81l-6.59,-1.98l-3.49,-0.62l-2.54,1.14l-0.69,2.11l1.81,2.56l-0.33,1.23l-4.71,-1.42l-0.12,2.25l1.81,3.06l-1.35,1.54l-2.6,-3.22l0.67,-0.85l-0.95,-0.87l0.08,-8.77l-1.21,-1.55l2.02,-0.19l-1.21,-4.21l0.74,-1.66l-0.28,-4.53l-3.84,-1.58l1.45,-0.52l1.66,-0.1l-2.69,-1.9l2.92,-0.52l-2.2,-1.16L310.97,518.22z"/>
		<path id="PH-BEN" title="Benguet" class="land" d="M324.04,315.65L329.05,320.32L329.82,322.9L331.56,323.74L331.56,323.74L332.99,327.32L333.46,341.19L333.46,341.19L331.9,347.96L332.45,353.38L329.12,361.87L326.25,361.71L322.84,367.73L323.56,370.86L323.56,370.86L315.32,371.89L304.95,368.18L304.95,368.18L301.82,348.6L303.8,345.31L308.31,341.11L307.08,340.31L309.88,336.42L309.88,336.42L312.78,331.04L314.45,318.6L316.49,317.49L321.71,317.25z"/>
		<path id="PH-BIL" title="Biliran" class="land" d="M589.04,705l2.91,0.1l5.1,2.22l3.35,7.84l2.51,1.86l-0.85,4.05l-2.04,1.18l-4.76,0.25l-0.58,-0.75l-1.73,1.22l-2.74,-1.84l-1.46,-3.9l-1.16,0.33l-1.08,-1.71l0.3,-2.62l-2.85,-3.59l0.29,-1.04l-1.1,-0.93l2.09,-1.73L589.04,705zM581.5,697.13l2,0.8l-0.17,2.18l-1.68,1.01l-2.36,-2.13L581.5,697.13z"/>
		<path id="PH-BOH" title="Bohol" class="land" d="M546.27,856.38l2.54,1.34l-0.17,1.57l-5.15,3.83l-3.35,0.4l-0.44,-2.15l-2.07,-0.86L546.27,856.38zM541.8,838.39l1.23,0.31l-1.96,1.84l-0.46,-2.12L541.8,838.39zM545.31,836.84l2.8,0.31l-1.93,1.6l-1.99,-1.58L545.31,836.84zM602.9,819.16l-2.03,3.08l0.98,-0.2l0.11,1.89l-3.21,-0.28l-0.56,2.66l-1.26,0.01l-0.57,-1.93l0.9,-1.53l-1.04,0.34l-0.02,-1.52l1.97,0.34l0.22,-1.42l1.45,1.57l0.38,-2.04l0.85,-0.52L602.9,819.16zM579.23,817.63l3.56,2.5l0.08,1.81l2.01,-2.89l1.67,1.74l0.15,1.78l1.59,0.29l4.67,3.35l1.78,-1.45l3.07,2.63l1.06,3.32l-1.19,0.41l0.66,4.39l-1.26,0.51l2.85,0.78l-1.25,2.89l-3.31,1.67l6.02,3.25l-0.45,3.79l-1.43,1.55l-3.69,0.76l-1.65,-2.93l-0.92,0.09l-2.71,2.87l-2.83,0.85l-0.66,4.19l-10.26,3.99l-5.17,-0.86l-9.31,1.54l-14.86,-3.49l-0.68,-2.27l1.87,-3.65l-0.53,-0.49l-1.75,-1.29l-3.74,0.17l-0.18,-3.94l1.55,-2.93l-1.35,-1.03l0.1,-1.16l1.98,0.61l-0.41,1.01l1.86,-1.47l0.3,-1.65l2.33,-0.89l-0.41,-1.14l1.03,-1.27l0.8,1.23l4.99,-3.28l4.77,-0.8l1.25,-1.55l1.36,-5.82l2.66,0.12l3.9,-6.39l9.13,-0.11L579.23,817.63zM571.5,817.31l0.57,0.46l-1.05,1.27l-1.36,-0.7L571.5,817.31zM576.97,815.18l-1.79,2.12h-2.12l-0.63,-0.67L576.97,815.18zM570.48,814.81l1.07,1.12l-2.5,0.45L570.48,814.81z"/>
		<path id="PH-BUK" title="Bukidnon" class="land" d="M599.12,959.23L600.34,957.09L600.06,954.75L600.97,955.19L601.96,954.1L601.53,951.37L602.71,949.57L602.91,945.42L617.34,945.62L617.16,941.81L621.1,933.07L632.8,934.15L648.41,933.98L648.41,933.98L649.64,949.38L650.85,951.85L654.7,954.5L655.68,958.11L657.07,959.13L656.28,962.2L657.7,965.26L657.42,969.09L658.84,970.72L657.93,974.5L658.39,977.42L658.39,977.42L661.23,982.78L660.98,989.67L662.82,993.48L661.95,1001.44L659.42,1003.92L657.28,1002.68L653.99,1003.47L652.52,1001.92L649,1002.3L648.86,1006.98L648.86,1006.98L646.58,1006.06L646.4,1007.62L644.71,1007.51L642.72,1011.08L641.96,1015.27L635.6,1016.26L634.25,1019.62L628.75,1020L625.51,1017.7L621.99,1018.9L621.85,1017.66L619.09,1016.32L619.05,1014.25L617.42,1013.06L615.31,1014.19L616.15,1011.49L617.99,1009.74L616.66,1005.22L616.66,1005.22L616.35,1003.79L612.81,1001.61L612.76,999.67L611.01,998.11L610.93,995.03L609.54,994.3L606.05,988.31L603.91,987.55L602.91,985.78L603.4,984.32L601.52,983.27L598.55,977.53L596.76,969.64L594.07,966.32L594.07,966.32L598.78,964.81L599.84,962.82L598.79,961.08z"/>
		<path id="PH-BUL" title="Bulacan" class="land" d="M337.1,444.54l4.77,-2.56l8.9,-1.5l7.07,5.1l5.12,0.36l0,0l2.19,15.1l0,0l0.25,7.84l0,0l-6.31,3.8l-5.52,1.1l-0.35,1.7l-4.63,3.29l0,0l-2.91,-0.34l-1.02,-1.27l-1.07,0.32l-0.29,1.57l-2.41,0.6l0,0l-0.26,0.26l0,0l-1.05,2.39l-1.41,0.21l-0.29,-1.4l-1.37,-0.56l-0.88,0.4l1.62,3.21l-0.92,0.47l-1.26,-1.58l-0.79,0.77l0,0l-1.35,-1.55l-0.93,0.25l-3.31,-2.36l0.07,-1.87l-1.1,-0.41l-0.54,-0.49l-1.23,1.76l-3.25,-0.08l-1.27,-0.54l-4.01,-0.54l-0.42,-0.88l2.28,-1.31l-0.32,-1.43l3.23,-5.14l-0.08,-2.35l6.36,-0.58l4.66,-3.75l-0.19,-1.97l1.49,-0.32l0.22,0.98l1.28,-3.1l2.05,0.09l0.24,-3.33l1.2,-1.68l-3.16,-3.96l0.96,-1.57L337.1,444.54z"/>
		<path id="PH-CAG" title="Cagayan" class="land" d="M422.66,190.85l1.69,0.19l-0.24,4.38l-2.84,1.65l0.79,-3.47l-1.09,-0.19l0.1,-1.08L422.66,190.85zM349.38,187.36l5.31,1.5l7.71,6.21l6.45,3.11l1.3,0.57l0.57,1.46l2.67,0.38l11.09,6.31l20.67,7.66l0.63,0.73l7.97,-2.06l5.75,-5.21l0.73,-2.01l2.13,0.09l-0.4,-3.22l1.64,-6.34l1.38,-1.09l5.02,0.37l1.03,5.13l4.67,4.35l1.81,6.4l-2.65,6.85l-2.85,3.72l-3.36,1.28l-3.65,5.27l0.16,1.34l1.21,0.34l-0.8,2.08l1.15,1.22l-0.88,5l0.5,0.57l0.28,3.16l-1.88,1.85l0.44,2.44l-1.41,0.76l0.54,1.41l-1.44,1.79l0.5,4.1l1.76,3.05l-0.9,1.24l0.81,0.99l-0.32,4.37l2.01,4.79l0,0l-24.61,1l-2.21,1.28l-11.98,0.74l0,0l-12.81,-12.44l-2.86,0.48l0.2,-1.78l0,0l-0.83,-3.47l-3.98,-4.39l-5.01,-1.75l1.26,-0.73l6.56,-15.53l3.31,-1.47l2.06,-13.35l-1.63,-6.23l-10.76,-6.12l-2.4,-0.1l-2.66,-3.09l-11.57,-4.21l-0.31,-4.18l-3.02,0.9l-0.3,1.75l-2.63,2.96l-3.06,1.51l0,0l0.85,-10.26l0,0l4.47,-2.9l1.79,1.01l2.32,-0.56l0.42,-0.9L349.38,187.36zM370.64,166.16l4.65,1.72l-0.03,0.73l-2.14,1.48l-7.67,1.04l-3.9,-0.15l-1.24,-1.1l0.5,-1.98l2.06,0.5L370.64,166.16zM406.92,158.68l2.06,0.05l3.38,3.33l-0.24,1.41l-2.13,0.54l-0.47,2.41l-4.34,2.46L404,172.3l-1.62,1.06l-1.28,-0.66l-0.72,-4.16l2.96,-0.93l-1.33,-2.63l1.49,-1.99l-0.3,-1.97L406.92,158.68zM356.19,145.94l2.2,5.07l0.06,7.01l-3.87,-4.15l-0.06,-3.09L356.19,145.94zM370.05,129l5.73,1.98l2.63,-1.62l-0.17,5.07l1.46,3.68l-2.28,1.13l0.08,1.15l-7.9,-2.99l-0.95,-3.57l-3.19,-2.08l2.44,-0.57l0.81,-1.93L370.05,129zM410.73,115.13l1.65,1.54l0.16,3.19l-2.58,2.83l-4.13,-2.96l-0.75,-2.04L410.73,115.13z"/>
		<path id="PH-CAN" title="Camarines Norte" class="land" d="M450.87,509.68l6.35,2.27l-0.97,0.83l1.71,1.06l0.8,0.31l1.24,0.57l-0.79,-1l0.83,-1.8l1.14,1.05l2.04,1.28l-1.83,-4.05l1.4,-0.5l2.01,0.43l0.62,2.04l2.02,-1.23l2.93,1.26l-0.38,1.89l1.53,0.17l1.4,-0.17l2.73,1.12l3.64,3.8l-0.15,0.38l0.15,1.55l1.7,0.23l3.67,4.98l1.86,0.88l0.72,-0.12l1.4,1.08l0.38,2.25l-1.2,0.29l-0.14,2.28l1.94,3.05l1.95,0.84l0.86,6.62l-0.96,1.54l-1.09,-0.16l-0.61,2.74l0,0l-8.52,-6.88l-10.83,-6.29l0,0l-25.29,-9.98l-5.56,6.21l-4.68,-0.21l-0.11,-1.09l0,0l0.68,-1.62l2.17,-0.94l0.58,-0.49l-0.08,-1.29l-0.78,-1.06l-0.32,-3.23l0.98,-0.89l0.2,-1.17l2.43,0.77l-1.7,-2.44l1.49,-0.7l0.38,-2.17l1.78,0.15l0.49,-2.22l1.03,1.06l2.83,-2.94l1.06,0.89l0.99,-0.74l0.93,-0.51L450.87,509.68zM481.51,502.89l2.53,2.24l-1.81,-0.18l-2.2,-1.86L481.51,502.89zM482.04,498.65l0.73,0.08l-1,1.04l0.74,0.68l-1.34,0.29l0.31,1.11l-3.11,0.31L482.04,498.65z"/>
		<path id="PH-CAS" title="Camarines Sur" class="land" d="M545.11,537.18l1.38,0.42l-0.62,5.93l-1.78,-4.03L545.11,537.18zM532.37,536.97l1.22,1.32l0.64,-0.43l0.54,1.7l-3.84,2.67l-1.78,-0.51l0.23,-3.47l1.1,1.55l1.15,-1.85l1.66,1.45L532.37,536.97zM510.35,527.55l1.29,2.09l-0.33,1.66l1.38,0.99l-1.57,0.19l-0.69,1.86l1.51,0.31l1.73,-1.9l-0.36,2l1.11,-0.22l0.52,0.97l-0.84,0.82l1.62,0.19l-0.58,2.96l1.59,1.37l1.01,0.59l0.89,-1.1l-0.79,-0.52l0.21,-2.25l3.89,2.17l-0.89,2.1l1.96,-1.31l0.3,1.17l1.6,0.43l0.15,-1.79l2.1,1.21l0.65,0.17l1.43,1.58l2.99,0.8l1.47,-0.82l1.16,1.17l2.5,-0.42l-0.9,-0.59l1.13,-2.29l-0.7,-1.55l1.66,1.69l0.86,2.01l1.26,2.15l1.59,0.29l-0.43,0.74l1.95,0.27l3.24,2.68l1.46,-1.1l2.33,2.18l3.06,0.05l0.51,3.1l1.54,-0.1l-0.03,3.45l-0.37,-1.3l-1.97,-0.68l-0.33,1.21l-4.3,-1.37l-2.68,2.96l-2.47,0.74l-3.78,-1.71l-5.53,-0.76l-1.21,1.05l-7.05,-2.17l0.71,1.39l1.01,-0.46l-2.42,3.57l-1.15,4.05l0.76,1.27l0.51,0.15l-1.51,2.62l1.2,1.05l1.42,-0.75l1.19,0.64l1.23,2.26l0,0l-3.41,0.32l-0.79,1.1l3.08,4.73l-0.29,3.25l-6.84,2.76l-2.08,-0.74l-1.86,0.58l-2.18,1.22l0.05,1.07l-1.19,-0.74l-8.09,5.84l0,0l-2.7,-2.08l-2.08,-4.16l-0.22,-3.72l-1.34,-2.79l-10.2,-5.5l-0.9,0.52l-2.44,-1.57l-1.93,0.08l-1.95,-2.13l-4.45,-1.97l-4,-4.67l-2.47,-0.81l1.85,0.04l2.73,-2.99l-1.86,-3.31l-4.64,-3.11l-1.64,-1.05l-1.66,-2.19l-1.87,0.4l-1.51,-0.95l-0.02,1.5l-1.9,-0.97l-1.19,-1.38l1,-0.93l-0.79,-2.33l-4.55,-1.7l0.58,-1.49l-2.22,0.31l1.01,-0.9l-1.47,-1.16l0,0l17.73,-4.83l0,0l10.83,6.29l8.52,6.88l0,0l-0.96,4.51l5.58,3.71l8.04,-0.31l3.15,-1.52l3.3,-3.76l0.27,-1.9l-3.05,-5.14l3.51,-3.19l0.62,-2.41l-1.15,1.36l-0.94,1.72l-1.29,0.26l-2.49,-1.58l0.35,-1.05l-2.36,-0.4l-0.35,-2.27l2.66,-1.01l-2.32,-1.09l3.99,-0.39l-2.3,-3.05l1.54,0.03l2.98,2.81l-0.67,-2.46l2.76,-0.08l-1.31,-1.65L510.35,527.55zM507.3,525.82l2.02,1.3l-0.72,1.61l-2.01,-2.45L507.3,525.82z"/>
		<path id="PH-CAM" title="Camiguin" class="land" d="M609.64,884.66L614.63,888.58L616.04,892.74L615.56,893.86L616.65,894.61L614.4,897.6L612.04,895.93L607.22,894.77L604.2,891.05L604.77,886.44z"/>
		<path id="PH-CAP" title="Capiz" class="land" d="M464.86,711.96l5.6,0.31l0.08,0.96l2.44,-1.13l0.21,1.06l1.97,2.09l0.56,0.86l-0.68,1.58l0.8,-0.37l0.79,-0.39l3.84,2.1L479.4,720l-0.46,0.31L477,721.07l0.57,1.53l-2.12,0.98l2.48,2.27l0.61,-0.86l0.77,-1.27l0.26,-2.29l1.25,0.53l0.52,-0.27l3.41,-0.25l7.81,-4.5l0,0l-3.46,6.94l0.03,3.92l-2.47,1.2l-2.75,-0.15l-2.99,1.74l0.84,3.96l-4.23,2.02l0.01,2.94l-1.13,-0.26l-1.64,3.62l-5.07,0.74l0.12,-2.75l-1.46,-0.66l-8.14,1.21l-1.8,-1.76l1.65,-2.09l-1.08,-0.23l-2.98,3.3l-1.2,-0.74l0.13,-1.29l-1.31,0.86l-0.87,2.62l-3.92,1.77l-3.03,-1.08l-4.52,0.15l-4.99,-2.61l-6.05,6.34l0,0l-1.69,-2.38l-0.39,-3.49l-0.62,0.41l-0.12,-7.2l0,0l5.43,-1.45l2,-1.58l2.07,-2.27l1.39,-4.06l1.45,0.35l1.79,-3.24l8.43,-0.09l4.69,-4.01l0.01,-1.23l1.03,1.33l0.02,1.1l2.66,0.04l2.08,-1.39l-1.59,-0.74l1.11,-2.02l0.73,2.35l0.81,-0.08l0.98,-0.25l-0.35,-1.37l3.19,-1.08l-0.65,-1.3l-0.61,-0.77L464.86,711.96z"/>
		<path id="PH-CAT" title="Catanduanes" class="land" d="M582.38,537.53l1.46,1.82l-2.16,0.28l-1.26,-2.86l1.23,0.49l-0.19,0.94l0.29,-1.88L582.38,537.53zM573.14,527.98l4.67,6.12l1,5.43l2.12,0.72l-0.37,2.95l1.04,-0.38l0.41,-2.47l1.79,-0.52l0.23,2.52l2,0.95l0.27,1.6l0.52,-2.07l0.17,1.7l0.38,-0.79l0.85,1.52l-1.09,0.48l1.57,0.97l-1.6,0.83l1.14,0.04l-0.38,1.58l1.17,1.31l-0.54,1.04l-1.82,0.2l1.22,2.04l-1.14,0.17l-0.71,2.52l2.27,3.83l-2.76,1.53l-0.02,-1.35l-0.88,0.21l-1.72,1.43l0.64,3.29l-1.77,2.84l1.36,0.61l-2.03,-0.23l-0.19,-2.47l-1.99,-0.57l0.56,-0.88l-5.85,2.95l-0.47,3.62l-2.65,-1.09l-4.59,-4.51l-4.4,-0.73l1.17,-1.08l-2.95,-3.44l5.22,-3.11l2.95,-6.75l-0.56,-6.6l1.46,-3.15l-1.47,-3.74l-0.16,-1.9l1.01,-0.91l-0.97,-3.41l3.24,0.7L573.14,527.98z"/>
		<path id="PH-CAV" title="Cavite" class="land" d="M333.95,498.11l-0.62,1.14l-0.34,0.52l-0.71,1.97l1.19,-0.56l0.63,0.74l0.3,-0.96l3.74,-0.99l0,0l-0.07,2.1l3.19,4.9l0.02,2.32l0,0l-0.29,2.87l4.5,-1.28l-2.56,6.02l1.27,0.41l-1.41,2.72l0.96,0.27l-0.3,3.57l0,0l0.58,0.69l-6.83,3.84l-4.13,1.14l-1.15,-0.57l-2.88,1.83l-0.48,-2.06l-5.28,-3.69l-4.28,-0.24l-2.47,-2.68l0.69,-1.8l-4.36,-1.43l0,0l0.09,-3.36l2.36,-1.47l2.76,0.38l1.49,-1.09l1.23,-1.39l2.76,-1.35l7.32,-7.32l1.69,-4.53L333.95,498.11z"/>
		<path id="PH-CEB" title="Cebu" class="land" d="M563.38,809.24l-1.28,3.65l-0.93,-0.3l-0.61,-0.89L563.38,809.24zM557.24,805.83l1.4,1.57l2.8,-1.49l-4.54,5.51l-1.13,-0.07l-1.76,1.2l-0.74,-1.01l1.75,-1.32l-0.3,-0.63l-0.66,-0.06l-1,0.58l0.47,-2.18L557.24,805.83zM589.95,777.71l5.11,2.78l0.37,1.78l-5.21,2.08l-2.98,-0.08l-1.24,-1.16l-0.24,1.51l-5.03,2.74l-2.65,-0.31l2.09,-3.97l0.85,-4.75l4.25,1.4l0.72,3.02l2.05,-4.17L589.95,777.71zM599.09,770.64l-1.31,4.06l-3.27,2.2l-0.24,-2.18l2.46,-2.96L599.09,770.64zM562.62,736.49l-0.43,1.37l1.01,0.36l-2.37,3.58l-0.15,4.28l-3.83,5.52l1.03,0.18l0.08,1.41l3.21,-0.21l0.17,5.75l-1.04,3.49l1.78,3.47l-1.65,3.14l-0.24,4.19l-1.75,1.91l2.1,12.8l-1.07,-0.35l0.5,2.45l0.61,-0.66l0.21,0.77l-0.33,3.98l-2.49,6.16l1.67,2.17l-3.41,2.81l-0.61,1.26l-5.93,2.86l-1.55,3.01l-7.08,1.66L540.4,816l-5.13,5.05l-0.34,3.05l-2.89,0.12l-1.89,6.47l0.74,3.4l-1.29,2.83l0.1,2.63l-2.53,1.23l-1.04,3.03l-1.71,0.96l0.11,3.32l-2.03,1.94l0.04,2.56l-3.14,9.14l-8.32,10.81l-3.66,0.52l-0.29,-6.13l3.35,-20.87l1.95,-2.33l-0.02,-3.78l1.47,0.13l0.75,-2.69l-0.6,-2.27l-1.96,-0.83l0.23,-3.08l0.97,-0.67l0.5,2.21l0.96,-0.64l0.87,-5.49l2.36,-0.94l0.16,-1.3l4.93,-5.22l0.74,-3.05l3.98,-5.12l-0.07,-4.79l6.26,-6.21l0.59,-3.04l2.78,-3.07l-0.73,-3.4l2.88,-4.59l-0.16,-1.95l4.3,-6.48l2.26,-1.01l2.55,-7.04l1.05,-3.34l3.79,-8.59l-0.05,-1.26l-0.82,0.61l-1.5,-2.33l2.34,-2.33l0.1,-3.1l2.3,1.74l-1.63,-7.53l3.39,-3.14l0.63,-3.13L562.62,736.49zM538.5,734.9l1.47,1.21l1.29,5.5l2.92,3.19l-0.06,1.08l-6.29,1.02l0.8,-1.98l-1.1,-0.04l-2.11,-4.63L538.5,734.9z"/>
		<path id="PH-COM" title="Compostela Valley" class="land" d="M715.09,976.37l-1.13,2.11l7.22,23.76l3.14,14.49l0.41,12.71L699.81,1042.2l-0.72,1.51l0,0l-4.24,-3.73l0.61,-2.89l-3.97,-6.39l1.29,-6.89l-0.37,-1l-1.34,0.01l0,0l0.8,-3.24l-1.19,-1.87l0.55,-2.12l3.75,-1.85l-2.42,-3l4.86,-1.05l1.36,-7.58l-2.54,-3.21l2.98,-5l-1.77,-4.85l-3.85,4.33l-4.79,8.13l-1.67,-0.14l0.33,-2.51l-1.01,-2.57l-2.16,-1.03l-0.79,-2.41l-1.78,-0.64l-2.04,-15.69l0,0h22.18l1.25,2.6l3.46,2l1.65,-1.74L715.09,976.37z"/>
		<path id="PH-DAV" title="Davao del Norte" class="land" d="M680.39,1051.89l1.46,0.19l1.08,1.61l-0.45,2.87l-1.92,-0.69l-1.35,-2.88L680.39,1051.89zM682.03,1034.75l1.86,2.08l2.09,0.43l2.58,3.32l-1.56,6.21l1.25,6.78l-2.02,3.35l-3.07,-5.25l-0.81,-7.58l-1.19,-0.54l-1.18,0.95l-1.11,-2.21L682.03,1034.75zM679.7,976.5l2.04,15.69l1.78,0.64l0.79,2.41l2.16,1.03l1.01,2.57l-0.33,2.51l1.67,0.14l4.79,-8.13l3.85,-4.33l1.77,4.85l-2.98,5l2.54,3.21l-1.36,7.58l-4.86,1.05l2.42,3l-3.75,1.85l-0.55,2.12l1.19,1.87l-0.8,3.24l0,0l-1.49,-0.23l-7.03,4.72l0,0l-3.25,-0.03l-4.04,4.09l-7.62,0.36l-0.28,-23.21l-18.27,-0.46l0,0l-0.23,-1.06l0,0l0.14,-4.68l3.52,-0.37l1.47,1.55l3.29,-0.79l2.14,1.24l2.53,-2.49l0.88,-7.96l-1.84,-3.81l0.25,-6.89l-2.85,-5.36l0,0L679.7,976.5z"/>
		<path id="PH-DAS" title="Davao del Sur" class="land" d="M649.09,1008.04l18.27,0.46l0.28,23.21l7.62,-0.36l4.04,-4.09l3.25,0.03l0,0l-2.55,2.18l-0.02,1.3l-2.24,1.06l1.15,8.13l-1.08,2.2l-3.22,3.55l-1.82,0.45l-0.26,1.19l-1.33,-1.61l-2.48,1.41l-2.7,3.41l0.2,4.35l-2.35,1.7l-0.34,1.88l-2.36,1.64l-2,3.28l0.04,0.69l-0.11,2.83l-1.33,2.08l0.88,6.6l-1.86,2.46l2.04,0.1l4.05,1.57l0.32,-1.25l-1.95,-1.93l0.65,-0.87l2.47,2.86l1.5,-0.3l-0.15,1.98l2.71,1.19l-0.06,2.58l2.36,-1.13l2.24,1.44l-1.32,0.66l0.58,0.71l1.59,-0.34l-0.95,5.3l1.88,0.63l0.81,0.59l3.9,10.96l2.28,3.31l0.71,3.19l-0.68,3.52l0.85,1.39l-0.95,5.65l-2.91,7.54l-10.8,12.36l-1.11,3.43l-6.13,9.49l-5.89,1.28l-0.75,-1.06l0,0l-1,-1.44l6.27,-4.69l5.39,-11.39l0.1,-2.02l1.27,-0.87l-0.55,-4.16l3.92,-10.84l0.25,-3.62l-2.03,-2.24l-0.43,-6.97l-3.36,-5.14l2.44,-2.64l-0.46,-3.99l-4.45,-6.6l-5.22,-1.54l-2.3,3.53l-5.07,2.3l-5.67,-3l0,0l1.96,-2.96l-0.14,-1.88l0,0l-1.12,-6.23l-3.48,-4.27l-0.09,-3.09l1.45,-0.66l-2.27,-1.73l0,0l-1.47,-4.53l1.75,-1.08l1.4,0.88l1.17,-1.3l0.35,-3.06l6.54,-5.46l1.58,-4.67l2.66,-0.28l-1.75,-2.57l-0.37,-4.55l-3.12,-2.58l-1.09,-2.43l1.38,-4.37l-1.41,-6.72l1.56,-2.46l-0.38,-6.2l1.65,-2.92L649.09,1008.04z"/>
		<path id="PH-DAO" title="Davao Oriental" class="land" d="M728.76,976.3l0.7,6.63l0,0l-0.05,1.92l1.76,1.16l-0.78,1.11l0.71,1.64l3.02,0.09l-0.11,1.27l2.05,0.42l0.46,1.21l3.1,3.7l2.32,-0.24l2.7,1.65l-1.37,1.56l0.71,1.74l-0.63,2.67l1.81,2.22l-1.13,-0.02l-0.3,2.05l1.79,0.72l1.2,6.17l-0.3,2.49l-2.7,0.12l-0.5,0.89l0.15,2.38l1.86,0.49l-1.61,1.58l1,3.44l-1.38,1.05l1.13,1.77l2.81,-0.07l-2.89,4l-0.28,2.25l-1.98,-0.33l0.25,1.61l-1.02,1.14l0.6,1.63l-1.15,0.29l0.05,1.37l-2.06,0.49l-1.58,2.24l0.53,1.62l-1.61,0.59l-0.44,2.72l0.94,1.77l-3.23,-0.68l-1.13,0.98l-2.36,-0.13l-1.89,-1.03l-1.71,2.08l-0.49,2.83l-2.02,0.77l0.63,1.73l3.98,3.39l0.33,4.05l-2.72,-0.05l-1.77,-1.39l-0.2,-1.69l1.12,-1.27l-1.7,-1.56l-0.98,-1.99l-1.54,-1.74l-3.29,-1.15l-1.42,3.74l1.27,1.12l-0.94,0.61l5.74,8.86l-3,8.66l0.9,6.07l-1.4,2.72l0.05,2.61l1.03,3.52l-1.07,0.34l-1.09,2.55l0.72,4.96l-1.12,3.77l-0.41,-4.88l-1.47,-2.47l-2.23,-1.2l1.04,-2.3l-2.86,-3.38l-1.97,-4.78l0.66,-4.86l-1.75,-4.2l1.75,-2l-0.7,-1.09l1.01,-2.82l-1.59,-1.77l0.35,-5.96l-4.12,-2.25l-3.37,-3.89l0.97,-6.09l-2.88,-2.53l0.58,-1.08l-1.15,-0.88l0,0l0.72,-1.51l24.92,-12.76l-0.41,-12.71l-3.14,-14.49l-7.22,-23.76l1.13,-2.11l0,0L728.76,976.3z"/>
		<path id="PH-DIN" title="Dinagat Islands" class="land" d="M664.92,796.42l2.22,1.26l-0.3,1.69l-1.52,-0.32l-1,-2.18L664.92,796.42zM677.31,795.76l2.82,5.85l-2.5,6.34l0.43,4.03l-2.26,-1.3l0.26,1.65l1.62,0.35l1.08,3.18l-0.96,0.89l0.38,1.52l1.58,-0.19l-1.28,1.38l0.16,2.04l2.7,4.54l-1.88,4.82l0.51,2.26l-1.64,1.03l3.69,4.13l-0.46,1.91l-1.72,-0.11l-0.76,1.12l-1.77,-2.23l-0.1,-4.06l-3.62,-1.23l1.84,-0.44l-1.84,-1.15l-1.01,0.02l-1.31,-1.05l1.47,-0.63l-0.46,-2.16l0.14,-1.1l1.11,-0.59l-0.1,-1.89l-1.29,-0.75l0.34,1.69l-2.06,-1.38l-2.76,1.55l-2.65,-5.3l1.03,-0.66l0.8,-2.97l1.94,0.04l0.03,-0.59l1.24,-0.86l-2.19,-2.89l0.61,-2.48l-0.2,-0.65l-0.3,-2.65l3.23,0.08l-0.64,-4.52l2.26,1.7l1.12,-0.48l1.16,-5.59L677.31,795.76z"/>
		<path id="PH-EAS" title="Eastern Samar" class="land" d="M700.15,773.44l0.72,2.18l-2.28,-1.94L700.15,773.44zM681.13,769.92l2.38,1.92l-1.23,2.51l0.52,1.26l6.81,1.16l0.63,1l-0.81,1.59l-4.15,0.49l-2.02,-2.14l-1.88,-0.43l0.22,-0.88l-2.3,-0.67l-0.85,-2.96L681.13,769.92zM677.54,756.56l0.49,1.9l-0.91,0.48l-1.63,-1.01l0.11,-1.2L677.54,756.56zM686.37,754.58l5.15,6.82l-0.98,0.11l-4.39,-5.46L686.37,754.58zM641.78,662.23l1.06,-4.04l2.05,-2.21l7.1,8.02l2.12,-1.27l0,0l-0.3,0.59l1.44,0.19l1.34,-2.65l1.84,0.25l-1.79,1.7l0.71,0.63l1.21,0.37l1.05,-1.15l0.5,0.88l0.5,-1.19l1.9,0.86l1.88,2.19l-0.64,1.19l1.63,-0.25l0.14,1.39l1.09,0.72l-0.04,-1.09l1.53,1.91l-0.34,1.52l-0.89,-0.88l-0.11,0.96l-3.04,0.37l1.37,0.96l-0.52,1.05l-1.63,0.1l0.04,2.42l2.64,-0.17l0.63,0.82l-1.51,0.33l2.12,2.15l1.31,0.04l-4.38,4.98l-2.14,2.72l-0.44,4.54l1.69,1.79l-0.5,3.38l1.93,0.51l0.79,1.86l-0.87,1.47l-1.59,-0.67l-1.96,1.7l1.39,-0.04l-0.42,0.74l1.01,0.68l1.57,-1.41l1.51,4.71l-0.85,0.72l1.54,0.87l-0.8,0.83l-2.11,-0.5l-0.42,0.98l1.21,0.88l-1.81,2.21l0.72,1.73l1.84,-0.14l-0.31,3.41l3.35,3.79l0.22,1.51l-1.78,1.92l2.07,-0.48l1.59,1.16l0.58,2.35l0.79,0.88l1.47,-0.39l1.41,2.45l2.18,0.67l-1.37,4.06l-4.88,3.13l-0.97,4.43l4.62,1.47l-0.65,-0.69l1.94,-0.02l0.3,-0.84l-2.3,-1.88l0.89,-0.55l4.78,2.57l7.1,12.15l-0.75,1.35l-2.5,-1.08l-1.17,-2.76l-2.2,-1.25l2.16,-2.26l-2.63,-0.17l-0.38,-1.84L673,748.67l-0.54,-0.31l-1.21,-0.69l0.86,-1.56l-2.92,-0.13L667.86,751l-1.55,-1.41l-1.03,-0.47l-1.03,-1.39l-0.93,0.59l0.38,1.41l-1.41,-0.9l-0.18,1.43l-1.78,0.69l-0.22,-1.35l-2.29,0.07l-0.98,-1.48l-3.13,0.2l-1.43,-1.94l-2.34,0.51l-0.88,1.37l0,0l-0.28,-14.67l4.16,-5.97l-1.55,-1.96l-3.96,-1.37l-1.77,-11.39l1.05,-2.58l4.43,-3.23l-0.88,-13l-4.5,-10.4l-6.73,0.01l-0.19,-12.65l2.41,-1.57L641.78,662.23z"/>
		<path id="PH-GUI" title="Guimaras" class="land" d="M464.17,795.56l1.61,1.57l-3.25,0.7l0.25,-1.78L464.17,795.56zM460.85,775.09l3.89,2.76l0.6,1.72l0.37,5.6l-3.12,6.23l-0.17,2.25l-1.31,2.13l-1.35,0.02l0.14,1.49l-1.43,1.2l-3.35,0.43l-2.8,1.58l-2.04,0.07l-0.44,-3.26l-2.5,-2.19l0.62,-1.91l2.88,-0.71v-1.76l-0.94,-3.01l3.82,-4.46l-0.11,-1.65l1.43,0.39l2.09,-1.23l0.38,-3.12L460.85,775.09z"/>
		<path id="PH-IFU" title="Ifugao" class="land" d="M331.56,323.74L334.24,323.7L336.56,321.45L339.06,315.73L338.15,312.85L338.79,310.89L342.19,311.18L344.62,309.86L348.25,309.64L356.88,310.23L365.86,305.67L372.23,304.7L380.58,305.37L380.58,305.37L382.96,318.17L379.89,321.74L373.59,323.67L371.93,322.88L369.78,325.53L366.96,325.86L366.09,327.59L364.78,327.46L365.48,328.5L364.65,329.79L364.65,329.79L363.29,333.5L361.44,334.15L361.85,336.2L360.54,335.66L356.84,337.25L356.84,337.25L356.46,337.37L356.46,337.37L333.46,341.19L333.46,341.19L332.99,327.32z"/>
		<path id="PH-ILN" title="Ilocos Norte" class="land" d="M329.25,185.6l4.68,6.68l3.04,0.36l1.4,-1.8l0,0l-0.85,10.26l0,0l-1.37,6.03l1.22,12.88l1.24,2.38l-2.87,5.12l0.29,7.8l-0.92,1.45l0,0l-1.31,2.08l-5.55,-0.71l-3.63,3.66l-4.04,1.43l-2.71,4.4l-7.86,2.7l-3.41,7.24l0,0l-1.48,-1.59l-0.26,-2.19l1.5,-9.85L300,242.5l0,0l-1.03,-1.06l2.64,-2.02l0.6,-2.51l1.75,-1.6l-1.79,-2.47l0.26,-3.92l-0.56,-0.4l3.04,-3.56l0.46,-3.84l0.77,-0.51l-0.48,-0.74l3.93,-5.91l1.77,-5.09l-0.38,-5.03l-2.38,-6.15l4.52,-4.08l6.53,1.33l4.17,-1.1l1.15,-2.13l-0.44,-3.85L329.25,185.6z"/>
		<path id="PH-ILS" title="Ilocos Sur" class="land" d="M299.97,242.47l6.36,1.43l-1.5,9.85l0.26,2.19l1.48,1.59l0,0l-2.35,4.85l-1.08,7.17l-1.48,3.27l1.11,1.57l3.1,-1.42l4.38,1.78l-0.5,3.46l-2.9,5.51l1.39,3.77l4.09,-0.22l4.96,4.15l-0.07,4.3l-1.04,0.37l1.98,2.52l4.51,0.2l3.06,-2.27l4.31,-0.02l0,0l-5.64,5.87l0.45,10.43l-0.82,2.81l0,0l-2.33,1.59l-5.22,0.24l-2.04,1.11l-1.67,12.44l-2.9,5.38l0,0l-3.51,-4.24l1.27,-4.06l-1.07,-0.77l0.63,-0.99l-1.5,-0.22l0.94,-1.38l-2.08,-2.22l0.74,-5.67l-2.22,1.35l-0.93,-1.09l-1.48,0.62l-3.14,-1.03l0,0l2.66,-4.49l-0.68,-7.49l-0.82,-7.31l-1.66,-2.63l2.3,-5.71l-0.91,-0.13l0.3,-3.55l1.29,-0.23l0.85,-3.8l0.63,-1.45l-1.17,-2.84l-1.23,-0.4l0.32,-2.06l-0.95,-1.43l0.06,-0.84l-1.45,-0.5l-1.25,-0.38l0.18,-1.03l-2.74,-1.2l-0.54,-2.06l1.99,-7.15l0.36,-0.97l4.33,-3.77l-0.46,-1.62l-1.67,-0.24l1.43,-1.28l-1.73,-1.55l1.99,-0.78l0.4,-1.42l1.63,-0.08l-1.32,-3.06L299.97,242.47z"/>
		<path id="PH-ILI" title="Iloilo" class="land" d="M496.12,745.63l0.48,0.91l-2.7,3.12l-0.58,-2.72L496.12,745.63zM497.71,740.78l1.63,0.08l-1.33,1.98l-1.07,-1.33L497.71,740.78zM497.5,734.09l2.11,1.44l-3.21,3.31l0.21,-4.12L497.5,734.09zM504.33,723.1l1.29,1.07l-1.86,1.72l-0.62,-2.35l0.38,-0.84L504.33,723.1zM502.58,722.82l-2.12,0.31l-1.12,-1.24l0.56,-1.9l1.4,-0.5l0.64,0.99L502.58,722.82zM499.77,717.26l-0.39,2.05l-2.62,1.53l0.68,-2.4L499.77,717.26zM496.33,712.96l1.01,2.72l-1.82,3.99l-1.21,-1.47l-0.51,0.86l-1.29,-0.33l1.25,1.78l1.96,0.31l-0.94,1.11l1.8,-0.81l0.92,1.34l-2.7,3.97l1.73,1.66l-0.73,2.02l-1.13,0.33l0.5,1.31l-2.46,0.98l0.66,2.41l-1.15,5.08l2.28,2.23l-0.27,2.45l-1.22,0.67l-3.05,-2.25l0.38,1.31l-2.66,0.02l-1.51,5.47l-2.42,2.51l-0.18,-0.77l-1.61,0.31l0.89,1.18l-0.83,1.18l-1.19,0.08l0.52,-1.82l-1.39,-0.69l-1.31,3.35l-2.48,-0.82l-1.49,1.04l-0.01,1.96l-1.51,-0.83l-3.55,1.14l-1.57,2.94l2.2,3.81l-0.83,0.27l0.36,2.63l-1.75,0.73l0.26,1.69L465.7,773l-4.09,-1.01l-0.54,1.31l-3.91,0.33l-1.53,2.04l0.85,1.35l-1.38,2.93l-9.02,-0.05l-13.31,2.23l-2.09,1.65l-2.73,-0.25l-4.69,3.97l-3.46,0.73l-1.27,3.59l-3.45,4.28l0,0l-1.17,-0.54l-0.2,-1.43l0.76,-5.9l0.89,-3.63l2.89,-4.86l7.39,-4.85l1.85,-5.72l4.39,-4.5l1.31,0.2l1.15,-2.59l2.08,-0.49l-0.77,-1.74l0.52,-5.21l-5.91,-8.19l0,0l6.05,-6.34l4.99,2.61l4.52,-0.15l3.03,1.08l3.92,-1.77l0.87,-2.62l1.31,-0.86l-0.13,1.29l1.2,0.74l2.98,-3.3l1.08,0.23l-1.65,2.09l1.8,1.76l8.14,-1.21l1.46,0.66l-0.12,2.75l5.07,-0.74l1.64,-3.62l1.13,0.26l-0.01,-2.94l4.23,-2.02l-0.84,-3.96l2.99,-1.74l2.75,0.15l2.47,-1.2l-0.03,-3.92l3.46,-6.94l0,0L496.33,712.96zM511.43,713.25l-1.6,1.58l-0.99,-0.84l0.58,-1.04L511.43,713.25zM511.58,710.12l-0.81,2.31l-0.5,-1.94L511.58,710.12z"/>
		<path id="PH-ISA" title="Isabela" class="land" d="M426.75,269.35l-0.04,3.15l4.35,7.11l-0.98,0.64l1.27,1.2l-0.56,1.72l1.41,0.8l1.39,-0.59l0.12,1.66l1.73,0.59l0.87,-0.76l2.26,0.55l1.21,-1.39l1.63,1.01l1.08,0.53l2.63,5.24l-0.24,1.72l-0.73,2.11l-1.3,2.24l0.43,3.38l1.36,1.2l0.81,0.58l2.56,-0.06l1.93,-1.97l1.38,3.33l-1.33,4.57l-3.19,4.6l0.75,1.92l-1.47,3.62l0.73,1.15l-2.72,4.59l0.54,2.09l-1.27,0.84l-8.73,17.78l-1.94,2.14l0,0l-10.2,-0.49l0,0l-3.58,-0.26L395.2,356.7l-14.35,-18.06l-10.81,-0.88l0,0l-0.62,-3.46l-4.75,-4.51l0,0l0.83,-1.29l-0.7,-1.03l1.31,0.13l0.87,-1.73l2.83,-0.33l2.14,-2.65l1.66,0.79l6.31,-1.93l3.07,-3.57l-2.39,-12.8l0,0l-0.33,-15.71l0,0l3.98,-8.87l5.11,-3.64l-1.37,-4.8l0,0l11.98,-0.74l2.21,-1.28l24.61,-1l0,0L426.75,269.35z"/>
		<path id="PH-KAL" title="Kalinga" class="land" d="M372.49,258.6L372.29,260.39L375.15,259.91L387.96,272.34L387.96,272.34L389.33,277.14L384.22,280.79L380.24,289.66L380.24,289.66L370.14,287.75L365.1,289.5L358.46,296.68L352.11,298.04L346.62,296.15L344.44,293.09L334.15,292.05L334.15,292.05L339.93,279.87L340.19,273.62L348.34,268.36L349.03,266.21L346.98,260.35L349.24,259.04L349.24,259.04L356.85,263.56L358.76,260.03L368.6,262.27L369.3,260.52z"/>
		<path id="PH-LUN" title="La Union" class="land" d="M297.53,316.73L300.67,317.75L302.15,317.13L303.08,318.23L305.3,316.88L304.56,322.54L306.64,324.76L305.7,326.14L307.2,326.36L306.57,327.34L307.64,328.12L306.37,332.18L309.88,336.42L309.88,336.42L307.08,340.31L308.31,341.11L303.8,345.31L301.82,348.6L304.95,368.18L304.95,368.18L304,370.1L297.9,370.33L297.9,370.33L296.75,367.08L294.2,365.5L292.98,364.8L292.77,359.91L291.15,356.67L291.26,356.26L291.66,350.73L289.77,348.28L290.21,346.88L290.98,342.88L287.89,339.42L290.14,339.9L290.11,337.51L292.27,334.52L292.53,330.82L291.26,325.71L292.05,323.13L296.66,319.83z"/>
		<path id="PH-LAG" title="Laguna" class="land" d="M374.44,492.48l6.46,12.43l1.08,-0.7l1.64,1.59l1.93,0.25l0.56,9.86l-4.77,6.73l-1.19,-0.09l-1.88,1.85l-2.17,5.38l-4.45,0.73l-7.37,5.82l-4.97,1.63l0,0l-0.04,-2l-1.33,0.22l-1.92,-2.91l-1.59,-7.77l-6.29,-1.83l-4.71,0.18l0,0l0.3,-3.57l-0.96,-0.27l1.41,-2.72l-1.27,-0.41l2.56,-6.02l-4.5,1.28l0.29,-2.87l0,0l3.12,-2.1l0.44,-8.62l3.16,-2.7l0,0l2.21,-0.21l2.05,1.5l3.77,7.58l0.25,-4.7l1.09,0.02l1.33,-3.24l1.94,0.31l0.21,2.02l1.6,0.06l1.67,1.69l0.94,3.75l-2.51,6.24l0.25,2.82l5.75,-4.06l-1.53,-1.68l0.55,-2.33l-1.09,-4.35l1.13,-4.56l3.1,-2.95L374.44,492.48zM359.08,509.52l-1.19,-0.18l-1.24,-5.55l-0.52,5.29l1.92,4.52l-0.15,-2.8l1.27,-0.3L359.08,509.52zM359.22,497.4L359.22,497.4l-0.16,0.23L359.22,497.4zM359.49,497.48L359.49,497.48l-0.11,0.11L359.49,497.48zM359.06,496.96L359.06,496.96l-0.07,0.05l0,0L359.06,496.96L359.06,496.96z"/>
		<path id="PH-LAN" title="Lanao del Norte" class="land" d="M575.92,952.56L581.48,951.56L592.35,952.22L596.83,955.06L599.12,959.23L599.12,959.23L598.79,961.08L599.84,962.82L598.78,964.81L594.07,966.32L594.07,966.32L591.94,964.69L583.23,962.11L582.18,960.91L579.76,961.23L578.12,966.77L578.37,970.38L573.63,975.22L567.36,976.22L568.14,978.91L566.19,983.3L559.79,983.68L561.39,989.1L558.75,994.33L559.13,996.56L558.16,998.63L546.28,994.98L546.42,996.25L544.69,998.2L544.69,998.2L541.71,997.95L540.96,995.86L538.95,995.89L539.12,993.51L537.82,991.6L535.72,991.09L535.74,990L530.64,988.85L530.64,988.85L534.17,979.75L534.17,979.75L536,977.78L539.83,976.42L542.61,972.18L546.05,970.12L547.07,968.2L548.56,968.81L550.77,968.02L553.16,965.2L559.37,961.96L569.33,962.89L574.15,960.99L577.25,956.07z"/>
		<path id="PH-LAS" title="Lanao del Sur" class="land" d="M594.07,966.32l2.69,3.32l1.79,7.89l2.97,5.74l1.88,1.04l-0.49,1.46l1.01,1.77l2.13,0.76l3.49,6l1.39,0.72l0.08,3.09l1.76,1.56l0.05,1.94l3.54,2.18l0.3,1.43l0,0l-7.73,-2.64l-3.75,1.95l-2.94,-0.68l-2.88,-3.69l-2.21,-0.64l-3.04,0.24l-4.04,1.94l0,0l0,0l0,0l-5.45,6.13l-8.39,4.26l-3.99,4.93l0.27,1.48l0,0l-1.36,0.46l-3.75,-2.3l1.29,-1.05l-2.1,-3.78l-7.52,-9.76l-2.06,0.32l-0.86,-1.6l-4.21,-2.05l-7.25,-0.54l0,0l1.73,-1.94l-0.14,-1.27l11.88,3.65l0.97,-2.07l-0.39,-2.22l2.64,-5.23l-1.6,-5.42l6.4,-0.38l1.94,-4.4l-0.78,-2.68l6.28,-1l4.74,-4.84l-0.25,-3.61l1.64,-5.54l2.42,-0.32l1.05,1.2l8.71,2.59L594.07,966.32z"/>
		<path id="PH-LEY" title="Leyte" class="land" d="M580.96,715.54l8.88,8.91l2.35,3.87l0.77,-1.29l-1.28,-2.85l1.15,-0.68l4.23,2.23l1.07,6.28l2.4,2.54l1.67,-0.53l3.02,1.35l4.42,-1l6.62,-4.99l1,-4.2l3.44,0.47l1.17,1.2l1.76,-0.96l0.81,1.04l2.01,-1.43l1.02,2.49l1.7,-0.37l-0.8,1.46l0.76,0.73l-1.2,1.25l0.02,5.31l1.07,1.98l2.24,0.14l-0.2,2.33l1.03,0.84l-0.89,3.92l2.34,6.59l-0.36,9.71l-2.32,6.63l1.71,7.79l1.13,1.45l5.37,1.56l-0.77,1.64l3.21,3.75l0,0l-7,7.22l-8.21,-0.03l-3.39,8.79l0.49,10.22l-3.81,0.82l-5.23,5.01l-1.15,-0.5l0,0l2.25,-9.21l-1.81,-2.91l-2.39,-1.38l-0.9,-7.92l3.34,-3.85l0.33,-6.19l2.39,-2.83l-1.52,-8.52l-5.49,-7.65l-1.68,-4.26l-2.19,-0.97L601.3,756l-1.77,0.3l-2.36,2.35l0.92,3.51l-2.5,4.56l-2.85,0.14l-2.03,-2.33l-1.2,0.62l0.38,-2.17l-1.33,-2.17l-0.32,2.57l-2.89,-0.75l2.46,-4.35l-0.33,-3.72l-2.58,-2.3l2.33,-3.4l-1.27,-6.81l0.13,-1.72l0.15,-1.22l-0.84,-2.28l-0.65,-1.08l0.32,-1.19l-2.14,-0.72l-0.04,-3.51l1.42,-0.25l-2.15,-0.89l-0.42,-1.31l1.69,-0.77l-2.32,-0.62l-1.99,-5.8l-0.05,-3.31L580.96,715.54z"/>
		<path id="PH_MG" title="Maguindanao" class="land" d="M559.65,1027.54l-0.18,-2.54l4.19,-3.27l-2.5,3.19l0.26,1.39L559.65,1027.54zM623.25,1064.84l-3.98,1.09l-2.06,-0.92l-0.48,-15.94l-1.3,0.01l0.02,-0.79l0.25,-3.49l1.95,0.09l0.15,-1.86l-2.08,-0.09l0.05,-1.79l-6.19,-5.88l0.3,0.81l-1.56,0.47l0.09,2.02l2.6,1.29l1.14,1.82l-1.35,-0.07l0.45,1.86l-1.39,-1.4l-0.84,2.16l-0.24,-1.08l-1.02,0.19l-0.45,1.4l1.55,0.83l1.05,2.43l-0.65,0.79l0.98,0.56l-2.42,1.9l0.28,1.35l-0.87,0.46l-3.73,-2.02l-2.86,0.28l-3.86,-4.99l-2.3,0.71l-5.29,-4.23l5.83,-10.59l-2.85,-0.75l-3.98,1.24l-3.01,4.36l-3.22,-0.46l5.71,-9.51l1.01,0.48l4.73,-10.75l-3.84,-5.54l0.5,-9.59l-5.45,6.13l-8.39,4.26l-3.99,4.93l0.27,1.48l0.59,0.96l2.62,-0.38l0.38,2.57l0.89,0.26l-0.3,1.9l-3.06,0.24l0.38,3.25l-0.82,3.07l0.79,0.93l-2.08,-0.43l-0.16,2.16l-1.17,-0.26l-0.79,1.57l3.85,0.55l1.83,1.61l-0.7,-0.01l0,0h-0.01l-1.24,-1.51l-3.08,-0.08l-3.91,3.21l-3.59,0.44l-4.72,7.49l-3.25,9.54l1.35,3.17l-1.27,0.89l0.32,1.94l-1.37,0.73l1.33,0.4l-0.12,1.81l1.12,-0.4l-0.38,1.77l2.92,-1.83l2.21,3.15l4.27,0.08l12,-0.27l1.25,2.14l16.58,0.06l5,-5.26l-1.71,-4.8l7.4,-1.58l-0.19,0.94l2.92,0.17l-2.14,6.14l5.78,0.12l2.35,7.92l1.53,1.7l6.26,-0.51l8.58,-4.65L623.25,1064.84z"/>
		<path id="PH-MAD" title="Marinduque" class="land" d="M403.52,567.22l0.31,1.31l1.08,-0.41l0.44,1.63l1.51,0.76l0.98,-1.34l2.68,0.91l2.26,0.67l0.83,-1.95l1.71,1.51l-0.69,1.15l1.78,0.05l0.73,1.94l-1.04,0.17l2.27,0.61l0.84,-0.98l2.96,2.54l-0.72,2.19l-1.11,-0.67l-0.11,0.93l3.6,3.79l-7.51,7l0.45,2.64l-1.83,3.12l-3.35,-0.63l-2.26,-3.02l-6.17,-2.7l-3.33,-4.48l0.34,-4.3l-1.03,-3.27l3.74,-6.24l-0.57,-0.67l0.76,-0.71l-0.65,-1.05L403.52,567.22z"/>
		<path id="PH-MAS" title="Masbate" class="land" d="M495.23,693.57l0.61,0.74l-1.49,1.27l-0.26,-1.39L495.23,693.57zM502.72,639.01l10.29,4.4l-2.86,0.18l1.55,4.06l-2.68,1.23l0.73,1.44l1.03,0.68l1.05,-2.4l1.69,0.37l-1.31,-2.01l0.51,-1.11l2.18,-1.09l2.94,0.47l6.65,5.05l1.37,-0.94l1.07,3.67l2.86,2.11l-2.6,2.09l3.41,-0.49l0.81,0.14l1.37,1.29l1.35,-0.53l1.83,1.23l6.41,10.11l0.77,-0.41l-0.93,-1.87l1.37,-1.31l1.65,0.57l2.32,3.1l1.31,-2.05l1.61,0.98l1.73,4.18l9.66,13.59l-0.26,1.52l-2.61,-4.49l-1.08,-0.22l-0.37,1.74l1.47,2.7l0.87,-0.05l3.28,7.25l-1.06,4.3l1.08,5.4l-1.48,-0.41l-2.62,-4.35l-6.84,-5.83l-1.05,0.22l-3.24,-2.7l-0.16,-0.06l-9.91,-2.33l0.44,-1.09l-1.19,-0.74l1.42,-1.8l1.39,-0.16l-7.28,-4.75l-0.65,-1.37l-2.92,-0.64l1.01,-1.54l-5.58,-8.48l-2.72,-1l-5.16,1.71l-4.4,6.84l-2.34,1.11l-0.85,1.68l-0.69,-0.37l-1.31,3.89l-9.98,8.6l-1.27,-1.88l3.91,-6.47l-0.42,-1.39l1.13,-1.5l0.85,-5.41l1.63,-0.41l3.04,-1.82l-0.93,-2.6l1.13,-1.23l-1.59,-2.34l-2.44,2.13l-0.89,-1.52l1.29,-0.16l-0.85,-2.09l3.17,-4.88l-0.52,-3.18l1.11,-0.72l0.97,-2.52l-0.85,-0.45l0.95,-0.92l-2.8,-1.29L502.72,639.01zM530.86,632.18l2.22,3.24l3.95,1.91l-0.87,0.58l0.46,0.33l1.63,-0.02l0.69,2.13l0.06,0.99l0.85,2.38l0.22,0.53l1.33,2.71l0.34,5.85l1.27,0.45l-0.5,2.65l1.11,0.14l-0.85,2.38l-4.46,-4.74l-3.11,-4.49l0.1,-1.39l-3.79,-4.5l-1.67,-4.72l-0.85,0.47l-1.47,-2.24l0.22,-1.64l0.71,1.52l0.77,-0.9l0.93,0.72l-1.31,-2.94L530.86,632.18zM485.2,597.75l1.19,1.57l2.38,0.15l10.05,16.38l4.01,0.29l2.7,1.46l0.87,5.35l7.04,9.26l-1.84,-0.2l-1.81,-1.91l-5.26,-8.16l-4.56,-0.68l-2.08,-3.19l-2.32,-0.55l0.65,-1.01l-2.88,-1.4l-1.27,-2.88l-0.95,0.47l-0.99,-3.04l-5.69,-0.6l-1.49,-2.39l-1.41,0.95l0.03,-2.96l1.02,-1.37l-2.29,-2.14l2.94,-1.16L485.2,597.75z"/>
		<path id="PH-MNL" title="Metropolitan Manila" class="land" d="M334.31,483.82l0.79,-0.77l1.26,1.58l0.92,-0.47l-1.62,-3.21l0.88,-0.4l1.37,0.56l0.29,1.4l1.41,-0.21l1.05,-2.39l0,0l0.26,-0.26l0,0l2.41,-0.6l0.29,-1.57l1.07,-0.32l1.02,1.27l2.91,0.34l0,0l0.04,1.43l1.23,0.1l-2,4.72l2.05,1.32l-0.32,1.72l-1.88,0.6l0.57,2.66l-1.17,1.73l0.87,2.81l0,0l-3.16,2.7l-0.44,8.62l-3.12,2.1l0,0l-0.02,-2.32l-3.19,-4.9l0.07,-2.1l0,0l1.42,-1.96l-1.08,-0.51l0.8,-0.6v-3.25l-3.04,-2.59l0.36,-1.39l0.84,0.93l0.19,-2.75l-0.81,0.19L334.31,483.82z"/>
		<path id="PH-MSC" title="Misamis Occidental" class="land" d="M529.9,927.58l0.78,0.6l-0.51,0.79l1.69,0.64l3.5,0.01l4.12,4.51l2.9,3.24l-0.22,2.16l2.68,2.12l-0.08,1.61l1.58,1.99l0.65,5.78l1.22,1.72l-1.13,0.86l-0.07,2.15l1.32,9.09L542.7,969l-2.02,3.7l-3.49,-0.3l-5.45,2.95l0,0l-0.08,-1.31l-2.44,0.51l-2.81,-1.49l-1.01,-12.39l0,0l0.37,-29.59l0,0l0.77,0.39l0.91,-1.21l0.61,0.35l1.22,-1.76l-1.7,-0.54L529.9,927.58z"/>
		<path id="PH-MSR" title="Misamis Oriental" class="land" d="M645.61,896.7l2.22,9.88l-1.24,2.46l2.64,3.59l-1.75,1.39l0.78,14.27l0,0l0.14,5.69l0,0l-15.6,0.17l-11.7,-1.08l-3.94,8.73l0.18,3.81l-14.43,-0.2l-0.2,4.15l-1.18,1.8l0.43,2.73l-0.99,1.08l-0.91,-0.44l0.27,2.34l-1.21,2.14l0,0l-2.29,-4.17l-4.48,-2.84l-10.87,-0.66l-5.56,1l0,0l1.21,-3.72l1.49,-1.32l0.06,-4.84l2.3,-5.83l9.72,-5.96l2.08,0.24l-0.53,2.21l2.97,1.22l2.34,2.37l1.88,0.16l0.6,1.44l5.53,0.67l-0.89,1.54l1.45,-1.34l0.36,1.72l2.54,0.79l2.84,-1.46l0.89,-1.48l-0.8,-3.26l2.12,-2.67l-0.67,-3.45l-1.45,-0.68l-0.13,-3.09l1.29,-1.78l1.41,-0.02l-0.97,-3.59l1.81,-4.17l-0.81,-11.07l2.85,-2.1l3.68,-0.26l11.33,6.52l3.9,6.58l6.18,-1.26l1.78,-5.95l-1.16,-6.03l0.98,-1.32l0.18,-3.71L645.61,896.7z"/>
		<path id="PH-MOU" title="Mountain Province" class="land" d="M380.24,289.66L380.58,305.37L380.58,305.37L372.23,304.7L365.86,305.67L356.88,310.23L348.25,309.64L344.62,309.86L342.19,311.18L338.79,310.89L338.15,312.85L339.06,315.73L336.56,321.45L334.24,323.7L331.56,323.74L331.56,323.74L329.82,322.9L329.05,320.32L324.04,315.65L324.04,315.65L324.86,312.84L324.41,302.41L330.05,296.53L330.05,296.53L332.91,296.34L334.18,294.63L334.15,292.05L334.15,292.05L344.44,293.09L346.62,296.15L352.11,298.04L358.46,296.68L365.1,289.5L370.14,287.75z"/>
		<path id="PH-NEC" title="Negros Occidental" class="land" d="M499.73,756.73l3.65,0.42l1.54,0.9l3.71,2.67l6.6,-0.28l4.38,2.48l1.7,-1.26l1.58,1.34l-1.42,0.79l1.87,0.47l0.9,4.76l2.37,-0.54l-0.69,1.86l0.88,1.76l-1.94,3.25l-1.12,-0.8l0.33,1.53l-1.61,2.54l-1.46,7.97l-1.2,3.82l-0.98,0.41l0.44,1.18l-3.04,3.43l-4.72,2.52l-1.6,4.35l0,0l-6.13,-2.26l-8.89,0.23l5.21,10.44l-6.3,7.61l-6.78,11.25l-2.14,7.37l-18.45,23.48l-6.45,6.5l-2.51,5.85l0,0l-5.49,-5.23l-1.35,-3.76l-2.8,-1.58l-1.09,-4.36l-1.61,0.27l1.05,-2.88l-1.96,-0.83l-1.66,0.88l-0.7,-0.98l1.69,-1.95l-1.81,0.57l-1.17,-1.18l1.31,-2.64l-0.75,-3.31l0.91,-1.93l-1.81,-1.54l4.07,-4.58l1.35,-5.63l4.05,-0.77l11.43,0.65l8.33,-6.55l3.32,0.27l3.13,-2.38l-1.96,-9.54l0.06,-5.23l1.66,-5.38l-4.99,-11.11l2.29,-2.18l1.96,0.28l1.9,-1.19l0.14,-1.2l2.58,-2.08l1.83,-5.26l0.16,-3.16l1.25,-0.47l0.38,-4.56l-1.28,-1.08l-0.53,-3.44l1.05,-1.08l-0.32,-1.92l6.31,-2.1l1.58,1.32l4.94,-4.75l1.97,-0.19L499.73,756.73z"/>
		<path id="PH-NER" title="Negros Oriental" class="land" d="M457.45,872.76l2.51,-5.85l6.45,-6.5l18.45,-23.48l2.14,-7.37l6.78,-11.25l6.3,-7.61l-5.21,-10.44l8.89,-0.23l6.13,2.26l0,0l-0.34,7.68l-3.34,6.83l-0.28,4.04l-3.88,9.15l-3.27,3.66l-0.4,2.25l-1.92,1.38v3.67l-1.43,1.08l2.14,9.65l-0.41,5.4l-2.29,-1.61l-1.27,1.93l1.2,2.18l2.47,0.28l0.52,1.42l-0.99,1.1l0.13,-1.24l-1.06,-0.49l-1.29,2.65l2.48,0.06l2.2,4.99l3.22,1.09l2.32,6.13l2.82,2.06l0.97,2.43l-2.04,8.05l-5.98,8.42l-3.7,1.41l-1.75,2.15l-1.13,-0.59l-2.71,-0.94l-4.27,2.07l-5.37,-2.71L476.62,887l-0.99,-7.61l-5.08,-2.5l-8.71,-1.22L457.45,872.76z"/>
		<path id="PH-NCO" title="Cotabato" class="land" d="M590.07,1001.69L594.11,999.76L597.15,999.52L599.35,1000.16L602.23,1003.85L605.18,1004.53L608.93,1002.58L616.66,1005.22L616.66,1005.22L617.99,1009.74L616.15,1011.49L615.31,1014.19L617.42,1013.06L619.05,1014.25L619.09,1016.32L621.85,1017.66L621.99,1018.9L625.51,1017.7L628.75,1020L634.25,1019.62L635.6,1016.26L641.96,1015.27L642.72,1011.08L644.71,1007.51L646.4,1007.62L646.58,1006.06L648.86,1006.98L648.86,1006.98L649.09,1008.04L649.09,1008.04L649.9,1012.48L648.24,1015.41L648.62,1021.61L647.07,1024.07L648.48,1030.79L647.1,1035.16L648.19,1037.59L651.31,1040.17L651.68,1044.71L653.43,1047.29L650.77,1047.57L649.19,1052.25L642.65,1057.71L642.3,1060.76L641.13,1062.07L639.73,1061.19L637.98,1062.27L639.45,1066.8L639.45,1066.8L630.95,1069.39L630.95,1069.39L623.25,1064.84L619.27,1065.94L617.21,1065.01L616.72,1049.07L615.42,1049.08L615.44,1048.29L615.69,1044.8L617.64,1044.88L617.79,1043.02L615.71,1042.93L615.75,1041.14L609.56,1035.26L609.86,1036.07L608.3,1036.54L608.39,1038.55L611,1039.84L612.14,1041.67L610.79,1041.59L611.24,1043.45L609.85,1042.06L609.01,1044.21L608.77,1043.13L607.75,1043.32L607.29,1044.72L608.85,1045.55L609.9,1047.98L609.25,1048.77L610.23,1049.33L607.81,1051.23L608.09,1052.58L607.22,1053.04L603.49,1051.03L600.64,1051.3L596.78,1046.32L594.48,1047.03L589.19,1042.8L589.19,1042.8L595.02,1032.21L592.17,1031.46L588.19,1032.71L585.18,1037.06L581.96,1036.61L587.67,1027.1L588.68,1027.58L593.41,1016.83L589.57,1011.29z"/>
		<path id="PH-NSA" title="Northern Samar" class="land" d="M565.33,661.98l1.04,1.13l-1.11,1.37l-1.05,-1.84L565.33,661.98zM578.2,656.65l-2.01,-3.1l-0.27,-4.08l2.49,3.37L578.2,656.65zM568.46,647.99l3.62,4.97l-0.75,2.32l-3.14,-3.74L568.46,647.99zM589.14,640.58l0.34,1.25l1.73,0.59l-1,0.86l-2.11,-0.95L589.14,640.58zM593.8,640.48l2.11,2.9l-1.48,0.15l-2.1,-2.89L593.8,640.48zM584.43,639.86l1.6,0.4l-0.2,1.25l-1.46,0.31l-0.62,-1.83L584.43,639.86zM584.14,637l2.51,1.85l0.2,1.77l-2.4,-1.11l0.5,-1.26L584.14,637zM630,635.92l1.47,1.31l0.44,2.16l3.83,1.64l-1,1.38l-0.61,0.96l1.93,0.47l-0.08,-3.18l1.71,-0.29l1.13,1.42l2.44,-1.58l8.85,6.83l-0.52,1.42l2.26,0.33l0.28,3l3.07,1.66l-2.8,0.62l1.25,0.8l-1.31,0.16l0.52,1.52l-1.43,0.62l0.32,1.85l2.22,0.23l-2.46,1.6l0.5,1.15l3.29,-1.87l-0.67,1.23l0.83,1.11l-1.35,0.28l0,0l-2.12,1.27L644.89,656l-2.05,2.21l-1.06,4.04l0,0l-3.48,0.35l-9.53,3.9l-4.92,-1.81l-3.58,8.47l-1.87,-2.72l0.86,-3.19l-9.34,-5.31l-5.29,3.58l-11.47,-6.85l-3.99,3.82l-5.17,0.06l0,0l-1.72,-4.78l0.84,-2.89l-0.56,-0.42l-0.52,1.17l-1.42,-4.64l-0.1,-0.33l-1.75,-1.75l-0.2,-3.79l-1.53,-2.25l1.44,-2.52l3.22,2.08l0.33,1.45l0.85,-0.82l1.13,0.61l-0.11,-1.34l2.66,1.31l-0.03,-2.08l2.12,1.63l-0.02,1.12l1.61,-0.33l1.71,-0.87l-0.86,1.34l0.54,1.21l0.95,-0.1l-0.11,-1.81l2.69,1.28l3.38,0.02l0.61,-0.8l6.94,0.91l5.32,0.25l4.64,-2.09l2.95,1.25l2.02,-0.53l1.14,-2.34l-1.77,-1.41l2.13,0.49l0.32,0.43l2.91,0.33l1.77,-1.27l0.55,1.48l-0.91,0.46l2.79,0.44l1.74,-1.02L630,635.92zM635.42,633l1.68,5.98l-4.05,-1.4l1.39,-0.12l0.48,-1.19l-2.22,-0.92l0.14,-1.46l0.56,-0.92L635.42,633zM584.27,632.12l2.04,0.82l0.3,3.24L584.6,635L584.27,632.12z"/>
		<path id="PH-NUE" title="Nueva Ecija" class="land" d="M331.62,378.03L342.26,376.51L353.07,379.16L354.71,392.87L360.79,403.19L360.79,403.19L367.65,424.68L362.97,445.94L362.97,445.94L357.85,445.57L350.78,440.47L341.88,441.98L337.1,444.54L337.1,444.54L333.14,445.29L330.79,448.51L329.33,445.51L324.89,445.55L323.78,440.84L323.78,440.84L324.51,437.92L321.41,435.57L321.65,432.29L323.27,429.65L320.16,419.8L322.49,415.63L318.34,414.5L315.23,411.22L312.23,398.57L312.23,398.57L321.73,397.03L327.47,401.51L330.03,399.42L334.7,387.56z"/>
		<path id="PH-NUV" title="Nueva Vizcaya" class="land" d="M364.65,329.79L369.41,334.3L370.03,337.75L370.03,337.75L367.88,352.08L373.11,353.83L372.13,360.52L361.66,364.88L363.72,383.02L374.28,392.23L374.28,392.23L360.79,403.19L360.79,403.19L354.71,392.87L353.07,379.16L342.26,376.51L331.62,378.03L331.62,378.03L328.82,373.1L323.56,370.86L323.56,370.86L322.84,367.73L326.25,361.71L329.12,361.87L332.45,353.38L331.9,347.96L333.46,341.19L333.46,341.19L356.46,337.37L356.46,337.37L356.84,337.25L356.84,337.25L360.54,335.66L361.85,336.2L361.44,334.15L363.29,333.5z"/>
		<path id="PH-MDC" title="Mindoro Occidental" class="land" d="M341.35,666.04l1.57,2.75l-2.12,-0.29l-0.38,-1.37L341.35,666.04zM345.44,661.4l2.5,4.72l-0.54,3.14l1.27,-0.61l1.55,2.48l-1.21,1l-2.44,-1.56l-0.85,-2.85l-2.68,-0.94l0.36,-4.74L345.44,661.4zM298.62,570.51l3.76,1.62l5.98,-0.29l4.14,1.47l3.98,-0.27l5.91,2.09l10.12,-2.59l0,0l-0.62,6.47l-6.27,9.8l13.5,6.42l10.17,6.43l8.57,3.2l0.34,30.45l-1.07,18.62l0.79,14.04l0,0l-2.45,-2.23l-3.69,-0.37l-3.39,0.02l0.08,-1.63l-1.41,-1.65l1.09,-0.82l1.53,0.96l-0.4,-1.85l-1.11,-3.24l-1.39,-0.53l-1.17,1.21l-2.3,-1l-8.39,-10.77l-0.44,-2.65l1.4,-2.76l-0.7,-2.43l-4.63,-5.66l-0.59,-2.03l-4.81,-1.23l-0.47,-6.57l-1.66,-1.29l2.31,-4.93l-1.27,-1.91l-0.6,-2.68l-0.07,-0.8l-2.2,-5.85l-6.07,-9.76l-3.21,-0.81l-2.73,-2.15l-3.49,0.37l0.08,-3.09l-1.39,0.02l-1.64,-2.03l0.35,-1.9l-1.49,-4.15l0.55,-1.73l-0.89,-1.28l-1.89,-0.88l-3.23,1.21l0.29,1.79l-0.96,0.84l-2.67,-0.52l-2.57,-2.84l-0.79,-1.88l2.03,-3.32l2.7,-1.8L298.62,570.51zM290.04,558.98l5.47,2.13l2.14,-0.12l0.79,2.04l-2.56,-0.39L290.04,558.98zM288.91,547.55l3.28,2.16l-0.16,1.34l-1.63,1.06l-3.69,-2.42l1.59,-0.54L288.91,547.55zM274.46,545.4l3.3,0.67l4.72,3.34l1.48,-0.8l4.75,6.44l-1.92,-0.1l-0.83,1.18l1.49,1.18l1.25,-0.45l0.52,1.84l-1.27,-0.06l-0.77,1.21l-1.01,-2.37l-2.32,-0.52l-1.35,-1.82l-2.08,-0.18l-5.37,-3.56l-0.44,-3.8l-1.31,-0.97L274.46,545.4zM270.34,542.83l1.67,1.58l-0.75,0.87l-2.18,-1.42L270.34,542.83z"/>
		<path id="PH-MDR" title="Mindoro Oriental" class="land" d="M338.58,574.84l5.99,4.67l2.36,-0.79l1.02,-0.16l2.38,0.58l3.29,-0.54l1.26,-1.49l4.66,6.07l0.16,-0.76l2.66,1.48l5.47,7.87l2.55,-0.18l1.98,1.05l0.14,6.19l1.89,0.69l2.87,-1.21l3.5,2.37l-0.01,2.24l-3.78,2.56l-1.34,2.7l0.9,5.91l-1.17,2.61l0.83,4.05l-1.31,5.49l5.28,7.72l-0.16,1.03l0.12,1.79l-1.51,2.64l-0.06,0.4l-1.47,3.15l-3.15,2.23l-1.84,0.06l0.54,2.95l-2.58,2.42l0.24,3.45l2.88,2.79l-5,-0.17l0.99,5.54l-1.05,-0.62l-1.13,-0.29l-0.12,-2.05l-1.53,0.1l-0.9,2.29l-4.08,0.74l-2.45,5.55l0,0l-0.79,-14.04l1.07,-18.62l-0.34,-30.45l-8.57,-3.2l-10.17,-6.43l-13.5,-6.42l6.27,-9.8l0.62,-6.47l0,0l1.64,-0.99l2.1,0.65l0.79,0.06L338.58,574.84z"/>
		<path id="PH-PLW" title="Palawan" class="land" d="M55.27,970.9l0.42,4.1l-0.02,1.05l-0.22,0.97l0.83,6.19l-1.31,0.61l0.77,1.23l-1.27,2.75l-2.46,2.22l-0.14,0.36l-1.03,0.26l-1.37,-0.83l0.49,-2.59L48.72,987l-1.94,-4.33l-1.51,-0.06l-0.48,-1.66l1.17,0.45l1.61,-1.54l-1.21,-3.48l1.23,-4.03l0.12,2.75l2.57,-1.93l-0.53,-1.39L55.27,970.9zM52.14,966.9l1.56,0.87l0.85,2.42l-3.38,0.98l-0.51,-1.48l-1.41,-0.51L52.14,966.9zM60.17,963.27l3.49,0.06l1.25,1.83l-4.14,0.18l-1.23,-1.61L60.17,963.27zM56.48,958.32l1.82,0.45l0.88,1.87l-3.09,-0.06L56.48,958.32zM73.41,952.77l2.14,2.44l-0.41,5.88l-3.83,2.27l-2.22,-2.22l0.36,-6.91l0.78,-1.35L73.41,952.77zM66.71,953.69l2.03,-0.23l-0.13,1.9l-2.66,1.92l-3.2,0.48l-0.95,-2.2l2.17,-0.33l2.78,-3.53L66.71,953.69zM206.98,787.3l-0.13,1.08l1.02,-0.67l-1.55,0.96l-0.87,1.32l-1.65,0.08l1.19,-1.57l-1.07,-1.15L206.98,787.3zM255.33,782.65l2.42,2.18l0.46,-0.98l2.62,2.65l5.68,-0.14l1.53,2.57l-1.32,1.07l-0.57,-1.4l-0.57,1.74l0.95,1.1l-2.59,0.9l-0.23,-1.25l-1.04,2.28l-1.46,-0.89l-0.44,-2.16l-1.38,-0.28l2.83,4.87l-0.81,0.67l-4.1,-0.75l1.32,1.71L253.6,798l-3.09,-1.66l0.16,-4.66l-1.15,0.69l0.07,-2.53l1,-0.92l2.1,1.35l0.8,-2.83l2.19,-2.11L255.33,782.65zM345.49,763.75l0.66,1l-1.35,1.3l1.49,1.51l-1.65,1.2l0.46,2.28l-3.13,0.69l-1.73,-2.27l0.43,-1.93l3,-1.21l0.4,-2.3L345.49,763.75zM216.35,755.31l0.98,0.53l-1.16,2.37l0.84,1.84l-0.58,0.78l-2.2,-2.53l0.51,-2.69l1.14,0.47L216.35,755.31zM246.54,752.72l1.17,2.08l-1.76,0.07L246.54,752.72zM245.11,751.64l0.67,0.59l-1.63,2.62l-0.28,-1.89L245.11,751.64zM237.57,749.62l0.38,0.92l2.56,0.16l-0.48,1.84l1.81,2.63l-0.69,2.21l-0.34,-2.07l-1.43,1.31l-0.85,-2.1l-2.66,-0.74L237.57,749.62zM245.05,747.85l0.81,2.31l-1.53,1.27l0.5,-1.43l-1.25,-1.93L245.05,747.85zM338.98,744.2l0.46,1.43l-1.58,1.54l-1.52,-0.11l-0.47,-1.39L338.98,744.2zM239.08,742.81l1.68,0.44l-0.21,1.82l-1.41,0.83l-0.71,-0.75l-0.14,1.5l-2.29,0.22l-0.49,-2.59l2.39,-0.14l0.24,-1.3L239.08,742.81zM245.58,733.35l-1.28,4.31l-1.55,-2.68L245.58,733.35zM229.88,725.8l1.94,0.67l0.4,6.09l1.95,0.76l1.17,-1.35l1.07,3.58l-2.19,8.61l-2.72,3.05l2.64,4.68l1.73,-1.12l-0.73,1.69l1.35,4.02l-0.56,0.82l-1.78,-1.29l-2.51,0.41l-1.38,9.76l1.84,1l0.14,2.35l1.73,1.2l2.89,-1.85l1.8,1.15l-0.06,1l-1.39,-0.26l1.14,1.04l-1.3,1.1l1.31,0.96l-0.61,1.88l1.01,1.47l-2.19,4.44l2.96,-0.02l1.75,-1.99l1.61,1.28l-0.61,0.65l1.36,0.67l-3.26,-0.21l1.23,1.8l-1.02,1l2.09,0.97l1.14,4.64l2.39,0.14l-0.76,1.11l1.12,-0.33l0.6,1.76l-2.88,1.1l-3.18,3.66l-3.44,1.49l-1.14,3.66l-4.31,0.85l-3.93,-1.04l-2.12,1.73l-4,0.45l-1.46,2.24l-2.09,0.23l-5.79,8.08l-1.82,9.07l-1.54,2.2l-16.25,4.66l-5.32,0.67l0.07,-1.07l-3.51,1.32l-2.21,2.4l-3.57,-0.02l-1.55,0.75l-0.71,6.43l2.36,3.19l-0.28,5.45l-2.82,-0.65l0.48,-1.69l-0.99,-2.52l-0.67,1.34l-1.28,-0.45l-0.46,0.96l0.26,3.76l2.48,0.33l0.1,0.57l0.36,1.42l1.9,-0.48l-0.06,1.52l-1.79,1.2l-0.34,0.98l-3.75,5.1l-1.96,1.08l-1.03,3.41l-1.19,0.04l-4.07,6.09l-0.16,0.45l-1.87,1.9l0.17,2.2l-3.79,3.75l0.04,1.08l-1.62,-0.59l-1.73,1.89l-0.85,-0.25l-0.73,2.51l-1.82,0.18l-3.76,4.71l-3.59,-0.34l-5.31,1.84l-0.86,-0.85l-4.42,2.5l-1.76,-0.76l-1.41,3.13l-0.17,3.67l-2.41,0.37l1.18,1.17l-0.32,1.18l-1.62,0.43l0.56,1.03l-0.78,-0.02l-2.86,6.56l-1.13,-0.01l0.15,1.84l-8.45,3.76l-3.42,4.27l-2.33,0.26l-2.01,3.76l-2.76,2.03l-3.59,0.12l-5.02,2.07l-4.2,-1.21l-2.17,2.29l0.85,3.38l-3.39,6.96l-1,0.47l-2.21,-1.97l-1.24,1.51l-0.55,0.46l-4.25,0.01l-0.34,1.35l-7.66,4.95l-1.85,2.85l-2.12,0.54l0.76,0.79l-0.76,1.15l-1.98,0.09l-0.24,-2.64l2.67,-4.48l0.23,-6.67l1.63,-1.33l-0.16,-2.01l1.95,-0.85l-0.75,-2.16l1.28,0.53l1.66,-3.98l2.78,-1.26l0.73,-1.82l-1.51,0.16l2.66,-3.49l4.73,-1.02l-0.43,-1.98l2.66,-1.89l0.85,-3.21l1.23,-0.38l3.34,-5.34l0.95,-0.04l0.39,-1.69l2.56,-0.34l2.75,-2.78l0.58,-3.51l2.52,-1.95l1.63,0.12l0.3,-1.22l0.71,1.9l3.32,-0.3l0.93,-4.12l1.49,-1.44l-0.34,-1.52l2.6,-2.44l1.09,0.69l1.67,-1.87l0.89,0.37l3.21,-3.79l3.39,0.69l2.09,-2.12l0.19,2.59l2.64,0.11l0.28,-1.59l1.78,-0.96l0.25,-1.58l1.28,0.13l1.29,-1.34l0.03,-1.25l2.84,-0.65l-0.79,-2.31l0.81,-1.67l4.22,-0.97l0.88,-4.43l2.89,-1.57l4.41,-5.21l2.25,-1.28l0.81,-4.96l1.19,-0.61l1.33,0.89l2.28,-1.33l0.97,-3.04l6.63,-4.03l4.15,-6.19l2.7,-1.86l0.67,-1.63l-0.7,-1.65l2.9,-1.42l-0.09,-1.88l1.45,-1.13l-1.37,-2.1l1.12,0.41l3.21,-2.93l1.35,0.16l0.26,-2.52l1.39,-0.98l1.19,-3.6l0.87,4.64l0.14,0.77l-0.02,2.6l1.35,0.06l1.05,-0.53l0.08,-2.89l2.1,-2.65l-2.32,-0.79l-0.05,-5.54l2.37,0.37l1.92,-1.71l2.2,1.04l3.19,-0.9l0.95,-3.21l-1.09,-0.9l1.8,-0.42l-2.15,-1.39l0.77,-0.77l1.65,1.12l0.42,-1.87l1.33,0.65l1.07,-0.81l-0.73,-0.69l0.85,-1.57l1.48,0.26l-0.79,-2.62l-2.95,2.16l-0.69,-1.81l1.94,-1.53l-0.44,-1.16l1.86,0.24l0.94,-0.91l2.78,2.08l0.92,-1.56l-0.88,-0.96l1.99,0.34l0.99,-1.16l-1.32,-0.67l-0.92,-0.58l0.25,-0.91l0.38,-1.26l0.66,0.7l0.41,-1.06l1.25,0.02l0.52,0.92l-1.17,0.96l1.38,1.01l-0.79,2.54l1.85,2.15l0.21,-1.3l2.47,-0.88l2.9,-5.11l2.9,-0.19l0.94,-2.17l-2.86,-2.48l2.68,0.65l3.79,-3.87l1.8,-10.6l-2.66,-2.85l-2.33,0.71l-0.88,-4.9l-3.87,-1.28l0.16,-0.87l2.46,0.08l-0.31,-0.86l0.23,-1.05l1.08,0.06l-1.37,-1.7l-1.94,0.2l1.34,-2.09l-1.26,-0.38l0.41,-1.12l1.58,0.26l0.14,2.94l1.03,-0.44l-0.56,-1.16l1.13,-1.12l1.35,0.85l-0.68,0.87l1.34,0.96l-1.17,1.31l1.54,0.14l-2.42,1.54l3.1,-0.04l-1.82,1.74l2.1,1.3l0.37,-1.25l1.08,2.65l0.9,-1.23l0.88,0.44l-0.83,1.55l2.98,0.47l1.27,1.53l-0.5,1.26l1.36,-0.77l1.09,3.45l2.27,-0.4l-2.06,-5.48l-0.12,-2.29l1.34,0.18l0.19,-1.12l-2.74,-0.93l-0.16,-1.13l-2.98,0.99l-0.56,-1.1l-1.14,0.14v-1.69l-1.08,0.07l1.99,-3.22l-0.86,-0.79l-1.59,1.04l-1.3,-0.72l0.23,-0.68l-0.7,-4.01l1.24,-1.98l1.51,3l2.4,-0.83l-3.34,-2.43l1.16,-1.3l-1.51,-0.02l0.2,-3.7l1.07,1.55l1.01,-0.27l-0.51,1.11l1.81,2.2l3.18,0.48l-0.18,-5.33l0.94,-2.14l-1.22,-0.48l-0.72,0.96l-0.31,-2.62l1.52,-3.08l-0.47,-7.5l1.15,-0.41l0.42,-2.11l1.4,1.04l1.62,-2.29L229.88,725.8zM254.3,718.77l3.51,0.74l0.63,1.29l-0.14,2.94l-2.74,5.42l-0.89,0.16l-1.32,-1.77l1.67,-0.97l-0.12,-1.06l-1.32,0.92l-1.36,-0.71l-0.91,2.25l-1.16,-2l-2.2,-0.84l0.53,-1.47l-1.64,-0.8l1.21,-1.12l-0.06,0.98l3.06,2.06l-0.25,-1.49l1.42,0.02l-1.64,-1.35l1,-0.16l-0.04,-1.08l1.79,3.02l0.93,-0.21l-0.39,-1.26l1.89,1.09l-0.78,-1.87l1.7,-0.2L254.3,718.77zM278.15,700.79l2.44,0.08l0.22,1.27l-2.92,-0.43L278.15,700.79zM280.59,699.46l1.27,0.55l0.2,1.8l-2.23,-2.33L280.59,699.46zM260.94,685.15l1.49,1.54l3.51,0.7l-2.22,0.39l0.79,1.95l-0.75,0.31l1.31,0.41l-0.06,-1.68l1.19,0.74l1.15,-1.17l2.18,0.25l0.32,1.15l-2.94,1.28l2.57,0.29l1.32,2.2l0.49,-0.93l1.89,1l-3.88,1.41l2.21,0.22l-1.57,1.08l-0.01,1.42l0.93,-0.59l2.24,1.9l-2.8,2.27l1.69,0.08l-0.64,2.8l-5.01,3.79l-0.81,0.1l-0.89,0.46l-1.03,-0.21l0.73,-0.8l-0.95,-0.39l-0.08,-3.93l1.13,-0.82l3.55,-3.28l-1.27,0.15l-0.85,-0.41l-0.73,-0.72l-0.06,2.64l-2.43,0.3l-1.66,-2.39l-0.98,-2.76l1.52,-1.01l-3.26,-3.82l0.13,-2.41l-1.83,-1.43l0.53,-0.58l2.71,2.3l0.25,-1.46l-1.43,-0.69l-0.14,-1.26L260.94,685.15zM285.8,684.56l1.73,1.11l0.35,2.48l-2.06,2.07l2.86,0.06l0.4,1.64l-0.13,1l-2.55,1.06l-0.72,0.62l-4.05,-6.53L285.8,684.56zM260.27,659.21l2.14,0.72l-0.2,1.52l1.15,1.13l-0.69,0.88l6.15,1.17l2.42,1.97l1.09,2.74l2.7,-0.76l-0.09,1.81l4.67,4.07l1.68,0.24l0.11,-1.48l1.83,0.4l-0.55,-2.1l0.97,-2.67l-1.06,-1.7l0.96,-0.47l0.42,2.06l1.44,-0.09l0.25,5.02l0.95,0.48l1.11,-1.39l0.83,2.16l1.1,-0.31l0.43,1.51l1.83,0.52l0.62,2.65l-1.19,1.33l1.14,1.84l-0.31,1.51l-1.26,-0.63l-1.4,1.43l-3.4,-1.84l-2.04,1.77l-3.42,-1.9l-0.56,-1.54l-0.97,0.59l-1.77,-0.8l-0.6,0.96l0.99,1.19l-0.79,0.89l-0.52,0.87l-1.43,1.35l-1.43,-1.91l0.58,-0.88l-2.44,-1.45l-0.5,1.7l-1.93,0.52l-0.47,-1.31l-2.58,-0.23l-0.44,-1.11l-0.28,-2.95l-1.17,0.58l-1.09,-1.3l-0.34,-1.04l-0.14,-3.61l-2.24,-1.95l-0.3,-2.85l-1.15,-0.1l-2.04,4.06l-0.26,-2.09l1.92,-3.44l-1.19,-0.8l0.02,-1.32l0.58,-1.23l0.89,-1.53l-1.1,-1.53L260.27,659.21z"/>
		<path id="PH-PAM" title="Pampanga" class="land" d="M294.67,448.3l1.31,0.21l13.41,-7.07l4.73,0.04l1.38,-0.92l2.98,1.05l3.07,-1.7l0.2,1.25l2.03,-0.31l0,0l1.12,4.71l4.44,-0.04l1.46,3l2.35,-3.22l3.96,-0.75l0,0l0.1,3.14l-0.96,1.57l3.16,3.96l-1.2,1.68l-0.24,3.33l-2.05,-0.09l-1.28,3.1l-0.22,-0.98l-1.49,0.32l0.19,1.97l-4.66,3.75l-6.36,0.58l0.08,2.35l-3.23,5.14l0.32,1.43l-3.37,1.93l0,0l-0.63,0.45l-2.44,-2.2l-2.44,-1.24l0.5,-0.94l-1.19,-0.35l0,0l-1.87,0.5l-1.94,-1.21l-1.61,-2.04l-0.4,-3.23l-2.68,-1.37l0,0l-0.67,-2.51l-2.25,-2.08l0.12,-3.96l-1.26,-2.56l-2.82,-2.05l-0.56,-2.26L294.67,448.3z"/>
		<path id="PH-PAN" title="Pangasinan" class="land" d="M267,359.77l0.71,2l1.63,0.65l-1.73,2.78l1.44,2.69l-1.8,1.43l-2.09,-3.48l-1.16,0.09l0.24,-1.09l-1.15,-1.06l-0.98,0.8l-0.35,-1.03l1.88,-0.83l-0.42,-0.98l0.89,-0.77l-0.22,1.55l1.15,0.58l0.22,-2.94L267,359.77zM261.42,401.4l-1.78,-0.92l0,0l-0.38,-0.7l2.24,-1.75l-3.73,-8.67l-1.13,-1.17l-0.18,0.88l-2.29,0.24l-0.58,2.52l-1.44,-0.7l-0.93,1.31l-1.65,-3.8l0.7,-3.5l1.07,-0.9l-1.34,-1.86l0.47,-4.4l1.43,-2.02l-0.75,-2.27l-1.31,-0.54l2.18,-5.15l-0.79,-0.71l0.46,-4.51l2.6,-3.74l2.92,0.04l1.98,-2.67l3.02,1.86l-0.69,9.54l1.01,-0.6l1.96,1.06l0.54,0.31l1.17,0.53l-0.3,1.37l2.1,0.96l1.16,1.9l0.71,-1.73l1.01,0.58l0.3,0.42l1.83,-0.04v1.17l1.07,-0.56l1.71,1.9l-0.38,0.77v0.7l-1.23,1.35l1.84,2.14l-1.07,-0.12l-0.16,0.88l3.42,2.23l5.77,0.34l7.36,-2.48l0.2,0.71l6.92,-7.8l-0.55,-3.46l0,0l6.1,-0.23l0.95,-1.92l0,0l10.37,3.71l8.24,-1.03l0,0l5.26,2.24l2.8,4.92l0,0l3.08,9.54l-4.67,11.86l-2.56,2.09l-5.74,-4.48l-9.5,1.54l0,0l-1.8,-4.27l-2.91,8.88l-4.85,3.06l-6.42,-2.67l-2.47,2.67l-0.49,2.42l-2.55,2.21l0.52,1.36l-5.08,2.36l0,0l-4.93,-8.11l-2.7,-7.29l-4.6,0.98l-4.11,-2.57l-2.76,3.97h-2.3l-0.71,-1.37L261.42,401.4zM262.93,353.9l2.04,2.49l0.02,1.84l-3.66,-1.18l0.13,-2.74L262.93,353.9z"/>
		<path id="PH-QUE" title="Quezon" class="land" d="M395.24,539.55l2.42,0.31l-0.26,2.02l1.17,1.01l-0.79,1.42L397,544.3l-1.9,-0.29l-1.05,-0.74l-0.14,-1.9L395.24,539.55zM410.4,520.25l11.83,8.6l4.55,5.88l-2.35,0.51l-7.36,-4.62l-1.41,-1.97l-3.8,-1.59l-5.29,-6.13l1.23,-3.14L410.4,520.25zM400.43,512.71l1.8,0.33l-2.37,3.78l-1.22,-3.28L400.43,512.71zM442.69,481l2.06,2.06l-1.05,1.04l-8.5,0.83l2.07,-2.62L442.69,481zM422.62,473.6l3.63,-1.21l1.07,1.07l-0.54,1.69l3.11,1.62l1.74,-0.33l0.02,4.8l-1.07,0.48l-0.95,-2.26l-8.9,-4.04l-0.96,-2.76l1.77,0.77L422.62,473.6zM414.64,469.84l0.25,0.84l2.59,0.05l1.59,1.95l-1.64,-0.95l-1.35,1.05l-1.36,-0.43l-0.88,-2.06L414.64,469.84zM409.3,456.52l1.79,0.56l-0.29,0.91l1.61,-0.57l1.96,1.13l-0.74,1.67l2.93,0.14l0.46,3.24l-0.16,0.82l-1.69,-3.01l-1.5,0.32l-1.39,2.24l2.01,-0.78l0.14,3.58l-2.98,1.47l-0.87,-0.51l0.99,4.93l2.04,0.6l0.99,1.73l1.01,7.13l-2.47,3.62l-4.69,2.99l-1.72,-1.02l-0.85,-2.69l0.12,-3.6l0.97,1.32l1.4,-0.4l-2.11,-6.78l-2.21,-2.47l-3.2,-8.92l-0.75,-0.07l0.52,2.11l-0.74,-0.63l-0.79,0.98l-0.64,-0.97l1.3,-4.83l1.24,-0.5l0.08,-2.36l1.44,-0.04l0.68,1.34l4.76,-2.61l1.02,1.02L409.3,456.52zM365.15,461.04l0.69,-1.63l-0.7,-1.85l4.1,-6.14l0.12,-2.18l-1.33,-1.29l1.66,-0.54l-0.22,-1.56l1.32,-1.1l0,0l2.03,1.41l1.03,-0.53l1.49,1.7l1.79,9.41l4.41,6.46l1.03,5.79l2.31,2.79l-0.83,1.98l9.6,9.8l-2.38,-0.47l-1.09,0.04l-3.71,2.58l-1.15,-1.44l-1.14,2.5l4.11,19.02l4.85,5.2l0.13,3.97l2.17,2.11l-0.35,3.02l-1.85,1.94l0.39,1.11l2.79,3.24l-0.67,-0.8l13.23,10.61l11.13,4.85l6.59,0.57l3.03,1.46l0.89,-3.51l-3.21,-1.25l-1.25,-2.61l8.52,2.74l0.49,-1.09l-0.93,-1.41l1.66,-0.64l0.48,-1.43l-2.44,0.15l-0.17,-1.61l-6.91,-4.05l-2,-3.53l0.12,-1.38l1.63,1.53l-0.43,-1.78l2.42,-2.06l1.29,-0.29l0.88,1.28l0.28,-4.88l1.67,-0.22l0.32,0.78l-1.27,4.61l1.04,0.85l-0.41,2.79l1.31,0.32l1.78,-1.29l-0.67,4.06l0,0l0.11,1.09l4.68,0.21l5.56,-6.21l25.29,9.98l0,0l-17.73,4.83l0,0l-1.47,-0.82l-0.26,2.8l-5.41,-0.24l-2.3,-1.97l4.94,7.76l2.81,2.35l-1.02,0.45l-0.09,2.93l1.08,2.83l-2.35,0.01l-0.83,1.48l1.65,3.57l-0.43,1.31l3.54,3.4l-0.03,1.27l6.41,4.09l0.09,1.04l-1.27,0.12l-2.56,-3.52l-1.32,-0.01l6.25,8.53l1.89,4.98v7.75l1.02,0.45l0.89,3.27l-3.27,1.13l-4.27,3.47l-2.53,-1.24l-4.33,-4.74l1.35,-2.79l-0.98,-1.08l0.94,-1.18l-0.45,-2.83l-2.04,-4.43l-5.47,-5.65l-0.84,-2.91l-5.09,-2.67l0.47,-1.19l-1.18,-1.03l-2.3,-0.08l-0.69,1.23l-1.4,-0.54l1.21,-0.85l-0.85,-0.94l-4.21,0.32l-0.4,-2.66l-3.78,-6.08l-0.9,-0.05v-1.87l-2.85,-2.95l-1.88,-0.41l-1.34,1.16l-2.18,-1.59l0.21,-0.77l-3.36,0.05l-0.64,-2.56l-5.87,-1.63l-1.41,-2.49l-1.18,0.76l-1.46,-1.25l-0.72,0.82l-1.16,-1.71l0.53,-1.97l-0.82,-0.63l-1.57,0.71l-2.5,-2.14l-3.9,0.52l-0.44,0.88l1.25,2.01l-5.99,1.08l-0.63,1.35l-0.99,-0.99l-7.86,3.78l-2.73,2.38l0,0l-5.25,-2.19l-1.09,-1.52l-7,-0.53l-2.53,-3.52l0.48,-1.19l1.54,0.05l-0.31,-1.85l0,0l4.97,-1.63l7.37,-5.82l4.45,-0.73l2.17,-5.38l1.88,-1.85l1.19,0.09l4.77,-6.73l-0.56,-9.86l-1.93,-0.25l-1.64,-1.59l-1.08,0.7l-6.46,-12.43l0,0l-8.61,-15.27l-0.42,-8.33l0,0L365.15,461.04z"/>
		<path id="PH-QUI" title="Quirino" class="land" d="M370.03,337.75L380.84,338.63L395.19,356.69L418.9,345.88L422.48,346.14L422.48,346.14L417.64,349.32L400.97,368.86L374.28,392.23L374.28,392.23L363.72,383.02L361.66,364.88L372.13,360.52L373.11,353.83L367.88,352.08z"/>
		<path id="PH-RIZ" title="Rizal" class="land" d="M357.91,510.79l0.15,2.8l-1.92,-4.52l0.52,-5.29l1.24,5.55l1.79,0.8L357.91,510.79zM359.44,497.54l-0.06,0.04l0,0l0.11,-0.11l0,0L359.44,497.54zM359.06,497.59v0.05l0,0l0.16,-0.23l0,0L359.06,497.59zM358.98,496.94l0.08,0.02l0,0l-0.07,0.05l0,0L358.98,496.94zM365.41,468.88l0.42,8.33l8.61,15.27l0,0l-3.75,1.32l-3.1,2.95l-1.13,4.56l1.09,4.35l-0.55,2.33l1.53,1.68l-5.75,4.06l-0.25,-2.82l2.51,-6.24l-0.94,-3.75l-1.67,-1.69l-1.6,-0.06l-0.21,-2.02l-1.94,-0.31l-1.33,3.24l-1.09,-0.02l-0.25,4.7l-3.77,-7.58l-2.05,-1.5l-2.21,0.21l0,0l-0.87,-2.81l1.17,-1.73l-0.57,-2.66l1.88,-0.6l0.32,-1.72l-2.05,-1.32l2,-4.72l-1.23,-0.1l-0.04,-1.43l0,0l4.63,-3.29l0.35,-1.7l5.52,-1.1L365.41,468.88z"/>
		<path id="PH-ROM" title="Romblon" class="land" d="M408.31,676.22l1.83,2.32l-0.52,2.54l-3.19,-2.29l0.34,-1.58L408.31,676.22zM452.62,646.08l7.88,1.62l3.17,6.05l-1.19,5.35l-3.51,3.34l0.04,1.21l-1.82,-2.13l-3.45,-1.19l-1.55,-3.62l-6.64,-2.65l-1.83,-2.68l0.28,-1.67l2.4,-2.28L452.62,646.08zM433.59,637.23l0.91,0.52l0.72,4.35l1.47,1.35l0.06,2.63l-1.88,2.05l-2.23,-0.87l-1.63,-3.01l0.93,-0.93l-1.29,-2.2l1.69,-0.31L433.59,637.23zM421.35,633.6l2.77,1.09l0.61,2.07l-2.38,-0.24l-0.55,1.23l1.27,2.73l0.02,3.2l-2,2.94l-1.73,13.68l-3.41,6.27l0.16,2.67l0.87,-0.43l0.99,1.27l-0.66,0.72l-0.99,-0.68l-1.57,1.76l-0.71,4.24l-2.26,-3.18l0.5,-1.37l-1.77,0.29l-0.57,-2.4l0.67,-3.67l0.54,3.01l0.99,0.59l2.11,-3.25l-2.73,-2.22l-0.95,0.47v-1.43l-1.27,-0.1l-0.38,-1.46l-1.23,0.8l-0.44,-2.32l1.23,-1.19l-0.79,-0.76l1.05,-3.51l3.29,-1.17l1.34,-2.6l0.74,-3.69l-1.72,-5.64l0.69,-2.03l2.83,-1.76l2.59,-0.13l3.07,-2.52L421.35,633.6zM419.14,621.53l-1.78,3.98l-2.16,-0.18l0.03,-1.24L419.14,621.53zM391.47,613.28l2.34,1.52l-1.51,2.49l-2.56,-2.53L391.47,613.28zM418.87,612.35l1.29,0.35l-0.71,2.88l-2.29,0.91l-0.4,-2.36l-1.44,-0.99L418.87,612.35z"/>
		<path id="PH-WSA" title="Samar" class="land" d="M618.49,705.97l2.01,0.12l0.71,1.28l1.48,-0.43l0.35,1.13l-1.65,1.16l0.67,1.86l-3.32,-0.57l0.26,-2.75l-1.36,-1.13l0.12,-1.83L618.49,705.97zM611.24,703.56l0.53,1.82l1.28,0.47l-0.13,1.3l1.96,-1.01l-1.05,1.62l2.87,1.75l-1.41,1.92l0.57,1.39l0.76,-0.65l3.19,0.65l-1.37,1.62l0.57,2.36l-1.15,1.26l-2.32,-1.39l1.04,-1.3l-2.89,-0.6l-0.33,-2.5l1.53,0.93l0.45,-0.84l-2.89,-3.15l-0.91,0.7l-0.42,-2.55l-0.75,0.54l0.3,-2.02l-0.56,-0.77l0.97,-0.65l-1,-0.88L611.24,703.56zM612.66,702.59l1.99,1.02l-1.03,2.01l-1.32,-0.96L612.66,702.59zM604.71,689.29l0.13,0.85l1.45,-0.06l-0.49,1.46l-1.73,-1.44L604.71,689.29zM590.66,688.7l1.25,2.93l-1.18,0.66l-2.41,-0.85l0.43,-2.2L590.66,688.7zM582.21,686.33l0.48,1.59l-2.01,2.7l-2.32,0.31l0.07,-2.31L582.21,686.33zM588.8,684.14l0.97,0.91l-0.73,1.61l-1.68,-0.78l-0.03,-1.44L588.8,684.14zM574.37,677.34l0.95,0.01l0.03,1.76l-1.62,-0.66l-2.85,2.68l-2.22,-1.12l1.65,-2.28L574.37,677.34zM583.99,662.53l5.17,-0.06l3.99,-3.82l11.47,6.85l5.29,-3.58l9.34,5.31l-0.86,3.19l1.87,2.72l3.58,-8.47l4.92,1.81l9.53,-3.9l3.48,-0.35l0,0l-0.53,7.37l-2.41,1.57l0.19,12.65l6.73,-0.01l4.5,10.4l0.88,13l-4.43,3.23l-1.05,2.58l1.77,11.39l3.96,1.37l1.55,1.96l-4.16,5.97l0.28,14.67l0,0l-1.27,2.35l-1.94,-0.91l-1.03,-6.21l-3.23,-6.84l-5.77,-0.78l-4.65,1.35l-2.05,-1.15l-0.41,-2.85l1.69,-2.24l-0.88,-5.05l-1.48,-0.76l-0.29,-1.62L626.4,724l-2.76,-1.58l0.25,-1.41l0.02,-0.57l-1.35,-0.82l0.07,3.34l-0.77,-0.75l-2.76,0.55l-1.43,-1.86l0.79,-0.53l0.01,-0.94l1.9,-3.29l0.99,1.56l1.61,-0.38l0.36,-1.04l-1.56,-0.38l0.29,-1.39l4.79,0.42l1.35,-0.91l-0.6,-0.98l2.07,-1.53l-0.8,-4.02l3.97,-3.12l0.79,-1.55l-0.25,-1.72l-2.97,-1.45l-6.39,2.88l-1.66,-1l-0.41,-1.81l-1.67,-0.98l0.05,-1.57l-6.07,-3.69l0.2,-1.12l1.62,-0.71l-0.7,-1.22l-2.02,-0.33l0.42,0.8l-2.21,0.14l0.9,-1.33l-0.52,-0.96l1.87,-0.73l-4,-0.76l-0.9,-2l0.66,-0.34l-1.43,-1.64l-0.2,-0.55l-3.63,-3.2l-3,-0.98l-4.92,0.16l-5.55,-5.39l-0.15,-1.39l-4.33,-3.02L583.99,662.53z"/>
		<path id="PH-SAR" title="Sarangani" class="land" d="M659.56,1162.56l2.24,1.14l-0.56,3.91l-1,-0.81l-4.14,0.7l-0.19,-1.4l-1.38,-0.21l3.01,-2.86L659.56,1162.56zM665.42,1158.23l1.53,1.99l-0.52,3.36l-1.56,2.35l-1.45,-3.36l1.61,-1.49l-1.27,-0.81l1.94,-0.05l-1.06,-0.94L665.42,1158.23zM586.87,1106.23l10.75,4.68l2.75,3.02l5.76,1.92l9.52,5.12l16.16,0.56l2.62,-3.98l-0.01,7.06l3.65,0.35l0,0l-0.26,2.98l-1.6,1.46l0.86,1.48l-1.03,1.06l-10.88,-0.03l-7.32,-2.17l-13.25,-6.91l-2.71,-0.12l-1.85,-2.14l-4.35,-0.56l-6.65,-4.63l-5.37,-2.28l0,0L586.87,1106.23zM643.15,1087.62l5.67,3l5.07,-2.3l2.3,-3.53l5.22,1.54l4.45,6.6l0.46,3.99l-2.44,2.64l3.36,5.14l0.43,6.97l2.03,2.24l-0.25,3.62l-3.92,10.84l0.55,4.16l-1.27,0.87l-0.1,2.02l-5.39,11.39l-6.27,4.69l1,1.44l0,0l-2.03,-0.98l1.08,-3.49l-1.58,-4.47l-3.54,-1.86l-1.5,-3.56l-2.5,-0.46l0.45,-0.97l-1.15,-1.09l0.5,-2.64l1.94,0.93l1.03,-2.6l-0.48,-1.84l4.16,-2.22l-0.5,-1.29l1.86,-3.06l-1.35,-7.69l-2.35,-1.01l0,0l-0.37,-5.45l2.75,-4.89l-0.13,-2.37l-14.18,-5.08l2.84,-5.79h2l1.08,-3L643.15,1087.62z"/>
		<path id="PH-SIG" title="Siquijor" class="land" d="M529.39,881.5L531.48,881.93L533.5,886.17L535.3,887.19L533.14,889.62L536.46,892.87L534.94,894.62L532,894.27L530.73,896L528.22,896.55L526.12,896.07L518.33,889.34L519.62,887.07L521.83,887.83L526.13,886.89L528.48,885.07z"/>
		<path id="PH-SOR" title="Sorsogon" class="land" d="M554.4,601.65l1.69,-0.2l3.64,4.21l3.12,1.4l1.4,2.29l1.66,-4.29l1.77,-1.14l3.98,0.59l0.65,0.94l-0.06,1.44l-0.46,0.37l0.7,0.88l-1.85,1.12l-0.47,-1.74l-0.65,0.61l-1.09,6.26l-1.86,1.75l0.67,1.32l1.53,-0.3l0.64,6.41l-1.79,5.74l0.34,4.56l-3.01,2.55l1.14,3.05l-1.81,0.9l1.03,1.24l-1.33,2.21l-6.64,-0.63l-3.81,-4.06l-0.12,-2.01l-1.27,0.68l-0.58,-1.64l-2.52,-1.21l-3.27,-12.71l0.38,-0.66l2.04,-1.71l-0.36,-1.13l5.5,2.28l0.97,-2.3l2.74,-0.33l0.71,1.23l1.58,-0.99l1.8,-3.86l-1.4,-3.22l-3.99,1.31l-2,-0.21l-1.39,-1.6l-2.6,0.12l-0.18,2.12l-0.02,0.84l-1.65,1.21l-0.3,1.73l-1.31,-0.47l-0.58,2.12l-0.87,-1.07l-1.53,2.04l-2.44,-1.81l-0.06,1.73l-2.02,1.4l-0.42,-1.93l1.17,-0.82l-0.75,-1.09l-1.88,1.01l-0.14,0.37l-1.01,0.97l-1.45,-3.25l0.73,0.37l0.32,-0.92l-0.34,-0.47l-2.5,1.93l1.05,0.55l-0.71,1.42l-4.58,-2.53l-2.3,-2.98l-1.41,-0.33l-0.65,0.86l-3.54,-3.82l0,0l6.79,-3.12l3.97,1.53l3.01,-1.16l4.61,0.15l2.53,2.83l6.46,-4.05l3.41,-0.03l2.56,-5.72l0,0L554.4,601.65z"/>
		<path id="PH-SCO" title="South Cotabato" class="land" d="M586.87,1106.23L581.17,1104.23L578.49,1097.95L597.6,1097.42L601.34,1098.76L604.95,1092.7L604.65,1089.45L603.19,1088.55L603.3,1086.25L602.44,1086.3L601.91,1084.4L604.74,1076.63L605.73,1076.12L606.99,1078.19L612.56,1072.99L618.64,1083.08L644.97,1082.78L644.97,1082.78L645.11,1084.66L643.15,1087.62L643.15,1087.62L642.08,1088.04L641,1091.04L639,1091.05L636.16,1096.83L650.34,1101.91L650.47,1104.28L647.72,1109.17L648.09,1114.62L648.09,1114.62L642.57,1114.06L640.97,1120.22L638.06,1124.95L638.06,1124.95L634.41,1124.61L634.42,1117.54L631.8,1121.52L615.64,1120.96L606.12,1115.84L600.36,1113.92L597.61,1110.91z"/>
		<path id="PH-SLE" title="Southern Leyte" class="land" d="M641.53,784.73l3.09,3.3l-1.98,3.16l1.96,4.42l-0.9,3.27l2.57,3.22l1.82,-0.69l1.35,1.71l0.71,5.32l-1,2.91l-2.47,0.88l-6.4,-2.14l0.55,7.58l-0.77,0.79l2.52,2.1l3.55,0.41l2.3,6.33l2.62,3.48l-0.65,1.75l1.88,2.6l-0.44,1.42l-2.57,0.11l-0.56,-2.52l-1.84,-1.05l-2.72,-5.52l-3.66,-1.77l-1.35,-3.72l0.42,-4.74l-2.82,-2.91l-4.25,-11.06l-1.21,-0.88l-2.86,0.53l1.33,8.69l-0.69,3.03l3.37,9.18l0.3,6.08l-6.65,-5.6l-2.28,-0.61l-1.13,-2.32l-8.14,-0.89l-1.5,-1.84l0.19,-2.46l0,0l1.15,0.5l5.23,-5.01l3.81,-0.82l-0.49,-10.22l3.39,-8.79l8.21,0.03L641.53,784.73z"/>
		<path id="PH-SUK" title="Sultan Kudarat" class="land" d="M565.35,1067.27L577.35,1067L578.6,1069.14L595.18,1069.2L600.18,1063.94L598.47,1059.15L605.88,1057.57L605.69,1058.51L608.6,1058.67L606.46,1064.81L612.24,1064.93L614.59,1072.85L616.12,1074.56L622.37,1074.05L630.95,1069.39L630.95,1069.39L639.45,1066.8L639.45,1066.8L641.72,1068.53L640.27,1069.18L640.36,1072.28L643.84,1076.55L644.97,1082.78L644.97,1082.78L618.64,1083.08L612.56,1072.99L606.99,1078.19L605.73,1076.12L604.74,1076.63L601.91,1084.4L602.44,1086.3L603.3,1086.25L603.19,1088.55L604.65,1089.45L604.95,1092.7L601.34,1098.76L597.6,1097.42L578.49,1097.95L581.17,1104.23L586.87,1106.23L586.87,1106.23L586.87,1106.23L586.87,1106.23L583.66,1113.08L583.66,1113.08L581.7,1113.43L571.55,1106.44L570.28,1101.93L565.92,1098.51L563.88,1093.63L563,1092.96L562.13,1094.29L560.67,1090.91L561.14,1089.5L561.12,1088.85L559.85,1084.86L560.48,1084.13L559.55,1083.75L559.89,1082.7L561.18,1083.29L562.71,1082.24L560.66,1081.55L561.89,1076.17L559.21,1069.56L561.08,1067.2L561.08,1067.2z"/>
		<path id="PH-SLU" title="Sulu" class="land" d="M327.32,1156.69l1.26,2.5l-1.97,1.75l-0.51,-1.7L327.32,1156.69zM325.9,1159.65l-1.89,-0.56l2.36,-2.65L325.9,1159.65zM325.48,1152.92l1.16,0.96l-0.76,2.45l-2.89,1.74l-0.94,-2.25l1.37,-2.46L325.48,1152.92zM329.52,1151.59l3.98,3.41l-1.68,2.87l-1.8,0.82l-2.97,-2.68l-0.22,-1.38l0.66,-2.12L329.52,1151.59zM345.64,1144.65l-2.36,1.84l-2.05,-1.76l4.12,-0.92L345.64,1144.65zM330.69,1143.28l1.59,0.72l-2.04,1.87l-4.58,0.01l0.86,-2.57L330.69,1143.28zM340.6,1140.74l0.97,0.44l-0.48,1.15l-1.13,-0.62L340.6,1140.74zM334.43,1139.3l1.04,2.88l-3.15,1.6l-0.17,-3.46L334.43,1139.3zM351.02,1132.58l3.16,1.14l1.11,2.41l-3.2,1.55l-1.63,-0.58l-0.63,-1.91L351.02,1132.58zM263.27,1129.95l1.69,1.73l-3.03,-0.66L263.27,1129.95zM265.64,1131.18l3.64,-1.2l-0.89,1.26l-2.62,0.54L265.64,1131.18zM267.58,1126.08l-0.09,1.31l-0.07,0.85l-1.36,-0.72l0.47,-1.36L267.58,1126.08zM382.88,1123.41l0.79,1.75l-1.92,1.45l-0.89,-1.78l0.8,-0.88l0.31,-0.36L382.88,1123.41zM276.73,1124.87l-0.98,0.18l-1.49,-1.56l0.74,-1.09l1.32,0.69L276.73,1124.87zM380.71,1119.66l-0.04,1l-2.51,1.3l1.5,-3.12l1.16,0.01L380.71,1119.66zM370.7,1117.77l1.16,1.39l-0.52,1.37l-2.91,-0.07l-0.45,-1.42l1.67,-1.5L370.7,1117.77zM389.35,1117.77l1.15,1.27l2.72,0.41l-4.43,3.11l-1.09,-0.66l2.44,-2.28l-1.25,-0.84L389.35,1117.77zM373.33,1116.14l0.48,0.96l-1.12,0.93l-0.3,-1.56L373.33,1116.14zM348.4,1115.05l3.13,0.99l3.78,5.92l5.33,-1.69l2.72,1.26l3.35,-0.26l0.49,-0.05l1.69,-0.31l1.82,1.12l0.5,2.62l-2.74,1.35l-0.2,2.65l-2.28,-0.96l-4.91,4.44l-1.12,-0.92l0.82,-0.56l-3.25,-1.18l0.66,-2.01l-0.65,-1.2l-2.99,-1.23l-0.97,1.38l-0.79,-0.64l-0.67,1.37l-1.75,0.14l0.04,0.89l-3.85,1.35l-0.73,1.02l-3.68,-3.76l-6.14,2.89l-4.42,-2.26l-0.44,-2.5l3.41,-5.2l5.66,-2.04l1.46,-2.38L348.4,1115.05zM396.13,1114.9l3.53,3.81l3.32,1.51l6.26,-2.39l-2.78,2.51l-4.03,1.47l-5.77,-4.01l-1.47,-1.8L396.13,1114.9zM306.77,1111.12l1.41,1.33l-0.99,1.11l-0.99,-1.03L306.77,1111.12zM401.31,1110.9l0.79,2.03l-2.38,0.06l-0.24,-1.03L401.31,1110.9zM300.96,1109.1l0.63,0.75l-0.99,2.16l-2.74,-1.43L300.96,1109.1zM399.72,1108.84l0.99,2.01l-1.9,1.4l-0.76,-1.68L399.72,1108.84zM337.86,1106.69l1.92,0.95l-0.42,1.15l-1.67,0.36L337.86,1106.69zM315.32,1098.4l0.91,1.13l-0.32,1.96l-2.22,2.06l-0.87,-1.23l1.19,-1.69L315.32,1098.4zM330.36,1096.77l0.95,1.65l-2.44,0.81l0.32,-2.01L330.36,1096.77zM311.04,1093.04l-1.31,10.47l-3.29,0.85l-3.95,-1.09l0.14,-1.31l2.84,0.48l2.64,-7.84L311.04,1093.04zM319.35,1089.9l0.02,3l-3,-0.56l-0.08,-0.91L319.35,1089.9z"/>
		<path id="PH-SUN" title="Surigao del Norte" class="land" d="M676.29,850.25l2.57,0.42l-0.95,0.85l0.56,3.41l-1.07,-0.38l-0.53,-3.04l-1.42,0.48L676.29,850.25zM705.46,849.89l2.96,0.3l-0.04,1.43l-2.62,-0.26l-1.85,2.22l0.05,-1.53l-2.59,0.99l-0.55,-1.8l1.13,-0.47l-0.07,-1.15l1.89,2.13L705.46,849.89zM699.09,847.99l-0.25,1.78h1.54l0.12,-0.85l0.67,1.3l-0.83,0.47l0.17,2.5l1.71,0.29l0.36,1.57l-1.69,2.88l-0.34,4.07l-1.74,0.6l-0.04,-1.09l-2.51,-1.7l-1.14,-1.06l1.34,-0.84l0.3,-0.22l-0.24,-2.01l1.42,-0.07l-0.79,-2.95l0.67,-0.55l-1.37,-1.26l1.06,-0.54l-0.5,-2.02L699.09,847.99zM677.28,845.55l1.8,2.76l-2.49,-1.12l-0.64,-0.02L677.28,845.55zM682.8,845.54l1.65,0.81l-1.05,2.07l-1.85,-0.85l-0.36,-2.03l1.27,-0.26L682.8,845.54zM666.73,845.42l0.7,2.07l2.93,-0.27l0.9,1.27l1.26,-0.46l-0.69,1.25l1.69,1.57l-0.29,1.25l1.48,1.89l-0.68,1.13l0.65,1.56l0.23,0.68l3.29,2.3l2.4,-0.26l1.83,1.33l1.98,-0.51l0.06,1.91l7.62,1.79l2.12,1.6v1.47l3.1,0.29l0,0l-12.34,12.47l0,0l-0.52,-4.86l-3.91,-3.26l-9.07,-1.67l-5.23,0.18l-2.66,1.2l0,0l-4.51,-15.83l0.72,-8.13l2.82,-1.89l-0.2,-2.26l1.57,0.98l-0.61,1.45l1.52,-0.21L666.73,845.42zM677.33,836.51l0.11,3.94l1.08,0.94l2.18,-0.13l-7.1,3.4l0.37,-1.97l-1.15,0.83l-0.14,-1.42l3.08,-5.08L677.33,836.51zM668.11,836.88l2.74,3.58l-3.15,-1.8L668.11,836.88zM701.11,833.14l0.83,1.3l-0.67,1.93l-1.76,1.94l-1.35,0.54l-0.65,0.78l-0.89,-0.41l-0.16,-0.88l0.54,0.51l3.31,-3.31l-0.52,-0.47l1.58,-0.33L701.11,833.14zM707.77,825.66l4.29,13.65l-0.66,0.97l-0.97,0.46l0.12,0.27l1.68,1.25l1.35,-0.6l0.46,2.83l1.49,-0.04l-0.37,1.55l-3.59,2.81l-4.56,-0.48l-1.91,-1.24l-3.89,-2.98l-1.66,-1.71l0.76,-1.45l2.49,-0.1l-2.45,-1.75l1.18,-1.71l0.55,-1.66l2.77,-3.67l1.06,-2.14l-0.5,-1.72L707.77,825.66z"/>
		<path id="PH-BAS" title="Basilan" class="land" d="M412.14,1099.33l0.06,1.63l-0.73,0.16l-1.65,-0.68l0.4,-1.47L412.14,1099.33zM381.28,1070.58l-0.44,0.83l2.17,1.21l0.83,3.76l1.63,1.73l0.25,-2.58l0.55,-1.19l-3.18,-2.26L381.28,1070.58zM414.15,1097.74l1.71,0.12l-0.87,-1.63L414.15,1097.74zM411.87,1097.06l-0.74,-1.65l-1.9,0.81l0.64,1.13L411.87,1097.06zM435.18,1074.86l-2.96,0.2l-2.24,-1.71l-6.62,-0.28l-0.54,-3.41l-2.86,0.26l-2.48,-2.78l-1.96,0.65l-1.16,-0.27l-2.04,0.7l-4.86,4.72l-2.86,1.09l-3.75,-1.71l-2.16,2.14l-0.71,3.23l2.2,1.69l1.93,-0.36l2.06,2.12l-1.06,1.16l0.39,2.83l2.36,1.54l1.2,2.64l2.8,1.19l-0.13,1.7l5.98,-0.35l10.4,-2.98l1.05,-1.03l-0.34,-3.93l1.55,-4.32l1.88,-1.05l4.76,0.32l1.73,-2.46L435.18,1074.86zM412.34,1067.52l-0.89,-0.65l-2.14,0.89l-0.69,2.32l1.65,-0.34L412.34,1067.52z"/>
		<path id="PH-ZAS" title="Zamboanga del Sur" class="land" d="M479.4,982.3l3.37,0.31l8.39,-6.12l6.47,0.18v-4.04l1.9,-4l0.55,-9.71l10.72,0.56l2.46,1.23l12.14,-0.04l0,0l1.01,12.39l2.81,1.49l2.44,-0.51l0.08,1.31l0,0l0.31,0.73l0.2,0.83l0.09,1.21l1.84,1.63l0,0l-3.53,9.1l0,0l-4.06,-1.68l-7.57,2.93l-2.71,-0.29l0.52,2.45l-0.74,0.93l1.83,0.36l-0.18,1.23l2.79,1.35l-0.3,4.34l-1.07,2.86l-5.72,1.65l0.29,3.7l-2.36,-1.7l-1.39,1.88l3.25,1.35l-0.09,3.14l1.1,2.38l1.2,-0.61l2.8,2.37l-0.98,1.76l1.14,2.64l-2.18,0.08l-0.51,1.04l-2.53,-1.24l-0.46,-1.69l-3.21,-1.22l-0.67,-1.88l-2.66,-1.86l1.21,-4.57l-5.56,-0.62l-3.07,2.49l1.16,1.43l-1.56,1.4l-1.1,-1.16l0.6,-0.95l-3.93,-1.39l-0.93,-3.33l1.86,-0.44l0.13,-1.04l-2.41,-1.63l1.77,-0.16l1.09,2.02l2.8,0.13l1.52,-1.17l-1.39,-3.58l-2.71,-0.21l0.26,-0.85l-1.17,-0.55l1.29,-1.88l-0.48,-1.76l-1.66,-1.55l-1.3,2.12l0,0l-0.88,-7.67l-12.31,-1.56L479.4,982.3z"/>
	</g>
</svg>