<?xml version="1.0" encoding="utf-8"?>
<!-- (c) ammap.com | SVG map of Romania - Low -->
<svg xmlns="http://www.w3.org/2000/svg" xmlns:amcharts="http://amcharts.com/ammap" xmlns:xlink="http://www.w3.org/1999/xlink" version="1.1">
	<defs>
		<style type="text/css">
			.land
			{
				fill: #CCCCCC;
				fill-opacity: 1;
				stroke:white;
				stroke-opacity: 1;
				stroke-width:0.5;
			}
		</style>

		<amcharts:ammap projection="mercator" leftLongitude="20.262217" topLatitude="48.2623309" rightLongitude="29.713041" bottomLatitude="43.617249"></amcharts:ammap>

		<!-- All areas are listed in the line below. You can use this list in your script. -->
		<!--{id:"RO-AB"},{id:"RO-AG"},{id:"RO-AR"},{id:"RO-BC"},{id:"RO-BH"},{id:"RO-BN"},{id:"RO-BR"},{id:"RO-BT"},{id:"RO-B"},{id:"RO-BV"},{id:"RO-BZ"},{id:"RO-CJ"},{id:"RO-CL"},{id:"RO-CS"},{id:"RO-CT"},{id:"RO-CV"},{id:"RO-DB"},{id:"RO-DJ"},{id:"RO-GJ"},{id:"RO-GL"},{id:"RO-GR"},{id:"RO-HD"},{id:"RO-HR"},{id:"RO-IF"},{id:"RO-IL"},{id:"RO-IS"},{id:"RO-MH"},{id:"RO-MM"},{id:"RO-MS"},{id:"RO-NT"},{id:"RO-OT"},{id:"RO-PH"},{id:"RO-SB"},{id:"RO-SJ"},{id:"RO-SM"},{id:"RO-SV"},{id:"RO-TL"},{id:"RO-TM"},{id:"RO-TR"},{id:"RO-VL"},{id:"RO-VN"},{id:"RO-VS"}-->

	</defs>
	<g>
		<path id="RO-AB" title="Alba" d="M164.84,522.87L166.15,524.54L169.47,525.42L173.32,523.66L178.04,524.12L179.34,525.78L179.77,528.86L180.88,529.39L180.46,531.83L183.33,531.89L184.29,529.69L187.79,528.13L189.17,527.96L189.51,529.28L192.68,529.89L199.1,526.41L200.42,524.59L202.22,524.34L206.89,527.16L208.73,529.67L209.84,529.29L211.82,530.59L215.62,529.43L217.11,531.49L215.18,533.88L214.83,536.38L215.38,537.3L218.47,538.17L221.09,537.59L219.47,535.65L221.01,535.81L220.5,534.44L222.43,533L224.25,533.38L229.73,532L230.92,532.33L231.37,533.82L233,534.09L239.64,532.77L239.64,532.77L240.37,534.93L241.95,535L243.33,532.84L244.56,532.7L243.54,537.86L241.98,539.51L242.63,540.97L247.3,544.34L250.7,544.36L251.56,547.82L254.97,549.61L254.97,551.08L256.37,550.88L258.54,552.75L258.54,552.75L254.75,555.01L255.31,555.85L254.23,558.48L255.99,559.9L255.77,560.77L251.79,562.78L249.51,562.95L247.83,565.91L245.81,567.23L246.19,568.11L244.43,570.46L244.88,572.36L242.29,573.93L242.23,575.38L239.71,571.34L235.07,571.33L232.34,574.31L233.65,575.17L232.92,577.1L233.41,578.91L231.53,580.03L230.14,582.36L224.78,583.07L225.39,583.62L224.66,585.06L225.85,586.03L224.51,591.96L222.63,591.57L218.94,593.65L218.16,595.37L220.99,597.7L219.62,598.13L218.68,600L216.09,601.03L215.4,603.14L215.57,605.74L219.29,609.04L218.58,611.26L219.46,612.45L217.66,613.71L216.98,615.83L218.63,617.31L219.59,619.89L219.99,624.3L218.21,624.84L218.21,624.84L215.88,624.45L215.88,624.45L214.35,619.4L211.86,617L210.44,617.11L209.72,614.55L204.83,613.56L204.92,610.1L202.26,608.72L204.41,605.63L200.75,602.15L202.06,598.21L200.02,596.09L198.66,591.46L198.84,586.06L197.16,583.11L194.5,581.54L191.12,574.03L191.62,572.2L188.62,572.87L186.55,571.06L184.98,571.36L182.98,570.22L182.3,567.56L183.07,566.21L181.06,562.14L182.35,561.46L183.71,562.08L183.37,558.25L181.97,557.76L180.67,555.76L179.45,556.52L176.18,554.64L173.85,550.64L174.76,548.84L172.89,544.89L165.04,545.14L162.96,542.84L161.33,542.67L161.33,542.67L157.95,541.65L156.88,539.66L156.88,539.66L155.98,535.36L157.38,533.3L156.11,530.31L156.33,526.77L159.37,524.59L157.53,523.45L157.57,522.24L160.67,519.99z"/>
		<path id="RO-AG" title="Argeș" d="M286.61,612.23L295.16,611.73L296.44,613.23L300.06,612.82L302.7,613.87L304.24,613.01L307.28,613.78L309.09,612.92L313.44,614.15L318.44,618.96L321.88,620.13L322.23,623.79L323.5,625.68L323.36,628.66L325.45,629.27L326.49,628.64L326.73,631.72L327.62,632.54L327.62,632.54L327.89,634.96L326.53,640.73L324.89,642.78L325.65,646.95L322.65,648.11L322.97,651.02L321.17,651.8L319.67,650.8L316.77,646.17L315.49,647.52L315.52,649.4L316.9,649.67L316.14,654.33L317.16,654.8L316.84,655.84L318.16,657.88L317.29,660.47L315.74,659.86L315.03,661.86L316.2,663.76L317.45,663.46L318.09,664.8L319.03,664.78L319.73,666.98L318.18,668.68L317.55,672.21L319.54,680.19L319.8,685.81L318.44,693.16L321.43,694.85L319.27,698.12L317.47,698.37L319.92,700.8L319.4,702.58L324.21,707.67L324.58,710.04L323.51,711.68L324.8,714.73L324.04,715.63L324.37,717.71L323.59,718.36L320.6,717.79L320.6,717.79L311.42,721.91L306.52,721.57L304.29,723.79L297.44,724.3L296.31,723.19L294.53,723.83L294.53,723.83L294.09,723L290.87,723.06L289.48,721.1L289.68,716.37L288.78,713.36L289.57,710.22L289.28,706.42L288.38,705.1L289.26,703.15L286.47,695.3L287.69,693.86L287.77,691.67L282.4,691.91L280.4,689.8L280.07,685.87L279.14,685.6L277.21,680.4L277.23,677.18L275.97,677.1L273.82,681.1L273.9,683.43L269.77,683.74L270.57,681.92L269.8,681.2L269.8,681.2L272.81,676.82L272.15,675.45L273.54,672.09L272.24,672.22L274.64,667.81L273.93,666.65L275.21,663.01L273.38,661.24L274.98,659.76L274.54,658.67L273.57,658.7L273.63,657.33L275.14,657.42L275.7,655.13L274.47,653.23L275.49,652.56L275.69,650.86L272.28,646.38L274.35,640.26L273.78,637.51L272.61,637.29L273.63,636.46L273.96,633.6L272.31,632.67L270.28,624.45L273.91,618.69L273.69,614.88L273.69,614.88L274.71,613.84L278.65,614.37L281.98,612.42L285.6,612.88z"/>
		<path id="RO-AR" title="Arad" d="M76.43,514.31L80.76,514.08L81.11,516.01L81.92,515.55L82.78,516.72L83.6,516.01L84.16,516.65L84.83,514.71L87.96,515.07L89.58,513.3L99.22,514.09L103.36,513.04L104.6,511.74L106.75,513.52L104.93,516.3L109.52,517.73L112.43,516.91L114.04,514.14L114.91,515.57L116.08,515.64L116.1,516.79L119.67,517.72L119.94,518.98L123.48,519.08L123.2,522.02L124.19,525.77L126.85,530.12L128.05,529.37L129.39,530.26L136.32,531.01L136.71,534.48L140.41,538.86L143.08,538.8L143.93,540.2L145.08,539.47L145.58,537.6L156.88,539.66L156.88,539.66L157.95,541.65L161.33,542.67L161.33,542.67L159.18,544.63L156.39,545.58L155.01,553.96L148.99,553.93L148.43,554.86L146.04,555.34L144.39,552.95L140.88,555.87L141.9,558.94L144.54,561.09L142.33,562.12L142.2,563.38L139.11,566.14L140.33,567.16L140.58,574.45L138.03,574.44L137.43,575.81L135,575.54L134.57,576.59L136.17,579.33L140.08,579.68L140.47,580.47L138.98,582.89L138.98,582.89L135.05,580.49L134.39,577.87L133.17,577.94L132.03,581.56L128.07,579.91L126.47,583.19L123.67,582.03L121.01,583.01L120.77,581.23L112.8,577.87L112.48,575.52L107.95,576.57L107.16,578.62L105.5,579.85L104.05,578.81L102.51,580.18L101.34,579.08L99.27,581.77L97.83,581.57L97.84,580.47L95.45,580.21L94.7,578.36L92.63,581.31L92.52,583.3L91.09,584.08L90.56,581.29L88.77,580.31L88.84,577.85L81.62,574.32L81.88,571.38L80.24,569.03L75.87,573.23L71.94,575.07L71.02,577.4L70.14,577.45L69.24,575.13L66.51,573.56L66.94,574.77L64.81,575.32L63.72,578.16L60.05,576.62L58.26,574.07L57.25,574.14L56.87,575.85L54.82,577.33L53.18,575.44L52.18,571.68L49.39,572.58L46.62,571.27L44,571.82L42.35,568.51L36.89,567.11L33.44,563.83L32.92,562.11L30.05,562.09L29.29,560.68L28.11,560.55L28.11,560.55L29.24,559.9L30.24,555.96L32.22,556.19L31.62,552.22L33.29,549.62L39.5,548.53L42.32,550.87L42.85,549.6L44.12,549.4L44.56,550.69L49.2,550.47L50.03,552.04L51.8,552.57L54.33,550.83L55.09,547.29L58.91,547.41L59.17,544.09L60.65,542.76L61.07,537.79L62.16,536.72L66.81,537.36L66.46,536.56L67.95,534.1L66.91,530.91L65.48,530.79L64.62,528.51L65.57,524.7L66.6,524.32L68.46,520.92L67.34,520.1L68.07,517.58L71.51,515.73L74.31,517.12L74.95,514.94z"/>
		<path id="RO-BC" title="Bacău" d="M370.14,510.77L371.49,509.62L376.11,509.4L376.61,513.81L378.06,514.71L380.62,513.64L381.63,515.25L385.24,514.15L386.81,510.65L388.7,509.51L390.67,514.04L394.02,515.25L399.63,511.77L403.14,511.67L404.29,510.32L405.77,510.52L407.79,512.79L410.5,509.59L414.99,506.83L415.75,503.46L418.95,503.76L419.44,502.28L421.91,507.14L423.89,506.55L424.52,503.85L426.42,502.5L426.74,500.24L427.86,499.53L427.9,497.56L430.86,498.55L430.38,500.57L429.42,500.68L430.76,501.03L431.24,502.76L432.18,501.86L432.87,504.56L439.18,503.07L440.28,504.27L442.34,502.95L443.86,505.25L445.68,504.89L446,506.55L447.6,504.38L448.92,504.19L448.92,504.19L456.6,510.23L455.47,512.41L456.64,514.37L454.13,517.01L457.53,520.67L461.02,527.55L463.55,535.7L465.36,538L467.14,544.72L466,546.73L466.71,552.57L467.78,556.82L469.09,557.75L467.39,561.7L467.39,561.7L465.96,560.45L465.24,558.04L463.91,557.5L461.57,557.51L460.21,560.62L457.19,559.31L456.66,556.48L455.5,557.08L453.19,556.4L453.67,558.2L452.51,558.94L450.12,557.78L448.98,559.54L447.42,558.51L447.31,559.62L444.2,561.73L444.33,562.83L445.76,563.1L445.2,564.45L445.8,565.08L445.1,565.71L441.94,564.59L441.45,567.25L435.66,564.67L431.94,569.31L428.06,567.51L424.52,568.83L418.97,566.59L413.89,568.08L408.15,573.21L399.88,571.31L399.88,571.31L399.08,569.08L399.94,567.94L398.99,566.34L396.31,566.41L393.42,564.09L393.58,556.61L392.35,553.52L388.42,552.35L388.42,552.35L387.91,549.97L389.71,547.57L390.02,544.24L388.34,543.56L385.07,546.23L381.61,546.26L383.17,539.85L382.54,539.16L383.56,537.79L375.52,537.39L370.67,534.49L373,532.4L372.45,531.64L373.27,530.46L375.83,529.15L376.17,527.92L375.56,525.4L371.31,518.94L370.99,517.45L372.18,514.88z"/>
		<path id="RO-BH" title="Bihor" d="M124.61,423.42L127.06,424.59L128.07,427.37L129.41,427.81L129.1,430.14L131.31,430.19L131.3,433.31L135.17,435.11L134.24,435.88L135.78,440.92L138.91,440.3L140.49,441.61L143.84,440.17L146.08,441.28L146.91,443.63L148.87,443.88L149.47,446.16L151.85,448.52L151.85,448.52L151.84,450.28L148.27,451.77L147.81,458.93L146.21,459.92L145.65,463.26L144.45,464.35L145.18,465.32L146.8,465.38L147.25,468.12L148.94,469.8L148.18,470.91L149.73,474.19L151.83,473.69L153.49,476.43L156.87,476.87L157.56,478.04L159.13,477.6L159.36,481.02L159.36,481.02L156.6,484.48L156.59,487.33L163,491.61L159.42,499.11L155.85,500.49L155.04,502.71L158.67,504.45L158.35,506.17L160.9,510.87L158.96,512.69L156.79,512L154.58,513.35L156.62,514.96L158.66,513.39L160.82,513.75L163.27,515.51L163.46,516.89L164.7,516.5L165.54,519.24L164.84,522.87L164.84,522.87L160.67,519.99L157.57,522.24L157.53,523.45L159.37,524.59L156.33,526.77L156.11,530.31L157.38,533.3L155.98,535.36L156.88,539.66L156.88,539.66L145.58,537.6L145.08,539.47L143.93,540.2L143.08,538.8L140.41,538.86L136.71,534.48L136.32,531.01L129.39,530.26L128.05,529.37L126.85,530.12L124.19,525.77L123.2,522.02L123.48,519.08L119.94,518.98L119.67,517.72L116.1,516.79L116.08,515.64L114.91,515.57L114.04,514.14L112.43,516.91L109.52,517.73L104.93,516.3L106.75,513.52L104.6,511.74L103.36,513.04L99.22,514.09L89.58,513.3L87.96,515.07L84.83,514.71L84.16,516.65L83.6,516.01L82.78,516.72L81.92,515.55L81.11,516.01L80.76,514.08L76.43,514.31L76.43,514.31L77.24,513.01L76.24,512.52L75.7,510.44L78.3,510.3L79.64,511.19L81.94,507.95L81.82,506.17L79.09,503.62L81.39,500.3L81.48,496.9L86.65,494.32L87.51,492.26L86.55,488.35L89,487.78L91.8,484.92L90.91,484.14L92.28,481.38L89.7,477.65L91.84,477.14L94.71,472.17L99.03,471.21L100.61,465.19L103.27,463.64L102.82,458.96L105.18,455.5L104.62,454.14L108.55,446L113.07,445.67L114.61,442.44L114.52,438.59L112.92,436.19L113.8,432.36L115.4,430.17L116.43,431.15L117.03,430.38L116.06,429.21L118.69,428.14L120.83,424.61L123.53,425.13z"/>
		<path id="RO-BN" title="Bistrița-Năsăud" d="M243.45,447.25L244.18,445.99L245.83,445.52L246.8,442.62L248.98,441.03L250.3,434.02L254.87,433.35L257.71,434.04L258.23,432.47L260,431.47L261.62,426.86L265.11,427.17L267.02,423.96L271.59,424.92L278.01,427.94L282.66,427.19L285.63,428.66L288.85,426.9L294.34,427.14L294.71,425.07L296.88,424.06L297.91,425.19L300.07,424.27L303.45,424.88L303.45,424.88L304.73,424.99L308.47,428.06L307.82,429.58L309.6,432.45L312.71,434.5L309.86,436.98L311.2,438.22L310.71,440.39L309.11,440.97L308.02,440.06L307.29,441.29L307.26,442.63L309.38,445.49L311.21,446.25L310.79,447.81L311.8,451.66L309.11,453.92L310.65,456.61L309.36,461.81L310.62,462.65L311.22,468.52L311.22,468.52L308.22,470.86L303.69,470.38L302.5,471.86L299.13,471.74L295.14,474.86L293.04,477.61L291.76,481.89L289.83,483.76L288.71,487.98L290.13,489.16L289.19,489.34L289.04,490.65L287.46,491L284.31,489.81L282.29,486.05L282.09,487.13L280.47,487.19L279.74,489.64L277.87,489.74L278.31,490.73L276.56,490.58L276,495.48L274.61,495.6L274.72,496.83L272.44,497.83L271.34,503.64L269.44,502.75L265.88,505.1L264.96,504.14L261.17,504.92L253.75,500.25L253.75,500.25L254.19,497.73L255.6,496.94L255.85,492.5L257.52,492.1L254.62,489.42L254.57,488.11L252.44,488.27L251.73,485.6L249.37,485.18L248.74,481.55L249.56,479.85L248.41,479.04L250.83,473.74L248.37,469.26L245.39,469.81L244.12,468.47L244.36,466.71L243.15,464.73L242.2,464.93L242.14,465.97L241.22,464.58L238.76,464.36L237.87,462.87L237.34,453.21L238.71,451.96L240.81,453.32L243.8,450.91z"/>
		<path id="RO-BR" title="Brăila" d="M472.18,623.08L472.85,622.36L475.18,623.05L475.93,625.08L478.9,622.42L479.1,624.21L480.97,623.35L480.59,625.08L482.63,625.28L482.24,626.36L483.57,626.02L483.65,626.9L484.83,626.43L484.33,629.49L486.88,628.77L487.09,630.07L489.05,631.27L492.3,631.07L491.86,630.57L493.6,628.92L500.01,631.63L500.62,630.71L502.91,630.47L502.91,630.47L502.79,634.57L500.84,641.08L504.83,644.19L507.25,644.64L508.57,643.87L509.53,646.07L507.05,650.12L513.87,655.05L512.07,656.26L512.46,658.25L509.87,658.27L510.94,664.24L509.37,666.17L510.84,669.94L509.08,675.41L510.25,677.47L507.59,679.9L505.86,685.51L505.86,685.51L503.27,689.1L500.94,689.29L497.87,687.49L493.21,689.21L493.21,689.21L492.96,688.05L490.17,687.65L482.42,688.92L473.83,687.17L470.13,687.22L470.02,688.26L468.75,688.17L464.23,687.47L464.05,686.69L461.75,687.96L459.17,686.46L459.51,685.45L456.78,685.25L453.69,690.7L450.17,688.11L449.68,686.25L449.68,686.25L448.29,684.81L450.03,684.75L450.97,680.59L449.63,679.55L449.85,678.9L451.49,679.45L453,674.01L451.55,673.53L452.12,671.56L454.24,671.46L454.07,668.08L452.03,667.87L451.79,665.16L449.07,664.88L449.64,658.95L447.24,658.3L445.96,651.8L442.17,654.08L440.81,652.59L446.96,645.29L454.61,649.25L457.02,646.97L457.9,647.72L458.9,646.41L458.01,645.75L458.73,644.58L457.71,644.06L460.46,642.92L460.26,641.69L461.49,641.15L460.85,637.34L462.75,636.15L462.21,634.28L464.82,633.09L464.4,631.39L464.4,631.39L464.12,630.38L467.98,628.58L468.22,626.87z"/>
		<path id="RO-BT" title="Botoșani" d="M418.1,362.08L422.39,362.66L423.98,361.52L425.48,364.24L426.8,363.53L428.99,366.57L430.45,366.59L429.46,367.52L430.16,368.57L431.27,368.44L430.9,366.83L432.79,367.19L432.13,370.07L435.82,371.43L435.07,372.14L433.45,371.42L433.74,373.16L436.42,374.25L437.58,372.7L437.92,374.03L438.84,373.47L438.91,376.06L438.01,377.43L441.49,380.9L441.77,382.45L443.06,382.72L442.29,385.18L444.31,384.48L444.42,386.56L446.86,386.51L445.55,389.14L447.84,391.19L446.09,393.68L449.25,395.51L449.95,400.59L452.47,402.15L451.53,403.04L450.73,402.32L450.34,403.66L451.99,403.88L451.41,405.6L452.5,405.95L452.75,407.54L453.56,407.36L453.48,409.26L454.46,408.83L454.47,410.26L455.65,410.28L454.53,411.47L455.2,412.9L453.54,411.94L452.54,413.15L454.66,415.01L454.02,416.03L455.5,416.89L455.39,418.58L456.74,420.58L459.62,422.69L461.62,425.59L461.62,425.59L457.13,426.59L454.93,428.27L453.05,427.6L452.46,428.26L453.46,430.73L450.92,431.64L447.26,431.73L447.07,430.15L445.56,431.6L442.66,429.23L441.31,433.8L441.48,437.47L440.45,437.1L438.99,439.8L436.19,434.89L426.32,434.54L419.76,432.05L418.58,432.88L419.05,434.83L416.8,434.78L415.59,436.89L415.59,436.89L409.93,438.11L409.83,435.05L407.31,433.42L410.61,432.17L410.66,431.07L408.95,430.77L407.78,426.63L406.64,426.25L406.38,424.76L407.32,423.74L406.21,420.92L406.96,420.51L402.87,418.4L403.05,416.59L401.7,416.01L401.86,415.19L401.19,415.67L400.52,413.22L398.59,413.26L398.68,412.48L397.17,411.8L396.8,410.72L397.82,409.26L395.75,408.31L392.21,404.01L392.59,402.41L391.09,402L391.62,400.69L390.58,399.27L389.8,399.93L389.09,397.91L386.36,395.66L384.43,397.26L383.54,396.41L383.44,393.73L379.71,392.48L376.95,387.41L376.95,387.41L378.65,387.9L384.17,385.87L385.42,380.94L389.42,377.92L390.97,372.92L393.33,370.45L392.86,368.55L394.14,367.43L394.97,367.93L396.07,366.76L396.61,367.82L397.5,367.67L401.16,365.96L402.05,364.58L405.85,365.62L407.35,364.05L408.67,364.6L409.01,362.3L411.81,362.65L411.53,361.59L412.43,361.89L412.69,360.86L413.89,361.79L414.65,360.68L414.83,362.29L417.15,360.47z"/>
		<path id="RO-B" title="București" d="M387.42,719.48L387.42,719.48L383.09,718.06L384.46,715.93L379.97,715.23L379.25,710.36L375.56,710.58L372.51,711.92L372.26,713.56L370.74,714.26L370.58,716.47L372.92,717.84L373.13,719.12L369.76,719.28L370.53,722.43L373.21,722.88L375.46,725.25L378.64,726.72L379.7,726L381.56,728.75L383.37,728.08L381.81,725.12L383.04,722.81L386.02,722.25z"/>
		<path id="RO-BV" title="Brașov" d="M317.95,559.86L319.06,559.54L323.17,562.42L323.91,559.83L326.27,558.47L327.71,559.48L328.83,559.18L330.72,560.93L330.88,562.88L334.89,563.31L336.17,564.63L336.17,564.63L335.61,567.67L338.76,571.67L342.52,570.53L344.44,572.89L343.07,575.99L342.25,575.77L341.67,580.71L342.85,582.74L342.5,584.72L345.8,585.49L345.23,586.62L343.05,586.81L343.97,587.67L343.44,589.04L344.25,591.29L345.95,591.31L347.32,593.21L348.49,593.2L348.1,593.83L350.19,595.24L350.81,597.69L351.85,597.56L352.28,596.23L354.35,596.04L355.42,597.45L357.75,597.38L360.04,598.61L359.94,599.67L362.74,602.54L365.63,602.32L365.95,603.16L369.34,604.31L370.16,606.2L368.98,607.78L372.71,608.88L372.26,610.76L375.04,610.75L377.45,613.23L377.43,620.11L377.43,620.11L374.38,623.52L374.38,623.52L371.15,620.31L366.45,620.26L365,621.84L364.15,626.65L362.85,628.58L360.39,627.9L359.28,624.81L357.81,623.61L353.89,625.24L353.6,624.35L348.54,622.92L345.97,623.81L344.94,625.19L339.22,624.78L336.75,625.75L335.9,627.06L335.9,627.06L335.9,627.06L335.9,627.06L333.51,628.28L333.02,631.99L327.62,632.54L327.62,632.54L326.73,631.72L326.49,628.64L325.45,629.27L323.36,628.66L323.5,625.68L322.23,623.79L321.88,620.13L318.44,618.96L313.44,614.15L309.09,612.92L307.28,613.78L304.24,613.01L302.7,613.87L300.06,612.82L296.44,613.23L295.16,611.73L286.61,612.23L286.61,612.23L286.02,602.17L282.94,593.71L286.7,590.75L292,590.33L292.29,588.25L288.56,585.05L287.49,581.07L288.67,580.48L290.97,581.6L292,577.77L296.27,577.37L296.12,574.83L298.12,574.4L299.72,571.18L303.3,569.16L303.1,567.98L303.1,567.98L303.85,565.23L307.78,561.74L310.62,562.42L313.15,561.34L315.92,562.56L316.55,560.7z"/>
		<path id="RO-BZ" title="Buzău" d="M396.81,593.88L400.08,596.12L399.71,599.73L402.2,601.48L401.9,602.97L406.78,609.58L408.73,609.29L410.09,610.52L412.91,609.45L414.85,613.75L416.92,613.44L419.93,616.98L422.87,617.06L425.58,619.84L429.55,619.46L430.35,618.49L432.83,619.21L434.49,618.63L438.33,625.67L440.95,626.47L443.38,624.45L444.33,624.93L443.21,627.19L444.29,627.04L446.72,629.21L449.45,627.09L450.78,628.36L451.98,628.13L454.34,625.94L453.47,629.08L453.91,632.57L455.86,634.02L456.3,633.24L462.27,632.93L464.4,631.39L464.4,631.39L464.82,633.09L462.21,634.28L462.75,636.15L460.85,637.34L461.49,641.15L460.26,641.69L460.46,642.92L457.71,644.06L458.73,644.58L458.01,645.75L458.9,646.41L457.9,647.72L457.02,646.97L454.61,649.25L446.96,645.29L440.81,652.59L442.17,654.08L445.96,651.8L447.24,658.3L449.64,658.95L449.07,664.88L451.79,665.16L452.03,667.87L454.07,668.08L454.24,671.46L452.12,671.56L451.55,673.53L453,674.01L451.49,679.45L449.85,678.9L449.63,679.55L450.97,680.59L450.03,684.75L448.29,684.81L449.68,686.25L449.68,686.25L446.23,686.82L445.91,688.83L448.89,690.01L448.03,691.94L445.32,690.89L445.03,691.52L442.71,690.67L443.52,687.47L437.59,684.24L436.01,686.37L436.25,687.62L429.01,684.09L428.17,685.66L426.06,685.81L425,687.24L422.77,686.4L421.41,684.36L412.37,684.52L410.97,680.36L410.97,680.36L404.98,674.81L408.71,672.55L408.81,670L407.81,670.59L406.16,667.35L403.92,668.44L401.36,660.75L400.5,660.87L401.71,658.32L400.79,657.41L402.11,653.35L399.78,650.44L395.23,652.72L393.85,649.58L394.71,647.84L393.13,647.5L391.46,649.03L388.69,648.79L386.15,642.16L385.13,641.97L385.02,640.29L386.37,639.45L386.46,638.03L384.09,635.17L380.85,634.14L378.54,630.09L374.68,627.55L375.03,624.07L374.38,623.52L374.38,623.52L377.43,620.11L377.43,620.11L380.33,619.7L383.09,615.02L383.53,611.84L385.31,610.61L387.4,610.74L389.63,613.83L391.66,611.71L392.82,609.75L394.21,601.12L396.54,599.96z"/>
		<path id="RO-CJ" title="Cluj" d="M231.91,449.7L231.23,448.49L232.73,446.45L234.57,446.41L235.86,447.9L242.01,446.62L243.45,447.25L243.45,447.25L243.8,450.91L240.81,453.32L238.71,451.96L237.34,453.21L237.87,462.87L238.76,464.36L241.22,464.58L242.14,465.97L242.2,464.93L243.15,464.73L244.36,466.71L244.12,468.47L245.39,469.81L248.37,469.26L250.83,473.74L248.41,479.04L249.56,479.85L248.74,481.55L249.37,485.18L251.73,485.6L252.44,488.27L254.57,488.11L254.62,489.42L257.52,492.1L255.85,492.5L255.6,496.94L254.19,497.73L253.75,500.25L253.75,500.25L254.2,501.21L246.2,506.43L247.09,508.38L249.89,509.78L249.76,510.93L248.64,513.56L246.09,513.88L243.39,516.5L243.39,517.72L246.52,518.64L244.02,523.39L243.93,525.48L241.42,524.72L239.36,527.02L239.64,532.77L239.64,532.77L233,534.09L231.37,533.82L230.92,532.33L229.73,532L224.25,533.38L222.43,533L220.5,534.44L221.01,535.81L219.47,535.65L221.09,537.59L218.47,538.17L215.38,537.3L214.83,536.38L215.18,533.88L217.11,531.49L215.62,529.43L211.82,530.59L209.84,529.29L208.73,529.67L206.89,527.16L202.22,524.34L200.42,524.59L199.1,526.41L192.68,529.89L189.51,529.28L189.17,527.96L187.79,528.13L184.29,529.69L183.33,531.89L180.46,531.83L180.88,529.39L179.77,528.86L179.34,525.78L178.04,524.12L173.32,523.66L169.47,525.42L166.15,524.54L164.84,522.87L164.84,522.87L165.54,519.24L164.7,516.5L163.46,516.89L163.27,515.51L160.82,513.75L158.66,513.39L156.62,514.96L154.58,513.35L156.79,512L158.96,512.69L160.9,510.87L158.35,506.17L158.67,504.45L155.04,502.71L155.85,500.49L159.42,499.11L163,491.61L156.59,487.33L156.6,484.48L159.36,481.02L159.36,481.02L163.44,481.58L168.11,480.66L169.42,482.52L171.47,483.05L170.67,484.13L170.77,487.03L172.32,487.72L173.29,489.87L175.09,491.01L177.45,490.5L178.14,492.09L179.34,490.89L179.88,492.89L181.49,490.69L183.2,492.04L182.15,494.85L183.92,495.55L187.42,493.77L190.09,494.05L191.45,491.93L190.96,486.3L192.3,485.47L194.37,490.17L195.68,489.94L196.8,490.98L198.23,489.95L199.03,490.31L202.04,486.83L201.27,485.25L202.15,485.04L202.02,484.14L203.92,483.41L203.1,483.25L203.5,482.51L206.06,482.65L207.97,480.42L207.69,479.51L208.72,479.22L207.94,476.36L205.17,473.17L208.71,473.08L208.41,471.31L209.9,471.06L210.01,470.09L209,467.14L212.79,466.78L213.71,464.41L216.42,465.97L218.36,464.45L217.99,463.16L219.64,460.63L223.89,457.41L224.37,458.26L225.5,457.71L226.22,455.68L230.41,458.56L228.99,454.9z"/>
		<path id="RO-CL" title="Călărași" d="M398.43,711.16L401.7,708.69L399.73,708.44L402.65,705.33L404.84,706.79L406.79,709.92L409.79,711L414.31,704.16L415.24,704.74L414.77,706.03L417.09,706.85L416.83,709.11L417.71,710.03L420.11,710.64L420.62,708.31L421.78,708.4L421.51,711.25L423.69,712.11L425.24,710.37L426.14,710.52L426,711.42L429.32,710.64L429.39,711.55L433.4,710.26L438.11,710.15L437.99,712.29L441.9,711.96L441.96,714.23L444.87,714.38L445.24,712.74L449.71,714.24L450.16,711.69L451.26,712.31L451,713.63L453.26,714.1L454.14,711.87L455.17,712.03L455.14,713.85L459.27,714.3L459.72,711.55L461.81,712.56L461.72,713.41L469.87,713.22L470.34,709.02L471.6,709.17L471.8,707.29L472.59,707.27L473.37,707.68L473.8,715.28L478.45,716.01L478.79,719.24L483.57,720.62L486.08,722.59L484.74,723.65L485.57,725L484.9,725.49L486.51,727.31L487.51,726.37L488.2,727.48L489.73,727.7L491.71,723.98L502.14,727.54L502.14,727.54L500.69,730.83L496.85,735.62L488.46,736.43L483.58,740.4L477.89,739.76L475.24,740.42L465.76,747.05L459.44,746.74L456.72,745.67L454.13,747.01L454.13,747.01L449.57,747.56L440.09,744.69L435.72,746.07L429.94,746.34L419.58,751.45L416.4,751.35L410.37,753.46L406.24,753.21L400.22,754.87L395.26,754.5L395.26,754.5L394.12,749.08L398.51,746.5L399.17,745.22L398.2,741.7L397.34,741.31L398.3,740.05L397.38,738.15L394.99,738.01L394.57,736.39L391.34,735.38L389.95,732.8L387.84,731.42L387.84,731.42L389.45,729.56L388.06,728.35L392.39,725.64L391.81,725.54L392.8,724.59L391.95,724.53L391.47,722.72L393.09,723.1L392.45,722.17L393.89,722.1L395.02,720.55L397.62,720.39L401.56,717.79L400.75,716.37L397.06,716.78L395.04,714.29z"/>
		<path id="RO-CS" title="Caraș-Severin" d="M140.12,606.22L141.89,607.11L146.51,614.94L150.18,614.01L151.09,615.96L153.61,615.33L153.26,618.47L154.4,618.15L157.12,622.71L158.46,629.85L155.93,635.79L150.91,640.2L151.65,642.64L150.76,645.27L152.89,645.2L154.51,646.31L154.51,646.31L153.26,648.4L150.65,649.55L148.91,653.48L149.97,654.89L154.68,655.95L155.34,657.86L155.34,657.86L148.63,666.3L144.26,669.99L145.89,671.16L144.25,672.68L144.26,678.77L138.56,687.71L129.9,687.29L126.14,684.25L125.11,686.74L125.62,689.5L124.62,690.99L122.74,691.22L121.52,698.2L123.88,700.21L122.89,704.65L122.03,705.28L121.26,703.81L119.59,704.22L117.8,701.78L115.73,703.98L113.38,702.59L113.05,703.29L113.05,703.29L112.03,700.67L107.43,699.34L99.96,698.72L99.05,697.89L94.53,698.73L92.59,697.72L88.62,697.98L85.56,689.15L82.31,687.96L73.62,687.56L72.43,684.68L70.79,683.39L70.37,681.62L71.02,681.62L71.46,679.26L76.75,678.61L77.75,679.4L83.79,677.46L82.82,673.62L75.88,670.94L70.82,665.48L77.01,663.74L77.12,660.9L78.8,659.06L78.02,657.75L78.49,656.32L81.73,654.56L80.91,651.82L79.46,651.66L78.85,650.05L78.85,650.05L81.07,649.06L80.69,647.6L82.21,643.37L83.4,642.65L83.47,640.61L81.46,638.46L80.82,636.18L78.72,635.15L76.93,632.61L76.41,629.78L80.63,628.89L79.53,627.6L78.23,627.94L77.51,623.95L84.31,621.23L86.29,615.49L92.43,614.33L93.28,616.05L95.8,616.78L97.03,618.96L101.54,618.08L104.07,618.52L104.18,616.29L106.56,615.84L105.5,618.4L106.15,619.17L108.7,618.47L109.55,619.81L108.62,621.95L110.82,622.9L114.29,622.81L116.06,620.47L115.42,615.05L116.57,614.31L117.24,615.11L119.27,613.24L121.31,612.82L122.97,609.76L129.85,614.03L133.17,606.72L134.72,607.81L137.79,606.69L138.6,607.75z"/>
		<path id="RO-CT" title="Constanța" d="M562.33,696l1.22,0.7l-0.43,1.3l-0.43,-1.65l-0.91,1.1L562.33,696zM554.18,696.71l-0.34,1.33l0.27,-1.06l-0.91,-0.08l1.99,-1.31L554.18,696.71zM563.64,695.53l1.26,1.06l1.33,-0.86l-4.88,6.87l3.52,-5.35l-2.16,-2.02L563.64,695.53zM557.15,694.13l5.34,1.18l-3.98,2.34l-3.13,3.39l-0.34,-0.87l1.21,-1.45l4.05,-2.93l-2.42,-1.52l-2.9,0.88L557.15,694.13zM505.86,685.51l2.66,0.81l2.51,-0.64l2.54,1.76l-0.78,1.55l1.32,0.87l1.26,-1.06l2.53,0.07l-0.11,4.07l4.58,2.33l0.65,1.39l4.2,0.54l-0.68,2l1.92,0.45l0.25,-0.84l1.78,0.3l0.19,-0.93l1.35,-0.19l0.83,2.63l3.28,-0.71l0.23,-1.82l10.47,-0.29l-0.13,-1.91l1.86,-0.45l1.32,1.81l1.47,-0.33l0,0l0.85,3.36l2.69,-0.09l0.45,0.89l-3.59,3.12l1.04,-2.44l-2.35,0.35l0.03,3.49l1.9,-0.02l-1.78,1.69l-1.74,-0.62l-1,1.97l0.51,0.91l0.98,-1.39l2.08,0.26l-1.7,4.87l0.39,3.03l5.88,-8.63l3.71,-1.61l0.75,-1.23l-4.24,7.9l-6.65,7.97l-3.74,6.11l-1.83,0.05l-1.95,1.9l-0.58,6.65l2.73,7.17l-1.63,1.3l1.73,1.02l-1.26,0.41l1.24,2.63l-1.12,-0.04l0.41,-0.85l-0.77,-0.68l-0.19,2.34l-1.06,0.26l2.62,0.29l-1.69,2.03l1.86,7.6l-3.54,8.23l-0.34,4.21l-1.95,4.33l0.64,1.14l-0.54,4.39l-8.61,0.46l-6.43,-1.67l-7.37,-0.6l-15.5,-7.53l-3.17,-12.51l-1.79,-2.27L491,760.8l-6.92,1.15l-1.76,-0.52l-2.3,-5.97l-1.9,-1.59l-2.07,3.2l-9.03,-0.87l-4.67,0.91l-2.81,-4.04l-4.25,-1.54l-1.15,-4.51l0,0l2.58,-1.34l2.73,1.07l6.32,0.32l9.47,-6.63l2.66,-0.67l5.69,0.64l4.88,-3.97l8.39,-0.8l3.83,-4.79l1.45,-3.29l0,0l1.39,-3.57l4.53,-5.85l-1.13,-4.11l-2.66,-2.46l-2.4,-5.31l1.38,-4.11l-0.8,-2.12l-3.33,-3.37h-2.03l-3.56,-2.53l-0.75,-1.76l0.45,-3.14l0,0l4.65,-1.72l3.08,1.8l2.33,-0.19L505.86,685.51z"/>
		<path id="RO-CV" title="Covasna" d="M336.17,564.63L338.21,563.79L339.85,558.16L343.78,555.84L345.44,553.13L350.1,551.21L351.37,548.95L353.1,549.14L354.76,550.78L353.85,552.1L361.9,564.19L366.35,563.22L372.67,563.38L373.78,560.22L376.95,560.71L380.01,559.44L382.48,560.56L383.13,558.58L385.1,558.88L385.89,556.48L388.31,555.31L388.42,552.35L388.42,552.35L392.35,553.52L393.58,556.61L393.42,564.09L396.31,566.41L398.99,566.34L399.94,567.94L399.08,569.08L399.88,571.31L399.88,571.31L399.88,576.3L396.8,579.26L396.99,582.63L395.82,584.36L396.53,586.74L395.63,592.14L396.81,593.88L396.81,593.88L396.54,599.96L394.21,601.12L392.82,609.75L391.66,611.71L389.63,613.83L387.4,610.74L385.31,610.61L383.53,611.84L383.09,615.02L380.33,619.7L377.43,620.11L377.43,620.11L377.45,613.23L375.04,610.75L372.26,610.76L372.71,608.88L368.98,607.78L370.16,606.2L369.34,604.31L365.95,603.16L365.63,602.32L362.74,602.54L359.94,599.67L360.04,598.61L357.75,597.38L355.42,597.45L354.35,596.04L352.28,596.23L351.85,597.56L350.81,597.69L350.19,595.24L348.1,593.83L348.49,593.2L347.32,593.21L345.95,591.31L344.25,591.29L343.44,589.04L343.97,587.67L343.05,586.81L345.23,586.62L345.8,585.49L342.5,584.72L342.85,582.74L341.67,580.71L342.25,575.77L343.07,575.99L344.44,572.89L342.52,570.53L338.76,571.67L335.61,567.67z"/>
		<path id="RO-DB" title="Dâmbovița" d="M335.9,627.06L337.09,628.37L337.85,631.63L336.84,636.9L340.97,639.26L342.46,641.32L342.64,642.88L341.28,644.01L340.49,647.14L341.06,650.3L343.12,650.46L343.36,652.55L345.41,653.86L346.62,657.4L350.62,660.6L350.97,671.48L352.09,670.64L354.32,670.99L355.25,672.58L357.15,672.13L359.9,675.61L358.82,676.68L359.51,678.81L357.88,680.76L360.93,683.94L363.38,682.96L368.51,690.34L365.9,692.7L367.07,694.76L368.6,692.73L369.68,692.77L369.68,692.77L369.77,694.52L369.77,694.52L369.77,694.52L369.77,694.52L370.81,695.12L369.68,695.92L370.27,697.52L367.85,698.38L367.57,699.53L370.96,702.41L365.47,707.06L365.47,707.06L365.47,707.06L365.47,707.06L363.49,705.16L362.18,709.55L362.18,709.55L361.72,710.54L360.18,709.01L357.06,710.12L353.12,708.79L350.91,710.8L347.83,707.79L345.07,710.68L343.46,709.52L338.74,711.98L336.5,715.52L336.5,715.52L334.99,714.65L336.16,712.88L335.07,712.17L333.88,712.39L332.28,711.25L329.47,711.53L330.57,715.3L326.14,719.35L326.43,719.93L323.04,720.97L320.6,717.79L320.6,717.79L323.59,718.36L324.37,717.71L324.04,715.63L324.8,714.73L323.51,711.68L324.58,710.04L324.21,707.67L319.4,702.58L319.92,700.8L317.47,698.37L319.27,698.12L321.43,694.85L318.44,693.16L319.8,685.81L319.54,680.19L317.55,672.21L318.18,668.68L319.73,666.98L319.03,664.78L318.09,664.8L317.45,663.46L316.2,663.76L315.03,661.86L315.74,659.86L317.29,660.47L318.16,657.88L316.84,655.84L317.16,654.8L316.14,654.33L316.9,649.67L315.52,649.4L315.49,647.52L316.77,646.17L319.67,650.8L321.17,651.8L322.97,651.02L322.65,648.11L325.65,646.95L324.89,642.78L326.53,640.73L327.89,634.96L327.62,632.54L327.62,632.54L333.02,631.99L333.51,628.28z"/>
		<path id="RO-DJ" title="Dolj" d="M206.7,706.55L209.18,705.97L212.17,703.07L215.35,702.64L216.6,704.58L222.1,703.67L223.26,705.22L223.95,693.73L225.02,693.09L226.75,693.91L226.75,693.91L227.47,695.75L226.88,697.86L227.81,698.34L228.33,700.89L229.07,699.24L230.07,700.28L235.56,701.68L235.13,705.13L236.42,705.84L237.41,710.25L237.41,710.25L235.02,712.06L235.73,713.29L233.26,715.79L235.25,716.7L234.75,718.74L237.9,721.8L238.97,720.61L240.39,721.23L239.51,723.58L244.86,725.08L244.31,726.4L248.75,731.66L248.88,733.42L251.79,734.46L253.91,737.05L255.55,736.74L256.2,738.91L256.87,738.88L255.91,742.3L257.33,742.57L254.61,756.15L257.02,758.47L256.44,760.13L257.08,761.13L255.95,760.82L255.6,761.72L257.13,763.1L256.48,764L257.1,764.44L255.7,770.64L250.48,777.29L249.38,783.82L251.48,785.68L251.48,785.68L240.28,780.86L233.11,779.87L226.88,777.25L225.66,775.76L222.56,775.49L217.01,776.65L213.53,775.47L210.62,772.8L204.96,771.32L194.92,771.73L186.59,775.21L181.53,776.28L169.34,772.81L167.96,771.54L166.97,768.45L169.59,759.81L172.8,757.69L177.93,756.83L180.17,753.05L179.42,749.92L175.31,749.02L175.31,749.02L176.01,746.85L179.74,743.01L183.81,744.62L184.99,737.06L182.56,735.79L182.67,734.74L184.3,734.27L185.98,728.93L188.97,728.26L189.72,724.91L192.98,724.43L192.81,723.2L187.19,720.11L187.64,719.24L189.32,719.35L190.07,715.89L192.69,714.35L192.72,713.39L195.22,712.85L193.72,710.55L199.21,710.7L200.27,709.5L201.52,710.24L202.87,709.34L204.19,710.52L205.88,709.06z"/>
		<path id="RO-GJ" title="Gorj" d="M215.47,635.17L217.6,636.9L217.6,636.9L218.8,635.36L218.8,635.36L221.61,637.23L224.31,637.64L228.53,635.4L232.03,637.48L228.88,643.82L232.71,654.09L230.07,655.86L230.19,660.88L228.06,666.21L226.32,667.19L226.2,668.27L227.15,672.03L226.26,679.35L227.54,679.49L228.91,682.8L227.5,684.64L227.96,690.62L226.75,693.91L226.75,693.91L225.02,693.09L223.95,693.73L223.26,705.22L222.1,703.67L216.6,704.58L215.35,702.64L212.17,703.07L209.18,705.97L206.7,706.55L206.7,706.55L203.23,704.58L203.91,702.94L197.69,699.2L191.97,696.71L183.02,695.14L181.43,693.71L181.38,692.05L177.49,690.41L175.48,686.71L174.75,686.36L173.81,687.47L172.76,686.74L173.43,685.15L171.27,683.63L168.95,672.65L170.61,670.67L170.28,669.54L169.15,668.19L167.74,668.24L166.31,665.36L162.48,662.2L158.58,661.19L157.07,658.3L155.34,657.86L155.34,657.86L154.68,655.95L149.97,654.89L148.91,653.48L150.65,649.55L153.26,648.4L154.51,646.31L154.51,646.31L156.59,644.67L165.98,641.6L168.39,643.48L174.59,642.54L176.14,640.93L178.77,646.72L179.85,646.92L182.69,644.43L183.07,640.91L188.31,642.61L193.52,639.33L197.77,639.92L198.94,637.34L201.43,637.23L201.69,636.37L202.85,638.32L206.37,640.5z"/>
		<path id="RO-GL" title="Galați" d="M467.45,563.08L469.18,563.18L470.24,564.67L469.93,567.65L470.83,569.14L469.71,570.29L471.33,573.3L473.58,574.91L475.45,573.68L475.5,570.35L476.93,569.72L474.29,564.24L475.19,564.02L474.16,562.96L474.51,561.51L479.54,563.67L480.97,562.52L482.52,563.37L485.27,563.1L486.51,565.1L490.05,564.4L491.33,562.54L491.27,560.7L492.94,559.89L493.02,562.13L495.36,561.16L497.18,562.8L498.88,562.29L499.78,565.25L501.43,564.37L502.36,565.64L506.08,564.47L508.59,565.04L508.59,565.04L508.96,565.71L507.69,566.17L508.04,568.01L507,567.92L507.53,569.33L506.78,569.84L507.77,571.22L506.54,574.46L507.99,576.32L507.52,577.26L509.26,582.43L508.45,586.15L509.74,586.82L509.42,588.07L507.97,588.44L508.14,592.4L509.08,594.02L508.43,594.59L509.81,595.9L511.11,595.59L510.45,597.56L511.94,599.88L512.18,602.35L511.47,602.91L512.22,605.19L511.38,607.78L512.37,608.31L511.28,609.06L511.35,610.2L509.55,610.67L508.54,609.98L506.88,612.05L509,615.01L510.1,614.53L510.6,615.57L511.24,614.74L510.75,615.97L511.86,617.5L511.87,619.89L511.15,620.73L513.24,624.06L515.18,624.72L515.18,624.72L513.82,626.23L513.32,629.59L509.97,627.47L507.27,627.1L502.91,630.47L502.91,630.47L500.62,630.71L500.01,631.63L493.6,628.92L491.86,630.57L492.3,631.07L489.05,631.27L487.09,630.07L486.88,628.77L484.33,629.49L484.83,626.43L483.65,626.9L483.57,626.02L482.24,626.36L482.63,625.28L480.59,625.08L480.97,623.35L479.1,624.21L478.9,622.42L475.93,625.08L475.18,623.05L472.85,622.36L472.18,623.08L472.18,623.08L471.63,621.87L470.34,621.92L471.36,621.01L470.04,619.35L470.55,617.44L468.99,616.11L469.3,614.71L470.98,614.22L469.64,612.11L468.52,611.91L469.53,610.66L468.05,610.35L467.72,608.78L466.42,609.13L465.36,605.31L463.7,606.1L459.74,600.6L459.44,596.97L457.6,594.58L455.72,587.28L452.32,580.38L451.04,575.62L451.04,573.5L454.55,571.6L454.37,570.08L455.68,568.17L463.78,567.11L463.42,562.97L463.94,562.55L466.92,564.75z"/>
		<path id="RO-GR" title="Giurgiu" d="M336.5,715.52L338.74,711.98L343.46,709.52L345.07,710.68L347.83,707.79L350.91,710.8L353.12,708.79L357.06,710.12L360.18,709.01L361.72,710.54L362.18,709.55L362.18,709.55L364.47,709.27L365.6,710.45L366.52,711.71L365.03,714.54L366.11,714.9L364.87,717.34L363.27,716.69L362.96,714.91L361.99,715.67L362.99,720.42L360.35,722.77L364.68,725.84L365.17,727.28L369.8,728.38L370.95,729.49L371.33,730.72L369.88,733.75L372.09,730.91L375.4,734.04L377.16,733.98L377.27,735.43L377.27,735.43L377.27,735.43L377.27,735.43L380.69,737L381.99,736.69L381.99,736.69L381.99,736.69L381.99,736.69L382.65,735.63L382.65,735.63L382.65,735.63L382.65,735.63L383.27,735.93L384.65,733.9L384.65,733.9L384.65,733.9L384.65,733.9L385.21,734.51L386.57,733.17L386.57,733.17L386.57,733.17L386.57,733.17L387.84,731.42L387.84,731.42L389.95,732.8L391.34,735.38L394.57,736.39L394.99,738.01L397.38,738.15L398.3,740.05L397.34,741.31L398.2,741.7L399.17,745.22L398.51,746.5L394.12,749.08L395.26,754.5L395.26,754.5L391.42,755.44L384.63,759.09L381.22,759.1L378.56,760.75L375.25,766.1L368.53,770.23L363.68,777.65L359.35,780.55L357.5,783.81L354.12,785.61L350.24,785.66L350.24,785.66L349,773.95L346.86,773.16L347.05,771.66L345.54,769.36L346.73,768.44L347.19,763.44L345.95,761.48L346.76,761.01L345.92,759.98L345.34,754.01L347.61,753.41L346.7,751.24L348.26,748.71L349.2,749.17L349.46,747.48L350.46,749.35L351.23,747.02L352.96,746.45L349.19,743.16L349.75,739.25L351.72,735.14L350.1,733.87L350.02,731.78L349.23,731.53L348.71,733.19L346.89,732.01L347.46,730.73L345.02,729.55L343.82,730.14L337.14,728.82L337.38,726.44L338.78,724.62L338.17,723.85L339.93,721.93L336.82,719.68L337.9,717.38z"/>
		<path id="RO-HD" title="Hunedoara" d="M161.33,542.67L162.96,542.84L165.04,545.14L172.89,544.89L174.76,548.84L173.85,550.64L176.18,554.64L179.45,556.52L180.67,555.76L181.97,557.76L183.37,558.25L183.71,562.08L182.35,561.46L181.06,562.14L183.07,566.21L182.3,567.56L182.98,570.22L184.98,571.36L186.55,571.06L188.62,572.87L191.62,572.2L191.12,574.03L194.5,581.54L197.16,583.11L198.84,586.06L198.66,591.46L200.02,596.09L202.06,598.21L200.75,602.15L204.41,605.63L202.26,608.72L204.92,610.1L204.83,613.56L209.72,614.55L210.44,617.11L211.86,617L214.35,619.4L215.88,624.45L215.88,624.45L214.53,628.47L215.65,628.89L216.23,631.99L215.47,635.17L215.47,635.17L206.37,640.5L202.85,638.32L201.69,636.37L201.43,637.23L198.94,637.34L197.77,639.92L193.52,639.33L188.31,642.61L183.07,640.91L182.69,644.43L179.85,646.92L178.77,646.72L176.14,640.93L174.59,642.54L168.39,643.48L165.98,641.6L156.59,644.67L154.51,646.31L154.51,646.31L152.89,645.2L150.76,645.27L151.65,642.64L150.91,640.2L155.93,635.79L158.46,629.85L157.12,622.71L154.4,618.15L153.26,618.47L153.61,615.33L151.09,615.96L150.18,614.01L146.51,614.94L141.89,607.11L140.12,606.22L140.12,606.22L142.68,602.81L142.99,600.4L146.04,599.59L147.91,595.98L146.44,594.36L144.87,595.45L143.64,595.08L143.34,590.63L140.73,588.82L139.31,589.26L136.88,585.89L138.83,584.25L138.98,582.89L138.98,582.89L140.47,580.47L140.08,579.68L136.17,579.33L134.57,576.59L135,575.54L137.43,575.81L138.03,574.44L140.58,574.45L140.33,567.16L139.11,566.14L142.2,563.38L142.33,562.12L144.54,561.09L141.9,558.94L140.88,555.87L144.39,552.95L146.04,555.34L148.43,554.86L148.99,553.93L155.01,553.96L156.39,545.58L159.18,544.63z"/>
		<path id="RO-HR" title="Harghita" d="M322.21,473.14L326.86,470.19L332.43,472.96L333.77,469.77L336.94,468.87L341.05,471.08L341.4,473.72L345.75,474.48L347.15,472.69L349.46,473.29L349.46,473.29L354.37,474.89L356.95,478.84L356.6,480.15L358.79,484.94L359.84,483.81L361.48,483.89L362.97,485.91L361.59,486.13L360.37,488.9L358.75,488.56L356.12,492.66L357.37,494.33L356.36,496.67L359.17,498.42L359.72,502.54L359.72,505.11L357.81,507.6L358.16,508.57L363.06,514.45L365.65,514.08L364.08,510.93L364.59,509.9L370.14,510.77L370.14,510.77L372.18,514.88L370.99,517.45L371.31,518.94L375.56,525.4L376.17,527.92L375.83,529.15L373.27,530.46L372.45,531.64L373,532.4L370.67,534.49L375.52,537.39L383.56,537.79L382.54,539.16L383.17,539.85L381.61,546.26L385.07,546.23L388.34,543.56L390.02,544.24L389.71,547.57L387.91,549.97L388.42,552.35L388.42,552.35L388.31,555.31L385.89,556.48L385.1,558.88L383.13,558.58L382.48,560.56L380.01,559.44L376.95,560.71L373.78,560.22L372.67,563.38L366.35,563.22L361.9,564.19L353.85,552.1L354.76,550.78L353.1,549.14L351.37,548.95L350.1,551.21L345.44,553.13L343.78,555.84L339.85,558.16L338.21,563.79L336.17,564.63L336.17,564.63L334.89,563.31L330.88,562.88L330.72,560.93L328.83,559.18L327.71,559.48L326.27,558.47L323.91,559.83L323.17,562.42L319.06,559.54L317.95,559.86L317.95,559.86L315.13,557.82L313.54,553.67L311.86,553.69L311.22,552.51L303.52,552.4L302.48,551.97L302.14,549.81L299.91,548.38L298.61,548.86L297.43,546.71L299.18,544.37L297.65,544.12L296.46,540.72L297.31,539.78L299.85,540.42L300.73,539.81L302.79,541.23L305.12,540L302.84,535.9L307.07,532.99L308.83,529.97L307.07,529.23L306.26,531.33L305.51,529.77L305.87,528.4L307.62,527.32L308.26,525.03L311.05,523.73L312.39,521.75L316.61,521.83L322.12,514.15L325.83,511.46L325.23,509.21L326.91,501.8L325.36,500.64L325.26,497.54L323.27,496.6L325.17,487.72L324.42,478.69L321.89,475.94z"/>
		<path id="RO-IF" title="Ilfov" d="M397.66,710.26l-0.62,1.18l-0.41,-1.38l-1.61,0.4l-1.01,-2.25l2.02,-2.77l-0.52,-0.72l2.32,-2.1l1.34,1.3l1.66,-1.19l0.02,-2.23l-5.03,1.34l-2.45,-4.89l1.95,-1.36l0.01,-1.56l-1.31,-2.56l-2.95,-2.71l0,0l-2.34,0.92l-0.82,1.75l-4.42,-1.93l-0.8,0.73l-2.2,-0.87l-0.81,0.84l-2.16,-1.35l0.34,2.25l-1.68,-1.05l-1.46,1.54l-0.11,-0.68l-3.03,0.46l-1.19,-0.65l-1.24,0.45l0.52,1.63l0,0l0.09,1.74l1.04,0.61l-1.13,0.8l0.59,1.6l-2.42,0.86l-0.28,1.14l3.39,2.88l-5.5,4.65l-1.97,-1.9l-1.32,4.39l0,0l2.29,-0.28l1.13,1.18l0.93,1.27l-1.5,2.83l1.08,0.35l-1.24,2.44l-1.6,-0.65l-0.31,-1.78l-0.97,0.76l1,4.75l-2.64,2.35l4.33,3.07l0.49,1.44l4.63,1.1l1.15,1.11l0.39,1.23l-1.45,3.03l2.2,-2.84l3.32,3.13l1.75,-0.05l0.11,1.45l3.43,1.57l2.58,-1.07l1.38,-2.03l0.96,0.42l2.23,-2.9l0,0l1.61,-1.86l-1.39,-1.21l4.34,-2.71l-0.58,-0.1l0.98,-0.95l-0.84,-0.06l-0.48,-1.81l1.62,0.39l-0.64,-0.93l1.44,-0.07l1.13,-1.55l2.6,-0.15l3.94,-2.6l-0.81,-1.42l-3.69,0.41l-2.02,-2.49l3.39,-3.13L397.66,710.26zM386.34,721.63l-0.33,0.62l0,0l-2.97,0.56l-1.23,2.31l1.56,2.95l-1.81,0.67L379.7,726l-1.06,0.72l-3.18,-1.48l-2.25,-2.36l-2.68,-0.46l-0.77,-3.14l3.37,-0.16l-0.21,-1.28l-2.35,-1.37l0.17,-2.21l1.52,-0.7l0.25,-1.64l3.04,-1.35l3.7,-0.21l0.71,4.87l4.49,0.7l-1.37,2.13l4.33,1.42l0,0L386.34,721.63z"/>
		<path id="RO-IL" title="Ialomița" d="M410.97,680.36L412.37,684.52L421.41,684.36L422.77,686.4L425,687.24L426.06,685.81L428.17,685.66L429.01,684.09L436.25,687.62L436.01,686.37L437.59,684.24L443.52,687.47L442.71,690.67L445.03,691.52L445.32,690.89L448.03,691.94L448.89,690.01L445.91,688.83L446.23,686.82L449.68,686.25L449.68,686.25L450.17,688.11L453.69,690.7L456.78,685.25L459.51,685.45L459.17,686.46L461.75,687.96L464.05,686.69L464.23,687.47L468.75,688.17L470.02,688.26L470.13,687.22L473.83,687.17L482.42,688.92L490.17,687.65L492.96,688.05L493.21,689.21L493.21,689.21L492.77,692.35L493.52,694.12L497.08,696.65L499.11,696.65L502.44,700.02L503.24,702.14L501.86,706.24L504.26,711.55L506.92,714.01L508.05,718.12L503.53,723.97L502.14,727.54L502.14,727.54L491.71,723.98L489.73,727.7L488.2,727.48L487.51,726.37L486.51,727.31L484.9,725.49L485.57,725L484.74,723.65L486.08,722.59L483.57,720.62L478.79,719.24L478.45,716.01L473.8,715.28L473.37,707.68L472.59,707.27L471.8,707.29L471.6,709.17L470.34,709.02L469.87,713.22L461.72,713.41L461.81,712.56L459.72,711.55L459.27,714.3L455.14,713.85L455.17,712.03L454.14,711.87L453.26,714.1L451,713.63L451.26,712.31L450.16,711.69L449.71,714.24L445.24,712.74L444.87,714.38L441.96,714.23L441.9,711.96L437.99,712.29L438.11,710.15L433.4,710.26L429.39,711.55L429.32,710.64L426,711.42L426.14,710.52L425.24,710.37L423.69,712.11L421.51,711.25L421.78,708.4L420.62,708.31L420.11,710.64L417.71,710.03L416.83,709.11L417.09,706.85L414.77,706.03L415.24,704.74L414.31,704.16L409.79,711L406.79,709.92L404.84,706.79L402.65,705.33L399.73,708.44L401.7,708.69L398.43,711.16L398.43,711.16L398.43,711.16L398.43,711.16L397.66,710.26L397.04,711.44L396.62,710.06L395.01,710.45L394,708.21L396.02,705.44L395.5,704.71L397.82,702.61L399.16,703.91L400.82,702.72L400.84,700.49L395.81,701.83L393.36,696.94L395.31,695.58L395.32,694.02L394.01,691.46L391.06,688.75L391.06,688.75L393.26,686.27L393.46,687.63L395.14,687.29L397.33,688.6L401.2,684.69L403.57,686.31L405.57,684.51L406.54,685.15L408.32,682.12z"/>
		<path id="RO-IS" title="Iași" d="M462.41,426.24L464.02,426.42L463.33,427.89L464.27,428.18L464.19,429.98L465.83,430.6L465.03,431.13L465.5,432.04L466.51,431.56L465.71,433.36L466.89,435.42L468.22,435.19L469.02,436.18L469.64,434.99L469.64,436.55L471.03,436.14L471.16,435.16L472.54,437.58L473.38,437.47L472.08,440.44L474.16,442.75L473.14,446L474.03,445.58L473.4,446.44L474.43,446.86L474.89,446.17L474.8,448.49L476.16,449.25L474,450.42L475.15,451.45L475.52,450.35L475.57,451.46L476.58,450.6L478.16,453.06L478.59,452.27L480.03,453.05L480.27,452.12L480.71,454.48L482.02,454.04L481.94,453.04L483.51,453.52L484.02,455.3L484.72,455.25L484.54,456.43L485.42,457.12L484.47,457.15L485.34,457.8L484.61,458.61L487.22,460.8L486.66,462.21L487.48,461.9L487.24,463.52L488.27,463.59L487.89,465.39L488.89,466.05L487.15,467.34L488.14,468.11L486.94,468.18L491.05,468.73L491.49,469.74L490.78,469.18L490.15,470.54L492.06,471.78L492.92,471.34L494.53,474.59L498.36,476.1L497.55,476.83L500.76,478.11L500.87,479.01L504.16,479.34L504.5,480.4L503.67,479.87L503.12,480.68L507.36,483.63L506.16,485.15L507.45,486.63L506.33,487.59L508.3,489.09L506.45,490.92L508.36,491.75L508.65,493.16L507.45,493.88L508.95,495.14L508.49,496.22L508.49,496.22L501.98,496.88L500.58,496.63L499.67,495.1L497.07,494.81L495.95,495.48L497.57,498.41L496.47,498.56L491.25,494.32L489.44,494.16L489.39,492.43L484.98,492.27L480.2,484.81L477.16,482.83L475.87,485.35L476.09,489.05L476.99,488.78L478.02,490.82L475.11,491.9L470.27,491.07L470.86,492.89L467.83,493.18L467.65,494.89L466.46,493.45L462.73,493.54L461.24,492.21L457.65,493.09L457.59,494.14L456.24,494.8L455.39,493.5L450.6,493.76L449.06,492.66L449.06,492.66L448.25,489.92L444.06,486.55L444.87,485.17L446.06,485.3L445.97,484.24L448.13,481.61L449.44,482.78L451.88,481.19L448.17,478.64L447.42,474.11L445.06,474.38L443.87,473.3L440.05,473.68L438.38,477.91L436.4,477.68L434.66,474.25L433.87,477.2L429.23,478.89L424.75,478.01L423.86,475.47L420.1,471.46L417.5,472.87L415.88,470.9L413.01,473.35L411.59,468.59L412.4,467.88L411.29,463.03L405.77,457.26L405.77,457.26L408.9,453.57L408.17,451.79L405.49,449.72L404.69,450.05L403.44,444.42L405.44,443.54L406.45,445.66L408.44,445.57L411.16,447.78L415.35,447.53L414.71,446.59L415.43,445.54L413.23,443.5L415.53,442.19L414.87,440.87L415.59,436.89L415.59,436.89L416.8,434.78L419.05,434.83L418.58,432.88L419.76,432.05L426.32,434.54L436.19,434.89L438.99,439.8L440.45,437.1L441.48,437.47L441.31,433.8L442.66,429.23L445.56,431.6L447.07,430.15L447.26,431.73L450.92,431.64L453.46,430.73L452.46,428.26L453.05,427.6L454.93,428.27L457.13,426.59L461.62,425.59L461.62,425.59z"/>
		<path id="RO-MH" title="Mehedinți" d="M113.05,703.29L113.38,702.59L115.73,703.98L117.8,701.78L119.59,704.22L121.26,703.81L122.03,705.28L122.89,704.65L123.88,700.21L121.52,698.2L122.74,691.22L124.62,690.99L125.62,689.5L125.11,686.74L126.14,684.25L129.9,687.29L138.56,687.71L144.26,678.77L144.25,672.68L145.89,671.16L144.26,669.99L148.63,666.3L155.34,657.86L155.34,657.86L157.07,658.3L158.58,661.19L162.48,662.2L166.31,665.36L167.74,668.24L169.15,668.19L170.28,669.54L170.61,670.67L168.95,672.65L171.27,683.63L173.43,685.15L172.76,686.74L173.81,687.47L174.75,686.36L175.48,686.71L177.49,690.41L181.38,692.05L181.43,693.71L183.02,695.14L191.97,696.71L197.69,699.2L203.91,702.94L203.23,704.58L206.7,706.55L206.7,706.55L205.88,709.06L204.19,710.52L202.87,709.34L201.52,710.24L200.27,709.5L199.21,710.7L193.72,710.55L195.22,712.85L192.72,713.39L192.69,714.35L190.07,715.89L189.32,719.35L187.64,719.24L187.19,720.11L192.81,723.2L192.98,724.43L189.72,724.91L188.97,728.26L185.98,728.93L184.3,734.27L182.67,734.74L182.56,735.79L184.99,737.06L183.81,744.62L179.74,743.01L176.01,746.85L175.31,749.02L175.31,749.02L172.11,748.44L164.79,743.8L160.78,740L156.47,738.72L156.53,732.96L148.71,730.35L146.39,726.98L144.9,720.21L142.37,717.3L142.71,714.98L146.14,715.58L148.05,714.68L149.12,709.89L150.44,708.49L153.19,708.54L157.56,711.52L161.6,709.63L161.41,707.19L158.44,703.63L156.09,702.22L151.63,702.04L143.26,693.47L142.08,693.24L139.51,694.32L137.82,696.48L134.54,696.8L132.8,697.97L130.36,701.54L124.5,714.66L122.07,715.55L117.65,713.14L116.95,710.36L114.85,708.95L114.16,704.47z"/>
		<path id="RO-MM" title="Maramureș" d="M214.02,385.55L217.18,385.09L220.54,387.42L227.79,386.39L230.66,387.99L232.23,391.62L233.44,392.38L234.5,391.44L238.34,390.94L239.06,389.47L242.67,389.05L244.2,390.77L246.11,390.45L248.24,391.9L249.36,394.07L254.54,393.76L256.9,395.76L263.12,392.95L264.74,394.04L266.82,392.92L267.57,390.32L270.27,388.74L275.16,390.56L279.19,388.93L280.92,391.09L282.74,390.71L283.32,393.15L285.71,395.89L285.59,398.89L287.57,399.95L287.78,401.16L289.74,400.94L290.81,402.21L291.73,401.35L292.84,402.72L295.71,403.19L295.28,404.55L296.21,406.98L298.87,409.6L299.32,412.41L303.24,411.91L303.24,411.91L303.64,414.58L305.57,415.23L310.59,419.89L310.17,420.71L307.34,421.32L303.45,424.88L303.45,424.88L300.07,424.27L297.91,425.19L296.88,424.06L294.71,425.07L294.34,427.14L288.85,426.9L285.63,428.66L282.66,427.19L278.01,427.94L271.59,424.92L267.02,423.96L265.11,427.17L261.62,426.86L260,431.47L258.23,432.47L257.71,434.04L254.87,433.35L250.3,434.02L248.98,441.03L246.8,442.62L245.83,445.52L244.18,445.99L243.45,447.25L243.45,447.25L242.01,446.62L235.86,447.9L234.57,446.41L232.73,446.45L231.23,448.49L231.91,449.7L231.91,449.7L229.51,448.75L226.53,449.99L223.37,449.92L223.53,448.13L221.78,447.99L220.92,445.84L219.31,444.95L213.77,446.83L205.58,445.43L203.3,444.02L200.07,443.69L199.92,442.41L198.48,442.51L197.71,441.08L191.73,440.08L191.65,439.12L189.04,438.18L183.71,441.07L183.71,441.07L182.36,439.4L178.48,441.12L175.22,439.78L175.06,435.24L177.06,435.73L178.02,434.69L180.28,434.96L180.77,428.74L186.58,422.03L189.4,426.05L191.69,426.67L193.8,428.7L195.75,428.64L196.54,420.11L198.93,419.73L202.73,416.25L202.09,415.58L201.28,416.14L199.49,413.52L197.24,413.48L196.36,412.06L193.01,412.43L192.55,409.9L194.43,405.64L195.71,405.33L200.09,407.25L201.96,406.78L206.68,408.75L208.5,406.85L213.67,404.66L215.92,400.41L217.14,400.8L219.13,398.73L218.03,396.27L215.78,395.33L214,391.25L212.57,391.34L209.75,388.9L209.75,388.9L211.61,384z"/>
		<path id="RO-MS" title="Mureș" d="M311.22,468.52L313.02,470.14L315.98,470.37L318.04,469.21L322.21,473.14L322.21,473.14L321.89,475.94L324.42,478.69L325.17,487.72L323.27,496.6L325.26,497.54L325.36,500.64L326.91,501.8L325.23,509.21L325.83,511.46L322.12,514.15L316.61,521.83L312.39,521.75L311.05,523.73L308.26,525.03L307.62,527.32L305.87,528.4L305.51,529.77L306.26,531.33L307.07,529.23L308.83,529.97L307.07,532.99L302.84,535.9L305.12,540L302.79,541.23L300.73,539.81L299.85,540.42L297.31,539.78L296.46,540.72L297.65,544.12L299.18,544.37L297.43,546.71L298.61,548.86L299.91,548.38L302.14,549.81L302.48,551.97L303.52,552.4L311.22,552.51L311.86,553.69L313.54,553.67L315.13,557.82L317.95,559.86L317.95,559.86L316.55,560.7L315.92,562.56L313.15,561.34L310.62,562.42L307.78,561.74L303.85,565.23L303.1,567.98L303.1,567.98L301.39,567.75L299.47,565.19L294.14,566.75L292.33,565.91L291.75,567.29L289.3,567.13L288.4,568.13L286.45,567.2L285.6,565.82L286.4,557.3L286.32,555.11L285.08,553.38L285.9,552.25L285.36,549.05L283.64,549.56L282.43,551.84L280.77,552.25L278.56,550.98L274.25,552.7L273.57,551.37L269.58,550.92L266.58,552.73L261.75,551.62L259.45,551.7L258.54,552.75L258.54,552.75L256.37,550.88L254.97,551.08L254.97,549.61L251.56,547.82L250.7,544.36L247.3,544.34L242.63,540.97L241.98,539.51L243.54,537.86L244.56,532.7L243.33,532.84L241.95,535L240.37,534.93L239.64,532.77L239.64,532.77L239.36,527.02L241.42,524.72L243.93,525.48L244.02,523.39L246.52,518.64L243.39,517.72L243.39,516.5L246.09,513.88L248.64,513.56L249.76,510.93L249.89,509.78L247.09,508.38L246.2,506.43L254.2,501.21L253.75,500.25L253.75,500.25L261.17,504.92L264.96,504.14L265.88,505.1L269.44,502.75L271.34,503.64L272.44,497.83L274.72,496.83L274.61,495.6L276,495.48L276.56,490.58L278.31,490.73L277.87,489.74L279.74,489.64L280.47,487.19L282.09,487.13L282.29,486.05L284.31,489.81L287.46,491L289.04,490.65L289.19,489.34L290.13,489.16L288.71,487.98L289.83,483.76L291.76,481.89L293.04,477.61L295.14,474.86L299.13,471.74L302.5,471.86L303.69,470.38L308.22,470.86z"/>
		<path id="RO-NT" title="Neamț" d="M349.46,473.29L349.94,470.42L351.78,468.21L351.99,465.74L353.5,465.01L353.02,462.83L354.44,461.14L358.8,460.77L360.48,457.81L356.28,451.51L356.9,450.9L360.93,451.78L364.81,456.56L365.88,456.74L367.21,455.18L370.13,454.12L376,455.21L379,453.47L383.26,453.93L383.9,452.9L387.79,454.98L388.96,453.14L391.03,453.46L397.72,449.25L399.99,450.27L400.8,452.76L405.77,457.26L405.77,457.26L411.29,463.03L412.4,467.88L411.59,468.59L413.01,473.35L415.88,470.9L417.5,472.87L420.1,471.46L423.86,475.47L424.75,478.01L429.23,478.89L433.87,477.2L434.66,474.25L436.4,477.68L438.38,477.91L440.05,473.68L443.87,473.3L445.06,474.38L447.42,474.11L448.17,478.64L451.88,481.19L449.44,482.78L448.13,481.61L445.97,484.24L446.06,485.3L444.87,485.17L444.06,486.55L448.25,489.92L449.06,492.66L449.06,492.66L448.37,493.54L450.27,495.76L450.51,498.75L450.22,503.25L448.92,504.19L448.92,504.19L447.6,504.38L446,506.55L445.68,504.89L443.86,505.25L442.34,502.95L440.28,504.27L439.18,503.07L432.87,504.56L432.18,501.86L431.24,502.76L430.76,501.03L429.42,500.68L430.38,500.57L430.86,498.55L427.9,497.56L427.86,499.53L426.74,500.24L426.42,502.5L424.52,503.85L423.89,506.55L421.91,507.14L419.44,502.28L418.95,503.76L415.75,503.46L414.99,506.83L410.5,509.59L407.79,512.79L405.77,510.52L404.29,510.32L403.14,511.67L399.63,511.77L394.02,515.25L390.67,514.04L388.7,509.51L386.81,510.65L385.24,514.15L381.63,515.25L380.62,513.64L378.06,514.71L376.61,513.81L376.11,509.4L371.49,509.62L370.14,510.77L370.14,510.77L364.59,509.9L364.08,510.93L365.65,514.08L363.06,514.45L358.16,508.57L357.81,507.6L359.72,505.11L359.72,502.54L359.17,498.42L356.36,496.67L357.37,494.33L356.12,492.66L358.75,488.56L360.37,488.9L361.59,486.13L362.97,485.91L361.48,483.89L359.84,483.81L358.79,484.94L356.6,480.15L356.95,478.84L354.37,474.89z"/>
		<path id="RO-OT" title="Olt" d="M237.41,710.25L242.17,709.62L243.93,710.25L243.77,711.31L244.78,710.64L244.49,712.12L245.72,713.39L247.72,713.43L251.05,707.29L253.4,706.8L254.83,708.03L257.35,707.73L257.67,705.86L260.61,705.61L260.4,703.76L263.34,705.81L262.17,697.56L259.73,694.63L260.16,689.76L260.9,687.6L262.33,687.42L262.38,682.5L264.2,681.03L263.66,679.31L267.38,677.93L268.33,676.73L269.46,677.45L269.8,681.2L269.8,681.2L270.57,681.92L269.77,683.74L273.9,683.43L273.82,681.1L275.97,677.1L277.23,677.18L277.21,680.4L279.14,685.6L280.07,685.87L280.4,689.8L282.4,691.91L287.77,691.67L287.69,693.86L286.47,695.3L289.26,703.15L288.38,705.1L289.28,706.42L289.57,710.22L288.78,713.36L289.68,716.37L289.48,721.1L290.87,723.06L294.09,723L294.53,723.83L294.53,723.83L295.83,728.18L297.01,729.32L295.76,730.12L295.56,736.64L294.9,737.09L296.35,737.69L293.52,740.87L294.12,743.75L296.65,746.07L297.32,749.36L288.45,752.52L289.22,754.32L285.03,755.11L280.02,757.59L281.58,760.87L282.9,761.2L283.1,762.82L284.02,763.15L283.05,763.91L284.65,765.86L284.86,767.68L288.96,772.71L286.46,773.97L291.06,774.2L289,775.33L289,776.93L287.03,777.38L286.43,779.49L284.54,780.1L284.28,782.57L284.28,782.57L280.47,780.19L274.61,779.18L268.29,781.58L264.12,785.05L254.12,786.33L251.48,785.68L251.48,785.68L249.38,783.82L250.48,777.29L255.7,770.64L257.1,764.44L256.48,764L257.13,763.1L255.6,761.72L255.95,760.82L257.08,761.13L256.44,760.13L257.02,758.47L254.61,756.15L257.33,742.57L255.91,742.3L256.87,738.88L256.2,738.91L255.55,736.74L253.91,737.05L251.79,734.46L248.88,733.42L248.75,731.66L244.31,726.4L244.86,725.08L239.51,723.58L240.39,721.23L238.97,720.61L237.9,721.8L234.75,718.74L235.25,716.7L233.26,715.79L235.73,713.29L235.02,712.06z"/>
		<path id="RO-PH" title="Prahova" d="M335.9,627.06L336.75,625.75L339.22,624.78L344.94,625.19L345.97,623.81L348.54,622.92L353.6,624.35L353.89,625.24L357.81,623.61L359.28,624.81L360.39,627.9L362.85,628.58L364.15,626.65L365,621.84L366.45,620.26L371.15,620.31L374.38,623.52L374.38,623.52L375.03,624.07L374.68,627.55L378.54,630.09L380.85,634.14L384.09,635.17L386.46,638.03L386.37,639.45L385.02,640.29L385.13,641.97L386.15,642.16L388.69,648.79L391.46,649.03L393.13,647.5L394.71,647.84L393.85,649.58L395.23,652.72L399.78,650.44L402.11,653.35L400.79,657.41L401.71,658.32L400.5,660.87L401.36,660.75L403.92,668.44L406.16,667.35L407.81,670.59L408.81,670L408.71,672.55L404.98,674.81L410.97,680.36L410.97,680.36L408.32,682.12L406.54,685.15L405.57,684.51L403.57,686.31L401.2,684.69L397.33,688.6L395.14,687.29L393.46,687.63L393.26,686.27L391.06,688.75L391.06,688.75L388.72,689.66L387.9,691.42L383.48,689.49L382.69,690.22L380.49,689.35L379.68,690.18L377.52,688.84L377.86,691.08L377.86,691.08L377.86,691.08L377.86,691.08L376.18,690.03L374.71,691.56L374.6,690.88L374.6,690.88L374.6,690.88L374.6,690.88L371.57,691.34L370.39,690.69L369.15,691.14L369.68,692.77L369.68,692.77L368.6,692.73L367.07,694.76L365.9,692.7L368.51,690.34L363.38,682.96L360.93,683.94L357.88,680.76L359.51,678.81L358.82,676.68L359.9,675.61L357.15,672.13L355.25,672.58L354.32,670.99L352.09,670.64L350.97,671.48L350.62,660.6L346.62,657.4L345.41,653.86L343.36,652.55L343.12,650.46L341.06,650.3L340.49,647.14L341.28,644.01L342.64,642.88L342.46,641.32L340.97,639.26L336.84,636.9L337.85,631.63L337.09,628.37z"/>
		<path id="RO-SB" title="Sibiu" d="M258.54,552.75L259.45,551.7L261.75,551.62L266.58,552.73L269.58,550.92L273.57,551.37L274.25,552.7L278.56,550.98L280.77,552.25L282.43,551.84L283.64,549.56L285.36,549.05L285.9,552.25L285.08,553.38L286.32,555.11L286.4,557.3L285.6,565.82L286.45,567.2L288.4,568.13L289.3,567.13L291.75,567.29L292.33,565.91L294.14,566.75L299.47,565.19L301.39,567.75L303.1,567.98L303.1,567.98L303.3,569.16L299.72,571.18L298.12,574.4L296.12,574.83L296.27,577.37L292,577.77L290.97,581.6L288.67,580.48L287.49,581.07L288.56,585.05L292.29,588.25L292,590.33L286.7,590.75L282.94,593.71L286.02,602.17L286.61,612.23L286.61,612.23L285.6,612.88L281.98,612.42L278.65,614.37L274.71,613.84L273.69,614.88L273.69,614.88L270.97,613.51L270.05,614.27L264.64,613.8L261.88,615.43L260.67,615.11L258.89,617.76L257.07,617.8L255.29,619.51L249.73,619.64L247.54,620.85L243.41,618.75L237.08,618.55L233.84,619.54L232.53,618.47L228.9,618.79L225.56,621.43L223.1,621.77L220.49,624.93L218.22,625.47L218.21,624.84L218.21,624.84L219.99,624.3L219.59,619.89L218.63,617.31L216.98,615.83L217.66,613.71L219.46,612.45L218.58,611.26L219.29,609.04L215.57,605.74L215.4,603.14L216.09,601.03L218.68,600L219.62,598.13L220.99,597.7L218.16,595.37L218.94,593.65L222.63,591.57L224.51,591.96L225.85,586.03L224.66,585.06L225.39,583.62L224.78,583.07L230.14,582.36L231.53,580.03L233.41,578.91L232.92,577.1L233.65,575.17L232.34,574.31L235.07,571.33L239.71,571.34L242.23,575.38L242.29,573.93L244.88,572.36L244.43,570.46L246.19,568.11L245.81,567.23L247.83,565.91L249.51,562.95L251.79,562.78L255.77,560.77L255.99,559.9L254.23,558.48L255.31,555.85L254.75,555.01z"/>
		<path id="RO-SJ" title="Sălaj" d="M183.71,441.07L189.04,438.18L191.65,439.12L191.73,440.08L197.71,441.08L198.48,442.51L199.92,442.41L200.07,443.69L203.3,444.02L205.58,445.43L213.77,446.83L219.31,444.95L220.92,445.84L221.78,447.99L223.53,448.13L223.37,449.92L226.53,449.99L229.51,448.75L231.91,449.7L231.91,449.7L228.99,454.9L230.41,458.56L226.22,455.68L225.5,457.71L224.37,458.26L223.89,457.41L219.64,460.63L217.99,463.16L218.36,464.45L216.42,465.97L213.71,464.41L212.79,466.78L209,467.14L210.01,470.09L209.9,471.06L208.41,471.31L208.71,473.08L205.17,473.17L207.94,476.36L208.72,479.22L207.69,479.51L207.97,480.42L206.06,482.65L203.5,482.51L203.1,483.25L203.92,483.41L202.02,484.14L202.15,485.04L201.27,485.25L202.04,486.83L199.03,490.31L198.23,489.95L196.8,490.98L195.68,489.94L194.37,490.17L192.3,485.47L190.96,486.3L191.45,491.93L190.09,494.05L187.42,493.77L183.92,495.55L182.15,494.85L183.2,492.04L181.49,490.69L179.88,492.89L179.34,490.89L178.14,492.09L177.45,490.5L175.09,491.01L173.29,489.87L172.32,487.72L170.77,487.03L170.67,484.13L171.47,483.05L169.42,482.52L168.11,480.66L163.44,481.58L159.36,481.02L159.36,481.02L159.13,477.6L157.56,478.04L156.87,476.87L153.49,476.43L151.83,473.69L149.73,474.19L148.18,470.91L148.94,469.8L147.25,468.12L146.8,465.38L145.18,465.32L144.45,464.35L145.65,463.26L146.21,459.92L147.81,458.93L148.27,451.77L151.84,450.28L151.85,448.52L151.85,448.52L152.88,448.68L154.31,446.03L156.57,445.75L158.67,443.15L163.99,442.28L165.27,443.59L167.43,441.38L170.58,443.16L172.38,442.75L171.82,444.68L173.21,444.73L174.49,447.29L175.8,448L178.17,446.88L180.94,447.78L184.48,443.61z"/>
		<path id="RO-SM" title="Satu Mare" d="M188.21,374.25L189.79,376.44L193.3,376.92L194.62,376.23L196.21,378.84L195.51,380.57L199.11,382.23L198.88,383.93L203.23,385.7L204.22,387.02L205.48,386.87L206.58,388.18L209.75,388.9L209.75,388.9L212.57,391.34L214,391.25L215.78,395.33L218.03,396.27L219.13,398.73L217.14,400.8L215.92,400.41L213.67,404.66L208.5,406.85L206.68,408.75L201.96,406.78L200.09,407.25L195.71,405.33L194.43,405.64L192.55,409.9L193.01,412.43L196.36,412.06L197.24,413.48L199.49,413.52L201.28,416.14L202.09,415.58L202.73,416.25L198.93,419.73L196.54,420.11L195.75,428.64L193.8,428.7L191.69,426.67L189.4,426.05L186.58,422.03L180.77,428.74L180.28,434.96L178.02,434.69L177.06,435.73L175.06,435.24L175.22,439.78L178.48,441.12L182.36,439.4L183.71,441.07L183.71,441.07L184.48,443.61L180.94,447.78L178.17,446.88L175.8,448L174.49,447.29L173.21,444.73L171.82,444.68L172.38,442.75L170.58,443.16L167.43,441.38L165.27,443.59L163.99,442.28L158.67,443.15L156.57,445.75L154.31,446.03L152.88,448.68L151.85,448.52L151.85,448.52L149.47,446.16L148.87,443.88L146.91,443.63L146.08,441.28L143.84,440.17L140.49,441.61L138.91,440.3L135.78,440.92L134.24,435.88L135.17,435.11L131.3,433.31L131.31,430.19L129.1,430.14L129.41,427.81L128.07,427.37L127.06,424.59L124.61,423.42L124.61,423.42L127.22,415.65L129.2,414.85L129.59,411.81L132.97,410.61L133.01,408.31L135.49,410L140.32,410.8L141.52,404.8L143.69,404.13L148.06,407.81L151.99,407.85L156.53,406.33L158.58,401.8L162.69,401.09L161.5,396.31L163.76,396.44L167.12,394.76L169.85,390.65L174.06,389.1L173.4,386.08L172.2,385.28L172.76,384.07L175.59,384.79L178.38,386.84L179.54,385.49L183.34,385.3L184.37,382.43L184.18,379.44L185.35,378.34L184.76,377.41z"/>
		<path id="RO-SV" title="Suceava" d="M376.95,387.41L379.71,392.48L383.44,393.73L383.54,396.41L384.43,397.26L386.36,395.66L389.09,397.91L389.8,399.93L390.58,399.27L391.62,400.69L391.09,402L392.59,402.41L392.21,404.01L395.75,408.31L397.82,409.26L396.8,410.72L397.17,411.8L398.68,412.48L398.59,413.26L400.52,413.22L401.19,415.67L401.86,415.19L401.7,416.01L403.05,416.59L402.87,418.4L406.96,420.51L406.21,420.92L407.32,423.74L406.38,424.76L406.64,426.25L407.78,426.63L408.95,430.77L410.66,431.07L410.61,432.17L407.31,433.42L409.83,435.05L409.93,438.11L415.59,436.89L415.59,436.89L414.87,440.87L415.53,442.19L413.23,443.5L415.43,445.54L414.71,446.59L415.35,447.53L411.16,447.78L408.44,445.57L406.45,445.66L405.44,443.54L403.44,444.42L404.69,450.05L405.49,449.72L408.17,451.79L408.9,453.57L405.77,457.26L405.77,457.26L400.8,452.76L399.99,450.27L397.72,449.25L391.03,453.46L388.96,453.14L387.79,454.98L383.9,452.9L383.26,453.93L379,453.47L376,455.21L370.13,454.12L367.21,455.18L365.88,456.74L364.81,456.56L360.93,451.78L356.9,450.9L356.28,451.51L360.48,457.81L358.8,460.77L354.44,461.14L353.02,462.83L353.5,465.01L351.99,465.74L351.78,468.21L349.94,470.42L349.46,473.29L349.46,473.29L347.15,472.69L345.75,474.48L341.4,473.72L341.05,471.08L336.94,468.87L333.77,469.77L332.43,472.96L326.86,470.19L322.21,473.14L322.21,473.14L318.04,469.21L315.98,470.37L313.02,470.14L311.22,468.52L311.22,468.52L310.62,462.65L309.36,461.81L310.65,456.61L309.11,453.92L311.8,451.66L310.79,447.81L311.21,446.25L309.38,445.49L307.26,442.63L307.29,441.29L308.02,440.06L309.11,440.97L310.71,440.39L311.2,438.22L309.86,436.98L312.71,434.5L309.6,432.45L307.82,429.58L308.47,428.06L304.73,424.99L303.45,424.88L303.45,424.88L307.34,421.32L310.17,420.71L310.59,419.89L305.57,415.23L303.64,414.58L303.24,411.91L303.24,411.91L306.72,412.25L307.4,411.39L309.45,412.25L310.43,410.17L311.29,410.67L314.44,409.42L315.49,407.03L317.65,405.87L317.74,404.17L321.22,399.39L321.88,396.22L324.38,396.13L327.18,394.07L348.8,390.68L357.05,391.71L362.59,388.77L364.54,389.66L366.17,388.06L368.55,388.68L375.77,386.99z"/>
		<path id="RO-TL" title="Tulcea" d="M601.7,686.79l-1.9,0.53l3.1,-1.81L601.7,686.79zM603.26,685.17l2.04,-3.39l0.1,-3.3l0.11,3.24L603.26,685.17zM519.72,628.26l-0.26,2.67l4.25,7.03l13.85,6.62l4.97,0.49l4.62,1.75l5.24,-1.64l-2.62,-3.7l3.3,-1.82l-1.11,-2.59l2.21,-0.46l7.88,5.11l1.61,-4.71l12.05,-5.28l5.69,-4.13l3.21,0.54l2.23,-1.95l1.85,1.04l4.97,-0.55l7.75,3.11l3.21,2.2l3.74,4.74l1.35,5.78l-1.09,2.48l1.42,3.12l-3.38,-0.5l0.03,-0.79l0.08,3.14l1.17,2.71l1.98,0.44l2.07,-0.78l-2.1,1.76l-1.57,4.33l-2.34,19.49l-1.37,-0.03l0.54,3.7l-3.71,2.09l-13.24,1.43l-0.72,-0.86l-1.72,0.55l1.54,0.43l-12.17,2.8l-4.2,2.55l-4.64,5.07l-1.51,-1.79l-0.89,-3.29l3.38,-0.2l6.56,-3.34l1.48,-3.27l-3.5,-4.75l-0.56,1.23l0.96,1.96l-1.96,1.21l-1.65,-2.54l-0.33,-7.17l0.43,-1.02l3.49,-1.27l0.13,-1.98l-3.77,-1.97l-2.02,-0.02l-0.34,-1.57l-3,0.36l0.37,1.9l-1.03,0.82l-1.18,0.06l0.87,-1.94l-1.21,1.19l-0.32,-0.94l-0.2,1.67l-1.72,-3.72l1.08,3.78l-3.02,2.2l-0.6,4.27l0.52,2.81l5.93,5.09l-2.78,1.9l1.08,0.31l-0.79,1.84l1.79,2.15l-4.13,0.81l0.89,-1.01l-4.1,2.72l-2.85,0.82l1.48,-1.09l-1.42,0.25l-0.67,1.77l-2.23,-0.51l-1.67,-1.66l0.6,1.89l3.65,0.53l-0.74,1.07l2.47,0.58l-1.96,1.17l0,0l-1.47,0.33l-1.32,-1.81l-1.86,0.45l0.13,1.91l-10.47,0.29l-0.23,1.82l-3.28,0.71l-0.83,-2.63l-1.35,0.19l-0.19,0.93l-1.78,-0.3l-0.25,0.84l-1.92,-0.45l0.68,-2l-4.2,-0.54l-0.65,-1.39l-4.58,-2.33l0.11,-4.07l-2.53,-0.07l-1.26,1.06l-1.32,-0.87l0.78,-1.55l-2.54,-1.76l-2.51,0.64l-2.66,-0.81l0,0l1.73,-5.61l2.66,-2.43l-1.18,-2.06l1.77,-5.47l-1.48,-3.77l1.57,-1.94l-1.08,-5.97l2.59,-0.02l-0.38,-1.99l1.79,-1.21l-6.81,-4.92l2.47,-4.06l-0.96,-2.2l-1.32,0.77l-2.42,-0.45l-3.99,-3.11l1.94,-6.51l0.12,-4.1l0,0l4.36,-3.37l2.69,0.37l3.35,2.12l0.5,-3.36l1.37,-1.51l0,0l3.67,1.23L519.72,628.26z"/>
		<path id="RO-TM" title="Timiș" d="M21.71,561.44L24.42,563.53L25.5,561.26L26.86,561.94L28.11,560.55L28.11,560.55L29.29,560.68L30.05,562.09L32.92,562.11L33.44,563.83L36.89,567.11L42.35,568.51L44,571.82L46.62,571.27L49.39,572.58L52.18,571.68L53.18,575.44L54.82,577.33L56.87,575.85L57.25,574.14L58.26,574.07L60.05,576.62L63.72,578.16L64.81,575.32L66.94,574.77L66.51,573.56L69.24,575.13L70.14,577.45L71.02,577.4L71.94,575.07L75.87,573.23L80.24,569.03L81.88,571.38L81.62,574.32L88.84,577.85L88.77,580.31L90.56,581.29L91.09,584.08L92.52,583.3L92.63,581.31L94.7,578.36L95.45,580.21L97.84,580.47L97.83,581.57L99.27,581.77L101.34,579.08L102.51,580.18L104.05,578.81L105.5,579.85L107.16,578.62L107.95,576.57L112.48,575.52L112.8,577.87L120.77,581.23L121.01,583.01L123.67,582.03L126.47,583.19L128.07,579.91L132.03,581.56L133.17,577.94L134.39,577.87L135.05,580.49L138.98,582.89L138.98,582.89L138.83,584.25L136.88,585.89L139.31,589.26L140.73,588.82L143.34,590.63L143.64,595.08L144.87,595.45L146.44,594.36L147.91,595.98L146.04,599.59L142.99,600.4L142.68,602.81L140.12,606.22L140.12,606.22L138.6,607.75L137.79,606.69L134.72,607.81L133.17,606.72L129.85,614.03L122.97,609.76L121.31,612.82L119.27,613.24L117.24,615.11L116.57,614.31L115.42,615.05L116.06,620.47L114.29,622.81L110.82,622.9L108.62,621.95L109.55,619.81L108.7,618.47L106.15,619.17L105.5,618.4L106.56,615.84L104.18,616.29L104.07,618.52L101.54,618.08L97.03,618.96L95.8,616.78L93.28,616.05L92.43,614.33L86.29,615.49L84.31,621.23L77.51,623.95L78.23,627.94L79.53,627.6L80.63,628.89L76.41,629.78L76.93,632.61L78.72,635.15L80.82,636.18L81.46,638.46L83.47,640.61L83.4,642.65L82.21,643.37L80.69,647.6L81.07,649.06L78.85,650.05L78.85,650.05L75.76,648.76L73.91,646.51L73.07,647.45L66.46,645.22L65.37,646.38L61.72,644.46L58.93,637.64L58.04,637.6L57.02,639.37L53.93,640.21L52.91,638.27L51.64,638.35L51.73,636.96L48.81,637.63L48.42,636.07L45.16,633.8L44.39,632.07L43.28,631.98L42.57,629.24L38.9,627.89L40.04,626.63L39.15,624.92L36.93,623.52L32.89,623.51L32.75,621.68L36.89,618.4L34.45,613.6L32.98,614.09L32.56,611.35L35.11,607.27L34.97,599.86L36.3,596.32L33.73,595.31L33.13,598.25L28.33,598.6L27.29,594.26L25.94,594.57L25.15,592.96L25.77,591.34L22.61,588.1L20.65,587.6L19.86,583.78L16.39,585.47L14.29,579.74L11.96,578.15L9.26,578.62L5.42,575.4L6.05,574.74L5.15,570.81L0.14,565.3L1.28,564.55L0.01,564.06L1.67,561.71L5.94,559.49L6.78,561.29L7.66,560.44L13.05,561.74L15.06,559.46L15.35,557.4z"/>
		<path id="RO-TR" title="Teleorman" d="M320.6,717.79L323.04,720.97L326.43,719.93L326.14,719.35L330.57,715.3L329.47,711.53L332.28,711.25L333.88,712.39L335.07,712.17L336.16,712.88L334.99,714.65L336.5,715.52L336.5,715.52L337.9,717.38L336.82,719.68L339.93,721.93L338.17,723.85L338.78,724.62L337.38,726.44L337.14,728.82L343.82,730.14L345.02,729.55L347.46,730.73L346.89,732.01L348.71,733.19L349.23,731.53L350.02,731.78L350.1,733.87L351.72,735.14L349.75,739.25L349.19,743.16L352.96,746.45L351.23,747.02L350.46,749.35L349.46,747.48L349.2,749.17L348.26,748.71L346.7,751.24L347.61,753.41L345.34,754.01L345.92,759.98L346.76,761.01L345.95,761.48L347.19,763.44L346.73,768.44L345.54,769.36L347.05,771.66L346.86,773.16L349,773.95L350.24,785.66L350.24,785.66L342.96,789.75L338.13,789.83L331.6,791.98L329.14,791.25L323.51,786.44L318.71,784.89L313.8,786.18L310.94,785.6L306.51,782.28L302.84,782.36L298.67,784.36L294.27,783.87L289.74,786.22L284.28,782.57L284.28,782.57L284.54,780.1L286.43,779.49L287.03,777.38L289,776.93L289,775.33L291.06,774.2L286.46,773.97L288.96,772.71L284.86,767.68L284.65,765.86L283.05,763.91L284.02,763.15L283.1,762.82L282.9,761.2L281.58,760.87L280.02,757.59L285.03,755.11L289.22,754.32L288.45,752.52L297.32,749.36L296.65,746.07L294.12,743.75L293.52,740.87L296.35,737.69L294.9,737.09L295.56,736.64L295.76,730.12L297.01,729.32L295.83,728.18L294.53,723.83L294.53,723.83L296.31,723.19L297.44,724.3L304.29,723.79L306.52,721.57L311.42,721.91z"/>
		<path id="RO-VL" title="Vâlcea" d="M218.21,624.84L218.22,625.47L220.49,624.93L223.1,621.77L225.56,621.43L228.9,618.79L232.53,618.47L233.84,619.54L237.08,618.55L243.41,618.75L247.54,620.85L249.73,619.64L255.29,619.51L257.07,617.8L258.89,617.76L260.67,615.11L261.88,615.43L264.64,613.8L270.05,614.27L270.97,613.51L273.69,614.88L273.69,614.88L273.91,618.69L270.28,624.45L272.31,632.67L273.96,633.6L273.63,636.46L272.61,637.29L273.78,637.51L274.35,640.26L272.28,646.38L275.69,650.86L275.49,652.56L274.47,653.23L275.7,655.13L275.14,657.42L273.63,657.33L273.57,658.7L274.54,658.67L274.98,659.76L273.38,661.24L275.21,663.01L273.93,666.65L274.64,667.81L272.24,672.22L273.54,672.09L272.15,675.45L272.81,676.82L269.8,681.2L269.8,681.2L269.46,677.45L268.33,676.73L267.38,677.93L263.66,679.31L264.2,681.03L262.38,682.5L262.33,687.42L260.9,687.6L260.16,689.76L259.73,694.63L262.17,697.56L263.34,705.81L260.4,703.76L260.61,705.61L257.67,705.86L257.35,707.73L254.83,708.03L253.4,706.8L251.05,707.29L247.72,713.43L245.72,713.39L244.49,712.12L244.78,710.64L243.77,711.31L243.93,710.25L242.17,709.62L237.41,710.25L237.41,710.25L236.42,705.84L235.13,705.13L235.56,701.68L230.07,700.28L229.07,699.24L228.33,700.89L227.81,698.34L226.88,697.86L227.47,695.75L226.75,693.91L226.75,693.91L227.96,690.62L227.5,684.64L228.91,682.8L227.54,679.49L226.26,679.35L227.15,672.03L226.2,668.27L226.32,667.19L228.06,666.21L230.19,660.88L230.07,655.86L232.71,654.09L228.88,643.82L232.03,637.48L228.53,635.4L224.31,637.64L221.61,637.23L218.8,635.36L218.8,635.36L217.6,636.9L217.6,636.9L215.47,635.17L215.47,635.17L216.23,631.99L215.65,628.89L214.53,628.47L215.88,624.45L215.88,624.45z"/>
		<path id="RO-VN" title="Vrancea" d="M399.88,571.31L408.15,573.21L413.89,568.08L418.97,566.59L424.52,568.83L428.06,567.51L431.94,569.31L435.66,564.67L441.45,567.25L441.94,564.59L445.1,565.71L445.8,565.08L445.2,564.45L445.76,563.1L444.33,562.83L444.2,561.73L447.31,559.62L447.42,558.51L448.98,559.54L450.12,557.78L452.51,558.94L453.67,558.2L453.19,556.4L455.5,557.08L456.66,556.48L457.19,559.31L460.21,560.62L461.57,557.51L463.91,557.5L465.24,558.04L465.96,560.45L467.39,561.7L467.39,561.7L467.45,563.08L467.45,563.08L466.92,564.75L463.94,562.55L463.42,562.97L463.78,567.11L455.68,568.17L454.37,570.08L454.55,571.6L451.04,573.5L451.04,575.62L452.32,580.38L455.72,587.28L457.6,594.58L459.44,596.97L459.74,600.6L463.7,606.1L465.36,605.31L466.42,609.13L467.72,608.78L468.05,610.35L469.53,610.66L468.52,611.91L469.64,612.11L470.98,614.22L469.3,614.71L468.99,616.11L470.55,617.44L470.04,619.35L471.36,621.01L470.34,621.92L471.63,621.87L472.18,623.08L472.18,623.08L468.22,626.87L467.98,628.58L464.12,630.38L464.4,631.39L464.4,631.39L462.27,632.93L456.3,633.24L455.86,634.02L453.91,632.57L453.47,629.08L454.34,625.94L451.98,628.13L450.78,628.36L449.45,627.09L446.72,629.21L444.29,627.04L443.21,627.19L444.33,624.93L443.38,624.45L440.95,626.47L438.33,625.67L434.49,618.63L432.83,619.21L430.35,618.49L429.55,619.46L425.58,619.84L422.87,617.06L419.93,616.98L416.92,613.44L414.85,613.75L412.91,609.45L410.09,610.52L408.73,609.29L406.78,609.58L401.9,602.97L402.2,601.48L399.71,599.73L400.08,596.12L396.81,593.88L396.81,593.88L395.63,592.14L396.53,586.74L395.82,584.36L396.99,582.63L396.8,579.26L399.88,576.3z"/>
		<path id="RO-VS" title="Vaslui" d="M449.06,492.66L450.6,493.76L455.39,493.5L456.24,494.8L457.59,494.14L457.65,493.09L461.24,492.21L462.73,493.54L466.46,493.45L467.65,494.89L467.83,493.18L470.86,492.89L470.27,491.07L475.11,491.9L478.02,490.82L476.99,488.78L476.09,489.05L475.87,485.35L477.16,482.83L480.2,484.81L484.98,492.27L489.39,492.43L489.44,494.16L491.25,494.32L496.47,498.56L497.57,498.41L495.95,495.48L497.07,494.81L499.67,495.1L500.58,496.63L501.98,496.88L508.49,496.22L508.49,496.22L508.51,498.64L509.08,498.39L509.57,500.21L512.4,502.5L511.46,502.86L512.99,504.37L512.29,505.21L512.77,506.69L513.64,506.75L513.11,507.68L514.58,508.85L514.5,511.22L515.27,510.8L515.86,512.41L516.26,511.74L517.41,518.23L516.14,520.65L516.71,521.1L515.54,521.28L516.37,523.8L515.09,525.17L516.05,525.92L514.72,528.16L516.05,529.23L515.66,530.75L516.79,530.71L517.01,532.2L517.8,532.29L516.68,533.29L517.99,534.59L517.25,536.69L515.97,536.95L516.5,537.6L515.64,538.18L516.78,538.64L515.15,538.61L515.54,539.33L513.96,540.62L514.51,542.1L512.99,542.52L513.96,543.28L513.11,544.4L514.63,545.53L514.26,546.47L512.66,547.46L512.73,548.82L512.36,547.64L512.02,549.06L510.76,548.14L510.96,549.38L510.04,548.9L509.3,551.02L510.54,552.05L508.19,552.74L508.24,556.44L509.07,555.72L508.67,557.47L509.85,557.22L510.2,558.34L509.57,558.4L510.38,558.75L509.39,558.8L510.27,560.05L509.21,560.89L509.77,563.24L508.59,565.04L508.59,565.04L506.08,564.47L502.36,565.64L501.43,564.37L499.78,565.25L498.88,562.29L497.18,562.8L495.36,561.16L493.02,562.13L492.94,559.89L491.27,560.7L491.33,562.54L490.05,564.4L486.51,565.1L485.27,563.1L482.52,563.37L480.97,562.52L479.54,563.67L474.51,561.51L474.16,562.96L475.19,564.02L474.29,564.24L476.93,569.72L475.5,570.35L475.45,573.68L473.58,574.91L471.33,573.3L469.71,570.29L470.83,569.14L469.93,567.65L470.24,564.67L469.18,563.18L467.45,563.08L467.45,563.08L467.39,561.7L467.39,561.7L469.09,557.75L467.78,556.82L466.71,552.57L466,546.73L467.14,544.72L465.36,538L463.55,535.7L461.02,527.55L457.53,520.67L454.13,517.01L456.64,514.37L455.47,512.41L456.6,510.23L448.92,504.19L448.92,504.19L450.22,503.25L450.51,498.75L450.27,495.76L448.37,493.54z"/>
	</g>
</svg>