<?xml version="1.0" encoding="utf-8"?>
<!-- (c) ammap.com | SVG map of Saudi Arabia - Low -->
<svg xmlns="http://www.w3.org/2000/svg" xmlns:amcharts="http://amcharts.com/ammap" xmlns:xlink="http://www.w3.org/1999/xlink" version="1.1">
	<defs>
		<style type="text/css">
			.land
			{
				fill: #CCCCCC;
				fill-opacity: 1;
				stroke:white;
				stroke-opacity: 1;
				stroke-width:0.5;
			}
		</style>

		<amcharts:ammap projection="mercator" leftLongitude="34.492946" topLatitude="32.273479" rightLongitude="55.668143" bottomLatitude="16.399716"></amcharts:ammap>

		<!-- All areas are listed in the line below. You can use this list in your script. -->
		<!--{id:"SA-01"},{id:"SA-02"},{id:"SA-03"},{id:"SA-04"},{id:"SA-05"},{id:"SA-06"},{id:"SA-07"},{id:"SA-08"},{id:"SA-09"},{id:"SA-10"},{id:"SA-11"},{id:"SA-12"},{id:"SA-14"}-->

	</defs>
	<g>
		<path id="SA-01" title="Ar Riyāḑ" class="land" d="M456.55,486.88L446.42,489.51L430.03,491.9L371.18,496.94L359.09,495.52L353.87,493.13L345.36,487.54L345.36,487.54L331.82,475.45L327.91,469.09L325.16,466.13L326.17,458.42L329.51,452.33L329.59,449.37L324.93,444.04L321.86,439.11L316.1,434.1L316.1,434.1L306.41,419.21L308.17,410.73L307.63,403.78L309.96,400.36L310.64,398.02L308.85,384.92L309.5,377.19L303.05,375.78L297.4,377.25L293.7,375.97L292.44,373.67L293.58,365.4L291.74,363.52L288.65,362.67L274.55,362.04L271.54,360.41L266.39,349.15L265.48,343.51L263.38,338.79L262.25,333.93L258.09,330.63L258.17,323.86L258.17,323.86L258.13,314.83L259.54,309.95L258.6,306.35L261.55,302.1L261.95,298.96L261.95,298.96L264.99,293.88L267.16,292.3L277.7,295.78L283.43,296.28L289.1,295.39L294.79,296.26L297.22,294.47L298.07,292.29L296.16,288.46L296.31,286.16L301.73,279.47L305,276.95L317.88,273.8L320.72,270.99L323.81,269.25L326.09,264.78L328.11,262.81L331.24,261.99L339.54,263.05L352.27,262.59L353.11,258.69L352.8,255.53L350.28,250.67L351.22,246.9L344.53,236.74L340.93,233.17L340.44,231.65L341.28,225.91L340.85,220.79L344.86,219.69L349.36,213.82L351.82,211.71L356,209.87L356.62,208.39L356.47,205.89L355.13,203.39L351.53,200.4L349.18,199.47L349.18,199.47L348.56,196L349.55,192.9L351.97,189.58L355.12,187.94L355.12,187.94L357.06,190.06L358.57,190.58L360.37,189.72L361.67,187.49L361.67,187.49L367.11,192.02L368.51,197.13L369.75,198.66L380.16,204.74L385.91,205.8L389.37,210.02L393.43,213.4L404.42,214.95L416.77,223.08L425.09,222.34L431.54,228.42L433.01,230.94L445.75,236.18L446.84,238.74L447.27,243.7L447.65,266.33L447.02,281.4L448.05,292.51L451.45,296.1L460.89,302.4L470.08,311.56L474.71,319.4L476.07,326.29L476.05,334.04z"/>
		<path id="SA-02" title="Makkah" class="land" d="M143.43,343.65l0.12,-0.02l0,0L143.43,343.65zM258.17,323.86l-0.08,6.77l4.15,3.3l1.13,4.86l2.11,4.72l0.91,5.64l5.15,11.26l3.01,1.63l14.1,0.63l3.09,0.85l1.84,1.88l-1.14,8.27l1.26,2.31l3.7,1.28l5.65,-1.47l6.45,1.41l-0.65,7.73l1.79,13.1l-0.68,2.34l-2.33,3.43l0.55,6.94l-1.76,8.48l9.69,14.89l0,0l-4.02,1.47l-5.71,3.77l-5.22,-1.3l-2.26,0.25l-3.16,1.52l-4.55,0.28l-4.26,3.81l-6.41,3.06l-10.11,9.24l-2.31,1.14l-2.29,-0.24l-1.4,-1.02l-4.67,-9.07l0,0l-1.98,-1.93l-1.48,-0.22l-5.42,2.76l-4.16,-0.2l-4.61,1.77l-1.91,-1.46l-1.28,-3.77l-1.22,-1.45l-1.43,-0.61l-2.26,0.32l-2.06,3.53l0.99,6.9l-4.06,8.19l-7.73,1.86l-4,4.1l0.84,2.12l3.66,1.09l0.97,1.53l0.34,13.61l1.3,1.54l3.69,2.13l2.06,3.06l1.59,1.05h2.59l2.21,-1.08l2.58,-8.98l2.4,-4.46l6.93,-1.13l0,0l1.51,-0.74l2.29,0.13l1.85,1.88l-1.1,8.44l2.19,4.44l-1.27,4.6l-0.76,1.42l-1.52,0.75l-6.98,-0.06l-3.88,2.82l-0.75,0.06l-1.97,-1.87l-0.49,10l1.64,4.44l8.15,0.69l2.11,1.21l2.98,9.14l-1.5,6.41l0,0L249.75,533l-3.55,2.05l-1.97,3.15l0,0l-1.91,-4.49l-1.25,0.04l0.36,-1.15l-1.51,-2.64l-1.33,-6.28l-2.04,-2.37l-2.26,-0.09l-1.06,-0.83l-0.19,-1.62l-1.74,-2.17l1.24,-4.89l-2.71,-1.33l-1.2,-2.73l1.29,-3l-0.2,-1.69l-3.05,-1.3l-1.11,-2.63l-0.07,-2.95l-1.39,-1.94l-1.58,-0.81l0.32,-5.24l-6.28,-3.99l-0.28,-1.02l1.04,0.93l0.34,-2.1l-1.13,-3.14l-1.43,-1.64l-3.07,0.24l1,1.58l-1.35,-0.84l-0.43,-1.5l-1.42,-0.71l-0.3,-2l-1.3,-0.58l0.01,-2.39l-5.69,-3.91l-2.98,-0.95l-1.89,-2.08l0.14,-1.25l-2.29,0.07l-1.96,-3l-1.65,-0.59l-2.57,0.9l-2.1,-1.56l-1.14,0.2l-6.01,-3.64l-1.76,-1.95l0.58,-0.54l-1.07,-0.75l0.18,-1.07l-0.96,0.31l-1.71,-2l1.23,0.32l-0.4,-1.17l-0.99,0.09l-1.48,-1.98l-1.64,-3.02l0.35,-1.52l-1.33,-0.43l0.32,1.14l-0.58,-0.22l-0.8,-2.17l0.89,0.43l0.11,-0.89l-1.22,0.07l-2.05,-1.72l0.25,-1.31l-2.13,-0.85l-2.39,-5.5l-1.66,-1l-0.89,-4.24l-2.1,-3.21l0.11,-0.78l2.16,-1.29l0.7,-1.87l-1.22,-1.02l-0.12,-1.55l0.9,-0.1l-0.67,-1.73l-0.83,0.29l-0.78,-0.67l-0.93,-6.07l-1.43,-3.12l-3.24,-4.23l-0.5,-3.77l1.96,-1.06l-1.02,1.88l0.52,0.64l0.46,-0.88l0.79,0.17l0.2,-2.75l1.22,0.1l0.28,-3.05l-0.87,2.14l-0.58,-0.26l0.8,-1.95l-0.32,-1.47l2.25,-4.19l-0.02,-1.7l1.28,-0.9l0.32,-1.38l-1.17,-0.01l-0.15,0.92l-1.04,-0.75l0.37,-5.74l-3.44,-6.35l0.89,-0.9l-1.36,0.24l-4.27,-7.13l1.3,0.49l1.18,2.71l1.19,0.21l0.51,-0.72l-1.58,-2.25l-0.05,-1.49h-2.29l-0.83,-0.07l-1.44,-2.19l0.74,-1.65l-0.73,-3.8l-0.25,-0.76l-0.68,0.68l-1.68,-2.45l-1.62,-4.11l-0.07,-2.6l0,0l9.02,-0.98l2.13,3.42l7.51,7.23l6.43,-0.88l1.58,0.37l0.43,3.86l0.7,0.58l10.44,-3.25l4.76,-0.31l1.07,1.39l0.28,3.25l-2.59,7.78l4.58,1.92l2.09,1.91l0.45,2.31l-0.83,3.87l0.65,1.58l4.76,0.56l2.33,-1.12l4.63,-4.1l8.4,2.19l4.47,-6.66l9.34,-7.12l5.12,-5.32l2.45,-1.77l5.67,-2.31l0.56,-0.76l-0.4,-1.57l-5.35,-2.94l-0.96,-2.16l3.59,-2.87l11.75,-5.83l1.75,-3.74l-0.16,-3.22l-1.11,-2.52l0.58,-2.32l3.24,-1.03L258.17,323.86z"/>
		<path id="SA-03" title="Al Madīnah" class="land" d="M130.57,324.5l-0.9,-0.61l-0.33,0.61l-0.7,-0.29l-1.43,-1.44l0.38,-0.9l-1,0.41l-2.69,-3.03l-1.75,0.11l-3.64,-2.84l0.62,-0.51l-0.59,-0.29l0.58,-1.68l-1.39,0.76l0.01,1.65l-1.68,-0.19l-2.75,-2.06l-1.19,-2.11l-1.87,-0.7l-0.09,-0.83l-2.59,0.23l0.09,1.88l-3.34,-0.84l-3.31,-3.78l0.31,-1.82l0.67,0.46l0.26,-1.12l-2.64,-3.81l0,0l1.5,-4.71l5.65,-0.48l2.36,-0.91l2.51,-3.24l0,0l3.86,0.04l0,0l2.58,-0.03l1.61,-0.83l0.92,-1.54l-0.11,-15.01l1.19,-7.8l-1.12,-1.4l-3.9,-0.43l-3.59,-10.2l-5.9,-5.18l-1.21,-3.91l-6.97,-4.29l-1.53,0.17l-1.95,1.78l-1.09,-4.68l-2.36,-4.85l0.16,-2.33l0,0l3.15,-5.54l0.26,-1.76l0,0l-0.36,-1.18l-1.54,-0.95l-4.78,-1.35l-2.6,-2.89l-0.69,-2.63l0.81,-8.93l-0.99,-4.2l-1.43,-1.38l-4.66,0.5l0,0l-0.9,-1.23l0,0l1,-1.47l4.74,-1.11l10.42,-4.67l6.32,3.4l2.42,0.31l9.13,-4.21l1.89,1.83l1.36,4.84l3.54,5.82l2.34,0.81l5.38,0.24l1,1.24l-0.05,2.38l3.74,2.46l0.15,0.75l0,0l-0.43,2.4l0.93,1.09l0,0l5.54,-3.86l1.65,-0.33l6.16,2.51l0.8,-0.64l-0.82,-3.01l0,0l1.17,-0.77l0,0l1.28,1.18l0.96,3.08l4.72,1.41l6.21,4.49l8.82,-0.12l11.98,-2.1l2.55,2.87l0,0l0.92,4.22l-2.36,4.67v1.63l1.94,1.74l3.27,-0.84l1.09,1.03l-2.02,15.07l2.08,9.8l-0.52,10.14l1.93,3.1l3.11,0.74l9.37,-3.24l8.06,-0.39l2.41,-1.18l3.87,-4.64l3.27,-1.25l6.68,-0.15l11.8,2.31l0,0l6.92,1.83l1.35,1.16l-0.3,13.3l1.74,2.02l5.3,1.39l1.41,1.13l3.15,10.79l4.08,3.38l0,0l-0.4,3.14l-2.95,4.25l0.94,3.6l-1.41,4.88l0.04,9.03l0,0l-5.05,-0.85l-3.23,1.03l-0.58,2.32l1.11,2.52l0.16,3.23l-1.75,3.74l-11.75,5.84l-3.59,2.87l0.96,2.16l5.35,2.94l0.4,1.57l-0.56,0.76l-5.67,2.31l-2.45,1.77l-5.12,5.33l-9.34,7.12l-4.47,6.66l-8.4,-2.19l-4.63,4.1l-2.33,1.12l-4.76,-0.56l-0.65,-1.58l0.83,-3.86l-0.45,-2.31l-2.09,-1.91l-4.57,-1.92l2.59,-7.78l-0.28,-3.25l-1.07,-1.39l-4.76,0.31l-10.44,3.25l-0.7,-0.58l-0.43,-3.86l-1.58,-0.37l-6.43,0.88l-7.51,-7.23l-2.12,-3.42l-9.02,0.98l0,0l-0.21,0.03l0,0l-0.12,0.02l0,0l-0.64,-3.24l-1.32,-1.32l0.21,-1.05l-1.62,0.04l0.34,1.55l-0.86,-0.5l-0.34,-3.37l-1.47,-1.22l-0.96,-4.42L130.57,324.5z"/>
		<path id="SA-04" title="Ash Sharqīyah" class="land" d="M544.81,262.45l1.22,0.53l0.35,2.07L544.81,262.45zM536.46,223.44l0.87,0.69l-0.05,1.6l-2.19,-1.28L536.46,223.44zM518.09,194.3l5.86,2.13l-2.38,-0.21l-2.37,0.75l-0.11,-1.34l-1.17,-0.55l-2.2,2.78l0.33,-2.34L518.09,194.3zM537.66,227.85l0.38,0.99l0.91,-1.52l-0.06,2.39l0.79,0.44l1.19,-1.76l0.02,-2.14l0.36,1.46l0.38,-0.61l0.05,1.18l-1.53,1.74l1.65,1.52l0.52,1.62l-0.09,4.78l-1.46,2.63l-0.68,-1.99l0.26,2.76l-0.64,3.42l-0.75,0.42l-2.62,-5.96l-1.27,-0.22l-1.15,2.79l0.89,1.29l-0.48,3.69l1.42,-0.76l2.18,0.84l0.98,2.12l-1.06,1.2l1.28,2.91l4.35,5.75l-0.23,0.88l-0.81,-1.29l-1.42,-0.33l-2.02,-1.88l0.68,1.74l1.14,1.32l0.51,-0.72l0.46,2.08l1.95,2.62l1.26,0.44l0.07,1.1l2.04,2.54l0.35,-1.05l-0.68,-0.91l0.66,-0.53l0.62,1.64l3.23,2.49l1.33,4.04l-0.34,2.41l1.25,2.03l0.15,5.21l0.89,0.45l-0.18,-1.47l2.52,3.53l1.05,3.3l1.48,0.73l1.49,6.53l0.64,-1.84l1.58,-0.3l0.84,2.61l3.69,4.38l4.58,0.8l2.45,-0.96l1.63,-1.8l2.15,0.05l0.5,0.95l0.76,-0.35l-0.66,1.28l0.13,2.42l1.45,-0.87l0.37,-1.39l1.6,-1.3l-0.09,-0.95l0.89,0.53l0.53,-0.43l0.41,1.64l1.03,-0.58l0.76,0.76l-2.81,1.51l-0.42,1.48l-3.07,2.44l-0.6,3.09l-0.56,0.13l0.13,1.7l2.24,0.42l0.9,-1.18l2.03,-0.18l1.67,0.66l1.51,2.12l1.63,-0.07l0.75,1.18l-0.51,4.23l34.3,41.63l23.79,4.76l59.71,13.76l7.05,-7.46l15.68,25.98l-22.97,73.24l-103.4,36.4l-39.96,7.94l-57.87,6.31l-32.09,15.68l-20.91,25.6l-4.87,12.21l-1.53,0.93l0,0l10.58,-87.95l0,0l19.5,-152.83l0.02,-7.75l-1.36,-6.9l-4.63,-7.84l-9.19,-9.15l-9.44,-6.3l-3.41,-3.59l-1.02,-11.11l0.63,-15.07l-0.38,-22.62l-0.43,-4.96l-1.09,-2.56l-12.74,-5.25l-1.46,-2.52l-6.45,-6.08l-8.32,0.75l-12.36,-8.13l-10.99,-1.55l-4.06,-3.38l-3.46,-4.22l-5.74,-1.06l-10.41,-6.08l-1.23,-1.53l-1.41,-5.11l-5.44,-4.53l0,0l-1.86,-3.35l1.28,-4.67l9.15,-12.15l12.66,-23.67l8.26,-8.72l12.45,-4.39l0,0l5.1,0.13l6.73,-4.42l31.35,4.11l4.23,6.05l0.83,7.16l3.53,4.7l-0.17,0.7l24.98,-0.43l2.46,1.6l-0.04,2.25l1.51,1.15l-1.01,3.01l0.97,1.98l3.18,3.25l-0.69,0.53l0.21,3.67l2.05,2.38l3.89,1.05l-1.62,0.84l0.08,1.05l1.59,1.81l1,0.1l0.05,1.35l2.03,1.26l0.02,3.01l-0.9,0.6l-0.26,-2.94l-0.72,1.02l-0.29,-1.41l-1.3,4.4l0.64,0.08l0.45,-1.25l0.35,2.38l0.64,-0.95l0.08,1.86l1.07,-0.31l-1.21,2.19l1.12,0.54l0.75,-1.32l0.63,0.19l-0.46,2.33l0.81,-0.41l-0.1,-1.04l1.56,-0.79l2.02,1.93l2.59,1.16l3.66,-0.06l1.69,0.83l1.73,1.96l0.2,1.82l-0.67,-1.37l-0.71,1.15l-0.54,-0.61l-0.71,0.71l-1.8,-0.7l-1.85,1.31l2.52,1.44l1.01,-0.24l-0.03,-1.05l1.36,0.77l-1.34,0.83l-0.35,2.15l1.72,-1.09l1.62,0.54l-0.01,3.71l0.67,1.13l2.62,0.29l-0.48,1.89l-1.09,0.17l0.31,0.57l0.76,-0.31l0.53,1.03l0.67,-1.73l0.35,1.41l1.2,-0.66l1.46,0.51l-0.89,-1.68l0.77,-1.62l-1.91,-1.19l0.66,-1.25l0.6,-0.46l0.38,1.64l1.11,0.06l0.23,1.5l-0.74,0.31l0.97,0.96l0.9,-0.7l-0.5,1.48l0.55,1.96l1.17,1.16l2.4,-1.43l1.07,0.41l-3.42,1.27l0.96,1.23l1.49,-0.36l-0.71,1.93l3.37,2.9l3.49,1.81l2.98,0.3l7.46,8.34l-1.9,-1.65l-1.68,-0.43l-0.98,0.68l-1.28,-2.83l-0.47,2.24l0.15,0.95l0.81,0.2l-0.05,3.75l2.34,4.17L537.66,227.85z"/>
		<path id="SA-05" title="Al Qaşīm" class="land" d="M238.3,263.96L239.5,262.59L244.45,261.85L250.45,258.28L256.4,257.51L257.21,256.86L254.86,251.26L255.18,248.82L257.3,247.12L263.68,248.79L264.15,248.02L263.33,241.69L265.22,236.89L270.91,236.22L271.78,231.92L276.53,227.09L288.42,217.85L299.73,212.62L302.49,206.83L305.21,204.07L319.71,196.64L323.86,195.3L326.23,196.16L330.67,200.65L336.66,204.77L344.13,205.31L349.18,199.47L349.18,199.47L351.53,200.4L355.13,203.39L356.47,205.89L356.62,208.39L356,209.87L351.82,211.71L349.36,213.82L344.86,219.69L340.85,220.79L341.28,225.91L340.44,231.65L340.93,233.17L344.53,236.74L351.22,246.9L350.28,250.67L352.8,255.53L353.11,258.69L352.27,262.59L339.54,263.05L331.24,261.99L328.11,262.81L326.09,264.78L323.81,269.25L320.72,270.99L317.88,273.8L305,276.95L301.73,279.47L296.31,286.16L296.16,288.46L298.07,292.29L297.22,294.47L294.79,296.26L289.1,295.39L283.43,296.28L277.7,295.78L267.16,292.3L264.99,293.88L261.95,298.96L261.95,298.96L257.87,295.58L254.72,284.78L253.32,283.65L248.01,282.26L246.27,280.25L246.57,266.95L245.22,265.79z"/>
		<path id="SA-06" title="Ḩā'il" class="land" d="M183.38,221.21L185.37,218.82L187.71,211.06L190.84,207.32L190.84,207.32L195.28,203.19L195.57,200.78L195.57,200.78L191.44,197.82L191.44,197.82L187.71,195.66L186.31,191.75L186.31,191.75L182.49,177.32L181.09,175.68L177.95,174.23L176.62,171.8L173.56,170.82L172.26,169.23L172.26,169.23L169.32,166.96L164.37,165.66L164.37,165.66L156.39,164.18L155.26,162.85L155.26,162.85L158.95,158.65L165.22,155.11L175.15,150.73L179.44,150.04L192.51,142.44L205.41,136.91L208.45,137.57L208.45,137.57L215.2,139.84L236.16,134.97L248.33,138.5L257.54,136.79L272.01,140.3L278.58,147.45L281.1,148.91L285.09,148.7L289.71,146.22L292.39,145.75L293.06,146.55L293.94,152.77L296.32,154.54L302.81,154.23L308.81,157.35L311.33,156.51L316.38,153.13L317.95,152.92L320.61,155.77L325.89,165.43L328.67,173.13L330.69,175.61L333.13,177.05L343.11,178.34L346.39,179.6L354.09,186.07L355.12,187.94L355.12,187.94L351.97,189.58L349.55,192.9L348.56,196L349.18,199.47L349.18,199.47L344.13,205.31L336.66,204.77L330.67,200.65L326.23,196.16L323.86,195.3L319.71,196.64L305.21,204.07L302.49,206.83L299.73,212.62L288.42,217.85L276.53,227.09L271.78,231.92L270.91,236.22L265.22,236.89L263.33,241.69L264.15,248.02L263.68,248.79L257.3,247.12L255.18,248.82L254.86,251.26L257.21,256.86L256.4,257.51L250.45,258.28L244.45,261.85L239.5,262.59L238.3,263.96L238.3,263.96L226.5,261.65L219.81,261.8L216.54,263.05L212.67,267.69L210.26,268.87L202.2,269.26L192.83,272.5L189.72,271.77L187.79,268.67L188.3,258.53L186.23,248.72L188.25,233.66L187.15,232.63L183.88,233.46L181.94,231.72L181.94,230.1L184.3,225.43z"/>
		<path id="SA-07" title="Tabūk" class="land" d="M88.92,284.8l1.2,1.5l-1.49,-0.68L88.92,284.8zM80.98,267.53l1.34,0.39l0.96,2.68h-0.7l0.08,-1.17l-2.04,-1.11L80.98,267.53zM85.54,266.23l1.03,1.42l0.55,-0.18l-0.26,0.83l-1.46,-0.43L85.54,266.23zM84.73,264.76l0.9,0.87L84.3,265.53L84.73,264.76zM81.11,262.59l0.56,0.93l-0.85,0.56l-0.43,-0.67L81.11,262.59zM83.12,262.19l0.94,2.34l-1.03,-0.85L83.12,262.19zM69.29,259.15l1.39,1.61l-1.55,0.1l-0.63,-1.01L69.29,259.15zM71.91,257.16l-1.4,-0.76l-0.02,-1.67l0.73,1.36l0.8,-0.2L71.91,257.16zM6.81,170.96l0.88,0.19l0.6,1.53l-1.02,0.43l-0.73,-1.53l-1.11,0.74l0.24,-0.9L6.81,170.96zM1.46,168.83l0.48,0.71l-1.25,0.41l0.69,0.97l1.93,-0.34l-0.1,0.81l1.17,1.07L2,172.82l-1.67,-1.25L0,169.41L1.46,168.83zM11.62,134.86l4.87,-0.45l9.66,1.35l2.31,-2.25l3.26,-0.84l11.7,-1.56l5.98,0.34l5.08,1.55l2.51,1.93l9.39,12.14l1.72,0.64l13.95,-3.57l5.16,0.72l4.62,1.8l8.55,0.72l1.57,-0.57l3.85,-7.53l5.22,-4.01l1.57,0.95l0.46,1.64l-0.14,11.58l1.32,4.28l0,0l3.48,3.55l2.42,1.21l0,0l3.31,1.1l10.14,1.18l3.2,-1.79l2.32,1.73l2.38,-0.11l0.79,2.47l1.29,1.08l0,0l1.73,-0.09l3.56,-1.88l0,0l3.39,-0.99l3.04,1.7l0,0l1.13,1.32l7.98,1.48l0,0l4.95,1.31l2.94,2.27l0,0l1.3,1.6l3.05,0.98l1.33,2.42l3.14,1.45l1.41,1.64l3.82,14.43l0,0l1.4,3.91l3.73,2.15l0,0l4.13,2.97l0,0l-0.29,2.41l-4.44,4.13l0,0l-3.13,3.74l-2.33,7.77l-1.99,2.39l0,0l-2.55,-2.87l-11.98,2.1l-8.82,0.12l-6.21,-4.49l-4.72,-1.41l-0.96,-3.08l-1.28,-1.17l0,0l-1.17,0.77l0,0l0.82,3.01l-0.8,0.64l-6.15,-2.51l-1.65,0.33l-5.54,3.86l0,0l-0.93,-1.09l0.43,-2.4l0,0l-0.15,-0.75l-3.74,-2.46l0.05,-2.38l-1,-1.24l-5.38,-0.23l-2.34,-0.81l-3.54,-5.82l-1.36,-4.84l-1.89,-1.83l-9.13,4.21l-2.42,-0.31l-6.32,-3.4l-10.41,4.67l-4.74,1.11l-1,1.47l0,0l0.9,1.23l0,0l4.66,-0.5l1.43,1.38l0.99,4.2l-0.81,8.93l0.69,2.63l2.6,2.89l4.78,1.35l1.54,0.95l0.36,1.18l0,0l-0.26,1.76l-3.15,5.54l0,0l-0.16,2.33l2.36,4.85l1.09,4.68l1.95,-1.78l1.53,-0.17l6.97,4.29l1.21,3.91l5.9,5.18l3.59,10.2l3.91,0.43l1.12,1.4l-1.19,7.81l0.12,15.02l-0.92,1.54l-1.61,0.83l-2.58,0.03l0,0l-3.86,-0.04l0,0l-2.51,3.24l-2.36,0.91l-5.65,0.48l-1.5,4.71l0,0l-1.48,-3.59l-0.84,0.33l-0.56,-1.64l-2.78,-1.51l-0.44,-2.11l0.84,0.07l-0.05,-1.24l-0.92,-0.35l0.42,0.41l-0.78,0.58l-1.33,-1.78l0.74,-0.6l1.35,0.3l-0.89,0.44l1.2,0.37l1.5,-2.13l-0.69,-1.49l1.33,-3.11l-1.45,-2.83l0.79,-1.46l-0.59,-2.62l-4.67,-5.22l-1.37,-3.49l0.09,-1.57l-2.7,-2.19l0.04,-1.78l-0.93,-0.25l-0.22,-2.07l-1.07,-1.57l-2.11,-0.91l-2.23,-3.18l-0.24,1.7l-2.04,-1.01l-1.1,-0.86l0.18,-1.06l-0.94,-0.13l-0.58,-1.92l-0.96,-0.3l1.62,-2.56l0.4,-4.25l-1.79,-1.12l-2.77,-0.16l-2.62,-2.13l-1.09,-3.69l-3.07,-4.99l-2.17,-5.7L57,218.89l-1.75,-0.97l-1.95,-5.94l-8.32,-8.31l-0.43,-2.1l1.01,-1.06l-0.31,-1.15l-2.3,-3.78l-2.56,-1.31l-2.59,-2.96l-5.26,-12.61l-2.7,-1.42l-0.19,-2.51l-2.49,-2l-0.65,-1.62l-3.32,-1.72l-0.19,-0.58l2.18,-0.65l-0.07,-0.59l-3.98,-0.88l-1.7,-1.66l-1.46,-0.39l0.51,1.07l-1.1,-0.65l-2.4,1.32l-2.78,0.24l-0.23,-0.96l1.02,-0.56l-1.66,0.11l-0.74,-0.09l-0.54,0.73l-0.54,-0.08l-0.05,1.2L8.5,167.01l0.44,-1.68l-1.35,-0.19l-0.12,-1.17L6.5,164.17l-1.13,1.56l0.59,1.1l-1.39,1.58l-0.78,-1.45l0.2,-1.28l-1.27,0.28l1.97,-3.31l0.97,0.36l-0.42,-1.04l1.01,-3.05l4.46,-9.9l-1.04,-5.44l1.92,-5.76L11.62,134.86z"/>
		<path id="SA-08" title="Al Ḩudūd ash Shamālīyah" class="land" d="M403.62,130.53L391.16,134.92L382.91,143.64L370.25,167.32L361.1,179.47L359.81,184.14L361.67,187.49L361.67,187.49L360.37,189.72L358.57,190.58L357.06,190.06L355.12,187.94L355.12,187.94L354.09,186.07L346.39,179.6L343.11,178.34L333.13,177.05L330.69,175.61L328.67,173.13L325.89,165.43L320.61,155.77L317.95,152.92L316.38,153.13L311.33,156.51L308.81,157.35L302.81,154.23L296.32,154.54L293.94,152.77L293.06,146.55L292.39,145.75L289.71,146.22L285.09,148.7L281.1,148.91L278.58,147.45L272.01,140.3L257.54,136.79L248.33,138.5L236.16,134.97L215.2,139.84L208.45,137.57L208.45,137.57L214.07,131.88L215.35,116.46L216.75,113.99L222.91,109.27L250.18,92.42L255.44,87.69L255.34,86.12L247.56,79.86L244.43,73.47L242.34,70.97L238.74,69.38L230.06,68.77L222.49,62.69L219.79,61.43L212.78,62.31L194.83,61.69L191.13,60.57L185.37,56.36L180.99,56.28L161.98,52.83L153.93,52.97L133.1,55.82L127.37,55.16L125.18,53.26L121.29,46.3L116.59,42.61L116.01,35.89L120.12,21.49L120.12,21.49L155.15,11.18L165.67,2.01L165.22,0L168.71,2.95L187.27,8.37L196.76,13.52L285.45,76.18L351.5,121.83z"/>
		<path id="SA-09" title="Jīzān" class="land" d="M260.26,593.69l0.94,0.36l-0.65,1.12l-0.68,-0.76L260.26,593.69zM259.78,590.47l-0.13,1.06l-0.49,0.77l-0.56,-1.17L259.78,590.47zM249.82,587.51l1.93,0.5l1.13,1.63l-3.2,-1.03l-0.65,-0.76L249.82,587.51zM259.48,583.76l0.49,0.34l-1.62,0.14L259.48,583.76zM250.3,581.95l3.17,1.84l1.47,3.11l2.35,0.67l1.59,-0.36l0.99,1.34l1.6,-0.47l-0.28,-0.9l-1,0.59l-0.43,-0.61l0.61,-1.86l1.64,-0.43l0.97,2.45l2.42,1.16l-0.7,1.59l0.44,2.97l-3.97,-1.68l1.24,-0.6l-0.09,-1.26l-1.8,-0.44l-3.04,0.93l-3.11,-1.96l-2.14,-2.93l-1.33,-0.03l0.46,-1.25l-1,-0.81L250.3,581.95zM243.83,581.79l2.05,3.05l-1.59,-0.6L243.83,581.79zM255.76,579.71l1.14,0.78l-0.56,0.94l0.58,0.92l1.38,0.42l-0.13,0.87l-1.3,-0.32l-0.74,0.59l2.19,1.66l0.46,1.49l-0.76,-1.15l-3.02,-1l-1.83,-2.61l0.01,-1.08l1.64,-0.2L255.76,579.71zM247.73,579.49l1.51,1.1l-1.68,1.47l-0.94,-1.16L247.73,579.49zM251.35,578.63l1.13,0.65l-0.47,0.57L251.35,578.63zM256.51,578.87l0.42,1.41l-2.06,-2.08L256.51,578.87zM250.73,530.94l4.46,-0.47l1.26,1.03l-0.55,8.77l5.84,0.25l2.66,4.88l8.28,0.4l1.28,1.24l1.59,3.73l4.77,3.8l1.97,-0.8l1.67,-6.75l1.21,-2.1l5.08,-3.04l1,1.12l-0.13,4.42l3.6,1.82l2.64,4.64l3.64,1.17l1.98,3.01l0,0l0.97,1.39l-1.92,2.92l0.09,2.37l2.62,2.58l-4.49,1.41l0.42,1.87l-1.52,1.37l-0.64,2.65l2.7,0.43l0.82,1.64l-0.55,0.91l-2.27,-0.26l0.26,2.81l-1.54,1.3l1.45,1.89l1.55,0.34l1.34,1.31l0.26,2.12l-1.43,0.11l-0.32,0.81l0.49,2.6l-3.57,-0.78l0.44,0.9l-0.98,3.8l-4.42,1.16l-1.67,1.19l0.42,2.71l-6.49,-0.07l0.27,-2.46l-2.05,-3.37l0.56,-3.56l-0.79,-0.88l0.01,-1.5l-2.51,-3.11l-2.05,-0.45l-0.39,-1.35l-1.2,-0.5l1.07,-0.96l-0.22,-3.24l-3.54,-1.79l-1.33,-1.88l0.23,-1.83l-1.58,-0.85l0.87,2.25l-0.66,0.66l-0.25,2.92l-0.18,-3.73l-1.5,-7.36l-0.56,-0.31l0.37,-3.75l-1.44,-0.38l-1.57,-2.47l-1.97,-1.51l-0.98,0.05l-1,-2.43l-7.97,-6.24l-3.75,-1.38l0.19,-0.8l-3.78,-3.48l0.69,-0.01l-1.01,-0.91l0.26,-1.07l-0.59,0.79l-0.49,-0.33l0.25,-1.74l-1.39,-0.54l-0.76,-1.79l0,0l1.97,-3.15l3.55,-2.05L250.73,530.94z"/>
		<path id="SA-10" title="Najrān" class="land" d="M399.66,569.25L376.18,566.47L369.93,562.44L350.2,562.44L346.86,563.69L344.22,562.3L341.52,562.42L332.73,563.54L331.91,565.06L330.83,563.72L327.88,564.25L326.51,566.17L323.9,565.45L320.33,565.59L319.65,564.7L317.63,565.06L315.04,562.36L315.11,561.32L315.11,561.32L316.26,558.08L314.96,552.15L316.4,542.31L315.1,534.53L319.06,529.41L327.27,521.85L330.36,516.3L336.68,514.28L340.28,511.45L341.42,507.11L339.66,498.54L340.35,496.95L344.2,495.01L345.32,493.62L345.36,487.54L345.36,487.54L353.87,493.13L359.09,495.52L371.18,496.94L430.03,491.9L446.42,489.51L456.55,486.88L456.55,486.88L445.97,574.82L445.97,574.82L438.49,579.54L431.46,579.18L423.28,568.14L412.58,569.67z"/>
		<path id="SA-11" title="Al Bāḩah" class="land" d="M259.74,446.97L257.59,453.39L259.87,456.15L259.98,457.74L258.94,459.19L253.12,463.16L252.28,464.95L252.51,468.5L248.25,477.19L248.25,477.19L241.32,478.32L238.92,482.78L236.34,491.77L234.13,492.85L231.55,492.85L229.96,491.8L227.9,488.74L224.22,486.61L222.92,485.07L222.58,471.46L221.61,469.94L217.96,468.84L217.11,466.73L221.12,462.63L228.85,460.77L232.91,452.58L231.92,445.68L233.98,442.15L236.24,441.84L237.67,442.45L238.88,443.9L240.16,447.68L242.08,449.14L246.69,447.37L250.86,447.57L256.27,444.82L257.76,445.04z"/>
		<path id="SA-12" title="Al Jawf" class="land" d="M13.16,125.9L14.38,121.5L15.42,120.89L14.94,118.97L15.75,118.51L16.12,116.29L54.33,123.08L68.98,111.01L77.83,96.23L103.59,91.07L109.37,77.89L120.69,71.11L86.43,31.39L120.12,21.49L120.12,21.49L116.01,35.89L116.59,42.61L121.29,46.3L125.18,53.26L127.37,55.16L133.1,55.82L153.93,52.97L161.98,52.83L180.99,56.28L185.37,56.36L191.13,60.57L194.83,61.69L212.78,62.31L219.79,61.43L222.49,62.69L230.06,68.77L238.74,69.38L242.34,70.97L244.43,73.47L247.56,79.86L255.34,86.12L255.44,87.69L250.18,92.42L222.91,109.27L216.75,113.99L215.35,116.46L214.07,131.88L208.45,137.57L208.45,137.57L205.41,136.91L192.51,142.44L179.44,150.04L175.15,150.73L165.22,155.11L158.95,158.65L155.26,162.85L155.26,162.85L152.22,161.15L148.83,162.15L148.83,162.15L145.27,164.03L143.54,164.11L143.54,164.11L142.24,163.03L141.46,160.56L139.07,160.67L136.76,158.94L133.56,160.73L123.43,159.55L120.11,158.45L120.11,158.45L117.69,157.24L114.22,153.69L114.22,153.69L112.9,149.41L113.04,137.83L112.58,136.19L111.01,135.25L105.79,139.26L101.95,146.79L100.38,147.36L91.83,146.65L87.21,144.85L82.05,144.13L68.1,147.7L66.38,147.06L56.99,134.92L54.48,132.99L49.4,131.45L49.4,131.45L49.4,131.45L49.4,131.45L43.41,131.11L31.72,132.67L28.45,133.5L26.15,135.76L16.49,134.41L11.62,134.86L11.62,134.86z"/>
		<path id="SA-14" title="'ٰĀsīr" class="land" d="M302.97,558.04L300.99,555.03L297.36,553.86L294.71,549.23L291.11,547.41L291.25,542.99L290.25,541.87L285.17,544.91L283.96,547.01L282.3,553.76L280.33,554.56L275.56,550.77L273.97,547.04L272.69,545.8L264.41,545.4L261.75,540.52L255.91,540.27L256.46,531.5L255.19,530.47L250.73,530.94L250.73,530.94L252.23,524.53L249.26,515.39L247.15,514.19L239.01,513.49L237.37,509.05L237.86,499.05L239.83,500.93L240.58,500.87L244.45,498.05L251.43,498.11L252.95,497.36L253.71,495.94L254.98,491.34L252.79,486.9L253.89,478.47L252.04,476.58L249.75,476.45L248.25,477.19L248.25,477.19L252.51,468.5L252.28,464.95L253.12,463.16L258.94,459.19L259.98,457.74L259.87,456.15L257.59,453.39L259.74,446.97L259.74,446.97L264.41,456.05L265.81,457.07L268.09,457.31L270.4,456.18L280.51,446.93L286.92,443.87L291.18,440.07L295.73,439.79L298.89,438.27L301.15,438.03L306.36,439.33L312.08,435.56L316.1,434.1L316.1,434.1L321.86,439.11L324.93,444.04L329.59,449.37L329.51,452.33L326.17,458.42L325.16,466.13L327.91,469.09L331.82,475.45L345.36,487.54L345.36,487.54L345.32,493.62L344.2,495.01L340.35,496.95L339.66,498.54L341.42,507.11L340.28,511.45L336.68,514.28L330.36,516.3L327.27,521.85L319.06,529.41L315.1,534.53L316.4,542.31L314.96,552.15L316.26,558.08L315.11,561.32L315.11,561.32L315,563.12L307.34,557.45L304.88,557.11z"/>
	</g>
</svg>