<?xml version="1.0" encoding="utf-8"?>
<!-- (c) ammap.com | SVG map of Slovakia - Low -->
<svg xmlns="http://www.w3.org/2000/svg" xmlns:amcharts="http://amcharts.com/ammap" xmlns:xlink="http://www.w3.org/1999/xlink" version="1.1">
	<defs>
		<style type="text/css">
			.land
			{
				fill: #CCCCCC;
				fill-opacity: 1;
				stroke:white;
				stroke-opacity: 1;
				stroke-width:0.5;
			}
		</style>

		<amcharts:ammap projection="mercator" leftLongitude="16.834461" topLatitude="49.614162" rightLongitude="22.568332" bottomLatitude="47.731105"></amcharts:ammap>

		<!-- All areas are listed in the line below. You can use this list in your script. -->
		<!--{id:"SK-BC"},{id:"SK-BL"},{id:"SK-KI"},{id:"SK-NI"},{id:"SK-PV"},{id:"SK-TA"},{id:"SK-TC"},{id:"SK-ZI"}-->

	</defs>
	<g>
		<path id="SK-BC" title="Banskobystrický" class="land" d="M212.46,630.48L217.83,625.98L219.45,627.73L219.38,628.98L221.22,629.25L222.34,630.32L224.79,629.28L227.2,629.93L230.04,629.56L232.54,626.62L233.01,622.99L230.05,619.92L230.82,616.86L229.98,613.16L232.25,612.96L233.6,611.25L234.39,608.38L236.24,607.56L239.03,608.56L247.85,608.3L249.18,607.57L250.59,608.09L252.56,606.18L256.23,605.15L258.27,606.09L258.9,607.66L258.97,609.89L257.36,611.25L257.57,611.86L264.49,610.76L266.57,606.25L271.64,600.4L278.38,600.4L283.67,598.03L286.76,598.44L288.27,597.4L293.48,599.12L301.62,605.23L304.66,605.23L309.44,603.48L310.96,605.28L316.3,602.68L318.66,602.77L320.4,604.06L325.17,603.4L333.28,603.77L335.82,602.34L337.73,604.32L337.73,604.32L343.01,604.81L344.23,606.34L353.16,607.64L355.1,606.31L356.63,603.72L358.83,605.78L361.68,605.97L364.47,609.05L365.95,609.52L365.95,609.52L364.55,610.16L363.46,614.1L359.03,618.17L359.24,621.84L358.35,622.71L359.19,623.37L359.8,625.99L357.33,627.59L357.2,628.56L357.48,630.67L358.33,630.93L358.5,634.09L360.57,633.8L364.96,637.55L368.8,644.41L370.12,645.49L369.1,647.43L370.01,651.76L370.01,651.76L369.48,653.14L369.48,653.14L371.48,654.12L373.77,653.63L374.43,655.11L375.78,655.33L375.18,658.55L372.88,663.08L372.89,664.92L370.66,667.73L370.12,670.64L371.06,672.08L371.36,674.79L373.03,674.55L373.31,676.79L376.93,676.69L379.09,676L381.52,672.93L382.74,672.56L383.39,674.62L386.69,673.69L387.65,675.15L387.65,675.15L388.29,676.54L386.02,677.89L385.19,679.75L382.61,682.22L382.69,686.31L381.14,688.41L381.86,690.9L377.35,696.37L377.94,697.24L377.07,698.68L374.04,701.61L372.79,705.89L370.81,705.81L371.33,707.14L368.52,707.62L363.69,704.63L362.23,705.14L363.1,706.05L362.35,707.54L359.63,707.75L360.1,709.28L356.89,709.73L352.42,708.95L352.93,710.58L352.19,713.49L347.36,718.09L346.35,717.94L345.48,718.84L346.32,720.21L343.14,722.62L341.35,721.15L338.5,721.95L336.94,723.4L335.57,722.96L334.38,724.9L332.99,725.14L331.44,728.17L327.45,729.37L328.94,725.86L327.4,722.92L323.29,722.22L322.78,720.9L321.51,723.42L319.19,722.21L317.69,723.5L317.59,724.5L316.29,724.74L315.11,723.07L317.51,720.03L316.79,718.31L315.65,718.57L312.69,715.28L311.14,714.88L310.02,715.02L308.8,717L305.63,716.78L304.02,715.28L302.96,711.12L300.61,711.3L298.82,709.49L293.32,714.7L287.53,717.05L287.74,719.11L285.51,721.89L286.03,725.27L284.16,727.14L284.49,729.75L283.22,732.21L283.62,733.47L281.53,734.29L281.38,736.09L279.87,735.01L279.83,733.42L278.62,733.27L276.41,735.47L273.94,736.17L272.4,734.76L271.03,735.55L266.65,734.96L263.52,735.39L260.85,737.59L258.42,738.26L257.06,740.81L254.66,739.3L251.33,740L245.58,737.73L244.06,739.04L242.61,739.15L240.01,737.99L237.61,740.03L236.29,738.68L234.98,739.07L232.84,737.15L232.84,737.15L232.82,734.6L233.91,734.09L234.29,732.46L236.5,730.88L238.33,728.06L237.92,725.67L236.55,723.58L238.72,720.1L237.96,719.3L238.9,718.26L236.53,716.63L234.93,718.57L233.61,719L232.46,718.57L228.18,720.39L227.21,719.49L225.91,721.63L224.03,719.78L223.39,721.57L224.18,723.91L219.73,723.66L213.02,720.99L212.18,722.89L210.44,722.56L209.88,719.46L213.34,716.33L211.22,713.09L212.2,711.82L210.78,710.08L211.47,708.16L214.37,706.6L214.31,703.42L215.43,700.42L214.78,698.21L213.47,698.05L212.74,696.82L211.08,690.21L208.21,689.17L204.21,682.9L202.66,682.95L199.25,686.52L199.51,687.1L198.02,688.17L198.16,689.5L197.11,689.89L197.19,692.02L196.46,692.77L194.38,694.15L194.05,693.31L192.21,692.9L188.75,695.19L185.87,694.18L182.21,699.4L181.69,699L179.68,694.31L179.54,687.87L182.69,680.27L181.68,677.14L180.22,677.06L182.69,673.33L181.45,673.48L182.18,669.74L181.44,668.39L178.46,668.1L177.54,668.47L177.31,669.54L176.13,669.35L176.57,667.25L178.06,665.82L176.96,661.75L176.96,661.75L177.46,658.1L186,658.81L188.29,657.73L188.63,654.86L194.44,646.98L201.16,649.1L200.85,645.64L203.71,643.32L204.8,638.55L206.01,637.56L207.73,638.13L209.16,637.16z"/>
		<path id="SK-BL" title="Bratislavský" class="land" d="M12.06,664.03L15.04,664.05L15.25,662.33L18.54,661.96L21.93,660.56L23.71,661.23L22.69,658.65L26.64,661.03L28.7,659.87L29.41,661.28L30.37,661.54L42.83,658.03L43.35,656.22L45.81,654.67L52.64,644.57L55.64,646.54L57,649.23L56.83,651.84L55.12,652.87L53.82,654.93L51.77,655.09L51.03,657.74L47.09,660.45L46.76,661.46L50.12,663.85L50.57,665.83L52.74,666.17L52.81,667.58L54.75,668.5L53.24,672.02L51.33,672.68L50.39,675.5L51.89,677.25L54.7,677.38L56.44,679.27L59.76,679.3L59.23,682.37L60.93,682.61L60.88,683.94L62.32,684.58L63.73,689.53L64.31,690.27L66.03,689.6L67.91,691.38L68.53,693.81L66.97,697.81L65.73,698.36L66.84,699.49L66.25,701.1L67.36,701.21L69.7,703.91L71.29,703.21L72.63,704.74L69.15,709.12L68.17,712.86L73.15,715.04L71.88,717.93L73.25,719.2L73.35,721.77L71.46,722.51L71.12,723.35L69.35,723.42L67.43,726.34L64.49,727.39L62.58,726.1L60.92,726.02L61.01,723.72L59.06,723.08L57.77,724.23L58.23,725.95L59.32,726.56L58.21,728.48L57.08,728.19L54.2,730.45L51.92,731.2L50.06,730.55L50.03,733.51L50.83,735.03L52.91,735.87L54,734.56L55.19,735.95L53.71,736.25L53.22,739.3L51.15,739.6L49.6,738.77L50.4,741.59L47.7,742.96L46.16,745.04L45.18,745.08L45.29,746.13L44.13,747.35L44.13,747.35L43.65,745.87L41.85,746.81L39.22,746.27L34.96,748.31L32.82,746.03L31.28,745.98L29.79,744.49L27.55,746.09L25.23,744.39L27.08,742.21L25.14,740.68L26.99,738.99L25.61,738.15L26.26,736.95L25.68,736.14L27.67,734.79L27.64,733.53L24.31,730.01L24.95,729.59L23.67,726.58L20.68,726.91L15.05,722L15.1,719.38L13.65,713.81L12.14,711.6L13.19,707.19L12.13,706.21L9.67,705.86L8.07,703.38L8.51,702.69L7.98,702.95L6.63,699.93L7.67,699.75L7.11,699L8,697.25L4.14,695.33L4.2,693.64L2,693.75L0.99,692.96L0,688.41L1.82,688.06L2.66,685.17L1.88,683.54L3.1,682.26L1.79,677.57L3.17,676.79L3.21,674.92L6.67,671.79L6.49,670.04L8.94,669.98L8.42,667.37L9.37,667.17L9.24,666.14L10.3,665.49L11.65,665.9z"/>
		<path id="SK-KI" title="Košický" class="land" d="M365.95,609.52L367.73,610.96L369.22,610.55L368.89,607.35L369.65,606.21L369.69,602.1L371.26,600.68L369.81,598.02L373.4,594.29L378.76,591.42L380.36,589.39L383.94,590.87L391.01,596.14L392.68,596.19L389.23,591.79L392.16,588.08L396.23,593.61L398.7,594.94L402.37,594.01L406,599.78L409.08,601.6L409.04,598.31L410.25,597.27L410.7,595.33L413.97,594.23L415.71,596.41L417.89,594.76L418.93,596.4L420.8,595.67L418.92,591.03L419.46,590.59L424.14,593.12L427.06,592L425.01,594.08L427.63,595.6L433.42,593.77L435.78,594.4L437.53,595.68L439.29,598.52L442.35,596.22L444.76,600.24L446.33,601.16L446.77,603.98L457.3,605.68L458.69,604.32L461.27,605.63L462.22,608.09L463.82,609.58L465.81,607.48L468.48,609.05L468.77,608.11L470.11,608.16L470.05,609.97L472.23,609.03L472.77,610.79L471.14,616.36L474.87,619.4L476.86,618.51L476.76,616.68L478.22,615.37L484.09,614.82L485.4,612.66L485.35,607.62L487.04,607.19L489.12,609.1L489.44,605.57L490.62,609.18L492.84,609.58L493.44,608.53L496.54,606.91L496.61,609.82L498.5,610.84L497.47,612.01L497.63,613.43L500.43,615.78L501.32,617.56L501.1,619.35L502.4,621.58L506.19,622.57L506.84,624.26L508.79,624.2L511.05,625.55L515.27,624.25L518.11,627.31L520.54,626.93L524.75,624.62L525.73,624.72L525.74,625.47L526.31,622.99L530.33,620.63L530.53,618.9L529.41,617.22L528.72,607.25L529.09,605.02L530.19,604.24L531.92,604.45L533.01,606.46L536.89,605.86L542.29,607.96L545.13,609.9L546.99,613.03L550.66,613.42L551.41,614.82L559.38,613.82L565.55,613.93L565.7,607.67L568.49,605.99L569.44,603.82L572.53,600.68L577.08,601.92L579.42,610.13L584.55,609.95L586.75,609.06L592.64,610.63L592.64,610.63L591.71,615.41L592.64,617.43L592.92,621.05L588.74,626.41L588.26,629.01L590.15,630.51L590.19,632.58L589.09,633.82L587.87,639.76L583.99,641.01L578.45,645.72L577.72,648.26L576.22,649.76L574.55,649.81L573.06,651.74L571.85,651.74L569.02,657.5L566.3,679.99L566.53,683.83L567.01,685.01L568.01,684.97L567.6,686.22L565.57,686.95L566.1,688.62L562.34,689.37L561.82,688.51L560.83,689.98L559.73,687.69L557.55,689.13L554.57,686.73L553.27,688.03L550.03,689.33L549.84,688.75L546.05,688.96L543.85,690.13L544.32,690.86L543.77,691.67L541.84,690.54L540.84,691.14L540.57,690.32L540.52,691.51L539.98,691.44L539.65,690.29L539.01,691.07L539.52,692.16L538.65,691.54L537.06,692.9L536.27,691.18L534.27,691.17L533.8,695.83L532.69,696.42L530.24,694.88L526.71,695.12L525.83,694.23L522.39,693.67L520.92,692.75L521.13,690.93L519.75,690.27L520.36,689.2L519.9,688.33L517.73,687.05L516.52,687.31L515.55,686.06L515.41,682.8L511.19,674.47L511.23,670.62L510.37,669.83L510.17,667.79L509.28,668.15L508.01,667.15L506.55,668.81L505.2,668.61L504.64,667.58L502.67,668.16L499.76,663.1L499.79,661.41L498.22,660.54L498.07,659.71L496.75,659.96L496.12,658.94L492.78,657.33L491.65,655.62L489.91,656.63L489.09,659.9L487.41,659.13L485.09,659.96L479.16,660.09L479.02,659.55L478.54,660.33L479.62,660.66L478.35,661.12L479.1,661.88L478.64,663.1L477.91,662.99L478.51,664.16L477.23,665L477.38,665.72L473.27,665.27L470.3,663.07L469.55,663.89L468.31,663.36L467.86,664.24L467.02,664L467.04,665L464.67,665.43L463.88,666.44L463.12,665.74L460.73,666.78L458.83,670.41L457.65,670.72L455.43,669.67L454.75,666.64L451.74,665.16L450.38,665.88L450.37,665.06L446.28,664.21L444.02,665.16L442.82,666.6L442.05,665.69L440.24,665.77L440.11,664.05L438.6,663.74L438.45,662.65L437.74,663.26L436.01,660.11L430.5,661.11L428.48,659.14L428.48,656.96L427.56,657.21L428.26,655.96L424,657.41L416.65,658.23L416.18,658.9L413.9,658.23L410.8,659.71L407.99,659.79L406.91,661.07L406.52,660.66L403.7,662.6L402.17,662.59L400.6,663.92L396.53,662.34L395.46,664.98L393.59,663.53L392.42,663.95L391.66,664.87L392.58,667.29L392.29,671.15L390.93,671.44L389.79,673.78L387.65,675.15L387.65,675.15L386.69,673.69L383.39,674.62L382.74,672.56L381.52,672.93L379.09,676L376.93,676.69L373.31,676.79L373.03,674.55L371.36,674.79L371.06,672.08L370.12,670.64L370.66,667.73L372.89,664.92L372.88,663.08L375.18,658.55L375.78,655.33L374.43,655.11L373.77,653.63L371.48,654.12L369.48,653.14L369.48,653.14L370.01,651.76L370.01,651.76L369.1,647.43L370.12,645.49L368.8,644.41L364.96,637.55L360.57,633.8L358.5,634.09L358.33,630.93L357.48,630.67L357.2,628.56L357.33,627.59L359.8,625.99L359.19,623.37L358.35,622.71L359.24,621.84L359.03,618.17L363.46,614.1L364.55,610.16z"/>
		<path id="SK-NI" title="Nitriansky" class="land" d="M121.88,650.61L123.89,649.13L124.7,649.29L126.18,647.1L126.13,644.56L123.78,640.27L123.27,636.79L124.7,635.32L126.03,635.19L127.23,636.64L132.2,636.53L134.13,637.64L135.59,637.13L139.14,640.37L140.51,644.69L142.17,646.3L143.59,645.52L147.55,646.78L150.14,652.53L149.83,654.41L147.41,656.75L149.05,658.1L148.18,660.11L151.68,660.58L152.85,661.51L156.4,666.57L157.59,670.11L160.76,671.07L161.91,669.3L163.6,671.87L164.05,670.31L169.25,665.9L172.11,664.56L175.01,661.85L176.96,661.75L176.96,661.75L178.06,665.82L176.57,667.25L176.13,669.35L177.31,669.54L177.54,668.47L178.46,668.1L181.44,668.39L182.18,669.74L181.45,673.48L182.69,673.33L180.22,677.06L181.68,677.14L182.69,680.27L179.54,687.87L179.68,694.31L181.69,699L182.21,699.4L185.87,694.18L188.75,695.19L192.21,692.9L194.05,693.31L194.38,694.15L196.46,692.77L197.19,692.02L197.11,689.89L198.16,689.5L198.02,688.17L199.51,687.1L199.25,686.52L202.66,682.95L204.21,682.9L208.21,689.17L211.08,690.21L212.74,696.82L213.47,698.05L214.78,698.21L215.43,700.42L214.31,703.42L214.37,706.6L211.47,708.16L210.78,710.08L212.2,711.82L211.22,713.09L213.34,716.33L209.88,719.46L210.44,722.56L212.18,722.89L213.02,720.99L219.73,723.66L224.18,723.91L223.39,721.57L224.03,719.78L225.91,721.63L227.21,719.49L228.18,720.39L232.46,718.57L233.61,719L234.93,718.57L236.53,716.63L238.9,718.26L237.96,719.3L238.72,720.1L236.55,723.58L237.92,725.67L238.33,728.06L236.5,730.88L234.29,732.46L233.91,734.09L232.82,734.6L232.84,737.15L232.84,737.15L229.42,740.46L224.5,739.92L221.38,741.03L219.29,739.95L218.8,741.49L215.78,741.96L214.62,741.19L213.29,741.94L212.36,743.4L213,744.5L211.77,745.89L211.7,750.48L211.43,749.96L210.94,750.68L211.42,750.83L210.17,751.82L207.11,751.41L205.48,753.59L207.58,756.94L206.62,757.08L207.32,760.21L205.57,762.26L206.4,763.93L205.82,767.99L206.04,770.17L209.1,770.88L212.33,773.15L213.23,775.56L215.32,776.78L215.11,778.36L209.22,777.49L203.35,779.11L202.03,782.99L195.46,787.09L190.41,787.87L185.13,786.6L182.29,786.73L177.49,788.69L172.79,786.73L168.95,788.58L155.63,792L148.7,790.31L142.97,790.43L132.5,788L127.77,787.98L124.89,789.6L121.57,787.81L118.83,789.88L113.64,790.69L109.5,789.63L101.71,790.72L99.41,789.25L93.71,787.96L91.95,785.92L91.95,785.92L93.85,784.12L94.9,779.41L96.83,779.36L99.13,780.6L100,778.7L102.89,776.8L102.86,772.47L104.02,770.13L106.37,769.34L108.22,766.56L111.26,764.8L112.65,763.1L110.17,760.64L111.35,758.59L110.7,754.63L111.46,750.66L110.19,748.29L110.02,745.15L111.59,743.94L111.17,741.48L107.14,739.25L108.29,737.72L107.57,736.49L104.83,738.58L103.69,738.37L103.23,736.19L104.5,733.05L104.35,730.91L101.4,727.5L97.43,725.03L99.97,723.18L101.39,723.13L102.25,724.39L103.11,724.42L104.55,722.64L102.66,718.9L105.96,718.82L107.14,719.89L107.61,718.82L111.06,716.57L110.97,713.45L108.08,712.53L106.87,710.55L107.22,709.46L108.21,710.05L109.45,709.25L108.75,707.57L110.41,704.9L109.8,703.5L107.49,703.26L106.75,701.77L108.22,700.58L108.51,696.42L109.68,695.51L109.22,693.41L110.85,692.15L110.4,691.47L111.43,690.93L114.44,685.61L116.1,680.81L117.23,679L118.82,678.97L118.51,678L119.78,676.1L113.75,669.42L109.3,667.89L108.12,667.21L108.02,666.17L109.87,664.71L110.86,659.51L112.8,657.18L113.43,654.69L116.32,656.26L119.3,656.02L119.02,654.93L120.35,654.82L121.69,653.59z"/>
		<path id="SK-PV" title="Prešovský" class="land" d="M477.49,515.69L481.8,515.41L484.52,518.39L487.83,518.21L491.14,521.61L495.59,521.27L497.48,518.75L500.3,520.65L500.23,519.36L501.51,517.83L503.7,518.15L505.2,516.82L507.82,518.08L512.3,515.74L513.52,518.51L515.11,519.73L515.14,520.78L517.59,521.76L519.52,520.47L521.85,521.55L522.35,523.81L523.3,523.77L526.29,526.28L526.77,529.2L527.73,530.66L529.06,531.05L528.92,528.78L529.85,527.13L532.9,525.18L534.56,525.07L536.5,528.68L537.91,528.04L539.11,528.4L541.22,531.75L542.76,531.21L544.21,532.42L547.53,532.11L549.94,538.22L555.05,543.17L554.95,545.89L556.17,547.11L555.16,551.99L556.81,553.34L566.93,556.21L567.12,557.48L571.86,560.23L574.06,558.59L575.53,558.83L576.65,560.92L575.76,563.78L578.16,563.93L585.63,566.61L587.27,564.92L590.86,565.17L593.15,567.82L593.35,569.23L596.71,572.52L600.41,571.83L604.3,574.6L609.49,573.22L612,574.66L610.65,576.06L610.42,584.08L609.01,585.27L609.88,587.61L607.24,589.21L605.17,588.73L602.7,589.93L602.21,592.51L596.92,600.14L597.61,601.52L596.49,607.23L593.94,608.69L592.64,610.63L592.64,610.63L586.75,609.06L584.55,609.95L579.42,610.13L577.08,601.92L572.53,600.68L569.44,603.82L568.49,605.99L565.7,607.67L565.55,613.93L559.38,613.82L551.41,614.82L550.66,613.42L546.99,613.03L545.13,609.9L542.29,607.96L536.89,605.86L533.01,606.46L531.92,604.45L530.19,604.24L529.09,605.02L528.72,607.25L529.41,617.22L530.53,618.9L530.33,620.63L526.31,622.99L525.74,625.47L525.73,624.72L524.75,624.62L520.54,626.93L518.11,627.31L515.27,624.25L511.05,625.55L508.79,624.2L506.84,624.26L506.19,622.57L502.4,621.58L501.1,619.35L501.32,617.56L500.43,615.78L497.63,613.43L497.47,612.01L498.5,610.84L496.61,609.82L496.54,606.91L493.44,608.53L492.84,609.58L490.62,609.18L489.44,605.57L489.12,609.1L487.04,607.19L485.35,607.62L485.4,612.66L484.09,614.82L478.22,615.37L476.76,616.68L476.86,618.51L474.87,619.4L471.14,616.36L472.77,610.79L472.23,609.03L470.05,609.97L470.11,608.16L468.77,608.11L468.48,609.05L465.81,607.48L463.82,609.58L462.22,608.09L461.27,605.63L458.69,604.32L457.3,605.68L446.77,603.98L446.33,601.16L444.76,600.24L442.35,596.22L439.29,598.52L437.53,595.68L435.78,594.4L433.42,593.77L427.63,595.6L425.01,594.08L427.06,592L424.14,593.12L419.46,590.59L418.92,591.03L420.8,595.67L418.93,596.4L417.89,594.76L415.71,596.41L413.97,594.23L410.7,595.33L410.25,597.27L409.04,598.31L409.08,601.6L406,599.78L402.37,594.01L398.7,594.94L396.23,593.61L392.16,588.08L389.23,591.79L392.68,596.19L391.01,596.14L383.94,590.87L380.36,589.39L378.76,591.42L373.4,594.29L369.81,598.02L371.26,600.68L369.69,602.1L369.65,606.21L368.89,607.35L369.22,610.55L367.73,610.96L365.95,609.52L365.95,609.52L364.47,609.05L361.68,605.97L358.83,605.78L356.63,603.72L355.1,606.31L353.16,607.64L344.23,606.34L343.01,604.81L337.73,604.32L337.73,604.32L338.16,603.23L341.44,602.59L343.73,600.6L341.5,600.04L339.89,595.46L340.41,594.11L338.96,593.15L337.81,590.4L334.16,587.79L334.49,586.91L336.34,587.54L339.61,586.11L340.5,577.56L342.09,571.43L340.68,570.57L339.34,571.4L335.52,571.18L334.53,569.25L333.79,570.71L332.13,568.09L330.43,568.21L330.13,567.04L327.22,567.75L328.26,563.7L324.41,556.68L324.41,556.68L327.47,553.8L327.7,551.22L329.83,550.28L332.19,550.49L336.46,551.04L338.88,553.16L338.77,554.12L340.18,555.8L345.52,559.35L347.22,559.39L347.34,555.15L348.92,552.54L348.29,550.16L351.48,544.13L351.85,540.6L353.86,537.34L355.26,539.17L356.84,537.63L356.4,535.49L357.72,535.4L358.73,533.19L361.75,531.39L362.79,532.46L363.98,531.62L366.75,532.23L368.1,531.44L371.71,532.67L372.43,531.82L372.61,527.14L373.44,525.18L371.75,525.29L372.5,523.28L373.85,522.94L376.69,523.77L377.9,522.25L378.67,524.82L379.86,525.03L381.82,524.28L382.59,522.4L384.17,524.12L384.01,520.75L385.67,521.65L385.64,521.09L388.3,521.01L391.89,522.94L392.41,524.76L399.45,527.42L400.04,526.37L401.1,526.55L402.17,525.48L403.9,520.6L407.25,523.4L412.4,520.16L415.63,521.25L417.11,520.93L417.41,523.02L418.93,523.74L417.93,525.05L419.22,526.23L419.16,528.37L421.83,527.8L421.68,529.81L423.44,529.66L424.54,530.48L424.15,531.21L423.42,530.23L423.22,532.8L424.91,532.24L426.36,534.32L427.41,534.37L429.32,532.29L430.34,532.19L432.4,535.28L431.37,536.64L434.56,535.51L435.42,538.6L437.33,540.31L440.81,538.47L443.84,538.55L444.44,537.73L443.59,535.3L445.61,534.27L446.06,532.32L449.3,529.38L450.8,529.84L451.92,529.32L452.74,530.25L454.74,529.35L455.94,527.62L452.24,524.41L452.25,523.38L450.59,522.79L449.98,520.91L450.43,520.19L455.13,518.78L456.87,519.78L458.17,517.85L461.02,519.24L463.95,522.15L464.08,523.27L467.03,523.23L469,520.88L468.65,519.42L469.69,517.56L470.51,517.97L473.11,515.82L473.75,513.82z"/>
		<path id="SK-TA" title="Trnavský" class="land" d="M38.75,609.55L47.27,611.86L50.3,614.81L51.95,614.35L52.52,615.76L56.38,619.3L57.9,618.44L60.05,619.22L60.05,619.22L59.26,622.61L55.43,624.6L55.3,625.59L56.97,626.93L58.62,626.78L62.21,623.97L62.54,625.96L67.08,627.7L68.33,630.12L69.73,630.59L69.79,633.74L68.28,634.27L67.29,637.19L67.89,640.01L68.88,640.17L69.78,643.64L73.27,649.97L74.01,649.15L75.12,649.63L75.4,648.49L77.74,646.44L79.66,647.3L84.19,646.4L83.48,644.56L83.84,643.12L84.62,643.09L85.21,644.19L87.05,644.33L86.93,643.45L90.92,640.93L91.69,641.09L92.49,640L94.84,641.84L96.96,645.07L101.38,647.2L105.43,647.09L105.65,644.8L107.29,644.96L108.27,648.07L108.99,647.17L109.21,648.17L109.75,647.12L110.89,648.67L118.3,649.84L119.91,651.26L121.88,650.61L121.88,650.61L121.69,653.59L120.35,654.82L119.02,654.93L119.3,656.02L116.32,656.26L113.43,654.69L112.8,657.18L110.86,659.51L109.87,664.71L108.02,666.17L108.12,667.21L109.3,667.89L113.75,669.42L119.78,676.1L118.51,678L118.82,678.97L117.23,679L116.1,680.81L114.44,685.61L111.43,690.93L110.4,691.47L110.85,692.15L109.22,693.41L109.68,695.51L108.51,696.42L108.22,700.58L106.75,701.77L107.49,703.26L109.8,703.5L110.41,704.9L108.75,707.57L109.45,709.25L108.21,710.05L107.22,709.46L106.87,710.55L108.08,712.53L110.97,713.45L111.06,716.57L107.61,718.82L107.14,719.89L105.96,718.82L102.66,718.9L104.55,722.64L103.11,724.42L102.25,724.39L101.39,723.13L99.97,723.18L97.43,725.03L101.4,727.5L104.35,730.91L104.5,733.05L103.23,736.19L103.69,738.37L104.83,738.58L107.57,736.49L108.29,737.72L107.14,739.25L111.17,741.48L111.59,743.94L110.02,745.15L110.19,748.29L111.46,750.66L110.7,754.63L111.35,758.59L110.17,760.64L112.65,763.1L111.26,764.8L108.22,766.56L106.37,769.34L104.02,770.13L102.86,772.47L102.89,776.8L100,778.7L99.13,780.6L96.83,779.36L94.9,779.41L93.85,784.12L91.95,785.92L91.95,785.92L85.51,780.98L82.73,777.62L79.08,778.7L78.02,778.29L75.63,772.91L73.69,770.58L71,770.34L66.46,767.82L63.36,761.13L53.38,750.36L46.58,750.12L44.74,749.34L44.13,747.35L44.13,747.35L45.29,746.13L45.18,745.08L46.16,745.04L47.7,742.96L50.4,741.59L49.6,738.77L51.15,739.6L53.22,739.3L53.71,736.25L55.19,735.95L54,734.56L52.91,735.87L50.83,735.03L50.03,733.51L50.06,730.55L51.92,731.2L54.2,730.45L57.08,728.19L58.21,728.48L59.32,726.56L58.23,725.95L57.77,724.23L59.06,723.08L61.01,723.72L60.92,726.02L62.58,726.1L64.49,727.39L67.43,726.34L69.35,723.42L71.12,723.35L71.46,722.51L73.35,721.77L73.25,719.2L71.88,717.93L73.15,715.04L68.17,712.86L69.15,709.12L72.63,704.74L71.29,703.21L69.7,703.91L67.36,701.21L66.25,701.1L66.84,699.49L65.73,698.36L66.97,697.81L68.53,693.81L67.91,691.38L66.03,689.6L64.31,690.27L63.73,689.53L62.32,684.58L60.88,683.94L60.93,682.61L59.23,682.37L59.76,679.3L56.44,679.27L54.7,677.38L51.89,677.25L50.39,675.5L51.33,672.68L53.24,672.02L54.75,668.5L52.81,667.58L52.74,666.17L50.57,665.83L50.12,663.85L46.76,661.46L47.09,660.45L51.03,657.74L51.77,655.09L53.82,654.93L55.12,652.87L56.83,651.84L57,649.23L55.64,646.54L52.64,644.57L45.81,654.67L43.35,656.22L42.83,658.03L30.37,661.54L29.41,661.28L28.7,659.87L26.64,661.03L22.69,658.65L23.71,661.23L21.93,660.56L18.54,661.96L15.25,662.33L15.04,664.05L12.06,664.03L12.06,664.03L11.71,662.49L12.64,661.96L10.88,658.16L11.59,657.74L11.02,657.25L10.77,653.13L11.48,652.45L11.53,650.39L13.01,649.49L14.7,646.48L13.91,645.94L15.04,645.73L14.43,645.06L14.49,642.35L18.76,638.08L17.54,636.64L17.72,635.66L19.16,634.22L19.3,632.63L22.06,628.82L22.47,626.85L27.3,623.54L27.52,621.85L29.05,620.22L29.51,616.55L34.17,614.14z"/>
		<path id="SK-TC" title="Trenčiansky" class="land" d="M159.28,537.4L164.63,537.29L164.56,539.46L170.03,546.77L169.93,548.5L171.49,550.15L172.21,554.45L174.03,555.77L174.34,558.05L179.08,561.85L182.36,563.18L182.46,564.82L185.71,565.93L185.98,568.71L187.42,570.08L186.57,571.92L183.88,574.48L187.23,575.62L188.8,578.11L188.02,581.11L188.36,584.98L187.15,585.67L184.89,589.31L180.98,590.28L178.74,591.73L177.56,594.61L173.81,595.73L173.81,596.87L175.22,598.41L180.44,598.89L181.92,597.53L184.1,597.01L185.58,593.85L186.96,593.4L186.76,594.47L187.59,595.55L191.49,594.65L196.05,596.07L198.48,595.51L200.85,598.52L198.33,602.98L200.03,605.39L198.63,608.22L199.15,608.87L198.84,613.51L202.35,616.13L204.47,616.78L204.64,618.04L207.46,619.16L207.36,622.5L210.68,625.99L211.26,627.78L212.25,628.07L212.46,630.48L212.46,630.48L209.16,637.16L207.73,638.13L206.01,637.56L204.8,638.55L203.71,643.32L200.85,645.64L201.16,649.1L194.44,646.98L188.63,654.86L188.29,657.73L186,658.81L177.46,658.1L176.96,661.75L176.96,661.75L175.01,661.85L172.11,664.56L169.25,665.9L164.05,670.31L163.6,671.87L161.91,669.3L160.76,671.07L157.59,670.11L156.4,666.57L152.85,661.51L151.68,660.58L148.18,660.11L149.05,658.1L147.41,656.75L149.83,654.41L150.14,652.53L147.55,646.78L143.59,645.52L142.17,646.3L140.51,644.69L139.14,640.37L135.59,637.13L134.13,637.64L132.2,636.53L127.23,636.64L126.03,635.19L124.7,635.32L123.27,636.79L123.78,640.27L126.13,644.56L126.18,647.1L124.7,649.29L123.89,649.13L121.88,650.61L121.88,650.61L119.91,651.26L118.3,649.84L110.89,648.67L109.75,647.12L109.21,648.17L108.99,647.17L108.27,648.07L107.29,644.96L105.65,644.8L105.43,647.09L101.38,647.2L96.96,645.07L94.84,641.84L92.49,640L91.69,641.09L90.92,640.93L86.93,643.45L87.05,644.33L85.21,644.19L84.62,643.09L83.84,643.12L83.48,644.56L84.19,646.4L79.66,647.3L77.74,646.44L75.4,648.49L75.12,649.63L74.01,649.15L73.27,649.97L69.78,643.64L68.88,640.17L67.89,640.01L67.29,637.19L68.28,634.27L69.79,633.74L69.73,630.59L68.33,630.12L67.08,627.7L62.54,625.96L62.21,623.97L58.62,626.78L56.97,626.93L55.3,625.59L55.43,624.6L59.26,622.61L60.05,619.22L60.05,619.22L62.19,617.1L63.35,617.27L64.03,615.28L64.98,615.55L66.02,614.16L68.75,615.07L73.66,619.38L75.12,618.57L76.18,618.87L77.72,617.64L80.75,617.44L81.6,615.21L83.68,614.89L85.18,612.72L92.77,611.8L96.31,608.24L98.48,604.64L100.87,602.99L101.21,601.42L108.19,600.95L110.26,601.7L111.92,600.85L114.9,590.14L115.02,587.51L116.33,586.11L117.39,585.37L121.71,585.54L123.11,584.78L127.02,585.42L131.9,583.03L134.97,579.44L134.88,578.03L136.85,573.8L136.35,570.32L137.43,569.64L136.25,567.15L136.98,564.37L138.92,562.72L138.39,558.46L140.97,553.68L141.04,551.75L140,551.24L140.11,548.78L144.24,544.78L144.21,542.25L152.79,540.64z"/>
		<path id="SK-ZI" title="Žilinský" class="land" d="M280.98,488.53L282.01,489.99L281.43,491.4L282.27,492.59L287.85,495.41L287.79,501.02L290.16,505.79L290.39,508.83L293.68,514.58L295.18,514.23L296.8,515.79L299.83,514.18L299.5,516.66L300.7,517.8L298.69,522.22L304.68,523.12L308.04,525.79L311.46,522.07L313.33,521.39L315.82,522.01L316.01,526.91L317.17,528.96L316.34,532.6L317.74,535.66L316.32,539.82L317.95,540.77L319.23,543.62L315.93,545.39L315.62,547.91L313.24,550.41L313.5,551.97L312.66,553.85L315.34,556.26L317.47,555.2L318.77,556.37L319.77,555.85L320.89,556.67L324.41,556.68L324.41,556.68L328.26,563.7L327.22,567.75L330.13,567.04L330.43,568.21L332.13,568.09L333.79,570.71L334.53,569.25L335.52,571.18L339.34,571.4L340.68,570.57L342.09,571.43L340.5,577.56L339.61,586.11L336.34,587.54L334.49,586.91L334.16,587.79L337.81,590.4L338.96,593.15L340.41,594.11L339.89,595.46L341.5,600.04L343.73,600.6L341.44,602.59L338.16,603.23L337.73,604.32L337.73,604.32L335.82,602.34L333.28,603.77L325.17,603.4L320.4,604.06L318.66,602.77L316.3,602.68L310.96,605.28L309.44,603.48L304.66,605.23L301.62,605.23L293.48,599.12L288.27,597.4L286.76,598.44L283.67,598.03L278.38,600.4L271.64,600.4L266.57,606.25L264.49,610.76L257.57,611.86L257.36,611.25L258.97,609.89L258.9,607.66L258.27,606.09L256.23,605.15L252.56,606.18L250.59,608.09L249.18,607.57L247.85,608.3L239.03,608.56L236.24,607.56L234.39,608.38L233.6,611.25L232.25,612.96L229.98,613.16L230.82,616.86L230.05,619.92L233.01,622.99L232.54,626.62L230.04,629.56L227.2,629.93L224.79,629.28L222.34,630.32L221.22,629.25L219.38,628.98L219.45,627.73L217.83,625.98L212.46,630.48L212.46,630.48L212.25,628.07L211.26,627.78L210.68,625.99L207.36,622.5L207.46,619.16L204.64,618.04L204.47,616.78L202.35,616.13L198.84,613.51L199.15,608.87L198.63,608.22L200.03,605.39L198.33,602.98L200.85,598.52L198.48,595.51L196.05,596.07L191.49,594.65L187.59,595.55L186.76,594.47L186.96,593.4L185.58,593.85L184.1,597.01L181.92,597.53L180.44,598.89L175.22,598.41L173.81,596.87L173.81,595.73L177.56,594.61L178.74,591.73L180.98,590.28L184.89,589.31L187.15,585.67L188.36,584.98L188.02,581.11L188.8,578.11L187.23,575.62L183.88,574.48L186.57,571.92L187.42,570.08L185.98,568.71L185.71,565.93L182.46,564.82L182.36,563.18L179.08,561.85L174.34,558.05L174.03,555.77L172.21,554.45L171.49,550.15L169.93,548.5L170.03,546.77L164.56,539.46L164.63,537.29L159.28,537.4L159.28,537.4L163.51,536.11L166.1,532.52L167.56,531.72L167.05,530.84L168.83,528.42L167.68,524.07L168.38,523.5L171.21,524.93L175.24,522.15L176.93,517.74L178.1,517.57L178.43,516.48L180.04,515.61L180.31,514.38L182.75,512.61L181.59,508.63L182.8,507.07L185.06,505.91L188.12,505.58L188.73,507.56L190.47,507.86L197.02,505.94L198.12,507.14L200.37,506.91L203.68,508.91L205.16,508.91L208.14,506.04L213.52,503.89L220.33,504.86L224.92,504.09L228.32,506.91L227.23,509.91L227.92,510.92L227.03,514.61L228.43,515.07L230,518.42L229.6,520.01L227.94,521.53L229.08,524.35L231.07,523.79L235,524.28L236.24,523.18L236.85,521.24L238.79,521.5L239.17,520.75L240.95,520.96L242.98,522.92L244.25,523.09L246.03,521.75L247.36,522.79L250,521.32L251.61,521.84L252.4,521.03L251.34,517.6L253.31,515.15L254.71,515.51L255.41,514.48L255.71,513.05L254.79,511.41L256.12,509.33L255.65,508.51L256.44,507.83L256.4,505.25L259.38,501.94L264.38,501.19L265.35,502.3L269.84,501.27L270.24,498.48L271.16,497.59L270.98,496.08L274.1,494.92L275.61,491.76L278.6,490.98L278.95,488.69z"/>
	</g>
</svg>