<?xml version="1.0" encoding="utf-8"?>
<!-- (c) ammap.com | SVG map of Spain - Custom - Low -->
<svg xmlns="http://www.w3.org/2000/svg" xmlns:amcharts="http://amcharts.com/ammap" xmlns:xlink="http://www.w3.org/1999/xlink" version="1.1">
	<defs>
		<style type="text/css">
			.land
			{
				fill: #CCCCCC;
				fill-opacity: 1;
				stroke:white;
				stroke-opacity: 1;
				stroke-width:0.5;
			}
		</style>

		<amcharts:ammap projection="mercator" leftLongitude="-9.301417" topLatitude="43.793549" rightLongitude="4.330897" bottomLatitude="31.700719"></amcharts:ammap>

		<!-- All areas are listed in the line below. You can use this list in your script. -->
		<!--{id:"divider"},{id:"ES-AN"},{id:"ES-AR"},{id:"ES-AS"},{id:"ES-CB"},{id:"ES-CE"},{id:"ES-CL"},{id:"ES-CM"},{id:"ES-CN"},{id:"ES-CT"},{id:"ES-EX"},{id:"ES-GA"},{id:"ES-IB"},{id:"ES-MC"},{id:"ES-MD"},{id:"ES-ML"},{id:"ES-NC"},{id:"ES-PV"},{id:"ES-RI"},{id:"ES-VC"}-->

	</defs>
	<g>
		<path id="divider" class="land" d="M575.79,317.73H422.29l-58.19,98.31h-3.56l58.19,-98.31H285.3v-2.51h290.5V317.73z"/>
		<path id="ES-AN" title="Andalusia" class="land" d="M438.16,248.99l-1.69,2.16l-1.72,0.46l-3.66,-3.86l-1.33,-0.24l-1.63,1.04l-1.35,-0.9l0.35,0.36l-2.69,0.33l-1.68,3.23l-2.13,1.31l-4.03,-0.4l-2.01,-1.94l-1.45,0.48l-7.49,-0.56l-4.52,2.03l-2.9,-1.06l-0.79,0.35l-1.26,-0.99l-3.45,0.84l-2.86,-1.18l-3.32,0.95l-3.05,-0.75l-3.1,1.14l-6.32,-0.13l-2.68,4.01l-2.52,1.3l-0.9,1.82l-2.84,0.77l-4.58,-0.71l-7.23,3l-3.77,6.21l-0.62,2.52l-2.36,-0.65l-0.6,1.17l0.46,2.38l-4.81,2.14l-2.15,-2.03l-3.03,-0.39l-3.25,-3.55l-3.24,0.08l-4.92,-7.12l-1.97,-4.35l0.25,-0.67l0.69,1.4l0.72,-2.68l-4.51,-1.79l-1.32,-3.52l2.32,-1.85l-1.11,-0.65l-1.29,-3.11l-2.24,-2.67l-11.03,-7l-3.49,-0.75l-9.32,0.98l-1.61,-10.39l-1.65,-2.32l0.52,-1.75l1.36,-1.48l0.92,-3.74l3.29,-2.81l1.24,-2.93l-0.09,-1.9l3.52,-0.71l0.79,-1.37l1.1,0.84l1.47,-0.13l1.51,-4.51l-0.36,-0.72l0.92,-1.15l0,0l3.7,1l-0.44,2.28l1.71,0.69l3.23,-0.23l1.24,2.58l2.93,0.55l0.64,-1.71l1.03,-0.1l1.24,0.32l1.77,2.45l3.35,1.3l1.77,-1.51l4.45,-0.37l1.2,-2.5l-0.49,-1.3l2.03,-2.28l3.38,-0.87l1.14,0.53l0.04,0.73l-0.57,-0.19l0.26,0.54l-1.24,0.79l0.19,1.39l0.77,0.23l1.94,-1.93l1.42,0.22l1.22,-1.08l0.34,-3.48l-1.6,-4.27l1.04,-2.21l1.68,-0.46l2.26,-2.9l0.47,0.26l0.4,-1.52l1.7,0.17l2.67,-3.11l0.66,0.3l0.03,-2.01l2.35,0.36l1.4,-0.77l0,0l1.2,1.22l3.45,0.35l0.51,2.45l4.1,1.41l3.1,3.01l1.42,0.14l2.39,2.81l4.49,2l0.61,-1.96l9.5,1.1l1.61,-0.2l0.86,-1.42l1.17,-0.36l4.53,1.09l1.28,-1.95l0.85,0.32l0.21,1.12l1.64,0.38l3.89,-2.9l5.16,1.45l1.93,-1.33l1.74,2.39l0.98,-2.11l2.3,0.58l3.04,-2.77l2.58,1.27l2.05,-0.61l0.86,0.78l-0.11,2.64l2.44,0.62l-0.06,3.28l1.35,1.26l-0.3,2.76l-2.91,3.53l3.6,1.76l2.22,0.2l0,0l4.55,4.72l1.31,-0.41l1.07,0.94l2.81,-0.03l-0.74,3.33l0.2,4.21l4.26,6.79l0.98,0.72l-0.04,-0.62l2.05,0.37l2.96,2.32l0,0l-1.34,0.7l-3.37,4.35l-2.75,8.04l0.13,1.37l-2.56,1.8l-0.24,1.86L438.16,248.99z"/>
		<path id="ES-AR" title="Aragon" class="land" d="M443.97,66.05L446.12,66.57L447.55,67.96L449.25,67.65L451.87,69.48L455.88,69.3L458.67,64.78L458.51,63.68L457.39,63.69L456.12,61.74L455.64,58.31L456.13,55.68L458.02,53.39L457.22,52.52L457.71,50.84L459.48,48.97L459.14,47.19L459.78,45.95L461.45,46.23L461.49,45.16L462.68,44.37L462.11,43.92L462.71,43.93L462.83,42.57L465.89,42.61L466.28,40.64L467.82,40.53L469.7,38.42L470.67,38.34L470.91,35.24L471.91,34.45L471.99,33.19L474.5,32.55L474.5,32.55L474.27,33.4L475.73,33.83L477.78,35.8L477.82,36.73L478.72,36.72L478.75,37.63L480.5,35.95L482.18,37.16L483.74,36.93L485.67,35.15L489.08,37.46L489.82,37.05L491.3,39.91L493.76,41.22L498.98,39.3L501.25,40.08L502.19,41.64L503.98,39.77L505.68,41L510.44,40.45L512.18,40.98L512.18,40.98L513.39,43.54L515.07,43.96L514.63,46.79L513.84,47.05L514.33,47.85L513.01,48.57L514.49,52.27L513.87,52.96L515.15,53.48L514.34,54.03L514.99,54.58L512.06,66.44L509.56,68.67L510.77,69.33L510.77,71.05L507.4,73.64L506.98,74.93L505.11,75.18L503.13,78.03L503.75,80.92L505.89,80.83L506.41,82.97L505.05,84.86L503.54,85.07L503.89,86.28L502.94,88.29L504.38,89.8L503.68,90.69L504.73,92.58L504.52,94.09L502.94,94.57L502.22,96.94L499.69,98.05L500.17,101L501.8,101.78L501.3,101.97L502.19,103.68L500.74,106.77L501.78,109L500.45,110.91L498.58,111.52L498.83,112.09L498.83,112.09L495.31,113.59L494.66,112.36L492.49,112.31L490.27,110.25L488.86,110.3L487.76,113.62L485.83,114.71L485.22,114.02L483.89,114.52L484.15,116.39L486.23,116.51L486.04,119.92L486.81,121.28L484.78,122.5L486.56,125.24L483.6,127.35L483.77,128.84L482.59,129.56L480.79,130.11L479.4,129.27L478.45,133.32L477.12,134.53L477.48,135.69L475.67,136.62L473.7,136.56L472.97,138.4L471.51,138.99L471.45,140.88L472.57,142.38L470.54,143.58L469.39,142.71L469.15,139.45L467.32,138.88L463.16,139.24L463.16,139.24L462.53,137.79L462.53,137.79L464.75,136.88L464.91,135.72L463,134.18L460.35,134.05L458.9,130.73L458.37,132.97L457.43,133.6L454.74,133.14L454.74,133.14L455.03,131.24L452.26,131.46L448.23,127.19L447.41,128.35L447.17,127.48L448.03,126.86L445.15,124.04L448.14,120.85L448.66,117.17L450.7,118.22L452.12,117.01L451.64,116.37L452.39,113.79L451.73,111.95L452.34,109.94L450.11,106.91L450.2,104.61L445.17,99.36L440.82,96.38L438.28,97.23L438.28,97.23L435.77,95.89L434.98,92.11L435.36,89.8L436.41,89.19L437.05,86.5L438.81,87.15L438.99,88.72L441.44,87.89L440.31,85.03L440.7,82.88L439.99,80.91L441.85,80.94L443.63,78.67L445.01,78.59L445.92,76.36L443.77,74.02L444.73,71.69L443.72,69.83L443.67,67.53L443.67,67.53z"/>
		<path id="ES-AS" title="Asturias" class="land" d="M335.23,5.06l1.68,1.06l0.66,1.77l2.14,0.43l-0.64,0.13l0.15,0.88l7.85,-0.44l0.51,0.93l2.55,-0.18l2.16,2.3l2.5,-0.39l3,0.98l2.38,-0.15l6.26,2.03l4.98,0.52l0,0l-0.72,1.38l0.45,2.9l-0.71,0.36l-1.56,-1.16l-0.71,1.2l-2.62,0.4l-0.21,2.58l-2.74,0.2l0,0l-0.83,-1.64l-1.15,-0.39l-2.3,2.36l-2.14,-0.27l-0.72,2.92l-1.25,-0.46l-4.83,1.33l-1.2,-0.6l-0.6,1.68l-2.41,-0.2l-0.38,1.25l-5.36,-1.35l-1.02,0.57l-0.99,2.66l-1.16,0.25l-2.93,-1.07l-1.65,-2.7l-1.26,0.37l-1.64,-0.75l-0.47,1.63l-1.07,0.44l-2.11,-1l-0.35,1.37l-2.71,-0.82l-0.85,-1.03l-1.75,2.64l-1.5,-0.1l1.17,1.92l-1.51,0.75l-5.41,-0.09l-1.97,1.49l-1.71,-1.22l0,0l-1.26,-2.75l-1.02,-0.03l-1.27,-1.72l-0.05,1.48l-1.09,-0.91l1.58,-2.44l0.67,0.45l1.17,-0.63l1.3,-1.93l-0.91,-1.06l-2.72,1.38l-0.37,-2.55l-2.49,-1.51l0.01,-2.24l-1.07,0.06l-1.01,-2.99l-1.08,0.03l0.08,-1.75l1.89,0.1l1.31,-1.7l0,0l0.64,-2.12l0.7,0.06l-0.61,-1.1l1.47,0.13l0.81,-0.8l3.67,0.76l1.77,-0.44l0.58,0.67l2.65,-0.87l2.51,1.01l1.65,-0.12l0.08,-0.81l3.16,0.74l3.01,-1.64l3.47,1.49l2.63,-1.24l1.69,0.33L335.23,5.06z"/>
		<path id="ES-CB" title="Cantabria" class="land" d="M404.86,22.15l-0.6,-2.02l1.09,-0.51l0.47,0.26L404.86,22.15zM396.64,10.44l4.2,1.81l0.19,0.78l-0.8,0.17l0.75,1.02l2.85,-0.28l-0.05,0.72l2.62,0.13l2.02,1.63l0,0l-0.11,1.94l-1.42,0.66l-0.42,-0.93l-1.46,0.7l-1.43,-0.4l-0.2,0.84l-3,1.56l0.87,3.79l0,0l-5.05,-0.61l-1.27,-1.12l-3.16,3.71l-2.49,-0.34l0.16,1.82l-1.15,-0.01l-1.63,1.49l-0.99,2.53l1.55,1.26l1.78,-2.06l1,0.99l-0.97,1.09l-1.21,-0.48l0.47,0.84l-0.83,-0.01l0.7,0.3l-0.45,0.76l1.1,0.33l0.23,-1.35l0.75,0.36l0.41,2.93l-1.12,0.46l-0.82,-0.66l-0.48,1.35l-1.83,0.35l-0.74,-2.69l-1.1,2.41l-0.96,0.16l-0.48,-1.09l-2.27,-0.69l1.52,-1.75l-0.61,-0.51l-1.35,0.98l-0.67,-0.45l-0.39,-3.69l-2.95,-0.65l-1.46,-2.27l-1.7,-1.01l-0.41,0.82l-1.16,-0.26l-1.03,1.01l-1.28,-0.61l-0.88,0.7l-2.66,-0.14l-0.14,-1.28l-2.94,-2.61l0.32,-2.1l0,0l2.74,-0.2l0.21,-2.58l2.62,-0.39l0.71,-1.2l1.56,1.16l0.71,-0.36l-0.45,-2.9l0.72,-1.38l0,0l9.21,-0.31l3.48,-1.65l2.19,0.25L386.9,12l3.63,-0.91l1.31,1.03l-1.96,0.95l0.53,1.48l1.89,-1.8l-0.67,-0.35L396.64,10.44zM382.39,36.04l0.04,-0.05l0,0l0.02,0l0,0l0.36,0.19l0,0l-0.23,1.02l-0.27,-0.82l0,0L382.39,36.04zM380.84,36.17l0.15,0.16l0,0l-0.44,-0.2l0,0L380.84,36.17z"/>
		<path id="ES-CE" title="Ceuta" class="land" d="M310.13,355.55L309.05,356.18L307.96,357.65L307.81,358.33L307.56,358.43L306.67,358.3L306.31,357.5L305.94,357.24L305.01,358.04L304.2,357.95L302.73,356.04L301.32,355.24L300.27,355.15L299.4,354.71L298.97,354L298.97,353.15L298.03,349.78L298.1,346.54L297.89,345.78L296.63,344.04L297.52,342.77L299.3,342.18L300.02,342.32L301.57,342.06L304.26,344.49L306.29,345.43L307.04,347.17L306.93,347.58L307.69,348.37L308.29,348.45L309.78,350.38L310.57,350.51L310.57,349.88L312.94,347.94L313.5,348.75L313.1,349.5L314.81,351.05L315.25,351.54L315.25,351.98L316.48,352.33L316.65,352.06L318.19,351.62L318.06,351.17L318.71,350.91L319.64,350.46L320.32,349.52L320.16,348.31L321.11,347.29L322.69,346.71L323.08,345.72L323.35,345.65L323.91,347.04L324.53,347.09L324.76,348.04L325.41,348.28L326.06,348.09L326.28,349.47L325.87,350.41L325.62,350.68L325.12,350.33L323.8,351.98L322.83,352.42L322.11,352.63L321.29,352.38L319.96,353.55L318.24,354.16L317.54,354.02L315.97,353.16L314.63,353.07L313.56,354.14L312.22,356.13z"/>
		<path id="ES-CL" title="Castile and Leon" class="land" d="M414.24,44.04l0.34,0.41l-0.51,-0.2l0,0L414.24,44.04zM412.66,44.11l-0.03,0.17l0,0L412.66,44.11zM417.29,37.56l0.08,-0.05l0,0l2.5,-0.29l3.49,0.86l0.38,0.73l0.83,-0.45l-1.36,2.44l0.87,1.04l1.48,-0.57l0.15,1.39l-3.22,-0.05l-0.63,-0.91l-2.95,0.23l-0.48,-1.18l-2.29,-1.52l0.82,-1.54l0,0l0.16,-0.47l0,0l0.1,0.17l0,0L417.29,37.56zM380.63,36.15l0.36,0.18l0,0l-0.44,-0.2l0,0L380.63,36.15zM382.65,36.1l0.17,0.08l0,0l-0.23,1.02l-0.27,-0.82l0,0l0.12,-0.38l0,0l0.02,0l0,0L382.65,36.1zM308.53,32.71l1.71,1.22l1.97,-1.49l5.41,0.09l1.51,-0.75l-1.17,-1.92l1.5,0.1l1.75,-2.64l0.85,1.03l2.71,0.82l0.35,-1.37l2.11,1l1.08,-0.44l0.47,-1.62l1.64,0.75l1.26,-0.37l1.65,2.7l2.93,1.07l1.16,-0.25l0.99,-2.66l1.02,-0.57l5.36,1.35l0.38,-1.25l2.41,0.2l0.6,-1.68l1.2,0.6l4.83,-1.33l1.25,0.46l0.72,-2.92l2.14,0.27l2.3,-2.35l1.15,0.4l0.83,1.64l0,0l-0.31,2.1l2.94,2.61l0.14,1.28l2.66,0.14l0.88,-0.7l1.28,0.61l1.03,-1.01l1.16,0.26l0.41,-0.82l1.7,1.01l1.46,2.27l2.95,0.65l0.39,3.69l0.67,0.46l1.36,-0.98l0.61,0.51l-1.52,1.75l2.28,0.69l0.48,1.09l0.96,-0.16l1.1,-2.41l0.74,2.69l1.83,-0.35l0.48,-1.35l0.82,0.66l1.12,-0.46l-0.41,-2.93l-0.74,-0.36l-0.23,1.35l-1.1,-0.33l0.45,-0.76l-0.7,-0.3l0.83,0.02l-0.46,-0.84l1.21,0.48l0.97,-1.09l-1,-0.99l-1.78,2.06l-1.55,-1.26l0.99,-2.53l1.63,-1.49l1.15,0.01l-0.15,-1.82l2.5,0.34l3.16,-3.71l1.27,1.12l5.05,0.61l0,0l4.46,-2.39l0.85,0.98l2.13,0.2l-1.06,1.82l1.27,0.79l-0.61,0.86l0.43,1.65l-0.95,0.29l3.13,0.7l2.22,2.38l-1.07,1.11l-1.97,0.33l-3.62,-1.85l-1.65,2.51l1.92,2.05l0.66,-1.59l0.93,0.46l1.05,-1.3l0.28,0.77l-1.36,2.5l0.92,0.57l-0.63,1.18l2.67,-0.29l1.86,2.27l2.12,0.38l0.37,1.65l0.84,0.38l0,0l-1.43,0.69l-0.93,-0.72l-3.76,-0.08l0.64,1.91l-1.99,1.72l1.65,0.49l-0.63,1.51l1.33,1.54l-0.27,2.78l-1.19,-1.68l-0.11,1.12l1.14,0.92l-1.26,0.33l0.53,3.89l-1.07,1.77l2.6,4.06l2.62,-0.08l1.45,2.91l2.03,-1.02l0.48,-2.61l1.52,-0.59l0.77,0.78l-1.35,2.6l0.31,0.85l4.46,0.49l1.79,-2.69l0.05,-1.63l5.27,-1.1l1.05,0.5l0.38,1.55l3.82,-0.35l-0.91,1.19l1.44,2.23l-0.13,1.55l3.57,1.53l3.41,-1.77l0,0l0.04,2.29l1.01,1.86l-0.96,2.33l2.15,2.35l-0.91,2.23l-1.37,0.08l-1.78,2.27l-1.87,-0.03l0.71,1.97l-0.38,2.15l1.13,2.87l-2.45,0.82l-0.18,-1.56l-1.77,-0.65l-0.64,2.69l-1.05,0.62l-0.38,2.3l0.79,3.79l2.51,1.34l0,0l-0.12,2.81l-2.08,-1.8l-1.16,1.22l-1.42,-0.48l-2.47,1.4l-0.91,-1.04l-1.68,1.01l-1.38,-0.71l-1.88,-2.98l-1.02,0.81l-0.57,-0.38l0.42,-1.03l-1.15,-0.23l0.87,-1.4l-1.08,0.31l-2.39,-2.06l-2.75,0.6l-1.28,-0.61l-0.11,-1.56l-1.02,-0.38l-1.2,1.24l-3.02,0.67l-3.41,-1.07l-1.27,0.39l-0.58,1.31l-0.49,-0.63l-1.71,0.86l-2.1,-0.71l0.3,2.16l-1.09,-0.06l-0.59,1.12l-2.03,0.65l0,0l0,0l0,0l-2.51,1l-4.04,4.82l-3.06,1.23l-1.23,1.47l-1.12,5l-2.49,-0.21l-2.47,3.73l0,0l-3.08,0.49l0,0l0,0l0,0l-1.24,0.97l0,0l-0.38,0.38l1.18,0.33l0,0l0.03,2.25l-1.03,1.04l0.14,4.43l-2.72,0.15l-0.89,3.13l-1.28,0.15l-1.22,-0.95l0.48,1.74l-1.35,2.73l0,0l-2.78,0.32l-0.45,-2.65l-1.67,0.7l-1.21,-0.5l-0.09,1.49l-3.15,2.31l-0.15,1.23l-1.88,0.84l-0.56,-1.66l-4.13,2.58L349,134.14l0,0l-0.88,-1.7l0.68,-3.55l-2.31,0.36l-1.87,1.87l-1.44,0l-1.74,-0.65l-2.09,-2.63l-2.73,0.2l-0.49,-2.61l-2.29,1.41l-0.69,1.46l-1.56,-0.5l-1.08,-1.65l-2.38,-0.59l1.03,-1.38l-1.68,-0.9l0.33,-0.71l-0.78,0.21l-2.34,-1.83l-3.2,1.86l-0.56,1.1l-4.83,2.21l-1.13,2.54l-2.83,0.98l-0.7,-0.96l-1.05,1.05l-2.99,-1l0,0l0.11,-1.1l1.89,-1.16l0.29,-1.21l-1.8,-3.01l1.39,-2.24l-0.14,-1.37l-1.13,-0.66l1.31,-3.26l-0.96,-3.31l0.12,-3.23l0.69,-0.65l-3.55,-6.02l3.34,-0.27l1.42,-2.31l-0.36,-1.14l3.27,-4.12l1.59,-0.28l0.46,0.58l1.41,-1.32l0.79,0.26l3.14,-3.27l-0.35,-0.92l1.98,-0.08l-0.43,-0.86l3.86,-5.92l-2.86,-3.09l-4,-0.93l-1.52,0.99l-1.35,-1.06l-0.49,-2.14l1.43,-4.53l-1.5,-0.53l0.68,-1.74l-1.13,-1.24l-0.87,0.94l-2.14,0.27l-1.41,-0.33l-1.39,-1.75l-0.82,1.71l-3.1,-0.02l-1.04,-1.05l0,0l0.59,-1.95l-0.37,-1.01l-0.92,0.09l-0.64,-0.87l4.03,-5.14l1.14,-0.44l1.26,0.71l1.55,-3.23l0.15,-2.28l-2.94,-1.66l0.89,-2.28l-0.42,-0.96l-0.85,0.24l-2.04,-1.24l-1.23,1l-2.76,-0.54l1.12,-2.8l-0.34,-1.66l1.15,-0.56l-1.04,-1.91l4.84,-3.43l0.69,-1.33l-0.79,-1.86l1,-0.29L308.53,32.71z"/>
		<path id="ES-CM" title="Castile-La Mancha" class="land" d="M377.9,114.18l3.08,-0.49l0,0l-0.02,2.33l-2.31,0.73l-1.19,-0.9l0,0l-1.18,-0.32l0.38,-0.37l0,0l1.69,-0.1L377.9,114.18zM397.91,96.65l2.04,-0.65l0.59,-1.12l1.09,0.06l-0.3,-2.16l2.1,0.71l1.72,-0.86l0.49,0.64l0.58,-1.31l1.27,-0.39l3.41,1.07l3.02,-0.67l1.2,-1.24l1.02,0.38l0.11,1.56l1.28,0.61l2.75,-0.6l2.39,2.06l1.08,-0.31l-0.86,1.4l1.15,0.23l-0.42,1.03l0.57,0.38l1.02,-0.81l1.88,2.98l1.38,0.71l1.68,-1.01l0.91,1.04l2.47,-1.4l1.42,0.49l1.16,-1.22l2.08,1.8l0.12,-2.81l0,0l2.54,-0.84l4.35,2.97l5.03,5.25l-0.09,2.3l2.23,3.04l-0.61,2l0.66,1.85l-0.75,2.57l0.48,0.64l-1.42,1.21l-2.04,-1.05l-0.52,3.68l-3,3.19l2.88,2.82l-0.86,0.62l0.24,0.86l0.82,-1.16l4.03,4.27l2.78,-0.22l-0.3,1.9l0,0l2.11,4.55l3.43,0.67l2.25,-0.57l0,0l0.63,1.45l0,0l-1.72,0.75l-0.35,5.07l-1.6,2.42l0.35,1.4l-1.4,0.97l-1.51,-0.64l-0.93,0.79l-1.59,3.14l-1.56,0.95l0.58,1.74l-0.79,1.63l1.08,1.79l0.8,0.05l0.13,1.34l1.54,-0.48l1.7,1.53l4.69,0.95l-2.73,9.09l3.25,4.09l5.01,-0.54l0.97,1.78l-0.11,3.77l-0.9,0.42l1.25,2.65l-1.29,1.37l-1.74,0.03l0,0l-2.44,-1.91l-0.1,-0.95l-1.82,-0.56l-4.24,2.68l-1.16,-0.74l-1.71,1.69l-0.1,2.33l-1.23,1.6l0.52,5.53l-3.02,2.26l-2.16,-0.02l-0.37,-1.66l-1.68,-0.72l-4.48,2.88l-1.99,0.56l-1.77,-0.85l-1.81,2.36l-2.68,1.17l-3.46,6.12l0,0l-2.22,-0.2l-3.59,-1.76l2.91,-3.53l0.3,-2.76l-1.35,-1.26l0.06,-3.28l-2.44,-0.62l0.11,-2.64l-0.86,-0.78l-2.05,0.61l-2.58,-1.27l-3.04,2.77l-2.3,-0.58l-0.98,2.11l-1.74,-2.39l-1.93,1.33l-5.16,-1.45l-3.89,2.9l-1.64,-0.38l-0.21,-1.12l-0.85,-0.31l-1.28,1.96l-4.53,-1.09l-1.17,0.36l-0.86,1.42l-1.61,0.2l-9.5,-1.1l-0.61,1.96l-4.49,-2l-2.39,-2.81l-1.42,-0.14l-3.1,-3.01l-4.1,-1.41l-0.51,-2.45l-3.45,-0.35l-1.2,-1.22l0,0l1.57,-0.43l1.49,-4.27l0.53,-0.78l1.8,0.14l0.44,-1.87l-2.44,-0.78l-1.1,-3.42l2.3,0.89l1.22,-0.48l-1.1,-1.98l1.79,-3.33l4.35,1.17l-1.6,-1.56l-1.43,-3.89l1.45,-0.29l1.02,-3.35l-0.55,-0.92l-4.94,2.88l-2.19,-0.84l-6.95,-7.25l1.25,-1.56l0.57,-2.55l-0.94,-1.39l0.19,-1.66l-1.07,0.12l-1.27,1.59l-1.47,-0.25l-0.11,-2.41l0.73,-1.23l-1.12,-1.04l-2.21,0.51l1.13,-3.73l-0.1,-4.09L349,134.14l0,0l4.51,1.03l4.13,-2.58l0.56,1.66l1.88,-0.84l0.15,-1.23l3.15,-2.31l0.1,-1.49l1.21,0.5l1.67,-0.7l0.45,2.65l2.78,-0.32l0,0l1.33,0.6l2.54,-1.34l1.61,-2.86l0.78,2.87l1.4,0.64l1.3,-1.9l1.57,-0.8l1.27,1.75l1.16,0.13l0.82,-0.83l2.2,2l1.04,-0.13l0.11,0.84l0.51,-0.51l1.5,0.45l1.09,1.05l0.77,-0.57l1.74,1.58l2.07,-0.35l1.62,1.23l-0.39,1.9l-2.19,1.29l-0.72,2.02l-4,1.2l0.38,0.9l1.66,0.63l1.68,-1.95l3.22,-0.98l-0.31,-0.74l3.04,-1.16l0.39,-0.98l3.01,0.47l0.54,-1.42l1.2,-0.22l1.57,1.19l1.95,-0.43l0.97,-1.11l0.17,0.93l2.04,-0.25l0.88,-1.2l-1.15,-1.26l0.18,-0.76l0.55,0.21l-0.82,-4.21l-0.36,-0.39l-1.65,1.83l-0.61,-0.47l1.76,-5.58l-0.67,-1.23l-1.17,-0.1l-0.07,-2.57l-0.86,-0.9l-1.74,0.13l0.34,-1.22l-1.47,-1.96l0.57,-0.95l-0.64,0.55l-1.42,-1.96l-0.32,0.78l-1.65,-0.7l0.88,-1.42l-0.33,-1.32l-1.75,-0.81l3.1,-7.62l-1.18,-1.47l0.36,-1.41l-1.73,-0.42L397.91,96.65z"/>
		<path id="ES-CN" title="Canarias" class="land" d="M431.5,380.94l1.15,1.37l-2.01,2.63l-0.57,2.44l-1.97,-1.62l-2.99,-0.68l0.71,-1.7l2.66,0.24l1.18,-1.84L431.5,380.94zM499.69,370.79l0.5,0.46l-0.17,0.18l-0.6,0.64l0.27,2.45l1.26,1.53l-0.3,1.29l0.69,1l-0.7,0.26l-0.02,2.07l-1.16,1.61l-3.34,1.19l-0.56,0.92l-2.79,-0.38l-3.06,-2.6l-1.26,-2.31l0.28,-3.19l2.78,-1.73l0.31,-2.95l4.96,0.34l1.64,0.88L499.69,370.79zM449.23,369.72l2.14,0.47l2.5,2.19l0.06,1.11l-1.86,1.76l-2.76,0.28l-2.13,-2.25l0.74,-3.05L449.23,369.72zM463.13,364.78l6.85,-1.37l2.72,-3.28l2.39,-1.59l2.73,0.4l1.77,-0.7l1.04,0.9l-0.15,0.85l-2.99,1.39l-3.41,3.3v2.24l-1.75,3.15l-0.04,1.71L469,375.55l-4.21,0.64l-3.69,-6.21l-0.11,-1.77l-2.27,-2.38l2.5,-1.58L463.13,364.78zM541.2,353.03l1.55,1.36l0.38,3.71l-1.23,3.46l0.41,2.69l-1.75,4.34l-2.58,1.36l-5.63,1.31l-3.08,3.71l-4.81,-0.65l0.46,-1.38l3.36,-0.24l3.93,-2.88l0.57,-3.52l4.58,-8.15l0.49,-3.82L541.2,353.03zM431.89,349.95l1.43,0.75l2.19,-0.23l1.46,3.02l-1.26,2.04l0.3,3.26l-2.22,3.63l-4.53,-9.4l1.09,-2.16L431.89,349.95zM552.83,338.5l1.25,1.32l-1.21,1.75l0.45,1.25l-1.04,2.94l-4.26,2.28l-2.52,0.38l-1.4,2.11l-0.38,-0.62l-1.95,0.11l-0.24,-0.97l1.41,-1.31l0.39,-3.25l4.46,-2.77l2.82,0.14l1.39,-3.11L552.83,338.5z"/>
		<path id="ES-CT" title="Catalonia" class="land" d="M579.22,61.36l2.38,2.46l-0.66,2.23l1.27,2.1l-1.5,2.99l-2.04,0.83l-1.58,2.42l-1.84,0.79l-1.14,1.52l-3.22,1l-1.1,1.47l-13.64,6.76l-4.54,6.27l-16.32,3.91l-3.11,1.69l-2.64,0.18l-2.44,0.99l-1,1.61l-1.22,-0.71l-3.83,1.22l-7.78,8.5l0.83,1.27l1.4,0.05l-1.08,-0.81l0.76,-0.04l1.7,2.1l1.79,0.45l-3.79,2.74l-2.24,2.87l-1.35,0.21l-0.71,-0.85l1.49,0.4l-0.18,-0.57l1.76,-0.28l0.86,-1.55l-3.93,0.5l-2.38,3.54l0,0l-2.06,-0.88l0.13,-1.09l-1.12,-0.87l-3.29,-0.95l0.14,-2.19l-1.33,-0.36l-0.31,-1.13l-1.53,-0.06l0,0l-0.25,-0.58l1.87,-0.6l1.34,-1.92l-1.04,-2.22l1.45,-3.1l-0.89,-1.71l0.5,-0.19l-1.62,-0.78l-0.48,-2.96l2.53,-1.11l0.72,-2.37l1.59,-0.48l0.21,-1.51l-1.05,-1.88l0.7,-0.9l-1.44,-1.5l0.95,-2.01l-0.34,-1.2l1.51,-0.22l1.36,-1.88l-0.52,-2.15l-2.13,0.09l-0.62,-2.89l1.98,-2.85l1.87,-0.25l0.42,-1.28l3.37,-2.59l0,-1.72l-1.21,-0.66l2.5,-2.24l2.93,-11.86l-0.64,-0.55l0.81,-0.55l-1.28,-0.52l0.62,-0.69l-1.48,-3.7l1.32,-0.71l-0.5,-0.81l0.79,-0.26l0.44,-2.83l-1.68,-0.42l-1.21,-2.56l0,0l0.56,-0.64l-1.08,-1.71l0.67,-0.75l-0.59,-0.28l0.69,-0.81l-0.31,-1.23l1.36,-0.86l5.94,2.68l0.93,-0.61l0.65,0.71l2.59,-0.07l2.45,2.94l1.67,-0.71l3.42,0.32l2.37,4.27l-0.79,2.44l0.98,-0.13l0.49,1.08l-1.32,1l0.79,1.7l2.78,0.19l0.32,-0.9l2.6,-0.36l0.38,-1.36l3.59,0.47l2.1,1.54l1.46,-0.14l0.8,2.6l1.44,1.25l1.88,-0.52l1.91,-2.25l1.25,0.29l1.51,-0.82l4.8,1.64l1.34,1.95l1.61,0.25l0.96,-0.91l2.59,0.65l-0.53,-1.73l1.74,-1.2l1.68,0.31l1.67,-1.72l2.13,0.09l0.8,-0.95l0.54,0.61l1.98,-0.29l1.26,1.76l2.41,-0.34l-0.64,1.54l1.13,2.09l0.92,-0.57l2.59,1.15l-0.96,0.58l0.34,0.69l-0.61,-0.07l-0.38,1.78l-0.96,-0.49l-0.26,0.71l-1.33,-1.2l-0.89,0.61l-0.62,1.56L579.22,61.36z"/>
		<path id="ES-EX" title="Extremadura" class="land" d="M307.38,128.71L310.37,129.71L311.42,128.66L312.13,129.62L314.96,128.64L316.09,126.1L320.92,123.9L321.48,122.8L324.68,120.93L327.01,122.77L327.79,122.56L327.46,123.27L329.14,124.17L328.11,125.55L330.49,126.15L331.57,127.79L333.14,128.29L333.82,126.84L336.12,125.43L336.61,128.04L339.34,127.84L341.43,130.47L343.17,131.13L344.62,131.12L346.49,129.25L348.8,128.89L348.12,132.44L349,134.14L349,134.14L348.09,134.7L348.2,138.79L347.07,142.51L349.28,142.01L350.41,143.06L349.68,144.28L349.79,146.69L351.26,146.94L352.53,145.35L353.6,145.23L353.42,146.89L354.36,148.28L353.79,150.83L352.54,152.39L359.48,159.63L361.68,160.48L366.61,157.59L367.17,158.51L366.15,161.86L364.7,162.16L366.13,166.05L367.73,167.61L363.38,166.44L361.59,169.77L362.69,171.74L361.47,172.22L359.18,171.33L360.28,174.75L362.72,175.53L362.28,177.4L360.48,177.27L359.96,178.04L358.47,182.31L356.9,182.74L356.9,182.74L355.5,183.51L353.15,183.15L353.12,185.16L352.46,184.86L349.79,187.98L348.09,187.8L347.7,189.33L347.23,189.07L344.97,191.97L343.29,192.43L342.25,194.64L343.85,198.9L343.51,202.38L342.3,203.46L340.88,203.23L338.94,205.17L338.17,204.94L337.98,203.55L339.22,202.76L338.95,202.23L339.52,202.42L339.48,201.69L338.35,201.16L334.97,202.03L332.94,204.31L333.43,205.61L332.23,208.12L327.79,208.49L326.01,210L322.66,208.7L320.89,206.24L319.65,205.92L318.63,206.02L317.98,207.73L315.06,207.18L313.82,204.59L310.6,204.82L308.89,204.13L309.32,201.85L305.63,200.85L305.63,200.85L304.92,200.43L301.44,202L296.14,193.4L294.65,192.85L295.67,191.54L294.96,191.43L295.48,189.2L297.1,186.42L296.33,185.91L296.67,182.95L302.76,178.08L302.44,176.56L305.05,172.47L304.8,171.45L302.86,169.27L300,169.57L300.1,167.4L297.18,165.91L297.4,163.6L295.37,161.61L294.93,160.03L295.7,157.2L293.38,156.13L293.13,154.74L290.19,152.67L289.04,150.04L294.62,150.87L296.91,149.95L299.72,150.43L303.33,149.8L304.17,144.82L306.24,143.02L307.47,137.78L305.4,134.35L303.76,134.02L302.93,131.6L303.44,130.18L305.03,129.08z"/>
		<path id="ES-GA" title="Galicia" class="land" d="M278.53,1.91l0.63,-1.08l1.22,0.2l0.24,2.02l-0.67,-0.44l0.11,1.83l-0.91,0.04l0.68,0.39l0.8,-0.52l-0.44,-0.91l1.62,0.18l-0.62,-0.56l0.45,-0.59l2.42,-0.92L285,0l0.72,0.64l-1.04,1.44l1.75,-0.64l0.95,3.59l1.22,-2.74l2.41,0.23l-0.24,0.6l3.29,1.38l1.31,3.04l1.66,0.55l0.28,0.24l5.26,0.51l-0.36,3.14l0,0l-1.31,1.7l-1.89,-0.1l-0.08,1.75l1.08,-0.03l1.01,2.99l1.08,-0.06l-0.01,2.24l2.49,1.51l0.37,2.55l2.72,-1.38l0.91,1.06l-1.3,1.93l-1.16,0.63l-0.67,-0.45l-1.58,2.44l1.09,0.91l0.05,-1.48l1.27,1.72l1.02,0.03l1.26,2.75l0,0l-0.28,1.23l-1,0.29l0.8,1.86l-0.69,1.33l-4.83,3.43l1.05,1.91l-1.15,0.56l0.35,1.67l-1.12,2.8l2.76,0.54l1.23,-1l2.04,1.24l0.85,-0.24l0.42,0.96l-0.89,2.28l2.94,1.66l-0.15,2.28l-1.54,3.23l-1.26,-0.71l-1.14,0.44l-4.03,5.14l0.65,0.87l0.92,-0.09l0.37,1.01l-0.58,1.95l0,0l-0.7,0.84l-1.67,0.05l-1.37,-1.37l-1.62,0.22l-0.51,3.64l-3.17,1.33l-1.41,-0.3l-1.57,1.56l-0.7,-1.91l-1.18,-0.34l-0.94,1.11l-2.31,0.39l0.77,-1.79l-2.03,-0.14l-1.15,-0.88l-3.64,1.02l-1.18,1.05l-0.66,-2.77l-0.51,1.77l-1.54,0.19l-2.11,2.04l-1.96,0.28l-1.01,-0.35l-0.16,-2.05l-0.85,0.11l-0.41,-1.37l1.47,-2.58l2.01,-1.24l0.11,-1.18l-0.8,-1.17l-1.89,0.42l-0.41,-3.15l-3.66,2.56l-5.13,0.17l-0.67,0.91l-2.35,0.2l-3.37,4.17l-3.11,2.55l-0.28,-0.49l-0.54,-8.56l1.36,-0.62l0.73,0.44l0.14,-0.87l-0.83,-0.6l0.75,-0.01l1.64,-2.76l0.57,0.24l2.19,-2.14l1.34,-0.09l0.02,-2.05l-0.58,-0.36l-0.72,2.27l-1.96,0.15l-1.67,1.47l-2.19,-0.11l0.47,-2.16l1.07,1.12l-0.58,-2.17l2.26,-0.04l2.79,-3.19l-0.82,0.25l-0.24,-0.69l-2.26,1.91l-1.09,-0.48l-0.66,0.61l-1.15,-1.13l-0.12,-1.55l-1.59,-0.23l1.97,-1.39l0.07,1.96l0.75,-0.54l0.66,0.49l0.13,-2.95l-0.44,0.36l-0.28,-1.15l0.24,-0.91l1.74,-0.95l0.29,-1.7l-1.32,0.4l-0.98,-1.86l-0.48,2.98l-1.17,-1.2l-1.01,1.15l0.48,0.78l-1.85,0.77l-0.03,1.12l-1.47,0.66l0.26,-1.49l-1.56,-0.7l1.35,-2.16l0.5,-2.78l2.77,-2.8l1.07,0.55l-0.02,-1.64l-0.48,-0.68l-0.1,1.2l-1.43,0.85l-0.51,-0.53l-0.95,0.44l-0.1,-0.78l-1.23,0.52l0.41,0.71l-1.12,1.13l-1.69,-2.19l1.17,-0.92l-1.21,-1.88l0.59,-1.29l-0.9,-0.15l-0.62,-0.16l-1.42,-0.93l-1.3,1.89l-0.39,-1.82l1.34,-2.46l-0.79,-0.22l-0.59,-1.7l1.11,0.17l0.03,-1.51l0.97,0.16l0.05,-1.01l0.98,0.93l1.64,-1.6l-1.1,0.23l-0.02,-0.92l-0.5,1.06l-0.56,-0.19l-0.28,-1.22l0.92,-0.16l0.16,-0.97l2.57,0.39l1.86,-1.92l0.42,0.61l1.44,-0.14l-0.22,-1.57l-1.06,-0.46l2.27,-0.67l-0.08,-1.07l1.76,0.09l0.16,-0.96l1.48,1.53l2.14,0.49l2.7,-1.18l2,0.25l1.05,-1.62l1.62,-0.91l0.76,0.5l0.74,1.45l0.87,-0.58l-0.01,-1.84l1.17,-0.35l2.66,2.95l-0.32,-2.48l1.33,-1l-2.35,0.09l-1.58,-0.99l1.69,-0.83l1.45,0.25l1.05,-1.36l-1.9,0.94l-0.39,-0.83l-0.57,0.98l-1.94,0.31l0.31,-2.29l0.87,-0.59l-0.79,-0.98l1.76,0.15l1.99,-2.39l0.93,0.14l-0.03,0.73l1.7,-2.58l0.18,1.09l0.93,0.17l-0.65,-1l0.37,-1.68l1.69,-0.01L278.53,1.91z"/>
		<path id="ES-IB" title="Balearic Islands" class="land" d="M533.41,182.06l2.11,2.42l1.42,-0.49l0.12,1.4l-3.4,-1.17l-1.72,1.53l-0.13,-2.72l1.28,-0.61L533.41,182.06zM536.03,169.18l1.87,0.93l-0.43,0.97l0.9,1.23l-1.1,1.33l-1.27,0.21l-0.15,1.33l-1.41,1.12l-1.54,0.32l-0.38,2.5l-0.96,0.04l-0.73,-1.38l-0.66,0.5l-1.31,-0.8l-0.65,0.81l-0.65,-0.54l0.32,-2.37l-0.57,-0.67l2.48,-0.48l-0.35,-2.06l1.78,-1.48l0.46,0.41L536.03,169.18zM574.62,167.55l0.61,0.21l-0.5,1.1l-1,-0.02l0.28,-0.56L574.62,167.55zM581.65,139.61l-3.6,2.08l0.68,1.49l2.68,-1.1l-0.69,1.74l-1.5,0.21l0.5,2.01l3.06,1.69l2.57,-2.12l3.05,1.51l-0.17,0.87l0.71,0.26l-1.17,2.81l-1.16,0.45l0.27,1.49l-3.17,3.28l-1.46,4.32l-2.36,1.16l-2.03,2.14l-2.35,-1.63l-0.74,-1.63l-4.66,-0.01l-1.26,-1.55l-0.54,-2.44l0.72,-1.22l-2.14,-1.79l-1.01,-0.22l0,0.8l-2.53,0.75l-0.45,2.33l-1.27,-0.29l-0.54,-1.38l0.65,-0.42l-0.75,-0.67l-2.43,0.16l0.73,-0.51l-1.18,-0.64l0.27,-1.42l6.28,-3.97l5.21,-4.87l1.83,-0.19l2.86,-2.09l0.89,0.41l1.63,-1.02l0.48,0.62L581.65,139.61zM607.66,143.5l-5.65,-3.15l-3.68,0.57l0.27,-2.8l-0.96,0.11l-0.19,-0.77l2.06,-1.33l5.06,0.22l0.96,-0.59l0.41,0.85l0.91,-0.79l0.97,0.22l-0.32,0.92l0.93,0.08l0.33,0.68l1.7,0.57l-0.4,1.15l1.97,3.1l-0.55,0.4l-0.95,1.98L607.66,143.5z"/>
		<path id="ES-MC" title="Murcia" class="land" d="M430.55,207.06l3.46,-6.12l2.68,-1.17l1.81,-2.36l1.77,0.85l1.99,-0.56l4.48,-2.87l1.68,0.72l0.37,1.67l2.16,0.02l3.02,-2.26l-0.52,-5.53l1.23,-1.6l0.11,-2.33l1.72,-1.69l1.16,0.74l4.24,-2.68l1.82,0.56l0.1,0.95l2.44,1.91l0,0l0.69,2.86l-0.33,2.67l-2.15,2.03l0.22,3.14l2.9,0.33l0.6,1.52l-1.94,5.05l0.17,1.55l3.19,6.07l1.97,2.1l1.86,0.58l0,0l0.38,1.95l-0.98,-0.97l-2.09,3.34l1.66,2.2l3.11,0.77l-0.9,1.09l-5.36,1.81l-1.17,-0.23l0.45,-0.35l-1.32,-1.04l0.14,0.68l-3.32,0.47l-0.02,1.18l-1.51,-0.24l-1.03,-1.28l-3.35,0.39l-3.61,2.6l-0.74,2.19l-0.89,-0.29l-2.95,1.95l0,0l-2.95,-2.32l-2.05,-0.37l0.04,0.63l-0.98,-0.72l-4.26,-6.79l-0.2,-4.21l0.74,-3.33l-2.81,0.03l-1.07,-0.94l-1.31,0.41L430.55,207.06z"/>
		<path id="ES-MD" title="Madrid" class="land" d="M377.9,114.18l0.45,0.87l-1.69,0.1l0,0L377.9,114.18zM397.91,96.65l1.34,2.55l1.73,0.42l-0.36,1.41l1.18,1.47l-3.1,7.63l1.75,0.81l0.34,1.32l-0.88,1.42l1.65,0.7l0.32,-0.78l1.42,1.96l0.64,-0.55l-0.57,0.95l1.47,1.96l-0.34,1.22l1.74,-0.13l0.86,0.9l0.07,2.57l1.17,0.1l0.68,1.23l-1.76,5.58l0.62,0.47l1.65,-1.83l0.36,0.39l0.83,4.21l-0.55,-0.21l-0.18,0.76l1.15,1.26l-0.88,1.2l-2.04,0.25l-0.17,-0.93l-0.97,1.11l-1.95,0.43l-1.57,-1.19l-1.2,0.22l-0.54,1.42l-3.01,-0.47l-0.39,0.98l-3.04,1.16l0.31,0.74l-3.22,0.98l-1.68,1.95l-1.65,-0.63l-0.38,-0.9l4,-1.2l0.72,-2.02l2.19,-1.29l0.39,-1.9l-1.62,-1.23l-2.07,0.35l-1.74,-1.58l-0.77,0.57l-1.08,-1.05l-1.5,-0.45l-0.51,0.51l-0.11,-0.84l-1.04,0.13l-2.2,-2l-0.82,0.83l-1.16,-0.13l-1.27,-1.74l-1.57,0.8l-1.3,1.9l-1.4,-0.64l-0.78,-2.87l-1.61,2.86l-2.54,1.34l-1.33,-0.6l0,0l1.36,-2.73l-0.48,-1.74l1.22,0.95l1.29,-0.15l0.89,-3.13l2.72,-0.15l-0.14,-4.43l1.03,-1.04l-0.03,-2.25l0,0l1.19,0.9l2.31,-0.73l0.02,-2.33l0,0l2.47,-3.73l2.49,0.22l1.12,-5l1.23,-1.47l3.06,-1.23l4.04,-4.82L397.91,96.65z"/>
		<path id="ES-ML" title="Melilla" class="land" d="M348.35,363.86L348.56,364.17L349.53,364.22L349.71,364.52L349.15,365.98L349.27,366.83L350.58,368.36L351.09,368.36L352.14,370.41L353.14,371.2L354.78,371.38L355.08,372.2L355,372.76L354.7,371.9L353.93,372.15L353.72,371.58L353.31,371.41L351.91,372.12L352.08,373.07L351.62,373.48L351.68,375.14L352.88,376.95L354.03,377.32L353.52,378.34L351.39,379.52L348.91,379.98L348.15,379.41L346.99,377.52L343.98,375.19L343.9,374.55L344.15,373.58L343.54,372.66L343.21,371.17L343.52,369.54L345.1,366.16L345.59,364.42L347.79,362.94z"/>
		<path id="ES-NC" title="Navarra" class="land" d="M449.2,17.98L450.01,18.16L450.44,20.21L451.31,20.3L451.68,18.86L453.01,18.65L456.59,20.21L455.71,24.83L454.11,26.29L455.01,27.85L457.36,28.51L457.62,26.05L459.62,25.17L458.56,26.99L459.82,27.94L461.15,27.62L463.11,29.26L463.87,28.67L468.52,31.29L473.67,30.75L474.5,32.55L474.5,32.55L471.99,33.19L471.91,34.45L470.91,35.24L470.67,38.34L469.7,38.42L467.82,40.53L466.28,40.64L465.89,42.61L462.83,42.57L462.71,43.93L462.11,43.92L462.68,44.37L461.49,45.16L461.45,46.23L459.78,45.95L459.14,47.19L459.48,48.97L457.71,50.84L457.22,52.52L458.02,53.39L456.13,55.68L455.64,58.31L456.12,61.74L457.39,63.69L458.51,63.68L458.67,64.78L455.88,69.3L451.87,69.48L449.25,67.65L447.55,67.96L446.12,66.57L443.97,66.05L443.97,66.05L442.5,65.24L442.67,63.24L444.53,60.77L447.88,61.23L448.47,59.34L443.26,57.13L443.32,55.81L439.89,53.08L437.38,53.68L436.78,51L433.93,51.15L431.98,49.32L430.37,49.83L428.31,48.43L428.31,48.43L428.28,47.66L429.11,47.4L429,44.43L428.29,44.14L427.49,45.54L426.21,43.77L428.49,42.07L429.36,42.29L429.41,43.11L431.83,42.46L430.98,39.82L432.66,38.89L432.17,37.47L433.46,35.47L433.34,32.41L434.09,31.46L436.33,31.81L437.31,30.56L438.73,30.31L439.42,26.87L442.41,24.55L442.1,21.24L442.97,21.86L443.13,21L443.53,21.72L445.36,20.46L445.77,18.91L447.08,18.45L447.08,18.45z"/>
		<path id="ES-PV" title="Basque Country" class="land" d="M418.47,12.92l0.9,-0.37l1.61,1.88l1.23,-0.37l0.78,0.91l2.93,0.55l1.31,1.52l2.88,1.38l4.13,-0.5l1.25,1l6.56,-1.86l3.42,-2.2l0.23,1.23l-0.69,0.42l1.91,0.78l0.16,1.16l0,0l-1.31,0.47l-0.41,1.55l-1.83,1.25l-0.4,-0.72l-0.16,0.86l-0.86,-0.61l0.31,3.31l-3,2.32l-0.69,3.44l-1.41,0.25l-0.98,1.25l-2.24,-0.35l-0.75,0.95l0.12,3.06l-1.29,2l0.49,1.42l-1.68,0.93l0.85,2.65l-2.42,0.65l-0.05,-0.82l-0.86,-0.22l-2.29,1.7l1.28,1.78l0.8,-1.4l0.71,0.28l0.11,2.98l-0.83,0.26l0.02,0.77l0,0l-2.53,-0.03l0.13,-1.08l-0.58,1.32l-1.05,-0.38l-0.68,0.79l-0.28,-1.12l-1.13,0.73l-0.83,-1.58l-0.77,0.34l0.63,-2.88l-2.23,-0.99l-1.48,2.45l-0.6,-0.94l0.6,-1.12l-0.63,0.12l-0.43,-1.09l0,0l-0.84,-0.38l-0.37,-1.64l-2.12,-0.38l-1.85,-2.27l-2.67,0.29l0.63,-1.17l-0.92,-0.57l1.36,-2.5l-0.28,-0.77l-1.05,1.3l-0.93,-0.45l-0.66,1.59l-1.92,-2.05l1.65,-2.51l3.62,1.86l1.97,-0.33l1.07,-1.11l-2.22,-2.38l-3.13,-0.7l0.95,-0.29l-0.42,-1.65l0.62,-0.86l-1.27,-0.79l1.06,-1.82l-2.12,-0.2l-0.85,-0.98l-4.46,2.39l0,0l-0.86,-3.79l3,-1.56l0.2,-0.84l1.43,0.4l1.46,-0.7l0.43,0.93l1.42,-0.66l0.11,-1.94l0,0l1.02,0.37l0.51,-0.73l2.12,1.4l-0.45,-1.8l2.45,-1.44l-0.01,-0.87l3.74,0.21L418.47,12.92zM404.86,22.15l-0.6,-2.02l1.09,-0.51l0.47,0.26L404.86,22.15zM417.04,37.18l0.07,0.02l0,0l0.1,0.17l0,0l0.16,0.14l0,0l2.5,-0.29l3.49,0.86l0.38,0.73l0.83,-0.45l-1.36,2.44l0.87,1.04l1.48,-0.57l0.15,1.39l-3.22,-0.05l-0.63,-0.91l-2.95,0.23l-0.48,-1.18l-2.29,-1.52l0.82,-1.54l0,0L417.04,37.18z"/>
		<path id="ES-RI" title="La Rioja" class="land" d="M443.67,67.53l-3.41,1.77l-3.57,-1.53l0.13,-1.55l-1.44,-2.23l0.91,-1.19l-3.81,0.35l-0.37,-1.55l-1.05,-0.5l-5.27,1.1l-0.05,1.63l-1.79,2.69l-4.46,-0.49l-0.3,-0.85l1.35,-2.6l-0.77,-0.78l-1.52,0.59l-0.48,2.62l-2.03,1.02l-1.45,-2.91l-2.61,0.08l-2.6,-4.05l1.07,-1.76l-0.53,-3.89l1.26,-0.33l-1.14,-0.92l0.11,-1.12l1.19,1.69l0.27,-2.78l-1.32,-1.54l0.63,-1.51l-1.65,-0.49l1.99,-1.72l-0.63,-1.91l3.76,0.08l0.93,0.72l1.43,-0.69l0,0l0.43,1.09l0.63,-0.12l-0.6,1.12l0.6,0.94l1.48,-2.45l2.23,1l-0.63,2.88l0.77,-0.33l0.83,1.58l1.14,-0.73l0.28,1.13l0.68,-0.79l1.05,0.38l0.58,-1.32l-0.12,1.08l2.53,0.03l0,0l2.06,1.4l1.61,-0.51l1.95,1.83l2.85,-0.15l0.6,2.68l2.51,-0.6l3.43,2.72l-0.06,1.33l5.21,2.2l-0.59,1.9l-3.35,-0.46l-1.85,2.48l-0.18,2l1.47,0.81l0,0L443.67,67.53zM412.61,44.25l0.05,-0.14l0,0l0.17,0.06l0,0l0,0l0,0l-0.19,0.1l0,0L412.61,44.25zM414.07,44.21l0.17,-0.16l0,0l0.34,0.41l-0.51,-0.2l0,0V44.21z"/>
		<path id="ES-VC" title="Valencia" class="land" d="M454.74,133.14l2.69,0.46l0.94,-0.63l0.53,-2.24l1.45,3.32l2.64,0.13l1.92,1.54l-0.16,1.16l-2.22,0.91l0,0l-2.25,0.57l-3.43,-0.67L454.74,133.14zM463.16,139.24l4.16,-0.36l1.83,0.57l0.24,3.26l1.15,0.87l2.03,-1.2l-1.13,-1.51l0.06,-1.88l1.46,-0.59l0.73,-1.85l1.97,0.07l1.81,-0.93l-0.36,-1.16l1.33,-1.2l0.96,-4.06l1.39,0.84l1.81,-0.55l1.18,-0.71l-0.17,-1.49l2.95,-2.11l-1.78,-2.74l2.03,-1.22l-0.77,-1.36l0.19,-3.41l-2.08,-0.12l-0.26,-1.87l1.33,-0.5l0.61,0.69l1.93,-1.09l1.1,-3.31l1.41,-0.05l2.22,2.06l2.17,0.05l0.65,1.23l3.52,-1.5l0,0l1.53,0.06l0.31,1.13l1.33,0.36l-0.14,2.19l3.29,0.95l1.12,0.87l-0.13,1.09l2.06,0.88l0,0l-2.85,5.9l-3.88,5.28l-1.97,1.26l-1.32,3.3l-2.65,1.74l-1.49,4.14l-2.1,1.99l-4.87,8.77l-1.99,6.06l0.84,3.67l2.43,5.08l-0.56,1.51l2.1,5.19l3.77,4.14l3.96,0.88l1.98,1.58l-0.18,1.08l1.17,1.3l-2.29,1.94l-1.41,0.27l-0.42,1.44l-0.93,-0.36l-2.12,0.82l-1.86,3.27l-1.47,-0.39l-6.1,3.23l-0.76,3.13l-1.16,-0.34l-1.54,0.95l-0.13,4.49l-2.9,1.12l-0.87,5.85l-1.44,1.19l-1.74,4.1l0,0l-1.86,-0.58l-1.97,-2.1l-3.19,-6.07l-0.17,-1.55l1.94,-5.05l-0.6,-1.52l-2.9,-0.33l-0.21,-3.14l2.15,-2.03l0.34,-2.67l-0.69,-2.85l0,0l1.74,-0.03l1.29,-1.37l-1.25,-2.65l0.9,-0.42l0.11,-3.76l-0.97,-1.78l-5.01,0.54l-3.25,-4.09l2.73,-9.09l-4.69,-0.95l-1.69,-1.53l-1.54,0.48l-0.13,-1.34l-0.79,-0.05l-1.08,-1.79l0.79,-1.63l-0.58,-1.74l1.57,-0.95l1.59,-3.14l0.93,-0.78l1.51,0.64l1.4,-0.97l-0.35,-1.4l1.6,-2.42l0.35,-5.07L463.16,139.24z"/>
	</g>
</svg>