<?xml version="1.0" encoding="utf-8"?>
<!-- (c) ammap.com | SVG map of Spain High -->
<svg xmlns="http://www.w3.org/2000/svg" xmlns:amcharts="http://amcharts.com/ammap" xmlns:xlink="http://www.w3.org/1999/xlink" version="1.1">
	<defs>
		<style type="text/css">
			.land
			{
				fill: #CCCCCC;
				fill-opacity: 1;
				stroke:white;
				stroke-opacity: 1;
				stroke-width:0.5;
			}
		</style>

		<amcharts:ammap projection="mercator" leftLongitude="-18.161674" topLatitude="43.794381" rightLongitude="4.332045" bottomLatitude="27.636889"></amcharts:ammap>

		<!-- All areas are listed in the line below. You can use this list in your script. -->
		<!--{id:"ES-AN"},{id:"ES-AR"},{id:"ES-AS"},{id:"ES-CB"},{id:"ES-CL"},{id:"ES-CM"},{id:"ES-CN"},{id:"ES-CT"},{id:"ES-EX"},{id:"ES-GA"},{id:"ES-RI"},{id:"ES-MD"},{id:"ES-MC"},{id:"ES-NC"},{id:"ES-IB"},{id:"ES-PV"},{id:"ES-VC"}-->

	</defs>
	<g>
		<path id="ES-AN" title="Andalusia" class="land" d="M438.16,248.99l-0.01,0.64l-1.23,0.51l-0.44,1.01l-1.72,0.46l-2.19,-2.7l-1.48,-1.17l-1.33,-0.24l-1.63,1.04l-1.35,-0.9l0.35,0.36l-0.44,-0.32l-2.25,0.65l-1.68,3.23l-0.68,0.73l-1.44,0.57l-1.91,0.06l-1.17,-0.81l-0.95,0.35l-2.01,-1.94l-1.45,0.48l-7.49,-0.55l-2.3,0.53l-0.72,0.81l-1.5,0.69l-1.64,-0.11l-1.26,-0.95l0.11,0.23l-0.9,0.12l-1.26,-0.99l-1.5,-0.09l-0.55,0.58l-1.03,-0.11l-0.38,0.46l-0.55,-0.62l-0.48,0.27l-1.83,-0.84l-3.32,0.95l-3.05,-0.75l-0.99,0.82l-2.11,0.31l-3.96,0.11l-1.82,-0.38l-0.58,0.53l0.04,-0.39l-2.68,4.01l-0.6,0.61l-1.92,0.69l-0.9,1.82l-2.84,0.77l-2.97,-0.73l-1.61,0.02L358,260.4l-2.04,0.29l-2.02,1.19l-0.61,-0.03l-1.15,1.33l-0.77,2.24l-1.85,2.64l-0.62,2.51l-0.7,-0.04l-0.58,-0.73l-1.08,0.11l-0.6,1.16l0.46,2.38l-0.92,0.69l-0.59,-0.13l-3.3,1.59l-0.99,-1.41l-1.16,-0.62l-0.99,0.21l-1.52,-0.93l-0.52,0.33l-1.72,-2.25l-1.54,-1.3l-3.24,0.08l-1.86,-3.46l-1.04,-0.39l-1.01,-2.36l-1,-0.91l-1.97,-4.35l-0.78,-0.16l1.04,-0.51l-0.32,0.33l0.35,0.1l0.06,-0.32l-0.12,0.42l0.52,1l0.13,-0.39l0.08,0.25l0.74,-1.3l0.23,-0.92l-0.25,-0.46l-1,0.05l-0.92,-1.27l-0.61,0.18l0.28,-0.18l-0.5,-0.23l0.09,0.48l-0.5,-0.53l-0.37,0.36l-0.99,-0.64l-1.33,-3.52l2.32,-1.85l-1.11,-0.65l-1.29,-3.12l-2.24,-2.67l-6.37,-4.23l-2.78,-1.28l-1.89,-1.49l0.6,0.96l2.21,1.81l-3.02,-2.61l-0.65,-0.08l0.39,0.42l-0.34,-0.02l-2.69,-1.23l-7.37,0.57l-0.99,0.79l-0.97,-0.38l-0.3,-1.66l-0.5,-0.67l0.32,-0.8l-0.56,-1.25l0.03,-2.71l-0.62,-0.66l0.5,-0.32l-0.66,-1.73l0.17,-0.59l-0.57,-0.38l-0.21,-0.84l-0.54,-0.06l-0.33,-1.05l0.42,-0.2l0.1,-1.55l1.36,-1.49l0.92,-3.74l0.75,-0.23l2.54,-2.58l0.53,-1.92l0.71,-1.01l-0.09,-1.9l1.55,-0.7l1.97,-0.01l0.11,-0.89l0.67,-0.48l1.1,0.84l1.47,-0.13l0.57,-2.79l0.94,-1.72l-0.38,-0.21l0.03,-0.51l0.92,-1.15l0,0l2.32,1.04l1.38,-0.04l-0.44,2.28l1.05,-0.02l0.03,0.43l0.63,0.27l0.72,-0.31l1.94,0.35l0.56,-0.27l0.69,0.73l0,0l0.43,0.52l0,0l0.12,1.33l0.66,-0.2l0,0l0.32,0l0,0l1.94,0.75l0.31,-0.21l-0.16,-0.61l0.73,-0.58l-0.25,-0.32l1.03,-0.1l1.24,0.32l0.28,1.15l0.74,0.63l0,0l0.13,0.05l0,0l0.62,0.63l1.4,0.25l0.37,0.41l1.03,-0.1l0.56,0.74l1.77,-1.51l1.78,-0.46l2.67,0.09l0.49,-1.78l0.71,-0.72l-0.57,-0.73l0.08,-0.58l1.24,-0.93l0.08,-0.79l0.71,-0.56l1.41,-0.1l0.49,-0.38l0.69,0.17l0.78,-0.56l1.13,0.53l0.04,0.73l-0.26,-0.36l-0.31,0.17l0.26,0.54l-1.24,0.79l0.19,1.39l0.77,0.23l1.93,-1.93l1.42,0.22l0.19,-0.64l1.03,-0.44l-0.15,-0.77l0.35,-0.66l0,0l0.1,-0.05l0,0l0.04,-2l-1.3,-2.28l0.44,-1.28l-0.74,-0.71l0.03,-0.55l1.01,-1.66l0.72,-0.46h0.96l0.13,-0.72l1.85,-1.25l0,0l-0.11,-0.26l0,0l0.39,-0.67l0.47,0.26l-0.22,-0.5l0.62,-1.03l1.7,0.17l-0.09,-0.51l0.52,-0.64l0.97,-0.5l0.88,-1.1l0.25,0.26l0.15,-0.63l0.22,0.38l0.1,-0.35l0.33,0.27l-0.01,-0.53l0.47,-0.06l0,0l0.04,-0.08l0,0l-0.46,-1.34l2.35,0.36l1.4,-0.77l0,0l0.99,0.43l0.21,0.78l1.57,0.43l1.88,-0.08l0.51,2.45l4.1,1.41l0.12,0.67l1.02,0.17l1.18,0.89l0.78,1.27l0.22,-0.28L370,191l0.2,0.5l0.48,-0.18l2.39,2.81l4.49,2l0.49,-0.13l-0.25,-1.13l0.37,-0.69l3.64,0.72l5.87,0.38l1.61,-0.2l0.67,-0.63l0.19,-0.79l0.67,-0.2l0,0l0.5,-0.16l0,0l1.14,0.39l0.27,-0.35l3.12,1.06l0.73,-0.38l0.16,-1.5l0.38,-0.07l0.85,0.31l0.21,1.12l1.64,0.38l1.2,-0.3l1.31,-1.18l-0.04,-0.68l0,0l0.11,-0.31l0,0l1.31,-0.42l0,0l0.15,0.07l0,0l1.21,0.74l3.8,0.64l1.93,-1.33l1.74,2.39l0.23,-1.48l0.75,-0.63l1.66,0.01l0.63,0.57l0.54,-0.8l0.63,-0.34l0.21,0.26l0,-0.34l1.06,-0.51l0.11,-0.43l0.2,0.17l0.29,-0.77l2.58,1.27l1.79,-0.62l0,0l0.25,0l0,0l0.86,0.78l-0.11,2.64l2.44,0.62l-0.06,3.28l1.19,0.55l0.16,0.72l-0.5,1.68l0.2,1.08l-2.91,3.53l0.75,0.44l0,0h0.35l0,0l2.49,1.32l2.22,0.2l0,0l1.11,0.78l1.25,2.23l2.19,1.7l1.31,-0.41l1.07,0.94l0.6,-0.35l1.11,0.51l0.44,-0.39l0.49,0.21l0,0l0.17,-0.01l0,0l0.2,0.26l-0.57,0.79l-0.37,2.29l0.37,1.65l-0.47,0.92l0.3,1.64l0,0l0.18,0.19l0,0l4.08,6.6l0.98,0.72l-0.04,-0.62l2.05,0.37l2.96,2.32l0,0l-1.34,0.7l-0.88,1.64l-2.49,2.7l-1.34,5.33l-1.4,2.71l0.13,1.37l-0.29,0.42l-0.91,0l-0.72,1.26l-0.63,0.13l-0.35,0.47l0.11,1.39l-1.07,0.51L438.16,248.99z"/>
		<path id="ES-AR" title="Aragon" class="land" d="M443.97,66.05L444.25,66.6L446.12,66.57L447.55,67.96L449.25,67.65L451.87,69.48L451.87,69.48L452.53,69.61L452.53,69.61L453.05,69.45L453.05,69.45L453.37,69.15L453.37,69.15L455.88,69.3L456.64,68.4L456.55,67.91L457.74,65.71L458.67,64.78L458.51,63.68L458.51,63.68L458.23,63.71L458.23,63.71L457.39,63.69L457,62.47L456.12,61.74L456.31,59.75L455.63,58.31L456.33,56.34L456.13,55.68L458.02,53.39L457.88,52.79L457.22,52.52L457.71,50.84L459.47,48.97L459.14,47.19L459.78,45.95L460.74,46.48L461.31,46.23L461.31,46.23L461.45,46.23L461.45,46.23L461.49,45.16L462.67,44.37L462.11,43.91L462.71,43.93L462.83,42.57L465.89,42.61L465.9,40.99L466.28,40.64L467.82,40.53L469.08,39.05L469.69,39.06L469.7,38.42L470.67,38.34L471.13,37.45L470.8,37L470.91,35.24L471.91,34.45L471.99,33.19L472.93,32.48L474.5,32.55L474.5,32.55L474.27,33.4L475.23,34.05L475.73,33.83L476.29,34.72L477.78,35.8L477.82,36.73L478.72,36.72L478.75,37.63L479.17,37.79L479.4,37.23L479.83,37.21L479.89,36.56L480.5,35.95L482.18,37.16L483.04,36.7L483.74,36.93L484.74,35.6L485.33,35.71L485.67,35.15L487.16,36.21L487.57,36.13L487.7,36.66L489.08,37.46L489.82,37.05L491.3,39.91L492.31,40.02L492.5,40.85L493.76,41.22L494.41,41.06L494.58,40.62L495.55,40.81L496.29,40.13L497.27,40.28L498.59,39.82L498.98,39.3L501.25,40.08L501.36,40.91L502.19,41.64L502.91,41.28L503.03,40.49L503.98,39.77L505.68,41L507.22,40.66L508.26,40.97L508.55,40.55L510.16,40.84L510.44,40.45L512.18,40.98L512.18,40.98L512.29,41.24L512.29,41.24L512.51,41.38L512.51,41.38L513.12,42.2L513.39,43.54L515.07,43.96L514.38,46.41L514.63,46.79L514.2,46.6L513.84,47.05L513.8,47.57L514.33,47.85L513.65,48.51L513.31,48.25L513.01,48.57L514.49,52.27L513.87,52.96L515.15,53.48L514.34,54.03L514.99,54.58L513.31,59.46L513.19,60.06L513.65,60.38L513.08,60.86L513.32,62.09L512.45,64.68L512.06,64.92L512.06,66.43L511.73,67.05L511.61,66.66L511.07,66.84L510.72,67.83L510.23,67.62L509.56,68.67L510.77,69.33L510.46,69.4L510.37,70.54L510.77,71.05L510.05,71.36L510.03,71.78L509.37,71.75L509.04,72.9L508.23,72.88L507.4,73.64L506.98,74.93L505.11,75.18L505.02,76.11L504.71,75.82L503.13,78.03L503.09,78.71L503.96,79.76L503.75,80.92L505.17,81.16L505.88,80.83L506.41,82.97L505.05,84.86L503.54,85.07L503.88,86.28L502.94,88.29L504.38,89.8L503.68,90.69L504.25,91.12L504.14,91.64L504.73,92.58L504.52,94.09L504.13,94.04L504.08,94.51L502.94,94.57L502.22,96.94L501.1,97.21L500.93,97.91L500.03,97.65L499.69,98.05L499.7,99.48L500.21,99.57L500.51,100.54L500.17,101L500.54,100.82L500.53,101.27L500.9,101.06L501.79,101.78L501.3,101.97L501.9,103.18L501.9,103.18L501.85,103.46L501.85,103.46L502.19,103.68L501.1,105.5L501.1,105.5L501.13,105.7L501.13,105.7L500.74,106.77L501.78,109L500.59,110.21L500.45,110.91L499.02,111.35L498.97,111.83L498.58,111.52L498.83,112.09L498.83,112.09L498.21,112.61L497.15,112.32L495.31,113.59L495.31,113.59L494.99,113.48L494.99,113.48L494.67,112.47L494.67,112.47L494.66,112.36L494.66,112.36L494.12,112.19L494.12,112.19L493.58,112.22L493.58,112.22L492.49,112.31L491.26,111.73L490.29,110.87L490.27,110.25L488.86,110.3L487.92,111.84L487.76,113.61L485.83,114.71L485.22,114.02L483.89,114.52L484.15,116.39L485.39,116.76L486.23,116.51L486.04,119.92L486.69,120.48L486.81,121.28L485.13,121.96L484.78,122.5L486.41,124.45L486.56,125.24L484.97,126.15L484.23,127.38L483.6,127.35L483.3,127.76L483.77,128.84L482.59,129.56L480.79,130.11L479.4,129.27L478.45,133.32L477.62,133.71L477.12,134.53L477.48,135.69L477.04,135.56L475.67,136.62L473.7,136.56L472.97,138.4L471.5,138.99L471.45,140.88L472.57,142.38L470.54,143.58L469.39,142.71L469.69,142.08L469.35,141.1L469.59,140.34L469.15,139.45L468.83,139.73L467.32,138.88L465.05,138.96L464.5,139.34L463.85,139.2L463.63,139.57L463.16,139.24L463.16,139.24L462.53,137.79L462.53,137.79L464.75,136.88L465.08,136.41L464.91,135.72L463,134.18L460.35,134.05L460.35,133.03L459.54,132.53L459.1,131.48L459.1,131.48L458.93,131.05L458.93,131.05L458.9,130.73L458.36,131.19L458.37,132.97L457.92,133.17L457.92,133.17L457.43,133.6L457.43,133.6L456.81,133.3L456.32,133.5L456.32,133.5L456.02,133.32L456.02,133.32L454.74,133.14L454.74,133.14L455.03,131.24L454.07,131.65L453.12,131.01L452.25,131.46L448.22,127.19L447.41,128.35L447.17,127.48L447.42,126.91L448.03,126.86L447.37,126.1L447.37,126.1L447.21,126.01L447.21,126.01L445.88,124.33L445.15,124.04L445.18,123.66L445.4,123.34L445.64,123.56L446.73,121.64L448.14,120.85L447.89,119.17L448.13,117.73L448.66,117.17L450.7,118.22L452.12,117L451.64,116.37L452.39,113.79L451.73,111.95L452.27,111.2L452.34,109.94L451.86,108.7L451.41,108.61L450.11,106.91L450.45,105.19L450.45,105.19L450.2,104.61L450.2,104.61L449.34,103.85L449.34,103.85L449.03,103.36L449.03,103.36L445.17,99.36L443.77,98.89L442.49,97.67L442.49,97.67L442.15,97.77L442.15,97.77L440.82,96.38L438.28,97.23L438.28,97.23L437.54,96.33L435.77,95.89L434.98,92.11L435.53,90.54L435.36,89.8L436.41,89.19L437.05,86.5L438.81,87.15L438.59,88.29L438.99,88.72L441.44,87.89L441.47,87.4L441.01,87.27L441.06,85.92L440.31,85.03L440.7,82.88L439.94,81.63L439.99,80.91L441.85,80.94L442.59,79.67L442.59,79.67L442.83,79.53L442.83,79.53L443.2,79.51L443.63,78.67L445.01,78.59L444.92,77.74L445.92,76.37L445.01,75.93L445.13,75.31L443.76,74.02L444.68,72.65L444.72,71.69L443.72,69.83L443.67,67.53L443.67,67.53z"/>
		<path id="ES-AS" title="Asturias" class="land" d="M335.23,5.06l0.33,0.63l1.35,0.44l-0.23,0.53l0.59,0.36l0.3,0.88l2.14,0.43l-0.42,0.37l-0.22,-0.24l0.13,0.63l0.34,-0.27l-0.32,0.53l0.64,0.08l0.23,-0.33l0.47,0.29l0.77,-0.59l0.69,0.38l2.05,-0.18l0.61,0.31l2.39,-0.4l0.51,0.93l0.44,-0.34l2.11,0.16l2.16,2.3l2.5,-0.39l3,0.98l2.38,-0.15l1.41,0.72l0.96,-0.12l0.1,0.47l0.6,-0.22l3.18,1.18l2.08,0.46l2.9,0.05l0,0l0.03,0.49l-0.75,0.9l0.59,1.63l-0.14,1.27l-0.71,0.36l-0.12,-0.66l-1.44,-0.5l-0.71,1.2l-2.62,0.39l0.27,0.84l-0.48,1.74l-1.1,-0.19l-0.89,0.38l0,0l-0.14,-0.07l0,0l-0.61,0.08l0,0l-0.83,-1.64l-1.15,-0.39l-1.44,0.97l-0.87,1.39l-0.67,-0.41l-1.46,0.13l-0.72,2.92l-1.04,-0.04l-0.21,-0.42l-1.61,0.79l0,0l-0.08,0.18l0,0l-3.14,0.36l-0.52,-0.58l-0.68,-0.02l-0.42,0.31l-0.19,1.37l-2.41,-0.2l-0.38,1.25l-3.85,-0.49l-1.51,-0.86l-1.02,0.57l-1.07,2.06l0.08,0.6l-1.16,0.25l-0.99,0.03l-0.54,-0.65l-0.76,0.02l0.08,-0.5l-0.72,0.04l-1.18,-1.01l-0.47,-1.69l-1.26,0.37l-1.64,-0.75l-0.47,1.63l-1.08,0.44l-1.08,-1.02l-1.03,0.02l-0.35,1.37l-1.01,-0.26l-0.55,-0.71l-0.3,0.34l-0.85,-0.18l-0.11,-0.52l-0.74,-0.5l-0.39,0.66l-0.64,0.12l0.11,0.65l-0.5,0.11l-0.33,1.1l-0.38,-0.16l-0.24,0.42l-0.7,-0.37l0,0l-0.18,0.01l0,0l0.13,0.93l1.04,0.13l-0.01,0.86l-1.15,0.24l-0.35,0.51l-0.59,-0.3l-0.88,0.55l-1.86,-0.44l-2.08,0.1l-0.95,0.2l-1.02,1.3l-0.36,-0.04l0.05,-0.6l-1.39,-0.58l0,0l-0.46,-0.46l0.14,-1.16l-0.94,-1.13l-1.02,-0.03l-1.27,-1.72l-0.05,1.48l-0.41,0.02l-0.68,-0.93l0.43,-0.77l0.44,0.24l-0.03,-0.98l0.74,-0.94l0.67,0.45l0.54,-0.63h0.62l1.12,-1.16l0.19,-0.77l-0.91,-1.06l-0.79,0.19l0.05,0.35l-1.47,0.92l-0.5,-0.08l-0.64,-1.14l0.42,-0.84l-0.15,-0.58l-0.82,-0.16l-0.25,-0.57l-0.3,0.33l-1.11,-1.12l-0.26,-0.89l0.27,-1.34l-1.08,0.06l-0.82,-1.01l0.06,-1.53L300,15.3l-0.59,0.33l-0.49,-0.3l0.12,-0.68l0,0L299,14.52l0,0l0.01,-0.94l1.89,0.1l0.38,-1.05l0.93,-0.65l0,0l0.62,-0.95l-0.28,-0.37l0.31,-0.81l0.7,0.06l-0.68,-0.55l0.06,-0.56l1.47,0.13l0.6,-0.55l0.16,0.21l0.05,-0.46l1.49,0.2l0.35,0.43l0.67,-0.49l1.17,0.61l1.77,-0.44l0.58,0.67l0.38,-0.54l0.96,0.13l1.31,-0.46l0.22,0.38l0.41,-0.14l0.1,0.42l1.54,-0.03l0.24,0.38l1.65,-0.12l0.08,-0.81l1.15,0.67l0.9,-0.27l1.12,0.34l2.69,-1.01l0.32,-0.63l0.63,0.58l0.32,-0.25l0.16,0.47l0.4,-0.24l-0.01,0.56l0.75,-0.17l1.23,0.53l2.63,-1.24l0.64,0.58l1.04,-0.25l0.51,-0.56l-0.26,-0.14l0.88,-0.34l0,-0.65l0.93,-0.02l0.6,-0.47l0.03,-0.71L335.23,5.06z"/>
		<path id="ES-CB" title="Cantabria" class="land" d="M404.86,22.15l-0.6,-2.02l1.09,-0.51l0.47,0.26l-0.54,1.05l0.03,1.05l0,0L404.86,22.15zM396.64,10.44l0.02,0.42l0.98,-0.27l0.31,0.62l0.6,-0.11l0.39,0.79l1.92,0.35l0.19,0.78l-0.8,0.17l0.75,1.02l0.48,-0.31l1.22,0.3l1.16,-0.28l-0.05,0.72l0.59,-0.35l2.04,0.48l0.93,1.23l1.09,0.4l0,0l-0.11,1.94l-0.91,0.12l-0.5,0.55l-0.42,-0.93l-1.46,0.7l-0.43,-0.39l-0.75,0.29l-0.25,-0.3l-0.2,0.84l-1.19,0.29l-0.42,0.89l-1.39,0.38l0.22,0.71l0,0l0.18,0.28l0,0l0.46,2.8l0,0l-2.01,0.01l-2.22,-0.71l-0.82,0.09l-0.23,-0.68l-1.04,-0.44l-0.91,1.39l0,0l-0.02,0.17l0,0l-0.57,0.84l-1.32,0.57l-0.33,0.75l-1.79,0l-0.71,-0.35l0.16,1.82l-1.15,-0.01L387.61,29l-0.96,0.51l-0.99,2.53l0.45,0.83l1.17,-0.13l-0.07,0.57l1.78,-2.06l1,0.99l-0.97,1.09l-1.21,-0.48l0.46,0.84l-0.83,-0.01l0.7,0.3l-0.41,0.55l0,0l-0.04,0.21l0,0l1.1,0.33l0.23,-1.35l0.75,0.36l0.58,1.64L390.19,37l-1.12,0.46l-0.82,-0.66l-0.48,1.35l-0.55,-0.21l-1.28,0.56l-0.12,-0.38l-0.46,0l-0.16,-2.3l-0.42,0.44l0.14,0.45l-0.46,0.23l0.13,0.42l-0.56,0.28l0.08,0.59l-0.96,0.16l-0.48,-1.09l-1.36,0.07l-0.91,-0.76l-0.04,-0.42l0.67,-0.61l0.61,0.19l0.28,-0.9l-0.61,-0.51l-1.36,0.98l-0.67,-0.45l0.07,-1.98l-0.4,-0.22l-0.06,-1.49l-2.95,-0.65l-1.46,-2.27l-1.7,-1.01l-0.41,0.82l-1.16,-0.26l-1.03,1.01l-1.28,-0.61l-0.88,0.7l-1.21,-0.34l-1.44,0.2l-0.14,-1.28l-0.63,-0.02l-0.01,-0.71l-1.79,-1l-0.51,-0.88l0.44,-1.18l-0.46,-0.61l0.34,-0.31l0,0l0.61,-0.08l0,0l0.14,0.07l0,0l0.89,-0.38l1.1,0.19l0.48,-1.74l-0.27,-0.84l2.62,-0.39l0.71,-1.2l1.44,0.5l0.12,0.66l0.71,-0.36l0.14,-1.27l-0.59,-1.63l0.75,-0.9l-0.03,-0.49l0,0l1.12,0.17l1.42,-0.35l0.98,0.28l1.24,-0.55l0.44,0.6l1.16,0.04l2.86,-0.49l1.71,-0.66l0.82,-0.73l0.74,0.18l0.21,-0.44l0.34,0.43l0.38,-0.59l1.48,0.4l-0.36,-0.13L386.9,12l2.91,-0.31l0.72,-0.6l0.74,0.12l-0.06,0.52l0.63,0.39l-1.06,0.24l-0.9,0.71l-0.01,0.4l0.65,0.23l-0.11,0.85l0.25,-0.54l0.12,0.27l0.63,-0.4l-0.35,-0.41l0.37,-0.04l0.14,-0.59l0.73,-0.07l-0.67,-0.35l1.01,0.04l0.34,-0.55l0.92,-0.06l1.16,-0.87l0.85,0.06L396.64,10.44zM382.39,36.04l0.04,-0.05l0,0l0.02,0l0,0l0.36,0.18l0,0l0.11,0.78l-0.34,0.24l-0.27,-0.82l0,0L382.39,36.04zM380.84,36.16l0.15,0.16l0,0l-0.03,0.17l0,0l-0.3,0.12l0,0l-0.19,-0.26l0,0l-0.04,-0.1l0,0l0.02,-0.09l0,0l0.1,-0.04l0,0L380.84,36.16z"/>
		<path id="ES-CL" title="Castile and Leon" class="land" d="M414.24,44.04l0.33,0.41l-0.51,-0.2l0,0L414.24,44.04zM412.83,44.18l-0.19,0.1l0,0l0.03,-0.17l0,0l0.07,-0.11l0,0l-0.02,-0.13l0,0l-0.01,-0.04l0,0l0.27,-0.03l0,0l-0.02,0.2l0,0L412.83,44.18zM417.29,37.56l0.08,-0.05l0,0l2.5,-0.29l2.39,1.05l1.1,-0.19l0.38,0.73l0.83,-0.45l-0.42,1.43l-0.4,0.47l-0.3,-0.14l-0.24,0.69l0.87,1.04l1.48,-0.57l0.15,1.39l-0.84,0.27l-0.17,-0.39l-2.21,0.07l-0.63,-0.91l-1.23,-0.06l-0.38,0.44l-1.34,-0.15l-0.48,-1.18l-1.07,-0.38l-1.22,-1.14l0.82,-1.54l0,0l0.16,-0.47l0,0l0.1,0.17l0,0L417.29,37.56zM380.63,36.15l0.21,0.02l0,0l0.09,0.04l0,0l0,0l0,0l0.06,0.11l0,0l-0.03,0.17l0,0l-0.3,0.12l0,0l-0.19,-0.26l0,0l-0.04,-0.1l0,0l0.02,-0.09l0,0l0.1,-0.04l0,0L380.63,36.15zM382.65,36.09l0.17,0.08l0,0l0.11,0.78l-0.34,0.24l-0.27,-0.82l0,0l0.12,-0.38l0,0l0.02,0l0,0L382.65,36.09zM308.53,32.71l1.39,0.58l-0.05,0.6l0.36,0.04l1.02,-1.3l0.95,-0.2l2.08,-0.1l1.86,0.44l0.88,-0.55l0.59,0.3l0.35,-0.51l1.15,-0.24l0.01,-0.86l-1.04,-0.13l-0.13,-0.93l0,0l0.18,-0.01l0,0l0.7,0.37l0.24,-0.42l0.38,0.16l0.33,-1.1l0.5,-0.11l-0.11,-0.65l0.64,-0.12l0.39,-0.66l0.74,0.5l0.11,0.52l0.85,0.18l0.3,-0.34l0.55,0.71l1.01,0.26l0.35,-1.37l1.03,-0.02l1.08,1.02l1.08,-0.44l0.47,-1.63l1.64,0.75l1.26,-0.37l0.47,1.69l1.18,1.01l0.72,-0.04l-0.08,0.5l0.76,-0.02l0.54,0.65l0.99,-0.03l1.16,-0.25l-0.08,-0.6l1.07,-2.06l1.02,-0.57l1.51,0.86l3.85,0.49l0.38,-1.25l2.41,0.2l0.19,-1.37l0.42,-0.31l0.68,0.02l0.52,0.58l3.14,-0.36l0,0l0.08,-0.18l0,0l1.61,-0.79l0.21,0.42l1.04,0.04l0.72,-2.92l1.46,-0.13l0.67,0.41l0.87,-1.39l1.44,-0.97l1.15,0.39l0.83,1.64l0,0l-0.34,0.31l0.46,0.61l-0.44,1.18l0.51,0.88l1.79,1l0.01,0.71l0.63,0.02l0.14,1.28l1.44,-0.2l1.21,0.34l0.88,-0.7l1.28,0.61l1.03,-1.01l1.16,0.26l0.41,-0.82l1.7,1.01l1.46,2.27l2.95,0.65l0.06,1.49l0.4,0.22l-0.07,1.98l0.67,0.45l1.36,-0.98l0.61,0.51l-0.28,0.9l-0.61,-0.19l-0.67,0.61l0.04,0.42l0.91,0.76l1.36,-0.07l0.48,1.09l0.96,-0.16l-0.08,-0.59l0.56,-0.28l-0.13,-0.42l0.46,-0.23l-0.14,-0.45l0.42,-0.44l0.16,2.3l0.46,0l0.12,0.38l1.28,-0.56l0.55,0.21l0.48,-1.35l0.82,0.66l1.12,-0.46l0.17,-1.29l-0.58,-1.64l-0.75,-0.36l-0.23,1.35l-1.1,-0.33l0,0l0.04,-0.21l0,0l0.41,-0.55l-0.7,-0.3l0.83,0.01l-0.46,-0.84l1.21,0.48l0.97,-1.09l-1,-0.99l-1.78,2.06l0.07,-0.57l-1.17,0.13l-0.45,-0.83l0.99,-2.53l0.96,-0.51l0.66,-0.98l1.15,0.01l-0.16,-1.82l0.71,0.35l1.79,0l0.33,-0.75l1.32,-0.57l0.57,-0.84l0,0l0.02,-0.17l0,0l0.91,-1.39l1.04,0.44l0.23,0.68l0.82,-0.09l2.22,0.71l2.01,-0.01l0,0l4.46,-2.39l0.85,0.98l1.48,-0.22l0.65,0.42l-1.06,1.82l0.78,0.53l0.29,-0.2l0.2,0.46l-0.62,0.86l0.45,0.26l-0.02,1.4l-0.95,0.29l0.85,0.55l2.27,0.15l0.67,0.8l-0.13,0.4l1.68,1.18l-1.07,1.11l-1.97,0.33l-1.54,-0.69l0.06,-0.6l-2.15,-0.57l-1.65,2.51l1.92,2.05l0.26,-0.05l-0.42,-0.41l0.82,-1.12l0.93,0.46l1.05,-1.3l0.28,0.77l-1.36,2.5l0.92,0.57l-0.63,1.17l2.67,-0.29l0.18,0.96l0.69,-0.05l0,0l0,0.13l0,0l0.99,1.23l1.36,-0.14l0.76,0.52l0.14,0.87l0,0l-0.07,0.07l0,0l0.29,0.7l0.84,0.38l0,0l-0.68,0.64l-0.37,-0.25l-0.38,0.3l-0.93,-0.72l-1,0.13l-0.61,-0.35l-0.37,0.46l-1.78,-0.32l0.63,1.91l0,0l-0.41,0.1l0,0l-0.78,1.19l-0.8,0.43l0.26,0.33l0.95,-0.19l0.44,0.35l-0.11,0.95l-0.52,0.56l1.33,1.54l-0.45,0.79l0.18,1.99l-0.69,-0.95l0.11,-0.72l-0.61,-0.02l-0.11,1.12l0.56,0.01l0.58,0.91l-1.26,0.33l0.22,0.85l0,0l0.16,0.12l0,0l-0.31,0.45l0.47,2.47l-0.39,1.19l-0.68,0.58l2.6,4.05l2.62,-0.08l0.59,1.78l0,0v0.29l0,0l0.87,0.84l0.83,-0.78l1.2,-0.24l0.42,-2.37l0,0l0.07,-0.25l0,0l0.48,-0.56l0.6,0.23l0.44,-0.26l0.77,0.78l-0.07,0.73l-1.28,1.87l0.3,0.85l1.13,-0.22l0.82,0.66l1.33,-0.35l1.18,0.39l0.89,-2.06l0.89,-0.64l0.05,-1.63l0.76,0.26l0.76,-0.31l0.46,-0.76l3.27,-0.3l1.05,0.5l0.38,1.55l0.9,-0.51l2.92,0.16l-0.03,0.69l-0.87,0.5l1.44,2.23l-0.36,0.31l0.23,1.24l2.67,0.65l0,0l0.16,0.16l0,0l0.74,0.72l0.5,-0.03l2.91,-1.74l0,0l0.04,2.29l1.01,1.86l-0.05,0.97l-0.91,1.36l1.36,1.29l-0.12,0.62l0.91,0.44l-1,1.37l0.09,0.85l-1.37,0.08l-0.43,0.85l-0.37,0.02l0,0l-0.23,0.14l0,0l-0.74,1.27l-1.87,-0.03l-0.05,0.72l0.75,1.25l-0.38,2.15l0.75,0.9l-0.05,1.35l0.46,0.13l-0.03,0.5l-2.45,0.82l-0.4,-0.43l0.22,-1.14l-1.77,-0.65l-0.64,2.69l-1.05,0.62l0.18,0.73l-0.55,1.57l0.79,3.79l1.77,0.44l0.74,0.9l0,0l-0.3,1.2l0.44,1.28l-0.25,0.33l-2.08,-1.8l-1.16,1.22l-1.42,-0.49l-0.83,1.02l-0.81,-0.12l-0.84,0.5l-0.91,-1.04l-1.68,1.01l-0.36,-0.53l-1.02,-0.18l-0.38,-1.34l-0.73,-0.16l-0.22,-1.02l-0.55,-0.46l-1.02,0.81l-0.57,-0.38l0.42,-1.03l-1.15,-0.23l0.77,-0.49l0.1,-0.91l-1.08,0.31l-0.45,-0.85l-1.7,-0.41l-0.24,-0.79l-1.19,0.03l-0.44,0.68l-1.12,-0.11l-1.28,-0.61l-0.11,-1.56l-1.03,-0.38l-0.91,0.47l-0.29,0.77l-1.85,0.13l-1.17,0.54l-3.41,-1.07l-1.27,0.39l-0.58,1.31l-0.49,-0.63l-0.49,0.65l-0.89,-0.12l-0.33,0.33l-1.58,-0.17l-0.53,-0.54l0.42,1.01l-0.12,1.15l-1.09,-0.06l-0.59,1.12l-1.1,0.48l0,0l-0.25,0.23l0,0l-0.06,0.05l0,0l-0.31,-0.1l0,0l-0.31,0l0,0l0,0l0,0l-1.36,0.18l-1.15,0.82l-1.23,1.89l-1.71,1.05l-1.1,1.88l-3.06,1.23l-0.79,1.38l-0.44,0.09l-1.12,5l-1.34,0.21l-1.15,-0.42l-0.73,1.59l-1.74,2.14l0,0l-0.63,-0.31l0,0l-0.41,0.11l0,0l-1.44,0.23l-0.6,0.46l0,0l0,0l0,0l-0.42,-0.15l-0.78,0.51l-0.05,0.6l0,0l-0.38,0.38l1.18,0.32l0,0l0.33,0.88l-0.3,1.37l-0.87,0.5l-0.16,0.54l0.32,2.47l-0.68,1.03l0.51,0.93l-2.72,0.15l-0.56,0.73l0.1,1.31l-0.6,0.33l0.17,0.76L371.7,127l-0.68,-1.03l-0.54,0.09l0.48,1.74l-1.08,1.23l0.24,1.23l-0.52,0.27l0,0l-1.73,0.67l-1.05,-0.36l-0.18,-1.49l-0.43,-0.39l0.16,-0.76l-1.11,0.31l0,0l-0.56,0.39l0,0l-1.21,-0.5l-0.37,0.77l0.27,0.71l-1.79,1.25l0,0l-0.08,0.18l0,0l-1.28,0.88l-0.15,1.23l-1.88,0.84l0,0l-0.26,0.07l0,0l-0.31,-1.74l-1.34,0.29l-0.57,0.93l-0.29,-0.11l-1.12,1.25l-0.8,0.21l-0.85,0.12l-0.27,-0.84l-1.37,-0.12l0,0l-0.18,-0.04l0,0l-1.04,0.11l0,0l-0.6,-0.18l0,0l-0.19,-0.08l0,0l-0.88,-1.7l-0.05,-1.91l0.73,-1.64l-2.31,0.36l-1.17,1.53l-0.7,0.34l-1.44,0l0,0l-0.22,-0.07l0,0l-0.33,-0.21l0,0l-0.41,-0.21l0,0l-0.79,-0.17l-0.2,-1l-0.78,-0.15l-0.21,-0.71l-0.9,-0.77l-1.27,-0.07l-0.73,0.48l-0.74,-0.21l-0.29,-0.38l0.49,-0.9l-0.69,-1.33l-2.29,1.41l-0.69,1.46l-1.56,-0.5l0,0l-0.28,-0.19l0,0l-0.74,-0.53l0,0l-0.13,-0.18l0,0l0.06,-0.74l-2.38,-0.59l0.6,-0.29l-0.1,-0.48l0.35,-0.28l-0.31,-0.15l0.49,-0.18l-0.53,-0.37l0,0l-0.13,-0.05l0,0l-1.02,-0.48l0.33,-0.71l-0.78,0.21l-0.36,-0.79l-1.98,-1.04l-3.2,1.86l0,0l-0.38,0.39l0,0l-0.18,0.71l-1.33,0.14l-0.62,0.98l-0.66,-0.04l-2.22,1.12l-0.46,0.77l0.16,1.04l-0.82,0.73l-2.09,0.21l-0.74,0.76l-0.71,-0.96l-1.05,1.05l-0.77,-0.34l0,0l-0.48,0l0,0l-0.1,0.26l-0.76,-0.18l-0.87,-0.74l0,0l0.11,-1.1l1.89,-1.16l0.29,-1.21l-1.49,-1.6l-0.31,-1.41l1.39,-2.24l-0.14,-1.37l-1.13,-0.66l1.31,-3.26l-0.96,-3.31l0.39,-1.89l-0.27,-1.33l0.69,-0.13l0,-0.52l-0.22,-0.8l-1.05,-0.68l-0.3,-1.74l-1.7,-1.87l-0.29,-0.93l0.45,-0.33l1.49,0.41l1.4,-0.35l1.42,-2.32L310,97.77l1.91,-1.78l0.21,-0.98l1.15,-1.36l1.33,0.11l0.26,-0.39l0.46,0.58l1.41,-1.32l0.28,0.39l0.51,-0.13l0.38,-0.3l-0.25,-0.52l1.12,-0.33l0.86,-1.72l1.03,-0.41l-0.43,-0.36l0.08,-0.56l0.59,-0.31l0.45,0.53l0.94,-0.3l-0.43,-0.86l1,-0.83l-0.25,-0.6l3.11,-4.49L325.35,81l-0.79,-0.33l-1.7,-1.92l-4,-0.93l-0.38,0.59l-1.14,0.4l-1.35,-1.06l0.04,-1.39l-0.53,-0.75l1.43,-4.52l-1.5,-0.54l0.68,-1.74l-1.13,-1.24l-0.87,0.94l-2.14,0.27l-1.41,-0.33l-0.64,-1.55l-0.75,-0.21l-0.82,1.71l-3.1,-0.03l-0.39,-0.84l-0.65,-0.2l0,0l-0.15,-0.78l0.73,-1.17l-0.37,-1.01l-0.92,0.09l-0.65,-0.87l0.8,-0.39l0.43,-1.37l0.97,-0.27l0.23,-1.58l1.18,-0.63l0.41,-0.9l1.14,-0.44l1.26,0.71l0.06,-0.56l0,0l-0.14,-0.3l0,0l1.62,-2.37l0.15,-2.28l-0.9,-0.28l-0.39,-0.55l-1.07,-0.17l-0.58,-0.65l0,0l0.02,-0.08l0,0l0.66,-0.76l-0.19,-0.92l0.41,-0.52l-0.42,-0.96l-0.85,0.24l-2.04,-1.24l-0.83,0.12l-0.4,0.88l-1.71,-0.47l0,0l-0.5,-0.04l0,0l-0.55,-0.03l0.45,-0.79l-0.17,-0.88l0.84,-1.13l-0.38,-0.46l0.04,-1.21l1.15,-0.56l-1.04,-1.91l0.91,-1.05l1.04,-0.07l0.35,-1.07l0.67,0.49l1.86,-1.72l-0.05,-0.53l0.74,-0.79l-0.79,-1.86l1,-0.29l-0.18,-0.91L308.53,32.71z"/>
		<path id="ES-CM" title="Castile-La Mancha" class="land" d="M377.9,114.18l0.6,-0.46l1.44,-0.23l0,0l0.41,-0.11l0,0l0.63,0.31l0,0l-0.38,0.78l0.36,1.55l-1.86,0.7l0,0l-0.45,0.04l0,0l-0.45,-0.13l-0.22,-0.79l-0.52,0.01l0,0l-1.18,-0.32l0.38,-0.38l0,0l1.69,-0.1L377.9,114.18zM397.91,96.65l0.31,0l0,0l0.31,0.1l0,0l0.06,-0.05l0,0l0.25,-0.23l0,0l1.1,-0.48l0.59,-1.12l1.09,0.06l0.12,-1.15l-0.42,-1.01l0.53,0.54l1.58,0.17l0.33,-0.33l0.89,0.12l0.49,-0.65l0.49,0.63l0.58,-1.31l1.27,-0.39l3.41,1.07l1.17,-0.54l1.85,-0.13l0.29,-0.77l0.91,-0.47l1.03,0.38l0.11,1.56l1.28,0.61l1.12,0.11l0.44,-0.68l1.19,-0.03l0.24,0.79l1.7,0.41l0.45,0.85l1.08,-0.31l-0.1,0.91l-0.77,0.49l1.15,0.23l-0.42,1.03l0.57,0.38l1.02,-0.81l0.55,0.46l0.22,1.02l0.73,0.16l0.38,1.34l1.02,0.18l0.36,0.53l1.68,-1.01l0.91,1.04l0.84,-0.5l0.81,0.12l0.83,-1.02l1.42,0.49l1.16,-1.22l2.08,1.8l0.25,-0.33l-0.44,-1.28l0.3,-1.2l0,0l2.54,-0.84l1.33,1.39l0,0l0.34,-0.1l0,0l1.28,1.22l1.4,0.47l3.86,4.01l0,0l0.31,0.48l0,0l0.87,0.76l0,0l0.25,0.59l0,0l-0.34,1.71l1.3,1.71l0.45,0.09l0.48,1.24l-0.07,1.26l-0.54,0.75l0.66,1.85l-0.75,2.57l0.48,0.64l-1.42,1.21l-2.04,-1.05l-0.53,0.56l-0.25,1.44l0.25,1.67l-1.41,0.79l-1.09,1.92l-0.23,-0.22l-0.23,0.32l-0.03,0.37l0.73,0.29l1.33,1.68l0,0l0.17,0.1l0,0l0.66,0.76l-0.61,0.05l-0.25,0.57l0.24,0.86l0.82,-1.16l4.03,4.27l0.87,-0.45l0.95,0.64l0.96,-0.41l-0.3,1.9l0,0l-0.01,0.69l1.19,0.86l-0.28,0.27l1.22,2.72l2.66,0.34l0,0l0.05,0.1l0,0l0.72,0.23l2.25,-0.57l0,0l0.63,1.45l0,0l-1.72,0.75l-0.18,0.58l0.39,0.7l0,0l-0.09,0.43l0,0l-0.46,3.35l-1.6,2.42l0.35,1.4l-0.44,0.68l-0.96,0.29l0,0l-0.73,-0.35l0,0l-0.78,-0.29l-0.93,0.79l-1.59,3.14l-1.57,0.95l0.48,0.09l0.1,1.64l-0.35,0.16l0.24,0.63l-0.27,0.7l-0.41,0.15l0.23,0.81l0.63,0.09l0,0l-0.2,0.24l0,0h0.6l-0.18,0.65l0.61,0l-0.26,0.32l0.38,-0.21l0,0l0.07,-0.06l0,0l0.19,0.61l-0.39,0.01l0.5,0.18l-0.05,0.48l0,0l-0.12,0.06l0,0l0.67,-0.49l0,0l0.06,0.16l0,0l0.06,0.33l0.05,-0.65l0.69,0.16l-0.29,0.31l0.67,0.05l0,0.44l0.47,-0.04l0.84,0.77l0.23,-0.29l0,0l0.18,0.05l0,0l0.94,0.35l0,0h0.16l0,0l0.57,0.07l0,0l0.16,0.08l0,0l0.91,0.35l0.32,-0.33l1.24,0.68l-0.52,3.35l-2,3.62l-0.21,2.11l1.01,0.75l2.23,3.34l3.01,-0.19l0.88,-0.54l1.12,0.2l0.3,1.19l0.66,0.59l-0.32,1.3l0.35,1.11l-0.14,1.36l-0.9,0.42l1.25,2.65l-1.29,1.37l-1.74,0.03l0,0l-2.44,-1.91l-0.1,-0.95l-1.82,-0.56l-1.37,0.43l0,0l-0.33,0.16l0,0l-2.54,2.08l-0.65,-0.92l-0.51,0.18l-1.71,1.69l-0.11,2.33l-0.95,0.67l-0.27,0.94l0.47,1.81l0.05,3.72l-3.02,2.26l-2.16,-0.02l-0.62,-1l0,0l-0.01,-0.14l0,0l0.26,-0.53l-0.51,-0.5l-0.45,0.38l-0.72,-0.6l-0.69,0.06l-0.03,0.46l-0.67,-0.14l0.3,0.46l-3.4,2.02l-1.99,0.56l-1.77,-0.85l-0.5,0.37l0,0l-0.36,0.66l0,0l-0.95,1.34l-2.68,1.17l-1.48,3.29l-1.71,1.42l-0.27,1.41l0,0l-2.22,-0.2l-2.49,-1.32l0,0h-0.35l0,0l-0.75,-0.44l2.91,-3.53l-0.2,-1.08l0.5,-1.68l-0.16,-0.72l-1.19,-0.55l0.06,-3.28l-2.44,-0.62l0.11,-2.64l-0.86,-0.78l0,0l-0.25,0l0,0l-1.79,0.62l-2.58,-1.27l-0.29,0.77l-0.2,-0.17l-0.11,0.43l-1.06,0.51l0,0.34l-0.21,-0.26l-0.63,0.34l-0.54,0.8l-0.63,-0.57l-1.66,-0.01l-0.75,0.63l-0.23,1.48l-1.74,-2.39l-1.93,1.33l-3.8,-0.64l-1.21,-0.74l0,0l-0.15,-0.07l0,0l-1.31,0.42l0,0l-0.11,0.31l0,0l0.04,0.68l-1.31,1.18l-1.2,0.3l-1.64,-0.38l-0.21,-1.12l-0.85,-0.31l-0.38,0.07l-0.16,1.5l-0.73,0.38l-3.12,-1.06l-0.27,0.35l-1.14,-0.39l0,0l-0.5,0.16l0,0l-0.67,0.2l-0.19,0.79l-0.67,0.63l-1.61,0.2l-5.87,-0.38l-3.64,-0.72l-0.37,0.69l0.25,1.13l-0.49,0.13l-4.49,-2l-2.39,-2.81l-0.48,0.18L370,191l-0.52,-0.11l-0.22,0.28l-0.78,-1.27l-1.18,-0.89l-1.02,-0.17l-0.12,-0.67l-4.1,-1.41l-0.51,-2.45l-1.88,0.08l-1.57,-0.43l-0.21,-0.78l-0.99,-0.43l0,0l1.57,-0.43l1.49,-4.27l0.53,-0.78l1.8,0.14l0.44,-1.87l-1.98,-0.9l-0.46,0.12l-1.11,-3.43l2.29,0.89l1.13,-0.43l0,0l0.09,-0.05l0,0l0.17,-0.55l-0.47,-0.33l0,0l-0.28,-0.11l0,0l-0.52,-0.98l0.93,-2.12l0,0h0.19l0,0l0.67,-1.21l1.89,0.2l2.46,0.97l-1.6,-1.56l-0.16,-1.2l-0.5,-0.29l-0.77,-2.4l1.45,-0.29l0.06,-1.27l0.96,-2.08l-0.55,-0.92l-1.33,0.98l0,0l-0.21,0.09l0,0l-0.81,0.79l-1.55,0.3l0,0l-0.07,0.07l0,0l-0.97,0.66l-2.19,-0.84l-2.92,-3.28l-0.8,-0.18l-1.96,-2.41l0,0l-0.46,-0.41l0,0l-0.81,-0.96l1.25,-1.56l0,0l-0.01,-0.33l0,0l0.58,-2.21l-0.94,-1.39l0.39,-0.23l-0.21,-1.44l-1.08,0.12l-1.27,1.59l-1.47,-0.25l-0.11,-2.41l0.73,-1.22l-1.12,-1.05l-2.21,0.5l1.13,-3.73l-0.1,-4.09l0.91,-0.56l0,0l0.19,0.08l0,0l0.6,0.18l0,0l1.04,-0.11l0,0l0.18,0.04l0,0l1.37,0.12l0.27,0.84l0.85,-0.12l0.8,-0.21l1.12,-1.25l0.29,0.11l0.57,-0.93l1.34,-0.29l0.31,1.74l0,0l0.26,-0.07l0,0l1.88,-0.84l0.15,-1.23l1.28,-0.88l0,0l0.08,-0.18l0,0l1.79,-1.25l-0.27,-0.71l0.37,-0.77l1.21,0.5l0,0l0.56,-0.39l0,0l1.11,-0.31l-0.16,0.76l0.43,0.39l0.18,1.49l1.05,0.36l1.73,-0.67l0,0l1.33,0.6l0.43,-0.6l2.12,-0.74l0.07,-0.76l1.4,-1.05l0.14,-1.05l0.6,0.37l0.18,2.5l0.45,-0.03l0.31,0.46l0.37,-0.29l0.26,0.5l0.68,-0.51l0.62,-1.4l1.57,-0.8l1.31,1.1l-0.04,0.65l1.16,0.13l0.82,-0.83l1.32,0.59l-0.05,0.48l0.93,0.93l1.04,-0.13l0.11,0.84l0.51,-0.51l0.44,0.45l1.06,0l1.08,1.05l0.77,-0.57l0.98,1.36l0.76,0.22l0.61,-0.51l0.88,0.53l0.58,-0.37l0.13,0.46l1.49,0.77l-0.39,1.9l-1.75,1.44l-0.44,-0.15l-0.36,1.12l-0.61,0.29l0.14,0.3l0,0l0.22,0.07l0,0l-0.11,0.24l-0.63,-0.28l0.15,0.5l-0.33,0.26l0.05,-0.66l-0.69,0.67l-0.64,-0.29l-0.66,0.88l-0.2,-0.41l-0.52,0.1l-0.54,0.42l0.2,0.28l0,0l-0.02,0.14l0,0l0.21,0.47l1.66,0.63l1.14,-1.15l0,0l0.18,-0.11l0,0l0.35,-0.7l0.95,-0.51l0.34,0.22l1.92,-0.69l-0.31,-0.74l0,0l0.41,-0.1l0,0l0.77,-0.8l1.86,-0.27l0.39,-0.98l0.99,0.27l0.58,-0.3l0.05,0.42l0.6,-0.33l0.78,0.39l0.59,-0.7l-0.05,-0.71l1.2,-0.22l0.82,1l0.75,0.19l0.25,-0.33l1.7,-0.1l0.38,-0.79l0,0l0.07,0l0,0l0.51,-0.32l0.17,0.93l1.08,0.11l0.96,-0.36l0.88,-1.2l-1.15,-1.26l0.18,-0.76l0.55,0.21l-0.47,-1.12l0.2,-1.35l-0.56,-1.74l-0.36,-0.39l-1.04,0.77l-0.6,1.05l-0.62,-0.47l0.4,-2.27l1.08,-1.37l-0.31,-0.63l0.6,-1.31l-0.67,-1.22l-1.17,-0.1l-0.07,-2.57l-0.86,-0.9l-0.9,0.09l0,0l-0.16,0.07l0,0l-0.68,-0.04l0.34,-1.22l-1.27,-0.91l0.25,-0.58l-0.44,-0.47l0.37,-0.2l0,0l0.04,-0.4l0,0l0.16,-0.36l-0.64,0.55l-0.66,-0.33l-0.19,-1.14l-0.57,-0.49l-0.32,0.78l-0.48,-0.41l-0.5,0.22l0,0l-0.03,-0.11l0,0l-0.64,-0.41l0.88,-1.42l-0.44,-0.29l0.1,-0.93l0,0v-0.11l0,0l-0.48,-0.65l-1.27,-0.15l1.16,-1.95l-0.16,-0.8l0.87,-0.56l-0.52,-0.92l0.47,-0.01l0.74,-2.89l0.54,-0.49l-1.18,-1.47l0.36,-1.41l-1.73,-0.42l-0.57,-1.49l-0.81,-0.48L397.91,96.65z"/>
		<path id="ES-CN" title="Canary Islands" class="land" d="M6.42,536.26l0.61,0.25l0.53,1.12l-0.85,1.06l-0.34,1.18l-0.81,0.38l-0.57,2.44l-0.86,-0.31l-1.11,-1.31l-2.58,-0.33l-0.41,-0.35l0.16,-1.25l0.54,-0.45l1.46,0.52l1.2,-0.28l1.3,-1.17l-0.12,-0.67L6.42,536.26zM74.61,526.11l0.5,0.46l-0.17,1.01v-0.83l-0.28,0.94l0,-0.53l-0.32,0.23l0.5,1.22l-0.24,1.23l1.26,1.53l0.16,0.56l-0.45,0.74l0.69,1l-0.71,0.26l-0.25,1.09l0.24,0.99l-0.8,0.37l-0.36,1.24l-3.34,1.19l-0.56,0.92l-0.78,0.08l-1.62,-0.69l-0.4,0.23l-3.06,-2.6l-1.26,-2.32l0.27,-3.19l0.99,-0.23l1.79,-1.49l0.64,-2.48l-0.33,-0.48l0.71,-0.13l0.43,0.36l0.8,-0.42l0.99,0.85l2.03,-0.33l1.64,0.88l0.79,-0.35l-0.12,-0.87L74.61,526.11zM24.15,525.05l0.38,-0.08l0.45,0.53l1.31,0.02l0.33,0.62l1.75,0.84l0.42,0.74l0.06,1.11l-1.86,1.76l-0.82,0.34l-1.94,-0.06l-1.34,-1.03l-0.04,-0.54l-0.75,-0.68l0.1,-1.66l0.65,-1.39L24.15,525.05zM38.06,520.11l0.97,-0.02l1.43,-0.79l1.92,0.24l1.43,-0.78l1.09,-0.02l2.2,-2.07l0.52,-1.21l0.76,-0.61l1.27,-0.28l0.36,-0.69l2.72,0.4l1.77,-0.7l0.7,0.22l0.34,0.67l-0.15,0.85l-2.99,1.39l-0.46,0.97L48.99,520v2.24l-1.75,3.15l-0.04,1.71l-3.27,3.78l-1.33,-0.13l-1.31,0.78l-1.56,-0.02l-0.27,-1.3l-0.72,-0.29l0.02,-0.91l-1.15,-1.06l-1.58,-2.66l-0.11,-1.77l-1.52,-2.08l-0.76,-0.29l0.2,-0.6l2.3,-0.98l0.66,0.5L38.06,520.11zM116.13,508.36l1.55,1.36l0.38,3.71l-0.57,2.73l-0.66,0.72l0.41,2.69l-1.16,2.14l-0.04,1.12l-0.55,1.08l-0.74,0.7l-1.15,0.03l-0.69,0.64l-5.63,1.31l-3.08,3.71l-3.91,-1.02l-0.9,0.36l0.45,-1.38l0.27,0.31l1.1,-0.02l2,-0.53l3.93,-2.88l0.57,-3.52l1.12,-1.29l0.42,-2.17l1.44,-1.43l1.6,-3.26l-0.12,-0.75l0.82,-1.85l-0.22,-1.22L116.13,508.36zM118.4,508.07l-0.1,0.77l-0.43,0.06l-0.19,-0.47L118.4,508.07zM6.82,505.28l1.43,0.75l1.33,-0.4l0.86,0.16l0.74,2.1l0.72,0.92l-1.26,2.04l0.56,1.61l-0.26,1.65l-2.22,3.63l-0.74,-0.63l-0.33,-2.07l-1.24,-1.73l-1.49,-4.01l-0.72,-0.97l0.05,-0.83l1.04,-1.33L6.82,505.28zM127.76,493.82l1.14,0.57l0.1,0.75l-0.23,0.93l-0.98,0.82l0.45,1.25l-0.5,0.99l0.03,1.16l-0.57,0.79l-1.39,0.73l-0.29,0.53l-1.34,0.11l-1.25,0.92l-2.52,0.38l-1.4,2.11l-0.38,-0.62l-1.95,0.11l-0.24,-0.97l1.42,-1.31l-0.11,-1.88l0.5,-1.37l1.65,-1.38l1.27,-0.04l1.54,-1.34l0.49,0.23l0.86,-0.62l1.47,0.53l0.62,-0.72l0.77,-2.4l0.7,-0.61L127.76,493.82zM126.62,491.85l0.95,0.83l-0.87,1.21l-1.07,0.17L126.62,491.85zM126.7,487.96l0.47,0.41l-0.52,0.56l-0.61,0.01l0.17,-0.84L126.7,487.96z"/>
		<path id="ES-CT" title="Catalonia" class="land" d="M548.73,49.79l-1.52,-0.24l0.88,-1.3l0.14,1.03L548.73,49.79zM579.22,61.36l0.41,0.75l1.01,0.15l-0.2,0.22l1.17,1.34l-0.41,0.86l0.01,1.42l-0.27,-0.04l0.63,1.24l0.57,0.15l0.08,0.71l-0.42,0.29l-0.22,1.48l-0.71,0.5l-0.14,0.72l-0.7,0.21l-0.53,0.75l-0.81,-0.12l-1.58,2.42l-1.84,0.79l-1.14,1.52l-3.22,1l-0.71,0.54l-0.38,0.93l-6.63,2.85l-4.04,2.67l-2.96,1.25l-2.04,2.68l-0.76,1.86l0.38,-1.6l-0.55,1.21l-0.44,0.05l-0.04,0.28l0.46,-0.14l-0.72,1.27l-0.84,0.67l-2.53,0.8l-2.38,0.12l-1.69,0.9l-1.43,0.02l-1.97,0.63l-0.38,0.47l0.17,-0.36l-6.1,1.33l-3.12,1.69l-2.64,0.18l-1.45,0.92l-0.25,0.08l0.22,-0.37l-0.97,0.36l-1,1.61l-1.22,-0.72l-2.08,0.37l-1.76,0.85l-3.41,3.38l-1.89,2.89l-1.09,0.72l-0.28,0.83l-1.11,0.68l0.83,1.27l1.4,0.05l-1.08,-0.81l0.76,-0.04l1.7,2.1l1.79,0.45l-1.37,1.46l-2.43,1.28l-2.24,2.87l-1.35,0.21l-0.71,-0.85l0.45,0.25l-0.04,-0.57l1.08,0.72l0.33,-0.23l-0.51,-0.34l1.76,-0.27l0.86,-1.55l-1.4,-0.2l-0.84,0.54l-1.68,0.16l0.09,0.41l-0.32,-0.21l-1.48,1.74l-0.67,1.6l0,0l-2.06,-0.88l0.13,-1.09l-1.12,-0.87l-1.7,-0.21l-1.59,-0.74l-0.41,-0.56l0.55,-1.63l0,0l-0.2,-0.08l0,0l-0.08,-0.09l0,0l-0.27,-0.27l0,0l-0.63,0.08l0,0h-0.15l0,0l-0.31,-1.13l-0.77,0.3l-0.75,-0.35l0,0l-0.25,-0.58l0.39,0.31l0.05,-0.48l1.42,-0.43l0.15,-0.7l1.19,-1.21l-1.04,-2.23l0.39,-1.08l0,0l-0.03,-0.2l0,0l1.09,-1.82l-0.33,-0.22l0,0l0.04,-0.27l0,0l-0.6,-1.21l0.5,-0.19l-0.89,-0.72l-0.38,0.2l0.01,-0.45l-0.37,0.19l0.33,-0.47l-0.3,-0.96l-0.51,-0.1l0,-1.43l0.34,-0.4l0.9,0.26l0.17,-0.7l1.12,-0.27l0.72,-2.37l1.14,-0.06l0.06,-0.47l0.39,0.05l0.21,-1.51l-0.59,-0.94l0.11,-0.52l-0.57,-0.43l0.7,-0.9l-1.45,-1.5l0.95,-2.01l-0.34,-1.2l1.5,-0.22l1.36,-1.88l-0.53,-2.15l-0.72,0.33l-1.42,-0.24l0.21,-1.16l-0.87,-1.05l0.04,-0.68l1.58,-2.21l0.3,0.3l0.09,-0.93l1.87,-0.25l0.42,-1.28l0.83,-0.77l0.82,0.03l0.33,-1.15l0.66,0.03l0.02,-0.42l0.72,-0.31l-0.39,-0.52l0.09,-1.14l0.31,-0.07l-1.21,-0.66l0.67,-1.05l0.49,0.2l0.35,-0.99l0.54,-0.18l0.13,0.39l0.33,-0.62l0,-1.51l0.38,-0.24l0.87,-2.59l-0.24,-1.22l0.57,-0.48l-0.46,-0.32l0.12,-0.6l1.68,-4.89l-0.64,-0.55l0.81,-0.55l-1.28,-0.52l0.62,-0.69l-1.48,-3.7l0.29,-0.32l0.34,0.26l0.69,-0.66l-0.53,-0.28l0.04,-0.53l0.36,-0.45l0.43,0.19l-0.26,-0.38l0.7,-2.45l-1.68,-0.42l-0.27,-1.34l-0.61,-0.82l0,0l-0.21,-0.14l0,0l-0.11,-0.25l0,0h0.39l0.17,-0.64l-0.51,-1.51l-0.57,-0.2l0.67,-0.75l-0.59,-0.28l0.69,-0.81l-0.32,-1.23l1.36,-0.86l1.84,0.92l0.71,-0.13L517.5,36l1.91,1.38l0.93,-0.61l0.64,0.71l1.69,0.21l0.9,-0.28l1.35,1.25l0.13,0.97l0.97,0.73l1.67,-0.71l0.62,0.47l2.8,-0.16l-0.15,0.59l0.99,0.51l0.02,0.75l0.69,0.52l0.16,1.09l0.66,0.81L533.04,45l0.47,0.57l-0.81,1.1l0.98,-0.13l0.49,1.08l-1.32,1l0.59,0.31l0.2,1.39l2.78,0.19l0.32,-0.9l0.48,0.3l0.52,-0.67l1.6,0.01l0.38,-1.36l0.89,0.5l0.58,-0.42l1.06,0.54l1.06,-0.15l0.97,0.33l1.14,1.21l1.46,-0.14l0.12,0.84l0.49,0.29l0.19,1.47l1.44,1.25l1.88,-0.52l0.21,-0.56l0.64,-0.24l0.23,-0.95l0.83,-0.5l1.25,0.29l1.51,-0.82l1,0.57l0.63,-0.13l0.97,0.77l2.19,0.43l0.04,0.65l1.29,1.3l1.61,0.25l0.35,-0.74l0.62,-0.17l2.59,0.65l0.07,-0.68l-0.6,-1.05l0.49,0.02l0.07,-0.61l1.19,-0.61l1.06,-0.19l0.62,0.5l1.33,-1l0.34,-0.72l0.54,0.17l0.34,-0.48l1.24,0.4l0.8,-0.95l0.54,0.61l1.98,-0.29l1.26,1.76l0.93,-0.44l1.48,0.1l-0.44,0.25l0.27,0.41l-0.48,0.88l0.37,0.12l-0.31,0.33l0.21,0.73l0.65,0.32l0.2,0.59l0.92,-0.57l0.63,0.77l0.45,-0.37l0.53,0.54l0.98,0.21l-0.96,0.58l0.34,0.69l-0.61,-0.07l0.29,0.76l-0.24,0.45l-0.69,0.01l0.26,0.56l-0.96,-0.49l-0.26,0.71l-1.04,-0.52l-0.29,-0.69l-0.89,0.61l-0.62,1.56L579.22,61.36z"/>
		<path id="ES-EX" title="Extremadura" class="land" d="M307.38,128.71L308.25,129.46L309.01,129.63L309.11,129.38L309.11,129.38L309.6,129.37L309.6,129.37L310.37,129.71L311.42,128.66L312.13,129.62L312.86,128.85L314.96,128.64L315.78,127.91L315.62,126.87L316.09,126.1L318.3,124.98L318.97,125.02L319.59,124.04L320.92,123.9L321.1,123.19L321.1,123.19L321.48,122.8L321.48,122.8L324.67,120.93L326.65,121.97L327.01,122.77L327.79,122.56L327.46,123.27L328.48,123.75L328.48,123.75L328.6,123.8L328.6,123.8L329.14,124.17L328.64,124.35L328.96,124.51L328.6,124.79L328.71,125.27L328.11,125.55L330.49,126.15L330.43,126.89L330.43,126.89L330.55,127.07L330.55,127.07L331.29,127.6L331.29,127.6L331.57,127.79L331.57,127.79L333.13,128.29L333.82,126.84L336.12,125.43L336.81,126.76L336.32,127.66L336.61,128.04L337.34,128.25L338.07,127.77L339.34,127.84L340.24,128.61L340.45,129.32L341.23,129.47L341.43,130.47L342.22,130.64L342.22,130.64L342.63,130.85L342.63,130.85L342.96,131.06L342.96,131.06L343.17,131.13L343.17,131.13L344.62,131.12L345.32,130.78L346.49,129.25L348.8,128.89L348.07,130.53L348.12,132.44L349,134.14L349,134.14L348.09,134.7L348.2,138.79L347.07,142.51L349.28,142.01L350.41,143.05L349.68,144.28L349.79,146.69L351.26,146.94L352.53,145.35L353.6,145.23L353.81,146.66L353.42,146.89L354.36,148.28L353.78,150.49L353.78,150.49L353.79,150.83L353.79,150.83L352.54,152.39L353.35,153.35L353.35,153.35L353.81,153.76L353.81,153.76L355.77,156.17L356.56,156.35L359.48,159.63L361.68,160.47L362.65,159.82L362.65,159.82L362.71,159.75L362.71,159.75L364.27,159.45L365.07,158.66L365.07,158.66L365.29,158.57L365.29,158.57L366.61,157.59L367.17,158.51L366.21,160.59L366.15,161.86L364.7,162.16L365.47,164.55L365.97,164.84L366.13,166.05L367.73,167.61L365.27,166.64L363.38,166.44L362.7,167.64L362.7,167.64L362.52,167.64L362.52,167.64L361.59,169.76L362.11,170.75L362.11,170.75L362.39,170.86L362.39,170.86L362.86,171.19L362.69,171.74L362.69,171.74L362.6,171.79L362.6,171.79L361.47,172.22L359.18,171.33L360.28,174.75L360.74,174.63L362.72,175.53L362.28,177.4L360.48,177.27L359.96,178.04L358.47,182.31L356.9,182.74L356.9,182.74L355.5,183.51L353.15,183.15L353.62,184.49L353.62,184.49L353.58,184.57L353.58,184.57L353.11,184.63L353.12,185.16L352.79,184.89L352.68,185.24L352.46,184.86L352.31,185.49L352.07,185.23L351.19,186.34L350.22,186.83L349.7,187.47L349.79,187.98L348.09,187.8L347.48,188.83L347.7,189.33L347.23,189.07L346.84,189.74L346.84,189.74L346.95,190L346.95,190L345.1,191.25L344.97,191.97L344.01,191.97L343.29,192.43L342.28,194.08L342.25,194.64L342.99,195.35L342.55,196.63L343.85,198.9L343.81,200.9L343.81,200.9L343.71,200.96L343.71,200.96L343.36,201.61L343.51,202.38L342.48,202.82L342.29,203.46L340.88,203.23L338.94,205.17L338.17,204.94L337.98,203.55L339.22,202.76L338.95,202.22L339.26,202.06L339.52,202.42L339.48,201.69L338.35,201.16L337.56,201.72L336.87,201.55L336.38,201.93L334.97,202.03L334.26,202.59L334.18,203.38L332.94,204.31L332.86,204.89L333.43,205.61L332.72,206.34L332.23,208.12L329.57,208.03L327.79,208.49L326.01,210L325.45,209.26L324.42,209.36L324.06,208.95L322.66,208.7L322.04,208.07L322.04,208.07L321.9,208.02L321.9,208.02L321.17,207.39L320.89,206.24L319.65,205.92L318.63,206.02L318.87,206.33L318.14,206.92L318.3,207.52L317.98,207.73L316.04,206.98L316.04,206.98L315.72,206.98L315.72,206.98L315.06,207.18L314.94,205.84L314.94,205.84L314.51,205.32L314.51,205.32L313.82,204.59L313.26,204.86L311.32,204.52L310.59,204.82L309.97,204.55L309.94,204.12L308.89,204.13L309.32,201.85L307.95,201.89L305.63,200.85L305.63,200.85L305.48,200.37L304.92,200.43L304.49,200.9L304.25,200.65L303.38,200.89L302.92,201.59L301.89,201.49L301.44,202L299.98,200L299.55,198.36L299.09,198.23L296.34,194.36L296.14,193.4L295.15,192.72L294.65,192.85L295.67,191.54L294.96,191.43L295.48,189.2L297.1,186.42L296.34,185.91L296.67,182.95L298.03,182.18L300.22,179.83L301.13,179.71L301.99,178.44L302.76,178.08L302.93,177.54L302.44,176.55L305.05,172.47L304.8,171.45L304.07,170.07L302.86,169.27L300.83,169.88L300,169.57L299.75,169.1L300.1,167.4L297.88,166.6L297.18,165.91L296.96,164.55L297.4,163.6L295.37,161.61L294.93,160.03L295.57,158.82L295.7,157.2L294.27,156.23L293.82,156.45L293.38,156.13L293.12,154.74L292.06,154.58L291.05,153.08L290.19,152.67L289.44,150.32L289.04,150.04L291.33,150.12L294.62,150.87L296.91,149.95L299.72,150.43L300.34,150.07L301.93,150.26L303.33,149.8L304.42,146.22L304.17,144.82L305.05,144.41L306.24,143.02L306.32,140.88L306.77,140.49L306.9,138.91L307.47,137.78L305.4,134.35L303.76,134.02L302.93,131.6L303.44,130.18L304.68,129.79L305.03,129.08L306.18,129.2z"/>
		<path id="ES-GA" title="Galicia" class="land" d="M251.81,58.72l0.5,0.59l-0.63,-0.17L251.81,58.72zM251.57,57.16l0.57,0.82l-0.45,0.58l0.24,-0.47L251.57,57.16zM251.48,51.92l-0.66,1.48l-0.02,-0.97l0.36,-0.63L251.48,51.92zM248.94,48.64l0.39,0.51l-0.28,0.25L248.94,48.64zM252.73,45.37l0.13,0.35l0.37,-0.1l0.12,0.74l-0.43,0.08l0.11,0.67l-0.27,0.04l-0.21,-0.33l0.29,0.07l-0.24,-0.32l0.29,-0.62l-0.62,-0.39L252.73,45.37zM278.53,1.91l0.63,-1.08l0.34,0.23l0.63,-0.41l0.25,0.38l-0.33,1.08l0.57,0.94l-0.67,-0.44l-0.04,1.25l-0.37,0.12l0.52,0.46l-0.91,0.04l0.68,0.39l0.8,-0.52l-0.44,-0.92l0.89,-0.17l0.25,0.52l0.48,-0.17l-0.62,-0.56l0.5,-0.24l-0.05,-0.35l2.42,-0.92l0.99,-0.98L285,0l0.72,0.63l-1.04,1.44l0.54,0.22l0.23,-0.62l0.99,-0.24l0.23,1.16l0.59,0.16l-0.2,1.44l0.34,0.83l0.17,-0.99l0.51,-0.35l-0.22,-0.7l0.73,0.06l0.04,-0.76l0.9,-0.24l0.27,0.5l1.25,-0.03l-0.24,0.6l3.28,1.38l0.53,1.48l1.14,1.23l-0.36,0.33l0.48,-0.15l1.19,0.7l-0.29,0.56L296.4,8.6l0.52,0.22l-0.25,0.22l0.64,-0.7l2.01,0.59l1.38,-0.3l1.88,0.22l0.17,0.74l-0.44,0.64l-0.09,1.76l0,0l-0.93,0.65l-0.38,1.05l-1.89,-0.1L299,14.52l0,0l0.05,0.13l0,0l-0.12,0.68l0.49,0.3L300,15.3l0.25,0.45l-0.06,1.53l0.82,1.01l1.08,-0.06l-0.27,1.34l0.26,0.89l1.11,1.12l0.3,-0.33l0.25,0.57l0.82,0.16l0.15,0.58l-0.42,0.84l0.64,1.14l0.5,0.08l1.47,-0.92l-0.05,-0.35l0.79,-0.19l0.91,1.06l-0.19,0.77l-1.12,1.16h-0.62l-0.54,0.63l-0.67,-0.45l-0.74,0.94l0.03,0.98l-0.44,-0.24l-0.43,0.77l0.68,0.93l0.41,-0.02l0.05,-1.48l1.27,1.72l1.02,0.03l0.94,1.13l-0.14,1.16l0.46,0.46l0,0l-0.46,0.31l0.18,0.91l-1,0.29l0.79,1.86l-0.74,0.79l0.05,0.53l-1.86,1.72l-0.67,-0.49l-0.35,1.07l-1.04,0.07l-0.91,1.05l1.04,1.91l-1.15,0.56l-0.04,1.21l0.38,0.46l-0.84,1.13l0.17,0.88l-0.45,0.79l0.55,0.03l0,0l0.5,0.04l0,0l1.71,0.47l0.4,-0.88l0.83,-0.12l2.04,1.24l0.85,-0.24l0.42,0.96l-0.41,0.52l0.19,0.92l-0.66,0.76l0,0l-0.02,0.08l0,0l0.58,0.65l1.07,0.17l0.39,0.55l0.9,0.28l-0.15,2.28l-1.62,2.37l0,0l0.14,0.3l0,0l-0.06,0.56l-1.26,-0.71l-1.14,0.44l-0.41,0.9l-1.18,0.63l-0.23,1.58l-0.97,0.27l-0.43,1.37l-0.8,0.39l0.65,0.87l0.92,-0.09l0.37,1.01l-0.73,1.17l0.15,0.78l0,0l-0.7,0.84l-1.67,0.05l-0.52,-0.9l-0.84,-0.47l-1.62,0.22l-0.29,1.4l0.35,0.85l-0.57,1.39l-3.17,1.33l-1.13,0.08l-0.27,-0.38l-1.57,1.56l-0.7,-1.91l-1.18,-0.34l-0.94,1.11l-2.31,0.39l0.3,-1.38l0.46,-0.42l-2.03,-0.14l-1.15,-0.88l-1,0.54l-0.57,-0.22l-0.85,0.56l-1.23,0.14l-1.18,1.04l-0.34,-0.39l0.16,-2.2l-0.48,-0.18l-0.51,1.77l-1.54,0.19l-0.98,1.52l-1.13,0.52l-1.96,0.28l-1.01,-0.35l-0.16,-2.05l-0.85,0.11l-0.41,-1.37l1.47,-2.58l0.9,-0.87l1.12,-0.37l0.11,-1.18l-0.8,-1.17l-1.89,0.42l-0.41,-3.15l-0.7,0.76l-0.63,-0.22l-0.3,0.62l-1.65,0.69l-0.37,0.7l-0.87,-0.21l-0.5,0.5l-1.14,0.16l-0.52,-0.37l-2.1,0.09l-0.14,0.6l-0.54,0.3l-2.35,0.2l-0.67,0.72l-0.23,1.01l-2.19,1.37l-0.29,1.07l-1.76,0.84l-1.35,1.7l-0.28,-0.49l-0.22,-3.52l0.34,-1l-0.67,-4.05l0.58,0.02l0.78,-0.64l0.45,0.58l0.28,-0.14l0.14,-0.87l-0.84,-0.6l0.75,-0.01l0.2,-1.13l1.01,-0.65l0.43,-0.98l0.6,-0.03l-0.36,0.08l0.33,0.18l2.19,-2.14l1.34,-0.09l-0.41,-0.8l0.43,-1.25l-0.58,-0.36l-0.11,0.99l-0.65,0.42l0.04,0.87l-1.44,0.56l-0.15,-0.48l-0.37,0.07l-0.17,0.56l-0.75,0.49l-0.49,-0.19l-0.26,0.61l-0.57,-0.47l-0.47,0.29l-0.68,-0.36l-0.21,0.54l-0.26,-0.12l0.47,-2.16l0.68,1.13l0.39,-0.01l-0.08,-1.25l-0.5,-0.92h0.96l0.43,0.4l0.87,-0.44l0.8,-1.64l1.99,-1.55l-0.82,0.25l-0.24,-0.69l-2.26,1.91l-1.09,-0.48l-0.66,0.61l-1.15,-1.13l0.24,-0.75l-0.37,-0.8l-0.72,-0.19l-0.39,0.42l-0.47,-0.47l0.17,-0.6l1.31,-0.05l-0.06,-0.46l0.55,-0.28l0.43,1.06l-0.45,0.4l0.08,0.51l0.75,-0.54l0.66,0.49l-0.39,-1.21l0.63,-0.43l-0.34,-0.47l0.24,-0.83L254,47.34l-0.28,-1.15l0.55,-0.32l-0.41,-0.09l0.1,-0.5l0.94,-0.15l0.8,-0.8l-0.34,-0.49l0.63,-1.21l-0.39,-0.21l-0.94,0.61l-0.48,-0.34l0.25,-0.73l-0.76,-0.79l0.01,0.96l-0.31,-0.16l-0.28,0.7l0.63,0.52l-0.56,0.23l0.03,0.73l-0.83,-0.15l0.37,-0.81l-0.72,-0.23l-1.01,1.15l0.48,0.78l-0.86,0.07l-0.29,0.55l-0.7,0.15l-0.03,1.12l-1.47,0.66l0.26,-1.49l-0.6,-0.68l-0.49,0.36l-0.46,-0.37l1.35,-2.16l0.5,-2.78h0.38l0.65,-1.14l0.85,-0.19l0.89,-1.47l0.41,-0.17l0.66,0.72l-0.38,-0.71l0.1,-0.85l0.93,-0.51l-0.42,-0.03l-0.26,0.46l-0.48,-0.68l-0.1,1.2l-0.45,0.19l-0.18,-0.35l-0.81,1.02l-0.51,-0.53l-0.03,0.55l-0.92,-0.11l-0.1,-0.78l-0.61,0.57l-0.61,-0.04l0.41,0.71l-1.12,1.13l-0.29,-0.58l-0.49,0.03l-0.48,-1.4l-0.44,-0.24l1.17,-0.92l-0.1,-0.72l-0.57,-0.09l-0.54,-1.07l0.59,-1.29l-0.9,-0.16l-0.93,-1.69l0.3,1.53l-0.73,-0.05l-0.32,-0.9l-0.37,0.02l-0.02,0.53l-0.85,0.36l-0.1,1.35l-0.33,-0.36l0.12,-0.72l-0.63,-0.43l0.12,-0.67l0.8,-1.23L242,29.49l0.37,0.18l0.18,-0.32l-0.79,-0.22l-0.59,-1.7l0.63,0.4l0.48,-0.23l0.03,-1.51l0.97,0.16l0.05,-1.01l0.98,0.93l0.6,-1.21l1.04,-0.4l-1.1,0.23l-0.02,-0.92l-0.5,1.06l-0.56,-0.19l-0.28,-1.22l0.41,0.26l0.51,-0.43l0.16,-0.97l0.5,0.34l0.19,-0.49l0.41,0.19l0.14,-0.27l1.34,0.62l1.06,-0.44l0.8,-1.48l0.42,0.61l0.45,-0.46l0.96,0.06l-0.06,0.47l0.51,-0.25l0.31,-0.75h0.44l-0.45,-0.09l-0.72,0.88l0.18,-0.48l-0.4,-1.1l-0.66,0.04l-0.41,-0.51l0.93,-0.71l0.78,0.45l0.08,-0.44l0.48,0.03l-0.08,-1.07l0.98,0.35l0.1,-0.38l0.69,0.12l0.16,-0.96l1.48,1.53l2.14,0.49l2.7,-1.18l1.39,0.43l0.61,-0.18l0.65,-0.45l0.4,-1.17l0.5,0.23l0.57,-0.28l0.55,-0.86l0.76,0.5l0.2,-0.75l0.48,0.82l-0.54,0.19l0.52,0.33l0.07,0.85l-0.08,-0.4l0.95,-0.19l0.31,-1.17l-0.46,-0.1l0.14,-0.58l1.17,-0.35l0.33,0.78l0.85,0.09l0.44,0.66l-0.11,0.53l1.15,0.89l-0.09,-0.53l0.32,0.17l-0.53,-0.63l0.29,-0.38l-0.31,-1.1l0.41,-0.62l0.88,-0.06l0.03,-0.31l-0.65,-0.21L270.66,14l-0.38,-0.41l-0.79,0.4l-0.57,-0.66L267.91,13l0.36,-0.07l-0.22,-0.32l1.09,-0.33l0.13,0.31l0.33,-0.42l0.71,0.39l0.74,-0.14l0.55,-0.47l-0.09,-0.41l0.36,0.21l0.23,-0.7l-1.9,0.94l0.03,-0.36l-0.46,0.11l0.05,-0.58l-0.57,0.98l-0.79,0.25l-0.55,-0.37l-0.6,0.44l-0.23,-0.24l0.79,-1.22l-0.24,-0.83l0.87,-0.59l-0.79,-0.98l0.35,-0.31l0.49,0.5l0.93,-0.05l1.87,-1.65l0.12,-0.75l0.93,0.14l-0.03,0.73l0.39,-1.39l0.82,-0.21l0.49,-0.98l0.18,1.09l0.42,-0.23l0.5,0.4l-0.57,-0.6h0.51l-0.03,-0.42l-0.56,0.01l0.37,-1.68l0.8,-0.35l0.89,0.33l1.31,-0.89l0.04,-0.48L278.53,1.91z"/>
		<path id="ES-RI" title="La Rioja" class="land" d="M443.67,67.53l-2.91,1.74l-0.5,0.03l-0.74,-0.72l0,0l-0.16,-0.16l0,0l-2.67,-0.65l-0.23,-1.24l0.36,-0.31l-1.44,-2.23l0.87,-0.5l0.03,-0.69l-2.92,-0.16l-0.9,0.51l-0.38,-1.55l-1.05,-0.5l-3.27,0.3l-0.46,0.76l-0.76,0.31l-0.76,-0.26l-0.05,1.63l-0.89,0.64l-0.89,2.06l-1.18,-0.39l-1.33,0.35l-0.82,-0.66l-1.13,0.22l-0.3,-0.85l1.28,-1.87l0.07,-0.73l-0.77,-0.78l-0.44,0.26l-0.6,-0.23l-0.48,0.56l0,0l-0.07,0.25l0,0L417.77,65l-1.2,0.24l-0.83,0.78l-0.87,-0.84l0,0v-0.29l0,0l-0.59,-1.78l-2.62,0.08l-2.6,-4.05l0.68,-0.58l0.39,-1.19l-0.47,-2.47l0.31,-0.45l0,0l-0.16,-0.12l0,0l-0.22,-0.85l1.26,-0.33l-0.58,-0.91l-0.56,-0.01l0.11,-1.12l0.61,0.02l-0.11,0.72l0.69,0.95l-0.18,-1.99l0.45,-0.79l-1.33,-1.54l0.52,-0.56l0.11,-0.95l-0.44,-0.35l-0.95,0.19l-0.26,-0.33l0.8,-0.43l0.78,-1.19l0,0l0.41,-0.1l0,0l-0.63,-1.91l1.78,0.32l0.37,-0.46l0.61,0.35l1,-0.13l0.93,0.72l0.38,-0.3l0.37,0.25l0.68,-0.64l0,0l0.41,0.33l0.02,0.76l0.63,-0.12l-0.04,0.77l-0.56,0.35l0,0l0.08,0.4l0,0l0.52,0.53l0.11,-0.48l0.33,0.14l0.63,-0.56l0.41,-1.55l0.66,0.01l1.57,0.99l-0.27,2.01l0,0l-0.36,0.87l0,0l0.77,-0.33l-0.03,0.6l0.6,0.24l0.27,0.74l1.13,-0.73l0.28,1.13l0.68,-0.79l1.05,0.38l-0.18,-0.44l0.76,-0.88l-0.13,1.08l1.02,0.15l0.77,-0.38l0.74,0.26l0,0l0.6,0.61l1.28,0.31l0.19,0.49l0.37,-0.09l-0.1,-0.42l0,0l0.23,-0.11l0,0l0.8,0.41l0.02,-0.38l0.28,0.08l0,0l0.19,0.36l0,0l0.17,0.39l0.94,0.17l-0.06,0.38l0.75,0.25l-0.04,0.28l0.8,-0.08l0.42,0.39l0.46,-0.39l1.17,-0.06l-0.17,0.75l1.01,1.13l-0.24,0.8l0.53,0.12l1.38,-0.94l0.61,0.22l0.7,0.38l0.13,0.66l0.62,-0.01l0.29,0.48l0.35,-0.21l0.11,0.99l1.24,0.44l-0.06,1.33l0.49,0.09l0.09,-0.34l0.82,0.39l0.16,0.73l2.64,0.58l0.4,0.75l0.6,-0.01l-0.55,0.71l0.53,0.78l-0.57,0.4l-0.45,0.26l-1.11,-0.65l-0.68,0.46l-1.12,-0.53l-1.85,2.48l-0.37,0.97l0.19,1.03l1.23,0.98l0.24,-0.17l0,0L443.67,67.53zM412.61,44.25l0.05,-0.14l0,0l0.07,-0.11l0,0l-0.02,-0.13l0,0l-0.01,-0.04l0,0l0.27,-0.03l0,0l-0.02,0.2l0,0l-0.13,0.16l0,0l-0.19,0.1l0,0L412.61,44.25zM414.07,44.21l0.17,-0.16l0,0l0.33,0.41l-0.51,-0.2l0,0V44.21z"/>
		<path id="ES-MD" title="Madrid" class="land" d="M377.9,114.18l0.45,0.86l-1.69,0.1l0,0l0.05,-0.6l0.78,-0.51L377.9,114.18zM397.91,96.65l-0.04,0.58l0.81,0.48l0.57,1.49l1.73,0.42l-0.36,1.41l1.18,1.47l-0.54,0.49l-0.74,2.89l-0.47,0.01l0.52,0.92l-0.87,0.56l0.16,0.8l-1.16,1.95l1.27,0.15l0.48,0.65l0,0v0.11l0,0l-0.1,0.93l0.44,0.29l-0.88,1.42l0.64,0.41l0,0l0.03,0.11l0,0l0.5,-0.22l0.48,0.41l0.32,-0.78l0.57,0.49l0.19,1.14l0.66,0.33l0.64,-0.55l-0.16,0.36l0,0l-0.04,0.4l0,0l-0.37,0.2l0.44,0.47l-0.25,0.58l1.27,0.91l-0.34,1.22l0.68,0.04l0,0l0.16,-0.07l0,0l0.9,-0.09l0.86,0.9l0.07,2.57l1.17,0.1l0.67,1.22l-0.6,1.31l0.31,0.63l-1.08,1.37l-0.4,2.27l0.62,0.47l0.6,-1.05l1.04,-0.77l0.36,0.39l0.56,1.74l-0.2,1.35l0.47,1.12l-0.55,-0.21l-0.18,0.76l1.15,1.26l-0.88,1.2l-0.96,0.36l-1.08,-0.11l-0.17,-0.93l-0.51,0.32l0,0l-0.07,0l0,0l-0.38,0.79l-1.7,0.1l-0.25,0.33l-0.75,-0.19l-0.82,-1l-1.2,0.22l0.05,0.71l-0.59,0.7l-0.78,-0.39l-0.6,0.33l-0.05,-0.42l-0.58,0.3l-0.99,-0.27l-0.39,0.98l-1.86,0.27l-0.77,0.8l0,0l-0.41,0.1l0,0l0.31,0.74l-1.92,0.69l-0.34,-0.22l-0.95,0.51l-0.35,0.7l0,0l-0.18,0.11l0,0l-1.14,1.15l-1.66,-0.63l-0.21,-0.47l0,0l0.02,-0.14l0,0l-0.2,-0.28l0.54,-0.42l0.52,-0.1l0.2,0.41l0.66,-0.88l0.64,0.29l0.69,-0.67l-0.05,0.66l0.33,-0.26l-0.15,-0.5l0.63,0.28l0.11,-0.24l0,0l-0.22,-0.07l0,0l-0.14,-0.3l0.61,-0.29l0.36,-1.12l0.44,0.15l1.75,-1.44l0.39,-1.9l-1.49,-0.77l-0.13,-0.46l-0.58,0.37l-0.88,-0.53l-0.61,0.51l-0.76,-0.22l-0.98,-1.36l-0.77,0.57l-1.08,-1.05l-1.06,0l-0.44,-0.45l-0.51,0.51l-0.11,-0.84l-1.04,0.13l-0.93,-0.93l0.05,-0.48l-1.32,-0.59l-0.82,0.83l-1.16,-0.13l0.04,-0.65l-1.31,-1.1l-1.57,0.8l-0.62,1.4l-0.68,0.51l-0.26,-0.5l-0.37,0.29l-0.31,-0.46l-0.45,0.03l-0.18,-2.5l-0.6,-0.37l-0.14,1.05l-1.4,1.05l-0.07,0.76l-2.12,0.74l-0.43,0.6l-1.33,-0.6l0,0l0.52,-0.27l-0.24,-1.23l1.08,-1.23l-0.48,-1.74l0.54,-0.09l0.68,1.03l1.29,-0.15l-0.17,-0.76l0.6,-0.33l-0.1,-1.31l0.56,-0.73l2.72,-0.15l-0.51,-0.93l0.68,-1.03l-0.32,-2.47l0.16,-0.54l0.87,-0.5l0.3,-1.37l-0.33,-0.88l0,0l0.52,-0.01l0.22,0.79l0.45,0.13l0,0l0.45,-0.04l0,0l1.86,-0.7l-0.36,-1.55l0.38,-0.78l0,0l1.74,-2.14l0.73,-1.59l1.15,0.42l1.34,-0.21l1.12,-5l0.44,-0.09l0.79,-1.38l3.06,-1.23l1.1,-1.88l1.71,-1.05l1.23,-1.89l1.15,-0.82L397.91,96.65z"/>
		<path id="ES-MC" title="Murcia" class="land" d="M474.21,216.69l-0.2,1.18l0.57,2.05l-0.7,-1.93L474.21,216.69zM473.98,215.62l-0.06,0.6l0.52,0.46l-0.54,-0.41l-0.21,-0.6L473.98,215.62zM430.54,207.06l0.27,-1.41l1.71,-1.42l1.48,-3.29l2.68,-1.17l0.95,-1.34l0,0l0.36,-0.66l0,0l0.5,-0.37l1.77,0.85l1.99,-0.56l3.4,-2.02l-0.3,-0.46l0.67,0.14l0.03,-0.46l0.69,-0.06l0.72,0.6l0.45,-0.38l0.51,0.5l-0.26,0.53l0,0l0.01,0.14l0,0l0.62,1l2.16,0.02l3.02,-2.26l-0.05,-3.72l-0.47,-1.81l0.27,-0.94l0.95,-0.67l0.11,-2.33l1.71,-1.69l0.51,-0.18l0.65,0.92l2.54,-2.08l0,0l0.33,-0.16l0,0l1.37,-0.43l1.82,0.56l0.1,0.95l2.44,1.91l0,0l0.69,2.85l-0.65,1.75l0.32,0.92l-2.15,2.03l0.4,0.21l-0.19,2.93l2.9,0.33l0.6,1.52l-0.6,2.85l-1.34,2.2l0.17,1.55l3.19,6.07l1.97,2.09l1.3,0.66l0.57,-0.08l0,0l0.38,1.95l-0.98,-0.97l-0.53,1.41l-1.11,0.96l-0.44,0.98l1.66,2.2l1.7,0.91l0.59,-0.79l0.42,0.7l0.4,-0.04l-0.9,1.09l-1.66,0.4l-1.02,0.69l-0.68,-0.34l-0.87,0.23l-1.15,0.84l-1.17,-0.23l-0.12,-0.27l0.57,-0.08l-0.8,-0.19l-0.26,-0.42l0.26,-0.32l-0.52,-0.11l0.14,0.68l-0.55,-0.14l-0.41,0.44l-1.37,-0.38l-0.99,0.54l-0.46,0.57l0.44,0.61l-1.51,-0.24l-0.15,-0.63l-0.88,-0.65l-1.14,-0.09l-0.31,0.65l-1.91,-0.17l-2.02,1.9l-1.6,0.7l-0.74,2.19l-0.89,-0.29l-1.16,0.92l-0.92,0.15l-0.87,0.88l0,0l-2.96,-2.32l-2.05,-0.37l0.04,0.62l-0.98,-0.72l-4.08,-6.6l0,0l-0.18,-0.19l0,0l-0.3,-1.64l0.47,-0.92l-0.37,-1.65l0.37,-2.29l0.57,-0.79l-0.2,-0.26l0,0l-0.17,0.01l0,0l-0.49,-0.21l-0.44,0.39l-1.11,-0.51l-0.6,0.35l-1.07,-0.94l-1.31,0.41l-2.19,-1.7l-1.25,-2.23L430.54,207.06z"/>
		<path id="ES-NC" title="Navarra" class="land" d="M449.2,17.98L450.01,18.16L449.83,19.05L450.44,20.21L451.31,20.29L451.85,19.21L451.68,18.86L453.01,18.65L454.42,19.49L455.78,19.44L456.59,20.21L456.59,22.54L456.06,22.97L455.71,24.83L454.11,26.29L455.01,27.85L457.36,28.51L457.62,26.05L458.29,25.36L459.62,25.17L458.56,26.99L459.82,27.94L461.15,27.62L463.04,28.66L463.11,29.26L463.87,28.67L464.78,29.55L466.66,29.85L467.08,30.5L468.52,31.29L469.55,30.91L469.82,31.24L472.19,31.38L473.67,30.75L474.33,31.59L474.15,31.99L474.5,32.55L474.5,32.55L472.93,32.48L471.99,33.19L471.91,34.45L470.91,35.24L470.8,37L471.13,37.45L470.67,38.34L469.7,38.42L469.69,39.06L469.08,39.05L467.82,40.53L466.28,40.64L465.9,40.99L465.89,42.61L462.83,42.57L462.71,43.93L462.11,43.91L462.67,44.37L461.49,45.16L461.45,46.23L461.45,46.23L461.31,46.23L461.31,46.23L460.74,46.48L459.78,45.95L459.14,47.19L459.47,48.97L457.71,50.84L457.22,52.52L457.88,52.79L458.02,53.39L456.13,55.68L456.33,56.34L455.63,58.31L456.31,59.75L456.12,61.74L457,62.47L457.39,63.69L458.23,63.71L458.23,63.71L458.51,63.68L458.51,63.68L458.67,64.78L457.74,65.71L456.55,67.91L456.64,68.4L455.88,69.3L453.37,69.15L453.37,69.15L453.05,69.45L453.05,69.45L452.53,69.61L452.53,69.61L451.87,69.48L451.87,69.48L449.25,67.65L447.55,67.96L446.12,66.57L444.25,66.6L443.97,66.05L443.97,66.05L443.73,66.23L442.5,65.24L442.31,64.22L442.67,63.24L444.53,60.77L445.64,61.3L446.32,60.84L447.43,61.49L447.88,61.23L448.45,60.83L447.92,60.05L448.47,59.34L447.87,59.34L447.46,58.59L444.82,58.01L444.66,57.28L443.84,56.89L443.75,57.22L443.26,57.13L443.32,55.81L442.08,55.37L441.98,54.38L441.63,54.59L441.34,54.12L440.73,54.13L440.59,53.46L439.89,53.08L439.29,52.86L437.91,53.8L437.38,53.68L437.63,52.88L436.61,51.75L436.78,51L435.61,51.06L435.15,51.45L434.73,51.06L433.93,51.15L433.96,50.87L433.22,50.61L433.28,50.23L432.33,50.06L432.16,49.68L432.16,49.68L431.98,49.32L431.98,49.32L431.69,49.24L431.67,49.62L430.87,49.21L430.87,49.21L430.63,49.32L430.63,49.32L430.74,49.74L430.37,49.83L430.18,49.35L428.9,49.04L428.3,48.43L428.3,48.43L428.28,47.66L429.11,47.4L429,44.43L428.29,44.14L427.49,45.54L427.2,44.82L426.45,44.85L426.21,43.77L426.67,43.89L427.51,42.65L428.49,42.07L429.36,42.29L429.66,42.78L429.41,43.11L431.83,42.46L431.92,41.87L431.8,41.51L431.33,41.71L430.98,39.82L431.17,39.24L432.66,38.89L432.17,37.47L433.46,35.47L433.2,33.79L433.2,33.79L432.98,33.47L432.98,33.47L433.3,33.48L433.34,32.41L434.08,31.46L434.88,31.99L436.33,31.81L436.96,31.51L437.31,30.56L438.72,30.31L439.02,29.66L438.65,28.43L439.2,27.82L439.2,27.82L439.27,27.48L439.27,27.48L439.42,26.87L441.19,25.96L442.41,24.55L441.93,23.9L442.1,21.24L442.97,21.86L443.13,20.99L443.53,21.72L443.85,21.29L443.85,21.29L444.08,21.24L444.08,21.24L445.36,20.46L445.41,19.32L445.41,19.32L445.71,18.98L445.71,18.98L445.77,18.91L445.77,18.91L446.18,18.95L446.18,18.95L447.08,18.45L447.08,18.45L448.1,17.95z"/>
		<path id="ES-IB" title="Balearic Islands" class="land" d="M533.41,182.06l0.48,0.79l0.43,-0.1l0.16,0.89l1.03,0.86l0.37,0.17l1.06,-0.66l0.44,0.8l-0.32,0.6l-1.33,-0.05l-1.01,-0.86l-1.07,-0.25l-1.72,1.53l-0.13,-2.72l0.44,-0.55l0.25,0.24l0.58,-0.31l0.18,-1.22L533.41,182.06zM532.95,180.34l0.28,0.77l-0.42,-0.35L532.95,180.34zM536.03,169.18l0.6,0.83l1.27,0.1l-0.17,0.27l0.32,0.13l-0.5,0.14l-0.09,0.44l0.9,1.23l-0.99,0.43l-0.11,0.9l-1.27,0.21l-0.09,0.96l-0.3,0.1l0.24,0.27l-0.5,-0.06l-0.91,1.18l-0.54,-0.16l-0.01,0.49l-0.46,-0.45l-0.04,0.46l-0.48,-0.02l-0.45,0.94l0.08,1.56l-0.59,-0.37l-0.37,0.41l-0.73,-1.38l-0.66,0.5l-0.05,-0.36l-0.54,0.16l0,-0.47l-0.72,-0.13l-0.65,0.81l-0.65,-0.54l-0.3,-1.09l0.62,-1.29l-0.57,-0.67l0.38,-0.56l0.43,0.29l1.67,-0.22l-0.6,-0.7l0.38,-0.58l-0.13,-0.78l1.31,-0.76l0.47,-0.72l0.46,0.4l0.35,-0.6l0.78,0.06l0.2,-0.5l0.43,0.39l1.27,-1.02l0.29,0.41l0.27,-0.53L536.03,169.18zM574.62,167.55l0.61,0.21l-0.53,0.38l0.03,0.72l-1,-0.02l-0.12,-1.2l0.4,0.64l-0.06,-0.41l0.56,0.21L574.62,167.55zM557.67,152.72l-0.75,0.53l0.94,-0.93L557.67,152.72zM581.65,139.61l-0.27,0.55l-1.29,0.73l-0.64,-0.13l-0.56,0.99l-0.51,-0.43l-0.33,0.37l0.09,0.83l0.58,0.66l2.68,-1.11l-0.4,0.31l0.21,0.72l-0.5,0.72l-1.5,0.21l-0.02,1.07l0.52,0.93l0.76,0.7l2.3,0.98l2.05,-1.08l0.52,-1.04l2.34,1.57l0.72,-0.06l-0.17,0.87l0.71,0.26l-0.63,0.35l-0.02,1.72l-0.39,-0.02l-0.13,0.77l-0.79,-0.08l-0.38,0.53l-0.22,1.12l0.49,0.37l-0.69,0.14l-0.29,0.85l-0.98,0.45l0.22,0.14l-1.44,1.7l-0.35,2.52l-0.34,-0.35l0.17,0.33l-0.84,1.63l-0.31,0l0.2,0.2l-1.24,0.41l-0.45,0.87l-0.67,-0.12l-2.03,2.14l-0.61,0.12l-1,-1.55l-0.75,-0.21l0.09,-0.78l-0.84,-0.85l-0.78,-0.06l-0.44,0.44l-0.81,-0.48l-1.3,-0.07l-0.18,0.39l-0.6,-0.38l-0.53,0.15l-1.26,-1.55l0.14,-1.23l-0.68,-1.21l0.72,-1.22l-2.14,-1.79l-0.97,0.05l0.25,-0.22l-0.29,-0.04l-0.25,0.65l0.45,-0.15l-0.21,0.3l-0.71,-0.23l-0.43,0.73l-1.39,0.25l0.21,0.44l-0.37,0.22l-0.29,1.67l-0.88,-0.52l-0.39,0.23l0.08,-0.88l-0.62,-0.5l0.64,-0.42l-0.75,-0.67l-0.89,0.49l0.09,-0.5l-0.46,0l-0.49,0.59l0.01,-0.47l-0.69,0.06l0.73,-0.51l-0.48,0.08l-0.7,-0.72l0.27,-1.42l2.88,-1.68l1.82,-1.75l0.74,0.04l0.84,-0.58l0.91,-1.4l1.18,-0.58l0.16,-0.69l0.34,-0.23l0.32,0.3l0.17,-0.7l2.06,-1.02l0.08,-0.55l1.83,-0.19l0.24,-0.48l2.22,-1.02l0.4,-0.59l0.89,0.41l1.63,-1.02l-0.11,0.27l0.62,-0.1l-0.03,0.46l0.89,-0.55l0.72,0.13l1.24,-0.98l0.41,-0.04l-0.18,0.34L581.65,139.61zM607.66,143.5l-3.59,-2.36l-2.06,-0.79l-1.63,0.56l-2.06,0.02l0.27,-2.8l-0.96,0.11l-0.19,-0.77l0.85,-1.1l1.21,-0.23l0.85,-0.06l0.63,0.49l0.33,-0.6l1.22,0.42l1.44,-0.51l0.58,0.48l0.96,-0.59l-0.2,-0.72l0.47,0.11l-0.17,0.93l0.3,0.53l0.81,-0.66l-0.17,1.31l0.37,-0.3l-0.1,-1.13l0.97,0.22l-0.32,0.92l0.57,0.44l0.36,-0.36l0.28,1.38l0.05,-0.7l0.34,0.57l1.36,0l-0.39,0.14l0.31,0.38l-0.32,0.63l0.4,0.17l-0.12,0.46l0.41,-0.17l0.14,1.37l0.61,0.49l0.06,0.64l0.46,0.14l-0.46,0.22l-0.39,-0.73l-1.05,-0.18l1.06,0.52l0.3,0.57l-0.1,1.17l-0.85,0.82l-1.75,-0.56L607.66,143.5z"/>
		<path id="ES-PV" title="Basque Country" class="land" d="M418.47,12.92l0.9,-0.37l0.32,1l1.29,0.87l1.23,-0.37l0.78,0.91l0.45,-0.11l0.47,0.47L424.5,15l0.35,0.63l1.08,-0.12l1.31,1.52l2.88,1.38l1.96,0.13l1.49,-0.6l0.6,0.26l0.09,-0.29l0.35,0.71l0.9,0.28l3.44,-1.29l1.07,0.2l-0.05,-0.37l0.86,-0.47l1.24,0.06l1.84,-1.6l1.58,-0.6l0.23,1.23l-0.69,0.42l1.33,0.28l0.57,0.5l0.16,1.16l0,0l-0.9,0.5l0,0l-0.41,-0.04l0,0l-0.06,0.06l0,0l-0.3,0.34l0,0l-0.05,1.15l-1.28,0.78l0,0l-0.23,0.05l0,0l-0.32,0.42l-0.4,-0.72l-0.16,0.86l-0.87,-0.61l-0.17,2.66l0.48,0.65l-1.22,1.4l-1.77,0.91l-0.14,0.61l0,0l-0.07,0.34l0,0l-0.55,0.6l0.37,1.23l-0.29,0.65l-1.42,0.25l-0.35,0.94l-0.63,0.3l-1.45,0.18l-0.8,-0.53l-0.75,0.95l-0.04,1.07l-0.33,-0.01l0,0l0.22,0.32l0,0l0.26,1.68l-1.29,2l0.49,1.42l-1.49,0.35l-0.19,0.58l0.34,1.9l0.47,-0.21l0.13,0.36l-0.09,0.59l-2.42,0.65l0.26,-0.33l-0.31,-0.49l-0.86,-0.22l-0.98,0.58l-0.84,1.25l-0.46,-0.13l0.24,1.09l0.75,-0.03l0.29,0.72l0.8,-1.4l0.71,0.28l0.11,2.98l-0.83,0.26l0.02,0.76l0,0l-0.74,-0.26l-0.77,0.38l-1.02,-0.15l0.13,-1.08l-0.76,0.88l0.18,0.44l-1.05,-0.38l-0.68,0.79l-0.28,-1.13l-1.13,0.73l-0.27,-0.74l-0.6,-0.24l0.03,-0.6l-0.77,0.33l0,0l0.36,-0.87l0,0l0.27,-2.01l-1.57,-0.99l-0.66,-0.01l-0.41,1.55l-0.63,0.56l-0.33,-0.14l-0.11,0.48l-0.52,-0.53l0,0l-0.08,-0.4l0,0l0.56,-0.35l0.04,-0.77l-0.63,0.12l-0.02,-0.76l-0.41,-0.33l0,0l-0.84,-0.38l-0.29,-0.7l0,0l0.07,-0.07l0,0l-0.14,-0.87l-0.76,-0.52l-1.36,0.14l-0.99,-1.23l0,0l0,-0.13l0,0l-0.69,0.05l-0.18,-0.96l-2.67,0.29l0.63,-1.17l-0.92,-0.57l1.36,-2.5l-0.28,-0.77l-1.05,1.3l-0.93,-0.46l-0.82,1.12l0.42,0.41l-0.26,0.05l-1.92,-2.05l1.65,-2.51l2.15,0.57l-0.06,0.6l1.54,0.69l1.97,-0.33l1.07,-1.11l-1.68,-1.18l0.13,-0.4l-0.67,-0.8l-2.27,-0.15l-0.85,-0.55l0.95,-0.29l0.02,-1.4l-0.45,-0.26l0.62,-0.86l-0.2,-0.46l-0.29,0.2l-0.78,-0.53l1.06,-1.82l-0.65,-0.42l-1.48,0.22l-0.85,-0.98l-4.46,2.39l0,0l-0.46,-2.8l0,0l-0.18,-0.28l0,0l-0.22,-0.71l1.39,-0.38l0.42,-0.89l1.19,-0.29l0.2,-0.84l0.25,0.3l0.75,-0.29l0.43,0.39l1.46,-0.7l0.42,0.93l0.5,-0.55l0.91,-0.12l0.11,-1.94l0,0l0.7,-0.06l0.32,0.43l0.19,-0.74l0.32,0l1.38,0.91l0.39,-0.28l-0.3,0.27l0.64,0.5l0.17,-0.85l-0.62,-0.95l0.88,-0.33l0.93,-1.12l0.64,0.01l-0.01,-0.87l3.74,0.21L418.47,12.92zM404.86,22.15l-0.6,-2.02l1.09,-0.51l0.47,0.26l-0.54,1.05l0.03,1.05l0,0L404.86,22.15zM417.04,37.18l0.07,0.02l0,0l0.1,0.17l0,0l0.16,0.14l0,0l2.5,-0.29l2.39,1.05l1.1,-0.19l0.38,0.73l0.83,-0.45l-0.42,1.43l-0.4,0.47l-0.3,-0.14l-0.24,0.69l0.87,1.04l1.48,-0.57l0.15,1.39l-0.84,0.27l-0.17,-0.39l-2.21,0.07l-0.63,-0.91l-1.23,-0.06l-0.38,0.44l-1.34,-0.15l-0.48,-1.18l-1.07,-0.38l-1.22,-1.14l0.82,-1.54l0,0L417.04,37.18z"/>
		<path id="ES-VC" title="Valencia" class="land" d="M454.74,133.14l1.28,0.18l0,0l0.31,0.18l0,0l0.48,-0.2l0.62,0.3l0,0l0.49,-0.43l0,0l0.45,-0.2l-0.01,-1.78l0.54,-0.46l0.03,0.32l0,0l0.17,0.43l0,0l0.43,1.05l0.81,0.5l0.01,1.02l2.64,0.13l1.92,1.54l0.17,0.69l-0.33,0.47l-2.22,0.91l0,0l-2.25,0.57l-0.72,-0.23l0,0l-0.05,-0.1l0,0l-2.66,-0.34l-1.22,-2.72l0.28,-0.27l-1.19,-0.86L454.74,133.14zM463.16,139.24l0.48,0.33l0.21,-0.37l0.65,0.15l0.55,-0.39l2.27,-0.07l1.51,0.85l0.32,-0.28l0.44,0.89l-0.24,0.76l0.34,0.98l-0.3,0.63l1.15,0.87l2.03,-1.2l-1.13,-1.51l0.06,-1.88l1.46,-0.59l0.73,-1.85l1.96,0.07l1.37,-1.06l0.44,0.13l-0.36,-1.16l0.5,-0.82l0.83,-0.39l0.96,-4.06l1.38,0.84l1.81,-0.55l1.18,-0.71l-0.47,-1.08l0.3,-0.41l0.63,0.03l0.74,-1.24l1.58,-0.91l-0.15,-0.79l-1.63,-1.96l0.35,-0.54l1.68,-0.67l-0.12,-0.81l-0.65,-0.56l0.19,-3.41l-0.83,0.25l-1.24,-0.38l-0.26,-1.87l1.33,-0.5l0.61,0.69l1.93,-1.09l0.16,-1.77l0.93,-1.54l1.41,-0.05l0.03,0.62l0.97,0.86l1.23,0.58l1.09,-0.09l0,0l0.54,-0.03l0,0l0.54,0.18l0,0l0.01,0.11l0,0l0.32,1l0,0l0.32,0.12l0,0l1.84,-1.27l1.06,0.28l0.62,-0.52l0,0l0.75,0.35l0.77,-0.3l0.31,1.13l0,0h0.15l0,0l0.63,-0.08l0,0l0.27,0.27l0,0l0.08,0.09l0,0l0.2,0.08l0,0l-0.55,1.63l0.41,0.56l1.59,0.74l1.7,0.21l1.12,0.87l-0.13,1.09l2.06,0.88l0,0l-1.01,2.29l-0.05,-0.27l-1.54,2.36l-0.25,1.52l-2.25,2.9l-1.06,0.81l-0.57,1.58l-1.97,1.26l-1.32,3.3l-2.65,1.74l-1.49,4.14l-1.61,1.95l-0.49,0.04l-2.66,4.4l-0.82,2.81l-1.4,1.57l-1.56,3.42l0.05,2.14l-0.38,-0.29l0.34,0.58l-0.45,0.21l0.84,3.67l2.43,5.08l-0.62,0.43l0.06,1.09l2.1,5.19l3.77,4.14l3.96,0.88l-0.43,0.14l0.19,0.3l0.14,-0.29v0.39l2.08,1.05l-0.4,0.39l0.22,0.68l0.52,0.48l0.38,-0.15l0.27,0.97l-1.4,0.55l-0.89,1.38l-0.56,-0.21l-0.85,0.48l-0.67,0.94l0.25,0.5l-0.93,-0.36l-0.53,0.56l-0.88,-0.17l-0.72,0.43l-0.94,1.38l0.35,0.56l-1.27,1.33l-1.47,-0.39l-0.59,0.68l-3.1,0.98l-2.41,1.58l-0.78,1.34l0.01,1.79l-1.16,-0.34l-1.19,1.24l0.26,-0.58l-0.61,0.29l-0.42,1.8l0.29,2.69l-0.4,0.48l-1.91,0.04l-0.59,0.6l-0.75,2.46l-0.12,3.4l-0.55,0.89l-0.89,0.3l-0.59,1.91l-0.84,0.47l-0.31,1.72l0,0l-0.57,0.08l-1.3,-0.66l-1.97,-2.09l-3.19,-6.07l-0.17,-1.55l1.34,-2.2l0.6,-2.85l-0.6,-1.52l-2.9,-0.33l0.19,-2.93l-0.4,-0.21l2.15,-2.03l-0.32,-0.92l0.65,-1.75l-0.69,-2.85l0,0l1.74,-0.03l1.29,-1.37l-1.25,-2.65l0.9,-0.42l0.14,-1.36l-0.35,-1.11l0.32,-1.3l-0.66,-0.59l-0.3,-1.19l-1.12,-0.2l-0.88,0.54l-3.01,0.19l-2.23,-3.34l-1.01,-0.75l0.21,-2.11l2,-3.62l0.52,-3.35l-1.24,-0.68l-0.32,0.33l-0.91,-0.35l0,0l-0.16,-0.08l0,0l-0.57,-0.07l0,0h-0.16l0,0l-0.94,-0.35l0,0l-0.18,-0.05l0,0l-0.23,0.29l-0.84,-0.77l-0.47,0.04l0,-0.44l-0.67,-0.05l0.29,-0.31l-0.69,-0.16l-0.05,0.65l-0.06,-0.33l0,0l-0.06,-0.16l0,0l-0.67,0.49l0,0l0.12,-0.06l0,0l0.05,-0.48l-0.5,-0.18l0.39,-0.01l-0.19,-0.61l0,0l-0.07,0.06l0,0l-0.38,0.21l0.26,-0.32l-0.61,0l0.18,-0.65h-0.6l0,0l0.2,-0.24l0,0l-0.63,-0.09l-0.23,-0.81l0.41,-0.15l0.27,-0.7l-0.24,-0.63l0.35,-0.16l-0.1,-1.64l-0.48,-0.09l1.57,-0.95l1.59,-3.14l0.93,-0.79l0.78,0.29l0,0l0.73,0.35l0,0l0.96,-0.29l0.44,-0.68l-0.35,-1.4l1.6,-2.42l0.46,-3.35l0,0l0.09,-0.43l0,0l-0.39,-0.7l0.18,-0.58L463.16,139.24z"/>
	</g>
</svg>