<?xml version="1.0" encoding="utf-8"?>
<!-- (c) ammap.com | SVG map of Switzerland - Low -->
<svg xmlns="http://www.w3.org/2000/svg" xmlns:amcharts="http://amcharts.com/ammap" xmlns:xlink="http://www.w3.org/1999/xlink" version="1.1">
	<defs>
		<style type="text/css">
			.land
			{
				fill: #CCCCCC;
				fill-opacity: 1;
				stroke:white;
				stroke-opacity: 1;
				stroke-width:0.5;
			}
		</style>

		<amcharts:ammap projection="mercator" leftLongitude="5.956647" topLatitude="47.807842" rightLongitude="10.492616" bottomLatitude="45.817599"></amcharts:ammap>

		<!-- All areas are listed in the line below. You can use this list in your script. -->
		<!--{id:"CH-AG"},{id:"CH-AI"},{id:"CH-AR"},{id:"CH-BE"},{id:"CH-BL"},{id:"CH-BS"},{id:"CH-FR"},{id:"CH-GE"},{id:"CH-GL"},{id:"CH-GR"},{id:"CH-JU"},{id:"CH-LU"},{id:"CH-NE"},{id:"CH-NW"},{id:"CH-OW"},{id:"CH-SG"},{id:"CH-SH"},{id:"CH-SO"},{id:"CH-SZ"},{id:"CH-TG"},{id:"CH-TI"},{id:"CH-UR"},{id:"CH-VD"},{id:"CH-VS"},{id:"CH-ZG"},{id:"CH-ZH"}-->

	</defs>
	<g>
		<path id="CH-AG" title="Aargau" class="land" d="M337.26,138.22l3.25,-2.57l1.79,2.51l-0.09,2.61l0,0l-2.66,-2.35L337.26,138.22zM306.15,40.64l4.2,-2.07l1.12,1.24l2.54,-0.34l1.78,1l0.11,3.35l3.95,3.43l7.6,1.16l2.11,-2.23l2.83,1.59l0,0l-0.45,4.42l-3.05,4.06l-1.47,-0.16l-0.53,2.67l-2.2,0.56l-0.53,1.63l0.8,4.16l1.38,0.08l0.17,1.83l-1.21,0.96l2.94,3.12l-0.95,1.03l0.49,2.01l-1.43,0.54l1.71,0.93l0.3,1.91l-1.92,3.78l2.5,1.97l0.32,2.54l1.52,1.45l-0.47,4.73l1.66,1.89l-0.38,2.16l2.95,0.14l2.64,-1.61l-3.54,6.53l-4.22,2.54l-1.2,-0.36l2.7,7.99l0,0l-1.93,4.73l1.44,5.96l-0.5,3.6l1.81,2.59l-0.43,4.73l0,0l-2.5,0.42l-4.28,-1.5l-5.75,-13.87l-0.94,-5.76l-2.13,-2.73l0.43,-2.48l-5.36,-3.01l-1.2,0.1l-1.13,2.76l-1.93,-0.18l-1.09,4.18l-2.05,1.94l-0.04,3.33l-2.52,0.69l-1.16,0.14l-2.9,-3.25l2.67,-0.51l-0.34,-2.44l-6.33,2.16l-2.31,-0.59l-1.29,-3.03l-1.34,-0.59l-2.24,1.6l-2.12,-0.14l0.59,1.88l-4.41,1.07l-1.74,-0.71l0.09,-2.99l-2.89,-4.38l-1.31,1.13l-4.75,0.22l1.48,4.2l-3.76,3.49l-3.1,-1.68l-7.47,2.2l-3.12,-1.21l0,0l-0.62,-5.41l0,0l1.93,-1.49l2.78,-6.54l3.63,-0.87l2.47,-6.27l1.71,1.77l3.76,0.32l0.27,3.04l7.52,-3.95l0.74,-4.01l2.16,-2.34l-0.07,-5.38l-1.71,-0.1l-0.65,-2.66l-6.26,-2.68l0,0l0,0l0,0l2.7,-1.17l0.46,1.11l0.24,-1.37l-1.66,-5.73l-1,-0.82l-1.58,1.41l0,0l-0.76,-1.39l-1.34,-0.02l0.66,-4.46l-5.36,0.06l-1.63,-4.18l-2.41,-1.35l0.03,-2.01l-1.58,0.72l-1.31,-2.97l-2.9,0.12l-0.42,3.78l-3.06,3.46l-2.35,0.78l0.11,-5.08l-6.65,-1.79l-0.24,-1.1l-3.39,-1.16l0,0l10.89,-3.47l3.51,-6.06l2.63,1.16l6.76,-1.04l2.37,3.17l0.42,4.21l4.2,1.3l2.08,-2.79l8.34,1.44l6.34,-2.77l3.04,1.32l2.44,-4.68l3.66,-0.54l1.67,-2.35l2.29,0.26l4.92,-5.13l2.27,0.48L306.15,40.64z"/>
		<path id="CH-AI" title="Appenzell Inner-Rhoden" class="land" d="M456.81,110.7l-3.68,-7.95l0.66,-3.39l-1.16,-2.46l4.83,-4.68l-0.2,-1.41l2.82,-1.17l-1.97,-4.98l3.86,-0.71l0.03,1.17l2.13,0.08l2.29,2.24l2.44,-0.46l1.05,2.88l3.74,2.01l5.01,-0.18l0,0l-2.02,11.78l-3.56,4.8l-3.21,2.66l-7.46,3.37L456.81,110.7zM479.49,82.17l0.23,-1.55l2.9,-1.63l-1.2,-0.68l0.24,-1.51l2.1,-2.01l2.17,1.13l1.16,-2.49l1.78,0.95l5.34,-0.76l0,0l-3.95,2.33l2.17,2.33l-3.39,0.64l-4.64,3.74l-0.35,-1.53L479.49,82.17z"/>
		<path id="CH-AR" title="Appenzell Ausser-Rhoden" class="land" d="M456.81,110.7L454.23,111.93L452.4,109.39L450.93,109.73L447.79,107.31L445.53,108.5L442.83,108.28L438.5,105.9L441,102.79L439.08,97.06L442.28,94.77L440.79,92.67L438.59,93.35L437.72,91.78L438.74,90.09L437.2,90.63L436.58,88.8L439.48,88.3L441.87,81.85L446.62,81.01L451.48,82.24L460.86,79.7L463.85,80.99L466.25,80.62L469.21,78.49L469.69,74.33L472.04,74.93L482.56,70.42L481.92,68.84L482.91,67.55L491.22,69.54L495.78,72.31L494.22,73.64L494.22,73.64L488.88,74.39L487.1,73.44L485.94,75.92L483.76,74.79L481.66,76.8L481.42,78.31L482.62,78.99L479.72,80.62L479.49,82.17L479.49,82.17L478.15,87.23L478.65,91.68L478.65,91.68L473.64,91.86L469.91,89.85L468.86,86.97L466.41,87.43L464.12,85.19L461.99,85.11L461.96,83.93L458.1,84.65L460.07,89.63L457.25,90.8L457.46,92.21L452.63,96.9L453.79,99.36L453.12,102.75z"/>
		<path id="CH-BE" title="Bern" class="land" d="M153.24,179.66l1.69,0.63l-1.77,1.61l-1.01,-0.79l0,0L153.24,179.66zM159.1,176.47l0.5,2.4l-2.52,1.4l-0.62,-3.09l1.9,-0.45l0,0L159.1,176.47zM216.17,96.72l-3.44,5.65l-6.37,2l-2.47,3.79l-6.76,2.32l-0.16,2.6l-7.29,4.28l-2.93,0.34l1.89,5.13l1.46,-0.81l1.77,1.7l1.79,4.02l-1.17,0.24l0.15,1.05l3.86,-0.43l2.63,-2.73v-1.52l2.05,0.61l0.22,-1.74l3.62,-0.24l0.39,3.19l2.48,0.85l-2.9,3.36l-3.37,-0.49l-1.46,2.39l-1.86,0.61l-0.53,1.03l2.32,2.39l-4.69,1.05l-2.46,-1.5l-2.09,0.83l2.63,5.83l5.82,-1.7l1.13,5.16l4.52,-2.13l-1.82,-4.54l6.64,-3.6l2.5,-4.35l-0.82,-2.53l3.1,0.08l2.23,-1.5l2.29,1.5l0.84,2.49l4.1,-1.72l3.97,1.44l1.86,-3.86l1.86,-0.02l-0.26,-5.22l-3.12,-1.33l-1.08,-5.44l-2.86,0.08l-3.13,-3.37l-0.27,-4l-1.83,-1.94l9.82,-1.45l4.28,-2.18l6.5,6.88l3.23,0.1l2.42,-1.76l1.51,2.34l2.25,-2.44l1.66,1.41l1.67,-0.99l0,0l0.62,5.41l0,0l5.25,10.83l0.9,6.17l1.69,2.49l-0.44,2.33l-2.52,1.94l1.84,5.99l-1.66,8.23l3.27,3.65l1.09,4.28l3.1,-0.81l1.12,1.28l3.04,0.06l-0.38,4.48l-0.85,2.56l-1.87,1.44l-0.31,2.52l-2.12,2.96l-3.12,0.06l-3.2,3.31l2.06,2.38l-3.49,4.37l0.15,2.05l1.61,1.48l0.07,3.78l10.31,7.8l3.75,5.28l1.51,0.65l4.94,-2.77l3.67,0.29l0,0l5.46,0.14l1.77,2.67l2.65,0.63l3.22,2.98l5.88,-2.94l5.75,1.69l0.99,-1.79l2.69,1.2l1.27,2.04l1.89,0.2l7.22,-5.42l4.37,-1.39l0,0l3.56,3.08l0,0l0.2,1.3l2.43,-1.83l3.2,0.45l1.27,0.29l0.07,1.32l0,0l-1.27,2.12l0.3,3.14l1.23,1.33l-0.31,3.2l0.96,0.77l-0.35,4.18l-3.29,0.47l-3.86,-1.24l0,0v0.94l0,0l-0.23,2.49l1.74,4.33l0,0l-1.56,-0.27l-0.62,1.82l-3.02,2.29l-1.44,6.87l0.78,2.68l-2.23,3.13l-4.68,2l-1.59,2.46l-6.22,3.21l-10.43,1.86l-0.81,-2.17l-6.37,-1.09l-1.69,-1.88l-13.83,-3.21l-6.71,4.52l1.32,2.99l-0.46,1.76l-3.7,1.56l-2.44,3.03l-6.37,2.89l-4.25,-0.35l-17.44,12.38l-12.09,-5.91l-2.36,1.89l-1.93,4.78l-2.52,-1.05l-5.8,1.48l-0.67,1.79l3.64,2.2l-2.21,2.2l-6.91,1.44l-1.13,-2.83l-2.36,1.66l-3.16,-1.89l-5.29,1.97l-6.11,5.05l-5.22,1.23l-0.93,-1.36l0.27,-4.64l-1.75,1.87l-4.75,1.35l0.05,3.9l-1.42,1.66l-4.15,0.12l0,0l-0.35,-5.42l1.39,-0.8l-1.85,-0.23l-0.94,-3.18l-2.02,-0.02l2.17,-7.29l-2.31,-3.57l0.31,-1.25l3.62,-0.18l1.43,-2.4l-1.09,-6.42l1.62,-0.29l-0.47,-1.31l1.52,-1.02l0.72,-3.42l-1.63,-7.15l0,0l2.58,-1.21l3.44,-4.83l2.77,0.94l2.54,-2.37l-1.16,-6.17l0.15,-2.41l2.17,-1.12l-1.09,-2.57l3.31,-0.12l1.52,3.19l2.63,-3.27l-0.96,-0.08l1.44,-6.62l-2.4,-1.73l-2.23,0.06l0.5,-2.67l-5.61,-0.94l-1.5,-2.04l0.96,-6.1l-1.74,-2.77l1.88,-2.02l-0.44,-1.94l2.51,-4.48l0,0l0.11,-0.94l0,0l1.44,-2.28l-3.94,-3.87l1.85,-2.04l1.93,0.79l-0.65,1.32l3.43,-0.53l1.15,-1.63l-1.08,-5l-3.48,-1.08l-6.25,0.79l-2.55,-1.57l-3.24,0.02l-0.8,-1.22l-1.65,1.16l-1.19,-0.94l-2.82,0.47l2.62,-1.75l-0.36,-2.48l1.02,-1.34l-1.29,-1.85l1.07,-3.72l-2.1,-1.44l2.54,-0.59l2.9,-3.49l-2.62,-4.38l-8.16,4.1l-8.36,1.93l-5.96,-0.29l0,0l0,0l0,0l-1.21,-0.35l0,0l-2.14,-5.28l1.13,-4.93l7.18,-5.49l-1.32,-3.36l1.34,-1.92l-1.4,-2.07l-4.86,-2.53l-1.56,1.07l-0.7,-1.66l2.21,-2.51l-1.35,-0.53l-12.53,3.62l-0.97,-0.79l-8.51,5.45l2.96,-9.13l-3.6,-6.8l0,0l1.36,-1.7l1.59,4.81l6.23,-3.76l1.54,-2.95l1.51,-0.61l0.46,1.27l1.86,-0.1l1.36,1.43l2.21,-3.78l3.72,-0.44l3.16,-6.14l1.54,-0.81l0.15,-2.3l2.62,-0.97l1.42,2.16l1.79,-1.23l7.02,-0.97l-1.63,-2.34l0.9,-2l2.52,-1.01l-0.63,-3.81l5.63,-0.3l0.63,1.29l9.85,0.83l4.39,-0.59l2.94,-3.57l5.8,-1.94l15.39,2.58L216.17,96.72zM170.32,173.76L170.32,173.76l0.05,1.79l2.09,-1.02l0.12,-1.75l-1.24,0.43L170.32,173.76zM234.13,127.69L234.13,127.69l-1.62,0.59l-0.53,1.92l1.97,0.04l0.67,-1.78L234.13,127.69zM216.17,96.72l-4.05,-0.02l3.27,-4.58l0,0l2.65,3.14L216.17,96.72zM185.14,73.18l7.11,1.89l0,0l-0.74,3.32l0,0l-2.45,-0.14l-2.25,-2.82l-2,-0.58L185.14,73.18z"/>
		<path id="CH-BL" title="Basel-Landschaft" class="land" d="M268.7,72.7L269.92,70.14L269.17,68.75L267.83,68.72L268.49,64.27L263.14,64.33L261.51,60.15L259.09,58.79L259.12,56.78L257.54,57.5L256.23,54.53L253.33,54.65L252.91,58.43L249.85,61.9L247.5,62.68L247.61,57.6L240.96,55.81L240.72,54.71L237.33,53.55L234.71,55.05L231.97,54.89L226.45,49.23L224.26,49.71L224.54,53.48L220.91,57.56L219.7,53L217.77,52.68L215.92,48.53L208.16,53.67L208.51,55.85L210.82,54.57L212.37,55.69L211.32,58.61L208.73,58.53L207.94,57.44L209.52,61.08L212.71,61.86L213.35,63.15L212.09,66.58L212.5,69.08L207.07,69.62L202.64,71.43L200.65,69.12L198.74,69.7L197.65,72.25L199.88,72.17L201.62,74.14L202.33,75.71L201.51,77.97L197.48,79.11L192.66,78.53L193.25,80.64L196.73,82.48L196.36,85.19L199.61,85.38L200.6,80.93L205.17,81.05L205.48,83.26L208.65,84.31L210.9,83.56L212.54,80.6L211.8,78.91L219.17,78.23L217.59,76.92L217.56,73.86L219.48,75.43L223.95,74.61L225.08,68.57L222.42,67.21L222.83,63.39L227.32,64.79L229.4,63.85L228.42,62.97L229.18,62.16L230.8,61.98L231.3,64.27L235.49,65.4L236.6,67.11L235.21,70.32L233.5,71.25L232.67,77.34L230.26,79.15L226.27,79.13L226.35,84.63L227.47,85.07L227.78,87.71L235.29,86.67L239.19,87.45L241.04,91.12L244.67,93.37L248.1,92.67L249.36,88.78L252.7,88.26L254.22,86.24L259.46,84.43L258.23,82.01L260.08,80L263.54,81.45L270.76,76.7z"/>
		<path id="CH-BS" title="Basel-Stadt" class="land" d="M232.34,43.27L231.47,44.35L233.67,47.08L233.36,48.41L232.92,47.58L232.19,48.69L226.45,49.23L226.45,49.23L224.26,49.71L224.54,53.47L220.91,57.56L219.7,53L217.77,52.68L215.92,48.53L215.92,48.53L217.2,46.14L219.52,46.48L220.41,43.47L224.28,46.12L228.15,42.55L231.72,43.29L234.23,41.49z"/>
		<path id="CH-FR" title="Fribourg" class="land" d="M110.43,209.44l0.27,0.29l0,0l1.38,0.35l-1.23,4.2l0,0l-0.81,1l0,0l-1.2,0.69l-1.85,-2.79l3.28,-3.87l0,0L110.43,209.44zM120.74,204.83l0.36,0.04l0,0l0.47,1.22l0,0l0.59,1.02l0,0l2.86,2.69l-2.01,4.12l0,0l-0.45,0.59l0,0l-4.8,-2.02l-2.52,1.61l-2.85,-0.14l0.65,-1.55l2.32,-0.27l0,0l0.82,-0.22l0,0l4.33,-7.11l0,0L120.74,204.83zM122.85,178.36l4.06,5.16l3.36,2.36l-3.62,1.85l2.58,-0.77l2.27,2.6l-3.59,5.11l0.94,2.81l-0.77,1.32l0.94,0.49l1.13,-1.51l1.47,1.06l-2.71,5.05l-0.23,-0.81l-4.21,1.41l-2.59,-2.3l-4.61,2.93l-2.74,-2.47l-0.9,0.51l-2.29,-2l-0.5,0.79l1,-2.73l-0.81,0.49l-4.9,-5.31l5.13,-4.99l0,0L122.85,178.36zM171.34,173.2l1.24,-0.43l-0.12,1.75l-2.09,1.02l-0.05,-1.79l0,0L171.34,173.2zM147.61,164.99l5.96,0.3l8.36,-1.93l8.16,-4.1l2.62,4.38l-2.9,3.49l-2.54,0.59l2.1,1.44l-1.07,3.72l1.3,1.85l-1.03,1.34l0.36,2.48l-2.62,1.75l2.82,-0.47l1.19,0.94l1.65,-1.16l0.8,1.22l3.24,-0.02l2.55,1.57l6.25,-0.79l3.48,1.08l1.08,5l-1.15,1.63l-3.43,0.53l0.65,-1.32l-1.93,-0.79l-1.85,2.05l3.94,3.87l-1.44,2.28l0,0l-0.11,0.94l0,0l-2.51,4.48l0.45,1.94l-1.88,2.02l1.74,2.77l-0.96,6.1l1.5,2.04l5.61,0.94l-0.5,2.67l2.23,-0.06l2.4,1.73l-1.44,6.62l0.96,0.08l-2.63,3.27l-1.52,-3.19l-3.31,0.12l1.09,2.57l-2.17,1.12l-0.15,2.41l1.16,6.17l-2.54,2.37l-2.77,-0.94l-3.44,4.83l-2.58,1.21l0,0l-3.82,4.18l-2.12,-2.74l-3.98,3.44l-2.08,0.06l-3.36,5.96l-3.09,2.21l-5.32,-0.1l-5.34,5.19l-0.43,2.6l-4.67,1.89l1.11,-2.05l-1.71,-2.3l0.24,-2.99l-1.25,-3.18l-2.36,-2.03l-2.52,0.12l-3.28,-2.33l-2.08,1l0.22,-2.52l-4.68,5.26h-2l-4.95,-6.19l1.93,-3.56l0.71,1.15l3.35,-0.72l0.81,2.11l4.36,-5.75l0,0l1.13,-0.27l0,0l-0.54,-1.86l-1.86,1.72l-1.36,-0.63l-1.13,-2.5l0,0l-0.31,-0.23l0,0l-2.25,-1l-1.81,1.55l-2.52,-1.98l-0.14,1.47l-2.47,0.57l1.19,-6.4l-0.66,-7.91l2.67,0.25l2.02,-2.84l2.69,1.39l1.92,-1l0.53,-2.53l-1.17,-1.49l3.87,-2.88l0.5,-1.98l5.34,-5.2l0.78,-2.18l-1.39,-1.98l-1.42,0.57l-1.59,-1.24l0.81,-1.08l0.8,0.63l3.01,-4.75l2,-0.71l1.32,-2.93l-1.4,-2.4l1,-2.5l2.87,1.12l1.03,-2.18l-1.28,-1.2l0.93,-2.1l-1.67,0.77l-0.5,-1.44l2.01,-3.99l-1.15,-1.67l-0.93,-1.08l-2.06,1.16l0.96,3.01l-3.63,-4.72l-1.75,-0.53l0.67,-1.3l-4.53,-5.14l0,0l4.41,-5.36l0,0l4.79,5.55l2.94,0.98l-0.74,2.05l3.89,3.96l-2.21,2.03l0.76,0.9l1.24,0.24l1.09,-1.48l2.6,1.48l-0.81,1.38l1.3,1.2l-1.32,1.91l0.89,0.89l4.64,-5.21l-1.23,-2.22l2.91,-2.4l0,0l1.01,0.79l1.77,-1.61l-1.69,-0.63l0,0l-4.53,-7.05l0.8,-6.25L147.61,164.99zM156.46,177.18l0.62,3.09l2.52,-1.4l-0.5,-2.4l0,0l-0.74,0.26L156.46,177.18z"/>
		<path id="CH-GE" title="Genève" class="land" d="M22.79,294.33l2.47,2.73l7.52,3.8l2.87,-5.35l0,0l3.7,1.64l0.61,2.55l-2,2.55l3.12,5.04l2.42,-0.02l2.32,-2.39l0.16,1.71l1.69,-0.21l0.03,2.33l-1.94,3.67l-6.38,3.91l-2.15,-0.16l-6.06,5.01l0.2,2.47l-8.15,5.36l-4.53,-0.56l-0.3,-1.75l-5.48,-0.04l-2.12,3.28l-1.07,-1.15l-4.65,-0.76l-4.91,3.16l3.39,-8.7l0.65,0.72l0.97,-2.33l-4.05,-2.93L3.2,314l1.62,0.33l-0.23,-1.38l1.3,0.5l4.48,-3.73l1.83,1.34l1.92,-2.66l1.43,0.66l1.97,-1.09l2.36,1.77l2.79,-2.43l-3.01,-6.63l2.43,-1.93L22.79,294.33zM30.1,288.19l0.35,1.15l0,0l-1.83,0.14l0.82,-1.19l0,0l0.05,-0.31l0,0l0.31,-0.06l0,0L30.1,288.19zM37.32,291.87l-4.82,-2.3l-3.43,-3.16l1.31,-1.27l8.16,4.19l0,0L37.32,291.87z"/>
		<path id="CH-GL" title="Glarus" class="land" d="M411.57,126.22L420,135.02L429.02,134.73L436.4,136.09L436.31,147.25L434.41,150.13L429.61,152.88L435.23,155.44L438.96,153.51L443.37,157.08L444.5,161.24L442.55,171.04L444.46,173.54L444.21,176.97L444.21,176.97L441.32,178.97L438.11,183.62L435.95,184.72L431.32,184.25L431.83,185.33L429.62,187.75L425.75,190.05L423.46,185.82L419.02,185.19L416.85,186.88L416.89,190.09L411.8,197.72L400.95,200.59L399.29,200.08L399.01,197.6L394.1,197.31L394.1,197.31L394.65,194.38L393.4,191.58L404.83,184.76L404.34,179.96L401.94,176.2L401.94,176.2L405.81,174.66L404.73,172.53L406.77,168.3L403.34,166.8L401.53,163.79L402.76,162.74L399.89,160.2L398.69,157.12L396.34,155.88L397.76,155.17L397.67,152.98L400.39,152.98L403.91,150.79L407.47,143.66L404.64,142.41L406.9,140.04L406.44,133.68z"/>
		<path id="CH-GR" title="Graubünden" class="land" d="M485.45,149.3L486.25,150.82L492.28,148.28L496.23,150.37L497.77,148.77L502.56,148.16L503.76,149.6L506.36,149.94L507.74,151.91L512.2,153.29L516.41,152.98L523.68,157.99L526.9,155.98L529.41,156.47L528.39,158.58L530.74,160.51L531.2,162.64L528.33,167.71L529.38,168.85L529.05,173.32L537.43,177.69L542.61,177.16L544.39,179.86L548.2,180.02L552.69,185.06L553.14,187.81L557.47,187.95L560.02,191.86L562.34,190.48L568.53,190.03L571.9,186.87L576.9,186.9L577.39,183.3L576.18,180.88L578.39,173.99L585.77,176.28L588.31,175.19L587.22,170.8L589.82,169.56L592.5,162.44L595.82,162.23L597.69,160.39L599.43,161.02L603.26,165.15L603.26,168.69L607.09,169.58L611.68,172.55L609.84,181.67L608.42,183.13L609.17,190.31L607.26,194.18L607.24,197.09L605.09,200.78L602.38,201.73L605.05,205.36L605.59,208.42L599.83,213L602.03,215.98L601.81,217.61L597.77,222.64L599.97,232.25L605.98,231.42L611.96,236.81L609.65,250.25L607.94,250.76L606.91,252.6L601.98,248.69L599.09,249.96L593.23,247.65L591.49,250.31L589.81,248.67L587.66,249.45L585.6,248.76L584.33,244.68L581.81,243.44L579.85,244.56L578.85,243.62L578.19,240.72L580.59,236.91L577.95,232.29L574.57,235.52L571.13,233.83L563.16,237.91L559.42,236.95L559.21,242.62L556.56,243.95L556.66,246.32L551.64,250.82L552.97,254.73L551.36,257.09L552.14,258.73L551.38,262.64L552.88,265.39L551,269.3L553.34,270.29L553.96,272.79L556.02,272.6L556.56,273.94L558.94,274L563.12,272.01L564.96,272.65L565.72,275.76L567.22,274.96L568,275.97L567.59,280.22L564.62,280.77L562.97,282.4L563.04,285.58L560.19,287.39L559.84,291.35L561.35,294.93L566.59,299.21L569.45,306.1L563.81,312.01L557.91,311.57L555.13,313.59L551.75,311.24L553.8,307.5L553.1,304.41L545.74,300.95L544.85,299.51L545.84,294.95L543.1,293.2L545.14,287.55L540.83,285.15L539.73,282.35L536.58,283.18L535.54,284.78L533.01,281.88L528.41,285.25L523.64,285.48L515.58,290.76L511.26,287.61L510.03,287.88L508.44,289.3L507.48,292.98L508.51,294.83L506.9,298.9L503.56,298.83L501.59,297.15L495.95,300.34L492.48,298.63L489.13,298.55L485.76,296.24L484.48,297.19L480.53,292.38L477.92,284.53L473.01,283.03L473.69,279.29L471.89,274.02L473.27,262.74L470.69,261.19L472.51,260.51L473.09,256.64L469.33,258.56L466.02,264.89L461.07,261.43L460.22,259.48L461.04,257.81L459.45,256.72L447.96,259.26L447.39,266.92L443.99,268.67L443.87,269.92L444.6,272.48L448.24,275.4L447.84,279.46L448.77,280.83L447.54,283.91L450.39,287.08L449.85,290.78L450.68,292.48L448.6,295.13L448.85,298.05L444.52,303.98L444.02,310.38L440.23,310.65L439.97,313.98L437.56,315.86L436.65,320.89L434.83,323.05L432.39,323.03L432.39,323.03L429.23,321.05L426.49,316.77L422.53,314.4L421.14,305.32L418.05,299.49L420.93,295.2L419.44,292.63L419.79,290.65L420.33,289.25L422.71,288.23L423.65,283.52L422.88,277.24L424.67,276.01L422.82,271.89L423.59,266.43L422.17,263.5L417.4,262.72L413.88,256.62L413.41,249.14L416.54,241.57L415.27,239.08L411.33,236.83L405.59,238.53L404.35,232.78L402.86,235.44L400.31,234.52L398.03,236.12L399.39,239.73L398.63,241.33L389.73,246.08L388.08,246.36L387.66,244.64L383.71,246.05L377.18,243.72L375.51,244.42L373.96,243.5L372.35,244.64L372.35,244.64L372.35,244.64L372.35,244.64L369.92,242.66L367.32,243.05L367.32,243.05L367.31,235.79L363.65,232.23L364.05,229.23L367.28,226.25L366.75,220.82L369.63,218.82L371.38,219.61L376.51,215.98L376.7,212.39L378.88,210.74L381.26,213.94L385.4,212.21L386.19,207.21L388.27,206.4L387.49,201.49L389.78,201.12L394.1,197.31L394.1,197.31L399.01,197.6L399.29,200.08L400.95,200.59L411.8,197.72L416.89,190.09L416.85,186.88L419.02,185.19L423.46,185.82L425.75,190.05L429.62,187.75L431.83,185.33L431.32,184.25L435.95,184.72L438.11,183.62L441.32,178.97L444.21,176.97L444.21,176.97L446.66,179.54L452.3,178.95L453.42,179.94L465.96,181.61L471.24,185.41L471.97,182.85L473.86,182.3L473.75,180.02L476.5,177.58L475.28,176.93L475.44,174.96L478.76,169.36L480.63,168.77L480.75,165.91L484.25,164.85L474.95,150.02L474.95,150.02L475.78,149.32L476.33,150.73L477.26,149.29L483.45,147.63z"/>
		<path id="CH-JU" title="Jura" class="land" d="M145.67,61.7L151.05,63.87L156.39,62.4L158.12,60.78L163.88,63.65L168.04,62.68L165.99,64.9L163.75,72.66L167.32,74.29L172.15,73.58L173.62,77.16L178.8,74.57L185.14,73.18L185.14,73.18L184.81,74.85L186.8,75.43L189.06,78.25L191.51,78.39L191.51,78.39L192.66,78.53L192.66,78.53L193.25,80.64L196.73,82.48L196.35,85.19L199.61,85.38L199.61,85.38L203.42,87.23L211.59,86.87L211.33,88.32L213.66,89.24L213.57,91.68L215.39,92.11L215.39,92.11L212.13,96.7L216.17,96.72L216.17,96.72L216.17,96.72L216.17,96.72L207.58,100.81L192.19,98.23L186.38,100.17L183.44,103.74L179.06,104.34L169.21,103.5L168.58,102.21L162.95,102.51L163.58,106.32L161.06,107.33L160.16,109.33L161.79,111.67L154.77,112.64L152.98,113.87L151.56,111.71L148.95,112.68L148.8,114.98L147.26,115.79L144.1,121.93L140.38,122.36L138.17,126.14L136.8,124.72L134.94,124.82L134.48,123.55L132.97,124.16L131.43,127.11L125.2,130.87L123.61,126.06L122.25,127.76L122.25,127.76L121.76,127.94L121.76,127.94L119.39,126.72L123.77,124.2L124.63,121.14L134.77,112.68L133.12,103.84L140.32,102.33L142.92,98.64L142.17,96.38L147,95.95L149.09,92.71L147.6,91.8L147.38,88.9L143,86.81L140.01,88.7L130.42,90.19L127.79,89.43L124.46,90.78L125.21,86.56L129.13,83.71L129.14,80.58L132.36,80.26L132.7,74.87L135.28,74.73L136.98,72.21L141.05,70.73L138.5,62.7L143.54,60.64z"/>
		<path id="CH-LU" title="Lucerne" class="land" d="M253.1,113.29L256.22,114.5L263.69,112.3L266.79,113.99L270.56,110.5L269.07,106.3L273.82,106.08L275.13,104.95L278.02,109.33L277.92,112.32L279.66,113.04L284.08,111.97L283.48,110.08L285.6,110.22L287.84,108.62L289.18,109.21L290.47,112.24L292.78,112.84L299.11,110.68L299.44,113.12L296.77,113.63L299.67,116.88L300.83,116.74L303.36,116.05L303.4,112.72L305.45,110.78L306.54,106.6L308.47,106.77L309.6,104.02L310.8,103.92L316.16,106.93L315.73,109.41L317.86,112.14L318.8,117.91L324.55,131.78L328.83,133.28L331.32,132.87L331.32,132.87L332.12,136.48L336.1,135.08L336.75,137.99L336.75,137.99L332.17,140.71L328.26,147.67L329.73,148.79L335.11,148L344.99,156.33L344.23,159.53L338.99,161.08L338.99,161.08L339.28,158.7L333.37,157.12L333.52,160.71L327.92,160.91L327.45,157.02L325.39,156.63L320.92,162.6L318.78,160.65L314.85,161.62L311.75,160.93L309.04,163.27L306.74,162.03L305.35,164.53L306.85,166.09L306.85,166.09L306.85,166.09L306.85,166.09L303.1,167.2L301.13,166.35L296.27,168.91L298,172.89L294.09,175.86L290.9,181.87L290.51,178.78L288.66,177.97L285.52,180.9L284.95,187.69L281.63,192.75L284.56,198.31L282.48,202.37L282.48,202.37L278.81,202.08L273.88,204.85L272.37,204.2L268.62,198.92L258.31,191.11L258.24,187.34L256.63,185.86L256.49,183.82L259.98,179.45L257.92,177.06L261.11,173.76L264.23,173.7L266.35,170.74L266.66,168.22L268.53,166.78L269.38,164.22L269.76,159.74L266.73,159.68L265.61,158.4L262.5,159.21L261.41,154.93L258.15,151.28L259.81,143.04L257.97,137.06L260.49,135.12L260.94,132.79L259.25,130.3L258.35,124.12z"/>
		<path id="CH-NE" title="Neuchâtel" class="land" d="M122.25,127.76L125.85,134.57L122.89,143.7L131.41,138.24L132.38,139.03L144.91,135.42L146.26,135.95L144.05,138.46L144.75,140.12L146.31,139.05L151.17,141.58L152.58,143.66L151.24,145.57L152.56,148.93L145.38,154.42L144.25,159.35L146.4,164.63L146.4,164.63L141.34,163.17L131.41,169.88L131.41,169.88L127,175.23L127,175.23L122.85,178.36L122.85,178.36L111.26,189.4L111.26,189.4L107.97,186.02L104.91,186.29L105.85,181.12L102.72,178.92L103.17,172.97L93.32,178.11L90.6,182.5L86.68,183.46L86.68,183.46L84.92,183.46L84.92,183.46L76.63,188.77L70.91,190.78L67.89,189.64L67.89,189.64L68.44,182.22L64.13,174.82L72.89,165.72L73.99,167.31L91.32,160.97L94.98,155.13L102.91,150.61L99.22,147.39L101.2,145.85L100.7,144.45L103.82,142.55L105.96,142.63L105.98,139.23L114.6,135.06L121.76,127.94L121.76,127.94z"/>
		<path id="CH-NW" title="Nidwalden" class="land" d="M306.85,166.09L305.35,164.53L306.74,162.03L309.04,163.27L311.75,160.93L314.85,161.62L318.78,160.65L320.92,162.6L325.39,156.63L327.45,157.02L327.92,160.91L333.52,160.71L333.37,157.12L339.28,158.7L338.99,161.08L338.99,161.08L338.65,163.65L342.66,165.13L349.16,164.53L352.94,162.37L352.94,162.37L353.36,163.96L350.74,167.73L351.17,172.26L349.27,172.36L349.36,174.7L343.74,177.5L341.47,176.63L340.73,178.66L337.79,180.61L339.11,180.94L340.39,183.34L339.01,185.02L339.42,189.19L339.42,189.19L332.47,189.74L331.55,186.22L326.45,190.46L327.76,186.96L327.18,185.45L325.91,185.72L326.28,196.91L328.19,197.64L327.78,199.21L329.5,200.9L332.42,202.1L333.43,204.65L329.19,205.46L329.19,205.46L325.63,202.37L325.63,202.37L319.26,195.99L321.07,194.53L320.22,184.68L322.2,177.48L321.79,174.54L317.62,175.51L314.8,173.66L317.64,170.05L317.22,165.28L310.47,164.5z"/>
		<path id="CH-OW" title="Obwalden" class="land" d="M329.19,205.46l4.24,-0.81l-1.01,-2.55l-2.91,-1.2l-1.73,-1.69l0.42,-1.57l-1.92,-0.73l-0.36,-11.19l1.27,-0.28l0.58,1.51l-1.31,3.5l5.1,-4.25l0.92,3.52l6.95,-0.55l0,0l3.71,0.39l1.09,1.44l-2.47,2.1l-0.7,5.97l-2.47,0.67l1.11,1.04l1.09,-0.57l-0.36,1.75l1.73,3.24l-5.79,1.77l0,0l-0.07,-1.32l-1.27,-0.29l-3.2,-0.45l-2.43,1.83L329.19,205.46zM306.85,166.09l3.62,-1.6l6.76,0.79l0.42,4.77l-2.85,3.6l2.82,1.85l4.17,-0.96l0.42,2.93l-1.98,7.2l0.85,9.85l-1.81,1.45l6.37,6.39l0,0l-4.37,1.39l-7.22,5.42l-1.89,-0.2l-1.27,-2.04l-2.68,-1.2l-0.99,1.79l-5.75,-1.69l-5.88,2.94l-3.22,-2.98l-2.64,-0.63l-1.77,-2.67l-5.46,-0.14l0,0l2.08,-4.07l-2.93,-5.56l3.32,-5.05l0.57,-6.79l3.14,-2.93l1.85,0.81l0.39,3.09l3.18,-6l3.91,-2.97l-1.73,-3.98l4.86,-2.56l1.97,0.85L306.85,166.09z"/>
		<path id="CH-SG" title="Sankt Gallen" class="land" d="M459.25,59.71l-0.18,-0.66l0,0L459.25,59.71zM480.12,51.64l-8.59,9.52l0.07,1.69l2.04,1.57l10.28,-7.84l0,0l7.23,11.88l1.03,0.26l0.94,-1.45l1.31,1.91l5.17,1.41l-1.82,4.02l0.88,5.25l2.91,3.04v1.79L499,87.47l-4.02,0.4l-2.56,2.9l-2.87,7.74l-3.49,2.62l-1.5,3.93l-2.13,1.78l-6.02,17.65l3.18,8.78l1.31,8.24l-0.92,2.19l-5.42,4.01l0.41,2.31l0,0l9.29,14.83l-3.49,1.06l-0.12,2.86l-1.88,0.59l-3.32,5.59l-0.16,1.97l1.23,0.65l-2.75,2.44l0.11,2.28l-1.89,0.55l-0.73,2.56l-5.29,-3.8l-12.53,-1.67l-1.12,-0.98l-5.64,0.59l-2.46,-2.58l0,0l0.26,-3.43l-1.92,-2.5l1.96,-9.8l-1.13,-4.16l-4.41,-3.57l-3.72,1.93l-5.63,-2.57l4.8,-2.74l1.9,-2.88l0.08,-11.16l-7.38,-1.36l-9.01,0.3l-8.43,-8.8l0,0l-4.79,-8.53l-16.73,1.8l-2.91,-0.52l-2.19,-1.92l0,0l-1.69,-3.74l1.09,-1.53l6.48,-0.81l1.98,1.37l0.82,-1.62l8.11,-1.33l1.19,-1.39l0.89,-2.83l-1.94,-1.59l2.01,-0.75l1.24,-2.58l2.24,-0.42l1.4,-2.6l-1.79,-6.47l-1.54,-0.28l-2.24,-4.41l0,0l3.78,-3.1l0.71,-3.9l1.77,-0.5l-0.01,-3.28l3.04,-0.7l1.42,-1.59l1.97,1.21l0.17,-1.29l3.18,-0.74l-4.68,-2.88l0.2,-1.53l-2.6,-0.98l-0.66,-1.59l1.19,-1.79l4.02,-1.11l1.73,1.65l3.62,-1.55l0.97,2.55l3.08,-0.42l0.89,0.98l4.91,-1.59l1.47,-3.24l1.04,1.85l0.86,-0.6l0.43,1.19l3.55,0.48l0.47,1.97l1.52,-1.03l3.45,1.85l1.81,0.1l2.38,-1.67l2.36,1.11l3.02,-2.71l-0.55,-1.93l-1.2,0.56l1.2,-2.25l-1.78,-1.25l-1.7,1.75l-3,-1.02l1.55,0.34l0.26,-2.07l2.74,-1.12l1.42,0.74l0.77,-1.79l2.85,0.04l0.39,1.93l1.82,0.36l-2.64,3.6l4.94,0.14l-0.85,3.03l1.88,-0.4l2.21,2.35l1.2,-3.48l1.59,-0.42l11.63,-12.21l0,0L480.12,51.64zM478.15,87.23l1.33,-5.07l0,0l4.57,-1.03l0.35,1.53l4.64,-3.74l3.39,-0.64l-2.17,-2.33l3.95,-2.33l0,0l1.56,-1.33l-4.56,-2.77l-8.31,-1.99l-1,1.29l0.65,1.57l-10.52,4.51l-2.35,-0.6l-0.49,4.15l-2.95,2.13l-2.4,0.38l-3,-1.29l-9.38,2.54l-4.86,-1.23l-4.75,0.83l-2.39,6.46l-2.9,0.5l0.62,1.83l1.54,-0.54l-1.03,1.69l0.88,1.57l2.2,-0.67l1.48,2.1l-3.2,2.28l1.92,5.73l-2.5,3.11l4.33,2.38l2.7,0.22l2.27,-1.19l3.13,2.42l1.47,-0.34l1.83,2.54l2.58,-1.23l0,0l5.59,3.59l7.46,-3.37l3.21,-2.66l3.56,-4.8l2.02,-11.78L478.15,87.23z"/>
		<path id="CH-SH" title="Schaffhausen" class="land" d="M355.77,40.44l0.39,0.04l0,0l-5.14,10.41l-2.98,-5.9l3.43,-3.39l0,0l1.9,1.06L355.77,40.44zM385.2,15.99l-0.8,0.58l1.85,2.3l3.36,0.26l0.81,1.74l3.01,-0.02l0.2,1.94l-3,-0.4l1,0.72l-1.12,1.76l2.25,1.48l1.21,4.25l0,0l-3.53,0.68l0.81,-1.8l-3.2,-2.8l-3.53,-0.78l-1.47,0.76l0,0l0.4,-3l1.57,-0.9l-2.31,-2.24l-3.08,-0.36l0.08,-2.3l2.71,-2.04l1.13,0.3l-0.24,-1.52l1.43,-0.6L385.2,15.99zM353.44,1.62l5.65,0.22l0.2,6.31l1.35,1.7l3.13,-2.88l-1.07,-2.98l1.33,-2.38l1.5,2.32l2.51,0.74l1.35,5.72l2.74,-1.96l1.85,0.88l1.77,2.64l-2.56,0.74l-1.25,3.28l3.18,2.4l-1.25,4.52l0,0l-1.35,0.4l0,0l-1.94,-4.42l-2.4,0.96l-2.66,-1.02l-0.19,1.4l1.59,1.06l-2.27,1.66l0.69,1.54l0,0l-0.01,0.06l0,0l-2.44,-1.92l-2.59,0.52l0.16,2.76l-2.2,0.68l0.49,2.84l0,0l-1.44,-2.26l-3.63,2.06l-2.59,-1.56l-2.46,1.1v1.5l-1,-1.18l-0.9,0.58l0.42,2.96l-4.78,-0.28v1.06l-2.6,-1.68l0.16,2.16l-1.59,-1.58l0.57,-1.96l-3.08,0.5l-2.86,-2.4l-1.58,0.04l-0.88,-1.56l2.05,-2l-2.04,-2.88l5.02,-4.9l1.48,0.02l-0.65,-3.52l3.24,-4.56l5.05,-2.56l1.28,1l0.7,-1.54l3.51,-1.24l1.7,1.5l1.48,-0.74l-0.18,-1.84l-1.62,-0.78l0.45,-2.74L353.44,1.62z"/>
		<path id="CH-SO" title="Solothurn" class="land" d="M234.5,128.34l0.13,0.12l0,0l-0.67,1.78l-1.97,-0.04l0.53,-1.92l1.62,-0.59l0,0L234.5,128.34zM197.65,72.25l2.23,-0.08l1.74,1.97l0.71,1.57l-0.82,2.27l-4.03,1.13l-4.82,-0.58l0,0l-1.15,-0.14l0,0l0.74,-3.32l0,0L197.65,72.25zM270.76,76.7l-2.06,-4l1.23,-2.57l0,0l1.58,-1.41l1,0.82l1.66,5.73l-0.24,1.37l-0.46,-1.11L270.76,76.7zM270.76,76.7l6.26,2.68l0.65,2.66l1.71,0.1l0.07,5.38l-2.16,2.34l-0.74,4.01l-7.52,3.95l-0.27,-3.04L265,94.48l-1.71,-1.77l-2.47,6.27l-3.63,0.87l-2.78,6.54l-1.93,1.49l0,0l-1.67,0.99l-1.66,-1.41l-2.25,2.44l-1.51,-2.34l-2.42,1.76l-3.22,-0.1l-6.5,-6.88l-4.28,2.18l-9.82,1.45l1.83,1.94l0.27,4l3.13,3.37l2.86,-0.08l1.08,5.45l3.12,1.33l0.26,5.22l-1.86,0.02l-1.86,3.86l-3.97,-1.44l-4.1,1.72l-0.84,-2.49l-2.29,-1.5l-2.23,1.5l-3.1,-0.08l0.82,2.53l-2.5,4.35l-6.64,3.6l1.82,4.54l-4.52,2.13l-1.13,-5.16l-5.81,1.7l-2.63,-5.83l2.09,-0.83l2.46,1.5l4.69,-1.05l-2.32,-2.39l0.53,-1.03l1.86,-0.61l1.46,-2.39l3.37,0.49l2.9,-3.36l-2.48,-0.85l-0.39,-3.19l-3.62,0.24l-0.22,1.74l-2.05,-0.61v1.52l-2.63,2.73l-3.86,0.44l-0.15,-1.05l1.17,-0.24l-1.79,-4.02l-1.77,-1.7l-1.46,0.81l-1.89,-5.13l2.93,-0.34l7.29,-4.28l0.16,-2.6l6.76,-2.32l2.47,-3.79l6.37,-2l3.44,-5.65l0,0l0,0l0,0l1.86,-1.47l-2.64,-3.14l0,0l-1.82,-0.44l0.09,-2.44l-2.33,-0.91l0.26,-1.45l-8.16,0.36l-3.82,-1.85l0,0l1,-4.45l4.56,0.12l0.31,2.21l3.17,1.05l2.25,-0.75l1.65,-2.96l-0.74,-1.69l7.37,-0.68l-1.58,-1.31l-0.03,-3.06l1.92,1.57l4.47,-0.81l1.13,-6.05l-2.66,-1.35l0,0l0.4,-3.82l4.49,1.39l2.08,-0.94l-0.97,-0.88l0.76,-0.82l1.62,-0.18l0.5,2.29l4.2,1.13l1.11,1.71l-1.39,3.2l-1.71,0.94l-0.82,6.08l-2.42,1.81l-3.99,-0.02l0.08,5.5l1.12,0.44l0.31,2.64l7.51,-1.03l3.9,0.77l1.85,3.67l3.63,2.24l3.43,-0.69l1.27,-3.89l3.33,-0.52l1.52,-2.03l5.23,-1.81l-1.23,-2.42l1.85,-2.01l3.47,1.45L270.76,76.7zM209.52,61.08l3.18,0.78l0.65,1.29l-1.27,3.42l0.42,2.51l0,0l-5.44,0.54l-4.42,1.81l-2,-2.31l0,0l1.69,-2.39l-3.51,-1.81l-1.23,0.48l1.9,-3.44l5.92,3.48l4.18,-3.24L209.52,61.08z"/>
		<path id="CH-SZ" title="Schwyz" class="land" d="M384.95,117.06L387.14,118.98L390.05,119.49L406.78,117.69L411.57,126.22L411.57,126.22L406.44,133.68L406.9,140.04L404.64,142.41L407.47,143.66L403.91,150.79L400.39,152.98L397.67,152.98L397.76,155.17L396.34,155.88L398.69,157.12L399.89,160.2L402.76,162.74L401.53,163.79L403.34,166.8L406.77,168.3L404.73,172.53L405.81,174.66L401.94,176.2L401.94,176.2L393.68,181.14L391.87,181.16L390.74,182.91L390.17,177.46L388.58,178.56L387.31,173.09L385.1,171.9L382.04,174.01L379.7,171.92L371.25,176.69L369.23,170.72L366,171.31L359.8,169.52L357.43,169.91L357.17,163.02L354.56,161.75L352.94,162.37L352.94,162.37L349.16,164.53L342.66,165.13L338.65,163.65L338.99,161.08L338.99,161.08L344.23,159.53L344.99,156.33L335.11,148L329.73,148.79L328.26,147.67L332.17,140.71L336.75,137.99L336.75,137.99L337.26,138.22L337.26,138.22L339.55,138.42L342.21,140.77L342.21,140.77L346.27,143.04L351.55,141.96L352.02,144.39L357.83,141.76L362.1,141.96L364.96,137.83L366.67,137.59L367.79,135.95L368.29,132.43L370.45,130.65L369.29,128.16L369.29,128.16L367.67,125.03L370.81,120.56L382.73,116.64z"/>
		<path id="CH-TG" title="Thurgau" class="land" d="M483.91,56.58l-10.28,7.84l-2.04,-1.57l-0.07,-1.69l8.59,-9.52l0,0L483.91,56.58zM370.87,23.6l1.65,-0.32l0,0l1.35,-0.4l0,0l4.21,0.9l4.98,2.88l0,0l1.47,-0.76l3.53,0.78l3.2,2.8l-0.81,1.8l3.53,-0.68l0,0l3.58,1.22l16.08,-7.51l9.05,1.32l4.22,2.38l4.66,0.3l1.97,2.08l2.17,-0.24l37.6,18.5l5.67,1.49l0,0l-11.63,12.21l-1.59,0.42l-1.2,3.48l-2.21,-2.35l-1.88,0.4l0.85,-3.03l-4.94,-0.14l2.64,-3.6l-1.82,-0.36l-0.39,-1.93l-2.85,-0.04l-0.77,1.79l-1.42,-0.74l-2.74,1.12l-0.26,2.07l-1.55,-0.34l3,1.02l1.7,-1.75l1.78,1.25l-1.2,2.25l1.2,-0.56l0.55,1.93l-3.02,2.71l-2.36,-1.11l-2.38,1.67l-1.81,-0.1l-3.45,-1.85l-1.52,1.03l-0.47,-1.97l-3.55,-0.48l-0.43,-1.19l-0.86,0.6l-1.04,-1.85l-1.47,3.24l-4.91,1.59l-0.89,-0.98l-3.08,0.42l-0.97,-2.55l-3.62,1.55l-1.73,-1.65l-4.02,1.11l-1.19,1.79l0.66,1.59l2.6,0.98l-0.2,1.53l4.68,2.88l-3.18,0.74l-0.17,1.29l-1.97,-1.21l-1.42,1.59l-3.04,0.7l0.01,3.28l-1.77,0.5l-0.71,3.9l-3.78,3.1l0,0l-2.63,-4.47l-2.79,-0.76l1.25,-2.48l-0.39,-3.7l0,0l1.67,0.04l0,0l1.38,-0.56l-3.39,-0.6l0.08,-2.31l-3.24,-4.1l0.3,-2.09l1.59,-0.62l-0.07,-8.1l-7.53,-1.71l-1.69,-4.32l3.01,-1.46l-2.71,-2.01l-3.14,0.44l-0.22,-2.37l-7.8,-1.83l-1.13,-3.33l1.07,-2.71l7.56,4.27l3.05,-9.1l-2.93,-1.04l0.01,-2.58l-2.15,-0.18l-0.94,2.72l-4.65,2.64l-5.29,-0.72l-2.56,-1.46l-3.6,-7.05l0,0l0.01,-0.06l0,0l3.68,-2.04L370.87,23.6zM459.07,59.05L459.07,59.05l0.18,0.66L459.07,59.05z"/>
		<path id="CH-TI" title="Ticino" class="land" d="M367.32,243.05l2.6,-0.39l2.43,1.98l1.61,-1.13l1.55,0.92l3.28,-0.45l4.92,2.07l3.95,-1.41l0.42,1.72l1.65,-0.27l8.9,-4.75l0.75,-1.6l-1.36,-3.6l2.28,-1.61l2.55,0.92l1.5,-2.66l1.24,5.76l5.73,-1.7l3.94,2.25l1.27,2.49l-3.13,7.57l0.47,7.49l3.52,6.1l4.78,0.78l1.42,2.93l-0.77,5.46l1.85,4.12l-1.79,1.23l0.77,6.28l-0.93,4.72l-2.39,1.01l-0.54,1.4l-0.35,1.99l1.5,2.57l-2.89,4.28l3.09,5.84l1.39,9.08l3.97,2.37l2.74,4.27l3.16,1.98l0,0l-5.9,6.6l-6.38,3.18l2.1,6.32l-1.62,4.36l-3.7,0.45l-4.22,2.35l-1.43,2.75l2.98,8.6l-2.19,0.81l-0.69,1.61l-1.47,-0.04l-0.62,2.17l3.21,1.84l0.67,5.94l5.41,1.41l1.13,1.91l1.01,-0.23l0.03,2.53l1.44,-0.58l0.5,0.85l-5.37,5.72l0.08,2.63l-2.59,5.37l0.61,1.58l-6.18,-0.15l0.89,-2.64l-1.85,-0.98l-2.82,0.52l-0.85,-1.58l-6.08,2.32l0.36,-2.68l4.21,-4.27l-1.38,-0.21l-0.7,-3.98l-1.25,-1.02l0.34,-2.11l-3.49,-5.51l-0.11,-4.41l-3.72,-0.87l-5.1,-5.36l-6.37,-0.35l2.12,-5.03l4.8,-5.02l-0.39,-1.63l1.51,0.43l1.25,-2.09l-0.07,-2.93l-6.21,-5.08l-3.2,1.36l-3.3,-1.71l-2.23,-3.69l-3.17,3.49l-3.58,0.37l-4.68,-2.19l-1.36,-1.9l-4.65,0.23l-2.12,-3.71l0.82,-2.8l-3.9,-1.67l-1.38,-3.94l-3.45,-3.05l-0.97,-3.5l-8.03,-2.64l-1.15,-2.43l-2.48,-0.8l-0.13,-1.42l1.77,-1.79l-3.95,-6.56l5.18,-6.89l-0.26,-3.99l0.99,-1.75l-1.12,-4.78l1.3,-1.77l-1.98,-7.28l1.67,-1.89l-3.6,-4.12l-7.61,2.38l0,0l1.08,-7.87l6.8,-0.63l4.68,-6.27l0,0l5.63,-2.29l-0.82,-3.99l1.13,-3.74l2.36,-1.88l1.19,1.02l3.49,-0.39l2.25,1.9l4.1,-0.67l2.12,2.56L367.32,243.05zM407.09,359.3l-1.32,-0.43l-1.03,3.75l2.1,0.66L407.09,359.3z"/>
		<path id="CH-UR" title="Uri" class="land" d="M352.94,162.37L354.56,161.75L357.17,163.02L357.43,169.91L359.8,169.52L366,171.31L369.23,170.72L371.25,176.69L379.7,171.92L382.04,174.01L385.1,171.9L387.31,173.09L388.58,178.56L390.17,177.46L390.74,182.91L391.87,181.16L393.68,181.14L401.94,176.2L401.94,176.2L404.34,179.96L404.83,184.76L393.4,191.58L394.65,194.38L394.1,197.31L394.1,197.31L389.78,201.12L387.49,201.49L388.27,206.4L386.19,207.21L385.4,212.21L381.26,213.94L378.88,210.74L376.7,212.39L376.51,215.98L371.38,219.61L369.63,218.82L366.75,220.82L367.28,226.25L364.05,229.23L363.65,232.23L367.31,235.79L367.32,243.05L367.32,243.05L361.75,245.83L359.63,243.27L355.53,243.93L353.27,242.04L349.78,242.43L348.59,241.41L346.23,243.29L345.1,247.02L345.92,251.01L340.29,253.3L340.29,253.3L333.79,250.21L331.2,243.37L330.95,238.98L332.9,233.7L332.92,229.46L331.27,228.72L331.27,228.72L329.53,224.39L329.76,221.9L329.76,221.9L329.76,220.96L329.76,220.96L333.62,222.19L336.91,221.72L337.26,217.55L336.3,216.78L336.61,213.58L335.38,212.25L335.09,209.11L336.36,206.99L336.36,206.99L342.14,205.22L340.42,201.98L340.78,200.23L339.69,200.8L338.58,199.76L341.05,199.09L341.75,193.12L344.22,191.01L343.13,189.58L339.42,189.19L339.42,189.19L339.01,185.02L340.39,183.34L339.11,180.94L337.79,180.61L340.73,178.66L341.47,176.63L343.74,177.5L349.36,174.7L349.27,172.36L351.17,172.26L350.74,167.73L353.36,163.96z"/>
		<path id="CH-VD" title="Vaud" class="land" d="M67.89,189.64l3.02,1.14l5.72,-2.01l8.28,-5.31l0,0h1.77l0,0l3.91,-0.96l2.73,-4.39l9.85,-5.14l-0.45,5.95l3.13,2.2l-0.94,5.17l3.06,-0.28l3.29,3.38l0,0l-5.13,4.99l4.9,5.31l0.81,-0.49l-1,2.73l0.5,-0.79l2.29,2l0.9,-0.51l2.74,2.47l4.61,-2.93l2.59,2.3l4.21,-1.41l0.23,0.81l2.71,-5.05l-1.47,-1.06l-1.13,1.51l-0.94,-0.49l0.77,-1.32l-0.94,-2.81l3.59,-5.11l-2.27,-2.6l-2.58,0.77l3.62,-1.85l-3.36,-2.36l-4.06,-5.16l0,0l4.14,-3.13l0,0l4.53,5.14l-0.67,1.3l1.75,0.53l3.63,4.72l-0.96,-3.01l2.06,-1.16l0.93,1.08l1.15,1.67l-2.01,3.99l0.5,1.44l1.67,-0.77l-0.93,2.1l1.28,1.2l-1.03,2.18l-2.87,-1.12l-1,2.5l1.4,2.4l-1.32,2.93l-2,0.71l-3.01,4.75l-0.8,-0.63l-0.81,1.08l1.59,1.24l1.42,-0.57l1.39,1.98l-0.78,2.18l-5.34,5.2l-0.5,1.98l-3.87,2.88l1.17,1.49l-0.53,2.53l-1.92,1l-2.69,-1.39l-2.02,2.84l-2.67,-0.25l0.66,7.91l-1.19,6.4l2.47,-0.57l0.14,-1.47l2.52,1.98l1.81,-1.55l2.25,1l0,0l0.31,0.23l0,0l1.13,2.5l1.36,0.63l1.86,-1.72l0.54,1.86l0,0l-1.13,0.27l0,0l-4.36,5.75l-0.81,-2.11l-3.35,0.72l-0.71,-1.15l-1.93,3.56l4.95,6.19h2l4.68,-5.26l-0.22,2.52l2.08,-1l3.28,2.33l2.52,-0.12l2.36,2.03l1.25,3.18l-0.24,2.99l1.71,2.3l-1.11,2.05l4.67,-1.89l0.43,-2.6l5.34,-5.19l5.32,0.1l3.09,-2.21l3.36,-5.96l2.08,-0.06l3.98,-3.44l2.12,2.74l3.82,-4.18l0,0l1.63,7.16l-0.72,3.42l-1.52,1.02l0.47,1.31l-1.62,0.29l1.09,6.42l-1.43,2.4l-3.62,0.18l-0.31,1.25l2.31,3.57l-2.17,7.29l2.02,0.02l0.94,3.18l1.85,0.23l-1.39,0.8l0.35,5.42l0,0l-4.38,4.93l1.05,2.88l-1.38,1.09l0.28,2.49l-1.42,0.35l-5.05,6.03l-2.2,0.29l-0.31,2.49l-1.89,2.2l-10.13,4.84l-2.83,-3.63l-3.4,-9.18l-3,-3.09l-0.77,-3.07l-3.01,-2.53l-0.82,-6.19l-1.75,-1.97l-3.05,-0.27l-1.77,-2.57l0.38,-4.35l-8.67,-9.77l0,0l-18.62,-5.37l-22.02,-0.47l-12.47,7.73l-22.84,10.63l-2.1,3.78l0,0l-8.16,-4.19l-1.31,1.27l3.43,3.16l4.82,2.3l0,0l-1.67,3.62l0,0l-2.87,5.35l-7.52,-3.8l-2.47,-2.73l0,0l6.02,-9.6l-1.29,-2.3l-1.34,0.25l-7.46,-6.24l-4.18,-1.52l2.91,-5.17l-1.78,-3.71l3.22,-3.65l2.32,-5.65l3.28,-4.08l1.09,0.29l1.43,-3.03l-6.26,-6.14l9.25,-7.61l13.98,-14.68l9.42,-4.73l2.44,-1.75l-0.09,-1.27l2.39,-0.73l0.96,-2.79l5.99,-2.98l2.62,-5.07l-3.1,-2.46l-0.61,-2.12l1.23,-0.69l0.35,-3.4L67.89,189.64zM115.37,212.13L115.37,212.13l-2.32,0.27l-0.65,1.55l2.85,0.14l2.52,-1.61l4.8,2.02l0,0l0.45,-0.59l0,0l2.01,-4.12l-2.86,-2.69l0,0l-0.59,-1.02l0,0l-0.47,-1.22l0,0l-0.58,-0.06l0,0l-4.33,7.11L115.37,212.13zM112.07,210.09l-1.38,-0.35l0,0l-0.43,-0.41l0,0l-3.28,3.87l1.85,2.79l1.2,-0.69l0,0l0.81,-1L112.07,210.09zM28.62,289.48l1.83,-0.14l0,0l-0.65,-1.42l0,0l-0.31,0.06l0,0l-0.05,0.31L28.62,289.48zM147.61,164.99l1.89,1.38l-0.8,6.25l4.53,7.05l0,0l-1.09,1.46l0,0l-2.91,2.4l1.23,2.22l-4.64,5.21l-0.89,-0.89l1.32,-1.91l-1.3,-1.2l0.81,-1.38l-2.6,-1.48l-1.09,1.48l-1.24,-0.24l-0.76,-0.9l2.21,-2.03l-3.89,-3.96l0.74,-2.05l-2.94,-0.98l-4.79,-5.55l0,0l9.93,-6.7l5.06,1.46l0,0L147.61,164.99z"/>
		<path id="CH-VS" title="Valais" class="land" d="M331.27,228.72L332.92,229.46L332.9,233.7L330.95,238.98L331.2,243.37L333.79,250.21L340.29,253.3L340.29,253.3L335.61,259.57L328.81,260.2L327.73,268.07L327.73,268.07L324.59,268.44L319.36,273.47L316.74,273.69L314.69,276.95L318.41,278.64L318.45,281.27L313.97,285.35L311,285.35L310.91,288.89L305.88,291.13L303.92,296.22L298.15,298.51L294.34,297.35L285.91,305.73L290.43,307.79L290.94,310.03L294.32,312.56L297.91,321.18L295.84,324.19L296.16,328.12L291.13,330.74L289.65,334.52L279.85,336.79L278.44,342.04L280.22,347.58L277.14,349.77L277.78,351.19L276.84,353.76L275.37,353.82L273.9,356.86L272.27,356.09L262.99,356.55L260.92,360.05L259.08,360.81L258.21,371.39L257.03,372.08L251.4,370.13L248.43,371.85L244.25,368L241.94,367.62L239.72,370.63L237.98,370.71L236.09,368.6L236.05,365.57L232.57,364.14L230.16,360.25L226.7,361.78L220.11,361.66L218.25,358.35L215.01,358.56L213.79,360.07L213.65,364.39L207.8,363.29L204.26,366.05L204.36,368.64L201.25,369.26L197.38,373.13L194.97,373.17L192.94,375.91L187.13,372.59L184.08,373.28L180.23,371.18L175.4,377.55L174.23,376.66L169.79,377.69L166.38,383.29L164.11,382.34L161.65,379.29L156.56,383.21L154.32,383.15L153.24,379.64L146.71,370.81L145.87,364.78L142.2,362.16L144.17,360.19L142.32,358.41L142.19,356.59L138.75,355.04L138.18,352.16L135.71,349.93L134.16,345.96L132.32,345.42L132.3,343.65L130.29,343.63L126.02,347.64L123.7,345.9L126.1,341.64L125.12,337.43L127.13,331.78L118.63,330.21L116,330.89L113.46,329.26L112.88,324.23L115.5,320.56L114.39,316.42L116.76,310.98L121.27,306.39L122.58,301.53L121.81,299.58L120.13,299.6L117.67,297.38L117.28,295.55L113.8,293.65L113.69,291.95L111.78,291.06L109.92,287.02L110.63,285.27L112.86,284.65L114.64,282.29L114.19,280.22L116.59,273.04L116.59,273.04L125.27,282.81L124.89,287.16L126.66,289.73L129.71,290L131.46,291.97L132.28,298.16L135.29,300.69L136.06,303.77L139.06,306.86L142.46,316.04L145.29,319.67L155.42,314.83L157.31,312.64L157.62,310.15L159.82,309.85L164.87,303.83L166.28,303.48L166,300.99L167.38,299.9L166.32,297.02L170.71,292.09L170.71,292.09L174.86,291.97L176.28,290.32L176.23,286.42L180.97,285.08L182.73,283.2L182.46,287.84L183.39,289.21L188.61,287.98L194.72,282.93L200.01,280.96L203.17,282.85L205.53,281.2L206.66,284.02L213.57,282.58L215.78,280.38L212.14,278.17L212.81,276.38L218.62,274.9L221.14,275.95L223.07,271.17L225.43,269.28L237.52,275.19L254.96,262.82L259.21,263.17L265.58,260.28L268.02,257.25L271.72,255.68L272.18,253.93L270.85,250.93L277.56,246.42L291.39,249.62L293.08,251.5L299.44,252.6L300.25,254.77L310.68,252.91L316.9,249.7L318.49,247.24L323.17,245.24L325.4,242.11L324.62,239.43L326.06,232.56L329.08,230.27L329.7,228.45z"/>
		<path id="CH-ZG" title="Zug" class="land" d="M330.93,111.25L332.63,116.4L335.29,116.11L340.98,119.49L344.98,117.2L350.62,116.6L356.27,119.53L357.5,126.32L364.94,126.77L365.86,129.01L369.29,128.16L369.29,128.16L370.45,130.65L368.29,132.43L367.79,135.95L366.67,137.59L364.96,137.83L362.1,141.96L357.83,141.76L352.02,144.39L351.55,141.96L346.27,143.04L342.21,140.77L342.21,140.77L342.31,138.16L340.51,135.65L337.26,138.22L337.26,138.22L336.75,137.99L336.75,137.99L336.1,135.08L332.12,136.48L331.32,132.87L331.32,132.87L331.75,128.14L329.95,125.55L330.45,121.95L329,115.99z"/>
		<path id="CH-ZH" title="Zürich" class="land" d="M365.32,24.52L368.92,31.57L371.49,33.03L376.78,33.75L381.43,31.12L382.38,28.4L384.52,28.58L384.51,31.16L387.43,32.19L384.39,41.29L376.83,37.02L375.76,39.74L376.9,43.07L384.7,44.9L384.91,47.28L388.05,46.84L390.77,48.85L387.76,50.31L389.44,54.63L396.97,56.34L397.04,64.45L395.45,65.06L395.15,67.15L398.39,71.25L398.31,73.56L401.7,74.15L400.32,74.71L400.32,74.71L398.65,74.67L398.65,74.67L399.04,78.37L397.78,80.85L400.58,81.61L403.21,86.08L403.21,86.08L405.45,90.49L406.98,90.77L408.78,97.23L407.38,99.83L405.14,100.25L403.89,102.83L401.88,103.58L403.83,105.17L402.94,108L401.75,109.39L393.64,110.72L392.82,112.34L390.83,110.98L384.36,111.79L383.27,113.31L384.95,117.06L384.95,117.06L382.73,116.64L370.81,120.56L367.67,125.03L369.29,128.16L369.29,128.16L365.86,129.01L364.94,126.77L357.5,126.32L356.27,119.53L350.62,116.6L344.98,117.2L340.98,119.49L335.29,116.11L332.63,116.4L330.93,111.25L330.93,111.25L328.23,103.26L329.43,103.62L333.66,101.08L337.19,94.56L334.55,96.16L331.59,96.02L331.97,93.86L330.31,91.98L330.78,87.25L329.26,85.8L328.94,83.26L326.44,81.29L328.36,77.51L328.06,75.61L326.34,74.67L327.78,74.13L327.29,72.13L328.23,71.09L325.29,67.97L326.51,67.01L326.33,65.18L324.96,65.1L324.16,60.94L324.69,59.31L326.88,58.75L327.41,56.08L328.88,56.24L331.93,52.18L332.38,47.75L332.38,47.75L334.29,48.31L342.29,45.42L341.64,43.89L338.76,44.8L337.3,41.33L338.8,41.01L340.32,38.7L344.19,38.16L345.54,35.09L348.36,35.55L352.48,38.26L353.18,39.38L351.47,41.59L351.47,41.59L348.04,44.98L351.02,50.88L356.16,40.48L356.16,40.48L357.33,38.56L356.12,33.05L357.85,31.22L358.58,32.87L357.6,33.73L358.75,34.11L360.53,31.67L358.74,29.4L358.74,29.4L358.25,26.56L360.45,25.88L360.29,23.13L362.88,22.61z"/>
	</g>
</svg>