<?xml version="1.0" encoding="utf-8"?>
<!-- (c) ammap.com | SVG map of Taiwan -->
<svg xmlns="http://www.w3.org/2000/svg" xmlns:amcharts="http://amcharts.com/ammap" xmlns:xlink="http://www.w3.org/1999/xlink" version="1.1">
	<defs>
		<style type="text/css">
			.land
			{
				fill: #CCCCCC;
				fill-opacity: 1;
				stroke:white;
				stroke-opacity: 1;
				stroke-width:0.5;
			}
		</style>

		<amcharts:ammap projection="mercator" leftLongitude="118.151413" topLatitude="26.384406" rightLongitude="122.006208" bottomLatitude="21.896077"></amcharts:ammap>

		<!-- All areas are listed in the line below. You can use this list in your script. -->
		<!--{id:"TW-TP"},{id:"TW-TW"},{id:"TW-KH"},{id:"TW-FK"}-->

	</defs>
	<g>
		<path id="TW-TP" title="Taipei" class="land" d="M545.85,156.9L550.68,158.75L553.79,164.47L555.11,169.47L551.75,173.97L545.95,179.15L538.38,181.78L533.98,180.66L533.98,180.66L533.79,174.64L536.83,169.64L536.83,169.64L539.05,164.65L540.69,163.15L539.7,159.88z"/>
		<path id="TW-TW" title="Taiwan" class="land" d="M551.92,532.15l0.13,0.13l0.35,-0.07v0.24l-0.47,0.03l-0.13,-0.13L551.92,532.15zM550.81,531.44l0.35,0.67l-0.16,0.68l-0.19,0.1l0.09,1.05l0.6,0.41l0.19,0.44l-0.13,0.1l-0.06,-0.2H551l-0.03,0.24l-0.22,-0.03l-0.44,0.47v0.51l0.47,1.15l1.29,1.01l2.01,0.91l0.47,0.51l0.03,0.34l-0.54,0.57l-0.38,1.18l-0.44,0.34l-0.5,0.03l-0.5,-0.37l-1.26,0.17l-0.16,-0.91l-0.31,-0.2l-0.13,-0.37l-0.72,-0.78l-1.04,-0.57l-1.26,0.3l-1.13,-1.01l-0.41,-0.81l-0.5,-0.13l-0.5,-0.61v-0.27h-0.54l-0.19,0.17l-0.13,-0.34l0.25,-0.24v-0.24l-0.47,-0.64l0.31,-0.34l-0.03,-0.47l0.22,-0.24l-0.28,-0.71l-1.04,-1.15l0.13,-0.34l0.47,-0.24h0.22l0.63,0.51h0.91l0.76,-0.2l0.31,0.1l0.19,0.27l0.13,-0.17l1.04,-0.17l1.79,-0.13l0.38,0.34L550.81,531.44zM416.07,498.63l0.38,0.41l0.57,0.24l0.09,0.47l-0.16,0.58l-1.26,0.81v0.2l-0.54,0.3l-0.72,0.95l-0.72,0.3l-0.69,-0.27l-0.09,-0.3l0.19,-0.54l0.63,-0.44l0.13,-0.51l0.25,-0.17l-0.25,-0.85l0.91,-0.75L416.07,498.63zM403.06,467.02l1.04,0.27l0.5,0.58l-0.06,0.64l0.25,-0.1l0.19,0.2l0.09,0.24l-0.16,0.41l0.28,0.41l0,0.27l0.6,0.27l1.32,1.7l0.09,0.44l-0.19,0.2l0.19,0.1l0.28,-0.3l0.5,0.85l1.07,1.05l-0.32,0.34l-0.28,-0.13l-0.38,-0.58l-0.35,0.14l-0.25,-0.27l-0.41,-1.02l-2.58,-3.15l-1.07,-1.7l-0.41,-0.44l-0.13,0.14l-0.16,-0.07v-0.27L403.06,467.02zM542.09,459.08l0.16,0.44l0.53,0.03l1.29,-0.41l0.22,0.44l-0.03,0.98l0.44,0.17l-0.6,0.47l0.06,0.2l-0.25,0.44l0.06,0.2l0.35,-0.1v0.3l-0.94,0.34l-0.28,0.61l0.57,0.64l0.06,0.37l0.38,0.48l-0.06,0.2l-1.01,-0.1l-0.13,0.17l-0.38,-0.03l-0.38,-0.85l-0.5,-0.41l-1.35,-0.37l-0.19,0.1l-0.22,-0.17l0.19,-0.68v-0.81l-0.41,-0.81l-0.75,-0.68v-0.82l0.16,-0.2h0.31l1.26,0.44l0.63,-0.54l0.63,0.07L542.09,459.08zM544.36,458.77l0.22,0.14l-0.16,0.27l-0.28,-0.24L544.36,458.77zM533.75,404.28l0.09,0.2l0.57,-0.14l0.09,0.17l-0.63,0.41h-0.69v-0.17L533.75,404.28zM309.68,392.77l0.76,0.2l-0.22,0.51l-0.35,0.24l-0.09,1.06l0.19,0.44l-0.22,0.27l-0.69,-0.24l-0.41,0.58l-0.32,0.1l0.25,0.98l-0.28,0.29l-0.16,-0.41l-0.41,-0.2l-0.35,0.1l0,-0.27l-0.41,-0.04l0.03,-0.13l0.41,-0.1l-0.03,-0.13l-0.44,0.07l0.32,-0.41l-0.01,-0.65l-1.17,-1.09l-0.03,-0.34l0.22,-0.06l0.13,0.2l-0.03,-0.27l0.22,0.03l0.13,-0.17l0.47,0.03l0.25,-0.2l0.5,0.03L309.68,392.77zM329.5,388.87l0.57,0.09l-0.16,0.61l0.25,0.51l-0.25,-0.14l-0.38,0.24l-0.54,-0.24l-0.44,-0.44l0.19,-0.44L329.5,388.87zM336.4,387.62l0.29,0.11l0.09,0.41l-0.22,-0.03l-0.13,0.72l-0.35,0.2v0.17l-0.16,-0.03l0.19,0.57l-0.38,0.41l-0.72,-0.88l0.13,-0.34l0.18,-0.03l-0.31,-0.68l0.38,-0.42l0.66,0.01L336.4,387.62zM334.58,387.52l0.09,0.24l-0.22,0.35l-0.44,0l0.03,-0.38L334.58,387.52zM318.51,387.44l0.38,0.25l-0.03,0.24l-0.35,0.13l-0.41,0.68l-0.32,-0.1l-0.13,0.34l-0.35,-0.13l-0.03,-0.31l0.38,-0.14l0.25,-0.31l0,-0.38L318.51,387.44zM317.41,386.49l0.18,0.32l-0.02,0.55l-0.57,-0.1l-0.35,-0.24l-0.03,-0.48L317.41,386.49zM316.46,384.18l0.22,0.26l-0.38,0.46v-0.65L316.46,384.18zM297.76,380.34l0.25,0.54l-0.19,0.31l-0.22,-0.1l-0.09,-0.27l0.03,-0.31L297.76,380.34zM295.96,379.79l0.19,0.37l0.41,0.07l-0.03,0.17l-0.47,0.03l-0.41,-0.17l0.19,-0.2l-0.03,-0.25L295.96,379.79zM320.65,376.95l0.19,0.04l-0.13,0.27l-0.22,-0.14L320.65,376.95zM320.49,375.39l0.13,0.54l-0.32,-0.1v-0.31L320.49,375.39zM390.02,375.32l0.35,0.1l0.09,0.34l-0.13,0.14l0.19,0.38l-0.28,-0.31l-0.28,0.03l-0.19,-0.31v-0.34L390.02,375.32zM318.97,373.92l0.3,0.03l0.12,0.28l-0.5,-0.07L318.97,373.92zM320.49,373.75l0.5,0.58l0.13,0.31l-0.09,0.31l0.31,0.3l-0.37,0.07l-0.1,-0.17l-0.35,0.1l-0.54,-0.2l-0.03,0.17l-0.69,0.37l0.09,0.38l-0.16,0.23l-0.25,0.04l0.13,-0.41l-0.25,-0.07l-0.25,0.14l0.06,-0.34l-0.31,-0.17l0.03,-0.27l0.16,-0.17l0.57,0.14l0.25,-0.31l-0.03,-0.48l0.23,-0.07l0.25,0.14l0.07,-0.2l0.34,0.03L320.49,373.75zM319.49,373.48l0.19,0.2l-0.06,0.2l-0.38,-0.34L319.49,373.48zM317.91,372.79l0.16,0.44l-0.34,0.11l-0.03,-0.55L317.91,372.79zM315.68,371.28l0.06,0.25l0.35,0.16v0.31l0.28,-0.07l0.16,0.17l0.25,-0.55l0.16,0l0.29,0.38l-0.13,1.12l0.18,-0.03l0.04,0.75l0.41,0.17l-0.38,0.48l0.44,0l0.16,-0.44l0.28,0.24l-0.19,0.27l0.03,0.55l-0.38,0.1l-0.03,0.14h-0.16l-0.04,-0.17l-0.28,0.14l0.25,0.38l-0.16,0.27l0.09,0.41l0.25,0.03l0.25,0.44l-0.47,-0.14l-0.41,0.14l-0.09,-0.34l-0.38,-0.07l-0.25,0.31l-0.41,-0.14l-0.66,0.34l-0.06,-0.38l-0.54,-0.17l0.85,-1.09l0.22,-0.01l-0.25,-0.61l0.25,-0.31l-0.22,0.03l-0.09,-0.38l0.2,-0.31l-0.26,-0.23l0.06,-0.31l0.38,-0.38v-0.27l-0.25,-0.17l-0.13,-0.51l-0.35,-0.07l0.25,-0.48L315.68,371.28zM295.9,369.35l0.22,0.27l0.35,0.07l0.09,0.31l0.44,-0.03l0.19,0.44l-0.35,0.24l0,0.38l-0.82,0.13l-0.13,0.17h-0.5l-0.22,-0.78l0.44,-0.38l0.03,-0.65L295.9,369.35zM390.31,366.1l0.03,0.21l0.28,0.07l-0.13,0.38l-0.35,-0.24l-0.03,-0.34L390.31,366.1zM543.22,362.79v0.44l-0.31,-0.03l0.06,-0.34L543.22,362.79zM320.56,358.8l0.83,0.48l-0.04,0.21l-0.66,0.07l-1.01,0.79l-1.52,0.16l-0.25,0.28h-0.38l-0.25,-0.21l0.07,-0.92l0.44,0.03l0.19,0.58l0.13,-0.24l0.19,0.14l0.22,-0.2l0.11,-0.44l0.65,-0.03l0.28,-0.38h0.72L320.56,358.8zM318.76,356.81l0.06,0.7l-0.38,0.14l-0.57,-0.17l0.19,-0.65l0.25,0l0.13,0.34l0.06,-0.31L318.76,356.81zM320.08,353.47v0.48l-0.28,-0.31h-0.31l0.06,-0.14L320.08,353.47zM321.03,351.77l0.25,0.3l-0.32,0.14l-0.06,-0.38L321.03,351.77zM336.4,345.67l0.03,0.18l-0.38,0.27l-0.32,-0.21l0.03,-0.14L336.4,345.67zM333.46,345.06l0.45,0.14l0.28,0.31l0,0.48l-0.22,0.27l0.06,0.27l0.25,0.14l0.35,-0.07l0.13,0.17l-0.35,0.38l0.06,0.34l0.22,0.07l0.13,-0.21l0.22,0.1l0.28,-0.2l0.04,-0.28l-0.48,0.11l-0.25,-0.1l0.66,-0.17v-0.55l0.16,-0.17l0.41,0.17l0.16,0.69l0.41,-0.14l0.03,0.82l0.28,0.14v0.31l0.32,0.24l-0.16,0.41l0.13,0.51l-0.25,0.38l0.25,0.1l-0.09,0.31l0.13,0.07l0.03,0.55l0.09,0.17l0.6,0.2l0.19,-0.1l0.12,0.24l0.28,0l-0.03,0.68l0.16,0.21l-0.79,0.07l-0.09,-0.17l-0.03,0.24l-0.35,0.17l-0.35,-0.2l-0.22,0.38l-0.44,-0.17l-0.25,-0.34l0.09,-0.27l0.28,-0.03l-0.25,-0.41l-0.29,0.1l-0.38,-0.34l-0.35,0.03l-0.16,0.24l-1.67,-0.07l-0.44,-0.21l-0.88,0.92l0.03,0.21l0.28,-0.03l0.03,0.17l-0.6,-0.07l-0.09,0.72l-0.44,0.1l-0.16,-0.28l-0.13,0.32l-0.35,0.03l-0.47,0.38l0.13,0.27l-0.13,0.41l-0.19,0.07l-0.25,-0.31l-0.41,0.07l-0.16,0.27l0.06,0.31l-0.28,0.03l-0.19,0.41l-0.28,0.07l-0.09,0.65l0.76,0.14l-0.13,0.48l-0.57,0.27l0.25,0.31l0.1,0.72l-0.44,0.06l-0.09,-0.17l-0.41,-0.03l-0.19,-0.33l-0.34,0.16l-0.06,-0.31l-0.31,0.07l-0.28,-0.17l-0.19,0.1l0.03,0.27l-0.35,0.21l-0.82,0.03l-0.31,0.24l-0.5,-0.14l-0.16,-0.68l0.38,-0.44l-0.13,-0.61l-0.72,-0.52l-0.28,0.07l-0.16,0.27l-0.66,0.03l-0.35,-0.61l0.03,-0.38l-0.22,-0.17l-0.38,0l-0.06,-0.34l0.25,-0.21l-0.12,-0.24l-0.57,0.24l-0.41,-0.1l-0.03,-0.51h0.16l0.06,-0.75l0.19,-0.07l0.06,0.21l0.28,-0.14l0.03,-0.68l0.31,-0.1l-0.13,0.44l0.5,0.3l-0.19,0.18l0.1,0.75l0.63,0.38l0.06,0.61l-0.28,0.24l-0.03,0.27l0.63,0.24l-0.13,-0.41l0.57,-0.17l-0.06,-0.34l0.13,-0.14l0.19,0.1l0.09,0.41l0.47,-0.28v0.24l0.38,0.41l-0.38,0.41l0.38,0.55l0.09,-0.21h0.19l0.31,-0.58l-0.12,-0.72l0.28,-0.2l0.44,0.24l0.03,0.31l0.38,-0.34l0.35,0.13l0.09,0.41l0.28,-0.1l-0.06,-0.31l0.25,-0.07l-0.31,-0.17v-0.24l-0.38,-0.34l-0.06,-0.34l0.35,0.14l0.44,-0.07l0.19,-0.82l0.38,-0.1l0.13,-0.41l-1.01,0.41l-0.47,-0.31h-0.47l-0.25,0.34l-0.41,-0.14l-0.82,0.31l-0.19,-0.24l-0.35,-0.03l-0.16,-0.27l-0.25,0.07l-0.09,0.34l-0.06,-0.17l-0.22,0.06l0.06,-0.38l0.16,-0.07l-0.25,-0.03l0.03,-0.44l0.31,-0.14l0.79,0.21l0.22,-0.17l-0.06,-0.31l0.38,0.2l0.06,-0.14l-0.19,-0.17l0.41,-0.48l-0.5,-0.45l-0.38,0.41l-0.35,0.04l-0.22,0.34l-0.1,-0.17l-0.28,0.14l-0.16,-0.1l-0.35,0.24l-0.35,-0.31l0.03,-0.17l0.47,-0.03l0.03,-0.38l0.29,-0.21l-0.07,-0.27l0.54,-0.44l-0.03,-0.38l-0.67,-0.96l0.76,0.03l0.22,-0.2l0.54,0.1l0.35,-0.55l0.38,0.03l0.1,-0.44l0.31,-0.14l0.06,0.34l0.25,0.17l0.03,0.44l-0.38,0.55l0.28,0.21v0.27l0.35,-0.07l-0.19,0.61l0.31,0.07l0.16,-0.24l0.31,0.03l0.22,0.51l0.19,-0.48l-0.16,-0.21l0.16,-0.44l-0.16,-0.58l-0.19,-0.1l0.06,-0.27h0.28l0.22,0.24l0.72,-0.07l-0.13,-0.92l-0.47,-0.44l0.16,-0.41l0.25,-0.21l0.09,-0.34l0.66,0.07l-0.06,0.31l0.32,0l0.44,-0.27l-0.06,0.27l0.13,0.03l0.25,-0.17l-0.16,-0.21l0.25,-0.21L330,345.2l0.19,-0.03l0.72,0.34l0.22,-0.1v0.27l0.22,0.07l-0.19,0.27l-0.35,-0.07l-0.19,0.24v0.34l0.16,0.03l0.15,0.41l-0.22,0.07l0.04,0.54l-0.19,0.28l0.16,0.58l-0.41,0.51l0.03,0.23l-0.22,0.25l0.13,0.03l0.32,-0.27l-0.03,-0.24l0.25,-0.41l0.44,-0.41l0.19,-0.92h-0.19l-0.03,-0.17l0.54,-0.41l0.06,-0.24l0.57,0.07l0.06,0.38l-0.25,0.38l0.03,0.21l0.28,-0.24l0.03,0.31l0.82,0v-0.55l-0.22,-0.27l-0.22,0.03l-0.06,0.34h-0.25l-0.06,-0.17l0.72,-1.09l-0.03,-0.21l-0.38,-0.07l0.38,-0.14l0.03,-0.24L333.46,345.06zM339.1,343.93l-0.15,0.53l-0.23,0l0.1,-0.51L339.1,343.93zM324.18,343.51l0.26,0.54l-0.07,0.17l-0.32,0.03l-0.41,-0.21l0.28,-0.21l0.03,-0.31L324.18,343.51zM328.49,343.46l0.22,0.24l0.19,-0.1l0.38,0.27l-0.06,1.03l-0.2,0.1l-0.16,0.47l-0.28,-0.27h-0.6l-0.76,-0.75v-0.31h0.6l0.31,-0.58L328.49,343.46zM332.49,343.46l-0.16,0.34l-0.44,0.07L332.49,343.46zM337.41,342.94l0.12,0.21l-0.32,0.21l-0.19,-0.27L337.41,342.94zM321.4,340.04l0.13,0.25l-0.22,0.14L321.4,340.04zM331.58,339.94l0.28,0.1l-0.09,0.48l-0.57,0.34l-0.13,0.38l0.19,0.1l-0.22,0.14l-0.09,-0.34l0.19,-0.51l-0.16,0.03l-0.03,-0.14l0.23,-0.1l0.12,-0.48H331.58zM333.22,338.71l0.09,0.31l-0.37,-0.14l-0.77,0.1l-0.25,0.21l0.25,-0.38l0.66,0.07l0.06,-0.17L333.22,338.71zM334.76,338.26l0.45,0.41l0,0.27l-0.69,0.17l-0.22,-0.17l-0.47,0.07l0.31,-0.58l0.38,0.14L334.76,338.26zM335.04,337.72l0.1,0.41l-0.28,0.1v-0.44L335.04,337.72zM325.78,336.79l0.41,0.28l0.13,0.38l0.38,0.1l0.25,0l0.03,-0.31l0.44,-0.34l0.37,0.16v0.59l0.48,0.21l-0.09,0.55l0.23,-0.04l0.06,0.14h0.19l0.06,-0.17h0.47l0.35,-0.48l0.06,-0.65l0.25,-0.03l-0.54,1.3l-0.44,-0.01l-0.41,0.52l0.31,0.72l0.44,0.1l-0.25,0.72l-0.79,-0.17l-0.38,0.38l0.13,0.51h0.16l0.25,0.38l-0.54,-0.41l-0.47,0.17l0.32,0.27v0.24l0.25,-0.27l0.13,0.48l0.47,-0.44l0.38,0.24l-0.03,0.48l-0.7,0.3l0.16,0.61l-0.38,0.17l-0.25,0.41l-0.25,-0.03v-0.38l-0.51,-0.11l-0.37,-0.03l-0.06,0.38l-0.25,-0.03l0.03,-0.65l0.19,-0.07l0.22,-0.55l0.23,0.03l0.18,-0.21l-0.21,-0.37l0.09,-0.44l-1.07,-0.96l-0.47,-0.03l0.03,-0.14l0.25,0.1l0.19,-0.24l-0.32,-0.14l-0.06,-0.38l0.15,-0.16l-0.31,-0.14l0.02,-0.24l-0.24,-0.3l-0.32,0.1l-0.06,-0.2l-0.35,0.03l-0.6,0.89l-0.06,0.44l-0.22,0.14l-0.13,-0.34h-0.19l-0.28,-0.31l-0.25,0.14l-0.19,-0.34l-1.48,1.98l0.31,-0.03l0.04,0.27l-0.13,0.24l-0.22,0l0.04,0.31l-0.25,0.34L320,342.3l-0.35,0.41l-0.54,-0.03l-0.19,0.14v-0.21l-0.22,-0.03l-0.38,0.34l0.44,0.82l-0.25,0.31l0.32,0.51l-0.22,0.58l0.28,0.27l0.13,0.41l-0.38,1.16l-0.66,0.1l-0.16,0.17l0.16,0.62l0.28,0.24l-0.09,0.37l-0.41,0.38v0.41l0.34,0.14l-0.18,0.72l0.5,0.17l-0.25,0.48l-0.67,0.06l-0.6,-0.31l-0.54,0.1l-0.09,-0.28l-0.41,-0.06l-0.31,0.1l-0.32,0.58l-0.75,-0.14l-0.63,0.27l-0.19,0.31l-1.01,-0.17l0,-0.55l1.14,-0.58l0.39,-0.82l0.34,0.06l0.54,0.62l0.37,0.04l1.17,-1.06l0.16,-1.2l-0.63,-0.51l-0.66,-0.17l-0.35,0.07l-0.03,-0.24l0.29,-0.07l-0.07,-0.44l0.22,-0.27l0.16,0.14l0.25,-0.14l0.22,0.17l-0.03,0.72l0.44,-0.51l-0.09,-0.51l0.38,-0.85l0.44,-0.21l-0.18,-0.45l-0.6,-0.14l-0.35,-0.48l0.6,-0.48l-0.28,-0.85l0.25,-0.65l0.44,-0.08l0.47,-1.46l0.31,0.03l0.19,-0.24l0.09,0.27l0.22,-0.03l-0.19,-0.41l-0.28,0.07l-0.13,-0.14v-0.31l1.17,-0.07l0.1,0.58l-0.54,0.41v0.31l0.22,0.21l0.41,-0.14l0.13,0.38l0.98,0.34l0.28,-0.31l0.32,-0.07l0.79,-1.06l-0.06,-0.48h0.41l0.34,-0.38l-0.03,-0.17l-0.41,0.14l0.13,-0.34l-0.09,-0.31l0.19,-0.11l0.28,-0.75l0.57,-0.1l0.06,-0.52l0.09,0.38l0.31,0.1l0.82,-0.27l0.13,-0.21l0.56,0.03l0.2,-0.37L325.78,336.79zM335.33,336.15l-0.03,0.45l0.21,0.17l-0.12,0.21l-0.47,-0.14l0.13,-0.1l-0.09,-0.41L335.33,336.15zM335.86,335.26l-0.13,0.99l-0.19,-0.17l-0.03,-0.55L335.86,335.26zM333.53,334.79l0.16,0.16l-0.06,0.27l-0.41,-0.27l0.09,-0.17L333.53,334.79zM323.15,334.5l0.12,0.14l-0.22,0.34l-0.06,-0.31L323.15,334.5zM326.92,334.4l-0.01,0.27l0.47,0.52l-0.25,0.21l-0.38,-0.75L326.92,334.4zM323.3,334.08l-0.22,0.39v-0.27L323.3,334.08zM328.87,332.31l-0.06,0.34l0.31,-0.1l0.03,0.1l-0.54,0.31l-0.13,-0.51L328.87,332.31zM391.22,331.5l0.03,0.31l0.16,0.03l0.06,-0.24h0.16l0.16,0.24l-0.85,0.1l0.03,-0.27L391.22,331.5zM322.76,331.44l0.09,0.22h0.19l-0.31,0.65l0.21,0.44l-0.4,0.25l-0.25,-0.41l0.25,-0.21l-0.09,-0.41l0.16,-0.07l-0.35,-0.38L322.76,331.44zM327.48,327.16l0.16,0.44l-0.35,-0.27l0.03,-0.17L327.48,327.16zM328.96,326.79l0.25,0.26l-0.16,0.48l0.28,0.14l0.07,-0.28l0.41,0.01l-0.09,0.38l0.44,0.17l0.13,0.7l-0.28,0.19l-0.09,0.31l-0.44,-0.17l0.03,0.55l-0.91,-0.17l-0.38,0.68l-0.28,0.21l-0.31,-0.58l-0.57,-0.2l0.22,-0.31l-0.1,-0.35l0.29,0.07l0.5,-0.27l0.54,-0.75l-0.28,-0.38l0.28,-0.1l0.16,-0.28l0.28,-0.03l-0.13,-0.21L328.96,326.79zM328.24,324.82l0.28,0.38l-0.25,0.31l-0.44,0.1l-0.06,-0.24l0.19,-0.03L328.24,324.82zM327.8,323.19l0.06,0.19l-0.25,0.27l-0.09,-0.24l0.13,-0.24L327.8,323.19zM557.99,300.2l-0.47,0.69l0.03,-0.31l0.63,-0.93l0.16,-0.51v0.51L557.99,300.2zM420.32,286.39l0.16,0.14l-0.03,0.27l-0.44,1.03l-0.6,0.34l-0.35,1.03l-0.6,0.65l-1.26,0.03l-0.35,0.17l-0.5,-0.14l-1.7,0.1l-0.25,-0.17v-0.45l1.26,-2.88L420.32,286.39zM476.65,199.05l-0.06,-0.21l0.16,-0.1L476.65,199.05zM594.27,191.7l0.82,0.41l0.22,0.79l0.38,0.21l-0.19,0.45l-0.31,0.1l-0.35,-0.28l-1.01,0.14l-0.03,-0.14l-0.25,0.07l-0.13,-0.17l-0.35,0.07l-0.38,-0.69l-0.41,-0.35l1.01,0.31l0.44,-0.86L594.27,191.7zM547.29,135.79l0.31,0.31l-0.06,0.59l1.17,0.35l0.35,-0.35l0.66,0.14l0.76,-0.07l0.03,-0.38l0.28,-0.31l0.98,-0.14l0.54,0.45l0.28,-0.14l-0.03,0.24l0.5,0.42l1.13,-0.07l-0.06,0.35l0.91,0.55l0.16,0.42l1.13,0.35l1.17,1.14l0.76,1.28l-0.06,0.42l0.19,0.87l-0.19,1.35l0.38,0.1l0.38,0.59l0.32,-0.1l-0.06,0.52h0.31l0.06,-0.21l0.35,0.1l-0.06,-0.24l0.32,-0.14l-0.03,0.28l0.25,0.28l-0.13,0.38l-0.38,0.35l0.28,0.59l1.04,1.21l0.25,-0.07l0.95,0.83h0.44l0.1,-0.31l0.44,0.28l0.79,-0.83l0.16,0.45l0.13,-0.28h0.22l0.38,-0.31l0.22,-0.52l0.6,-0.35l0.09,0.21l-0.16,0.21l-0.82,0.66l-0.13,0.42l0.31,0.28l-0.25,0.24l0.03,0.21l-0.35,0.17l-0.06,0.31l-0.38,0.24l-0.13,0.52l0.13,0.31l0.66,0.86l0.32,-0.14l0.16,0.14l0.1,-0.24l0.6,0.28l0.22,0.45l0.57,0.1v0.66l-0.28,0.48l0.09,0.17l0.88,-0.17l0.31,0.14l0.79,-0.07l0.19,0.21h0.41l0.47,0.45l0.44,-0.1v0.21l0.32,0.28l1.01,0.03l0.25,0.17l-0.03,0.14l-0.41,0.03l-0.25,0.42l0.25,0.1l0.06,-0.38l0.22,-0.07l0.13,0.28l-0.25,0.03l0.03,0.14l0.16,-0.03l-0.19,0.35l0.41,-0.1l0.06,0.14l-0.25,0.21l0.03,0.24l-0.98,0.55l-0.25,1l0.57,-0.83l0.66,-0.17l0.19,-0.31l0.44,-0.24l0.19,-0.48l0.79,-0.62l-0.06,-0.21h-0.19l-0.13,0.28l-0.22,0.07l-0.22,-0.31l0.06,-0.38l-0.22,-0.07l-0.13,0.21l-0.03,-0.11l0.19,-0.55l0.38,-0.03l0.06,-0.28l0.28,-0.03l0.54,0.21l0.13,0.24l0.69,0.03l0.03,0.21l-0.28,0.21l-0.32,-0.03l-0.09,0.17h0.35l0.16,0.31l0.28,0.14l0.6,-0.03l0.35,0.31l-0.16,0.35l0.35,0.07l0.03,0.24l0.41,-0.07l0.19,0.35l0.16,0.03l0.03,-0.21l-0.22,-0.52l0.35,-0.07l0.47,0.17l0.06,-0.14l0.5,0.03l0.19,-0.14l0.13,0.24l-0.41,0.28l-0.22,0.55l0.13,0.52l0.6,0.38l1.1,-0.07l0.35,-0.31l0.44,0.07l-0.22,0.31l-0.22,0.03l0.1,0.24l-0.35,0.35l0.09,0.62l0.25,0.17l0.41,-0.1l0.35,-0.69l0.13,0.1l1.39,-0.21l0.13,0.17l0.75,0.03l0.69,0.35l0.63,-0.21l0.25,0.42h0.25l0.38,-0.31h0.6l0.25,0.31l0.06,-0.14l0.72,-0.03l0.22,0.14l0.44,-0.03l0.03,0.38l0.57,-0.14l0.44,0.14l0.57,-0.46l0.28,0.18l0.28,-0.03l0.41,-0.24l0.22,0.03l0.19,-0.38l0.98,-0.21l-0.57,1.28l-0.79,0.62l0.57,0.21l0.5,-0.24l0.19,0.83l-0.06,0.45l-0.25,0.03l-0.28,0.31l0.13,0.55l-0.63,0.83l-0.03,0.66l0.06,0.24l0.25,0.14l-0.13,0.48l0.09,0.31l0.25,-0.1l0.35,0.52l0.31,0.03l0.06,0.48l0.85,0.45l-0.09,0.48l-0.63,0.1v0.17l0.16,-0.07l0.06,0.24l0.41,0.07v0.38l-0.25,0.14l-0.03,0.28l-0.19,-0.03l0.28,0.17l0.03,0.45l-0.25,0.24l-0.03,0.28l0.6,1.21l0.82,0.79l-0.09,0.17l-0.38,-0.03l-0.03,0.21l1.51,0.31l0.1,-0.38l1.13,0.1l0.6,-0.1l0.69,-0.38l0.57,-0.03l0.38,0.25l0.38,-0.04l0.76,0.45l0.03,0.97l0.63,-0.45l0.09,-0.41l0.28,0.38l0.28,0.03l0.47,0.41l-0.06,1.21l-0.91,0.17l-0.19,0.31l-0.72,0.1l-0.69,0.73l-0.63,0.07l-0.6,0.73l-0.94,0.41h-0.72l-1.86,1.11l-1.51,0.52l-0.5,0.55l-0.03,0.45l-0.5,0.41l-0.16,0.66l-0.82,0.31l-0.19,0.35l-0.44,0.24l-0.03,0.76l-0.95,-0.1l-0.63,0.45l-0.5,0.59l0.19,0.86l-0.32,0.28l0.09,0.69l-0.63,0.48l-1.04,1.31l-0.57,0.1l-0.31,0.69l-0.57,0.55l-0.72,0.17l-0.35,0.83l-0.82,0.97l-1.61,4.38l-0.41,1.76l-0.6,4.14l0.06,4.76l0.44,1.93l1.61,4l-0.09,1.96l0.22,2.62l0.57,2.72l0.66,1.76l1.07,2.28l0.76,0.75l0.44,0.17l0.47,-0.03l0.28,0.41h0.57l0.19,0.24h0.41l-0.13,0.21l0.09,0.38l-0.94,0.1l-0.32,0.21l-0.06,-0.1l0.66,-0.38l-0.09,-0.24l-0.88,0.31l-0.13,-0.31l-0.6,-0.34l-0.6,0.17l-0.16,0.21l0.06,0.62l0.32,-0.1l0.13,0.48l0.44,-0.41l0.25,0.07l-0.03,0.45l-0.22,0.17l0.09,0.24l-0.22,0.14l0.06,0.28l0.57,-0.24l0.13,0.28h0.35l0.5,-0.76l0.25,-0.14l-0.85,1.21l0.57,0.58l-0.54,0.24l-0.31,-0.1l-0.22,0.48l0.16,2.48l0.13,0.65l0.28,0.31l-0.25,0.86l0.09,0.34l0.41,0.34l-0.41,0.07l-0.44,0.65l-0.57,-0.03l-1.35,0.69l-1.01,0.17l-0.25,0.24l-0.32,1.07l0.06,1.34l0.16,0.21l0.44,-0.03l0.79,0.38l-0.03,1.27l0.16,0.17l0.91,-0.04l0.25,0.48l-0.25,0.14h-0.35l-0.13,-0.17l-0.85,0.14l-0.22,0.24l-0.6,0.21l-0.38,0.62l-0.35,0.03l-0.28,0.34l-0.98,0.41l-0.28,0.28l0.06,0.28l-0.16,0.24l0.19,0.48l-0.6,0.55l-0.44,0.72l-0.91,0.65l-0.6,0.76l-0.88,2.24l-0.35,1.65l-0.19,3.51l-0.28,0.27l-0.25,0.96l-0.44,0.65l-0.91,2.58l0.38,2.2l-0.13,1.37l-1.01,1.34l-0.82,0.58l-0.54,0.62l-0.63,1.48l-0.25,1.75l-0.95,0.89l-0.25,0.45l-1.04,0.79l-0.6,-0.07l-0.54,0.38l-0.66,1.06l-0.09,0.65l-0.25,0.34l-1.8,0.96l-0.63,0.65l-1.01,0.34l-0.44,0.38l-0.31,0.82l-0.63,0.86l-0.6,1.89l0.19,1.72l0.5,0.86l0.13,0.62v1.17l-0.28,0.93l-1.23,1.89l-1.64,1.06l-1.13,0.99l-1.1,2.09l-0.22,1.1l0.03,1.75l0.53,1.89l1.39,2.54l1.26,0.99l0.41,1.41l-0.54,0.99l-0.44,0.45l-0.19,0.93l-0.35,0.48l0.57,-2.4l-0.22,-0.14v0.48l-0.22,-0.21l0.19,0.75l-0.19,0.75l-0.57,0.75l-0.6,0.45l0.32,0.55l-0.06,0.34l-0.47,-0.48h-0.35l-0.41,0.24l-0.32,0.55v0.38l-0.69,0.69l0.03,0.45l-0.19,0.24v0.51l0.41,1.03l0.22,1.44l-0.25,0.45v0.51l-0.54,1.68l-0.09,0.75l0.19,0.69l-0.44,3.12l-1.1,4.14l-0.25,0.21l-0.38,1.13l-0.16,0.03v0.58l-0.25,0.79l-0.91,1.06l0.03,0.31l-0.25,0.55l-0.16,1.99l-0.19,0.58v2.19l0.31,0.14l0.09,0.31l-0.25,0.65l0.09,0.14l-0.54,0.99v0.41l-0.44,0.55l0.03,0.27l-0.28,0.24l-0.32,0.99l-0.16,0.17l-0.41,0.03l-0.41,0.82l-0.13,0.99l0.09,0.92l0.16,0.31l0.31,-0.17l0.13,0.1l-0.22,0.68l-0.25,0.17v0.48l-0.22,0.24l0.13,0.1l-0.09,0.48l-0.35,0.68l-0.03,0.21l0.19,0.21l-0.35,0.58l0.16,0.41l-0.22,0.17l-0.19,0.62l0.19,0.58l-0.19,0.27l-0.41,0.1l-0.35,0.55l-0.19,1.23l-0.35,0.79l-0.03,3.83l-0.28,1.78l-0.22,0.24l0.09,0.72l-0.47,0.65l-0.03,0.58l-0.25,0.07l-0.35,0.55l0.03,0.21l-0.25,0.14l-0.19,0.65l-0.19,0.1l0.06,0.24l-0.47,1.54l0.13,0.14l-0.13,0.79l-0.28,0.2v0.55l-0.22,0.58l0.22,1.06l-0.16,0.51l0.06,0.34l0.22,0.03l-0.13,0.68l0.25,0.31l0.06,0.44l0.66,-0.03l-0.06,0.41l0.13,0.24l-0.16,0.51l0.03,0.1l0.35,-0.1v0.2l-0.69,0.24l-0.22,0.85l0.09,0.21l-0.41,0.1l-0.31,0.51l-0.47,-0.14l-0.16,0.17l-0.54,0.03l-0.54,-0.17l0.98,0.61l0.38,0.07l0.13,0.24l-0.35,1.16l-0.25,2.32l-0.22,0.03v0.27l-0.54,0.75l-0.13,0.68l-0.47,0.82l-0.03,0.82l-0.25,0.34l0.03,0.55l-0.41,0.07l-0.16,0.96l-0.25,0.17l0.06,0.61l-0.38,1.36l0.25,1.02l-0.35,0.65l0.09,0.65l-0.28,0.2l-0.22,0.65l0.09,1.77l-0.25,0.24l0.06,0.65l-0.5,0.85v0.51l-0.74,-0.17l-1,0.61l-1.48,2.22l-0.03,0.41l-0.41,0.31l-0.38,1.19l0.16,0.31l-0.09,0.92l-0.44,0.17l-0.16,0.34l-0.25,0.82l-0.22,1.91l-0.38,0.92l0.13,0.4l0.32,-0.14l0.25,0.2v0.27l-0.6,0.54l-0.5,0.85l-0.28,0.17l-0.57,-0.03l-0.13,0.37l-0.44,0.24l-0.16,0.34l-0.13,0.99l0.28,1.5l0.38,0.65l0.25,0.1l0.19,-0.17l-0.35,0.85l0.54,0.48l0.09,0.34l-0.32,1.5l-0.63,0.58l-0.16,1.46l0.38,0.95l0.31,0.34l0.85,0.34v0.31l-0.98,0.95l-0.31,0.03l-0.47,-0.34l-0.28,0.75l-0.82,0.95l0.06,0.24l-0.38,0.85l-0.22,-0.24h-0.25l0.03,-0.21h-0.25l-0.09,0.21l-1.17,-0.1l-0.91,1.12l-0.19,0.31l0.19,0.34l-0.38,0.31l0.25,0.75l-0.85,0.44l-0.22,0.51l-0.19,0.92l0.03,0.82l-0.25,0.27l0.06,0.51l-0.41,0.51l0.06,0.34l-0.19,0.07l-0.19,0.71l-0.03,0.34l0.16,0.03v0.17l-0.57,0.61l0.28,0.34l-0.98,0.48l0.03,0.65l-0.28,0.1l0.09,0.34l-0.44,0.2l-0.25,0.88l0.19,0.65l-0.5,0.82l-0.16,0.65l-0.31,0.31v0.34l-1.45,1.46l-0.13,0.48l-0.38,0.14l-0.47,0.51l-0.44,0.03l-0.25,0.24l-0.03,0.27l-0.32,0.07l-0.5,1.22l-0.06,1.09l-0.47,0.37l-0.25,1.16l-0.35,0.41l-0.06,0.34l-0.76,0.61l-0.25,1.02l-0.31,0.1l-0.31,1.02l-0.63,0.95l-0.72,0.07l-0.25,0.2l-0.44,0.78l0.1,0.54l-0.19,0.34l-0.41,0.14l-0.72,-0.41l-0.41,0.1l-0.09,0.27l-0.66,-0.03l-0.28,0.17l-0.57,-0.14l-0.09,0.41l-0.66,0.3l-0.22,0.41l-0.5,0.31l-0.5,0.65l-0.06,1.19l-0.35,0.41l-0.03,0.48l0.09,0.2l0.54,0.27l0.03,0.44l0.25,0.2l-0.1,0.31l0.66,1.6l0.19,1.36l-0.85,0.65l-0.38,-0.27l-0.25,0.07l-0.69,0.75l-0.41,1.9l-0.22,0.34l-0.41,0.1l0.22,0.68l0.44,-0.65l-0.54,1.19l-1.07,0.71l-0.63,0.14l-4.03,4.07l-0.82,0.27l-1.54,1.05h-0.63l-0.66,0.24l-1.92,1.29l-0.28,0.03l-1.83,1.87l-1.73,0.68l-0.54,0.37l-1.01,1.22l-1.1,2.61l-0.54,2.07l-0.32,3.76l-0.98,1.08l-0.31,0.1l-1.48,1.36l-0.76,1.42l-1.23,4.03l-0.88,2.17l-1.57,6.27l-0.19,0.07l0.06,0.27l-1.35,3.66l-0.88,1.63l-0.35,1.42l-0.79,1.39l-0.6,2.34l-0.06,0.88l-0.69,0.64l-0.57,1.69l-0.38,0.64l-0.35,2.94l-0.03,3.66l0.47,4.43l0.38,0.85l0.03,0.68l-0.32,0.3l-0.28,1.15l0.31,1.93l-0.16,0.44l-0.54,0.51l-0.03,0.61l0.13,1.15l0.25,0.68v0.64l-0.25,0.88l0.25,0.47l0.06,0.64l-0.28,0.74l0.6,0.71l-0.25,0.44l-1.1,0.84v0.24l0.54,2.13l0.32,0.41l1.2,0.44l-0.03,0.17l-0.44,0.2l-0.06,0.98l-0.76,0.95l-0.06,1.01l0.25,0.74l0.03,2.87l0.69,1.32l0.06,0.44l-1.26,0.95l-0.13,1.11l-0.6,0.44l-0.6,0.17v1.01l-0.16,0.47l-2.39,1.32l-1.32,0.07l0.19,0.2l-0.09,0.88l0.19,0.03l0.06,0.64l-0.57,1.82l0.16,1.38l0.66,1.38l-0.03,0.34l0.6,0.44l0.91,1.55l0.09,1.38l0.57,0.57l-0.22,0.27l-0.44,0.24h-0.95l-0.32,-0.2l-0.28,-0.4l-0.13,-0.57l0.06,-0.88l-1.2,-0.3l-0.5,-0.95l-0.88,-0.81l-0.35,-0.61l-1.1,0.24l-0.47,-0.24l-0.28,-0.67l-0.44,0.51l-0.28,-0.07l-0.19,-0.74l-0.88,-0.17l-0.69,0.13l-0.57,-0.64l-0.79,-0.3l-0.41,-0.74l-0.35,-0.2l-0.41,0.03l-0.13,0.24l-0.31,0.07l-0.13,0.37l-0.66,0.24l-0.19,0.27l-0.28,0.98l0.16,1.21h-0.25l-0.22,0.44l-0.32,0.14l-0.09,0.91l-1.39,0.13l-0.47,-0.37l-0.44,-0.78l-0.06,-0.84l-0.82,0.07l-0.13,-1.18l0.19,-0.78l0.03,-1.89l0.35,-0.61l0.03,-0.81l-0.28,-0.78l-0.54,-0.41l-0.25,-0.95l-0.76,-0.34l-0.63,-0.95l-0.19,-0.81l-0.66,-1.32l-0.09,-0.68l0.5,-1.05l0.85,-0.54l0.06,-0.2l-0.25,-0.07l-0.16,-0.57l0.31,-0.81l0.19,-0.13l0.66,0.07l0.31,-0.88l0.41,-0.3l-0.13,-0.1l-0.31,0.24l-0.03,-0.64l-0.38,-1.22l-0.35,-0.44l0.35,-0.41l0.54,-0.03l0.44,-0.27l0.22,-0.41l0.06,0.17l0.22,-0.07l0.09,-0.3l-0.22,-0.47l0.03,-0.95l-0.32,-0.41l-0.09,-0.74l-0.31,-0.54l0.06,-0.57l-0.88,-0.91l0.1,-0.71l-0.44,-0.14l-0.13,-0.2l-0.03,-0.51l0.31,-0.61l-0.44,-0.61l0.06,-0.91l-0.38,-1.05l-0.09,-1.05l-1.04,-2.27l0.28,-1.22l-0.57,-1.05l-0.41,-0.37l-0.28,-1.18l-0.47,-0.81l-1.32,-1.39l-1.1,-0.88l0.28,-1.73l-0.54,-1.69l-0.35,-0.51l-0.22,-2.1l-0.69,-1.18l-1.92,-2l-1.32,-1.08l-0.54,-0.95l-0.25,-0.88l-0.57,-0.85l-0.16,0.07l-0.28,-0.2l0.13,-0.3l-0.6,-0.68l-4.38,-3.22l-3.59,-1.83l0.06,-0.58l0.63,-1.22l-0.03,-0.58l-0.98,1.59l-0.5,0.34l-1.23,-0.85l-2.55,-1.29l-2.55,-1.76l-0.03,-0.17l0.66,-0.14l0.16,0.27l0.54,0.27l0.06,0.27l0.6,0.2l0.16,0.41l1.23,0.54l0.35,-0.34l0.25,-0.85l-0.41,-0.1l-0.13,-0.61l-0.54,0.03l-0.03,-0.61l-0.16,-0.17l-1.04,-0.13l0.03,0.24h-0.13l-0.31,-0.14v-0.34l-0.28,-0.07l-0.13,0.3l-0.35,0.24v0.47l-0.32,-0.03l-0.41,0.31l-1.57,-1.86l0.06,-0.2l-0.22,-0.03l0.13,-0.3l0.79,-0.17l-0.28,-0.34h-0.28l-0.6,0.44l-0.16,-0.71l-0.85,-0.41l-0.19,-0.24l-0.79,0.14l-0.22,0.27l-0.41,0.03l-1.57,-0.68l-2.83,-2l-1.26,-1.15l-0.47,0.07l-0.13,-0.51l-0.63,-0.68l-0.32,-0.14l0.03,-0.34l-0.41,-0.24l-0.19,-0.44l-0.22,0.03l-0.6,-0.85l-0.47,-0.03l-0.54,-0.64l-1.48,-1.09l0.38,-0.47l0.6,0.03l1.04,1.36H411l0.47,-0.24l0.88,0.58l0.22,-0.07l-1.45,-1.29l-0.06,-0.27l0.54,-0.41l0.06,-0.24l-1.1,0.71l-0.25,-0.24l1.01,-0.68l-0.03,-0.27l-1.16,0.71l-0.25,-0.37l0.57,-0.37l-0.16,-0.27l-0.88,0.54l-0.57,-0.64l-0.5,-0.81l0.31,0.24l0.44,-0.24l-0.41,-0.44l-0.44,0.3l-0.25,-0.17l-1.04,-1.53l-0.22,-0.07l-0.47,-0.61l-1.29,-2.44l0.03,-0.14l0.16,0.03l1.04,0.58l0.35,0.85l0.31,0.24l0.28,0.61l-0.31,-1.12l2.07,-1.15l-0.22,-4.82l0,0l-1.73,-7.26l0,0l-3.34,-3.93l-3.59,-1.27l-2.8,-6.77l-1.7,0.17l-0.19,-0.27l-0.06,-0.37l0.22,0.17l0.06,0.34l0.47,-0.07l-0.09,-0.68l0.54,-0.07l0.28,-0.34l-1.83,-5.44l0.38,-0.14l0.72,0.31l0.32,-0.31l0.16,-0.24l0.06,-0.88l0.41,-0.44l-0.35,-0.03l-0.03,-0.17l0.35,-0.03l0.06,-0.24l-0.63,-0.03l-0.38,0.31l0.25,0.65l-0.16,-0.2l-0.22,0.07l0.09,0.75l-0.66,0.17l0.13,-0.2l-0.16,-0.58l-0.28,0.03l0.19,0.85l-0.28,0.07l-1.95,-5.68l0.13,-0.41l1.07,-0.82l-1.17,0.78l-0.22,-0.14l0.22,-2.96l-0.38,-1.5l-1.13,-2.14l0.31,-0.34l0.63,0.44l-0.03,-0.37l0.47,-0.71l-0.03,-0.34l-0.31,-0.1l0.28,-0.44l-1.42,-0.1l-0.66,-0.44v-0.75l0.57,-0.14l0.25,-0.38l-0.85,0.41l-0.13,-0.17l0.35,-0.17l-0.38,0.07l-0.35,0.71l-0.31,-0.24l-0.22,0.17l1.61,1.36l0.5,0.99l-0.06,0.2l-0.35,0.07l-0.69,-1.26l-1.61,-1.63v-0.41l1.07,-0.82l-0.06,-0.14l-0.38,0.24l-0.54,-0.07l0.22,-0.82l0.47,-0.31l2.11,-0.48l0.66,-0.71l-0.22,-0.07l0.06,-0.31l-0.25,-0.1l-0.22,0.68l-0.25,-0.31l-0.16,0.03l0.22,0.75l-0.79,0.07l-0.69,0.27h-0.13l0.13,-0.2l-0.38,-0.85l-0.09,0.61l0.16,0.03l-0.41,0.07l-0.09,0.24l0.25,0.27l-0.28,0.17l0.03,-0.24l-0.22,-0.03l0.06,0.37l-0.44,0.34l0.1,0.27l-0.19,0.92l-0.22,0.03l-3.15,-2.76l0.28,-0.61l-0.35,0.37l-0.28,0.07l-2.61,-1.74l-1.83,-0.68l0.38,-1.09l-0.41,-0.31l-0.54,0.48l-0.57,0.24l-0.79,-1.26l0.13,-0.24l0.47,0.03l0.38,-0.17v-0.41l-0.35,-0.85l0.39,-0.17l-0.04,-0.27l-0.44,0.17l-0.22,-0.68l-1.73,0.03l-0.09,0.48l-0.6,-0.2l0.44,-2.35l-0.03,-0.92l1.83,-1.36l2.39,-1.19l0.91,-0.1l0.63,0.14l0.85,0.88l0.82,0.17l0.03,-0.2l-0.94,-0.2l-0.09,-0.58H383l-0.38,-0.65l0.13,-1.02l-0.28,-0.89l0.6,-0.99l-0.06,-2.21l-0.25,-0.31h-1.23l-0.35,-0.21l-0.28,-0.48l0.13,-0.65l-0.16,-0.07l1.32,-2.86l-0.5,-0.17l-0.35,-0.44l0.32,0.31l0.54,0.17l0.16,-0.27l0.03,-0.55l-0.85,0.03l0.63,-0.07l0.28,-0.2l0.13,-2.15l0.25,0.03l-0.13,1.09l0.63,0.14l0.16,0.68l0.35,-0.1l0.09,-0.65l0.38,0.34l0.91,-0.37l0.54,0.07l0.35,-0.24l1.54,0.14l0.41,-0.24l-4.22,-0.2l-0.09,-0.92l-0.41,-0.31l0.03,-0.14l0.22,0.1l0.5,-0.1l0.25,-0.34v-0.44l0.57,-0.44l0.06,-0.34h0.28l0.35,-0.31l-0.03,-0.58l-0.22,0.31h-0.19v-1.02l0.35,-0.41l0.47,-0.07l0.54,-0.44v-0.17l-0.32,-0.03l-1.1,0.78h-0.5l-0.41,-0.27l-0.38,-0.75l0.28,-2.11l0.19,-0.07l0.22,0.17l0.25,-0.2l0.98,0.07l0.06,-0.61l-0.66,0.03l-0.03,-0.44l0.66,-1.02l0.41,-1.88l0.25,-0.03l0.66,0.55l0.66,0.1l1.26,-0.41l0.79,0.61l0.5,0.83l1.04,1.05l-1.54,-2.08l-0.79,-0.48l-1.23,0.1l-0.66,-0.31l-0.22,-0.44h0.35l-0.13,-0.65l-0.25,0.38h-0.19l0.38,-0.55l0.69,-0.03l-0.13,-0.48l-0.35,0.17l-0.03,-0.38l-0.28,-0.14l1.04,-1.84l-0.25,-0.07l-0.28,0.24l-0.91,1.64l-0.06,-0.14l1.1,-1.88l0.19,-0.75l0.85,-0.58l-0.79,-0.17l1.17,-0.07l-0.09,0.27l-0.22,0.03l0.09,0.24l-0.16,0.34l-0.82,0.72l0.57,0.2l0.38,-0.58l-0.03,0.24l0.19,0.17h0.38v0.85l0.19,-0.14l0.06,-0.31l-0.13,-0.14l0.16,-0.2l0.54,0.44l0.22,0.58l1.1,0.48l0.19,0.48l0.69,-0.07l0.5,0.14l0.38,-0.61l0.38,-0.2l0.09,0.31l-0.25,-0.07l0.03,0.2l-0.66,0.65l0.22,0.38l0.38,0.14l-0.28,-0.38l0.19,-0.2l0.22,0.68h0.13v-0.24l0.19,0.1l0.03,0.2l-0.32,0.1l-0.13,0.24l0.28,0.89l0.63,-0.24l0.19,-0.24l-0.6,-1.09l0.28,-0.24h-0.19l0.03,-0.14l0.38,-0.24l0.06,-0.78l-0.31,-0.58h-0.19l-0.19,0.34l-0.38,0.03l-0.16,-0.14v-0.65l0.19,-0.24l-0.19,-0.55l0.22,-0.2l-0.38,-0.96l-1.13,-0.41l-0.57,0.17l-1.45,-0.17l-0.03,-0.17l-0.38,-0.14l-0.6,0.03l-0.25,0.51l-0.85,0.03l0.03,-1.19h-0.47l-0.13,0.17l-0.13,-0.1l0.22,-0.2l0.59,-0.03l2.71,0.07l0.54,-0.51l0.32,-0.68l-0.35,-1.23l-0.09,-0.1l-0.54,0.1l-0.13,0.48l-0.25,0.14l-0.22,-0.72l0.06,-2.32l0.5,-0.27l0.09,-1.06l0.28,-0.1l0.09,-0.31v-0.31l-0.16,0.1l0.06,-0.27l-0.22,-0.24l0.16,0.03l0.09,-0.17h-0.25v-0.24h-0.25l0.28,-0.24l0.54,0.58l0.28,-0.24l0.35,0.38l0.47,0.03l0.85,-0.44l0.19,-0.55l0.03,-1.67l-0.13,-0.03l-0.25,0.27l0.03,0.68l-0.38,1.09l-0.79,0.1l-0.47,-0.41l-0.35,-0.58l-0.57,-0.17l-1.7,0.89l-0.03,-0.27l-0.16,-0.03v0.17l-0.19,0.03l0.19,0.24l-0.31,0.1l-0.19,-0.41l0.06,-0.31l0.57,-0.58l0.5,-0.17l0.44,0.07l0.22,-0.58l0.25,-0.14l0.06,-0.41l-0.28,0.24l0.22,-0.51l-0.47,0.68l-0.35,-0.24l-0.03,-0.41l0.16,-0.44l1.13,-1.3l0.09,-0.48l-0.19,-0.1v-0.21l1.67,-0.1l-1.92,-0.24l-2.11,0.72l-0.88,0.03l-0.63,-0.55l-0.22,-1.13l0.03,-1.78l0.31,-0.55l0.72,-0.07l1.2,0.31l0.88,-0.14l-0.06,-0.85l0.35,0.03l0.22,-0.48l-0.16,-0.55l0.25,-0.1l-0.98,-0.75l-0.44,-1.13l0.13,-0.75l-0.09,-0.65l0.31,-0.34l0.13,-0.48v-0.44l-0.32,-0.17l-0.03,-0.34l0.1,-1.81l0.09,-0.31l0.85,-0.55l-0.25,-0.03l0.19,-0.58h-0.22l-0.22,0.58h-0.47l0.06,-2.8l-0.16,-0.44l0.28,-2.02l0.16,-0.03l0.72,-1.3l0.57,-1.98l0.35,-0.48l0.57,-1.47l1.76,-2.12l0.31,-0.03l0.41,0.41l0.32,-0.14v-0.41l-1.32,-0.27l-0.38,0.14l-0.41,-0.31l0.19,-1.92l-0.47,-0.07l-0.09,0.31l-0.09,-0.27h-0.25l0.25,-0.1l-0.06,-0.24l-0.19,-0.07v-0.51l0.44,-0.68l0.22,0.03l-0.03,0.17l-0.19,-0.07l-0.35,0.72l0.38,0.14v0.41l0.47,0.14l0.19,-1.54l0.09,-0.38l0.22,-0.1l-0.13,-0.44l0.28,-0.75l0.72,0.03v-0.82h-0.44l-0.22,-0.44l-0.91,0.03l-0.63,-1.3l-0.19,-0.79l0.13,-0.41v0.65l0.66,1.68l0.6,0.07l-0.09,-0.1l0.5,-0.92l-0.32,-0.27l0.06,-0.48l0.28,-0.17l0.28,-0.82l0.41,-0.1l0.57,-1.23l-0.22,-0.17l-0.5,0.65l-0.38,-0.17l0.35,-0.65l0.31,0.21l0.16,-0.41l-0.35,-0.51l-0.5,0.38l-0.54,-0.31l0.03,0.17l-0.63,0.61l-0.25,0.07l0.1,-0.21l-0.16,-0.03l-0.72,1.16l-0.03,-0.24l0.63,-1.03l1.07,-0.86l-0.09,-0.17l-0.5,-0.1l0.06,-0.21l1.01,0.27l0.57,-0.62l1.64,-0.99l0.75,-0.79l0.28,0.03l0.13,0.62l0.54,0.24l0.09,-0.17l0.22,0.07l0.28,0.27l-0.16,0.27l0.47,0.24l0.38,-0.79l0.6,0.17l0.69,-0.21l-0.03,-0.17l-0.95,-0.27l0.06,-0.21l2.39,0.31l0.35,-0.82l0.09,-0.82l1.1,0.14l-0.41,0.07l-0.06,0.27l0.6,0.38l1.07,-0.34l0.03,-0.75l-0.35,-0.55l-1.26,-0.72l0.31,-0.38v-0.34l-1.35,-0.58l0.13,-0.45l0.31,-0.1l0.47,0.24l0.35,-1.16l0.31,0.41l0.41,-0.38l0.47,0.03l0.41,0.24l1.2,-0.99l0.22,-0.79l0.69,-0.92l0.28,-1.06l0.95,-1.34l0.98,-2.53l0.5,-0.86l-1.39,-0.31l-0.25,-0.31l1.73,-2.91l0.32,-0.38h0.22l-0.13,-0.48l0.79,-2.19l0.28,-0.21l1.48,-0.03l0.13,0.14l0.22,-0.14l-0.09,-0.41l0.22,-1.23l0.47,-0.69l0.6,-1.44l1.1,-1.44l0.25,-0.89l0.31,-0.03l2.83,-1.71l0.44,0.17l-0.09,0.48l0.09,0.62l0.13,0.03l-0.03,-1.37l0.38,-0.24l-0.06,-0.69l0.22,-0.58l0.35,-0.69l0.44,-0.03l0.44,-1.2l0.22,-0.17l-0.03,-0.27l-0.41,-0.24l-0.13,-0.41l0.76,-0.38l0.22,-0.34l-0.54,0.45l-0.69,-0.1l-0.35,0.51l-0.79,-0.14l-0.09,-0.24l0.13,-0.55l0.57,0.03l0.66,-0.82l0.06,-0.24l-0.13,-0.1l-0.09,0.41l-0.41,0.45l-1.01,0.1l-0.16,0.17l-0.09,0.31l0.22,0.07l-0.06,0.24l-1.98,0.14l-0.38,-0.21l0.03,-0.38l2.68,-3.67l1.07,0.1l0.06,-0.24l0.19,0.17l0.16,-0.07l0.19,-1.06l0.66,-0.86l-0.54,-0.51l1.26,-1.65l0.57,-0.1l1.57,0.17l0.57,-0.21l0.25,0.14l-0.03,0.38l-2.08,2.71l-0.13,0.96l0.22,0.03l0.06,-0.96l2.27,-2.85v-0.27l0.22,-0.27l0.41,-0.03l-0.06,-0.31l0.25,-0.14l-0.47,-0.21l-0.03,-0.24l0.82,-1.06h0.19l0.41,-0.69l0.54,-0.45l0.44,-1.13l0.98,0.52l0.32,-0.31l-0.03,-0.69l-0.25,-0.03l-0.91,-0.86l-0.19,0.1l-0.19,-0.27l-0.66,-0.17v-0.14l-0.35,0.03l-0.09,-0.17l-0.25,0.03l-0.88,-0.55l0.91,0.24l1.07,-3.02l0.54,0.07l0.6,-1.44l0.13,-0.55l-0.32,-0.34h0.22l0.13,-0.21l0.5,-1.37l0.72,0.17l0.85,-1.92h0.13l0.1,0.17l0.19,-0.03l0.09,0.38l-0.35,0.34l-0.16,1.34l-0.38,0.86l-0.63,1.24l-0.47,-0.1l-0.13,-0.17h-0.38l-1.23,3.54l0.35,0.17l0.25,-0.1v-0.45l0.25,-0.14l0.57,-1.55l0.54,0.17l0.25,0.69l0.44,0.35l0.22,-0.69l-0.25,-0.21l-0.16,-0.62l1.13,-2.71l-0.03,-0.24l0.13,-0.03l0.44,-1.44l0.6,0.21l0.19,0.34l-0.54,0.69l0.09,0.52l-0.22,0.31l0.25,0.14l0.57,-0.72l-0.09,-0.41l0.25,-0.51l-0.03,-0.45l-0.35,-0.45l0.66,-0.52h0.25l0.09,0.24l0.5,-0.1l0.16,-0.34v-0.27l-0.38,0.21l-0.63,0.14l-0.28,-0.1l-0.25,0.17l-0.72,-0.1l-0.22,-0.17l0.03,-0.38l0.95,-0.1l-0.79,-0.28l0.82,-1.72l0.25,-0.45l0.57,0.45l0.25,-0.07l0.13,-0.24l1.17,0.58l0.13,0.58l0.06,-0.72l0.32,-0.21l0.09,-0.34l-0.06,-0.52l0.22,-0.58l-0.13,-0.48l0.16,-0.31l-0.31,-0.41l0.19,-0.69l0.25,-0.31l0.13,0.21l0.25,-0.14l0.25,-0.48l0.19,-0.07l0.06,-0.55l1.58,-1.51l0.57,-1l-0.19,-0.76l0.25,-0.07l0.28,-0.48l0.19,-0.93l0.54,-0.76l-0.03,-0.48l0.25,-0.48l-0.09,-0.41l0.41,-0.03l-0.03,-0.27h-0.22l0.06,-0.21l0.44,-0.55l0.35,-0.07l0.13,-0.38l0.38,-0.38l0.47,-0.31l0.54,-1h0.41l0.63,-1.65l0.72,-0.55l0.57,-0.1l0.13,-0.34h0.28l0.32,-0.45l0.38,-0.17l0.38,-0.55l0.06,-0.52l0.47,-0.21l-0.03,0.34l0.38,-0.03l0.25,-0.76l-0.22,-0.1l-0.31,0.38l0.13,-0.55l0.32,-0.03l0.72,-0.72l0.31,-0.55l-0.03,-0.52l0.44,-0.14l-0.25,-0.55l0.54,-0.58l0.13,0.03v-0.69l0.25,-0.14l0.69,-1.51l0.69,-0.9l0.69,-1.93l-0.09,-0.24l0.19,-0.17l0.35,-1.17l0.6,-1.38l0.19,-0.1l0.69,-1.86l0.09,-0.96l0.66,-1.58l0.85,-1.27l0.35,-0.31l0.69,-0.03l0.35,-0.34h0.25l0.88,0.55l0.28,-0.38l0.85,-0.38l0.82,0.28l0.75,0.58l1.26,-0.24l0.09,-0.14l-0.82,0.03l-1.48,-1.52l-0.28,0.03l-0.13,-0.14l-0.38,0.31l0.16,-0.59l0.6,-0.9l0.03,-0.9l1.13,-1.17l-0.16,-0.34h0.31l0.32,-0.24l0.72,-1.1l1.61,-0.14l1.42,-0.41l0.44,0.07l0.25,-0.21l1.89,-0.03v-1.03l2.52,-2.21l0.22,-0.24l0.09,-0.59l0.44,0.1l-0.06,-0.41l0.28,-0.48l0.06,-0.9l0.47,-1.24l2.24,-1.83l0.32,0.03l0.75,-0.31l0.88,-0.69l0.28,-0.76l-0.03,-1.35l0.69,-0.03l0.25,-0.55l0.06,-1.1l0.13,-0.1l-0.19,-0.62l0.32,-1.07l-0.22,-1.72l0.28,-0.03l-0.2,-0.52l-0.72,0.17l-0.44,-0.86l0.91,-2.04l0.63,-0.72l0.03,-0.72l-0.13,-0.21l0.19,-0.14l0.38,0.31l0.13,-0.35l-0.1,-0.17l0.16,0.03l0.03,-0.17h-0.38v-0.17l0.16,-0.17l0.5,0.07l0.22,0.14l0.31,0.83l0.32,-0.03l-0.09,-0.52l0.19,-0.07l0.22,0.76l1.29,0.59l-1.17,-0.9l0.09,-0.48l-0.28,-0.17l-0.09,-0.28l0.06,-0.14l0.54,0.14l0.06,-0.38l0.28,-0.17l1.07,-0.07l-0.76,-0.21l-1.01,0.24l0.06,-0.14l-0.19,-0.1l1.1,-1.66l0.85,-2.31l0.47,-0.41l0.82,-1.28l0.19,-0.04l-0.28,-0.55l0.28,-1.1l1.57,-2.14l0.54,-0.21v-0.86l0.25,-0.38l0.91,-0.48l0.94,-1.49l0.98,-0.96l0.28,-0.97l0.03,-0.9l-0.16,-0.41l0.5,-0.52l0.41,-1.31l1.42,-1.59l-0.16,-0.03l-0.38,0.41l0.44,-0.86l0.66,-0.52v-0.21l0.47,-0.38l0.57,-0.83l1.35,-0.73l0.82,-0.07l0.57,-0.24l3.31,-2.59l0.72,-0.1l0.73,-0.45l0.35,0.07l0.19,-0.21l1.64,-0.31l0.91,-0.41l0.91,0.03l1.7,-0.87l0.72,-0.1l0.69,-0.79l0.72,-0.35l0.38,0.03l0.85,-0.73l1.89,-1.14l1.1,-0.31l0.95,-0.07l0.32,-0.42l0.6,0.28l0.28,-0.03l0.25,-0.35v-0.14l-0.41,-0.03l0.16,-0.31l0.94,0.14l0.03,-0.28l0.35,0.07l0.73,-0.24l0.69,0.17l0.09,0.38l0.28,0.07l2.3,-0.03l0.85,-0.48l0.22,-0.31l0.63,0.24l0.03,-0.48l0.63,-0.03l0.13,0.52l0.98,0.1l0.44,-0.31l0.88,-0.07l2.08,-0.69l0.19,-0.24l0.38,0.04l0.28,-0.35l0.13,0.14l1.32,-0.59l0.25,-0.42l1.95,-0.66l-0.16,-0.69l-0.44,-0.45l0.57,0.42l0.6,-0.48l0.06,-0.42l0.28,-0.35l-0.76,-0.83l1.29,1.21l0.44,-0.24l0.91,-0.94l0.22,-0.1l0.44,0.1l0.09,-0.9l-0.35,-0.55l-1.35,-0.24l-0.09,-0.14l0.35,-0.45l0.91,-0.14l0.35,-0.38v-0.17l-0.41,-0.24l0.41,-0.86l0.47,-0.1l1.2,-1.66l0.41,-0.07l0.32,-0.38v-0.97l0.63,-0.45l-0.16,-0.59l0.5,-0.73l0.16,-0.83l0.28,-0.38l0.44,-0.14l0.35,0.45l0.57,-0.03l0.44,-0.24l0.57,-0.45l0.25,-0.76l0.28,-0.21l-0.03,-0.55l0.57,-0.52h0.35l1.54,-0.9l0.35,0.07l0.22,-0.28l0.6,-0.28l-0.19,-0.9l0.09,-0.21l0.25,-0.07l0.22,0.69l0.47,0.28l0.38,-0.1l0.1,-0.31l0.35,0.03l0.25,0.24l0.47,-0.48h0.25l0.22,-0.48l-0.19,-0.07l-0.06,-0.35l0.38,-0.55H547.29zM536.83,169.64L536.83,169.64l-3.04,4.99l0.19,6.03l0,0l4.4,1.12l7.56,-2.63l5.8,-5.18l3.36,-4.5l-1.32,-5.01l-3.1,-5.71l-4.83,-1.85l-6.15,2.98l0.99,3.28l-1.64,1.5L536.83,169.64z"/>
		<path id="TW-KH" title="Kaohsiung" class="land" d="M403.59,451.63l-3.52,-1.25l0.72,1.43l0.03,0.41l0.57,1.29l0.13,0.17l0.19,-0.07l0.03,-0.2l0.19,0.13l-0.28,0.37l1.04,2.68l0.03,0.41l-0.31,0.24l0.66,-0.14l-0.25,-0.48l0.19,-0.54l0.28,-0.2l-0.06,-0.17l-0.22,0.03l0.09,-0.13l0.44,-0.07l0.57,0.34v0.58l-0.38,0.14v0.41l0.38,0.04l-0.41,0.1l0.19,0.24l0.06,0.51l-0.16,0.2l0.09,0.44l-0.19,0.14v0.24h-0.35l-0.19,-1.05l-0.47,0.03v0.17l0.22,0.03l0.19,1.05l-0.13,0.1v0.64l-0.6,0.54l-0.31,0.03l-0.66,0.78l-0.13,1.46l0.69,1.8l0.6,0.54l0.32,0.71l-0.22,0.41l0.38,0.13l0.16,0.54l1.13,-0.2l1.35,0.61l0.06,-0.41l0.22,-0.14l0.09,0.27l-0.22,0.37l0.5,0.17l0.47,1.26l2.07,-1.15l-0.22,-4.82l0,0l-1.73,-7.26L403.59,451.63z"/>
		<path id="TW-FK" title="Fukien" class="land" d="M163.89,249.71l0.28,0.34l0.5,-0.03l-0.66,0.28l-0.19,-0.21l-0.19,0.03l-0.03,-0.21l-0.19,0.03L163.89,249.71zM164.52,248.09l0.44,0.14v0.17l-0.25,0.14l0.16,0.34l0.28,0.17h0.69l-0.06,0.34l-0.66,0.17l-0.31,-0.34l-0.35,0.03l0.22,-0.21l-0.03,-0.28l-0.5,-0.41L164.52,248.09zM168.27,247.85l0.06,0.34l-0.38,-0.1l0.13,-0.24H168.27zM174.38,240.94l0.57,0.17l1.04,0.96l0.69,0.14l-0.19,0.96l-0.41,0.34l0.22,0.1v0.48l-0.25,0.27l0.28,0.03l-0.28,0.31l0.03,0.24l-0.32,-0.07l-0.09,-0.28l-0.88,-0.07l-0.66,0.69v0.35l0.28,-0.07l-0.19,0.38l-0.63,0.38v-0.38l-0.53,-0.1l-0.57,0.34l-0.57,0.86h-0.25l-0.35,-0.55l-0.79,0.03l-0.35,-0.38l0.31,0.1l0.38,-0.45l0.19,0.07l0.13,-0.41l-0.38,-1.03l0.91,-0.07l0.19,-0.2l0.41,-2.41l0.44,-0.27l0.73,0.03l0.13,-0.24L174.38,240.94zM192.67,231.58l-0.13,0.31l0.31,-0.03l0.16,0.38l0.35,0l-0.1,-0.21l0.31,-0.24l0.76,0.31l0.35,-0.03l-0.16,0.37l0.22,0.15l0.03,0.62l0.47,0.9l0.32,-0.07l0.22,0.17l0.76,-0.21l0.76,0.38l-0.03,0.21l-0.22,-0.03l-0.13,0.69l0.28,0.58l0.47,0.07l-0.09,0.52l0.19,0.72l0.66,0.86l0.31,-0.41l0.28,0.21l-0.06,0.34l-0.16,0.21l-0.22,-0.1l-0.09,0.31l0.13,2.06l0.63,0.76l0.6,-0.28l0.13,0.65l-0.5,0.38l0.13,0.34l-0.16,0.14l-0.16,0.03v-0.24l-0.38,0.07l-0.57,0.62l0.41,0.83l0.03,0.38l-0.16,0.28l-0.28,0.07l-0.28,-0.21l-0.28,0.21l-0.09,0.45l0.28,0.28l-0.44,0.41l-0.6,0.1l-1.32,0.82l-0.94,0.1l-0.06,-0.28l0.69,-0.03l-0.03,-0.45l0.28,-0.27l-0.66,-1.03l-1.29,-0.55l-0.47,0.1l-1.54,-1.07l-1.67,0.1l-1.76,0.52l-1.61,0.72l-0.72,0.58l-1.54,2.03l-0.5,1.48l0.03,0.48l-0.38,0.14l-0.41,-0.14l-0.13,0.28l-0.41,0l-0.09,-0.28l-0.22,0.03l-0.16,-0.21l-0.79,-0.03l-0.38,-0.82l-1.1,0.03l0.12,-0.28h-0.12l-0.03,-0.27l-0.25,-0.03l-0.28,-0.48l-0.69,-0.38l0.06,-0.21l-0.5,-0.1v-0.24l-0.41,-0.24l0.47,-0.34h0.35l0.19,0.24l0.57,-0.21l0.06,0.24l0.41,0.17l0.6,-0.31l-0.03,-0.31l0.19,-0.28l-0.13,-0.58l0.47,-0.21l0.57,0.1l-0.06,-1.89l-0.28,-0.93l-0.47,-0.69l-0.13,-0.62l0.28,-0.79l0.72,-0.14v-0.48l-0.32,-0.24l-0.22,0.27l-0.95,0.04v0.31l0.28,0.31l-0.38,0.03l-0.47,-0.38l-0.03,-0.38l-0.28,-0.17l0.35,-0.83l0.31,-0.24l0.5,0l0.32,-0.65l0.41,-0.21h0.44v-0.24l0.22,-0.1l0.88,0.48l2.08,1.89l1.1,0.48l0.35,0.34l0.38,-0.07l1.51,0.55l1.39,-0.17l-0.03,-0.17l0.54,-0.58l0.16,-1.14l-0.72,-0.79l0.76,0.1l0.28,-0.14l-0.13,-0.17l0.28,-0.34l0.41,-0.14l-0.06,-0.21l0.28,-0.24l-0.19,-0.52l-0.25,-0.14l0.28,-0.21v-0.79l-0.22,-0.48l1.26,-0.21l0.28,-0.45l0.63,-0.14l-0.03,-0.52l-0.19,-0.17l0.06,-0.34l-0.38,-0.34l0.22,-0.24L192.67,231.58zM313.31,174.95l0.5,0.41l-0.03,0.21l-0.38,0.07l0.03,0.28l-0.32,-0.1l0.06,-0.38l-0.32,0.14l-0.13,-0.14v0.17l-0.44,-0.14l0.16,-0.21l0.19,0.07l0.09,-0.21L313.31,174.95zM310.54,173.47l0.13,0.28l0.66,0.17l0.06,0.76l0.19,0.03v0.14l-0.32,0.07l-0.38,-0.17l-0.03,-0.17l-0.54,-0.31l-0.19,-0.62L310.54,173.47zM370.25,51.17l0.19,0.35l-0.25,0.52l0.57,0.14l0.06,0.17l0.22,-0.11l0.09,-0.35h0.57l0.13,0.17l-0.54,0.66l-0.06,0.38l-0.6,0.17l-0.09,0.59l-0.22,-0.04l-0.34,0.28l-0.19,-0.31l-0.98,0.94l-0.25,-0.35l0.5,-0.77l-0.19,-0.21l0.28,0.07l0.5,-0.59l0.03,-0.49L370.25,51.17zM364.17,50.92l0.03,0.28l-0.22,0.04l-0.16,0.24L364.17,50.92zM366.78,50.36l0.03,0.21l0.47,0.17l-0.06,0.21l-0.63,0.69l-0.54,-0.03l-0.31,0.66l-0.22,0.07l-0.16,-0.07l-0.06,-0.35l-0.47,-0.03v-0.24l-0.25,-0.17l-0.32,-0.66l0.32,-0.28l0.88,0.11L366.78,50.36zM363.67,26.27l0.22,0.04l0.32,0.42l0.69,-0.04l-0.03,0.28l-0.25,-0.04l0.03,0.28l-0.25,0.35l-0.1,0.52h0.66l0.19,-0.17l-0.09,0.42l0.19,0.1l0.32,-0.18l-0.03,0.42l0.19,0.35l0.19,0v-0.28l0.25,-0.31l0.41,0.04v-0.38l-0.38,-0.24h0.47l0.5,-0.59l0.38,-0.11l0.25,0.42l0.38,-0.42l0.32,-0.07l0.25,0.21l0.63,-0.14l-0.38,0.17l-0.22,0.38l-0.06,0.66l-0.35,0.1l-0.16,0.59l-0.25,0.28l-0.16,0l-0.31,-0.59l-0.35,0.42l0.03,0.38l-0.25,0.03l-0.38,0.63l-0.6,0.11l-0.06,-0.38h-0.16l-0.82,0.56l0.16,0.25l-0.28,-0.04l-0.38,0.28l-0.13,-0.1l0.03,-0.42l-0.75,0.11l-0.44,-0.18v-0.35l-0.25,0.1l-0.19,-0.1l0.16,-0.52l0.47,-0.42l0.31,-0.59l-0.13,-0.31l-0.38,-0.04l0.22,-0.24l0.22,0l0.22,-0.46v-0.24L363.42,27v-0.49l0.09,-0.24H363.67zM370.03,23.79l0.22,0.07l-0.13,0.28l-0.22,-0.07L370.03,23.79zM373.02,18.31l0.22,0.45l0.47,0.1l-0.06,0.38l0.16,0.38l0.35,-0.1l0.57,0.1l-0.09,0.7l-0.41,0.31l0.25,0.24l0.03,0.42l0.35,0.03l-0.28,0.28l0.09,0.24l-0.32,0.17l-0.16,-0.07l0.06,-0.56L374,21.28l-0.06,-0.42l-0.32,-0.17l-0.06,-0.59l-0.44,0.56v-0.38h-0.28l-0.19,0.63l-0.44,-0.07l-0.31,0.52l-0.16,-0.07l0.03,-0.42l-0.6,-0.07l-0.72,0.49l-0.28,-0.11l-0.25,0.24l-0.09,0.91l0.13,0.63l-0.13,0.35l0.19,0.14v0.25l-0.13,0.17l-0.66,0.07l-0.09,-1.15l0.22,-0.28l-0.19,-0.28l0.19,0l0.35,-0.52l-0.41,-1.19l0.5,0.07l0.38,-0.45l0.47,-0.24l0.38,0.17l1.04,-1.01l0.13,-0.45l0.25,-0.24L373.02,18.31zM374.12,16.11l0.09,0.17h0.41l-0.06,0.28l-0.75,0.14l-0.19,0.56l-0.25,0.07l-0.06,0.25h-0.25l-0.5,0.35l-0.1,-0.25l0.35,-0.77l0.28,0.1l0.19,-0.35l0.28,0.14l0.35,-0.35l0.03,-0.28L374.12,16.11zM371.92,12.55l0.19,0.18l-0.41,0.56l0.38,-0.11l-0.13,0.28l0.19,0.24l-0.41,0.31l0.16,0.45l-0.5,0.35h-0.6l-0.22,-0.84l0.57,-0.14v-0.35l-0.22,-0.03l-0.03,-0.21l0.25,-0.25l0.25,0.07l0.06,-0.42L371.92,12.55zM399,4.54l0.06,0.35l-0.63,0.8l-0.32,0.1l-0.28,0.39l-0.69,0.04l0.09,-0.18l0.38,-0.07l0.28,-0.7h0.25l0.22,-0.35L399,4.54zM427.44,0l0.06,0.45l0.22,-0.04l0.03,0.25h0.13v0.28l-0.28,0.31l0.06,0.31l0.31,0.14l0.25,-0.03V1.5l0.5,0.14l-0.03,-0.45l0.22,-0.35l0.32,-0.17l0.41,0.04v0.59l0.31,0.21l0.44,-0.18l0.47,0.73l0.06,0.42l-0.25,0.04l-0.22,-0.21l-0.31,0.07l-0.13,-0.35h-0.19l-0.06,0.56l-0.47,0.31l-0.19,0.52l-0.25,0.07V3.25l-0.47,0.14l-0.31,-0.21l0.16,0.24l-0.06,0.21h-0.32l-0.35,-0.42l0.25,-0.31l-0.16,-0.52l0.28,0.07l0.19,-0.21l-0.19,-0.46h-0.38l-0.28,0.32l-0.16,-0.04V0.77l-0.38,0.28l-0.34,0.66l-0.25,-0.17l0.16,-0.32l-0.16,-0.38l0.6,-0.28L426.65,0l0.35,0.07v0.14L427.44,0z"/>
	</g>
</svg>