<?xml version="1.0" encoding="utf-8"?>
<!-- (c) ammap.com | SVG map of Uzebekistan - Low -->
<svg xmlns="http://www.w3.org/2000/svg" xmlns:amcharts="http://amcharts.com/ammap" xmlns:xlink="http://www.w3.org/1999/xlink" version="1.1">
	<defs>
		<style type="text/css">
			.land
			{
				fill: #CCCCCC;
				fill-opacity: 1;
				stroke:white;
				stroke-opacity: 1;
				stroke-width:0.5;
			}
			.water
			{
				fill: #CCCCCC;
				fill-opacity: 1;
				stroke:white;
				stroke-opacity: 1;
				stroke-width:0.5;
			}
		</style>

		<amcharts:ammap projection="mercator" leftLongitude="55.997099" topLatitude="45.594337" rightLongitude="73.133286" bottomLatitude="37.176101"></amcharts:ammap>

		<!-- All areas are listed in the line below. You can use this list in your script. -->
		<!--{id:"UZ-AS"},{id:"TJ-SU"},{id:"UZ-AN"},{id:"UZ-BU"},{id:"UZ-FA"},{id:"UZ-JI"},{id:"UZ-NG"},{id:"UZ-NW"},{id:"UZ-QA"},{id:"UZ-QR"},{id:"UZ-SA"},{id:"UZ-SI"},{id:"UZ-SU"},{id:"UZ-TK"},{id:"UZ-TO"},{id:"UZ-XO"}-->

	</defs>
	<g>
		<path id="UZ-AS" title="Aral Sea" class="water" d="M134.18,8.27L130.78,14.69L129.78,18.12L129.17,21.94L131.19,24.76L132.19,27.78L126.15,37.84L128.37,36.84L129.98,34.82L131.39,33.82L137.63,35.02L137.83,38.25L135.01,38.65L134.81,46.9L132.8,45.89L130.99,46.3L129.17,48.31L129.78,50.73L133,53.34L136.02,55.15L135.01,58.38L135.01,62.4L133.6,65.42L130.78,66.43L128.97,65.42L127.77,62.6L126.15,62.6L126.15,66.02L127.36,67.63L127.97,77.9L130.99,79.71L133.2,77.3L135.62,73.07L137.43,69.04L139.84,67.63L142.86,69.24L145.28,68.44L144.47,65.62L143.26,63L142.46,58.38L143.06,55.76L144.47,54.35L148.5,54.15L149.5,49.92L152.32,43.88L155.54,38.45L157.56,32.61L157.2,24.88L157.2,24.88L213.98,65.87L213.98,65.87L210.09,66.23L211.1,68.24L212.71,69.65L213.72,71.06L212.91,74.88L210.09,79.91L205.46,84.54L199.22,89.58L197.61,93L198.62,94.81L197.41,96.62L193.99,96.62L193.39,99.24L181.51,103.67L176.48,104.67L172.85,103.46L167.02,104.87L163.39,102.46L159.77,104.67L149.3,103.87L146.28,103.46L143.67,101.25L138.43,100.45L136.62,98.63L134.41,97.63L133.4,94L136.22,92.19L138.03,89.98L137.23,86.35L135.62,85.35L126.15,88.97L123.74,88.77L122.13,89.17L121.12,91.19L119.11,90.58L116.49,88.57L113.47,88.37L106.43,85.35L104.21,82.73L102,77.5L101.6,72.26L104.62,63.81L105.02,61.19L101.8,54.75L101.6,48.71L102,44.08L104.01,38.65L107.03,33.82L108.24,28.18L110.86,25.56L111.06,19.73L113.07,16.51L116.9,13.08L117.1,8.25L118.71,5.03L118.88,1.48L118.88,1.48L122.73z"/>
		<path id="TJ-SU" title="Sarvan (Sughd Province, Tajikistan)" class="land" d="M674.95,290.93L673.75,290.41L673.02,291.07L673.21,291.74L674.22,291.77L675.44,292.67L678.62,296.98L678.82,296.63L678.18,295.05L678.18,295.05L676.46,292.7z"/>
		<path id="UZ-AN" title="Andijon" class="land" d="M750.1,321.55L749.99,317.94L749.68,317.1L743.42,315.37L742.85,315.54L733.6,313.97L730.74,309.86L727.72,308.3L723.56,307.7L723.36,309.15L720.33,304.67L720.33,304.67L722.23,303.46L720.03,300.79L723.25,298.09L731.84,295.9L735.52,295.93L736.82,296.75L741.61,297.64L746.49,297.2L747.42,296.48L748.68,290.61L748.68,290.61L749.59,290.75L753.2,289.22L755.55,287.06L756.24,286.99L758.68,288.2L762.66,289.05L762.82,290.87L762.01,292.61L762.34,292.81L763.03,292.04L763.74,292.25L766.06,295.59L766.26,297.59L769.56,299.14L771.13,299.72L771.68,299.52L773.5,299.81L775.36,299.22L776.04,299.43L778.97,298.89L779.79,299.34L781.31,301.01L781.86,302.21L783.03,302.33L784.91,300.97L785.84,300.74L784.76,299.31L785.19,297.89L785.85,297.67L786.86,299.13L788.89,300.09L789.84,299.57L791.34,299.64L791.77,300.02L792,300.99L791.57,302.73L790.69,303.65L787.81,304.86L786.15,305.1L784.36,306.77L779.89,308.89L778.89,309.85L777.35,310.35L775.43,310.31L775.07,310.99L775.62,312.23L774.78,313.26L774.89,317.07L774.24,317.28L772.76,316L771.26,315.66L770.89,316.79L769.88,317.66L769.67,319.06L769.09,320.13L768,320.25L766.61,319.13L765.14,319.06L763.03,317.63L762.14,317.88L760.22,315.21L758.43,313.85L757.45,314.28L756.35,314.29L755.95,314.83L756.1,315.11L757.22,315.49L758,316.83L759.05,317.15L759.46,317.71L759.07,318.66L758.04,318.76L757.6,319.46L757.74,319.91L758.82,319.8L759.08,320.17L759.31,321.64L760.04,322.92L758.9,325.59L759.18,326.42L758.94,327.22L757.16,326.9L754.51,324.57L753.42,324.77L752.31,323.64L751.14,323.54L751.23,321.76z"/>
		<path id="UZ-BU" title="Buxoro" class="land" d="M421.03,384.51L417.26,388.1L413.34,390.43L408.94,395.14L408.59,396.17L408.74,397.03L411.1,400.28L411.33,400.79L411.05,401.4L392.93,408.04L387.32,414.27L387.32,414.27L385.19,411.97L383.6,412.24L380.5,413.71L378.07,413.55L377.22,413.13L358.11,398.87L355.65,396.19L354.17,393.96L348.58,388.35L331.54,376.99L314.32,364.92L298.81,353.29L297.74,351.47L297.18,347.57L295.77,345.5L296.48,343.66L296.56,341.03L295.16,334.84L295.53,332.32L292.9,328.87L293.59,325.04L290.95,323.68L289.63,322.23L287.04,320.79L286.64,320.23L286.64,320.23L297.51,307.49L298.3,303.69L298.33,302.15L297.65,301L288.5,290.99L288.5,290.99L299.44,285.93L285.66,266.75L285.66,266.75L304.49,262.26L307.83,268.96L309.22,271.02L311.37,273.34L317.3,276.79L318.87,278.37L320.95,282.72L322.92,289.26L324.25,288.8L326.29,288.75L329.45,289.66L334.83,291.97L353.14,302.27L355.26,303.94L355.82,304.99L356.16,306.48L355.68,308.71L362.27,308.2L367.65,296.01L368.69,294.92L370.88,293.75L371.76,293.9L373.43,295.83L373.53,303.44L389.72,305.33L390.73,300.35L402.38,299.14L404.23,294.36L404.68,294.17L405.65,294.39L408.58,307.34L409.72,308.44L411.55,309.2L434.08,312.16L432.68,321.42L428.69,324.23L427.07,329.39L423.08,334.14L422.14,334.52L415.39,333.75L413.38,332.76L410.56,330.67L408.5,330.55L407.39,331.03L407.03,331.65L407.39,334.97L406.94,339.33L405.65,345.04L403.12,349.82L400.99,352.29L395.7,355.29L394.28,358.01L398.55,363.8L399.74,364.95L406.8,367.62L407.88,367.68L411.08,366.9L415.99,370.59L420.38,379.98z"/>
		<path id="UZ-FA" title="Farg‘ona" class="land" d="M673.54,332.5L673.41,331.29L672.67,330.63L669.76,329.32L667.13,328.59L665.91,329.02L665.02,328.78L664.23,327.3L663.66,326.89L662.54,323.77L664.48,322.54L668.82,321.03L669.62,321.03L670.09,320.62L670.98,318.08L674.37,317.31L676.71,313.6L677.36,313.42L679.52,311.66L680.49,311.44L681.21,311.75L681.08,310.1L681.39,309.87L682.33,310.08L683.71,307.71L683.71,307.71L689.18,306.11L692.55,305.5L699.31,305.4L697.58,307.8L698.41,309.77L700.28,311.63L706.27,314.44L710.04,311.17L711.54,308.73L716.89,305.7L720.33,304.67L720.33,304.67L723.36,309.15L723.56,307.7L727.72,308.3L730.74,309.86L733.6,313.97L742.85,315.54L743.42,315.37L749.68,317.1L749.99,317.94L750.1,321.55L750.1,321.55L748.15,321.41L747.34,323.29L746.25,324.13L745.29,324L744.4,323.41L743.94,324.45L744.39,326.16L743.25,328.18L741.88,328.59L739.53,331.44L738.34,331.96L737.41,332.82L737.5,333.58L738.48,333.81L739.46,334.7L739.39,335.19L738.28,336.22L737.53,337.62L736.25,337.93L734.98,337.01L732.96,336.54L732.35,337.41L733.16,339.34L726.79,342.54L725.05,340.57L724.88,337.5L723.68,336.23L721.68,336.27L721.68,340.05L721.27,340.22L720.46,339.26L718.91,339.45L716.22,338.08L715.95,335.67L713.11,335.24L710.98,333.24L709.37,333.37L708.98,332.42L706.7,333.16L706.28,332.79L706.26,331.79L704.72,331.9L702.71,331.47L698.91,332.23L696.35,334.01L694.4,334.36L692.33,335.26L691.74,335.82L691.94,337.71L687.34,338.04L685.64,339.3L683.17,340.4L677.06,341.54L676.23,341.2L674.73,338.18L674.01,337.79L673.48,336.85L674.05,334.47z"/>
		<path id="UZ-JI" title="Jizzax" class="land" d="M580.4,375.84L579.92,376.09L579.39,378.65L578.57,379.38L577.49,379L576.34,379.26L573.38,378.79L571.52,379.6L569.83,378.48L568.41,378.16L566.64,377.95L564.45,378.35L562.69,377.63L559.72,377.57L558.01,376.9L556.32,376.84L554.31,375.62L552.02,375.64L550.15,374.8L549.19,373.92L547.81,373.84L545.38,372.19L543.47,372.9L541.14,372.06L540.26,373.08L538.53,373.91L537.59,375.44L535.58,375.63L531.6,377.12L531.68,379.41L531.27,379.92L528.59,379.48L528.24,380.28L528.22,381.59L528.54,382.1L528.54,382.1L524.01,378.28L522.33,376.27L522.1,371.16L526.18,364.64L529.03,363.07L531.87,362.54L530.72,355.56L518.64,352.79L513.83,352.39L511.71,351.59L505.88,347.66L505.53,343.95L505.63,343.6L507.11,343.15L507.63,341L506.19,338.19L504.33,336.53L503.49,332.43L503.39,328.5L504.36,325.9L504.35,324.8L503.39,322.62L498.78,322.52L490.99,321.6L490.99,321.6L496.15,311.22L499.55,305.16L497.75,297.77L493.23,296.49L492.28,295.91L491.56,294.64L490.43,284L497.14,283.78L498.17,276.13L498.17,276.13L522.93,277.97L524.65,278.66L527.17,278.05L542.58,278.52L543.99,279.81L544.86,280.04L546.91,282.53L550.23,285.61L551.7,284.31L552.54,285.5L555.59,283.52L556.97,284.81L557.56,284.55L558.35,285.02L555.88,285.55L554.47,287.03L555.86,290.48L554.38,291.95L554.46,297.17L550.39,297.32L549.66,299.6L551.1,301.6L553.54,302.28L559.31,305.68L562.9,309.71L567.13,311.43L567.13,311.43L566.96,314.27L566.62,314.88L564.76,314.78L562.66,315.32L562.18,320.21L562.34,320.48L564.45,319.46L564.94,319.56L564.02,322.33L559.07,333.37L558.87,334.89L559.36,336.75L560.34,337.77L566.89,338.08L571.46,337.91L584.89,334.66L585.2,335.34L584.19,341.75L584.19,341.75L579.66,343.01L579.42,343.61L582.9,345.95L584.13,345.92L595.12,342.66L599.95,342.34L600.79,342.99L601.65,346.65L601.33,347.31L598.15,347L595.88,347.38L594.71,348.26L594.35,349.42L593.89,349.16L593.59,347.87L592.86,346.77L592.21,346.67L591.39,347.15L591.71,348.25L592.65,349.19L592.32,351.47L596.43,356.11L596.97,357.21L596.81,358.65L596.1,359.37L595.29,359.47L594.67,359.16L594.07,358.22L594,356.44L592.65,353.23L591.93,352.35L591.06,352.5L591.02,354L592.87,357.9L592.9,358.59L592.18,359.66L591.26,359.87L590.69,361.69L589.99,362.02L589.43,361.6L589.12,360.33L588.34,359.44L587.88,359.31L586.41,360.54L584.7,360.09L584.91,362.91L584.59,364.22L583.55,366.55L582.28,366.86L581.86,367.37L584.01,370.69L583.74,372.41z"/>
		<path id="UZ-NG" title="Namangan" class="land" d="M748.57,281.46l-0.91,-0.36l-0.45,0.24l-1.81,-0.38l-2.23,1.44l-2.42,-1.42l-1.14,-0.31l-1.22,-0.14l-1.16,0.79l-2.64,-0.92l-0.32,-0.41l0.02,-0.88l-1.01,-0.46l0.64,-2l2.17,-3.23l0.51,-1.6l-1.08,-0.58l-0.85,-1.03l-0.29,-2.32l-0.38,-0.28l-0.75,0.8l-1.05,0l0.19,-1.5l-2.02,-2.41l-1.05,-2.21l-0.5,0.02l-0.29,1.95l-0.31,0.07l-0.31,-1.1l-0.69,-0.3l-0.75,0.85l0.41,0.66l-0.06,0.56l-0.27,0.21l-0.42,-0.26l-0.51,-1.17l1.39,-2.36l-0.11,-2.92l0.43,-0.9l-0.35,-0.61l-1.5,0.05l-1.98,2.57l-1.5,0.78l0.37,0.66l1.72,0.34l0.62,1.46l-0.83,2.44l0.8,1.23l-0.95,1.37l-0.63,1.68l-0.59,-0.24l-0.26,0.25l-1.89,3.1l-1.6,-1.07l-0.88,-0.02l-1.09,0.5l-0.82,-0.51l-1.76,1.79l0.19,1.18l-0.26,1.39l1.04,0.74l0.3,0.72l-0.89,2l-1.05,3.97l-1.03,1.12l-0.79,-0.13l-0.62,-2.55l-1.18,-1.02l-0.54,0.01l-0.86,0.71l-0.63,2.17l-0.8,0.75l-0.89,0.01l-0.18,-4.12l-1.21,-1.05l-0.91,0.25l-0.09,0.94l-0.31,0.23l-0.28,-0.06l-0.43,-1.06l-0.32,-0.01l-0.82,1.02l-0.74,0.13l-1.33,1.17l-1.62,-0.4l-1.02,-1.39l-2.03,-0.99l-0.59,0.03l-2.66,1.81l-0.56,-0.2l-0.54,-1.23l-3.15,-2.79l-0.71,0.32l-0.47,0.68l-1.13,2.5l-0.33,0.16l-0.86,-0.35l-0.5,-0.61l-0.19,-1.99l0.91,-1.55l-0.97,-2l-0.07,-1.79l0.66,-2.08l-0.49,-2.05l-3.16,-5.42l-1.52,-0.31l-1.14,0.85l-1.23,-0.06l-1.52,0.48l-3.07,2.97l-2.08,0l-0.5,-0.54l0,0l-0.68,1.93l-2.97,4.11l0.67,7.3l2.57,3.96l0.33,5.37l0,0l1.18,0.38l2.64,3.62l0.68,0.02l3.52,6.34l1.36,1.21l0.56,1.37l0.83,0.31l1.26,1.46l-0.94,0.47l-0.12,0.61l-0.37,0.1l-0.57,-0.25l-0.47,-1.21l-0.37,1.24l0.35,1.36l2.06,-0.14l0.85,0.45l-0.28,0.18l1.33,0.27l1.22,1.34l0,0l5.47,-1.6l3.38,-0.61l6.75,-0.1l-1.73,2.4l0.83,1.97l1.88,1.85l5.98,2.81l3.78,-3.27l1.5,-2.45l5.34,-3.02l3.44,-1.03l0,0l1.9,-1.21l-2.2,-2.67l3.22,-2.69l8.59,-2.19l3.67,0.03l1.31,0.81l4.79,0.9l4.88,-0.44l0.92,-0.73l1.26,-5.86l0,0l-0.87,-0.84l0.16,-0.33l1.26,-0.3l1,-1.43l-0.45,-0.82l-0.69,-4.6L748.57,281.46zM678.18,295.05l0.64,1.58l-0.2,0.35l-3.18,-4.31l-1.22,-0.9l-1.01,-0.03l-0.19,-0.68l0.73,-0.65l1.2,0.51l1.51,1.77l0,0L678.18,295.05z"/>
		<path id="UZ-NW" title="Navoiy" class="land" d="M498.17,276.13L497.14,283.78L490.43,284L491.56,294.64L492.28,295.91L493.23,296.49L497.75,297.77L499.55,305.16L496.15,311.22L490.99,321.6L490.99,321.6L489.73,318.13L487.87,315.47L486.32,314.08L484.21,316L481.86,317.29L480.48,317.4L478.65,317.15L477.61,316.36L476.58,314.81L474.28,314.91L473.37,315.99L471.22,320.67L470.63,325.58L471.42,326.13L471.79,326.85L470.74,335.24L469.88,336.58L467.58,342.65L467.78,343.63L468.58,343.73L470.01,342.81L470.83,342.88L470.87,344.45L466.95,348.36L465.32,349.12L456.41,351.05L455.19,350.85L447.72,347.41L446.26,344.82L440.78,342.75L439.77,342.58L439.25,342.86L438.74,344.13L438.37,350.9L436.54,356.44L435.83,357.73L434.72,358.04L430.87,356.67L421.72,359.94L421.97,361.08L424.42,363.42L425.36,364.87L426.71,370.09L424.82,375.49L425.8,378.11L427.92,381.91L427.92,381.91L426.99,382.55L423,383.32L421.03,384.51L421.03,384.51L421.03,384.51L421.03,384.51L420.38,379.98L415.99,370.59L411.08,366.9L407.88,367.68L406.8,367.62L399.74,364.95L398.55,363.8L394.28,358.01L395.7,355.29L400.99,352.29L403.12,349.82L405.65,345.04L406.94,339.33L407.39,334.97L407.03,331.65L407.39,331.03L408.5,330.55L410.56,330.67L413.38,332.76L415.39,333.75L422.14,334.52L423.08,334.14L427.07,329.39L428.69,324.23L432.68,321.42L434.08,312.16L411.55,309.2L409.72,308.44L408.58,307.34L405.65,294.39L404.68,294.17L404.23,294.36L402.38,299.14L390.73,300.35L389.72,305.33L373.53,303.44L373.43,295.83L371.76,293.9L370.88,293.75L368.69,294.92L367.65,296.01L362.27,308.2L355.68,308.71L356.16,306.48L355.82,304.99L355.26,303.94L353.14,302.27L334.83,291.97L329.45,289.66L326.29,288.75L324.25,288.8L322.92,289.26L320.95,282.72L318.87,278.37L317.3,276.79L311.37,273.34L309.22,271.02L307.83,268.96L304.49,262.26L285.66,266.75L285.66,266.75L264.74,238.08L277.59,230.98L270.85,218.83L272.11,203.06L299.77,150.85L284.33,146.67L278.48,136.18L278.48,136.18L320.84,127.93L341.29,124.32L347.78,125.36L365.81,127.21L393.63,128.97L394.68,128.78L416.58,118.36L419.72,117.74L422.22,118.13L423.97,119.85L429.7,132.47L435.32,138.12L446.2,147.8L447.7,153.87L454.34,175.26L466.91,169.34L467.21,207.85L463.96,206.44L463.86,213.04L462.95,214.14L462.72,232.93L486.86,235.85L490.34,275.55z"/>
		<path id="UZ-QA" title="Qashqadaryo" class="land" d="M421.03,384.51L423,383.32L426.99,382.55L427.92,381.91L427.92,381.91L446.16,382.6L448.96,381.87L450.39,380.8L450.62,380.2L454.93,381.08L458.23,384.89L461,389.54L461.09,391.03L465.11,392.27L466.64,392.23L472.12,389.18L479.67,387.31L481.47,388.22L484.76,390.81L485.75,391.13L489.39,389.57L492.14,385.88L494.14,385.54L502.71,387.07L503.34,387.74L503.83,389.06L503.32,392.6L504.58,393.61L506.47,393.76L511.17,393.31L511.7,392.48L511.63,390.7L512.06,390.22L512.94,390.17L523.8,393.72L525.45,394.04L526.45,393.81L526.45,393.81L526.83,395.39L528.95,398.55L533.14,400.15L536.05,400.14L537.07,400.61L537.72,402.28L539.88,402.59L540.16,402.88L539.59,406.46L540.03,407.72L540.16,409.77L540.55,410.33L540.55,410.33L538.77,411.73L533.92,412.22L532.74,413.04L532.29,413.88L532.77,417.42L534.32,420.5L534.45,424.7L533.11,429L531.16,427.39L530.16,427.07L528.73,427L527.14,427.67L524.55,431.83L515.66,440.71L514.78,445.58L513.96,447.85L511.54,450.28L506.17,453.41L494.59,465.51L493.12,471.03L493.39,471.93L493.39,471.93L491,469.14L488.47,467.86L485.28,467.51L482.65,468.33L480.82,468.06L476.8,465.35L473.21,460.65L471.31,460.54L467.81,459.51L467.18,459.11L466.68,458.14L464.64,457.61L463.88,456.81L461.21,456.44L458.4,453.88L456.43,453.65L455.46,453.92L454.73,455.32L454.17,455.25L453.87,455.99L452.97,456.16L448.29,455.2L438.36,451.28L430,446.03L428.15,444.54L417.84,434.42L408.09,430.08L405.75,428.16L396.77,422.61L394.05,420.71L387.32,414.27L387.32,414.27L392.93,408.04L411.05,401.4L411.33,400.79L411.1,400.28L408.74,397.03L408.59,396.17L408.94,395.14L413.34,390.43L417.26,388.1z"/>
		<path id="UZ-QR" title="Qoraqalpog‘iston Respublikasi" class="land" d="M157.2,24.88l0.35,7.72l-2.01,5.84l-3.22,5.44l-2.82,6.04l-1.01,4.23l-4.03,0.2l-1.41,1.41l-0.6,2.62l0.81,4.63l1.21,2.62l0.81,2.82l-2.42,0.81l-3.02,-1.61l-2.42,1.41l-1.81,4.03l-2.42,4.23l-2.21,2.42l-3.02,-1.81l-0.6,-10.27l-1.21,-1.61V62.6h1.61l1.21,2.82l1.81,1.01l2.82,-1.01l1.41,-3.02v-4.03l1.01,-3.22L133,53.34l-3.22,-2.62l-0.6,-2.42l1.81,-2.01l1.81,-0.4l2.01,1.01l0.2,-8.25l2.82,-0.4l-0.2,-3.22l-6.24,-1.21l-1.41,1.01l-1.61,2.01l-2.21,1.01l6.04,-10.06l-1.01,-3.02l-2.01,-2.82l0.6,-3.82l1.01,-3.42l3.4,-6.43l0,0L157.2,24.88zM118.88,1.48l-0.18,3.55l-1.61,3.22l-0.2,4.83l-3.82,3.42l-2.01,3.22l-0.2,5.84l-2.62,2.62l-1.21,5.64l-3.02,4.83L102,44.08l-0.4,4.63l0.2,6.04l3.22,6.44l-0.4,2.62l-3.02,8.45l0.4,5.23l2.21,5.23l2.21,2.62l7.04,3.02l3.02,0.2l2.62,2.01l2.01,0.6l1.01,-2.01l1.61,-0.4l2.42,0.2l9.46,-3.62l1.61,1.01l0.81,3.62l-1.81,2.21L133.4,94l1.01,3.62l2.21,1.01l1.81,1.81l5.23,0.81l2.62,2.21l3.02,0.4l10.47,0.81l3.62,-2.21l3.62,2.42l5.84,-1.41l3.62,1.21l5.03,-1.01l11.88,-4.43l0.6,-2.62h3.42l1.21,-1.81L197.61,93l1.61,-3.42l6.24,-5.03l4.63,-4.63l2.82,-5.03l0.81,-3.82l-1.01,-1.41l-1.61,-1.41l-1.01,-2.01l3.88,-0.35l0,0l21.68,15.65l2.21,7.05l6.07,6.13l32.36,39.87l1.63,1.56l0.55,0.05l0,0l5.85,10.5l15.43,4.18l-27.66,52.2l-1.26,15.77l6.74,12.15l-12.85,7.1l20.92,28.67l0,0l13.79,19.18l-10.94,5.06l0,0l-2.55,1.21l-0.92,-0.41l-6.06,-10.18l-8,-8.81l-6.6,-3.76l-8.95,-2.06l-3.04,-0.02l-2,0.97l-0.78,0.89l-1.17,2.3l-0.51,1.87l-0.72,0.77h-1.49l-2.25,-1.44l-0.63,-2.03l-2.02,-2.27l-1.45,-0.9l-3.57,-0.94l-5.96,-4.54l-8.23,-7.31l-4.92,-5.41l-6.54,-5.79l-3.45,-5.85l-0.45,-5.09l-0.55,-1.07l-5.28,-1.12l-6.16,2.24l-2.67,5.23l0,0l-0.72,-1.13l-3.78,-1.73l-1.78,-2.19l-0.51,-0.3l-0.88,0.2l-1.26,-1.24l-0.19,-0.81l0.75,-0.78l2.82,-0.2l0.35,-0.45l-1.13,-2.5l-0.38,-3.21l-1.26,-1.64l-0.03,-0.67l0.18,-0.48l1.09,-0.58l1.27,0.29l0.9,-0.54l0.27,-1.03l-0.97,-1.75l-0.99,-0.6l-2.33,-0.47l-2.96,-3.76l-1.97,-0.64l-1.04,-0.84l-1.12,2.34l-3.98,-1.07l-6.39,0.49l-7.41,0.1l-1.3,-1.85l-0.65,-0.3l-4.92,-5.09l0.42,-1.64l-0.11,-1.23l-3.88,-4.91l-1.51,-0.72l-1.09,0.3l-1.53,1.01l-2.6,-0.17l-5.23,-2.06l-5.92,-6.1l-8.36,-9.68l-0.34,2.03l1.04,1.72l-0.51,0.73l-1.59,-0.33l-0.51,0.63l0.95,1.16l-0.42,2.18l-0.8,0.79l-1.15,-0.37l-3.72,0.56l-5.21,-1.85l-3.8,-0.56l-2.46,1.16l-2.33,1.94l-0.62,0.06l-0.59,1.04l0.32,0.76l1.86,1.35l2.37,1.33l2.34,0.63l0.45,0.54l2.67,6.2l1.87,2.73l0.15,2.15l0.44,0.4l0.53,-0.13l4.1,2.78l0.13,0.71l-0.51,1.04l-0.8,0.27l-2.11,-0.5l-1.87,0.38l-0.17,-3.75l-0.81,-2.86l-1.6,-2.33l-1.25,-0.84l-4.85,-1.25l-0.8,0.05L98.38,202L98,201.18l-1.21,-1.02l-0.27,-1.2l-0.85,-0.75l-0.96,-0.18l-1.43,0.31l-1.79,0.96l-0.69,2.58l-1.5,-1.1l-0.91,0.6l-0.28,1.55l1.67,2.32l0.33,1.08l-0.4,1.59l-0.29,5.69l-0.18,0.6l-0.81,0.55l-2.95,-0.62l-0.62,1.72l1.14,2.31l-0.19,0.42l-0.87,0.12l-3.06,-0.52l-5.06,2l-0.6,-0.02l-1.62,-0.99l-4.16,-0.55l-5.17,0.28l-1.96,0.73l-2.52,1.24l-3.44,2.69l-1.53,2.49l-1.75,4.92l-1.74,1.95l-4.24,1.58l-1.59,1.23l-0.92,1.92l-0.76,3.88l0.21,8.16l0.56,2.37l1.64,2.92l0.24,1.15l-0.11,4.35l0.42,3.14l0.68,1.71l1.85,2.64l2.87,-0.58l0.47,0.92l-0.72,1.11l-2.5,1.02l-0.84,0.79l-0.46,0.88l-0.04,1.5l-0.81,1.21l-1.87,0.29l-9.91,-1.37l-36.37,-2.29L0.02,38.88L49.27,22.7L99.61,6.98L118.88,1.48z"/>
		<path id="UZ-SA" title="Samarqand" class="land" d="M532.69,391.98L532.58,392.28L530.98,391.97L530.01,392.18L526.68,393.33L526.45,393.81L526.45,393.81L525.45,394.04L523.8,393.72L512.94,390.17L512.06,390.22L511.63,390.7L511.7,392.48L511.17,393.31L506.47,393.76L504.58,393.61L503.32,392.6L503.83,389.06L503.34,387.74L502.71,387.07L494.14,385.54L492.14,385.88L489.39,389.57L485.75,391.13L484.76,390.81L481.47,388.22L479.67,387.31L472.12,389.18L466.64,392.23L465.11,392.27L461.09,391.03L461,389.54L458.23,384.89L454.93,381.08L450.62,380.2L450.39,380.8L448.96,381.87L446.16,382.6L427.92,381.91L427.92,381.91L425.8,378.11L424.82,375.49L426.71,370.09L425.36,364.87L424.42,363.42L421.97,361.08L421.72,359.94L430.87,356.67L434.72,358.04L435.83,357.73L436.54,356.44L438.37,350.9L438.74,344.13L439.25,342.86L439.77,342.58L440.78,342.75L446.26,344.82L447.72,347.41L455.19,350.85L456.41,351.05L465.32,349.12L466.95,348.36L470.87,344.45L470.83,342.88L470.01,342.81L468.58,343.73L467.78,343.63L467.58,342.65L469.88,336.58L470.74,335.24L471.79,326.85L471.42,326.13L470.63,325.58L471.22,320.67L473.37,315.99L474.28,314.91L476.58,314.81L477.61,316.36L478.65,317.15L480.48,317.4L481.86,317.29L484.21,316L486.32,314.08L487.87,315.47L489.73,318.13L490.99,321.6L490.99,321.6L498.78,322.52L503.39,322.62L504.35,324.8L504.36,325.9L503.39,328.5L503.49,332.43L504.33,336.53L506.19,338.19L507.63,341L507.11,343.15L505.63,343.6L505.53,343.95L505.88,347.66L511.71,351.59L513.83,352.39L518.64,352.79L530.72,355.56L531.87,362.54L529.03,363.07L526.18,364.64L522.1,371.16L522.33,376.27L524.01,378.28L528.54,382.1L528.54,382.1L530.77,386.77z"/>
		<path id="UZ-SI" title="Sirdaryo" class="land" d="M595.9,338.94L594.29,339.91L593,340.24L590.61,339.57L584.19,341.75L584.19,341.75L585.2,335.34L584.89,334.66L571.46,337.91L566.89,338.08L560.34,337.77L559.36,336.75L558.87,334.89L559.07,333.37L564.02,322.33L564.94,319.56L564.45,319.46L562.34,320.48L562.18,320.21L562.66,315.32L564.76,314.78L566.62,314.88L566.96,314.27L567.13,311.43L567.13,311.43L570.78,314.54L572.67,314.04L574.58,315.61L574.04,316.75L578.91,318.18L579.72,317.06L582.12,317.24L586.43,315.51L585.59,313.42L583.18,312.13L582.05,308.84L578.77,304.31L579.64,296.86L578.64,294.33L579.5,293.43L578.62,292.04L575,291.81L574.99,290.51L579.91,290.82L580.23,291.42L582.59,289.95L583.08,291.48L583.75,291.73L584.55,291.36L585.86,291.95L584.09,293.18L584.6,294.8L585,294.47L585,294.47L593.33,303.46L602.96,311.81L603.58,311.89L606.61,316.12L606.11,320.82L604.24,331.1L604.4,332.78L604.9,333.83L604.65,338.56L604.65,338.56L603.54,338.21L600.97,338.19z"/>
		<path id="UZ-SU" title="Surxondaryo" class="land" d="M573.04,460.61L571.87,465.37L569.57,467.79L567.93,470.89L568,472.46L567.27,475.25L564.77,476.42L560.72,477.12L556.75,485.31L551.94,490.92L549.62,495.78L548.03,497.31L546.84,501.19L547.05,507.76L546.49,514.42L545.78,516.85L545.1,517.29L544.51,516.18L543.01,514.98L540.47,514.85L538.61,513.5L536.63,514.14L535.57,515.18L534.87,515.27L534.03,513.25L532.47,512.13L531.23,512.65L529.36,514.37L526.86,515.51L523.76,516.09L522.8,517.12L521.3,517.75L519.9,516.78L519.73,515.25L518.68,514.39L518.04,513.25L516.62,512.53L515.46,512.56L513.94,511.71L513.48,511L513.84,509.47L513.52,508.63L511.79,507.77L510,506.1L508.07,505.38L506.19,505.51L502.61,507.1L500.21,506.98L497.98,507.74L496.03,507.25L493.98,507.63L492.38,507.26L487.97,507.44L486.66,507.98L486.26,505.97L486.86,504.69L488.85,503.48L491.89,502.57L492.19,501.84L491.77,499.99L487.21,494.45L486.95,492.96L487.51,487.34L487.22,485.21L487.67,482.1L488.41,480.31L491.01,476.43L493.72,474.7L493.93,472.98L493.39,471.93L493.39,471.93L493.12,471.03L494.59,465.51L506.17,453.41L511.54,450.28L513.96,447.85L514.78,445.58L515.66,440.71L524.55,431.83L527.14,427.67L528.73,427L530.16,427.07L531.16,427.39L533.11,429L534.45,424.7L534.32,420.5L532.77,417.42L532.29,413.88L532.74,413.04L533.92,412.22L538.77,411.73L540.55,410.33L540.55,410.33L541.62,411.15L542.53,410.83L543.15,411.07L544.19,410.35L546.24,410.16L547.59,410.98L549.06,411.12L550.11,409.77L552.16,409.7L553.2,409.15L553.65,409.16L554.76,410.32L555.78,410.57L557.62,409.58L558.87,409.72L560.11,410.54L561.29,413.41L563.98,415.51L563.93,417.55L563.58,417.77L563.88,419.93L562.62,420.58L562.03,421.48L558.5,422.2L558.15,422.76L560.68,426.44L560.32,427.11L558.73,427.3L557.46,428.52L558.75,431.94L558.27,432.95L557.94,438.26L560.36,441.47L561.36,442.28L559.81,445.86L562.2,445.23L563.87,446.17L565.28,448.57L565.57,450.72L569.58,452.83L571.55,455.36L573.38,458.55z"/>
		<path id="UZ-TK" title="Toshkent City" class="land" d="M618.76,267.06L618.43,266.92L618,267.54L617.25,267.77L617.25,267.77L616.54,268.52L615.84,268.45L615.48,269.11L614.36,268.95L612.76,268.11L611.48,268.84L610.2,268.45L609,269.77L608.19,274.2L608.28,274.54L610.31,275.04L610.63,275.88L611.15,275.7L612.01,276.08L612.58,276.02L612.59,275.54L613.67,274.67L614.76,274.76L615.48,274.99L615.32,275.4L615.75,276.34L616.75,276.5L616.75,276.5L617.8,275.45L618.18,274.58L618.11,273.4L617.44,272.4L617.44,272.4L618.26,271.39L618.47,269.89L619.02,269.82L618.93,269.16L618.93,269.16L619.33,268.41L618.71,267.63z"/>
		<path id="UZ-TO" title="Toshkent" class="land" d="M700.59,213l-0.94,-0.54l-1.75,-0.21l-1.22,-0.7l-2.46,0.69l-1.25,1.16l-2.05,-0.27l-1.77,2.24l-3.16,2.01l-0.7,0.02l-1.06,-1.01l-1.1,0.71l-4.61,5.54l-0.15,1.26l-1.96,4.98l-0.22,0.48l-0.74,0.26l-2.39,-1.37l-0.04,-2.24l-0.55,-0.91l-2.54,-1.39l-2.69,-2.37l-1.05,-0.02l-0.37,0.46l-0.52,2.49l-1.28,1.55l-1.89,1.46l0.38,3.64l-2.49,1.61l-1.7,0.53l-1.95,2.2l-1.77,3.79l-4.53,2.56l-1.05,2.44l-0.69,0l-0.49,-1.51l-1.07,0.12l-1.91,4.3l-2.93,1.2l-1.2,-1.04l-1.24,-0.33l-1.67,1.05l-3.13,0.33l-1.72,1.5l-3.26,0.88l-3.77,3.76l-1.14,2.38l-2.67,0.79l-1.68,1.43l-0.67,1.1l0.02,0.52l1.5,1.31l-0.34,1.01l-0.41,0.21l-2.21,-0.35l-3.14,0.6l-1.56,-0.72l-1.46,0.02l-1.5,0.32l-1.15,0.69l-1.08,2.4l-2.23,1.26l-1.14,2.84l-0.66,0.46l-1.39,-0.75l-0.51,0.16l-1.98,3.07l-0.19,2.71l-1.61,1.54l-0.3,1.8l-1.07,0l-0.68,0.46l-3.59,4.25l-1.21,2.25l-1.66,2.09l-0.72,1.67l-0.32,1.86l-1.33,1.21l-1.83,0.72l-1.04,0.86l0,0l8.33,8.99l9.63,8.35l0.62,0.08l3.03,4.23l-0.5,4.7l-1.86,10.28l0.15,1.68l0.5,1.06l-0.25,4.73l0,0l3.19,0.17l1.05,0.37l1.86,-0.33l3.27,0.35l1.12,0.62l0.48,-0.4l-0.84,-2.12l-2.2,-1.11l0.24,-0.85l-0.35,-0.58l0.18,-0.62l2.58,0.18l1.13,-1.07l0.32,-2.67l-1.46,-1.32l0.01,-0.83l-0.69,-1.16l0.24,-0.85l-0.47,-0.19l-1.03,-2.57l0.4,-2l-2.06,-2.75l0.27,-0.64l1.56,-1.05l2.99,-0.14l0.63,-1.2l0.48,-0.23l0.26,-1.27l-0.91,-2.36l0.21,-3.51l0.59,-1.66l1.84,-2.59l1.64,-0.2l4.4,1.19l0.75,0.74l1.65,3.69l1.98,1.79l1.09,0.32l0.81,1.71l2.28,0.04l0.93,-0.59l1.85,-3.43l0.71,-0.21l1.74,0.38l2.05,-1.66l2.23,0.99l1.94,-1.61l2.03,-0.29l3.31,-1.82l2.38,-2.32l1.08,-1.89l2.76,0.49l2.35,-1.32l0.72,-1.02l1.64,-0.99l1.88,-0.26l0.88,-1.36l-0.28,-1.29l1.16,-2.83l-0.17,-1.74l1.33,-1.82l1.3,-0.52l1.03,0.25l0,0l-0.33,-5.37l-2.57,-3.96l-0.67,-7.3l2.97,-4.11l0.68,-1.93l0,0l-0.49,-1.01l-2.54,-2.57l-1.17,-0.12l-1.52,-2.26l-2.38,-0.73l-2.31,0.45l-2.19,-0.15l-0.63,-0.37l-0.34,-1.61l0.08,-1.97l0.69,-1.32l1.96,-0.66l1.28,0.11l1.66,-1.54l1.3,0.05l0.85,-0.4l2.39,-2.58l4.27,-2.42l0.67,-1.34l0.33,-2.71l4.03,-2.67l0.33,-1.21l1.49,-1.21l0.74,-1.53l1.05,-1.08l1.19,-0.57l1.94,0.26l0.56,-1.21l1.72,0.82l1.31,-0.14l1.19,-1.41l0.16,-1.82l-0.91,-1.58l1.27,-2.58l1.39,-0.28l2.68,1.24l0.77,0l1.05,-0.52l1.97,-1.41l1.76,-1.81l0.81,-0.31l2.68,-2.56l1.08,-0.41l2.09,0.28l1.74,-1.62l0.1,-1.57l0.36,-0.61L700.59,213zM619.29,268.7l-0.36,0.46l0,0l0.09,0.66l-0.55,0.07l-0.21,1.5l-0.82,1l0,0l0.57,0.75l0.17,1.44l-1.43,1.91l0,0l-1,-0.16l-0.43,-0.93l0.16,-0.41l-0.72,-0.23l-1.08,-0.09l-1.08,0.87l-0.02,0.48l-0.57,0.07l-0.86,-0.39l-0.52,0.18l-0.33,-0.84l-2.03,-0.5l-0.09,-0.34l0.81,-4.42l1.2,-1.32l1.27,0.39l1.29,-0.73l1.6,0.84l1.12,0.16l0.36,-0.66l0.71,0.07l0.7,-0.75l0,0l0.6,-0.11l0.38,-0.62l0.45,-0.11L619.29,268.7z"/>
		<path id="UZ-XO" title="Xorazm" class="land" d="M282.31,313.47L281.05,310.61L279.84,309.25L279.38,305.67L277.44,301.86L277.44,297.48L277.04,294.15L277.27,292.53L276.54,291.92L276.09,289.75L275.35,288.81L272.86,287.66L272.56,287.1L272.75,286.16L271.91,284.24L270.69,283.51L268.81,281.53L266.19,280.18L264.16,277.77L261.26,276.77L260.19,274.72L259.34,274.08L257.57,274.64L255.8,274.5L253.45,273.38L251.17,273.13L249.88,274.91L249.94,277.56L249.21,279.93L248.43,281.23L246.74,281.86L242.94,281.97L239.14,280.33L237.01,278.1L234.66,278.13L233.34,276.57L228.43,276.35L224.79,276.81L222.21,276.69L207.41,277.63L203.45,275.45L200.54,272.85L191.06,266.75L189.9,265.71L189.33,264.47L189.51,260L190.17,257.33L192.31,255.33L192.56,253.55L191.16,250.64L188.16,246.22L187.78,244.72L188.86,241.23L189.41,241.11L190.31,241.6L191.31,241.58L193.29,242.3L195.68,243.88L196.87,243.85L198.47,244.75L198.73,244.35L199.72,244.2L199.75,243.76L196.94,240.85L194.04,239.91L192.65,239.04L191.58,237.47L191.58,237.47L194.25,232.24L200.41,230L205.69,231.12L206.24,232.18L206.69,237.27L210.15,243.13L216.68,248.92L221.6,254.33L229.83,261.64L235.79,266.18L239.36,267.12L240.81,268.02L242.82,270.29L243.45,272.32L245.7,273.76L247.19,273.76L247.91,273L248.42,271.12L249.59,268.82L250.37,267.94L252.38,266.97L255.42,266.98L264.37,269.04L270.97,272.81L278.97,281.62L285.03,291.8L285.95,292.21L288.5,290.99L288.5,290.99L297.65,301L298.33,302.15L298.3,303.69L297.51,307.49L286.64,320.23L286.64,320.23z"/>
	</g>
</svg>