<?xml version="1.0" encoding="utf-8"?>
<!-- (c) ammap.com | SVG map of Yemen - High -->
<svg xmlns="http://www.w3.org/2000/svg" xmlns:amcharts="http://amcharts.com/ammap" xmlns:xlink="http://www.w3.org/1999/xlink" version="1.1">
	<defs>
		<style type="text/css">
			.land
			{
				fill: #CCCCCC;
				fill-opacity: 1;
				stroke:white;
				stroke-opacity: 1;
				stroke-width:0.5;
			}
		</style>

		<amcharts:ammap projection="mercator" leftLongitude="41.814080" topLatitude="19.005793" rightLongitude="54.536672" bottomLatitude="12.124339"></amcharts:ammap>

		<!-- All areas are listed in the line below. You can use this list in your script. -->
		<!--{id:"YE-AB"},{id:"YE-AD"},{id:"YE-AM"},{id:"YE-BA"},{id:"YE-DA"},{id:"YE-DH"},{id:"YE-HD"},{id:"YE-HJ"},{id:"YE-HU"},{id:"YE-IB"},{id:"YE-JA"},{id:"YE-LA"},{id:"YE-MA"},{id:"YE-MR"},{id:"YE-MW"},{id:"YE-RA"},{id:"YE-SA"},{id:"YE-SD"},{id:"YE-SH"},{id:"YE-SN"},{id:"YE-TA"}-->

	</defs>
	<g>
		<path id="YE-AB" title="Abyān" class="land" d="M204.77,390.11L203.33,387.95L202.18,385.15L202.51,382.52L204.98,381.04L207.28,377.91L210.08,370.66L211.07,365.72L213.38,365.06L215.03,364.07L215.69,361.43L214.37,359.79L212.23,357.65L209.59,356.33L211.24,352.87L213.38,351.39L215.03,349.08L215.85,346.61L214.7,345.46L212.88,345.46L210.41,346.28L209.1,344.3L210.25,343.15L212.23,342.65L214.53,342.82L214.37,340.35L213.21,339.36L213.54,337.05L214.86,336.07L217.83,336.56L219.64,335.9L219.31,334.25L217.99,333.27L217.5,331.29L218.16,329.97L218.16,329.97L222.44,330.14L222.44,330.14L225.4,329.64L227.05,331.12L228.86,329.97L232.82,329.97L233.64,331.62L235.45,333.76L241.22,333.6L243.52,332.44L246.16,328.98L252.58,325.85L256.54,323.22L257.85,323.22L258.35,320.58L258.18,317.95L260,317.62L261.15,316.79L261.97,311.36L262.47,309.21L263.46,307.73L264.84,306.99L264.84,306.99L267.31,305.67L269.62,304.69L271.59,303.04L271.59,303.04L275.38,302.71L278.68,304.36L280.16,306.83L282.3,309.46L282.79,311.6L281.48,314.07L280.82,316.05L279.17,317.7L279.01,319.51L279.01,319.51L282.96,319.02L286.25,318.19L286.25,318.19L288.72,318.03L290.21,318.85L293.17,317.2L293.17,317.2L296.8,314.9L297.62,311.77L297.62,311.77L299.07,310.62L299.07,310.62L303.52,310.94L307.8,310.12L310.93,310.94L314.39,313.09L319.99,313.09L320.98,315.23L321.96,314.57L323.12,312.26L323.12,312.26L323.94,310.45L326.41,310.12L328.23,311.11L328.23,317.7L331.03,319.18L333.33,320.99L333.33,320.99L333.83,333.92L334.49,339.69L334.49,339.69L335.47,341.67L334.49,345.13L334.49,345.13L334.6,348.62L333.18,348.79L330.12,349.55L327.73,350.49L325.76,350.67L319.74,352.05L317.04,352.93L315.99,353.46L311.91,356.25L306.74,358.23L303.47,359.72L300.89,359.03L298.43,358.9L292.8,360.19L290.6,360.35L288.21,360.86L287.54,360.63L287.38,360.35L286.71,360.21L284.86,360.21L283.77,360.49L283.08,360.35L282.49,360.44L282.32,360.19L281.83,360.21L280.45,359.8L279.25,359.72L279.06,359.86L277.61,359.27L276.09,359.17L274.27,359.35L273.46,359.66L271.73,359.72L270.49,360.07L268.74,359.96L268.05,360.19L266.87,360.21L266.75,360.35L266.32,360.23L265.87,360.44L261.72,360.05L260.49,360.25L258.62,360.85L256.75,360.9L254.87,361.55L252.07,361.48L250.48,362.06L248.31,362.4L245.89,363.25L244.37,363.41L243.99,363.73L242.54,364.15L240.38,364.2L239.36,364.52L237.73,365.56L232.25,370.68L229.33,374.25L227.01,377.97L226.56,377.94L226.59,378.41L226.42,378.73L224.83,380.28L223.7,381.68L222.04,383.05L220.28,383.62L216.82,384.1L213.9,384.71L211.63,385.42L208.55,386.78L206.98,387.68L205.32,389.21z"/>
		<path id="YE-AD" title="'Adan" class="land" d="M204.08,391.25l-1.88,3.69l-0.97,2.77l-0.38,2.45l0.31,0.62l0.4,-0.17l-0.37,0.65l0.1,0.18l0.49,0.11l-0.06,0.39l-0.24,-0.3l-0.49,-0.07l-0.29,0.35l0.16,0.27l-0.28,0.3l-0.57,0.04l-0.47,-0.19l-0.29,0.11l-0.74,-0.33l-0.55,-0.5l-0.49,0.23l0.17,-0.27l-0.08,-0.45l-1.11,-0.23l0.24,-0.76l2.11,-0.6l0.59,0.34l0.5,-0.47l0.07,-0.34l-0.33,-1.15l-0.57,-0.05l0.02,-0.14l0.4,-0.1l-0.55,-0.46l0.64,-0.16l0.29,0.21l0.02,-0.23l-1.81,-0.79l-0.48,0.48l0.09,1.69l-0.67,-1.11v0.44l-1.37,-0.26l-1.02,0.05l-2.09,1.15l-0.67,1.16l-0.29,1.39l-0.67,-0.26l-0.24,-0.4l0.05,-0.48l0.28,-0.07l0.02,-0.32l-1.4,-0.26l-0.52,0.23l-0.55,1.04l-0.04,0.49l1.68,-0.18l0.64,0.51l2.72,0.19l-0.62,0.62l0.3,0.67l-0.62,0.19l-0.38,-0.18l-0.09,-0.42l-0.6,0.21l-0.24,0.44l0.1,0.28l0.26,0.11l-0.12,0.32l-0.19,-0.26l-0.38,-0.1l-0.57,0.35l-1.37,0.14l-0.38,0.34l-0.19,-0.09l-0.14,-0.49l-0.33,-0.18l-0.45,0.06l-0.27,-0.28l0.05,-0.52l0.31,-0.14l0,-0.37l-0.6,-0.73l-0.66,-0.3l-1.02,-0.16l-1.28,0.14l-1.61,0.77l-1.32,1.31l-0.36,-0.56l0.66,-0.39l-0.17,-0.72l-0.37,-0.53l-1.55,-1.34l-1.28,-0.7l-1.14,-0.33l-1.95,-0.35l-1.87,-0.04l-0.86,0.12l-2.25,0.83l-1.94,1.3l-1.94,1.89l-2.01,2.5l-1.88,2.71l-0.28,-0.04l0.12,-0.3l-0.35,-0.37l-0.99,0.05l0,0l0.67,-3.15l1.81,-2.8l1.98,-2.64l5.77,-2.64l12.19,-0.33l5.27,-0.49l3.29,-1.48l1.98,-1.32l5.44,-0.82l5.08,-0.27l0,0L204.08,391.25z"/>
		<path id="YE-AM" title="'Amrān" class="land" d="M115.1,223.89L115.1,222.57L115.1,222.57L116.75,221.91L116.75,221.91L116.26,220.59L114.94,220.1L114.94,220.1L114.61,218.12L114.61,218.12L115.27,215.98L117.57,215.65L118.56,216.8L120.05,216.48L120.05,212.85L121.53,212.19L121.53,212.19L121.36,210.38L121.36,210.38L119.06,210.38L118.89,205.77L118.89,205.77L120.38,205.93L120.38,205.93L119.88,203.79L118.89,202.8L119.06,201.49L118.56,200.33L119.06,198.03L118.07,195.72L116.26,194.4L114.28,195.39L112.96,197.7L111.32,198.36L110.66,196.54L111.64,195.06L113.13,194.57L113.13,194.57L113.95,192.92L113.95,192.92L112.14,190.45L111.32,188.8L110,186.99L110.33,181.55L108.52,179.91L108.52,179.91L106.87,178.59L107.2,175.62L107.2,175.62L107.2,173.15L106.04,169.69L107.2,168.05L107.2,168.05L108.19,166.73L108.19,166.73L107.95,154.43L109.21,153.8L109.21,153.8L111.51,152.97L116.78,152.48L118.76,151.49L119.91,150.34L122.55,149.68L122.55,149.68L124.36,150.01L126.5,151.33L129.96,151.66L129.96,151.66L132.76,151.99L135.56,152.64L140.26,152.44L140.26,152.44L140.24,152.48L140.24,152.48L143.7,153.14L145.35,153.96L147.16,152.97L148.64,154.13L148.64,154.13L149.79,157.09L153.91,160.88L153.91,160.88L154.24,165.33L153.09,166.32L152.92,174.22L152.92,174.22L155.73,174.22L155.07,179.49L153.75,181.47L154.41,184.93L156.05,186.74L156.05,186.74L158.36,187.4L158.36,190.86L158.36,190.86L158.52,191L158.52,191L156.85,192.59L153.22,192.75L151.24,194.73L147.46,194.73L147.13,198.03L145.97,201.98L146.96,202.8L148.28,204.29L147.62,206.67L145.81,209.15L142.84,211.62L143.01,215.24L144.49,215.9L143.83,217.55L141.36,218.21L140.37,220.35L137.57,222.32L134.44,222.98L134.28,219.69L131.64,221.17L131.97,222.65L130.98,223.81L131.48,225.12L131.48,225.12L127.29,223.23L125.48,222.73L124.66,221.42L123.34,221.58L122.85,223.89L121.03,224.05L119.55,224.88L118.07,223.56L116.09,223.56L116.09,223.56z"/>
		<path id="YE-BA" title="Al Bayḑā'" class="land" d="M222.18,330.13L222.01,321.73L220.86,320.09L218.88,319.92L216.9,321.9L215.09,323.38L213.61,325.69L211.3,325.85L210.81,324.7L208.17,324.54L208.17,324.54L208.01,320.91L208.01,320.91L206.69,319.43L205.54,317.78L202.24,317.62L201.91,313.99L198.29,310.04L198.13,308.56L195.98,308.23L192.2,308.56L189.07,308.56L186.27,310.7L183.14,308.23L181.65,310.2L181.16,311.69L181.16,311.69L178.19,311.69L178.19,311.69L174.24,310.53L173.91,306.74L175.23,306.58L175.39,304.27L174.24,303.62L174.24,303.62L172.92,303.29L172.92,301.31L174.41,299.83L178.19,299.83L179.51,293.24L180.66,292.41L182.31,292.41L182.15,289.61L180.66,287.97L180.34,281.87L182.15,279.07L185.11,276.76L188.24,275.45L188.24,275.45L190.38,272.81L190.38,272.81L192.93,271.91L192.93,271.91L192.95,271.99L192.95,271.99L195.92,270.67L198.72,270.67L200.04,269.85L201.35,269.85L202.18,277.09L203.17,283.85L204.65,288.3L207.12,290.11L210.25,291.1L210.74,288.95L212.72,287.31L214.7,287.47L216.34,288.95L217.83,289.12L218.32,287.64L215.85,285.82L216.84,284.51L219.8,286.48L221.78,286.32L222.44,283.85L223.59,282.04L225.4,283.02L225.07,285L228.7,285L229.36,282.37L231,278.58L230.85,276.27L230.85,276.27L239.31,276.52L239.31,276.52L239.8,284.42L239.8,284.42L246.56,284.92L250.18,291.84L251.5,296.61L251.5,296.61L251.5,301.89L255.29,301.72L257.26,300.9L258.91,300.9L260.56,303.04L264.84,306.99L264.84,306.99L263.46,307.73L262.47,309.21L261.97,311.36L261.15,316.79L260,317.62L258.18,317.95L258.35,320.58L257.85,323.22L256.54,323.22L252.58,325.85L246.16,328.98L243.52,332.44L241.22,333.6L235.45,333.76L233.64,331.62L232.82,329.97L228.86,329.97L227.05,331.12L225.4,329.64L222.44,330.14L222.44,330.14z"/>
		<path id="YE-DA" title="Aḑ Ḑāli'" class="land" d="M208.17,324.39L206.2,329.81L204.06,332.28L200.76,335.08L197.3,337.22L194.83,339.52L192.2,340.02L190.38,341.67L188.57,340.68L185.77,340.68L187.75,346.61L188.57,349.9L185.44,349.9L184.78,348.75L183.14,348.75L182.48,349.9L180.83,350.89L178.19,351.22L176.22,351.88L174.41,350.56L172.26,352.21L170.95,350.89L168.8,350.23L168.8,350.23L167.82,348.42L166.66,346.94L163.2,346.44L161.89,347.27L159.58,346.77L159.25,344.3L161.06,343.64L161.23,342L160.73,339.52L160.73,339.52L159.09,337.05L159.09,337.05L159.42,334.91L161.56,333.27L162.71,331.29L165.02,328.65L164.36,326.18L166,324.86L168.64,323.88L172.26,323.88L173.75,322.39L171.44,321.73L170.29,320.09L171.44,318.27L173.25,317.62L173.42,314.65L174.9,314.49L176.55,314.98L178.36,313.66L178.28,311.69L178.28,311.69L181.16,311.69L181.16,311.69L181.65,310.2L183.14,308.23L186.27,310.7L189.07,308.56L192.2,308.56L195.98,308.23L198.13,308.56L198.29,310.04L201.91,313.99L202.24,317.62L205.54,317.78L206.69,319.43L208.01,320.91L208.01,320.91z"/>
		<path id="YE-DH" title="Dhamār" class="land" d="M120.79,316.67L119.45,317.86L119.45,317.86L117.64,319.02L115.01,319.02L111.22,315.06L107.92,314.9L107.92,314.9L105.78,313.58L105.29,311.11L107.1,310.12L107.76,308.31L107.76,308.31L106.6,307.16L104.46,303.2L102.98,300.9L102.98,299.08L102.98,299.08L104.79,298.76L107.1,298.76L107.1,298.76L107.26,300.07L108.75,300.07L109.57,298.43L111.38,297.11L112.86,296.45L114.02,294.97L114.51,293.15L118.3,292.66L118.96,293.98L122.25,293.81L124.23,292.33L127.19,290.85L130.32,287.55L131.81,286.24L132.14,284.59L130,281.95L130.49,278.82L128.35,276.85L124.56,274.05L121.26,270.92L120.91,268.71L120.91,268.71L121.26,268.77L121.26,268.77L121.26,267.29L126.04,267.29L126.21,268.61L128.02,268.61L130.49,266.47L130.98,264.66L132.96,264.33L134.44,263.01L135.43,261.53L137.08,261.53L137.24,259.88L138.73,258.56L145.97,258.89L150.59,262.68L157.5,263.17L158.33,262.02L157.34,261.36L157.34,259.71L159.32,259.71L160.96,261.36L162.78,262.85L165.74,261.86L168.38,261.53L169.36,260.21L171.01,259.22L173.15,258.89L175.13,257.9L179.08,257.57L180.57,258.23L180.4,267.46L183.37,267.79L184.68,268.77L185.67,269.93L186.5,271.25L187.15,273.55L188.97,274.55L188.97,274.55L188.24,275.45L188.24,275.45L185.11,276.76L182.15,279.07L180.34,281.87L180.66,287.97L182.15,289.61L182.31,292.41L180.66,292.41L179.51,293.24L178.19,299.83L174.41,299.83L172.92,301.31L172.92,303.29L174.24,303.62L174.24,303.62L171.01,306L169.36,303.7L165.41,303.53L164.59,302.71L163.76,300.73L160.96,300.73L159.32,299.74L157.67,299.08L155.69,299.08L153.72,298.43L152.4,296.45L151.08,295.46L150.09,294.31L148.28,293.81L147.13,298.43L144,298.59L143.5,299.91L141.2,299.91L141.2,293.15L139.71,293.15L137.9,295.3L137.24,296.94L135.27,299.08L133.62,299.41L132.3,301.06L130.82,300.9L130.16,302.21L131.31,302.71L131.64,304.36L132.47,306L130.16,308.64L126.7,310.95L125.22,311.27L125.38,308.64L123.08,308.64L123.08,311.27L121.92,315.39L120.77,316.55L120.77,316.55z"/>
		<path id="YE-HD" title="Ḩaḑramawt" class="land" d="M698.72,438.74l0.9,0.11l0.19,0.21l1.23,0.08l0.16,0.41l0.37,0.14l0.36,0.43l-0.1,1.56l-1.76,0.53l-0.19,-0.37l-1.8,-0.53l-0.88,-0.93l-0.99,-0.44h-0.67l-0.47,-0.3l0.19,-0.3l1.7,-0.21l0.02,-0.32L698.72,438.74zM639.43,434.69l0.12,0.19l0.71,0.16l0.87,-0.37l0.41,0.34l0.11,-0.21l0.39,0.02l0.12,0.17l0.28,-0.09l0.47,0.39l0.59,-0.07l1.27,1.27l0.35,-0.14l1.66,0.97l0.46,-0.23l2.41,0.3l0.55,-0.19l0.76,0.21l0.59,-0.34l0.31,0.39l0.73,0.12l0.19,-0.2l0.86,0.67l0.47,0.12l1.14,-0.39l0.78,0.25l1.51,0.14l0.97,-0.61l0.26,0.07l-1.02,0.79l-0.38,0.02l-0.31,0.37l-0.03,0.65l0.17,0.25l0.64,0.19l-0.07,0.39l-0.38,0.09l-0.78,-0.33l-1.81,0.58l-1.83,-0.07l-0.37,0.27l-1.85,-0.61l-0.21,0.12l-1.57,-0.14l-0.66,-1.48l-0.24,-0.11l-1.4,0.18l-1.06,-0.32l-0.33,0.14l-0.5,-0.33l-0.54,0.26l-0.62,-0.23l-0.33,-0.7l-1.05,-0.46l-0.78,0.21l-0.14,-0.16l-1.07,0.12l0.14,-0.19l-0.59,-0.44l-1.64,-0.72l-0.15,-0.3l0.43,-0.23l-0.07,-0.25l-0.36,0.16l0.1,-0.42L639.43,434.69zM730.24,404.92l2.09,0.79l1.82,0.23l2.16,-0.17l0.29,-0.18l0.36,0.09l3.08,2.45l3.74,2.62l2.34,1.09l2.4,0.53l0.73,-0.25l0.81,-0.76l1.19,-1.97l0.62,-0.32l1.35,-0.28l1.09,0.53l1.04,0.26l0.31,-0.16l0.42,0.25l0.57,-0.34l0.33,0.05l0.35,-0.44l1.74,0.07l4.48,-1.81l0.47,-0.72l0.16,-0.76l0.35,-0.09l1.61,0.35l0.54,0.31l1.03,1.04l1.34,0.74h0.55l0.97,-0.32l0.48,-0.4l0.02,0.6l0.64,0.37l0.24,0.42l0.61,0.44l-0.5,0.49l1.23,-0.49l0.92,0.41l0.81,0l0.17,0.61l0.74,0.26l0.73,0.65l0.35,0.11l0.33,-0.21l0.73,0.58l0.43,-0.12l0.52,0.28l1.04,0.04l0.36,0.18l0.31,-0.18l0.36,0.06l1.97,1.21l0.85,0.35l0.97,0.04l1.12,1.02l2.15,1.16l1.16,0.04l1.22,-0.81l0.51,0.3l0.83,-0.18l-0.04,0.6l0.19,0.28l-0.54,-0.07l-1.33,0.58l-2.45,0.46l-0.88,0.38l-0.73,1.38l0.33,0.51l0,0.37l-0.69,-0.02l-0.52,0.42l-0.55,0.1l-0.28,0.21l-0.05,0.42l-0.4,-0.03l-0.97,0.42l-1.4,0.14l-1.76,0.67h-0.86l-0.07,0.18l-1.83,-0.05l-1.42,0.23l-2.01,0.85l-0.5,0.53l-0.6,1.55l-1.71,0.35l-0.78,0.85l-2.51,1.6l-0.8,0.09l-2.06,-0.37l-3.34,0.24l-1.09,0.3l-0.33,0.81l-0.59,0.41l-2.3,-0.49l-2.71,0.14l-5.55,1.37l-3.25,0.4l-3.6,0.3l-3.18,-0.18l-1.61,-0.33l-4.92,-1.78l-0.97,0l-0.19,-0.26l-0.54,0.11l-0.22,-0.79l0.12,-0.18l-0.66,-0.39l-0.83,-1.51l-1.56,-1.34l-1.18,-0.67l-0.29,-0.88l-0.71,-0.79l-0.55,-0.12l-2.52,-1.27l-6.57,-4.14l-0.07,-0.4l0.85,-0.48l0.69,0.32l0.57,0.02l2.68,-0.65l0.76,-0.63l0.29,-0.69l0.1,-2.48l0.23,-0.67l-0.09,-0.58l-0.22,-0.05l0.09,-0.69l-0.26,-0.84l1.25,-0.69l1.07,-0.35l0.55,-0.07l0.42,0.18l1.14,-0.21l0.99,-1.27l0.1,-0.51l1.4,0.06l0.64,-0.63L730.24,404.92zM399.36,54.46l-22.47,27.04l-15.31,19.22l-4.23,12.05l-3.91,9.45l-4.56,2.93l-3.91,2.93l-4.23,1.96l-4.23,2.93l-12.7,-0.65l0,0l0.03,39.44l0,0l-42.1,47.47l37.5,-3.85l22.15,-0.65l22.8,-2.93l14.33,0.98l-8.14,12.7l0,0l-8.47,8.14l0,0l-1.63,11.73l-2.6,4.23l0,0l3.26,1.3l3.91,2.93l0,0l-0.33,3.91l-1.95,2.93l-3.26,1.63l-5.54,3.26l-3.26,2.61l1.63,2.61l2.93,1.96l4.89,6.51l-0.33,4.89h2.61l0,0l11.73,6.19l6.19,0.98l1.95,3.91l0,0l3.91,2.61l5.21,4.23l0.33,2.61l1.96,2.93l0,0l8.79,3.26h6.19l2.61,-0.65l2.61,-1.63v2.93l0,0l2.61,0.98l2.93,3.26l0,0l2.61,3.91l0.15,0.45l0,0l4.7,0.23l0.76,-0.09l0.1,-0.55l0.16,0.51l0.74,-0.23l2.08,-1.84l1.73,-2.46l1.25,-0.9l1.06,-0.19l1.21,-1.63l0.28,0.11l0.69,-0.62l1.7,-2.38l0.33,-0.09l0.21,-0.89l-0.15,-0.89l0.31,-0.62l2.11,-1.01l0.43,0.25l0.17,-0.34l0.45,-0.09l0.36,-0.48l0.62,-1.74l0.45,-0.14l0.45,-0.53l1.99,-0.14l0.81,-0.73l0.16,-0.28l-0.1,-1.13l-0.73,-0.39l-0.02,-0.58l0.36,-0.51l0.21,-1.15l0.93,-1.99l0.42,-0.18l0.12,-0.87l2.82,-3.78l2.68,-2.27l0.55,-0.23l0.83,0.04l0.57,0.12l0.12,0.32l0.4,-0.25l0.4,0.25l-0.02,0.34h0.24l0.19,0.34l0.83,0.34l0.09,-0.34l-0.28,-0.5l0.09,-0.64l0.55,-1.01l2.63,-1.4l2.68,-1.76l5.97,-3.16l3.75,-1.23l1.52,-0.83l1.56,-0.6l0.86,-0.28l0.42,0.21v-0.37l4.41,-2.5l3.65,-1.42l3.32,-0.91l4.55,-0.8l4.81,-1.67l0.62,0.02l1.19,-0.34l5.21,-2.35l1.71,0.27l1.87,-0.41l1.09,0.07l1.02,1.73l-0.26,0.34l2.47,-0.69l2.94,-1.26l1,0.23l0.74,-0.14l0.64,0.43l1.71,-0.14l0.47,-0.3l-0.07,-0.62l0.47,-0.46l4.15,-2.47l2.94,-1.28l0.83,-0.19l0.85,0.62l0.03,-0.28l0.57,-0.52l0.1,-0.44l1.9,-1.67l2.34,-1.58l4.1,-2.26l6.95,-1.78l4.84,-0.73l2.47,-0.62l1.09,0.14l5.02,-1.28l0,0l-1.2,-2.43l-1.22,-1.46l-1.22,-3.42l-1.71,-3.42l-1.95,-2.44l-1.47,-3.18l-3.66,-0.24l-0.98,-1.47l-1.95,-0.98l-3.42,-0.98l-4.64,-2.44l-5.62,-1.71l-5.13,-0.49l-0.24,-2.2l1.96,-0.49l-0.24,-5.13l-4.15,-1.47l-2.44,-0.49l-1.47,-1.95l0.25,-2.44l2.2,-10.26l0.73,-6.35l1.96,-3.18l1.95,-1.71l0.98,-3.18l-1.47,-2.44l-1.95,-2.2l-2.69,-1.95l1.47,-5.62l2.2,-4.15l1.47,-3.42l-0.24,-4.4l2.93,-4.4l-2.2,-1.47l-0.24,-2.93l1.71,-2.69l2.2,-2.44l3.67,-2.44l5.37,-1.47l4.89,-0.24l3.42,-1.71l2.69,-2.2l1.95,-2.2l0.24,-4.15l4.15,-3.42l4.89,-3.18l5.13,-3.66l4.15,-2.2l4.15,-1.95l2.93,-0.24l0.73,-2.93l0.98,-1.71l2.44,-3.18l3.42,-2.69l2.93,-3.42l0.73,-2.93l1.95,-2.93l3.18,-5.62l4.15,-10.26l3.18,-7.08l1.47,-7.33l1.95,-19.05l1.22,-4.64l2.2,-3.42l1.95,-4.15l3.42,-5.13l2.2,-6.11l2.44,-4.64l2.2,-3.66l3.42,-4.4l2.93,-3.18l1.95,-3.42l5.37,-6.11L636.25,0l0,0l-74.35,14.73l-104.56,11.4L399.36,54.46z"/>
		<path id="YE-HJ" title="Ḩajjah" class="land" d="M87.04,153.23L88.2,153.15L88.2,153.15L88.95,153.96L90.92,154.13L90.92,154.13L92.57,155.28L95.37,155.61L99.32,153.96L99.32,153.96L100.81,153.47L102.78,153.14L105.25,153.96L107.89,154.46L107.89,154.46L108.19,166.73L108.19,166.73L107.2,168.05L107.2,168.05L106.04,169.69L107.2,173.15L107.2,175.62L107.2,175.62L106.87,178.59L108.52,179.91L108.52,179.91L110.33,181.55L110,186.99L111.32,188.8L112.14,190.45L113.95,192.92L113.95,192.92L113.13,194.57L113.13,194.57L111.65,195.06L110.66,196.54L111.32,198.36L112.96,197.7L114.28,195.39L116.26,194.4L118.07,195.72L119.06,198.03L118.56,200.33L119.06,201.49L118.89,202.8L119.88,203.79L120.38,205.93L120.38,205.93L118.89,205.77L118.89,205.77L119.06,210.38L121.36,210.38L121.36,210.38L121.53,212.19L121.53,212.19L120.05,212.85L120.05,216.48L118.56,216.8L117.58,215.65L115.27,215.98L114.61,218.12L114.61,218.12L114.94,220.1L114.94,220.1L116.26,220.59L116.75,221.91L116.75,221.91L115.1,222.57L115.1,222.57L115.1,223.89L113.62,224.38L110,223.89L106.87,223.06L106.87,223.06L104.4,223.39L101.1,223.56L97.97,224.71L94.51,224.88L93.52,225.7L90.3,226.03L90.3,226.03L89.14,225.54L89.14,219.93L87.83,218.95L87.99,217.46L89.31,217.46L88.98,213.67L87.99,212.85L88.15,210.87L90.3,208.57L90.3,202.64L88.81,201.65L86.51,201.81L81.07,203.63L77.28,205.6L74.81,205.77L72.67,206.43L69.87,206.59L68.88,205.77L66.91,205.27L63.94,202.97L62.14,202.9L62.14,202.9L62.28,201.11L62.49,200.76L62.43,199.54L62.83,198.4L62.8,197.65L63.07,196.72L62.8,195.36L63.49,193.82L63.56,192.93L63.33,192.37L63.38,191.85L63.68,191.37L63.56,190.19L62.94,189.23L63.18,188.81L62.5,186.18L62.66,185.47L62.4,184.16L62.8,183.48L62.81,183.14L62.73,182.43L62.16,181.6L61.45,179.78L61.69,178.9L61.6,177.75L61.15,176.71L60.91,175.46L61.17,174.14L61.08,173.62L60.74,173.06L60.5,171.96L59.1,170.99L58.6,169.67L59.43,168.69L61.9,168.85L63.05,169.67L67.88,169.92L68.72,169.24L70.87,169.17L71.09,167.38L70.06,164.59L70.12,164.28L71.66,163.35L72.48,162.41L73.14,162.12L74.41,162.08L76.95,161.14L78.88,160.83L79.57,160.39L81.12,160.03L81.4,159.57L81.03,158.12L82.07,155.4L82.23,154.04L82.89,153.17L82.89,152.9L82.13,151.93L82.1,151.54L83.29,151.23L83.61,151.63L85.19,152.46L86.52,152.79z"/>
		<path id="YE-HU" title="Al Ḩudaydah" class="land" d="M60.1,337l0.23,0.15l0.19,0.65l-0.14,0.3l-0.47,0.28l-0.12,1.15l0.23,0.64l-0.52,-0.12l-0.28,0.27l-0.02,0.35l-0.55,0.14l0.07,0.32l-0.22,0.62l-1.04,1.77l-0.31,0.16l-0.8,-0.19l-0.55,0.18l-0.21,0.46l-0.35,0.05l-0.22,0.41l-0.26,0.04l0.04,0.67l-0.12,-0.25l-0.21,-0.02l-0.86,0.44l-0.41,-0.37l-0.16,-0.94l0.14,-0.19l0.4,-0.07l0.07,-0.25l0.45,0.16l0.09,-0.21l-0.17,-0.34l0.16,-0.32l1.11,-0.62l0.16,-0.58l-0.1,-0.78l0.23,-0.76l0.59,-0.76l0.93,-0.25l0.33,-0.65l0.61,-0.16l0.57,-0.44l0.81,-0.02l0.24,-0.21l-0.04,-0.32l0.43,-0.16L60.1,337zM61.81,330.87l0.21,0.07L62,331.1l-0.98,1.82l-1.16,0.46v-0.53l-0.21,-0.25l0.52,-0.87l0.8,-0.76L61.81,330.87zM58.98,318.49l0.33,0.76l1.23,1.08l0.09,0.85l0.42,0.05l-0.43,0.58l0.1,2l-0.62,0.97l-0.02,1.19l0.23,0.35l0.07,0.73l-0.57,0.59l0.02,0.21l0.26,0.04l0.21,0.53l0.31,0.21l-0.67,0.53l-0.6,-0.25l0.28,-0.94l-0.54,-0.04l-0.64,0.43l0.21,0.44l-0.35,0.23l-0.26,-0.27l0.14,-1.35l0.83,-0.89l-0.09,-0.28l-0.36,-0.18l-1,0.16l-0.66,-0.14L56.64,325.4l-0.52,0.17l-0.15,-0.1l0.09,-0.73l-0.17,-0.32l-1.05,-0.58l-0.59,0.09l0.03,-0.97l-0.66,-0.11l0.24,-0.39l0.64,-0.46l0.38,-0.74l0.21,0.28l0.31,-0.11l0.48,-0.94h-0.28l-0.35,0.6l0.23,-0.64l1.66,-1.17l0.45,0.05l0.57,-0.57l0.52,0.04L58.98,318.49zM67.92,282.73l0.16,0.09l-0.19,0.3l0.16,0.28l0.71,-0.14l-0.09,0.69l0.33,0.37l1.31,-0.32l-0.1,0.25l-0.73,0.3l-0.15,0.3l-0.43,-0.19l-0.86,-0.62l-0.5,-0.71l0.1,-0.57L67.92,282.73zM21.41,257.2l0.59,0.41l-0.05,0.69l-0.28,0.09l0.05,0.25l-0.36,-0.05l-0.02,-0.44l-0.28,0.11l-0.21,-0.34l0.14,-0.5L21.41,257.2zM22.57,254.1l0.57,0.16l0.45,0.59l-0.17,0.34l0.16,0.05l-0.1,0.39l0.29,0.57l-0.16,0.43l-0.9,0.82l-0.24,-0.02l-0.03,-0.36l-0.38,-0.28l-0.19,-0.89l-0.35,-0.59l0.14,-0.2l-0.14,-0.18l0.19,0.07l0.42,-0.25l0.05,-0.41L22.57,254.1zM50.88,229.86l0.5,0.11l-0.14,0.39l0.71,0.59l-0.02,0.71l-0.74,-0.44l-0.16,0.36l-0.47,0.25l-0.5,-0.52l-0.29,-0.07l-0.02,0.3l-0.33,0.13l-0.6,0.8l0.43,-0.04l0.78,-0.46l0.09,0.48l-0.55,0.28l0.42,0.61l-0.5,0.21l-0.43,-0.11l-1.57,0.25l0.02,0.23l0.52,0.05l0.23,0.41h0.47l1.99,-1.02l0.69,-0.02l-0.47,1.55l-0.28,0.27l-0.14,0.66l-0.57,0.96l0.26,0.73l-0.5,-0.02l0.05,0.3l0.31,0.02l0.21,0.7l-0.22,1.28l-0.35,0.7l-0.81,0.75l-0.41,1.07l-0.92,0.09l-0.55,-0.21l-1.37,-1.18l-0.67,-1.02l-0.07,-0.84l1.23,-0.02l0.64,-1.62l-0.04,-0.77l-0.5,-1.07l0.05,-0.96l-0.24,-0.43l2.11,-2.51l0.78,-0.28l-0.35,-0.61l0.83,-0.2l1.18,-0.86L50.88,229.86zM42.93,226.75l0.87,0.39l0.81,-0.09l0.12,0.14l-1.19,1.46l-0.78,-0.11l-0.1,-0.23l0.16,-0.48l0.64,0.04l0.04,-0.53l-0.97,0.02l0.14,0.21l-0.12,0.28l-0.21,-0.05l-0.5,0.3l-0.26,-0.45l0.26,-0.5L42.93,226.75zM34.49,224.93l0.71,0.28l-0.02,0.21l-0.33,0.2l0.26,1.52l0.43,0.48l1.59,1.09l0.05,0.32l-0.16,0.14l-1.04,-0.57l-0.9,-0.93l-0.1,-0.75l-0.35,-0.39l-0.15,-0.82l-0.62,-0.57L34.49,224.93zM1.63,223.42l0.33,0.07L2.3,223.88l-0.07,1.12l-1.64,0.66l-0.47,-0.39l-0.1,-0.71l0.64,-0.86L1.63,223.42zM46.35,222.13l0.05,0.39l-0.35,0.57l-0.33,0.25l-0.81,0.05v-0.52l0.17,-0.16l0.48,-0.05L46.35,222.13zM48.91,217.4l0.4,0.25l0.28,0.55l1.78,0.61v0.21l-0.21,0.16l-1.23,-0.23l-0.52,0.52l-0.59,-0.04l-0.24,-0.34v-0.71l-0.62,-0.45l-0.02,-0.2l0.12,-0.21L48.91,217.4zM46.44,213.65l0.45,0.07l0.09,0.25l-0.28,0.21l-1.54,-0.12l0.16,-0.32L46.44,213.65zM29.89,213.35l0.26,0.13l0.05,1.25l0.5,2.25l-0.79,-0.62l-0.26,-1.05l-0.48,-0.11l0.23,-1.61L29.89,213.35zM42.7,212.07l0.33,0.25l-0.05,0.52l-0.17,0.18l-0.64,-0.07l0.07,-0.46L42.7,212.07zM35.82,211.21l1.04,0.88l1.16,0.5l0.54,0.04l0.35,0.36l0.76,-0.14l0.12,0.27l0.35,0.16l1.56,-0.04l-0.15,0.54l0.19,0.23l-0.14,-0.04l-0.05,0.32l-1.38,0.16l-2.89,-0.62l-1.35,0.23l-0.4,0.25l-0.45,-1.02l0.42,-0.66l-0.29,-0.34l0.09,-0.2l-0.22,-0.41l0.19,-0.36L35.82,211.21zM50.6,209.76l0.07,0.34l-0.52,1.34l-0.81,0.7l-0.41,-0.12l0.1,-0.73l0.54,-1.07L50.6,209.76zM62.14,202.9l1.8,0.07l2.97,2.31l1.98,0.49l0.99,0.82l2.8,-0.16l2.14,-0.66l2.47,-0.16l3.79,-1.98l5.44,-1.81l2.31,-0.16l1.48,0.99v5.93l-2.14,2.31l-0.16,1.98l0.99,0.82l0.33,3.79H87.99l-0.16,1.48l1.32,0.99v5.6l1.15,0.49l0,0l-0.16,2.31l0.99,0.99l0,0l0.82,1.48l-1.98,1.32l0,0l0.49,5.93l1.15,0.99l0.99,1.81l2.31,2.14l4.61,3.13l1.48,1.98l0,0l0.17,2.31l0.82,1.15l1.15,0.99l1.81,0.99l0,0l1.48,0.82l0,0l0.4,0.13l-0.4,0.94l0.17,1.65l0,0l1.98,0.82l2.47,0.49l0,0h2.97l1.65,1.65l0,0l-1.48,1.81l0,0l-0.19,0.67l-0.14,-0.01l0,0l-4.78,-0.16l-0.82,2.47l-1.65,1.65l-2.31,0.49l-1.65,4.28l1.15,1.32l0.49,2.31l0.82,1.15l-1.81,2.31l-0.33,4.94l2.14,1.98l0,0l0.66,2.97l0.99,2.47l0,0l0.66,2.97l0,0l0.82,1.48l-0.16,1.65l-1.15,0.49l0,0v1.48l0,0h-2.14l-1.81,0.33l0,0v1.81l1.48,2.31l2.14,3.95l1.15,1.15l0,0l-0.66,1.81l-1.81,0.99l0.5,2.47l2.14,1.32l0,0l3.29,0.16l3.79,3.95h2.64l1.81,-1.15l0,0l1.34,-1.19l0.31,1.85l0,0l1.32,0.66l0,0l-1.65,1.48l-1.65,0.66l0,0l0.33,2.47l-1.15,1.81l-2.96,-2.47l-0.99,1.32l0.33,1.65l0,0l1.15,1.32l0.99,1.48l0,0l-2.59,0.12l0,0l-0.04,-0.12l0,0h-1.81l-2.14,1.32l-2.47,-0.49l-3.62,0.82l0,0l-0.66,2.97l-0.16,1.81l0,0l0.49,1.48l-2.96,0.33l-0.99,3.46l-1.32,1.15l-1.81,0.33l0,0l-1.98,1.15l-1.81,0.66l0,0l-1.25,0.42l0,0l-0.21,-1.97l-3.22,-7.91l-0.19,-1.82l0.4,-1.29l-0.07,-0.57l-0.78,-0.94l-1.35,-0.67l0.05,-0.78l-0.67,-0.97l-1.88,-1.29l-0.14,-1.04l-0.74,-1.06l-0.02,-1.43l-1.35,-1.51l-0.1,-0.64l-0.55,-0.83l-0.95,-0.58l0.52,-0.62l0.14,-0.87l-1.25,-2.36l0.07,-1.08l-0.81,-2.52l-0.07,-1.47l-0.54,-2.15l-0.62,-0.81l-1.23,-2.87l-0.26,-2.27l-0.62,-1.7l-1.59,-2.52l-0.12,-1.37l-0.38,-1.51l-0.31,-0.44l-0.02,-0.96l-0.69,-1.12l-0.55,-2.8l-1.28,-0.92l-0.16,-1.17l0.19,-0.53l0.48,0.32l-0.16,1.01l0.19,0.57l1.11,0.32l-0.17,0.23l0.54,2.49l0.88,0.03l-0.07,0.66l0.31,0.48l0.4,0.05l0.62,2.13l0.45,0.02l0.05,-1.63l-1.07,-0.83l-0.24,0.11l-0.16,-0.19l0.35,-0.16l0.59,0.07l0.31,-0.51l-0.04,-0.23l-0.78,-0.51l0.4,-0.5l-0.1,-0.96l0.38,-0.53l0.05,-0.75l-0.19,-0.34l-0.35,-0.07l-0.17,-0.51l-0.78,-0.16l-0.14,-0.21l0.03,-0.19l0.57,0.11l0.29,-0.44l-1.21,-3.68l0.09,-2.22l-1.14,-0.94l0.1,-0.82l-1.12,-1.76l-0.16,-1.74l0.35,-1.01l-0.19,-1.12l-0.52,-1.19l-1.23,-0.96l-0.15,-0.8l-0.26,-0.32l-2.01,-1.65l-0.26,-1.32l-0.57,-1.53l0.09,-1.03l0.33,-0.55l0.47,0.27l-0.21,0.52l0.54,0.6l0.45,-0.05l0.28,0.27l-0.83,0.2l-0.09,0.39l-0.04,1.05l0.35,0.41l0.21,1.12l0.19,0.11l0.29,0.05l0.36,-0.92l-0.43,-0.71l0.8,0.05l0.66,-0.36l0.09,0.3l-0.57,0.25l-0.19,0.66l0.67,1.32l0.42,0.34l-0.28,1.14l0.47,0.13l0.17,-0.14l0.09,-1.39l-0.14,-0.2l0.42,-0.44l0.02,-0.76l-0.35,-0.71l-0.52,-0.43l0.35,-0.28l0.52,0.36l-0.1,0.41l0.26,0.3l0.38,-0.53l-0.45,-1.14l-0.05,-1.8l-1.04,-3.15l-0.67,-1.03l-1.28,-1.08l-0.6,-0.12l-0.33,-0.32l-0.22,-0.59l-0.42,-0.34l0.14,-0.94l-0.38,-0.39l-0.02,-2.12l-0.26,-0.43l0.36,-0.5l0.28,-1.44l-1.11,-2.08l-0.73,-0.69l-3.84,-2.12l-3.68,-1.23l-2.75,-0.55l-0.64,0.5l-0.07,0.48l0.19,0.52l-0.43,0.75l-0.74,0.14l-0.74,-0.14l-0.47,-0.11l-0.48,-0.37l-0.24,-0.96l-1.35,-1.53l0.19,-1.17l0.45,-0.5l1.16,0.62l0.24,0.52l0.54,0.11h1.83l0.71,-0.69l-0.04,-0.77l0.33,-0.23l0.28,-0.85l-1.16,-1.66l-0.07,-0.93l0.88,-0.48l0.45,-0.71v-1.51l0.17,-0.36l0.35,-0.21l0.38,0.14l0.07,0.77l-0.67,1.23l-0.35,1.46l0.19,0.3l0.88,-0.41l0.8,-0.02l0.02,0.64l0.62,0.54l-0.21,0.82l0.42,0.46l0.57,-0.27l0.33,0.07l0.07,0.36l0.4,-0.37l0.35,-0.02l0.12,0.36l0.38,0.3l-0.26,0.96l0.17,0.93l0.28,0.18l0.74,-0.27l-0.07,-0.39l1.63,-2.01l-0.02,-0.69l-1.04,-1.1l-0.54,-0.19l-0.54,0.05L60.44,239l0.21,-0.43l0.31,-1.92l-0.04,-0.57l-0.78,-0.02l-0.26,-0.37v-0.37l0.29,-0.16l-0.05,-0.96l-0.66,-1.05l-0.09,-0.62l-0.59,-0.3l0.67,-0.96l0.16,-0.75l-0.14,-0.46l0.24,-0.52l-0.83,-0.96l0.09,-0.73l-0.43,-0.52l-0.22,-1.07l-0.55,-1.21l-1.16,-0.66l-0.8,0.07l-0.28,-0.14l-0.66,-0.84l-0.12,-0.53l0.76,-0.07L56,221.49l0.5,-0.41l-0.14,-0.71l-1,-0.64v-0.89l-0.74,-0.64l0.48,-0.64l-0.19,-0.46l0.07,-0.55l0.57,-0.93l-0.05,-0.86l-0.17,-0.18l-0.85,0.11l-0.67,0.8l-0.28,-0.75l0.07,-0.12l0.33,0.11l-0.1,-0.55l0.14,-0.82l-0.33,-0.05l0.5,-0.71l0.17,0.21l0.1,-0.59l0.45,-0.05l0.67,0.52l0.16,-0.34l-0.52,-0.09l-0.21,-0.52l0.97,0.16l0.31,-0.37l1.18,-0.71l0.31,-1.21l-0.29,-0.57l0.35,-0.07l0.24,-0.41l0.38,0.14l0.29,-0.09l0.26,-0.71l-0.04,-0.3H58.75l0.02,-0.36l0.4,0.05l0.74,-0.5l0.09,-0.32l-0.15,-0.37l0.23,-0.59L62,203.42L62.14,202.9z"/>
		<path id="YE-IB" title="Ibb" class="land" d="M174.24,303.62L175.39,304.27L175.23,306.58L173.91,306.74L174.24,310.53L178.19,311.69L178.19,311.69L178.28,311.69L178.28,311.69L178.36,313.66L176.55,314.98L174.9,314.49L173.42,314.65L173.25,317.62L171.44,318.27L170.29,320.09L171.44,321.73L173.75,322.39L172.26,323.88L168.64,323.88L166,324.86L164.36,326.18L165.02,328.65L162.71,331.29L161.56,333.27L159.42,334.91L159.09,337.05L159.09,337.05L160.09,338.55L160.09,338.55L158.82,340.27L157.34,341.75L155.86,342.57L153.88,342.08L152.4,340.6L151.57,339.44L150.09,340.27L148.94,341.75L147.13,341.75L147.13,339.44L143.83,339.77L141.03,337.63L140.21,339.11L137.74,337.47L135.27,336.81L133.45,336.97L130.49,336.81L130.65,335.32L131.97,334.17L132.79,333.02L131.48,331.7L129.83,332.19L129.5,333.51L127.85,335L127.03,333.51L127.69,332.03L127.69,330.38L125.38,330.55L122.75,332.85L121.43,331.04L120.28,331.54L120.11,333.51L117.81,333.02L115.01,332.69L114.84,330.88L114.84,330.88L114.22,329.02L114.22,329.02L116.82,328.9L116.82,328.9L115.83,327.42L114.68,326.1L114.68,326.1L114.35,324.45L115.33,323.14L118.3,325.61L119.45,323.79L119.12,321.32L119.12,321.32L120.77,320.66L122.42,319.18L122.42,319.18L121.1,318.52L121.1,318.52L120.77,316.55L120.77,316.55L121.92,315.39L123.08,311.27L123.08,308.64L125.38,308.64L125.22,311.27L126.7,310.95L130.16,308.64L132.47,306L131.64,304.36L131.31,302.71L130.16,302.21L130.82,300.9L132.3,301.06L133.62,299.41L135.27,299.08L137.24,296.94L137.9,295.3L139.71,293.15L141.2,293.15L141.2,299.91L143.5,299.91L144,298.59L147.13,298.43L148.28,293.81L150.09,294.31L151.08,295.46L152.4,296.45L153.72,298.43L155.69,299.08L157.67,299.08L159.32,299.74L160.96,300.73L163.76,300.73L164.59,302.71L165.41,303.53L169.36,303.7L171.01,306z"/>
		<path id="YE-JA" title="Al Jawf" class="land" d="M312.77,184.25L301.34,185.26L276.8,189.05L276.8,189.05L265.27,190.53L254.4,192.67L247.31,194.48L247.31,194.48L242.54,196.13L238.91,198.93L236.11,201.73L234.13,205.52L232.49,207.83L227.71,209.64L214.2,209.64L214.2,209.64L189.82,192.84L174.34,192.84L173.02,193.66L173.02,193.66L169.07,193.5L166.43,192.67L162.81,192.51L162.81,192.51L160.67,192.84L158.36,190.86L158.36,190.86L158.36,187.4L156.05,186.74L156.05,186.74L154.41,184.93L153.75,181.47L155.07,179.49L155.73,174.22L152.92,174.22L152.92,174.22L153.09,166.32L154.24,165.33L153.91,160.88L153.91,160.88L149.79,157.09L148.64,154.13L148.64,154.13L147.16,152.97L145.35,153.96L143.7,153.14L140.24,152.48L140.24,152.48L141.89,149.51L145.18,148.2L159.84,133.87L166.1,129.58L170.22,127.44L175,126.62L192.62,126.62L192.49,102.07L212.62,102.07L223.92,109.35L235.21,110.11L250.53,112.62L266.34,114.38L275.63,115.13L289.69,115.13L309.02,112.37L323.8,132.31L323.8,132.31L323.83,171.75L323.83,171.75z"/>
		<path id="YE-LA" title="Laḩij" class="land" d="M105.93,406.68L106.37,403.93L107.69,402.12L110.99,396.69L112.47,392.9L113.95,390.59L115.93,390.43L117.25,388.94L116.92,383.51L117.25,382.02L120.21,382.52L122.19,382.02L122.85,380.54L124.49,380.05L125.65,379.06L126.96,379.06L128.78,380.54L132.4,381.2L134.05,383.01L135.04,382.19L134.87,379.72L136.19,378.89L137.34,379.55L138.17,381.04L141.29,380.87L141.46,377.08L146.4,377.25L145.25,375.93L144.43,374.12L145.91,373.95L145.91,371.15L147.23,370.99L148.21,373.46L152.83,372.96L154.47,373.62L155.63,372.31L157.44,371.48L157.44,369.51L156.12,367.86L157.11,365.39L155.79,364.23L156.12,362.92L158.1,362.09L159.91,362.59L162.05,362.59L162.38,360.94L160.73,360.28L158.92,359.95L157.11,359.29L156.94,357.32L158.26,356.49L159.74,356L161.23,355.83L162.05,354.84L163.53,354.02L165.35,353.36L166.99,351.55L168.8,350.23L168.8,350.23L170.95,350.89L172.26,352.21L174.41,350.56L176.22,351.88L178.19,351.22L180.83,350.89L182.48,349.9L183.14,348.75L184.78,348.75L185.44,349.9L188.57,349.9L187.75,346.61L185.77,340.68L188.57,340.68L190.38,341.67L192.2,340.02L194.83,339.52L197.3,337.22L200.76,335.08L204.06,332.28L206.2,329.81L208.17,324.39L208.17,324.39L208.17,324.54L208.17,324.54L210.81,324.7L211.3,325.85L213.61,325.69L215.09,323.38L216.9,321.9L218.88,319.92L220.86,320.09L222.01,321.73L222.18,330.13L222.18,330.13L218.16,329.97L218.16,329.97L217.5,331.29L217.99,333.27L219.31,334.25L219.64,335.9L217.83,336.56L214.86,336.07L213.54,337.05L213.21,339.36L214.37,340.35L214.53,342.82L212.23,342.65L210.25,343.15L209.1,344.3L210.41,346.28L212.88,345.46L214.7,345.46L215.85,346.61L215.03,349.08L213.38,351.39L211.24,352.87L209.59,356.33L212.23,357.65L214.37,359.79L215.69,361.43L215.03,364.07L213.38,365.06L211.07,365.72L210.08,370.66L207.28,377.91L204.98,381.04L202.51,382.52L202.18,385.15L203.33,387.95L204.77,390.11L204.77,390.11L204.13,391.14L204.13,391.14L199.05,391.41L193.61,392.24L191.64,393.56L188.34,395.04L183.07,395.53L170.88,395.86L165.11,398.5L163.14,401.13L161.32,403.93L160.66,407.08L160.66,407.08L158.02,408L154.01,410.27L152.69,410.2L151.85,410.55L150.86,410.06L149.96,409.97L147.56,411.01L146.4,411.11L145.67,410.73L144.93,410.66L144.41,410.23L144.53,410.16L145.05,410.53L146.05,410.64L146.26,410.83L147.16,410.9L147.89,410.69L147.89,409.9L147.57,409.46L145.78,408.74L144.31,409.12L141.8,410.73L140.66,411.02L139.17,411.82L135.4,411.92L134.34,412.49L132.67,412.54L131.54,412.27L130.76,411.57L130.78,410.07L130.35,409.33L126.39,408.05L123.52,406.41L122.83,406.27L121.86,406.48L121.1,406.23L120.23,405.51L119.7,405.32L118.69,405L117.65,404.91L116.57,404.24L114.52,404.16L114.16,403.77L113.47,403.56L113.07,403.65L111.26,402.73L110.34,402.98L109.3,403.57L106.53,406.94L106.33,406.98L106.12,406.59z"/>
		<path id="YE-MA" title="Ma'rib" class="land" d="M230.85,276.27L231,278.58L229.36,282.37L228.7,285L225.07,285L225.4,283.02L223.59,282.04L222.44,283.85L221.78,286.32L219.8,286.48L216.84,284.51L215.85,285.82L218.32,287.64L217.83,289.12L216.34,288.95L214.7,287.47L212.72,287.31L210.74,288.95L210.25,291.1L207.12,290.11L204.65,288.3L203.17,283.85L202.18,277.09L201.35,269.85L200.04,269.85L198.72,270.67L195.92,270.67L192.95,271.99L192.95,271.99L192.29,270.01L192.29,270.01L191.96,267.38L193.45,265.89L195.26,262.76L196.41,258.81L199.71,254.86L203,251.89L205.8,243.82L206.13,239.87L203.99,239.54L189,231.96L187.02,231.47L187.02,237.73L180.43,237.4L179.61,229.49L176.32,231.79L173.68,233.11L171.37,232.29L169.23,230.81L170.06,228.34L173.85,228.01L175.99,227.18L177.63,226.03L179.28,224.38L181.59,223.23L183.56,222.9L185.87,222.08L187.19,219.93L186.36,218.12L184.72,217.46L181.75,216.64L179.28,210.55L179.61,208.07L178.46,202.47L176.15,197.53L175.16,196.21L175,194.57L173.02,193.66L173.02,193.66L173.02,193.66L173.02,193.66L174.34,192.84L189.82,192.84L214.2,209.64L214.2,209.64L227.71,209.64L232.49,207.83L234.13,205.52L236.11,201.73L238.91,198.93L242.54,196.13L247.31,194.48L247.31,194.48L254.4,192.67L265.27,190.53L276.8,189.05L276.8,189.05L301.34,185.26L312.77,184.25L312.77,184.25L281.73,219.22L281.73,219.22L280.49,220.51L260.72,232.7L260.72,232.7L254.63,237.48L250.34,240.28L247.05,242.09L247.05,242.09L244.08,243.24L241.28,247.53L236.18,251.15L236.18,251.15L232.72,255.76L229.92,260.7L229.92,260.7L230.25,266.3L228.44,270.42L228.44,270.42L228.11,276.19z"/>
		<path id="YE-MR" title="Al Mahrah" class="land" d="M559.53,253.46L558.33,251.04L557.11,249.57L555.89,246.15L554.18,242.73L552.22,240.29L550.76,237.11L547.09,236.87L546.12,235.4L544.16,234.42L540.74,233.45L536.1,231L530.48,229.29L525.35,228.81L525.11,226.61L527.06,226.12L526.82,220.99L522.66,219.52L520.22,219.03L518.75,217.08L519,214.64L521.2,204.38L521.93,198.02L523.89,194.85L525.84,193.14L526.82,189.96L525.35,187.52L523.4,185.32L520.71,183.37L522.17,177.75L524.37,173.6L525.84,170.18L525.6,165.78L528.53,161.38L526.33,159.92L526.08,156.98L527.79,154.3L529.99,151.85L533.66,149.41L539.03,147.95L543.92,147.7L547.34,145.99L550.02,143.79L551.98,141.59L552.22,137.44L556.38,134.02L561.26,130.85L566.39,127.18L570.54,124.98L574.7,123.03L577.63,122.78L578.36,119.85L579.34,118.14L581.78,114.97L585.2,112.28L588.13,108.86L588.87,105.93L590.82,103L594,97.38L598.15,87.12L601.32,80.03L602.79,72.7L604.74,53.65L605.97,49.01L608.16,45.59L610.12,41.44L613.54,36.31L615.74,30.2L618.18,25.56L620.38,21.89L623.8,17.5L626.73,14.32L628.68,10.9L634.06,4.79L636.25,0L636.25,0L660.85,52.35L661.09,57.44L684.56,106.32L682.14,110.91L686.98,110.43L688.43,115.51L705.37,152.05L701.53,153.59L698.8,154.31L694.46,155.16L692.45,156.07L686.64,158.08L686.38,158.29L686.37,158.6L684.58,159.37L683.69,159.53L679.88,160.84L679.59,161.16L678.17,161.88L670.33,164.48L664.94,166.67L662.29,168.1L659.99,169.71L657.29,172L654.25,175.39L648.78,182.34L647.61,185.15L646.88,186.43L646.74,188.72L646.26,190.35L645.76,190.8L644.41,194.25L643.65,195.48L643.29,196.79L643.54,198.93L643.94,199.18L644.22,199.72L644.84,199.95L644.56,200.83L644.34,200.99L644.12,204.24L645.08,205.05L645.78,205.26L646.76,206.67L646.12,206.42L645.97,206.78L646.61,207.8L646.29,208.58L646.74,208.87L646.76,209.07L646.29,209.14L645.95,209.57L645.86,210.46L646.21,211.57L646.35,212.87L648.18,218.56L647.23,219.13L646.35,220.06L644.44,220.44L633.88,224.17L630.83,225.33L630.16,225.9L625.94,227.61L625.14,228.3L624.62,229.04L625.07,229.37L624.76,229.84L624.81,230.09L625.42,230.62L624.8,230.57L624.55,230.82L623.57,229.93L623,229.64L618.73,230.87L614.35,232.66L612.05,234.1L611.5,235.53L611.6,236.43L612.9,236.88L613.24,237.33L612.97,237.65L611.83,237.66L611.05,238.11L609.51,238.07L609.37,237.81L607.71,238.02L605.44,238.68L601.54,240.21L601.21,240.69L600.33,241.19L600.26,241.66L599.86,241.41L599.53,241.57L599.5,241.8L599.06,241.69L597.99,242.26L598.06,242.9L597.16,242.56L595.17,243.38L594.88,243.56L594.86,244.22L593.55,244.29L593.17,243.97L592.91,243.97L592.53,244.27L592.08,244.24L590.42,244.77L586.09,246.73L584.74,246.91L580.96,248.25L580.16,248.3L580.09,247.44L579.95,248.12L579.54,248.58L573.4,249.71L566.62,251.7L565.36,251.86L560.46,253.48L559.94,253.34z"/>
		<path id="YE-MW" title="Al Maḩwīt" class="land" d="M131.48,225.12L132.3,226.94L129.83,228.25L130.49,229.9L131.81,230.23L131.81,231.71L130.32,232.04L129.34,232.87L128.51,234.51L124.89,234.51L124.06,236.49L121.76,238.63L118.96,240.44L115.17,241.27L113.69,243.41L110.72,243.74L109.4,245.22L108.91,248.51L110.06,249.34L109.9,250.66L109.4,252.14L107.43,253.13L107.43,253.13L106.84,254.5L106.44,254.36L106.44,254.36L104.96,253.54L104.96,253.54L103.15,252.55L101.99,251.56L101.17,250.41L101,248.1L101,248.1L99.52,246.13L94.91,243L92.6,240.85L91.61,239.04L90.46,238.05L89.97,232.12L89.97,232.12L91.94,230.81L91.12,229.32L91.12,229.32L90.13,228.34L90.3,226.03L90.3,226.03L93.52,225.7L94.51,224.88L97.97,224.71L101.1,223.56L104.4,223.39L106.87,223.06L106.87,223.06L110,223.89L113.62,224.38L116.09,223.56L116.09,223.56L118.07,223.56L119.55,224.88L121.03,224.05L122.85,223.89L123.34,221.58L124.66,221.42L125.48,222.73L127.29,223.23z"/>
		<path id="YE-RA" title="Raymah" class="land" d="M113.99,262.52L113.85,263.01L113.85,263.01L116.49,267.29L118.46,268.28L118.46,268.28L120.91,268.71L120.91,268.71L121.26,270.92L124.56,274.05L128.35,276.85L130.49,278.82L130,281.95L132.14,284.59L131.81,286.24L130.32,287.55L127.19,290.85L124.23,292.33L122.25,293.81L118.96,293.98L118.3,292.66L114.51,293.15L114.02,294.97L112.86,296.45L111.38,297.11L109.57,298.43L108.75,300.07L107.26,300.07L107.1,298.76L107.1,298.76L106.93,298.76L106.93,298.76L106.93,297.27L106.93,297.27L108.09,296.78L108.25,295.13L107.43,293.65L107.43,293.65L106.77,290.68L106.77,290.68L105.78,288.21L105.12,285.25L105.12,285.25L102.98,283.27L103.31,278.33L105.12,276.02L104.3,274.87L103.8,272.56L102.65,271.25L104.3,266.96L106.6,266.47L108.25,264.82L109.08,262.35L113.85,262.52L113.85,262.52z"/>
		<path id="YE-SA" title="Amanat Al Asimah" class="land" d="M161.46,221.99L162.45,223.81L162.45,223.81L161.13,223.97L159.32,222.98L158.49,224.46L155.36,224.79L154.87,227.1L153.39,228.75L151.24,230.56L151.57,233.19L153.06,235.17L153.06,237.31L151.57,239.78L148.28,239.78L147.62,236.49L146.14,236.32L145.81,234.18L147.29,231.88L145.97,230.39L144,229.74L144.99,227.76L147.46,227.76L148.94,226.61L149.93,223.31L151.24,221.66L153.22,221.5L153.72,219.69L155.53,219.69L157.34,218.37L160.3,220.02L160.3,220.02z"/>
		<path id="YE-SD" title="Şā‘dah" class="land" d="M140.26,152.44L135.56,152.64L132.76,151.99L129.96,151.66L129.96,151.66L126.5,151.33L124.36,150.01L122.55,149.68L122.55,149.68L119.91,150.34L118.76,151.49L116.78,152.48L111.51,152.97L109.21,153.8L109.21,153.8L107.89,154.46L107.89,154.46L105.25,153.96L102.78,153.14L100.81,153.47L99.32,153.96L99.32,153.96L95.37,155.61L92.57,155.28L90.92,154.13L90.92,154.13L88.95,153.96L88.2,153.15L88.2,153.15L88.55,152.96L88.61,152.56L88.5,151.61L87.94,151.06L88.17,150.05L87.64,148.7L87.66,148.27L88.31,147.81L88.4,147.35L88.24,146.8L89.96,147.16L90.83,146.6L90.47,145.32L89.97,145.05L90.39,144.11L90.36,142.77L89.51,142.76L88.53,141.91L87.93,140.41L87.18,140.06L85.13,139.79L83.83,137.95L83.03,137.31L82.59,135.28L83.32,134.89L84.19,134.81L85.3,134.01L84.95,133.4L84.7,131.1L84.84,128.94L88.95,129.42L89.93,127.77L88.45,124.81L85.5,123.94L85.04,123.98L83.73,124.67L83.51,122.79L83.69,122.44L84.81,121.87L85.01,119.94L84.74,119.58L84.72,119.25L85.74,118.94L86.02,118.66L85.89,118.25L86.03,117.92L86.67,117.58L87.48,116.77L87.5,116.24L86.67,115.11L86.43,114.37L86.72,113.4L88.93,112.68L89.5,112.09L90.6,111.98L91.46,112.12L93.06,111.02L93.77,110.92L94.78,111.06L94.79,110.36L94.37,109.61L93.88,109.25L93.2,109.2L92.9,108.99L93.29,108.5L93.26,108.22L92.9,107.81L91.49,107.21L90.09,106.19L89.93,104.87L89.93,101.91L92.24,97.63L94.38,95.81L97.35,94.83L100.64,94.17L103.61,94L105.91,94.83L108.38,96.64L111.35,99.27L113.82,102.4L117.28,106.03L117.56,106.55L118.5,106.82L119.84,106.03L121.78,106.15L122.87,106.66L122.8,107.32L123.01,107.77L123.56,107.45L124.1,107.45L124.78,107.92L125.79,107.92L126.57,108.29L127.11,107.8L127.54,108.03L129.47,107.51L131.44,108.33L134.18,108.81L136.65,105.33L139.84,105.22L141.99,104.38L143.95,106.77L145.41,104.05L160.41,102.07L166.18,101.82L170.95,104.33L174.46,103.83L176.97,102.07L192.49,102.07L192.62,126.62L175,126.62L170.22,127.44L166.1,129.58L159.84,133.87L145.18,148.2L141.89,149.51z"/>
		<path id="YE-SH" title="Shabwah" class="land" d="M334.63,348.6L334.49,345.13L334.49,345.13L335.47,341.67L334.49,339.69L334.49,339.69L333.83,333.92L333.33,320.99L333.33,320.99L331.03,319.18L328.23,317.7L328.23,311.11L326.41,310.12L323.94,310.45L323.12,312.26L323.12,312.26L321.97,314.57L320.98,315.23L319.99,313.09L314.39,313.09L310.93,310.95L307.8,310.12L303.52,310.95L299.07,310.62L299.07,310.62L297.62,311.77L297.62,311.77L296.8,314.9L293.17,317.2L293.17,317.2L290.21,318.85L288.72,318.03L286.25,318.19L286.25,318.19L282.96,319.02L279.01,319.51L279.01,319.51L279.17,317.7L280.82,316.05L281.48,314.07L282.79,311.6L282.3,309.46L280.16,306.83L278.68,304.36L275.38,302.71L271.59,303.04L271.59,303.04L269.62,304.69L267.31,305.67L264.84,306.99L264.84,306.99L260.56,303.04L258.91,300.9L257.26,300.9L255.29,301.72L251.5,301.89L251.5,296.61L251.5,296.61L250.18,291.84L246.55,284.92L239.8,284.42L239.8,284.42L239.31,276.52L239.31,276.52L228.11,276.19L228.44,270.42L228.44,270.42L230.25,266.3L229.92,260.7L229.92,260.7L232.72,255.76L236.18,251.15L236.18,251.15L241.28,247.53L244.08,243.24L247.05,242.09L247.05,242.09L250.34,240.28L254.63,237.48L260.72,232.7L260.72,232.7L280.49,220.51L281.73,219.22L281.73,219.22L319.24,215.37L341.38,214.72L364.19,211.79L378.52,212.76L370.37,225.47L370.37,225.47L361.9,233.61L361.9,233.61L360.28,245.34L357.67,249.57L357.67,249.57L360.93,250.87L364.84,253.8L364.84,253.8L364.51,257.71L362.56,260.64L359.3,262.27L353.76,265.53L350.5,268.14L352.13,270.74L355.06,272.7L359.95,279.21L359.63,284.1L362.23,284.1L362.23,284.1L373.96,290.29L380.15,291.26L382.1,295.17L382.1,295.17L386.01,297.78L391.22,302.01L391.55,304.62L393.5,307.55L393.5,307.55L402.29,310.81L408.48,310.81L411.09,310.15L413.69,308.52L413.69,311.46L413.69,311.46L416.3,312.43L419.23,315.69L419.23,315.69L421.84,319.6L421.99,320.05L421.99,320.05L420.15,320.19L418.42,320.65L417.7,321.01L415.48,322.89L414.79,322.6L414.05,322.97L413.65,323.44L413.2,323.29L413.06,323.06L413.1,322.19L412.09,321.52L411.64,321.66L411.75,322.02L411.63,322.12L411.07,322.14L410.9,321.89L410.05,321.73L409.24,322.34L408.44,321.96L407.2,322.28L406.85,321.79L405.88,321.54L405.49,321.73L405.18,322.16L405.5,322.46L405.59,322.85L405.09,322.76L403.6,323.47L403.45,324.09L403.03,324.07L402.48,323.42L402.06,323.82L401.04,323.79L400.96,324.02L401.16,324.39L400.73,324.62L400.51,324.5L400.45,324.09L399.4,324.07L398.91,323.84L398.4,324.73L397.76,324.87L396.79,324.73L396.58,325.15L395.99,324.96L396.2,323.72L395.37,322.92L392.69,321.35L390.72,320.57L388.73,319.91L386.57,319.59L384.54,319.71L382.8,320.14L380.06,321.58L377.75,323.74L374.43,326.16L373.2,327.35L371.09,328.09L368.48,328.27L366.87,328.71L365.74,329.33L363.86,330.8L362.82,331.28L361.11,333L359.92,334.73L357.88,336.22L351.42,342.14L347.95,344.5L347.22,345.2L345.44,345.72L343.71,345.84L341.5,346.74L337.47,348z"/>
		<path id="YE-SN" title="Şan‘ā'" class="land" d="M158.52,191l2.15,1.84l2.14,-0.33l0,0l3.62,0.17l2.64,0.82l3.95,0.17l0,0l1.98,0.91l0.17,1.65l0.99,1.32l2.31,4.94l1.15,5.6l-0.33,2.47l2.47,6.1l2.97,0.82l1.65,0.66l0.82,1.81l-1.32,2.14l-2.31,0.82l-1.98,0.33l-2.31,1.15l-1.65,1.65l-1.65,1.15l-2.14,0.82l-3.79,0.33l-0.82,2.47l2.14,1.48l2.31,0.82l2.64,-1.32l3.29,-2.31l0.82,7.91l6.59,0.33v-6.26l1.98,0.49l14.99,7.58l2.14,0.33l-0.33,3.95l-2.8,8.07l-3.29,2.97l-3.29,3.95l-1.15,3.95l-1.81,3.13l-1.48,1.48l0.33,2.64l0,0l0.63,1.9l0,0l-2.54,0.9l0,0l-1.41,1.74l0,0l-1.82,-0.99l-0.66,-2.31l-0.82,-1.32l-0.99,-1.15l-1.32,-0.99l-2.96,-0.33l0.17,-9.22l-1.48,-0.66l-3.95,0.33l-1.98,0.99l-2.14,0.33l-1.65,0.99l-0.99,1.32l-2.63,0.33l-2.96,0.99l-1.81,-1.48l-1.65,-1.65h-1.98v1.65l0.99,0.66l-0.82,1.15l-6.92,-0.49l-4.61,-3.79l-7.25,-0.33l-1.48,1.32l-0.16,1.65h-1.65l-0.99,1.48l-1.48,1.32l-1.98,0.33l-0.49,1.81l-2.47,2.14h-1.81l-0.16,-1.32h-4.78v1.48l0,0l-2.8,-0.49l0,0l-1.98,-0.99l-2.64,-4.28l0,0l0.33,-1.15l0,0l1.48,-1.81l0,0l-1.65,-1.65h-2.96l0,0l-2.47,-0.49l-1.98,-0.82l0,0l-0.16,-1.65l0.99,-2.31l0,0l1.98,-0.99l0.49,-1.48l0.17,-1.32l-1.15,-0.82l0.49,-3.29l1.32,-1.48l2.97,-0.33l1.48,-2.14l3.79,-0.82l2.8,-1.81l2.31,-2.14l0.82,-1.98h3.62l0.82,-1.65l0.99,-0.82l1.48,-0.33v-1.48l-1.32,-0.33l-0.66,-1.65l2.47,-1.32l-0.82,-1.81l0,0l-0.49,-1.32l0.99,-1.15l-0.33,-1.48l2.64,-1.48l0.17,3.29l3.13,-0.66l2.8,-1.98l0.99,-2.14l2.47,-0.66l0.66,-1.65l-1.48,-0.66l-0.16,-3.62l2.97,-2.47l1.81,-2.47l0.66,-2.39l-1.32,-1.48l-0.99,-0.82l1.15,-3.95l0.33,-3.29h3.79l1.98,-1.98l3.62,-0.16L158.52,191zM160.3,220.02L160.3,220.02l-2.96,-1.65l-1.81,1.32h-1.81l-0.49,1.81l-1.98,0.17l-1.32,1.65l-0.99,3.29l-1.48,1.15h-2.47l-0.99,1.98l1.98,0.66l1.32,1.48l-1.48,2.31l0.33,2.14l1.48,0.17l0.66,3.29h3.29l1.48,-2.47v-2.14l-1.48,-1.98l-0.33,-2.64l2.14,-1.81l1.48,-1.65l0.49,-2.31l3.13,-0.33l0.82,-1.48l1.81,0.99l1.32,-0.16L160.3,220.02z"/>
		<path id="YE-TA" title="Tā‘izz" class="land" d="M99.48,407.61l0.9,0.48l0.38,-0.12l0.42,0.42l-0.19,0.35l0.24,0.41l-0.12,0.14l0.14,0.32l-0.5,0.53l-0.33,-0.12l0.21,-0.25l-0.15,-0.39l-0.22,0.41l-0.36,0.04l0.26,-0.81l-0.36,-0.44l-0.24,0.41l-0.86,-0.26l0.78,0.81l-1.19,-0.48l-0.36,-0.42l0.17,-0.48l0.38,-0.26L99.48,407.61zM114.18,328.9l0.66,1.98l0,0l0.17,1.81l2.8,0.33l2.31,0.49l0.17,-1.98l1.15,-0.49l1.32,1.81l2.64,-2.31l2.31,-0.16v1.65l-0.66,1.48l0.82,1.48l1.65,-1.48l0.33,-1.32l1.65,-0.49l1.32,1.32l-0.82,1.15l-1.32,1.15l-0.16,1.48l2.97,0.17l1.81,-0.16l2.47,0.66l2.47,1.65l0.82,-1.48l2.8,2.14l3.29,-0.33v2.31h1.81l1.15,-1.48l1.48,-0.82l0.82,1.15l1.48,1.48l1.98,0.49l1.48,-0.82l1.48,-1.48l1.26,-1.71l0,0l0.65,0.97l0,0l0.49,2.47l-0.16,1.65l-1.81,0.66l0.33,2.47l2.31,0.49l1.32,-0.82l3.46,0.49l1.15,1.48l0.99,1.81l0,0l-1.81,1.32l-1.65,1.81l-1.81,0.66l-1.48,0.82l-0.82,0.99l-1.48,0.17l-1.48,0.49l-1.32,0.82l0.17,1.98l1.81,0.66l1.81,0.33l1.65,0.66l-0.33,1.65h-2.14l-1.81,-0.49l-1.98,0.82l-0.33,1.32l1.32,1.15l-0.99,2.47l1.32,1.65v1.98l-1.81,0.82l-1.15,1.32l-1.65,-0.66l-4.61,0.49l-0.99,-2.47l-1.32,0.17v2.8l-1.48,0.17l0.82,1.81l1.15,1.32l-4.94,-0.16l-0.16,3.79l-3.13,0.16l-0.82,-1.48l-1.15,-0.66l-1.32,0.82l0.17,2.47l-0.99,0.82l-1.65,-1.81l-3.62,-0.66l-1.81,-1.48h-1.32l-1.15,0.99l-1.65,0.49l-0.66,1.48l-1.98,0.49l-2.96,-0.49l-0.33,1.48l0.33,5.44l-1.32,1.48l-1.98,0.17l-1.48,2.31l-1.48,3.79l-3.29,5.44l-1.32,1.81l-0.44,2.74l0,0l-0.57,0.44l-0.09,0.32l-0.28,-0.32l-0.45,0.42l-0.09,-0.48l-0.14,0.35l-0.31,0.07l-0.38,-0.42l-0.19,0.12l0.04,0.34l-0.33,-0.18l-0.19,0.12l0.23,-0.42h-0.21l-0.22,0.33l-0.17,-0.07l-0.29,-0.56l0.09,-0.33l-0.41,-0.21l1.18,-1.41l0.26,0.49l0.99,-0.02l-0.78,-0.67l-0.43,0.07l-0.21,-0.18l0.35,-2.71l0.85,-2.64l0.45,-0.79l-0.04,-0.44l-2.42,-2.8l-0.02,-0.39l-1.23,-1.73l-0.52,-1.67l-1.3,-0.92l0.24,-0.25l0.03,-0.6l-0.81,-1.78l-1.83,-2.98l-1.35,-2.89l-2.32,-2.88l-1.69,-2.59l-1.75,-3.39l-0.55,-2.37l-1.12,-1.89l0.05,-0.41l0.31,-0.23l-0.09,0.76l0.78,1.25l0.1,-1.5l-0.28,-0.44l-0.16,-1.02l-0.29,0.11l-0.03,0.63l-0.14,-0.65l0.14,-0.33l0.36,-0.02l0.19,-0.72l-0.41,-0.41l0.4,0.04l0.33,-0.25l0.17,-0.49l0.14,-1.92l-0.14,-3.27l0.42,-0.3l0.14,-0.56l-0.04,-0.34l-0.24,-0.21l0.23,-4.01l0.19,-0.9l0.36,-0.25l-0.1,-0.58l0.5,-1.01l-0.12,-0.35l0.14,-0.49l0.52,-0.76l-0.24,-0.87l0.47,0.02l0.45,-0.57l-0.05,-0.64l-0.5,-0.62l-0.1,-0.9l0.31,-2.24l0,0l1.25,-0.42l0,0l1.81,-0.66l1.98,-1.15l0,0l1.81,-0.33l1.32,-1.15l0.99,-3.46l2.97,-0.33l-0.49,-1.48l0,0l0.17,-1.81l0.66,-2.96l0,0l3.62,-0.82l2.47,0.49l2.14,-1.32H114.18z"/>
	</g>
</svg>