<?xml version="1.0" encoding="utf-8"?>
<!-- Generator: Adobe Illustrator 27.2.0, SVG Export Plug-In . SVG Version: 6.00 Build 0)  -->
<svg version="1.1" id="Layer_1" xmlns="http://www.w3.org/2000/svg" xmlns:xlink="http://www.w3.org/1999/xlink" x="0px" y="0px"
	 viewBox="0 0 139.65 102.08" style="enable-background:new 0 0 139.65 102.08;" xml:space="preserve">
<style type="text/css">
	.st0{fill:#557037;}
	.st1{fill:#A0B14E;}
	.st2{fill:#DDDF72;}
	.st3{fill:#5E2E01;}
</style>
<g>
	<path class="st0" d="M130.81,49.84l0,0.01c-1.18-3.92-1.77-5.88-2.63-7.96c-1.65-4.03-3.75-7.3-6.89-11.36
		c-7.35-9.48-11.03-14.23-17.03-18.02C91.26,4.3,77.57,5.75,76.01,5.94c-4.67,0.56-14.96,2.61-23.77,11.1
		c-4.99,4.82-8.13,11.73-9.6,15.25C41.02,60.4,68.62,71.66,75.12,76.37c2.09,0.99,6.89,3.11,10.79,5.12c9,4.64,15.24,5.6,18.46,6.16
		c7.01,1.23,17.92-1.55,23.1-7.34c4.96-5.56,6.41-13.05,5.22-19.73C132.33,58.52,132.32,54.86,130.81,49.84z"/>
	<path class="st1" d="M120.15,34.56c-3.2-4.83-6.06-8.12-8.36-10.74c-4.9-5.59-7.35-8.39-10.68-10.41
		c-5.75-3.5-11.3-4.14-14.46-4.47c-7.45-0.77-13.15,0.81-15.92,1.6c-2.85,0.82-8.5,2.5-14.39,7.13c-5.34,4.19-8.63,10.5-10.42,13.9
		c-1.64,3.06,8.46,27.64,31.78,42.17c1.19,0.62,4.52,2.13,6.57,3.17c0.67,0.34,1.28,0.64,1.86,0.92c0.93,0.42,1.79,0.83,2.6,1.22
		c2.62,1.18,4.24,1.78,6.39,2.91c7.44,3.89,15.29,2.78,16.46,2.6c1.54-0.24,12.28-1.9,16.72-10.43c2.34-4.5,1.94-8.98,1.38-15.12
		c-0.16-1.74-0.69-6.45-2.83-12.16l0.01,0.01C124.97,41.83,122.76,38.51,120.15,34.56z"/>
	<path class="st2" d="M90.83,76.93c7.82,2.99,10.39,4.55,13.74,4.96c1.1,0.13,11.6,0.79,17.75-5.02c4.58-4.32,4.8-8.69,5.07-10.75
		c0.91-7.09-1.11-16.19-3.46-20.66c-3.1-5.87-3.9-7.1-12.2-18.1c-6.15-8.13-9.23-9.64-12.44-11.75c-5.52-3.6-11.9-3.69-16.23-3.87
		c-3.19-0.13-9.16,1.04-14.88,3.04C59.22,17.93,54,23.2,50.33,30.65c-4.07,8.59,16.52,36.6,30.83,42.32L90.83,76.93z"/>
	<path class="st1" d="M93.5,60.12L93.5,60.12c4.99-0.87,8.31-5.98,9.32-10.12c1.43-5.86-1.52-10.74-3.49-14
		c-1.85-3.07-5.12-7.36-11.02-9.75c-5.44-2.21-9.66,0.47-11.62,1.56c-8.67,12.81-1.95,25.81,10.8,32.3
		C89.1,60.27,92.24,60.34,93.5,60.12z"/>
	<path class="st0" d="M87.16,60.8c0.11-0.22,0.22-0.45,0.33-0.69c1.84-3.98,3.66-10.88,3.83-16.31c0.16-4.86-1.51-8.15-1.51-8.15
		c-1.7-4.42-6.58-5.94-8.72-6.76c-1.76-0.64-3.33-0.96-4.93-1.14c-3.15-0.28-7.52,0.05-15.07,1.16c-7.48,1.05-14.95,2.47-21.82,4.13
		c-8.34,2.03-12.94,3.15-18.23,5.71c-6.12,2.96-11.9,5.75-14.4,11.89c-0.65,1.59-0.99,3.19-1.15,4.69v4.35
		c0.04,0.36,0.08,0.7,0.13,1.01c0,0,1.65,16.46,12.99,24.85c9.49,7.03,23.49,9.63,33.92,6.78c8.23-1.56,16.08-9.27,22.6-16.01
		c1.33-1.35,2.94-2.93,3.94-4.13l0,0.01C81.25,69.58,85.46,64.16,87.16,60.8z"/>
	<path class="st1" d="M87.97,49.72c0.78-1.87,2.24-5.35,2.12-8.89c0-0.14-0.01-0.28-0.02-0.42c-0.1-1.41-0.45-2.72-1.05-3.9
		c-1.97-3.93-6.06-5.49-8.25-6.33c-1.61-0.61-3.01-0.94-4.7-1.09c-3.07-0.28-7.38,0.06-14.86,1.16c-2.9,0.42-6.03,0.89-9.6,1.52
		l-0.01,0.01c-1.94,0.35-3.86,0.72-5.87,1.15c-1.03,0.22-2.09,0.46-3.21,0.71c-0.98,0.23-2,0.47-3.06,0.73
		c-8.28,2.02-12.84,3.13-18.05,5.65c-6.22,3.01-11.6,5.6-13.97,11.42C5.99,54.99,6.12,58.6,6.48,61l0,0.01l0,0c0,0,0,0.01,0,0.01
		l0.01,0.03c0.07,0.46,0.15,0.9,0.25,1.35c0,0.02,0.13,0.65,0.48,1.71l0,0l0.02,0.04c0.57,1.74,1.62,4.3,3.4,6.62
		c6.45,8.38,19,8.89,23.72,9.08c0.46,0.02,0.92,0.03,1.37,0.03c14.08,0.16,25.34-5.95,33.01-10.45l0,0
		C75.37,65.53,83.56,60.2,87.97,49.72z"/>
	<path class="st2" d="M40.13,77.53c10.94-0.6,18.48-4.87,23.77-7.58v0c7.3-3.76,13.23-8.07,16.28-11.42
		c5.07-5.58,7.14-11.25,7.59-15.86c0.5-5.17-2.75-7.1-3.85-8.04c-4.11-3.5-9.69-3.45-14.77-3.47c-2.31-0.01-5.61,0.17-15.76,2.38
		c-8.07,1.84-9.72,2.24-19.47,4.9c-6.5,1.81-10.17,3.03-13.16,4.9c-4.19,2.63-9.4,5.9-10.72,12.2c-1.64,7.82,4.15,14.34,5.33,15.57
		c5.67,5.91,13.48,6.62,18.86,6.63C36.36,77.74,38.36,77.63,40.13,77.53z"/>
	<path class="st3" d="M32.64,41.17l-1.95,2.18c-3.45,4.33-5.92,12.69-4.05,14.94c0.96,1.16,1.46,1.28,1.81,1.51
		c4.8,2.32,9.17,5.5,16.33,5.92l5.95-0.01c0.48-0.02,1.19-0.05,1.7-0.09c1.33-0.12,0.75-0.13,1.66-0.23
		c8.23-1.35,19.19-7.17,18.77-15.31c-0.16-3.04-3.64-8.03-6-10.28c-2.51-2.39-7.2-4.72-8.43-5.16c-0.58-0.18-1.26-0.41-2.41-0.61
		c-0.61-0.11-1.2-0.2-1.79-0.27c-0.28-0.04-0.57-0.06-0.85-0.09c-0.29-0.03-0.57-0.04-0.85-0.06c-5.98-0.37-11.34,1.18-15.47,3.82
		c-0.34,0.22-0.68,0.44-1.01,0.68c-0.17,0.12-0.33,0.24-0.5,0.37l0,0C34.71,39.11,33.34,40.45,32.64,41.17z"/>
</g>
</svg>
