<?xml version="1.0" encoding="utf-8"?><!DOCTYPE svg PUBLIC "-//W3C//DTD SVG 1.1//EN" "http://www.w3.org/Graphics/SVG/1.1/DTD/svg11.dtd"><svg enable-background="new 0 0 512 512" x="0px" y="0px" height="512px" id="Layer_1" version="1.1" viewBox="0 0 512 512" width="512px" xml:space="preserve" xmlns="http://www.w3.org/2000/svg" xmlns:xlink="http://www.w3.org/1999/xlink"><path id="stat_cpu2" d="M336,359.5c0,4.693-3.806,8.5-8.5,8.5h-143c-4.694,0-8.5-3.807-8.5-8.5v-127c0-4.694,3.806-8.5,8.5-8.5h143 c4.694,0,8.5,3.806,8.5,8.5V359.5z M448,148.672v294.656c0,20.25-16.422,36.672-36.672,36.672H100.672 C80.422,480,64,463.578,64,443.328V148.672C64,128.422,80.422,112,100.672,112h310.656C431.578,112,448,128.422,448,148.672z M93.602,160c0,10.172,8.234,18.406,18.398,18.406s18.398-8.234,18.398-18.406s-8.234-18.406-18.398-18.406 S93.602,149.828,93.602,160z M146.344,443.016l-45.367-45.375c-0.828-0.828-2.086-1.078-3.18-0.625 c-1.086,0.453-1.797,1.517-1.797,2.688v45.391c0,1.609,1.305,2.906,2.914,2.906h45.367c1.18,0,2.25-0.719,2.695-1.797 C147.43,445.109,147.18,443.859,146.344,443.016z M368,208c0-8.844-7.164-16-16-16H160c-8.836,0-16,7.156-16,16v176 c0,8.844,7.164,16,16,16h192c8.836,0,16-7.156,16-16V208z M418.398,432c0-10.172-8.234-18.406-18.398-18.406 s-18.398,8.234-18.398,18.406s8.234,18.406,18.398,18.406S418.398,442.172,418.398,432z M418.398,160 c0-10.172-8.234-18.406-18.398-18.406s-18.398,8.234-18.398,18.406s8.234,18.406,18.398,18.406S418.398,170.172,418.398,160z"/></svg>